<svg width="16" height="16" viewBox="0 0 16 16" fill="none" xmlns="http://www.w3.org/2000/svg">
<path d="M7.94702 15.894C12.336 15.894 15.894 12.336 15.894 7.94702C15.894 3.558 12.336 0 7.94702 0C3.558 0 0 3.558 0 7.94702C0 12.336 3.558 15.894 7.94702 15.894Z" fill="#A2FAF3"/>
<path d="M7.94724 14.4938C11.563 14.4938 14.4941 11.5627 14.4941 7.94699C14.4941 4.33127 11.563 1.40015 7.94724 1.40015C4.33151 1.40015 1.40039 4.33127 1.40039 7.94699C1.40039 11.5627 4.33151 14.4938 7.94724 14.4938Z" fill="#6CF7EC"/>
<path d="M7.17183 10.9693C7.06805 10.9693 6.96533 10.9485 6.86975 10.9081C6.77417 10.8676 6.68769 10.8084 6.61544 10.7339L4.09537 8.13762C4.02329 8.06479 3.96636 7.9784 3.92787 7.88344C3.88939 7.78848 3.8701 7.68683 3.87113 7.58438C3.87217 7.48192 3.8935 7.38068 3.93389 7.28652C3.97429 7.19235 4.03295 7.10713 4.10648 7.03577C4.18001 6.96442 4.26696 6.90834 4.36229 6.87079C4.45763 6.83324 4.55946 6.81495 4.6619 6.817C4.76434 6.81904 4.86537 6.84137 4.95913 6.88269C5.05289 6.92401 5.13753 6.9835 5.20816 7.05773L7.15226 9.06056L10.6687 5.18033C10.8077 5.03138 10.9996 4.94309 11.2032 4.93452C11.4067 4.92596 11.6054 4.9978 11.7564 5.13454C11.9074 5.27128 11.9985 5.46193 12.0101 5.6653C12.0216 5.86866 11.9527 6.06842 11.8182 6.22141L7.74746 10.7152C7.67607 10.7938 7.58932 10.8569 7.49257 10.9006C7.39583 10.9443 7.29115 10.9677 7.185 10.9693H7.17183Z" fill="white"/>
</svg>
