<svg width="21" height="23" viewBox="0 0 21 23" fill="none" xmlns="http://www.w3.org/2000/svg">
<path d="M11.1931 6.01997H8.73033V4.86398C8.73033 4.20763 9.24402 3.70799 9.77969 3.70799H16.3848C16.9205 3.70799 17.4342 4.20763 17.4342 4.86398V11.8947C17.4342 12.5859 16.9151 13.0797 16.3848 13.0797H15.3355V10.384C15.3355 9.28104 14.9325 8.26306 14.2754 7.49156V7.15302H13.9573C13.2337 6.4558 12.2701 6.01997 11.1931 6.01997ZM5.66452 6.01997H4.61516C3.48259 6.01997 2.46137 6.52489 1.70201 7.30405L1.69491 7.31134L1.6881 7.31891C0.959487 8.13012 0.5 9.20579 0.5 10.384V17.4437C0.5 18.5466 0.902973 19.5646 1.56009 20.3361V20.3721L1.69497 20.5162C2.43467 21.3069 3.48803 21.8077 4.61516 21.8077H11.1931C12.3495 21.8077 13.3751 21.3052 14.1133 20.5162L14.1405 20.4872C14.8769 19.7001 15.3355 18.6202 15.3355 17.4437V16.2877H16.3848C17.5161 16.2877 18.5412 15.7836 19.2778 14.9963L18.9127 14.6547L19.2778 14.9963L19.305 14.9672C20.0428 14.1787 20.5 13.0983 20.5 11.8947V4.86398C20.5 3.68582 20.0405 2.61015 19.3119 1.79894L19.1629 1.63305H19.1218C18.3997 0.937139 17.4383 0.5 16.3848 0.5H9.77969C8.72624 0.5 7.76485 0.937139 7.04274 1.63305H7.00769L6.85949 1.79144C6.1204 2.58141 5.66452 3.69133 5.66452 4.86398V6.01997ZM4.61516 9.22796H11.1931C11.7614 9.22796 12.2697 9.7334 12.2697 10.384V17.4437C12.2697 18.0943 11.7614 18.5997 11.1931 18.5997H4.61516C4.0795 18.5997 3.56581 18.1001 3.56581 17.4437V10.384C3.56581 9.7276 4.0795 9.22796 4.61516 9.22796Z" fill="black" fill-opacity="0.67" stroke="#E6E6E6"/>
</svg>
