<svg xmlns="http://www.w3.org/2000/svg" width="32" height="32" viewBox="0 0 32 32">
  <g id="Group_1554" data-name="Group 1554" transform="translate(6536 12355)">
    <rect id="Rectangle_2248" data-name="Rectangle 2248" width="32" height="32" rx="3" transform="translate(-6536 -12355)" fill="#502eff"/>
    <path id="Icon_awesome-link" data-name="Icon awesome-link" d="M9.972,5.66a4.638,4.638,0,0,1,.011,6.552l-.011.011L7.92,14.275A4.641,4.641,0,0,1,1.357,7.712L2.49,6.579a.488.488,0,0,1,.833.324,5.626,5.626,0,0,0,.3,1.61A.491.491,0,0,1,3.5,9.02l-.4.4a2.2,2.2,0,1,0,3.089,3.129L8.245,10.5a2.2,2.2,0,0,0,0-3.109,2.287,2.287,0,0,0-.316-.262.49.49,0,0,1-.212-.385,1.216,1.216,0,0,1,.357-.91l.643-.643a.49.49,0,0,1,.628-.053,4.655,4.655,0,0,1,.627.525Zm4.3-4.3a4.646,4.646,0,0,0-6.563,0L5.66,3.409l-.011.011A4.642,4.642,0,0,0,6.287,10.5a.49.49,0,0,0,.628-.053L7.558,9.8a1.216,1.216,0,0,0,.357-.91A.49.49,0,0,0,7.7,8.506a2.287,2.287,0,0,1-.316-.262,2.2,2.2,0,0,1,0-3.109L9.439,3.084a2.2,2.2,0,1,1,3.089,3.129l-.4.4a.491.491,0,0,0-.115.507,5.626,5.626,0,0,1,.3,1.61.488.488,0,0,0,.833.324L14.275,7.92a4.646,4.646,0,0,0,0-6.563Z" transform="translate(-6528 -12347)" fill="#fff"/>
  </g>
</svg>
