<svg xmlns="http://www.w3.org/2000/svg" width="56.924" height="53.556" viewBox="0 0 56.924 53.556"><defs><style>.a{fill:#759aff;}</style></defs><g transform="translate(-10 -10)"><g transform="translate(10 10)"><path class="a" d="M54.813,10h-43.6A1.214,1.214,0,0,0,10,11.217V62.339a1.214,1.214,0,0,0,1.211,1.217h43.6a1.214,1.214,0,0,0,1.211-1.217V11.217A1.214,1.214,0,0,0,54.813,10ZM53.6,61.121H12.422V12.434H53.6ZM23.928,41.647a4.25,4.25,0,0,0,4.239-4.26v-.4a1.223,1.223,0,0,0,0-.207V23.036l12.112-3.3v7.7a4.161,4.161,0,0,0-1.817-.4A4.258,4.258,0,1,0,42.5,32.554a1.221,1.221,0,0,0,.206-.645V18.179a1.219,1.219,0,0,0-.472-.974A1.206,1.206,0,0,0,41.175,17L26.641,20.955a1.216,1.216,0,0,0-.9,1.217V33.613a4.163,4.163,0,0,0-1.817-.487,4.26,4.26,0,0,0,0,8.52Zm14.534-8.52A1.826,1.826,0,1,1,40.279,31.3,1.821,1.821,0,0,1,38.462,33.126ZM23.928,35.561a1.826,1.826,0,1,1-1.817,1.826A1.821,1.821,0,0,1,23.928,35.561ZM14.845,56.253V45.3a1.211,1.211,0,1,1,2.422,0V56.253a1.211,1.211,0,1,1-2.422,0Zm4.845,0v-8.52a1.211,1.211,0,1,1,2.422,0v8.52a1.211,1.211,0,1,1-2.422,0ZM31.8,45.3V56.253a1.211,1.211,0,1,1-2.422,0V45.3a1.211,1.211,0,1,1,2.422,0ZM48.757,56.253V45.3a1.211,1.211,0,1,1,2.422,0V56.253a1.211,1.211,0,1,1-2.422,0Zm-12.112-8.52v8.52a1.211,1.211,0,1,1-2.422,0v-8.52a1.211,1.211,0,1,1,2.422,0Zm4.845,0v8.52a1.211,1.211,0,1,1-2.422,0v-8.52a1.211,1.211,0,1,1,2.422,0ZM26.956,51.384v4.869a1.211,1.211,0,1,1-2.422,0V51.384a1.211,1.211,0,1,1,2.422,0Zm16.956,4.869V51.384a1.211,1.211,0,1,1,2.422,0v4.869a1.211,1.211,0,1,1-2.422,0ZM65.713,10H59.658a1.214,1.214,0,0,0-1.211,1.217v42.6a1.222,1.222,0,0,0,.073.414l3.028,8.52a1.209,1.209,0,0,0,2.277,0l3.028-8.52a1.223,1.223,0,0,0,.073-.414v-42.6A1.214,1.214,0,0,0,65.713,10ZM64.5,53.611l-1.817,5.076-1.817-5.076V12.434H64.5Z" transform="translate(-10 -10)"/></g></g></svg>