<svg xmlns="http://www.w3.org/2000/svg" width="24" height="24.002" viewBox="0 0 24 24.002"><defs><style>.a{fill:#303030;}</style></defs><g transform="translate(-108.19 -0.26)"><path class="a" d="M130.153,1.339a3.682,3.682,0,0,0-5.207,0l-14.6,14.6a.818.818,0,0,0-.21.36l-1.92,6.93a.818.818,0,0,0,1.007,1.007l6.93-1.92a.818.818,0,0,0,.36-.21l14.6-14.6a3.686,3.686,0,0,0,0-5.207ZM112.132,16.468,124.079,4.521l3.853,3.853L115.985,20.321Zm-.77,1.544,3.078,3.078-4.258,1.18ZM129.956,6.349l-.868.868-3.853-3.853L126.1,2.5A2.045,2.045,0,0,1,129,2.5l.96.96A2.048,2.048,0,0,1,129.956,6.349Zm0,0" transform="translate(0)"/></g></svg>