<svg xmlns="http://www.w3.org/2000/svg" width="30" height="30" viewBox="0 0 30 30"><defs><style>.a{fill:#303030;}</style></defs><path class="a" d="M10.359,0H3.469A3.473,3.473,0,0,0,0,3.469v6.89a3.473,3.473,0,0,0,3.469,3.469h6.89a3.473,3.473,0,0,0,3.469-3.469V3.469A3.473,3.473,0,0,0,10.359,0Zm1.125,10.359a1.127,1.127,0,0,1-1.125,1.125H3.469a1.127,1.127,0,0,1-1.125-1.125V3.469A1.127,1.127,0,0,1,3.469,2.344h6.89a1.127,1.127,0,0,1,1.125,1.125Z"/><g transform="translate(16.172)"><path class="a" d="M286.313,0h-6.8A3.52,3.52,0,0,0,276,3.516v6.8a3.52,3.52,0,0,0,3.516,3.516h6.8a3.52,3.52,0,0,0,3.516-3.516v-6.8A3.52,3.52,0,0,0,286.313,0Zm1.172,10.313a1.173,1.173,0,0,1-1.172,1.172h-6.8a1.173,1.173,0,0,1-1.172-1.172v-6.8a1.173,1.173,0,0,1,1.172-1.172h6.8a1.173,1.173,0,0,1,1.172,1.172Z" transform="translate(-276)"/></g><g transform="translate(0 16.172)"><path class="a" d="M10.359,276H3.469A3.473,3.473,0,0,0,0,279.469v6.89a3.473,3.473,0,0,0,3.469,3.469h6.89a3.473,3.473,0,0,0,3.469-3.469v-6.89A3.473,3.473,0,0,0,10.359,276Zm1.125,10.359a1.127,1.127,0,0,1-1.125,1.125H3.469a1.127,1.127,0,0,1-1.125-1.125v-6.89a1.127,1.127,0,0,1,1.125-1.125h6.89a1.127,1.127,0,0,1,1.125,1.125Z" transform="translate(0 -276)"/></g><g transform="translate(16.172 16.172)"><path class="a" d="M286.313,276h-6.8A3.52,3.52,0,0,0,276,279.516v6.8a3.52,3.52,0,0,0,3.516,3.516h6.8a3.52,3.52,0,0,0,3.516-3.516v-6.8A3.52,3.52,0,0,0,286.313,276Zm1.172,10.313a1.173,1.173,0,0,1-1.172,1.172h-6.8a1.173,1.173,0,0,1-1.172-1.172v-6.8a1.173,1.173,0,0,1,1.172-1.172h6.8a1.173,1.173,0,0,1,1.172,1.172Z" transform="translate(-276 -276)"/></g></svg>