<svg xmlns="http://www.w3.org/2000/svg" xmlns:xlink="http://www.w3.org/1999/xlink" width="40" height="40" viewBox="0 0 40 40"><defs><style>.a{fill:none;}.b{clip-path:url(#a);}.c{fill:url(#b);}</style><clipPath id="a"><rect class="a" width="40" height="40"/></clipPath><linearGradient id="b" x1="0.5" x2="0.5" y2="1" gradientUnits="objectBoundingBox"><stop offset="0" stop-color="#fa9472"/><stop offset="1" stop-color="#fb6394"/></linearGradient></defs><g class="b"><path class="c" d="M20,0A20,20,0,1,0,40,20,20,20,0,0,0,20,0Zm0,31.06a2.6,2.6,0,0,1-2.6-2.6h5.2A2.6,2.6,0,0,1,20,31.06Zm8.785-5.207h0c0,.961-.779,1.025-1.74,1.025H12.956c-.961,0-1.739-.063-1.739-1.025v-.166a1.736,1.736,0,0,1,.989-1.564l.552-4.767a7.246,7.246,0,0,1,5.754-7.09V10.416a1.49,1.49,0,0,1,2.98,0v1.851a7.246,7.246,0,0,1,5.754,7.09l.552,4.768a1.735,1.735,0,0,1,.989,1.563Z" transform="translate(-0.001)"/></g></svg>