<svg xmlns="http://www.w3.org/2000/svg" width="23.729" height="29.66" viewBox="0 0 23.729 29.66"><defs><style>.a{fill:#303030;}</style></defs><path class="a" d="M75.046,4.966H69.113V3.483A1.485,1.485,0,0,0,67.63,2H61.7a1.485,1.485,0,0,0-1.483,1.483V4.966H54.283a1.483,1.483,0,1,0,0,2.966H75.046a1.483,1.483,0,0,0,0-2.966Z" transform="translate(-52.8 -2)"/><path class="a" d="M103.6,173.68a1.485,1.485,0,0,0,1.483,1.483h14.83a1.485,1.485,0,0,0,1.483-1.483V155a.594.594,0,0,0-.6-.6H104.2a.594.594,0,0,0-.6.6Zm10.381-14.83a1.483,1.483,0,1,1,2.966,0v11.864a1.483,1.483,0,1,1-2.966,0Zm-5.932,0a1.483,1.483,0,0,1,2.966,0v11.864a1.483,1.483,0,1,1-2.966,0Z" transform="translate(-100.634 -145.502)"/></svg>