<svg xmlns="http://www.w3.org/2000/svg" width="28.199" height="24.45" viewBox="0 0 28.199 24.45"><defs><style>.a{fill:#faf5f5;}</style></defs><path class="a" d="M.881,13.753A.831.831,0,0,0,0,14.517v1.528a.831.831,0,0,0,.881.764H7.05V13.753ZM27.814,5.014,22.422.334A1.431,1.431,0,0,0,21.485,0h-.336V6.113H28.2V5.821A1.071,1.071,0,0,0,27.814,5.014Zm-8.427,1.48V0H8.372A1.24,1.24,0,0,0,7.05,1.146V13.753H14.1V10.64a.906.906,0,0,1,1.509-.54l5.265,4.608a.739.739,0,0,1,0,1.146l-5.271,4.6a.906.906,0,0,1-1.509-.54V16.809H7.05V23.3A1.24,1.24,0,0,0,8.372,24.45H26.877A1.24,1.24,0,0,0,28.2,23.3V7.641h-7.49A1.247,1.247,0,0,1,19.387,6.495Z"/></svg>