<svg width="16" height="16" viewBox="0 0 16 16" fill="none" xmlns="http://www.w3.org/2000/svg">
<path d="M8 16C12.4183 16 16 12.4183 16 8C16 3.58172 12.4183 0 8 0C3.58172 0 0 3.58172 0 8C0 12.4183 3.58172 16 8 16Z" fill="#FFE8CC"/>
<path d="M7.99967 14.5905C11.6395 14.5905 14.5902 11.6399 14.5902 8.00004C14.5902 4.36021 11.6395 1.40955 7.99967 1.40955C4.35984 1.40955 1.40918 4.36021 1.40918 8.00004C1.40918 11.6399 4.35984 14.5905 7.99967 14.5905Z" fill="#FFEDA0"/>
<path d="M8.48723 4.62478C9.15389 4.62478 9.68723 4.80478 10.0872 5.16478C10.4872 5.52478 10.6872 6.02478 10.6872 6.66478C10.6872 7.35811 10.4706 7.88145 10.0372 8.23478C9.61056 8.58145 9.02723 8.76145 8.28723 8.77478V9.87478H7.20723V8.01478H7.68723C8.26723 8.01478 8.72389 7.92145 9.05723 7.73478C9.39056 7.54145 9.55723 7.18811 9.55723 6.67478C9.55723 6.32811 9.45723 6.05811 9.25723 5.86478C9.05723 5.66478 8.78723 5.56478 8.44723 5.56478C8.08723 5.56478 7.79723 5.66811 7.57723 5.87478C7.35723 6.08145 7.24723 6.35145 7.24723 6.68478H6.15723C6.15056 6.28478 6.24056 5.93145 6.42723 5.62478C6.61389 5.31145 6.88389 5.06811 7.23723 4.89478C7.59056 4.71478 8.00723 4.62478 8.48723 4.62478ZM8.40723 10.7648V12.0248H7.10723V10.7648H8.40723Z" fill="white"/>
</svg>
