<svg xmlns="http://www.w3.org/2000/svg" xmlns:xlink="http://www.w3.org/1999/xlink" width="127" height="126.068" viewBox="0 0 127 126.068"><defs><style>.a{fill:url(#a);}.b{fill:url(#d);}.c{fill:#020288;}.d{filter:url(#b);}</style><linearGradient id="a" x1="0.5" x2="0.5" y2="1" gradientUnits="objectBoundingBox"><stop offset="0" stop-color="#f2f3f6"/><stop offset="1" stop-color="#fff"/></linearGradient><filter id="b" x="0" y="0" width="127" height="126.068" filterUnits="userSpaceOnUse"><feOffset dy="3" input="SourceAlpha"/><feGaussianBlur stdDeviation="3" result="c"/><feFlood flood-opacity="0.161"/><feComposite operator="in" in2="c"/><feComposite in="SourceGraphic"/></filter><linearGradient id="d" x1="0.5" x2="0.5" y2="1" gradientUnits="objectBoundingBox"><stop offset="0" stop-color="#f96"/><stop offset="1" stop-color="#ff5e62"/></linearGradient></defs><g transform="translate(-721 -605)"><g transform="translate(730.465 611)"><g class="d" transform="matrix(1, 0, 0, 1, -9.46, -6)"><ellipse class="a" cx="54.5" cy="54.034" rx="54.5" ry="54.034" transform="translate(9 6)"/></g></g><g transform="translate(753 605.49)"><g transform="translate(0 31.51)"><g transform="translate(16.898 0)"><path class="b" d="M136.766,34.65v8.193h5.677V37.2h18.109v5.644h5.677V34.65a3.137,3.137,0,0,0-3.134-3.14H139.9A3.137,3.137,0,0,0,136.766,34.65Z" transform="translate(-136.766 -31.51)"/></g><g transform="translate(0 10.097)"><path class="c" d="M57.281,113.235H5.979A5.985,5.985,0,0,0,0,119.214v33.414a5.986,5.986,0,0,0,5.974,5.983H57.286a5.986,5.986,0,0,0,5.974-5.983V119.214a5.986,5.986,0,0,0-5.979-5.979Zm3.508,39.392a3.512,3.512,0,0,1-3.5,3.512H5.974a3.512,3.512,0,0,1-3.5-3.512V137.012a9.362,9.362,0,0,0,6.914,3.045h3.63a1.236,1.236,0,1,0,0-2.471H9.385a6.922,6.922,0,0,1-6.914-6.914V119.214a3.512,3.512,0,0,1,3.508-3.508h51.3a3.512,3.512,0,0,1,3.508,3.508v11.459a6.922,6.922,0,0,1-6.914,6.914h-4.33a1.236,1.236,0,0,0,0,2.471h4.33a9.362,9.362,0,0,0,6.914-3.045Z" transform="translate(0 -113.235)"/><path class="c" d="M165.483,310.324H138.449a1.236,1.236,0,0,0,0,2.471h27.035a1.236,1.236,0,1,0,0-2.471Z" transform="translate(-120.26 -285.973)"/><path class="c" d="M157.931,166.724H128.621a1.236,1.236,0,0,0,0,2.471h29.311a1.236,1.236,0,0,0,0-2.471Z" transform="translate(-111.646 -160.115)"/></g></g><g transform="translate(11.949 60.718)"><g transform="translate(31.841 0)"><path class="b" d="M354.413,267.912h7.522v11.716h-7.522Z" transform="translate(-354.413 -267.912)"/></g><g transform="translate(0 0)"><path class="b" d="M96.707,267.912h7.522v11.716H96.707Z" transform="translate(-96.707 -267.912)"/></g></g></g></g></svg>