<svg xmlns="http://www.w3.org/2000/svg" xmlns:xlink="http://www.w3.org/1999/xlink" width="127" height="126.068" viewBox="0 0 127 126.068"><defs><style>.a{fill:url(#a);}.b{fill:url(#d);}.c{fill:#453890;}.d{filter:url(#b);}</style><linearGradient id="a" x1="0.5" x2="0.5" y2="1" gradientUnits="objectBoundingBox"><stop offset="0" stop-color="#f2f3f6"/><stop offset="1" stop-color="#fff"/></linearGradient><filter id="b" x="0" y="0" width="127" height="126.068" filterUnits="userSpaceOnUse"><feOffset dy="3" input="SourceAlpha"/><feGaussianBlur stdDeviation="3" result="c"/><feFlood flood-opacity="0.161"/><feComposite operator="in" in2="c"/><feComposite in="SourceGraphic"/></filter><linearGradient id="d" x1="0.5" x2="0.5" y2="1" gradientUnits="objectBoundingBox"><stop offset="0" stop-color="#f96"/><stop offset="1" stop-color="#ff5e62"/></linearGradient></defs><g transform="translate(-585 -605)"><g transform="translate(594.465 611)"><g class="d" transform="matrix(1, 0, 0, 1, -9.46, -6)"><ellipse class="a" cx="54.5" cy="54.034" rx="54.5" ry="54.034" transform="translate(9 6)"/></g></g><g transform="translate(613.406 600.931)"><g transform="translate(16.944 49.615)"><path class="b" d="M121.521,137.012a17.3,17.3,0,1,0,17.281,17.3A17.312,17.312,0,0,0,121.521,137.012Zm0,26.937a9.634,9.634,0,1,1,9.622-9.634A9.628,9.628,0,0,1,121.521,163.949Z" transform="translate(-104.24 -137.012)"/></g><g transform="translate(0 32.651)"><path class="c" d="M80.8,66.735l2.267-4.75A1.626,1.626,0,0,0,81.6,59.659H69.962a1.626,1.626,0,0,0-1.431.855l-.513.952A34.23,34.23,0,1,0,17.472,96.792l-5.689,5.7a1.625,1.625,0,1,0,2.3,2.3l6.453-6.461a34.179,34.179,0,0,0,27.379,0l6.453,6.461a1.625,1.625,0,1,0,2.3-2.3l-5.689-5.7A34.353,34.353,0,0,0,68.063,72.086l.468.87a1.626,1.626,0,0,0,1.431.855H81.6a1.626,1.626,0,0,0,1.467-2.326Zm-46.576,31.2A31.016,31.016,0,1,1,65.148,65.109H60.731a26.6,26.6,0,1,0,.022,3.251h4.414A31.032,31.032,0,0,1,34.226,97.935Zm11.1-32.825a11.26,11.26,0,1,0,.053,3.251H57.5a23.344,23.344,0,1,1-.025-3.251H45.328Zm-11.1,3.251h7.866a8.007,8.007,0,1,1-.076-3.251h-7.79a1.626,1.626,0,0,0,0,3.251Zm43.308-.926,1.491,3.124H70.933l-2.059-3.824,2.059-3.824h8.091l-1.491,3.124a1.625,1.625,0,0,0,0,1.4Z" transform="translate(0 -32.651)"/></g></g></g></svg>