<svg xmlns="http://www.w3.org/2000/svg" xmlns:xlink="http://www.w3.org/1999/xlink" width="127" height="126.068" viewBox="0 0 127 126.068"><defs><style>.a{fill:url(#a);}.b{fill:url(#d);}.c{fill:#453890;}.d{filter:url(#b);}</style><linearGradient id="a" x1="0.5" x2="0.5" y2="1" gradientUnits="objectBoundingBox"><stop offset="0" stop-color="#f2f3f6"/><stop offset="1" stop-color="#fff"/></linearGradient><filter id="b" x="0" y="0" width="127" height="126.068" filterUnits="userSpaceOnUse"><feOffset dy="3" input="SourceAlpha"/><feGaussianBlur stdDeviation="3" result="c"/><feFlood flood-opacity="0.161"/><feComposite operator="in" in2="c"/><feComposite in="SourceGraphic"/></filter><linearGradient id="d" x1="0.5" x2="0.5" y2="1" gradientUnits="objectBoundingBox"><stop offset="0" stop-color="#f96"/><stop offset="1" stop-color="#ff5e62"/></linearGradient></defs><g transform="translate(-449 -605)"><g transform="translate(458.465 611)"><g class="d" transform="matrix(1, 0, 0, 1, -9.46, -6)"><ellipse class="a" cx="54.5" cy="54.034" rx="54.5" ry="54.034" transform="translate(9 6)"/></g></g><g transform="translate(487 608.379)"><g transform="translate(7.832 45.93)"><path class="b" d="M76.584,298.383v-14.7a30.741,30.741,0,0,0-7.042-.817h-3.8v23.77H79.715v-4.726A3.548,3.548,0,0,0,76.584,298.383Z" transform="translate(-65.739 -269.002)"/><g transform="translate(34.869)"><path class="b" d="M358.41,166.51v11.757a5.878,5.878,0,0,0,0-11.757Z" transform="translate(-358.41 -166.51)"/></g></g><g transform="translate(0 29.621)"><path class="c" d="M440.126,97.007a1.191,1.191,0,0,0-1.554,1.807,15.94,15.94,0,0,1-.463,24.58,1.191,1.191,0,1,0,1.485,1.864,18.323,18.323,0,0,0,.531-28.25Z" transform="translate(-385.517 -88.725)"/><path class="c" d="M406.862,130.619a1.191,1.191,0,0,0-1.489,1.861,10.314,10.314,0,0,1-.432,16.455,1.191,1.191,0,1,0,1.389,1.936,12.7,12.7,0,0,0,.531-20.252Z" transform="translate(-356.259 -118.356)"/><path class="c" d="M42.7,29.621H36.432a1.191,1.191,0,0,0-1.191,1.191v2.046l-7.2,4.8a29.47,29.47,0,0,1-16.407,4.972H4.493A4.5,4.5,0,0,0,0,47.13v9.356a4.5,4.5,0,0,0,4.493,4.5h7.143a29.47,29.47,0,0,1,16.407,4.972l7.2,4.8V72.8A1.191,1.191,0,0,0,36.432,74H42.7A1.191,1.191,0,0,0,43.893,72.8V30.812A1.191,1.191,0,0,0,42.7,29.621ZM6.641,58.6H4.493a2.115,2.115,0,0,1-2.11-2.115V47.131a2.115,2.115,0,0,1,2.11-2.115H6.641Zm28.6-7.984H22.132a1.191,1.191,0,1,0,0,2.383H35.241V67.893l-5.876-3.92A31.845,31.845,0,0,0,11.636,58.6H9.024V45.016h2.612a31.845,31.845,0,0,0,17.729-5.372l5.876-3.92Zm6.269,21H37.623V32H41.51Z" transform="translate(0 -29.621)"/></g></g></g></svg>