<svg xmlns="http://www.w3.org/2000/svg" xmlns:xlink="http://www.w3.org/1999/xlink" width="127" height="126.068" viewBox="0 0 127 126.068">
  <defs>
    <linearGradient id="linear-gradient" x1="0.5" x2="0.5" y2="1" gradientUnits="objectBoundingBox">
      <stop offset="0" stop-color="#f2f3f6"/>
      <stop offset="1" stop-color="#fff"/>
    </linearGradient>
    <filter id="Ellipse_2932" x="0" y="0" width="127" height="126.068" filterUnits="userSpaceOnUse">
      <feOffset dy="3" input="SourceAlpha"/>
      <feGaussianBlur stdDeviation="3" result="blur"/>
      <feFlood flood-opacity="0.161"/>
      <feComposite operator="in" in2="blur"/>
      <feComposite in="SourceGraphic"/>
    </filter>
    <linearGradient id="linear-gradient-2" x1="0.5" x2="0.5" y2="1" gradientUnits="objectBoundingBox">
      <stop offset="0" stop-color="#f96"/>
      <stop offset="1" stop-color="#ff5e62"/>
    </linearGradient>
  </defs>
  <g id="Group_8996" data-name="Group 8996" transform="translate(-6524 1893)">
    <g id="Group_8991" data-name="Group 8991" transform="translate(6533.465 -1887)">
      <g transform="matrix(1, 0, 0, 1, -9.46, -6)" filter="url(#Ellipse_2932)">
        <g id="Ellipse_2932-2" data-name="Ellipse 2932" transform="translate(9 6)" stroke="rgba(112,112,112,0.49)" stroke-width="3" fill="url(#linear-gradient)">
          <ellipse cx="54.5" cy="54.034" rx="54.5" ry="54.034" stroke="none"/>
          <ellipse cx="54.5" cy="54.034" rx="53" ry="52.534" fill="none"/>
        </g>
      </g>
    </g>
    <g id="_046-target" data-name="046-target" transform="translate(6552.406 -1900.069)">
      <g id="Group_8978" data-name="Group 8978" transform="translate(16.944 49.615)">
        <path id="Path_34084" data-name="Path 34084" d="M121.521,137.012a17.3,17.3,0,1,0,17.281,17.3A17.312,17.312,0,0,0,121.521,137.012Zm0,26.937a9.634,9.634,0,1,1,9.622-9.634A9.628,9.628,0,0,1,121.521,163.949Z" transform="translate(-104.24 -137.012)" fill="url(#linear-gradient-2)"/>
      </g>
      <g id="Group_8979" data-name="Group 8979" transform="translate(0 32.651)">
        <path id="Path_34085" data-name="Path 34085" d="M80.8,66.735l2.267-4.75A1.626,1.626,0,0,0,81.6,59.659H69.962a1.626,1.626,0,0,0-1.431.855l-.513.952A34.23,34.23,0,1,0,17.472,96.792l-5.689,5.7a1.625,1.625,0,1,0,2.3,2.3l6.453-6.461a34.179,34.179,0,0,0,27.379,0l6.453,6.461a1.625,1.625,0,1,0,2.3-2.3l-5.689-5.7A34.353,34.353,0,0,0,68.063,72.086l.468.87a1.626,1.626,0,0,0,1.431.855H81.6a1.626,1.626,0,0,0,1.467-2.326Zm-46.576,31.2A31.016,31.016,0,1,1,65.148,65.109H60.731a26.6,26.6,0,1,0,.022,3.251h4.414A31.032,31.032,0,0,1,34.226,97.935Zm11.1-32.825a11.26,11.26,0,1,0,.053,3.251H57.5a23.344,23.344,0,1,1-.025-3.251H45.328Zm-11.1,3.251h7.866a8.007,8.007,0,1,1-.076-3.251h-7.79a1.626,1.626,0,0,0,0,3.251Zm43.308-.926,1.491,3.124H70.933l-2.059-3.824,2.059-3.824h8.091l-1.491,3.124a1.625,1.625,0,0,0,0,1.4Z" transform="translate(0 -32.651)" fill="#453890"/>
      </g>
    </g>
  </g>
</svg>
