<svg xmlns="http://www.w3.org/2000/svg" width="177.885" height="190.525" viewBox="0 0 177.885 190.525">
  <g id="Group_1502" data-name="Group 1502" transform="translate(-1441.891 -470.764)">
    <path id="Path_33" data-name="Path 33" d="M507.633,462.23a83.021,83.021,0,1,1,83.018-83.018A83.115,83.115,0,0,1,507.633,462.23Zm0-157.885a74.865,74.865,0,1,0,74.862,74.867,74.951,74.951,0,0,0-74.862-74.867Z" transform="translate(1022.114 186.816)" fill="#f0f0f0"/>
    <path id="Path_34" data-name="Path 34" d="M506.135,483.935a95.233,95.233,0,0,1-82.623-47.819L451.8,419.844a62.631,62.631,0,1,0,54.335-93.794V293.41a95.262,95.262,0,0,1,0,190.525Z" transform="translate(1018.379 177.354)" fill="#ffdd7f"/>
  </g>
</svg>
