<svg xmlns="http://www.w3.org/2000/svg" width="190.524" height="190.525" viewBox="0 0 190.524 190.525">
  <g id="Group_1503" data-name="Group 1503" transform="translate(-1136.431 -470.764)">
    <path id="Path_31" data-name="Path 31" d="M439.967,462.23a83.021,83.021,0,1,1,83.024-83.018A83.113,83.113,0,0,1,439.967,462.23Zm0-157.885a74.864,74.864,0,1,0,74.864,74.867,74.947,74.947,0,0,0-74.864-74.867Z" transform="translate(791.727 186.816)" fill="#f0f0f0"/>
    <path id="Path_32" data-name="Path 32" d="M449.426,483.935a95.374,95.374,0,0,1-95.262-95.262H386.8a62.622,62.622,0,1,0,62.622-62.623V293.41a95.262,95.262,0,0,1,0,190.525Z" transform="translate(782.267 177.354)" fill="#ffdd7f"/>
  </g>
</svg>
