<svg xmlns="http://www.w3.org/2000/svg" width="190.527" height="190.521" viewBox="0 0 190.527 190.521">
  <g id="Group_1499" data-name="Group 1499" transform="translate(-816.527 -470.355)">
    <path id="Path_29" data-name="Path 29" d="M367.3,462.14a83.114,83.114,0,0,1-83.018-83.024,82.128,82.128,0,0,1,8.995-37.618,83.773,83.773,0,0,1,24.031-28.669A83.024,83.024,0,1,1,367.3,462.14Zm0-157.885a74.864,74.864,0,1,0,74.866,74.862A74.852,74.852,0,0,0,367.3,304.256Z" transform="translate(544.296 186.498)" fill="#f0f0f0"/>
    <path id="Path_30" data-name="Path 30" d="M376.762,483.838a95.275,95.275,0,0,1-81.347-144.852L323.267,356a62.631,62.631,0,1,0,53.495-30.044V293.317a95.26,95.26,0,1,1,0,190.521Z" transform="translate(535.027 177.038)" fill="#ffdd7f"/>
  </g>
</svg>
