<svg width="273" height="53" viewBox="0 0 273 53" fill="none" xmlns="http://www.w3.org/2000/svg">
<g filter="url(#filter0_d)">
<path d="M111.023 16.738V23.8H119.603V26.704H111.023V33.931H120.593V37H107.261V13.702H120.593V16.738H111.023ZM130.218 18.586C132.352 18.586 134.057 19.136 135.333 20.236C136.631 21.314 137.423 22.766 137.709 24.592H134.145C133.991 23.602 133.562 22.81 132.858 22.216C132.176 21.6 131.263 21.292 130.119 21.292C129.173 21.292 128.436 21.523 127.908 21.985C127.402 22.425 127.149 23.03 127.149 23.8C127.149 24.372 127.336 24.834 127.71 25.186C128.084 25.538 128.546 25.813 129.096 26.011C129.668 26.209 130.471 26.429 131.505 26.671C132.869 26.979 133.969 27.298 134.805 27.628C135.663 27.958 136.389 28.486 136.983 29.212C137.599 29.916 137.907 30.884 137.907 32.116C137.907 33.634 137.324 34.866 136.158 35.812C135.014 36.758 133.463 37.231 131.505 37.231C129.239 37.231 127.402 36.703 125.994 35.647C124.608 34.591 123.772 33.117 123.486 31.225H127.149C127.259 32.215 127.699 33.018 128.469 33.634C129.239 34.25 130.251 34.558 131.505 34.558C132.407 34.558 133.111 34.327 133.617 33.865C134.145 33.381 134.409 32.776 134.409 32.05C134.409 31.412 134.211 30.906 133.815 30.532C133.419 30.158 132.924 29.872 132.33 29.674C131.736 29.454 130.922 29.234 129.888 29.014C128.568 28.706 127.49 28.398 126.654 28.09C125.84 27.782 125.136 27.287 124.542 26.605C123.97 25.901 123.684 24.955 123.684 23.767C123.684 22.227 124.256 20.984 125.4 20.038C126.566 19.07 128.172 18.586 130.218 18.586ZM150.82 33.733V37H148.51C146.574 37 145.1 36.538 144.088 35.614C143.098 34.668 142.603 33.106 142.603 30.928V22.018H139.996V18.817H142.603V14.296H146.398V18.817H150.787V22.018H146.398V30.994C146.398 32.028 146.585 32.743 146.959 33.139C147.355 33.535 148.037 33.733 149.005 33.733H150.82ZM153.816 13.537C153.816 12.899 154.036 12.371 154.476 11.953C154.916 11.535 155.499 11.326 156.225 11.326C156.951 11.326 157.534 11.535 157.974 11.953C158.436 12.371 158.667 12.899 158.667 13.537C158.667 14.175 158.436 14.692 157.974 15.088C157.534 15.484 156.951 15.682 156.225 15.682C155.499 15.682 154.916 15.484 154.476 15.088C154.036 14.692 153.816 14.175 153.816 13.537ZM158.106 18.817V37H154.344V18.817H158.106ZM185.396 18.52C187.552 18.52 189.268 19.202 190.544 20.566C191.842 21.93 192.491 23.877 192.491 26.407V37H188.729V26.803C188.729 25.219 188.333 23.998 187.541 23.14C186.749 22.26 185.66 21.82 184.274 21.82C182.8 21.82 181.623 22.293 180.743 23.239C179.885 24.163 179.456 25.527 179.456 27.331V37H175.694V26.803C175.694 25.219 175.298 23.998 174.506 23.14C173.714 22.26 172.625 21.82 171.239 21.82C169.765 21.82 168.588 22.293 167.708 23.239C166.85 24.163 166.421 25.527 166.421 27.331V37H162.659V18.817H166.421V22.612C166.883 21.292 167.653 20.28 168.731 19.576C169.809 18.872 171.074 18.52 172.526 18.52C174.044 18.52 175.353 18.894 176.453 19.642C177.575 20.39 178.389 21.468 178.895 22.876C179.423 21.512 180.27 20.445 181.436 19.675C182.602 18.905 183.922 18.52 185.396 18.52ZM204.176 18.586C205.826 18.586 207.234 18.993 208.4 19.807C209.566 20.621 210.391 21.699 210.875 23.041V18.817H214.637V37H210.875V32.776C210.391 34.118 209.566 35.196 208.4 36.01C207.234 36.824 205.826 37.231 204.176 37.231C202.592 37.231 201.173 36.857 199.919 36.109C198.687 35.361 197.719 34.283 197.015 32.875C196.311 31.467 195.959 29.806 195.959 27.892C195.959 26 196.311 24.35 197.015 22.942C197.719 21.534 198.687 20.456 199.919 19.708C201.173 18.96 202.592 18.586 204.176 18.586ZM205.331 21.886C203.659 21.886 202.317 22.425 201.305 23.503C200.315 24.559 199.82 26.022 199.82 27.892C199.82 29.762 200.315 31.236 201.305 32.314C202.317 33.37 203.659 33.898 205.331 33.898C206.387 33.898 207.333 33.656 208.169 33.172C209.005 32.666 209.665 31.962 210.149 31.06C210.633 30.158 210.875 29.102 210.875 27.892C210.875 26.704 210.633 25.659 210.149 24.757C209.665 23.833 209.005 23.129 208.169 22.645C207.333 22.139 206.387 21.886 205.331 21.886ZM228.293 33.733V37H225.983C224.047 37 222.573 36.538 221.561 35.614C220.571 34.668 220.076 33.106 220.076 30.928V22.018H217.469V18.817H220.076V14.296H223.871V18.817H228.26V22.018H223.871V30.994C223.871 32.028 224.058 32.743 224.432 33.139C224.828 33.535 225.51 33.733 226.478 33.733H228.293ZM248.713 27.034C248.713 27.65 248.669 28.189 248.581 28.651H234.589C234.655 30.521 235.172 31.907 236.14 32.809C237.108 33.711 238.307 34.162 239.737 34.162C240.991 34.162 242.047 33.843 242.905 33.205C243.785 32.567 244.324 31.72 244.522 30.664H248.548C248.306 31.94 247.8 33.073 247.03 34.063C246.26 35.053 245.259 35.834 244.027 36.406C242.795 36.956 241.42 37.231 239.902 37.231C238.142 37.231 236.58 36.857 235.216 36.109C233.874 35.361 232.818 34.283 232.048 32.875C231.278 31.467 230.893 29.806 230.893 27.892C230.893 26 231.278 24.35 232.048 22.942C232.818 21.534 233.874 20.456 235.216 19.708C236.58 18.96 238.142 18.586 239.902 18.586C241.684 18.586 243.235 18.96 244.555 19.708C245.897 20.434 246.92 21.446 247.624 22.744C248.35 24.02 248.713 25.45 248.713 27.034ZM244.918 26.935C244.962 25.747 244.753 24.757 244.291 23.965C243.851 23.151 243.235 22.557 242.443 22.183C241.673 21.787 240.826 21.589 239.902 21.589C238.428 21.589 237.196 22.04 236.206 22.942C235.216 23.844 234.677 25.175 234.589 26.935H244.918ZM258.318 18.586C260.452 18.586 262.157 19.136 263.433 20.236C264.731 21.314 265.523 22.766 265.809 24.592H262.245C262.091 23.602 261.662 22.81 260.958 22.216C260.276 21.6 259.363 21.292 258.219 21.292C257.273 21.292 256.536 21.523 256.008 21.985C255.502 22.425 255.249 23.03 255.249 23.8C255.249 24.372 255.436 24.834 255.81 25.186C256.184 25.538 256.646 25.813 257.196 26.011C257.768 26.209 258.571 26.429 259.605 26.671C260.969 26.979 262.069 27.298 262.905 27.628C263.763 27.958 264.489 28.486 265.083 29.212C265.699 29.916 266.007 30.884 266.007 32.116C266.007 33.634 265.424 34.866 264.258 35.812C263.114 36.758 261.563 37.231 259.605 37.231C257.339 37.231 255.502 36.703 254.094 35.647C252.708 34.591 251.872 33.117 251.586 31.225H255.249C255.359 32.215 255.799 33.018 256.569 33.634C257.339 34.25 258.351 34.558 259.605 34.558C260.507 34.558 261.211 34.327 261.717 33.865C262.245 33.381 262.509 32.776 262.509 32.05C262.509 31.412 262.311 30.906 261.915 30.532C261.519 30.158 261.024 29.872 260.43 29.674C259.836 29.454 259.022 29.234 257.988 29.014C256.668 28.706 255.59 28.398 254.754 28.09C253.94 27.782 253.236 27.287 252.642 26.605C252.07 25.901 251.784 24.955 251.784 23.767C251.784 22.227 252.356 20.984 253.5 20.038C254.666 19.07 256.272 18.586 258.318 18.586Z" fill="#5331FF"/>
</g>
<g filter="url(#filter1_d)">
<path d="M59.6855 36.847V21.843C59.6855 18.0637 56.6218 15 52.8425 15C49.0633 15 45.9995 18.0637 45.9995 21.843V36.847C45.9995 40.6263 49.0633 43.69 52.8425 43.69C56.6218 43.69 59.6855 40.6263 59.6855 36.847Z" fill="url(#paint0_linear)"/>
</g>
<g filter="url(#filter2_d)">
<path d="M39.686 29.8425C39.686 26.0635 36.6223 23 32.843 23C29.0637 23 26 26.0635 26 29.8425C26 33.6215 29.0637 36.685 32.843 36.685C36.6223 36.685 39.686 33.6215 39.686 29.8425Z" fill="url(#paint1_linear)"/>
</g>
<g filter="url(#filter3_d)">
<path d="M19.686 29.8425C19.686 26.0635 16.6223 23 12.843 23C9.06372 23 6 26.0635 6 29.8425C6 33.6215 9.06372 36.685 12.843 36.685C16.6223 36.685 19.686 33.6215 19.686 29.8425Z" fill="url(#paint2_linear)"/>
</g>
<g filter="url(#filter4_d)">
<path d="M79.686 28.8425C79.686 25.0635 76.6223 22 72.843 22C69.0637 22 66 25.0635 66 28.8425C66 32.6215 69.0637 35.685 72.843 35.685C76.6223 35.685 79.686 32.6215 79.686 28.8425Z" fill="url(#paint3_linear)"/>
</g>
<defs>
<filter id="filter0_d" x="101.262" y="8.32605" width="170.746" height="37.905" filterUnits="userSpaceOnUse" color-interpolation-filters="sRGB">
<feFlood flood-opacity="0" result="BackgroundImageFix"/>
<feColorMatrix in="SourceAlpha" type="matrix" values="0 0 0 0 0 0 0 0 0 0 0 0 0 0 0 0 0 0 127 0"/>
<feOffset dy="3"/>
<feGaussianBlur stdDeviation="3"/>
<feColorMatrix type="matrix" values="0 0 0 0 0 0 0 0 0 0 0 0 0 0 0 0 0 0 0.161 0"/>
<feBlend mode="normal" in2="BackgroundImageFix" result="effect1_dropShadow"/>
<feBlend mode="normal" in="SourceGraphic" in2="effect1_dropShadow" result="shape"/>
</filter>
<filter id="filter1_d" x="40" y="12" width="25.686" height="40.69" filterUnits="userSpaceOnUse" color-interpolation-filters="sRGB">
<feFlood flood-opacity="0" result="BackgroundImageFix"/>
<feColorMatrix in="SourceAlpha" type="matrix" values="0 0 0 0 0 0 0 0 0 0 0 0 0 0 0 0 0 0 127 0"/>
<feOffset dy="3"/>
<feGaussianBlur stdDeviation="3"/>
<feColorMatrix type="matrix" values="0 0 0 0 0.501961 0 0 0 0 0.501961 0 0 0 0 0.501961 0 0 0 0.161 0"/>
<feBlend mode="normal" in2="BackgroundImageFix" result="effect1_dropShadow"/>
<feBlend mode="normal" in="SourceGraphic" in2="effect1_dropShadow" result="shape"/>
</filter>
<filter id="filter2_d" x="20" y="20" width="25.686" height="25.685" filterUnits="userSpaceOnUse" color-interpolation-filters="sRGB">
<feFlood flood-opacity="0" result="BackgroundImageFix"/>
<feColorMatrix in="SourceAlpha" type="matrix" values="0 0 0 0 0 0 0 0 0 0 0 0 0 0 0 0 0 0 127 0"/>
<feOffset dy="3"/>
<feGaussianBlur stdDeviation="3"/>
<feColorMatrix type="matrix" values="0 0 0 0 0.501961 0 0 0 0 0.501961 0 0 0 0 0.501961 0 0 0 0.161 0"/>
<feBlend mode="normal" in2="BackgroundImageFix" result="effect1_dropShadow"/>
<feBlend mode="normal" in="SourceGraphic" in2="effect1_dropShadow" result="shape"/>
</filter>
<filter id="filter3_d" x="0" y="20" width="25.686" height="25.685" filterUnits="userSpaceOnUse" color-interpolation-filters="sRGB">
<feFlood flood-opacity="0" result="BackgroundImageFix"/>
<feColorMatrix in="SourceAlpha" type="matrix" values="0 0 0 0 0 0 0 0 0 0 0 0 0 0 0 0 0 0 127 0"/>
<feOffset dy="3"/>
<feGaussianBlur stdDeviation="3"/>
<feColorMatrix type="matrix" values="0 0 0 0 0.501961 0 0 0 0 0.501961 0 0 0 0 0.501961 0 0 0 0.161 0"/>
<feBlend mode="normal" in2="BackgroundImageFix" result="effect1_dropShadow"/>
<feBlend mode="normal" in="SourceGraphic" in2="effect1_dropShadow" result="shape"/>
</filter>
<filter id="filter4_d" x="60" y="19" width="25.686" height="25.685" filterUnits="userSpaceOnUse" color-interpolation-filters="sRGB">
<feFlood flood-opacity="0" result="BackgroundImageFix"/>
<feColorMatrix in="SourceAlpha" type="matrix" values="0 0 0 0 0 0 0 0 0 0 0 0 0 0 0 0 0 0 127 0"/>
<feOffset dy="3"/>
<feGaussianBlur stdDeviation="3"/>
<feColorMatrix type="matrix" values="0 0 0 0 0.501961 0 0 0 0 0.501961 0 0 0 0 0.501961 0 0 0 0.161 0"/>
<feBlend mode="normal" in2="BackgroundImageFix" result="effect1_dropShadow"/>
<feBlend mode="normal" in="SourceGraphic" in2="effect1_dropShadow" result="shape"/>
</filter>
<linearGradient id="paint0_linear" x1="59.6855" y1="37.1487" x2="29.7253" y2="24.4788" gradientUnits="userSpaceOnUse">
<stop stop-color="#502EFF"/>
<stop offset="1" stop-color="#D1C7FF"/>
</linearGradient>
<linearGradient id="paint1_linear" x1="36.5656" y1="23" x2="19.0353" y2="42.7761" gradientUnits="userSpaceOnUse">
<stop stop-color="#502EFF"/>
<stop offset="1" stop-color="#D1C7FF"/>
</linearGradient>
<linearGradient id="paint2_linear" x1="16.5656" y1="23" x2="-0.96474" y2="42.7761" gradientUnits="userSpaceOnUse">
<stop stop-color="#502EFF"/>
<stop offset="1" stop-color="#D1C7FF"/>
</linearGradient>
<linearGradient id="paint3_linear" x1="76.5656" y1="22" x2="59.0353" y2="41.7761" gradientUnits="userSpaceOnUse">
<stop stop-color="#502EFF"/>
<stop offset="1" stop-color="#D1C7FF"/>
</linearGradient>
</defs>
</svg>
