<svg xmlns="http://www.w3.org/2000/svg" xmlns:xlink="http://www.w3.org/1999/xlink" width="248.571" height="290" viewBox="0 0 248.571 290">
  <defs>
    <linearGradient id="linear-gradient" y1="0.5" x2="1" y2="0.5" gradientUnits="objectBoundingBox">
      <stop offset="0" stop-color="#ffb288"/>
      <stop offset="0.668" stop-color="#feb088"/>
      <stop offset="0.908" stop-color="#fba98b"/>
      <stop offset="1" stop-color="#f9a48e"/>
    </linearGradient>
    <linearGradient id="linear-gradient-3" x1="-15.876" y1="0.17" x2="-14.817" y2="0.17" xlink:href="#linear-gradient"/>
    <linearGradient id="linear-gradient-6" x1="0.474" y1="1.027" x2="0.524" y2="-0.103" gradientUnits="objectBoundingBox">
      <stop offset="0" stop-color="#f29a72"/>
      <stop offset="1" stop-color="#e8594d"/>
    </linearGradient>
    <linearGradient id="linear-gradient-7" x1="-3.703" y1="0.389" x2="-3.6" y2="-1.058" xlink:href="#linear-gradient"/>
    <linearGradient id="linear-gradient-8" x1="-68.967" y1="3.531" x2="-68.116" y2="-4.226" xlink:href="#linear-gradient"/>
    <linearGradient id="linear-gradient-9" x1="15.577" y1="17.128" x2="16.465" y2="9.571" xlink:href="#linear-gradient"/>
  </defs>
  <g id="Group_8974" data-name="Group 8974" transform="translate(-83.09 -39.177)">
    <path id="Path_45902" data-name="Path 45902" d="M330.921,222.463c-6.856-7.712-17.632-10.22-27.366-13.647s-20.089-9.462-22.144-19.575c-.995-4.891.17-10-.618-14.932-1.8-11.268-13.676-18.736-25.075-19.243s-22.308,4.306-32.507,9.422-20.5,10.737-31.836,12.05c-16.768,1.943-33.555-5.812-50.311-3.77a43.5,43.5,0,0,0-26.7,72.7c7.271,7.873,18.253,14.793,17.877,25.5-.253,7.176-5.764,12.872-9.44,19.04a40.776,40.776,0,0,0-2.828,35.353c4.694,11.829,7.8,22.425,28.125,28.612l109.19-.638c3.175-7.647-2.861-17.911,2.482-24.311,3.749-4.489,10.8-3.949,16.35-2.109s11.281,4.618,16.973,3.275c7.6-1.792,11.743-10.382,11.9-18.185s-2.536-15.359-3.561-23.1.09-16.595,6.121-21.549c4.47-3.672,10.627-4.381,15.83-6.912a24.293,24.293,0,0,0,7.534-37.987Z" transform="translate(-5.377 -31.379)" fill="#ffd000"/>
    <g id="Group_8949" data-name="Group 8949" transform="translate(83.09 188.101)">
      <path id="Path_45903" data-name="Path 45903" d="M325.914,255.65a161.824,161.824,0,0,1-9.209,18.892q-2.286,4.08-4.973,8.422c-17.791,28.816-48.328,65.223-90.072,92.077,0,0,4.419-40.628,28.59-74.6a122.79,122.79,0,0,1,8.29-10.427C273.94,272.668,295.589,258.72,325.914,255.65Z" transform="translate(-120.622 -246.732)" fill="#3f3f75"/>
      <g id="Group_8934" data-name="Group 8934" transform="translate(136.905 124.448)">
        <g id="Group_8932" data-name="Group 8932">
          <path id="Path_45904" data-name="Path 45904" d="M344.173,419.83l-.4.066c-11.863,1.845-30.515,2.362-46.031,2.3-13.628-.044-24.828-.532-26.891-.948C270.85,421.252,300.716,406.144,344.173,419.83Z" transform="translate(-270.85 -414.095)" fill="#2c2c5b"/>
        </g>
        <g id="Group_8933" data-name="Group 8933" transform="translate(26.891 4.341)">
          <path id="Path_45905" data-name="Path 45905" d="M353.761,421.508c-11.863,1.845-30.515,2.362-46.031,2.3C317.158,421.1,333.279,418.241,353.761,421.508Z" transform="translate(-307.73 -420.048)" fill="#3f3f75"/>
        </g>
      </g>
      <g id="Group_8935" data-name="Group 8935" transform="translate(143.442 106.895)">
        <path id="Path_45906" data-name="Path 45906" d="M279.815,406.914s34.644-27.685,68.918-12.171C323.785,409.314,296.7,411.778,279.815,406.914Z" transform="translate(-279.815 -390.021)" fill="#353568"/>
      </g>
      <g id="Group_8937" data-name="Group 8937" transform="translate(148.958 77.711)">
        <g id="Group_8936" data-name="Group 8936">
          <path id="Path_45907" data-name="Path 45907" d="M377.8,350.007c-20.066,25.732-52.083,40.92-75.591,47.176a107.8,107.8,0,0,1-14.831,2.939s24.828-35.692,65.179-46.833A89.409,89.409,0,0,1,377.8,350.007Z" transform="translate(-287.38 -349.997)" fill="#3f3f75"/>
        </g>
        <path id="Path_45908" data-name="Path 45908" d="M383.311,350.007c-20.066,25.732-52.083,40.92-75.591,47.176a27.806,27.806,0,0,1,6.307-7.27c4.105-3.42,8.852-5.943,13.387-8.764a116.113,116.113,0,0,0,30.654-27.861A89.41,89.41,0,0,1,383.311,350.007Z" transform="translate(-292.889 -349.997)" fill="#47478e"/>
      </g>
      <g id="Group_8939" data-name="Group 8939" transform="translate(123.037 38.966)">
        <g id="Group_8938" data-name="Group 8938">
          <path id="Path_45909" data-name="Path 45909" d="M361.3,296.86a78.043,78.043,0,0,1-9.151,21.32c-13.037,21.926-38.9,48.3-79.871,70.6q-9.658,5.261-20.453,10.186a88.987,88.987,0,0,1,3.237-16.537c4.637-16.45,15.772-41.948,42.2-61.2C312.765,309.934,333.517,300.783,361.3,296.86Z" transform="translate(-251.83 -296.86)" fill="#5252a0"/>
        </g>
        <path id="Path_45910" data-name="Path 45910" d="M353.357,326.1c-13.037,21.926-38.9,48.3-79.871,70.6a28.479,28.479,0,0,1-12.162-2.712,20.261,20.261,0,0,1-5.053-3.638c4.637-16.45,15.772-41.948,42.2-61.2,3.755,3,9.916,3.937,14.255,4.426a69.454,69.454,0,0,0,32.032-3.988C347.647,328.5,350.476,327.216,353.357,326.1Z" transform="translate(-253.033 -304.78)" fill="#47478e"/>
      </g>
      <g id="Group_8942" data-name="Group 8942" transform="translate(19.84 124.416)">
        <g id="Group_8940" data-name="Group 8940">
          <path id="Path_45911" data-name="Path 45911" d="M209.64,421.823a277.626,277.626,0,0,1-30.019,2.632c-30.158,1.305-64.938.175-69.32-.707,0,0,1.429-.722,4.149-1.772C126.174,417.426,161.836,406.766,209.64,421.823Z" transform="translate(-110.3 -414.052)" fill="#2c2c5b"/>
        </g>
        <g id="Group_8941" data-name="Group 8941" transform="translate(0 5.511)">
          <path id="Path_45912" data-name="Path 45912" d="M179.62,426.5c-30.158,1.305-64.938.175-69.32-.707,0,0,1.429-.722,4.149-1.772C130.1,421.071,152.62,419.751,179.62,426.5Z" transform="translate(-110.3 -421.611)" fill="#353568"/>
        </g>
      </g>
      <g id="Group_8944" data-name="Group 8944" transform="translate(17.828 105.005)">
        <g id="Group_8943" data-name="Group 8943">
          <path id="Path_45913" data-name="Path 45913" d="M199.048,414.685c-1.692.153-3.383.27-5.06.365-36.735,2.012-69.029-10.048-86.208-24.959-.08-.073-.16-.138-.241-.211C107.54,389.88,165.974,375.909,199.048,414.685Z" transform="translate(-107.54 -387.429)" fill="#353568"/>
        </g>
        <path id="Path_45914" data-name="Path 45914" d="M194.078,416.039c-36.735,2.013-69.029-10.048-86.208-24.959C116.992,391.743,159.333,395.841,194.078,416.039Z" transform="translate(-107.629 -388.418)" fill="#3f3f75"/>
      </g>
      <g id="Group_8946" data-name="Group 8946" transform="translate(54.21)">
        <g id="Group_8945" data-name="Group 8945">
          <path id="Path_45915" data-name="Path 45915" d="M219.431,375.061S167.538,329.5,158.708,279.52c-2.115-11.973-1.765-24.193,2.362-36.1A65.356,65.356,0,0,1,175.653,255.3c7.226,7.722,13.329,17.281,18.455,27.613,10.4,20.934,16.836,45.01,20.613,63.3C218.206,363.1,219.431,375.061,219.431,375.061Z" transform="translate(-157.436 -243.42)" fill="#5252a0"/>
        </g>
        <path id="Path_45916" data-name="Path 45916" d="M219.9,388.153s-51.894-45.565-60.724-95.541l1.393-.2a71.7,71.7,0,0,1,31.237,2.632c.933.3,1.852.612,2.771.955,10.4,20.934,16.836,45.01,20.613,63.3C218.679,376.194,219.9,388.153,219.9,388.153Z" transform="translate(-157.908 -256.512)" fill="#47478e"/>
      </g>
      <g id="Group_8948" data-name="Group 8948" transform="translate(0 38.193)">
        <g id="Group_8947" data-name="Group 8947">
          <path id="Path_45917" data-name="Path 45917" d="M210.254,394.1s-9.967-.153-25.309-5.315c-19.957-6.723-49.014-21.933-77.042-56.327A260.272,260.272,0,0,1,83.09,295.8c21.087,5.447,43.749,15.509,64.267,28.8,19.68,12.738,37.391,28.444,49.867,45.871A108.851,108.851,0,0,1,210.254,394.1Z" transform="translate(-83.09 -295.8)" fill="#353568"/>
        </g>
        <path id="Path_45918" data-name="Path 45918" d="M206.441,380.963a74.436,74.436,0,0,1-12.279,18.309c-19.957-6.723-49.014-21.933-77.042-56.327a33.965,33.965,0,0,1,9.114-5.432c7.948-3.165,16.763-3.245,25.294-2.763,1.684.095,3.361.211,5.046.343C176.254,347.83,193.965,363.536,206.441,380.963Z" transform="translate(-92.307 -306.29)" fill="#2c2c5b"/>
      </g>
    </g>
    <g id="Group_8971" data-name="Group 8971" transform="translate(108.314 39.177)">
      <path id="Path_45919" data-name="Path 45919" d="M205.513,230.81a31.212,31.212,0,0,0,5.261,1.9,24.721,24.721,0,0,0,5.468,1.272,26.238,26.238,0,0,0,9.644-1.512c6.59-2.537,11.937-8.945,12.078-16.173.085-4.354-1.43-8.675-.938-13,1.059-9.332,10.468-14.925,18.2-20.258,10.316-7.115,19.624-16.816,22.61-28.987s-2.182-26.877-13.783-31.615c-7.131-2.911-27.4-5.06-22.389-17.739,1.379-3.488,4.314-6.076,6.632-9.026s4.1-6.92,2.664-10.385C249.1,80.8,243.024,79.846,238.306,81s-9.161,3.722-14.02,3.766c-10.382.092-21.261-9.082-29.216-14.816-7.29-5.254-14.726-10.572-23.233-13.469s-18.4-3.069-26.032,1.67-11.937,15.187-7.983,23.257c2.963,6.047,9.6,9.485,16.192,10.886s13.409,1.172,20.08,2.093a22.752,22.752,0,0,1,8.751,2.7c8.277,5.008,4.123,16.593-3.726,19.849-5.538,2.3-11.949,1.119-17.462-1.235s-10.494-5.812-15.957-8.28-11.774-3.91-17.444-1.961a15.729,15.729,0,0,0,7.356,30.444c5.6-.807,10.308-4.522,15.583-6.581s12.536-1.717,15.1,3.331c2.49,4.9-1.07,10.649-4.793,14.7s-8.116,8.647-7.414,14.1c.7,5.43,6.4,8.938,11.831,9.615s10.9-.641,16.378-.746,11.571,1.425,14.468,6.071c2.857,4.582,1.635,10.612-.608,15.524s-5.438,9.493-6.462,14.794a19.2,19.2,0,0,0,.409,8.839,20.713,20.713,0,0,0,2.686,5.724,21.152,21.152,0,0,0,3.689,3.828A37.926,37.926,0,0,0,205.513,230.81Z" transform="translate(-117.684 -43.308)" fill="#151348"/>
      <path id="Path_45937" data-name="Path 45937" d="M308.116,125.585c-.764-.9-1.958-1.268-2.883-1.962-1.073-.8-1.424-2.087-1.97-3.274a4.889,4.889,0,0,0-1.546-2.182,2.483,2.483,0,0,0-2.629-.021c-1.661,1.052-1.392,4.086-1.155,5.771a13.1,13.1,0,0,0,1.488,4.9,6.484,6.484,0,0,0,4.012,3.007,4.77,4.77,0,0,0,4.659-1.5A3.79,3.79,0,0,0,308.116,125.585Z" transform="translate(-166.456 -60.467)" fill="#151348"/>
      <path id="Path_45938" data-name="Path 45938" d="M168.219,164.657a3.334,3.334,0,0,0-4.225.79c-1.435,1.57-.707,2.715-.712,4.591a3.751,3.751,0,0,1-.983,2.672c-.92.909-2.378,1.1-3.3,2.005a3.091,3.091,0,0,0,.572,4.578c1.622,1.194,3.667-.375,4.63-1.8,1.1-1.624,1.65-3.708,3.07-5.111,1.274-1.257,2.737-1.821,2.919-3.881A3.96,3.96,0,0,0,168.219,164.657Z" transform="translate(-128.663 -73.045)" fill="#151348"/>
      <path id="Path_45939" data-name="Path 45939" d="M153.659,168.229a1.4,1.4,0,0,0-.312-.307,1.78,1.78,0,0,0-1.83-.068,2.115,2.115,0,0,0-.688.592,1.635,1.635,0,0,0-.359.723,1.372,1.372,0,0,0,.162.86C151.731,172.17,154.983,170.033,153.659,168.229Z" transform="translate(-126.56 -73.97)" fill="#151348"/>
      <ellipse id="Ellipse_3763" data-name="Ellipse 3763" cx="60.123" cy="5.468" rx="60.123" ry="5.468" transform="translate(32.082 278.869)" fill="#151348"/>
      <path id="Path_45940" data-name="Path 45940" d="M254.465,311.761a61.588,61.588,0,0,0-9-2.085c-.5.671-1.021,1.342-1.568,2-3.5,4.258-7.838,7.948-12.381,8.043-5.345.109-9.435-4-12.213-8.21a39.882,39.882,0,0,1-2.472-4.346c-9.311,2.392-21.488,6.314-28.75,19.5-4.863,8.815-6.154,23.085-.124,31.4,3.332,4.6,8.9,7.379,17.332,6.416a44.95,44.95,0,0,0,.882,5.367c14.35,3.741,36.319,4.761,43.662,0a56.839,56.839,0,0,0,1.225-7.277,28.693,28.693,0,0,0,5.607.438,15.25,15.25,0,0,0,13.89-9.443C275.516,341.481,277.98,320.175,254.465,311.761Z" transform="translate(-135.624 -111.76)" fill="#ff5177"/>
      <path id="Path_45941" data-name="Path 45941" d="M257.6,345.52a19.625,19.625,0,0,0-2.434-4.775.135.135,0,0,0-.234.131l0,.008a18.8,18.8,0,0,1,1.344,4.953,13.843,13.843,0,0,1-.174,4.9,9.791,9.791,0,0,1-1.978,4.088,11.794,11.794,0,0,1-3.47,2.782,2.447,2.447,0,0,0-.4.276,2.315,2.315,0,0,0-.8,1.959c-6.64,3.041-13.324-1.147-13.675-1.373l-.744-.482-.69.556c-3.873,3.12-7.561,4.478-10.961,4.03a9.753,9.753,0,0,1-3.519-1.187,2.313,2.313,0,0,0-.917-1.848,13.568,13.568,0,0,1-3.126-3.232,9.392,9.392,0,0,1-1.515-4.188,11.7,11.7,0,0,1,.559-4.733,16.045,16.045,0,0,1,2.272-4.489l.011-.015a.256.256,0,0,0-.381-.34,17.007,17.007,0,0,0-3.313,4.225,13.767,13.767,0,0,0-1.716,5.333,12.572,12.572,0,0,0,.082,2.943,13.109,13.109,0,0,0,.789,2.882,17.593,17.593,0,0,0,3.164,4.977l.042.047a2.316,2.316,0,0,0,2.758.525A12.238,12.238,0,0,0,223.028,365a12.435,12.435,0,0,0,1.649.11c3.4,0,6.94-1.388,10.553-4.139,2.265,1.2,9.119,4.2,15.764.863a2.316,2.316,0,0,0,2.3-.417l.03-.026a15.807,15.807,0,0,0,3.79-4.666,12.816,12.816,0,0,0,1.424-5.712A15.753,15.753,0,0,0,257.6,345.52Z" transform="translate(-143.147 -120.841)" fill="#373193"/>
      <path id="Path_45942" data-name="Path 45942" d="M257.69,304.614c-3.731,5.029-8.7,9.931-13.947,10.041-7.245.152-12.2-7.48-14.688-12.555.97-.25,1.91-.483,2.809-.707,4.089-1.022,6.21-2.9,7.331-4.974a12.278,12.278,0,0,0,1.265-5.061c.074-1.038.086-1.986.178-2.752a13.12,13.12,0,0,1,6.96.885q-.288,1.1-.474,2.085a18.276,18.276,0,0,0-.357,4.036C247,302.062,251.926,303.5,257.69,304.614Z" transform="translate(-147.849 -106.697)" fill="url(#linear-gradient)"/>
      <g id="Group_8962" data-name="Group 8962" transform="translate(70.92 203.903)">
        <path id="Path_45943" data-name="Path 45943" d="M249.547,363.512h0a5.755,5.755,0,0,1-7.145.163l-.214-.163V334.4l.214.163a5.754,5.754,0,0,0,7.145-.163h0Z" transform="translate(-222.326 -323.041)" fill="#151348"/>
        <path id="Path_45944" data-name="Path 45944" d="M250.225,332.827s7.071-7,18.6-3a1.939,1.939,0,0,1,1.294,1.833V356.8a1.935,1.935,0,0,1-2.029,1.939c-3.006-.157-9.23.066-17.866,3.207C237.77,366.47,250.225,332.827,250.225,332.827Z" transform="translate(-223.003 -321.469)" fill="#221c6f"/>
        <path id="Path_45945" data-name="Path 45945" d="M249.985,331.157a16.488,16.488,0,0,1,3.7-3.821,17.78,17.78,0,0,1,4.718-2.58,11.76,11.76,0,0,1,1.293-.416,9.818,9.818,0,0,1,1.32-.33l1.342-.25,1.36-.12a21.654,21.654,0,0,1,2.734-.028c.91.049,1.81.2,2.72.295a.972.972,0,0,1-.207,1.932c-.023,0-.047-.006-.07-.01l-.119-.022c-.825-.152-1.651-.36-2.486-.474a20.151,20.151,0,0,0-2.524-.177l-1.269.007-1.262.132a8.874,8.874,0,0,0-1.253.209,10.761,10.761,0,0,0-1.241.29,16.9,16.9,0,0,0-4.674,2.09,16.057,16.057,0,0,0-3.885,3.41l-.007.009a.122.122,0,0,1-.2-.145Z" transform="translate(-224.432 -320.11)" fill="#fff"/>
        <path id="Path_45946" data-name="Path 45946" d="M249.356,327.583a15.927,15.927,0,0,1,2.675-3.416,18.343,18.343,0,0,1,7.51-4.482,18.6,18.6,0,0,1,2.167-.545c.731-.149,1.476-.2,2.22-.308a.972.972,0,1,1,.27,1.926c-.029,0-.059.007-.088.009l-.117.005c-.677.031-1.365.009-2.042.08a17.133,17.133,0,0,0-2.027.3,16.587,16.587,0,0,0-3.911,1.294,16.823,16.823,0,0,0-3.533,2.218,15.477,15.477,0,0,0-2.909,3.041l-.006.008a.121.121,0,0,1-.17.029A.123.123,0,0,1,249.356,327.583Z" transform="translate(-224.263 -318.822)" fill="#fff"/>
        <path id="Path_45947" data-name="Path 45947" d="M234.842,332.837s-7.071-7-18.6-3a1.938,1.938,0,0,0-1.294,1.832v25.132a1.936,1.936,0,0,0,2.029,1.939c3.006-.158,9.23.066,17.866,3.206C247.3,366.48,234.842,332.837,234.842,332.837Z" transform="translate(-214.948 -321.472)" fill="#221c6f"/>
        <path id="Path_45948" data-name="Path 45948" d="M236.865,331.3a16.042,16.042,0,0,0-3.885-3.41,16.9,16.9,0,0,0-4.674-2.09,10.886,10.886,0,0,0-1.241-.29,8.794,8.794,0,0,0-1.253-.209l-1.262-.133-1.269-.007a20.155,20.155,0,0,0-2.524.178c-.835.113-1.66.322-2.486.473l-.117.022a.972.972,0,0,1-.352-1.911c.023,0,.049-.008.072-.01.911-.1,1.81-.246,2.72-.3a21.789,21.789,0,0,1,2.734.028l1.36.12,1.342.25a9.747,9.747,0,0,1,1.32.331,11.909,11.909,0,0,1,1.293.415,17.782,17.782,0,0,1,4.718,2.581,16.466,16.466,0,0,1,3.7,3.821.122.122,0,0,1-.2.146Z" transform="translate(-215.506 -320.113)" fill="#fff"/>
        <path id="Path_45949" data-name="Path 45949" d="M239.116,327.716a15.483,15.483,0,0,0-2.909-3.041,16.847,16.847,0,0,0-3.533-2.217,16.553,16.553,0,0,0-3.911-1.294,16.985,16.985,0,0,0-2.027-.3c-.678-.071-1.366-.05-2.042-.081l-.116-.005a.973.973,0,1,1,.09-1.943c.031,0,.061.005.09.009.744.1,1.488.159,2.22.308a18.685,18.685,0,0,1,2.166.545,17.926,17.926,0,0,1,4.048,1.8,17.7,17.7,0,0,1,3.463,2.683,15.9,15.9,0,0,1,2.674,3.415.122.122,0,0,1-.2.132Z" transform="translate(-217.305 -318.824)" fill="#fff"/>
      </g>
      <path id="Path_45950" data-name="Path 45950" d="M199.044,374.964s-.646-11.392,10-14.725c.646,2.041,4.285,5.679,14.351-1.394,2.279-2.669.785-7.448,2.789-7.17,1.241.172.221,3.787.221,3.787s3.927-6.818,6.206-5.333c1.669,1.089-2.142,9.8-5.883,10.927C221.217,368.982,213.225,380.031,199.044,374.964Z" transform="translate(-139.718 -123.341)" fill="url(#linear-gradient)"/>
      <path id="Path_45951" data-name="Path 45951" d="M282.8,370.99s-3.468-16.046-15.575-13.144c-.849,1.964-5.849,4.307-10.462-.612-2-2.887-.026-7.489-2.048-7.416-1.252.045-.6,3.744-.6,3.744s-3.217-7.181-5.634-5.934c-1.77.914,1.138,9.968,4.746,11.467C257.9,367.54,266.7,379.61,282.8,370.99Z" transform="translate(-152.965 -122.682)" fill="url(#linear-gradient-3)"/>
      <path id="Path_45952" data-name="Path 45952" d="M285.484,397.653q-1.355,1.214-2.908,2.412c-24.279,16.845-63.942,6.889-71.14,1.894-2.984-1.327-2.373-6.322-1.448-8.266,3.546-.1,11.729.876,29.829-8.6a185.221,185.221,0,0,0,17.632-10.644c30.782-20.743,38.657-4.262,39.009,2.6C296.735,382.262,294.141,389.95,285.484,397.653Z" transform="translate(-142.479 -127.247)" fill="#00c5bb"/>
      <path id="Path_45953" data-name="Path 45953" d="M285.484,405.364q-1.355,1.214-2.908,2.412c-24.279,16.845-63.942,6.889-71.14,1.894-2.984-1.327-2.373-6.322-1.448-8.266,3.546-.1,11.729.876,29.829-8.6a22.308,22.308,0,0,0,1.768,1.851,24.116,24.116,0,0,0,6.217,4.218,23.183,23.183,0,0,0,7.919,2.136c4.411.358,8.816-.54,13.221-.952s9.086-.276,12.924,1.932A11.319,11.319,0,0,1,285.484,405.364Z" transform="translate(-142.479 -134.958)" fill="#0cb0a8"/>
      <path id="Path_45954" data-name="Path 45954" d="M300.835,411.874c.885,2.669-3.9,6.658-10.693,8.908s-13.012,1.91-13.9-.76,3.9-6.658,10.693-8.908S299.95,409.2,300.835,411.874Z" transform="translate(-160.602 -139.513)" fill="#5856cc"/>
      <path id="Path_45955" data-name="Path 45955" d="M294.47,415.42c.557,1.68-2.455,4.189-6.727,5.605s-8.187,1.2-8.743-.478,2.455-4.189,6.727-5.6S293.913,413.74,294.47,415.42Z" transform="translate(-161.358 -140.699)" fill="url(#linear-gradient)"/>
      <path id="Path_45956" data-name="Path 45956" d="M181.71,417.332c-.634-2.74,4.5-6.269,11.472-7.88s13.133-.7,13.767,2.044-4.5,6.269-11.472,7.88S182.344,420.072,181.71,417.332Z" transform="translate(-135.011 -139.25)" fill="#5856cc"/>
      <path id="Path_45957" data-name="Path 45957" d="M191.742,416.209c-.4-1.724,2.833-3.944,7.218-4.958s8.263-.438,8.662,1.286-2.833,3.944-7.218,4.957S192.14,417.933,191.742,416.209Z" transform="translate(-137.734 -139.817)" fill="url(#linear-gradient)"/>
      <path id="Path_45958" data-name="Path 45958" d="M170.515,374.355c1.192-6.775,11.018-22.173,39.04,2.177s40.264,24.213,44.753,24.893c.68,2.04.68,7.074-2.449,8.025-7.754,4.081-48.335,9.114-70.372-10.565C171.616,389.12,169.517,380.022,170.515,374.355Z" transform="translate(-131.932 -126.963)" fill="#00c5bb"/>
      <path id="Path_45959" data-name="Path 45959" d="M254.19,407.925a3.7,3.7,0,0,1-2.33,2.418c-7.753,4.08-48.337,9.113-70.375-10.568-9.868-9.763-11.965-18.86-10.969-24.532a14.179,14.179,0,0,1,5.418-8.662,14.325,14.325,0,0,0-2.781,6.1c-1,5.666,1.1,14.763,10.969,24.526C205.886,416.637,245.726,411.972,254.19,407.925Z" transform="translate(-131.933 -127.854)" fill="#0cb0a8"/>
      <path id="Path_45960" data-name="Path 45960" d="M251.834,289.492q-.288,1.1-.474,2.085a10.546,10.546,0,0,1-4.938.264,10.205,10.205,0,0,1-1.726-.483c.074-1.038.086-1.986.178-2.752A13.12,13.12,0,0,1,251.834,289.492Z" transform="translate(-152.085 -106.697)" fill="url(#linear-gradient-6)"/>
      <ellipse id="Ellipse_3764" data-name="Ellipse 3764" cx="16.017" cy="12.776" rx="16.017" ry="12.776" transform="translate(82.167 180.726) rotate(-79.364)" fill="url(#linear-gradient-7)"/>
      <path id="Path_45961" data-name="Path 45961" d="M270.736,268.817a1.93,1.93,0,1,1-.862-2.952A2.217,2.217,0,0,1,270.736,268.817Z" transform="translate(-158.141 -100.55)" fill="url(#linear-gradient-8)"/>
      <path id="Path_45962" data-name="Path 45962" d="M235.872,264.44a2.215,2.215,0,0,1-1.655,2.591c-1.023.083-1.942-.942-2.05-2.29a2.216,2.216,0,0,1,1.655-2.591C234.844,262.067,235.762,263.093,235.872,264.44Z" transform="translate(-148.689 -99.568)" fill="url(#linear-gradient-9)"/>
      <path id="Path_45963" data-name="Path 45963" d="M253.144,240.8c1.791,3.6-1.729,8.991-7.863,12.043s-12.558,2.607-14.349-.992,1.73-8.992,7.863-12.043S251.353,237.2,253.144,240.8Z" transform="translate(-148.231 -92.968)" fill="#151348"/>
      <path id="Path_45964" data-name="Path 45964" d="M268.455,253.575c-2.843,2.843-9.075,1.221-13.919-3.624s-6.467-11.077-3.624-13.919,9.075-1.22,13.919,3.625S271.3,250.732,268.455,253.575Z" transform="translate(-153.389 -92.116)" fill="#151348"/>
      <g id="Group_8970" data-name="Group 8970" transform="translate(89.082 163.162)">
        <g id="Group_8968" data-name="Group 8968" transform="translate(1.264)">
          <g id="Group_8967" data-name="Group 8967">
            <g id="Group_8964" data-name="Group 8964">
              <g id="Group_8963" data-name="Group 8963">
                <path id="Path_45965" data-name="Path 45965" d="M242.082,262.95a.428.428,0,0,1,.37.47,1.268,1.268,0,0,0,2.448.621.427.427,0,0,1,.791.324,2.123,2.123,0,0,1-4.088-1.037.426.426,0,0,1,.471-.378Z" transform="translate(-241.59 -262.946)" fill="#373193"/>
              </g>
            </g>
            <g id="Group_8966" data-name="Group 8966" transform="translate(11.21 1.811)">
              <g id="Group_8965" data-name="Group 8965">
                <path id="Path_45966" data-name="Path 45966" d="M260.816,265.534l.019,0a.427.427,0,0,1,.349.491,2.123,2.123,0,0,1-4.217-.122.427.427,0,0,1,.849-.094,1.269,1.269,0,0,0,2.524.072A.428.428,0,0,1,260.816,265.534Z" transform="translate(-256.964 -265.43)" fill="#373193"/>
              </g>
            </g>
          </g>
        </g>
        <path id="Path_45967" data-name="Path 45967" d="M261.373,274.412c-.089.688-1.019,1.135-2.08,1s-1.847-.8-1.759-1.493,1.019-1.136,2.08-1S261.461,273.724,261.373,274.412Z" transform="translate(-244.643 -265.641)" fill="#ff9191"/>
        <path id="Path_45968" data-name="Path 45968" d="M243.7,272.138c-.088.688-1.019,1.135-2.08,1s-1.847-.8-1.759-1.493,1.02-1.136,2.08-1S243.79,271.45,243.7,272.138Z" transform="translate(-239.857 -265.025)" fill="#ff9191"/>
        <g id="Group_8969" data-name="Group 8969" transform="translate(4.609 12.469)">
          <path id="Path_45969" data-name="Path 45969" d="M249.345,282.055a3.634,3.634,0,0,1-3.1-1.39.4.4,0,1,1,.678-.434,2.869,2.869,0,0,0,2.416,1.019,2.981,2.981,0,0,0,2.322-.968.4.4,0,0,1,.647.478A3.74,3.74,0,0,1,249.345,282.055Z" transform="translate(-246.178 -280.047)" fill="#373193"/>
        </g>
      </g>
      <path id="Path_45970" data-name="Path 45970" d="M347.832,156.832c-1.855-3.236-4.947-5.529-7.706-8.04s-5.378-5.595-5.727-9.309a6.019,6.019,0,0,1,1.707-5.085,3.7,3.7,0,0,1,5.016.024,4.983,4.983,0,0,1,.941,3.582,15.681,15.681,0,0,0-.028,3.787c.534,2.655,3.046,4.419,5.509,5.546s5.176,1.964,7.049,3.921c2.432,2.541,2.873,6.5,1.977,9.9a22.806,22.806,0,0,1-3.094,6.511c-.966,1.49-2.586,4.8-4.521,5.186-1.617.319-1.239-1.139-.954-2.29a39.808,39.808,0,0,0,1.474-5.836A13.443,13.443,0,0,0,347.832,156.832Z" transform="translate(-176.372 -64.705)" fill="#151348"/>
      <path id="Path_45971" data-name="Path 45971" d="M298.642,253.848c-1.845,2.272-4.528,3.445-7.172,1.582-2.669-1.88-2.282-5.581-.774-8.113,1.665-2.795,4.629-4.568,7.655-5.762s6.228-1.927,9.189-3.272A24.258,24.258,0,0,0,317,230.616c1.124-1.528,2.123-3.241,3.737-4.239s4.111-.911,5.029.75a3.467,3.467,0,0,1-.344,3.484,10.223,10.223,0,0,1-2.677,2.494L308.1,243.767a30.2,30.2,0,0,0-6.411,5.675C300.6,250.858,299.768,252.46,298.642,253.848Z" transform="translate(-164.224 -89.705)" fill="#151348"/>
      <path id="Path_45972" data-name="Path 45972" d="M338.346,214.9c2.8-1.72-.2-4.015-2.234-4.285a2.7,2.7,0,0,0-2.3.715c-1.506,1.581.451,3.471,2.011,3.848A3.346,3.346,0,0,0,338.346,214.9Z" transform="translate(-176.075 -85.603)" fill="#151348"/>
      <path id="Path_45973" data-name="Path 45973" d="M185.712,222.684a9.468,9.468,0,0,0,3.731-.693c1.845-.658,3.613-1.522,5.472-2.137a11.47,11.47,0,0,1,5.779-.6,5.945,5.945,0,0,1,4.457,3.439,4.061,4.061,0,0,1-1.775,5.035c-1.573.74-3.447.167-4.982-.647s-2.995-1.883-4.707-2.179a9.99,9.99,0,0,0-4.729.646,17.378,17.378,0,0,1-4.668,1.139,4.722,4.722,0,0,1-4.2-1.879c-.851-1.345-.84-3.165.888-3.767a2.417,2.417,0,0,1,2.53.65,9.057,9.057,0,0,0,.6.716C184.521,222.78,185.19,222.652,185.712,222.684Z" transform="translate(-134.435 -87.909)" fill="#151348"/>
      <path id="Path_45974" data-name="Path 45974" d="M209.715,241.435c-.483-3.34,5.569-2.64,4.059.213C212.891,243.316,210.041,243.683,209.715,241.435Z" transform="translate(-142.603 -93.355)" fill="#151348"/>
      <path id="Path_45975" data-name="Path 45975" d="M208.965,264.372c.489,1.421,1.22,3.854-.974,4.212-3.185.521-2.648-5.548-1.747-7.159.471-.844,1.135-1.564,1.661-2.375a3.932,3.932,0,0,0,.758-2.73c-.175-1.014-.965-1.988-.637-2.963a1.779,1.779,0,0,1,2.8-.486,3.036,3.036,0,0,1,.569,3.142,11.987,11.987,0,0,1-1.7,2.9A5.925,5.925,0,0,0,208.446,262,6.9,6.9,0,0,0,208.965,264.372Z" transform="translate(-141.482 -96.93)" fill="#151348"/>
      <path id="Path_45976" data-name="Path 45976" d="M214.373,40.973c-3.02-1.686-8.609-2.572-11.887-.906-2.818,1.432-4.274,6.9-1.156,8.76,1.925,1.149,4.349.022,6.589-.055,3.377-.117,6.295,2.195,8.872,4.381,4.627,3.925,8.49,8.234,12.837,12.433,4.448,4.3,9.868,8.009,16.017,8.662a6.4,6.4,0,0,0,3.2-.3,2.828,2.828,0,0,0,1.814-2.468c-.017-1.494-1.584-2.552-3.071-2.7a22.288,22.288,0,0,0-4.445.464c-4.675.472-9.179-2.255-12.25-5.811s-5.033-7.908-7.323-12.012S218.477,43.263,214.373,40.973Z" transform="translate(-139.865 -39.177)" fill="#151348"/>
    </g>
    <g id="Group_8972" data-name="Group 8972" transform="translate(126.078 68.714)">
      <path id="Path_45977" data-name="Path 45977" d="M266.395,110.366l.682.609a.73.73,0,0,0,.658.165l.888-.217a.729.729,0,0,1,.84,1l-.368.836a.731.731,0,0,0,.047.677l.48.777a.729.729,0,0,1-.693,1.108l-.909-.091a.729.729,0,0,0-.629.254l-.591.7a.729.729,0,0,1-1.269-.317l-.194-.893a.731.731,0,0,0-.436-.52l-.846-.346a.729.729,0,0,1-.09-1.3l.79-.461a.729.729,0,0,0,.359-.575l.069-.911A.729.729,0,0,1,266.395,110.366Z" transform="translate(-174.97 -87.945)" fill="#8c8cdd"/>
      <path id="Path_45978" data-name="Path 45978" d="M241.9,239.312l.682.609a.729.729,0,0,0,.658.165l.887-.217a.729.729,0,0,1,.84,1l-.367.836a.729.729,0,0,0,.047.677l.481.777a.73.73,0,0,1-.693,1.109l-.909-.092a.728.728,0,0,0-.629.254l-.591.7a.729.729,0,0,1-1.269-.317l-.194-.893a.729.729,0,0,0-.436-.521l-.845-.346a.729.729,0,0,1-.091-1.3l.79-.461a.729.729,0,0,0,.36-.575l.068-.911A.73.73,0,0,1,241.9,239.312Z" transform="translate(-168.336 -122.87)" fill="#8c8cdd"/>
      <path id="Path_45979" data-name="Path 45979" d="M144.839,140.366l.682.609a.73.73,0,0,0,.658.165l.888-.217a.729.729,0,0,1,.84,1l-.368.836a.729.729,0,0,0,.047.677l.48.777a.729.729,0,0,1-.693,1.108l-.909-.091a.73.73,0,0,0-.629.254l-.591.7a.729.729,0,0,1-1.269-.317l-.193-.893a.731.731,0,0,0-.436-.52l-.846-.346a.729.729,0,0,1-.09-1.3l.79-.461a.731.731,0,0,0,.359-.575l.069-.911A.729.729,0,0,1,144.839,140.366Z" transform="translate(-142.046 -96.07)" fill="#8c8cdd"/>
      <path id="Path_45980" data-name="Path 45980" d="M193.793,192.415l.445.4a.475.475,0,0,0,.429.107l.579-.141a.476.476,0,0,1,.548.654l-.241.545a.478.478,0,0,0,.031.441l.314.508a.476.476,0,0,1-.452.723l-.594-.06a.475.475,0,0,0-.411.165l-.386.455a.476.476,0,0,1-.828-.207l-.126-.583a.473.473,0,0,0-.284-.339l-.551-.226a.475.475,0,0,1-.06-.851l.516-.3a.477.477,0,0,0,.235-.376l.044-.594A.476.476,0,0,1,193.793,192.415Z" transform="translate(-155.569 -110.185)" fill="#8c8cdd"/>
      <path id="Path_45981" data-name="Path 45981" d="M271.089,238.361l.445.4a.475.475,0,0,0,.429.107l.579-.141a.476.476,0,0,1,.548.654l-.241.545a.479.479,0,0,0,.031.442l.314.507a.476.476,0,0,1-.452.723l-.594-.06a.479.479,0,0,0-.411.166l-.386.455a.476.476,0,0,1-.828-.207l-.126-.583a.476.476,0,0,0-.284-.339l-.551-.226a.475.475,0,0,1-.06-.851l.516-.3a.475.475,0,0,0,.235-.375l.045-.594A.476.476,0,0,1,271.089,238.361Z" transform="translate(-176.504 -122.63)" fill="#8c8cdd"/>
      <path id="Path_45982" data-name="Path 45982" d="M165.52,142.534l.445.4a.477.477,0,0,0,.429.108l.579-.141a.476.476,0,0,1,.548.653l-.24.546a.473.473,0,0,0,.031.441l.313.507a.476.476,0,0,1-.452.723l-.594-.06a.475.475,0,0,0-.41.166l-.385.455a.476.476,0,0,1-.828-.207l-.127-.583a.473.473,0,0,0-.284-.339l-.551-.226a.476.476,0,0,1-.059-.852l.515-.3a.477.477,0,0,0,.235-.376l.044-.594A.476.476,0,0,1,165.52,142.534Z" transform="translate(-147.911 -96.675)" fill="#8c8cdd"/>
      <path id="Path_45983" data-name="Path 45983" d="M244.013,103.082l.445.4a.475.475,0,0,0,.429.107l.579-.141a.475.475,0,0,1,.548.653l-.24.545a.475.475,0,0,0,.031.442l.313.507a.475.475,0,0,1-.452.723l-.594-.06a.473.473,0,0,0-.41.166l-.386.454a.475.475,0,0,1-.828-.206l-.127-.583a.473.473,0,0,0-.284-.339l-.551-.227a.476.476,0,0,1-.059-.851l.515-.3a.474.474,0,0,0,.235-.375l.044-.595A.476.476,0,0,1,244.013,103.082Z" transform="translate(-169.171 -85.99)" fill="#8c8cdd"/>
      <path id="Path_45984" data-name="Path 45984" d="M216.9,151.69l.424.379a.454.454,0,0,0,.41.1l.553-.135a.454.454,0,0,1,.523.624l-.229.521a.457.457,0,0,0,.029.421l.3.483a.454.454,0,0,1-.432.691l-.566-.057a.452.452,0,0,0-.392.158l-.368.435a.454.454,0,0,1-.79-.2l-.12-.556a.453.453,0,0,0-.272-.324l-.526-.216a.454.454,0,0,1-.056-.812l.491-.287a.453.453,0,0,0,.224-.358l.043-.567A.454.454,0,0,1,216.9,151.69Z" transform="translate(-161.848 -99.156)" fill="#8c8cdd"/>
      <path id="Path_45985" data-name="Path 45985" d="M296.684,209.6l-.208.53a.457.457,0,0,0,.047.42l.319.471a.454.454,0,0,1-.4.707l-.568-.034a.454.454,0,0,0-.385.174l-.349.448a.454.454,0,0,1-.8-.164l-.143-.551a.455.455,0,0,0-.285-.312l-.534-.194a.453.453,0,0,1-.09-.809l.479-.307a.454.454,0,0,0,.209-.367l.019-.569a.453.453,0,0,1,.742-.335l.44.361a.453.453,0,0,0,.413.085l.547-.158A.454.454,0,0,1,296.684,209.6Z" transform="translate(-182.953 -114.605)" fill="#8c8cdd"/>
      <path id="Path_45986" data-name="Path 45986" d="M193.788,79.8l.424.379a.454.454,0,0,0,.41.1l.553-.135a.454.454,0,0,1,.523.624l-.229.521a.457.457,0,0,0,.029.421l.3.484a.453.453,0,0,1-.432.69l-.566-.057a.451.451,0,0,0-.392.158l-.368.434a.454.454,0,0,1-.79-.2l-.12-.556a.456.456,0,0,0-.272-.324l-.526-.216a.454.454,0,0,1-.056-.812l.491-.287a.453.453,0,0,0,.224-.358l.043-.567A.454.454,0,0,1,193.788,79.8Z" transform="translate(-155.59 -79.686)" fill="#8c8cdd"/>
      <path id="Path_45987" data-name="Path 45987" d="M312.4,175.36l.02.569a.454.454,0,0,0,.21.367l.479.306a.454.454,0,0,1-.088.809l-.535.195a.453.453,0,0,0-.284.313l-.143.551a.454.454,0,0,1-.8.166l-.351-.448a.454.454,0,0,0-.385-.174l-.568.034a.453.453,0,0,1-.4-.707l.318-.472a.453.453,0,0,0,.046-.42l-.208-.529a.454.454,0,0,1,.548-.6l.547.157a.455.455,0,0,0,.413-.086l.439-.362A.454.454,0,0,1,312.4,175.36Z" transform="translate(-187.395 -105.48)" fill="#8c8cdd"/>
    </g>
    <g id="Group_8973" data-name="Group 8973" transform="translate(132.208 42.967)">
      <circle id="Ellipse_3765" data-name="Ellipse 3765" cx="1.139" cy="1.139" r="1.139" transform="translate(38.861 97.797)" fill="#4b4b96"/>
      <path id="Path_45988" data-name="Path 45988" d="M228.658,134.321a.891.891,0,1,1-.891-.892A.891.891,0,0,1,228.658,134.321Z" transform="translate(-171.152 -68.495)" fill="#4b4b96"/>
      <path id="Path_45989" data-name="Path 45989" d="M235.752,159.564a.563.563,0,1,1-.563-.564A.563.563,0,0,1,235.752,159.564Z" transform="translate(-173.251 -75.421)" fill="#4b4b96"/>
      <circle id="Ellipse_3766" data-name="Ellipse 3766" cx="1.549" cy="1.549" r="1.549" transform="translate(30.749 84.142)" fill="#4b4b96"/>
      <path id="Path_45990" data-name="Path 45990" d="M181.683,194.773a.716.716,0,1,1-.717-.717A.717.717,0,0,1,181.683,194.773Z" transform="translate(-158.524 -84.916)" fill="#4b4b96"/>
      <circle id="Ellipse_3767" data-name="Ellipse 3767" cx="1.139" cy="1.139" r="1.139" transform="translate(42.233 112.61)" fill="#4b4b96"/>
      <path id="Path_45991" data-name="Path 45991" d="M219.682,184.973a.954.954,0,1,1-.954-.954A.954.954,0,0,1,219.682,184.973Z" transform="translate(-168.687 -82.197)" fill="#4b4b96"/>
      <path id="Path_45992" data-name="Path 45992" d="M287.029,148.6a.587.587,0,1,1-.587-.588A.587.587,0,0,1,287.029,148.6Z" transform="translate(-187.127 -72.446)" fill="#4b4b96"/>
      <path id="Path_45993" data-name="Path 45993" d="M313.924,158.9a.9.9,0,1,1-.9-.9A.905.905,0,0,1,313.924,158.9Z" transform="translate(-194.239 -75.15)" fill="#4b4b96"/>
      <path id="Path_45994" data-name="Path 45994" d="M296.771,187.164a.529.529,0,1,1-.529-.529A.529.529,0,0,1,296.771,187.164Z" transform="translate(-189.797 -82.906)" fill="#4b4b96"/>
      <path id="Path_45995" data-name="Path 45995" d="M312.649,195.988a.95.95,0,1,1-.949-.949A.95.95,0,0,1,312.649,195.988Z" transform="translate(-193.87 -85.182)" fill="#4b4b96"/>
      <path id="Path_45996" data-name="Path 45996" d="M325.961,178.544a.98.98,0,1,1-.981-.98A.981.981,0,0,1,325.961,178.544Z" transform="translate(-197.459 -80.449)" fill="#4b4b96"/>
      <path id="Path_45997" data-name="Path 45997" d="M328.594,164.327a.952.952,0,1,1-.952-.952A.953.953,0,0,1,328.594,164.327Z" transform="translate(-198.187 -76.606)" fill="#4b4b96"/>
      <circle id="Ellipse_3768" data-name="Ellipse 3768" cx="0.82" cy="0.82" r="0.82" transform="translate(96.92 134.802)" fill="#4b4b96"/>
      <path id="Path_45998" data-name="Path 45998" d="M298.754,225.749a.5.5,0,1,1-.5-.5A.5.5,0,0,1,298.754,225.749Z" transform="translate(-190.35 -93.365)" fill="#4b4b96"/>
      <path id="Path_45999" data-name="Path 45999" d="M235.132,220.352a1.062,1.062,0,1,1-1.062-1.062A1.062,1.062,0,0,1,235.132,220.352Z" transform="translate(-172.814 -91.751)" fill="#4b4b96"/>
      <path id="Path_46000" data-name="Path 46000" d="M258.611,235.387a1.637,1.637,0,1,1-1.637-1.637A1.637,1.637,0,0,1,258.611,235.387Z" transform="translate(-178.862 -95.667)" fill="#4b4b96"/>
      <path id="Path_46001" data-name="Path 46001" d="M231.43,252.775a.37.37,0,1,1-.37-.37A.37.37,0,0,1,231.43,252.775Z" transform="translate(-172.186 -100.72)" fill="#4b4b96"/>
      <path id="Path_46002" data-name="Path 46002" d="M225.908,273.192a.829.829,0,1,1-.829-.829A.829.829,0,0,1,225.908,273.192Z" transform="translate(-170.441 -106.125)" fill="#4b4b96"/>
      <path id="Path_46003" data-name="Path 46003" d="M272.217,253.521a.608.608,0,1,1-.609-.609A.608.608,0,0,1,272.217,253.521Z" transform="translate(-183.104 -100.857)" fill="#4b4b96"/>
      <circle id="Ellipse_3769" data-name="Ellipse 3769" cx="0.355" cy="0.355" r="0.355" transform="translate(89.113 173.849)" fill="#4b4b96"/>
      <path id="Path_46004" data-name="Path 46004" d="M251.02,135.6a.947.947,0,1,1-.946-.947A.947.947,0,0,1,251.02,135.6Z" transform="translate(-177.179 -68.826)" fill="#4b4b96"/>
      <path id="Path_46005" data-name="Path 46005" d="M264.947,145.956a.742.742,0,1,1-.742-.743A.742.742,0,0,1,264.947,145.956Z" transform="translate(-181.062 -71.687)" fill="#4b4b96"/>
      <path id="Path_46006" data-name="Path 46006" d="M279.846,105.468a1.217,1.217,0,1,1-1.218-1.218A1.217,1.217,0,0,1,279.846,105.468Z" transform="translate(-184.84 -60.592)" fill="#4b4b96"/>
      <circle id="Ellipse_3770" data-name="Ellipse 3770" cx="0.782" cy="0.782" r="0.782" transform="translate(98.728 36.549)" fill="#4b4b96"/>
      <path id="Path_46007" data-name="Path 46007" d="M207.657,95.964a.391.391,0,1,1-.392-.391A.391.391,0,0,1,207.657,95.964Z" transform="translate(-165.735 -58.242)" fill="#4b4b96"/>
      <path id="Path_46008" data-name="Path 46008" d="M222.213,116.039a1.565,1.565,0,1,1-1.565-1.566A1.565,1.565,0,0,1,222.213,116.039Z" transform="translate(-169.042 -63.361)" fill="#4b4b96"/>
      <circle id="Ellipse_3771" data-name="Ellipse 3771" cx="0.82" cy="0.82" r="0.82" transform="translate(52.533 34.908)" fill="#4b4b96"/>
      <path id="Path_46009" data-name="Path 46009" d="M216.392,79.321a1.071,1.071,0,1,1-1.07-1.071A1.07,1.07,0,0,1,216.392,79.321Z" transform="translate(-167.733 -53.55)" fill="#4b4b96"/>
      <path id="Path_46010" data-name="Path 46010" d="M171.275,84.513a1.638,1.638,0,1,1-1.638-1.638A1.638,1.638,0,0,1,171.275,84.513Z" transform="translate(-155.206 -54.803)" fill="#4b4b96"/>
      <circle id="Ellipse_3772" data-name="Ellipse 3772" cx="0.866" cy="0.866" r="0.866" transform="translate(0 22.968)" fill="#4b4b96"/>
      <path id="Path_46011" data-name="Path 46011" d="M183.563,68.79a1.166,1.166,0,1,1-1.165-1.165A1.165,1.165,0,0,1,183.563,68.79Z" transform="translate(-158.79 -50.672)" fill="#4b4b96"/>
      <circle id="Ellipse_3773" data-name="Ellipse 3773" cx="1.458" cy="1.458" r="1.458" transform="translate(13.656 12.942)" fill="#4b4b96"/>
      <path id="Path_46012" data-name="Path 46012" d="M184.688,95.737a1.237,1.237,0,1,1-1.237-1.237A1.237,1.237,0,0,1,184.688,95.737Z" transform="translate(-159.056 -57.951)" fill="#4b4b96"/>
      <path id="Path_46013" data-name="Path 46013" d="M213.379,45.127a.752.752,0,1,1-.752-.752A.751.751,0,0,1,213.379,45.127Z" transform="translate(-167.09 -44.375)" fill="#4b4b96"/>
      <path id="Path_46014" data-name="Path 46014" d="M303.115,128.808a.433.433,0,1,1-.432-.433A.432.432,0,0,1,303.115,128.808Z" transform="translate(-191.568 -67.126)" fill="#4b4b96"/>
      <circle id="Ellipse_3774" data-name="Ellipse 3774" cx="1.028" cy="1.028" r="1.028" transform="translate(138.299 69.856)" fill="#4b4b96"/>
      <path id="Path_46015" data-name="Path 46015" d="M356.432,162.1a.341.341,0,1,1-.341-.341A.341.341,0,0,1,356.432,162.1Z" transform="translate(-206.058 -76.167)" fill="#4b4b96"/>
      <circle id="Ellipse_3775" data-name="Ellipse 3775" cx="0.541" cy="0.541" r="0.541" transform="translate(151.515 91.52)" fill="#4b4b96"/>
      <path id="Path_46016" data-name="Path 46016" d="M207.909,225.489a.648.648,0,1,1,.648.649A.648.648,0,0,1,207.909,225.489Z" transform="translate(-166.015 -93.254)" fill="#4b4b96"/>
      <circle id="Ellipse_3776" data-name="Ellipse 3776" cx="0.19" cy="0.19" r="0.19" transform="translate(36.537 131.369)" fill="#4b4b96"/>
      <path id="Path_46017" data-name="Path 46017" d="M205.7,221.736a.319.319,0,1,1-.319-.319A.319.319,0,0,1,205.7,221.736Z" transform="translate(-165.244 -92.327)" fill="#4b4b96"/>
      <path id="Path_46018" data-name="Path 46018" d="M296.191,258.44a.752.752,0,1,1-.752-.752A.752.752,0,0,1,296.191,258.44Z" transform="translate(-189.519 -102.151)" fill="#4b4b96"/>
      <path id="Path_46019" data-name="Path 46019" d="M300.759,252.786a.661.661,0,1,1-.661-.661A.661.661,0,0,1,300.759,252.786Z" transform="translate(-190.806 -100.644)" fill="#4b4b96"/>
      <circle id="Ellipse_3777" data-name="Ellipse 3777" cx="0.672" cy="0.672" r="0.672" transform="translate(116.516 147.972)" fill="#4b4b96"/>
      <path id="Path_46020" data-name="Path 46020" d="M334.907,231.173a.8.8,0,1,1-.8-.8A.8.8,0,0,1,334.907,231.173Z" transform="translate(-199.981 -94.753)" fill="#4b4b96"/>
      <path id="Path_46021" data-name="Path 46021" d="M331.095,235.2a.454.454,0,1,1-.454-.454A.454.454,0,0,1,331.095,235.2Z" transform="translate(-199.134 -95.938)" fill="#4b4b96"/>
      <path id="Path_46022" data-name="Path 46022" d="M184.557,225.3a.758.758,0,1,1-.758-.758A.757.757,0,0,1,184.557,225.3Z" transform="translate(-159.28 -93.173)" fill="#4b4b96"/>
      <path id="Path_46023" data-name="Path 46023" d="M208.243,271.746a.2.2,0,1,1-.2-.2A.2.2,0,0,1,208.243,271.746Z" transform="translate(-165.998 -105.904)" fill="#4b4b96"/>
      <path id="Path_46024" data-name="Path 46024" d="M208.752,267.724a.318.318,0,1,1-.317-.318A.317.317,0,0,1,208.752,267.724Z" transform="translate(-166.072 -104.783)" fill="#4b4b96"/>
      <path id="Path_46025" data-name="Path 46025" d="M211.662,255.037a.456.456,0,1,1-.456-.456A.456.456,0,0,1,211.662,255.037Z" transform="translate(-166.785 -101.309)" fill="#4b4b96"/>
      <circle id="Ellipse_3778" data-name="Ellipse 3778" cx="0.49" cy="0.49" r="0.49" transform="translate(9.239 97.797)" fill="#4b4b96"/>
      <path id="Path_46026" data-name="Path 46026" d="M169.708,168.457a.823.823,0,1,1-.822-.823A.822.822,0,0,1,169.708,168.457Z" transform="translate(-155.223 -77.76)" fill="#4b4b96"/>
    </g>
  </g>
</svg>
