<svg width="99" height="108" viewBox="0 0 99 108" fill="none" xmlns="http://www.w3.org/2000/svg">
<path d="M38.9606 63.877C39.1648 65.2047 39.3395 66.5176 39.4712 67.8594L39.3972 68.5595C39.396 68.6518 39.3636 68.7409 39.3053 68.8124C39.247 68.8839 39.1662 68.9335 39.076 68.9532L38.6386 69.0554L39.076 68.618C38.9887 69.8872 38.928 71.1417 38.8133 72.3924L37.9393 71.5495H38.2427C38.4417 71.5107 38.6481 71.5516 38.8172 71.6635C38.9864 71.7753 39.1048 71.9491 39.1471 72.1475C39.1618 72.2392 39.1618 72.3326 39.1471 72.4243V72.5264L38.9717 73.6365C38.9292 73.8511 38.8053 74.0409 38.6259 74.1661C38.4465 74.2912 38.2256 74.342 38.0096 74.3078H37.718L37.3968 74.1768L38.5639 73.8119C38.199 74.5417 37.849 75.2707 37.47 76.0145L37.0467 74.5557C37.2909 74.6756 37.479 74.8855 37.5715 75.1413C37.664 75.3971 37.6536 75.6788 37.5426 75.9271C37.4398 76.1549 37.2559 76.3363 37.0268 76.436C36.7977 76.5357 36.5396 76.5467 36.3029 76.4667H36.2156C34.4853 75.8781 32.7221 75.3911 30.935 75.0079C30.0837 74.8298 29.2208 74.7128 28.3528 74.6579C27.64 74.5776 26.9183 74.6534 26.2377 74.8799C26.1638 74.9077 26.0948 74.9472 26.0334 74.9968C26.0306 75.0308 26.0306 75.065 26.0334 75.099C25.9517 75.2974 25.9216 75.5133 25.9461 75.7266C26.0493 76.4379 26.3029 77.1191 26.6899 77.7248C27.5261 79.1882 28.5676 80.5244 29.7827 81.6924C31.0759 82.9035 32.4773 83.9935 33.9694 84.9488C34.7076 85.4114 35.4778 85.821 36.274 86.1744C37.0763 86.5245 37.937 86.8746 38.7978 87.1958C42.2407 88.4354 45.7998 89.5152 49.3877 90.5506H49.4751C49.5691 90.5808 49.6476 90.6465 49.6939 90.7337C49.7402 90.8209 49.7507 90.9228 49.723 91.0176C49.7112 91.0722 49.6865 91.1232 49.651 91.1664C49.6154 91.2095 49.5701 91.2435 49.5187 91.2655L48.6432 91.6593C48.3546 91.7983 48.0581 91.9201 47.7551 92.0241L45.9463 92.6073L47.5678 91.6378C47.8391 91.4762 48.102 91.3008 48.3553 91.1123L49.1139 90.5728L49.2449 91.3018C45.4866 90.9399 41.7641 90.2716 38.1147 89.3035C37.1955 89.0408 36.277 88.7781 35.3578 88.4428C34.422 88.0949 33.5148 87.6742 32.6446 87.1847C30.9186 86.237 29.3123 85.0861 27.8599 83.7566C26.3392 82.4298 25.0401 80.8688 24.0115 79.1325C23.4155 78.1317 23.0516 77.0101 22.9465 75.8502C22.888 75.1304 23.0294 74.4084 23.355 73.7638C23.4431 73.5903 23.5456 73.4244 23.6614 73.268C23.7956 73.1018 23.9418 72.9458 24.0988 72.801C24.3927 72.5464 24.7282 72.3441 25.0905 72.203C26.1878 71.8312 27.3579 71.7262 28.5038 71.8966C29.4886 72.0166 30.4636 72.2068 31.4213 72.4657C33.2829 72.9774 35.1054 73.6217 36.875 74.3937L36.0291 76.2757C35.9159 76.2107 35.8166 76.1241 35.737 76.0207C35.6574 75.9173 35.5989 75.7992 35.565 75.6732C35.5311 75.5471 35.5225 75.4156 35.5395 75.2863C35.5565 75.1569 35.5989 75.0321 35.6642 74.9191C36.1016 74.2338 36.5523 73.5477 37.006 72.8624V72.7751C37.1197 72.5946 37.2997 72.4659 37.5074 72.4167C37.715 72.3676 37.9336 72.4019 38.1161 72.5123L38.4373 72.6877L37.1977 73.2709L37.5189 72.2207L38.407 73.1984H38.0281C37.8304 73.2101 37.6359 73.1455 37.4844 73.018C37.333 72.8905 37.2362 72.7098 37.214 72.5131C37.2065 72.4393 37.2065 72.3649 37.214 72.2911C37.4619 71.0655 37.7535 69.8406 38.0281 68.615V68.5277C38.0497 68.4333 38.1011 68.3483 38.1746 68.2853C38.2482 68.2223 38.34 68.1845 38.4366 68.1776H38.8888L38.4803 68.5862L38.6283 67.9297C38.7415 66.5487 38.8436 65.2047 38.9606 63.877Z" fill="#6F5ADC"/>
<path d="M36.0431 46.0384C34.5844 47.4971 33.1257 48.9558 31.536 50.2835C29.9463 51.6112 28.4431 53.0115 26.8098 54.3096C26.745 54.3618 26.6705 54.4006 26.5906 54.4237C26.5107 54.4469 26.427 54.4539 26.3443 54.4444C26.2617 54.4349 26.1818 54.409 26.1092 54.3684C26.0366 54.3277 25.9729 54.273 25.9216 54.2075L25.7736 53.9744C25.7736 53.9744 25.6426 53.7701 25.7736 53.8722L25.861 53.9462C25.9189 53.9855 25.9829 54.015 26.0504 54.0336H25.6878L24.5355 54.2667C23.7704 54.4324 23.0155 54.6419 22.2745 54.8943H22.1575L21.9096 54.9816L22.0265 54.8943L22.2597 54.3111V54.69C22.2633 54.8041 22.2442 54.9178 22.2035 55.0244C22.1629 55.1311 22.1014 55.2285 22.0226 55.3112C21.9439 55.3938 21.8495 55.46 21.745 55.5058C21.6405 55.5517 21.5279 55.5762 21.4137 55.5781C21.2841 55.5761 21.1557 55.5511 21.0348 55.5041C18.8257 54.4712 16.6779 53.312 14.6019 52.0324L11.683 50.1555C10.7209 49.5575 9.62631 48.8426 8.76558 48.2734L10.4138 47.967L8.66567 50.2835C8.45869 50.566 8.14798 50.7546 7.8019 50.808C7.45581 50.8614 7.1027 50.7751 6.82025 50.5681C6.5378 50.3611 6.34914 50.0504 6.29577 49.7043C6.2424 49.3582 6.3287 49.0051 6.53569 48.7227L8.2712 46.3884L8.18387 47.8471C7.81901 47.264 7.42528 46.68 7.03155 46.1116C6.68196 45.5991 6.29691 45.1117 5.87922 44.6529L5.85036 44.5656C5.53515 44.2879 5.26456 43.9634 5.0481 43.6035C4.83022 43.2734 4.62963 42.9323 4.44715 42.5814L3.93722 41.6444L3.73296 41.3092C3.82371 41.3737 3.92155 41.4275 4.02456 41.4698H4.52116C4.81654 41.4665 5.10104 41.3578 5.32342 41.1634L3.00397 39.9052V39.8031C2.99293 39.856 2.99293 39.9107 3.00397 39.9637C3.09208 40.1918 3.25044 40.3859 3.45616 40.518C3.59825 40.6063 3.75674 40.665 3.92209 40.6904C4.08744 40.7159 4.25622 40.7076 4.41828 40.666C4.50489 40.6577 4.58656 40.6219 4.65141 40.5639C4.42589 40.9111 4.23077 41.277 4.06822 41.6578C3.6809 42.5246 3.38331 43.4287 3.18011 44.3561C3.15193 44.4828 3.10792 44.6054 3.04911 44.721C2.94891 44.926 2.87077 45.1411 2.81599 45.3627V45.2753C2.81321 45.1359 2.7728 44.9999 2.69905 44.8816C2.58212 44.721 2.69905 44.7943 2.69905 44.7795L2.81599 44.8668C3.33103 45.2667 3.87199 45.6322 4.43531 45.9606C5.63129 46.6904 6.91535 47.4194 8.16981 48.061L6.1834 48.8973C6.33687 48.5653 6.60952 48.303 6.94728 48.1625C7.28505 48.022 7.66327 48.0135 8.00699 48.1387C8.13052 48.1824 8.24811 48.2413 8.35705 48.3141C8.66487 48.5273 8.87895 48.8506 8.955 49.2172C9.03104 49.5838 8.96323 49.9656 8.76558 50.2835V50.3857L8.92618 48.9269L8.76558 48.7515C10.7202 51.669 12.748 54.7174 14.9083 57.5039C16.9885 60.3759 19.3274 63.0514 21.8955 65.4969C22.0048 65.5909 22.0926 65.7072 22.153 65.8381C22.2134 65.969 22.245 66.1113 22.2456 66.2554V67.3789C22.2591 67.3305 22.2591 67.2793 22.2456 67.2309C22.5542 67.4844 22.9049 67.6818 23.2817 67.8141C24.1945 68.1572 25.1529 68.3637 26.1259 68.4269C27.1202 68.455 28.1107 68.2917 29.0434 67.9458C29.5197 67.7879 29.9829 67.5929 30.4288 67.3626C30.6508 67.2457 30.7937 67.1295 30.9979 67.0126C30.9106 67.4936 30.9979 67.0126 30.9106 66.852C30.8723 66.7408 30.8747 66.6197 30.9174 66.5102C30.9601 66.4006 31.0403 66.3098 31.1437 66.254C32.6602 65.3712 34.0954 64.3558 35.4326 63.2196C36.7936 62.0726 38.0938 60.8552 39.3277 59.5724C37.1988 62.4711 34.623 65.0131 31.6966 67.1036L31.9593 66.4908C32.005 66.6387 32.0392 66.7898 32.0614 66.943C32.0841 67.0683 32.0841 67.1966 32.0614 67.3219C32.0768 67.3951 32.0768 67.4707 32.0614 67.5439C32.0262 67.6082 31.9821 67.6673 31.9305 67.7193H31.8305C31.5934 67.9272 31.3451 68.1218 31.0867 68.3025C30.5999 68.6166 30.0874 68.8889 29.5548 69.1166C28.4778 69.5987 27.3201 69.8748 26.1415 69.9307C24.9564 69.9411 23.7764 69.7739 22.6408 69.4349C21.9655 69.2727 21.3302 68.9748 20.7736 68.5593C20.6506 68.4758 20.5381 68.378 20.4383 68.2678V68.1397C20.4074 68.0792 20.3826 68.0157 20.3643 67.9503V66.3435L20.7432 67.131C17.8932 64.759 15.3101 62.0835 13.0396 59.152C10.735 56.2346 8.57612 53.3172 6.56307 50.2828V50.1555C6.45856 49.9198 6.41836 49.6607 6.44657 49.4045C6.47478 49.1482 6.57039 48.904 6.72367 48.6968L7.04487 50.769L9.19113 50.0104C9.07071 50.3612 8.82116 50.653 8.49327 50.8264C8.16537 50.9997 7.78374 51.0417 7.42602 50.9437L7.19289 50.8564C5.8511 50.171 4.56704 49.4709 3.25412 48.7101C2.46111 48.2833 1.69981 47.8 0.976118 47.2639C0.871034 47.1855 0.773421 47.0976 0.684521 47.0012L0.50912 46.8118C0.415756 46.717 0.337169 46.6087 0.275991 46.4906C0.153908 46.2872 0.0652062 46.0655 0.0132583 45.8341C0.000491137 45.7178 0.000491137 45.6004 0.0132583 45.484C-0.00441944 45.3143 -0.00441944 45.1431 0.0132583 44.9734C0.102695 44.4646 0.269942 43.9726 0.50912 43.5146L0.376643 43.8647C0.638629 42.7307 1.01504 41.6263 1.5001 40.5683C1.75881 39.9713 2.0814 39.4041 2.46222 38.8765C2.54955 38.7892 2.59322 38.7159 2.71015 38.6138C2.82128 38.4997 2.9435 38.3971 3.07502 38.3074C3.24947 38.1779 3.4476 38.0839 3.65821 38.0306C3.88214 37.9624 4.11829 37.944 4.35009 37.9767C4.58188 38.0094 4.8037 38.0925 5 38.22C5.32212 38.4246 5.5641 38.7337 5.68532 39.0956C5.77121 39.2796 5.8255 39.4767 5.84592 39.6788C5.86797 39.9067 5.86797 40.1362 5.84592 40.3641L3.51389 39.1244C3.78277 38.9167 4.10797 38.7947 4.44715 38.7744H4.81201C4.90345 38.7902 4.992 38.8197 5.07475 38.8617C5.22073 38.916 5.35827 38.9908 5.48328 39.0837L5.64388 39.2317C5.77778 39.3668 5.89985 39.5132 6.00874 39.6691C6.1303 39.8529 6.2422 40.0429 6.344 40.2383L6.86947 41.2159C7.03007 41.5223 7.19067 41.8139 7.35053 42.0618L7.53999 42.3386L7.86119 42.6302C8.40283 43.2277 8.89095 43.8716 9.31991 44.5545C9.72844 45.1821 10.1074 45.8126 10.487 46.4506C10.6134 46.6777 10.6695 46.9372 10.6483 47.1962C10.6271 47.4552 10.5295 47.7021 10.3679 47.9056L8.61756 50.2835L6.54531 48.6938L8.35409 46.418V46.3307C8.53993 46.1012 8.80583 45.9507 9.09822 45.9095C9.3906 45.8683 9.68774 45.9395 9.92975 46.1087L12.8472 48.1809L15.7646 50.1792C17.7044 51.4773 19.6597 52.7754 21.5995 53.87L20.3162 54.6434V54.1912C20.3347 54.0063 20.4126 53.8323 20.5382 53.6953C20.6508 53.5856 20.7784 53.4924 20.9171 53.4186L21.1503 53.3312L21.5292 53.2002C21.5966 53.1861 21.6661 53.1861 21.7335 53.2002H21.4693C22.2905 52.984 23.1232 52.8135 23.9634 52.6896L25.2326 52.529H25.9616L26.268 52.5142C26.3501 52.537 26.4286 52.5714 26.5011 52.6163C26.5388 52.6465 26.5731 52.6807 26.6033 52.7184C26.7131 52.839 26.8019 52.9771 26.866 53.127L27.014 53.4334L26.0364 53.1899C27.7578 52.096 29.4208 50.9 31.0838 49.6744L36.0431 46.0384Z" fill="#6F5ADC"/>
<path d="M68.879 33.8133C68.9959 33.9439 69.1554 34.0287 69.329 34.0527C69.5026 34.0767 69.6791 34.0383 69.8271 33.9443C70.1096 33.7441 70.3399 33.4788 70.4983 33.1709C70.8354 32.5468 71.0996 31.886 71.2858 31.2015C71.6552 29.8285 71.8802 28.4206 71.9571 27.0008C72.0575 25.5989 72.0036 24.1902 71.7965 22.8C71.7123 22.1462 71.5508 21.5048 71.3154 20.8891C71.2337 20.6691 71.1043 20.4699 70.9365 20.3059H70.7337C70.5112 20.369 70.2728 20.3416 70.0705 20.2295C69.8682 20.1175 69.7184 19.93 69.6539 19.7079V19.591C69.067 15.7398 67.3745 12.1418 64.7819 9.23412C62.1619 6.37026 58.7261 4.37935 54.9387 3.53024C53.982 3.27938 53.0062 3.10857 52.0212 3.01957C51.5401 3.01957 51.0591 2.87156 50.5625 2.85897H49.0993C47.2045 2.92101 45.3324 3.29044 43.556 3.95283C39.9809 5.34852 36.9242 7.8144 34.8037 11.0133L34.7297 11.1006C34.7091 11.1453 34.6794 11.1852 34.6424 11.2176L34.5254 11.3345L33.1977 11.7719C33.3711 11.8118 33.5507 11.8169 33.726 11.7868C33.9013 11.7567 34.0689 11.692 34.219 11.5965C34.4072 11.524 34.5769 11.4104 34.7157 11.2641C34.8545 11.1178 34.9589 10.9423 35.0213 10.7506L34.7001 11.3486C33.0196 13.1682 31.7025 15.2925 30.8198 17.6068L28.8356 16.1481L30.4401 18.0878L30.1633 16.0459L31.4615 16.7609L30.7317 16.6128C31.0621 16.5855 31.3899 16.6896 31.6439 16.9026C31.898 17.1156 32.0577 17.4203 32.0883 17.7504C32.1008 17.9191 32.0755 18.0885 32.0143 18.2462C31.453 19.8472 31.1001 21.5138 30.9641 23.2048C30.8352 24.9092 30.948 26.6232 31.2994 28.2959C32.011 31.7053 33.6286 34.8597 35.9819 37.4272C36.0334 37.4754 36.0745 37.5335 36.1031 37.598C36.1316 37.6625 36.1469 37.732 36.148 37.8025C36.1491 37.873 36.136 37.943 36.1096 38.0084C36.0831 38.0737 36.0438 38.1331 35.9939 38.183C35.9441 38.2328 35.8847 38.2721 35.8194 38.2986C35.754 38.3251 35.684 38.3381 35.6135 38.337C35.543 38.3359 35.4734 38.3206 35.409 38.2921C35.3445 38.2636 35.2864 38.2224 35.2381 38.171L34.9029 37.923H35.6178L34.6402 38.8563V38.2331L34.8444 38.4374C34.9247 38.5192 34.9697 38.6292 34.9697 38.7438C34.9697 38.8584 34.9247 38.9684 34.8444 39.0502C34.7651 39.1294 34.6575 39.1738 34.5454 39.1738C34.4333 39.1738 34.3258 39.1294 34.2464 39.0502L34.0422 38.8459L34.6986 38.3649C35.6607 40.5111 36.5947 42.741 37.4991 44.8562L37.3385 44.9872L37.4865 44.8392C36.2758 42.8113 35.1086 40.7546 33.9563 38.6964C33.9137 38.6138 33.9005 38.5191 33.9189 38.428C33.9374 38.3368 33.9864 38.2547 34.0578 38.1952C34.1292 38.1357 34.2188 38.1023 34.3118 38.1006C34.4048 38.0989 34.4955 38.1289 34.5691 38.1858L34.7734 38.3612L34.2042 38.9888L33.9711 38.7993C33.8952 38.7183 33.853 38.6114 33.853 38.5003C33.853 38.3893 33.8952 38.2824 33.9711 38.2013L34.8592 37.18C34.9379 37.0902 35.0472 37.033 35.1658 37.0193C35.2844 37.0056 35.4038 37.0365 35.5009 37.106L35.8798 37.3976L35.1826 38.1887C33.7804 36.9546 32.5752 35.5132 31.6087 33.9147C30.6273 32.3044 29.8715 30.5669 29.3626 28.7511C28.8587 26.913 28.6278 25.0109 28.6772 23.1057C28.7698 21.2004 29.1183 19.3162 29.7134 17.5039L31.0411 19.1232C30.7997 19.1546 30.5546 19.1087 30.341 18.9922L29.028 18.321C28.7337 18.1703 28.5105 17.9097 28.4068 17.5958C28.303 17.2818 28.3271 16.9396 28.4737 16.6432C28.5408 16.5057 28.6347 16.3829 28.7498 16.282L30.3543 18.2366L28.3856 16.7749C29.3087 14.1014 30.7292 11.6267 32.5723 9.48131L32.2659 10.0793C32.3647 9.73675 32.5854 9.44221 32.8865 9.25131C33.1876 9.06041 33.5481 8.98637 33.9001 9.04318L32.5871 9.48057L32.7181 9.33256L32.5575 9.53682C34.9661 5.78571 38.4845 2.87913 42.6228 1.22189C44.7132 0.454991 46.9168 0.0420305 49.143 0L50.806 0C51.3533 0.0303416 51.8988 0.0888866 52.4401 0.175402C53.5193 0.302915 54.5871 0.512725 55.6343 0.802999C59.916 1.87208 63.7534 4.25988 66.604 7.62886C69.3608 11.0191 71.0105 15.1738 71.3302 19.5318L70.0321 18.9626C70.3346 18.7656 70.6934 18.6733 71.0534 18.6999C71.4162 18.7427 71.7573 18.8953 72.0311 19.1373C72.37 19.4957 72.6242 19.9257 72.7749 20.3954C73.0129 21.1472 73.1502 21.9271 73.1834 22.7149C73.3296 25.6657 72.8676 28.6151 71.8261 31.3799C71.5696 32.0775 71.2161 32.7355 70.7759 33.3345C70.5593 33.6481 70.2688 33.9036 69.9299 34.0783C69.7528 34.1708 69.5478 34.1949 69.354 34.1461C69.1602 34.0972 68.9911 33.9788 68.879 33.8133Z" fill="url(#paint0_linear_371:3591)"/>
<path d="M97.9805 41.3253C97.6278 40.3145 97.1837 39.338 96.6535 38.4079C96.4094 37.9791 96.1262 37.5738 95.8076 37.1971C95.7614 37.1292 95.6952 37.0774 95.6181 37.049C95.6619 37.0679 95.709 37.0776 95.7565 37.0776C95.8041 37.0776 95.8512 37.0679 95.8949 37.049C96.0844 36.8884 96.0119 36.9181 96.0259 37.049C96.0333 37.1365 96.0333 37.2244 96.0259 37.3118L94.9898 37.8661C95.5005 38.1873 95.6463 37.8661 95.6174 37.9401V38.0571L95.4131 38.4804L94.9757 39.458C94.8151 39.7933 94.6546 40.1293 94.4651 40.4794C94.3555 40.6751 94.2287 40.8606 94.0862 41.0337C94.0062 41.1508 93.9133 41.2585 93.8094 41.3549L93.6924 41.4718C93.2978 42.0007 92.9326 42.551 92.5986 43.12C92.2337 43.718 91.8696 44.3456 91.5484 44.9436L91.4744 43.6603C91.6568 43.8594 91.7579 44.1196 91.7579 44.3896C91.7579 44.6597 91.6568 44.9199 91.4744 45.119V45.2063C90.0157 46.8109 88.4259 48.2696 86.8066 49.7868C86.0101 50.5377 85.1725 51.2439 84.2977 51.9019L81.5261 53.9742C81.2325 54.1835 80.8718 54.2766 80.5135 54.2356C80.1553 54.1946 79.825 54.0224 79.5863 53.7522C79.4306 53.5643 79.3297 53.3372 79.2947 53.0957V52.9507L79.1777 52.1921L79.6736 53.0965C79.7583 53.177 79.8572 53.2413 79.9652 53.2859H80.1872C80.0429 53.3154 79.8942 53.3154 79.7498 53.2859C78.9479 53.133 78.1387 53.0211 77.3253 52.9507C76.9415 52.9304 76.5568 52.9304 76.173 52.9507H76.2899C76.3896 52.9049 76.4827 52.8459 76.5667 52.7753C76.6861 52.6968 76.7858 52.592 76.8583 52.4689V52.3949V52.4689L76.654 53.0232C76.5142 53.3577 76.2548 53.6281 75.9264 53.7818C75.5981 53.9354 75.2242 53.9613 74.8778 53.8543C74.7053 53.7941 74.5465 53.7 74.4108 53.5775C73.4776 52.7168 72.6605 51.7835 71.7998 50.8791L69.2731 48.1401C67.6686 46.2728 66.0907 44.3767 64.6053 42.4073L64.5313 42.3052C64.4351 42.1713 64.3833 42.0105 64.3833 41.8456C64.3833 41.6807 64.4351 41.5199 64.5313 41.386L64.7793 41.0507L64.6771 41.4297C64.7645 40.1019 64.8992 38.789 65.0124 37.462C65.0269 37.3655 65.0673 37.2747 65.1293 37.1993L66.8056 35.2565L68.1622 33.8711L67.112 35.4608L65.7843 37.7951L65.9012 37.4739C66.0034 38.8016 66.1233 40.1286 66.1928 41.4415C66.1909 41.5571 66.1658 41.6711 66.1188 41.7768L65.8709 42.2438V41.252L71.0782 46.4156L76.3151 51.3743L74.0585 51.9885L74.2917 51.2884L74.4086 51.0553L74.4826 50.8947L74.5699 50.7637C74.5699 50.7637 74.5699 50.6327 74.9052 50.3848C74.9972 50.3101 75.1006 50.2509 75.2116 50.2094H77.4437C78.386 50.2526 79.325 50.3499 80.2561 50.501H79.8039C79.9397 50.4864 80.0766 50.4864 80.2124 50.501L80.6498 50.5883L80.9414 50.6904C81.1578 50.7585 81.3569 50.8729 81.5246 51.0257C81.6569 51.1277 81.7676 51.255 81.8502 51.4003C81.9328 51.5455 81.9856 51.7057 82.0056 51.8716L82.1078 52.6154L79.8616 51.6237C81.5098 50.3256 83.1728 49.1296 84.8358 47.7434C86.4987 46.3572 88.0744 44.9569 89.6789 43.5715L89.562 45.1035V45.0161C89.441 44.8374 89.3763 44.6266 89.3763 44.4107C89.3763 44.1949 89.441 43.9841 89.562 43.8053C89.9853 43.1777 90.3931 42.5946 90.8453 41.9966C91.273 41.3587 91.7615 40.7639 92.304 40.2203C92.3893 40.1302 92.4819 40.0473 92.5808 39.9724L92.6681 39.8984C92.7672 39.8026 92.8597 39.7003 92.9449 39.592C93.1447 39.3202 93.3298 39.0378 93.4993 38.7461L94.0825 37.8128C94.1947 37.6456 94.3165 37.485 94.4473 37.3318C94.5224 37.2154 94.6159 37.1119 94.7241 37.0254C94.8152 36.9349 94.9247 36.8652 95.0453 36.8211C95.1514 36.8002 95.2605 36.8002 95.3665 36.8211C95.5299 36.8394 95.6857 36.8998 95.8187 36.9965L94.7685 37.5508C94.7551 37.3759 94.7551 37.2003 94.7685 37.0254C94.7842 36.8716 94.8326 36.723 94.9106 36.5896C94.9886 36.4561 95.0944 36.341 95.2207 36.252C95.4169 36.1449 95.647 36.1184 95.8624 36.178C95.9811 36.2189 96.0903 36.2833 96.1836 36.3674C96.335 36.478 96.4636 36.6167 96.5625 36.776C96.8634 37.26 97.1035 37.7793 97.2774 38.322C97.6283 39.2922 97.8643 40.3002 97.9805 41.3253Z" fill="#6F5ADC"/>
<path d="M3.61615 43.324C3.00335 42.8429 3.28089 41.9526 3.77675 41.4568C3.99492 41.2429 4.28828 41.123 4.59381 41.123C4.89934 41.123 5.1927 41.2429 5.41087 41.4568C5.47325 41.5174 5.52726 41.5861 5.57147 41.661L5.9504 42.3027C6.01977 42.4186 6.06438 42.5476 6.08139 42.6816V43.0317C6.10254 43.3228 6.02267 43.6124 5.85523 43.8516C5.6878 44.0907 5.44304 44.2648 5.1622 44.3446C4.99652 44.4002 4.81721 44.4002 4.65154 44.3446C4.55722 44.2969 4.469 44.238 4.3888 44.1692C4.31403 44.054 4.20765 43.9628 4.08241 43.9065L3.22168 43.7584C3.23792 43.6552 3.28376 43.559 3.35366 43.4813C3.42355 43.4037 3.51448 43.348 3.61541 43.321L3.61615 43.324ZM3.61615 43.324C3.69768 43.3728 3.79091 43.3985 3.88591 43.3985C3.98092 43.3985 4.07415 43.3728 4.15568 43.324L3.34157 43.1486C3.32955 42.9378 3.36972 42.7273 3.45851 42.5358C3.5103 42.3946 3.57367 42.258 3.64797 42.1273C3.76807 41.9172 3.94509 41.7453 4.15864 41.6314L3.25128 43.2944C3.21474 43.1557 3.21474 43.0098 3.25128 42.8711L5.42493 43.7466C4.87965 43.4234 4.24822 43.2756 3.61615 43.3233V43.324Z" fill="#6F5ADC"/>
<path d="M4.84105 43.8486C5.21729 43.9239 5.57154 44.0836 5.87717 44.3156C6.03371 44.4243 6.16 44.5711 6.24416 44.7422C6.32832 44.9132 6.36757 45.1028 6.35823 45.2932C6.36448 45.5028 6.32155 45.7109 6.23286 45.9008C6.14418 46.0908 6.01222 46.2573 5.84757 46.3871C5.69674 46.5069 5.52366 46.5957 5.33832 46.6483C5.15299 46.7009 4.95908 46.7162 4.76778 46.6935C4.57011 46.6737 4.37746 46.6194 4.19865 46.5329C3.9443 46.4074 3.72029 46.2281 3.54219 46.0074C3.3381 45.7889 3.20608 45.513 3.164 45.217L3.07667 44.1372C3.05912 44.0681 3.06218 43.9955 3.08545 43.9281C3.10873 43.8608 3.15122 43.8017 3.20766 43.7583C3.5234 43.5452 3.89209 43.424 4.27266 43.4082C4.62494 43.4844 4.84105 43.6302 4.84105 43.8486ZM4.84105 43.8486C4.74274 44.0033 4.68227 44.179 4.66453 44.3615C4.64678 44.5439 4.67227 44.728 4.73891 44.8987C4.77696 44.9794 4.83175 45.051 4.89964 45.1088C4.96753 45.1666 5.04696 45.2093 5.13264 45.234V43.8922C5.27926 43.9364 5.42108 43.9951 5.55597 44.0676C5.55597 44.0676 5.62998 44.0676 5.39537 43.9507C5.26307 43.8849 5.11934 43.8452 4.97204 43.8338C4.63758 43.8088 4.30556 43.9073 4.03879 44.1105C3.51332 44.6064 3.61545 44.8691 3.60139 44.9247C3.58733 44.9802 3.80566 44.8077 3.98032 44.6183C4.22947 44.3224 4.51925 44.0632 4.84105 43.8486Z" fill="#6F5ADC"/>
<path d="M4.38946 40.8446C4.38946 40.6403 4.71066 40.5819 5.03112 40.7706C5.38383 40.9851 5.65176 41.3147 5.78971 41.7038C5.80385 41.7309 5.81123 41.761 5.81123 41.7915C5.81123 41.8221 5.80385 41.8522 5.78971 41.8792L5.00226 43.1374C4.9506 43.2375 4.87843 43.3257 4.79044 43.3961C4.70246 43.4665 4.60063 43.5175 4.49159 43.5459L4.15633 43.6333C3.88653 43.7081 3.60063 43.7015 3.33459 43.6142C3.06855 43.527 2.83425 43.363 2.66116 43.1429C2.48808 42.9229 2.38394 42.6565 2.36185 42.3774C2.33976 42.0983 2.4007 41.8189 2.53701 41.5743C2.7747 41.1347 3.15576 40.7896 3.6168 40.5967C3.95207 40.4945 4.28733 40.5678 4.38946 40.8446ZM4.38946 40.8446C4.30414 41.1223 4.27693 41.4146 4.30952 41.7032C4.34212 41.9919 4.43382 42.2707 4.57892 42.5224C4.81205 42.8436 5.03112 42.9013 5.05998 42.9746L3.03213 41.02C3.31992 40.8495 3.64793 40.7588 3.98241 40.7573L3.17867 42.216C3.39592 42.2423 3.61505 42.1849 3.79147 42.0554C3.98135 41.9167 4.13489 41.7342 4.23901 41.5234C4.34313 41.3125 4.39475 41.0797 4.38946 40.8446Z" fill="#6F5ADC"/>
<path d="M94.8303 42.3031C94.7563 42.2158 94.743 42.0811 94.6549 41.9531C94.558 41.8092 94.4507 41.6726 94.3337 41.5445C94.0718 41.2759 93.8419 40.9779 93.6484 40.6564C93.5923 40.5237 93.5744 40.3779 93.5967 40.2356C93.6191 40.0932 93.6807 39.9599 93.7748 39.8507C93.8688 39.7416 93.9915 39.6608 94.1289 39.6176C94.2664 39.5744 94.4132 39.5705 94.5528 39.6062L95.8657 39.9563C96.0791 40.0116 96.2632 40.1466 96.38 40.3336C96.4967 40.5206 96.5373 40.7453 96.4933 40.9613V42.1869C96.1656 42.2474 95.8343 42.2865 95.5016 42.3039C95.3659 42.2871 95.2287 42.2871 95.093 42.3039C95.0782 42.4053 94.9472 42.4489 94.8303 42.3031ZM94.8303 42.3031C94.8303 42.3905 95.0057 42.3031 95.0198 42.201C95.0565 42.0872 95.0565 41.9647 95.0198 41.8509C94.9431 41.5686 94.8353 41.2955 94.6986 41.0368L94.8296 42.3061C94.3337 42.3801 94.1442 42.3061 94.1442 41.956L96.2905 41.2411C95.9941 41.4414 95.6761 41.6077 95.3424 41.737C95.0494 41.8946 94.8303 42.1129 94.8303 42.3031Z" fill="#6F5ADC"/>
<path d="M95.9238 40.4788C95.8509 40.4438 95.7711 40.4256 95.6903 40.4256C95.6095 40.4256 95.5297 40.4438 95.4568 40.4788C95.2537 40.5953 95.063 40.7322 94.8877 40.8873L94.377 39.9252C94.2065 39.7874 94.063 39.6193 93.9537 39.4293C93.9163 39.3598 93.8935 39.2834 93.8865 39.2048C93.8796 39.1262 93.8887 39.0469 93.9132 38.9719C93.9378 38.8969 93.9773 38.8277 94.0294 38.7684C94.0816 38.7091 94.1452 38.661 94.2164 38.6271C94.2994 38.5757 94.3957 38.55 94.4932 38.5531H96.0392C96.1677 38.5485 96.2931 38.5925 96.3905 38.6763C96.4879 38.7601 96.5501 38.8776 96.5647 39.0053C96.6079 39.3493 96.6079 39.6974 96.5647 40.0414L96.6816 40.4788C96.5565 40.5239 96.4346 40.5776 96.3168 40.6394L96.1688 40.7267H96.0947C96.064 40.6288 96.0044 40.5424 95.9238 40.4788ZM95.9238 40.4788C96.0229 40.5439 96.1407 40.5746 96.259 40.5661H96.0259C95.9714 40.4601 95.9027 40.362 95.8217 40.2745L95.9386 40.6978C95.5737 40.8148 95.1948 40.9894 94.9469 41.0627C94.6989 41.136 94.5531 41.0627 94.5095 40.8148L96.5958 39.9837C96.4173 40.1098 96.2206 40.2081 96.0126 40.2752L95.4871 39.3871C95.511 39.6374 95.57 39.8831 95.6625 40.1169C95.6784 40.1927 95.71 40.2643 95.7552 40.3271C95.8005 40.39 95.8584 40.4426 95.9253 40.4817L95.9238 40.4788Z" fill="#6F5ADC"/>
<path d="M96.128 39.3859C96.2302 39.5339 96.128 39.7211 95.906 39.8669C95.63 40.0194 95.3164 40.0902 95.0016 40.0712L94.3304 38.8456C94.219 38.7234 94.1394 38.5755 94.0988 38.4152C94.0581 38.2549 94.0576 38.087 94.0972 37.9264L94.2142 37.5475C94.3217 37.2754 94.5086 37.042 94.7505 36.8775C94.9924 36.713 95.2782 36.625 95.5708 36.625C95.8633 36.625 96.1491 36.713 96.391 36.8775C96.6329 37.042 96.8198 37.2754 96.9273 37.5475C97.0891 37.9903 97.0891 38.4761 96.9273 38.9189C96.6972 39.3859 96.4344 39.5753 96.128 39.3859ZM96.128 39.3859C95.8089 38.916 95.3414 38.5668 94.8003 38.3942C94.582 38.3726 94.3621 38.3726 94.1439 38.3942L97.0613 38.0441C97.0587 38.5051 96.8815 38.9481 96.5654 39.2838L95.8801 38.073C95.7588 38.2205 95.6963 38.4076 95.7047 38.5984C95.7387 38.9058 95.8904 39.188 96.128 39.3859Z" fill="#6F5ADC"/>
<path d="M7.56967 49.4954C7.56967 49.4954 2.31502 46.387 1.83692 45.5426C1.35882 44.6981 3.01588 40.2213 3.87957 39.5619C4.74326 38.9025 4.62336 40.8015 3.60277 42.4793C3.20905 43.1358 4.68257 45.5722 4.97417 45.1777C5.26576 44.7832 4.06977 41.4032 4.39097 40.3671C4.71217 39.331 5.84969 42.7739 6.71042 43.4599C7.71078 44.6153 8.59524 45.8662 9.35107 47.1944L7.56967 49.4954Z" fill="#1A2023"/>
<path d="M92.2766 46.5619C92.2766 46.5619 84.0202 66.3128 77.3246 66.1936C75.8782 66.1455 74.4577 65.7977 73.1527 65.1723C70.0791 63.558 67.4225 61.252 65.3921 58.436C65.3921 58.436 65.8591 62.3747 66.5155 65.9042C66.6761 66.7502 66.8508 67.582 67.0262 68.3258C67.8573 71.6518 71.5777 75.4307 71.5777 75.4307C71.5777 75.4307 61.2794 85.963 56.7019 86.5025H56.4103C51.9468 86.6194 36.6883 78.6397 36.6883 78.6397C36.6883 78.6397 38.3513 72.6739 38.8761 69.3619C38.9501 68.8809 39.0241 68.3554 39.0655 67.9032C39.2609 65.8232 39.3437 63.734 39.3134 61.645V59.5328C39.0367 59.8103 31.8304 68.5619 25.8349 68.5619C19.8394 68.5619 7.94836 50.0922 7.5835 49.5083L9.34861 47.1888C10.2967 47.8601 20.3331 54.8184 23.1328 55.3431C23.2952 55.3871 23.4663 55.3871 23.6287 55.3431C25.6269 54.6578 31.9 49.5083 35.8676 46.0801L35.9549 45.9928L37.253 44.8827L38.0264 44.2114L39.2372 43.1464L55.2831 41.9208L64.6631 41.2207C64.6631 41.2207 70.9938 48.5143 74.9762 52.1171C75.7359 52.9349 76.6539 53.5896 77.6746 54.0413C79.9645 54.4935 90.5522 44.1655 90.5522 44.1655L92.2766 46.5619Z" fill="url(#paint1_linear_371:3591)"/>
<path opacity="0.35" d="M91.8623 46.3679C89.6267 51.7002 86.7827 56.7565 83.3867 61.4362C82.8613 62.1074 82.2929 62.7343 81.7526 63.3034C80.536 64.7619 78.7985 65.6883 76.9095 65.8856C70.259 65.7694 64.9784 58.1257 64.9784 58.1257C64.9784 58.1257 65.6786 64.1649 66.6126 68.0156C67.4437 71.3415 71.1641 75.1204 71.1641 75.1204C71.1641 75.1204 60.865 85.6512 56.2868 86.1915L47.5345 82.1802C47.5345 82.1802 47.8238 63.6542 45.1854 57.1044C43.1266 52.5398 40.3645 48.3263 37 44.6176L55.0153 41.7001L64.3952 41C64.3952 41 75.1014 53.3551 77.4068 53.8221C78.4924 53.6794 79.5094 53.2117 80.3242 52.4803C83.8106 49.8528 87.1232 47.0024 90.2415 43.947L91.8623 46.3679Z" fill="white"/>
<path opacity="0.35" d="M73.1965 65.1758C70.6648 63.8966 68.425 62.1076 66.6179 59.9211C65.8593 59.0456 65.4337 58.4624 65.4337 58.4624C65.4434 59.1698 65.3132 59.8721 65.0505 60.529C64.7878 61.1859 64.3978 61.7844 63.903 62.2901C63.4082 62.7957 62.8184 63.1986 62.1673 63.4755C61.5163 63.7524 60.817 63.8979 60.1095 63.9036C49.9895 64.4024 36.0439 46.0666 36.0439 46.0666L37.3421 44.9565L39.3988 43.1913L55.4447 41.9658L63.38 41.3678L64.8387 41.2656C64.8387 41.2656 66.8229 43.5555 69.2149 46.1813C71.1391 48.2817 73.3431 50.5575 75.0497 52.162C75.1667 53.3876 75.2829 54.7878 75.3413 56.1585C75.1768 59.2691 74.4502 62.3242 73.1965 65.1758Z" fill="url(#paint2_linear_371:3591)"/>
<path opacity="0.35" d="M39.2668 59.472C39.0337 59.8073 31.8274 68.5596 25.8319 68.5596C19.8365 68.5596 7.94836 50.0921 7.5835 49.5089L9.34861 47.1895C10.2967 47.8607 20.3331 54.8183 23.1336 55.3438C23.7497 56.7249 24.7183 57.9196 25.9422 58.808C27.166 59.6964 28.602 60.2472 30.106 60.4053C33.191 60.6607 36.2967 60.3443 39.2668 59.472Z" fill="white"/>
<path d="M7.56978 49.4951C7.56978 49.4951 1.5595 46.417 1.47217 45.6296C1.58681 44.4925 2.1417 43.4454 3.01822 42.7121C3.74721 42.2451 5.00241 41.5887 5.2792 41.881C5.55599 42.1734 3.92261 42.9601 3.54442 43.339C3.33593 43.6379 3.16446 43.961 3.03376 44.3011C3.27992 43.9247 3.57903 43.5857 3.92187 43.2946C4.56353 42.9593 5.46792 42.6381 5.62852 42.8276C5.78912 43.0171 4.50654 43.9955 4.17054 44.4913C3.83454 44.9872 6.94219 47.0298 7.40918 47.7736C7.55481 48.0334 7.64434 48.3208 7.672 48.6173C7.69967 48.9138 7.66484 49.2129 7.56978 49.4951Z" fill="#1A2023"/>
<path d="M92.2777 46.6781C92.2777 46.6781 97.5323 43.5697 98.0104 42.7252C98.4885 41.8808 96.8433 37.401 95.9685 36.7446C95.0937 36.0881 95.2247 37.9842 96.2601 39.662C96.6539 40.3185 95.1803 42.7548 94.8887 42.3604C94.5971 41.9659 95.7931 38.5385 95.5015 37.5032C95.2099 36.4678 94.0428 39.9099 93.1673 40.596C92.1425 41.7434 91.2337 42.9894 90.4541 44.3157L92.2777 46.6781Z" fill="#1A2023"/>
<path d="M92.2775 46.6787C92.2775 46.6787 98.2878 43.6006 98.3751 42.8132C98.2605 41.6761 97.7056 40.629 96.8291 39.8957C96.0993 39.4287 94.8597 38.7723 94.5829 39.0646C94.3061 39.357 95.9247 40.1444 96.3184 40.5233C96.518 40.8252 96.6843 41.1478 96.8143 41.4855C96.5681 41.109 96.269 40.77 95.9262 40.4789C95.2845 40.1437 94.4674 39.8225 94.2195 40.0119C93.9716 40.2014 95.357 41.1791 95.6782 41.6749C95.9994 42.1708 92.9214 44.2134 92.4396 44.9572C92.2978 45.2184 92.2104 45.5055 92.1825 45.8014C92.1547 46.0972 92.187 46.3956 92.2775 46.6787Z" fill="#1A2023"/>
<path d="M43.8624 57.2393C43.2732 61.1498 41.6119 64.8206 39.0629 67.8441V67.1728L38.9755 63.8905C39.4263 60.4725 39.4263 57.0102 38.9755 53.5922C38.624 52.0305 38.1359 50.5027 37.5168 49.0265C37.1322 48.0065 36.6433 47.0288 36.0581 46.1091L36.1454 46.0218L37.4436 44.9116L38.1437 44.2988H38.3043L40.1545 44.6926L44.618 45.6547C44.7019 46.2396 44.7513 46.829 44.766 47.4198C44.8107 50.7156 44.5078 54.007 43.8624 57.2393Z" fill="#1A2023"/>
<path d="M66.9251 52.5136C66.546 54.7621 66.4285 57.0469 66.575 59.3224V59.9352C66.6624 61.613 66.8082 62.8527 66.8082 62.8527L66.7208 66.8351C66.7208 66.8351 66.3685 66.4443 65.9186 65.8611C63.8629 63.0085 62.4994 59.7166 61.9361 56.2459C61.1216 52.4133 60.8943 48.4792 61.2619 44.5783L63.2602 41.3959H63.4082L64.7063 41.3086C64.7063 41.3086 66.6905 43.5984 69.0825 46.2243C68.0823 48.2129 67.3561 50.3278 66.9236 52.5114L66.9251 52.5136Z" fill="#1A2023"/>
<path d="M43.862 57.24C43.273 61.1505 41.6119 64.8212 39.0632 67.8448V67.1736C40.9117 64.7426 42.2005 61.9334 42.8377 58.9467C44.0773 53.6661 43.6111 51.434 43.6111 51.434C41.4867 50.8594 39.4321 50.0523 37.4846 49.0272C37.0999 48.0072 36.6111 47.0296 36.0259 46.1098L36.1132 46.0225L37.4113 44.9123L38.1115 44.2995H38.2721L39.0455 44.0664L40.1252 44.694L44.7345 47.422C44.7883 50.7161 44.4949 54.0067 43.859 57.2393L43.862 57.24Z" fill="#27061B"/>
<path d="M66.9242 52.5133C66.5451 54.7618 66.4276 57.0466 66.5741 59.3222L64.6632 61.7001C63.1305 58.3457 62.2399 54.734 62.0373 51.0516C61.9241 47.7714 62.4184 44.4984 63.4953 41.3979L64.7934 41.3105C64.7934 41.3105 66.7776 43.6004 69.1696 46.2262C68.1395 48.2104 67.3841 50.3255 66.9242 52.5133Z" fill="#1A2023"/>
<path d="M68.1945 28.2994C67.6881 30.5841 66.7632 32.7553 65.4665 34.7034C64.6408 35.9677 63.6608 37.1243 62.5491 38.1463C59.5221 40.9807 55.6667 42.7706 51.5481 43.2536C47.4295 43.7366 43.2645 42.8872 39.6639 40.83C36.0634 38.7728 33.2167 35.616 31.5414 31.8226C29.8661 28.0293 29.4503 23.799 30.3551 19.752C30.5421 18.9465 30.7758 18.1525 31.0552 17.3741C32.7589 12.7601 36.1515 8.96537 40.5467 6.75763C44.9418 4.54988 50.0115 4.09392 54.7301 5.48198C59.4487 6.87004 63.4639 9.99851 65.9636 14.2345C68.4632 18.4705 69.2606 23.4978 68.1945 28.2994Z" fill="#54585B"/>
<path d="M69.7109 28.3718C69.2003 30.6547 68.2768 32.825 66.9859 34.7758C66.1513 36.0378 65.1722 37.198 64.0684 38.2328C61.0408 41.0695 57.1834 42.8609 53.0627 43.3441C48.942 43.8272 44.7749 42.9766 41.1732 40.917C37.5715 38.8575 34.7249 35.6976 33.0513 31.9012C31.3777 28.1048 30.9652 23.8718 31.8744 19.8237C32.0497 19.0358 32.2786 18.2609 32.5597 17.5043C34.2668 12.8952 37.6597 9.10592 42.0528 6.90186C46.4459 4.6978 51.5119 4.24331 56.2271 5.63021C60.9424 7.0171 64.9556 10.142 67.4558 14.3736C69.956 18.6051 70.757 23.628 69.6968 28.4273L69.7109 28.3718Z" fill="url(#paint3_linear_371:3591)"/>
<path d="M71.666 26.7661C71.1156 28.5912 70.3415 30.3412 69.3614 31.9763C66.0872 37.5359 60.7561 41.583 54.5211 43.2424C48.2861 44.9018 41.6485 44.0399 36.0439 40.8434C37.7337 36.3089 41.0442 32.5618 45.3358 30.3259C49.2575 27.9869 53.6119 26.4657 58.137 25.854C62.662 25.2422 67.2641 25.5524 71.666 26.7661Z" fill="url(#paint4_linear_371:3591)"/>
<path d="M52.0453 18.6432C52.2059 20.1019 48.413 21.7516 43.5846 22.2608C38.7563 22.77 34.7035 21.9981 34.5407 20.5253C34.3779 19.0525 38.1731 17.4169 43.0014 16.8929C47.8298 16.3689 51.8847 17.1549 52.0453 18.6432Z" fill="white"/>
<path d="M35.8831 23.8798C35.8894 24.4058 35.6995 24.9152 35.3505 25.3087C35.0014 25.7023 34.5182 25.9516 33.9952 26.0081C33.4723 26.0646 32.947 25.9242 32.5219 25.6142C32.0969 25.3043 31.8026 24.8472 31.6964 24.332C31.6901 23.806 31.88 23.2965 32.2291 22.903C32.5782 22.5095 33.0614 22.2601 33.5843 22.2036C34.1073 22.1472 34.6326 22.2876 35.0576 22.5975C35.4827 22.9074 35.777 23.3646 35.8831 23.8798Z" fill="white"/>
<path opacity="0.35" d="M30.8794 17.8685C30.8794 17.8685 49.5216 15.5491 55.9404 24.0683C57.7952 26.551 58.9403 29.4913 59.2532 32.5746C59.5661 35.6578 59.0349 38.7682 57.7166 41.5729L63.0408 38.5097L67.884 27.321L64.9695 14.1925L43.7748 10.5312L30.8794 17.8685Z" fill="white"/>
<path d="M60.6668 30.2542C60.6164 30.5772 60.4712 30.8781 60.2498 31.1187C60.0284 31.3593 59.7406 31.5289 59.4228 31.6059C59.105 31.6829 58.7715 31.664 58.4645 31.5515C58.1574 31.439 57.8907 31.238 57.6979 30.9739C57.5051 30.7098 57.3949 30.3945 57.3813 30.0678C57.3677 29.7411 57.4513 29.4177 57.6215 29.1385C57.7917 28.8593 58.0409 28.6368 58.3375 28.4992C58.6342 28.3616 58.9649 28.3151 59.288 28.3655C59.5026 28.3989 59.7084 28.4743 59.8939 28.5873C60.0793 28.7004 60.2406 28.8488 60.3686 29.0242C60.4967 29.1996 60.5889 29.3985 60.6401 29.6095C60.6912 29.8206 60.7003 30.0396 60.6668 30.2542Z" fill="url(#paint5_radial_371:3591)"/>
<path d="M61.279 23.4734C61.1876 24.0168 60.933 24.5196 60.5489 24.9147C60.1649 25.3099 59.6696 25.5787 59.129 25.6855C58.5883 25.7923 58.028 25.7319 57.5226 25.5124C57.0171 25.2929 56.5905 24.9246 56.2994 24.4567C56.0084 23.9888 55.8667 23.4433 55.8933 22.8929C55.9199 22.3425 56.1134 21.8132 56.4482 21.3755C56.7829 20.9378 57.243 20.6124 57.7673 20.4426C58.2915 20.2728 58.855 20.2666 59.3829 20.4249C60.016 20.6149 60.5581 21.0294 60.9072 21.5907C61.2563 22.152 61.3885 22.8215 61.279 23.4734Z" fill="url(#paint6_radial_371:3591)"/>
<path d="M38.9029 32.8354C38.8541 33.1552 38.7089 33.4525 38.4867 33.6876C38.2644 33.9227 37.9758 34.0844 37.6592 34.1511C37.3426 34.2178 37.0133 34.1864 36.7151 34.0609C36.4169 33.9355 36.164 33.7221 35.9903 33.4492C35.8166 33.1762 35.7303 32.8568 35.7429 32.5336C35.7555 32.2103 35.8665 31.8986 36.0609 31.64C36.2554 31.3815 36.5241 31.1884 36.8312 31.0866C37.1383 30.9848 37.4691 30.9791 37.7795 31.0703C38.1486 31.1788 38.4659 31.4174 38.6725 31.742C38.8791 32.0666 38.961 32.4551 38.9029 32.8354Z" fill="url(#paint7_radial_371:3591)"/>
<path d="M49.435 34.6587C49.3858 34.9674 49.2462 35.2546 49.0338 35.4839C48.8214 35.7132 48.5458 35.8744 48.2418 35.947C47.9378 36.0196 47.619 36.0005 47.3259 35.892C47.0328 35.7834 46.7784 35.5904 46.595 35.3373C46.4116 35.0842 46.3074 34.7824 46.2956 34.4701C46.2837 34.1577 46.3648 33.8489 46.5285 33.5826C46.6922 33.3164 46.9312 33.1046 47.2152 32.9742C47.4993 32.8438 47.8156 32.8005 48.1243 32.8499C48.5379 32.9161 48.9082 33.1438 49.154 33.483C49.3998 33.8222 49.5008 34.2451 49.435 34.6587Z" fill="url(#paint8_radial_371:3591)"/>
<path d="M30.8793 17.8667L29.5664 17.1814C29.5664 17.1814 33.4445 13.6097 45.9335 12.8067C58.0555 12.02 64.8984 15.2024 64.8984 15.2024C66.745 19.3748 67.6989 23.8872 67.6989 28.45C67.6989 36.1373 63.5544 39.5803 63.5544 39.5803L60.4911 39.9451C63.3892 37.4577 65.1961 33.9329 65.5238 30.1278C66.0542 25.52 65.3178 20.8548 63.3938 16.6345C63.3938 16.6345 46.6921 10.6923 30.8793 17.8667Z" fill="#FFFFEA"/>
<path d="M69.5787 28.9552C68.8834 32.0598 67.4861 34.9639 65.4942 37.4447L65.0708 37.9258L64.6475 38.4069V38.4809C64.3122 38.8457 63.9474 39.2106 63.5825 39.5459C64.473 38.3068 65.1349 36.9185 65.5371 35.4465C66.197 33.245 66.5945 30.9732 66.7212 28.6784C67.115 20.7868 64.1975 16.4668 64.1975 16.4668C64.1975 16.4668 63.1762 16.102 61.4695 15.6061C55.5911 13.8907 49.469 13.1612 43.3521 13.4473C33.403 14.251 29.7855 17.0086 29.5664 17.1833C30.4627 14.6967 31.8184 12.4008 33.5629 10.4151C36.0098 7.68683 39.1276 5.64576 42.6068 4.49438L43.0154 4.37745C46.5117 3.27849 50.2379 3.13235 53.8096 3.95411L54.6119 4.14358C58.0051 5.04616 61.1125 6.79829 63.641 9.23467C66.2525 11.727 68.1725 14.8544 69.2133 18.311C70.2541 21.7677 70.38 25.4353 69.5787 28.9552Z" fill="url(#paint9_radial_371:3591)"/>
<path d="M65.0723 37.9262C64.5824 40.245 63.3479 42.34 61.5569 43.8921C60.9274 44.3778 60.2226 44.7573 59.4706 45.0156C53.8836 46.8828 40.6241 44.3739 40.6241 44.3739L34.3223 38.4532L35.2555 37.4755C35.2555 37.4755 39.4859 41.6037 47.9466 41.3121C51.0963 41.2349 54.2174 40.6943 57.2096 39.7076C59.6131 39.0078 61.8139 37.7421 63.6277 36.0168L65.4949 35.4336C65.4265 36.2751 65.2851 37.1091 65.0723 37.9262Z" fill="#FFFFEA"/>
<path d="M65.4949 35.4336V41.4143C64.4223 43.189 63.038 44.7555 61.4088 46.0384C58.8326 48.1185 55.7449 49.4683 52.4685 49.9468C42.8703 51.4055 38.1144 45.9644 38.1144 45.9644L34.3511 38.468C34.599 38.7011 40.2881 44.3029 51.8557 42.7709C54.7061 42.4425 57.4845 41.6541 60.0826 40.4366C64.3714 38.3644 65.2321 36.0605 65.5526 35.4625L65.4949 35.4336Z" fill="url(#paint10_radial_371:3591)"/>
<path opacity="0.35" d="M69.5796 28.9547C68.8792 32.0593 67.4771 34.9624 65.481 37.4413V41.4089C64.4088 43.1835 63.0251 44.75 61.3964 46.033C60.7688 43.4656 60.1383 40.4609 60.025 40.4313C59.0674 40.3243 58.1294 40.0837 57.2386 39.7163C59.6393 39.0177 61.8393 37.7576 63.6567 36.0403L65.5069 35.4423C66.179 33.2432 66.5807 30.9704 66.7029 28.6742C67.2135 20.7826 64.2813 16.4627 64.2813 16.4627C64.2813 16.4627 63.26 16.0978 61.5533 15.6167C59.1055 12.0298 55.749 9.15732 51.827 7.29292C49.0254 6.00252 46.0903 5.02415 43.0747 4.37547C46.5736 3.28841 50.2979 3.14745 53.8689 3.96694L54.6564 4.15641C58.0098 5.16382 61.0986 6.90119 63.7011 9.2438C66.3029 11.7396 68.2125 14.868 69.2429 18.323C70.2733 21.7781 70.3893 25.4414 69.5796 28.9547Z" fill="white"/>
<path d="M70.484 19.6789V19.7663L68.1646 25.9949C68.171 25.9074 68.171 25.8196 68.1646 25.7321C68.0648 24.908 67.899 24.0933 67.6687 23.2958C67.5207 22.7703 67.3623 22.1582 67.1432 21.5195C65.9232 17.4269 63.6965 13.7055 60.6667 10.6957C60.3279 10.3472 59.9672 10.0207 59.5869 9.71804C57.8188 8.26317 55.8081 7.13151 53.6469 6.37505C50.6029 5.22688 47.318 4.86691 44.0976 5.32858C40.8771 5.79025 37.8257 7.05858 35.2268 9.01569C34.7088 9.42205 34.2212 9.86581 33.7681 10.3434C35.7948 7.14956 38.7211 4.62674 42.1787 3.0926C45.6363 1.55847 49.4704 1.08162 53.1984 1.72209C56.4007 2.23304 59.4526 3.43792 62.1402 5.25233L62.3156 5.36926C64.5896 7.04981 66.4897 9.18425 67.8958 11.6374C69.3019 14.0906 70.1832 16.809 70.484 19.6205V19.6789Z" fill="url(#paint11_linear_371:3591)"/>
<path d="M67.6689 28.4343C67.5763 28.9317 67.4396 29.4198 67.2603 29.893C67.6471 27.8492 67.716 25.758 67.4646 23.6932C67.3917 22.9528 67.2748 22.2173 67.1145 21.4907C66.1519 17.2898 63.8849 13.501 60.638 10.6669C60.2805 10.3359 59.9055 10.0244 59.5145 9.73363C55.7641 6.86026 51.1415 5.36044 46.4186 5.48463C41.6956 5.60882 37.1582 7.3495 33.564 10.416C34.0014 9.92014 34.4684 9.45388 34.9494 8.95728C37.1492 6.92263 39.7612 5.38542 42.6079 4.45012C45.6327 3.76402 48.7728 3.76402 51.7976 4.45012C55.1712 5.20246 58.317 6.74747 60.9747 8.95728C64.9272 12.1787 67.4657 16.816 68.0493 21.8815C68.1809 23.1666 68.1809 24.4619 68.0493 25.747C68.0575 25.8002 68.0575 25.8544 68.0493 25.9076C68.0369 26.216 68.0028 26.5232 67.9471 26.8268C67.8879 27.3375 67.7858 27.877 67.6689 28.4343Z" fill="#451533"/>
<path d="M68.8789 33.8136C68.7497 33.8842 68.6023 33.9146 68.4556 33.9009C67.23 33.7529 66.5884 30.3707 66.9969 26.3305C67.0896 25.4625 67.2309 24.6005 67.4202 23.7483L67.5512 23.2673C67.6657 22.7705 67.8169 22.283 68.0034 21.8086C68.5585 20.3498 69.2727 19.4713 69.9565 19.5454C70.0849 19.5472 70.2086 19.5935 70.3066 19.6763C70.3202 19.6699 70.3351 19.6665 70.3502 19.6665C70.3653 19.6665 70.3803 19.6699 70.3939 19.6763C71.342 20.4201 71.8526 23.2066 71.4441 26.7368C71.0356 30.2671 70.0305 33.3029 68.8789 33.8136Z" fill="#451533"/>
<path d="M69.4041 34.1047C69.1978 34.0793 69.0094 33.9747 68.8787 33.8131C68.0327 32.925 67.6205 30.0934 67.9595 26.7963V25.8779V25.7469C68.3828 22.8294 69.2872 20.4515 70.2204 19.7225L70.3514 19.6352C70.5082 19.5237 70.6993 19.4712 70.891 19.4872C72.1166 19.6182 72.7412 23.0026 72.3497 27.0435C71.9582 31.0844 70.6297 34.2365 69.4041 34.1047Z" fill="#451533"/>
<path opacity="0.65" d="M69.404 34.1045C69.1977 34.079 69.0093 33.9745 68.8785 33.8129C68.7493 33.8835 68.6019 33.9139 68.4552 33.9002C67.2296 33.7522 66.588 30.37 66.9965 26.3298C67.0892 25.4618 67.2305 24.5998 67.4198 23.7476C67.3637 22.9884 67.2614 22.2334 67.1134 21.4866C65.8934 17.394 63.6666 13.6726 60.6369 10.6628C60.2796 10.3319 59.9048 10.0203 59.5142 9.72955L61.0461 9.02942L62.14 5.29492L62.3154 5.41186C64.5893 7.0924 66.4895 9.22684 67.8956 11.68C69.3017 14.1331 70.183 16.8516 70.4838 19.6631C70.6405 19.5515 70.8316 19.4991 71.0233 19.515C72.2489 19.646 72.8736 23.0305 72.482 27.0714C72.0905 31.1123 70.6296 34.2362 69.404 34.1045Z" fill="url(#paint12_linear_371:3591)"/>
<path d="M36.4814 75.3292L37.707 73.1992C41.6014 75.1574 45.3763 77.3445 49.0119 79.749C51.8128 81.4602 54.386 83.5187 56.6704 85.8755L36.4814 75.3292Z" fill="#1A2023"/>
<path d="M71.5927 74.7164L58.7417 84.3294L56.7139 85.7881C58.2801 83.0203 60.2463 80.4988 62.5488 78.3051C64.83 76.1084 67.2676 74.0802 69.8424 72.2363L70.0755 72.5427L71.5927 74.7164Z" fill="#451533"/>
<path d="M71.5922 74.7167L58.7412 84.3298C59.7623 82.4626 61.0225 80.7365 62.4898 79.195C64.794 76.7901 67.2975 74.5844 69.9736 72.6016L71.5922 74.7167Z" fill="#1A2023"/>
<path d="M69.3488 72.0447C69.3488 72.0447 60.3937 71.1988 52.5006 71.2424C47.6479 71.2781 42.803 71.6388 37.9985 72.3222L38.0725 71.8989L38.5395 68.5581C43.372 67.868 48.2454 67.5026 53.1267 67.4643H54.8623C59.2574 67.4243 63.6484 67.7461 67.9908 68.4264L69.3488 72.0447Z" fill="#27061B"/>
<path d="M58.4929 70.7343C58.4929 70.7343 55.5754 70.6033 48.8946 70.8364C45.2667 70.9453 41.6504 71.3012 38.0708 71.9014L38.5378 68.5607C43.3703 67.8705 48.2436 67.5051 53.125 67.4668H54.8605L58.4929 70.7343Z" fill="#1A2023"/>
<path d="M31.4341 67.3045C31.2321 67.4867 31.0122 67.6479 30.7776 67.7856C29.2253 68.7667 27.4205 69.2736 25.5844 69.2443C22.9881 69.0223 21.5294 68.1645 21.3252 67.7856C21.1209 67.4067 21.3252 54.3944 21.3252 54.3944C21.4771 54.2086 21.6726 54.0632 21.8943 53.9711C23.2478 53.5403 24.6488 53.2758 26.0662 53.1836C26.4895 53.3449 31.9595 66.7798 31.4341 67.3045Z" fill="#4D5258"/>
<path opacity="0.65" d="M30.7776 67.7865C29.2253 68.7676 27.4205 69.2745 25.5844 69.2452C22.9881 69.0232 21.5294 68.1654 21.3252 67.7865C21.1209 67.4075 21.3252 54.3952 21.3252 54.3952C21.4772 54.2097 21.6727 54.0646 21.8943 53.9727C21.8943 53.9727 25.2491 56.8901 26.9706 58.6552C28.692 60.4203 30.4135 66.5905 30.7776 67.7865Z" fill="#1A2023"/>
<path d="M72.1611 66.1683C72.3871 66.3289 72.6319 66.4612 72.8901 66.5621C74.5496 67.3221 76.3951 67.5806 78.1995 67.3059C80.7521 66.7804 82.0947 65.745 82.2545 65.278C82.4144 64.811 80.6063 51.9889 80.6063 51.9889C80.409 51.8916 80.1969 51.8276 79.9787 51.7995C78.5789 51.5454 77.1545 51.4525 75.7336 51.5227C75.3561 51.6981 71.5779 65.6429 72.1611 66.1683Z" fill="#4D5258"/>
<path opacity="0.65" d="M72.9492 66.5614C74.6087 67.3215 76.4542 67.58 78.2586 67.3052C80.8112 66.7798 82.1537 65.7444 82.3136 65.2774C82.4735 64.8104 80.6654 51.9883 80.6654 51.9883C80.4681 51.891 80.256 51.827 80.0378 51.7988C80.0378 51.7988 77.1204 55.0552 75.5595 57.0794C73.9987 59.1035 73.0802 65.321 72.9492 66.5614Z" fill="#1A2023"/>
<path opacity="0.35" d="M83.8035 61.6886C83.2781 62.3598 82.7097 62.9867 82.1694 63.5558L80.71 52.7031L83.8035 61.6886Z" fill="white"/>
<path d="M65.495 91.4027L63.6278 93.0509C63.6278 93.0509 61.3816 92.8178 58.0408 92.336C56.0714 92.0592 53.6646 91.6943 51.2579 91.2421C46.0986 90.3864 41.0226 89.0882 36.086 87.3618C32.1043 85.6824 28.6375 82.9801 26.037 79.5287C24.5783 77.4135 23.8908 75.4005 24.8529 74.1023C26.7349 71.5202 36.6248 74.8609 44.0494 78.5806C47.4819 80.3132 52.5271 83.3476 56.9033 86.0637L62.6072 89.6228L64.0659 90.5561L65.2182 91.2998L65.495 91.4027Z" fill="url(#paint13_linear_371:3591)"/>
<path d="M75.8668 98.3318C75.254 98.9297 71.6365 98.7255 69.317 97.7626C68.7136 97.4954 68.1413 97.1628 67.6104 96.7709C65.7868 95.4728 63.9195 93.6203 62.4468 93.3576L55.9406 92.0743L54.7446 91.8989L57.7642 86.6035C57.7642 86.6035 60.7838 88.5278 63.0884 89.8422C63.7737 90.2507 64.4161 90.5859 64.8646 90.8043C65.0633 90.9079 65.2741 90.9862 65.4922 91.0374C67.935 91.4639 70.2874 92.3025 72.4491 93.5175C74.9477 95.0058 76.4944 97.7338 75.8668 98.3318Z" fill="#1A2023"/>
<path opacity="0.35" d="M57.4717 86.3991L51.4622 91.0528L51.2143 91.2423C46.055 90.3865 40.979 89.0883 36.0424 87.362C32.0604 85.6827 28.5933 82.9803 25.9927 79.5288C31.2931 79.4466 36.5925 79.7488 41.8491 80.4332C47.145 81.4614 52.2326 83.3643 56.9033 86.0638L57.4717 86.3991Z" fill="url(#paint14_radial_371:3591)"/>
<path d="M67.639 96.7704C65.8154 95.4723 63.9482 93.6198 62.4754 93.3571L55.9692 92.073L63.0874 89.7832C63.7728 90.1917 64.4152 90.527 64.8637 90.7453L67.639 96.7704Z" fill="#1A2023"/>
<path d="M74.4079 86.415C71.0941 87.915 67.6817 89.187 64.1946 90.222L60.7665 91.2581L58.1125 92.0167C54.6556 93.0084 52.1023 93.6797 52.1023 93.6797L50.645 91.5208L51.2726 90.9377L51.4621 90.7482C52.5419 89.7417 54.5549 87.8307 56.9032 85.7592C60.4401 82.5135 64.1405 79.4504 67.9898 76.5821C72.2316 73.6244 77.0706 71.6332 82.1655 70.7487C84.1934 70.5267 85.8268 70.7487 86.6586 71.7404C88.9951 74.2493 82.2262 82.491 74.4079 86.415Z" fill="url(#paint15_linear_371:3591)"/>
<path opacity="0.35" d="M74.4082 86.4137C71.0945 87.9137 67.6821 89.1857 64.195 90.2207L60.7669 91.2568L60.0815 90.4427C60.0815 90.4427 61.1029 90.0342 62.6489 89.3629C66.3834 87.7288 73.0931 84.6079 75.34 82.2447C78.3596 79.0942 81.8314 71.6548 82.2103 70.8229C84.2381 70.6009 85.8715 70.8229 86.7034 71.8146C88.9955 74.2473 82.2273 82.4897 74.4082 86.4137Z" fill="url(#paint16_radial_371:3591)"/>
<path d="M61.1187 91.1268C61.1187 91.1268 54.1619 93.3293 52.06 93.8985C49.9581 94.4676 49.5948 96.8159 45.5835 99.3685C41.5722 101.921 38.2899 102.169 38.0708 101.877C37.5601 100.973 37.9539 98.2598 40.8128 95.7213C43.6718 93.1828 45.8743 92.7306 47.8733 91.6952C49.8723 90.6598 54.785 87.5233 55.4444 87.0859L56.5094 87.8734L61.1187 91.1268Z" fill="#1A2023"/>
<path d="M55.0073 87.348L59.7484 91.5665L61.1338 91.1291L55.4743 87.0586L55.0073 87.348Z" fill="#451533"/>
<path d="M56.5526 87.8305C52.782 90.2596 48.8867 92.4896 44.8828 94.5113C40.5799 96.4511 38.1435 101.805 38.1435 101.805C37.6329 100.9 38.0266 98.1873 40.8856 95.6488C43.7446 93.1103 45.9471 92.6581 47.9461 91.6227C49.945 90.5873 54.7875 87.5233 55.4439 87.0859L56.5674 87.8297L56.5526 87.8305Z" fill="white"/>
<path opacity="0.28" d="M94.4505 104.875C94.4505 106.334 75.4872 107.515 52.1476 107.515C28.8081 107.515 9.84473 106.334 9.84473 104.875C9.84473 103.416 28.8081 102.234 52.1484 102.234C75.4887 102.234 94.4505 103.416 94.4505 104.875Z" fill="white"/>
<defs>
<linearGradient id="paint0_linear_371:3591" x1="50.7765" y1="0" x2="50.7765" y2="44.9872" gradientUnits="userSpaceOnUse">
<stop offset="0.03" stop-color="#6F5ADC"/>
<stop offset="1" stop-color="#AE9AFF"/>
</linearGradient>
<linearGradient id="paint1_linear_371:3591" x1="49.9301" y1="41.2207" x2="49.9301" y2="86.5037" gradientUnits="userSpaceOnUse">
<stop offset="0.03" stop-color="#6F5ADC"/>
<stop offset="1" stop-color="#AE9AFF"/>
</linearGradient>
<linearGradient id="paint2_linear_371:3591" x1="55.6926" y1="41.2656" x2="55.6926" y2="65.1758" gradientUnits="userSpaceOnUse">
<stop offset="0.03" stop-color="#6F5ADC"/>
<stop offset="1" stop-color="#AE9AFF"/>
</linearGradient>
<linearGradient id="paint3_linear_371:3591" x1="50.7782" y1="4.8418" x2="50.7782" y2="43.4761" gradientUnits="userSpaceOnUse">
<stop stop-color="#1A2023"/>
<stop offset="1" stop-color="#4D5258"/>
</linearGradient>
<linearGradient id="paint4_linear_371:3591" x1="-12.7227" y1="93.83" x2="23.6831" y2="93.83" gradientUnits="userSpaceOnUse">
<stop stop-color="#6F5ADC"/>
<stop offset="1" stop-color="#DDD5FB" stop-opacity="0.1"/>
</linearGradient>
<radialGradient id="paint5_radial_371:3591" cx="0" cy="0" r="1" gradientUnits="userSpaceOnUse" gradientTransform="translate(127.602 123.368) scale(1.73603)">
<stop stop-color="white"/>
<stop offset="1"/>
</radialGradient>
<radialGradient id="paint6_radial_371:3591" cx="0" cy="0" r="1" gradientUnits="userSpaceOnUse" gradientTransform="translate(125.673 116.721) scale(2.84341)">
<stop stop-color="white"/>
<stop offset="1"/>
</radialGradient>
<radialGradient id="paint7_radial_371:3591" cx="0" cy="0" r="1" gradientUnits="userSpaceOnUse" gradientTransform="translate(38.544 33.4354) rotate(12.7027) scale(1.66366 1.66203)">
<stop stop-color="white"/>
<stop offset="1"/>
</radialGradient>
<radialGradient id="paint8_radial_371:3591" cx="0" cy="0" r="1" gradientUnits="userSpaceOnUse" gradientTransform="translate(117.68 130.113) scale(1.66227)">
<stop stop-color="white"/>
<stop offset="1"/>
</radialGradient>
<radialGradient id="paint9_radial_371:3591" cx="0" cy="0" r="1" gradientUnits="userSpaceOnUse" gradientTransform="translate(49.8327 21.4878) scale(20.2663 18.0581)">
<stop stop-color="#6F5ADC"/>
<stop offset="1" stop-color="#AE9AFF"/>
</radialGradient>
<radialGradient id="paint10_radial_371:3591" cx="0" cy="0" r="1" gradientUnits="userSpaceOnUse" gradientTransform="translate(49.9518 42.8144) scale(15.6008 7.38082)">
<stop stop-color="#6F5ADC"/>
<stop offset="1" stop-color="#AE9AFF"/>
</radialGradient>
<linearGradient id="paint11_linear_371:3591" x1="52.126" y1="1.44531" x2="52.126" y2="25.9949" gradientUnits="userSpaceOnUse">
<stop stop-color="#1A2023"/>
<stop offset="1" stop-color="#4D5258"/>
</linearGradient>
<linearGradient id="paint12_linear_371:3591" x1="66.0562" y1="5.29492" x2="66.0562" y2="34.1085" gradientUnits="userSpaceOnUse">
<stop stop-color="#1A2023"/>
<stop offset="1" stop-color="#4D5258"/>
</linearGradient>
<linearGradient id="paint13_linear_371:3591" x1="44.9511" y1="73.1895" x2="44.9511" y2="93.0509" gradientUnits="userSpaceOnUse">
<stop offset="0.03" stop-color="#6F5ADC"/>
<stop offset="1" stop-color="#AE9AFF"/>
</linearGradient>
<radialGradient id="paint14_radial_371:3591" cx="0" cy="0" r="1" gradientUnits="userSpaceOnUse" gradientTransform="translate(41.7322 85.3789) scale(15.7395 5.86332)">
<stop stop-color="#6F5ADC"/>
<stop offset="1" stop-color="#AE9AFF"/>
</radialGradient>
<linearGradient id="paint15_linear_371:3591" x1="68.886" y1="70.6699" x2="68.886" y2="93.6797" gradientUnits="userSpaceOnUse">
<stop offset="0.03" stop-color="#6F5ADC"/>
<stop offset="1" stop-color="#AE9AFF"/>
</linearGradient>
<radialGradient id="paint16_radial_371:3591" cx="0" cy="0" r="1" gradientUnits="userSpaceOnUse" gradientTransform="translate(73.6188 81.0005) scale(13.5372 10.2564)">
<stop stop-color="#6F5ADC"/>
<stop offset="1" stop-color="#AE9AFF"/>
</radialGradient>
</defs>
</svg>
