<svg xmlns="http://www.w3.org/2000/svg" width="164.2" height="158.39" viewBox="0 0 164.2 158.39">
  <g id="Group_4499" data-name="Group 4499" transform="translate(-59.814 -47.633)">
    <g id="OBJECTS" transform="translate(59.814 47.633)">
      <g id="Group_4280" data-name="Group 4280" transform="translate(0 31.746)">
        <g id="Group_4268" data-name="Group 4268" transform="translate(101.875 60.685)" opacity="0.61">
          <g id="Group_4265" data-name="Group 4265" transform="translate(0)">
            <g id="Group_4264" data-name="Group 4264">
              <path id="Path_29667" data-name="Path 29667" d="M363.64,301.308H303.592a1.14,1.14,0,0,1-1.139-1.139V268.917a1.14,1.14,0,0,1,1.139-1.138H363.64a1.139,1.139,0,0,1,1.138,1.138v31.252A1.14,1.14,0,0,1,363.64,301.308Zm-60.048-32.689a.3.3,0,0,0-.3.3v31.252a.3.3,0,0,0,.3.3H363.64a.3.3,0,0,0,.3-.3V268.917a.3.3,0,0,0-.3-.3Z" transform="translate(-302.453 -267.779)" fill="#fff"/>
              <path id="Path_29668" data-name="Path 29668" d="M363.64,301.308H303.592a1.14,1.14,0,0,1-1.139-1.139V268.917a1.14,1.14,0,0,1,1.139-1.138H363.64a1.139,1.139,0,0,1,1.138,1.138v31.252A1.14,1.14,0,0,1,363.64,301.308Zm-60.048-32.689a.3.3,0,0,0-.3.3v31.252a.3.3,0,0,0,.3.3H363.64a.3.3,0,0,0,.3-.3V268.917a.3.3,0,0,0-.3-.3Z" transform="translate(-302.453 -267.779)" fill="#fff" opacity="0.66"/>
            </g>
          </g>
          <g id="Group_4266" data-name="Group 4266" transform="translate(39.225 7.51)">
            <path id="Rectangle_3518" data-name="Rectangle 3518" d="M1.234,0H15.006A1.234,1.234,0,0,1,16.24,1.234V4.662A1.235,1.235,0,0,1,15.006,5.9H1.234A1.234,1.234,0,0,1,0,4.662V1.234A1.234,1.234,0,0,1,1.234,0Z" fill="#fff"/>
          </g>
          <g id="Group_4267" data-name="Group 4267" transform="translate(39.225 18.159)">
            <path id="Rectangle_3519" data-name="Rectangle 3519" d="M1.234,0H15.006A1.234,1.234,0,0,1,16.24,1.234V4.662A1.235,1.235,0,0,1,15.006,5.9H1.234A1.234,1.234,0,0,1,0,4.662V1.234A1.234,1.234,0,0,1,1.234,0Z" fill="#fff"/>
          </g>
          <path id="Path_29669" data-name="Path 29669" d="M348.887,328.5H322.226a.42.42,0,0,1,0-.84h26.661a.42.42,0,0,1,0,.84Z" transform="translate(-313.68 -302.52)" fill="#fff"/>
          <path id="Path_29670" data-name="Path 29670" d="M348.887,305.208H322.226a.42.42,0,0,1,0-.84h26.661a.42.42,0,0,1,0,.84Z" transform="translate(-313.68 -289.006)" fill="#fff"/>
          <path id="Path_29671" data-name="Path 29671" d="M365.864,316.856H351.49a.42.42,0,1,1,0-.84h14.374a.42.42,0,1,1,0,.84Z" transform="translate(-330.657 -295.763)" fill="#fff"/>
          <path id="Path_29672" data-name="Path 29672" d="M365.864,292.856H351.49a.42.42,0,1,1,0-.84h14.374a.42.42,0,1,1,0,.84Z" transform="translate(-330.657 -281.84)" fill="#fff"/>
          <path id="Path_29673" data-name="Path 29673" d="M372.332,281.738h-9.694a.42.42,0,1,1,0-.84h9.694a.42.42,0,1,1,0,.84Z" transform="translate(-337.125 -275.39)" fill="#fff"/>
        </g>
        <g id="Group_4273" data-name="Group 4273" transform="translate(0 26.648)" opacity="0.61">
          <g id="Group_4270" data-name="Group 4270">
            <g id="Group_4269" data-name="Group 4269">
              <path id="Path_29674" data-name="Path 29674" d="M121,220.241H60.952a1.139,1.139,0,0,1-1.138-1.138V187.85a1.139,1.139,0,0,1,1.138-1.138H121a1.14,1.14,0,0,1,1.139,1.138V219.1A1.139,1.139,0,0,1,121,220.241ZM60.952,187.552a.3.3,0,0,0-.3.3V219.1a.3.3,0,0,0,.3.3H121a.3.3,0,0,0,.3-.3V187.85a.3.3,0,0,0-.3-.3Z" transform="translate(-59.814 -186.712)" fill="#fff"/>
              <path id="Path_29675" data-name="Path 29675" d="M121,220.241H60.952a1.139,1.139,0,0,1-1.138-1.138V187.85a1.139,1.139,0,0,1,1.138-1.138H121a1.14,1.14,0,0,1,1.139,1.138V219.1A1.139,1.139,0,0,1,121,220.241ZM60.952,187.552a.3.3,0,0,0-.3.3V219.1a.3.3,0,0,0,.3.3H121a.3.3,0,0,0,.3-.3V187.85a.3.3,0,0,0-.3-.3Z" transform="translate(-59.814 -186.712)" fill="#fff" opacity="0.66"/>
            </g>
          </g>
          <g id="Group_4271" data-name="Group 4271" transform="translate(6.859 20.123)">
            <rect id="Rectangle_3520" data-name="Rectangle 3520" width="16.24" height="5.897" rx="1.234" fill="#fff"/>
          </g>
          <g id="Group_4272" data-name="Group 4272" transform="translate(6.859 9.473)">
            <path id="Rectangle_3521" data-name="Rectangle 3521" d="M1.234,0H15.006A1.234,1.234,0,0,1,16.24,1.234V4.662A1.235,1.235,0,0,1,15.006,5.9H1.235A1.235,1.235,0,0,1,0,4.662V1.234A1.234,1.234,0,0,1,1.234,0Z" fill="#fff"/>
          </g>
          <path id="Path_29676" data-name="Path 29676" d="M150.483,205.525H123.822a.42.42,0,0,1,0-.84h26.661a.42.42,0,0,1,0,.84Z" transform="translate(-96.704 -197.139)" fill="#fff"/>
          <path id="Path_29677" data-name="Path 29677" d="M150.483,228.819H123.822a.42.42,0,0,1,0-.84h26.661a.42.42,0,1,1,0,.84Z" transform="translate(-96.704 -210.652)" fill="#fff"/>
          <path id="Path_29678" data-name="Path 29678" d="M138.2,217.172H123.822a.42.42,0,0,1,0-.84H138.2a.42.42,0,0,1,0,.84Z" transform="translate(-96.704 -203.896)" fill="#fff"/>
          <path id="Path_29679" data-name="Path 29679" d="M138.2,241.172H123.822a.42.42,0,0,1,0-.84H138.2a.42.42,0,0,1,0,.84Z" transform="translate(-96.704 -217.819)" fill="#fff"/>
          <path id="Path_29680" data-name="Path 29680" d="M133.516,252.289h-9.694a.42.42,0,1,1,0-.84h9.694a.42.42,0,1,1,0,.84Z" transform="translate(-96.704 -224.268)" fill="#fff"/>
        </g>
        <g id="Group_4275" data-name="Group 4275" transform="translate(141.16 39.001)" opacity="0.5">
          <path id="Path_29681" data-name="Path 29681" d="M402.6,228.206a.294.294,0,0,1-.293-.293V225.5H397.22a1.2,1.2,0,0,1-1.2-1.2v-6.961a1.2,1.2,0,0,1,1.2-1.2h11.8a1.2,1.2,0,0,1,1.2,1.2V224.3a1.2,1.2,0,0,1-1.2,1.2h-3.344l-2.877,2.631A.293.293,0,0,1,402.6,228.206Zm-.085-.387h0Zm-5.3-11.267a.783.783,0,0,0-.782.783V224.3a.783.783,0,0,0,.782.783h5.214a.293.293,0,0,1,.293.293v2.253l2.7-2.47a.291.291,0,0,1,.2-.077h3.393a.784.784,0,0,0,.783-.783v-6.961a.783.783,0,0,0-.783-.783Zm8.493,8.911,0,0Z" transform="translate(-396.018 -216.132)" fill="#fff"/>
          <g id="Group_4274" data-name="Group 4274" transform="translate(2.878 3.972)">
            <path id="Path_29682" data-name="Path 29682" d="M403.882,227.613a1.01,1.01,0,1,1,1.011-1.011A1.012,1.012,0,0,1,403.882,227.613Zm0-1.6a.591.591,0,1,0,.591.59A.591.591,0,0,0,403.882,226.012Z" transform="translate(-402.872 -225.592)" fill="#fff"/>
            <path id="Path_29683" data-name="Path 29683" d="M411.3,227.613a1.01,1.01,0,1,1,1.011-1.011A1.011,1.011,0,0,1,411.3,227.613Zm0-1.6a.591.591,0,1,0,.591.59A.591.591,0,0,0,411.3,226.012Z" transform="translate(-407.173 -225.592)" fill="#fff"/>
            <path id="Path_29684" data-name="Path 29684" d="M418.706,227.613a1.01,1.01,0,1,1,1.011-1.011A1.012,1.012,0,0,1,418.706,227.613Zm0-1.6a.591.591,0,1,0,.591.59A.591.591,0,0,0,418.706,226.012Z" transform="translate(-411.471 -225.592)" fill="#fff"/>
          </g>
        </g>
        <g id="Group_4277" data-name="Group 4277" transform="translate(7.593 83.168)" opacity="0.5">
          <path id="Path_29685" data-name="Path 29685" d="M85.638,333.586a.3.3,0,0,1-.2-.078l-2.923-2.673h-3.4a1.22,1.22,0,0,1-1.218-1.219v-7.073a1.22,1.22,0,0,1,1.218-1.218H91.1a1.22,1.22,0,0,1,1.218,1.218v7.073a1.22,1.22,0,0,1-1.218,1.219H85.932v2.456a.3.3,0,0,1-.176.27A.29.29,0,0,1,85.638,333.586Zm.084-.388h0Zm-6.605-11.453a.8.8,0,0,0-.8.8v7.073a.8.8,0,0,0,.8.8h3.448a.293.293,0,0,1,.2.077l2.749,2.514v-2.3a.3.3,0,0,1,.295-.294h5.3a.8.8,0,0,0,.8-.8v-7.073a.8.8,0,0,0-.8-.8Zm3.363,9.057h0Z" transform="translate(-77.898 -321.325)" fill="#fff"/>
          <g id="Group_4276" data-name="Group 4276" transform="translate(3.131 4.035)">
            <path id="Path_29686" data-name="Path 29686" d="M101.438,332.983a1.023,1.023,0,1,1,1.024-1.023A1.025,1.025,0,0,1,101.438,332.983Zm0-1.627a.6.6,0,1,0,.6.6A.6.6,0,0,0,101.438,331.356Z" transform="translate(-94.091 -330.936)" fill="#fff"/>
            <path id="Path_29687" data-name="Path 29687" d="M93.906,332.983a1.023,1.023,0,1,1,1.024-1.023A1.025,1.025,0,0,1,93.906,332.983Zm0-1.627a.6.6,0,1,0,.6.6A.6.6,0,0,0,93.906,331.356Z" transform="translate(-89.722 -330.936)" fill="#fff"/>
            <path id="Path_29688" data-name="Path 29688" d="M86.377,332.983A1.023,1.023,0,1,1,87.4,331.96,1.024,1.024,0,0,1,86.377,332.983Zm0-1.627a.6.6,0,1,0,.6.6A.6.6,0,0,0,86.377,331.356Z" transform="translate(-85.354 -330.936)" fill="#fff"/>
          </g>
        </g>
        <path id="Path_29689" data-name="Path 29689" d="M392.633,246.3a1.192,1.192,0,1,1,1.192-1.192A1.193,1.193,0,0,1,392.633,246.3Zm0-1.963a.772.772,0,1,0,.772.772A.773.773,0,0,0,392.633,244.332Z" transform="translate(-252.203 -193.247)" fill="#fff" opacity="0.43"/>
        <path id="Path_29690" data-name="Path 29690" d="M409.594,180.292a3.8,3.8,0,1,1,3.8-3.8A3.8,3.8,0,0,1,409.594,180.292Zm0-7.178a3.379,3.379,0,1,0,3.379,3.379A3.383,3.383,0,0,0,409.594,173.114Z" transform="translate(-260.53 -151.931)" fill="#fff" opacity="0.43"/>
        <path id="Path_29691" data-name="Path 29691" d="M91.737,286.462a1.192,1.192,0,1,1,1.192-1.192A1.193,1.193,0,0,1,91.737,286.462Zm0-1.964a.772.772,0,1,0,.772.772A.773.773,0,0,0,91.737,284.5Z" transform="translate(-77.642 -216.549)" fill="#fff" opacity="0.43"/>
        <path id="Path_29692" data-name="Path 29692" d="M140.957,367.719a1.192,1.192,0,1,1,1.192-1.192A1.193,1.193,0,0,1,140.957,367.719Zm0-1.963a.772.772,0,1,0,.772.772A.773.773,0,0,0,140.957,365.756Z" transform="translate(-106.196 -263.69)" fill="#fff" opacity="0.43"/>
        <g id="Group_4278" data-name="Group 4278" transform="translate(22.8)">
          <circle id="Ellipse_2412" data-name="Ellipse 2412" cx="6.944" cy="6.944" r="6.944" transform="translate(0 13.511) rotate(-76.621)" fill="#fff" opacity="0.27"/>
          <path id="Path_29693" data-name="Path 29693" d="M130.447,136.961a1.865,1.865,0,1,0-2.381,0A3.456,3.456,0,0,0,125.8,140.2c0,1.91,6.916,1.91,6.916,0A3.456,3.456,0,0,0,130.447,136.961Z" transform="translate(-120.894 -129.287)" fill="#fff" opacity="0.67"/>
        </g>
        <g id="Group_4279" data-name="Group 4279" transform="translate(104.081 24.729)">
          <circle id="Ellipse_2413" data-name="Ellipse 2413" cx="6.339" cy="6.339" r="6.339" transform="translate(0)" fill="#fff" opacity="0.27"/>
          <path id="Path_29694" data-name="Path 29694" d="M319.53,191.58a1.7,1.7,0,1,0-2.174,0,3.156,3.156,0,0,0-2.07,2.961c0,1.744,6.315,1.744,6.315,0A3.156,3.156,0,0,0,319.53,191.58Z" transform="translate(-312.104 -185.868)" fill="#fff" opacity="0.67"/>
        </g>
      </g>
      <g id="Group_4304" data-name="Group 4304" transform="translate(18.382 5.608)">
        <path id="Path_29695" data-name="Path 29695" d="M210.19,109.624a15.2,15.2,0,0,0-7.039-12.082,1.677,1.677,0,0,1-.539-2.271,13.275,13.275,0,0,0,1.758-7.563,12.911,12.911,0,0,0-7.461-10.979c1.318-.388,2.15-.684,2.15-.684s-3.034-16.168-19.064-15c-11.564.846-16.524,6.509-18.542,12.244a1.386,1.386,0,0,1-.672.787,8.119,8.119,0,0,0-4.438,6.964,1.689,1.689,0,0,1-1.11,1.528,15.875,15.875,0,0,0-9.766,19.06l0,.009a1.436,1.436,0,0,1-.459,1.486,24.733,24.733,0,1,0,37.845,30.2,14.081,14.081,0,0,1,12.36-7.721l.224-.005A15,15,0,0,0,210.19,109.624Z" transform="translate(-122.422 -60.989)" fill="#3e479b"/>
        <g id="Group_4291" data-name="Group 4291" transform="translate(0 40.553)">
          <g id="Group_4284" data-name="Group 4284" transform="translate(72.118)">
            <g id="Group_4282" data-name="Group 4282" transform="translate(5.972)">
              <g id="Group_4281" data-name="Group 4281">
                <path id="Path_29696" data-name="Path 29696" d="M320.678,328.935h0l0,0Z" transform="translate(-307.622 -256.984)" fill="#ef92c7" opacity="0.32"/>
                <path id="Path_29697" data-name="Path 29697" d="M329.209,161.875l-.153-.034a1.435,1.435,0,0,0-1.708,1.086l.258-1.16a1.7,1.7,0,1,0-3.317-.738l.309-1.386a1.7,1.7,0,0,0-3.317-.738l-.181.814a1.7,1.7,0,0,0-3.317-.739l-2.624,11.788a2.154,2.154,0,0,1-.693-1.317c-.16-1.235-.584-2.824-1.7-2.984-2.284-.326-3.745,3.479-3.321,10.052.429,6.649,1.837,6.873,1.837,6.873l-5.446,18.09-.089.3L301,191.6l-11.419,7.482,10.677,26.164a10.082,10.082,0,0,0,.95,2.328l.014.035h.006a10.034,10.034,0,0,0,1.408,1.916l0,0a10.059,10.059,0,0,0,1.01.942c4.135,3.341,9.25,1.381,12.582-2.076,4.063-4.214,4.58-9.284,5.161-14.856.478-4.581,2.043-19.581,2.348-22.5l.516-4.493s4.391-4.1,3.716-12.547l2.318-10.411A1.435,1.435,0,0,0,329.209,161.875Z" transform="translate(-289.584 -157.574)" fill="#f9d9eb"/>
                <path id="Path_29698" data-name="Path 29698" d="M320.414,258.9l-1.335-2.866-4.21,21.324,0,.013c.025-.1.045-.2.073-.3Z" transform="translate(-304.253 -214.693)" fill="#ef92c7" opacity="0.32"/>
              </g>
              <path id="Path_29699" data-name="Path 29699" d="M360.717,169.361a.25.25,0,0,1-.046,0,.21.21,0,0,1-.159-.251l1.544-6.938a.21.21,0,0,1,.41.091l-1.545,6.939A.21.21,0,0,1,360.717,169.361Z" transform="translate(-330.729 -160.143)" fill="#f7a9b4"/>
              <path id="Path_29700" data-name="Path 29700" d="M368.4,172.1a.21.21,0,0,1-.2-.256l1.545-6.939a.21.21,0,1,1,.41.091l-1.544,6.939A.211.211,0,0,1,368.4,172.1Z" transform="translate(-335.186 -161.73)" fill="#f7a9b4"/>
              <path id="Path_29701" data-name="Path 29701" d="M375.731,176.407a.24.24,0,0,1-.045,0,.211.211,0,0,1-.16-.251l1.545-6.938a.21.21,0,1,1,.41.091l-1.544,6.939A.21.21,0,0,1,375.731,176.407Z" transform="translate(-339.439 -164.231)" fill="#f7a9b4"/>
              <path id="Path_29702" data-name="Path 29702" d="M352.161,195.312a.21.21,0,0,1-.2-.275,5.051,5.051,0,0,0-2.416-6.419.21.21,0,0,1,.179-.38,5.54,5.54,0,0,1,2.637,6.93A.21.21,0,0,1,352.161,195.312Z" transform="translate(-324.3 -175.352)" fill="#f7a9b4"/>
            </g>
            <g id="Group_4283" data-name="Group 4283" transform="translate(0 15.809)">
              <path id="Path_29703" data-name="Path 29703" d="M279.653,217.053c-.035-.15-.069-.3-.1-.445C279.583,216.756,279.617,216.9,279.653,217.053Z" transform="translate(-277.79 -207.631)" fill="#f9d9eb"/>
              <path id="Path_29704" data-name="Path 29704" d="M279.188,215.052l-.106-.462Z" transform="translate(-277.519 -206.461)" fill="#f9d9eb"/>
              <path id="Path_29705" data-name="Path 29705" d="M278.744,213.111l-.106-.468Z" transform="translate(-277.262 -205.331)" fill="#f9d9eb"/>
              <path id="Path_29706" data-name="Path 29706" d="M278.334,211.285c-.033-.146-.064-.288-.1-.431C278.27,211,278.3,211.139,278.334,211.285Z" transform="translate(-277.03 -204.293)" fill="#f9d9eb"/>
              <path id="Path_29707" data-name="Path 29707" d="M280.135,219.1l-.1-.444Z" transform="translate(-278.069 -208.822)" fill="#f9d9eb"/>
              <path id="Path_29708" data-name="Path 29708" d="M277.936,209.487c-.031-.139-.06-.275-.089-.411C277.877,209.212,277.906,209.348,277.936,209.487Z" transform="translate(-276.803 -203.262)" fill="#f9d9eb"/>
              <path id="Path_29709" data-name="Path 29709" d="M282.192,227.605l-.127-.516Z" transform="translate(-279.25 -213.712)" fill="#f9d9eb"/>
              <path id="Path_29710" data-name="Path 29710" d="M282.744,229.834l-.129-.519Z" transform="translate(-279.569 -215.003)" fill="#f9d9eb"/>
              <path id="Path_29711" data-name="Path 29711" d="M281.668,225.469c-.038-.155-.075-.308-.113-.461C281.593,225.162,281.63,225.314,281.668,225.469Z" transform="translate(-278.954 -212.504)" fill="#f9d9eb"/>
              <path id="Path_29712" data-name="Path 29712" d="M281.135,223.275c-.038-.155-.075-.308-.112-.461C281.06,222.968,281.1,223.121,281.135,223.275Z" transform="translate(-278.645 -211.232)" fill="#f9d9eb"/>
              <path id="Path_29713" data-name="Path 29713" d="M280.617,221.126l-.12-.5Z" transform="translate(-278.34 -209.962)" fill="#f9d9eb"/>
              <path id="Path_29714" data-name="Path 29714" d="M276.9,204.549c-.023-.114-.044-.223-.067-.333C276.852,204.327,276.874,204.436,276.9,204.549Z" transform="translate(-276.213 -200.442)" fill="#f9d9eb"/>
              <path id="Path_29715" data-name="Path 29715" d="M275.534,196.746c-.013-.091-.023-.175-.034-.261C275.511,196.571,275.521,196.655,275.534,196.746Z" transform="translate(-275.441 -195.957)" fill="#f9d9eb"/>
              <path id="Path_29716" data-name="Path 29716" d="M275.688,197.847c-.014-.089-.025-.17-.037-.255C275.663,197.676,275.674,197.758,275.688,197.847Z" transform="translate(-275.529 -196.599)" fill="#f9d9eb"/>
              <path id="Path_29717" data-name="Path 29717" d="M275.4,195.6c-.016-.131-.029-.256-.039-.373C275.37,195.345,275.384,195.469,275.4,195.6Z" transform="translate(-275.36 -195.228)" fill="#f9d9eb"/>
              <path id="Path_29718" data-name="Path 29718" d="M275.868,198.994c-.016-.1-.031-.189-.046-.282C275.837,198.806,275.851,198.9,275.868,198.994Z" transform="translate(-275.628 -197.249)" fill="#f9d9eb"/>
              <path id="Path_29719" data-name="Path 29719" d="M276.325,201.6c-.021-.108-.039-.21-.058-.315C276.286,201.389,276.3,201.491,276.325,201.6Z" transform="translate(-275.886 -198.741)" fill="#f9d9eb"/>
              <path id="Path_29720" data-name="Path 29720" d="M283.306,232.086l-.132-.527Z" transform="translate(-279.893 -216.305)" fill="#f9d9eb"/>
              <path id="Path_29721" data-name="Path 29721" d="M277.22,206.126c-.026-.123-.05-.24-.075-.36C277.17,205.886,277.194,206,277.22,206.126Z" transform="translate(-276.396 -201.341)" fill="#f9d9eb"/>
              <path id="Path_29722" data-name="Path 29722" d="M277.562,207.754c-.029-.136-.057-.268-.085-.4C277.506,207.486,277.533,207.618,277.562,207.754Z" transform="translate(-276.588 -202.262)" fill="#f9d9eb"/>
              <path id="Path_29723" data-name="Path 29723" d="M276.085,200.274c-.017-.1-.032-.187-.049-.28C276.052,200.087,276.068,200.177,276.085,200.274Z" transform="translate(-275.752 -197.993)" fill="#f9d9eb"/>
              <path id="Path_29724" data-name="Path 29724" d="M276.591,203c-.023-.118-.045-.231-.067-.346C276.546,202.771,276.568,202.884,276.591,203Z" transform="translate(-276.035 -199.537)" fill="#f9d9eb"/>
              <path id="Path_29725" data-name="Path 29725" d="M285.647,241.315l-.138-.537Z" transform="translate(-281.248 -221.653)" fill="#f9d9eb"/>
              <path id="Path_29726" data-name="Path 29726" d="M285.045,238.966l-.147-.578Z" transform="translate(-280.893 -220.267)" fill="#f9d9eb"/>
              <path id="Path_29727" data-name="Path 29727" d="M288.084,250.718l-.149-.571Z" transform="translate(-282.655 -227.089)" fill="#f9d9eb"/>
              <path id="Path_29728" data-name="Path 29728" d="M284.47,236.7l-.132-.52Z" transform="translate(-280.568 -218.988)" fill="#f9d9eb"/>
              <path id="Path_29729" data-name="Path 29729" d="M287.467,248.353l-.148-.567Q287.393,248.07,287.467,248.353Z" transform="translate(-282.298 -225.719)" fill="#f9d9eb"/>
              <path id="Path_29730" data-name="Path 29730" d="M286.874,246.072l-.137-.528Z" transform="translate(-281.96 -224.418)" fill="#f9d9eb"/>
              <path id="Path_29731" data-name="Path 29731" d="M286.271,243.74l-.12-.464Z" transform="translate(-281.62 -223.102)" fill="#f9d9eb"/>
              <path id="Path_29732" data-name="Path 29732" d="M289.326,255.45l-.123-.468Z" transform="translate(-283.391 -229.893)" fill="#f9d9eb"/>
              <path id="Path_29733" data-name="Path 29733" d="M288.694,253.046q-.077-.292-.153-.584Q288.617,252.754,288.694,253.046Z" transform="translate(-283.007 -228.432)" fill="#f9d9eb"/>
              <path id="Path_29734" data-name="Path 29734" d="M283.889,234.407c-.041-.164-.082-.327-.123-.49C283.807,234.08,283.848,234.243,283.889,234.407Z" transform="translate(-280.237 -217.673)" fill="#f9d9eb"/>
              <path id="Path_29735" data-name="Path 29735" d="M292.752,213.441c-9.962-17.223-17.392-18.213-17.392-18.213.01.117.024.241.039.373.006.049.013.1.02.155.011.086.021.17.034.261.009.065.02.136.03.2.012.084.023.166.037.255.01.069.023.144.034.215.015.094.029.185.046.282s.029.171.044.256.031.183.049.28.032.174.048.262c.019.1.037.207.058.315.016.084.033.174.05.261.022.115.044.228.067.346.02.1.041.206.062.309s.044.22.067.333.044.212.065.317.049.237.075.36l.065.306c.029.133.056.265.085.4.023.106.047.215.07.322.03.136.059.272.089.411l.075.335c.031.143.063.285.1.431l.072.32.106.468c.026.115.053.233.08.349l.106.462c.029.127.06.257.09.385.034.148.068.3.1.445l.1.417.1.444.091.381.12.5c.033.138.068.278.1.418s.074.307.112.461.074.306.112.46.075.306.113.461l.1.412.127.516.1.418.129.519.106.423.132.527.117.463.123.49.117.462.132.52.1.405.147.578.109.426.138.537.132.512.12.464.126.488.137.528.107.413.148.567.111.424.149.571.105.4q.076.292.153.584l.125.474.123.468.037.138h0C282.253,224.4,292.752,213.441,292.752,213.441Z" transform="translate(-275.36 -195.228)" fill="#6363ce"/>
            </g>
          </g>
          <g id="Group_4286" data-name="Group 4286" transform="translate(9.73 13.736)">
            <g id="Group_4285" data-name="Group 4285">
              <path id="Path_29736" data-name="Path 29736" d="M202.321,224.169l-6.516-17.82c-.1-12.341-6.008-16.148-17.211-16.057l-24.394.2a12.417,12.417,0,0,0-10.072,5.536h0l-.012.02a14.309,14.309,0,0,0-1,1.69l-16.341,27.479.444.156,14.495,5.1.312,38.211h54.246l1.8-27.674,3.023-4.784A13.862,13.862,0,0,0,202.321,224.169Z" transform="translate(-126.769 -190.29)" fill="#6d6cd4"/>
              <path id="Path_29737" data-name="Path 29737" d="M179.221,271.125a.212.212,0,0,1-.043,0l-4.763-.985a.21.21,0,0,1-.163-.248.208.208,0,0,1,.248-.163l4.564.943,3.859-16.018a.213.213,0,0,1,.254-.155.21.21,0,0,1,.155.253l-3.907,16.216A.21.21,0,0,1,179.221,271.125Z" transform="translate(-154.313 -227.535)" fill="#fff"/>
            </g>
          </g>
          <g id="Group_4290" data-name="Group 4290" transform="translate(0 48.417)">
            <g id="Group_4287" data-name="Group 4287" transform="translate(48.448)">
              <path id="Path_29738" data-name="Path 29738" d="M219.03,283.243l5.047,26.223a2.522,2.522,0,0,0,2.949,2l40.6-7.727a2.522,2.522,0,0,0,2.011-2.926l-4.664-25.849a2.522,2.522,0,0,0-2.928-2.035l-40.978,7.353A2.523,2.523,0,0,0,219.03,283.243Z" transform="translate(-218.984 -272.89)" fill="#599af2"/>
              <path id="Path_29739" data-name="Path 29739" d="M232.213,312.058a2.466,2.466,0,0,1-2.416-2l-4.5-23.4a2.46,2.46,0,0,1,1.982-2.887l36.563-6.56a2.466,2.466,0,0,1,2.856,1.985l4.162,23.063a2.47,2.47,0,0,1-1.962,2.855l-36.221,6.894A2.429,2.429,0,0,1,232.213,312.058Zm32.06-34.459a2.041,2.041,0,0,0-.361.032l-36.563,6.56a2.041,2.041,0,0,0-1.643,2.395l4.5,23.4a2.042,2.042,0,0,0,2.386,1.619l36.221-6.895a2.048,2.048,0,0,0,1.627-2.368l-4.162-23.063A2.045,2.045,0,0,0,264.273,277.6Z" transform="translate(-222.619 -275.378)" fill="#ecf1f7" opacity="0.61"/>
              <path id="Path_29740" data-name="Path 29740" d="M275.8,318.4a3.664,3.664,0,1,1,3.319-5.2h0a3.663,3.663,0,0,1-3.319,5.2Zm-.007-6.909a3.254,3.254,0,1,0,1.12.2A3.228,3.228,0,0,0,275.789,311.49Z" transform="translate(-249.813 -295.04)" fill="#ecf1f7" opacity="0.61"/>
            </g>
            <g id="Group_4289" data-name="Group 4289" transform="translate(0 0.397)">
              <path id="Path_29741" data-name="Path 29741" d="M173.93,299.637a1.429,1.429,0,0,0-1.189-.744c.01-.059.016-.1.016-.1.026-.034.047-.067.071-.1l.6-.281a1.692,1.692,0,0,0,.966-1.87,1.614,1.614,0,0,0-.94-1.135l0,0a1.559,1.559,0,0,0,.474-2.53l-.032-.032a1.746,1.746,0,0,0-1.936-.364c-.066,0-.13,0-.193,0a1.637,1.637,0,0,0,.323-2.141,1.69,1.69,0,0,0-2.1-.579l-2.978,1.307-12.9,3.229-.646-3.357-.517.31a17.027,17.027,0,0,0-5.036,4.619l-1.12,1.547s-12.475-3.877-20.466-6.342l5.164-11-17.721-6.24-8.8,18.579a12.511,12.511,0,0,0-1.113,3.785,8.391,8.391,0,0,0,1.832,7.751,9.145,9.145,0,0,0,3.54,2.981h0a7.845,7.845,0,0,0,1.36.494c8.561,4.056,22.681,4.45,28.869,5.428,2.932.463,5.423.732,7.48.881a24.657,24.657,0,0,0,15.2-3.9,62.255,62.255,0,0,0,8.781-6.658c.107-.124.207-.255.3-.389l2.16-1.163a1.435,1.435,0,0,0,.582-1.938Z" transform="translate(-103.595 -273.837)" fill="#f9d9eb"/>
              <path id="Path_29742" data-name="Path 29742" d="M116.454,303.635l19.208.73-1.877,4Z" transform="translate(-111.055 -291.124)" fill="#ef92c7" opacity="0.32"/>
              <g id="Group_4288" data-name="Group 4288" transform="translate(61.523 18.325)">
                <path id="Path_29743" data-name="Path 29743" d="M250.336,320.758a.21.21,0,0,1-.084-.4l6.51-2.856a.21.21,0,0,1,.169.385l-6.51,2.856A.207.207,0,0,1,250.336,320.758Z" transform="translate(-250.126 -317.483)" fill="#f7a9b4"/>
                <path id="Path_29744" data-name="Path 29744" d="M252.558,328.316a.21.21,0,0,1-.085-.4l6.51-2.855a.21.21,0,0,1,.169.385l-6.51,2.855A.216.216,0,0,1,252.558,328.316Z" transform="translate(-251.415 -321.868)" fill="#f7a9b4"/>
                <path id="Path_29745" data-name="Path 29745" d="M252.448,336.377a.21.21,0,0,1-.09-.4l6.421-3.051a.21.21,0,0,1,.181.379l-6.421,3.051A.209.209,0,0,1,252.448,336.377Z" transform="translate(-251.351 -326.431)" fill="#f7a9b4"/>
              </g>
            </g>
          </g>
        </g>
        <g id="Group_4303" data-name="Group 4303" transform="translate(36.968 15.349)">
          <g id="Group_4293" data-name="Group 4293">
            <g id="Group_4292" data-name="Group 4292">
              <path id="Path_29746" data-name="Path 29746" d="M228.03,100.25a15.084,15.084,0,0,0-.312-1.909c-4.7,1.247-12.617,2.7-15.085-.794-2.019,1.336-3.146,4.3-3.772,7.27a8.007,8.007,0,0,1-.4,1.324,7.591,7.591,0,0,1-10.906,3.553l-.005,0-.288-2.567-.326.031a5.868,5.868,0,0,0-5.263,6.386h0a5.868,5.868,0,0,0,6.385,5.263l.382-.037a15.1,15.1,0,0,0,1.031,3.807,8.262,8.262,0,0,0-.092,1.169v14.293a8.349,8.349,0,0,0,16.7,0v-6.418a15.111,15.111,0,0,0,10.484-7.382,14.928,14.928,0,0,0,2.8-10.247Z" transform="translate(-191.643 -97.547)" fill="#f9d9eb"/>
            </g>
            <path id="Path_29747" data-name="Path 29747" d="M225.254,158.925h0a14.991,14.991,0,0,1-16.163-12.111,4.526,4.526,0,0,0-1.275.531,15.051,15.051,0,0,0,2.4,6.353,8.286,8.286,0,0,0-.09,1.361h0a8.373,8.373,0,0,0,8.539,8.155h0a8.325,8.325,0,0,0,6.123-2.914,15.113,15.113,0,0,0,11.149-7.485A14.949,14.949,0,0,1,225.254,158.925Z" transform="translate(-201.026 -126.125)" fill="#ef92c7" opacity="0.32"/>
          </g>
          <g id="Group_4302" data-name="Group 4302" transform="translate(3.691 3.345)">
            <path id="Path_29748" data-name="Path 29748" d="M200.766,132.177a.21.21,0,0,1-.114-.386l2-1.282-2.163-2.44a.21.21,0,0,1,.314-.278l2.325,2.623a.21.21,0,0,1-.044.316l-2.2,1.415A.209.209,0,0,1,200.766,132.177Z" transform="translate(-200.432 -118.396)" fill="#f7a9b4"/>
            <g id="Group_4295" data-name="Group 4295" transform="translate(16.439 15.779)">
              <g id="Group_4294" data-name="Group 4294">
                <path id="Path_29749" data-name="Path 29749" d="M251.833,160.506a.21.21,0,0,1-.131-.374,2.507,2.507,0,0,1,2.794-.172.21.21,0,0,1-.226.354,2.046,2.046,0,0,0-2.306.146A.21.21,0,0,1,251.833,160.506Z" transform="translate(-246.569 -152.668)" fill="#f7a9b4"/>
                <path id="Path_29750" data-name="Path 29750" d="M246.4,147.95l-2.5.058a4.2,4.2,0,0,1-4.294-4.1l-.015-.634,7.744-.178.087,3.788A1.043,1.043,0,0,1,246.4,147.95Z" transform="translate(-239.586 -143.095)" fill="#fff"/>
              </g>
            </g>
            <g id="Group_4301" data-name="Group 4301" transform="translate(13.385)">
              <g id="Group_4296" data-name="Group 4296" transform="translate(0 3.388)">
                <rect id="Rectangle_3522" data-name="Rectangle 3522" width="1.362" height="2.042" rx="0.681" transform="matrix(0.995, -0.096, 0.096, 0.995, 4.215, 4.001)" fill="#3e479b"/>
                <path id="Rectangle_3523" data-name="Rectangle 3523" d="M.681,0h0a.681.681,0,0,1,.681.681v.681a.681.681,0,0,1-.681.681h0A.681.681,0,0,1,0,1.361V.681A.681.681,0,0,1,.681,0Z" transform="translate(13.96 4.077) rotate(-6.218)" fill="#3e479b"/>
                <path id="Path_29751" data-name="Path 29751" d="M256.921,128.564a.42.42,0,0,1-.1-.828l1.7-.411a.248.248,0,0,0,.182-.3l-1.733-7.2a.42.42,0,0,1,.817-.2l1.733,7.2a1.089,1.089,0,0,1-.8,1.311l-1.7.411A.422.422,0,0,1,256.921,128.564Z" transform="translate(-246.345 -116.903)" fill="#f7a9b4"/>
                <path id="Path_29752" data-name="Path 29752" d="M237.518,124.018a5.218,5.218,0,0,1-5.122-4.3h0a5.216,5.216,0,1,1,6.054,4.214A5.262,5.262,0,0,1,237.518,124.018Zm.021-9.594a4.4,4.4,0,0,0-.781.07,4.376,4.376,0,0,0-3.535,5.079h0a4.375,4.375,0,1,0,4.317-5.149Z" transform="translate(-232.312 -113.584)" fill="#fff"/>
                <path id="Path_29753" data-name="Path 29753" d="M266.452,124.481a5.23,5.23,0,1,1,.931-.083A5.264,5.264,0,0,1,266.452,124.481Zm.013-9.593a4.416,4.416,0,0,0-.774.069,4.376,4.376,0,0,0-3.535,5.08h0a4.376,4.376,0,1,0,4.309-5.148Z" transform="translate(-249.098 -113.853)" fill="#fff"/>
                <path id="Path_29754" data-name="Path 29754" d="M256.637,126.1a.42.42,0,0,1-.033-.838l1.871-.149a.42.42,0,1,1,.066.837l-1.871.149Z" transform="translate(-246.181 -120.271)" fill="#fff"/>
              </g>
              <g id="Group_4300" data-name="Group 4300" transform="translate(2.528)">
                <g id="Group_4299" data-name="Group 4299">
                  <g id="Group_4297" data-name="Group 4297" transform="translate(0 0.782)">
                    <path id="Path_29755" data-name="Path 29755" d="M238.71,109.621a2.507,2.507,0,0,0,1.03-.164c.356-.106.716-.2,1.032-.278s.683-.147,1.049-.21a2.493,2.493,0,0,0,.994-.311c.245-.178.278-.533-.138-.862a2.878,2.878,0,0,0-2.332-.323,2.792,2.792,0,0,0-1.92,1.32C238.21,109.27,238.408,109.571,238.71,109.621Z" transform="translate(-238.334 -107.375)" fill="#3e479b"/>
                  </g>
                  <g id="Group_4298" data-name="Group 4298" transform="translate(11.569)">
                    <path id="Path_29756" data-name="Path 29756" d="M270.155,107.8a2.523,2.523,0,0,1-1.028-.179c-.354-.112-.713-.215-1.027-.293s-.681-.157-1.045-.225a2.5,2.5,0,0,1-.989-.326c-.242-.182-.27-.537.151-.86a2.877,2.877,0,0,1,2.337-.289,2.791,2.791,0,0,1,1.9,1.348C270.659,107.453,270.458,107.751,270.155,107.8Z" transform="translate(-265.89 -105.513)" fill="#3e479b"/>
                  </g>
                </g>
              </g>
            </g>
            <path id="Path_29757" data-name="Path 29757" d="M241.205,127.824a.21.21,0,0,1-.12-.382,2.4,2.4,0,0,1,2.544-.192.21.21,0,1,1-.241.344c-.874-.613-2.051.185-2.063.193A.209.209,0,0,1,241.205,127.824Z" transform="translate(-223.964 -117.943)" fill="#f7a9b4"/>
            <path id="Path_29758" data-name="Path 29758" d="M265.053,128.272a.21.21,0,0,1-.12-.383,2.4,2.4,0,0,1,2.543-.192.21.21,0,0,1-.241.344c-.878-.616-2.051.185-2.063.193A.211.211,0,0,1,265.053,128.272Z" transform="translate(-237.799 -118.203)" fill="#f7a9b4"/>
          </g>
        </g>
      </g>
      <g id="Group_4307" data-name="Group 4307" transform="translate(112.167)">
        <path id="Path_29759" data-name="Path 29759" d="M347.921,47.633a20.142,20.142,0,0,0-16.71,31.383c-.008.06-.133.675-.213,1.089a12.617,12.617,0,0,1-3.674,6.433c-1.8,1.519,3.557,2.722,7.416.173a7.508,7.508,0,0,0,2.115-2.078l.015-.024a20.14,20.14,0,1,0,11.051-36.977Z" transform="translate(-326.964 -47.633)" fill="#c5d9ff"/>
        <g id="Group_4306" data-name="Group 4306" transform="translate(10.268 11.674)">
          <g id="Group_4305" data-name="Group 4305">
            <path id="Path_29760" data-name="Path 29760" d="M352.21,75.438h2.144a.79.79,0,0,1,.79.79v2.545a.783.783,0,0,0,1.237.634l.015-.01a3.263,3.263,0,0,1,1.868-.507,3.43,3.43,0,0,1,2.656,1.033,4.045,4.045,0,0,1,.951,2.847v6.112a.79.79,0,0,1-.791.79h-2.143a.79.79,0,0,1-.791-.79V83.959a1.925,1.925,0,0,0-.4-1.326,1.359,1.359,0,0,0-1.059-.449,1.473,1.473,0,0,0-1.107.449,1.838,1.838,0,0,0-.433,1.326v4.923a.79.79,0,0,1-.79.79H352.21a.79.79,0,0,1-.79-.79V76.228A.79.79,0,0,1,352.21,75.438Z" transform="translate(-351.42 -75.438)" fill="#fff"/>
            <path id="Path_29761" data-name="Path 29761" d="M382.227,75.438h1.151a1.365,1.365,0,0,1,1.365,1.365h0a1.365,1.365,0,0,1-1.365,1.365h-1.151a1.365,1.365,0,0,1-1.365-1.365h0A1.365,1.365,0,0,1,382.227,75.438Zm.078,3.685h.994a1.365,1.365,0,0,1,1.365,1.365v7.819a1.365,1.365,0,0,1-1.365,1.365h-.994a1.365,1.365,0,0,1-1.365-1.365V80.488A1.365,1.365,0,0,1,382.305,79.123Z" transform="translate(-368.5 -75.438)" fill="#fff"/>
            <path id="Path_29762" data-name="Path 29762" d="M394.934,78.4v-.441a1.132,1.132,0,0,1,1.132-1.132h1.948a1.132,1.132,0,0,1,1.132,1.132V78.4a1.117,1.117,0,0,1-.013.168l-.974,6.5a1.132,1.132,0,0,1-1.12.964h0a1.132,1.132,0,0,1-1.119-.964l-.974-6.5A1.172,1.172,0,0,1,394.934,78.4Zm1.307,8.761h1.6A1.132,1.132,0,0,1,398.97,88.3v1.05a1.132,1.132,0,0,1-1.132,1.132h-1.6a1.132,1.132,0,0,1-1.132-1.132V88.3A1.132,1.132,0,0,1,396.241,87.166Z" transform="translate(-376.664 -76.247)" fill="#fff"/>
          </g>
        </g>
      </g>
      <g id="Group_4310" data-name="Group 4310" transform="translate(90.747 128.223)">
        <g id="Group_4308" data-name="Group 4308" transform="translate(21.742)">
          <path id="Path_29763" data-name="Path 29763" d="M330.1,377.961h14.564a2.371,2.371,0,0,0,2.371-2.371V353.506a.482.482,0,0,0-.482-.482H328.139a.407.407,0,0,0-.407.408V375.59A2.371,2.371,0,0,0,330.1,377.961Z" transform="translate(-327.732 -353.024)" fill="#f28393"/>
          <path id="Path_29764" data-name="Path 29764" d="M372.461,378.759h-1.774V377.5h1.774a3.23,3.23,0,0,0,3.227-3.227v-6.767a3.23,3.23,0,0,0-3.227-3.227h-2.578v-1.26h2.578a4.492,4.492,0,0,1,4.487,4.486v6.767A4.492,4.492,0,0,1,372.461,378.759Z" transform="translate(-352.185 -358.823)" fill="#f28393"/>
          <path id="Path_29765" data-name="Path 29765" d="M333.166,377.961H343.48a2.371,2.371,0,0,0,2.371-2.371V353.506a.482.482,0,0,0-.482-.482H331.2a.407.407,0,0,0-.407.408V375.59A2.371,2.371,0,0,0,333.166,377.961Z" transform="translate(-329.509 -353.024)" fill="#ef929c" opacity="0.42"/>
          <path id="Path_29766" data-name="Path 29766" d="M333.166,377.961h6V353.024H331.2a.407.407,0,0,0-.407.408V375.59A2.371,2.371,0,0,0,333.166,377.961Z" transform="translate(-329.509 -353.024)" fill="#f7a9b4" opacity="0.32"/>
        </g>
        <g id="Group_4309" data-name="Group 4309" transform="translate(0 13.143)">
          <path id="Path_29767" data-name="Path 29767" d="M314.543,385.542l.2.648.518,1.638.2.648.008.026,1.607-.514-.933-2.955.081-.026,0-.007-1.417.454-.271.087Z" transform="translate(-298.338 -384.717)" fill="#3e479b"/>
          <path id="Path_29768" data-name="Path 29768" d="M319.317,387.643v0l.823-.26a.857.857,0,0,0,.567-1.072l-.44-1.394a.857.857,0,0,0-1.079-.552l-.742.234-.081.026Z" transform="translate(-300.556 -384.328)" fill="#f7a9b4" opacity="0.32"/>
          <path id="Path_29769" data-name="Path 29769" d="M296.082,387.545,281.694,392.1l.017.054.52.2a.554.554,0,0,1,.242.861l-.3.392.052.167,14.377-4.556Z" transform="translate(-279.281 -386.194)" fill="#599af2"/>
          <path id="Path_29770" data-name="Path 29770" d="M283.275,404.012h0Z" transform="translate(-280.199 -395.747)" fill="#f48b7b"/>
          <path id="Path_29771" data-name="Path 29771" d="M297.329,391.532l-14.377,4.556.209.661,14.373-4.554Z" transform="translate(-280.011 -388.507)" fill="#85bfff"/>
          <path id="Path_29772" data-name="Path 29772" d="M295.589,385.968l-14.392,4.56.209.661,14.388-4.559Z" transform="translate(-278.993 -385.279)" fill="#85bfff"/>
          <path id="Path_29773" data-name="Path 29773" d="M279.825,399.817h0l.071-.022h0l-.209-.661-.052-.167.3-.392a.555.555,0,0,0-.242-.861l-.52-.2-.017-.054-.209-.661v0l-.006-.018-.145.046-1.472,1.378.428,1.355,2,.278Z" transform="translate(-276.749 -391.552)" fill="#f9e4cf"/>
          <path id="Path_29774" data-name="Path 29774" d="M276.078,400.636a.455.455,0,0,0,.242.765l.636.124-.428-1.355Z" transform="translate(-275.948 -393.518)" fill="#599af2"/>
        </g>
        <path id="Path_29775" data-name="Path 29775" d="M312.44,410.475a.939.939,0,0,1-.033.506l-.1.28a.883.883,0,0,1-1.109.544l-3.717-1.241a.771.771,0,0,1-.461-1.042l.081-.184a.767.767,0,0,1,.949-.413l3.154,1.1a.64.64,0,0,1,.389.832l-.031.081a.585.585,0,0,1-.737.348l-2.256-.765a.082.082,0,1,1,.052-.155l2.256.765a.422.422,0,0,0,.532-.251l.031-.081a.477.477,0,0,0-.29-.62l-3.154-1.1a.6.6,0,0,0-.746.325l-.081.184a.607.607,0,0,0,.363.82l3.717,1.242a.72.72,0,0,0,.9-.443l.1-.28a.788.788,0,0,0-.469-1l-2.452-.9a.082.082,0,0,1,.056-.154l2.452.9A.951.951,0,0,1,312.44,410.475Z" transform="translate(-293.937 -385.422)" fill="#f7a9b4" opacity="0.32"/>
        <path id="Path_29776" data-name="Path 29776" d="M292.023,417.418a.935.935,0,0,1-.325.389l-.245.168a.883.883,0,0,1-1.216-.216l-2.266-3.2a.77.77,0,0,1,.243-1.113l.174-.1a.767.767,0,0,1,1.01.227l1.9,2.748a.64.64,0,0,1-.178.9l-.073.047a.585.585,0,0,1-.8-.155l-1.368-1.949a.082.082,0,0,1,.134-.094l1.368,1.949a.422.422,0,0,0,.578.112l.073-.047a.477.477,0,0,0,.132-.671l-1.9-2.748a.6.6,0,0,0-.794-.178l-.174.1a.607.607,0,0,0-.191.877l2.266,3.2a.719.719,0,0,0,.99.176l.245-.168a.789.789,0,0,0,.21-1.081l-1.445-2.177a.082.082,0,1,1,.136-.09l1.445,2.177A.951.951,0,0,1,292.023,417.418Z" transform="translate(-282.841 -387.961)" fill="#f7a9b4" opacity="0.32"/>
      </g>
    </g>
  </g>
</svg>
