<svg xmlns="http://www.w3.org/2000/svg" width="276.309" height="236" viewBox="0 0 276.309 236"><defs><style>.a{fill:#c8dff7;}.b{fill:#fff;}.c{fill:#e31e4e;}.d{opacity:0.5;mix-blend-mode:multiply;isolation:isolate;}.e{fill:#ff5177;}.f{fill:#1c2836;}.g{fill:#ffac97;}.h{fill:#ffc428;}.i{fill:#ff8780;}.j{fill:#4178e6;}.k{fill:#1e41b9;}.l{fill:#3a4a59;}.m{fill:#ff9d14;}.n{fill:#00c5bb;}.o{opacity:0.3;}.p{fill:#009c97;}</style></defs><g transform="translate(-24.19 -72.333)"><g transform="translate(39.342 72.333)"><g transform="translate(4.388 14.748)"><path class="a" d="M190,287.889s-112.172,2.5-116.932-34.766c-5.571-43.612-.69-29.655-14.625-85.054-14.813-58.891,30.221-79.314,67.492-69.856,34.106,8.655,36.578,51.518,83.04,41.1,68.843-15.431,96.96,6.35,99.94,33.781,3.2,29.492-15.708,37.7-18.643,76.11S282.578,283.865,190,287.889Z" transform="translate(-55.548 -96.001)"/></g><g transform="translate(0 10.591)"><g transform="translate(228.327 42.101)"><path class="a" d="M446.284,187.04a.624.624,0,0,1-.6-.459c-6.06-22.187-30.043-28.4-30.284-28.459a.623.623,0,1,1,.3-1.21c.248.062,24.931,6.438,31.186,29.339a.624.624,0,0,1-.437.766A.63.63,0,0,1,446.284,187.04Z" transform="translate(-414.925 -156.894)"/><g transform="translate(31.278 32.667)"><path class="a" d="M466.048,213.04a.624.624,0,0,1-.619-.56c-.149-1.451-.3-2.435-.3-2.445a.623.623,0,1,1,1.231-.19c.006.041.157,1.023.31,2.507a.623.623,0,0,1-.556.683A.562.562,0,0,1,466.048,213.04Z" transform="translate(-465.12 -209.318)"/></g></g><g transform="translate(0 1.512)"><path class="a" d="M49.13,131.767a.61.61,0,0,1-.12-.012.623.623,0,0,1-.492-.731c5.968-30.541,36.224-39.162,36.529-39.245a.623.623,0,0,1,.33,1.2c-.3.082-29.817,8.514-35.635,38.283A.623.623,0,0,1,49.13,131.767Z" transform="translate(-48.506 -91.756)"/></g><g transform="translate(39.772)"><path class="a" d="M112.956,91.126a.623.623,0,0,1-.2-1.213,16.628,16.628,0,0,1,2.537-.576.623.623,0,0,1,.2,1.231,15.667,15.667,0,0,0-2.33.525A.623.623,0,0,1,112.956,91.126Z" transform="translate(-112.332 -89.33)"/></g></g><g transform="translate(101.793)"><path class="a" d="M211.864,86.441s2.642-9.027,8.366-8.366,6.605,3.3,11.449,1.321,6.605-8.367,14.531-6.825,8.807,10.348,17.834,9.687,12.109-.88,15.412,4.183Z" transform="translate(-211.864 -72.333)"/></g><g transform="translate(161.981 19.673)"><path class="a" d="M308.454,120.308s3.621-8.007,13.509-5.62c9.776,2.36,13.987-11.641,22.692-10.741s7.919,6.358,19.026,8.16,11.986,0,16.664,8.2Z" transform="translate(-308.454 -103.905)"/></g></g><g transform="translate(60.523 100.752)"><g transform="translate(11.182 0)"><path class="b" d="M100.974,129.581a.532.532,0,0,1-.411-.871l8.716-10.576a.532.532,0,0,1,.821,0l8.716,10.576-.821.677-8.306-10.077-8.305,10.077A.532.532,0,0,1,100.974,129.581Z" transform="translate(-100.442 -117.94)"/></g><g transform="translate(0 10.609)"><rect class="b" width="40.862" height="75.533" rx="1.699"/><g transform="translate(2.606 2.606)"><rect class="a" width="70.32" height="35.649" rx="1.827" transform="translate(35.649) rotate(90)"/></g></g></g><g transform="translate(85.214 96.843)"><g transform="translate(3.979 203.827)"><path class="a" d="M275.473,442.6c0,2.117-32.9,3.832-73.483,3.832s-73.483-1.715-73.483-3.832,32.9-3.832,73.483-3.832S275.473,440.483,275.473,442.6Z" transform="translate(-128.508 -438.768)"/></g><g transform="translate(34.118 182.919)"><g transform="translate(0)"><path class="c" d="M192.587,408.719v21.236h-8.812L178.739,411.9l-1.865-6.687Z" transform="translate(-176.874 -405.216)"/></g><g class="d" transform="translate(0 0)"><path class="c" d="M192.587,408.719v5.42c-4-.444-9.694-1.454-13.848-2.236l-1.865-6.687Z" transform="translate(-176.874 -405.216)"/></g><g transform="translate(65.348)"><g transform="translate(0)"><path class="c" d="M281.744,408.719v21.236h8.812l5.036-18.052,1.865-6.687Z" transform="translate(-281.744 -405.216)"/></g><g class="d" transform="translate(0 0)"><path class="c" d="M281.744,408.719v5.42c4-.444,9.695-1.454,13.848-2.236l1.865-6.687Z" transform="translate(-281.744 -405.216)"/></g></g></g><g transform="translate(25.94 25.211)"><path class="e" d="M284.1,180.622c-.949,9.962-9.313,46.236-13.524,64.114-.42,1.784-.8,3.383-1.125,4.756-.794,3.35-1.274,5.345-1.274,5.345l-90.141-1.892s-.252-1.155-.687-3.2c-3.223-15.089-16.522-78.721-13.01-84.921a5.258,5.258,0,0,1,1.085-1.289,10.256,10.256,0,0,1,1.162-.888,16.85,16.85,0,0,1,1.467-.863c6.522-3.445,20.126-6.313,35.573-8.006,18.217-2,39-2.364,53.746-.112q.632.1,1.248.2c1.074.177,2.1.362,3.094.548,19.333,3.661,23.076,8.923,23.2,16.376v.006A97.154,97.154,0,0,1,284.1,180.622Z" transform="translate(-163.75 -152.126)"/><g transform="translate(6.311 6.112)"><path class="c" d="M182.418,237.342a.392.392,0,0,1-.385-.321c-.029-.157-2.886-15.86-5.191-31.824-1.355-9.381-2.256-17.016-2.68-22.694-.728-9.745.1-11.689.783-12.3,3.959-3.552,24.443-6.276,36.3-7.582a114.367,114.367,0,0,1,17.2-.587c13.71.566,37.307,2.066,41.3,5.754.675.624,1.474,2.579.611,12.313-.5,5.672-1.511,13.294-3,22.655-2.528,15.93-5.6,31.591-5.636,31.748a.392.392,0,1,1-.768-.151c.031-.156,3.106-15.805,5.631-31.721,4.419-27.848,3.544-33.423,2.628-34.268-2.785-2.57-17.658-4.592-40.805-5.548a113.624,113.624,0,0,0-17.079.583c-11.765,1.3-32.068,3.981-35.864,7.387-.927.832-1.881,6.395,2.149,34.3,2.3,15.95,5.159,31.64,5.188,31.8a.391.391,0,0,1-.386.462Z" transform="translate(-173.879 -161.933)"/></g><g transform="translate(92.094 2.293)"><path class="c" d="M340.607,172.181v.006c-.039,2.728-.494,5.742-.811,9.068-.949,9.962-9.313,46.236-13.524,64.115h-14.73s16.243-59.242,17.2-73.812c.624-9.511-6.385-13.873-11.33-15.754C336.743,159.466,340.488,164.728,340.607,172.181Z" transform="translate(-311.542 -155.805)"/></g></g><g transform="translate(0 101.832)"><path class="c" d="M167.048,297.936s-12.466-1.209-13.487,3.3c-.8,3.519.271,35.037.78,48.733a6.6,6.6,0,0,1-6.222,6.828c-.793.045-1.629.085-2.489.116a52.615,52.615,0,0,1-12.025-.636c-6.993-1.579-7.219-11.5-9.7-27.971s-4.737-45.791,10.6-51.43c.528-.194,1.057-.37,1.583-.529,14.78-4.468,28.869,4.364,28.869,4.364A37.317,37.317,0,0,1,167.048,297.936Z" transform="translate(-122.122 -275.086)"/><g transform="translate(0 1.262)"><path class="e" d="M145.63,357.678a52.613,52.613,0,0,1-12.025-.636c-6.993-1.579-7.219-11.5-9.7-27.971s-4.737-45.791,10.6-51.43c.528-.194,1.057-.37,1.583-.529,2.614.624,5.016,2.358,6.312,6.168C145.915,293.616,140.336,329.527,145.63,357.678Z" transform="translate(-122.122 -277.112)"/></g><g transform="translate(2.23 36.274)"><path class="c" d="M138.81,376.384a7.916,7.916,0,0,1-7.178-3.817c-2.369-3.913-5.786-37.49-5.93-38.918a.318.318,0,1,1,.634-.064c.035.348,3.547,34.86,5.842,38.652,3.481,5.75,11.162,2.684,11.239,2.652a.319.319,0,1,1,.242.59,14.135,14.135,0,0,1-4.556.9C139,376.383,138.907,376.384,138.81,376.384Z" transform="translate(-125.7 -333.298)"/></g><g transform="translate(8.622 8.03)"><path class="c" d="M143.818,293.188s-.251-5.635-4.5-5.189-4.458,9.743-.655,10.945C144.222,300.7,143.818,293.188,143.818,293.188Z" transform="translate(-135.958 -287.974)"/></g><g transform="translate(6.37 4.87)"><path class="c" d="M132.664,289.593a.29.29,0,0,1-.069-.007.318.318,0,0,1-.242-.379c.047-.21,1.186-5.15,5.3-6.133a4.929,4.929,0,0,1,4.4.89,7.728,7.728,0,0,1,2.657,5.312.318.318,0,0,1-.637,0,7.141,7.141,0,0,0-2.415-4.812,4.325,4.325,0,0,0-3.86-.77c-3.733.892-4.817,5.6-4.828,5.652A.318.318,0,0,1,132.664,289.593Z" transform="translate(-132.345 -282.901)"/></g></g><g transform="translate(39.536 121.099)"><path class="c" d="M277.673,307.485c-.8,3.349-1.276,5.345-1.276,5.345l-90.141-1.892s-.252-1.153-.687-3.2C201.544,305.026,256.363,305.944,277.673,307.485Z" transform="translate(-185.569 -306.007)"/></g><g transform="translate(27.836 121.099)"><g transform="translate(0 2.097)"><path class="e" d="M269.878,325.78c-.023,1.7-.06,3.5-.116,5.365-.5,16.8-2.558,38.949-9.844,40.89-11.863,3.163-85.472,4.772-89.318-2.261-1.148-2.1-1.863-5.633-2.329-9.957-.091-.847-.171-1.725-.244-2.628-.633-7.826-.639-17.563-.9-26.044-.072-2.279-.16-4.468-.285-6.5-.912-14.95,11.254-15.161,11.254-15.161,17.2-.4,42.474.4,62.13,1.233,10.249.433,18.971.871,24.227,1.148,3.38.178,5.327.29,5.327.29S269.983,317.871,269.878,325.78Z" transform="translate(-166.793 -309.372)"/></g><g transform="translate(3.031 46.073)"><path class="c" d="M214.063,386.633q-2.227,0-4.593-.047c-23.757-.484-37.431-5.831-37.567-5.885a.391.391,0,0,1,.29-.727c.134.054,13.691,5.349,37.292,5.83,23.632.479,36.611-2.882,36.739-2.916a.392.392,0,0,1,.2.757C246.3,383.676,234.892,386.633,214.063,386.633Z" transform="translate(-171.657 -379.945)"/></g><g transform="translate(18.666)"><path class="c" d="M198.73,344.556s8.465-9.255,14.425-11.167,9.039.926,11.162-2.457,27.109-14.808,29-21.411l-2.672-3.514-33.02,22.31-5.33-.607s-11.446,7.8-14.419,11.944S198.73,344.556,198.73,344.556Z" transform="translate(-196.748 -306.007)"/></g><g transform="translate(16.923)"><path class="c" d="M195.764,362.362s4.078,4.53,6.339-.064-3.188-11.262-3.188-11.262.565-16.523,3.007-23.349,4.324-12.058,4.126-14.857c0,0,19.271,2.828,22.489-3.86l-1.244-1.786s-16.878,2.02-24.735-1.176c0,0-2.327,15.981-6.154,20.938s-2.038,23.321-2.038,23.321Z" transform="translate(-193.95 -306.007)"/></g><g transform="translate(1.234 3.437)"><path class="c" d="M270.624,326.59c-.023,1.7-.06,3.5-.116,5.365-.5,16.8-2.558,38.949-9.844,40.89-11.863,3.163-85.472,4.772-89.318-2.261-1.148-2.1-1.863-5.633-2.329-9.957-.091-.847-.171-1.725-.244-2.628,3.49,2.329,13.97,5.381,21.171,6.12A212.078,212.078,0,0,0,243.326,363c-3.942-16.252-2.9-42.2-2.354-51.482,10.249.433,18.971.871,24.227,1.148Z" transform="translate(-168.773 -311.522)"/></g></g><g transform="translate(33.551 6.406)"><g transform="translate(33.406)"><g transform="translate(3.24 13.837)"><path class="f" d="M237.076,144.153s-2.225,2.278-2.3,7.782l3.726-6.981Z" transform="translate(-234.772 -144.153)"/></g><g transform="translate(9.581 34.037)"><path class="g" d="M252.189,186.3A9.232,9.232,0,0,0,256,185.138c-.064-5.136,0-8.568,0-8.568l-6.165,2.714-1.985.851-2.142.92-.009,0s-.123,1.153-.32,2.481c-.12.8-.266,1.658-.429,2.373A18.972,18.972,0,0,0,252.189,186.3Z" transform="translate(-244.949 -176.57)"/></g><g transform="translate(1.432 12.195)"><path class="g" d="M254.713,161.4s-9.893,5.67-16.345,7.124-6.817-5.309-6.362-8.657,1.773-11.77,3.953-14.709,16.55-6.345,21.672-.237S254.713,161.4,254.713,161.4Z" transform="translate(-231.871 -141.518)"/></g><g transform="translate(3.999 24.077)"><path class="f" d="M237.391,163.3a1.307,1.307,0,0,1-.388-.06c-1.327-.411-.974-2.375-.958-2.458a.239.239,0,0,1,.47.088c0,.016-.291,1.629.63,1.914.95.294,1.774-1.3,1.782-1.321a.239.239,0,0,1,.428.213C239.319,161.748,238.534,163.3,237.391,163.3Z" transform="translate(-235.992 -160.586)"/></g><g transform="translate(5.151 8.928)"><path class="f" d="M264.007,148.967c-.177,6.375-4.209,10.782-8.285,11.854-2.481.651-2.886-.4-2.886-.4,4.107-1.307,4.873-5.794,4.594-7.281s-2.367-2.341-4.594-1.561a5.339,5.339,0,0,0-2.265,2.023c-.116.155-.227.3-.334.444-.593.77-1.077,1.233-1.649.51a1.379,1.379,0,0,1-.18-.978,4.1,4.1,0,0,1,.09-.521,14.185,14.185,0,0,1,1.205-3c-10.54,2.253-11.863-8.221-11.863-8.221s2.046-4.827,11.444-5.523S264.173,142.96,264.007,148.967Z" transform="translate(-237.84 -136.276)"/></g><g transform="translate(23.665 15.678)"><path class="f" d="M267.827,163.255a.309.309,0,0,1-.048-.606c.059-.016,5.917-1.674,7.977-6.636a8.378,8.378,0,0,0-.72-8.4.309.309,0,0,1,.479-.392,8.989,8.989,0,0,1,.812,9.029c-2.178,5.246-8.132,6.927-8.385,7A.3.3,0,0,1,267.827,163.255Z" transform="translate(-267.551 -147.108)"/></g><g transform="translate(4.944 14.754)"><path class="f" d="M246.3,155.282a8.035,8.035,0,0,1-4.891-1.5c-3.541-2.607-3.884-7.617-3.9-7.829a.309.309,0,0,1,.618-.037c0,.049.341,4.938,3.649,7.37,1.921,1.413,4.477,1.741,7.6.975a.309.309,0,1,1,.147.6A13.564,13.564,0,0,1,246.3,155.282Z" transform="translate(-237.508 -145.625)"/></g><g transform="translate(18.867)"><path class="f" d="M277.578,130.813a8.863,8.863,0,0,1-5.7,8.28c-.247.1-.5.18-.756.252a8.868,8.868,0,0,1-11.266-8.273c0-.086,0-.172,0-.258,0-.188.006-.374.017-.558a8.863,8.863,0,0,1,17.709.558Z" transform="translate(-259.851 -121.948)"/><g transform="translate(0 8.307)"><path class="h" d="M271.878,144.116c-.247.1-.5.18-.756.252-2.424-5.805-8.407-7.692-11.266-8.273,0-.086,0-.172,0-.258,0-.188.006-.374.017-.558a20.6,20.6,0,0,1,4.246,1.307A14.129,14.129,0,0,1,271.878,144.116Z" transform="translate(-259.851 -135.279)"/></g><g transform="translate(11.037 0.555)"><path class="f" d="M279.513,138.972a.309.309,0,0,1-.092-.6c.248-.077,6.068-1.974,5.305-8.171-.74-6.016-6.636-6.715-6.887-6.742a.309.309,0,0,1,.065-.615c.067.007,6.635.773,7.436,7.282.826,6.714-5.669,8.816-5.735,8.837A.311.311,0,0,1,279.513,138.972Z" transform="translate(-277.563 -122.838)"/></g></g><g transform="translate(10.01 35.98)"><path class="f" d="M245.957,182.235s-.123,1.153-.32,2.481a7.507,7.507,0,0,0,4.455-4.257,5.449,5.449,0,0,0,.268-.771,8.378,8.378,0,0,1-2.253,1.623,15.2,15.2,0,0,1-2.142.92Z" transform="translate(-245.637 -179.688)"/></g><g transform="translate(2.635 32.374)"><path class="i" d="M233.942,175.881a.433.433,0,0,0,.163.094,4.366,4.366,0,0,0,4.339-1.41.388.388,0,0,0-.04-.547l-.005,0a.389.389,0,0,0-.545,0,3.666,3.666,0,0,1-3.575,1.229.356.356,0,0,0-.467.249A.41.41,0,0,0,233.942,175.881Z" transform="translate(-233.802 -173.901)"/></g><g transform="translate(5.083 20.817)"><path class="f" d="M241.163,158.333a.476.476,0,0,0,.677-.567,3.348,3.348,0,0,0-3.714-2.359.476.476,0,0,0,.16.939,2.45,2.45,0,0,1,2.649,1.717A.476.476,0,0,0,241.163,158.333Z" transform="translate(-237.73 -155.355)"/></g><g transform="translate(16.199 32.007)"><path class="i" d="M259.227,174.349a2.873,2.873,0,0,1-3.641-1.036s-.343,1.835,2,2.117a3.5,3.5,0,0,0,2.407-.584Z" transform="translate(-255.569 -173.313)"/></g><g transform="translate(16.884 31.637)"><path class="b" d="M256.686,173.529a.991.991,0,1,0,1.157-.792A.99.99,0,0,0,256.686,173.529Z" transform="translate(-256.668 -172.72)"/></g><g transform="translate(0 22.97)"><path class="g" d="M232.573,158.811s-1.61,4.622-2.779,5.819c0,0-1.018,1.026,1.314,2.013Z" transform="translate(-229.573 -158.811)"/></g><g transform="translate(18.359 26.378)"><path class="i" d="M259.313,168.657a.386.386,0,0,0,.06.014.392.392,0,0,0,.441-.335c.4-2.9,3.416-3.263,3.544-3.276a.391.391,0,0,0-.082-.778c-.037,0-3.756.431-4.239,3.948A.392.392,0,0,0,259.313,168.657Z" transform="translate(-259.035 -164.28)"/><g transform="translate(0.93 1.514)"><path class="i" d="M260.8,167.645a.391.391,0,0,0,.325-.045c.467-.3,1.392.115,1.679.284a.391.391,0,0,0,.4-.673c-.155-.092-1.547-.885-2.5-.269a.391.391,0,0,0,.1.7Z" transform="translate(-260.527 -166.709)"/></g></g></g><g transform="translate(22.542 39.98)"><g transform="translate(0 2.582)"><path class="j" d="M252.972,246.676c-7.963,1.7-15.055,9.451-25.738,10.744-13.924,1.685-16.719-3.781-14.33-8.745a59.106,59.106,0,0,0,5.058-13.491c.916-3.873,1.663-12.935,2.043-19.688.011-.207.006-.846,0-1.425,0-.448,0-.859,0-1.011.108-2.771-1.269-3.538-1.758-4.851-1.7-4.566-3.6-9.793,2.137-11.6a46.1,46.1,0,0,0,10.83-5.335s10.176-1.526,12.422-.851c2.453.739,8.6,1.255,11.042,3.361s4.354,8.957,2.124,16.92c-.14.5-.28.976-.417,1.428-.072.236-.143.464-.213.687-1.8,5.69-3.283,7.549-3.547,13.048-.021.441-.035.907-.04,1.4a9.818,9.818,0,0,0,1.483,4.789C257.256,237.721,259.2,245.346,252.972,246.676Z" transform="translate(-212.139 -190.251)"/></g><g transform="translate(7.863 23.599)"><path class="k" d="M226.6,224.5l-1.844,2.283c0-.448,0-.859,0-1.011l1.35-1.672a.318.318,0,1,1,.494.4Z" transform="translate(-224.758 -223.98)"/></g><g transform="translate(19.239 5.802)"><path class="k" d="M252.346,198.866a17.432,17.432,0,0,1-9.2-2.88.313.313,0,0,1,.367-.507c.057.041,5.733,4.068,12.157,2.324a.314.314,0,0,1,.165.605A13.267,13.267,0,0,1,252.346,198.866Z" transform="translate(-243.013 -195.419)"/></g><g transform="translate(17.759 11.678)"><path class="k" d="M254.854,215.138a.25.25,0,0,1-.043,0c-8.592-1.174-14.07-9.718-14.124-9.8a.313.313,0,1,1,.53-.334c.053.084,5.381,8.385,13.68,9.519a.313.313,0,0,1-.042.623Z" transform="translate(-240.638 -204.849)"/></g><g transform="translate(9.842 38.009)"><path class="k" d="M228.247,266.116a.313.313,0,0,1-.079-.616,34.118,34.118,0,0,0,8.2-3.715,33.709,33.709,0,0,0,13.153-14.5.313.313,0,1,1,.569.262,34.337,34.337,0,0,1-13.414,14.781,34.7,34.7,0,0,1-8.356,3.776A.308.308,0,0,1,228.247,266.116Z" transform="translate(-227.934 -247.105)"/></g><g transform="translate(10.81 50.325)"><path class="k" d="M229.8,275.142a.313.313,0,0,1-.016-.626c.145-.008,14.621-.869,20.27-7.534a.313.313,0,0,1,.477.405c-3.053,3.6-8.531,5.519-12.588,6.492a51.1,51.1,0,0,1-8.126,1.262Z" transform="translate(-229.487 -266.87)"/></g><g transform="translate(18.378)"><path class="j" d="M251.4,191.431c1.431.052,2.862.007,4.293-.04.232-.008.472-.015.715-.027a4.742,4.742,0,0,0,.131-2.583c-.77-2.414-1.7-2.673-1.7-2.673a13.964,13.964,0,0,1-10.715.83s-.99-.305-1.906,1.394a2.755,2.755,0,0,0-.444,2.479C244.994,190.884,248.188,191.315,251.4,191.431Z" transform="translate(-241.632 -186.108)"/></g></g><g transform="translate(61.284 59.39)"><path class="k" d="M279.815,222.31c-.072.236-.143.464-.213.686l-5.2-5.194a.318.318,0,0,1,.449-.451Z" transform="translate(-274.312 -217.258)"/></g><g transform="translate(48.353 76.853)"><path class="k" d="M269.677,252.795a55.236,55.236,0,0,1-16.117-7.514l14.674,1.325c-.021.441-.035.908-.04,1.4A9.821,9.821,0,0,0,269.677,252.795Z" transform="translate(-253.56 -245.281)"/></g><g transform="translate(11.22 92.845)"><path class="f" d="M231.4,293.913a18.964,18.964,0,0,1-5.171,2.317c-14.05,4.47-26.932-2.746-26.932-2.746-.779-3.848-.3-8.22,1-9.821a1.413,1.413,0,0,1-.138-1.248l-6.187-11.47c.15.094,9.705,6.135,16.786,10.414h0c2.04,1.233,3.875,2.319,5.219,3.073a11.658,11.658,0,0,0,7.235.911,35.278,35.278,0,0,0,9.8-3.155s11.965-7.055,14.985-6.811C250.343,275.567,241.848,288.513,231.4,293.913Z" transform="translate(-193.97 -270.946)"/></g><g transform="translate(0 92.064)"><g transform="translate(4.26 67.657)"><path class="g" d="M184.432,378.418s2.359,15.825,1.142,20.973-3.346,6.792-2.629,7.363,2.678.075,3.516-1.552c.738-1.433,2.256-2.686,3.4-5.151s1.937-6.136,2.787-8.08c.737-1.685,2.989-3.025,2.918-5.611-.1-3.8-5.441-8.091-5.441-8.091Z" transform="translate(-182.801 -378.268)"/></g><path class="f" d="M198.27,286.485s1.375-11.5-4.746-15.429c-11.193-7.188-18.382,15.339-17.484,37.51S180.36,336.7,180.36,336.7s2.836,3.775,9.106-.436c0,0-.161-12.92,2.006-20.532S197.55,301.973,198.27,286.485Z" transform="translate(-175.964 -269.693)"/><g transform="translate(11.149 13.326)"><path class="l" d="M195.218,344.045a.319.319,0,0,1-.309-.241c-.029-.115-2.846-11.58.856-22.688,3.807-11.419,4.845-17.739,5.4-22.867.6-5.494,1.429-6.525,2.231-7.111a.319.319,0,1,1,.376.515c-.475.346-1.36.991-1.974,6.665-.559,5.163-1.6,11.524-5.429,23-3.642,10.927-.871,22.217-.842,22.33a.319.319,0,0,1-.231.387A.335.335,0,0,1,195.218,344.045Z" transform="translate(-193.856 -291.078)"/></g><g transform="translate(2.952 64.684)"><path class="l" d="M191.56,373.5c-3.789.963-7.437,1.322-10.756.277,0,0-.568,2.24.962,3.478,1.169.946,7.729,1.07,10.384-1.011A3.116,3.116,0,0,0,191.56,373.5Z" transform="translate(-180.701 -373.497)"/></g></g><g transform="translate(10.006 86.859)"><g transform="translate(0 44.536)"><path class="g" d="M214.965,338.061s-14.06,7.636-17.439,11.706-3.412,6.759-4.3,6.53-1.672-2.094-.876-3.742c.7-1.452.788-3.418,2.07-5.813s3.736-5.239,4.778-7.087c.9-1.6.618-4.207,2.727-5.707,3.1-2.2,9.736-.522,9.736-.522Z" transform="translate(-192.021 -332.811)"/></g><g transform="translate(19.353)"><path class="f" d="M257.545,267.323s8.357-8.016,15.18-5.492c12.476,4.617-1.194,23.913-19.444,36.534s-25.072,13.475-25.072,13.475-4.721.006-5.13-7.536c0,0,10.418-7.644,15.194-13.954S245.605,277.216,257.545,267.323Z" transform="translate(-223.078 -261.34)"/></g><g transform="translate(20.401 8.427)"><path class="l" d="M225.069,311.251c3.954-2.188,11.491-8.534,20.161-16.972,6.484-6.312,13.818-14.115,14.6-16.333.421-1.2.37-2.069-.152-2.588-.781-.777-2.322-.454-3.01-.256a.318.318,0,0,0-.213.414h0a.318.318,0,0,0,.385.2c.678-.193,1.891-.4,2.39.094.414.413.228,1.274,0,1.925-.629,1.789-6.7,8.554-14.441,16.087-6.664,6.486-15.424,14.325-20.026,16.872Z" transform="translate(-224.761 -274.864)"/></g><g transform="translate(18.127 41.556)"><path class="l" d="M223.658,328.054c1.51,3.606,3.418,6.736,6.25,8.757,0,0-1.448,1.8-3.357,1.325-1.458-.365-5.5-5.531-5.439-8.9A3.114,3.114,0,0,1,223.658,328.054Z" transform="translate(-221.111 -328.029)"/></g></g><g transform="translate(29.578 46.095)"><g transform="translate(31.132)"><path class="j" d="M288.256,223.6q-1.436-1.551-2.737-2.942l-.688-.734c-7.509-8.011-11.422-11.863-11.422-11.863s-.531-8.994,4.353-12.142c0,0,15.139,13.9,20.6,24.669C303.35,230.436,296.294,232.278,288.256,223.6Z" transform="translate(-273.392 -195.921)"/></g><g transform="translate(17.986 24.563)"><path class="j" d="M287.982,236.864s-5.237-1.805-16.262-1.487-18.776-.106-19.412,4.566,21.27,6.085,30.456,6.12C293.806,246.106,294.246,239.305,287.982,236.864Z" transform="translate(-252.294 -235.34)"/></g><g transform="translate(17.413 25.374)"><path class="g" d="M255.776,236.932l-3.829-.291-.573,5.812,3.795.642A11.478,11.478,0,0,0,255.776,236.932Z" transform="translate(-251.375 -236.641)"/></g><g transform="translate(0 7.479)"><g transform="translate(10.858 15.007)"><path class="i" d="M246,234.784s-1.181-2.578-2.659-2.766-2.486,2.162-2.486,2.162Z" transform="translate(-240.856 -232.007)"/></g><g transform="translate(4.401 15.141)"><path class="m" d="M236.7,241.8h-3.48a2.735,2.735,0,0,1-2.732-2.732v-4.11a2.734,2.734,0,0,1,2.732-2.731h3.48a2.735,2.735,0,0,1,2.732,2.731v4.11A2.735,2.735,0,0,1,236.7,241.8Zm-3.48-8.17a1.33,1.33,0,0,0-1.33,1.329v4.11a1.331,1.331,0,0,0,1.33,1.329h3.48a1.331,1.331,0,0,0,1.329-1.329v-4.11a1.33,1.33,0,0,0-1.329-1.329Z" transform="translate(-230.493 -232.223)"/></g><g transform="translate(0 12.897)"><path class="h" d="M233.634,242.765a17.351,17.351,0,0,1-10.2,0V228.8a73.364,73.364,0,0,1,10.2,0Z" transform="translate(-223.431 -228.621)"/></g><g transform="translate(3.828)"><path class="b" d="M231.187,219.556s-2.729-1.1-1.089-4.053,3.529-5.26,1.759-7.579c0,0,2.122.642,2.291,3.941S230.214,217.435,231.187,219.556Z" transform="translate(-229.573 -207.924)"/></g><g transform="translate(8.911 15.735)"><path class="g" d="M246.632,241.3s-5.559,2.3-7.364-.017c-2.329-2.993-2-6.436.9-7.922,1.785-.914,5.186,1.925,7.422,2.039C247.594,235.395,248.889,240.294,246.632,241.3Z" transform="translate(-237.731 -233.175)"/></g></g><g transform="translate(42.571 24.005)"><path class="k" d="M301.529,237.687a.32.32,0,0,1-.284.172.331.331,0,0,1-.146-.037,28.054,28.054,0,0,0-8.662-2.644l-.688-.734c.489.062,1.019.139,1.582.236.507.086,1.04.188,1.589.308a26.562,26.562,0,0,1,6.474,2.268A.319.319,0,0,1,301.529,237.687Z" transform="translate(-291.749 -234.444)"/></g><g transform="translate(43.87 23.695)"><path class="k" d="M294.151,235.133a.318.318,0,0,1-.095-.622,16.387,16.387,0,0,1,5.77-.5.319.319,0,0,1-.055.635,16.008,16.008,0,0,0-5.525.475A.336.336,0,0,1,294.151,235.133Z" transform="translate(-293.833 -233.946)"/></g></g><g transform="translate(4.541 50.528)"><g transform="translate(1.368)"><path class="j" d="M210.782,216.971a49.3,49.3,0,0,1-7.764,7,56.642,56.642,0,0,1-7.264,4.574q-.306.158-.611.309c-5.2,2.587-10.2,3.561-9.654-2.188.549-5.77,21.9-23.634,21.9-23.634l5.816,3.249S216.931,209.857,210.782,216.971Z" transform="translate(-185.447 -203.036)"/></g><g transform="translate(10.1 20.622)"><g transform="translate(0 0.598)"><path class="k" d="M201.034,241.383q-.306.158-.611.309c-.026-.28-.06-.561-.1-.836a19.983,19.983,0,0,0-.841-3.339.319.319,0,0,1,.6-.218,19.436,19.436,0,0,1,.644,2.251c.094.409.178.851.247,1.306C200.991,241.03,201.016,241.206,201.034,241.383Z" transform="translate(-199.459 -237.089)"/></g><g transform="translate(0.857)"><path class="k" d="M201.153,240.769a.319.319,0,0,1-.285-.459,14.525,14.525,0,0,0,.783-3.885.319.319,0,0,1,.636.046,14.813,14.813,0,0,1-.847,4.121A.318.318,0,0,1,201.153,240.769Z" transform="translate(-200.835 -236.13)"/></g></g><g transform="translate(0 19.238)"><path class="j" d="M186.085,235.119s-7.168,8.165,1.3,24c.334.625,1.12,1.513,2.076,3.1a1.838,1.838,0,0,0,1.863.884s5.6-.487,4.328-3.991A53.974,53.974,0,0,1,193.313,251c-1.347-5.622,2.7-9.7-.366-14.759C190.983,233,188.281,233.648,186.085,235.119Z" transform="translate(-183.251 -233.91)"/></g><g transform="translate(6.678 42.912)"><path class="g" d="M205.979,287.5c-.046.5-.089,1.032-.151,1.457-.117.8-.3,1.244-.7.479a2.838,2.838,0,0,1-.22-.645c-.344-1.475-.231-4.071-.39-4.636-.18-.643-.93-2.472-1-2.575a9.443,9.443,0,0,1,.411,1.884c.037.647,0,1.433,0,3.026a12.858,12.858,0,0,1-.113,1.935v0c-.113.675-.332,1.019-.736.551a2.414,2.414,0,0,1-.409-1.115c-.218-1.244-.14-3-.255-3.576a11,11,0,0,0-.82-2.094,6.937,6.937,0,0,1,.37,1.757,15.178,15.178,0,0,1,.083,3.533c-.077.375-.22.551-.462.346a2.968,2.968,0,0,1-.824-1.325,8.953,8.953,0,0,1-.389-1.949,4.9,4.9,0,0,0-.637-2.018,12.656,12.656,0,0,1,.35,3.335c-.057.477-.232.638-.562.275a13.108,13.108,0,0,1-1.518-3.924c-.008-.027-.014-.054-.021-.08s-.013-.05-.019-.073c-.03-.118-.046-.185-.046-.185h0a20.509,20.509,0,0,0-.6-2.122,3.34,3.34,0,0,0-1.958-2.17c-2.8-1.04-1.294-7.116,3.69-5.381,0,0,1.262,1.023,2.552,2.008h0a24.8,24.8,0,0,1,2.913,4.442,31.735,31.735,0,0,1,1.406,5.148A16.209,16.209,0,0,1,205.979,287.5Z" transform="translate(-193.968 -271.902)"/></g></g></g><g transform="translate(103.796 105.078)"><path class="c" d="M333.62,303.146a31.133,31.133,0,0,0,.131-6.921,16.248,16.248,0,0,0-11.565-14.3,34.2,34.2,0,0,0-19.525-.37c-.527.16-1.056.335-1.584.529-15.338,5.64-13.082,34.964-10.6,51.431s2.707,26.391,9.7,27.97a52.576,52.576,0,0,0,12.025.636c.859-.031,1.7-.07,2.489-.115,0,0,8.693.756,13.152-3.066S333.62,303.146,333.62,303.146Z" transform="translate(-288.694 -280.296)"/><g transform="translate(0 1.262)"><path class="e" d="M312.2,362.887a52.572,52.572,0,0,1-12.025-.636c-6.993-1.579-7.219-11.5-9.7-27.97s-4.737-45.791,10.6-51.431c.528-.194,1.057-.37,1.584-.529,2.613.624,5.016,2.358,6.312,6.169C312.487,298.825,306.907,334.736,312.2,362.887Z" transform="translate(-288.694 -282.321)"/></g><g transform="translate(1.739 36.011)"><path class="c" d="M304.595,381.17a7.916,7.916,0,0,1-7.178-3.817c-2.369-3.913-5.786-37.49-5.931-38.918a.319.319,0,0,1,.634-.064c.035.348,3.547,34.86,5.842,38.652a7.287,7.287,0,0,0,6.891,3.507,13.733,13.733,0,0,0,4.348-.854.319.319,0,1,1,.242.589,14.123,14.123,0,0,1-4.556.9C304.789,381.169,304.691,381.17,304.595,381.17Z" transform="translate(-291.484 -338.085)"/></g><g transform="translate(5.88 4.371)"><path class="c" d="M310.181,294a.319.319,0,0,1-.318-.318,7.139,7.139,0,0,0-2.415-4.812,4.321,4.321,0,0,0-3.86-.77c-3.725.89-4.817,5.6-4.828,5.652a.319.319,0,1,1-.622-.138c.046-.209,1.186-5.15,5.3-6.133a4.934,4.934,0,0,1,4.4.89,7.73,7.73,0,0,1,2.657,5.313A.319.319,0,0,1,310.181,294Z" transform="translate(-298.13 -287.311)"/></g><g transform="translate(8.401 7.82)"><path class="c" d="M310.036,298.058s-.251-5.635-4.5-5.188-4.458,9.743-.655,10.945C310.44,305.573,310.036,298.058,310.036,298.058Z" transform="translate(-302.175 -292.845)"/></g></g><g transform="translate(21.102)"><g transform="translate(6.509 26.867)"><g transform="translate(1.162)"><path class="c" d="M195.227,164.014c-3.929,1.007-13.538,3.608-17.678,3.387a38.879,38.879,0,0,0-7.453.459c-.756.115-1.214.2-1.214.2a15.758,15.758,0,0,1-.586-4.412,16.854,16.854,0,0,1,1.467-.863c6.522-3.445,20.126-6.313,35.573-8.006C207.2,162.116,199.073,163.024,195.227,164.014Z" transform="translate(-168.297 -154.783)"/></g><g transform="translate(2.059 10.279)"><path class="c" d="M170.023,176.519s-1.305,3.408,1.656,4,3.76-2.486,7.846-3.017,6.742-3.557,5.945-5.787S170.023,176.519,170.023,176.519Z" transform="translate(-169.736 -171.279)"/></g><g transform="translate(0 8.006)"><path class="c" d="M170.369,186.672c-.424,2.263-3.2,1.044-3.2,1.044l-.739-18.334a10.253,10.253,0,0,1,1.162-.888,16.854,16.854,0,0,1,1.467-.863.96.96,0,0,1,.512.108c.637.426.412,2.836-.107,4.5a2.152,2.152,0,0,0-.074.459C169.19,175.3,170.765,184.562,170.369,186.672Z" transform="translate(-166.432 -167.631)"/></g></g><path class="f" d="M198.716,149.266c-5.522,9.566-33.338,14.352-37.98,8.541-2.261-2.83-2.384-6.881-1.914-10.294.049-.36.105-.713.166-1.056a30.754,30.754,0,0,1,1.481-5.432s.352,3.051,10.471.373a34.439,34.439,0,0,1,3.923-.768c.266-.038.538-.075.813-.108C186.819,139.142,203.489,141,198.716,149.266Z" transform="translate(-156.971 -122.385)"/><g transform="translate(1.85 18.136)"><path class="h" d="M175.658,147.9c-1.333,2.045-4.024,3.155-7.783,3.206h-.253c-4.748,0-7.347-1.855-8.667-3.346.049-.36.105-.713.166-1.056,1.024,1.4,3.5,3.677,8.745,3.6,3.48-.048,5.945-1.032,7.127-2.845,1.064-1.636,1.062-3.905,0-6.587.266-.038.538-.075.813-.108C176.894,143.626,176.845,146.08,175.658,147.9Z" transform="translate(-158.955 -140.772)"/></g><path class="f" d="M208.6,132.949s6.474-1.494,6.74-4.918-14.305,1.791-17.013-4.758,3.1-13,5.561-11.342c2.919,1.964-2.522,3.832-2.283,7.378.2,2.947,2.416,5.348,8.07,4.884s8.288.02,8.665,2.623c.41,2.833-3.67,6.449-6.4,7.056S208.6,132.949,208.6,132.949Z" transform="translate(-171.68 -111.667)"/><g transform="translate(0 11.882)"><g transform="translate(0 0.252)"><path class="f" d="M162.619,134.6a17.632,17.632,0,0,0-5.756-3.422.66.66,0,0,0-.855.79l1.493,5.7S162.1,137.354,162.619,134.6Z" transform="translate(-155.986 -131.139)"/><path class="l" d="M159.255,137.706c-.459-1.274-.736-2.645-1.277-4.146,0,0,3.728,1.508,4.1,2.6C162.083,136.157,160.419,137.874,159.255,137.706Z" transform="translate(-156.737 -132.052)"/></g><g transform="translate(12.598)"><path class="f" d="M176.2,133.764a17.642,17.642,0,0,1,5.849-3,.734.734,0,0,1,.895.933l-1.656,5.138S176.536,136.547,176.2,133.764Z" transform="translate(-176.203 -130.736)"/><path class="l" d="M180.914,137.1c.543-1.241.909-2.59,1.549-4.053,0,0-3.819,1.257-4.267,2.319C178.2,135.363,179.743,137.187,180.914,137.1Z" transform="translate(-176.954 -131.606)"/></g><path class="f" d="M160.719,136.693s-3.948,1.241-2.913,5.932a5.673,5.673,0,0,0,5.725,4.483s1.058,1.4,4,1.574c1.885.113,4.581-.431,5.063-1.877,0,0,3.736-2.063,3.146-5.585C175.086,137.317,169.633,133.244,160.719,136.693Z" transform="translate(-156.607 -132.491)"/></g><path class="f" d="M159.056,161.741s1.381,9.318,2.283,14.268c.675,3.705.712,8.553,3.052,9.443s1.885-2.522,1.646-5.309-1.163-7.008-.637-9.5S163.178,160.608,159.056,161.741Z" transform="translate(-157.143 -130.495)"/><path class="f" d="M177.826,162.832s1.911,4.123.743,5.724-3.838,1.769-5.679,2.451-2.656,2.383-1.807,3.872,4.353-1.218,6.8-1.749,5.308-.9,5.893-2.654,1.221-6.776-1.327-8.113S178.622,160.921,177.826,162.832Z" transform="translate(-161.549 -130.401)"/><path class="f" d="M209.838,146.151s4.191-1.713,6.1,1.35c3,4.817,1.692,8.035-4.058,9.761s-12.263,3.869-7.855-1.091A28.207,28.207,0,0,0,209.838,146.151Z" transform="translate(-173.543 -124.483)"/><g transform="translate(10.053 22.613)"><path class="l" d="M174.533,147.975a7.794,7.794,0,0,0-2.218.372c-.729.482.758,1.752,1.581,1.752a1.6,1.6,0,0,0,1.353-1.672A.558.558,0,0,0,174.533,147.975Z" transform="translate(-172.12 -147.956)"/></g><path class="l" d="M177.033,145.159a.089.089,0,0,0-.093.148,1.953,1.953,0,0,0,1.983.493,1.359,1.359,0,0,0,.92-1.266.089.089,0,0,0-.171-.04,1.451,1.451,0,0,1-1.138.895A2.619,2.619,0,0,1,177.033,145.159Z" transform="translate(-163.872 -124.018)"/><path class="l" d="M166.012,146.576a.089.089,0,0,0-.119.129,1.955,1.955,0,0,0,1.859.85,1.36,1.36,0,0,0,1.138-1.075.089.089,0,0,0-.161-.071,1.45,1.45,0,0,1-1.284.67A2.621,2.621,0,0,1,166.012,146.576Z" transform="translate(-159.713 -124.744)"/></g><g transform="translate(68.747 28.074)"><g transform="translate(0.716)"><path class="b" d="M237.648,156.78c-1.363-.333-2.836.732-3.574,2.459a4.824,4.824,0,0,0-.2.528c-.044.13-.08.264-.113.4a5.217,5.217,0,0,0,.124,3.054,2.623,2.623,0,0,0,1.777,1.737,2.388,2.388,0,0,0,1.737-.28,4.011,4.011,0,0,0,1.306-1.218,5.594,5.594,0,0,0,.842-1.891c.018-.077.034-.153.051-.229a5.417,5.417,0,0,0,.082-.562C239.883,158.832,239.055,157.121,237.648,156.78Zm1.383,4.665c-.477,1.97-1.932,3.314-3.242,3a2.113,2.113,0,0,1-1.405-1.411,4.7,4.7,0,0,1-.105-2.739,5.671,5.671,0,0,1,.2-.636l0,0,0-.007a4.026,4.026,0,0,1,1.677-2.129,1.883,1.883,0,0,1,1.366-.224C238.833,157.613,239.511,159.474,239.031,161.446Z" transform="translate(-233.596 -156.72)"/></g><g transform="translate(0 2.512)"><path class="b" d="M233.929,161.3a.265.265,0,0,1-.232.012c-.075-.03-.459-.148-.753.381a.266.266,0,0,1-.464-.259,1.126,1.126,0,0,1,1.426-.611.266.266,0,0,1,.024.476Z" transform="translate(-232.446 -160.75)"/></g><g transform="translate(6.224 3.698)"><path class="b" d="M252.3,163.548c-.116.155-.227.3-.334.444a16.51,16.51,0,0,0-1.829-.468q-.341-.069-.674-.121a17.508,17.508,0,0,0-6.534.176c-.1.024-.153.04-.158.04a.265.265,0,0,1-.148-.51c.009,0,.145-.039.387-.093a18.351,18.351,0,0,1,6-.212c.4.05.8.116,1.217.2A16.836,16.836,0,0,1,252.3,163.548Z" transform="translate(-242.435 -162.654)"/></g></g></g><g transform="translate(24.19 136.288)"><g transform="translate(0 38.703)"><g transform="translate(9.089 126.073)"><ellipse class="a" cx="24.969" cy="2.839" rx="24.969" ry="2.839"/></g><g transform="translate(36.733 37.445)"><path class="n" d="M104.169,332c-1.174,10.714-7.005,18.367-16.635,17.485,0,0-7.484-6.569-2.918-17.483,1.5-3.581,3.5-7.4,5.282-11.305,3.645-7.992,6.34-16.31,1.773-23.526,0,0,8.713,5.51,11.889,22.174A42.975,42.975,0,0,1,104.169,332Z" transform="translate(-83.14 -297.17)"/><g class="o" transform="translate(0 23.526)"><path class="p" d="M104.169,346.228c-1.174,10.714-7.005,18.367-16.635,17.485,0,0-7.484-6.569-2.918-17.483,1.5-3.581,3.5-7.4,5.282-11.305-.234,3.5-.063,9.771,3.867,11.536C97.105,347.959,101.394,347.951,104.169,346.228Z" transform="translate(-83.14 -334.924)"/></g><g transform="translate(5.745 14.529)"><path class="p" d="M93.723,357.846a.4.4,0,0,1-.442-.251c-2.73-6.967,1.094-13.389,5.142-20.188q.436-.732.872-1.469c4.133-7,1.13-14.821,1.1-14.9a.4.4,0,0,1,.751-.3c.132.333,3.184,8.256-1.154,15.607q-.437.739-.874,1.472c-3.944,6.624-7.669,12.881-5.084,19.48a.4.4,0,0,1-.229.523A.383.383,0,0,1,93.723,357.846Z" transform="translate(-92.36 -320.486)"/></g></g><g transform="translate(0 38.349)"><path class="n" d="M53.4,348.106c-.178.275-.357.525-.532.751a7.736,7.736,0,0,1-1.79,1.756s-16.233-3.427-13.568-17.11a24.149,24.149,0,0,0,.434-4.015c.328-12.386-8.294-24.634-13.76-30.866,0,0,16.717,3.756,26.894,24.712q.693,1.426,1.263,2.764C57.509,338.189,55.492,344.877,53.4,348.106Z" transform="translate(-24.19 -298.621)"/><g transform="translate(11.528 10.566)"><path class="p" d="M60.378,354.5c-.178.274-.357.525-.532.751-9.252-1.236-9.525-11.127-9.745-19.105-.05-1.825-.1-3.55-.241-5.1-.778-8.37-6.991-14.716-7.052-14.779a.4.4,0,1,1,.571-.568c.265.267,6.479,6.618,7.285,15.274.145,1.573.194,3.311.244,5.15C51.135,344.314,51.39,353.595,60.378,354.5Z" transform="translate(-42.69 -315.577)"/></g><g class="o" transform="translate(13.03 27.476)"><path class="p" d="M61.285,364.723c-.178.275-.357.525-.532.751a7.736,7.736,0,0,1-1.79,1.756S42.731,363.8,45.4,350.12a24.149,24.149,0,0,0,.434-4.015c1.6,2.153,4,4.432,7.054,4.488,4.065.076,6.34-4.886,7.343-7.879C65.389,354.806,63.372,361.495,61.285,364.723Z" transform="translate(-45.101 -342.714)"/></g></g><g transform="translate(18.54)"><path class="n" d="M78.472,294.73a47.3,47.3,0,0,1-.457,5.289c-2.032,14.815,1.838,19.6-1.712,25.091-1.605,2.484-2.271,3.113-5,2.989-.373-.016-.743-.047-1.106-.087a23.1,23.1,0,0,1-5.2-1.224s-8.883-3.069-6.461-24.713c.276-2.465.513-4.63.712-6.553,1.547-14.962.711-15.338-3.3-29.336a53.272,53.272,0,0,1,0-29.105,59.98,59.98,0,0,0,9.692,30.3C74.067,279.843,78.729,284.1,78.472,294.73Z" transform="translate(-53.944 -237.079)"/><g class="o" transform="translate(4.176 57.651)"><path class="p" d="M80.54,334.885c-2.032,14.815,1.838,19.6-1.712,25.091-1.605,2.484-2.271,3.113-5,2.989-.373-.016-.743-.047-1.106-.087a23.1,23.1,0,0,1-5.2-1.224s-8.883-3.069-6.461-24.713c.276-2.465.513-4.63.712-6.553.879,2.184,2.856,5.618,6.653,5.9,4.487.338,10.077-2.7,12.568-6.694A47.3,47.3,0,0,1,80.54,334.885Z" transform="translate(-60.645 -329.597)"/></g><g transform="translate(6.557 30.878)"><path class="p" d="M75.271,346.773c-.373-.016-.743-.047-1.107-.087-1.452-1.973-3.26-5.4-4.734-11.211-1.607-6.341-.785-11.523.087-17.01.712-4.488,1.449-9.128.866-14.7-1.265-12.051-5.745-16.4-5.791-16.438a.4.4,0,0,1,.553-.589c.192.179,4.741,4.552,6.041,16.944.6,5.673-.15,10.367-.871,14.907-.859,5.4-1.668,10.5-.1,16.684C71.823,341.617,73.835,345.019,75.271,346.773Z" transform="translate(-64.466 -286.632)"/></g></g><g transform="translate(13.329 86.131)"><path class="h" d="M87.038,375.3a4.1,4.1,0,0,1-.068.579l-.511,3.363-.154,1.013-.077.5-.019.128-.453,2.973-.1.632-.009.059-.229,1.517-3.314,21.8-.229,1.517-.065.429-.1.633-.416,2.731-.037.242-.1.632-.1.642-.221,1.458a2.273,2.273,0,0,1-2.248,1.93H54.012a2.271,2.271,0,0,1-2.245-1.93l-.222-1.458-.1-.642-.1-.632-.037-.242-.416-2.731-.1-.633-.065-.429-.229-1.517-3.314-21.8-.229-1.517-.009-.059-.1-.632-.452-2.973-.019-.128-.077-.5-.154-1.013-.511-3.363a4.1,4.1,0,0,1-.067-.579Z" transform="translate(-45.581 -375.302)"/><g transform="translate(0.732 4.954)"><path class="m" d="M86.748,383.253l-.077.5-.019.128h-39.8l-.019-.128-.077-.5Z" transform="translate(-46.756 -383.253)"/></g><g transform="translate(1.281 8.56)"><path class="m" d="M86.532,389.039l-.1.632h-38.7l-.1-.632Z" transform="translate(-47.636 -389.039)"/></g><g transform="translate(5.222 34.513)"><path class="m" d="M84.974,430.688l-.1.632H54.057l-.1-.632Z" transform="translate(-53.961 -430.688)"/></g><g transform="translate(5.771 38.118)"><path class="m" d="M84.757,436.474l-.1.632H54.937l-.1-.632Z" transform="translate(-54.842 -436.474)"/></g></g></g><g transform="translate(209.83)"><g transform="translate(9.432 165.519)"><path class="a" d="M420.671,443.128c0,1.4-9.986,2.536-22.3,2.536s-22.3-1.135-22.3-2.536,9.986-2.536,22.3-2.536S420.671,441.727,420.671,443.128Z" transform="translate(-376.061 -440.592)"/></g><g transform="translate(13.219 129.837)"><path class="h" d="M419.174,383.331a3.786,3.786,0,0,1-.06.517l-.457,3-.138.9-.069.451-.017.115-.4,2.656-.085.565-.009.052-.2,1.355-2.96,19.474-.2,1.355-.058.384-.085.565-.371,2.439-.033.217-.086.565-.087.573-.2,1.3a2.03,2.03,0,0,1-2.007,1.724h-21.97a2.029,2.029,0,0,1-2.005-1.724l-.2-1.3-.088-.573-.085-.565-.033-.217-.371-2.439-.085-.565-.059-.384-.2-1.355-2.96-19.474-.2-1.355-.008-.052-.085-.565-.4-2.656-.017-.115-.069-.451-.138-.9-.457-3a3.693,3.693,0,0,1-.06-.517Z" transform="translate(-382.139 -383.331)"/><g transform="translate(0.655 4.426)"><path class="m" d="M418.915,390.434l-.069.45-.017.115H383.275l-.017-.115-.069-.45Z" transform="translate(-383.19 -390.434)"/></g><g transform="translate(1.145 7.647)"><path class="m" d="M418.722,395.6l-.086.565H384.061l-.085-.565Z" transform="translate(-383.976 -395.602)"/></g><g transform="translate(4.665 30.831)"><path class="m" d="M417.33,432.809l-.086.565H389.711l-.085-.565Z" transform="translate(-389.626 -432.809)"/></g><g transform="translate(5.155 34.052)"><path class="m" d="M417.137,437.978l-.085.565H390.5l-.085-.565Z" transform="translate(-390.412 -437.978)"/></g></g><path class="n" d="M419.964,259.363c-8.8-2.319-22.249,15.95-26.333,33.761v-25.95A53.541,53.541,0,0,1,406.7,252.268c11.052-9,21.225-20.552,12.408-22.875-8.263-2.177-20.62,13.792-25.481,30.492V226.561a35.284,35.284,0,0,1,7.486-8.147c6.965-5.673,13.376-12.952,7.82-14.416-4.822-1.271-11.858,7.266-15.305,16.894v-10.8a51.283,51.283,0,0,1,3.586-12.992c5.123-11.3,7.89-22.951,1.136-22.084s-11.143,21-7.447,36.456v5.558c-2.5-11.31-11.065-23.025-16.657-21.552-5.556,1.464.855,8.743,7.82,14.416a32.086,32.086,0,0,1,8.837,10.533v26.253c-4.005-17.9-17.548-36.376-26.4-34.045-8.817,2.322,1.356,13.873,12.407,22.874,8.351,6.8,12.3,13.176,13.989,16.642v31.481c-4.28-17.573-17.478-35.307-26.157-33.022-8.817,2.322-1.256,10.764,11.165,20.974a58.636,58.636,0,0,1,14.993,18.242V304.8h2.725V298.75c1.728-3.494,5.676-9.794,13.925-16.513C418.608,273.236,428.781,261.685,419.964,259.363Z" transform="translate(-360.925 -174.968)"/><g transform="translate(9.006 45.034)"><path class="p" d="M395.5,275.091a.306.306,0,0,1-.285-.2,65.842,65.842,0,0,0-19.717-27.1.305.305,0,0,1,.362-.491,66.492,66.492,0,0,1,19.925,27.379.305.305,0,0,1-.176.393A.3.3,0,0,1,395.5,275.091Z" transform="translate(-375.377 -247.239)"/></g><g transform="translate(30.888 3.765)"><path class="p" d="M410.8,205.914h-.023a.3.3,0,0,1-.281-.327c1.138-14.935,6.082-24.321,6.132-24.414a.3.3,0,1,1,.538.287c-.049.092-4.935,9.375-6.062,24.173A.3.3,0,0,1,410.8,205.914Z" transform="translate(-410.493 -181.011)"/></g><g transform="translate(33.936 31.934)"><path class="p" d="M415.691,241.349a.313.313,0,0,1-.115-.022.306.306,0,0,1-.167-.4c3.07-7.5,11.44-14.571,11.524-14.642a.3.3,0,1,1,.391.467c-.083.07-8.339,7.041-11.351,14.406A.3.3,0,0,1,415.691,241.349Z" transform="translate(-415.386 -226.216)"/></g><g transform="translate(33.936 61.323)"><path class="p" d="M415.691,299.256a.312.312,0,0,1-.094-.015.3.3,0,0,1-.2-.384c5.183-15.993,18.76-25.332,18.9-25.425a.305.305,0,1,1,.342.505c-.135.091-13.541,9.319-18.658,25.108A.305.305,0,0,1,415.691,299.256Z" transform="translate(-415.386 -273.379)"/></g><g transform="translate(33.401 90.523)"><path class="p" d="M414.831,348.684a.306.306,0,0,1-.282-.421c6.358-15.489,20.657-27.828,20.8-27.951a.3.3,0,0,1,.4.464c-.143.122-14.331,12.369-20.632,27.719A.305.305,0,0,1,414.831,348.684Z" transform="translate(-414.526 -320.239)"/></g><g transform="translate(9.006 81.424)"><path class="p" d="M395.5,334a.3.3,0,0,1-.284-.194A69.35,69.35,0,0,0,375.5,306.185a.3.3,0,1,1,.37-.485,69.983,69.983,0,0,1,19.92,27.881.3.3,0,0,1-.173.4A.3.3,0,0,1,395.5,334Z" transform="translate(-375.377 -305.638)"/></g><g transform="translate(16.223 25.161)"><path class="p" d="M399.055,230.577a.306.306,0,0,1-.285-.2c-3.479-9.113-11.59-14.42-11.671-14.472a.3.3,0,0,1,.33-.513c.083.054,8.359,5.462,11.911,14.768a.305.305,0,0,1-.176.394A.3.3,0,0,1,399.055,230.577Z" transform="translate(-386.959 -215.347)"/></g></g></g></g></svg>