<svg xmlns="http://www.w3.org/2000/svg" width="156.974" height="219.681" viewBox="0 0 156.974 219.681">
  <g id="Group_9255" data-name="Group 9255" transform="translate(-269.113 -20.736)">
    <path id="Path_46158" data-name="Path 46158" d="M382.629,100.418c2.4-7.43,2.836-15.371,2.922-23.2a34.064,34.064,0,0,0-.679-8.6,12.161,12.161,0,0,0-4.459-7.119,8.811,8.811,0,0,0-8.02-1.047c-1.823-5.332-7.276-8.509-12.656-9.694s-10.97-.855-16.412-1.693a38.913,38.913,0,0,1-11.259-3.556c-5.171-2.551-10.366-6.378-16.037-5.487a14.471,14.471,0,0,0-6.319,2.915,17.427,17.427,0,0,0-6.94,10.353c-.8,4.211.7,8.995,4.2,11.329-5.9,3.432-8.321,11.444-6.685,18.2s6.617,12.253,12.373,15.937c1.178.753,2.565,1.468,3.9,1.073" fill="#cdd8e7"/>
    <path id="Path_46159" data-name="Path 46159" d="M331.638,56.154a27.63,27.63,0,0,0-10.031-2.812,13.163,13.163,0,0,0-5.89.621,6.5,6.5,0,0,0-4.011,4.133c-.753,2.807,1,5.7,3.129,7.674a13.908,13.908,0,0,0-7.764,4.768,11.586,11.586,0,0,0-2.475,8.688,18.461,18.461,0,0,0,2.186,5.9,24.772,24.772,0,0,0,4.928,6.916,18.668,18.668,0,0,0,12.508,4.476,35.352,35.352,0,0,0,13.189-2.906" fill="#cdd8e7" opacity="0.16" style="mix-blend-mode: multiply;isolation: isolate"/>
    <path id="Path_46160" data-name="Path 46160" d="M295.81,213.137a93.728,93.728,0,0,0,26.153-25.26L307.73,175.965a44.294,44.294,0,0,1-13.771,8.6" fill="#f3a994"/>
    <path id="Path_46161" data-name="Path 46161" d="M416.776,181.665c-4.179-6.5-7.92-13.268-11.535-20.121-1.852-3.05-3.657-6.132-5.488-9.192-3.921-6.371-8.193-14.176-15.921-16.273-7.644-2.074-15.586.31-23.287.583-.5.018.279-18.14-2.293-19.56-3.458-1.909-15.74,5.361-19.018,7a86.724,86.724,0,0,1,.452,15.368c-10.274.85-18.392,4.939-24.442,13.13q-8.623,11.673-16.1,24.142a3.721,3.721,0,0,0-.637,1.574,3.552,3.552,0,0,0,.512,1.811,32.939,32.939,0,0,0,16.023,15.223,2.7,2.7,0,0,1,1.444,1.058,2.544,2.544,0,0,1,.189,1.151,128.074,128.074,0,0,1-3.816,31.954,3,3,0,0,0,.067,2.38,2.907,2.907,0,0,0,1.473.946,118.066,118.066,0,0,0,42.47,7.58c10.744-.063,28.992-.079,37.114-8.649a126.083,126.083,0,0,1-5.909-38.235,50.253,50.253,0,0,0,28.643-11.817Z" fill="#f8ad94"/>
    <path id="Path_46162" data-name="Path 46162" d="M411.425,178.021c-1.271-2.143-3.637-6.824-6.222-7.645-2.784-.885-5.861,1.96-7.79,3.691-2.8,2.518-9.154,7.369-9.421,11.434-.252,3.834,3.761,10.3,5.1,13.945a339.191,339.191,0,0,0-57.714-1.18,37.129,37.129,0,0,0,1.54,15.727c5.775,2.013,15.821,4.372,17.356,4.738a132.526,132.526,0,0,0,22.94,3.414,115.245,115.245,0,0,0,23-.9c7.977-1.14,13.472-4.008,20.615-7.483C432.884,207.9,415.151,184.3,411.425,178.021Z" fill="#f8ad94"/>
    <path id="Path_46163" data-name="Path 46163" d="M399.753,152.352c-3.921-6.371-8.193-14.176-15.921-16.273-5.461-1.481-11.073-.689-16.642-.015a60.782,60.782,0,0,1-19.78,21.718,47.1,47.1,0,0,1-13.388-17.463A30.946,30.946,0,0,0,315.244,152.6q-8.623,11.673-16.1,24.142a3.721,3.721,0,0,0-.637,1.574,3.552,3.552,0,0,0,.512,1.811,32.939,32.939,0,0,0,16.023,15.223,2.7,2.7,0,0,1,1.444,1.058,2.544,2.544,0,0,1,.189,1.151,128.074,128.074,0,0,1-3.816,31.954,3,3,0,0,0,.067,2.38,2.907,2.907,0,0,0,1.473.946,118.066,118.066,0,0,0,42.47,7.58c10.744-.063,28.992-.079,37.114-8.649a126.083,126.083,0,0,1-5.909-38.235,50.253,50.253,0,0,0,28.643-11.817l.054-.049c-4.179-6.5-7.92-13.268-11.535-20.121C403.389,158.494,401.584,155.412,399.753,152.352Z" fill="#ffd000"/>
    <g id="Group_9232" data-name="Group 9232">
      <path id="Path_46164" data-name="Path 46164" d="M316.581,202.46c-.065,1.045-.166,1.939-.257,2.669-.059.563-.119,1.123-.178,1.687a2.506,2.506,0,0,0-.026.6,2.37,2.37,0,0,0,.135-.578c.079-.476.158-.949.237-1.423q.1-1.858.15-3.72C316.621,201.945,316.6,202.22,316.581,202.46Z" fill="#bf848c"/>
      <path id="Path_46165" data-name="Path 46165" d="M316.885,202.49c.1-1.043.254-2.23.319-3.548.2-2.634.29-5.777.327-9.265.009-3.632.019-7.393.03-11.337.038-4.017.2-7.838.495-11.3.207-1.724.341-3.372.625-4.891.128-.761.232-1.5.367-2.2l.447-2.012c.248-1.292.622-2.421.9-3.426.148-.5.272-.971.409-1.4l.422-1.148c.189-.533.378-1.064.567-1.6a2.474,2.474,0,0,0,.165-.573,2.407,2.407,0,0,0-.266.53c-.222.524-.443,1.043-.665,1.566l-.469,1.138c-.152.422-.291.891-.454,1.39a35.631,35.631,0,0,0-.989,3.427q-.241,1-.485,2.019c-.146.706-.261,1.449-.4,2.214-.306,1.527-.457,3.182-.679,4.916-.329,3.479-.5,7.318-.54,11.344,0,3.945.008,7.707.012,11.34-.008,3.481-.061,6.616-.209,9.243-.031,1.012-.108,1.92-.177,2.772q-.048,1.86-.15,3.72l.043-.253C316.658,204.428,316.79,203.535,316.885,202.49Z" fill="#bf848c"/>
      <path id="Path_46166" data-name="Path 46166" d="M375.075,153.188a30.865,30.865,0,0,1,1.44-12.763,22.837,22.837,0,0,1,2.512-5.1c-.112-.007-.225-.012-.337-.018a22.481,22.481,0,0,0-2.538,4.993,30.761,30.761,0,0,0-1.578,12.929,82.17,82.17,0,0,0,3.073,15.686,142.77,142.77,0,0,0,10.465,26.842c0-.3-.012-.6-.013-.9a151.517,151.517,0,0,1-9.926-26.084A84.12,84.12,0,0,1,375.075,153.188Z" fill="#bf848c"/>
      <path id="Path_46167" data-name="Path 46167" d="M353.4,232.572a152.033,152.033,0,0,1-39.547-7.371c-.028.13-.051.261-.079.391a147.91,147.91,0,0,0,39.6,7.525,128.36,128.36,0,0,0,22.881-1.011A108.952,108.952,0,0,0,393,228.384c-.036-.128-.076-.255-.112-.384a111.518,111.518,0,0,1-16.7,3.608A130.661,130.661,0,0,1,353.4,232.572Z" fill="#bf848c"/>
    </g>
    <path id="Path_46168" data-name="Path 46168" d="M309.3,188.744c-1.622-14.522-3.354-29.031-5.031-43.545q-1.258-10.887-2.516-21.773c-.232-2.012.017-5.306-1.6-6.681-1.687-1.434-6.756-.922-8.868-1.144a1.414,1.414,0,0,0-.967.129,1.647,1.647,0,0,0-.5.757c-8.049,19.2-12.011,41.62-15.062,62.342-.786,5.341-1.444,10.907.022,16.076a38.832,38.832,0,0,0,3.757,8.19,34.451,34.451,0,0,0,5.4,7.883c2.235,2.217,5.236,3.749,8.242,3.36,2.632-.341,4.924-2.074,6.943-3.937a49.775,49.775,0,0,0,6.915-7.893,18.2,18.2,0,0,0,3.394-7.227A22.935,22.935,0,0,0,309.3,188.744Z" fill="#f8ad94"/>
    <path id="Path_46169" data-name="Path 46169" d="M359.8,133.564c.176-.08.352-.165.528-.248-.107-5.31-.207-15.182-2.076-16.214-3.458-1.909-15.74,5.361-19.018,7a86.739,86.739,0,0,1,.511,13.786A49.011,49.011,0,0,0,359.8,133.564Z" fill="#f8ad94" opacity="0.17" style="mix-blend-mode: multiply;isolation: isolate"/>
    <g id="Group_9233" data-name="Group 9233">
      <path id="Path_46170" data-name="Path 46170" d="M300.715,82.186q8.706,2.739,17.481,5.246a.473.473,0,0,0,.252-.911q-8.777-2.508-17.482-5.245c-.583-.183-.83.728-.251.91Z" fill="#fff"/>
    </g>
    <path id="Path_46171" data-name="Path 46171" d="M325.721,66.067c-8.014,6.11-12.6,17.7-13.129,27.53a47.28,47.28,0,0,0,6.664,26.858c2.511,4.149,4.741,7.168,9.318,8.727a23.055,23.055,0,0,0,14.761.284c14.062-4.361,26.738-12.867,31.584-27.256C379.637,88.2,379.745,72.191,364.5,64.9c-9.452-4.52-24.278-6.2-34.01-1.7A25.523,25.523,0,0,0,325.721,66.067Z" fill="#f8ad94"/>
    <path id="Path_46172" data-name="Path 46172" d="M308.244,116.129c-1.2-4.025-2.335-8.354-5.238-11.523a55.872,55.872,0,0,0-8.026,5.479c-3.05,2.543-6.419,6.1-7.477,10.019-1.358,5.028-2.4,10.169-3.378,15.282.18-.943,12.058,1.108,13.046-.242.59-.8.294-3.324.658-4.418a6.926,6.926,0,0,1,1.7-2.818c2.773-2.7,7.056-3.031,10.856-4.114Q309.379,119.951,308.244,116.129Z" fill="#f3a994"/>
    <path id="Path_46173" data-name="Path 46173" d="M327.184,50.214c-.73,7.764,4.155,15.29,10.749,19.451s14.616,5.443,22.411,5.617a19.625,19.625,0,0,0,11.87,23.777,4.364,4.364,0,0,0,2.789.333,4.466,4.466,0,0,0,2.105-1.8,25.387,25.387,0,0,0-3.47-33.918c-6.581-5.921-15.7-7.984-24.455-9.31-5.382-.816-10.791-1.434-16.2-2.053" fill="#cdd8e7"/>
    <path id="Path_46174" data-name="Path 46174" d="M347.742,111.956a22.632,22.632,0,0,0-1.749-6.787c-1.344-3.08-3.38-5.173-6.846-4.948a9.131,9.131,0,0,0-7.351,4.273,11.579,11.579,0,0,0-1.321,5.434c-.013.382-.053,2.3.056,3.751C336.237,114.951,342.7,114.747,347.742,111.956Z" fill="#663852"/>
    <path id="Path_46175" data-name="Path 46175" d="M347.742,111.956c-.013-.131-.038-.26-.053-.391a13.885,13.885,0,0,0-5.246-3.39,9.665,9.665,0,0,0-2.682-.59,9.481,9.481,0,0,0-7.52,3.558,14.106,14.106,0,0,0-1.7,2.537C336.244,114.951,342.7,114.745,347.742,111.956Z" fill="#ce4d97"/>
    <path id="Path_46176" data-name="Path 46176" d="M425.754,209.823a34.428,34.428,0,0,0-2.779-11.612,74.289,74.289,0,0,0-3.256-6.759,59.12,59.12,0,0,1-27.524,5.881c.355.768.669,1.485.9,2.113q-7.154-.761-14.335-1.2a4.862,4.862,0,0,1-.841.093c-12.039.134-24.2-.037-36.012,2.261a41.077,41.077,0,0,0,1.113,15.257c5,1.4,10.188,2.618,11.257,2.873a129.823,129.823,0,0,0,14.336,2.616c4.56.555,9.067,1.585,13.678,2.007,9.925.909,19.9-.164,29.765-1.239,4.2-.456,8.588-.985,12.047-3.4C427.02,216.678,425.9,212.889,425.754,209.823Z" fill="#f8ad94"/>
    <path id="Path_46177" data-name="Path 46177" d="M330.133,84.437c.16,2.316.24,4.893-1.261,6.666-1.32,1.558-3.722,2.3-4.242,4.274-.437,1.664.729,3.284,1.824,4.611,1.854-.29,3.837-.643,5.174-1.959,1.558-1.535,1.8-3.971,1.534-6.143a17.443,17.443,0,0,0-2.18-6.547" fill="#e97650" opacity="0.17" style="mix-blend-mode: multiply;isolation: isolate"/>
    <g id="Group_9234" data-name="Group 9234">
      <path id="Path_46178" data-name="Path 46178" d="M325.469,95.934a12.682,12.682,0,0,1-3.387,4.006c-6.492,4.943-15.289,2.334-19.722-3.962-3.926-5.577-3.191-13.484,1.1-18.6a13.872,13.872,0,0,1,20.506-.417A18.16,18.16,0,0,1,326.827,92.6a3.877,3.877,0,0,1,1.256-.844,19.783,19.783,0,0,0-3.45-15.464c-5.678-6.307-15.633-5.92-21.45-.014-5.42,5.5-5.58,14.576-1.255,20.719a14.831,14.831,0,0,0,21.159,3.353,12.053,12.053,0,0,0,2.542-2.691A5.153,5.153,0,0,1,325.469,95.934Z" fill="#fff"/>
    </g>
    <g id="Group_9235" data-name="Group 9235">
      <path id="Path_46179" data-name="Path 46179" d="M353.6,72.725c-7.991-1.844-15.476,2.112-17.968,9.938-2.038,6.4.21,13.887,6.086,17.371,7.407,4.392,17.108.277,20.821-6.948A14.27,14.27,0,0,0,353.6,72.725a.473.473,0,0,0-.251.911,14.71,14.71,0,0,1,8.708,7.085c2.126,3.936,1.26,8.788-.693,12.587-3.64,7.085-13.416,9.679-20.041,5.369-4.962-3.228-6.28-9.868-4.917-15.285,1.921-7.63,9.449-11.486,16.943-9.756C353.94,73.773,354.192,72.862,353.6,72.725Z" fill="#fff"/>
    </g>
    <g id="Group_9236" data-name="Group 9236">
      <path id="Path_46180" data-name="Path 46180" d="M363.355,86.974q11.7,4.979,23.523,9.635c.568.223.811-.69.251-.911q-11.713-4.609-23.3-9.539c-.553-.236-1.035.578-.476.815Z" fill="#fff"/>
    </g>
    <path id="Path_46181" data-name="Path 46181" d="M373.6,97.5a10.274,10.274,0,0,1,7.1-3.756,6.676,6.676,0,0,1,4.7,1.174,6.23,6.23,0,0,1,2.064,3.652c.995,4.708-1.829,9.68-6.072,12.211s-9.6,2.888-14.48,1.894" fill="#f3a994"/>
    <path id="Path_46182" data-name="Path 46182" d="M373.864,110.216a14.107,14.107,0,0,1,7.451-10.864,2.213,2.213,0,0,1,1.65-.318c.922.3,1.108,1.525,1,2.49a11.226,11.226,0,0,1-10.775,10.013l-.316-.219" fill="#e97650" opacity="0.17" style="mix-blend-mode: multiply;isolation: isolate"/>
    <g id="Group_9243" data-name="Group 9243">
      <g id="Group_9237" data-name="Group 9237">
        <path id="Path_46183" data-name="Path 46183" d="M384.178,98.395a3.817,3.817,0,0,0-2.573.012,7.094,7.094,0,0,0-2.517,1.3,11.015,11.015,0,0,0-2.3,2.569,19.7,19.7,0,0,0-2.564,5.64,7.7,7.7,0,0,0-.417,2.53,31.217,31.217,0,0,1,3.434-7.867A11.42,11.42,0,0,1,379.4,100.1a7.284,7.284,0,0,1,2.313-1.319A9.692,9.692,0,0,1,384.178,98.395Z" fill="#8c5044"/>
      </g>
      <g id="Group_9238" data-name="Group 9238">
        <path id="Path_46184" data-name="Path 46184" d="M376.348,108.482c.057.045.421-.288.943-.9a8.944,8.944,0,0,0,1.64-2.7,4.853,4.853,0,0,0,.088-3.188c-.285-.794-.705-1.134-.748-1.091-.072.052.215.458.378,1.2a5.331,5.331,0,0,1-.232,2.9,12.756,12.756,0,0,1-1.435,2.65C376.547,108.012,376.286,108.434,376.348,108.482Z" fill="#8c5044"/>
      </g>
      <g id="Group_9239" data-name="Group 9239">
        <path id="Path_46185" data-name="Path 46185" d="M326.289,99.031a8.044,8.044,0,0,0-.4-.847,4.9,4.9,0,0,1-.319-2.446,4.526,4.526,0,0,1,1.711-3.092c.548-.409,1.25-.707,1.907-1.223a3.251,3.251,0,0,0,1.211-2.254,12.839,12.839,0,0,0-.029-2.473c-.058-.784-.133-1.539-.218-2.256-.168-1.434-.379-2.719-.59-3.79s-.416-1.93-.578-2.518a3.12,3.12,0,0,0-.31-.9c-.08.019.186,1.339.508,3.484.161,1.073.331,2.352.471,3.778.07.713.133,1.462.184,2.24a13.054,13.054,0,0,1,.021,2.364,2.73,2.73,0,0,1-1,1.909c-.571.462-1.272.776-1.873,1.237a4.829,4.829,0,0,0-1.794,3.456,4.715,4.715,0,0,0,.511,2.576A2.039,2.039,0,0,0,326.289,99.031Z" fill="#8c5044"/>
      </g>
      <g id="Group_9240" data-name="Group 9240">
        <path id="Path_46186" data-name="Path 46186" d="M332.381,96.945c-.1-.112-.633.2-1.19.7s-.927,1-.826,1.109.634-.2,1.19-.7S332.482,97.057,332.381,96.945Z" fill="#8c5044"/>
      </g>
      <g id="Group_9241" data-name="Group 9241">
        <path id="Path_46187" data-name="Path 46187" d="M321.716,89.1a7.008,7.008,0,0,0,.273-2.72,7.011,7.011,0,0,0-.273-2.721,7.011,7.011,0,0,0-.273,2.721A7.008,7.008,0,0,0,321.716,89.1Z" fill="#8c5044"/>
      </g>
      <g id="Group_9242" data-name="Group 9242">
        <path id="Path_46188" data-name="Path 46188" d="M348.121,89.907a9.766,9.766,0,0,0,.048-3.241,9.826,9.826,0,0,0-.5-3.2,9.808,9.808,0,0,0-.048,3.242A9.809,9.809,0,0,0,348.121,89.907Z" fill="#8c5044"/>
      </g>
    </g>
    <g id="Group_9244" data-name="Group 9244">
      <path id="Path_46189" data-name="Path 46189" d="M335.811,86.25c-.9-1.714-2.251-3.219-4.306-3.238-1.583-.014-2.75,1.35-3.6,2.634a5.091,5.091,0,0,1,.253,1.339c.013-.017.029-.025.041-.045.75-1.231,1.566-2.5,3.02-2.94,1.742-.522,3.116,1.459,3.78,2.727C335.278,87.267,336.093,86.789,335.811,86.25Z" fill="#fff"/>
    </g>
    <path id="Path_46190" data-name="Path 46190" d="M351.72,199.988c-8.943-.435-17.934,1.024-26.47,2.959-1.74.395-3.713,1.032-4.2,2.422a4.734,4.734,0,0,0,2.6.043l6.149-1.07c-2.339,1.069-4.681,2.139-6.931,3.323-1.934,1.018-3.9,2.224-4.674,3.965a.623.623,0,0,0,0,.685c.287.316.908.15,1.333-.043l10.154-4.62-5.552,4.307c-1.819,1.41-3.762,3.037-3.826,5.059-.011.324.15.744.555.745a.939.939,0,0,0,.49-.187,86.118,86.118,0,0,0,9.479-6.94,36.5,36.5,0,0,0-5.214,7.4c-.561,1.061-.978,2.455.094,3.225,3.631-2.054,5.2-5.693,8.02-8.437a19.058,19.058,0,0,0-2.922,7.6c-.113.775-.018,1.767.9,2.045l3.884-4.753a4.816,4.816,0,0,1,1.993-1.66,6.57,6.57,0,0,1,3.137-.069l7.97,1.127" fill="#f8ad94"/>
    <path id="Path_46191" data-name="Path 46191" d="M294.869,110.356a29.036,29.036,0,0,0,2.138-1.966c.764-.79,1.547-1.551,2.356-2.27a29.463,29.463,0,0,1,4.922-3.592q1.709-.972,3.46-1.833a21.3,21.3,0,0,1,2.427-.881c.4-.14,3.374-1.378,3.586-.687.313,1.022-.624,1.932-1.438,2.387-3.021,1.692-6.466,2.811-8.6,5.924,2.911-1.412,5.824-2.823,8.785-4.07,2.059-.867,4.212-1.664,6.38-1.4.438.053.973.27,1.021.8-3.946,3.221-8.631,4.776-12.886,7.346a2.3,2.3,0,0,0-1.274,1.535l6.265-2.56c2.823-1.153,5.757-2.322,8.715-1.913.42.058.927.25,1,.757a1.3,1.3,0,0,1-.6,1.111c-2.642,2.171-5.743,3.326-8.792,4.452l-5.053,1.866a42.675,42.675,0,0,1,10.248-1.39,4.177,4.177,0,0,1,3.573,1.218,3.058,3.058,0,0,1-2.279,1.845L306.6,121.073c4.321-1.114,8.759-2.233,13.121-1.393a.7.7,0,0,1,.541.313c.212.406-.18.881-.535,1.091a10.779,10.779,0,0,1-3.75,1.083c-1.221.229-2.484.48-3.7.795-.694.179-1.381.392-2.075.575-.792.208-1.62.309-2.4.561a18.717,18.717,0,0,1-2.033.347c-1.623.333-3.19,1.07-4.847,1.142" fill="#f8ad94"/>
    <g id="Group_9254" data-name="Group 9254">
      <g id="Group_9245" data-name="Group 9245">
        <path id="Path_46192" data-name="Path 46192" d="M351.362,25.019c-.421-.163-1.72,2.466-2.9,5.874s-1.786,6.277-1.354,6.409,1.731-2.5,2.9-5.873S351.783,25.183,351.362,25.019Z" fill="#ffc866"/>
      </g>
      <g id="Group_9246" data-name="Group 9246">
        <path id="Path_46193" data-name="Path 46193" d="M383.714,34.827c-.318-.313-2.611,1.509-4.909,4.258s-3.693,5.323-3.329,5.581,2.326-1.84,4.584-4.531S384.042,35.146,383.714,34.827Z" fill="#ffc866"/>
      </g>
      <g id="Group_9247" data-name="Group 9247">
        <path id="Path_46194" data-name="Path 46194" d="M404.752,56.556c-.161-.415-2.811.233-5.786,1.733s-5.078,3.233-4.841,3.611,2.673-.694,5.576-2.15S404.92,56.982,404.752,56.556Z" fill="#ffc866"/>
      </g>
      <g id="Group_9248" data-name="Group 9248">
        <path id="Path_46195" data-name="Path 46195" d="M411.654,84.82c-.051-.455-2.651-.531-5.823-.515s-5.771.136-5.815.592,2.557,1.07,5.826,1.044S411.706,85.262,411.654,84.82Z" fill="#ffc866"/>
      </g>
      <g id="Group_9249" data-name="Group 9249">
        <path id="Path_46196" data-name="Path 46196" d="M414.271,122.64c.148-.438-2.319-1.648-5.284-3.2s-5.378-2.864-5.652-2.491c-.266.351,1.8,2.336,4.9,3.942S414.135,123.06,414.271,122.64Z" fill="#ffc866"/>
      </g>
      <g id="Group_9250" data-name="Group 9250">
        <path id="Path_46197" data-name="Path 46197" d="M321.867,30.466c.445-.078.419-2.32-.057-5.007s-1.224-4.8-1.669-4.721-.419,2.321.057,5.007S321.422,30.545,321.867,30.466Z" fill="#ffc866"/>
      </g>
      <g id="Group_9251" data-name="Group 9251">
        <path id="Path_46198" data-name="Path 46198" d="M291.463,52.318c.387-.221-.876-3.156-3.085-6.387s-4.477-5.48-4.824-5.2,1.31,2.947,3.473,6.123S291.066,52.546,291.463,52.318Z" fill="#ffc866"/>
      </g>
      <g id="Group_9252" data-name="Group 9252">
        <path id="Path_46199" data-name="Path 46199" d="M281.245,68.442c.043-.45-2.626-1.161-5.961-1.588s-6.1-.411-6.17.036,2.6,1.157,5.962,1.587S281.2,68.892,281.245,68.442Z" fill="#ffc866"/>
      </g>
      <g id="Group_9253" data-name="Group 9253">
        <path id="Path_46200" data-name="Path 46200" d="M286.7,98.387c-.174-.427-2.654.195-5.68.924s-5.511,1.328-5.469,1.788c.034.441,2.7.575,5.856-.2S286.869,98.795,286.7,98.387Z" fill="#ffc866"/>
      </g>
    </g>
  </g>
</svg>
