<svg width="400" height="289" viewBox="0 0 400 289" fill="none" xmlns="http://www.w3.org/2000/svg">
<g filter="url(#filter0_b_1926_13901)">
<rect x="69.9998" y="244" width="176" height="246" rx="5" transform="rotate(-90 69.9998 244)" fill="white" fill-opacity="0.03"/>
</g>
<path d="M307 103C307 101.904 298.526 101 287.99 101H98.0094C87.5885 101 78.9998 101.892 78.9998 103C78.9998 104.096 87.4739 105 98.0094 105H287.99C298.411 105 307 104.096 307 103Z" fill="#C4C4C4" fill-opacity="0.1"/>
<circle cx="273.5" cy="83.5" r="2.5" fill="#C4C4C4"/>
<circle cx="283.5" cy="83.5" r="2.5" fill="#C4C4C4"/>
<circle cx="293.5" cy="83.5" r="2.5" fill="#C4C4C4"/>
<g filter="url(#filter1_b_1926_13901)">
<rect x="91.9998" y="123" width="61" height="56" rx="14" fill="white" fill-opacity="0.03"/>
</g>
<g filter="url(#filter2_b_1926_13901)">
<rect x="162" y="123" width="61" height="56" rx="14" fill="white" fill-opacity="0.03"/>
</g>
<g filter="url(#filter3_b_1926_13901)">
<rect x="91.9998" y="188" width="199" height="31" rx="14" fill="white" fill-opacity="0.03"/>
</g>
<g filter="url(#filter4_b_1926_13901)">
<rect x="233" y="123" width="61" height="56" rx="14" fill="white" fill-opacity="0.03"/>
</g>
<g filter="url(#filter5_b_1926_13901)">
<path fill-rule="evenodd" clip-rule="evenodd" d="M61.5689 85.0771C61.5689 98.443 72.5064 109.154 86.1547 109.154C99.798 109.154 110.74 98.443 110.74 85.0771C110.74 71.7112 99.798 61 86.1547 61C72.5064 61 61.5689 71.7112 61.5689 85.0771ZM123.311 136.415C123.311 124.042 106.195 120.947 86.1557 120.947C66.0072 120.947 49 124.149 49 136.532C49 148.904 66.1161 152 86.1557 152C106.304 152 123.311 148.798 123.311 136.415Z" fill="url(#paint0_linear_1926_13901)"/>
</g>
<g filter="url(#filter6_b_1926_13901)">
<rect x="349" y="34" width="51" height="53" rx="25" fill="white" fill-opacity="0.03"/>
</g>
<g filter="url(#filter7_b_1926_13901)">
<rect y="244" width="49" height="45" rx="6" fill="white" fill-opacity="0.03"/>
</g>
<g filter="url(#filter8_b_1926_13901)">
<rect x="168" width="37" height="34" rx="6" fill="white" fill-opacity="0.03"/>
</g>
<g filter="url(#filter9_b_1926_13901)">
<rect x="302" y="207" width="47" height="43" rx="6" fill="white" fill-opacity="0.03"/>
<rect x="302.5" y="207.5" width="46" height="42" rx="5.5" stroke="#E5E5E5" stroke-opacity="0.19"/>
</g>
<path fill-rule="evenodd" clip-rule="evenodd" d="M323.272 216.692C322.379 216.692 321.618 217.313 321.405 218.151H328.582C328.368 217.313 327.608 216.692 326.714 216.692H323.272ZM330.609 218.151H333.251C336.052 218.151 338.333 220.459 338.333 223.295C338.333 223.295 338.253 224.495 338.227 226.167C338.224 226.299 338.16 226.429 338.055 226.507C337.413 226.981 336.826 227.372 336.773 227.399C334.558 228.885 331.985 229.93 329.243 230.45C329.065 230.485 328.889 230.391 328.798 230.232C328.03 228.901 326.594 228.034 324.993 228.034C323.403 228.034 321.954 228.891 321.163 230.224C321.071 230.381 320.898 230.471 320.721 230.437C318.002 229.916 315.429 228.872 313.227 227.413L311.947 226.522C311.84 226.454 311.773 226.333 311.773 226.198C311.733 225.509 311.667 223.295 311.667 223.295C311.667 220.459 313.948 218.151 316.749 218.151H319.377C319.631 216.193 321.271 214.667 323.272 214.667H326.714C328.715 214.667 330.356 216.193 330.609 218.151ZM337.88 229.087L337.826 229.114C335.132 230.924 331.89 232.125 328.488 232.625C328.008 232.692 327.528 232.382 327.395 231.896C327.101 230.789 326.154 230.059 325.02 230.059H325.007H324.98C323.846 230.059 322.899 230.789 322.605 231.896C322.472 232.382 321.992 232.692 321.512 232.625C318.11 232.125 314.868 230.924 312.174 229.114C312.16 229.101 312.027 229.02 311.92 229.087C311.8 229.155 311.8 229.317 311.8 229.317L311.893 236.203C311.893 239.038 314.161 241.334 316.963 241.334H333.024C335.825 241.334 338.093 239.038 338.093 236.203L338.2 229.317C338.2 229.317 338.2 229.155 338.08 229.087C338.013 229.047 337.933 229.06 337.88 229.087ZM325.994 234.745C325.994 235.312 325.554 235.757 324.993 235.757C324.446 235.757 323.993 235.312 323.993 234.745V233.003C323.993 232.449 324.446 231.99 324.993 231.99C325.554 231.99 325.994 232.449 325.994 233.003V234.745Z" fill="#6F5ADC"/>
<path fill-rule="evenodd" clip-rule="evenodd" d="M382.625 66.0654C382.625 69.6903 380.757 72.223 377.189 73.1775V76.2864C377.189 76.6046 376.943 76.854 376.62 76.854H373.263C372.957 76.854 372.689 76.6089 372.689 76.2864V73.1775C368.517 72.5885 366.235 70.1031 366.144 69.9956C365.967 69.7806 365.95 69.4796 366.11 69.2646L367.948 66.8652C368.129 66.6158 368.573 66.5685 368.785 66.8136C368.819 66.8308 371.317 69.213 374.475 69.213C376.223 69.213 378.112 68.2885 378.112 66.2804C378.112 64.5734 376.007 63.7392 373.6 62.776C370.39 61.5161 366.394 59.9165 366.394 55.4532C366.394 52.1809 368.176 49.7256 371.524 48.7797V45.5805C371.524 45.258 371.792 45.0086 372.094 45.0086L375.67 45C375.99 45 376.24 45.2494 376.24 45.5719V48.698C379.86 49.1064 381.788 51.0629 381.857 51.136C382.039 51.3295 382.073 51.5961 381.948 51.8111L380.503 54.404C380.317 54.7437 379.907 54.7867 379.61 54.5674C379.592 54.5502 377.435 52.6453 374.76 52.6453C372.495 52.6453 370.925 53.7676 370.925 55.3844C370.925 57.2677 373.099 58.1062 375.632 59.0823C378.915 60.3422 382.625 61.7827 382.625 66.0697V66.0654Z" fill="url(#paint1_linear_1926_13901)"/>
<circle cx="192.268" cy="152.268" r="4.26821" fill="#C4C4C4"/>
<circle cx="122.491" cy="152.491" r="2.49116" fill="#C4C4C4"/>
<path d="M263.256 150.846L265.102 149L266.437 150.334L264.591 152.18L266.677 154.266L265.271 155.673L263.185 153.586L261.334 155.437L259.999 154.103L261.85 152.252L259.851 150.253L261.257 148.846L263.256 150.846Z" fill="#E6E6E6"/>
<defs>
<filter id="filter0_b_1926_13901" x="13.9998" y="12" width="358" height="288" filterUnits="userSpaceOnUse" color-interpolation-filters="sRGB">
<feFlood flood-opacity="0" result="BackgroundImageFix"/>
<feGaussianBlur in="BackgroundImage" stdDeviation="28"/>
<feComposite in2="SourceAlpha" operator="in" result="effect1_backgroundBlur_1926_13901"/>
<feBlend mode="normal" in="SourceGraphic" in2="effect1_backgroundBlur_1926_13901" result="shape"/>
</filter>
<filter id="filter1_b_1926_13901" x="35.9998" y="67" width="173" height="168" filterUnits="userSpaceOnUse" color-interpolation-filters="sRGB">
<feFlood flood-opacity="0" result="BackgroundImageFix"/>
<feGaussianBlur in="BackgroundImage" stdDeviation="28"/>
<feComposite in2="SourceAlpha" operator="in" result="effect1_backgroundBlur_1926_13901"/>
<feBlend mode="normal" in="SourceGraphic" in2="effect1_backgroundBlur_1926_13901" result="shape"/>
</filter>
<filter id="filter2_b_1926_13901" x="106" y="67" width="173" height="168" filterUnits="userSpaceOnUse" color-interpolation-filters="sRGB">
<feFlood flood-opacity="0" result="BackgroundImageFix"/>
<feGaussianBlur in="BackgroundImage" stdDeviation="28"/>
<feComposite in2="SourceAlpha" operator="in" result="effect1_backgroundBlur_1926_13901"/>
<feBlend mode="normal" in="SourceGraphic" in2="effect1_backgroundBlur_1926_13901" result="shape"/>
</filter>
<filter id="filter3_b_1926_13901" x="35.9998" y="132" width="311" height="143" filterUnits="userSpaceOnUse" color-interpolation-filters="sRGB">
<feFlood flood-opacity="0" result="BackgroundImageFix"/>
<feGaussianBlur in="BackgroundImage" stdDeviation="28"/>
<feComposite in2="SourceAlpha" operator="in" result="effect1_backgroundBlur_1926_13901"/>
<feBlend mode="normal" in="SourceGraphic" in2="effect1_backgroundBlur_1926_13901" result="shape"/>
</filter>
<filter id="filter4_b_1926_13901" x="177" y="67" width="173" height="168" filterUnits="userSpaceOnUse" color-interpolation-filters="sRGB">
<feFlood flood-opacity="0" result="BackgroundImageFix"/>
<feGaussianBlur in="BackgroundImage" stdDeviation="28"/>
<feComposite in2="SourceAlpha" operator="in" result="effect1_backgroundBlur_1926_13901"/>
<feBlend mode="normal" in="SourceGraphic" in2="effect1_backgroundBlur_1926_13901" result="shape"/>
</filter>
<filter id="filter5_b_1926_13901" x="36" y="48" width="100.311" height="117" filterUnits="userSpaceOnUse" color-interpolation-filters="sRGB">
<feFlood flood-opacity="0" result="BackgroundImageFix"/>
<feGaussianBlur in="BackgroundImage" stdDeviation="6.5"/>
<feComposite in2="SourceAlpha" operator="in" result="effect1_backgroundBlur_1926_13901"/>
<feBlend mode="normal" in="SourceGraphic" in2="effect1_backgroundBlur_1926_13901" result="shape"/>
</filter>
<filter id="filter6_b_1926_13901" x="293" y="-22" width="163" height="165" filterUnits="userSpaceOnUse" color-interpolation-filters="sRGB">
<feFlood flood-opacity="0" result="BackgroundImageFix"/>
<feGaussianBlur in="BackgroundImage" stdDeviation="28"/>
<feComposite in2="SourceAlpha" operator="in" result="effect1_backgroundBlur_1926_13901"/>
<feBlend mode="normal" in="SourceGraphic" in2="effect1_backgroundBlur_1926_13901" result="shape"/>
</filter>
<filter id="filter7_b_1926_13901" x="-56" y="188" width="161" height="157" filterUnits="userSpaceOnUse" color-interpolation-filters="sRGB">
<feFlood flood-opacity="0" result="BackgroundImageFix"/>
<feGaussianBlur in="BackgroundImage" stdDeviation="28"/>
<feComposite in2="SourceAlpha" operator="in" result="effect1_backgroundBlur_1926_13901"/>
<feBlend mode="normal" in="SourceGraphic" in2="effect1_backgroundBlur_1926_13901" result="shape"/>
</filter>
<filter id="filter8_b_1926_13901" x="112" y="-56" width="149" height="146" filterUnits="userSpaceOnUse" color-interpolation-filters="sRGB">
<feFlood flood-opacity="0" result="BackgroundImageFix"/>
<feGaussianBlur in="BackgroundImage" stdDeviation="28"/>
<feComposite in2="SourceAlpha" operator="in" result="effect1_backgroundBlur_1926_13901"/>
<feBlend mode="normal" in="SourceGraphic" in2="effect1_backgroundBlur_1926_13901" result="shape"/>
</filter>
<filter id="filter9_b_1926_13901" x="246" y="151" width="159" height="155" filterUnits="userSpaceOnUse" color-interpolation-filters="sRGB">
<feFlood flood-opacity="0" result="BackgroundImageFix"/>
<feGaussianBlur in="BackgroundImage" stdDeviation="28"/>
<feComposite in2="SourceAlpha" operator="in" result="effect1_backgroundBlur_1926_13901"/>
<feBlend mode="normal" in="SourceGraphic" in2="effect1_backgroundBlur_1926_13901" result="shape"/>
</filter>
<linearGradient id="paint0_linear_1926_13901" x1="86.1557" y1="61" x2="22.9059" y2="172.446" gradientUnits="userSpaceOnUse">
<stop stop-color="white"/>
<stop offset="1" stop-color="#6F5ADC"/>
</linearGradient>
<linearGradient id="paint1_linear_1926_13901" x1="374.313" y1="45" x2="399.92" y2="73.8377" gradientUnits="userSpaceOnUse">
<stop stop-color="white"/>
<stop offset="1" stop-color="#6F5ADC"/>
</linearGradient>
</defs>
</svg>
