<svg width="366" height="128" viewBox="0 0 366 128" fill="none" xmlns="http://www.w3.org/2000/svg">
<g filter="url(#filter0_b_1926_13893)">
<rect x="116" y="128" width="88" height="250" rx="5" transform="rotate(-90 116 128)" fill="white" fill-opacity="0.03"/>
</g>
<circle cx="163.5" cy="85.5" r="25.5" fill="#474C4F" fill-opacity="0.52"/>
<path d="M265.268 105C266.038 103.667 267.962 103.667 268.732 105L272.196 111C272.966 112.333 272.004 114 270.464 114H263.536C261.996 114 261.034 112.333 261.804 111L265.268 105Z" fill="#6F5ADC"/>
<path d="M218.456 115.091H219.359L219.364 114.115C221.192 113.983 222.24 112.977 222.244 111.55C222.24 110.037 220.991 109.347 219.679 109.036L219.398 108.963L219.415 106.53C220.097 106.649 220.536 107.058 220.604 107.672H222.125C222.099 106.317 221.034 105.328 219.423 105.175L219.428 104.182H218.524L218.52 105.175C216.922 105.337 215.771 106.317 215.776 107.727C215.776 108.98 216.666 109.7 218.102 110.071L218.486 110.169L218.469 112.747C217.706 112.628 217.156 112.193 217.101 111.422H215.545C215.605 113.02 216.705 113.97 218.46 114.115L218.456 115.091ZM219.372 112.747L219.389 110.408C220.165 110.634 220.659 110.932 220.663 111.537C220.659 112.168 220.152 112.619 219.372 112.747ZM218.494 108.733C217.906 108.545 217.369 108.234 217.378 107.629C217.382 107.08 217.795 106.653 218.511 106.53L218.494 108.733ZM226.603 114.119C228.448 114.119 229.735 112.866 229.735 111.132C229.735 109.453 228.567 108.243 226.982 108.243C226.275 108.243 225.648 108.524 225.324 108.908H225.273L225.525 106.594H229.279V105.273H224.216L223.76 109.773L225.188 110.007C225.482 109.683 226.036 109.466 226.56 109.47C227.519 109.474 228.209 110.182 228.205 111.17C228.209 112.146 227.536 112.841 226.603 112.841C225.814 112.841 225.179 112.342 225.124 111.626H223.59C223.632 113.075 224.898 114.119 226.603 114.119ZM234.294 114.119C236.161 114.119 237.52 113.05 237.516 111.575C237.52 110.484 236.838 109.7 235.615 109.526V109.457C236.561 109.253 237.196 108.55 237.192 107.57C237.196 106.24 236.063 105.153 234.32 105.153C232.624 105.153 231.311 106.163 231.277 107.625H232.799C232.824 106.892 233.506 106.436 234.311 106.436C235.125 106.436 235.667 106.93 235.662 107.663C235.667 108.426 235.036 108.933 234.132 108.933H233.361V110.152H234.132C235.236 110.152 235.892 110.706 235.888 111.494C235.892 112.266 235.223 112.794 234.29 112.794C233.412 112.794 232.735 112.338 232.696 111.626H231.094C231.137 113.101 232.453 114.119 234.294 114.119ZM239.688 114.094C240.191 114.094 240.621 113.676 240.626 113.156C240.621 112.645 240.191 112.227 239.688 112.227C239.168 112.227 238.746 112.645 238.751 113.156C238.746 113.676 239.168 114.094 239.688 114.094ZM244.673 105.273H243.169L241 106.666V108.115L243.041 106.811H243.092V114H244.673V105.273ZM246.974 105.273V114H248.491V107.991H248.572L250.984 113.974H252.118L254.529 108.004H254.61V114H256.127V105.273H254.193L251.602 111.597H251.5L248.909 105.273H246.974Z" fill="white" fill-opacity="0.79"/>
<rect x="215" y="59" width="137" height="9" rx="4.5" fill="#C4C4C4" fill-opacity="0.07"/>
<rect x="215" y="81" width="64" height="9" rx="4.5" fill="#C4C4C4" fill-opacity="0.07"/>
<g filter="url(#filter1_b_1926_13893)">
<rect y="90" width="90" height="250" rx="12" transform="rotate(-90 0 90)" fill="white" fill-opacity="0.03"/>
<rect x="0.5" y="89.5" width="89" height="249" rx="11.5" transform="rotate(-90 0.5 89.5)" stroke="#E5E5E5" stroke-opacity="0.19"/>
</g>
<circle cx="48.5" cy="44.5" r="28.5" fill="#474C4F" fill-opacity="0.52"/>
<path d="M32.2912 52H40.8565V50.0121H34.6626V46.4389H40.3643V44.451H34.6626V40.897H40.8054V38.9091H32.2912V52ZM43.2248 52H45.5962V47.206H48.0124L50.582 52H53.2283L50.3967 46.8097C51.9371 46.1896 52.7489 44.8729 52.7489 43.0959C52.7489 40.5966 51.1381 38.9091 48.1339 38.9091H43.2248V52ZM45.5962 45.2372V40.8906H47.7695C49.5401 40.8906 50.3327 41.7024 50.3327 43.0959C50.3327 44.4893 49.5401 45.2372 47.7823 45.2372H45.5962ZM54.3565 40.897H58.4027V52H60.755V40.897H64.8011V38.9091H54.3565V40.897Z" fill="#6F5ADC"/>
<path d="M140.268 60C141.038 58.6667 142.962 58.6667 143.732 60L147.196 66C147.966 67.3333 147.004 69 145.464 69H138.536C136.996 69 136.034 67.3333 136.804 66L140.268 60Z" fill="#6F5ADC"/>
<path d="M97.88 68.9091H98.6328L98.6364 68.0959C100.16 67.9858 101.033 67.1477 101.037 65.9581C101.033 64.6974 99.9929 64.1222 98.8991 63.8629L98.6648 63.8026L98.679 61.7749C99.2472 61.8743 99.6129 62.2152 99.6697 62.7266H100.938C100.916 61.5973 100.028 60.7734 98.6861 60.6456L98.6896 59.8182H97.9368L97.9332 60.6456C96.6016 60.7805 95.6428 61.5973 95.6463 62.7727C95.6463 63.8168 96.3885 64.4169 97.5852 64.7259L97.9048 64.8075L97.8906 66.956C97.255 66.8565 96.7969 66.4943 96.7507 65.8516H95.4545C95.5043 67.1832 96.4205 67.9751 97.8835 68.0959L97.88 68.9091ZM98.6435 66.956L98.6577 65.0064C99.304 65.1946 99.7159 65.4432 99.7195 65.9474C99.7159 66.473 99.2933 66.8494 98.6435 66.956ZM97.9119 63.6108C97.4219 63.4545 96.9744 63.1953 96.9815 62.6911C96.9851 62.233 97.3295 61.8778 97.9261 61.7749L97.9119 63.6108ZM102.009 66.6506H105.479V68H106.736V66.6506H107.666V65.5675H106.736V60.7273H105.095L102.009 65.603V66.6506ZM105.493 65.5675H103.358V65.5107L105.436 62.2188H105.493V65.5675ZM111.411 68.0994C112.966 68.0994 114.099 67.2081 114.095 65.9794C114.099 65.0703 113.531 64.4169 112.512 64.2713V64.2145C113.3 64.044 113.829 63.4581 113.825 62.6413C113.829 61.5334 112.884 60.6278 111.432 60.6278C110.019 60.6278 108.925 61.4695 108.896 62.6875H110.164C110.186 62.0767 110.754 61.6967 111.425 61.6967C112.103 61.6967 112.554 62.1087 112.551 62.7195C112.554 63.3551 112.029 63.7777 111.276 63.7777H110.633V64.7933H111.276C112.195 64.7933 112.742 65.255 112.739 65.9119C112.742 66.5547 112.185 66.995 111.407 66.995C110.676 66.995 110.111 66.6151 110.079 66.022H108.744C108.779 67.2507 109.877 68.0994 111.411 68.0994ZM115.906 68.0781C116.325 68.0781 116.683 67.7301 116.687 67.2969C116.683 66.8707 116.325 66.5227 115.906 66.5227C115.472 66.5227 115.121 66.8707 115.124 67.2969C115.121 67.7301 115.472 68.0781 115.906 68.0781ZM120.059 60.7273H118.806L116.998 61.8885V63.0959L118.699 62.0092H118.742V68H120.059V60.7273ZM121.977 60.7273V68H123.241V62.9929H123.309L125.319 67.9787H126.263L128.273 63.0036H128.341V68H129.605V60.7273H127.993L125.834 65.9972H125.748L123.589 60.7273H121.977Z" fill="white" fill-opacity="0.79"/>
<rect x="95" y="18" width="137" height="9" rx="4.5" fill="#C4C4C4" fill-opacity="0.07"/>
<rect x="95" y="40" width="64" height="9" rx="4.5" fill="#C4C4C4" fill-opacity="0.07"/>
<path fill-rule="evenodd" clip-rule="evenodd" d="M360.625 45.0654C360.625 48.6903 358.757 51.223 355.189 52.1775V55.2864C355.189 55.6046 354.943 55.854 354.62 55.854H351.263C350.957 55.854 350.689 55.6089 350.689 55.2864V52.1775C346.517 51.5885 344.235 49.1031 344.144 48.9956C343.967 48.7806 343.95 48.4796 344.11 48.2646L345.948 45.8652C346.129 45.6158 346.573 45.5685 346.785 45.8136C346.819 45.8308 349.317 48.213 352.475 48.213C354.223 48.213 356.112 47.2885 356.112 45.2804C356.112 43.5734 354.007 42.7392 351.6 41.776C348.39 40.5161 344.394 38.9165 344.394 34.4532C344.394 31.1809 346.176 28.7256 349.524 27.7797V24.5805C349.524 24.258 349.792 24.0086 350.094 24.0086L353.67 24C353.99 24 354.24 24.2494 354.24 24.5719V27.698C357.86 28.1064 359.788 30.0629 359.857 30.136C360.039 30.3295 360.073 30.5961 359.948 30.8111L358.503 33.404C358.317 33.7437 357.907 33.7867 357.61 33.5674C357.592 33.5502 355.435 31.6453 352.76 31.6453C350.495 31.6453 348.925 32.7676 348.925 34.3844C348.925 36.2677 351.099 37.1062 353.632 38.0823C356.915 39.3422 360.625 40.7827 360.625 45.0697V45.0654Z" fill="url(#paint0_linear_1926_13893)"/>
<defs>
<filter id="filter0_b_1926_13893" x="60" y="-16" width="362" height="200" filterUnits="userSpaceOnUse" color-interpolation-filters="sRGB">
<feFlood flood-opacity="0" result="BackgroundImageFix"/>
<feGaussianBlur in="BackgroundImage" stdDeviation="28"/>
<feComposite in2="SourceAlpha" operator="in" result="effect1_backgroundBlur_1926_13893"/>
<feBlend mode="normal" in="SourceGraphic" in2="effect1_backgroundBlur_1926_13893" result="shape"/>
</filter>
<filter id="filter1_b_1926_13893" x="-56" y="-56" width="362" height="202" filterUnits="userSpaceOnUse" color-interpolation-filters="sRGB">
<feFlood flood-opacity="0" result="BackgroundImageFix"/>
<feGaussianBlur in="BackgroundImage" stdDeviation="28"/>
<feComposite in2="SourceAlpha" operator="in" result="effect1_backgroundBlur_1926_13893"/>
<feBlend mode="normal" in="SourceGraphic" in2="effect1_backgroundBlur_1926_13893" result="shape"/>
</filter>
<linearGradient id="paint0_linear_1926_13893" x1="352.313" y1="24" x2="377.92" y2="52.8377" gradientUnits="userSpaceOnUse">
<stop stop-color="white"/>
<stop offset="1" stop-color="#6F5ADC"/>
</linearGradient>
</defs>
</svg>
