<svg width="185" height="114" viewBox="0 0 185 114" fill="none" xmlns="http://www.w3.org/2000/svg">
<path opacity="0.1" d="M107.842 0.000382031H99.3561C99.0625 0.00923471 98.7811 0.125254 98.5602 0.328455C98.3394 0.531657 98.193 0.809318 98.1463 1.11361L96.9536 10.0195C96.9297 10.1579 96.9356 10.3001 96.9707 10.4358C97.0059 10.5716 97.0694 10.6973 97.1568 10.804C97.2441 10.9107 97.3531 10.9955 97.4757 11.0524C97.5982 11.1093 97.7314 11.1367 97.8653 11.1327H106.351C106.645 11.1238 106.926 11.0078 107.147 10.8046C107.368 10.6014 107.514 10.3238 107.561 10.0195L108.754 1.11361C108.778 0.975218 108.772 0.83297 108.737 0.697242C108.701 0.561515 108.638 0.435732 108.551 0.329066C108.463 0.2224 108.354 0.137541 108.232 0.0806782C108.109 0.0238157 107.976 -0.00361651 107.842 0.000382031Z" fill="#CABDFF"/>
<path opacity="0.1" d="M182.371 61.0009H163.402C162.746 61.0208 162.117 61.2818 161.623 61.739C161.13 62.1962 160.803 62.821 160.698 63.5056L158.032 83.5438C157.979 83.8552 157.992 84.1752 158.07 84.4806C158.149 84.786 158.291 85.069 158.486 85.309C158.682 85.549 158.925 85.74 159.199 85.8679C159.473 85.9958 159.771 86.0576 160.07 86.0486H179.039C179.695 86.0287 180.324 85.7676 180.818 85.3104C181.311 84.8532 181.638 84.2285 181.743 83.5438L184.409 63.5056C184.462 63.1942 184.449 62.8742 184.371 62.5688C184.292 62.2634 184.15 61.9804 183.955 61.7404C183.759 61.5004 183.516 61.3095 183.242 61.1815C182.968 61.0536 182.67 60.9919 182.371 61.0009Z" fill="#CABDFF"/>
<path opacity="0.1" d="M24.3709 22.0009H5.40241C4.7462 22.0208 4.11711 22.2818 3.62349 22.739C3.12987 23.1962 2.80264 23.821 2.69815 24.5056L0.0322666 44.5438C-0.0211565 44.8552 -0.00811308 45.1752 0.0704443 45.4806C0.149002 45.786 0.291092 46.069 0.486354 46.309C0.681615 46.549 0.925125 46.74 1.19912 46.8679C1.47311 46.9958 1.77069 47.0576 2.07013 47.0486H21.0386C21.6949 47.0287 22.324 46.7676 22.8176 46.3104C23.3112 45.8532 23.6384 45.2285 23.7429 44.5438L26.4088 24.5056C26.4622 24.1942 26.4492 23.8742 26.3706 23.5688C26.2921 23.2634 26.15 22.9804 25.9547 22.7404C25.7594 22.5004 25.5159 22.3095 25.2419 22.1815C24.9679 22.0536 24.6704 21.9919 24.3709 22.0009Z" fill="#CABDFF"/>
<g filter="url(#filter0_b_2008_12078)">
<path d="M56.1064 20.1025C56.1064 17.3411 58.345 15.1025 61.1064 15.1025H100.821C120.704 15.1025 136.821 31.2203 136.821 51.1025V104.038C136.821 106.799 134.583 109.038 131.821 109.038H61.1064C58.345 109.038 56.1064 106.799 56.1064 104.038V20.1025Z" fill="white" fill-opacity="0.03"/>
<path d="M56.6064 20.1025C56.6064 17.6173 58.6212 15.6025 61.1064 15.6025H100.821C120.427 15.6025 136.321 31.4964 136.321 51.1025V104.038C136.321 106.523 134.307 108.538 131.821 108.538H61.1064C58.6212 108.538 56.6064 106.523 56.6064 104.038V20.1025Z" stroke="#E5E5E5" stroke-opacity="0.19"/>
</g>
<g filter="url(#filter1_b_2008_12078)">
<path d="M66.5437 12.4492C66.5437 9.6878 68.7823 7.44922 71.5437 7.44922H109.867C129.749 7.44922 145.867 23.567 145.867 43.4492V96.3846C145.867 99.146 143.628 101.385 140.867 101.385H71.5437C68.7823 101.385 66.5437 99.146 66.5437 96.3846V12.4492Z" fill="white" fill-opacity="0.03"/>
<path d="M67.0437 12.4492C67.0437 9.96394 69.0584 7.94922 71.5437 7.94922H109.867C129.473 7.94922 145.367 23.8431 145.367 43.4492V96.3846C145.367 98.8699 143.352 100.885 140.867 100.885H71.5437C69.0584 100.885 67.0437 98.8699 67.0437 96.3846V12.4492Z" stroke="#E5E5E5" stroke-opacity="0.19"/>
</g>
<rect x="76.981" y="33.1943" width="59.8403" height="2.78327" rx="1.39163" fill="#C4C4C4" fill-opacity="0.07"/>
<rect x="76.981" y="42.2393" width="59.8403" height="2.78327" rx="1.39163" fill="#C4C4C4" fill-opacity="0.07"/>
<rect x="76.981" y="51.2852" width="23.6578" height="2.78327" rx="1.39163" fill="#C4C4C4" fill-opacity="0.07"/>
<rect x="76.981" y="76.335" width="23.6578" height="2.78327" rx="1.39163" fill="#C4C4C4" fill-opacity="0.07"/>
<rect x="104.814" y="51.2852" width="30.616" height="2.78327" rx="1.39163" fill="#C4C4C4" fill-opacity="0.07"/>
<rect x="76.981" y="60.3311" width="59.8403" height="2.78327" rx="1.39163" fill="#C4C4C4" fill-opacity="0.07"/>
<rect x="76.981" y="84.6846" width="59.8403" height="2.78327" rx="1.39163" fill="#C4C4C4" fill-opacity="0.07"/>
<rect x="76.981" y="67.2891" width="27.8327" height="2.78327" rx="1.39163" fill="#C4C4C4" fill-opacity="0.07"/>
<rect x="76.981" y="92.3379" width="27.8327" height="2.78327" rx="1.39163" fill="#C4C4C4" fill-opacity="0.07"/>
<path opacity="0.4" d="M145.429 13.156C144.771 13.156 143.899 13.1414 142.813 13.1414C140.165 13.1414 137.987 10.9495 137.987 8.27637V3.58637C137.987 3.21741 137.693 2.91699 137.327 2.91699H129.614C126.014 2.91699 123.104 5.87158 123.104 9.49262V25.2062C123.104 29.0051 126.152 32.0837 129.914 32.0837H141.401C144.988 32.0837 147.896 29.148 147.896 25.5241V13.8122C147.896 13.4418 147.603 13.1428 147.236 13.1443C146.619 13.1487 145.88 13.156 145.429 13.156Z" fill="url(#paint0_linear_2008_12078)"/>
<path opacity="0.4" d="M141.456 3.74433C141.02 3.29078 140.259 3.60287 140.259 4.23141V8.07703C140.259 9.68995 141.587 11.017 143.2 11.017C144.216 11.0287 145.628 11.0316 146.827 11.0287C147.441 11.0272 147.753 10.2937 147.327 9.85037C145.789 8.25057 143.034 5.38349 141.456 3.74433Z" fill="url(#paint1_linear_2008_12078)"/>
<path fill-rule="evenodd" clip-rule="evenodd" d="M131.087 16.607H136.023C136.623 16.607 137.11 16.1214 137.11 15.522C137.11 14.9226 136.623 14.4355 136.023 14.4355H131.087C130.488 14.4355 130.002 14.9226 130.002 15.522C130.002 16.1214 130.488 16.607 131.087 16.607ZM131.087 23.8902H139.026C139.626 23.8902 140.113 23.4046 140.113 22.8052C140.113 22.2058 139.626 21.7188 139.026 21.7188H131.087C130.488 21.7188 130.002 22.2058 130.002 22.8052C130.002 23.4046 130.488 23.8902 131.087 23.8902Z" fill="url(#paint2_linear_2008_12078)"/>
<path opacity="0.4" d="M66.8237 107.481H59.4686C58.751 107.481 58.1674 108.074 58.1674 108.803C58.1674 109.534 58.751 110.125 59.4686 110.125H66.8237C67.5413 110.125 68.125 109.534 68.125 108.803C68.125 108.074 67.5413 107.481 66.8237 107.481Z" fill="url(#paint3_linear_2008_12078)"/>
<path d="M54.3158 91.9172L61.2855 97.549C61.4536 97.6837 61.4823 97.9308 61.3511 98.103L53.0884 108.869C52.569 109.535 51.8035 109.911 50.9834 109.925L46.4727 109.98C46.2322 109.983 46.0217 109.816 45.967 109.578L44.9418 105.121C44.7642 104.301 44.9418 103.454 45.4613 102.802L53.765 91.9838C53.8989 91.8103 54.1463 91.7797 54.3158 91.9172Z" fill="url(#paint4_linear_2008_12078)"/>
<path opacity="0.4" d="M64.4058 94.1929L63.0622 95.8702C62.9268 96.041 62.6835 96.0687 62.5154 95.9327C60.882 94.6108 56.6994 91.2187 55.5389 90.2787C55.3694 90.1398 55.3462 89.8927 55.4829 89.7205L56.7787 88.1112C57.9542 86.5977 60.0045 86.4589 61.6584 87.778L63.5583 89.2914C64.3374 89.9024 64.8569 90.7077 65.0345 91.5547C65.2396 92.4864 65.0209 93.4014 64.4058 94.1929Z" fill="url(#paint5_linear_2008_12078)"/>
<defs>
<filter id="filter0_b_2008_12078" x="0.106445" y="-40.8975" width="192.715" height="205.936" filterUnits="userSpaceOnUse" color-interpolation-filters="sRGB">
<feFlood flood-opacity="0" result="BackgroundImageFix"/>
<feGaussianBlur in="BackgroundImage" stdDeviation="28"/>
<feComposite in2="SourceAlpha" operator="in" result="effect1_backgroundBlur_2008_12078"/>
<feBlend mode="normal" in="SourceGraphic" in2="effect1_backgroundBlur_2008_12078" result="shape"/>
</filter>
<filter id="filter1_b_2008_12078" x="10.5437" y="-48.5508" width="191.323" height="205.936" filterUnits="userSpaceOnUse" color-interpolation-filters="sRGB">
<feFlood flood-opacity="0" result="BackgroundImageFix"/>
<feGaussianBlur in="BackgroundImage" stdDeviation="28"/>
<feComposite in2="SourceAlpha" operator="in" result="effect1_backgroundBlur_2008_12078"/>
<feBlend mode="normal" in="SourceGraphic" in2="effect1_backgroundBlur_2008_12078" result="shape"/>
</filter>
<linearGradient id="paint0_linear_2008_12078" x1="135.5" y1="2.91699" x2="155.348" y2="39.32" gradientUnits="userSpaceOnUse">
<stop stop-color="white"/>
<stop offset="1" stop-color="#6F5ADC"/>
</linearGradient>
<linearGradient id="paint1_linear_2008_12078" x1="143.891" y1="3.5293" x2="148.619" y2="13.4113" gradientUnits="userSpaceOnUse">
<stop stop-color="white"/>
<stop offset="1" stop-color="#6F5ADC"/>
</linearGradient>
<linearGradient id="paint2_linear_2008_12078" x1="135.057" y1="14.4355" x2="140.643" y2="27.3235" gradientUnits="userSpaceOnUse">
<stop stop-color="white"/>
<stop offset="1" stop-color="#6F5ADC"/>
</linearGradient>
<linearGradient id="paint3_linear_2008_12078" x1="63.1462" y1="107.481" x2="63.665" y2="111.698" gradientUnits="userSpaceOnUse">
<stop stop-color="white"/>
<stop offset="1" stop-color="#6F5ADC"/>
</linearGradient>
<linearGradient id="paint4_linear_2008_12078" x1="53.1542" y1="91.8311" x2="65.02" y2="115.19" gradientUnits="userSpaceOnUse">
<stop stop-color="white"/>
<stop offset="1" stop-color="#6F5ADC"/>
</linearGradient>
<linearGradient id="paint5_linear_2008_12078" x1="60.2518" y1="86.875" x2="65.6776" y2="99.3137" gradientUnits="userSpaceOnUse">
<stop stop-color="white"/>
<stop offset="1" stop-color="#6F5ADC"/>
</linearGradient>
</defs>
</svg>
