<svg width="223" height="143" viewBox="0 0 223 143" fill="none" xmlns="http://www.w3.org/2000/svg">
<g filter="url(#filter0_b_1948_12091)">
<rect x="28" y="14" width="151.885" height="109" rx="14" fill="white" fill-opacity="0.03"/>
<rect x="28.5" y="14.5" width="150.885" height="108" rx="13.5" stroke="#E5E5E5" stroke-opacity="0.19"/>
</g>
<path d="M166.781 35.1452C166.781 33.6758 162.11 32.4648 156.303 32.4648H51.5822C45.838 32.4648 41.1038 33.6597 41.1038 35.1452C41.1038 36.6145 45.7748 37.8255 51.5822 37.8255H156.303C162.047 37.8255 166.781 36.6145 166.781 35.1452Z" fill="#C4C4C4" fill-opacity="0.1"/>
<line x1="49.3469" y1="51.5244" x2="49.3469" y2="109.3" stroke="white" stroke-opacity="0.11"/>
<line x1="72.5764" y1="51.5244" x2="72.5764" y2="109.3" stroke="white" stroke-opacity="0.11"/>
<line x1="95.8059" y1="51.5244" x2="95.8059" y2="109.3" stroke="white" stroke-opacity="0.11"/>
<line x1="119.035" y1="51.5244" x2="119.035" y2="109.3" stroke="white" stroke-opacity="0.11"/>
<line x1="142.265" y1="51.5244" x2="142.265" y2="109.3" stroke="white" stroke-opacity="0.11"/>
<line x1="165.495" y1="51.5244" x2="165.495" y2="109.3" stroke="white" stroke-opacity="0.11"/>
<line x1="42.2952" y1="65.3193" x2="173.929" y2="65.3193" stroke="white" stroke-opacity="0.15"/>
<line x1="42.2952" y1="80.21" x2="173.929" y2="80.21" stroke="white" stroke-opacity="0.15"/>
<line x1="42.2952" y1="95.6963" x2="173.929" y2="95.6963" stroke="white" stroke-opacity="0.15"/>
<path d="M79.9244 74.4822L79.2404 75.1662C78.9354 75.4562 78.9184 75.9372 79.2024 76.2482L79.2244 76.2642C79.5164 76.5562 79.9864 76.5642 80.2874 76.2822L80.9684 75.6012C81.2774 75.3132 81.2944 74.8292 81.0064 74.5192C80.7174 74.2112 80.2334 74.1932 79.9244 74.4822Z" fill="url(#paint0_linear_1948_12091)"/>
<path d="M84.182 76.1522C84.483 76.4392 84.958 76.4332 85.252 76.1402C85.257 76.1342 85.263 76.1302 85.267 76.1242C85.561 75.8152 85.549 75.3262 85.239 75.0332L83.401 73.1942L85.091 71.5052C85.336 71.2592 85.386 70.8812 85.213 70.5802C85.178 70.5122 85.132 70.4512 85.078 70.3972C84.776 70.1022 84.295 70.0992 83.99 70.3902L82.293 72.0882L80.428 70.2222C80.425 70.2192 80.423 70.2172 80.42 70.2152C80.121 69.9232 79.643 69.9292 79.351 70.2282C79.066 70.5442 79.072 71.0262 79.364 71.3362L84.144 76.1152L84.182 76.1522Z" fill="url(#paint1_linear_1948_12091)"/>
<path d="M125.924 89.4822L125.24 90.1662C124.935 90.4562 124.918 90.9372 125.202 91.2482L125.224 91.2642C125.516 91.5562 125.986 91.5642 126.287 91.2822L126.968 90.6012C127.277 90.3132 127.294 89.8292 127.006 89.5192C126.717 89.2112 126.233 89.1932 125.924 89.4822Z" fill="url(#paint2_linear_1948_12091)"/>
<path d="M130.182 91.1522C130.483 91.4392 130.958 91.4332 131.252 91.1402C131.257 91.1342 131.263 91.1302 131.267 91.1242C131.561 90.8152 131.549 90.3262 131.239 90.0332L129.401 88.1942L131.091 86.5052C131.336 86.2592 131.386 85.8812 131.213 85.5802C131.178 85.5122 131.132 85.4512 131.078 85.3972C130.776 85.1022 130.295 85.0992 129.99 85.3902L128.293 87.0882L126.428 85.2222C126.425 85.2192 126.423 85.2172 126.42 85.2152C126.121 84.9232 125.643 84.9292 125.351 85.2282C125.066 85.5442 125.072 86.0262 125.364 86.3362L130.144 91.1152L130.182 91.1522Z" fill="url(#paint3_linear_1948_12091)"/>
<path d="M24.487 143C38.0108 143 48.974 132.031 48.974 118.5C48.974 104.969 38.0108 94 24.487 94C10.9632 94 0 104.969 0 118.5C0 132.031 10.9632 143 24.487 143Z" fill="url(#paint4_linear_1948_12091)"/>
<path d="M24.4871 138.327C35.4314 138.327 44.3035 129.45 44.3035 118.5C44.3035 107.55 35.4314 98.6729 24.4871 98.6729C13.5428 98.6729 4.67065 107.55 4.67065 118.5C4.67065 129.45 13.5428 138.327 24.4871 138.327Z" fill="#252B2E" fill-opacity="0.7"/>
<path d="M18.4731 127.033C18.3585 127.033 18.2461 127.001 18.1487 126.941C18.0512 126.88 17.9726 126.794 17.9217 126.691C17.8708 126.588 17.8496 126.473 17.8604 126.359C17.8713 126.245 17.9139 126.136 17.9833 126.044L23.8711 118.293V102.291C23.8711 102.128 23.9359 101.971 24.0514 101.855C24.1669 101.74 24.3236 101.675 24.4869 101.675C24.6503 101.675 24.8069 101.74 24.9224 101.855C25.0379 101.971 25.1028 102.128 25.1028 102.291V118.501C25.1028 118.635 25.0587 118.766 24.9772 118.874L18.964 126.79C18.9065 126.866 18.8323 126.927 18.7471 126.969C18.662 127.012 18.5682 127.034 18.4731 127.033Z" fill="url(#paint5_linear_1948_12091)"/>
<path d="M24.4871 120.929C25.8282 120.929 26.9154 119.842 26.9154 118.5C26.9154 117.158 25.8282 116.07 24.4871 116.07C23.146 116.07 22.0588 117.158 22.0588 118.5C22.0588 119.842 23.146 120.929 24.4871 120.929Z" fill="url(#paint6_linear_1948_12091)"/>
<path opacity="0.1" d="M205.841 85L204.014 86.4901C202.811 87.4712 202.763 89.2929 203.912 90.3365C203.638 90.3447 201.567 93.0451 201.361 93.2343C201.155 93.4235 201.018 93.6821 200.975 93.9655C198.928 95.7036 198.261 98.5768 199.332 101.039L199.863 102.259C199.841 102.388 199.846 102.521 199.879 102.647C199.912 102.773 199.971 102.891 200.052 102.99C200.134 103.089 200.235 103.168 200.35 103.221C200.464 103.274 200.588 103.3 200.713 103.296H208.623C208.897 103.288 209.159 103.18 209.365 102.99C209.571 102.801 209.707 102.543 209.751 102.259L209.972 101.91C211.622 99.3023 211.621 96.5655 210.847 93.5777C210.814 93.4513 210.755 93.3342 210.673 93.2349C210.592 93.1355 214.648 94.4531 211.79 90.9463C211.675 90.8933 209.519 85.5326 205.841 85Z" fill="#CABDFF"/>
<path d="M193 102.037C193 99.2757 195.239 97.0371 198 97.0371H211.774C214.535 97.0371 216.774 99.2757 216.774 102.037V112.113C216.774 118.678 211.452 124 204.887 124C198.322 124 193 118.678 193 112.113V102.037Z" fill="#6F5ADC"/>
<path d="M215.641 103.296C217.593 103.296 219.465 103.955 220.845 105.129C222.225 106.303 223 107.895 223 109.555C223 111.215 222.225 112.807 220.845 113.981C219.465 115.155 217.593 115.814 215.641 115.814V113.926C217.004 113.926 218.311 113.465 219.274 112.646C220.238 111.826 220.779 110.714 220.779 109.555C220.779 108.396 220.238 107.284 219.274 106.465C218.311 105.645 217.004 105.185 215.641 105.185V103.296Z" fill="url(#paint7_linear_1948_12091)"/>
<g filter="url(#filter1_b_1948_12091)">
<rect x="165" width="28" height="28" rx="6" fill="white" fill-opacity="0.03"/>
<rect x="165.5" y="0.5" width="27" height="27" rx="5.5" stroke="#E5E5E5" stroke-opacity="0.19"/>
</g>
<circle cx="179" cy="13" r="8" fill="#474C4F" fill-opacity="0.52"/>
<path d="M179.494 13.7273C179.494 11.6115 178.203 10.3651 176.487 10.3651C174.767 10.3651 173.479 11.6115 173.479 13.7273C173.479 15.8398 174.767 17.0895 176.487 17.0895C176.902 17.0895 177.292 17.016 177.647 16.8754L178.187 17.5625H179.338L178.43 16.3991C179.088 15.8239 179.494 14.913 179.494 13.7273ZM176.084 14.8011L176.969 15.9645C176.816 16.006 176.656 16.0252 176.487 16.0252C175.423 16.0252 174.672 15.2166 174.672 13.7273C174.672 12.2379 175.423 11.4293 176.487 11.4293C177.554 11.4293 178.302 12.2379 178.302 13.7273C178.302 14.5327 178.085 15.1367 177.714 15.5234L177.158 14.8011H176.084ZM180.624 17H183.274C184.773 17 185.508 16.2362 185.508 15.2166C185.508 14.2259 184.805 13.6442 184.108 13.609V13.5451C184.747 13.3949 185.252 12.9474 185.252 12.1516C185.252 11.1768 184.549 10.4545 183.13 10.4545H180.624V17ZM181.81 16.0092V14.0916H183.117C183.849 14.0916 184.303 14.5391 184.303 15.1239C184.303 15.6449 183.945 16.0092 183.085 16.0092H181.81ZM181.81 13.2383V11.4325H183.008C183.705 11.4325 184.066 11.8001 184.066 12.305C184.066 12.8803 183.6 13.2383 182.983 13.2383H181.81Z" fill="#6F5ADC"/>
<g filter="url(#filter2_b_1948_12091)">
<rect x="119" y="113" width="28" height="28" rx="6" fill="white" fill-opacity="0.03"/>
<rect x="119.5" y="113.5" width="27" height="27" rx="5.5" stroke="#E5E5E5" stroke-opacity="0.19"/>
</g>
<circle cx="133" cy="126" r="8" fill="#474C4F" fill-opacity="0.52"/>
<path d="M127.646 130H128.831V127.603H130.039L131.324 130H132.647L131.232 127.405C132.002 127.095 132.408 126.436 132.408 125.548C132.408 124.298 131.602 123.455 130.1 123.455H127.646V130ZM128.831 126.619V124.445H129.918C130.803 124.445 131.2 124.851 131.2 125.548C131.2 126.245 130.803 126.619 129.924 126.619H128.831ZM133.499 130H134.685V127.603H135.893L137.178 130H138.501L137.085 127.405C137.855 127.095 138.261 126.436 138.261 125.548C138.261 124.298 137.456 123.455 135.954 123.455H133.499V130ZM134.685 126.619V124.445H135.771C136.657 124.445 137.053 124.851 137.053 125.548C137.053 126.245 136.657 126.619 135.778 126.619H134.685Z" fill="#6F5ADC"/>
<defs>
<filter id="filter0_b_1948_12091" x="-28" y="-42" width="263.885" height="221" filterUnits="userSpaceOnUse" color-interpolation-filters="sRGB">
<feFlood flood-opacity="0" result="BackgroundImageFix"/>
<feGaussianBlur in="BackgroundImage" stdDeviation="28"/>
<feComposite in2="SourceAlpha" operator="in" result="effect1_backgroundBlur_1948_12091"/>
<feBlend mode="normal" in="SourceGraphic" in2="effect1_backgroundBlur_1948_12091" result="shape"/>
</filter>
<filter id="filter1_b_1948_12091" x="109" y="-56" width="140" height="140" filterUnits="userSpaceOnUse" color-interpolation-filters="sRGB">
<feFlood flood-opacity="0" result="BackgroundImageFix"/>
<feGaussianBlur in="BackgroundImage" stdDeviation="28"/>
<feComposite in2="SourceAlpha" operator="in" result="effect1_backgroundBlur_1948_12091"/>
<feBlend mode="normal" in="SourceGraphic" in2="effect1_backgroundBlur_1948_12091" result="shape"/>
</filter>
<filter id="filter2_b_1948_12091" x="63" y="57" width="140" height="140" filterUnits="userSpaceOnUse" color-interpolation-filters="sRGB">
<feFlood flood-opacity="0" result="BackgroundImageFix"/>
<feGaussianBlur in="BackgroundImage" stdDeviation="28"/>
<feComposite in2="SourceAlpha" operator="in" result="effect1_backgroundBlur_1948_12091"/>
<feBlend mode="normal" in="SourceGraphic" in2="effect1_backgroundBlur_1948_12091" result="shape"/>
</filter>
<linearGradient id="paint0_linear_1948_12091" x1="80.1059" y1="74.2764" x2="80.1059" y2="76.4886" gradientUnits="userSpaceOnUse">
<stop stop-color="#502EFF"/>
<stop offset="1" stop-color="#6F5ADC"/>
</linearGradient>
<linearGradient id="paint1_linear_1948_12091" x1="82.3105" y1="70" x2="82.3105" y2="76.3637" gradientUnits="userSpaceOnUse">
<stop stop-color="#502EFF"/>
<stop offset="1" stop-color="#6F5ADC"/>
</linearGradient>
<linearGradient id="paint2_linear_1948_12091" x1="126.106" y1="89.2764" x2="126.106" y2="91.4886" gradientUnits="userSpaceOnUse">
<stop stop-color="#502EFF"/>
<stop offset="1" stop-color="#6F5ADC"/>
</linearGradient>
<linearGradient id="paint3_linear_1948_12091" x1="128.31" y1="85" x2="128.31" y2="91.3637" gradientUnits="userSpaceOnUse">
<stop stop-color="#502EFF"/>
<stop offset="1" stop-color="#6F5ADC"/>
</linearGradient>
<linearGradient id="paint4_linear_1948_12091" x1="24.487" y1="94" x2="54.7658" y2="159.298" gradientUnits="userSpaceOnUse">
<stop stop-color="white"/>
<stop offset="1" stop-color="#6F5ADC"/>
</linearGradient>
<linearGradient id="paint5_linear_1948_12091" x1="21.4802" y1="101.675" x2="39.8217" y2="112.982" gradientUnits="userSpaceOnUse">
<stop stop-color="white"/>
<stop offset="1" stop-color="#6F5ADC"/>
</linearGradient>
<linearGradient id="paint6_linear_1948_12091" x1="24.4871" y1="116.07" x2="27.4897" y2="122.546" gradientUnits="userSpaceOnUse">
<stop stop-color="white"/>
<stop offset="1" stop-color="#6F5ADC"/>
</linearGradient>
<linearGradient id="paint7_linear_1948_12091" x1="208.283" y1="109.555" x2="223" y2="109.555" gradientUnits="userSpaceOnUse">
<stop stop-color="#502EFF"/>
<stop offset="1" stop-color="#6F5ADC"/>
</linearGradient>
</defs>
</svg>
