<svg width="309" height="136" viewBox="0 0 309 136" fill="none" xmlns="http://www.w3.org/2000/svg">
<path opacity="0.1" d="M259.459 5.00178H217.851C216.411 5.04313 215.031 5.58503 213.948 6.53414C212.866 7.48324 212.148 8.78014 211.919 10.2014L206.071 51.7986C205.954 52.445 205.982 53.1094 206.155 53.7433C206.327 54.3773 206.639 54.9648 207.067 55.463C207.495 55.9612 208.029 56.3576 208.63 56.6232C209.231 56.8888 209.884 57.0169 210.541 56.9982H252.149C253.589 56.9569 254.969 56.415 256.052 55.4659C257.134 54.5168 257.852 53.2199 258.081 51.7986L263.929 10.2014C264.046 9.55502 264.018 8.89061 263.845 8.25666C263.673 7.62271 263.361 7.0352 262.933 6.53699C262.505 6.03878 261.971 5.64242 261.37 5.37683C260.769 5.11124 260.116 4.98311 259.459 5.00178Z" fill="#CABDFF"/>
<path opacity="0.1" d="M13.0605 96.0004H4.45183C4.15401 96.0091 3.86851 96.1238 3.64448 96.3245C3.42046 96.5253 3.27195 96.7996 3.22453 97.1003L2.01464 105.9C1.9904 106.036 1.99632 106.177 2.03197 106.311C2.06762 106.445 2.13211 106.569 2.22073 106.675C2.30934 106.78 2.41986 106.864 2.54421 106.92C2.66856 106.976 2.80361 107.004 2.93951 107H11.5482C11.846 106.991 12.1315 106.876 12.3555 106.675C12.5795 106.475 12.7281 106.2 12.7755 105.9L13.9854 97.1003C14.0096 96.9636 14.0037 96.823 13.968 96.6889C13.9324 96.5548 13.8679 96.4305 13.7793 96.3251C13.6907 96.2197 13.5801 96.1359 13.4558 96.0797C13.3314 96.0235 13.1964 95.9964 13.0605 96.0004Z" fill="#CABDFF"/>
<path opacity="0.1" d="M306.964 85.0009H288.312C287.667 85.0207 287.048 85.2813 286.563 85.7376C286.078 86.1939 285.756 86.8174 285.653 87.5007L283.032 107.499C282.979 107.81 282.992 108.13 283.069 108.434C283.147 108.739 283.286 109.022 283.478 109.261C283.67 109.501 283.91 109.691 284.179 109.819C284.449 109.947 284.741 110.008 285.036 109.999H303.688C304.333 109.979 304.952 109.719 305.437 109.262C305.922 108.806 306.244 108.183 306.347 107.499L308.968 87.5007C309.021 87.1899 309.008 86.8705 308.931 86.5657C308.853 86.2609 308.714 85.9785 308.522 85.7389C308.33 85.4994 308.09 85.3089 307.821 85.1812C307.551 85.0535 307.259 84.9919 306.964 85.0009Z" fill="#CABDFF"/>
<g filter="url(#filter0_b_1939_12232)">
<rect x="7.90137" y="24.0469" width="234.402" height="32.653" rx="5" fill="white" fill-opacity="0.03"/>
<rect x="8.40137" y="24.5469" width="233.402" height="31.653" rx="4.5" stroke="#E5E5E5" stroke-opacity="0.19"/>
</g>
<g filter="url(#filter1_b_1939_12232)">
<rect x="30.0587" y="63.6963" width="227.405" height="32.653" rx="5" fill="white" fill-opacity="0.03"/>
<rect x="30.5587" y="64.1963" width="226.405" height="31.653" rx="4.5" stroke="#E5E5E5" stroke-opacity="0.19"/>
</g>
<g filter="url(#filter2_b_1939_12232)">
<rect x="42.8868" y="103.347" width="227.405" height="32.653" rx="5" fill="white" fill-opacity="0.03"/>
<rect x="43.3868" y="103.847" width="226.405" height="31.653" rx="4.5" stroke="#E5E5E5" stroke-opacity="0.19"/>
</g>
<rect x="18.3971" y="38.04" width="74.6354" height="5.83089" rx="2.91545" fill="#C4C4C4" fill-opacity="0.07"/>
<rect x="46.3851" y="78.8564" width="74.6354" height="5.83089" rx="2.91545" fill="#C4C4C4" fill-opacity="0.07"/>
<rect x="59.2134" y="119.673" width="74.6354" height="5.83089" rx="2.91545" fill="#C4C4C4" fill-opacity="0.07"/>
<g filter="url(#filter3_b_1939_12232)">
<rect x="8" y="24" width="234" height="33" rx="5" fill="white" fill-opacity="0.03"/>
<rect x="8.5" y="24.5" width="233" height="32" rx="4.5" stroke="#E5E5E5" stroke-opacity="0.19"/>
</g>
<g filter="url(#filter4_b_1939_12232)">
<rect x="30" y="64" width="227" height="32" rx="5" fill="white" fill-opacity="0.03"/>
<rect x="30.5" y="64.5" width="226" height="31" rx="4.5" stroke="#E5E5E5" stroke-opacity="0.19"/>
</g>
<g filter="url(#filter5_b_1939_12232)">
<rect x="43" y="103" width="227" height="33" rx="5" fill="white" fill-opacity="0.03"/>
<rect x="43.5" y="103.5" width="226" height="32" rx="4.5" stroke="#E5E5E5" stroke-opacity="0.19"/>
</g>
<rect x="18" y="38" width="75" height="6" rx="3" fill="#C4C4C4" fill-opacity="0.07"/>
<rect x="46" y="79" width="75" height="6" rx="3" fill="#C4C4C4" fill-opacity="0.07"/>
<rect x="59" y="120" width="75" height="6" rx="3" fill="#C4C4C4" fill-opacity="0.07"/>
<path opacity="0.4" d="M10.794 34.333H5.20667C3.18 34.333 2 35.5197 2 37.553V44.4397C2 46.5063 3.18 47.6663 5.20667 47.6663H10.794C12.8533 47.6663 14 46.5063 14 44.4397V37.553C14 35.5197 12.8533 34.333 10.794 34.333Z" fill="url(#paint0_linear_1939_12232)"/>
<path fill-rule="evenodd" clip-rule="evenodd" d="M5.38664 37.4326V37.4393C5.09931 37.4393 4.86664 37.6726 4.86664 37.9593C4.86664 38.246 5.09931 38.4793 5.38664 38.4793H7.37931C7.66664 38.4793 7.89997 38.246 7.89997 37.952C7.89997 37.666 7.66664 37.4326 7.37931 37.4326H5.38664ZM10.6133 41.4926H5.38664C5.09931 41.4926 4.86664 41.2593 4.86664 40.9726C4.86664 40.686 5.09931 40.452 5.38664 40.452H10.6133C10.9 40.452 11.1333 40.686 11.1333 40.9726C11.1333 41.2593 10.9 41.4926 10.6133 41.4926ZM10.6133 44.5393H5.38664C5.18664 44.566 4.99331 44.466 4.88664 44.2993C4.77997 44.126 4.77997 43.906 4.88664 43.7393C4.99331 43.566 5.18664 43.4726 5.38664 43.4926H10.6133C10.8793 43.5193 11.08 43.746 11.08 44.0193C11.08 44.2853 10.8793 44.5126 10.6133 44.5393Z" fill="url(#paint1_linear_1939_12232)"/>
<path opacity="0.4" d="M33.4686 75.333H27.5321C25.3787 75.333 24.125 76.5197 24.125 78.553V85.4397C24.125 87.5063 25.3787 88.6663 27.5321 88.6663H33.4686C35.6567 88.6663 36.875 87.5063 36.875 85.4397V78.553C36.875 76.5197 35.6567 75.333 33.4686 75.333Z" fill="url(#paint2_linear_1939_12232)"/>
<path fill-rule="evenodd" clip-rule="evenodd" d="M27.7233 78.4326V78.4393C27.418 78.4393 27.1708 78.6726 27.1708 78.9593C27.1708 79.246 27.418 79.4793 27.7233 79.4793H29.8405C30.1458 79.4793 30.3937 79.246 30.3937 78.952C30.3937 78.666 30.1458 78.4326 29.8405 78.4326H27.7233ZM33.2766 82.4926H27.7233C27.418 82.4926 27.1708 82.2593 27.1708 81.9726C27.1708 81.686 27.418 81.452 27.7233 81.452H33.2766C33.5812 81.452 33.8291 81.686 33.8291 81.9726C33.8291 82.2593 33.5812 82.4926 33.2766 82.4926ZM33.2766 85.5393H27.7233C27.5108 85.566 27.3054 85.466 27.1921 85.2993C27.0787 85.126 27.0787 84.906 27.1921 84.7393C27.3054 84.566 27.5108 84.4726 27.7233 84.4926H33.2766C33.5593 84.5193 33.7725 84.746 33.7725 85.0193C33.7725 85.2853 33.5593 85.5126 33.2766 85.5393Z" fill="url(#paint3_linear_1939_12232)"/>
<path opacity="0.4" d="M45.4686 116.333H39.5321C37.3787 116.333 36.125 117.52 36.125 119.553V126.44C36.125 128.506 37.3787 129.666 39.5321 129.666H45.4686C47.6567 129.666 48.875 128.506 48.875 126.44V119.553C48.875 117.52 47.6567 116.333 45.4686 116.333Z" fill="url(#paint4_linear_1939_12232)"/>
<path fill-rule="evenodd" clip-rule="evenodd" d="M39.7233 119.433V119.439C39.418 119.439 39.1708 119.673 39.1708 119.959C39.1708 120.246 39.418 120.479 39.7233 120.479H41.8405C42.1458 120.479 42.3937 120.246 42.3937 119.952C42.3937 119.666 42.1458 119.433 41.8405 119.433H39.7233ZM45.2766 123.493H39.7233C39.418 123.493 39.1708 123.259 39.1708 122.973C39.1708 122.686 39.418 122.452 39.7233 122.452H45.2766C45.5812 122.452 45.8291 122.686 45.8291 122.973C45.8291 123.259 45.5812 123.493 45.2766 123.493ZM45.2766 126.539H39.7233C39.5108 126.566 39.3054 126.466 39.1921 126.299C39.0787 126.126 39.0787 125.906 39.1921 125.739C39.3054 125.566 39.5108 125.473 39.7233 125.493H45.2766C45.5593 125.519 45.7725 125.746 45.7725 126.019C45.7725 126.285 45.5593 126.513 45.2766 126.539Z" fill="url(#paint5_linear_1939_12232)"/>
<path d="M237.208 32.5879C236.766 32.5879 236.342 32.7637 236.029 33.0764C235.716 33.389 235.541 33.8132 235.541 34.2555V34.4725C235.541 35.0683 235.858 35.6186 236.374 35.9166C236.89 36.2143 237.526 36.2143 238.042 35.9166C238.558 35.6186 238.876 35.0683 238.876 34.4725V34.2555C238.876 33.8132 238.7 33.389 238.387 33.0764C238.075 32.7637 237.65 32.5879 237.208 32.5879H237.208Z" fill="url(#paint6_linear_1939_12232)"/>
<path d="M239.793 25.4665C243.128 22.5147 250.415 15.4608 250.415 9.94137C250.335 6.56114 248.554 3.44983 245.679 1.67004C243.928 0.537871 241.877 -0.0429928 239.792 0.00247959H234.69C232.285 -0.0319803 229.937 0.736785 228.019 2.18697C225.52 4.01369 224.03 6.91291 224 10.0082C224 15.628 231.271 22.615 234.622 25.5507C231.287 28.3522 224 35.4727 224 40.9931C224.072 44.4102 225.883 47.5545 228.803 49.3312C230.536 50.4496 232.561 51.0301 234.623 50.9988H239.726C242.13 51.0329 244.478 50.2641 246.396 48.814C248.889 47.0086 250.39 44.1375 250.449 41.0599C250.415 35.3731 243.144 28.3522 239.793 25.4674L239.793 25.4665ZM227.336 10.0078C227.386 7.93804 228.412 6.01438 230.104 4.82146C231.426 3.83243 233.039 3.31059 234.69 3.33724H239.793C241.194 3.30029 242.574 3.67722 243.762 4.42148C245.735 5.57957 246.989 7.65566 247.097 9.94101C247.097 13.5262 241.411 19.663 237.225 23.2817C233.006 19.7132 227.337 13.6097 227.337 10.0074L227.336 10.0078ZM247.047 41.3591C245.38 40.4753 243.795 39.6916 242.411 38.991V38.9914C238.994 37.4915 235.106 37.4915 231.688 38.9914C230.388 39.6418 228.903 40.3921 227.336 41.2259V41.0259C227.336 37.8907 231.655 32.838 235.54 29.1858V29.686H235.541C235.541 30.2817 235.858 30.8323 236.374 31.1305C236.89 31.4282 237.526 31.4282 238.042 31.1305C238.558 30.8324 238.876 30.2818 238.876 29.686V29.1524C242.761 32.771 247.08 37.8241 247.08 41.0261C247.08 41.0926 247.047 41.1927 247.047 41.2929L247.047 41.3591Z" fill="url(#paint7_linear_1939_12232)"/>
<defs>
<filter id="filter0_b_1939_12232" x="-48.0986" y="-31.9531" width="346.402" height="144.653" filterUnits="userSpaceOnUse" color-interpolation-filters="sRGB">
<feFlood flood-opacity="0" result="BackgroundImageFix"/>
<feGaussianBlur in="BackgroundImage" stdDeviation="28"/>
<feComposite in2="SourceAlpha" operator="in" result="effect1_backgroundBlur_1939_12232"/>
<feBlend mode="normal" in="SourceGraphic" in2="effect1_backgroundBlur_1939_12232" result="shape"/>
</filter>
<filter id="filter1_b_1939_12232" x="-25.9413" y="7.69629" width="339.405" height="144.653" filterUnits="userSpaceOnUse" color-interpolation-filters="sRGB">
<feFlood flood-opacity="0" result="BackgroundImageFix"/>
<feGaussianBlur in="BackgroundImage" stdDeviation="28"/>
<feComposite in2="SourceAlpha" operator="in" result="effect1_backgroundBlur_1939_12232"/>
<feBlend mode="normal" in="SourceGraphic" in2="effect1_backgroundBlur_1939_12232" result="shape"/>
</filter>
<filter id="filter2_b_1939_12232" x="-13.1132" y="47.3467" width="339.405" height="144.653" filterUnits="userSpaceOnUse" color-interpolation-filters="sRGB">
<feFlood flood-opacity="0" result="BackgroundImageFix"/>
<feGaussianBlur in="BackgroundImage" stdDeviation="28"/>
<feComposite in2="SourceAlpha" operator="in" result="effect1_backgroundBlur_1939_12232"/>
<feBlend mode="normal" in="SourceGraphic" in2="effect1_backgroundBlur_1939_12232" result="shape"/>
</filter>
<filter id="filter3_b_1939_12232" x="-48" y="-32" width="346" height="145" filterUnits="userSpaceOnUse" color-interpolation-filters="sRGB">
<feFlood flood-opacity="0" result="BackgroundImageFix"/>
<feGaussianBlur in="BackgroundImage" stdDeviation="28"/>
<feComposite in2="SourceAlpha" operator="in" result="effect1_backgroundBlur_1939_12232"/>
<feBlend mode="normal" in="SourceGraphic" in2="effect1_backgroundBlur_1939_12232" result="shape"/>
</filter>
<filter id="filter4_b_1939_12232" x="-26" y="8" width="339" height="144" filterUnits="userSpaceOnUse" color-interpolation-filters="sRGB">
<feFlood flood-opacity="0" result="BackgroundImageFix"/>
<feGaussianBlur in="BackgroundImage" stdDeviation="28"/>
<feComposite in2="SourceAlpha" operator="in" result="effect1_backgroundBlur_1939_12232"/>
<feBlend mode="normal" in="SourceGraphic" in2="effect1_backgroundBlur_1939_12232" result="shape"/>
</filter>
<filter id="filter5_b_1939_12232" x="-13" y="47" width="339" height="145" filterUnits="userSpaceOnUse" color-interpolation-filters="sRGB">
<feFlood flood-opacity="0" result="BackgroundImageFix"/>
<feGaussianBlur in="BackgroundImage" stdDeviation="28"/>
<feComposite in2="SourceAlpha" operator="in" result="effect1_backgroundBlur_1939_12232"/>
<feBlend mode="normal" in="SourceGraphic" in2="effect1_backgroundBlur_1939_12232" result="shape"/>
</filter>
<linearGradient id="paint0_linear_1939_12232" x1="8" y1="34.333" x2="8" y2="47.6663" gradientUnits="userSpaceOnUse">
<stop stop-color="#502EFF"/>
<stop offset="1" stop-color="#6F5ADC"/>
</linearGradient>
<linearGradient id="paint1_linear_1939_12232" x1="7.96997" y1="37.4326" x2="7.96997" y2="44.5436" gradientUnits="userSpaceOnUse">
<stop stop-color="#502EFF"/>
<stop offset="1" stop-color="#6F5ADC"/>
</linearGradient>
<linearGradient id="paint2_linear_1939_12232" x1="30.5" y1="75.333" x2="30.5" y2="88.6663" gradientUnits="userSpaceOnUse">
<stop stop-color="#502EFF"/>
<stop offset="1" stop-color="#6F5ADC"/>
</linearGradient>
<linearGradient id="paint3_linear_1939_12232" x1="30.4681" y1="78.4326" x2="30.4681" y2="85.5436" gradientUnits="userSpaceOnUse">
<stop stop-color="#502EFF"/>
<stop offset="1" stop-color="#6F5ADC"/>
</linearGradient>
<linearGradient id="paint4_linear_1939_12232" x1="42.5" y1="116.333" x2="42.5" y2="129.666" gradientUnits="userSpaceOnUse">
<stop stop-color="#502EFF"/>
<stop offset="1" stop-color="#6F5ADC"/>
</linearGradient>
<linearGradient id="paint5_linear_1939_12232" x1="42.4681" y1="119.433" x2="42.4681" y2="126.544" gradientUnits="userSpaceOnUse">
<stop stop-color="#502EFF"/>
<stop offset="1" stop-color="#6F5ADC"/>
</linearGradient>
<linearGradient id="paint6_linear_1939_12232" x1="237.208" y1="32.5879" x2="239.491" y2="37.2124" gradientUnits="userSpaceOnUse">
<stop stop-color="white"/>
<stop offset="1" stop-color="#6F5ADC"/>
</linearGradient>
<linearGradient id="paint7_linear_1939_12232" x1="237.224" y1="0" x2="278.253" y2="45.9106" gradientUnits="userSpaceOnUse">
<stop stop-color="white"/>
<stop offset="1" stop-color="#6F5ADC"/>
</linearGradient>
</defs>
</svg>
