<svg width="420" height="233" viewBox="0 0 420 233" fill="none" xmlns="http://www.w3.org/2000/svg">
<g filter="url(#filter0_b_1948_12070)">
<rect x="95" y="110" width="201" height="56" rx="14" fill="white" fill-opacity="0.03"/>
<rect x="95.5" y="110.5" width="200" height="55" rx="13.5" stroke="#E5E5E5" stroke-opacity="0.19"/>
</g>
<g filter="url(#filter1_b_1948_12070)">
<rect x="114" y="177" width="195" height="56" rx="14" fill="white" fill-opacity="0.03"/>
<rect x="114.5" y="177.5" width="194" height="55" rx="13.5" stroke="#E5E5E5" stroke-opacity="0.19"/>
</g>
<circle cx="123" cy="138" r="22" fill="#474C4F" fill-opacity="0.52"/>
<circle cx="140" cy="205" r="22" fill="#474C4F" fill-opacity="0.52"/>
<path d="M132.291 212H134.663V208.101L136.114 206.388L140.019 212H142.87L137.763 204.783L142.825 198.909H139.93L134.822 204.924H134.663V198.909H132.291V212ZM146.844 198.909H144.473V212H146.844V198.909Z" fill="#6F5ADC"/>
<path d="M119.406 136.508H121.688C121.643 134.296 119.757 132.73 116.97 132.73C114.222 132.73 112.157 134.277 112.163 136.591C112.163 138.47 113.499 139.55 115.653 140.107L117.143 140.49C118.555 140.848 119.489 141.289 119.495 142.305C119.489 143.424 118.428 144.172 116.881 144.172C115.398 144.172 114.247 143.507 114.151 142.133H111.818C111.914 144.734 113.851 146.198 116.9 146.198C120.038 146.198 121.86 144.632 121.866 142.325C121.86 140.055 119.987 139.02 118.018 138.553L116.791 138.246C115.717 137.991 114.554 137.537 114.567 136.444C114.573 135.46 115.455 134.737 116.938 134.737C118.351 134.737 119.284 135.396 119.406 136.508ZM123.981 146H126.352V142.101L127.803 140.388L131.709 146H134.559L129.452 138.783L134.515 132.909H131.619L126.512 138.924H126.352V132.909H123.981V146Z" fill="#6F5ADC"/>
<rect x="169" y="190" width="90" height="11" rx="5.5" fill="#7E7E7E" fill-opacity="0.22"/>
<rect x="149" y="121" width="90" height="11" rx="5.5" fill="#7E7E7E" fill-opacity="0.22"/>
<rect x="169" y="208" width="64" height="11" rx="5.5" fill="#C4C4C4" fill-opacity="0.07"/>
<rect x="149" y="139" width="64" height="11" rx="5.5" fill="#C4C4C4" fill-opacity="0.07"/>
<line x1="249.5" y1="123" x2="249.5" y2="152" stroke="#A8A8A8" stroke-opacity="0.08"/>
<line x1="266.5" y1="193" x2="266.5" y2="222" stroke="#A8A8A8" stroke-opacity="0.08"/>
<path opacity="0.6" d="M270.5 153C267.434 153 264.438 152.091 261.889 150.388C259.34 148.685 257.353 146.264 256.18 143.432C255.007 140.599 254.7 137.483 255.298 134.476C255.896 131.47 257.372 128.708 259.54 126.54C261.707 124.372 264.469 122.896 267.476 122.298C270.483 121.7 273.599 122.007 276.431 123.18C279.264 124.353 281.684 126.339 283.388 128.888C285.091 131.437 286 134.434 286 137.5C285.995 141.609 284.361 145.549 281.455 148.455C278.549 151.361 274.609 152.995 270.5 153ZM270.5 127.663C268.554 127.663 266.653 128.24 265.035 129.321C263.417 130.401 262.156 131.938 261.412 133.735C260.667 135.533 260.473 137.511 260.852 139.419C261.232 141.327 262.169 143.08 263.544 144.455C264.92 145.831 266.673 146.768 268.581 147.148C270.489 147.527 272.467 147.332 274.264 146.588C276.062 145.843 277.598 144.582 278.679 142.965C279.76 141.347 280.337 139.445 280.337 137.5C280.334 134.892 279.297 132.391 277.452 130.547C275.608 128.703 273.108 127.666 270.5 127.663Z" fill="url(#paint0_linear_1948_12070)"/>
<path opacity="0.6" d="M292.402 205.494L299.398 198.498C299.778 198.112 299.99 197.59 299.988 197.048C299.986 196.505 299.769 195.986 299.386 195.602C299.002 195.219 298.483 195.002 297.941 195C297.398 194.998 296.877 195.21 296.49 195.59L289.494 202.587L282.499 195.591C282.111 195.213 281.591 195.003 281.05 195.007C280.509 195.01 279.991 195.226 279.609 195.609C279.226 195.991 279.01 196.509 279.006 197.05C279.003 197.591 279.213 198.111 279.59 198.498L286.586 205.494L279.59 212.49C279.21 212.877 278.998 213.398 279 213.94C279.002 214.483 279.219 215.002 279.602 215.386C279.986 215.769 280.505 215.986 281.048 215.988C281.59 215.99 282.112 215.778 282.498 215.398L289.494 208.402L296.49 215.398C296.875 215.783 297.398 216 297.944 216C298.489 216 299.012 215.783 299.398 215.398C299.783 215.012 300 214.489 300 213.944C300 213.398 299.783 212.875 299.398 212.49L292.402 205.494Z" fill="url(#paint1_linear_1948_12070)"/>
<path opacity="0.1" d="M29.9645 178.001H11.3123C10.6671 178.019 10.0485 178.259 9.56312 178.679C9.07777 179.098 8.75604 179.672 8.65337 180.301L6.03179 198.699C5.9792 198.985 5.99199 199.279 6.0692 199.56C6.14642 199.84 6.28613 200.1 6.47813 200.32C6.67013 200.541 6.90958 200.716 7.17901 200.833C7.44845 200.951 7.74107 201.007 8.03552 200.999H26.6877C27.333 200.981 27.9517 200.741 28.4371 200.322C28.9225 199.902 29.2443 199.328 29.347 198.699L31.9682 180.301C32.0208 180.015 32.008 179.721 31.9308 179.44C31.8536 179.16 31.7139 178.9 31.5219 178.68C31.3299 178.459 31.0904 178.284 30.821 178.167C30.5516 178.049 30.2589 177.993 29.9645 178.001Z" fill="#AE9AFF"/>
<path opacity="0.1" d="M35.0249 17.0012H7.76413C6.82104 17.0282 5.91693 17.3825 5.20753 18.0031C4.49812 18.6237 4.02784 19.4716 3.87768 20.4009L0.0463722 47.5991C-0.0304053 48.0217 -0.0116598 48.4561 0.10124 48.8706C0.214139 49.2852 0.418345 49.6693 0.698967 49.995C0.979589 50.3208 1.32955 50.58 1.72332 50.7536C2.1171 50.9273 2.54476 51.011 2.97511 50.9988H30.2359C31.179 50.9718 32.0831 50.6175 32.7925 49.9969C33.5019 49.3763 33.9722 48.5284 34.1223 47.5991L37.9536 20.4009C38.0304 19.9783 38.0117 19.5439 37.8988 19.1294C37.7859 18.7148 37.5817 18.3307 37.301 18.005C37.0204 17.6792 36.6704 17.42 36.2767 17.2464C35.8829 17.0727 35.4552 16.989 35.0249 17.0012Z" fill="#CABDFF"/>
<path opacity="0.1" d="M350.686 147L347.493 150.061C345.236 152.225 345.14 155.802 347.278 158.083C346.794 158.101 343.134 163.709 342.771 164.102C342.407 164.495 342.166 165.032 342.089 165.621C338.378 169.325 337.166 174.852 338.986 179.769L340.125 182.846C340.085 183.114 340.095 183.389 340.153 183.651C340.211 183.914 340.316 184.157 340.459 184.364C340.603 184.57 340.783 184.734 340.984 184.844C341.186 184.954 341.406 185.007 341.626 184.999H355.601C356.084 184.982 356.548 184.758 356.912 184.365C357.275 183.972 357.516 183.435 357.593 182.846L357.876 182.322C360.869 176.761 360.889 170.983 359.529 164.815C359.471 164.553 359.367 164.309 359.223 164.103C359.079 163.897 366.245 166.633 361.195 159.35C360.993 159.24 357.184 148.106 350.686 147Z" fill="#CABDFF"/>
<path opacity="0.1" d="M417.025 0.00116671H389.764C388.821 0.0282025 387.917 0.38252 387.208 1.00309C386.498 1.62366 386.028 2.47163 385.878 3.40093L382.046 30.5991C381.97 31.0217 381.988 31.4561 382.101 31.8706C382.214 32.2852 382.418 32.6693 382.699 32.995C382.98 33.3208 383.33 33.58 383.723 33.7536C384.117 33.9273 384.545 34.011 384.975 33.9988H412.236C413.179 33.9718 414.083 33.6175 414.792 32.9969C415.502 32.3763 415.972 31.5284 416.122 30.5991L419.954 3.40093C420.03 2.97828 420.012 2.54386 419.899 2.12935C419.786 1.71485 419.582 1.33071 419.301 1.00495C419.02 0.679201 418.67 0.420044 418.277 0.246388C417.883 0.0727321 417.455 -0.0110447 417.025 0.00116671Z" fill="#CABDFF"/>
<path opacity="0.1" d="M274.025 39.0012H246.764C245.821 39.0282 244.917 39.3825 244.208 40.0031C243.498 40.6237 243.028 41.4716 242.878 42.4009L239.046 69.5991C238.97 70.0217 238.988 70.4561 239.101 70.8706C239.214 71.2852 239.418 71.6693 239.699 71.995C239.98 72.3208 240.33 72.58 240.723 72.7536C241.117 72.9273 241.545 73.011 241.975 72.9988H269.236C270.179 72.9718 271.083 72.6175 271.792 71.9969C272.502 71.3763 272.972 70.5284 273.122 69.5991L276.954 42.4009C277.03 41.9783 277.012 41.5439 276.899 41.1294C276.786 40.7148 276.582 40.3307 276.301 40.005C276.02 39.6792 275.67 39.42 275.277 39.2464C274.883 39.0727 274.455 38.989 274.025 39.0012Z" fill="#CABDFF"/>
<path d="M201 132.07C237.451 132.07 267 102.505 267 66.035C267 29.5649 237.451 0 201 0C164.549 0 135 29.5649 135 66.035C135 102.505 164.549 132.07 201 132.07Z" fill="url(#paint2_linear_1948_12070)"/>
<path d="M201 119.475C230.498 119.475 254.411 95.5488 254.411 66.035C254.411 36.5211 230.498 12.5954 201 12.5954C171.502 12.5954 147.589 36.5211 147.589 66.035C147.589 95.5488 171.502 119.475 201 119.475Z" fill="#252B2E" fill-opacity="0.7"/>
<path d="M184.791 89.0335C184.482 89.0333 184.179 88.9467 183.917 88.7836C183.654 88.6204 183.442 88.3872 183.305 88.11C183.168 87.8329 183.11 87.523 183.14 87.2151C183.169 86.9072 183.284 86.6137 183.471 86.3675L199.34 65.4754V22.3451C199.34 21.9046 199.515 21.4822 199.826 21.1707C200.138 20.8592 200.56 20.6843 201 20.6843C201.44 20.6843 201.863 20.8592 202.174 21.1707C202.485 21.4822 202.66 21.9046 202.66 22.3451V66.0352C202.66 66.3981 202.541 66.7511 202.322 67.0401L186.114 88.3778C185.959 88.5819 185.759 88.7473 185.53 88.8611C185.3 88.9748 185.047 89.0339 184.791 89.0335Z" fill="url(#paint3_linear_1948_12070)"/>
<path d="M201 72.5833C204.615 72.5833 207.545 69.6515 207.545 66.035C207.545 62.4184 204.615 59.4866 201 59.4866C197.385 59.4866 194.455 62.4184 194.455 66.035C194.455 69.6515 197.385 72.5833 201 72.5833Z" fill="url(#paint4_linear_1948_12070)"/>
<path d="M329 182C329 179.239 331.239 177 334 177H366C368.761 177 371 179.239 371 182V218C371 226.284 364.284 233 356 233H344C335.716 233 329 226.284 329 218V182Z" fill="#6F5ADC"/>
<path d="M369 190C372.448 190 375.754 191.37 378.192 193.808C380.63 196.246 382 199.552 382 203C382 206.448 380.63 209.754 378.192 212.192C375.754 214.63 372.448 216 369 216L369 212.077C371.407 212.077 373.716 211.121 375.418 209.418C377.121 207.716 378.077 205.407 378.077 203C378.077 200.593 377.121 198.284 375.418 196.582C373.716 194.879 371.407 193.923 369 193.923V190Z" fill="url(#paint5_linear_1948_12070)"/>
<defs>
<filter id="filter0_b_1948_12070" x="39" y="54" width="313" height="168" filterUnits="userSpaceOnUse" color-interpolation-filters="sRGB">
<feFlood flood-opacity="0" result="BackgroundImageFix"/>
<feGaussianBlur in="BackgroundImage" stdDeviation="28"/>
<feComposite in2="SourceAlpha" operator="in" result="effect1_backgroundBlur_1948_12070"/>
<feBlend mode="normal" in="SourceGraphic" in2="effect1_backgroundBlur_1948_12070" result="shape"/>
</filter>
<filter id="filter1_b_1948_12070" x="58" y="121" width="307" height="168" filterUnits="userSpaceOnUse" color-interpolation-filters="sRGB">
<feFlood flood-opacity="0" result="BackgroundImageFix"/>
<feGaussianBlur in="BackgroundImage" stdDeviation="28"/>
<feComposite in2="SourceAlpha" operator="in" result="effect1_backgroundBlur_1948_12070"/>
<feBlend mode="normal" in="SourceGraphic" in2="effect1_backgroundBlur_1948_12070" result="shape"/>
</filter>
<linearGradient id="paint0_linear_1948_12070" x1="270.5" y1="122" x2="270.5" y2="153" gradientUnits="userSpaceOnUse">
<stop stop-color="#502EFF"/>
<stop offset="1" stop-color="#6F5ADC"/>
</linearGradient>
<linearGradient id="paint1_linear_1948_12070" x1="289.5" y1="195" x2="289.5" y2="216" gradientUnits="userSpaceOnUse">
<stop stop-color="#502EFF"/>
<stop offset="1" stop-color="#6F5ADC"/>
</linearGradient>
<linearGradient id="paint2_linear_1948_12070" x1="201" y1="0" x2="282.611" y2="175.998" gradientUnits="userSpaceOnUse">
<stop stop-color="white"/>
<stop offset="1" stop-color="#6F5ADC"/>
</linearGradient>
<linearGradient id="paint3_linear_1948_12070" x1="192.896" y1="20.6843" x2="242.332" y2="51.16" gradientUnits="userSpaceOnUse">
<stop stop-color="white"/>
<stop offset="1" stop-color="#6F5ADC"/>
</linearGradient>
<linearGradient id="paint4_linear_1948_12070" x1="201" y1="59.4866" x2="209.093" y2="76.9395" gradientUnits="userSpaceOnUse">
<stop stop-color="white"/>
<stop offset="1" stop-color="#6F5ADC"/>
</linearGradient>
<linearGradient id="paint5_linear_1948_12070" x1="356" y1="203" x2="382" y2="203" gradientUnits="userSpaceOnUse">
<stop stop-color="#502EFF"/>
<stop offset="1" stop-color="#6F5ADC"/>
</linearGradient>
</defs>
</svg>
