<svg width="215" height="128" viewBox="0 0 215 128" fill="none" xmlns="http://www.w3.org/2000/svg">
<path opacity="0.1" d="M35.0249 0.00116671H7.76413C6.82104 0.0282025 5.91693 0.38252 5.20753 1.00309C4.49812 1.62366 4.02784 2.47163 3.87768 3.40093L0.0463722 30.5991C-0.0304053 31.0217 -0.0116598 31.4561 0.10124 31.8706C0.214139 32.2852 0.418345 32.6693 0.698967 32.995C0.979589 33.3208 1.32955 33.58 1.72332 33.7536C2.1171 33.9273 2.54476 34.011 2.97511 33.9988H30.2359C31.179 33.9718 32.0831 33.6175 32.7925 32.9969C33.5019 32.3763 33.9722 31.5284 34.1223 30.5991L37.9536 3.40093C38.0304 2.97828 38.0117 2.54386 37.8988 2.12935C37.7859 1.71485 37.5817 1.33071 37.301 1.00495C37.0204 0.679201 36.6704 0.420044 36.2767 0.246388C35.8829 0.0727321 35.4552 -0.0110447 35.0249 0.00116671Z" fill="url(#paint0_linear_1948_12072)"/>
<path opacity="0.1" d="M212.025 47.0012H184.764C183.821 47.0282 182.917 47.3825 182.208 48.0031C181.498 48.6237 181.028 49.4716 180.878 50.4009L177.046 77.5991C176.97 78.0217 176.988 78.4561 177.101 78.8706C177.214 79.2852 177.418 79.6693 177.699 79.995C177.98 80.3208 178.33 80.58 178.723 80.7536C179.117 80.9273 179.545 81.011 179.975 80.9988H207.236C208.179 80.9718 209.083 80.6175 209.792 79.9969C210.502 79.3763 210.972 78.5284 211.122 77.5991L214.954 50.4009C215.03 49.9783 215.012 49.5439 214.899 49.1294C214.786 48.7148 214.582 48.3307 214.301 48.005C214.02 47.6792 213.67 47.42 213.277 47.2464C212.883 47.0727 212.455 46.989 212.025 47.0012Z" fill="url(#paint1_linear_1948_12072)"/>
<path opacity="0.1" d="M43.8861 92.0008H24.5166C23.8465 92.0199 23.2041 92.27 22.7001 92.7081C22.196 93.1461 21.8619 93.7447 21.7552 94.4007L19.0329 113.599C18.9784 113.898 18.9917 114.204 19.0719 114.497C19.1522 114.79 19.2972 115.061 19.4966 115.291C19.696 115.521 19.9447 115.703 20.2245 115.826C20.5043 115.949 20.8081 116.008 21.1139 115.999H40.4834C41.1535 115.98 41.7959 115.73 42.2999 115.292C42.804 114.854 43.1381 114.255 43.2448 113.599L45.9671 94.4007C46.0216 94.1023 46.0083 93.7957 45.9281 93.5031C45.8479 93.2105 45.7028 92.9393 45.5034 92.7094C45.304 92.4794 45.0553 92.2965 44.7755 92.1739C44.4957 92.0513 44.1919 91.9922 43.8861 92.0008Z" fill="url(#paint2_linear_1948_12072)"/>
<path fill-rule="evenodd" clip-rule="evenodd" d="M152.624 113.845L73.6892 98.9725C69.7856 98.9725 68.7211 106.757 73.3338 106.757L151.917 128L152.627 113.845H152.624Z" fill="url(#paint3_linear_1948_12072)"/>
<path fill-rule="evenodd" clip-rule="evenodd" d="M71.3735 109.244L146.24 101.459C149.433 101.459 150.853 107.829 146.595 109.244L72.0832 123.399C71.8471 118.681 71.6105 113.963 71.3735 109.244V109.244Z" fill="#6F5ADC"/>
<path fill-rule="evenodd" clip-rule="evenodd" d="M129.673 67.4237C133.913 59.1913 136.816 52.8782 144.347 51.2656C133.272 81.9359 146.151 104.363 102.046 102.081C83.3649 101.114 75.5589 84.8079 74.8543 69.3934C74.4426 60.3928 79.097 51.2983 71.0845 43.5281C78.1348 45.3957 87.0741 52.5142 90.0932 58.1329C84.3265 28.0216 97.1429 22.7922 103.651 4.00067C109.081 21.2702 92.6268 29.2187 113.922 53.2957C116.678 48.1229 119.275 42.4293 117.833 27.2358C124.751 36.1237 129.513 32.8179 129.675 67.4244L129.673 67.4237Z" fill="url(#paint4_linear_1948_12072)"/>
<path fill-rule="evenodd" clip-rule="evenodd" d="M71.3734 109.244C63.9234 109.953 64.2776 122.692 72.083 123.4C80.9535 122.692 79.0967 109.199 71.3734 109.244Z" fill="url(#paint5_linear_1948_12072)"/>
<path fill-rule="evenodd" clip-rule="evenodd" d="M152.624 113.845C160.074 114.553 159.721 127.292 151.915 128C143.045 127.292 144.902 113.8 152.624 113.845Z" fill="url(#paint6_linear_1948_12072)"/>
<path fill-rule="evenodd" clip-rule="evenodd" d="M90.4478 75.4779C98.9028 81.9894 100.265 82.8452 101.77 79.455C103.454 75.6612 102.726 68.0414 103.911 61.892C105.661 66.3337 107.433 72.7262 109.999 77.0169C114.719 84.9118 115.602 76.7152 120.83 71.1438C119.273 84.1196 122.033 98.6507 110.758 99.3358C88.0297 97.5223 98.4956 86.6792 90.4478 75.4779Z" fill="#F2F2F2" fill-opacity="0.31"/>
<defs>
<linearGradient id="paint0_linear_1948_12072" x1="17" y1="45.5" x2="13" y2="-3.5" gradientUnits="userSpaceOnUse">
<stop stop-color="#CABDFF"/>
<stop offset="1" stop-color="#CABDFF" stop-opacity="0"/>
</linearGradient>
<linearGradient id="paint1_linear_1948_12072" x1="194" y1="92.5" x2="190" y2="43.5" gradientUnits="userSpaceOnUse">
<stop stop-color="#CABDFF"/>
<stop offset="1" stop-color="#CABDFF" stop-opacity="0"/>
</linearGradient>
<linearGradient id="paint2_linear_1948_12072" x1="31.0789" y1="124.118" x2="28.2736" y2="89.5264" gradientUnits="userSpaceOnUse">
<stop stop-color="#CABDFF"/>
<stop offset="1" stop-color="#CABDFF" stop-opacity="0"/>
</linearGradient>
<linearGradient id="paint3_linear_1948_12072" x1="111.461" y1="98.9725" x2="178.84" y2="124.916" gradientUnits="userSpaceOnUse">
<stop stop-color="#A18EFF"/>
<stop offset="1" stop-color="#6F5ADC"/>
</linearGradient>
<linearGradient id="paint4_linear_1948_12072" x1="107.716" y1="4.00067" x2="179.027" y2="118.748" gradientUnits="userSpaceOnUse">
<stop stop-color="white"/>
<stop offset="1" stop-color="#6F5ADC"/>
</linearGradient>
<linearGradient id="paint5_linear_1948_12072" x1="71.9942" y1="109.244" x2="83.112" y2="110.522" gradientUnits="userSpaceOnUse">
<stop stop-color="#A18EFF"/>
<stop offset="1" stop-color="#6F5ADC"/>
</linearGradient>
<linearGradient id="paint6_linear_1948_12072" x1="152.004" y1="113.845" x2="152.004" y2="128" gradientUnits="userSpaceOnUse">
<stop stop-color="#502EFF"/>
<stop offset="1" stop-color="#6F5ADC"/>
</linearGradient>
</defs>
</svg>
