<svg width="253" height="140" viewBox="0 0 253 140" fill="none" xmlns="http://www.w3.org/2000/svg">
<rect x="89" y="62" width="64" height="5" rx="2.5" fill="#C4C4C4" fill-opacity="0.07"/>
<g filter="url(#filter0_b_1948_12074)">
<rect x="37" y="93" width="201" height="47" rx="5" fill="white" fill-opacity="0.03"/>
</g>
<g filter="url(#filter1_b_1948_12074)">
<rect width="74" height="72" rx="5" fill="white" fill-opacity="0.03"/>
</g>
<g filter="url(#filter2_b_1948_12074)">
<rect x="207" y="30" width="46" height="45" rx="5" fill="white" fill-opacity="0.03"/>
</g>
<g filter="url(#filter3_b_1948_12074)">
<rect x="113" y="51" width="46" height="45" rx="5" fill="white" fill-opacity="0.03"/>
</g>
<g filter="url(#filter4_b_1948_12074)">
<rect x="21" y="52" width="201" height="47" rx="5" fill="white" fill-opacity="0.03"/>
<rect x="21.5" y="52.5" width="200" height="46" rx="4.5" stroke="#E5E5E5" stroke-opacity="0.19"/>
</g>
<rect x="68" y="70" width="140" height="5" rx="2.5" fill="#C4C4C4" fill-opacity="0.07"/>
<rect x="68" y="82" width="64" height="5" rx="2.5" fill="#C4C4C4" fill-opacity="0.07"/>
<circle cx="45.5" cy="75.5" r="16.5" fill="#474C4F" fill-opacity="0.52"/>
<path d="M37.147 81H38.9666L41.0099 73.8558H41.0895L43.1278 81H44.9474L47.821 70.8182H45.8374L44.0028 78.3054H43.9134L41.9496 70.8182H40.1449L38.1861 78.3004H38.0916L36.2571 70.8182H34.2734L37.147 81ZM48.6525 72.3643H51.7995V81H53.6291V72.3643H56.7761V70.8182H48.6525V72.3643Z" fill="#6F5ADC"/>
<path d="M235.151 42.3474H234.223L233.958 43.3193C233.737 44.2029 232.875 44.8655 231.992 44.8655C231.506 44.8655 231.042 44.6667 230.777 44.2912C230.49 43.9157 230.402 43.4077 230.534 42.9217L230.689 42.3474H227.707L227.442 43.3193C227.199 44.2029 226.359 44.8655 225.454 44.8655C224.968 44.8655 224.526 44.6667 224.239 44.2912C223.952 43.9157 223.863 43.4077 223.996 42.9217L224.15 42.3474H223.179C221.699 42.3474 220.219 43.496 219.843 44.976L217.104 55.0704C216.883 55.8656 217.016 56.6608 217.48 57.2351C217.922 57.8094 218.606 58.1407 219.379 58.1407H220.727V58.7371C220.727 60.3054 222.008 61.5865 223.576 61.5865H235.151C236.719 61.5865 238 60.3054 238 58.7371V45.1968C238 43.6285 236.719 42.3474 235.151 42.3474ZM219.401 56.4178C219.225 56.4178 219.004 56.3736 218.871 56.1969C218.739 56.0423 218.717 55.7993 218.805 55.5343L221.058 47.0965H234.797L232.655 55.0925C232.456 55.8214 231.683 56.4399 230.976 56.4399H219.401V56.4178ZM236.277 58.7371C236.277 59.3556 235.769 59.8636 235.151 59.8636H223.598C222.98 59.8636 222.472 59.3556 222.472 58.7371V58.1407H230.976C232.456 58.1407 233.936 56.9921 234.311 55.5122L236.277 48.2009V58.7371Z" fill="white" fill-opacity="0.28"/>
<path d="M225.454 44.0703C225.984 44.0703 226.514 43.6506 226.647 43.1205L226.956 41.9498C227.088 41.4197 226.779 41 226.271 41C225.741 41 225.211 41.4197 225.078 41.9498L224.769 43.1205C224.636 43.6285 224.946 44.0703 225.454 44.0703Z" fill="white" fill-opacity="0.28"/>
<path d="M231.992 44.0703C232.522 44.0703 233.052 43.6506 233.185 43.1205L233.494 41.9498C233.626 41.4197 233.317 41 232.809 41C232.279 41 231.749 41.4197 231.616 41.9498L231.285 43.1205C231.152 43.6285 231.462 44.0703 231.992 44.0703Z" fill="white" fill-opacity="0.28"/>
<path d="M227.552 52.2873H225.498C225.365 52.2873 225.211 52.3977 225.167 52.5302L224.769 54.0323C224.725 54.1648 224.813 54.2752 224.946 54.2752H227C227.133 54.2752 227.287 54.1648 227.331 54.0323L227.729 52.5302C227.773 52.3977 227.685 52.2873 227.552 52.2873Z" fill="white" fill-opacity="0.28"/>
<path d="M223.93 52.2873H221.875C221.743 52.2873 221.588 52.3977 221.544 52.5302L221.147 54.0323C221.102 54.1648 221.191 54.2752 221.323 54.2752H223.377C223.51 54.2752 223.665 54.1648 223.709 54.0323L224.106 52.5302C224.151 52.3977 224.084 52.2873 223.93 52.2873Z" fill="white" fill-opacity="0.28"/>
<path d="M231.175 52.2873H229.121C228.988 52.2873 228.833 52.3977 228.789 52.5302L228.392 54.0323C228.347 54.1648 228.436 54.2752 228.568 54.2752H230.623C230.755 54.2752 230.91 54.1648 230.954 54.0323L231.351 52.5302C231.396 52.3977 231.307 52.2873 231.175 52.2873Z" fill="white" fill-opacity="0.28"/>
<path d="M228.392 49.1286H226.337C226.205 49.1286 226.05 49.239 226.006 49.3716L225.608 50.8736C225.564 51.0061 225.653 51.1166 225.785 51.1166H227.839C227.972 51.1166 228.127 51.0061 228.171 50.8736L228.568 49.3716C228.612 49.239 228.546 49.1286 228.392 49.1286Z" fill="white" fill-opacity="0.28"/>
<path d="M224.791 49.1286H222.737C222.604 49.1286 222.45 49.239 222.405 49.3716L222.008 50.8736C221.964 51.0061 222.052 51.1166 222.185 51.1166H224.239C224.371 51.1166 224.526 51.0061 224.57 50.8736L224.968 49.3716C225.012 49.239 224.924 49.1286 224.791 49.1286Z" fill="white" fill-opacity="0.28"/>
<path d="M229.43 51.1386H231.484C231.616 51.1386 231.771 51.0282 231.815 50.8957L232.213 49.3936C232.257 49.2611 232.169 49.1507 232.036 49.1507H229.982C229.849 49.1507 229.695 49.2611 229.651 49.3936L229.253 50.8957C229.209 51.0061 229.275 51.1386 229.43 51.1386Z" fill="white" fill-opacity="0.28"/>
<defs>
<filter id="filter0_b_1948_12074" x="-19" y="37" width="313" height="159" filterUnits="userSpaceOnUse" color-interpolation-filters="sRGB">
<feFlood flood-opacity="0" result="BackgroundImageFix"/>
<feGaussianBlur in="BackgroundImage" stdDeviation="28"/>
<feComposite in2="SourceAlpha" operator="in" result="effect1_backgroundBlur_1948_12074"/>
<feBlend mode="normal" in="SourceGraphic" in2="effect1_backgroundBlur_1948_12074" result="shape"/>
</filter>
<filter id="filter1_b_1948_12074" x="-56" y="-56" width="186" height="184" filterUnits="userSpaceOnUse" color-interpolation-filters="sRGB">
<feFlood flood-opacity="0" result="BackgroundImageFix"/>
<feGaussianBlur in="BackgroundImage" stdDeviation="28"/>
<feComposite in2="SourceAlpha" operator="in" result="effect1_backgroundBlur_1948_12074"/>
<feBlend mode="normal" in="SourceGraphic" in2="effect1_backgroundBlur_1948_12074" result="shape"/>
</filter>
<filter id="filter2_b_1948_12074" x="151" y="-26" width="158" height="157" filterUnits="userSpaceOnUse" color-interpolation-filters="sRGB">
<feFlood flood-opacity="0" result="BackgroundImageFix"/>
<feGaussianBlur in="BackgroundImage" stdDeviation="28"/>
<feComposite in2="SourceAlpha" operator="in" result="effect1_backgroundBlur_1948_12074"/>
<feBlend mode="normal" in="SourceGraphic" in2="effect1_backgroundBlur_1948_12074" result="shape"/>
</filter>
<filter id="filter3_b_1948_12074" x="57" y="-5" width="158" height="157" filterUnits="userSpaceOnUse" color-interpolation-filters="sRGB">
<feFlood flood-opacity="0" result="BackgroundImageFix"/>
<feGaussianBlur in="BackgroundImage" stdDeviation="28"/>
<feComposite in2="SourceAlpha" operator="in" result="effect1_backgroundBlur_1948_12074"/>
<feBlend mode="normal" in="SourceGraphic" in2="effect1_backgroundBlur_1948_12074" result="shape"/>
</filter>
<filter id="filter4_b_1948_12074" x="-35" y="-4" width="313" height="159" filterUnits="userSpaceOnUse" color-interpolation-filters="sRGB">
<feFlood flood-opacity="0" result="BackgroundImageFix"/>
<feGaussianBlur in="BackgroundImage" stdDeviation="28"/>
<feComposite in2="SourceAlpha" operator="in" result="effect1_backgroundBlur_1948_12074"/>
<feBlend mode="normal" in="SourceGraphic" in2="effect1_backgroundBlur_1948_12074" result="shape"/>
</filter>
</defs>
</svg>
