<svg width="261" height="149" viewBox="0 0 261 149" fill="none" xmlns="http://www.w3.org/2000/svg">
<path opacity="0.5" d="M20.907 136.489C20.681 135.782 20.0507 135.263 19.3133 135.157L14.4489 134.461L12.2724 130.085C11.9394 129.425 11.2495 129 10.5003 129C9.75097 129 9.06115 129.425 8.72813 130.085L6.55163 134.461L1.68721 135.157C0.949812 135.263 0.331353 135.782 0.0934836 136.489C-0.132492 137.197 0.0578033 137.976 0.593009 138.495L4.11347 141.903L3.28093 146.715C3.1501 147.447 3.45933 148.19 4.0659 148.626C4.67246 149.062 5.48122 149.121 6.13536 148.779L10.4884 146.515L14.8414 148.779C15.5074 149.121 16.3162 149.062 16.9108 148.626C17.5055 148.19 17.8266 147.447 17.6958 146.715L16.8632 141.903L20.3837 138.495C20.9427 137.976 21.133 137.197 20.907 136.489Z" fill="url(#paint0_linear_1959_12076)"/>
<g filter="url(#filter0_b_1959_12076)">
<rect x="49" y="24" width="201" height="33" rx="5" fill="white" fill-opacity="0.03"/>
</g>
<g filter="url(#filter1_b_1959_12076)">
<rect x="60" y="65" width="201" height="33" rx="5" fill="white" fill-opacity="0.03"/>
</g>
<g filter="url(#filter2_b_1959_12076)">
<rect x="11" y="109" width="201" height="33" rx="5" fill="white" fill-opacity="0.03"/>
</g>
<path d="M62.7731 36.2C62.4081 35.0473 61.3898 34.2019 60.1987 34.029L52.3407 32.8955L48.8248 25.7676C48.2868 24.6917 47.1725 24 45.9621 24C44.7517 24 43.6374 24.6917 43.0994 25.7676L39.5835 32.8955L31.7255 34.029C30.5343 34.2019 29.5353 35.0473 29.151 36.2C28.786 37.3528 29.0934 38.6208 29.9579 39.4662L35.6449 45.0186L34.3 52.8574C34.0887 54.0486 34.5882 55.259 35.568 55.9698C36.5479 56.6807 37.8543 56.7768 38.911 56.2196L45.9429 52.5308L52.9747 56.2196C54.0506 56.7768 55.3571 56.6807 56.3177 55.9698C57.2783 55.259 57.7971 54.0486 57.5857 52.8574L56.2408 45.0186L61.9278 39.4662C62.8308 38.6208 63.1382 37.3528 62.7731 36.2Z" fill="url(#paint1_linear_1959_12076)"/>
<path fill-rule="evenodd" clip-rule="evenodd" d="M248.429 20.8913C248.429 23.8741 249.217 25.6322 250.952 27.6582C252.267 29.1509 252.687 31.0669 252.687 33.1455C252.687 35.2218 252.005 37.1928 250.638 38.7931C248.849 40.7114 246.326 41.9362 243.75 42.149C240.019 42.4672 236.284 42.7351 232.501 42.7351C228.715 42.7351 224.983 42.5748 221.251 42.149C218.673 41.9362 216.15 40.7114 214.363 38.7931C212.997 37.1928 212.312 35.2218 212.312 33.1455C212.312 31.0669 212.735 29.1509 214.047 27.6582C215.836 25.6322 216.573 23.8741 216.573 20.8913V19.8794C216.573 15.8848 217.569 13.2727 219.62 10.7156C222.67 6.9865 227.558 4.74997 232.394 4.74997H232.607C237.547 4.74997 242.594 7.09414 245.592 10.9835C247.537 13.488 248.429 15.99 248.429 19.8794V20.8913ZM225.55 47.6444C225.55 46.4484 226.647 45.9007 227.662 45.6663C228.849 45.4151 236.084 45.4151 237.271 45.6663C238.286 45.9007 239.384 46.4484 239.384 47.6444C239.325 48.783 238.657 49.7925 237.734 50.4335C236.537 51.3664 235.133 51.9572 233.665 52.1701C232.853 52.2754 232.055 52.2778 231.271 52.1701C229.801 51.9572 228.396 51.3664 227.202 50.4311C226.277 49.7925 225.609 48.783 225.55 47.6444Z" fill="url(#paint2_linear_1959_12076)"/>
<rect x="24" y="117" width="140" height="5" rx="2.5" fill="#C4C4C4" fill-opacity="0.07"/>
<rect x="72" y="73" width="140" height="5" rx="2.5" fill="#C4C4C4" fill-opacity="0.07"/>
<rect x="64" y="32" width="140" height="5" rx="2.5" fill="#C4C4C4" fill-opacity="0.07"/>
<rect x="24" y="129" width="64" height="5" rx="2.5" fill="#C4C4C4" fill-opacity="0.07"/>
<rect x="72" y="85" width="64" height="5" rx="2.5" fill="#C4C4C4" fill-opacity="0.07"/>
<rect x="64" y="44" width="64" height="5" rx="2.5" fill="#C4C4C4" fill-opacity="0.07"/>
<defs>
<filter id="filter0_b_1959_12076" x="-7" y="-32" width="313" height="145" filterUnits="userSpaceOnUse" color-interpolation-filters="sRGB">
<feFlood flood-opacity="0" result="BackgroundImageFix"/>
<feGaussianBlur in="BackgroundImage" stdDeviation="28"/>
<feComposite in2="SourceAlpha" operator="in" result="effect1_backgroundBlur_1959_12076"/>
<feBlend mode="normal" in="SourceGraphic" in2="effect1_backgroundBlur_1959_12076" result="shape"/>
</filter>
<filter id="filter1_b_1959_12076" x="4" y="9" width="313" height="145" filterUnits="userSpaceOnUse" color-interpolation-filters="sRGB">
<feFlood flood-opacity="0" result="BackgroundImageFix"/>
<feGaussianBlur in="BackgroundImage" stdDeviation="28"/>
<feComposite in2="SourceAlpha" operator="in" result="effect1_backgroundBlur_1959_12076"/>
<feBlend mode="normal" in="SourceGraphic" in2="effect1_backgroundBlur_1959_12076" result="shape"/>
</filter>
<filter id="filter2_b_1959_12076" x="-45" y="53" width="313" height="145" filterUnits="userSpaceOnUse" color-interpolation-filters="sRGB">
<feFlood flood-opacity="0" result="BackgroundImageFix"/>
<feGaussianBlur in="BackgroundImage" stdDeviation="28"/>
<feComposite in2="SourceAlpha" operator="in" result="effect1_backgroundBlur_1959_12076"/>
<feBlend mode="normal" in="SourceGraphic" in2="effect1_backgroundBlur_1959_12076" result="shape"/>
</filter>
<linearGradient id="paint0_linear_1959_12076" x1="10.5" y1="129" x2="10.5" y2="149" gradientUnits="userSpaceOnUse">
<stop stop-color="#502EFF"/>
<stop offset="1" stop-color="#6F5ADC"/>
</linearGradient>
<linearGradient id="paint1_linear_1959_12076" x1="45.9617" y1="24" x2="45.9617" y2="56.5791" gradientUnits="userSpaceOnUse">
<stop stop-color="#502EFF"/>
<stop offset="1" stop-color="#6F5ADC"/>
</linearGradient>
<linearGradient id="paint2_linear_1959_12076" x1="232.5" y1="4.74997" x2="264.824" y2="64.0348" gradientUnits="userSpaceOnUse">
<stop stop-color="white"/>
<stop offset="1" stop-color="#6F5ADC"/>
</linearGradient>
</defs>
</svg>
