<svg width="297" height="137" viewBox="0 0 297 137" fill="none" xmlns="http://www.w3.org/2000/svg">
<path opacity="0.1" d="M226.281 113.001H206.604C205.923 113.02 205.271 113.27 204.759 113.708C204.247 114.146 203.907 114.745 203.799 115.401L201.033 134.599C200.978 134.898 200.992 135.204 201.073 135.497C201.155 135.79 201.302 136.061 201.505 136.291C201.707 136.521 201.96 136.703 202.244 136.826C202.528 136.949 202.837 137.008 203.147 136.999H222.824C223.505 136.98 224.158 136.73 224.67 136.292C225.182 135.854 225.521 135.255 225.63 134.599L228.395 115.401C228.451 115.102 228.437 114.796 228.355 114.503C228.274 114.21 228.127 113.939 227.924 113.709C227.721 113.479 227.469 113.297 227.185 113.174C226.9 113.051 226.592 112.992 226.281 113.001Z" fill="#CABDFF"/>
<path opacity="0.1" d="M35.0249 0.00116671H7.76413C6.82104 0.0282025 5.91693 0.38252 5.20753 1.00309C4.49812 1.62366 4.02784 2.47163 3.87768 3.40093L0.0463722 30.5991C-0.0304053 31.0217 -0.0116598 31.4561 0.10124 31.8706C0.214139 32.2852 0.418345 32.6693 0.698967 32.995C0.979589 33.3208 1.32955 33.58 1.72332 33.7536C2.1171 33.9273 2.54476 34.011 2.97511 33.9988H30.2359C31.179 33.9718 32.0831 33.6175 32.7925 32.9969C33.5019 32.3763 33.9722 31.5284 34.1223 30.5991L37.9536 3.40093C38.0304 2.97828 38.0117 2.54386 37.8988 2.12935C37.7859 1.71485 37.5817 1.33071 37.301 1.00495C37.0204 0.679201 36.6704 0.420044 36.2767 0.246388C35.8829 0.0727321 35.4552 -0.0110447 35.0249 0.00116671Z" fill="#CABDFF"/>
<g filter="url(#filter0_b_2022_12077)">
<rect x="57" y="29" width="227" height="32" rx="5" fill="white" fill-opacity="0.03"/>
<rect x="57.5" y="29.5" width="226" height="31" rx="4.5" stroke="#E5E5E5" stroke-opacity="0.19"/>
</g>
<g filter="url(#filter1_b_2022_12077)">
<rect x="70" y="68" width="227" height="33" rx="5" fill="white" fill-opacity="0.03"/>
<rect x="70.5" y="68.5" width="226" height="32" rx="4.5" stroke="#E5E5E5" stroke-opacity="0.19"/>
</g>
<rect x="73" y="44" width="75" height="6" rx="3" fill="#C4C4C4" fill-opacity="0.07"/>
<rect x="86" y="85" width="75" height="6" rx="3" fill="#C4C4C4" fill-opacity="0.07"/>
<path d="M282.083 104.217C282.083 109.681 277.697 114.107 272.233 114.126H272.213H252.806C247.362 114.126 242.917 109.72 242.917 104.256V104.237C242.917 104.237 242.928 95.5691 242.944 91.2099C242.946 90.3913 243.886 89.9331 244.526 90.4422C249.179 94.1337 257.5 100.864 257.604 100.953C258.994 102.067 260.757 102.696 262.559 102.696C264.36 102.696 266.123 102.067 267.513 100.931C267.617 100.863 275.752 94.3334 280.475 90.5813C281.118 90.0701 282.062 90.5284 282.064 91.345C282.083 95.671 282.083 104.217 282.083 104.217Z" fill="url(#paint0_linear_2022_12077)"/>
<path d="M281.057 84.1116C279.361 80.9156 276.024 78.875 272.35 78.875H252.806C249.132 78.875 245.795 80.9156 244.1 84.1116C243.72 84.8264 243.9 85.7174 244.532 86.2227L259.073 97.8532C260.091 98.6757 261.325 99.085 262.559 99.085C262.567 99.085 262.573 99.085 262.578 99.085C262.584 99.085 262.592 99.085 262.598 99.085C263.832 99.085 265.065 98.6757 266.084 97.8532L280.624 86.2227C281.257 85.7174 281.437 84.8264 281.057 84.1116Z" fill="url(#paint1_linear_2022_12077)"/>
<path d="M211.667 29.5673C211.667 34.2173 207.933 37.984 203.283 38.0007H203.267H186.75C182.117 38.0007 178.333 34.2507 178.333 29.6007V29.584C178.333 29.584 178.343 22.2073 178.357 18.4973C178.358 17.8007 179.158 17.4107 179.703 17.844C183.663 20.9857 190.745 26.714 190.833 26.789C192.017 27.7373 193.517 28.2723 195.05 28.2723C196.583 28.2723 198.083 27.7373 199.267 26.7707C199.355 26.7123 206.278 21.1557 210.298 17.9623C210.845 17.5273 211.648 17.9173 211.65 18.6123C211.667 22.294 211.667 29.5673 211.667 29.5673Z" fill="url(#paint2_linear_2022_12077)"/>
<path d="M210.793 12.4567C209.35 9.73667 206.51 8 203.383 8H186.75C183.623 8 180.783 9.73667 179.34 12.4567C179.017 13.065 179.17 13.8233 179.708 14.2533L192.083 24.1517C192.95 24.8517 194 25.2 195.05 25.2C195.057 25.2 195.062 25.2 195.067 25.2C195.072 25.2 195.078 25.2 195.083 25.2C196.133 25.2 197.183 24.8517 198.05 24.1517L210.425 14.2533C210.963 13.8233 211.117 13.065 210.793 12.4567Z" fill="url(#paint3_linear_2022_12077)"/>
<g filter="url(#filter2_b_2022_12077)">
<rect x="31" y="13" width="48" height="48" rx="5" fill="white" fill-opacity="0.03"/>
<rect x="31.5" y="13.5" width="47" height="47" rx="4.5" stroke="#E5E5E5" stroke-opacity="0.19"/>
</g>
<path d="M54.9993 40.5338C52.8067 40.5338 51.033 38.8255 51.033 36.68C51.033 34.5344 52.8067 32.8125 54.9993 32.8125C57.192 32.8125 58.9238 34.5344 58.9238 36.68C58.9238 38.8255 57.192 40.5338 54.9993 40.5338Z" fill="#6F5ADC"/>
<path d="M54.9993 40.5338C52.8067 40.5338 51.033 38.8255 51.033 36.68C51.033 34.5344 52.8067 32.8125 54.9993 32.8125C57.192 32.8125 58.9238 34.5344 58.9238 36.68C58.9238 38.8255 57.192 40.5338 54.9993 40.5338" stroke="url(#paint4_linear_2022_12077)"/>
<path opacity="0.4" d="M67.5966 39.9049C67.3313 39.4949 66.9542 39.0849 66.4654 38.8252C66.0743 38.6339 65.8229 38.3196 65.5995 37.9506C64.8872 36.7753 65.3062 35.2311 66.4933 34.5341C67.8899 33.7552 68.3368 32.0196 67.5268 30.6666L66.5911 29.054C65.795 27.7011 64.0492 27.2228 62.6666 28.0154C61.4376 28.6714 59.8594 28.2341 59.1471 27.0725C58.9237 26.6898 58.798 26.2798 58.8259 25.8699C58.8678 25.3369 58.7002 24.8312 58.4488 24.4213C57.9321 23.574 56.9964 23 55.9629 23H53.9937C52.9741 23.0273 52.0384 23.574 51.5217 24.4213C51.2563 24.8312 51.1027 25.3369 51.1306 25.8699C51.1585 26.2798 51.0328 26.6898 50.8094 27.0725C50.0971 28.2341 48.519 28.6714 47.3039 28.0154C45.9073 27.2228 44.1755 27.7011 43.3655 29.054L42.4297 30.6666C41.6337 32.0196 42.0806 33.7552 43.4632 34.5341C44.6503 35.2311 45.0693 36.7753 44.371 37.9506C44.1336 38.3196 43.8822 38.6339 43.4912 38.8252C43.0163 39.0849 42.5973 39.4949 42.3739 39.9049C41.8571 40.7522 41.8851 41.8181 42.4018 42.7064L43.3655 44.3463C43.8822 45.2209 44.8459 45.7676 45.8514 45.7676C46.3263 45.7676 46.8849 45.6309 47.3318 45.3576C47.681 45.1253 48.1 45.0433 48.5609 45.0433C49.9435 45.0433 51.1027 46.1776 51.1306 47.5305C51.1306 49.1021 52.4155 50.332 54.0356 50.332H55.9349C57.541 50.332 58.8259 49.1021 58.8259 47.5305C58.8678 46.1776 60.027 45.0433 61.4097 45.0433C61.8566 45.0433 62.2756 45.1253 62.6387 45.3576C63.0856 45.6309 63.6303 45.7676 64.1191 45.7676C65.1107 45.7676 66.0743 45.2209 66.5911 44.3463L67.5687 42.7064C68.0715 41.7908 68.1134 40.7522 67.5966 39.9049Z" fill="url(#paint5_linear_2022_12077)"/>
<defs>
<filter id="filter0_b_2022_12077" x="1" y="-27" width="339" height="144" filterUnits="userSpaceOnUse" color-interpolation-filters="sRGB">
<feFlood flood-opacity="0" result="BackgroundImageFix"/>
<feGaussianBlur in="BackgroundImage" stdDeviation="28"/>
<feComposite in2="SourceAlpha" operator="in" result="effect1_backgroundBlur_2022_12077"/>
<feBlend mode="normal" in="SourceGraphic" in2="effect1_backgroundBlur_2022_12077" result="shape"/>
</filter>
<filter id="filter1_b_2022_12077" x="14" y="12" width="339" height="145" filterUnits="userSpaceOnUse" color-interpolation-filters="sRGB">
<feFlood flood-opacity="0" result="BackgroundImageFix"/>
<feGaussianBlur in="BackgroundImage" stdDeviation="28"/>
<feComposite in2="SourceAlpha" operator="in" result="effect1_backgroundBlur_2022_12077"/>
<feBlend mode="normal" in="SourceGraphic" in2="effect1_backgroundBlur_2022_12077" result="shape"/>
</filter>
<filter id="filter2_b_2022_12077" x="-25" y="-43" width="160" height="160" filterUnits="userSpaceOnUse" color-interpolation-filters="sRGB">
<feFlood flood-opacity="0" result="BackgroundImageFix"/>
<feGaussianBlur in="BackgroundImage" stdDeviation="28"/>
<feComposite in2="SourceAlpha" operator="in" result="effect1_backgroundBlur_2022_12077"/>
<feBlend mode="normal" in="SourceGraphic" in2="effect1_backgroundBlur_2022_12077" result="shape"/>
</filter>
<linearGradient id="paint0_linear_2022_12077" x1="262.5" y1="90.2285" x2="262.5" y2="114.126" gradientUnits="userSpaceOnUse">
<stop stop-color="#502EFF"/>
<stop offset="1" stop-color="#6F5ADC"/>
</linearGradient>
<linearGradient id="paint1_linear_2022_12077" x1="262.578" y1="78.875" x2="262.578" y2="99.085" gradientUnits="userSpaceOnUse">
<stop stop-color="#502EFF"/>
<stop offset="1" stop-color="#6F5ADC"/>
</linearGradient>
<linearGradient id="paint2_linear_2022_12077" x1="195" y1="17.6621" x2="203.623" y2="48.1549" gradientUnits="userSpaceOnUse">
<stop stop-color="#A18EFF"/>
<stop offset="1" stop-color="#6F5ADC"/>
</linearGradient>
<linearGradient id="paint3_linear_2022_12077" x1="195.067" y1="8" x2="201.637" y2="34.2019" gradientUnits="userSpaceOnUse">
<stop stop-color="#A18EFF"/>
<stop offset="1" stop-color="#6F5ADC"/>
</linearGradient>
<linearGradient id="paint4_linear_2022_12077" x1="54.9784" y1="32.8125" x2="54.9784" y2="40.5338" gradientUnits="userSpaceOnUse">
<stop stop-color="#502EFF"/>
<stop offset="1" stop-color="#6F5ADC"/>
</linearGradient>
<linearGradient id="paint5_linear_2022_12077" x1="54.9827" y1="23" x2="72.4218" y2="58.747" gradientUnits="userSpaceOnUse">
<stop stop-color="white"/>
<stop offset="1" stop-color="#6F5ADC"/>
</linearGradient>
</defs>
</svg>
