<svg width="335" height="258" viewBox="0 0 335 258" fill="none" xmlns="http://www.w3.org/2000/svg">
<g filter="url(#filter0_d_1918_13748)">
<path d="M106.942 112.686H303.657C305.589 112.686 307.442 113.454 308.809 114.82C310.175 116.186 310.942 118.039 310.942 119.972V156.4C310.942 158.333 310.175 160.186 308.809 161.552C307.442 162.918 305.589 163.686 303.657 163.686H106.942C105.01 163.686 103.157 162.918 101.791 161.552C100.424 160.186 99.6567 158.333 99.6567 156.4V119.972C99.6567 118.039 100.424 116.186 101.791 114.82C103.157 113.454 105.01 112.686 106.942 112.686V112.686Z" fill="white" fill-opacity="0.05"/>
</g>
<path d="M214.771 124.343H176.886C174.471 124.343 172.514 126.3 172.514 128.715C172.514 131.129 174.471 133.086 176.886 133.086H214.771C217.186 133.086 219.143 131.129 219.143 128.715C219.143 126.3 217.186 124.343 214.771 124.343Z" fill="#C4C4C4" fill-opacity="0.06"/>
<path d="M241 143.286H176.886C174.471 143.286 172.514 145.243 172.514 147.658C172.514 150.072 174.471 152.029 176.886 152.029H241C243.414 152.029 245.371 150.072 245.371 147.658C245.371 145.243 243.414 143.286 241 143.286Z" fill="#E7E7E7" fill-opacity="0.21"/>
<g filter="url(#filter1_d_1918_13748)">
<path d="M44.2857 175.343H241C242.932 175.343 244.785 176.111 246.152 177.477C247.518 178.844 248.286 180.697 248.286 182.629V219.058C248.286 220.99 247.518 222.843 246.152 224.209C244.785 225.576 242.932 226.343 241 226.343H44.2857C42.3534 226.343 40.5003 225.576 39.1339 224.209C37.7676 222.843 37 220.99 37 219.058V182.629C37 180.697 37.7676 178.844 39.1339 177.477C40.5003 176.111 42.3534 175.343 44.2857 175.343V175.343Z" fill="white" fill-opacity="0.05"/>
</g>
<path d="M152.115 187H114.229C111.815 187 109.857 188.958 109.857 191.372C109.857 193.786 111.815 195.743 114.229 195.743H152.115C154.529 195.743 156.486 193.786 156.486 191.372C156.486 188.958 154.529 187 152.115 187Z" fill="#C4C4C4" fill-opacity="0.06"/>
<path d="M178.343 205.943H114.229C111.815 205.943 109.857 207.901 109.857 210.315C109.857 212.729 111.815 214.686 114.229 214.686H178.343C180.757 214.686 182.715 212.729 182.715 210.315C182.715 207.901 180.757 205.943 178.343 205.943Z" fill="#E7E7E7" fill-opacity="0.21"/>
<g filter="url(#filter2_d_1918_13748)">
<path d="M241 50.0293H44.2857C40.2619 50.0293 37 53.2912 37 57.315V93.7436C37 97.7674 40.2619 101.029 44.2857 101.029H241C245.024 101.029 248.286 97.7674 248.286 93.7436V57.315C248.286 53.2912 245.024 50.0293 241 50.0293Z" fill="white" fill-opacity="0.05"/>
</g>
<path d="M149.2 61.6865H111.314C108.9 61.6865 106.943 63.6437 106.943 66.058C106.943 68.4722 108.9 70.4294 111.314 70.4294H149.2C151.614 70.4294 153.571 68.4722 153.571 66.058C153.571 63.6437 151.614 61.6865 149.2 61.6865Z" fill="#C4C4C4" fill-opacity="0.06"/>
<path d="M175.429 80.6294H111.314C108.9 80.6294 106.943 82.5865 106.943 85.0008C106.943 87.4151 108.9 89.3723 111.314 89.3723H175.429C177.843 89.3723 179.8 87.4151 179.8 85.0008C179.8 82.5865 177.843 80.6294 175.429 80.6294Z" fill="#E7E7E7" fill-opacity="0.21"/>
<path opacity="0.1" d="M270.281 0.000823559H250.604C249.923 0.0199076 249.271 0.270014 248.759 0.708063C248.247 1.14611 247.907 1.74468 247.799 2.40066L245.033 21.5993C244.978 21.8977 244.992 22.2043 245.073 22.4969C245.155 22.7895 245.302 23.0607 245.505 23.2906C245.707 23.5206 245.96 23.7035 246.244 23.8261C246.528 23.9487 246.837 24.0078 247.147 23.9992H266.824C267.505 23.9801 268.158 23.73 268.67 23.2919C269.182 22.8539 269.521 22.2553 269.63 21.5993L272.395 2.40066C272.451 2.10232 272.437 1.79566 272.355 1.50307C272.274 1.21048 272.127 0.939324 271.924 0.70938C271.721 0.479436 271.469 0.296502 271.185 0.173921C270.9 0.0513403 270.592 -0.00779626 270.281 0.000823559Z" fill="#CABDFF"/>
<path opacity="0.1" d="M282.591 242.001H269.678C269.231 242.013 268.803 242.18 268.467 242.472C268.131 242.764 267.908 243.163 267.837 243.6L266.022 256.4C265.986 256.598 265.994 256.803 266.048 256.998C266.101 257.193 266.198 257.374 266.331 257.527C266.464 257.68 266.63 257.802 266.816 257.884C267.003 257.966 267.205 258.005 267.409 257.999H280.322C280.769 257.987 281.197 257.82 281.533 257.528C281.869 257.236 282.092 256.837 282.163 256.4L283.978 243.6C284.014 243.402 284.006 243.197 283.952 243.002C283.899 242.807 283.802 242.626 283.669 242.473C283.536 242.32 283.37 242.198 283.184 242.116C282.997 242.034 282.795 241.995 282.591 242.001Z" fill="#CABDFF"/>
<path opacity="0.1" d="M35.0249 0.00116671H7.76413C6.82104 0.0282025 5.91693 0.38252 5.20753 1.00309C4.49812 1.62366 4.02784 2.47163 3.87768 3.40093L0.0463722 30.5991C-0.0304053 31.0217 -0.0116598 31.4561 0.10124 31.8706C0.214139 32.2852 0.418345 32.6693 0.698967 32.995C0.979589 33.3208 1.32955 33.58 1.72332 33.7536C2.1171 33.9273 2.54476 34.011 2.97511 33.9988H30.2359C31.179 33.9718 32.0831 33.6175 32.7925 32.9969C33.5019 32.3763 33.9722 31.5284 34.1223 30.5991L37.9536 3.40093C38.0304 2.97828 38.0117 2.54386 37.8988 2.12935C37.7859 1.71485 37.5817 1.33071 37.301 1.00495C37.0204 0.679201 36.6704 0.420044 36.2767 0.246388C35.8829 0.0727321 35.4552 -0.0110447 35.0249 0.00116671Z" fill="#CABDFF"/>
<g filter="url(#filter3_b_1918_13748)">
<rect x="287" y="77" width="48" height="48" rx="5" fill="white" fill-opacity="0.03"/>
<rect x="287.5" y="77.5" width="47" height="47" rx="4.5" stroke="#E5E5E5" stroke-opacity="0.19"/>
</g>
<g filter="url(#filter4_b_1918_13748)">
<rect x="10" y="142" width="48" height="48" rx="5" fill="white" fill-opacity="0.03"/>
<rect x="10.5" y="142.5" width="47" height="47" rx="4.5" stroke="#E5E5E5" stroke-opacity="0.19"/>
</g>
<g filter="url(#filter5_b_1918_13748)">
<rect x="10" y="196" width="48" height="48" rx="5" fill="white" fill-opacity="0.03"/>
<rect x="10.5" y="196.5" width="47" height="47" rx="4.5" stroke="#E5E5E5" stroke-opacity="0.19"/>
</g>
<g filter="url(#filter6_b_1918_13748)">
<rect x="65" y="196" width="48" height="48" rx="5" fill="white" fill-opacity="0.03"/>
<rect x="65.5" y="196.5" width="47" height="47" rx="4.5" stroke="#E5E5E5" stroke-opacity="0.19"/>
</g>
<circle cx="66.5" cy="75.5" r="17.5" fill="#474C4F" fill-opacity="0.52"/>
<circle cx="130.5" cy="137.5" r="17.5" fill="#474C4F" fill-opacity="0.52"/>
<circle cx="66.5" cy="200.5" r="17.5" fill="#474C4F" fill-opacity="0.52"/>
<g filter="url(#filter7_b_1918_13748)">
<path fill-rule="evenodd" clip-rule="evenodd" d="M27.3149 160.35C27.3149 163.875 30.1995 166.7 33.7991 166.7C37.3973 166.7 40.2832 163.875 40.2832 160.35C40.2832 156.825 37.3973 154 33.7991 154C30.1995 154 27.3149 156.825 27.3149 160.35ZM43.5986 173.89C43.5986 170.627 39.0845 169.81 33.7993 169.81C28.4855 169.81 24 170.655 24 173.921C24 177.184 28.5142 178 33.7993 178C39.1132 178 43.5986 177.156 43.5986 173.89Z" fill="#6F5ADC"/>
</g>
<g filter="url(#filter8_b_1918_13748)">
<path fill-rule="evenodd" clip-rule="evenodd" d="M27.3149 212.35C27.3149 215.875 30.1995 218.7 33.7991 218.7C37.3973 218.7 40.2832 215.875 40.2832 212.35C40.2832 208.825 37.3973 206 33.7991 206C30.1995 206 27.3149 208.825 27.3149 212.35ZM43.5986 225.89C43.5986 222.627 39.0845 221.81 33.7993 221.81C28.4855 221.81 24 222.655 24 225.921C24 229.184 28.5142 230 33.7993 230C39.1132 230 43.5986 229.156 43.5986 225.89Z" fill="#6F5ADC"/>
</g>
<g filter="url(#filter9_b_1918_13748)">
<path fill-rule="evenodd" clip-rule="evenodd" d="M82.3149 212.35C82.3149 215.875 85.1995 218.7 88.7991 218.7C92.3973 218.7 95.2832 215.875 95.2832 212.35C95.2832 208.825 92.3973 206 88.7991 206C85.1995 206 82.3149 208.825 82.3149 212.35ZM98.5986 225.89C98.5986 222.627 94.0845 221.81 88.7993 221.81C83.4855 221.81 79 222.655 79 225.921C79 229.184 83.5142 230 88.7993 230C94.1132 230 98.5986 229.156 98.5986 225.89Z" fill="#6F5ADC"/>
</g>
<g filter="url(#filter10_b_1918_13748)">
<path fill-rule="evenodd" clip-rule="evenodd" d="M304.315 95.35C304.315 98.8751 307.2 101.7 310.799 101.7C314.397 101.7 317.283 98.8751 317.283 95.35C317.283 91.8249 314.397 89 310.799 89C307.2 89 304.315 91.8249 304.315 95.35ZM320.599 108.89C320.599 105.627 316.085 104.81 310.799 104.81C305.485 104.81 301 105.655 301 108.921C301 112.184 305.514 113 310.799 113C316.113 113 320.599 112.156 320.599 108.89Z" fill="#6F5ADC"/>
</g>
<defs>
<filter id="filter0_d_1918_13748" x="93.6567" y="109.686" width="223.286" height="63" filterUnits="userSpaceOnUse" color-interpolation-filters="sRGB">
<feFlood flood-opacity="0" result="BackgroundImageFix"/>
<feColorMatrix in="SourceAlpha" type="matrix" values="0 0 0 0 0 0 0 0 0 0 0 0 0 0 0 0 0 0 127 0" result="hardAlpha"/>
<feOffset dy="3"/>
<feGaussianBlur stdDeviation="3"/>
<feColorMatrix type="matrix" values="0 0 0 0 0 0 0 0 0 0 0 0 0 0 0 0 0 0 0.161 0"/>
<feBlend mode="normal" in2="BackgroundImageFix" result="effect1_dropShadow_1918_13748"/>
<feBlend mode="normal" in="SourceGraphic" in2="effect1_dropShadow_1918_13748" result="shape"/>
</filter>
<filter id="filter1_d_1918_13748" x="31" y="172.343" width="223.286" height="63" filterUnits="userSpaceOnUse" color-interpolation-filters="sRGB">
<feFlood flood-opacity="0" result="BackgroundImageFix"/>
<feColorMatrix in="SourceAlpha" type="matrix" values="0 0 0 0 0 0 0 0 0 0 0 0 0 0 0 0 0 0 127 0" result="hardAlpha"/>
<feOffset dy="3"/>
<feGaussianBlur stdDeviation="3"/>
<feColorMatrix type="matrix" values="0 0 0 0 0 0 0 0 0 0 0 0 0 0 0 0 0 0 0.161 0"/>
<feBlend mode="normal" in2="BackgroundImageFix" result="effect1_dropShadow_1918_13748"/>
<feBlend mode="normal" in="SourceGraphic" in2="effect1_dropShadow_1918_13748" result="shape"/>
</filter>
<filter id="filter2_d_1918_13748" x="31" y="47.0293" width="223.286" height="63" filterUnits="userSpaceOnUse" color-interpolation-filters="sRGB">
<feFlood flood-opacity="0" result="BackgroundImageFix"/>
<feColorMatrix in="SourceAlpha" type="matrix" values="0 0 0 0 0 0 0 0 0 0 0 0 0 0 0 0 0 0 127 0" result="hardAlpha"/>
<feOffset dy="3"/>
<feGaussianBlur stdDeviation="3"/>
<feColorMatrix type="matrix" values="0 0 0 0 0 0 0 0 0 0 0 0 0 0 0 0 0 0 0.161 0"/>
<feBlend mode="normal" in2="BackgroundImageFix" result="effect1_dropShadow_1918_13748"/>
<feBlend mode="normal" in="SourceGraphic" in2="effect1_dropShadow_1918_13748" result="shape"/>
</filter>
<filter id="filter3_b_1918_13748" x="231" y="21" width="160" height="160" filterUnits="userSpaceOnUse" color-interpolation-filters="sRGB">
<feFlood flood-opacity="0" result="BackgroundImageFix"/>
<feGaussianBlur in="BackgroundImage" stdDeviation="28"/>
<feComposite in2="SourceAlpha" operator="in" result="effect1_backgroundBlur_1918_13748"/>
<feBlend mode="normal" in="SourceGraphic" in2="effect1_backgroundBlur_1918_13748" result="shape"/>
</filter>
<filter id="filter4_b_1918_13748" x="-46" y="86" width="160" height="160" filterUnits="userSpaceOnUse" color-interpolation-filters="sRGB">
<feFlood flood-opacity="0" result="BackgroundImageFix"/>
<feGaussianBlur in="BackgroundImage" stdDeviation="28"/>
<feComposite in2="SourceAlpha" operator="in" result="effect1_backgroundBlur_1918_13748"/>
<feBlend mode="normal" in="SourceGraphic" in2="effect1_backgroundBlur_1918_13748" result="shape"/>
</filter>
<filter id="filter5_b_1918_13748" x="-46" y="140" width="160" height="160" filterUnits="userSpaceOnUse" color-interpolation-filters="sRGB">
<feFlood flood-opacity="0" result="BackgroundImageFix"/>
<feGaussianBlur in="BackgroundImage" stdDeviation="28"/>
<feComposite in2="SourceAlpha" operator="in" result="effect1_backgroundBlur_1918_13748"/>
<feBlend mode="normal" in="SourceGraphic" in2="effect1_backgroundBlur_1918_13748" result="shape"/>
</filter>
<filter id="filter6_b_1918_13748" x="9" y="140" width="160" height="160" filterUnits="userSpaceOnUse" color-interpolation-filters="sRGB">
<feFlood flood-opacity="0" result="BackgroundImageFix"/>
<feGaussianBlur in="BackgroundImage" stdDeviation="28"/>
<feComposite in2="SourceAlpha" operator="in" result="effect1_backgroundBlur_1918_13748"/>
<feBlend mode="normal" in="SourceGraphic" in2="effect1_backgroundBlur_1918_13748" result="shape"/>
</filter>
<filter id="filter7_b_1918_13748" x="11" y="141" width="45.5986" height="50" filterUnits="userSpaceOnUse" color-interpolation-filters="sRGB">
<feFlood flood-opacity="0" result="BackgroundImageFix"/>
<feGaussianBlur in="BackgroundImage" stdDeviation="6.5"/>
<feComposite in2="SourceAlpha" operator="in" result="effect1_backgroundBlur_1918_13748"/>
<feBlend mode="normal" in="SourceGraphic" in2="effect1_backgroundBlur_1918_13748" result="shape"/>
</filter>
<filter id="filter8_b_1918_13748" x="11" y="193" width="45.5986" height="50" filterUnits="userSpaceOnUse" color-interpolation-filters="sRGB">
<feFlood flood-opacity="0" result="BackgroundImageFix"/>
<feGaussianBlur in="BackgroundImage" stdDeviation="6.5"/>
<feComposite in2="SourceAlpha" operator="in" result="effect1_backgroundBlur_1918_13748"/>
<feBlend mode="normal" in="SourceGraphic" in2="effect1_backgroundBlur_1918_13748" result="shape"/>
</filter>
<filter id="filter9_b_1918_13748" x="66" y="193" width="45.5986" height="50" filterUnits="userSpaceOnUse" color-interpolation-filters="sRGB">
<feFlood flood-opacity="0" result="BackgroundImageFix"/>
<feGaussianBlur in="BackgroundImage" stdDeviation="6.5"/>
<feComposite in2="SourceAlpha" operator="in" result="effect1_backgroundBlur_1918_13748"/>
<feBlend mode="normal" in="SourceGraphic" in2="effect1_backgroundBlur_1918_13748" result="shape"/>
</filter>
<filter id="filter10_b_1918_13748" x="288" y="76" width="45.5986" height="50" filterUnits="userSpaceOnUse" color-interpolation-filters="sRGB">
<feFlood flood-opacity="0" result="BackgroundImageFix"/>
<feGaussianBlur in="BackgroundImage" stdDeviation="6.5"/>
<feComposite in2="SourceAlpha" operator="in" result="effect1_backgroundBlur_1918_13748"/>
<feBlend mode="normal" in="SourceGraphic" in2="effect1_backgroundBlur_1918_13748" result="shape"/>
</filter>
</defs>
</svg>
