<svg width="308" height="232" viewBox="0 0 308 232" fill="none" xmlns="http://www.w3.org/2000/svg">
<path d="M213.106 74.2683C210.308 68.4975 204.537 65 198.067 65H115.002C108.532 65 102.935 68.4971 99.9629 74.2683L83.8746 106.795C83.3501 107.844 83 108.893 83 109.942V154.01C83 161.705 89.2954 168 96.9902 168H216.254C223.948 168 230.244 161.705 230.244 154.01V110.117C230.244 108.892 229.894 107.843 229.369 106.97L213.106 74.2683ZM112.554 80.5637C113.078 79.6891 113.953 78.9901 115.002 78.9901H198.067C199.116 78.9901 199.99 79.5147 200.515 80.5637L211.707 103.122H185.127C181.804 103.122 179.006 105.395 178.307 108.718C178.133 109.417 174.46 126.904 156.622 126.904C139.31 126.904 135.288 110.642 134.938 108.718C134.239 105.395 131.441 103.122 128.118 103.122H101.362L112.554 80.5637Z" fill="#E5E5E5" fill-opacity="0.08"/>
<g filter="url(#filter0_b_1895_10930)">
<rect x="126" y="140" width="61" height="56" rx="14" fill="white" fill-opacity="0.03"/>
<rect x="126.5" y="140.5" width="60" height="55" rx="13.5" stroke="#E5E5E5" stroke-opacity="0.19"/>
</g>
<path fill-rule="evenodd" clip-rule="evenodd" d="M161.939 159C163.28 159 164.57 159.53 165.519 160.481C166.469 161.43 167 162.71 167 164.05V171.95C167 174.74 164.73 177 161.939 177H152.06C149.269 177 147 174.74 147 171.95V164.05C147 161.26 149.259 159 152.06 159H161.939ZM163.53 165.54L163.61 165.46C163.849 165.17 163.849 164.75 163.599 164.46C163.46 164.311 163.269 164.22 163.07 164.2C162.86 164.189 162.66 164.26 162.509 164.4L158 168C157.42 168.481 156.589 168.481 156 168L151.5 164.4C151.189 164.17 150.759 164.2 150.5 164.47C150.23 164.74 150.2 165.17 150.429 165.47L150.56 165.6L155.11 169.15C155.67 169.59 156.349 169.83 157.06 169.83C157.769 169.83 158.46 169.59 159.019 169.15L163.53 165.54Z" fill="url(#paint0_linear_1895_10930)"/>
<circle cx="166" cy="159" r="3" fill="url(#paint1_linear_1895_10930)"/>
<path opacity="0.1" d="M303.851 41.0016H265.829C264.514 41.0398 263.253 41.54 262.263 42.4161C261.274 43.2922 260.618 44.4894 260.408 45.8013L255.065 84.1987C254.958 84.7954 254.984 85.4087 255.141 85.9939C255.299 86.579 255.583 87.1214 255.975 87.5812C256.366 88.0411 256.854 88.407 257.404 88.6522C257.953 88.8973 258.549 89.0156 259.149 88.9984H297.171C298.486 88.9602 299.747 88.46 300.737 87.5839C301.726 86.7078 302.382 85.5106 302.592 84.1987L307.935 45.8013C308.042 45.2046 308.016 44.5913 307.859 44.0061C307.701 43.421 307.417 42.8786 307.025 42.4188C306.634 41.9589 306.146 41.593 305.596 41.3478C305.047 41.1027 304.451 40.9844 303.851 41.0016Z" fill="#CABDFF"/>
<path opacity="0.1" d="M15.669 98.0005H3.47342C3.05152 98.0133 2.64705 98.18 2.32968 98.472C2.01232 98.7641 1.80193 99.1631 1.73475 99.6004L0.0207454 112.4C-0.0136024 112.598 -0.00521622 112.803 0.0452914 112.998C0.0957991 113.193 0.187154 113.374 0.312696 113.527C0.438237 113.68 0.594799 113.802 0.770961 113.884C0.947123 113.966 1.13844 114.005 1.33097 113.999H13.5266C13.9485 113.987 14.353 113.82 14.6703 113.528C14.9877 113.236 15.1981 112.837 15.2653 112.4L16.9793 99.6004C17.0136 99.4015 17.0052 99.1971 16.9547 99.002C16.9042 98.807 16.8128 98.6262 16.6873 98.4729C16.5618 98.3196 16.4052 98.1977 16.229 98.1159C16.0529 98.0342 15.8616 97.9948 15.669 98.0005Z" fill="#CABDFF"/>
<path opacity="0.1" d="M88.669 0.000549039H76.4734C76.0515 0.0132717 75.647 0.180009 75.3297 0.472042C75.0123 0.764075 74.8019 1.16312 74.7347 1.60044L73.0207 14.3996C72.9864 14.5985 72.9948 14.8029 73.0453 14.998C73.0958 15.193 73.1872 15.3738 73.3127 15.5271C73.4382 15.6804 73.5948 15.8023 73.771 15.8841C73.9471 15.9658 74.1384 16.0052 74.331 15.9995H86.5266C86.9485 15.9867 87.353 15.82 87.6703 15.528C87.9877 15.2359 88.1981 14.8369 88.2653 14.3996L89.9793 1.60044C90.0136 1.40154 90.0052 1.19711 89.9547 1.00205C89.9042 0.806986 89.8128 0.626216 89.6873 0.47292C89.5618 0.319624 89.4052 0.197668 89.229 0.115947C89.0529 0.0342269 88.8616 -0.00519751 88.669 0.000549039Z" fill="#CABDFF"/>
<path opacity="0.1" d="M288.025 196.001H260.764C259.821 196.03 258.917 196.405 258.208 197.062C257.498 197.719 257.028 198.617 256.878 199.601L253.046 228.399C252.97 228.847 252.988 229.307 253.101 229.745C253.214 230.184 253.418 230.591 253.699 230.936C253.98 231.281 254.33 231.555 254.723 231.739C255.117 231.923 255.545 232.012 255.975 231.999H283.236C284.179 231.97 285.083 231.595 285.792 230.938C286.502 230.281 286.972 229.383 287.122 228.399L290.954 199.601C291.03 199.153 291.012 198.693 290.899 198.255C290.786 197.816 290.582 197.409 290.301 197.064C290.02 196.719 289.67 196.445 289.277 196.261C288.883 196.077 288.455 195.988 288.025 196.001Z" fill="#CABDFF"/>
<path opacity="0.1" d="M52.0249 162.001H24.7641C23.821 162.03 22.9169 162.405 22.2075 163.062C21.4981 163.719 21.0278 164.617 20.8777 165.601L17.0464 194.399C16.9696 194.847 16.9883 195.307 17.1012 195.745C17.2141 196.184 17.4183 196.591 17.699 196.936C17.9796 197.281 18.3296 197.555 18.7233 197.739C19.1171 197.923 19.5448 198.012 19.9751 197.999H47.2359C48.179 197.97 49.0831 197.595 49.7925 196.938C50.5019 196.281 50.9722 195.383 51.1223 194.399L54.9536 165.601C55.0304 165.153 55.0117 164.693 54.8988 164.255C54.7859 163.816 54.5817 163.409 54.301 163.064C54.0204 162.719 53.6704 162.445 53.2767 162.261C52.8829 162.077 52.4552 161.988 52.0249 162.001Z" fill="#CABDFF"/>
<defs>
<filter id="filter0_b_1895_10930" x="70" y="84" width="173" height="168" filterUnits="userSpaceOnUse" color-interpolation-filters="sRGB">
<feFlood flood-opacity="0" result="BackgroundImageFix"/>
<feGaussianBlur in="BackgroundImage" stdDeviation="28"/>
<feComposite in2="SourceAlpha" operator="in" result="effect1_backgroundBlur_1895_10930"/>
<feBlend mode="normal" in="SourceGraphic" in2="effect1_backgroundBlur_1895_10930" result="shape"/>
</filter>
<linearGradient id="paint0_linear_1895_10930" x1="157" y1="159" x2="167.355" y2="183.826" gradientUnits="userSpaceOnUse">
<stop stop-color="white"/>
<stop offset="1" stop-color="#6F5ADC"/>
</linearGradient>
<linearGradient id="paint1_linear_1895_10930" x1="166" y1="156" x2="166" y2="162" gradientUnits="userSpaceOnUse">
<stop stop-color="#502EFF"/>
<stop offset="1" stop-color="#6F5ADC"/>
</linearGradient>
</defs>
</svg>
