<svg width="308" height="263" viewBox="0 0 308 263" fill="none" xmlns="http://www.w3.org/2000/svg">
<path opacity="0.1" d="M173.669 0.000549039H161.473C161.052 0.0132717 160.647 0.180009 160.33 0.472042C160.012 0.764075 159.802 1.16312 159.735 1.60044L158.021 14.3996C157.986 14.5985 157.995 14.8029 158.045 14.998C158.096 15.193 158.187 15.3738 158.313 15.5271C158.438 15.6804 158.595 15.8023 158.771 15.8841C158.947 15.9658 159.138 16.0052 159.331 15.9995H171.527C171.948 15.9867 172.353 15.82 172.67 15.528C172.988 15.2359 173.198 14.8369 173.265 14.3996L174.979 1.60044C175.014 1.40154 175.005 1.19711 174.955 1.00205C174.904 0.806986 174.813 0.626216 174.687 0.47292C174.562 0.319624 174.405 0.197668 174.229 0.115947C174.053 0.0342269 173.862 -0.00519751 173.669 0.000549039Z" fill="#CABDFF"/>
<path opacity="0.1" d="M305.025 219.001H277.764C276.821 219.03 275.917 219.405 275.208 220.062C274.498 220.719 274.028 221.617 273.878 222.601L270.046 251.399C269.97 251.847 269.988 252.307 270.101 252.745C270.214 253.184 270.418 253.591 270.699 253.936C270.98 254.281 271.33 254.555 271.723 254.739C272.117 254.923 272.545 255.012 272.975 254.999H300.236C301.179 254.97 302.083 254.595 302.792 253.938C303.502 253.281 303.972 252.383 304.122 251.399L307.954 222.601C308.03 222.153 308.012 221.693 307.899 221.255C307.786 220.816 307.582 220.409 307.301 220.064C307.02 219.719 306.67 219.445 306.277 219.261C305.883 219.077 305.455 218.988 305.025 219.001Z" fill="#CABDFF"/>
<path opacity="0.1" d="M35.0249 227.001H7.76413C6.82104 227.03 5.91693 227.405 5.20753 228.062C4.49812 228.719 4.02784 229.617 3.87768 230.601L0.0463722 259.399C-0.0304053 259.847 -0.0116598 260.307 0.10124 260.745C0.214139 261.184 0.418345 261.591 0.698967 261.936C0.979589 262.281 1.32955 262.555 1.72332 262.739C2.1171 262.923 2.54476 263.012 2.97511 262.999H30.2359C31.179 262.97 32.0831 262.595 32.7925 261.938C33.5019 261.281 33.9722 260.383 34.1223 259.399L37.9536 230.601C38.0304 230.153 38.0117 229.693 37.8988 229.255C37.7859 228.816 37.5817 228.409 37.301 228.064C37.0204 227.719 36.6704 227.445 36.2767 227.261C35.8829 227.077 35.4552 226.988 35.0249 227.001Z" fill="#CABDFF"/>
<g filter="url(#filter0_b_2008_12077)">
<path d="M118 100C118 97.2386 120.239 95 123 95H198C217.882 95 234 111.118 234 131V225C234 227.761 231.761 230 229 230H123C120.239 230 118 227.761 118 225V100Z" fill="white" fill-opacity="0.03"/>
<path d="M118.5 100C118.5 97.5147 120.515 95.5 123 95.5H198C217.606 95.5 233.5 111.394 233.5 131V225C233.5 227.485 231.485 229.5 229 229.5H123C120.515 229.5 118.5 227.485 118.5 225V100Z" stroke="#E5E5E5" stroke-opacity="0.19"/>
</g>
<g filter="url(#filter1_b_2008_12077)">
<path d="M133 89C133 86.2386 135.239 84 138 84H211C230.882 84 247 100.118 247 120V214C247 216.761 244.761 219 242 219H138C135.239 219 133 216.761 133 214V89Z" fill="white" fill-opacity="0.03"/>
<path d="M133.5 89C133.5 86.5147 135.515 84.5 138 84.5H211C230.606 84.5 246.5 100.394 246.5 120V214C246.5 216.485 244.485 218.5 242 218.5H138C135.515 218.5 133.5 216.485 133.5 214V89Z" stroke="#E5E5E5" stroke-opacity="0.19"/>
</g>
<rect x="148" y="121" width="86" height="4" rx="2" fill="#C4C4C4" fill-opacity="0.07"/>
<rect x="148" y="134" width="86" height="4" rx="2" fill="#C4C4C4" fill-opacity="0.07"/>
<rect x="148" y="147" width="34" height="4" rx="2" fill="#C4C4C4" fill-opacity="0.07"/>
<rect x="148" y="183" width="34" height="4" rx="2" fill="#C4C4C4" fill-opacity="0.07"/>
<rect x="188" y="147" width="44" height="4" rx="2" fill="#C4C4C4" fill-opacity="0.07"/>
<rect x="148" y="160" width="86" height="4" rx="2" fill="#C4C4C4" fill-opacity="0.07"/>
<rect x="148" y="195" width="86" height="4" rx="2" fill="#C4C4C4" fill-opacity="0.07"/>
<rect x="148" y="170" width="40" height="4" rx="2" fill="#C4C4C4" fill-opacity="0.07"/>
<rect x="148" y="206" width="40" height="4" rx="2" fill="#C4C4C4" fill-opacity="0.07"/>
<path opacity="0.4" d="M235.809 84.021C235.357 84.021 234.759 84.011 234.015 84.011C232.199 84.011 230.706 82.508 230.706 80.675V77.459C230.706 77.206 230.504 77 230.253 77H224.964C222.495 77 220.5 79.026 220.5 81.509V92.284C220.5 94.889 222.59 97 225.17 97H233.046C235.506 97 237.5 94.987 237.5 92.502V84.471C237.5 84.217 237.299 84.012 237.047 84.013C236.625 84.016 236.118 84.021 235.809 84.021Z" fill="url(#paint0_linear_2008_12077)"/>
<path opacity="0.4" d="M233.084 77.5674C232.785 77.2564 232.263 77.4704 232.263 77.9014V80.5384C232.263 81.6444 233.174 82.5544 234.28 82.5544C234.977 82.5624 235.945 82.5644 236.767 82.5624C237.188 82.5614 237.402 82.0584 237.11 81.7544C236.055 80.6574 234.166 78.6914 233.084 77.5674Z" fill="url(#paint1_linear_2008_12077)"/>
<path fill-rule="evenodd" clip-rule="evenodd" d="M225.974 86.3874H229.359C229.77 86.3874 230.104 86.0544 230.104 85.6434C230.104 85.2324 229.77 84.8984 229.359 84.8984H225.974C225.563 84.8984 225.23 85.2324 225.23 85.6434C225.23 86.0544 225.563 86.3874 225.974 86.3874ZM225.974 91.3816H231.418C231.829 91.3816 232.163 91.0486 232.163 90.6376C232.163 90.2266 231.829 89.8926 231.418 89.8926H225.974C225.563 89.8926 225.23 90.2266 225.23 90.6376C225.23 91.0486 225.563 91.3816 225.974 91.3816Z" fill="url(#paint2_linear_2008_12077)"/>
<path opacity="0.4" d="M269.818 221.696H258.193C257.058 221.696 256.136 222.633 256.136 223.786C256.136 224.94 257.058 225.875 258.193 225.875H269.818C270.953 225.875 271.875 224.94 271.875 223.786C271.875 222.633 270.953 221.696 269.818 221.696Z" fill="url(#paint3_linear_2008_12077)"/>
<path d="M250.048 197.096L261.064 205.997C261.33 206.21 261.375 206.601 261.168 206.873L248.107 223.891C247.286 224.942 246.077 225.537 244.78 225.559L237.65 225.647C237.27 225.651 236.937 225.388 236.851 225.01L235.231 217.965C234.95 216.67 235.231 215.332 236.052 214.3L249.177 197.201C249.389 196.927 249.78 196.878 250.048 197.096Z" fill="url(#paint4_linear_2008_12077)"/>
<path opacity="0.4" d="M265.996 200.692L263.872 203.343C263.658 203.613 263.274 203.657 263.008 203.442C260.426 201.353 253.815 195.991 251.981 194.505C251.713 194.286 251.676 193.895 251.892 193.623L253.94 191.079C255.798 188.687 259.039 188.467 261.653 190.552L264.657 192.945C265.888 193.91 266.709 195.183 266.99 196.522C267.314 197.995 266.968 199.441 265.996 200.692Z" fill="url(#paint5_linear_2008_12077)"/>
<defs>
<filter id="filter0_b_2008_12077" x="62" y="39" width="228" height="247" filterUnits="userSpaceOnUse" color-interpolation-filters="sRGB">
<feFlood flood-opacity="0" result="BackgroundImageFix"/>
<feGaussianBlur in="BackgroundImage" stdDeviation="28"/>
<feComposite in2="SourceAlpha" operator="in" result="effect1_backgroundBlur_2008_12077"/>
<feBlend mode="normal" in="SourceGraphic" in2="effect1_backgroundBlur_2008_12077" result="shape"/>
</filter>
<filter id="filter1_b_2008_12077" x="77" y="28" width="226" height="247" filterUnits="userSpaceOnUse" color-interpolation-filters="sRGB">
<feFlood flood-opacity="0" result="BackgroundImageFix"/>
<feGaussianBlur in="BackgroundImage" stdDeviation="28"/>
<feComposite in2="SourceAlpha" operator="in" result="effect1_backgroundBlur_2008_12077"/>
<feBlend mode="normal" in="SourceGraphic" in2="effect1_backgroundBlur_2008_12077" result="shape"/>
</filter>
<linearGradient id="paint0_linear_2008_12077" x1="229" y1="77" x2="242.61" y2="101.962" gradientUnits="userSpaceOnUse">
<stop stop-color="white"/>
<stop offset="1" stop-color="#6F5ADC"/>
</linearGradient>
<linearGradient id="paint1_linear_2008_12077" x1="234.754" y1="77.4199" x2="237.996" y2="84.1961" gradientUnits="userSpaceOnUse">
<stop stop-color="white"/>
<stop offset="1" stop-color="#6F5ADC"/>
</linearGradient>
<linearGradient id="paint2_linear_2008_12077" x1="228.697" y1="84.8984" x2="232.527" y2="93.7359" gradientUnits="userSpaceOnUse">
<stop stop-color="white"/>
<stop offset="1" stop-color="#6F5ADC"/>
</linearGradient>
<linearGradient id="paint3_linear_2008_12077" x1="264.005" y1="221.696" x2="264.826" y2="228.361" gradientUnits="userSpaceOnUse">
<stop stop-color="white"/>
<stop offset="1" stop-color="#6F5ADC"/>
</linearGradient>
<linearGradient id="paint4_linear_2008_12077" x1="248.211" y1="196.959" x2="266.967" y2="233.881" gradientUnits="userSpaceOnUse">
<stop stop-color="white"/>
<stop offset="1" stop-color="#6F5ADC"/>
</linearGradient>
<linearGradient id="paint5_linear_2008_12077" x1="259.43" y1="189.125" x2="268.006" y2="208.786" gradientUnits="userSpaceOnUse">
<stop stop-color="white"/>
<stop offset="1" stop-color="#6F5ADC"/>
</linearGradient>
</defs>
</svg>
