<svg width="455" height="234" viewBox="0 0 455 234" fill="none" xmlns="http://www.w3.org/2000/svg">
<path opacity="0.1" d="M381.116 41.0026H320.316C318.213 41.063 316.197 41.8551 314.614 43.2424C313.032 44.6296 311.983 46.5252 311.648 48.6026L303.103 109.403C302.932 110.347 302.974 111.319 303.226 112.245C303.478 113.172 303.933 114.03 304.559 114.759C305.185 115.487 305.965 116.066 306.844 116.454C307.722 116.843 308.676 117.03 309.635 117.003H370.435C372.539 116.942 374.555 116.15 376.137 114.763C377.72 113.376 378.769 111.48 379.103 109.403L387.648 48.6026C387.82 47.6578 387.778 46.6867 387.526 45.7601C387.274 44.8334 386.819 43.9747 386.193 43.2465C385.567 42.5183 384.787 41.939 383.908 41.5508C383.03 41.1626 382.076 40.9753 381.116 41.0026Z" fill="#CABDFF"/>
<path opacity="0.1" d="M19.669 175.001H7.47342C7.05152 175.013 6.64705 175.18 6.32968 175.472C6.01232 175.764 5.80193 176.163 5.73475 176.6L4.02075 189.4C3.9864 189.598 3.99478 189.803 4.04529 189.998C4.0958 190.193 4.18715 190.374 4.3127 190.527C4.43824 190.68 4.5948 190.802 4.77096 190.884C4.94712 190.966 5.13844 191.005 5.33097 190.999H17.5266C17.9485 190.987 18.353 190.82 18.6703 190.528C18.9877 190.236 19.1981 189.837 19.2653 189.4L20.9793 176.6C21.0136 176.402 21.0052 176.197 20.9547 176.002C20.9042 175.807 20.8128 175.626 20.6873 175.473C20.5618 175.32 20.4052 175.198 20.229 175.116C20.0529 175.034 19.8616 174.995 19.669 175.001Z" fill="#CABDFF"/>
<path opacity="0.1" d="M152.669 0.000549039H140.473C140.052 0.0132717 139.647 0.180009 139.33 0.472042C139.012 0.764075 138.802 1.16312 138.735 1.60044L137.021 14.3996C136.986 14.5985 136.995 14.8029 137.045 14.998C137.096 15.193 137.187 15.3738 137.313 15.5271C137.438 15.6804 137.595 15.8023 137.771 15.8841C137.947 15.9658 138.138 16.0052 138.331 15.9995H150.527C150.948 15.9867 151.353 15.82 151.67 15.528C151.988 15.2359 152.198 14.8369 152.265 14.3996L153.979 1.60044C154.014 1.40154 154.005 1.19711 153.955 1.00205C153.904 0.806986 153.813 0.626216 153.687 0.47292C153.562 0.319624 153.405 0.197668 153.229 0.115947C153.053 0.0342269 152.862 -0.00519751 152.669 0.000549039Z" fill="#CABDFF"/>
<path opacity="0.1" d="M452.025 159.001H424.764C423.821 159.03 422.917 159.405 422.208 160.062C421.498 160.719 421.028 161.617 420.878 162.601L417.046 191.399C416.97 191.847 416.988 192.307 417.101 192.745C417.214 193.184 417.418 193.591 417.699 193.936C417.98 194.281 418.33 194.555 418.723 194.739C419.117 194.923 419.545 195.012 419.975 194.999H447.236C448.179 194.97 449.083 194.595 449.792 193.938C450.502 193.281 450.972 192.383 451.122 191.399L454.954 162.601C455.03 162.153 455.012 161.693 454.899 161.255C454.786 160.816 454.582 160.409 454.301 160.064C454.02 159.719 453.67 159.445 453.277 159.261C452.883 159.077 452.455 158.988 452.025 159.001Z" fill="#CABDFF"/>
<g filter="url(#filter0_b_1948_12083)">
<rect x="12" y="69" width="344.571" height="48" rx="5" fill="white" fill-opacity="0.03"/>
<rect x="12.5" y="69.5" width="343.571" height="47" rx="4.5" stroke="#E5E5E5" stroke-opacity="0.19"/>
</g>
<g filter="url(#filter1_b_1948_12083)">
<rect x="44.5715" y="127.286" width="334.286" height="48" rx="5" fill="white" fill-opacity="0.03"/>
<rect x="45.0715" y="127.786" width="333.286" height="47" rx="4.5" stroke="#E5E5E5" stroke-opacity="0.19"/>
</g>
<g filter="url(#filter2_b_1948_12083)">
<rect x="63.4285" y="185.571" width="334.286" height="48" rx="5" fill="white" fill-opacity="0.03"/>
<rect x="63.9285" y="186.071" width="333.286" height="47" rx="4.5" stroke="#E5E5E5" stroke-opacity="0.19"/>
</g>
<rect x="27.4286" y="89.5713" width="109.714" height="8.57143" rx="4.28571" fill="#C4C4C4" fill-opacity="0.07"/>
<rect x="68.5715" y="149.571" width="109.714" height="8.57143" rx="4.28571" fill="#C4C4C4" fill-opacity="0.07"/>
<rect x="87.4285" y="209.571" width="109.714" height="8.57143" rx="4.28571" fill="#C4C4C4" fill-opacity="0.07"/>
<g filter="url(#filter3_b_1948_12083)">
<rect x="12" y="69" width="344.571" height="48" rx="5" fill="white" fill-opacity="0.03"/>
<rect x="12.5" y="69.5" width="343.571" height="47" rx="4.5" stroke="#E5E5E5" stroke-opacity="0.19"/>
</g>
<g filter="url(#filter4_b_1948_12083)">
<rect x="44.5715" y="127.286" width="334.286" height="48" rx="5" fill="white" fill-opacity="0.03"/>
<rect x="45.0715" y="127.786" width="333.286" height="47" rx="4.5" stroke="#E5E5E5" stroke-opacity="0.19"/>
</g>
<g filter="url(#filter5_b_1948_12083)">
<rect x="63.4285" y="185.571" width="334.286" height="48" rx="5" fill="white" fill-opacity="0.03"/>
<rect x="63.9285" y="186.071" width="333.286" height="47" rx="4.5" stroke="#E5E5E5" stroke-opacity="0.19"/>
</g>
<rect x="27.4286" y="89.5713" width="109.714" height="8.57143" rx="4.28571" fill="#C4C4C4" fill-opacity="0.07"/>
<rect x="68.5715" y="149.571" width="109.714" height="8.57143" rx="4.28571" fill="#C4C4C4" fill-opacity="0.07"/>
<rect x="87.4285" y="209.571" width="109.714" height="8.57143" rx="4.28571" fill="#C4C4C4" fill-opacity="0.07"/>
<path opacity="0.4" d="M16.191 84H7.81C4.77 84 3 85.78 3 88.83V99.16C3 102.26 4.77 104 7.81 104H16.191C19.28 104 21 102.26 21 99.16V88.83C21 85.78 19.28 84 16.191 84Z" fill="url(#paint0_linear_1948_12083)"/>
<path fill-rule="evenodd" clip-rule="evenodd" d="M8.07999 88.6499V88.6599C7.64899 88.6599 7.29999 89.0099 7.29999 89.4399C7.29999 89.8699 7.64899 90.2199 8.07999 90.2199H11.069C11.5 90.2199 11.85 89.8699 11.85 89.4289C11.85 88.9999 11.5 88.6499 11.069 88.6499H8.07999ZM15.92 94.7399H8.07999C7.64899 94.7399 7.29999 94.3899 7.29999 93.9599C7.29999 93.5299 7.64899 93.1789 8.07999 93.1789H15.92C16.35 93.1789 16.7 93.5299 16.7 93.9599C16.7 94.3899 16.35 94.7399 15.92 94.7399ZM15.92 99.3099H8.07999C7.77999 99.3499 7.48999 99.1999 7.32999 98.9499C7.16999 98.6899 7.16999 98.3599 7.32999 98.1099C7.48999 97.8499 7.77999 97.7099 8.07999 97.7399H15.92C16.319 97.7799 16.62 98.1199 16.62 98.5299C16.62 98.9289 16.319 99.2699 15.92 99.3099Z" fill="url(#paint1_linear_1948_12083)"/>
<path opacity="0.4" d="M49.191 144H40.81C37.77 144 36 145.78 36 148.83V159.16C36 162.26 37.77 164 40.81 164H49.191C52.28 164 54 162.26 54 159.16V148.83C54 145.78 52.28 144 49.191 144Z" fill="url(#paint2_linear_1948_12083)"/>
<path fill-rule="evenodd" clip-rule="evenodd" d="M41.08 148.65V148.66C40.649 148.66 40.3 149.01 40.3 149.44C40.3 149.87 40.649 150.22 41.08 150.22H44.069C44.5 150.22 44.85 149.87 44.85 149.429C44.85 149 44.5 148.65 44.069 148.65H41.08ZM48.92 154.74H41.08C40.649 154.74 40.3 154.39 40.3 153.96C40.3 153.53 40.649 153.179 41.08 153.179H48.92C49.35 153.179 49.7 153.53 49.7 153.96C49.7 154.39 49.35 154.74 48.92 154.74ZM48.92 159.31H41.08C40.78 159.35 40.49 159.2 40.33 158.95C40.17 158.69 40.17 158.36 40.33 158.11C40.49 157.85 40.78 157.71 41.08 157.74H48.92C49.319 157.78 49.62 158.12 49.62 158.53C49.62 158.929 49.319 159.27 48.92 159.31Z" fill="url(#paint3_linear_1948_12083)"/>
<path opacity="0.4" d="M67.191 204H58.81C55.77 204 54 205.78 54 208.83V219.16C54 222.26 55.77 224 58.81 224H67.191C70.28 224 72 222.26 72 219.16V208.83C72 205.78 70.28 204 67.191 204Z" fill="url(#paint4_linear_1948_12083)"/>
<path fill-rule="evenodd" clip-rule="evenodd" d="M59.08 208.65V208.66C58.649 208.66 58.3 209.01 58.3 209.44C58.3 209.87 58.649 210.22 59.08 210.22H62.069C62.5 210.22 62.85 209.87 62.85 209.429C62.85 209 62.5 208.65 62.069 208.65H59.08ZM66.92 214.74H59.08C58.649 214.74 58.3 214.39 58.3 213.96C58.3 213.53 58.649 213.179 59.08 213.179H66.92C67.35 213.179 67.7 213.53 67.7 213.96C67.7 214.39 67.35 214.74 66.92 214.74ZM66.92 219.31H59.08C58.78 219.35 58.49 219.2 58.33 218.95C58.17 218.69 58.17 218.36 58.33 218.11C58.49 217.85 58.78 217.71 59.08 217.74H66.92C67.319 217.78 67.62 218.12 67.62 218.53C67.62 218.929 67.319 219.27 66.92 219.31Z" fill="url(#paint5_linear_1948_12083)"/>
<path d="M345 57L364.556 31.2661L386.863 49.0073L406 24" stroke="url(#paint6_linear_1948_12083)" stroke-width="8" stroke-linecap="round" stroke-linejoin="round"/>
<circle cx="411.5" cy="16.5" r="3.5" fill="url(#paint7_linear_1948_12083)"/>
<defs>
<filter id="filter0_b_1948_12083" x="-44" y="13" width="456.571" height="160" filterUnits="userSpaceOnUse" color-interpolation-filters="sRGB">
<feFlood flood-opacity="0" result="BackgroundImageFix"/>
<feGaussianBlur in="BackgroundImage" stdDeviation="28"/>
<feComposite in2="SourceAlpha" operator="in" result="effect1_backgroundBlur_1948_12083"/>
<feBlend mode="normal" in="SourceGraphic" in2="effect1_backgroundBlur_1948_12083" result="shape"/>
</filter>
<filter id="filter1_b_1948_12083" x="-11.4285" y="71.2861" width="446.286" height="160" filterUnits="userSpaceOnUse" color-interpolation-filters="sRGB">
<feFlood flood-opacity="0" result="BackgroundImageFix"/>
<feGaussianBlur in="BackgroundImage" stdDeviation="28"/>
<feComposite in2="SourceAlpha" operator="in" result="effect1_backgroundBlur_1948_12083"/>
<feBlend mode="normal" in="SourceGraphic" in2="effect1_backgroundBlur_1948_12083" result="shape"/>
</filter>
<filter id="filter2_b_1948_12083" x="7.42847" y="129.571" width="446.286" height="160" filterUnits="userSpaceOnUse" color-interpolation-filters="sRGB">
<feFlood flood-opacity="0" result="BackgroundImageFix"/>
<feGaussianBlur in="BackgroundImage" stdDeviation="28"/>
<feComposite in2="SourceAlpha" operator="in" result="effect1_backgroundBlur_1948_12083"/>
<feBlend mode="normal" in="SourceGraphic" in2="effect1_backgroundBlur_1948_12083" result="shape"/>
</filter>
<filter id="filter3_b_1948_12083" x="-44" y="13" width="456.571" height="160" filterUnits="userSpaceOnUse" color-interpolation-filters="sRGB">
<feFlood flood-opacity="0" result="BackgroundImageFix"/>
<feGaussianBlur in="BackgroundImage" stdDeviation="28"/>
<feComposite in2="SourceAlpha" operator="in" result="effect1_backgroundBlur_1948_12083"/>
<feBlend mode="normal" in="SourceGraphic" in2="effect1_backgroundBlur_1948_12083" result="shape"/>
</filter>
<filter id="filter4_b_1948_12083" x="-11.4285" y="71.2861" width="446.286" height="160" filterUnits="userSpaceOnUse" color-interpolation-filters="sRGB">
<feFlood flood-opacity="0" result="BackgroundImageFix"/>
<feGaussianBlur in="BackgroundImage" stdDeviation="28"/>
<feComposite in2="SourceAlpha" operator="in" result="effect1_backgroundBlur_1948_12083"/>
<feBlend mode="normal" in="SourceGraphic" in2="effect1_backgroundBlur_1948_12083" result="shape"/>
</filter>
<filter id="filter5_b_1948_12083" x="7.42847" y="129.571" width="446.286" height="160" filterUnits="userSpaceOnUse" color-interpolation-filters="sRGB">
<feFlood flood-opacity="0" result="BackgroundImageFix"/>
<feGaussianBlur in="BackgroundImage" stdDeviation="28"/>
<feComposite in2="SourceAlpha" operator="in" result="effect1_backgroundBlur_1948_12083"/>
<feBlend mode="normal" in="SourceGraphic" in2="effect1_backgroundBlur_1948_12083" result="shape"/>
</filter>
<linearGradient id="paint0_linear_1948_12083" x1="12" y1="84" x2="12" y2="104" gradientUnits="userSpaceOnUse">
<stop stop-color="#502EFF"/>
<stop offset="1" stop-color="#6F5ADC"/>
</linearGradient>
<linearGradient id="paint1_linear_1948_12083" x1="11.955" y1="88.6499" x2="11.955" y2="99.3163" gradientUnits="userSpaceOnUse">
<stop stop-color="#502EFF"/>
<stop offset="1" stop-color="#6F5ADC"/>
</linearGradient>
<linearGradient id="paint2_linear_1948_12083" x1="45" y1="144" x2="45" y2="164" gradientUnits="userSpaceOnUse">
<stop stop-color="#502EFF"/>
<stop offset="1" stop-color="#6F5ADC"/>
</linearGradient>
<linearGradient id="paint3_linear_1948_12083" x1="44.955" y1="148.65" x2="44.955" y2="159.316" gradientUnits="userSpaceOnUse">
<stop stop-color="#502EFF"/>
<stop offset="1" stop-color="#6F5ADC"/>
</linearGradient>
<linearGradient id="paint4_linear_1948_12083" x1="63" y1="204" x2="63" y2="224" gradientUnits="userSpaceOnUse">
<stop stop-color="#502EFF"/>
<stop offset="1" stop-color="#6F5ADC"/>
</linearGradient>
<linearGradient id="paint5_linear_1948_12083" x1="62.955" y1="208.65" x2="62.955" y2="219.316" gradientUnits="userSpaceOnUse">
<stop stop-color="#502EFF"/>
<stop offset="1" stop-color="#6F5ADC"/>
</linearGradient>
<linearGradient id="paint6_linear_1948_12083" x1="375.5" y1="24" x2="388.104" y2="74.2718" gradientUnits="userSpaceOnUse">
<stop stop-color="white"/>
<stop offset="1" stop-color="#6F5ADC"/>
</linearGradient>
<linearGradient id="paint7_linear_1948_12083" x1="411.5" y1="13" x2="415.824" y2="22.33" gradientUnits="userSpaceOnUse">
<stop stop-color="white"/>
<stop offset="1" stop-color="#6F5ADC"/>
</linearGradient>
</defs>
</svg>
