<svg width="250" height="194" viewBox="0 0 250 194" fill="none" xmlns="http://www.w3.org/2000/svg">
<path d="M70.049 176.909H67.6903V185.832H67.5753L61.4134 176.909H59.2912V190H61.6626V181.083H61.7713L67.9396 190H70.049V176.909ZM76.8134 190.192C79.6898 190.192 81.5179 188.165 81.5179 185.129C81.5179 182.087 79.6898 180.054 76.8134 180.054C73.937 180.054 72.1088 182.087 72.1088 185.129C72.1088 188.165 73.937 190.192 76.8134 190.192ZM76.8262 188.338C75.2346 188.338 74.4547 186.919 74.4547 185.123C74.4547 183.327 75.2346 181.888 76.8262 181.888C78.3922 181.888 79.1721 183.327 79.1721 185.123C79.1721 186.919 78.3922 188.338 76.8262 188.338ZM88.049 190H96.1861V188.012H90.4205V176.909H88.049V190ZM102.489 190.192C104.777 190.192 106.349 189.073 106.759 187.366L104.598 187.124C104.285 187.955 103.518 188.389 102.521 188.389C101.025 188.389 100.034 187.405 100.015 185.724H106.854V185.014C106.854 181.569 104.783 180.054 102.367 180.054C99.5547 180.054 97.7202 182.119 97.7202 185.148C97.7202 188.229 99.5291 190.192 102.489 190.192ZM100.021 184.164C100.092 182.911 101.018 181.857 102.399 181.857C103.729 181.857 104.624 182.828 104.636 184.164H100.021ZM111.637 190.198C113.178 190.198 114.098 189.476 114.52 188.651H114.597V190H116.821V183.429C116.821 180.834 114.705 180.054 112.833 180.054C110.768 180.054 109.183 180.974 108.671 182.764L110.832 183.071C111.062 182.4 111.714 181.825 112.845 181.825C113.919 181.825 114.507 182.374 114.507 183.339V183.378C114.507 184.043 113.811 184.075 112.078 184.26C110.173 184.464 108.352 185.033 108.352 187.245C108.352 189.175 109.764 190.198 111.637 190.198ZM112.238 188.498C111.273 188.498 110.583 188.057 110.583 187.207C110.583 186.318 111.356 185.947 112.392 185.8C112.999 185.717 114.213 185.564 114.514 185.321V186.478C114.514 187.571 113.632 188.498 112.238 188.498ZM122.791 190.173C124.479 190.173 125.24 189.169 125.604 188.453H125.744V190H128.02V176.909H125.7V181.805H125.604C125.252 181.096 124.53 180.054 122.798 180.054C120.529 180.054 118.745 181.831 118.745 185.104C118.745 188.338 120.477 190.173 122.791 190.173ZM123.437 188.274C121.909 188.274 121.104 186.932 121.104 185.091C121.104 183.263 121.896 181.952 123.437 181.952C124.926 181.952 125.744 183.186 125.744 185.091C125.744 186.996 124.914 188.274 123.437 188.274ZM138.246 182.777C137.926 181.115 136.597 180.054 134.295 180.054C131.93 180.054 130.32 181.217 130.326 183.033C130.32 184.464 131.202 185.411 133.087 185.8L134.762 186.152C135.663 186.35 136.085 186.714 136.085 187.271C136.085 187.942 135.357 188.447 134.257 188.447C133.196 188.447 132.506 187.987 132.308 187.104L130.051 187.322C130.339 189.124 131.854 190.192 134.263 190.192C136.718 190.192 138.45 188.92 138.457 187.06C138.45 185.66 137.549 184.803 135.695 184.401L134.021 184.043C133.023 183.819 132.627 183.474 132.634 182.905C132.627 182.24 133.362 181.78 134.327 181.78C135.395 181.78 135.957 182.362 136.136 183.007L138.246 182.777ZM144.037 176.909L148.799 185.116V190H151.164V185.116L155.926 176.909H153.248L150.045 182.7H149.918L146.715 176.909H144.037ZM160.022 190.192C162.31 190.192 163.883 189.073 164.292 187.366L162.131 187.124C161.818 187.955 161.051 188.389 160.054 188.389C158.558 188.389 157.567 187.405 157.548 185.724H164.388V185.014C164.388 181.569 162.317 180.054 159.9 180.054C157.088 180.054 155.253 182.119 155.253 185.148C155.253 188.229 157.062 190.192 160.022 190.192ZM157.555 184.164C157.625 182.911 158.552 181.857 159.932 181.857C161.262 181.857 162.157 182.828 162.17 184.164H157.555ZM171.248 180.182H169.311V177.83H166.997V180.182H165.604V181.972H166.997V187.43C166.984 189.278 168.327 190.185 170.065 190.134C170.724 190.115 171.178 189.987 171.427 189.904L171.037 188.095C170.909 188.127 170.647 188.185 170.359 188.185C169.778 188.185 169.311 187.98 169.311 187.047V181.972H171.248V180.182Z" fill="white" fill-opacity="0.79"/>
<path opacity="0.1" d="M144.894 66.0024H90.4937C88.6118 66.0563 86.8076 66.765 85.392 68.0063C83.9765 69.2475 83.0381 70.9436 82.7387 72.8024L75.0927 127.202C74.9393 128.048 74.9766 128.917 75.2018 129.746C75.427 130.575 75.8345 131.343 76.3945 131.995C76.9545 132.646 77.6528 133.165 78.4387 133.512C79.2245 133.859 80.0779 134.027 80.9367 134.002H135.337C137.219 133.949 139.023 133.24 140.439 131.999C141.855 130.757 142.793 129.061 143.093 127.202L150.738 72.8024C150.891 71.957 150.854 71.0881 150.629 70.259C150.403 69.4299 149.996 68.6615 149.436 68.0099C148.876 67.3583 148.178 66.84 147.392 66.4927C146.606 66.1453 145.753 65.9778 144.894 66.0024Z" fill="#AE9AFF"/>
<path opacity="0.1" d="M170.116 44.0026H109.316C107.213 44.063 105.197 44.8551 103.614 46.2424C102.032 47.6296 100.983 49.5252 100.648 51.6026L92.1034 112.403C91.9322 113.347 91.974 114.319 92.2258 115.245C92.4776 116.172 92.933 117.03 93.5589 117.759C94.1848 118.487 94.9653 119.066 95.8436 119.454C96.7218 119.843 97.6756 120.03 98.6354 120.003H159.435C161.539 119.942 163.555 119.15 165.137 117.763C166.72 116.376 167.769 114.48 168.103 112.403L176.648 51.6026C176.82 50.6578 176.778 49.6867 176.526 48.7601C176.274 47.8334 175.819 46.9747 175.193 46.2465C174.567 45.5183 173.787 44.939 172.908 44.5508C172.03 44.1626 171.076 43.9753 170.116 44.0026Z" fill="#CABDFF"/>
<g filter="url(#filter0_b_1948_12085)">
<path fill-rule="evenodd" clip-rule="evenodd" d="M136.106 14.0229C136.106 21.8075 142.476 28.0458 150.425 28.0458C158.371 28.0458 164.744 21.8075 164.744 14.0229C164.744 6.23836 158.371 0 150.425 0C142.476 0 136.106 6.23836 136.106 14.0229ZM172.066 43.9234C172.066 36.7173 162.097 34.9143 150.426 34.9143C138.691 34.9143 128.785 36.7794 128.785 43.9911C128.785 51.1973 138.754 53.0002 150.426 53.0002C162.16 53.0002 172.066 51.1352 172.066 43.9234Z" fill="url(#paint0_linear_1948_12085)"/>
</g>
<path opacity="0.1" d="M247.281 134.001H227.604C226.923 134.02 226.271 134.27 225.759 134.708C225.247 135.146 224.907 135.745 224.799 136.401L222.033 155.599C221.978 155.898 221.992 156.204 222.073 156.497C222.155 156.79 222.302 157.061 222.505 157.291C222.707 157.521 222.96 157.703 223.244 157.826C223.528 157.949 223.837 158.008 224.147 157.999H243.824C244.505 157.98 245.158 157.73 245.67 157.292C246.182 156.854 246.521 156.255 246.63 155.599L249.395 136.401C249.451 136.102 249.437 135.796 249.355 135.503C249.274 135.21 249.127 134.939 248.924 134.709C248.721 134.479 248.469 134.297 248.185 134.174C247.9 134.051 247.592 133.992 247.281 134.001Z" fill="#CABDFF"/>
<path opacity="0.1" d="M35.0249 10.0012H7.76413C6.82104 10.0282 5.91693 10.3825 5.20753 11.0031C4.49812 11.6237 4.02784 12.4716 3.87768 13.4009L0.0463722 40.5991C-0.0304053 41.0217 -0.0116598 41.4561 0.10124 41.8706C0.214139 42.2852 0.418345 42.6693 0.698967 42.995C0.979589 43.3208 1.32955 43.58 1.72332 43.7536C2.1171 43.9273 2.54476 44.011 2.97511 43.9988H30.2359C31.179 43.9718 32.0831 43.6175 32.7925 42.9969C33.5019 42.3763 33.9722 41.5284 34.1223 40.5991L37.9536 13.4009C38.0304 12.9783 38.0117 12.5439 37.8988 12.1294C37.7859 11.7148 37.5817 11.3307 37.301 11.005C37.0204 10.6792 36.6704 10.42 36.2767 10.2464C35.8829 10.0727 35.4552 9.98896 35.0249 10.0012Z" fill="#CABDFF"/>
<g filter="url(#filter1_b_1948_12085)">
<rect x="6" y="100" width="48" height="48" rx="5" fill="white" fill-opacity="0.03"/>
<rect x="6.5" y="100.5" width="47" height="47" rx="4.5" stroke="#E5E5E5" stroke-opacity="0.19"/>
</g>
<path fill-rule="evenodd" clip-rule="evenodd" d="M33.2428 114.738C33.2428 116.959 35.0459 118.759 37.2702 118.759C37.5151 118.758 37.7594 118.734 38 118.689V126.661C38 130.016 36.0215 132 32.6624 132H25.3464C21.9785 132 20 130.016 20 126.661V119.356C20 116.002 21.9785 114 25.3464 114H33.3131C33.2659 114.243 33.2423 114.49 33.2428 114.738ZM31.15 124.897L34.0078 121.209V121.191C34.2525 120.862 34.1901 120.399 33.8671 120.146C33.7108 120.026 33.5122 119.973 33.3167 120.002C33.1211 120.03 32.9453 120.136 32.8295 120.296L30.4201 123.395L27.6766 121.235C27.52 121.113 27.3207 121.059 27.1238 121.086C26.9269 121.112 26.749 121.217 26.6302 121.376L23.6756 125.186C23.5718 125.316 23.5159 125.477 23.5173 125.643C23.5002 125.978 23.7119 126.283 24.0324 126.384C24.3529 126.485 24.7014 126.357 24.8803 126.073L27.3512 122.877L30.0948 125.028C30.2508 125.154 30.4514 125.211 30.6504 125.186C30.8494 125.161 31.0297 125.057 31.15 124.897Z" fill="url(#paint1_linear_1948_12085)"/>
<circle cx="37.5" cy="114.5" r="2.5" fill="url(#paint2_linear_1948_12085)"/>
<path d="M140.45 85.4785C136.917 85.4935 133.413 86.1269 130.098 87.3501C130.458 88.3503 130.568 89.4233 130.418 90.4757L129.814 94.7748C132.829 93.338 136.122 92.5765 139.461 92.5437C151.167 92.5437 159.323 102.033 157.677 113.739C156.032 125.445 145.209 134.935 133.504 134.935C121.798 134.935 113.642 125.445 115.287 113.739C115.777 110.416 116.969 107.235 118.784 104.409H114.53C114.006 104.405 113.484 104.339 112.975 104.214C112.947 104.207 112.921 104.195 112.893 104.188C112.418 104.067 111.96 103.889 111.528 103.657C109.858 106.804 108.742 110.215 108.227 113.74C106.033 129.347 116.908 142 132.515 142C148.122 142 162.553 129.348 164.747 113.74C166.94 98.1315 156.064 85.4785 140.45 85.4785ZM134.493 127.869C142.297 127.869 149.512 121.543 150.609 113.739C151.705 105.935 146.268 99.6088 138.465 99.6088C136.531 99.6325 134.621 100.033 132.841 100.789L137.941 106.723C138.79 106.762 139.622 106.981 140.38 107.367C141.137 107.753 141.804 108.296 142.335 108.961C142.865 109.625 143.248 110.395 143.456 111.22C143.665 112.044 143.695 112.904 143.544 113.74C143.233 115.672 142.257 117.434 140.786 118.723C139.316 120.013 137.441 120.749 135.486 120.806C134.636 120.83 133.791 120.672 133.008 120.342C132.224 120.013 131.52 119.519 130.943 118.895C130.366 118.271 129.929 117.53 129.662 116.724C129.395 115.917 129.304 115.062 129.395 114.217L124.244 108.223C123.272 109.928 122.629 111.799 122.349 113.741C121.256 121.543 126.692 127.869 134.496 127.869L134.493 127.869Z" fill="url(#paint3_linear_1948_12085)"/>
<g clip-path="url(#clip0_1948_12085)">
<path d="M136.131 110.726L124.003 96.6116L125.114 88.7085C125.185 88.2675 125.161 87.8164 125.043 87.3856C124.925 86.9548 124.716 86.5542 124.43 86.211L116.653 77.1634C116.41 76.8808 116.126 76.974 116.023 77.3718L114.036 85.0156L112.893 83.6866C112.562 83.3555 112.113 83.1695 111.645 83.1695C111.176 83.1695 110.727 83.3555 110.396 83.6866C110.022 83.9743 109.776 84.3967 109.71 84.8634C109.644 85.3302 109.764 85.8042 110.043 86.1841L133.281 113.223C133.445 113.387 133.64 113.517 133.854 113.606C134.069 113.695 134.298 113.741 134.53 113.741C134.762 113.741 134.992 113.695 135.206 113.606C135.421 113.517 135.615 113.387 135.779 113.223C136.152 112.903 136.397 112.46 136.472 111.975C136.508 111.754 136.497 111.529 136.438 111.313C136.379 111.097 136.275 110.897 136.131 110.726ZM103.415 88.4266C103.011 88.474 102.879 88.7446 103.122 89.0272L110.899 98.0755C111.192 98.4084 111.555 98.6733 111.961 98.8521C112.368 99.0308 112.808 99.119 113.252 99.1105H118.655L108.916 87.7802L103.415 88.4266Z" fill="url(#paint4_linear_1948_12085)"/>
</g>
<defs>
<filter id="filter0_b_1948_12085" x="115.785" y="-13" width="69.2803" height="79" filterUnits="userSpaceOnUse" color-interpolation-filters="sRGB">
<feFlood flood-opacity="0" result="BackgroundImageFix"/>
<feGaussianBlur in="BackgroundImage" stdDeviation="6.5"/>
<feComposite in2="SourceAlpha" operator="in" result="effect1_backgroundBlur_1948_12085"/>
<feBlend mode="normal" in="SourceGraphic" in2="effect1_backgroundBlur_1948_12085" result="shape"/>
</filter>
<filter id="filter1_b_1948_12085" x="-50" y="44" width="160" height="160" filterUnits="userSpaceOnUse" color-interpolation-filters="sRGB">
<feFlood flood-opacity="0" result="BackgroundImageFix"/>
<feGaussianBlur in="BackgroundImage" stdDeviation="28"/>
<feComposite in2="SourceAlpha" operator="in" result="effect1_backgroundBlur_1948_12085"/>
<feBlend mode="normal" in="SourceGraphic" in2="effect1_backgroundBlur_1948_12085" result="shape"/>
</filter>
<linearGradient id="paint0_linear_1948_12085" x1="150.426" y1="0" x2="150.426" y2="53.0002" gradientUnits="userSpaceOnUse">
<stop stop-color="#502EFF"/>
<stop offset="1" stop-color="#6F5ADC"/>
</linearGradient>
<linearGradient id="paint1_linear_1948_12085" x1="29" y1="114" x2="40.119" y2="137.992" gradientUnits="userSpaceOnUse">
<stop stop-color="white"/>
<stop offset="1" stop-color="#6F5ADC"/>
</linearGradient>
<linearGradient id="paint2_linear_1948_12085" x1="37.5" y1="112" x2="40.5886" y2="118.664" gradientUnits="userSpaceOnUse">
<stop stop-color="white"/>
<stop offset="1" stop-color="#6F5ADC"/>
</linearGradient>
<linearGradient id="paint3_linear_1948_12085" x1="136.487" y1="85.4785" x2="171.179" y2="161.076" gradientUnits="userSpaceOnUse">
<stop stop-color="white"/>
<stop offset="1" stop-color="#6F5ADC"/>
</linearGradient>
<linearGradient id="paint4_linear_1948_12085" x1="105.177" y1="82.805" x2="140.138" y2="108.301" gradientUnits="userSpaceOnUse">
<stop stop-color="#502EFF"/>
<stop offset="0.401042" stop-color="#6F5ADC"/>
<stop offset="0.578125" stop-color="#AE9AFF"/>
<stop offset="0.663" stop-color="#D1C7FF"/>
<stop offset="1" stop-color="#C3B8FF"/>
</linearGradient>
<clipPath id="clip0_1948_12085">
<rect width="33.4909" height="36.7401" fill="white" transform="translate(103 77)"/>
</clipPath>
</defs>
</svg>
