<svg width="309" height="237" viewBox="0 0 309 237" fill="none" xmlns="http://www.w3.org/2000/svg">
<g filter="url(#filter0_b_1937_12123)">
<rect y="144" width="126" height="158" rx="5" transform="rotate(-90 0 144)" fill="white" fill-opacity="0.03"/>
<rect x="0.5" y="143.5" width="125" height="157" rx="4.5" transform="rotate(-90 0.5 143.5)" stroke="#E5E5E5" stroke-opacity="0.19"/>
</g>
<path d="M85.268 54C86.0378 52.6667 87.9623 52.6667 88.7321 54L92.1962 60C92.966 61.3333 92.0037 63 90.4641 63H83.5359C81.9963 63 81.034 61.3333 81.8038 60L85.268 54Z" fill="#6F5ADC"/>
<rect x="10" y="41" width="138" height="6" rx="3" fill="#C4C4C4" fill-opacity="0.07"/>
<rect x="10" y="54" width="64" height="9" rx="4.5" fill="#C4C4C4" fill-opacity="0.07"/>
<path d="M15 129L30.9112 109.527C32.6812 107.361 35.884 107.069 38.0173 108.878L45.1783 114.952C47.114 116.594 49.9726 116.525 51.8269 114.792L73.566 94.4715C75.5339 92.632 78.6053 92.6822 80.5121 94.585L84.1428 98.208C86.1895 100.25 89.5368 100.136 91.4395 97.959L115 71" stroke="white" stroke-opacity="0.03" stroke-width="4" stroke-linecap="round" stroke-linejoin="round"/>
<path opacity="0.1" d="M202.964 0.000795058H184.312C183.667 0.0190574 183.048 0.258737 182.563 0.678543C182.078 1.09835 181.756 1.67199 181.653 2.30064L179.032 20.6994C178.979 20.9853 178.992 21.2792 179.069 21.5596C179.146 21.84 179.286 22.0999 179.478 22.3202C179.67 22.5406 179.91 22.7159 180.179 22.8334C180.448 22.9508 180.741 23.0075 181.036 22.9992H199.688C200.333 22.981 200.952 22.7414 201.437 22.3216C201.923 21.9018 202.244 21.3281 202.347 20.6994L204.968 2.30064C205.021 2.01473 205.008 1.72085 204.931 1.44044C204.854 1.16002 204.714 0.900149 204.522 0.679776C204.33 0.459403 204.09 0.284087 203.821 0.166621C203.552 0.0491559 203.259 -0.00749666 202.964 0.000795058Z" fill="#AE9AFF"/>
<path opacity="0.1" d="M62.0249 203.001H34.7641C33.821 203.028 32.9169 203.383 32.2075 204.003C31.4981 204.624 31.0278 205.472 30.8777 206.401L27.0464 233.599C26.9696 234.022 26.9883 234.456 27.1012 234.871C27.2141 235.285 27.4183 235.669 27.699 235.995C27.9796 236.321 28.3296 236.58 28.7233 236.754C29.1171 236.927 29.5448 237.011 29.9751 236.999H57.2359C58.179 236.972 59.0831 236.617 59.7925 235.997C60.5019 235.376 60.9722 234.528 61.1223 233.599L64.9536 206.401C65.0304 205.978 65.0117 205.544 64.8988 205.129C64.7859 204.715 64.5817 204.331 64.301 204.005C64.0204 203.679 63.6704 203.42 63.2767 203.246C62.8829 203.073 62.4552 202.989 62.0249 203.001Z" fill="#CABDFF"/>
<g filter="url(#filter1_b_1937_12123)">
<rect x="95" y="71" width="201" height="56" rx="14" fill="white" fill-opacity="0.03"/>
<rect x="95.5" y="71.5" width="200" height="55" rx="13.5" stroke="#E5E5E5" stroke-opacity="0.19"/>
</g>
<g filter="url(#filter2_b_1937_12123)">
<rect x="114" y="138" width="195" height="56" rx="14" fill="white" fill-opacity="0.03"/>
<rect x="114.5" y="138.5" width="194" height="55" rx="13.5" stroke="#E5E5E5" stroke-opacity="0.19"/>
</g>
<circle cx="123" cy="99" r="22" fill="#474C4F" fill-opacity="0.52"/>
<circle cx="140" cy="166" r="22" fill="#474C4F" fill-opacity="0.52"/>
<path d="M132.291 173H134.663V169.101L136.114 167.388L140.019 173H142.87L137.763 165.783L142.825 159.909H139.93L134.822 165.924H134.663V159.909H132.291V173ZM146.844 159.909H144.473V173H146.844V159.909Z" fill="#6F5ADC"/>
<path d="M119.406 97.5078H121.688C121.643 95.2962 119.757 93.7301 116.97 93.7301C114.222 93.7301 112.157 95.277 112.163 97.5909C112.163 99.4702 113.499 100.55 115.653 101.107L117.143 101.49C118.555 101.848 119.489 102.289 119.495 103.305C119.489 104.424 118.428 105.172 116.881 105.172C115.398 105.172 114.247 104.507 114.151 103.133H111.818C111.914 105.734 113.851 107.198 116.9 107.198C120.038 107.198 121.86 105.632 121.866 103.325C121.86 101.055 119.987 100.02 118.018 99.5533L116.791 99.2464C115.717 98.9908 114.554 98.5369 114.567 97.4439C114.573 96.4595 115.455 95.7372 116.938 95.7372C118.351 95.7372 119.284 96.3956 119.406 97.5078ZM123.981 107H126.352V103.101L127.803 101.388L131.709 107H134.559L129.452 99.7834L134.515 93.9091H131.619L126.512 99.924H126.352V93.9091H123.981V107Z" fill="#6F5ADC"/>
<rect x="169" y="151" width="90" height="11" rx="5.5" fill="#7E7E7E" fill-opacity="0.22"/>
<rect x="169" y="169" width="64" height="11" rx="5.5" fill="#C4C4C4" fill-opacity="0.07"/>
<rect x="150" y="84" width="64" height="11" rx="5.5" fill="#C4C4C4" fill-opacity="0.07"/>
<rect x="149" y="100" width="64" height="11" rx="5.5" fill="#C4C4C4" fill-opacity="0.07"/>
<line x1="249.5" y1="84" x2="249.5" y2="113" stroke="#A8A8A8" stroke-opacity="0.08"/>
<line x1="266.5" y1="154" x2="266.5" y2="183" stroke="#A8A8A8" stroke-opacity="0.08"/>
<path fill-rule="evenodd" clip-rule="evenodd" d="M279.625 105.065C279.625 108.69 277.757 111.223 274.189 112.178V115.286C274.189 115.605 273.943 115.854 273.62 115.854H270.263C269.957 115.854 269.689 115.609 269.689 115.286V112.178C265.517 111.588 263.235 109.103 263.144 108.996C262.967 108.781 262.95 108.48 263.11 108.265L264.948 105.865C265.129 105.616 265.573 105.569 265.785 105.814C265.819 105.831 268.317 108.213 271.475 108.213C273.223 108.213 275.112 107.289 275.112 105.28C275.112 103.573 273.007 102.739 270.6 101.776C267.39 100.516 263.394 98.9165 263.394 94.4532C263.394 91.1809 265.176 88.7256 268.524 87.7797V84.5805C268.524 84.258 268.792 84.0086 269.094 84.0086L272.67 84C272.99 84 273.24 84.2494 273.24 84.5719V87.698C276.86 88.1064 278.788 90.0629 278.857 90.136C279.039 90.3295 279.073 90.5961 278.948 90.8111L277.503 93.404C277.317 93.7437 276.907 93.7867 276.61 93.5674C276.592 93.5502 274.435 91.6453 271.76 91.6453C269.495 91.6453 267.925 92.7676 267.925 94.3844C267.925 96.2677 270.099 97.1062 272.632 98.0823C275.915 99.3422 279.625 100.783 279.625 105.07V105.065Z" fill="url(#paint0_linear_1937_12123)"/>
<path fill-rule="evenodd" clip-rule="evenodd" d="M292.625 169.065C292.625 172.69 290.757 175.223 287.189 176.178V179.286C287.189 179.605 286.943 179.854 286.62 179.854H283.263C282.957 179.854 282.689 179.609 282.689 179.286V176.178C278.517 175.588 276.235 173.103 276.144 172.996C275.967 172.781 275.95 172.48 276.11 172.265L277.948 169.865C278.129 169.616 278.573 169.569 278.785 169.814C278.819 169.831 281.317 172.213 284.475 172.213C286.223 172.213 288.112 171.289 288.112 169.28C288.112 167.573 286.007 166.739 283.6 165.776C280.39 164.516 276.394 162.917 276.394 158.453C276.394 155.181 278.176 152.726 281.524 151.78V148.58C281.524 148.258 281.792 148.009 282.094 148.009L285.67 148C285.99 148 286.24 148.249 286.24 148.572V151.698C289.86 152.106 291.788 154.063 291.857 154.136C292.039 154.33 292.073 154.596 291.948 154.811L290.503 157.404C290.317 157.744 289.907 157.787 289.61 157.567C289.592 157.55 287.435 155.645 284.76 155.645C282.495 155.645 280.925 156.768 280.925 158.384C280.925 160.268 283.099 161.106 285.632 162.082C288.915 163.342 292.625 164.783 292.625 169.07V169.065Z" fill="url(#paint1_linear_1937_12123)"/>
<defs>
<filter id="filter0_b_1937_12123" x="-56" y="-38" width="270" height="238" filterUnits="userSpaceOnUse" color-interpolation-filters="sRGB">
<feFlood flood-opacity="0" result="BackgroundImageFix"/>
<feGaussianBlur in="BackgroundImage" stdDeviation="28"/>
<feComposite in2="SourceAlpha" operator="in" result="effect1_backgroundBlur_1937_12123"/>
<feBlend mode="normal" in="SourceGraphic" in2="effect1_backgroundBlur_1937_12123" result="shape"/>
</filter>
<filter id="filter1_b_1937_12123" x="39" y="15" width="313" height="168" filterUnits="userSpaceOnUse" color-interpolation-filters="sRGB">
<feFlood flood-opacity="0" result="BackgroundImageFix"/>
<feGaussianBlur in="BackgroundImage" stdDeviation="28"/>
<feComposite in2="SourceAlpha" operator="in" result="effect1_backgroundBlur_1937_12123"/>
<feBlend mode="normal" in="SourceGraphic" in2="effect1_backgroundBlur_1937_12123" result="shape"/>
</filter>
<filter id="filter2_b_1937_12123" x="58" y="82" width="307" height="168" filterUnits="userSpaceOnUse" color-interpolation-filters="sRGB">
<feFlood flood-opacity="0" result="BackgroundImageFix"/>
<feGaussianBlur in="BackgroundImage" stdDeviation="28"/>
<feComposite in2="SourceAlpha" operator="in" result="effect1_backgroundBlur_1937_12123"/>
<feBlend mode="normal" in="SourceGraphic" in2="effect1_backgroundBlur_1937_12123" result="shape"/>
</filter>
<linearGradient id="paint0_linear_1937_12123" x1="271.313" y1="84" x2="296.92" y2="112.838" gradientUnits="userSpaceOnUse">
<stop stop-color="white"/>
<stop offset="1" stop-color="#6F5ADC"/>
</linearGradient>
<linearGradient id="paint1_linear_1937_12123" x1="284.313" y1="148" x2="309.92" y2="176.838" gradientUnits="userSpaceOnUse">
<stop stop-color="white"/>
<stop offset="1" stop-color="#6F5ADC"/>
</linearGradient>
</defs>
</svg>
