<svg width="401" height="175" viewBox="0 0 401 175" fill="none" xmlns="http://www.w3.org/2000/svg">
<path opacity="0.1" d="M91.0249 88.0012H63.7641C62.821 88.0299 61.9169 88.405 61.2075 89.0621C60.4981 89.7192 60.0278 90.617 59.8777 91.601L56.0464 120.399C55.9696 120.847 55.9883 121.307 56.1012 121.745C56.2141 122.184 56.4183 122.591 56.699 122.936C56.9796 123.281 57.3296 123.555 57.7233 123.739C58.1171 123.923 58.5448 124.012 58.9751 123.999H86.2359C87.179 123.97 88.0831 123.595 88.7925 122.938C89.5019 122.281 89.9722 121.383 90.1223 120.399L93.9536 91.601C94.0304 91.1535 94.0117 90.6935 93.8988 90.2546C93.7859 89.8157 93.5817 89.409 93.301 89.0641C93.0204 88.7192 92.6704 88.4448 92.2767 88.2609C91.8829 88.077 91.4552 87.9883 91.0249 88.0012Z" fill="#CABDFF"/>
<path opacity="0.1" d="M69.8937 106.002H15.4937C13.6118 106.056 11.8076 106.765 10.392 108.006C8.97647 109.248 8.03814 110.944 7.73871 112.802L0.0927075 167.202C-0.0606577 168.048 -0.0233742 168.917 0.201836 169.746C0.427047 170.575 0.834502 171.343 1.39448 171.995C1.95446 172.646 2.65283 173.165 3.43865 173.512C4.22447 173.859 5.07791 174.027 5.93671 174.002H60.3367C62.2188 173.949 64.0232 173.24 65.439 171.999C66.8548 170.757 67.7932 169.061 68.0927 167.202L75.7377 112.802C75.8911 111.957 75.8538 111.088 75.6286 110.259C75.4034 109.43 74.9959 108.661 74.4359 108.01C73.876 107.358 73.1776 106.84 72.3918 106.493C71.6059 106.145 70.7525 105.978 69.8937 106.002Z" fill="#AE9AFF"/>
<path opacity="0.1" d="M384.555 10.7868H345.985C344.651 10.8252 343.372 11.3276 342.368 12.2076C341.364 13.0877 340.699 14.2902 340.486 15.608L335.066 54.1779C334.957 54.7773 334.984 55.3933 335.143 55.9812C335.303 56.569 335.592 57.1137 335.989 57.5757C336.386 58.0376 336.881 58.4051 337.438 58.6514C337.995 58.8977 338.6 59.0165 339.209 58.9992H377.779C379.114 58.9608 380.393 58.4584 381.396 57.5783C382.4 56.6983 383.066 55.4958 383.278 54.1779L388.699 15.608C388.807 15.0087 388.781 14.3926 388.621 13.8048C388.461 13.217 388.172 12.6722 387.775 12.2103C387.378 11.7483 386.883 11.3808 386.326 11.1346C385.769 10.8883 385.164 10.7695 384.555 10.7868Z" fill="#CABDFF"/>
<path opacity="0.1" d="M399.087 0.000740128H381.794C381.196 0.0178909 380.622 0.24266 380.172 0.636333C379.722 1.03001 379.424 1.56793 379.329 2.15746L376.898 19.4112C376.849 19.6793 376.861 19.9549 376.933 20.2179C377.004 20.4808 377.134 20.7245 377.312 20.9312C377.49 21.1378 377.712 21.3022 377.962 21.4124C378.212 21.5225 378.483 21.5757 378.756 21.5679H396.049C396.648 21.5508 397.221 21.326 397.671 20.9323C398.121 20.5387 398.42 20.0007 398.515 19.4112L400.945 2.15746C400.994 1.88934 400.982 1.61375 400.911 1.3508C400.839 1.08785 400.709 0.844166 400.531 0.637516C400.353 0.430866 400.131 0.266465 399.882 0.156302C399.632 0.0461393 399.361 -0.00700646 399.087 0.000740128Z" fill="#CABDFF"/>
<rect x="141.781" y="61.0703" width="98.3077" height="65.0343" rx="5.16975" transform="rotate(-12.9733 141.781 61.0703)" fill="white" fill-opacity="0.07"/>
<rect x="142.943" y="61.7973" width="96.369" height="63.0957" rx="4.20043" transform="rotate(-12.9733 142.943 61.7973)" stroke="white" stroke-opacity="0.04" stroke-width="1.93866"/>
<rect x="193.204" y="75.2988" width="98.3077" height="65.0343" rx="5.16975" fill="white" fill-opacity="0.07"/>
<rect x="194.173" y="76.2682" width="96.369" height="63.0957" rx="4.20043" stroke="white" stroke-opacity="0.04" stroke-width="1.93866"/>
<rect x="195.472" y="92.6914" width="93.7704" height="13.6118" fill="white" fill-opacity="0.04"/>
<rect x="198" y="114" width="88" height="6" fill="white" fill-opacity="0.04"/>
<path fill-rule="evenodd" clip-rule="evenodd" d="M305.243 67.7034H297.303C293.608 67.7099 290.615 70.6284 290.608 74.2311C290.603 77.8419 293.6 80.7734 297.303 80.7783H305.25V81.3519C305.25 87.6505 301.432 91.375 294.97 91.375H278.032C271.568 91.375 267.75 87.6505 267.75 81.3519V67.6335C267.75 61.3349 271.568 57.625 278.032 57.625H294.963C301.425 57.625 305.243 61.3349 305.243 67.6335V67.7034ZM276.637 67.6887H287.212H287.218H287.232C288.023 67.6855 288.663 67.0566 288.66 66.2831C288.657 65.5112 288.01 64.8872 287.218 64.8905H276.637C275.85 64.8937 275.212 65.5161 275.208 66.2847C275.205 67.0566 275.845 67.6855 276.637 67.6887Z" fill="url(#paint0_linear_2022_12076)"/>
<path opacity="0.4" d="M294.07 75.0563C294.462 76.8397 296.026 78.0945 297.811 78.0619H303.905C304.647 78.0619 305.25 77.4467 305.25 76.6863V71.9397C305.248 71.1809 304.647 70.5641 303.905 70.5625H297.668C295.637 70.569 293.997 72.2546 294 74.3318C294 74.5749 294.024 74.818 294.07 75.0563Z" fill="url(#paint1_linear_2022_12076)"/>
<ellipse cx="297.75" cy="74.3125" rx="1.875" ry="1.875" fill="url(#paint2_linear_2022_12076)"/>
<defs>
<linearGradient id="paint0_linear_2022_12076" x1="286.5" y1="57.625" x2="305.916" y2="104.173" gradientUnits="userSpaceOnUse">
<stop stop-color="white"/>
<stop offset="1" stop-color="#6F5ADC"/>
</linearGradient>
<linearGradient id="paint1_linear_2022_12076" x1="299.625" y1="70.5625" x2="303.05" y2="81.6479" gradientUnits="userSpaceOnUse">
<stop stop-color="white"/>
<stop offset="1" stop-color="#6F5ADC"/>
</linearGradient>
<linearGradient id="paint2_linear_2022_12076" x1="297.75" y1="72.4375" x2="300.066" y2="77.4357" gradientUnits="userSpaceOnUse">
<stop stop-color="white"/>
<stop offset="1" stop-color="#6F5ADC"/>
</linearGradient>
</defs>
</svg>
