<svg width="640" height="278" viewBox="0 0 640 278" fill="none" xmlns="http://www.w3.org/2000/svg">
<g filter="url(#filter0_b_1948_12100)">
<rect x="56" y="273" width="116" height="250" rx="5" transform="rotate(-90 56 273)" fill="white" fill-opacity="0.03"/>
<rect x="56.5" y="272.5" width="115" height="249" rx="4.5" transform="rotate(-90 56.5 272.5)" stroke="#E5E5E5" stroke-opacity="0.19"/>
</g>
<g filter="url(#filter1_b_1948_12100)">
<rect x="390" y="144" width="116" height="250" rx="5" transform="rotate(-90 390 144)" fill="white" fill-opacity="0.03"/>
<rect x="390.5" y="143.5" width="115" height="249" rx="4.5" transform="rotate(-90 390.5 143.5)" stroke="#E5E5E5" stroke-opacity="0.19"/>
</g>
<circle cx="107.5" cy="214.5" r="34.5" fill="#474C4F" fill-opacity="0.52"/>
<circle cx="38.5" cy="159.5" r="17.5" fill="#474C4F" fill-opacity="0.52"/>
<circle opacity="0.5" cx="443.5" cy="85.5" r="34.5" fill="url(#paint0_linear_1948_12100)"/>
<path d="M233.291 180.909V194H235.567V184.987H235.688L239.306 193.962H241.006L244.624 185.006H244.746V194H247.021V180.909H244.119L240.233 190.395H240.08L236.193 180.909H233.291ZM251.975 180.909H249.604V194H251.975V180.909ZM256.755 180.909H254.441V194H256.755V180.909ZM261.608 180.909H259.237V194H261.608V180.909Z" fill="#6F5ADC"/>
<path d="M426.291 93H428.663V88.5767H431.168C434.192 88.5767 435.815 86.7614 435.815 84.2429C435.815 81.7436 434.211 79.9091 431.2 79.9091H426.291V93ZM428.663 86.6271V81.8906H430.836C432.613 81.8906 433.399 82.8494 433.399 84.2429C433.399 85.6364 432.613 86.6271 430.849 86.6271H428.663ZM441.07 93.1918C442.227 93.1918 443.511 92.8338 444.425 92.0412L445.263 93H447.768L445.851 90.7564C446.49 89.8999 446.989 88.6278 446.989 86.8317H445.001C445.001 87.6946 444.796 88.468 444.451 89.1136L442.06 86.3139L442.885 85.7067C443.978 84.9141 444.624 83.9616 444.624 82.7216C444.624 81.1236 443.364 79.7493 441.3 79.7493C439.229 79.7493 437.867 81.1236 437.867 82.9837C437.867 84.1534 438.455 85.1058 439.21 86.0391C437.752 87.0426 436.755 87.9822 436.755 89.5227C436.755 91.6065 438.391 93.1918 441.07 93.1918ZM443.166 90.5966C442.546 91.044 441.837 91.2869 441.14 91.2869C439.855 91.2869 439.024 90.456 439.024 89.4205C439.024 88.9666 439.369 88.2827 440.239 87.6435L440.45 87.4901L443.166 90.5966ZM440.878 84.9013C440.328 84.2237 439.932 83.6165 439.932 83.0156C439.932 82.3061 440.494 81.6477 441.332 81.6477C442.156 81.6477 442.661 82.2614 442.661 82.8239C442.661 83.4886 442.303 83.9553 441.619 84.3963L440.878 84.9013ZM457.965 84.0895H460.382C459.979 81.5199 457.754 79.7301 454.859 79.7301C451.433 79.7301 448.863 82.2486 448.863 86.4673C448.863 90.6094 451.318 93.179 454.929 93.179C458.17 93.179 460.49 91.0952 460.49 87.7202V86.1477H455.178V88.0014H458.195C458.157 89.8679 456.911 91.0504 454.942 91.0504C452.749 91.0504 451.247 89.4077 451.247 86.4418C451.247 83.495 452.775 81.8587 454.891 81.8587C456.47 81.8587 457.544 82.7024 457.965 84.0895Z" fill="#20262A"/>
<g filter="url(#filter2_b_1948_12100)">
<rect x="373" y="278" width="116" height="250" rx="5" transform="rotate(-90 373 278)" fill="white" fill-opacity="0.03"/>
</g>
<circle cx="429.5" cy="219.5" r="34.5" fill="#474C4F" fill-opacity="0.13"/>
<path d="M544.268 107C545.038 105.667 546.962 105.667 547.732 107L551.196 113C551.966 114.333 551.004 116 549.464 116H542.536C540.996 116 540.034 114.333 540.804 113L544.268 107Z" fill="#6F5ADC"/>
<path d="M496.325 107.273H494.821L492.652 108.666V110.115L494.693 108.811H494.744V116H496.325V107.273ZM498.541 116H504.524V114.679H500.723V114.619L502.227 113.089C503.923 111.462 504.392 110.669 504.392 109.685C504.392 108.223 503.203 107.153 501.447 107.153C499.717 107.153 498.49 108.227 498.49 109.885H499.994C499.994 108.994 500.557 108.436 501.426 108.436C502.257 108.436 502.875 108.943 502.875 109.766C502.875 110.494 502.432 111.014 501.571 111.888L498.541 114.858V116ZM506.962 116.094C507.464 116.094 507.895 115.676 507.899 115.156C507.895 114.645 507.464 114.227 506.962 114.227C506.442 114.227 506.02 114.645 506.024 115.156C506.02 115.676 506.442 116.094 506.962 116.094ZM511.946 107.273H510.442L508.273 108.666V110.115L510.314 108.811H510.365V116H511.946V107.273ZM514.248 107.273V116H515.765V109.991H515.846L518.257 115.974H519.391L521.803 110.004H521.884V116H523.401V107.273H521.466L518.875 113.597H518.773L516.182 107.273H514.248Z" fill="white" fill-opacity="0.79"/>
<path d="M548.325 216.273H546.821L544.652 217.666V219.115L546.693 217.811H546.744V225H548.325V216.273ZM550.541 225H556.524V223.679H552.723V223.619L554.227 222.089C555.923 220.462 556.392 219.669 556.392 218.685C556.392 217.223 555.203 216.153 553.447 216.153C551.717 216.153 550.49 217.227 550.49 218.885H551.994C551.994 217.994 552.557 217.436 553.426 217.436C554.257 217.436 554.875 217.943 554.875 218.766C554.875 219.494 554.432 220.014 553.571 220.888L550.541 223.858V225ZM558.962 225.094C559.464 225.094 559.895 224.676 559.899 224.156C559.895 223.645 559.464 223.227 558.962 223.227C558.442 223.227 558.02 223.645 558.024 224.156C558.02 224.676 558.442 225.094 558.962 225.094ZM563.946 216.273H562.442L560.273 217.666V219.115L562.314 217.811H562.365V225H563.946V216.273ZM566.248 216.273V225H567.765V218.991H567.846L570.257 224.974H571.391L573.803 219.004H573.884V225H575.401V216.273H573.466L570.875 222.597H570.773L568.182 216.273H566.248Z" fill="white" fill-opacity="0.79"/>
<rect x="492" y="61" width="137" height="9" rx="4.5" fill="#C4C4C4" fill-opacity="0.07"/>
<g filter="url(#filter3_b_1948_12100)">
<rect y="116" width="116" height="250" rx="5" transform="rotate(-90 0 116)" fill="white" fill-opacity="0.03"/>
<rect x="0.5" y="115.5" width="115" height="249" rx="4.5" transform="rotate(-90 0.5 115.5)" stroke="#E5E5E5" stroke-opacity="0.19"/>
</g>
<circle cx="55.5" cy="57.5" r="34.5" fill="#474C4F" fill-opacity="0.52"/>
<path d="M39.5852 65H47.5881V63.5938H41.1705V59.1449H47.0767V57.7386H41.1705V53.3153H47.4858V51.9091H39.5852V65ZM50.343 65H51.9283V59.8864H54.7919C54.907 59.8864 55.0156 59.8864 55.1243 59.88L57.8857 65H59.7266L56.767 59.5923C58.4354 59.0234 59.2152 57.6619 59.2152 55.9233C59.2152 53.6094 57.8345 51.9091 54.7663 51.9091H50.343V65ZM51.9283 58.4545V53.3153H54.7152C56.8374 53.3153 57.6555 54.3509 57.6555 55.9233C57.6555 57.4957 56.8374 58.4545 54.7408 58.4545H51.9283ZM61.1408 53.3153H65.2573V65H66.8425V53.3153H70.959V51.9091H61.1408V53.3153Z" fill="#6F5ADC"/>
<path d="M144.268 81C145.038 79.6667 146.962 79.6667 147.732 81L151.196 87C151.966 88.3333 151.004 90 149.464 90H142.536C140.996 90 140.034 88.3333 140.804 87L144.268 81Z" fill="#6F5ADC"/>
<path d="M98.4773 90.0909H99.1761V89.1406C100.966 89.017 101.972 87.9602 101.972 86.6307C101.972 84.9943 100.42 84.4659 99.517 84.2273L99.1761 84.1335V81.1037C100.08 81.1932 100.736 81.679 100.83 82.4545H101.852C101.81 81.2102 100.719 80.2642 99.1761 80.1619V79.1818H98.4773V80.1747C97.0156 80.3239 95.9205 81.2528 95.9205 82.5909C95.9205 83.767 96.7727 84.4659 98.1364 84.858L98.4773 84.956V88.1818C97.5824 88.0881 96.8494 87.6278 96.7727 86.75H95.6818C95.7798 88.0923 96.8026 89.0298 98.4773 89.1406V90.0909ZM99.1761 88.1818V85.1562L99.2102 85.1648C100.131 85.4205 100.949 85.7443 100.949 86.6136C100.949 87.4702 100.207 88.0668 99.1761 88.1818ZM98.4773 83.946C97.8295 83.7628 96.9432 83.4048 96.9432 82.5398C96.9432 81.8026 97.5398 81.2401 98.4773 81.1165V83.946ZM103.351 87.2102H107.459V89H108.465V87.2102H109.658V86.2727H108.465V80.2727H107.186L103.351 86.3409V87.2102ZM107.459 86.2727H104.493V86.2045L107.391 81.6193H107.459V86.2727ZM114.204 89.1193C115.896 89.1193 117.153 88.0582 117.153 86.6307C117.153 85.5227 116.496 84.7173 115.397 84.5341V84.4659C116.279 84.1974 116.829 83.473 116.829 82.4886C116.829 81.2528 115.853 80.1534 114.238 80.1534C112.729 80.1534 111.477 81.0824 111.425 82.4545H112.448C112.487 81.5852 113.313 81.0739 114.221 81.0739C115.184 81.0739 115.806 81.6577 115.806 82.5398C115.806 83.4602 115.086 84.0568 114.05 84.0568H113.352V84.9943H114.05C115.376 84.9943 116.113 85.6676 116.113 86.6307C116.113 87.5554 115.308 88.1818 114.187 88.1818C113.177 88.1818 112.376 87.6619 112.312 86.8182H111.238C111.302 88.1903 112.512 89.1193 114.204 89.1193ZM119.376 89.0682C119.798 89.0682 120.143 88.723 120.143 88.3011C120.143 87.8793 119.798 87.5341 119.376 87.5341C118.954 87.5341 118.609 87.8793 118.609 88.3011C118.609 88.723 118.954 89.0682 119.376 89.0682ZM123.956 80.2727H122.899L120.717 81.7216V82.7955L122.848 81.3807H122.899V89H123.956V80.2727ZM126.619 80.2727V89H127.608V82.3693H127.693L130.42 89H131.375L134.102 82.3693H134.188V89H135.176V80.2727H133.915L130.949 87.517H130.847L127.881 80.2727H126.619Z" fill="white" fill-opacity="0.79"/>
<rect x="95" y="34" width="137" height="9" rx="4.5" fill="#C4C4C4" fill-opacity="0.07"/>
<rect x="95" y="56" width="64" height="9" rx="4.5" fill="#C4C4C4" fill-opacity="0.07"/>
<rect x="492" y="83" width="64" height="9" rx="4.5" fill="#C4C4C4" fill-opacity="0.07"/>
<g filter="url(#filter4_b_1948_12100)">
<rect x="194" y="245" width="116" height="250" rx="5" transform="rotate(-90 194 245)" fill="white" fill-opacity="0.03"/>
</g>
<circle cx="249.5" cy="186.5" r="34.5" fill="#474C4F" fill-opacity="0.52"/>
<path d="M354.268 202C355.038 200.667 356.962 200.667 357.732 202L361.196 208C361.966 209.333 361.004 211 359.464 211H352.536C350.996 211 350.034 209.333 350.804 208L354.268 202Z" fill="#6F5ADC"/>
<path d="M296.631 212.119C298.293 212.119 299.511 210.892 299.511 209.222C299.511 207.53 298.335 206.29 296.733 206.29C296.145 206.29 295.574 206.499 295.216 206.784H295.165L295.472 204.21H299.119V203.273H294.585L294.057 207.568L295.045 207.688C295.408 207.428 296.026 207.24 296.562 207.244C297.675 207.253 298.489 208.097 298.489 209.239C298.489 210.359 297.705 211.182 296.631 211.182C295.736 211.182 295.024 210.607 294.943 209.818H293.92C293.984 211.148 295.131 212.119 296.631 212.119ZM304.153 212.119C305.845 212.119 307.102 211.058 307.102 209.631C307.102 208.523 306.446 207.717 305.346 207.534V207.466C306.228 207.197 306.778 206.473 306.778 205.489C306.778 204.253 305.802 203.153 304.187 203.153C302.679 203.153 301.426 204.082 301.375 205.455H302.397C302.436 204.585 303.262 204.074 304.17 204.074C305.133 204.074 305.755 204.658 305.755 205.54C305.755 206.46 305.035 207.057 304 207.057H303.301V207.994H304C305.325 207.994 306.062 208.668 306.062 209.631C306.062 210.555 305.257 211.182 304.136 211.182C303.126 211.182 302.325 210.662 302.261 209.818H301.187C301.251 211.19 302.461 212.119 304.153 212.119ZM309.325 212.068C309.747 212.068 310.092 211.723 310.092 211.301C310.092 210.879 309.747 210.534 309.325 210.534C308.903 210.534 308.558 210.879 308.558 211.301C308.558 211.723 308.903 212.068 309.325 212.068ZM313.905 203.273H312.848L310.667 204.722V205.795L312.797 204.381H312.848V212H313.905V203.273ZM316.569 203.273V212H317.557V205.369H317.642L320.37 212H321.324L324.051 205.369H324.137V212H325.125V203.273H323.864L320.898 210.517H320.796L317.83 203.273H316.569Z" fill="white" fill-opacity="0.79"/>
<rect x="293" y="157" width="137" height="9" rx="4.5" fill="#C4C4C4" fill-opacity="0.07"/>
<rect x="293" y="179" width="64" height="9" rx="4.5" fill="#C4C4C4" fill-opacity="0.07"/>
<path fill-rule="evenodd" clip-rule="evenodd" d="M47.6253 177.065C47.6253 180.69 45.7571 183.223 42.1891 184.178V187.286C42.1891 187.605 41.9432 187.854 41.6196 187.854H38.263C37.9567 187.854 37.6892 187.609 37.6892 187.286V184.178C33.5171 183.588 31.2348 181.103 31.1442 180.996C30.9673 180.781 30.9501 180.48 31.1097 180.265L32.9476 177.865C33.1288 177.616 33.5732 177.569 33.7846 177.814C33.8191 177.831 36.3172 180.213 39.4753 180.213C41.2227 180.213 43.1124 179.289 43.1124 177.28C43.1124 175.573 41.007 174.739 38.5995 173.776C35.3896 172.516 31.3944 170.917 31.3944 166.453C31.3944 163.181 33.1763 160.726 36.5243 159.78V156.58C36.5243 156.258 36.7918 156.009 37.0938 156.009L40.6704 156C40.9897 156 41.2399 156.249 41.2399 156.572V159.698C44.8597 160.106 46.7883 162.063 46.8573 162.136C47.0385 162.33 47.073 162.596 46.9479 162.811L45.5026 165.404C45.3171 165.744 44.9072 165.787 44.6095 165.567C44.5923 165.55 42.435 163.645 39.7601 163.645C37.495 163.645 35.9246 164.768 35.9246 166.384C35.9246 168.268 38.099 169.106 40.6316 170.082C43.9149 171.342 47.6253 172.783 47.6253 177.07V177.065Z" fill="url(#paint1_linear_1948_12100)"/>
<defs>
<filter id="filter0_b_1948_12100" x="0" y="101" width="362" height="228" filterUnits="userSpaceOnUse" color-interpolation-filters="sRGB">
<feFlood flood-opacity="0" result="BackgroundImageFix"/>
<feGaussianBlur in="BackgroundImage" stdDeviation="28"/>
<feComposite in2="SourceAlpha" operator="in" result="effect1_backgroundBlur_1948_12100"/>
<feBlend mode="normal" in="SourceGraphic" in2="effect1_backgroundBlur_1948_12100" result="shape"/>
</filter>
<filter id="filter1_b_1948_12100" x="334" y="-28" width="362" height="228" filterUnits="userSpaceOnUse" color-interpolation-filters="sRGB">
<feFlood flood-opacity="0" result="BackgroundImageFix"/>
<feGaussianBlur in="BackgroundImage" stdDeviation="28"/>
<feComposite in2="SourceAlpha" operator="in" result="effect1_backgroundBlur_1948_12100"/>
<feBlend mode="normal" in="SourceGraphic" in2="effect1_backgroundBlur_1948_12100" result="shape"/>
</filter>
<filter id="filter2_b_1948_12100" x="317" y="106" width="362" height="228" filterUnits="userSpaceOnUse" color-interpolation-filters="sRGB">
<feFlood flood-opacity="0" result="BackgroundImageFix"/>
<feGaussianBlur in="BackgroundImage" stdDeviation="28"/>
<feComposite in2="SourceAlpha" operator="in" result="effect1_backgroundBlur_1948_12100"/>
<feBlend mode="normal" in="SourceGraphic" in2="effect1_backgroundBlur_1948_12100" result="shape"/>
</filter>
<filter id="filter3_b_1948_12100" x="-56" y="-56" width="362" height="228" filterUnits="userSpaceOnUse" color-interpolation-filters="sRGB">
<feFlood flood-opacity="0" result="BackgroundImageFix"/>
<feGaussianBlur in="BackgroundImage" stdDeviation="28"/>
<feComposite in2="SourceAlpha" operator="in" result="effect1_backgroundBlur_1948_12100"/>
<feBlend mode="normal" in="SourceGraphic" in2="effect1_backgroundBlur_1948_12100" result="shape"/>
</filter>
<filter id="filter4_b_1948_12100" x="138" y="73" width="362" height="228" filterUnits="userSpaceOnUse" color-interpolation-filters="sRGB">
<feFlood flood-opacity="0" result="BackgroundImageFix"/>
<feGaussianBlur in="BackgroundImage" stdDeviation="28"/>
<feComposite in2="SourceAlpha" operator="in" result="effect1_backgroundBlur_1948_12100"/>
<feBlend mode="normal" in="SourceGraphic" in2="effect1_backgroundBlur_1948_12100" result="shape"/>
</filter>
<linearGradient id="paint0_linear_1948_12100" x1="443.5" y1="51" x2="486.123" y2="142.967" gradientUnits="userSpaceOnUse">
<stop stop-color="white"/>
<stop offset="1" stop-color="#6F5ADC"/>
</linearGradient>
<linearGradient id="paint1_linear_1948_12100" x1="39.3126" y1="156" x2="39.3126" y2="187.854" gradientUnits="userSpaceOnUse">
<stop stop-color="#502EFF"/>
<stop offset="1" stop-color="#6F5ADC"/>
</linearGradient>
</defs>
</svg>
