<svg width="306" height="194" viewBox="0 0 306 194" fill="none" xmlns="http://www.w3.org/2000/svg">
<g filter="url(#filter0_b_1948_12092)">
<rect y="160" width="80" height="80" rx="6" transform="rotate(-90 0 160)" fill="white" fill-opacity="0.03"/>
</g>
<g filter="url(#filter1_b_1948_12092)">
<rect x="217" y="52" width="52" height="52" rx="6" transform="rotate(-90 217 52)" fill="white" fill-opacity="0.03"/>
</g>
<g filter="url(#filter2_b_1948_12092)">
<rect x="54" y="186" width="52" height="52" rx="6" transform="rotate(-90 54 186)" fill="white" fill-opacity="0.03"/>
<rect x="54.5" y="185.5" width="51" height="51" rx="5.5" transform="rotate(-90 54.5 185.5)" stroke="#E5E5E5" stroke-opacity="0.19"/>
</g>
<path d="M264.268 57C265.038 58.3333 266.962 58.3333 267.732 57L271.196 51C271.966 49.6667 271.004 48 269.464 48H262.536C260.996 48 260.034 49.6667 260.804 51L264.268 57Z" fill="url(#paint0_linear_1948_12092)"/>
<path d="M100.268 191C101.038 192.333 102.962 192.333 103.732 191L107.196 185C107.966 183.667 107.004 182 105.464 182H98.5359C96.9963 182 96.034 183.667 96.8038 185L100.268 191Z" fill="url(#paint1_linear_1948_12092)"/>
<circle cx="243.5" cy="26.5" r="17.5" fill="#474C4F" fill-opacity="0.52"/>
<circle cx="80.5" cy="160.5" r="17.5" fill="#474C4F" fill-opacity="0.52"/>
<path d="M236.473 31H237.902L239.508 25.3867H239.57L241.172 31H242.602L244.859 23H243.301L241.859 28.8828H241.789L240.246 23H238.828L237.289 28.8789H237.215L235.773 23H234.215L236.473 31ZM245.864 31H251.099V29.7852H247.313V27.6016H250.798V26.3867H247.313V24.2148H251.067V23H245.864V31Z" fill="#6F5ADC"/>
<path d="M74.8164 164L75.4766 162.027H78.4844L79.1484 164H80.6953L77.875 156H76.0859L73.2695 164H74.8164ZM75.8672 160.863L76.9492 157.641H77.0117L78.0938 160.863H75.8672ZM81.749 164H86.7217V162.785H83.1982V156H81.749V164Z" fill="#6F5ADC"/>
<g filter="url(#filter3_b_1948_12092)">
<rect x="145" y="97" width="161" height="56" rx="14" fill="white" fill-opacity="0.03"/>
<rect x="145.5" y="97.5" width="160" height="55" rx="13.5" stroke="#E5E5E5" stroke-opacity="0.19"/>
</g>
<rect x="163" y="110" width="125" height="11" rx="5.5" fill="#7E7E7E" fill-opacity="0.22"/>
<rect x="163" y="128" width="89" height="11" rx="5.5" fill="#C4C4C4" fill-opacity="0.07"/>
<g filter="url(#filter4_b_1948_12092)">
<path fill-rule="evenodd" clip-rule="evenodd" d="M122.569 44.0771C122.569 57.443 133.507 68.1542 147.155 68.1542C160.798 68.1542 171.741 57.443 171.741 44.0771C171.741 30.7112 160.798 20 147.155 20C133.507 20 122.569 30.7112 122.569 44.0771ZM184.312 95.4153C184.312 83.0425 167.195 79.9469 147.156 79.9469C127.007 79.9469 110 83.1491 110 95.5316C110 107.904 127.116 111 147.156 111C167.304 111 184.312 107.798 184.312 95.4153Z" fill="url(#paint2_linear_1948_12092)"/>
</g>
<defs>
<filter id="filter0_b_1948_12092" x="-56" y="24" width="192" height="192" filterUnits="userSpaceOnUse" color-interpolation-filters="sRGB">
<feFlood flood-opacity="0" result="BackgroundImageFix"/>
<feGaussianBlur in="BackgroundImage" stdDeviation="28"/>
<feComposite in2="SourceAlpha" operator="in" result="effect1_backgroundBlur_1948_12092"/>
<feBlend mode="normal" in="SourceGraphic" in2="effect1_backgroundBlur_1948_12092" result="shape"/>
</filter>
<filter id="filter1_b_1948_12092" x="161" y="-56" width="164" height="164" filterUnits="userSpaceOnUse" color-interpolation-filters="sRGB">
<feFlood flood-opacity="0" result="BackgroundImageFix"/>
<feGaussianBlur in="BackgroundImage" stdDeviation="28"/>
<feComposite in2="SourceAlpha" operator="in" result="effect1_backgroundBlur_1948_12092"/>
<feBlend mode="normal" in="SourceGraphic" in2="effect1_backgroundBlur_1948_12092" result="shape"/>
</filter>
<filter id="filter2_b_1948_12092" x="-2" y="78" width="164" height="164" filterUnits="userSpaceOnUse" color-interpolation-filters="sRGB">
<feFlood flood-opacity="0" result="BackgroundImageFix"/>
<feGaussianBlur in="BackgroundImage" stdDeviation="28"/>
<feComposite in2="SourceAlpha" operator="in" result="effect1_backgroundBlur_1948_12092"/>
<feBlend mode="normal" in="SourceGraphic" in2="effect1_backgroundBlur_1948_12092" result="shape"/>
</filter>
<filter id="filter3_b_1948_12092" x="89" y="41" width="273" height="168" filterUnits="userSpaceOnUse" color-interpolation-filters="sRGB">
<feFlood flood-opacity="0" result="BackgroundImageFix"/>
<feGaussianBlur in="BackgroundImage" stdDeviation="28"/>
<feComposite in2="SourceAlpha" operator="in" result="effect1_backgroundBlur_1948_12092"/>
<feBlend mode="normal" in="SourceGraphic" in2="effect1_backgroundBlur_1948_12092" result="shape"/>
</filter>
<filter id="filter4_b_1948_12092" x="97" y="7" width="100.312" height="117" filterUnits="userSpaceOnUse" color-interpolation-filters="sRGB">
<feFlood flood-opacity="0" result="BackgroundImageFix"/>
<feGaussianBlur in="BackgroundImage" stdDeviation="6.5"/>
<feComposite in2="SourceAlpha" operator="in" result="effect1_backgroundBlur_1948_12092"/>
<feBlend mode="normal" in="SourceGraphic" in2="effect1_backgroundBlur_1948_12092" result="shape"/>
</filter>
<linearGradient id="paint0_linear_1948_12092" x1="266" y1="60" x2="275.884" y2="38.6742" gradientUnits="userSpaceOnUse">
<stop stop-color="white"/>
<stop offset="1" stop-color="#6F5ADC"/>
</linearGradient>
<linearGradient id="paint1_linear_1948_12092" x1="102" y1="194" x2="111.884" y2="172.674" gradientUnits="userSpaceOnUse">
<stop stop-color="white"/>
<stop offset="1" stop-color="#6F5ADC"/>
</linearGradient>
<linearGradient id="paint2_linear_1948_12092" x1="147.156" y1="20" x2="83.9061" y2="131.446" gradientUnits="userSpaceOnUse">
<stop stop-color="white"/>
<stop offset="1" stop-color="#6F5ADC"/>
</linearGradient>
</defs>
</svg>
