<svg width="46" height="37" viewBox="0 0 46 37" fill="none" xmlns="http://www.w3.org/2000/svg">
<path d="M40.9246 28.8103C40.9246 29.1958 40.6093 29.5106 40.2233 29.5106H2.2803C1.89426 29.5106 1.57897 29.1958 1.57897 28.8103L1.26367 7.03847C1.26367 6.653 1.71739 5.90204 2.551 5.95886L39.6312 5.00057C40.1156 4.98829 40.5832 5.17411 40.9262 5.51504C41.2691 5.85597 41.4568 6.32282 41.4445 6.80657L40.9246 28.8103Z" fill="url(#paint0_linear)"/>
<path d="M40.2312 28.1375C40.2312 28.5014 39.9328 28.8009 39.5668 28.8009H3.19564C2.83113 28.8009 2.53121 28.503 2.53121 28.1375L2.23438 8.3744C2.26975 7.18576 3.31407 6.7573 3.94619 6.78341L39.4853 5.83127C39.8252 5.82205 40.1543 5.95259 40.3958 6.19369C40.6372 6.43327 40.7695 6.76191 40.7603 7.1013L40.2312 28.1375Z" fill="#ECE7F2"/>
<path d="M2.924 18.7035C2.89631 18.7035 2.87324 18.6804 2.8717 18.6528L2.84863 17.0495C2.84863 17.0204 2.8717 16.9973 2.89939 16.9973C2.93015 16.9973 2.95168 17.0204 2.95168 17.048L2.97475 18.6512C2.97629 18.6789 2.95322 18.7035 2.924 18.7035C2.92554 18.7035 2.924 18.7035 2.924 18.7035Z" fill="url(#paint1_linear)"/>
<path d="M2.86765 14.7753C2.83996 14.7753 2.81689 14.7523 2.81535 14.7246L2.72461 8.58637C2.72615 8.17633 2.85227 7.84922 3.09989 7.61272C3.55053 7.18272 4.25494 7.20422 4.28416 7.20576L15.6332 6.90168C15.6625 6.90015 15.6855 6.92318 15.6855 6.95236C15.6855 6.98154 15.664 7.00458 15.6348 7.00458L4.28263 7.30865C4.25033 7.30711 3.58898 7.28715 3.17064 7.68797C2.94455 7.90451 2.8292 8.20704 2.82766 8.58637L2.9184 14.7246C2.91994 14.7523 2.89687 14.7753 2.86765 14.7753Z" fill="url(#paint2_linear)"/>
<path d="M42.7555 30.9558H0.115352C0.0522927 30.9558 0 30.9036 0 30.8406V28.8227C0 28.7597 0.0522927 28.7075 0.115352 28.7075H42.7555C42.8185 28.7075 42.8708 28.7597 42.8708 28.8227V30.8406C42.8708 30.9051 42.8185 30.9558 42.7555 30.9558Z" fill="url(#paint3_linear)"/>
<path d="M14.1497 33.2125C14.142 33.2094 9.91704 25.8226 9.34643 25.1285C9.25108 25.0118 9.10189 24.9519 8.95116 24.9703L7.7715 25.1101L6.38574 28.1016L8.69277 26.7594C8.46515 28.3366 11.4289 30.6801 12.4455 31.534C12.5486 31.6215 12.5578 31.7766 12.464 31.8734L12.058 32.2972C12.7239 32.9714 13.4929 33.4045 14.3604 33.6056L14.1497 33.2125Z" fill="url(#paint4_linear)"/>
<path d="M12.2952 32.0698C12.2952 32.0698 12.0368 32.1528 11.9491 32.3831C11.9076 32.4937 11.9522 32.6181 12.0491 32.6872C12.4751 32.9928 13.8824 33.9772 14.5315 34.1707C14.5853 34.1861 14.6361 34.1385 14.6238 34.0847C14.5899 33.9342 14.4823 33.6332 14.1347 33.1924L14.1654 33.2554C14.2054 33.3353 14.1177 33.4182 14.0408 33.3737C13.6056 33.1295 12.7212 32.5935 12.2952 32.0698Z" fill="url(#paint5_linear)"/>
<path d="M12.5047 35.0246C12.497 35.02 11.8633 33.495 11.8572 33.4904C11.2758 29.9583 9.85777 26.9329 9.44097 26.1359C9.37022 26.0023 9.23641 25.9132 9.08568 25.9009L7.90294 25.7996L5.94043 28.4502L8.47201 27.6025C7.92909 29.0998 10.3576 31.9946 11.1789 33.0374C11.262 33.1433 11.2389 33.2969 11.1282 33.3737L10.6452 33.707C11.1605 34.5025 11.8264 35.0814 12.6354 35.4531L12.5047 35.0246Z" fill="url(#paint6_linear)"/>
<path d="M10.9203 33.5317C10.9203 33.5317 10.6496 33.5609 10.5173 33.7698C10.4543 33.8696 10.4727 34.0001 10.5527 34.0877C10.908 34.4731 12.0861 35.7217 12.6828 36.0426C12.7321 36.0687 12.7905 36.0319 12.7905 35.9766C12.789 35.823 12.7444 35.5067 12.4937 35.0045L12.5121 35.0721C12.5352 35.1581 12.4321 35.221 12.366 35.1627C11.9892 34.834 11.231 34.1307 10.9203 33.5317Z" fill="url(#paint7_linear)"/>
<path d="M2.3645 25.2422C2.3645 25.2422 1.29404 26.8317 1.20638 27.5565C1.11871 28.2814 1.50168 28.5317 2.62289 28.6254C5.95578 28.9003 7.59993 27.9036 7.59993 27.9036C7.82755 26.4524 7.99058 26.0822 9.89465 25.2929C9.89465 25.2929 7.48611 25.4833 7.00164 25.296C6.51562 25.1086 2.3645 25.2422 2.3645 25.2422Z" fill="url(#paint8_linear)"/>
<path d="M6.63228 16.338C6.63228 16.338 5.88634 15.4581 5.09426 16.5377C4.95122 16.7327 4.39907 16.5715 4.19759 16.9815C4.09301 17.1934 3.86846 17.3132 3.63622 17.2702C3.05792 17.1642 2.11204 17.155 1.64602 18.0596C1.2892 18.7506 1.5645 19.1545 1.92132 19.3849C2.18279 19.5538 2.27661 19.8978 2.11819 20.1666C1.96592 20.423 1.93824 20.7716 2.3289 21.1909C3.20711 22.1307 4.94353 20.595 4.94353 20.595L6.32314 17.3393L6.63228 16.338Z" fill="url(#paint9_linear)"/>
<path d="M5.25857 25.0318C5.25857 25.0318 6.50436 23.8463 7.11803 23.0615C7.45025 22.6377 7.55329 22.0787 7.40103 21.5627C7.12111 20.6197 6.62279 19.6446 6.57819 19.4925C6.50898 19.2591 5.11092 19.2699 5.11092 19.2699C5.11092 19.2699 2.36094 21.0513 1.28125 24.0705L2.49475 24.4483C2.49475 24.4483 3.213 23.2458 3.92203 22.481C3.92203 22.481 2.69469 24.0997 2.65163 24.7631L5.25857 25.0318Z" fill="url(#paint10_linear)"/>
<path d="M7.63365 25.5003L6.697 24.4836L5.61577 24.7739C5.61577 24.7739 4.35459 24.9689 3.63326 24.7739C2.91193 24.5788 2.91193 24.5788 2.91193 24.5788L1.28163 24.072L1.02478 24.7953C0.960183 24.9781 1.02478 25.1824 1.18473 25.296C1.32623 25.3958 1.4908 25.5064 1.59692 25.5525C1.81225 25.6461 6.54474 25.5816 6.54474 25.5816L7.63365 25.5003Z" fill="url(#paint11_linear)"/>
<path d="M6.07156 17.5928L5.13184 19.3374C5.19336 19.7182 6.15461 19.729 6.30226 19.5017C6.31764 19.4787 6.32533 19.4526 6.33148 19.4249L6.89286 18.2593C6.91747 18.1457 6.60525 17.7633 6.5022 17.708L6.12847 17.5099C5.98697 17.4331 6.58679 17.4269 6.07156 17.5928Z" fill="url(#paint12_linear)"/>
<path d="M7.97179 17.1842C7.97179 17.1842 8.07792 17.7739 7.61343 18.5218C7.14895 19.2712 6.68754 19.2374 6.45376 18.9702C6.21844 18.703 5.93852 18.2576 6.06618 17.5113C6.19384 16.7634 7.81184 16.4317 7.97179 17.1842Z" fill="url(#paint13_linear)"/>
<path d="M6.62775 17.5928C6.62775 17.5928 7.37831 16.6084 7.95506 17.4669L7.94584 17.7633C7.94584 17.7633 8.69485 17.7279 8.61487 17.0384C8.53336 16.3489 7.92123 15.8774 7.07224 16.1123C6.22325 16.3473 5.72801 16.6161 5.63266 17.2043C5.5373 17.7924 6.01716 17.6957 6.01716 17.6957C6.01716 17.6957 6.20018 17.2903 6.4232 17.2626C6.64467 17.235 6.56469 17.5559 6.56469 17.5559L6.62775 17.5928Z" fill="url(#paint14_linear)"/>
<path d="M6.45597 17.5651C6.45597 17.5651 6.84508 17.0614 6.49134 16.9569C6.1376 16.8525 6.14991 17.4514 6.17298 17.6741L6.45597 17.5651Z" fill="url(#paint15_linear)"/>
<path d="M4.5332 25.9025C4.53627 25.9025 4.53935 25.9025 4.54242 25.9025L8.85042 25.8979C8.95654 25.8979 9.04267 25.8119 9.04267 25.7059C9.04267 25.5999 8.95654 25.5124 8.84888 25.5139L4.54089 25.5185C4.43476 25.5185 4.34863 25.6045 4.34863 25.7105C4.35017 25.8134 4.43169 25.8979 4.5332 25.9025Z" fill="url(#paint16_linear)"/>
<path d="M12.7229 21.9971H9.13467C8.87013 21.9971 8.62866 22.1491 8.51639 22.3887L6.8584 25.8993H11.3171C11.4878 25.8993 11.6416 25.7949 11.7032 25.6367L12.989 22.3871C13.0628 22.2013 12.9244 21.9971 12.7229 21.9971Z" fill="url(#paint17_linear)"/>
<path d="M10.1961 23.7985C10.1176 24.0396 10.1761 24.2746 10.3237 24.3222C10.4729 24.3698 10.6559 24.2132 10.7328 23.9721C10.8113 23.731 10.7528 23.496 10.6052 23.4484C10.456 23.3993 10.273 23.5574 10.1961 23.7985Z" fill="#91B3FA"/>
<path d="M21.5123 11.7975C21.4879 11.8312 21.4566 11.8599 21.4227 11.888L20.5912 12.5083L20.2582 12.7588L13.5809 17.7297L13.5444 17.7289C13.4789 17.7293 13.4156 17.7179 13.3544 17.6946C13.3444 17.6918 13.337 17.6898 13.33 17.6847C13.2251 17.643 13.1316 17.567 13.0598 17.472C13.0534 17.464 13.0451 17.4523 13.0387 17.4443C13.0175 17.4166 12.9999 17.3836 12.9818 17.3535C12.976 17.3425 12.9726 17.3322 12.9667 17.3212C12.9609 17.3102 12.958 17.297 12.9522 17.286C12.9105 17.1838 12.8839 17.0703 12.8825 16.9482L12.742 6.12196L12.7416 6.03757C12.7411 5.99685 12.7426 5.95981 12.7465 5.92346C12.7476 5.91751 12.7487 5.91157 12.7497 5.90563C12.7553 5.86036 12.7639 5.81282 12.7769 5.76963C12.8141 5.63642 12.882 5.52114 12.9711 5.43361C12.9711 5.43361 12.9741 5.43133 12.9772 5.42905L13.0091 5.39737C13.1141 5.30805 13.2443 5.25382 13.3827 5.25496L13.5316 5.2559L13.7416 5.41119L14.2339 5.77005L20.7072 10.5211L20.9494 10.701L21.4134 11.0426C21.4481 11.0679 21.4792 11.0984 21.5047 11.1305C21.6488 11.3174 21.6531 11.612 21.5123 11.7975Z" fill="#294090"/>
<path d="M30.2491 17.1398C30.2486 17.1428 30.248 17.1458 30.2475 17.1487C30.2464 17.1547 30.2459 17.1577 30.2448 17.1636C30.2432 17.1725 30.2421 17.1785 30.2405 17.1874C30.2405 17.1874 30.24 17.1903 30.2395 17.1933C30.2368 17.2082 30.2316 17.2223 30.2294 17.2342L30.2289 17.2372C30.2278 17.2431 30.2243 17.2484 30.2227 17.2573C30.2216 17.2632 30.2205 17.2692 30.2169 17.2744C30.2164 17.2774 30.2164 17.2774 30.2159 17.2804C30.2101 17.2975 30.2044 17.3146 30.1962 17.3311C30.1952 17.337 30.1916 17.3423 30.188 17.3475C30.1845 17.3528 30.1834 17.3587 30.1798 17.364C30.1763 17.3692 30.1752 17.3752 30.1716 17.3804C30.1645 17.3909 30.1598 17.4021 30.1552 17.4133C30.1511 17.4215 30.1475 17.4268 30.144 17.432C30.1363 17.4455 30.1256 17.4612 30.1185 17.4717C30.1114 17.4822 30.1042 17.4927 30.0976 17.5002C30.091 17.5078 30.0839 17.5183 30.0773 17.5258C30.0738 17.531 30.0702 17.5363 30.0672 17.5386C30.0636 17.5438 30.0606 17.5461 30.0575 17.5484C30.054 17.5536 30.0504 17.5589 30.0449 17.5604C30.0444 17.5634 30.0419 17.5627 30.0413 17.5657C30.0317 17.5755 30.0221 17.5853 30.01 17.5944L30.0069 17.5967C29.9979 17.6035 29.9913 17.611 29.9822 17.6179C29.9792 17.6202 29.9761 17.6224 29.9731 17.6247C29.9695 17.63 29.964 17.6315 29.958 17.6361C29.9549 17.6384 29.9519 17.6406 29.9459 17.6452C29.9403 17.6468 29.9368 17.652 29.9337 17.6543C29.904 17.6741 29.8743 17.6939 29.8406 17.7064C29.8376 17.7087 29.8376 17.7087 29.8351 17.708C29.8321 17.7102 29.8296 17.7095 29.8291 17.7125C29.823 17.7171 29.8145 17.7209 29.8064 17.7218C29.7924 17.7273 29.7813 17.7304 29.7678 17.7329C29.7593 17.7368 29.7538 17.7383 29.7482 17.7399C29.7427 17.7415 29.7402 17.7408 29.7347 17.7424C29.7292 17.744 29.7237 17.7456 29.7182 17.7471L29.7157 17.7465C29.7101 17.748 29.7071 17.7503 29.7021 17.7489C29.6996 17.7482 29.6966 17.7505 29.6966 17.7505C29.6941 17.7498 29.6886 17.7514 29.6856 17.7537C29.6831 17.753 29.6801 17.7553 29.6776 17.7546C29.6696 17.7555 29.6616 17.7563 29.6535 17.7572C29.6431 17.7574 29.6295 17.7599 29.619 17.7601L29.5826 17.7593L22.7739 12.7649L22.4347 12.5143L21.5874 11.891C21.5527 11.8657 21.5216 11.8352 21.496 11.8031C21.3494 11.6155 21.3452 11.3209 21.4859 11.1355C21.5098 11.1047 21.5392 11.0723 21.575 11.0479L22.0292 10.7064L22.2678 10.5294L28.6162 5.80078L29.0995 5.44237L29.3054 5.28752L29.4543 5.28846C29.4698 5.28966 29.4853 5.29085 29.5008 5.29204C29.5032 5.29274 29.5057 5.29343 29.5082 5.29413C29.5237 5.29532 29.5392 5.29652 29.5516 5.29999C29.5541 5.30068 29.5591 5.30207 29.5616 5.30276C29.5741 5.30624 29.5865 5.30971 29.599 5.31318C29.6014 5.31387 29.6039 5.31457 29.6089 5.31596C29.6239 5.32012 29.6413 5.32498 29.6532 5.33142C29.6681 5.33559 29.6826 5.34273 29.6945 5.34917C29.7139 5.35769 29.7327 5.36919 29.7515 5.38069C29.761 5.38644 29.7729 5.39288 29.7818 5.4016C29.7981 5.4124 29.814 5.42618 29.8298 5.43995L29.8659 5.47186C29.8659 5.47186 29.8684 5.47255 29.8703 5.47622C29.8792 5.48494 29.8881 5.49366 29.897 5.50238C29.9034 5.51041 29.9078 5.51477 29.9142 5.52279C29.9339 5.5439 29.9506 5.56728 29.9648 5.58997C29.9732 5.60166 29.979 5.61266 29.9849 5.62365C30.0133 5.66903 30.0362 5.71599 30.0556 5.7682C30.0609 5.78217 30.0662 5.79614 30.071 5.81308C30.0797 5.83735 30.0859 5.86093 30.0896 5.88381C30.0924 5.89709 30.0958 5.90739 30.0961 5.91997C30.097 5.92958 30.0984 5.93621 30.1013 5.94949C30.1027 5.95613 30.1021 5.9591 30.1041 5.96276C30.106 5.96643 30.1055 5.9694 30.1069 5.97604C30.1078 5.98565 30.1106 5.99892 30.111 6.0115C30.1118 6.02111 30.1127 6.03072 30.1136 6.04033C30.1139 6.05291 30.1137 6.06846 30.1141 6.08104L30.1145 6.16543L30.2555 16.9887C30.2559 17.0013 30.2562 17.0138 30.256 17.0294C30.2549 17.0353 30.2564 17.042 30.2553 17.0479C30.2542 17.0539 30.2556 17.0605 30.2545 17.0664C30.254 17.0694 30.2535 17.0724 30.2535 17.0724C30.2524 17.0783 30.2519 17.0813 30.2513 17.0843C30.2497 17.0932 30.2506 17.1028 30.249 17.1117C30.2474 17.1206 30.2482 17.1302 30.2441 17.1384L30.2436 17.1414C30.2502 17.1339 30.2497 17.1369 30.2491 17.1398Z" fill="#294090"/>
<path opacity="0.6" d="M30.2725 16.8307L30.2731 16.9432C30.2779 17.394 29.9924 17.7576 29.6316 17.7569L13.5406 17.7313C13.1798 17.7306 12.885 17.3644 12.8771 16.9158L12.8766 16.8033L21.0667 10.294C21.3201 10.0931 21.6476 10.0907 21.9089 10.2947L30.2725 16.8307Z" fill="#453890"/>
<path d="M30.2664 16.8675L30.2675 16.977C30.273 17.4093 29.9853 17.7567 29.6269 17.7567L13.5365 17.7281C13.1756 17.7274 12.8806 17.3767 12.8746 16.9474L12.8734 16.8378L21.0691 10.6016C21.324 10.4074 21.6509 10.408 21.9113 10.6023L30.2664 16.8675Z" fill="#3B58A9"/>
<path opacity="0.6" d="M30.1289 6.15169L30.0849 6.19249L22.7867 12.7601L22.4586 13.0556L21.9586 13.5061C21.7089 13.7299 21.358 13.732 21.101 13.5043L20.5913 13.0532L20.2552 12.7566L12.7835 6.1634L12.736 6.12207L12.7356 6.03768C12.7351 5.99697 12.7365 5.95992 12.7405 5.92357C12.7791 5.79699 12.844 5.68399 12.9275 5.59804L12.9306 5.59576L12.963 5.5611C13.0692 5.46585 13.1993 5.41161 13.3408 5.41047L13.7356 5.41131L29.1123 5.43754L29.5071 5.43837C29.5232 5.43659 29.5386 5.43779 29.5536 5.44195C29.5566 5.43968 29.5591 5.44037 29.5616 5.44106C29.5771 5.44226 29.5925 5.44345 29.6075 5.44762C29.61 5.44831 29.615 5.4497 29.6175 5.4504C29.6299 5.45387 29.6424 5.45734 29.6548 5.46081C29.6573 5.4615 29.6598 5.4622 29.6648 5.46359C29.6797 5.46775 29.6947 5.47192 29.7091 5.47906C29.724 5.48322 29.7384 5.49036 29.7528 5.4975C29.7717 5.50899 29.791 5.51752 29.8094 5.53199C29.8188 5.53774 29.8307 5.54418 29.8371 5.5522C29.8534 5.56301 29.8718 5.57747 29.8876 5.59125L29.9231 5.62613C29.9256 5.62682 29.9256 5.62682 29.9276 5.63049C29.9365 5.63921 29.9453 5.64793 29.9537 5.65962C29.9606 5.66467 29.967 5.6727 29.9709 5.68003C29.9907 5.70114 30.0074 5.72452 30.0235 5.75088C30.0319 5.76257 30.0377 5.77356 30.0461 5.78526C30.074 5.8336 30.0988 5.88423 30.1176 5.93941L30.1224 5.95635C30.1243 5.96002 30.1238 5.96299 30.1252 5.96963C30.1261 5.97923 30.1289 5.99251 30.1293 6.00509C30.1302 6.0147 30.131 6.02431 30.1319 6.03392C30.1323 6.0465 30.1321 6.06205 30.1324 6.07463L30.1289 6.15169Z" fill="#453890"/>
<path d="M30.1133 5.93308L22.4391 12.5113L21.9409 12.9374C21.6928 13.1522 21.3424 13.1513 21.0857 12.9362L20.5773 12.5073L12.7358 5.90466C12.7414 5.85939 12.75 5.81185 12.763 5.76866C12.8002 5.63545 12.8681 5.52017 12.9572 5.43264L12.9602 5.43036L12.9921 5.39867C13.0972 5.30936 13.2249 5.25443 13.3658 5.25627L29.4567 5.28186C29.4722 5.28305 29.4882 5.28127 29.5032 5.28544C29.5062 5.28316 29.5087 5.28386 29.5106 5.28752C29.5261 5.28872 29.5416 5.28991 29.554 5.29338C29.5565 5.29408 29.5615 5.29546 29.564 5.29616C29.5765 5.29963 29.5889 5.3031 29.6014 5.30657C29.6039 5.30727 29.6088 5.30866 29.6113 5.30935C29.6263 5.31352 29.6412 5.31768 29.6556 5.32482C29.6706 5.32898 29.685 5.33612 29.6969 5.34256C29.7163 5.35109 29.7351 5.36259 29.754 5.37408C29.7634 5.37983 29.7753 5.38627 29.7847 5.39202C29.8011 5.40283 29.8194 5.41729 29.8352 5.43107L29.8688 5.46228C29.8713 5.46298 29.8708 5.46595 29.8732 5.46664C29.8821 5.47536 29.891 5.48408 29.8974 5.49211C29.9044 5.49716 29.9107 5.50519 29.9147 5.51252C29.9319 5.53293 29.9511 5.55701 29.9653 5.5797C29.9711 5.5907 29.9795 5.60239 29.9854 5.61338C30.0138 5.65876 30.0367 5.70572 30.056 5.75793C30.0613 5.7719 30.0667 5.78587 30.0714 5.80281C30.0714 5.80281 30.0714 5.80281 30.0709 5.80578C30.0796 5.83005 30.0858 5.85363 30.0895 5.87651C30.0923 5.88979 30.0957 5.90009 30.096 5.91267C30.1085 5.91614 30.1099 5.92278 30.1133 5.93308Z" fill="#3B58A9"/>
<g filter="url(#filter0_d)">
<path d="M27.5123 17.7975C27.4879 17.8312 27.4566 17.8599 27.4227 17.888L26.5912 18.5083L26.2582 18.7588L19.5809 23.7297L19.5444 23.7289C19.4789 23.7293 19.4156 23.7179 19.3544 23.6946C19.3444 23.6918 19.337 23.6898 19.33 23.6847C19.2251 23.643 19.1316 23.567 19.0598 23.472C19.0534 23.464 19.0451 23.4523 19.0387 23.4443C19.0175 23.4166 18.9999 23.3836 18.9818 23.3535C18.976 23.3425 18.9726 23.3322 18.9667 23.3212C18.9609 23.3102 18.958 23.297 18.9522 23.286C18.9105 23.1838 18.8839 23.0703 18.8825 22.9482L18.742 12.122L18.7416 12.0376C18.7411 11.9969 18.7426 11.9598 18.7465 11.9235C18.7476 11.9175 18.7487 11.9116 18.7497 11.9056C18.7553 11.8604 18.7639 11.8128 18.7769 11.7696C18.8141 11.6364 18.882 11.5211 18.9711 11.4336C18.9711 11.4336 18.9741 11.4313 18.9772 11.4291L19.0091 11.3974C19.1141 11.3081 19.2443 11.2538 19.3827 11.255L19.5316 11.2559L19.7416 11.4112L20.2339 11.77L26.7072 16.5211L26.9494 16.701L27.4134 17.0426C27.4481 17.0679 27.4792 17.0984 27.5047 17.1305C27.6488 17.3174 27.6531 17.612 27.5123 17.7975Z" fill="#F1D971"/>
<path d="M36.2491 23.1398C36.2486 23.1428 36.248 23.1458 36.2475 23.1487C36.2464 23.1547 36.2459 23.1577 36.2448 23.1636C36.2432 23.1725 36.2421 23.1785 36.2405 23.1874C36.2405 23.1874 36.24 23.1903 36.2395 23.1933C36.2368 23.2082 36.2316 23.2223 36.2294 23.2342L36.2289 23.2372C36.2278 23.2431 36.2243 23.2484 36.2227 23.2573C36.2216 23.2632 36.2205 23.2692 36.2169 23.2744C36.2164 23.2774 36.2164 23.2774 36.2159 23.2804C36.2101 23.2975 36.2044 23.3146 36.1962 23.3311C36.1952 23.337 36.1916 23.3423 36.188 23.3475C36.1845 23.3528 36.1834 23.3587 36.1798 23.364C36.1763 23.3692 36.1752 23.3752 36.1716 23.3804C36.1645 23.3909 36.1598 23.4021 36.1552 23.4133C36.1511 23.4215 36.1475 23.4268 36.144 23.432C36.1363 23.4455 36.1256 23.4612 36.1185 23.4717C36.1114 23.4822 36.1042 23.4927 36.0976 23.5002C36.091 23.5078 36.0839 23.5183 36.0773 23.5258C36.0738 23.531 36.0702 23.5363 36.0672 23.5386C36.0636 23.5438 36.0606 23.5461 36.0575 23.5484C36.054 23.5536 36.0504 23.5589 36.0449 23.5604C36.0444 23.5634 36.0419 23.5627 36.0413 23.5657C36.0317 23.5755 36.0221 23.5853 36.01 23.5944L36.0069 23.5967C35.9979 23.6035 35.9913 23.611 35.9822 23.6179C35.9792 23.6202 35.9761 23.6224 35.9731 23.6247C35.9695 23.63 35.964 23.6315 35.958 23.6361C35.9549 23.6384 35.9519 23.6406 35.9459 23.6452C35.9403 23.6468 35.9368 23.652 35.9337 23.6543C35.904 23.6741 35.8743 23.6939 35.8406 23.7064C35.8376 23.7087 35.8376 23.7087 35.8351 23.708C35.8321 23.7102 35.8296 23.7095 35.8291 23.7125C35.823 23.7171 35.8145 23.7209 35.8064 23.7218C35.7924 23.7273 35.7813 23.7304 35.7678 23.7329C35.7593 23.7368 35.7538 23.7383 35.7482 23.7399C35.7427 23.7415 35.7402 23.7408 35.7347 23.7424C35.7292 23.744 35.7237 23.7456 35.7182 23.7471L35.7157 23.7465C35.7101 23.748 35.7071 23.7503 35.7021 23.7489C35.6996 23.7482 35.6966 23.7505 35.6966 23.7505C35.6941 23.7498 35.6886 23.7514 35.6856 23.7537C35.6831 23.753 35.6801 23.7553 35.6776 23.7546C35.6696 23.7555 35.6616 23.7563 35.6535 23.7572C35.6431 23.7574 35.6295 23.7599 35.619 23.7601L35.5826 23.7593L28.7739 18.7649L28.4347 18.5143L27.5874 17.891C27.5527 17.8657 27.5216 17.8352 27.496 17.8031C27.3494 17.6155 27.3452 17.3209 27.4859 17.1355C27.5098 17.1047 27.5392 17.0723 27.575 17.0479L28.0292 16.7064L28.2678 16.5294L34.6162 11.8008L35.0995 11.4424L35.3054 11.2875L35.4543 11.2885C35.4698 11.2897 35.4853 11.2909 35.5008 11.292C35.5032 11.2927 35.5057 11.2934 35.5082 11.2941C35.5237 11.2953 35.5392 11.2965 35.5516 11.3C35.5541 11.3007 35.5591 11.3021 35.5616 11.3028C35.5741 11.3062 35.5865 11.3097 35.599 11.3132C35.6014 11.3139 35.6039 11.3146 35.6089 11.316C35.6239 11.3201 35.6413 11.325 35.6532 11.3314C35.6681 11.3356 35.6826 11.3427 35.6945 11.3492C35.7139 11.3577 35.7327 11.3692 35.7515 11.3807C35.761 11.3864 35.7729 11.3929 35.7818 11.4016C35.7981 11.4124 35.814 11.4262 35.8298 11.44L35.8659 11.4719C35.8659 11.4719 35.8684 11.4726 35.8703 11.4762C35.8792 11.4849 35.8881 11.4937 35.897 11.5024C35.9034 11.5104 35.9078 11.5148 35.9142 11.5228C35.9339 11.5439 35.9506 11.5673 35.9648 11.59C35.9732 11.6017 35.979 11.6127 35.9849 11.6237C36.0133 11.669 36.0362 11.716 36.0556 11.7682C36.0609 11.7822 36.0662 11.7961 36.071 11.8131C36.0797 11.8374 36.0859 11.8609 36.0896 11.8838C36.0924 11.8971 36.0958 11.9074 36.0961 11.92C36.097 11.9296 36.0984 11.9362 36.1013 11.9495C36.1027 11.9561 36.1021 11.9591 36.1041 11.9628C36.106 11.9664 36.1055 11.9694 36.1069 11.976C36.1078 11.9856 36.1106 11.9989 36.111 12.0115C36.1118 12.0211 36.1127 12.0307 36.1136 12.0403C36.1139 12.0529 36.1137 12.0685 36.1141 12.081L36.1145 12.1654L36.2555 22.9887C36.2559 23.0013 36.2562 23.0138 36.256 23.0294C36.2549 23.0353 36.2564 23.042 36.2553 23.0479C36.2542 23.0539 36.2556 23.0605 36.2545 23.0664C36.254 23.0694 36.2535 23.0724 36.2535 23.0724C36.2524 23.0783 36.2519 23.0813 36.2513 23.0843C36.2497 23.0932 36.2506 23.1028 36.249 23.1117C36.2474 23.1206 36.2482 23.1302 36.2441 23.1384L36.2436 23.1414C36.2502 23.1339 36.2497 23.1369 36.2491 23.1398Z" fill="#F1D971"/>
<path opacity="0.6" d="M36.2725 22.8307L36.2731 22.9432C36.2779 23.394 35.9924 23.7576 35.6316 23.7569L19.5406 23.7313C19.1798 23.7306 18.885 23.3644 18.8771 22.9158L18.8766 22.8033L27.0667 16.294C27.3201 16.0931 27.6476 16.0907 27.9089 16.2947L36.2725 22.8307Z" fill="#453890"/>
<path d="M36.2664 22.8675L36.2675 22.977C36.273 23.4093 35.9853 23.7567 35.6269 23.7567L19.5365 23.7281C19.1756 23.7274 18.8806 23.3767 18.8746 22.9474L18.8734 22.8378L27.0691 16.6016C27.324 16.4074 27.6509 16.408 27.9113 16.6023L36.2664 22.8675Z" fill="#FFCC42"/>
<path opacity="0.6" d="M36.1289 12.1517L36.0849 12.1925L28.7867 18.7601L28.4586 19.0556L27.9586 19.5061C27.7089 19.7299 27.358 19.732 27.101 19.5043L26.5913 19.0532L26.2552 18.7566L18.7835 12.1634L18.736 12.1221L18.7356 12.0377C18.7351 11.997 18.7365 11.9599 18.7405 11.9236C18.7791 11.797 18.844 11.684 18.9275 11.598L18.9306 11.5958L18.963 11.5611C19.0692 11.4659 19.1993 11.4116 19.3408 11.4105L19.7356 11.4113L35.1123 11.4375L35.5071 11.4384C35.5232 11.4366 35.5386 11.4378 35.5536 11.442C35.5566 11.4397 35.5591 11.4404 35.5616 11.4411C35.5771 11.4423 35.5925 11.4435 35.6075 11.4476C35.61 11.4483 35.615 11.4497 35.6175 11.4504C35.6299 11.4539 35.6424 11.4573 35.6548 11.4608C35.6573 11.4615 35.6598 11.4622 35.6648 11.4636C35.6797 11.4678 35.6947 11.4719 35.7091 11.4791C35.724 11.4832 35.7384 11.4904 35.7528 11.4975C35.7717 11.509 35.791 11.5175 35.8094 11.532C35.8188 11.5377 35.8307 11.5442 35.8371 11.5522C35.8534 11.563 35.8718 11.5775 35.8876 11.5912L35.9231 11.6261C35.9256 11.6268 35.9256 11.6268 35.9276 11.6305C35.9365 11.6392 35.9453 11.6479 35.9537 11.6596C35.9606 11.6647 35.967 11.6727 35.9709 11.68C35.9907 11.7011 36.0074 11.7245 36.0235 11.7509C36.0319 11.7626 36.0377 11.7736 36.0461 11.7853C36.074 11.8336 36.0988 11.8842 36.1176 11.9394L36.1224 11.9564C36.1243 11.96 36.1238 11.963 36.1252 11.9696C36.1261 11.9792 36.1289 11.9925 36.1293 12.0051C36.1302 12.0147 36.131 12.0243 36.1319 12.0339C36.1323 12.0465 36.1321 12.062 36.1324 12.0746L36.1289 12.1517Z" fill="#453890"/>
<path d="M36.1133 11.9331L28.4391 18.5113L27.9409 18.9374C27.6928 19.1522 27.3424 19.1513 27.0857 18.9362L26.5773 18.5073L18.7358 11.9047C18.7414 11.8594 18.75 11.8118 18.763 11.7687C18.8002 11.6354 18.8681 11.5202 18.9572 11.4326L18.9602 11.4304L18.9921 11.3987C19.0972 11.3094 19.2249 11.2544 19.3658 11.2563L35.4567 11.2819C35.4722 11.2831 35.4882 11.2813 35.5032 11.2854C35.5062 11.2832 35.5087 11.2839 35.5106 11.2875C35.5261 11.2887 35.5416 11.2899 35.554 11.2934C35.5565 11.2941 35.5615 11.2955 35.564 11.2962C35.5765 11.2996 35.5889 11.3031 35.6014 11.3066C35.6039 11.3073 35.6088 11.3087 35.6113 11.3093C35.6263 11.3135 35.6412 11.3177 35.6556 11.3248C35.6706 11.329 35.685 11.3361 35.6969 11.3426C35.7163 11.3511 35.7351 11.3626 35.754 11.3741C35.7634 11.3798 35.7753 11.3863 35.7847 11.392C35.8011 11.4028 35.8194 11.4173 35.8352 11.4311L35.8688 11.4623C35.8713 11.463 35.8708 11.4659 35.8732 11.4666C35.8821 11.4754 35.891 11.4841 35.8974 11.4921C35.9044 11.4972 35.9107 11.5052 35.9147 11.5125C35.9319 11.5329 35.9511 11.557 35.9653 11.5797C35.9711 11.5907 35.9795 11.6024 35.9854 11.6134C36.0138 11.6588 36.0367 11.7057 36.056 11.7579C36.0613 11.7719 36.0667 11.7859 36.0714 11.8028C36.0714 11.8028 36.0714 11.8028 36.0709 11.8058C36.0796 11.8301 36.0858 11.8536 36.0895 11.8765C36.0923 11.8898 36.0957 11.9001 36.096 11.9127C36.1085 11.9161 36.1099 11.9228 36.1133 11.9331Z" fill="#FFCC42"/>
</g>
<g filter="url(#filter1_d)">
<path d="M32.5604 20.8473C32.5358 20.8812 32.5043 20.91 32.4704 20.9381L31.6353 21.561L31.3009 21.8126L24.5955 26.8045L24.5588 26.8036C24.4931 26.8041 24.4295 26.7927 24.368 26.7693C24.358 26.7665 24.3505 26.7644 24.3436 26.7593C24.2382 26.7174 24.1443 26.6411 24.0722 26.5457C24.0658 26.5377 24.0574 26.5259 24.051 26.5179C24.0297 26.49 24.0121 26.4569 23.9939 26.4267C23.988 26.4157 23.9846 26.4054 23.9787 26.3943C23.9729 26.3833 23.97 26.3699 23.9641 26.3589C23.9223 26.2563 23.8956 26.1423 23.8941 26.0197L23.7531 15.1478L23.7526 15.0631C23.7521 15.0222 23.7536 14.985 23.7576 14.9485C23.7587 14.9425 23.7598 14.9366 23.7608 14.9306C23.7664 14.8851 23.7751 14.8374 23.7882 14.794C23.8255 14.6602 23.8937 14.5445 23.9831 14.4566C23.9831 14.4566 23.9862 14.4543 23.9892 14.452L24.0212 14.4202C24.1268 14.3305 24.2575 14.276 24.3965 14.2772L24.546 14.2781L24.7569 14.4341L25.2513 14.7944L31.7518 19.5656L31.995 19.7462L32.461 20.0892C32.4958 20.1146 32.527 20.1453 32.5527 20.1775C32.6974 20.3652 32.7017 20.661 32.5604 20.8473Z" fill="#B09FFF"/>
<path d="M41.3341 26.212C41.3336 26.215 41.333 26.218 41.3325 26.221C41.3314 26.2269 41.3309 26.2299 41.3298 26.2359C41.3282 26.2448 41.3271 26.2508 41.3255 26.2598C41.3255 26.2598 41.3249 26.2627 41.3244 26.2657C41.3217 26.2807 41.3165 26.2949 41.3143 26.3068L41.3138 26.3098C41.3127 26.3158 41.3091 26.321 41.3075 26.33C41.3064 26.336 41.3054 26.3419 41.3018 26.3472C41.3012 26.3502 41.3012 26.3502 41.3007 26.3532C41.295 26.3704 41.2892 26.3876 41.281 26.4041C41.2799 26.4101 41.2763 26.4153 41.2728 26.4206C41.2692 26.4259 41.2681 26.4318 41.2645 26.4371C41.2609 26.4424 41.2599 26.4483 41.2563 26.4536C41.2491 26.4642 41.2445 26.4754 41.2398 26.4866C41.2357 26.4949 41.2321 26.5002 41.2285 26.5054C41.2208 26.519 41.2101 26.5348 41.2029 26.5453C41.1958 26.5559 41.1886 26.5664 41.182 26.5739C41.1754 26.5815 41.1682 26.592 41.1616 26.5996C41.158 26.6049 41.1544 26.6101 41.1514 26.6124C41.1478 26.6177 41.1448 26.62 41.1417 26.6223C41.1381 26.6276 41.1346 26.6328 41.129 26.6344C41.1285 26.6374 41.126 26.6367 41.1254 26.6397C41.1158 26.6495 41.1061 26.6594 41.094 26.6685L41.0909 26.6708C41.0818 26.6777 41.0752 26.6852 41.0661 26.6921C41.063 26.6944 41.06 26.6967 41.0569 26.6989C41.0534 26.7042 41.0478 26.7058 41.0417 26.7104C41.0387 26.7127 41.0356 26.715 41.0296 26.7195C41.024 26.7211 41.0204 26.7264 41.0174 26.7287C40.9875 26.7486 40.9577 26.7684 40.9239 26.781C40.9209 26.7832 40.9209 26.7832 40.9183 26.7826C40.9153 26.7848 40.9128 26.7841 40.9123 26.7871C40.9062 26.7917 40.8976 26.7956 40.8896 26.7965C40.8754 26.8019 40.8644 26.8051 40.8508 26.8076C40.8422 26.8115 40.8367 26.8131 40.8311 26.8146C40.8256 26.8162 40.8231 26.8155 40.8175 26.8171C40.812 26.8187 40.8064 26.8203 40.8009 26.8219L40.7984 26.8212C40.7929 26.8228 40.7898 26.8251 40.7848 26.8237C40.7823 26.823 40.7793 26.8253 40.7793 26.8253C40.7768 26.8246 40.7712 26.8262 40.7682 26.8285C40.7657 26.8278 40.7627 26.83 40.7602 26.8293C40.7521 26.8302 40.7441 26.8311 40.736 26.832C40.7255 26.8322 40.7119 26.8347 40.7014 26.8349L40.6647 26.8341L33.8274 21.8186L33.4868 21.567L32.6359 20.9411C32.6011 20.9157 32.5698 20.885 32.5441 20.8528C32.3969 20.6645 32.3926 20.3686 32.534 20.1824C32.558 20.1514 32.5875 20.1189 32.6235 20.0945L33.0795 19.7514L33.3192 19.5738L39.6943 14.8252L40.1796 14.4653L40.3864 14.3098L40.536 14.3107C40.5515 14.3119 40.567 14.3131 40.5826 14.3143C40.5851 14.315 40.5876 14.3157 40.5901 14.3164C40.6056 14.3176 40.6212 14.3188 40.6337 14.3223C40.6362 14.323 40.6412 14.3244 40.6437 14.3251C40.6562 14.3286 40.6687 14.3321 40.6812 14.3355C40.6837 14.3362 40.6862 14.3369 40.6912 14.3383C40.7062 14.3425 40.7237 14.3474 40.7357 14.3539C40.7507 14.358 40.7652 14.3652 40.7771 14.3717C40.7966 14.3802 40.8155 14.3918 40.8344 14.4033C40.8439 14.4091 40.8559 14.4156 40.8648 14.4243C40.8812 14.4352 40.8971 14.449 40.913 14.4628L40.9492 14.4949C40.9492 14.4949 40.9517 14.4956 40.9537 14.4993C40.9626 14.508 40.9715 14.5168 40.9805 14.5255C40.9869 14.5336 40.9914 14.538 40.9978 14.546C41.0176 14.5672 41.0344 14.5907 41.0486 14.6135C41.057 14.6252 41.0629 14.6363 41.0688 14.6473C41.0973 14.6929 41.1203 14.74 41.1397 14.7925C41.1451 14.8065 41.1504 14.8205 41.1552 14.8375C41.1639 14.8619 41.1702 14.8856 41.1739 14.9086C41.1767 14.9219 41.1801 14.9323 41.1805 14.9449C41.1814 14.9545 41.1828 14.9612 41.1856 14.9745C41.187 14.9812 41.1865 14.9842 41.1885 14.9879C41.1904 14.9915 41.1899 14.9945 41.1913 15.0012C41.1922 15.0108 41.195 15.0242 41.1954 15.0368C41.1963 15.0465 41.1971 15.0561 41.198 15.0658C41.1984 15.0784 41.1982 15.094 41.1985 15.1066L41.1989 15.1914L41.3405 26.0602C41.3409 26.0729 41.3412 26.0855 41.341 26.1011C41.3399 26.1071 41.3414 26.1137 41.3403 26.1197C41.3392 26.1257 41.3406 26.1323 41.3396 26.1383C41.339 26.1413 41.3385 26.1443 41.3385 26.1443C41.3374 26.1503 41.3369 26.1532 41.3363 26.1562C41.3347 26.1652 41.3356 26.1748 41.334 26.1838C41.3323 26.1927 41.3332 26.2024 41.3291 26.2106L41.3286 26.2136C41.3352 26.2061 41.3346 26.209 41.3341 26.212Z" fill="#B09FFF"/>
<path opacity="0.6" d="M41.3578 25.9016L41.3584 26.0146C41.3632 26.4673 41.0765 26.8325 40.7141 26.8318L24.5554 26.8061C24.193 26.8054 23.897 26.4376 23.8891 25.9872L23.8885 25.8742L32.1132 19.3374C32.3677 19.1357 32.6965 19.1333 32.9589 19.3381L41.3578 25.9016Z" fill="#453890"/>
<path d="M41.3518 25.9386L41.3529 26.0486C41.3585 26.4827 41.0695 26.8315 40.7096 26.8315L24.5514 26.8028C24.1891 26.8021 23.8928 26.45 23.8867 26.0188L23.8856 25.9088L32.1158 19.6463C32.3718 19.4513 32.7 19.4519 32.9616 19.647L41.3518 25.9386Z" fill="#A490FF"/>
<path opacity="0.6" d="M41.2141 15.1776L41.1699 15.2185L33.8409 21.8138L33.5114 22.1106L33.0093 22.563C32.7585 22.7877 32.4062 22.7898 32.148 22.5611L31.6363 22.1081L31.2987 21.8103L23.7955 15.1893L23.7479 15.1478L23.7474 15.0631C23.7469 15.0222 23.7484 14.985 23.7524 14.9485C23.7911 14.8214 23.8563 14.7079 23.9402 14.6216L23.9432 14.6193L23.9758 14.5845C24.0824 14.4888 24.2131 14.4344 24.3552 14.4332L24.7517 14.4341L40.1931 14.4604L40.5897 14.4612C40.6057 14.4595 40.6213 14.4607 40.6363 14.4648C40.6393 14.4626 40.6418 14.4633 40.6443 14.464C40.6599 14.4652 40.6754 14.4664 40.6904 14.4705C40.6929 14.4712 40.6979 14.4726 40.7004 14.4733C40.7129 14.4768 40.7254 14.4803 40.7379 14.4838C40.7404 14.4845 40.7429 14.4852 40.7479 14.4866C40.763 14.4908 40.778 14.4949 40.7924 14.5021C40.8074 14.5063 40.8219 14.5135 40.8364 14.5206C40.8553 14.5322 40.8748 14.5407 40.8931 14.5553C40.9026 14.561 40.9146 14.5675 40.921 14.5756C40.9374 14.5864 40.9558 14.6009 40.9717 14.6148L41.0074 14.6498C41.0099 14.6505 41.0099 14.6505 41.0119 14.6542C41.0208 14.6629 41.0297 14.6717 41.0381 14.6834C41.0451 14.6885 41.0515 14.6966 41.0554 14.7039C41.0752 14.7251 41.092 14.7486 41.1082 14.7751C41.1166 14.7868 41.1225 14.7979 41.1309 14.8096C41.1589 14.8581 41.1838 14.909 41.2027 14.9644L41.2075 14.9814C41.2095 14.9851 41.2089 14.9881 41.2103 14.9947C41.2112 15.0044 41.2141 15.0177 41.2144 15.0304C41.2153 15.04 41.2162 15.0497 41.2171 15.0593C41.2174 15.0719 41.2172 15.0876 41.2175 15.1002L41.2141 15.1776Z" fill="#453890"/>
<path d="M41.1973 14.9581L33.4908 21.5641L32.9905 21.9919C32.7413 22.2077 32.3895 22.2068 32.1317 21.9907L31.6211 21.56L23.7466 14.9296C23.7522 14.8841 23.7609 14.8364 23.774 14.793C23.8113 14.6592 23.8795 14.5435 23.969 14.4556L23.972 14.4533L24.004 14.4215C24.1095 14.3318 24.2377 14.2766 24.3793 14.2785L40.538 14.3042C40.5535 14.3054 40.5696 14.3036 40.5846 14.3078C40.5877 14.3055 40.5902 14.3062 40.5921 14.3098C40.6077 14.311 40.6232 14.3122 40.6357 14.3157C40.6382 14.3164 40.6432 14.3178 40.6457 14.3185C40.6582 14.322 40.6707 14.3255 40.6832 14.329C40.6857 14.3297 40.6907 14.3311 40.6932 14.3318C40.7082 14.3359 40.7232 14.3401 40.7377 14.3473C40.7527 14.3515 40.7672 14.3586 40.7792 14.3651C40.7986 14.3737 40.8175 14.3852 40.8365 14.3968C40.8459 14.4025 40.8579 14.409 40.8674 14.4148C40.8838 14.4256 40.9022 14.4402 40.9181 14.454L40.9518 14.4853C40.9543 14.486 40.9538 14.489 40.9563 14.4897C40.9652 14.4985 40.9741 14.5072 40.9805 14.5153C40.9875 14.5204 40.9939 14.5284 40.9978 14.5358C41.0152 14.5563 41.0344 14.5805 41.0487 14.6033C41.0546 14.6143 41.063 14.626 41.0689 14.6371C41.0974 14.6826 41.1204 14.7298 41.1398 14.7822C41.1451 14.7963 41.1505 14.8103 41.1553 14.8273C41.1553 14.8273 41.1553 14.8273 41.1548 14.8303C41.1635 14.8547 41.1697 14.8783 41.1734 14.9013C41.1763 14.9146 41.1797 14.925 41.18 14.9376C41.1925 14.9411 41.1939 14.9478 41.1973 14.9581Z" fill="#A490FF"/>
</g>
<defs>
<filter id="filter0_d" x="14.7354" y="11.2549" width="25.5382" height="20.5053" filterUnits="userSpaceOnUse" color-interpolation-filters="sRGB">
<feFlood flood-opacity="0" result="BackgroundImageFix"/>
<feColorMatrix in="SourceAlpha" type="matrix" values="0 0 0 0 0 0 0 0 0 0 0 0 0 0 0 0 0 0 127 0"/>
<feOffset dy="4"/>
<feGaussianBlur stdDeviation="2"/>
<feColorMatrix type="matrix" values="0 0 0 0 0 0 0 0 0 0 0 0 0 0 0 0 0 0 0.25 0"/>
<feBlend mode="normal" in2="BackgroundImageFix" result="effect1_dropShadow"/>
<feBlend mode="normal" in="SourceGraphic" in2="effect1_dropShadow" result="shape"/>
</filter>
<filter id="filter1_d" x="19.7471" y="14.2771" width="25.6115" height="20.5578" filterUnits="userSpaceOnUse" color-interpolation-filters="sRGB">
<feFlood flood-opacity="0" result="BackgroundImageFix"/>
<feColorMatrix in="SourceAlpha" type="matrix" values="0 0 0 0 0 0 0 0 0 0 0 0 0 0 0 0 0 0 127 0"/>
<feOffset dy="4"/>
<feGaussianBlur stdDeviation="2"/>
<feColorMatrix type="matrix" values="0 0 0 0 0 0 0 0 0 0 0 0 0 0 0 0 0 0 0.25 0"/>
<feBlend mode="normal" in2="BackgroundImageFix" result="effect1_dropShadow"/>
<feBlend mode="normal" in="SourceGraphic" in2="effect1_dropShadow" result="shape"/>
</filter>
<linearGradient id="paint0_linear" x1="17.7861" y1="27.8361" x2="26.7229" y2="0.985404" gradientUnits="userSpaceOnUse">
<stop stop-color="#09005D"/>
<stop offset="1" stop-color="#1A0F91"/>
</linearGradient>
<linearGradient id="paint1_linear" x1="2.8492" y1="17.8502" x2="2.97616" y2="17.8502" gradientUnits="userSpaceOnUse">
<stop stop-color="#DAE3FE"/>
<stop offset="1" stop-color="#E9EFFD"/>
</linearGradient>
<linearGradient id="paint2_linear" x1="2.72529" y1="10.8383" x2="15.6868" y2="10.8383" gradientUnits="userSpaceOnUse">
<stop stop-color="#DAE3FE"/>
<stop offset="1" stop-color="#E9EFFD"/>
</linearGradient>
<linearGradient id="paint3_linear" x1="37.7691" y1="25.8652" x2="-0.562093" y2="35.203" gradientUnits="userSpaceOnUse">
<stop stop-color="#09005D"/>
<stop offset="1" stop-color="#1A0F91"/>
</linearGradient>
<linearGradient id="paint4_linear" x1="10.7224" y1="29.8732" x2="18.2267" y2="18.6385" gradientUnits="userSpaceOnUse">
<stop stop-color="#A22B25"/>
<stop offset="1" stop-color="#C0423C"/>
</linearGradient>
<linearGradient id="paint5_linear" x1="14.2916" y1="30.8193" x2="11.2994" y2="38.072" gradientUnits="userSpaceOnUse">
<stop stop-color="#09005D"/>
<stop offset="1" stop-color="#1A0F91"/>
</linearGradient>
<linearGradient id="paint6_linear" x1="25.6524" y1="14.2307" x2="18.7637" y2="21.5949" gradientUnits="userSpaceOnUse">
<stop stop-color="#A22B25"/>
<stop offset="1" stop-color="#C0423C"/>
</linearGradient>
<linearGradient id="paint7_linear" x1="13.1283" y1="32.7105" x2="8.73039" y2="39.2092" gradientUnits="userSpaceOnUse">
<stop stop-color="#09005D"/>
<stop offset="1" stop-color="#1A0F91"/>
</linearGradient>
<linearGradient id="paint8_linear" x1="8.92442" y1="22.2585" x2="3.45594" y2="28.2604" gradientUnits="userSpaceOnUse">
<stop stop-color="#D1C7FF"/>
<stop offset="1" stop-color="#9D6CDD"/>
</linearGradient>
<linearGradient id="paint9_linear" x1="7.7729" y1="14.1273" x2="4.88226" y2="17.4694" gradientUnits="userSpaceOnUse">
<stop stop-color="#09005D"/>
<stop offset="1" stop-color="#1A0F91"/>
</linearGradient>
<linearGradient id="paint10_linear" x1="2.7523" y1="27.2814" x2="5.36452" y2="20.7037" gradientUnits="userSpaceOnUse">
<stop stop-color="#5127AC"/>
<stop offset="1" stop-color="#9D6CDD"/>
</linearGradient>
<linearGradient id="paint11_linear" x1="3.49805" y1="24.8365" x2="-3.1361" y2="24.8365" gradientUnits="userSpaceOnUse">
<stop stop-color="#A22B25"/>
<stop offset="1" stop-color="#C0423C"/>
</linearGradient>
<linearGradient id="paint12_linear" x1="6.15395" y1="18.5813" x2="8.69808" y2="14.1396" gradientUnits="userSpaceOnUse">
<stop stop-color="#A22B25"/>
<stop offset="1" stop-color="#C0423C"/>
</linearGradient>
<linearGradient id="paint13_linear" x1="-326.049" y1="298.339" x2="-322.842" y2="295.63" gradientUnits="userSpaceOnUse">
<stop stop-color="#A22B25"/>
<stop offset="1" stop-color="#C0423C"/>
</linearGradient>
<linearGradient id="paint14_linear" x1="9.57923" y1="16.5231" x2="5.53739" y2="17.3353" gradientUnits="userSpaceOnUse">
<stop stop-color="#09005D"/>
<stop offset="1" stop-color="#1A0F91"/>
</linearGradient>
<linearGradient id="paint15_linear" x1="-326.586" y1="297.697" x2="-323.379" y2="294.988" gradientUnits="userSpaceOnUse">
<stop stop-color="#A22B25"/>
<stop offset="1" stop-color="#C0423C"/>
</linearGradient>
<linearGradient id="paint16_linear" x1="3.80246" y1="24.7598" x2="7.22088" y2="25.8826" gradientUnits="userSpaceOnUse">
<stop stop-color="#09005D"/>
<stop offset="1" stop-color="#1A0F91"/>
</linearGradient>
<linearGradient id="paint17_linear" x1="12.8096" y1="24.202" x2="-18.4035" y2="21.5719" gradientUnits="userSpaceOnUse">
<stop stop-color="#09005D"/>
<stop offset="1" stop-color="#1A0F91"/>
</linearGradient>
</defs>
</svg>
