<svg width="34" height="30" viewBox="0 0 34 30" fill="none" xmlns="http://www.w3.org/2000/svg">
<path opacity="0.2" d="M25.1368 13.9874V13.9838C25.1368 13.9765 25.1368 13.9691 25.1368 13.9655C25.1368 13.9582 25.1368 13.9509 25.1368 13.9436V13.9399C25.1368 13.9362 25.1368 13.9326 25.1368 13.9289C25.1368 13.9216 25.1368 13.9107 25.1331 13.9033C25.1331 13.8997 25.1331 13.8997 25.1331 13.896V13.8924C25.1331 13.8814 25.1331 13.8741 25.1294 13.8668C25.1294 13.8631 25.1294 13.8558 25.1258 13.8522C25.1258 13.8485 25.1257 13.8448 25.1221 13.8412C25.1221 13.8412 25.1221 13.8412 25.1221 13.8375C25.1221 13.8339 25.1221 13.8339 25.1221 13.8302V13.8266C25.1221 13.8229 25.1184 13.8193 25.1184 13.8156C25.1184 13.8083 25.1147 13.8046 25.1147 13.7973C25.111 13.7864 25.111 13.779 25.1074 13.7681C25.1074 13.7644 25.1037 13.7608 25.1037 13.7571C25.1037 13.7534 25.1037 13.7534 25.1 13.7498C25.0963 13.7425 25.0963 13.7388 25.0927 13.7315C25.0927 13.7242 25.089 13.7169 25.0853 13.7132C25.0816 13.7023 25.0779 13.6913 25.0706 13.6803C25.0706 13.6767 25.0706 13.6767 25.0669 13.673L25.0228 13.5707L25.0081 13.5341L20.5802 3.30126L20.6059 3.25739C20.5986 3.24642 20.5949 3.23911 20.5876 3.2318C20.5802 3.22083 20.5728 3.20987 20.5655 3.1989C20.5508 3.17696 20.5324 3.15503 20.514 3.13675C20.5066 3.12944 20.4993 3.12212 20.4919 3.11481C20.4883 3.11116 20.4846 3.10385 20.4846 3.10019C20.4772 3.09288 20.4735 3.08191 20.4662 3.0746C20.4588 3.06363 20.4515 3.05632 20.4441 3.04535C20.4294 3.02342 20.411 3.00514 20.3926 2.98686C20.3816 2.97589 20.3706 2.96492 20.3559 2.95395C20.3117 2.91374 20.2639 2.87718 20.2161 2.84793C20.2051 2.84062 20.1904 2.83331 20.1793 2.826C20.1499 2.81137 20.1242 2.79675 20.0948 2.78578C20.0837 2.78213 20.0764 2.77847 20.0653 2.77482C20.0506 2.77116 20.0396 2.7675 20.0249 2.76019C20.0212 2.76019 20.0212 2.76019 20.0175 2.76019L19.9624 2.74191C19.9403 2.73826 19.9145 2.73094 19.8888 2.73094C19.8741 2.72729 19.8594 2.72729 19.8484 2.72729C19.8226 2.72363 19.7969 2.72363 19.7711 2.72363C19.7527 2.72363 19.7343 2.72729 19.716 2.72729C19.6976 2.72729 19.6792 2.73094 19.6571 2.7346C19.6534 2.7346 19.6498 2.7346 19.6461 2.73826C19.6314 2.74191 19.613 2.74557 19.5983 2.74922C19.5946 2.74922 19.5909 2.74922 19.5872 2.75288C19.5689 2.75654 19.5505 2.76385 19.5321 2.7675C19.5284 2.7675 19.5247 2.7675 19.521 2.77116C19.5027 2.77847 19.4843 2.78213 19.4659 2.79309L0.886495 10.741C0.724679 10.8105 0.595962 10.9238 0.511376 11.0627L0.485633 11.1102C0.481955 11.1139 0.481955 11.1139 0.481955 11.1139C0.415758 11.2419 0.382659 11.3881 0.393692 11.5343C0.39737 11.5819 0.404725 11.6294 0.415758 11.6769C0.415758 11.6842 0.419436 11.6915 0.423113 11.6988C0.423113 11.7098 0.423113 11.7171 0.423113 11.7281C0.426791 11.7793 0.434146 11.8305 0.448857 11.878L0.496666 11.8889L4.98705 22.2644C4.99073 22.2717 4.99441 22.279 4.99808 22.2863C5.00544 22.3046 5.01647 22.3229 5.0275 22.3411C5.03118 22.3521 5.03854 22.3594 5.04589 22.3704C5.05693 22.385 5.06428 22.4033 5.07531 22.4179C5.07899 22.4252 5.08635 22.4325 5.0937 22.4398C5.10474 22.4581 5.11945 22.4727 5.13416 22.4874C5.13783 22.491 5.14519 22.4983 5.14887 22.502C5.16358 22.5203 5.18197 22.5349 5.20035 22.5495C5.20403 22.5495 5.20403 22.5532 5.20771 22.5568C5.21506 22.5641 5.22242 22.5678 5.22977 22.5751C5.23345 22.5788 5.23713 22.5824 5.24081 22.5861C5.24816 22.5934 5.2592 22.6007 5.26655 22.6044C5.27391 22.608 5.27758 22.6117 5.28494 22.6153C5.29229 22.619 5.29965 22.6263 5.307 22.6299C5.32172 22.6409 5.3401 22.6482 5.35481 22.6592C5.36217 22.6628 5.36585 22.6665 5.3732 22.6702C5.38424 22.6738 5.39159 22.6811 5.40262 22.6848C5.4063 22.6884 5.41366 22.6884 5.41733 22.6921C5.43572 22.6994 5.45779 22.7067 5.47985 22.714C5.48721 22.7177 5.49824 22.7213 5.5056 22.7213C5.53502 22.7287 5.56444 22.736 5.59386 22.7433C5.60122 22.7433 5.60857 22.7469 5.61593 22.7469C5.63799 22.7506 5.66373 22.7542 5.6858 22.7542C5.69683 22.7542 5.70787 22.7542 5.71522 22.7542C5.73729 22.7542 5.76303 22.7542 5.7851 22.7542C5.78877 22.7542 5.79613 22.7542 5.79981 22.7542C5.80348 22.7542 5.81084 22.7542 5.81452 22.7542C5.85497 22.7506 5.89543 22.7433 5.93588 22.7323C5.94323 22.7287 5.95427 22.7287 5.96162 22.725C5.99472 22.7177 6.02414 22.7067 6.05356 22.6921C6.05724 22.6921 6.06092 22.6921 6.06092 22.6884L6.10137 22.6702L24.5998 14.7588L24.6403 14.7405C24.655 14.7332 24.666 14.7296 24.6808 14.7223C24.6881 14.7186 24.6991 14.7149 24.7065 14.7076C24.7102 14.7076 24.7102 14.704 24.7139 14.704C24.7139 14.704 24.7175 14.704 24.7175 14.7003C24.7212 14.7003 24.7249 14.6967 24.7286 14.693C24.7322 14.693 24.7322 14.6894 24.7359 14.6894C24.7396 14.6857 24.7433 14.682 24.7506 14.6784C24.758 14.6747 24.7617 14.6711 24.769 14.6674C24.7727 14.6638 24.7801 14.6601 24.7837 14.6565C24.7911 14.6528 24.7984 14.6455 24.8058 14.6418C24.8132 14.6382 24.8168 14.6309 24.8242 14.6272C24.8352 14.6162 24.8499 14.6089 24.861 14.598C24.8646 14.5943 24.8646 14.5943 24.8683 14.5906C24.872 14.587 24.872 14.587 24.8757 14.5833L24.8793 14.5797C24.8867 14.5724 24.8904 14.5687 24.8977 14.5614C24.9014 14.5577 24.9088 14.5504 24.9124 14.5468C24.9235 14.5322 24.9382 14.5212 24.9492 14.5066C24.9566 14.4993 24.9603 14.4919 24.9676 14.4846C24.9713 14.481 24.975 14.4737 24.9786 14.47C24.9823 14.4663 24.986 14.4627 24.9897 14.4554C24.9934 14.4481 24.997 14.4444 25.0007 14.4371C25.0007 14.4334 25.0044 14.4334 25.0044 14.4298C25.0081 14.4225 25.0117 14.4188 25.0154 14.4115C25.0191 14.4042 25.0265 14.3969 25.0301 14.3896L25.0338 14.3859C25.0375 14.3823 25.0375 14.375 25.0412 14.3713C25.0448 14.364 25.0485 14.3567 25.0522 14.3494C25.0522 14.3457 25.0559 14.3457 25.0559 14.342C25.0559 14.3384 25.0596 14.3384 25.0596 14.3347C25.0632 14.3274 25.0669 14.3238 25.0669 14.3165C25.0706 14.3128 25.0706 14.3055 25.0743 14.3018C25.0743 14.2982 25.0743 14.2982 25.0779 14.2945C25.0816 14.2872 25.0853 14.2762 25.089 14.2689C25.0927 14.2616 25.0963 14.2543 25.0963 14.247C25.1 14.2397 25.1 14.2324 25.1037 14.2251C25.1074 14.2141 25.111 14.2031 25.1147 14.1922C25.1184 14.1812 25.1221 14.1702 25.1258 14.1593C25.1258 14.1519 25.1294 14.1446 25.1294 14.1373C25.1331 14.1264 25.1331 14.1117 25.1368 14.1008C25.1368 14.0934 25.1368 14.0861 25.1405 14.0825C25.1405 14.0752 25.1405 14.0715 25.1441 14.0642C25.1441 14.0569 25.1441 14.0496 25.1441 14.0459C25.1441 14.0313 25.1441 14.0167 25.1441 13.9984C25.1368 13.9984 25.1368 13.9947 25.1368 13.9874Z" fill="#3A7EC1"/>
<path d="M12.993 12.4191C12.9783 12.463 12.9563 12.5068 12.9268 12.5507L12.2134 13.5597L6.20781 22.0707L6.16735 22.0889C6.09012 22.1218 6.01289 22.1401 5.93566 22.1511C5.92463 22.1511 5.9136 22.1547 5.90256 22.1547C5.76649 22.1657 5.62674 22.1401 5.50538 22.0853C5.49435 22.0816 5.48331 22.0743 5.4686 22.067C5.4355 22.0487 5.40241 22.0304 5.36931 22.0048C5.35827 21.9975 5.34724 21.9902 5.33621 21.9829C5.32518 21.9756 5.31414 21.9646 5.30679 21.9573C5.21485 21.8805 5.14129 21.7818 5.09349 21.6649L0.566324 11.209C0.547936 11.1651 0.533225 11.1213 0.522193 11.0774C0.51116 11.0299 0.503804 10.9823 0.500127 10.9348C0.492771 10.7886 0.522193 10.6423 0.58839 10.5144C0.58839 10.5144 0.58839 10.5107 0.592067 10.5107L0.617811 10.4632C0.702396 10.3243 0.831113 10.2109 0.992929 10.1415L1.16578 10.0684L2.1808 10.2183L11.5477 11.5929L11.9008 11.644L12.5738 11.7428C12.6253 11.7501 12.6694 11.7647 12.7135 11.783C12.9599 11.889 13.0813 12.1705 12.993 12.4191Z" fill="#4F52FF"/>
<path d="M20.6491 2.61391L25.1763 13.0697C25.18 13.0807 25.1873 13.0953 25.191 13.11C25.1947 13.1173 25.1947 13.1209 25.1984 13.1282C25.202 13.1356 25.202 13.1392 25.2057 13.1465C25.2057 13.1502 25.2057 13.1502 25.2094 13.1538C25.2094 13.1575 25.2131 13.1611 25.2131 13.1648C25.2168 13.1758 25.2168 13.1831 25.2204 13.194C25.2241 13.2014 25.2241 13.2123 25.2278 13.2233V13.227C25.2278 13.2306 25.2278 13.2343 25.2278 13.2379C25.2278 13.2416 25.2315 13.2452 25.2315 13.2489C25.2315 13.2525 25.2315 13.2599 25.2351 13.2635C25.2351 13.2708 25.2388 13.2818 25.2388 13.2891V13.2928C25.2388 13.3074 25.2425 13.322 25.2425 13.3366V13.3403C25.2425 13.3476 25.2425 13.3549 25.2425 13.3622C25.2425 13.3695 25.2425 13.3768 25.2425 13.3805C25.2425 13.3842 25.2425 13.3842 25.2425 13.3878C25.2425 13.4061 25.2425 13.428 25.2425 13.4463C25.2425 13.4536 25.2425 13.4573 25.2425 13.4646C25.2425 13.4719 25.2388 13.4792 25.2388 13.4829C25.2388 13.4902 25.2388 13.4975 25.2351 13.5011C25.2315 13.5121 25.2315 13.5267 25.2278 13.5414C25.2278 13.5487 25.2241 13.556 25.2241 13.5633C25.2204 13.5816 25.2168 13.5999 25.2094 13.6145C25.2057 13.6291 25.202 13.6401 25.1984 13.651C25.1947 13.662 25.191 13.6766 25.1837 13.6876C25.1837 13.6949 25.18 13.6986 25.1763 13.7059C25.1763 13.7132 25.1726 13.7168 25.1689 13.7205C25.1653 13.7278 25.1653 13.7315 25.1616 13.7388C25.1616 13.7424 25.1579 13.7424 25.1579 13.7461C25.1506 13.7607 25.1432 13.7753 25.1359 13.79L25.1322 13.7936C25.1248 13.8046 25.1175 13.8156 25.1101 13.8265C25.1064 13.8302 25.1064 13.8338 25.1028 13.8375C25.0991 13.8411 25.0954 13.8485 25.0917 13.8558C25.088 13.8594 25.0844 13.8667 25.0807 13.8704C25.077 13.874 25.0733 13.8814 25.0697 13.885C25.0439 13.9179 25.0145 13.9508 24.9851 13.9801C24.9814 13.9837 24.9814 13.9837 24.9814 13.9837C24.9777 13.9874 24.9777 13.9874 24.974 13.991C24.9667 13.9983 24.9593 14.0057 24.952 14.0093C24.9409 14.0203 24.9262 14.0312 24.9115 14.0422C24.9042 14.0495 24.8968 14.0532 24.8895 14.0568C24.8858 14.0605 24.8784 14.0642 24.8747 14.0642C24.8711 14.0678 24.8637 14.0715 24.8563 14.0751C24.8527 14.0788 24.8453 14.0824 24.8416 14.0861C24.838 14.0861 24.838 14.0897 24.8343 14.0897C24.8306 14.0934 24.8269 14.0934 24.8233 14.0971C24.8196 14.0971 24.8196 14.1007 24.8159 14.1007C24.8085 14.1044 24.7975 14.1117 24.7902 14.1153C24.7791 14.1226 24.7644 14.13 24.7497 14.1336L24.7092 14.1519L14.3641 12.6347L13.1357 12.4556C13.0842 12.4482 13.0364 12.4336 12.996 12.4153C12.7533 12.3057 12.6319 12.0278 12.7202 11.7756C12.7349 11.7317 12.7569 11.6878 12.7864 11.6476L13.1762 11.0956L13.3821 10.8068L18.814 3.10014L19.4024 2.26294L19.5753 2.18982C19.5937 2.18251 19.612 2.1752 19.6304 2.16789C19.6341 2.16423 19.6378 2.16423 19.6415 2.16423C19.6599 2.15692 19.6782 2.15326 19.6966 2.14961C19.7003 2.14961 19.704 2.14595 19.7077 2.14595C19.7224 2.1423 19.7408 2.13864 19.7555 2.13498C19.7592 2.13498 19.7628 2.13133 19.7665 2.13133C19.7849 2.12767 19.807 2.12402 19.8253 2.12402C19.8437 2.12036 19.8621 2.12036 19.8805 2.12036C19.9063 2.12036 19.932 2.12036 19.9577 2.12402C19.9725 2.12402 19.9872 2.12402 19.9982 2.12767C20.0239 2.13133 20.046 2.13498 20.0718 2.13864L20.1232 2.15326C20.1269 2.15326 20.1269 2.15326 20.1306 2.15326C20.1453 2.15692 20.1563 2.16058 20.171 2.16789C20.1784 2.17154 20.1894 2.1752 20.2005 2.17886C20.2299 2.18982 20.2593 2.20445 20.2851 2.21907C20.2961 2.22638 20.3108 2.23369 20.3218 2.24101C20.3696 2.27025 20.4174 2.30681 20.4616 2.34703C20.4726 2.35799 20.4836 2.36896 20.4984 2.37993C20.5167 2.39821 20.5351 2.41649 20.5498 2.43842C20.5572 2.44939 20.5646 2.46036 20.5719 2.46767C20.5793 2.47498 20.5829 2.48229 20.5903 2.49326C20.5977 2.50057 20.6013 2.50789 20.605 2.51885C20.6124 2.52982 20.616 2.54079 20.6234 2.5481C20.6271 2.55541 20.6344 2.56638 20.6381 2.57369C20.6381 2.58832 20.6455 2.60294 20.6491 2.61391Z" fill="#4F52FF"/>
<path opacity="0.25" d="M25.1146 12.9271L25.1624 13.0368C25.3499 13.4682 25.1624 13.9617 24.7468 14.1409L6.16741 22.0888C5.75184 22.2679 5.26271 22.0595 5.07515 21.6281L5.02734 21.5184L11.8788 11.1796C12.0921 10.8579 12.4709 10.697 12.8497 10.7628L25.1146 12.9271Z" fill="#474747"/>
<path d="M25.1331 12.9674L25.1772 13.0697C25.3574 13.4828 25.1625 13.9618 24.747 14.1409L6.16758 22.0888C5.752 22.2679 5.27023 22.0742 5.09003 21.6611L5.0459 21.5587L12.0113 11.4831C12.2283 11.1687 12.6071 11.0078 12.9822 11.0663L25.1331 12.9674Z" fill="#4F52FF"/>
<path opacity="0.25" d="M20.6948 2.62852C20.6874 2.61755 20.6801 2.60658 20.6727 2.59561C20.658 2.57368 20.6396 2.55174 20.6212 2.53346C20.6102 2.51884 20.5955 2.50787 20.5845 2.4969C20.5403 2.45303 20.4925 2.41647 20.441 2.38357C20.43 2.37626 20.4153 2.36895 20.4006 2.36164C20.3712 2.34701 20.3417 2.33239 20.3123 2.31777C20.3013 2.31411 20.2939 2.31045 20.2829 2.3068C20.2682 2.29949 20.2572 2.29583 20.2425 2.29217C20.2388 2.29217 20.2388 2.29217 20.2351 2.29217L20.1836 2.27755C20.1579 2.27024 20.1358 2.26658 20.1101 2.26293C20.0953 2.25927 20.0806 2.25927 20.0696 2.25927C20.0439 2.25562 20.0181 2.25562 19.9924 2.25562C19.974 2.25562 19.9556 2.25562 19.9372 2.25927C19.9188 2.25927 19.8968 2.26293 19.8784 2.26658C19.8747 2.26658 19.871 2.26658 19.8673 2.27024C19.8526 2.27389 19.8342 2.27389 19.8195 2.27755C19.8158 2.27755 19.8122 2.27755 19.8085 2.28121C19.7901 2.28486 19.7717 2.29217 19.7533 2.29583C19.7496 2.29583 19.746 2.29583 19.7423 2.29949C19.7239 2.3068 19.7055 2.31045 19.6871 2.32142L1.0158 10.3059C0.853989 10.3753 0.725272 10.4923 0.640687 10.6386L0.614943 10.6861C0.611266 10.6898 0.611266 10.6898 0.611266 10.6898C0.545068 10.8214 0.515647 10.9749 0.52668 11.1285C0.530358 11.1796 0.537713 11.2308 0.552424 11.2784L0.670108 11.3076L12.4348 14.0861L13.2035 14.2689C13.5896 14.3603 13.9978 14.1848 14.1964 13.8448L14.5936 13.1611L20.6507 2.76013L20.7132 2.65411C20.7058 2.64314 20.7022 2.63583 20.6948 2.62852Z" fill="#474747"/>
<path d="M20.5837 2.49326L14.3611 12.642L13.9566 13.3001C13.7543 13.6291 13.3498 13.8046 12.971 13.7205L12.2134 13.5596L0.522193 11.0773C0.51116 11.0298 0.503804 10.9822 0.500127 10.9347C0.492771 10.7885 0.522193 10.6422 0.58839 10.5143C0.58839 10.5143 0.58839 10.5106 0.592067 10.5106L0.617811 10.4631C0.702396 10.3242 0.831113 10.2108 0.992929 10.1414L19.576 2.18982C19.5944 2.18251 19.6128 2.1752 19.6312 2.16789C19.6348 2.16423 19.6385 2.16423 19.6422 2.16423C19.6606 2.15692 19.679 2.15326 19.6974 2.14961C19.701 2.14961 19.7047 2.14595 19.7084 2.14595C19.7231 2.1423 19.7415 2.13864 19.7562 2.13498C19.7599 2.13498 19.7636 2.13133 19.7672 2.13133C19.7856 2.12767 19.8077 2.12402 19.8261 2.12402C19.8445 2.12036 19.8628 2.12036 19.8812 2.12036C19.907 2.12036 19.9327 2.12036 19.9585 2.12402C19.9732 2.12402 19.9879 2.12402 19.9989 2.12767C20.0247 2.13133 20.0467 2.13498 20.0725 2.13864L20.124 2.15326C20.1276 2.15326 20.1276 2.15326 20.1313 2.15326C20.146 2.15692 20.1571 2.16058 20.1718 2.16789C20.1791 2.17154 20.1902 2.1752 20.2012 2.17886C20.2306 2.18982 20.26 2.20445 20.2858 2.21907C20.2968 2.22638 20.3115 2.23369 20.3226 2.24101C20.3704 2.27025 20.4182 2.30681 20.4623 2.34703C20.4733 2.35799 20.4844 2.36896 20.4991 2.37993C20.5175 2.39821 20.5359 2.41649 20.5506 2.43842C20.5579 2.44939 20.5653 2.46036 20.5726 2.46767C20.5726 2.47864 20.58 2.48595 20.5837 2.49326Z" fill="#4F52FF"/>
<path opacity="0.2" d="M31.6382 16.7551C31.6382 16.7441 31.6382 16.7332 31.6382 16.7259C31.6382 16.7149 31.6382 16.7076 31.6345 16.6966C31.6345 16.682 31.6308 16.671 31.6308 16.6601C31.6272 16.6345 31.6235 16.6089 31.6161 16.5833C31.6161 16.5833 31.6161 16.5833 31.6161 16.5796C31.6125 16.565 31.6088 16.5467 31.6014 16.5321C31.583 16.4736 31.561 16.4224 31.5279 16.3712C31.5205 16.3603 31.5132 16.3456 31.5058 16.3347C31.4874 16.3091 31.469 16.2835 31.447 16.2579C31.4396 16.2506 31.4323 16.2433 31.4249 16.236C31.4175 16.225 31.4065 16.214 31.3955 16.2067L31.3918 16.2031L31.3513 16.1665L30.2113 15.1063L30.6232 11.1177C30.7078 10.3025 30.112 9.57494 29.2919 9.49085L23.5364 8.90226L21.9477 7.41431C21.6718 7.1584 21.2563 7.11453 20.9326 7.31194L19.0717 8.43796L13.0441 7.82377C12.224 7.73968 11.4922 8.33194 11.4076 9.1472L10.9736 13.3405L9.93284 13.9693L9.88503 13.9986C9.88135 13.9986 9.88135 14.0022 9.87767 14.0022C9.75631 14.0827 9.65334 14.196 9.58714 14.3313C9.54669 14.4153 9.51727 14.5104 9.50991 14.6091L8.33307 26.0082L8.32939 26.0593L8.32572 26.0886L8.32204 26.1252C8.31836 26.1471 8.31836 26.169 8.31836 26.1873C8.31836 26.191 8.31836 26.1983 8.31836 26.2019C8.31836 26.2056 8.31836 26.2092 8.31836 26.2129C8.31836 26.2165 8.31836 26.2165 8.31836 26.2202C8.31836 26.2239 8.31836 26.2239 8.31836 26.2275C8.31836 26.2385 8.31836 26.2531 8.31836 26.2641C8.31836 26.2677 8.31836 26.2677 8.31836 26.2714C8.31836 26.275 8.31836 26.2824 8.31836 26.286C8.31836 26.2897 8.31836 26.297 8.31836 26.3006C8.31836 26.3043 8.31836 26.3079 8.31836 26.3079C8.31836 26.3116 8.31836 26.3116 8.31836 26.3153C8.31836 26.3299 8.32204 26.3445 8.32572 26.3555C8.32572 26.3591 8.32572 26.3628 8.32572 26.3628C8.32572 26.3701 8.32939 26.3738 8.32939 26.3811C8.32939 26.3884 8.33307 26.392 8.33307 26.3993C8.33675 26.414 8.34043 26.4286 8.3441 26.4432C8.34778 26.4542 8.35146 26.4615 8.35514 26.4725C8.35514 26.4761 8.35881 26.4798 8.35881 26.4871C8.36249 26.4981 8.36985 26.5127 8.37352 26.5236C8.37352 26.5273 8.37352 26.5273 8.3772 26.531C8.3772 26.5346 8.38088 26.5346 8.38088 26.5383C8.38456 26.5456 8.38823 26.5529 8.39191 26.5602C8.39191 26.5639 8.39559 26.5675 8.39559 26.5675C8.40295 26.5821 8.4103 26.5931 8.41766 26.6077C8.41766 26.6114 8.42133 26.615 8.42133 26.615C8.42869 26.6297 8.43604 26.6406 8.4434 26.6516C8.44708 26.6589 8.45075 26.6626 8.45443 26.6699C8.46179 26.6772 8.46546 26.6882 8.47282 26.6955C8.4765 26.6991 8.4765 26.7028 8.48017 26.7064C8.49121 26.7211 8.50224 26.7357 8.51695 26.7503C8.52063 26.754 8.52431 26.7613 8.52798 26.7649C8.53166 26.7722 8.53902 26.7759 8.54269 26.7832C8.56476 26.8051 8.58683 26.8271 8.60889 26.8454C8.61257 26.849 8.61625 26.8527 8.61993 26.8563C8.62728 26.86 8.63096 26.8673 8.63831 26.871C8.64935 26.8783 8.6567 26.8856 8.66773 26.8929C8.67509 26.8965 8.68244 26.9002 8.68612 26.9039C8.69348 26.9075 8.70083 26.9148 8.70819 26.9185C8.71554 26.9221 8.7229 26.9258 8.73025 26.9331C8.74129 26.9404 8.756 26.9441 8.76703 26.9514C8.77071 26.9514 8.77071 26.955 8.77439 26.955C8.77806 26.9587 8.78174 26.9587 8.7891 26.9624C8.79645 26.966 8.80013 26.966 8.80748 26.9697C8.81116 26.9697 8.81484 26.9733 8.81852 26.9733C8.83323 26.9806 8.85162 26.9843 8.86633 26.9916C8.87 26.9916 8.87368 26.9953 8.88104 26.9953C8.88471 26.9953 8.88471 26.9953 8.88839 26.9989C8.89207 26.9989 8.89575 26.9989 8.89943 27.0026C8.91046 27.0062 8.92149 27.0099 8.92885 27.0099C8.92885 27.0099 8.92885 27.0099 8.93252 27.0099C8.9362 27.0099 8.9362 27.0099 8.93988 27.0135C8.94356 27.0135 8.94723 27.0135 8.94723 27.0172C8.95459 27.0172 8.95827 27.0208 8.96562 27.0208C8.9693 27.0208 8.97298 27.0208 8.97298 27.0245C8.97666 27.0245 8.97665 27.0245 8.98033 27.0245C8.99137 27.0245 9.0024 27.0282 9.00975 27.0282C9.02446 27.0318 9.03917 27.0318 9.05389 27.0355L9.09802 27.0391L29.5162 29.1266C29.5309 29.1266 29.5456 29.1303 29.5603 29.1303C29.5714 29.1303 29.5824 29.1303 29.5898 29.1303C29.5934 29.1303 29.5971 29.1303 29.5971 29.1303C29.6008 29.1303 29.6082 29.1303 29.6118 29.1303C29.6155 29.1303 29.6155 29.1303 29.6192 29.1303C29.6265 29.1303 29.6302 29.1303 29.6376 29.1303C29.6376 29.1303 29.6376 29.1303 29.6413 29.1303C29.6486 29.1303 29.656 29.1303 29.6633 29.1266C29.667 29.1266 29.6743 29.1266 29.6817 29.1266H29.6854C29.6927 29.1266 29.7001 29.123 29.7074 29.123C29.7258 29.1193 29.7405 29.1193 29.7589 29.1157C29.7626 29.1157 29.7663 29.1157 29.77 29.112C29.7736 29.112 29.781 29.1084 29.7847 29.1084C29.7884 29.1084 29.792 29.1084 29.792 29.1084C29.7957 29.1084 29.7957 29.1084 29.7994 29.1047C29.8104 29.101 29.8178 29.101 29.8251 29.0974C29.8325 29.0974 29.8362 29.0937 29.8435 29.0937C29.8619 29.0864 29.8803 29.0791 29.8987 29.0718C29.906 29.0681 29.9097 29.0681 29.9171 29.0645H29.9207C29.9281 29.0608 29.9318 29.0608 29.9391 29.0572C29.9465 29.0535 29.9502 29.0535 29.9538 29.0499C29.9612 29.0462 29.9649 29.0426 29.9722 29.0389C29.9759 29.0389 29.9759 29.0352 29.9796 29.0352C29.9833 29.0352 29.9869 29.0316 29.9869 29.0316C29.998 29.0279 30.0053 29.0206 30.0164 29.017L30.02 29.0133C30.0274 29.0096 30.0311 29.006 30.0384 29.0023C30.0458 28.9987 30.0495 28.995 30.0568 28.9914C30.0605 28.9914 30.0605 28.9877 30.0642 28.9877L30.0679 28.9841C30.0752 28.9804 30.0789 28.9767 30.0862 28.9731C30.0899 28.9694 30.0973 28.9658 30.101 28.9621C30.1046 28.9585 30.1083 28.9548 30.112 28.9548C30.1157 28.9512 30.1193 28.9475 30.123 28.9438C30.1304 28.9365 30.1377 28.9329 30.1451 28.9256C30.1524 28.9183 30.1598 28.9109 30.1672 28.9036C30.1708 28.9 30.1745 28.8963 30.1782 28.8927C30.1892 28.8817 30.2003 28.8707 30.2113 28.8598C30.215 28.8561 30.2186 28.8488 30.226 28.8451C30.2297 28.8415 30.2297 28.8378 30.2333 28.8342C30.2407 28.8269 30.2481 28.8195 30.2517 28.8086C30.2554 28.8049 30.2591 28.7976 30.2628 28.794C30.2664 28.7866 30.2701 28.783 30.2738 28.7793C30.2775 28.772 30.2812 28.7684 30.2848 28.761C30.2959 28.7464 30.3069 28.7281 30.3143 28.7099C30.3143 28.7099 30.3143 28.7062 30.3179 28.7062C30.3216 28.6989 30.3253 28.6952 30.329 28.6879C30.3326 28.6806 30.3363 28.6733 30.34 28.666C30.34 28.666 30.34 28.666 30.34 28.6623C30.3437 28.655 30.3437 28.6514 30.3474 28.6441C30.351 28.6404 30.351 28.6331 30.3547 28.6294C30.3547 28.6258 30.3584 28.6258 30.3584 28.6221V28.6185C30.3621 28.6112 30.3657 28.6038 30.3694 28.5929C30.3694 28.5892 30.3731 28.5856 30.3731 28.5783C30.3731 28.5746 30.3731 28.5746 30.3768 28.5709C30.3768 28.5673 30.3805 28.5636 30.3805 28.5636V28.56V28.5563C30.3841 28.549 30.3878 28.538 30.3878 28.5271C30.3915 28.5161 30.3915 28.5088 30.3952 28.4978C30.3952 28.4942 30.3988 28.4905 30.3988 28.4869C30.3988 28.4832 30.3988 28.4832 30.3988 28.4795C30.3988 28.4722 30.4025 28.4649 30.4025 28.4613C30.4025 28.454 30.4062 28.4466 30.4062 28.443C30.4099 28.4284 30.4099 28.4137 30.4136 28.3991L31.6051 16.8867C31.6051 16.8721 31.6088 16.8575 31.6088 16.8428C31.6088 16.8319 31.6088 16.8209 31.6088 16.8136C31.6382 16.777 31.6382 16.7661 31.6382 16.7551Z" fill="#3A7EC1"/>
<path d="M31.1384 16.2685L29.9506 27.7846C29.9506 27.7992 29.9469 27.8138 29.9432 27.8285C29.9432 27.8358 29.9395 27.8431 29.9395 27.8467C29.9395 27.854 29.9359 27.8577 29.9359 27.865C29.9359 27.8687 29.9359 27.8687 29.9359 27.8723C29.9359 27.876 29.9322 27.8796 29.9322 27.8833C29.9322 27.8943 29.9285 27.9016 29.9248 27.9125C29.9211 27.9235 29.9211 27.9308 29.9175 27.9418C29.9175 27.9454 29.9138 27.9491 29.9138 27.9564C29.9138 27.9601 29.9138 27.9637 29.9101 27.9674C29.9101 27.971 29.9064 27.9747 29.9064 27.982C29.9028 27.9893 29.8991 28.0003 29.8954 28.0076V28.0112C29.888 28.0259 29.8844 28.0405 29.877 28.0515C29.877 28.0515 29.877 28.0515 29.877 28.0551C29.8733 28.0624 29.8697 28.0697 29.866 28.0771C29.8623 28.0844 29.8586 28.088 29.8549 28.0953C29.8549 28.099 29.8513 28.099 29.8513 28.099C29.8402 28.1173 29.8329 28.1355 29.8218 28.1502C29.8182 28.1538 29.8145 28.1611 29.8108 28.1685C29.8071 28.1758 29.8035 28.1794 29.7998 28.1831C29.7961 28.1867 29.7924 28.194 29.7887 28.1977C29.7814 28.2087 29.774 28.2196 29.763 28.2306C29.7593 28.2379 29.752 28.2416 29.7483 28.2489C29.7336 28.2635 29.7225 28.2745 29.7078 28.2891C29.6968 28.3001 29.6895 28.3074 29.6784 28.3147C29.6674 28.322 29.66 28.333 29.649 28.3403C29.6453 28.3439 29.638 28.3476 29.6343 28.3512C29.6306 28.3549 29.6269 28.3586 29.6196 28.3622C29.6159 28.3659 29.6085 28.3695 29.6012 28.3732L29.5975 28.3768C29.5828 28.3878 29.5681 28.3951 29.5534 28.4061C29.5534 28.4061 29.5497 28.4061 29.5497 28.4097C29.5387 28.4171 29.5276 28.4244 29.5129 28.428C29.5092 28.4317 29.5056 28.4317 29.5019 28.4353C29.4945 28.439 29.4872 28.4426 29.4835 28.4463C29.4798 28.45 29.4725 28.45 29.4688 28.4536C29.4614 28.4573 29.4578 28.4609 29.4504 28.4609C29.41 28.4792 29.3695 28.4938 29.3254 28.5011C29.3217 28.5011 29.3217 28.5011 29.318 28.5048C29.3143 28.5048 29.3107 28.5048 29.3107 28.5048C29.2996 28.5085 29.2923 28.5085 29.2812 28.5121C29.2628 28.5158 29.2481 28.5194 29.2297 28.5194C29.2224 28.5194 29.2114 28.5231 29.204 28.5231C29.2003 28.5231 29.193 28.5231 29.1856 28.5231C29.1783 28.5231 29.1709 28.5231 29.1636 28.5267H29.1599C29.1562 28.5267 29.1488 28.5267 29.1415 28.5267C29.1378 28.5267 29.1378 28.5267 29.1341 28.5267C29.1305 28.5267 29.1231 28.5267 29.1194 28.5267C29.1157 28.5267 29.1157 28.5267 29.1121 28.5267C29.101 28.5267 29.09 28.5267 29.0826 28.5267C29.0679 28.5267 29.0532 28.5267 29.0385 28.5231L8.5725 26.4319C8.55779 26.4319 8.54308 26.4282 8.52837 26.4246C8.51734 26.4246 8.5063 26.4209 8.49895 26.4209C8.48792 26.4173 8.47688 26.4173 8.46585 26.4136C8.4585 26.4136 8.45114 26.41 8.44746 26.41C8.43275 26.4063 8.41436 26.4027 8.39965 26.3953C8.39598 26.3953 8.3923 26.3917 8.38494 26.3917C8.37023 26.3844 8.35184 26.3807 8.33713 26.3734C8.3261 26.3698 8.31875 26.3661 8.30771 26.3624C8.26358 26.3442 8.22313 26.3186 8.18267 26.293C8.17164 26.2857 8.16429 26.2784 8.15325 26.271C8.14222 26.2637 8.13119 26.2564 8.12015 26.2455C8.05763 26.1943 8.00615 26.1358 7.95834 26.0663C7.94731 26.0517 7.93627 26.0334 7.92892 26.0188C7.89582 25.964 7.87375 25.9055 7.85536 25.847C7.85169 25.8323 7.84801 25.8177 7.84433 25.8031C7.84065 25.7885 7.83698 25.7738 7.8333 25.7592C7.82962 25.7446 7.82962 25.73 7.82594 25.7154C7.82227 25.7007 7.82227 25.6861 7.82227 25.6715C7.82227 25.6678 7.82227 25.6678 7.82227 25.6642C7.82227 25.6495 7.82227 25.6349 7.82227 25.624V25.6203C7.82227 25.6093 7.82227 25.5984 7.82227 25.5874C7.82227 25.5655 7.82227 25.5472 7.82594 25.5252L9.0175 14.0129C9.02853 13.9141 9.05427 13.8228 9.09473 13.735C9.16092 13.5997 9.26022 13.4864 9.38526 13.406C9.38526 13.406 9.38894 13.4023 9.39261 13.4023L9.44042 13.3731C9.58385 13.2926 9.7567 13.2524 9.93322 13.2707L30.3956 15.3619C30.4139 15.3655 30.436 15.3655 30.4544 15.3692C30.4581 15.3692 30.4618 15.3692 30.4654 15.3692C30.4838 15.3728 30.5022 15.3765 30.5206 15.3802C30.5243 15.3802 30.528 15.3838 30.5316 15.3838C30.5463 15.3875 30.5647 15.3948 30.5794 15.3984C30.5831 15.3984 30.5868 15.4021 30.5905 15.4021C30.6089 15.4094 30.6272 15.4167 30.6456 15.424C30.664 15.4313 30.6787 15.4387 30.6971 15.4496C30.7192 15.4606 30.7413 15.4752 30.7633 15.4898C30.7744 15.4971 30.7891 15.5045 30.8001 15.5154C30.8222 15.5301 30.8406 15.5447 30.8589 15.563L30.8994 15.5995C30.9031 15.5995 30.9031 15.6032 30.9031 15.6032C30.9141 15.6141 30.9215 15.6251 30.9325 15.6324C30.9398 15.6397 30.9472 15.647 30.9546 15.6544C30.9766 15.6799 30.995 15.7055 31.0134 15.7311C31.0208 15.7421 31.0281 15.7567 31.0355 15.7677C31.0649 15.8189 31.0906 15.8737 31.109 15.9285C31.1127 15.9432 31.12 15.9614 31.1237 15.9761C31.1237 15.9761 31.1237 15.9761 31.1237 15.9797C31.1311 16.0053 31.1348 16.0309 31.1384 16.0565C31.1421 16.0711 31.1421 16.0821 31.1421 16.0931C31.1421 16.104 31.1458 16.1113 31.1458 16.1223C31.1458 16.1333 31.1458 16.1442 31.1458 16.1516C31.1458 16.1625 31.1458 16.1771 31.1458 16.1881C31.1458 16.1991 31.1458 16.21 31.1458 16.2174C31.1421 16.2393 31.1421 16.2539 31.1384 16.2685Z" fill="#DFE5EA"/>
<path d="M31.1203 15.9834L9.09863 13.7351C9.16483 13.5998 9.26413 13.4865 9.38917 13.406C9.38917 13.406 9.39284 13.4024 9.39652 13.4024L9.44433 13.3731L20.4441 6.71575C20.7678 6.51833 21.1833 6.56221 21.4591 6.81812L30.8665 15.5594L30.907 15.5959C30.9107 15.5959 30.9107 15.5996 30.9107 15.5996C30.9217 15.6105 30.929 15.6215 30.9401 15.6288C30.9474 15.6361 30.9548 15.6434 30.9621 15.6507C30.9842 15.6763 31.0026 15.7019 31.021 15.7275C31.0283 15.7385 31.0357 15.7531 31.0431 15.7641C31.0725 15.8153 31.0982 15.8701 31.1166 15.9249C31.1092 15.9505 31.1129 15.9652 31.1203 15.9834Z" fill="#F9C067"/>
<path d="M28.3404 27.847L9.12109 25.8837L11.004 7.6701C11.0371 7.34107 11.335 7.10344 11.666 7.13634L29.6827 8.97526C30.0137 9.00816 30.2527 9.30429 30.2196 9.63332L28.3404 27.847Z" fill="#DAE3FE"/>
<path d="M27.5494 12.9637L12.9381 11.4721C12.8756 11.4648 12.8315 11.41 12.8352 11.3478L12.9014 10.7044C12.9087 10.6422 12.9639 10.5984 13.0264 10.602L27.6413 12.0936C27.7038 12.1009 27.7479 12.1558 27.7443 12.2179L27.6781 12.8614C27.6707 12.9235 27.6119 12.971 27.5494 12.9637Z" fill="#E4ECF9"/>
<path d="M27.3577 14.8172L12.7428 13.3256C12.6803 13.3183 12.6362 13.2635 12.6399 13.2013L12.7061 12.5579C12.7134 12.4957 12.7686 12.4519 12.8311 12.4555L27.446 13.9471C27.5085 13.9544 27.5527 14.0093 27.549 14.0714L27.4828 14.7149C27.4791 14.777 27.4203 14.8245 27.3577 14.8172Z" fill="#E4ECF9"/>
<path d="M27.1673 16.6708L12.5524 15.1792C12.4899 15.1718 12.4458 15.117 12.4494 15.0549L12.5156 14.4114C12.523 14.3493 12.5781 14.3054 12.6407 14.3091L27.2556 15.8007C27.3181 15.808 27.3622 15.8628 27.3585 15.925L27.2923 16.5684C27.285 16.6305 27.2298 16.6744 27.1673 16.6708Z" fill="#E4ECF9"/>
<path d="M26.9759 18.5206L12.361 17.029C12.2985 17.0217 12.2543 16.9669 12.258 16.9047L12.3242 16.2613C12.3316 16.1991 12.3867 16.1552 12.4493 16.1589L27.0642 17.6505C27.1267 17.6578 27.1708 17.7127 27.1671 17.7748L27.1009 18.4183C27.0936 18.4841 27.0384 18.5279 26.9759 18.5206Z" fill="#E4ECF9"/>
<path d="M26.7835 20.3741L12.1686 18.8825C12.1061 18.8752 12.062 18.8204 12.0656 18.7582L12.1318 18.1148C12.1392 18.0526 12.1944 18.0088 12.2569 18.0124L26.8718 19.504C26.9343 19.5113 26.9784 19.5662 26.9747 19.6283L26.9085 20.2717C26.9012 20.3339 26.846 20.3814 26.7835 20.3741Z" fill="#E4ECF9"/>
<path d="M19.4545 21.204C19.4177 21.2369 19.3772 21.2625 19.3294 21.2881L8.62017 26.4356L8.57604 26.4319C8.49145 26.4246 8.41422 26.4027 8.34067 26.3734C8.32964 26.3698 8.3186 26.3661 8.31125 26.3588C8.18253 26.3003 8.07588 26.2089 7.99129 26.0992C7.98394 26.0883 7.97658 26.0773 7.96923 26.0663C7.94716 26.0334 7.92878 25.9969 7.91039 25.9639C7.90303 25.953 7.89935 25.9384 7.892 25.9274C7.88832 25.9164 7.88097 25.9018 7.87729 25.8908C7.83683 25.7775 7.81845 25.6532 7.83316 25.5252L9.02471 14.0129C9.03574 13.9141 9.06148 13.8228 9.10194 13.735C9.16814 13.5997 9.26743 13.4864 9.39247 13.406C9.39247 13.406 9.39615 13.4023 9.39982 13.4023L9.44763 13.3731C9.59106 13.2926 9.76391 13.2524 9.94044 13.2707L10.128 13.289L10.9555 13.9215L18.5902 19.7563L18.8771 19.9756L19.425 20.396C19.4655 20.4289 19.5023 20.4618 19.528 20.5021C19.6861 20.7178 19.6567 21.0248 19.4545 21.204Z" fill="#FFD000"/>
<path d="M31.1381 16.2684L29.9502 27.7845C29.9502 27.7991 29.9465 27.8137 29.9428 27.8284C29.9428 27.8357 29.9392 27.843 29.9392 27.8466C29.9392 27.854 29.9355 27.8576 29.9355 27.8649C29.9355 27.8686 29.9355 27.8686 29.9355 27.8722C29.9355 27.8759 29.9318 27.8795 29.9318 27.8832C29.9318 27.8942 29.9281 27.9015 29.9244 27.9125C29.9208 27.9234 29.9208 27.9307 29.9171 27.9417V27.9454C29.9171 27.949 29.9134 27.9527 29.9134 27.9527C29.9134 27.9563 29.9134 27.96 29.9097 27.9636C29.9097 27.9673 29.9061 27.9709 29.9061 27.9783C29.9024 27.9856 29.8987 27.9929 29.895 28.0038V28.0075C29.8877 28.0221 29.884 28.0368 29.8766 28.0477C29.8766 28.0477 29.8766 28.0477 29.8766 28.0514C29.873 28.0587 29.8693 28.066 29.8656 28.0733C29.8619 28.0806 29.8583 28.0843 29.8546 28.0916C29.8546 28.0916 29.8546 28.0952 29.8509 28.0952C29.8399 28.1135 29.8325 28.1318 29.8215 28.1464C29.8178 28.1501 29.8141 28.1574 29.8104 28.1647C29.8068 28.172 29.8031 28.1757 29.7994 28.1793C29.7957 28.183 29.7921 28.1903 29.7884 28.194C29.781 28.2049 29.7737 28.2159 29.7626 28.2269C29.759 28.2342 29.7516 28.2378 29.7479 28.2451C29.7332 28.2598 29.7222 28.2707 29.7075 28.2854C29.6964 28.2963 29.6891 28.3036 29.678 28.3109C29.667 28.3183 29.6597 28.3292 29.6486 28.3365C29.6449 28.3402 29.6376 28.3438 29.6339 28.3475C29.6302 28.3512 29.6266 28.3548 29.6192 28.3585C29.6155 28.3621 29.6082 28.3658 29.6008 28.3694L29.5971 28.3731C29.5824 28.3841 29.5677 28.3914 29.553 28.4023C29.553 28.4023 29.5493 28.4023 29.5493 28.406C29.5383 28.4133 29.5273 28.4206 29.5126 28.4243C29.5089 28.4279 29.5052 28.4279 29.5015 28.4316C29.4942 28.4352 29.4868 28.4389 29.4831 28.4426C29.4795 28.4462 29.4721 28.4462 29.4684 28.4499C29.4611 28.4535 29.4574 28.4572 29.45 28.4572C29.4096 28.4755 29.3691 28.4901 29.325 28.4974C29.3213 28.4974 29.3176 28.4974 29.3176 28.501C29.314 28.501 29.3103 28.501 29.3103 28.501C29.2993 28.5047 29.2919 28.5047 29.2809 28.5084C29.2625 28.512 29.2478 28.5157 29.2294 28.5157C29.222 28.5157 29.211 28.5193 29.2036 28.5193C29.2 28.5193 29.1926 28.5193 29.1852 28.5193C29.1779 28.5193 29.1705 28.5193 29.1632 28.523H29.1595C29.1521 28.523 29.1485 28.523 29.1411 28.523C29.1374 28.523 29.1374 28.523 29.1338 28.523C29.1301 28.523 29.1227 28.523 29.119 28.523C29.1154 28.523 29.1154 28.523 29.1117 28.523C29.1007 28.523 29.0896 28.523 29.0823 28.523C29.0676 28.523 29.0528 28.523 29.0381 28.5193L28.994 28.5157L19.5572 21.3099C19.5168 21.277 19.48 21.2441 19.4542 21.2039C19.2924 20.9882 19.3255 20.6774 19.5278 20.4983C19.5646 20.4654 19.605 20.4398 19.6492 20.4179L20.2707 20.1181L20.598 19.9609L29.2662 15.7932L30.2076 15.3398L30.3952 15.3581C30.4136 15.3618 30.4356 15.3618 30.454 15.3654C30.4577 15.3654 30.4614 15.3654 30.4651 15.3654C30.4834 15.3691 30.5018 15.3727 30.5202 15.3764C30.5239 15.3764 30.5276 15.3801 30.5313 15.3801C30.546 15.3837 30.5644 15.391 30.5791 15.3947C30.5827 15.3947 30.5864 15.3983 30.5901 15.3983C30.6085 15.4057 30.6269 15.413 30.6453 15.4203C30.6637 15.4276 30.6784 15.4349 30.6968 15.4459C30.7188 15.4568 30.7409 15.4715 30.7629 15.4861C30.774 15.4934 30.7887 15.5007 30.7997 15.5117C30.8218 15.5263 30.8402 15.5409 30.8586 15.5592L30.899 15.5958C30.9027 15.5958 30.9027 15.5994 30.9027 15.5994C30.9137 15.6104 30.9211 15.6213 30.9321 15.6287C30.9395 15.636 30.9468 15.6433 30.9542 15.6506C30.9763 15.6762 30.9946 15.7018 31.013 15.7274C31.0204 15.7383 31.0277 15.753 31.0351 15.7639C31.0645 15.8151 31.0903 15.8699 31.1086 15.9248C31.1123 15.9394 31.1197 15.9577 31.1234 15.9723C31.1234 15.9723 31.1234 15.9723 31.1234 15.976C31.1307 16.0016 31.1344 16.0272 31.1381 16.0527C31.1417 16.0674 31.1417 16.0783 31.1417 16.0893C31.1417 16.1003 31.1454 16.1076 31.1454 16.1185C31.1454 16.1295 31.1454 16.1405 31.1454 16.1478C31.1454 16.1588 31.1454 16.1734 31.1454 16.1844C31.1454 16.1953 31.1454 16.2063 31.1454 16.2136C31.1417 16.2392 31.1417 16.2538 31.1381 16.2684Z" fill="#FFD000"/>
<path opacity="0.25" d="M29.9643 27.6275L29.9533 27.7482C29.9055 28.2234 29.4936 28.5707 29.0376 28.5232L8.57158 26.432C8.11556 26.3845 7.78089 25.9641 7.83238 25.4888L7.84341 25.3682L19.0822 19.559C19.4316 19.3798 19.8472 19.42 20.1524 19.6686L29.9643 27.6275Z" fill="#474747"/>
<path d="M29.9617 27.6675L29.9507 27.7809C29.9029 28.2342 29.4947 28.5669 29.0386 28.5193L8.57262 26.4318C8.1166 26.3843 7.78193 25.9785 7.82974 25.5252L7.84078 25.4118L19.0465 19.8914C19.3959 19.7196 19.8115 19.7635 20.1167 20.0011L29.9617 27.6675Z" fill="#F1D971"/>
<path d="M19.7787 10.2984L13.1296 9.61836C13.067 9.61105 13.0229 9.55621 13.0266 9.49406L13.0928 8.85062C13.1001 8.78847 13.1553 8.7446 13.2178 8.74826L19.8706 9.43191C19.9332 9.43922 19.9773 9.49406 19.9736 9.55621L19.9074 10.1996C19.9001 10.2581 19.8412 10.3057 19.7787 10.2984Z" fill="#3B82F4"/>
<path opacity="0.2" d="M33.4702 21.8914L32.7752 18.2319C32.7494 18.104 32.6244 18.0199 32.4957 18.0418L23.434 19.7418C23.3053 19.7674 23.2207 19.8917 23.2428 20.0196L23.9378 23.6792C23.9636 23.8071 24.0886 23.8912 24.2173 23.8693L33.279 22.1693C33.4077 22.1437 33.496 22.0194 33.4702 21.8914Z" fill="#3A7EC1"/>
<path d="M33.0875 21.8951L23.7426 23.6463C23.6912 23.6572 23.6397 23.6207 23.6286 23.5695L22.8858 19.6321C22.8747 19.5809 22.9115 19.5297 22.963 19.5188L32.3078 17.7676C32.3593 17.7566 32.4108 17.7932 32.4219 17.8444L33.1647 21.7818C33.1758 21.8329 33.139 21.8841 33.0875 21.8951Z" fill="#E3E7FF"/>
<path d="M31.7378 18.963L27.5122 19.7563C27.4864 19.7599 27.457 19.7417 27.4533 19.7161L27.4018 19.4346C27.3982 19.409 27.4165 19.3797 27.4423 19.3761L31.6679 18.5827C31.6936 18.5791 31.7231 18.5974 31.7267 18.623L31.7782 18.9045C31.7856 18.9337 31.7672 18.9593 31.7378 18.963Z" fill="#3B82F4"/>
<path d="M31.8957 19.7891L27.6665 20.5824C27.6407 20.5861 27.6113 20.5678 27.6076 20.5422L27.5561 20.2607C27.5525 20.2351 27.5708 20.2059 27.5966 20.2022L31.8222 19.4089C31.8479 19.4053 31.8773 19.4235 31.881 19.4491L31.9325 19.7306C31.9399 19.7562 31.9215 19.7855 31.8957 19.7891Z" fill="#ECF3FE"/>
<path d="M32.0503 20.6155L27.8247 21.4089C27.7989 21.4125 27.7695 21.3943 27.7658 21.3687L27.7143 21.0872C27.7107 21.0616 27.729 21.0323 27.7548 21.0287L31.9804 20.2353C32.0061 20.2317 32.0356 20.25 32.0392 20.2755L32.0907 20.557C32.0981 20.5826 32.0797 20.6082 32.0503 20.6155Z" fill="#ECF3FE"/>
<path d="M32.2075 21.4381L27.9819 22.2314C27.9561 22.235 27.9267 22.2168 27.9231 22.1912L27.8716 21.9097C27.8679 21.8841 27.8863 21.8548 27.912 21.8512L32.1376 21.0578C32.1634 21.0542 32.1928 21.0725 32.1965 21.0981L32.2479 21.3796C32.2516 21.4088 32.2332 21.4344 32.2075 21.4381Z" fill="#ECF3FE"/>
<path d="M26.9106 22.1184C27.4232 21.2892 27.1626 20.204 26.3285 19.6944C25.4944 19.1848 24.4027 19.4439 23.8901 20.2731C23.3775 21.1022 23.6381 22.1875 24.4722 22.6971C25.3063 23.2066 26.398 22.9476 26.9106 22.1184Z" fill="#ECF3FE"/>
<path d="M26.461 22.1619C26.3801 22.2533 26.2882 22.3337 26.1852 22.3995C26.1337 22.4324 26.0785 22.4653 26.0197 22.4909C25.9609 22.5202 25.8947 22.5458 25.8321 22.564C25.7807 22.5823 25.7255 22.5933 25.6666 22.6042C25.6115 22.6152 25.5526 22.6225 25.4975 22.6262C25.2364 22.6445 24.9863 22.5896 24.7656 22.4763C24.8318 22.2716 24.9789 22.0961 25.1775 21.9974C25.2106 21.9791 25.2474 21.9645 25.2842 21.9535H25.2878C25.3209 21.9425 25.354 21.9352 25.3871 21.9279L25.6777 21.8731C25.7108 21.8658 25.7476 21.8621 25.7807 21.8621H25.7843C25.8248 21.8585 25.8616 21.8621 25.8983 21.8658C26.1227 21.884 26.3249 21.9937 26.461 22.1619Z" fill="#727272"/>
<path d="M26.1001 20.451L26.2766 21.3796C26.3171 21.5843 26.181 21.7817 25.9751 21.8183L25.0961 21.9828C24.8902 22.023 24.6916 21.8877 24.6548 21.683L24.4783 20.7544C24.3201 19.9282 25.1402 19.8148 25.1402 19.8148C25.1402 19.8148 25.3499 19.7673 25.5742 19.8258C25.7765 19.8806 25.9934 20.0232 26.0817 20.3705C26.0891 20.3998 26.0927 20.4254 26.1001 20.451Z" fill="#302F2F"/>
<path d="M25.7587 21.7197L25.8102 21.9938C25.8323 22.1108 25.7367 22.2242 25.6006 22.2497C25.4645 22.2753 25.3321 22.2022 25.3101 22.0852L25.2586 21.811C25.2512 21.7635 25.2586 21.716 25.2843 21.6758C25.2917 21.6648 25.2953 21.6575 25.3027 21.6465C25.3174 21.6283 25.3358 21.6136 25.3542 21.599C25.3873 21.5771 25.4241 21.5588 25.4682 21.5515C25.5123 21.5442 25.5528 21.5442 25.5896 21.5551C25.6116 21.5588 25.6337 21.5698 25.6521 21.5807H25.6558C25.6631 21.5844 25.6741 21.5917 25.6815 21.599C25.722 21.6319 25.7514 21.6721 25.7587 21.7197Z" fill="#F4B698"/>
<path opacity="0.28" d="M26.0088 20.6849L26.0823 21.0833C26.1338 21.3612 26.0014 21.6354 25.7697 21.7743L25.7881 21.8803C25.7219 21.9205 25.652 21.9461 25.5711 21.9608L25.516 21.9717C25.4387 21.9863 25.3578 21.9863 25.2843 21.9754L25.2659 21.8694C24.9974 21.8255 24.7731 21.6171 24.7216 21.3393L24.648 20.9408C24.6149 20.7543 24.6628 20.5715 24.7694 20.4289C24.865 20.301 25.0085 20.2059 25.1813 20.173L25.2365 20.1621C25.3909 20.1328 25.5417 20.1584 25.6704 20.2279C25.8396 20.3193 25.9683 20.4838 26.0088 20.6849Z" fill="black"/>
<path d="M25.9902 20.5861L26.0858 21.087C26.1115 21.2222 26.0931 21.3575 26.038 21.4782C26.0269 21.5074 26.0122 21.533 25.9938 21.5586C25.9644 21.6098 25.924 21.6536 25.8835 21.6939C25.8504 21.7268 25.8099 21.756 25.7695 21.7779C25.7033 21.8182 25.6297 21.8437 25.5525 21.8584L25.4973 21.8693C25.4201 21.884 25.3392 21.884 25.2657 21.873C24.9972 21.8291 24.7729 21.6244 24.7214 21.3429L24.6258 20.8457C24.6258 20.8384 24.6221 20.8311 24.6221 20.8238C24.5927 20.6336 24.6478 20.4472 24.7618 20.3046C24.7802 20.2827 24.7986 20.2608 24.8207 20.2425C24.9089 20.1547 25.0266 20.0926 25.159 20.0706L25.2142 20.0597C25.3613 20.0304 25.5084 20.056 25.6334 20.1182C25.6996 20.1511 25.7621 20.1949 25.8136 20.2498C25.8357 20.2717 25.8541 20.2937 25.8725 20.3192C25.9313 20.396 25.9718 20.4838 25.9902 20.5861Z" fill="#F4B698"/>
<path d="M26.3028 20.7983C26.3286 20.9409 26.2366 21.0798 26.0895 21.1091L25.9902 20.59C26.027 20.5826 26.0638 20.5826 26.0969 20.59C26.1999 20.6119 26.2808 20.6923 26.3028 20.7983Z" fill="#F4B698"/>
<path d="M26.2027 20.8165C26.2211 20.9042 26.1623 20.9919 26.0703 21.0066L26.0078 20.6849C26.0961 20.6702 26.1844 20.7287 26.2027 20.8165Z" fill="#E29586"/>
<path d="M25.9022 21.8657L25.8323 22.5677C25.7809 22.5859 25.7257 22.5969 25.6669 22.6079C25.6117 22.6188 25.5529 22.6261 25.4977 22.6298L25.1777 22.001L25.3175 21.9754L25.3248 21.9791L25.586 22.1619L25.7625 21.895L25.7662 21.8877L25.9022 21.8657Z" fill="#565656"/>
<path d="M24.6296 20.842L24.7289 21.3612C24.5855 21.3868 24.4458 21.2954 24.4163 21.1491C24.3943 21.0248 24.4605 20.9042 24.5708 20.8567C24.5745 20.8567 24.5781 20.853 24.5818 20.853C24.5855 20.853 24.5855 20.853 24.5892 20.8494C24.6039 20.8494 24.6149 20.8457 24.6296 20.842Z" fill="#F4B698"/>
<path d="M24.5159 21.1344C24.5343 21.2222 24.6189 21.2807 24.7072 21.266L24.6447 20.9443C24.5601 20.959 24.5012 21.043 24.5159 21.1344Z" fill="#E29586"/>
<path d="M26.1853 22.3994C26.1338 22.4323 26.0787 22.4652 26.0198 22.4908L26.0088 22.4323L26.1853 22.3994Z" fill="#565656"/>
<path opacity="0.2" d="M25.5859 22.1619L25.8066 22.2642L25.9022 21.8657L25.5859 22.1619Z" fill="#363636"/>
<path d="M25.9022 21.8657L25.7992 22.2496L25.5859 22.1618L25.7661 21.8913L25.7882 21.8547L25.9022 21.8657Z" fill="#EEEEEE"/>
<path opacity="0.2" d="M25.1777 22.0012L25.4131 22.3376L25.586 22.1621L25.1777 22.0012Z" fill="#363636"/>
<path d="M25.586 22.162L25.4168 22.3228L25.1777 22.0011L25.2844 21.95L25.3175 21.9755L25.586 22.162Z" fill="#EEEEEE"/>
<path d="M26.0969 20.4363C25.6152 20.5643 25.5784 20.1146 25.5894 19.8916C25.7917 19.9428 26.005 20.089 26.0969 20.4363Z" fill="#302F2F"/>
<path d="M25.7777 20.1001C25.7667 20.1294 25.6564 20.4621 25.3511 20.5206C25.0496 20.5791 24.6009 20.8496 24.6451 21.1494C24.6855 21.4528 24.0934 20.3049 24.9944 20.038C25.8954 19.7711 25.7777 20.1001 25.7777 20.1001Z" fill="#302F2F"/>
<path opacity="0.2" d="M30.1281 4.87215C31.269 4.18407 31.6328 2.70683 30.9407 1.57263C30.2485 0.438436 28.7625 0.0767874 27.6215 0.764866C26.4806 1.45294 26.1168 2.93019 26.8089 4.06438C27.5011 5.19858 28.9871 5.56023 30.1281 4.87215Z" fill="#3A7EC1"/>
<path d="M29.015 4.73972C30.3143 4.43753 31.1212 3.14546 30.8173 1.85381C30.5133 0.562154 29.2135 -0.239969 27.9142 0.0622175C26.6148 0.364404 25.808 1.65647 26.1119 2.94812C26.4159 4.23978 27.7157 5.0419 29.015 4.73972Z" fill="#453890"/>
<path d="M28.8953 1.70743L28.9541 1.51733L29.4138 1.55023L29.0608 2.7713C29.0387 2.84807 29.0277 2.89925 29.024 2.92484C29.0203 2.95044 29.0277 2.97237 29.0387 2.98699C29.0498 3.00162 29.0681 3.01259 29.0865 3.01259C29.149 3.01624 29.2336 2.98334 29.3366 2.90656C29.4433 2.83345 29.5352 2.72743 29.6198 2.59216C29.7044 2.45689 29.7522 2.307 29.7632 2.14248C29.7742 2.00356 29.7559 1.87195 29.7117 1.74765C29.6676 1.62335 29.5977 1.51001 29.5058 1.41496C29.4138 1.31625 29.2962 1.23948 29.1527 1.17733C29.0093 1.11518 28.8438 1.07862 28.6599 1.06765C28.4724 1.05303 28.2958 1.06765 28.134 1.10421C27.9722 1.14077 27.8288 1.20292 27.7037 1.287C27.5787 1.37109 27.4684 1.47711 27.3801 1.60507C27.2992 1.7184 27.2367 1.8427 27.1889 1.98528C27.1411 2.1242 27.1116 2.27044 27.1006 2.42033C27.0859 2.61775 27.1116 2.8042 27.1815 2.97237C27.2477 3.14054 27.3544 3.28678 27.4978 3.41108C27.6412 3.53172 27.8177 3.62312 28.031 3.68527C28.2407 3.74742 28.4834 3.77301 28.7555 3.7657C28.9725 3.75473 29.1564 3.71817 29.3109 3.65968C29.4653 3.59753 29.5977 3.50613 29.7117 3.38549L30.0832 3.41108C30.0133 3.53172 29.9287 3.63409 29.8257 3.72548C29.7228 3.81688 29.6014 3.89 29.469 3.94484C29.3329 4.00333 29.1858 4.04355 29.0203 4.06548C28.8585 4.08742 28.6783 4.09473 28.4908 4.08011C28.2039 4.05817 27.9501 4.00333 27.7295 3.91559C27.5051 3.82419 27.3213 3.70355 27.1778 3.55366C27.0307 3.40377 26.9278 3.22828 26.8616 3.02721C26.7954 2.82614 26.7696 2.61044 26.788 2.37646C26.8064 2.13152 26.8616 1.90485 26.9609 1.69646C27.0602 1.48808 27.1889 1.3126 27.3544 1.16636C27.5199 1.02012 27.7184 0.910448 27.9465 0.83733C28.1745 0.764212 28.4246 0.738621 28.693 0.7569C28.9137 0.771524 29.1123 0.819051 29.2925 0.895824C29.4727 0.972598 29.6235 1.07496 29.7448 1.20658C29.8662 1.33453 29.9581 1.48442 30.0133 1.65259C30.0721 1.82076 30.0905 2.00356 30.0795 2.20463C30.0685 2.35818 30.028 2.50807 29.9618 2.65065C29.8956 2.79323 29.8073 2.92119 29.6933 3.03452C29.5793 3.1442 29.4543 3.22828 29.3072 3.28678C29.1638 3.34527 29.0093 3.36721 28.8475 3.35624C28.7519 3.34893 28.682 3.32699 28.6305 3.29409C28.579 3.25753 28.5496 3.20635 28.5386 3.13689C28.4319 3.22828 28.3105 3.28312 28.1782 3.3014C28.0458 3.31968 27.9207 3.29775 27.7994 3.23925C27.6817 3.18076 27.5861 3.08936 27.5199 2.96506C27.4537 2.84076 27.4242 2.69087 27.4389 2.51904C27.4537 2.3399 27.5051 2.16442 27.5934 1.99259C27.6853 1.82442 27.8067 1.68915 27.9575 1.58679C28.1083 1.48442 28.2774 1.44055 28.4577 1.45518C28.6636 1.45518 28.8107 1.54657 28.8953 1.70743ZM27.8803 2.53366C27.8692 2.67259 27.8913 2.77861 27.9428 2.85904C27.9943 2.93581 28.0678 2.97968 28.1634 2.98699C28.2738 2.99431 28.3731 2.95775 28.4613 2.87732C28.5496 2.79689 28.6195 2.69087 28.6746 2.56291C28.7261 2.43495 28.7592 2.307 28.7666 2.18635C28.7703 2.1242 28.7666 2.06937 28.7555 2.01818C28.7445 1.967 28.7261 1.92313 28.7004 1.88657C28.6746 1.84636 28.6415 1.81711 28.6048 1.79517C28.5643 1.77324 28.5202 1.76227 28.4687 1.75861C28.3657 1.7513 28.2738 1.78421 28.1855 1.85732C28.0972 1.93044 28.0274 2.02915 27.9759 2.1498C27.9207 2.27044 27.8913 2.40205 27.8803 2.53366Z" fill="white"/>
</svg>
