<svg width="51" height="52" viewBox="0 0 51 52" fill="none" xmlns="http://www.w3.org/2000/svg">
<g filter="url(#filter0_d)">
<path d="M25.5 3C30.6717 3 35.6316 5.05446 39.2886 8.71142C42.9455 12.3684 45 17.3283 45 22.5V23.5C45 28.6717 42.9455 33.6316 39.2886 37.2886C35.6316 40.9455 30.6717 43 25.5 43C20.3283 43 15.3684 40.9455 11.7114 37.2886C8.05446 33.6316 6 28.6717 6 23.5V22.5C6 17.3283 8.05446 12.3684 11.7114 8.71142C15.3684 5.05446 20.3283 3 25.5 3V3Z" fill="#483CA6"/>
</g>
<path d="M23.0591 18.121L18.6201 22.56" stroke="white" stroke-width="3" stroke-linecap="round"/>
<path d="M23.0591 26.999L18.6201 22.56" stroke="white" stroke-width="3" stroke-linecap="round"/>
<path d="M19.0259 22.56H32.4999" stroke="white" stroke-width="3" stroke-linecap="round"/>
<defs>
<filter id="filter0_d" x="0" y="0" width="51" height="52" filterUnits="userSpaceOnUse" color-interpolation-filters="sRGB">
<feFlood flood-opacity="0" result="BackgroundImageFix"/>
<feColorMatrix in="SourceAlpha" type="matrix" values="0 0 0 0 0 0 0 0 0 0 0 0 0 0 0 0 0 0 127 0"/>
<feOffset dy="3"/>
<feGaussianBlur stdDeviation="3"/>
<feColorMatrix type="matrix" values="0 0 0 0 0.501961 0 0 0 0 0.501961 0 0 0 0 0.501961 0 0 0 0.157 0"/>
<feBlend mode="normal" in2="BackgroundImageFix" result="effect1_dropShadow"/>
<feBlend mode="normal" in="SourceGraphic" in2="effect1_dropShadow" result="shape"/>
</filter>
</defs>
</svg>
