<svg width="129" height="110" viewBox="0 0 129 110" fill="none" xmlns="http://www.w3.org/2000/svg">
<path d="M93.0137 28.4665L49.2683 18.9167V21.3L91.8816 30.6092L93.0137 28.4665Z" fill="#FFD000"/>
<path d="M95.8569 42.614L61.6371 76.7871C61.2283 77.1956 61.0902 77.9618 61.3811 78.4614C61.6554 78.9323 62.1221 79.1677 62.5892 79.1677C62.9425 79.1677 63.2957 79.0329 63.5653 78.7635L97.809 44.5664L95.8569 42.614Z" fill="#FC5FA7"/>
<path d="M38.6755 79.0222L30.299 41.8347H27.458L35.8342 79.0222H38.6755Z" fill="#315DDB"/>
<path d="M108.199 45.6628C115.025 45.6628 120.46 39.7085 119.592 32.7107C118.879 26.9534 113.868 22.6941 108.066 22.6941H102.467V45.6628H108.199Z" fill="#466EF8"/>
<path d="M106.883 44.8206C112.725 42.3993 115.497 35.7012 113.076 29.8598C110.655 24.0185 103.957 21.246 98.1153 23.6672C92.2739 26.0885 89.5014 32.7866 91.9226 38.628C94.3439 44.4693 101.042 47.2418 106.883 44.8206Z" fill="#FC80B7"/>
<path d="M33.204 41.8347C43.4415 41.8347 51.6093 32.9751 50.459 22.5046C49.491 13.6947 41.8875 7.10815 33.0246 7.10815H24.5371V41.8347H33.204Z" fill="#466EF8"/>
<path d="M36.7052 36.705C43.4624 29.9478 43.4624 18.9922 36.7052 12.2349C29.9479 5.47769 18.9923 5.47769 12.235 12.2349C5.47782 18.9922 5.47782 29.9478 12.2351 36.705C18.9923 43.4623 29.9479 43.4623 36.7052 36.705Z" fill="#FFCC42"/>
<path d="M47.426 104.999C55.4703 104.999 61.8755 97.9816 60.854 89.7341C60.0132 82.9485 54.1064 77.9285 47.2688 77.9285H40.6699V104.999H47.426V104.999Z" fill="#466EF8"/>
<path d="M46.1655 103.848C53.013 100.905 56.1781 92.9683 53.235 86.1208C50.2918 79.2732 42.3548 76.1081 35.5072 79.0513C28.6597 81.9945 25.4946 89.9314 28.4377 96.779C31.3809 103.627 39.3179 106.792 46.1655 103.848Z" fill="#839AFA"/>
<path d="M65.8955 84.9394C65.5457 84.9394 65.1957 84.8059 64.9286 84.5391C64.3946 84.005 64.3946 83.1393 64.9286 82.6056L96.2211 51.3134C96.7545 50.7796 97.6208 50.7796 98.1542 51.3134C98.6883 51.8474 98.6883 52.7131 98.1542 53.2469L66.8621 84.5391C66.5952 84.8059 66.2452 84.9394 65.8955 84.9394Z" fill="#FC80B7"/>
<path d="M89.1387 23.55C89.0447 23.55 88.9495 23.5402 88.8538 23.52L54.7753 16.293C54.0364 16.1363 53.5648 15.4106 53.7214 14.6721C53.8781 13.9335 54.6047 13.4613 55.3424 13.6182L89.4209 20.8452C90.1595 21.0019 90.6314 21.7276 90.4747 22.4661C90.3383 23.1093 89.7709 23.55 89.1387 23.55Z" fill="#FFCC42"/>
<path d="M29.4995 76.3674C28.8673 76.3674 28.2999 75.9266 28.1635 75.2838L22.4815 48.5005C22.3248 47.762 22.7965 47.0363 23.5353 46.8793C24.2741 46.7229 24.9998 47.1943 25.1565 47.9332L30.8385 74.7164C30.9952 75.4549 30.5235 76.1806 29.7847 76.3376C29.6884 76.3575 29.593 76.3674 29.4995 76.3674Z" fill="#9FB1FA"/>
<path d="M105.858 35.5266C106.789 34.6339 107.372 33.381 107.372 31.9925C107.372 29.2898 105.174 27.0908 102.471 27.0908C99.768 27.0908 97.5693 29.2898 97.5693 31.9925C97.5693 33.3812 98.1526 34.6341 99.0836 35.5266C98.1526 36.4194 97.5693 37.6723 97.5693 39.0608C97.5693 39.8158 98.1813 40.428 98.9365 40.428C99.6918 40.428 100.304 39.8158 100.304 39.0608C100.304 37.8659 101.276 36.8938 102.471 36.8938C103.666 36.8938 104.638 37.8659 104.638 39.0608C104.638 39.8158 105.25 40.428 106.005 40.428C106.76 40.428 107.372 39.8158 107.372 39.0608C107.373 37.6723 106.789 36.4194 105.858 35.5266ZM100.304 31.9925C100.304 30.7975 101.276 29.8252 102.471 29.8252C103.666 29.8252 104.638 30.7975 104.638 31.9925C104.638 33.1874 103.666 34.1595 102.471 34.1595C101.276 34.1595 100.304 33.1874 100.304 31.9925Z" fill="#FDDAEC"/>
<path d="M28.5307 26.2481C30.1438 25.0214 31.1877 23.083 31.1877 20.9046C31.1877 17.2044 28.1775 14.1938 24.477 14.1938C20.7769 14.1938 17.7666 17.2041 17.7666 20.9046C17.7666 23.0828 18.8106 25.0212 20.4236 26.2481C18.8106 27.4747 17.7666 29.4131 17.7666 31.5913C17.7666 32.3463 18.3788 32.9585 19.1338 32.9585C19.8887 32.9585 20.501 32.3463 20.501 31.5913C20.501 29.3989 22.2846 27.6153 24.477 27.6153C26.6695 27.6153 28.4534 29.3989 28.4534 31.5913C28.4534 32.3463 29.0656 32.9585 29.8205 32.9585C30.5755 32.9585 31.1877 32.3463 31.1877 31.5913C31.1877 29.4131 30.144 27.4747 28.5307 26.2481ZM20.5012 20.9048C20.5012 18.7124 22.2849 16.9285 24.4773 16.9285C26.6697 16.9285 28.4536 18.7121 28.4536 20.9048C28.4536 23.0975 26.67 24.8812 24.4773 24.8812C22.2846 24.8812 20.5012 23.0972 20.5012 20.9048Z" fill="white"/>
<path d="M44.4055 93.0516C45.569 92.0366 46.3086 90.5474 46.3086 88.886C46.3086 85.8353 43.8266 83.3533 40.7759 83.3533C37.7252 83.3533 35.2432 85.8353 35.2432 88.886C35.2432 90.5477 35.9828 92.0366 37.1463 93.0516C35.9828 94.0666 35.2432 95.5557 35.2432 97.2171C35.2432 97.9721 35.8554 98.5843 36.6104 98.5843C37.3653 98.5843 37.9775 97.9721 37.9775 97.2171C37.9775 95.6741 39.2329 94.4187 40.7759 94.4187C42.3189 94.4187 43.5743 95.6741 43.5743 97.2171C43.5743 97.9721 44.1865 98.5843 44.9414 98.5843C45.6964 98.5843 46.3086 97.9721 46.3086 97.2171C46.3089 95.5554 45.569 94.0666 44.4055 93.0516ZM37.9773 88.8857C37.9773 87.3427 39.2326 86.0874 40.7756 86.0874C42.3186 86.0874 43.574 87.3427 43.574 88.8857C43.574 90.4287 42.3186 91.6841 40.7756 91.6841C39.2326 91.6841 37.9773 90.4287 37.9773 88.8857Z" fill="#D1DEFD"/>
<path d="M41.783 56.5256C40.7166 56.5256 39.7136 56.1102 38.9595 55.3558C37.4028 53.7991 37.4028 51.266 38.9595 49.709C39.7136 48.9549 40.7163 48.5396 41.783 48.5396C42.8497 48.5396 43.8524 48.9549 44.6065 49.7093C45.3607 50.4632 45.776 51.4662 45.776 52.5326C45.776 53.599 45.3607 54.6017 44.6065 55.3558C43.8521 56.1102 42.8494 56.5256 41.783 56.5256ZM41.783 51.2739C41.447 51.2739 41.1309 51.4049 40.8933 51.6425C40.4027 52.1333 40.4027 52.9318 40.8933 53.4223C41.1311 53.6602 41.447 53.7912 41.783 53.7912C42.1191 53.7912 42.4352 53.6602 42.6728 53.4226C42.9104 53.1847 43.0414 52.8689 43.0414 52.5328C43.0414 52.1968 42.9104 51.8807 42.6728 51.6431C42.4349 51.4049 42.1191 51.2739 41.783 51.2739Z" fill="#839AFA"/>
<path d="M124.303 22.0072C123.28 22.0072 122.257 21.6181 121.479 20.8396C119.922 19.2826 119.922 16.7495 121.479 15.1926C123.036 13.6359 125.569 13.6361 127.126 15.1926C128.683 16.7495 128.683 19.2826 127.126 20.8396C126.348 21.6178 125.325 22.0072 124.303 22.0072ZM124.303 16.7583C123.98 16.7583 123.658 16.881 123.412 17.1263C122.922 17.6169 122.922 18.4153 123.412 18.9061C123.903 19.3969 124.702 19.3969 125.193 18.9061C125.683 18.4156 125.683 17.6169 125.193 17.1263C124.947 16.8808 124.625 16.7583 124.303 16.7583Z" fill="#839AFA"/>
<path d="M73.2259 91.6001H72.3886V90.7629C72.3886 90.1055 71.9481 89.5015 71.3036 89.3725C70.4248 89.1969 69.6542 89.8644 69.6542 90.7115V91.6001H68.817C68.1599 91.6001 67.5559 92.0401 67.4268 92.6843C67.2507 93.5631 67.9179 94.3345 68.7656 94.3345H69.6542V95.1718C69.6542 95.8291 70.0948 96.4331 70.7392 96.5622C71.6181 96.7378 72.3886 96.0703 72.3886 95.2232V94.3345H73.2773C74.125 94.3345 74.7921 93.5631 74.616 92.6843C74.487 92.0401 73.883 91.6001 73.2259 91.6001Z" fill="#F1D971"/>
<path d="M98.3822 14.2173H97.5449V13.3801C97.5449 12.7227 97.1044 12.1187 96.4599 11.9896C95.5811 11.8141 94.8105 12.4816 94.8105 13.3287V14.2173H93.9733C93.3162 14.2173 92.7122 14.6573 92.5828 15.3015C92.4067 16.1803 93.0739 16.9517 93.9216 16.9517H94.8102V17.789C94.8102 18.4463 95.2508 19.0506 95.8952 19.1794C96.7741 19.355 97.5446 18.6875 97.5446 17.8404V16.9517H98.4333C99.2809 16.9517 99.9481 16.1803 99.772 15.3015C99.6432 14.6573 99.0392 14.2173 98.3822 14.2173Z" fill="#FC80B7"/>
<path d="M23.46 77.6548H22.6231V76.8178C22.6231 76.1607 22.1831 75.5567 21.5389 75.4274C20.66 75.251 19.8887 75.9187 19.8887 76.7661V77.6548H19.0517C18.3946 77.6548 17.7906 78.0948 17.6613 78.739C17.4849 79.6178 18.1526 80.3892 19 80.3892H19.8887V81.2262C19.8887 81.8832 20.3286 82.4873 20.9729 82.6166C21.8517 82.793 22.6231 82.1252 22.6231 81.2778V80.3892H23.5117C24.3591 80.3892 25.0268 79.6178 24.8505 78.739C24.7211 78.0948 24.1171 77.6548 23.46 77.6548Z" fill="#FC80B7"/>
<path d="M24.477 41.7769C34.0346 41.7769 41.7826 34.029 41.7826 24.4714C41.7826 14.9137 34.0346 7.16577 24.477 7.16577C14.9194 7.16577 7.17139 14.9137 7.17139 24.4714C7.17139 34.029 14.9194 41.7769 24.477 41.7769Z" fill="url(#paint0_linear)"/>
<defs>
<linearGradient id="paint0_linear" x1="24.4772" y1="7.16577" x2="24.4772" y2="41.7769" gradientUnits="userSpaceOnUse">
<stop offset="0.0028" stop-color="#FC80B7" stop-opacity="0"/>
<stop offset="1" stop-color="#FC80B7" stop-opacity="0.6"/>
</linearGradient>
</defs>
</svg>
