<svg width="39" height="39" viewBox="0 0 39 39" fill="none" xmlns="http://www.w3.org/2000/svg">
<path d="M31.472 28.8731H1.687C1.23929 28.8718 0.810362 28.6931 0.494159 28.3761C0.177957 28.0592 0.000262648 27.6298 0 27.1821L0 6.68211H33.16V27.1821C33.1597 27.63 32.9819 28.0595 32.6655 28.3765C32.3491 28.6935 31.9199 28.872 31.472 28.8731Z" fill="#F2F2F2"/>
<path d="M31.8101 0.00010982H1.35011C1.17219 -0.00217404 0.995619 0.0311849 0.830797 0.0982201C0.665976 0.165255 0.516244 0.26461 0.390427 0.390427C0.26461 0.516244 0.165255 0.665976 0.0982201 0.830797C0.0311849 0.995619 -0.00217404 1.17219 0.00010982 1.35011V7.34111H33.1601V1.35011C33.1624 1.17219 33.129 0.995619 33.062 0.830797C32.995 0.665976 32.8956 0.516244 32.7698 0.390427C32.644 0.26461 32.4942 0.165255 32.3294 0.0982201C32.1646 0.0311849 31.988 -0.00217404 31.8101 0.00010982Z" fill="#FFC428"/>
<path d="M7.00404 21.8001H2.36304V26.4411H7.00404V21.8001Z" fill="#CDD6E0"/>
<path d="M7.00404 15.8091H2.36304V20.4501H7.00404V15.8091Z" fill="#CDD6E0"/>
<path d="M12.91 9.90311H8.26904V14.5441H12.91V9.90311Z" fill="#CDD6E0"/>
<path d="M12.91 21.8001H8.26904V26.4411H12.91V21.8001Z" fill="#CDD6E0"/>
<path d="M12.91 15.8091H8.26904V20.4501H12.91V15.8091Z" fill="#CDD6E0"/>
<path d="M18.901 9.90311H14.26V14.5441H18.901V9.90311Z" fill="#CDD6E0"/>
<path d="M18.901 21.8001H14.26V26.4411H18.901V21.8001Z" fill="#CDD6E0"/>
<path d="M18.901 15.8091H14.26V20.4501H18.901V15.8091Z" fill="#CDD6E0"/>
<path d="M24.892 9.90311H20.251V14.5441H24.892V9.90311Z" fill="#CDD6E0"/>
<path d="M24.892 21.8001H20.251V26.4411H24.892V21.8001Z" fill="#CDD6E0"/>
<path d="M23.964 15.7801H19.323V20.4211H23.964V15.7801Z" fill="#FF7058"/>
<path d="M29.6002 10.0491H24.9592V14.6901H29.6002V10.0491Z" fill="#CDD6E0"/>
<path d="M29.6002 15.9551H24.9592V20.5961H29.6002V15.9551Z" fill="#CDD6E0"/>
<path d="M8.46713 4.89311C9.11938 4.89311 9.64813 4.36436 9.64813 3.71211C9.64813 3.05986 9.11938 2.53111 8.46713 2.53111C7.81488 2.53111 7.28613 3.05986 7.28613 3.71211C7.28613 4.36436 7.81488 4.89311 8.46713 4.89311Z" fill="white"/>
<path d="M23.6551 4.89311C24.3074 4.89311 24.8361 4.36436 24.8361 3.71211C24.8361 3.05986 24.3074 2.53111 23.6551 2.53111C23.0029 2.53111 22.4741 3.05986 22.4741 3.71211C22.4741 4.36436 23.0029 4.89311 23.6551 4.89311Z" fill="white"/>
<path d="M22.7851 4.38811H9.28513C9.18535 4.3885 9.08647 4.36915 8.99421 4.33114C8.90194 4.29314 8.81812 4.23725 8.74756 4.16669C8.677 4.09613 8.6211 4.0123 8.5831 3.92003C8.54509 3.82777 8.52573 3.72889 8.52613 3.62911C8.52573 3.52932 8.54509 3.43045 8.5831 3.33818C8.6211 3.24592 8.677 3.16209 8.74756 3.09153C8.81812 3.02097 8.90194 2.96508 8.99421 2.92707C9.08647 2.88907 9.18535 2.86971 9.28513 2.87011H22.7851C22.8849 2.86971 22.9838 2.88907 23.0761 2.92707C23.1683 2.96508 23.2521 3.02097 23.3227 3.09153C23.3933 3.16209 23.4492 3.24592 23.4872 3.33818C23.5252 3.43045 23.5445 3.52932 23.5441 3.62911C23.5173 3.82092 23.4287 3.99877 23.2917 4.13573C23.1548 4.27268 22.977 4.36128 22.7851 4.38811Z" fill="#CDD6E0"/>
<path d="M27.5521 38.8581C33.7962 38.8581 38.8581 33.7962 38.8581 27.5521C38.8581 21.308 33.7962 16.2461 27.5521 16.2461C21.308 16.2461 16.2461 21.308 16.2461 27.5521C16.2461 33.7962 21.308 38.8581 27.5521 38.8581Z" fill="#4178E6"/>
<path d="M27.549 35.8211C25.9136 35.8211 24.3149 35.3361 22.955 34.4275C21.5952 33.5189 20.5353 32.2275 19.9095 30.7165C19.2836 29.2055 19.1199 27.5429 19.4389 25.9389C19.758 24.3349 20.5455 22.8615 21.702 21.705C22.8584 20.5486 24.3318 19.7611 25.9358 19.442C27.5399 19.1229 29.2025 19.2867 30.7135 19.9125C32.2244 20.5384 33.5158 21.5983 34.4245 22.9581C35.3331 24.3179 35.818 25.9167 35.818 27.5521C35.8146 29.7441 34.9423 31.8454 33.3923 33.3954C31.8423 34.9454 29.741 35.8176 27.549 35.8211Z" fill="#CDD6E0"/>
<path d="M27.549 20.6891C29.6676 20.6975 31.7031 21.5142 33.2399 22.9725C34.7766 24.4309 35.6988 26.4209 35.818 28.5361V28.1111C35.818 25.918 34.9468 23.8148 33.3961 22.2641C31.8453 20.7133 29.7421 19.8421 27.549 19.8421C25.3559 19.8421 23.2527 20.7133 21.702 22.2641C20.1512 23.8148 19.28 25.918 19.28 28.1111V28.5331C19.3723 26.4086 20.2862 24.4031 21.8289 22.9396C23.3717 21.4761 25.4226 20.6692 27.549 20.6891Z" fill="#C3D1DD"/>
<path d="M27.5521 19.9581C27.4644 19.964 27.3818 20.0015 27.3196 20.0636C27.2575 20.1258 27.22 20.2084 27.2141 20.2961V21.3091C27.2188 21.3954 27.2564 21.4767 27.3192 21.5362C27.382 21.5956 27.4652 21.6287 27.5516 21.6287C27.6381 21.6287 27.7212 21.5956 27.784 21.5362C27.8468 21.4767 27.8844 21.3954 27.8891 21.3091V20.2911C27.8051 20.1271 27.7201 19.9581 27.5521 19.9581Z" fill="#F2F2F2"/>
<path d="M27.5521 33.3741C27.4644 33.38 27.3818 33.4175 27.3196 33.4796C27.2575 33.5418 27.22 33.6244 27.2141 33.7121V34.7251C27.2188 34.8115 27.2564 34.8927 27.3192 34.9521C27.382 35.0116 27.4652 35.0447 27.5516 35.0447C27.6381 35.0447 27.7212 35.0116 27.784 34.9521C27.8468 34.8927 27.8844 34.8115 27.8891 34.7251V33.7071C27.8051 33.5431 27.7201 33.3741 27.5521 33.3741Z" fill="#F2F2F2"/>
<path d="M35.062 27.5521C35.0561 27.4646 35.0188 27.3821 34.9568 27.3199C34.8949 27.2578 34.8125 27.2202 34.7249 27.2141H33.7079C33.6621 27.2116 33.6162 27.2185 33.5731 27.2343C33.5299 27.2502 33.4905 27.2746 33.4572 27.3062C33.4238 27.3378 33.3972 27.3758 33.3791 27.418C33.3609 27.4602 33.3516 27.5057 33.3516 27.5516C33.3516 27.5976 33.3609 27.643 33.3791 27.6852C33.3972 27.7274 33.4238 27.7654 33.4572 27.797C33.4905 27.8286 33.5299 27.8531 33.5731 27.8689C33.6162 27.8847 33.6621 27.8916 33.7079 27.8891H34.7209C34.8929 27.8051 35.062 27.7201 35.062 27.5521Z" fill="#F2F2F2"/>
<path d="M21.646 27.5521C21.6402 27.4644 21.6027 27.3818 21.5405 27.3196C21.4784 27.2575 21.3957 27.22 21.308 27.2141H20.292C20.2057 27.2188 20.1245 27.2564 20.065 27.3192C20.0056 27.382 19.9724 27.4652 19.9724 27.5516C19.9724 27.6381 20.0056 27.7212 20.065 27.784C20.1245 27.8468 20.2057 27.8844 20.292 27.8891H21.305C21.477 27.8051 21.646 27.7201 21.646 27.5521Z" fill="#F2F2F2"/>
<path d="M28.0531 28.3211H24.0031C23.9572 28.3236 23.9113 28.3167 23.8682 28.3009C23.8251 28.2851 23.7856 28.2606 23.7523 28.229C23.7189 28.1974 23.6924 28.1594 23.6742 28.1172C23.6561 28.075 23.6467 28.0295 23.6467 27.9836C23.6467 27.9377 23.6561 27.8922 23.6742 27.85C23.6924 27.8078 23.7189 27.7698 23.7523 27.7382C23.7856 27.7066 23.8251 27.6821 23.8682 27.6663C23.9113 27.6505 23.9572 27.6436 24.0031 27.6461H27.8031V23.3461C27.8006 23.3003 27.8075 23.2544 27.8233 23.2112C27.8391 23.1681 27.8636 23.1287 27.8952 23.0953C27.9268 23.062 27.9648 23.0354 28.007 23.0172C28.0492 22.9991 28.0947 22.9897 28.1406 22.9897C28.1865 22.9897 28.232 22.9991 28.2742 23.0172C28.3164 23.0354 28.3544 23.062 28.386 23.0953C28.4176 23.1287 28.4421 23.1681 28.4579 23.2112C28.4737 23.2544 28.4806 23.3003 28.4781 23.3461V28.0711C28.3061 28.2391 28.2211 28.3211 28.0531 28.3211Z" fill="#40596B"/>
<path d="M27.9932 28.9211C28.5057 28.9211 28.9212 28.5056 28.9212 27.9931C28.9212 27.4806 28.5057 27.0651 27.9932 27.0651C27.4807 27.0651 27.0652 27.4806 27.0652 27.9931C27.0652 28.5056 27.4807 28.9211 27.9932 28.9211Z" fill="#009C97"/>
</svg>
