<svg xmlns="http://www.w3.org/2000/svg" xmlns:xlink="http://www.w3.org/1999/xlink" width="133" height="131" viewBox="0 0 133 131">
  <defs>
    <linearGradient id="linear-gradient" x1="0.94" y1="1" x2="-0.182" y2="-0.337" gradientUnits="objectBoundingBox">
      <stop offset="0" stop-color="#502eff"/>
      <stop offset="1" stop-color="#d1c7ff"/>
    </linearGradient>
  </defs>
  <g id="calls" transform="translate(-3543 10)">
    <g id="dashboard" transform="translate(1172 140)">
      <g id="Group_1494" data-name="Group 1494" transform="translate(2422 -18914)" opacity="0.87">
        <rect id="Rectangle_2201" data-name="Rectangle 2201" width="133" height="131" rx="15" transform="translate(-51 18764)" fill="url(#linear-gradient)"/>
      </g>
    </g>
    <g id="Group_1536" data-name="Group 1536" transform="translate(3644 84.471)">
      <g id="Group_1522" data-name="Group 1522" transform="translate(-67.44 -61.47)">
        <path id="Path_7343" data-name="Path 7343" d="M41.7,53.4a7.532,7.532,0,0,1,1.35-1.832L49.5,45.123A7.626,7.626,0,0,1,60.028,44.9l10.067,7.37a4.134,4.134,0,0,1,.428.36,7.629,7.629,0,0,1,0,10.772l-6.2,6.2c-2.157,2.157-8.09,2.393-10.542,2.393A45.222,45.222,0,0,1,21.748,58.642C11.706,48.6,8.912,38.583,8.337,31.948c-.674-7.753,1.386-13.6,3.056-15.28l5.914-5.914a7.631,7.631,0,0,1,10.786.018,3.939,3.939,0,0,1,.284.327l7.681,9.824A7.629,7.629,0,0,1,35.88,31.5l-6.454,6.454c-.57.57-1.58,1.406-2.369,2.039A28.35,28.35,0,0,0,41.7,53.4ZM23.736,41.393a1.762,1.762,0,0,1-.525-.645l-3.561-7.78a1.8,1.8,0,1,1,3.281-1.5l2.411,5.267c.6-.491,1.2-1,1.533-1.336l6.446-6.446a4.02,4.02,0,0,0,.065-5.6c-.043-.045-.083-.092-.12-.138l-7.73-9.9a4.023,4.023,0,0,0-5.673,0l-5.914,5.914c-.6.6-2.641,5.24-2.019,12.415.523,6.04,3.1,15.183,12.368,24.448A41.627,41.627,0,0,0,48.284,68.011a41.167,41.167,0,0,0,5.492.37c5.033,0,7.55-.9,7.991-1.336l6.188-6.189a4.018,4.018,0,0,0-.016-5.684l-10.126-7.43a1.918,1.918,0,0,1-.18-.146,4.016,4.016,0,0,0-5.587.075L45.6,54.123a4.246,4.246,0,0,0-.3.343l5.181,1.381a1.8,1.8,0,0,1-.464,3.549,1.825,1.825,0,0,1-.466-.059l-7.245-1.931h0A31.663,31.663,0,0,1,23.734,41.393Z" transform="translate(-8.206 -8.53)" fill="#fff"/>
        <path id="Path_7344" data-name="Path 7344" d="M8.481,9.063A26.183,26.183,0,0,1,32.892,33.511a1.8,1.8,0,0,1-1.681,1.92h-.122a1.8,1.8,0,0,1-1.8-1.684A22.575,22.575,0,0,0,8.246,12.666a1.8,1.8,0,0,1,.243-3.6Z" transform="translate(33.016 -8.616)" fill="#fff"/>
        <path id="Path_7345" data-name="Path 7345" d="M20.162,20.74A16.429,16.429,0,0,1,35.48,36.071,1.8,1.8,0,0,1,33.8,37.992h-.122a1.8,1.8,0,0,1-1.8-1.684,12.817,12.817,0,0,0-11.96-11.971,1.8,1.8,0,0,1,.244-3.6Z" transform="translate(20.671 -10.539)" fill="#fff"/>
        <path id="Path_7346" data-name="Path 7346" d="M30.7,31.268a7.579,7.579,0,0,1,7.115,7.126,1.8,1.8,0,0,1-1.683,1.918h-.119a1.8,1.8,0,0,1-1.8-1.688,3.973,3.973,0,0,0-3.772-3.757,1.8,1.8,0,1,1,.252-3.6Z" transform="translate(9.54 -12.269)" fill="#fff"/>
      </g>
    </g>
  </g>
</svg>
