<svg xmlns="http://www.w3.org/2000/svg" xmlns:xlink="http://www.w3.org/1999/xlink" width="227" height="138" viewBox="0 0 227 138"><defs><style>.a,.k,.m{fill:#fff;}.a{stroke:#707070;}.b{clip-path:url(#a);}.c{fill:#ebebeb;}.d{fill:#f5f5f5;}.e,.i{opacity:0.2;}.f{fill:#407bff;}.g{fill:#ff8b7b;}.h{fill:#263238;}.j{opacity:0.3;}.l{fill:#ff5652;}.m{opacity:0.6;}</style><clipPath id="a"><rect class="a" width="227" height="138" transform="translate(11307 3148)"/></clipPath></defs><g class="b" transform="translate(-11307 -3148)"><g transform="translate(11186 3064.047)"><rect class="c" width="500" height="0.25" transform="translate(0 382.398)"/><rect class="c" width="33.122" height="0.25" transform="translate(416.779 398.494)"/><rect class="c" width="8.693" height="0.25" transform="translate(322.527 401.208)"/><rect class="c" width="19.192" height="0.25" transform="translate(396.586 389.208)"/><rect class="c" width="43.193" height="0.25" transform="translate(52.459 390.889)"/><rect class="c" width="6.333" height="0.25" transform="translate(104.556 390.889)"/><rect class="c" width="93.676" height="0.25" transform="translate(131.471 395.111)"/><path class="c" d="M237.014,337.8H43.915a5.715,5.715,0,0,1-5.708-5.708V60.66a5.714,5.714,0,0,1,5.708-5.707h193.1a5.714,5.714,0,0,1,5.707,5.707V332.092A5.715,5.715,0,0,1,237.014,337.8ZM43.915,55.2a5.463,5.463,0,0,0-5.458,5.457V332.092a5.464,5.464,0,0,0,5.458,5.458h193.1a5.463,5.463,0,0,0,5.457-5.458V60.66a5.463,5.463,0,0,0-5.457-5.457Z"/><path class="c" d="M453.31,337.8h-193.1a5.714,5.714,0,0,1-5.707-5.708V60.66a5.713,5.713,0,0,1,5.707-5.707h193.1a5.714,5.714,0,0,1,5.709,5.707V332.092A5.715,5.715,0,0,1,453.31,337.8ZM260.212,55.2a5.463,5.463,0,0,0-5.457,5.457V332.092a5.463,5.463,0,0,0,5.457,5.458h193.1a5.464,5.464,0,0,0,5.459-5.458V60.66A5.464,5.464,0,0,0,453.31,55.2Z"/><ellipse class="d" cx="193.889" cy="11.323" rx="193.889" ry="11.323" transform="translate(56.111 404.915)"/><g transform="translate(36 -85)"><g transform="translate(227.871 202.919)"><g class="e" transform="translate(2.31 2.446)"><path class="f" d="M287.058,339.786,260.2,290.152l-26.855,49.633Z" transform="translate(-233.349 -255.817)"/><path class="f" d="M287.058,208.72,260.2,258.354,233.349,208.72Z" transform="translate(-233.349 -208.72)"/></g><g transform="translate(15.848 25.402)"><path class="f" d="M294.491,269.511l-3.929,7.263a1.125,1.125,0,0,1-1.979,0l-3.93-7.263a4.3,4.3,0,0,1,3.782-6.347h2.274A4.3,4.3,0,0,1,294.491,269.511Z" transform="translate(-276.256 -263.164)"/><path class="f" d="M279.2,378.034l12.19,5.016a1.125,1.125,0,0,1-.428,2.166h-24.38a1.125,1.125,0,0,1-.428-2.166l12.19-5.016A1.124,1.124,0,0,1,279.2,378.034Z" transform="translate(-265.457 -329.55)"/><circle class="f" cx="1.563" cy="1.563" r="1.563" transform="translate(11.753 35.808)"/><circle class="f" cx="0.806" cy="0.806" r="0.806" transform="translate(12.51 20.228)"/><circle class="f" cx="0.916" cy="0.916" r="0.916" transform="translate(12.4 27.908)"/></g><path class="f" d="M283.754,402.064H230.317a2.453,2.453,0,0,0-2.446,2.446h0a2.453,2.453,0,0,0,2.446,2.446h53.437a2.453,2.453,0,0,0,2.446-2.446h0A2.454,2.454,0,0,0,283.754,402.064Z" transform="translate(-227.871 -318.095)"/><path class="f" d="M283.754,202.919H230.317a2.453,2.453,0,0,0-2.446,2.446h0a2.453,2.453,0,0,0,2.446,2.446h53.437a2.454,2.454,0,0,0,2.446-2.446h0A2.453,2.453,0,0,0,283.754,202.919Z" transform="translate(-227.871 -202.919)"/></g></g><path class="g" d="M194.628,405.677l-7.052-2.288,4.383-16.627,7.051,2.288Z"/><path class="h" d="M187.471,402.452l7.923,2.571a.53.53,0,0,1,.366.651l-1.65,6.393a1.313,1.313,0,0,1-1.641.853c-2.743-.943-4.008-1.532-7.492-2.663-2.143-.695-9.207-2.52-12.167-3.481-2.9-.939-1.926-3.86-.585-3.718,6.01.637,11.393.351,13.891-.567A2.09,2.09,0,0,1,187.471,402.452Z"/><path class="i" d="M199.012,389.055l-7.055-2.289-2.256,8.572,7.054,2.289Z"/><path class="f" d="M218.276,220.722s-12.651,58.548-15.618,79.6c-3.249,23.053-15.455,92.272-15.455,92.272l13.088,3.616s18.137-67.133,23.435-89.543c5.75-24.323,21.045-85.945,21.045-85.945Z"/><path class="j" d="M233.922,239.92c-4.991,11.34-7.471,36.04-5.531,47.35,3.54-14.55,7.8-31.85,11.09-45.16C238.372,238.25,236.531,233.99,233.922,239.92Z"/><path class="h" d="M200.622,396.468,186.6,392.606l.271-5.71,15.783,5.457Z"/><path class="h" d="M184.573,402.869a9.248,9.248,0,0,0,1.961.358.172.172,0,0,0,.152-.276c-.174-.23-1.727-2.242-2.7-2.183a.648.648,0,0,0-.534.341.948.948,0,0,0-.084.958A2,2,0,0,0,184.573,402.869Zm1.587-.027c-1.343-.158-2.26-.5-2.483-.933a.623.623,0,0,1,.074-.625.307.307,0,0,1,.257-.172C184.53,401.081,185.511,402.056,186.16,402.842Z"/><path class="h" d="M186.5,403.219a.169.169,0,0,0,.081.006.171.171,0,0,0,.131-.1c.035-.084.851-2.061.362-2.977a.862.862,0,0,0-.622-.456.663.663,0,0,0-.757.3c-.412.717.162,2.53.728,3.176A.164.164,0,0,0,186.5,403.219Zm-.037-3.171a.511.511,0,0,1,.307.259,3.842,3.842,0,0,1-.264,2.39,3.494,3.494,0,0,1-.512-2.532c.051-.089.143-.186.391-.137A.552.552,0,0,1,186.459,400.048Z"/><path class="h" d="M231.739,165.135c-.384.894-.7,1.572-1.053,2.336-.35.74-.723,1.462-1.093,2.183q-1.117,2.161-2.33,4.267a82.928,82.928,0,0,1-5.4,8.176,60.914,60.914,0,0,1-6.654,7.6,38.322,38.322,0,0,1-8.677,6.412l-.251.133A5.035,5.035,0,0,1,205,196.7a14.218,14.218,0,0,1-6.871-.275,19.882,19.882,0,0,1-5.243-2.435,34.336,34.336,0,0,1-7.244-6.563,59.783,59.783,0,0,1-5.263-7.315,64.339,64.339,0,0,1-4.135-7.842,3.24,3.24,0,0,1,5.469-3.357l.1.121c1.652,2.01,3.441,4.134,5.242,6.074a68.785,68.785,0,0,0,5.584,5.481,27.629,27.629,0,0,0,5.74,4,8.355,8.355,0,0,0,2.465.815,2.692,2.692,0,0,0,1.442-.122l-1.526.6a30.214,30.214,0,0,0,5.611-4.9,61.43,61.43,0,0,0,5.048-6.425c1.579-2.3,3.076-4.714,4.491-7.187q1.071-1.851,2.06-3.751l.966-1.9c.31-.605.655-1.3.891-1.8l.062-.131a6.5,6.5,0,0,1,11.848,5.341Z"/><path class="j" d="M215.392,178.712c3.14-8.34,9.81-8.48,12.7-6.27-.21.39-.43.78-.65,1.17a84.91,84.91,0,0,1-5.15,7.91,65.354,65.354,0,0,1-6.27,7.38c-.72.71-1.46,1.41-2.23,2.09A32.044,32.044,0,0,1,215.392,178.712Z"/><path class="g" d="M175.977,172.794l-6.5.231,1.625-6.94a33.6,33.6,0,0,1,6.627.963,2.625,2.625,0,0,1,1.4,3.957l0,.006A3.936,3.936,0,0,1,175.977,172.794Z"/><path class="f" d="M179.639,166.916a6.33,6.33,0,0,0-2.144-1.107c-.549,2.837-3.965,7.635-3.965,7.635h2.707a2.393,2.393,0,0,0,1.837-.859l1.9-2.271A2.389,2.389,0,0,0,179.639,166.916Z"/><path class="g" d="M164.517,169.833l1.828-4.9,4.76,1.154-1.625,6.94Z"/><path class="g" d="M246.25,408.921h-7.414l-.256-17.168h7.414Z"/><path class="h" d="M238.448,408.062h8.329a.53.53,0,0,1,.549.507l.4,6.589a1.314,1.314,0,0,1-1.3,1.319c-2.9-.05-4.284-.221-7.947-.221-2.253,0-9.786.234-12.9.234-3.043,0-3.023-3.077-1.7-3.355,5.913-1.25,11.2-2.973,13.288-4.617A2.092,2.092,0,0,1,238.448,408.062Z"/><path class="i" d="M246,391.757h-7.417l.136,8.85h7.417Z"/><path class="f" d="M232.74,220.722s-2.831,64.411-1.629,85.637c1.317,23.243,4.082,92.111,4.082,92.111h13.578s3.424-66.991,4.242-90c.887-24.977,4.914-87.744,4.914-87.744Z"/><path class="h" d="M249.318,398.47H234.646l-1.118-5.456,16.195.806Z"/><path class="h" d="M235.82,409.354a9.269,9.269,0,0,0,1.976-.265.173.173,0,0,0,.059-.31c-.237-.164-2.335-1.6-3.241-1.244a.649.649,0,0,0-.4.49.947.947,0,0,0,.217.937A2,2,0,0,0,235.82,409.354Zm1.5-.516c-1.327.264-2.3.223-2.649-.121a.619.619,0,0,1-.123-.617.306.306,0,0,1,.191-.243C235.227,407.666,236.461,408.291,237.321,408.838Z"/><path class="h" d="M237.757,409.093a.172.172,0,0,0,.172-.158c.007-.09.173-2.223-.575-2.943a.862.862,0,0,0-.732-.242.663.663,0,0,0-.627.523c-.171.809.935,2.356,1.673,2.8A.178.178,0,0,0,237.757,409.093Zm-1.014-3a.511.511,0,0,1,.371.152,3.838,3.838,0,0,1,.487,2.355c-.644-.544-1.38-1.72-1.268-2.25.021-.1.078-.222.33-.252A.765.765,0,0,1,236.743,406.088Z"/><path class="h" d="M261.644,160.938a4.714,4.714,0,0,0-3.961-5.494l-.086-.012c-2.39-.35-5.39-.71-8.331-.85a147.874,147.874,0,0,0-16.849,0c-2.59.24-5.12.67-7.141,1.06l-.077.015A7.1,7.1,0,0,0,219.8,160.6c-2.417,8.153-5.3,24.792-1.529,60.123h39.651c.28-3.54-.51-15.059.07-29.73A233.736,233.736,0,0,1,261.644,160.938Z"/><path class="j" d="M261.262,163.122c-.822,4.742-1.837,11.185-2.535,17.968,0,0-3.618-7.1-4.277-13.171S258.964,161.419,261.262,163.122Z"/><g class="e"><path class="k" d="M234.668,164.057a.375.375,0,0,1-.173-.708l12.36-6.409a.375.375,0,0,1,.346.666l-12.36,6.409A.384.384,0,0,1,234.668,164.057Z"/><path class="k" d="M240.33,164.643a.375.375,0,0,1-.265-.109l-6.771-6.738a.375.375,0,1,1,.529-.531L240.6,164a.375.375,0,0,1-.265.641Z"/><path class="k" d="M249.262,154.58a147.709,147.709,0,0,0-16.84,0l-.28.03a3.977,3.977,0,0,0,.43,3.07c.94,1.5,2.91,2.34,5.87,2.5q.57.03,1.11.03c8.05,0,11.09-4.86,11.22-5.07l.28-.45C250.452,154.65,249.862,154.61,249.262,154.58Z"/></g><path class="g" d="M233.217,154.522c4.9-1.16,5.76-4.19,5.429-7.52a19.734,19.734,0,0,0-.39-2.48l6.14-5.1,4.511-3.74c-1.25,5.43-2.66,15.32,1.01,18.94,0,0-3.038,5.008-11.425,4.555C231.409,158.794,233.217,154.522,233.217,154.522Z"/><path class="i" d="M238.256,144.522a19.742,19.742,0,0,1,.391,2.48c2.29-.46,5.35-2.9,5.67-5.24a10.656,10.656,0,0,0,.08-2.34Z"/><path class="h" d="M234.973,118.5c-3.333,1.958-2.8,7-3.708,10.583,2.125.209,5.464-3.56,5.464-3.56l1.994-5.731Z"/><path class="g" d="M252.713,128.559c-2.13,7.063-3.016,11.293-7.52,14.237a9.59,9.59,0,0,1-14.924-8.1c-.03-6.734,3.459-17.154,11.18-18.592A9.7,9.7,0,0,1,252.713,128.559Z"/><path class="h" d="M246.057,134.551c4.995-5.8-1.252-8.662,3.86-12.69-5.75.271-15.217-.139-16.907-4.083s3.51-9.278,7.838-9.778c5.036-.582,3.917,5.611,3.917,5.611s19.139-1.194,13.063,6.945c4.6-.278,3.336,7.166-4.669,13.444C251.154,134.722,246.057,134.551,246.057,134.551Z"/><path class="h" d="M256.682,120.708s3.94-1.166,3.8-4.291C261.911,117.4,262.057,120.375,256.682,120.708Z"/><path class="g" d="M253.879,135.929a7.92,7.92,0,0,1-4.545,2.771c-2.269.412-2.8-1.688-1.671-3.735,1.021-1.843,3.43-4.277,5.466-3.762C255.135,131.711,255.334,134.142,253.879,135.929Z"/><path class="h" d="M241.318,128.376c-.138.582-.56.992-.943.916s-.583-.611-.445-1.193.559-.992.943-.916S241.455,127.794,241.318,128.376Z"/><path class="h" d="M234.69,127.052c-.138.583-.56.993-.943.916s-.583-.61-.445-1.193.559-.992.943-.916S234.827,126.47,234.69,127.052Z"/><path class="l" d="M236.729,127.763a22.394,22.394,0,0,1-3.977,4.421,3.4,3.4,0,0,0,2.678,1.081Z"/><path class="h" d="M237.455,135.312a5.15,5.15,0,0,0,3.842-1.238.176.176,0,0,0-.245-.252,4.922,4.922,0,0,1-4.219,1.05.174.174,0,0,0-.206.138.176.176,0,0,0,.138.206A5.678,5.678,0,0,0,237.455,135.312Z"/><path class="h" d="M243.877,126.764a.352.352,0,0,0,.347-.5,3.378,3.378,0,0,0-2.478-1.98.346.346,0,0,0-.393.3.351.351,0,0,0,.3.393,2.672,2.672,0,0,1,1.929,1.574A.351.351,0,0,0,243.877,126.764Z"/><path class="h" d="M233.047,123.072a.353.353,0,0,0,.324-.057,2.939,2.939,0,0,1,2.524-.6.351.351,0,0,0,.213-.669h0a3.624,3.624,0,0,0-3.166.713.352.352,0,0,0,.107.612Z"/><path class="h" d="M262.028,158.085l.836,1.137.749,1.063c.493.706.946,1.419,1.412,2.13.916,1.422,1.77,2.873,2.606,4.331a97.255,97.255,0,0,1,4.517,9c.7,1.526,1.306,3.1,1.945,4.656.562,1.593,1.176,3.158,1.668,4.779a88.86,88.86,0,0,1,2.6,9.827l.082.377a5.227,5.227,0,0,1-.717,3.941,28.383,28.383,0,0,1-4.549,5.393,23.471,23.471,0,0,1-5.98,4.027,21.555,21.555,0,0,1-6.862,1.9,21.038,21.038,0,0,1-3.494.064c-.581-.045-1.159-.112-1.74-.2-.291-.047-.582-.107-.88-.172l-1.006-.244a.46.46,0,0,1-.339-.557l1.383-5.8c.011-.045.264-.061.42-.1l.552-.112c.374-.076.752-.166,1.125-.272a16.951,16.951,0,0,0,2.175-.751,15.689,15.689,0,0,0,3.785-2.234,19.083,19.083,0,0,0,5.266-6.847l-.635,4.318c-.858-2.827-1.764-5.637-2.873-8.4-1.08-2.764-2.291-5.491-3.605-8.173s-2.709-5.33-4.218-7.907c-.742-1.295-1.525-2.563-2.3-3.825l-1.19-1.855-.593-.9-.545-.8-.2-.294a6.5,6.5,0,0,1,10.605-7.5Z"/><path class="g" d="M248.784,209.478,246.625,213l9.338-.377s2.445-6.279-.9-7.271l-1.29.359A8.527,8.527,0,0,0,248.784,209.478Z"/><path class="f" d="M252.619,204.548a6.356,6.356,0,0,0-1.7,1.711c2.539,1.378,6.084,6.083,6.084,6.083l.816-2.581a2.392,2.392,0,0,0-.265-2.01l-1.594-2.493A2.389,2.389,0,0,0,252.619,204.548Z"/><path class="g" d="M247.447,218.421l7.695-.683.822-5.112-9.338.377Z"/><path class="f" d="M153.057,96.337l-.51-.86a34.609,34.609,0,0,1,4.576-2.273l.377.925A33.649,33.649,0,0,0,153.057,96.337Z"/><path class="f" d="M138.455,113.949l-.941-.34A34.734,34.734,0,0,1,149.773,97.3l.589.808A33.725,33.725,0,0,0,138.455,113.949Z"/><circle class="f" cx="30.778" cy="30.778" r="30.778" transform="translate(139.42 94.612)"/><path class="m" d="M195.91,125.388a25.706,25.706,0,1,1-6.717-17.336c.011,0,.035.012.046.046A25.652,25.652,0,0,1,195.91,125.388Z"/><path class="k" d="M195.91,125.388a25.712,25.712,0,0,1-43.154,18.894,25.708,25.708,0,0,1,36.437-36.23c.011,0,.035.012.046.046A25.652,25.652,0,0,1,195.91,125.388Z"/><path class="h" d="M170.2,126.89a1.5,1.5,0,0,1-1.06-.44L156.6,113.911a1.5,1.5,0,0,1,2.121-2.121L170.2,123.269l6.631-6.631a1.5,1.5,0,0,1,2.121,2.121l-7.691,7.691A1.5,1.5,0,0,1,170.2,126.89Z"/></g></g></svg>