<svg xmlns="http://www.w3.org/2000/svg" width="30" height="30" viewBox="0 0 30 30"><defs><style>.a{fill:#fff;}</style></defs><g transform="translate(0)"><g transform="translate(0)"><path class="a" d="M25.57,4.014A15.577,15.577,0,0,0,15,0,15.577,15.577,0,0,0,4.431,4.014,13.217,13.217,0,0,0,0,13.828a12.96,12.96,0,0,0,2.746,7.979L.086,28.389A1.172,1.172,0,0,0,1.645,29.9l7.538-3.323a16.181,16.181,0,0,0,13.047-.63,1.172,1.172,0,0,0-1.061-2.09,13.826,13.826,0,0,1-11.544.369,1.172,1.172,0,0,0-.933.006L3.34,26.592l1.838-4.546a1.172,1.172,0,0,0-.195-1.2,10.713,10.713,0,0,1-2.639-7.018C2.344,7.5,8.022,2.344,15,2.344S27.657,7.5,27.657,13.828A10.68,10.68,0,0,1,25.7,19.964a1.172,1.172,0,1,0,1.922,1.342A13.012,13.012,0,0,0,30,13.828,13.217,13.217,0,0,0,25.57,4.014Z" transform="translate(0 0)"/></g></g></svg>