<svg xmlns="http://www.w3.org/2000/svg" xmlns:xlink="http://www.w3.org/1999/xlink" width="20" height="20" viewBox="0 0 20 20"><defs><style>.a{opacity:0.79;fill:url(#a);}</style><linearGradient id="a" x1="0.5" x2="0.5" y2="1" gradientUnits="objectBoundingBox"><stop offset="0" stop-color="#74ebd5"/><stop offset="1" stop-color="#9face6"/><stop offset="1" stop-color="#eaafc8"/></linearGradient></defs><path class="a" d="M10,20a10.074,10.074,0,0,1-2.015-.2,9.945,9.945,0,0,1-3.576-1.5,10.029,10.029,0,0,1-3.623-4.4A9.95,9.95,0,0,1,.2,12.015a10.1,10.1,0,0,1,0-4.031,9.945,9.945,0,0,1,1.5-3.576A10.029,10.029,0,0,1,6.108.786,9.95,9.95,0,0,1,7.985.2a10.1,10.1,0,0,1,4.031,0,9.945,9.945,0,0,1,3.576,1.5,10.029,10.029,0,0,1,3.623,4.4A9.949,9.949,0,0,1,19.8,7.985a10.1,10.1,0,0,1,0,4.031,9.945,9.945,0,0,1-1.5,3.576,10.029,10.029,0,0,1-4.4,3.623,9.95,9.95,0,0,1-1.877.583A10.074,10.074,0,0,1,10,20ZM10,4.711A5.289,5.289,0,1,0,15.289,10,5.3,5.3,0,0,0,10,4.711Z"/></svg>