<svg xmlns="http://www.w3.org/2000/svg" width="31.094" height="31.094" viewBox="0 0 31.094 31.094"><defs><style>.a{fill:#e4edfb;}.b{fill:#6ae5d3;}.c{fill:#0ac1a7;}</style></defs><path class="a" d="M31.094,15.547A15.547,15.547,0,1,1,15.547,0,15.547,15.547,0,0,1,31.094,15.547Zm0,0"/><path class="b" d="M59.207,45.6A13.6,13.6,0,1,1,45.6,32,13.6,13.6,0,0,1,59.207,45.6Zm0,0" transform="translate(-30.057 -30.057)"/><path class="c" d="M127.487,168.634l-3.887-3.887a.972.972,0,0,1,1.374-1.374l2.513,2.513L137.773,155.6a.972.972,0,0,1,1.374,1.374Zm0,0" transform="translate(-115.826 -145.883)"/></svg>