<svg xmlns="http://www.w3.org/2000/svg" xmlns:xlink="http://www.w3.org/1999/xlink" width="133" height="131" viewBox="0 0 133 131">
  <defs>
    <linearGradient id="linear-gradient" x1="0.94" y1="1" x2="-0.182" y2="-0.337" gradientUnits="objectBoundingBox">
      <stop offset="0" stop-color="#502eff"/>
      <stop offset="1" stop-color="#d1c7ff"/>
    </linearGradient>
  </defs>
  <g id="customers" transform="translate(-2869 10)">
    <g id="dashboard" transform="translate(498 140)">
      <g id="Group_1494" data-name="Group 1494" transform="translate(2422 -18914)" opacity="0.87">
        <rect id="Rectangle_2201" data-name="Rectangle 2201" width="133" height="131" rx="15" transform="translate(-51 18764)" fill="url(#linear-gradient)"/>
      </g>
    </g>
    <g id="Group_1530" data-name="Group 1530" transform="translate(2907 27.004)">
      <g id="Group_1511" data-name="Group 1511" transform="translate(1 1)">
        <path id="Path_7309" data-name="Path 7309" d="M28.681,10.76a9.756,9.756,0,1,1-2.858-6.9A9.763,9.763,0,0,1,28.681,10.76Z" transform="translate(1.958 -1)" fill="none" stroke="#fff" stroke-linecap="round" stroke-miterlimit="10" stroke-width="3"/>
        <path id="Path_7310" data-name="Path 7310" d="M33.675,23.013a22.89,22.89,0,0,0-11.805-3.2C10.352,19.807,1,27.991,1,38.095H25.378" transform="translate(-1 5.823)" fill="none" stroke="#fff" stroke-linecap="round" stroke-miterlimit="10" stroke-width="3"/>
        <g id="Group_1510" data-name="Group 1510" transform="translate(25.028 25.038)">
          <g id="Group_1509" data-name="Group 1509" transform="translate(13.256 7.62)">
            <path id="Path_7311" data-name="Path 7311" d="M40.2,38.875a4.36,4.36,0,0,1-.141,1.869,4.028,4.028,0,0,1-.9,1.549,5.352,5.352,0,0,1-1.588,1.161,8.2,8.2,0,0,1-2.212.71l.08,2.749a.626.626,0,0,1-.023.153.258.258,0,0,1-.1.127.792.792,0,0,1-.236.1,2.912,2.912,0,0,1-.4.078,2.994,2.994,0,0,1-.46.031,1.417,1.417,0,0,1-.281-.043.213.213,0,0,1-.144-.109.278.278,0,0,1-.031-.178l-.063-2.74a11.116,11.116,0,0,1-1.142-.048,8.607,8.607,0,0,1-.941-.14,4.481,4.481,0,0,1-.718-.2,1.769,1.769,0,0,1-.46-.227.678.678,0,0,1-.227-.32,2.846,2.846,0,0,1-.127-.581,3.481,3.481,0,0,1-.034-.46,1.7,1.7,0,0,1,.034-.307.343.343,0,0,1,.112-.178.385.385,0,0,1,.19-.069,1,1,0,0,1,.484.123,7.654,7.654,0,0,0,.845.294,7.828,7.828,0,0,0,1.26.25,6.679,6.679,0,0,0,1.736-.037,4.365,4.365,0,0,0,2.606-1.049,2.271,2.271,0,0,0,.668-2.019,2.147,2.147,0,0,0-.494-1.187,3.152,3.152,0,0,0-1.009-.733A6.256,6.256,0,0,0,35.132,37c-.489-.11-.992-.222-1.5-.331a15.211,15.211,0,0,1-1.515-.415,5.312,5.312,0,0,1-1.369-.67A3.931,3.931,0,0,1,29.7,34.474a4.181,4.181,0,0,1-.567-1.725,4.224,4.224,0,0,1,.084-1.6,3.516,3.516,0,0,1,.7-1.38A4.517,4.517,0,0,1,31.249,28.7a6.746,6.746,0,0,1,1.984-.681l-.08-2.559a.475.475,0,0,1,.026-.153.293.293,0,0,1,.1-.133.684.684,0,0,1,.227-.1,4.434,4.434,0,0,1,.875-.106.766.766,0,0,1,.288.048.27.27,0,0,1,.133.115.484.484,0,0,1,.048.17l.052,2.537a6.429,6.429,0,0,1,.8.029c.276.029.54.064.788.112a5.079,5.079,0,0,1,.679.179,1.725,1.725,0,0,1,.426.2.658.658,0,0,1,.175.163.875.875,0,0,1,.094.2,2.242,2.242,0,0,1,.08.256,2.314,2.314,0,0,1,.064.334,3.965,3.965,0,0,1,.034.417,1.041,1.041,0,0,1-.02.281.291.291,0,0,1-.083.153.216.216,0,0,1-.141.072,1.128,1.128,0,0,1-.46-.106,7.84,7.84,0,0,0-.8-.251,9.476,9.476,0,0,0-1.105-.212,5.171,5.171,0,0,0-1.358.011,5.5,5.5,0,0,0-1.411.35,2.625,2.625,0,0,0-.9.581,1.782,1.782,0,0,0-.448.776,2.416,2.416,0,0,0-.054.92,2.188,2.188,0,0,0,.509,1.207,3,3,0,0,0,1.015.721,6.014,6.014,0,0,0,1.345.434l1.522.328q.78.176,1.533.406a4.946,4.946,0,0,1,1.38.661,3.768,3.768,0,0,1,1.059,1.1,4.072,4.072,0,0,1,.575,1.726Z" transform="translate(-29.093 -24.964)" fill="#fff"/>
          </g>
          <path id="Path_7312" data-name="Path 7312" d="M55.164,35H53.852a15.945,15.945,0,0,0-2.329-5.611l.932-.934a1.866,1.866,0,0,0,0-2.628l-1.892-1.89a1.872,1.872,0,0,0-2.628,0L47,24.875a15.945,15.945,0,0,0-5.611-2.332V21.234a1.863,1.863,0,0,0-1.858-1.86H36.86A1.863,1.863,0,0,0,35,21.234v1.309a15.911,15.911,0,0,0-5.621,2.332l-.932-.934a1.874,1.874,0,0,0-2.629,0l-1.89,1.89a1.872,1.872,0,0,0,0,2.628l.935.934A15.945,15.945,0,0,0,22.534,35H21.223a1.864,1.864,0,0,0-1.857,1.86v2.671A1.866,1.866,0,0,0,21.223,41.4h1.312a15.933,15.933,0,0,0,2.338,5.615l-.935.932a1.872,1.872,0,0,0,0,2.628l1.89,1.892a1.872,1.872,0,0,0,2.629,0l.931-.934A15.91,15.91,0,0,0,35,53.86v1.311a1.863,1.863,0,0,0,1.855,1.86H39.53a1.863,1.863,0,0,0,1.858-1.86V53.86A15.885,15.885,0,0,0,47,51.529l.935.934a1.866,1.866,0,0,0,2.628,0l1.892-1.889a1.869,1.869,0,0,0,0-2.629l-.932-.934a15.954,15.954,0,0,0,2.329-5.61h1.312a1.867,1.867,0,0,0,1.86-1.861V36.865A1.866,1.866,0,0,0,55.164,35Z" transform="translate(-19.366 -19.374)" fill="none" stroke="#fff" stroke-miterlimit="10" stroke-width="3"/>
        </g>
      </g>
    </g>
  </g>
</svg>
