<svg xmlns="http://www.w3.org/2000/svg" width="118.379" height="149" viewBox="0 0 118.379 149"><defs><style>.a{fill:#e6e7e8;}.b{fill:#54349f;}.c{fill:#ffd000;}.d{fill:#453890;}.e{fill:#fff;}.f{fill:#8b65e4;}.g{fill:#3a2c60;}</style></defs><g transform="translate(-16 -3.58)"><path class="a" d="M106.3,56.407H90.463A3.268,3.268,0,0,0,87.2,59.671v43.955A14.289,14.289,0,0,1,72.373,117.89a14.6,14.6,0,0,1-13.721-14.644V59.671a3.268,3.268,0,0,0-3.264-3.264H39.555a3.268,3.268,0,0,0-3.263,3.264V103a37.759,37.759,0,0,0,11.257,26.759,36.022,36.022,0,0,0,25.391,10.51h.617a36.8,36.8,0,0,0,36-36.639V59.671A3.268,3.268,0,0,0,106.3,56.407Z" transform="translate(4.73 12.314)"/><path class="a" d="M110.057,29.967a13.081,13.081,0,1,0-18.384,0,15.007,15.007,0,0,0-8.714,13.6v4.845a3.7,3.7,0,0,0,3.7,3.7h28.413a3.7,3.7,0,0,0,3.7-3.7V43.568A15.006,15.006,0,0,0,110.057,29.967Z" transform="translate(15.609 0.932)"/><path class="a" d="M55.178,52.112H83.592a3.7,3.7,0,0,0,3.7-3.7V43.568a15.008,15.008,0,0,0-8.713-13.6,13.08,13.08,0,1,0-18.386,0,15.008,15.008,0,0,0-8.713,13.6v4.845a3.7,3.7,0,0,0,3.7,3.7Z" transform="translate(8.271 0.933)"/><path class="a" d="M55.812,48.413V43.568a15.007,15.007,0,0,0-8.714-13.6,13.081,13.081,0,1,0-18.384,0A15.006,15.006,0,0,0,20,43.568v4.845a3.7,3.7,0,0,0,3.7,3.7H52.113A3.7,3.7,0,0,0,55.812,48.413Z" transform="translate(0.932 0.932)"/><path class="a" d="M92.466,53.932V48.075a1.233,1.233,0,1,0-2.466,0v5.857a1.233,1.233,0,1,0,2.466,0Z" transform="translate(17.25 10.085)"/><path class="a" d="M80,48.075v5.857a1.233,1.233,0,1,0,2.466,0V48.075a1.233,1.233,0,1,0-2.466,0Z" transform="translate(14.919 10.085)"/><path class="a" d="M70,48.075v5.857a1.233,1.233,0,0,0,2.466,0V48.075a1.233,1.233,0,1,0-2.466,0Z" transform="translate(12.588 10.085)"/><path class="a" d="M60,48.075v5.857a1.233,1.233,0,0,0,2.466,0V48.075a1.233,1.233,0,1,0-2.466,0Z" transform="translate(10.257 10.085)"/><path class="a" d="M51.233,55.165a1.233,1.233,0,0,0,1.233-1.233V48.075a1.233,1.233,0,1,0-2.466,0v5.857A1.233,1.233,0,0,0,51.233,55.165Z" transform="translate(7.926 10.085)"/><path class="a" d="M40,48.075v5.857a1.233,1.233,0,0,0,2.466,0V48.075a1.233,1.233,0,1,0-2.466,0Z" transform="translate(5.595 10.085)"/><path class="b" d="M69.308,134.783c-19.8.34-36.015-16.214-36.015-36.023V55.438a2.03,2.03,0,0,1,2.03-2.03H51.156a2.03,2.03,0,0,1,2.031,2.03V99.012A15.757,15.757,0,0,0,68.1,114.887,15.522,15.522,0,0,0,84.2,99.393V55.438a2.03,2.03,0,0,1,2.031-2.03h15.833a2.03,2.03,0,0,1,2.03,2.03V99.393a35.441,35.441,0,0,1-34.784,35.39Z" transform="translate(4.031 11.615)"/><path class="c" d="M68.692,114.879c-.2,0-.4.016-.6.009A15.757,15.757,0,0,1,53.186,99.012V55.438a2.031,2.031,0,0,0-2.031-2.031H35.322a2.031,2.031,0,0,0-2.03,2.031V98.764c0,19.606,15.876,36.007,35.4,36.018Z" transform="translate(4.031 11.615)"/><path class="d" d="M53.186,65.929V55.438a2.031,2.031,0,0,0-2.031-2.031H35.322a2.031,2.031,0,0,0-2.03,2.031V65.929Z" transform="translate(4.031 11.615)"/><path class="c" d="M94.469,65.929V55.438a2.031,2.031,0,0,0-2.03-2.031H76.606a2.031,2.031,0,0,0-2.031,2.031V65.929Z" transform="translate(13.654 11.615)"/><path class="d" d="M103.43,22.06a11.806,11.806,0,0,1-13.6,0,13.766,13.766,0,0,0-9.874,13.2v4.845a2.466,2.466,0,0,0,2.466,2.466h28.412a2.466,2.466,0,0,0,2.466-2.466V35.26a13.766,13.766,0,0,0-9.874-13.2Z" transform="translate(14.909 4.308)"/><circle class="e" cx="11.846" cy="11.846" r="11.846" transform="translate(99.694 4.828)"/><path class="f" d="M71.951,22.06a11.807,11.807,0,0,1-13.6,0,13.766,13.766,0,0,0-9.874,13.2v4.845a2.466,2.466,0,0,0,2.466,2.466H79.359a2.466,2.466,0,0,0,2.466-2.466V35.26a13.766,13.766,0,0,0-9.874-13.2Z" transform="translate(7.571 4.308)"/><path class="e" d="M79.359,36.16H50.945a2.466,2.466,0,0,1-2.466-2.466v3.7a2.466,2.466,0,0,0,2.466,2.466H79.359a2.466,2.466,0,0,0,2.466-2.466v-3.7A2.466,2.466,0,0,1,79.359,36.16Z" transform="translate(7.571 7.02)"/><circle class="e" cx="11.846" cy="11.846" r="11.846" transform="translate(60.877 4.828)"/><path class="d" d="M40.471,22.06a11.806,11.806,0,0,1-13.6,0A13.766,13.766,0,0,0,17,35.26v4.845a2.466,2.466,0,0,0,2.466,2.466H47.878a2.466,2.466,0,0,0,2.466-2.466V35.26a13.766,13.766,0,0,0-9.874-13.2Z" transform="translate(0.233 4.308)"/><circle class="e" cx="11.846" cy="11.846" r="11.846" transform="translate(22.06 4.828)"/><g transform="translate(16 3.58)"><path class="g" d="M90.941,71.82a1.233,1.233,0,0,0-1.233,1.233v8.923a1.233,1.233,0,0,0,2.466,0V73.053A1.233,1.233,0,0,0,90.941,71.82Z" transform="translate(1.182 12.327)"/><path class="g" d="M102.3,52.408H86.463A3.267,3.267,0,0,0,83.2,55.671V99.626A14.289,14.289,0,0,1,68.373,113.89,14.6,14.6,0,0,1,54.652,99.245V55.671a3.267,3.267,0,0,0-3.264-3.263H35.555a3.267,3.267,0,0,0-3.263,3.263V99a37.766,37.766,0,0,0,11.257,26.758,36.025,36.025,0,0,0,25.39,10.509h.624a36.8,36.8,0,0,0,36-36.638V90.994a1.233,1.233,0,1,0-2.466,0v8.632A34.32,34.32,0,0,1,70.158,133.76V116.313A16.747,16.747,0,0,0,85.665,99.626V67.4h17.428v5.157a1.233,1.233,0,0,0,2.466,0V55.671a3.267,3.267,0,0,0-3.263-3.263ZM35.555,54.874H51.388a.8.8,0,0,1,.8.8v9.258H34.758V55.671A.8.8,0,0,1,35.555,54.874ZM34.758,99V67.4H52.186v31.85A17.1,17.1,0,0,0,67.692,116.3V133.77a33.557,33.557,0,0,1-22.414-9.779A35.278,35.278,0,0,1,34.758,99ZM85.665,64.929V55.671a.8.8,0,0,1,.8-.8H102.3a.8.8,0,0,1,.8.8v9.258Z" transform="translate(-12.202 7.802)"/><path class="g" d="M106.052,25.973a13.081,13.081,0,1,0-18.373,0,15,15,0,0,0-8.719,13.6v4.851a3.7,3.7,0,0,0,3.7,3.7H111.07a3.7,3.7,0,0,0,3.7-3.7V39.574a15,15,0,0,0-8.718-13.6Zm-19.8-9.3A10.615,10.615,0,1,1,96.864,27.289,10.615,10.615,0,0,1,86.25,16.676ZM112.3,44.421a1.233,1.233,0,0,1-1.233,1.233H82.657a1.233,1.233,0,0,1-1.233-1.233V39.574A12.539,12.539,0,0,1,89.9,27.737a12.972,12.972,0,0,0,13.934,0,12.542,12.542,0,0,1,8.474,11.838Z" transform="translate(-1.324 -3.58)"/><path class="g" d="M51.178,48.119H79.592a3.7,3.7,0,0,0,3.7-3.7V39.574a15,15,0,0,0-8.719-13.6,13.08,13.08,0,1,0-18.373,0,15,15,0,0,0-8.719,13.6V44.42a3.7,3.7,0,0,0,3.7,3.7Zm3.593-31.444A10.613,10.613,0,1,1,65.385,27.288,10.613,10.613,0,0,1,54.772,16.675ZM49.945,39.568A12.542,12.542,0,0,1,58.419,27.73a12.975,12.975,0,0,0,13.934,0,12.542,12.542,0,0,1,8.474,11.838V44.42a1.233,1.233,0,0,1-1.233,1.233H51.178a1.233,1.233,0,0,1-1.233-1.233Z" transform="translate(-8.662 -3.58)"/><path class="g" d="M51.812,44.419V39.573a15,15,0,0,0-8.719-13.6,13.08,13.08,0,1,0-18.373,0A15,15,0,0,0,16,39.567v4.852a3.7,3.7,0,0,0,3.7,3.7H48.113A3.7,3.7,0,0,0,51.812,44.419ZM23.291,16.674A10.615,10.615,0,1,1,33.906,27.287,10.615,10.615,0,0,1,23.291,16.674ZM18.466,44.419V39.573A12.542,12.542,0,0,1,26.94,27.735a12.972,12.972,0,0,0,13.934,0,12.539,12.539,0,0,1,8.475,11.838v4.846a1.233,1.233,0,0,1-1.233,1.233H19.7a1.233,1.233,0,0,1-1.233-1.233Z" transform="translate(-16 -3.579)"/><path class="g" d="M88.466,49.932V44.075a1.233,1.233,0,1,0-2.466,0v5.857a1.233,1.233,0,1,0,2.466,0Z" transform="translate(0.318 5.572)"/><path class="g" d="M76,44.075v5.857a1.233,1.233,0,0,0,2.466,0V44.075a1.233,1.233,0,0,0-2.466,0Z" transform="translate(-2.013 5.572)"/><path class="g" d="M66,44.075v5.857a1.233,1.233,0,0,0,2.466,0V44.075a1.233,1.233,0,0,0-2.466,0Z" transform="translate(-4.345 5.572)"/><path class="g" d="M56,44.075v5.857a1.233,1.233,0,0,0,2.466,0V44.075a1.233,1.233,0,0,0-2.466,0Z" transform="translate(-6.676 5.572)"/><path class="g" d="M47.233,51.165a1.233,1.233,0,0,0,1.233-1.233V44.075a1.233,1.233,0,0,0-2.466,0v5.857A1.233,1.233,0,0,0,47.233,51.165Z" transform="translate(-9.007 5.572)"/><path class="g" d="M36,44.075v5.857a1.233,1.233,0,0,0,2.466,0V44.075a1.233,1.233,0,0,0-2.466,0Z" transform="translate(-11.338 5.572)"/></g></g></svg>