<svg xmlns="http://www.w3.org/2000/svg" xmlns:xlink="http://www.w3.org/1999/xlink" width="21" height="21" viewBox="0 0 21 21"><defs><style>.a{fill:url(#a);}</style><linearGradient id="a" x1="0.5" x2="0.5" y2="1" gradientUnits="objectBoundingBox"><stop offset="0" stop-color="#ffc371"/><stop offset="1" stop-color="#ff5f6d"/><stop offset="1" stop-color="#fbd786"/></linearGradient></defs><path class="a" d="M10.5,21a10.578,10.578,0,0,1-2.116-.213,10.442,10.442,0,0,1-3.755-1.58,10.531,10.531,0,0,1-3.8-4.62,10.447,10.447,0,0,1-.612-1.971,10.6,10.6,0,0,1,0-4.232,10.442,10.442,0,0,1,1.58-3.755,10.531,10.531,0,0,1,4.62-3.8A10.447,10.447,0,0,1,8.384.213a10.6,10.6,0,0,1,4.232,0,10.443,10.443,0,0,1,3.755,1.58,10.531,10.531,0,0,1,3.8,4.62,10.447,10.447,0,0,1,.612,1.971,10.6,10.6,0,0,1,0,4.232,10.442,10.442,0,0,1-1.58,3.755,10.531,10.531,0,0,1-4.62,3.8,10.447,10.447,0,0,1-1.971.612A10.578,10.578,0,0,1,10.5,21Zm0-16.054A5.554,5.554,0,1,0,16.054,10.5,5.56,5.56,0,0,0,10.5,4.946Z"/></svg>