<svg xmlns="http://www.w3.org/2000/svg" xmlns:xlink="http://www.w3.org/1999/xlink" width="16.862" height="28.867" viewBox="0 0 16.862 28.867">
  <defs>
    <clipPath id="clip-path">
      <rect width="16.862" height="28.867" fill="none"/>
    </clipPath>
    <linearGradient id="linear-gradient" x1="0.5" x2="0.5" y2="1" gradientUnits="objectBoundingBox">
      <stop offset="0" stop-color="#dca3ff"/>
      <stop offset="0.509" stop-color="#90c5ff"/>
      <stop offset="1" stop-color="#5dffed"/>
    </linearGradient>
  </defs>
  <g id="emerald" clip-path="url(#clip-path)">
    <g id="Group_426" data-name="Group 426">
      <path id="Path_147" data-name="Path 147" d="M123.269,14.223l-2.848-4.984a.423.423,0,0,0-.735.42l2.486,4.351h-3.287L116.11,3.4l2.581,4.516a.423.423,0,0,0,.735-.42L115.26.208a.428.428,0,0,0-.734,0l-8.009,14.016a.429.429,0,0,0,0,.42l2.232,3.906a.423.423,0,0,0,.734-.42l-1.87-3.273H110.9l2.775,10.609-3.2-5.6a.423.423,0,0,0-.735.42l4.785,8.375a.428.428,0,0,0,.734,0l5.606-9.81a.423.423,0,0,0-.735-.42l-4.021,7.037,2.775-10.609h3.287l-1.05,1.838a.423.423,0,0,0,.734.42l1.412-2.471.024-.049A.428.428,0,0,0,123.269,14.223Zm-15.656-.213L113.675,3.4,110.9,14.01Zm7.28,12.767-3.118-11.921h6.236ZM111.774,14.01l3.118-11.921,3.118,11.921Z" transform="translate(-106.462 0.001)" fill="url(#linear-gradient)"/>
    </g>
  </g>
</svg>
