<svg xmlns="http://www.w3.org/2000/svg" xmlns:xlink="http://www.w3.org/1999/xlink" width="19" height="19" viewBox="0 0 19 19"><defs><style>.a{fill:none;}.b{clip-path:url(#a);}.c{fill:#303030;}</style><clipPath id="a"><rect class="a" width="19" height="19"/></clipPath></defs><g class="b"><rect class="a" width="19" height="19" transform="translate(0)"/><path class="c" d="M19.082,17.4l-3.96-3.96A8.217,8.217,0,0,0,16.8,8.4,8.349,8.349,0,0,0,8.4,0,8.349,8.349,0,0,0,0,8.4a8.349,8.349,0,0,0,8.4,8.4,8.217,8.217,0,0,0,5.04-1.68l3.96,3.96ZM2.4,8.4a5.942,5.942,0,0,1,6-6,5.942,5.942,0,0,1,6,6,5.942,5.942,0,0,1-6,6A5.942,5.942,0,0,1,2.4,8.4Z" transform="translate(0)"/></g></svg>