<svg xmlns="http://www.w3.org/2000/svg" width="49.425" height="49.738" viewBox="0 0 49.425 49.738"><g transform="translate(-3.494 -4.667)"><path d="M30.071,27.1v-.077c-.016.026-.033.052-.05.077Z" fill="#4875b4"/><path d="M49.265,4.667H7.145A3.609,3.609,0,0,0,3.494,8.23V50.843A3.608,3.608,0,0,0,7.145,54.4h42.12a3.61,3.61,0,0,0,3.654-3.562V8.23A3.609,3.609,0,0,0,49.265,4.667ZM18.475,46.3H11.01V23.845h7.465ZM14.743,20.777h-.05a3.891,3.891,0,1,1,.1-7.76,3.892,3.892,0,1,1-.049,7.76ZM45.394,46.3H37.929V34.286c0-3.018-1.08-5.078-3.781-5.078a4.089,4.089,0,0,0-3.831,2.731,5.111,5.111,0,0,0-.245,1.821V46.3H22.607s.1-20.354,0-22.459h7.465v3.179A7.412,7.412,0,0,1,36.8,23.314c4.911,0,8.594,3.211,8.594,10.11V46.3Z" fill="#4875b4"/></g></svg>