<svg width="381" height="284" viewBox="0 0 381 284" fill="none" xmlns="http://www.w3.org/2000/svg">
<path d="M381 249.479H0V249.669H381V249.479Z" fill="#EBEBEB"/>
<path d="M310.226 254.668H253.998V254.858H310.226V254.668Z" fill="#EBEBEB"/>
<path d="M85.5803 255.948H78.9585V256.139H85.5803V255.948Z" fill="#EBEBEB"/>
<path d="M325.61 261.739H310.987V261.93H325.61V261.739Z" fill="#EBEBEB"/>
<path d="M189.486 259.164H152.4V259.354H189.486V259.164Z" fill="#EBEBEB"/>
<path d="M145.618 259.164H127.041V259.354H145.618V259.164Z" fill="#EBEBEB"/>
<path d="M65.2349 255.948H39.9746V256.139H65.2349V255.948Z" fill="#EBEBEB"/>
<path d="M180.594 215.494H33.4594C32.3067 215.492 31.202 215.032 30.3877 214.217C29.5733 213.401 29.116 212.295 29.116 211.143V4.31292C29.126 3.16689 29.5878 2.0711 30.401 1.26356C31.2143 0.456025 32.3133 0.00196321 33.4594 0H180.594C181.748 0 182.855 0.45841 183.671 1.27438C184.487 2.09036 184.945 3.19706 184.945 4.35102V211.143C184.945 212.297 184.487 213.403 183.671 214.219C182.855 215.035 181.748 215.494 180.594 215.494ZM33.4594 0.152401C32.3572 0.154419 31.301 0.593648 30.5224 1.37368C29.7438 2.15371 29.3065 3.2108 29.3065 4.31292V211.143C29.3065 212.245 29.7438 213.302 30.5224 214.082C31.301 214.862 32.3572 215.301 33.4594 215.303H180.594C181.697 215.301 182.754 214.862 183.534 214.082C184.313 213.302 184.752 212.245 184.754 211.143V4.31292C184.752 3.2101 184.313 2.15303 183.534 1.37321C182.754 0.5934 181.697 0.154415 180.594 0.152401H33.4594Z" fill="#EBEBEB"/>
<path d="M345.422 215.494H198.28C197.127 215.492 196.021 215.033 195.206 214.217C194.39 213.401 193.931 212.296 193.929 211.143V4.31292C193.941 3.1662 194.404 2.07041 195.219 1.26309C196.033 0.455759 197.133 0.0019418 198.28 0H345.422C346.567 0.00396583 347.664 0.458914 348.476 1.26624C349.287 2.07356 349.748 3.16821 349.758 4.31292V211.143C349.758 212.294 349.302 213.398 348.489 214.214C347.676 215.029 346.573 215.49 345.422 215.494ZM198.28 0.152401C197.177 0.154415 196.12 0.5934 195.34 1.37321C194.56 2.15303 194.121 3.2101 194.119 4.31292V211.143C194.121 212.245 194.56 213.302 195.34 214.082C196.12 214.862 197.177 215.301 198.28 215.303H345.422C346.525 215.301 347.582 214.862 348.362 214.082C349.142 213.302 349.581 212.245 349.583 211.143V4.31292C349.581 3.2101 349.142 2.15303 348.362 1.37321C347.582 0.5934 346.525 0.154415 345.422 0.152401H198.28Z" fill="#EBEBEB"/>
<path d="M250.507 247.284H132.58V249.471H250.507V247.284Z" fill="#F0F0F0"/>
<path d="M295.709 158.686C295.709 158.686 305.47 172.402 319.781 160.69C333.07 149.832 320.009 123.558 320.009 123.558C320.009 123.558 335.455 128.412 337.947 108.044C340.438 87.6756 318.516 92.8496 318.516 92.8496C326.326 77.32 317.373 76.8476 310.69 78.2192C312.717 74.4092 313.357 69.7305 308.534 65.791C297.492 56.7765 289.964 67.315 289.964 67.315C289.964 67.315 284.218 47.5639 270.624 59.093V169.354C288.264 184.297 295.709 158.686 295.709 158.686Z" fill="#F5F5F5"/>
<path d="M275.714 50.8406H50.5435V249.479H275.714V50.8406Z" fill="#FAFAFA"/>
<path d="M259.514 19.9797H66.7436L50.5435 50.8407H275.714L259.514 19.9797Z" fill="#F0F0F0"/>
<path d="M241.897 229.087V208.689H228.669V188.298H132.359V208.689H145.588V229.087H158.824V249.479H255.125V229.087H241.897Z" fill="#F5F5F5"/>
<path d="M132.359 188.298V208.689H145.588V229.087H158.824V249.479H50.5435V188.298H132.359Z" fill="#EBEBEB"/>
<path d="M228.669 206.502H132.359V208.689H228.669V206.502Z" fill="#F0F0F0"/>
<path d="M241.897 226.893H145.588V229.08H241.897V226.893Z" fill="#F0F0F0"/>
<path d="M125.73 68.8315H62.4001V188.298H125.73V68.8315Z" fill="#F0F0F0"/>
<path d="M61.2114 188.298H62.4001L62.4001 68.8313H61.2114L61.2114 188.298Z" fill="#E6E6E6"/>
<path d="M116.266 132.078C118.206 132.078 119.779 130.505 119.779 128.565C119.779 126.625 118.206 125.052 116.266 125.052C114.326 125.052 112.753 126.625 112.753 128.565C112.753 130.505 114.326 132.078 116.266 132.078Z" fill="#FAFAFA"/>
<path d="M239.771 68.8315H147.714V160.698H239.771V68.8315Z" fill="#F5F5F5"/>
<path d="M235.938 156.385V73.1443H151.562V156.385H235.938Z" fill="white"/>
<path d="M151.554 73.1519V156.385H154.038C154.038 156.385 165.423 129.144 168.593 73.1443L151.554 73.1519Z" fill="#FAFAFA"/>
<path d="M235.938 73.1521V156.385H233.446C233.446 156.385 222.07 129.144 218.9 73.1521H235.938Z" fill="#FAFAFA"/>
<path d="M238.186 111.869H149.306V117.66H238.186V111.869Z" fill="#F5F5F5"/>
<path d="M196.642 159.205V70.325H190.851V159.205H196.642Z" fill="#F5F5F5"/>
<path d="M190.5 283.891C272.097 283.891 338.244 280.029 338.244 275.265C338.244 270.501 272.097 266.639 190.5 266.639C108.903 266.639 42.7556 270.501 42.7556 275.265C42.7556 280.029 108.903 283.891 190.5 283.891Z" fill="#F5F5F5"/>
<path d="M140.658 275.265H116.647C115.742 275.265 114.873 274.905 114.233 274.265C113.593 273.625 113.233 272.757 113.233 271.851V230.01H144.071V271.859C144.069 272.763 143.709 273.629 143.069 274.268C142.429 274.906 141.562 275.265 140.658 275.265Z" fill="#407BFF"/>
<path opacity="0.2" d="M144.071 230.01H113.241V248.168L144.071 241.485V230.01Z" fill="black"/>
<path d="M157.338 175.115C157.338 163.596 161.914 152.548 170.059 144.403C178.205 136.257 189.252 131.681 200.772 131.681C212.291 131.681 223.339 136.257 231.484 144.403C239.63 152.548 244.206 163.596 244.206 175.115V229.979H157.338V175.115Z" fill="#407BFF"/>
<path opacity="0.3" d="M157.338 175.115C157.338 163.596 161.914 152.548 170.059 144.403C178.205 136.257 189.252 131.681 200.772 131.681C212.291 131.681 223.339 136.257 231.484 144.403C239.63 152.548 244.206 163.596 244.206 175.115V229.979H157.338V175.115Z" fill="black"/>
<path d="M55.085 175.107V224.599C55.085 225.31 55.2252 226.015 55.4975 226.671C55.7699 227.328 56.1691 227.925 56.6723 228.428C57.1755 228.93 57.7728 229.328 58.43 229.6C59.0873 229.871 59.7917 230.01 60.5028 230.009H157.338V175.107C157.338 163.588 161.914 152.54 170.059 144.395C178.205 136.249 189.252 131.673 200.772 131.673H98.519C86.9995 131.673 75.9519 136.249 67.8065 144.395C59.661 152.54 55.085 163.588 55.085 175.107Z" fill="#407BFF"/>
<path opacity="0.2" d="M55.0927 213.81H157.345V198.57H55.0927V213.81Z" fill="black"/>
<path opacity="0.2" d="M55.0927 193.837H157.345V178.597H55.0927V193.837Z" fill="black"/>
<path d="M163.746 129.006H151.303V129.768H163.746V129.006Z" fill="#407BFF"/>
<path d="M144.78 129.006H138.09V129.768H144.78V129.006Z" fill="#407BFF"/>
<path d="M105.095 189.387V127.665C105.095 127.419 105.042 127.176 104.938 126.953C104.835 126.73 104.684 126.532 104.496 126.373C104.308 126.214 104.088 126.098 103.85 126.033C103.613 125.968 103.364 125.956 103.122 125.997L81.5798 129.54V138.478H98.0467V189.25C96.3838 190.014 95.0292 191.319 94.2045 192.953C93.3797 194.586 93.1334 196.451 93.506 198.243C93.8786 200.035 94.8479 201.647 96.2556 202.816C97.6632 203.985 99.4259 204.642 101.255 204.68C103.085 204.718 104.873 204.133 106.328 203.023C107.782 201.913 108.817 200.341 109.263 198.567C109.709 196.792 109.539 194.918 108.782 193.252C108.025 191.586 106.725 190.226 105.095 189.395V189.387Z" fill="#263238"/>
<path d="M163.517 236.22H274.952C275.766 236.222 276.547 235.903 277.126 235.332C277.705 234.761 278.036 233.985 278.046 233.172C278.046 232.351 277.72 231.564 277.14 230.984C276.56 230.404 275.773 230.078 274.952 230.078H157.338C157.348 231.711 158.003 233.273 159.161 234.423C160.319 235.574 161.885 236.22 163.517 236.22Z" fill="#407BFF"/>
<path opacity="0.2" d="M163.517 236.22H209.055C209.868 236.222 210.649 235.903 211.228 235.332C211.808 234.761 212.138 233.985 212.148 233.172C212.148 232.351 211.822 231.564 211.242 230.984C210.662 230.404 209.875 230.078 209.055 230.078H157.338C157.348 231.711 158.003 233.273 159.161 234.423C160.319 235.574 161.885 236.22 163.517 236.22Z" fill="black"/>
<path d="M270.114 268.514L263.667 268.567L261.907 253.639L268.361 253.586L270.114 268.514Z" fill="#FF8B7B"/>
<path opacity="0.2" d="M261.907 253.647L262.814 261.343L269.268 261.282L268.361 253.594L261.907 253.647Z" fill="black"/>
<path d="M322.509 252.687L316.962 255.979L307.932 243.962L313.48 240.67L322.509 252.687Z" fill="#FF8B7B"/>
<path opacity="0.2" d="M307.939 243.962L312.588 250.157L318.143 246.865L313.487 240.67L307.939 243.962Z" fill="black"/>
<path d="M263.652 267.82L270.7 267.759C270.831 267.76 270.957 267.803 271.061 267.881C271.166 267.959 271.242 268.069 271.28 268.194L272.986 273.916C273.03 274.049 273.042 274.19 273.02 274.328C272.998 274.466 272.943 274.597 272.86 274.71C272.778 274.822 272.669 274.913 272.544 274.976C272.419 275.038 272.28 275.069 272.141 275.067C269.596 275.067 265.915 274.93 262.715 274.96C258.981 274.96 257.32 275.227 252.938 275.265C250.287 275.265 249.357 272.613 250.447 272.362C255.407 271.219 257.975 271.066 262.136 268.338C262.581 268.023 263.107 267.844 263.652 267.82Z" fill="#263238"/>
<path d="M260.993 268.986C261.688 268.973 262.38 268.889 263.058 268.735C263.089 268.73 263.117 268.714 263.138 268.69C263.159 268.667 263.171 268.637 263.172 268.605C263.175 268.574 263.169 268.543 263.154 268.516C263.139 268.489 263.116 268.467 263.088 268.453C262.783 268.3 260.04 267.005 259.331 267.462C259.263 267.506 259.207 267.567 259.17 267.639C259.132 267.712 259.115 267.792 259.118 267.874C259.11 268.019 259.137 268.164 259.197 268.297C259.256 268.429 259.347 268.545 259.461 268.636C259.92 268.915 260.458 269.038 260.993 268.986ZM262.517 268.529C261.122 268.773 260.063 268.72 259.636 268.377C259.562 268.316 259.502 268.239 259.463 268.152C259.423 268.065 259.404 267.97 259.408 267.874C259.405 267.845 259.41 267.815 259.422 267.788C259.434 267.762 259.452 267.738 259.476 267.721C259.895 267.462 261.427 268.011 262.532 268.514L262.517 268.529Z" fill="#407BFF"/>
<path d="M263.027 268.727C263.057 268.734 263.089 268.734 263.119 268.727C263.141 268.711 263.158 268.689 263.168 268.663C263.177 268.637 263.179 268.609 263.172 268.582C263.172 268.46 262.669 265.687 261.13 265.862C260.726 265.908 260.612 266.106 260.589 266.273C260.482 267.035 262.113 268.392 262.966 268.742L263.027 268.727ZM261.26 266.129C262.182 266.129 262.646 267.653 262.784 268.293C261.938 267.813 260.802 266.715 260.863 266.289C260.863 266.289 260.863 266.159 261.138 266.129H261.26Z" fill="#407BFF"/>
<path d="M273.01 90.3961C272.164 95.2958 271.089 99.9973 269.786 104.745C269.136 107.112 268.417 109.472 267.63 111.824C267.218 113.005 266.83 114.178 266.365 115.352C266.144 115.938 265.923 116.525 265.671 117.112L265.313 117.996L265.13 118.43L265.031 118.666L264.894 118.964C264.269 120.311 263.503 121.588 262.608 122.774C261.846 123.848 261.016 124.839 260.2 125.822C258.57 127.742 256.87 129.525 255.148 131.277C251.709 134.732 248.092 138.006 244.313 141.084L240.876 137.663C243.81 133.937 246.766 130.173 249.624 126.446C251.049 124.587 252.436 122.697 253.731 120.83C254.379 119.901 254.996 118.964 255.537 118.049C256.027 117.271 256.445 116.449 256.787 115.595C256.832 115.504 256.939 115.138 257.023 114.894L257.282 114.087C257.465 113.561 257.625 113.012 257.785 112.464C258.112 111.374 258.417 110.261 258.73 109.157C259.324 106.924 259.88 104.668 260.421 102.398C261.473 97.8256 262.486 93.2079 263.401 88.6816L273.01 90.3961Z" fill="#FF8B7B"/>
<path d="M275.288 91.2878C274.899 98.6487 271.333 108.981 271.333 108.981L261.321 105.171L257.198 103.647C257.741 98.774 258.899 93.9888 260.642 89.4057C263.69 81.5571 270.754 79.6444 274.358 85.4204C275.197 86.7234 275.418 88.8418 275.288 91.2878Z" fill="#407BFF"/>
<path opacity="0.2" d="M275.288 91.2877C274.9 98.6486 271.333 108.981 271.333 108.981L261.321 105.171C261.917 102.574 262.696 100.023 263.653 97.5361C266.152 90.9981 271.486 88.5826 275.288 91.2877Z" fill="black"/>
<path d="M242.499 136.939L235.702 138.052L235.648 144.719C235.648 144.719 242.171 143.805 244.724 140.681L242.499 136.939Z" fill="#FF8B7B"/>
<path d="M229.408 141.915L229.552 146.297L235.648 144.719L235.694 138.052L229.408 141.915Z" fill="#FF8B7B"/>
<path d="M268.133 138.052C268.133 138.052 258.448 173.309 255.88 193.045C253.213 213.574 259.507 257.594 259.507 257.594L271.158 257.343C271.158 257.343 272.034 212.469 275.844 192.283C280.02 170.284 287.975 137.625 287.975 137.625L268.133 138.052Z" fill="#263238"/>
<path d="M272.59 257.868L258.89 258.143L257.884 253.594L272.415 253.555L272.59 257.868Z" fill="#407BFF"/>
<path opacity="0.4" d="M272.59 257.868L258.89 258.143L257.884 253.594L272.415 253.555L272.59 257.868Z" fill="white"/>
<path d="M316.573 255.339L322.631 251.742C322.749 251.667 322.888 251.634 323.027 251.649C323.166 251.664 323.295 251.727 323.393 251.826L327.744 255.91C327.85 256.003 327.932 256.119 327.983 256.25C328.034 256.381 328.053 256.522 328.038 256.662C328.023 256.802 327.974 256.936 327.897 257.053C327.819 257.17 327.715 257.267 327.592 257.335C325.382 258.6 322.143 260.383 319.393 261.976C316.185 263.888 314.821 264.925 311.094 267.157C308.808 268.514 306.667 266.677 307.483 265.908C311.193 262.418 313.335 260.993 315.56 256.55C315.774 256.057 316.126 255.637 316.573 255.339Z" fill="#263238"/>
<path d="M314.851 257.67C315.443 257.307 315.999 256.888 316.512 256.421C316.534 256.398 316.55 256.37 316.557 256.338C316.563 256.307 316.561 256.275 316.55 256.245C316.539 256.215 316.517 256.19 316.49 256.173C316.462 256.157 316.43 256.15 316.398 256.154C316.055 256.154 313.06 256.413 312.656 257.19C312.613 257.26 312.59 257.341 312.59 257.423C312.59 257.505 312.613 257.585 312.656 257.655C312.723 257.779 312.818 257.885 312.933 257.966C313.048 258.046 313.18 258.099 313.319 258.12C313.865 258.141 314.403 257.983 314.851 257.67ZM315.956 256.497C314.874 257.411 313.929 257.899 313.388 257.815C313.294 257.801 313.205 257.766 313.127 257.711C313.049 257.657 312.984 257.586 312.938 257.503C312.922 257.476 312.914 257.446 312.914 257.415C312.914 257.384 312.922 257.354 312.938 257.327C313.182 256.916 314.744 256.619 315.956 256.497Z" fill="#407BFF"/>
<path d="M316.489 256.436C316.516 256.416 316.536 256.39 316.55 256.36C316.565 256.337 316.573 256.311 316.573 256.283C316.573 256.256 316.565 256.23 316.55 256.207C316.474 256.116 314.653 253.921 313.419 254.881C313.091 255.125 313.091 255.361 313.152 255.514C313.426 256.192 315.56 256.565 316.451 256.459L316.489 256.436ZM313.655 255.08C314.455 254.615 315.613 255.682 316.086 256.169C315.103 256.169 313.579 255.803 313.411 255.407C313.411 255.407 313.365 255.293 313.571 255.14L313.655 255.08Z" fill="#407BFF"/>
<path d="M280.18 137.792C280.18 137.792 280.18 172.433 281.087 192.314C282.017 212.994 307.848 248.58 307.848 248.58L317.792 242.484C317.792 242.484 300.343 208.62 300.609 188.084C300.899 165.689 302.636 137.29 302.636 137.29L280.18 137.792Z" fill="#263238"/>
<path d="M319.073 242.476L308.062 249.197L305.311 246.461L317.427 238.384L319.073 242.476Z" fill="#407BFF"/>
<path opacity="0.4" d="M319.073 242.476L308.062 249.197L305.311 246.461L317.427 238.384L319.073 242.476Z" fill="white"/>
<path d="M267.333 82.2961C267.333 82.2961 260.132 101.94 268.133 138.059L302.636 137.297C302.758 132.001 298.88 106.238 303.459 81.1759C299.618 80.5332 295.739 80.1437 291.846 80.0101C286.958 79.8263 282.062 79.9306 277.185 80.3225C273.855 80.7228 270.561 81.3826 267.333 82.2961Z" fill="#407BFF"/>
<path d="M290.071 63.4976C289.248 68.2296 288.509 76.9011 291.877 79.9796C291.877 79.9796 290.688 84.8183 281.925 84.9783C274.922 85.1079 277.216 80.292 277.216 80.292C282.451 78.9204 282.23 75.019 281.231 71.3766L290.071 63.4976Z" fill="#FF8B7B"/>
<path opacity="0.2" d="M286.467 66.7056L281.239 71.369C281.483 72.2161 281.651 73.0831 281.742 73.9598C283.746 73.6321 286.467 71.3614 286.634 69.2507C286.734 68.3992 286.677 67.5366 286.467 66.7056Z" fill="black"/>
<path opacity="0.2" d="M295.763 93.6729L301.516 97.8181C301.264 102.23 301.188 106.52 301.226 110.544C297.698 106.993 295.725 100.462 295.763 93.6729Z" fill="black"/>
<path d="M290.62 77.625C290.62 77.625 288.966 81.6026 281.247 84.9859C282.489 85.4847 283.612 86.237 284.547 87.1948C285.481 88.1527 286.205 89.2949 286.673 90.5485C286.673 90.5485 292.288 85.2145 293.79 79.8805L290.62 77.625Z" fill="white"/>
<path d="M275.478 89.1084C275.478 89.1084 277.84 85.6794 281.247 84.9859C280.05 83.5229 278.816 80.2768 279.959 78.7375C278.955 79.0023 277.982 79.3727 277.056 79.8424C277.056 79.8424 272.423 82.6237 275.478 89.1084Z" fill="white"/>
<path d="M274.8 49.949C271.653 51.2978 270.091 59.7712 274.19 61.6153C278.29 63.4593 280.759 47.404 274.8 49.949Z" fill="#263238"/>
<path d="M290.482 56.3882C290.223 62.789 290.399 66.5457 287.244 69.8909C282.497 74.9277 274.549 72.1768 272.888 65.8294C271.364 60.1144 272.065 50.5894 278.26 47.9376C279.624 47.3406 281.118 47.1022 282.6 47.2452C284.082 47.3882 285.503 47.9077 286.728 48.7545C287.952 49.6013 288.94 50.7471 289.597 52.0832C290.255 53.4193 290.559 54.9012 290.482 56.3882Z" fill="#FF8B7B"/>
<path d="M280.828 58.3768C280.828 58.8949 280.576 59.3216 280.233 59.3293C279.89 59.3369 279.608 58.9178 279.601 58.3996C279.593 57.8815 279.852 57.4547 280.195 57.4471C280.538 57.4395 280.82 57.851 280.828 58.3768Z" fill="#263238"/>
<path d="M274.945 58.4988C274.945 59.017 274.693 59.4437 274.35 59.4513C274.008 59.459 273.726 59.0475 273.718 58.5217C273.71 57.9959 273.969 57.5768 274.312 57.5692C274.655 57.5616 274.937 57.9807 274.945 58.4988Z" fill="#263238"/>
<path d="M276.827 58.7197C276.239 60.3232 275.434 61.8385 274.435 63.2231C274.795 63.4691 275.205 63.6333 275.635 63.7044C276.065 63.7755 276.506 63.7517 276.926 63.6346L276.827 58.7197Z" fill="#FF5652"/>
<path d="M278.473 65.0368C279.173 65.0426 279.864 64.8794 280.488 64.561C281.111 64.2426 281.649 63.7785 282.054 63.208C282.065 63.1912 282.072 63.1724 282.075 63.1527C282.079 63.133 282.078 63.1128 282.073 63.0935C282.068 63.0742 282.059 63.0561 282.046 63.0404C282.034 63.0247 282.019 63.0117 282.001 63.0023C281.967 62.9819 281.927 62.9753 281.889 62.9839C281.851 62.9924 281.817 63.0154 281.795 63.048C281.411 63.5704 280.91 63.995 280.331 64.2875C279.753 64.5801 279.114 64.7324 278.465 64.732C278.445 64.733 278.426 64.7379 278.408 64.7465C278.389 64.7551 278.373 64.7671 278.36 64.782C278.346 64.7969 278.336 64.8142 278.329 64.8331C278.322 64.852 278.319 64.872 278.321 64.8921C278.322 64.9311 278.339 64.968 278.368 64.9949C278.396 65.0219 278.434 65.0369 278.473 65.0368Z" fill="#263238"/>
<path d="M282.557 56.4414C282.626 56.4392 282.693 56.4152 282.748 56.3728C282.81 56.322 282.85 56.2488 282.858 56.1688C282.867 56.0889 282.844 56.0088 282.793 55.9461C282.501 55.5584 282.12 55.2462 281.683 55.0355C281.246 54.8248 280.764 54.7216 280.279 54.7345C280.198 54.7416 280.123 54.7804 280.071 54.8426C280.019 54.9048 279.994 54.9851 280.001 55.0659C280.008 55.1468 280.047 55.2215 280.109 55.2737C280.171 55.3258 280.251 55.3511 280.332 55.3441C280.716 55.3405 281.095 55.4269 281.439 55.5963C281.783 55.7657 282.082 56.0133 282.313 56.3194C282.341 56.3577 282.378 56.3888 282.42 56.41C282.463 56.4312 282.51 56.442 282.557 56.4414Z" fill="#263238"/>
<path d="M272.324 56.5328C272.382 56.5322 272.439 56.5155 272.489 56.4846C272.539 56.4537 272.579 56.4098 272.606 56.3576C272.756 56.0005 272.99 55.6851 273.289 55.4383C273.587 55.1915 273.941 55.0206 274.32 54.9402C274.4 54.9271 274.472 54.8831 274.521 54.8176C274.569 54.7522 274.59 54.6704 274.579 54.5897C274.564 54.5102 274.52 54.4393 274.455 54.3913C274.39 54.3432 274.309 54.3216 274.229 54.3306C273.754 54.4325 273.311 54.646 272.936 54.9535C272.561 55.261 272.265 55.6535 272.072 56.0985C272.054 56.1343 272.044 56.1735 272.042 56.2135C272.039 56.2535 272.045 56.2936 272.058 56.3313C272.072 56.369 272.093 56.4036 272.12 56.433C272.147 56.4624 272.18 56.486 272.217 56.5023C272.25 56.5193 272.286 56.5296 272.324 56.5328Z" fill="#263238"/>
<path d="M304.564 85.7251C306.004 87.7977 307.269 89.8247 308.572 91.9125C309.875 94.0004 311.079 96.1035 312.275 98.2371C314.701 102.558 316.859 107.024 318.737 111.61C318.981 112.182 319.194 112.791 319.415 113.386L319.751 114.285L319.918 114.742L320.116 115.367C320.602 117.009 320.778 118.728 320.635 120.434C320.333 123.416 319.339 126.287 317.731 128.816C316.332 131.075 314.666 133.157 312.771 135.019C311.864 135.933 310.904 136.779 309.928 137.594C308.94 138.41 307.91 139.173 306.842 139.88L303.741 136.162C304.419 135.4 305.189 134.455 305.875 133.579C306.56 132.702 307.231 131.765 307.863 130.851C309.096 129.093 310.156 127.22 311.026 125.258C311.784 123.624 312.181 121.846 312.192 120.046C312.164 119.358 312.02 118.68 311.765 118.042L311.155 116.685C310.919 116.182 310.706 115.672 310.447 115.161C308.481 111.084 306.21 107.031 303.825 103.022C301.44 99.0144 298.94 94.991 296.464 91.1429L304.564 85.7251Z" fill="#FF8B7B"/>
<path d="M303.459 81.1912C309.486 82.4942 318.158 101.087 318.158 101.087L302.011 108.966C299.139 104.574 296.753 99.8831 294.894 94.9757C292.082 87.1195 297.005 79.7891 303.459 81.1912Z" fill="#407BFF"/>
<path d="M297.721 129.007L313.944 176.929C314.575 178.809 314.436 180.863 313.558 182.642C312.68 184.42 311.134 185.78 309.258 186.423L200.208 223.395C198.325 224.027 196.269 223.887 194.49 223.006C192.71 222.125 191.352 220.574 190.714 218.694L174.498 170.787C174.186 169.879 174.056 168.918 174.117 167.96C174.205 166.471 174.733 165.042 175.636 163.855C176.538 162.667 177.773 161.775 179.184 161.292L288.257 124.32C289.67 123.845 291.192 123.801 292.629 124.195C294.066 124.589 295.354 125.402 296.327 126.53C296.95 127.255 297.424 128.097 297.721 129.007Z" fill="#407BFF"/>
<path opacity="0.8" d="M297.721 129.007L313.944 176.929C314.575 178.809 314.436 180.863 313.558 182.642C312.68 184.42 311.134 185.78 309.258 186.423L200.208 223.395C198.325 224.027 196.269 223.887 194.49 223.006C192.71 222.125 191.352 220.574 190.714 218.694L174.498 170.787C174.186 169.879 174.056 168.918 174.117 167.96C174.205 166.471 174.733 165.042 175.636 163.855C176.538 162.667 177.773 161.775 179.184 161.292L288.257 124.32C289.67 123.845 291.192 123.801 292.629 124.195C294.066 124.589 295.354 125.402 296.327 126.53C296.95 127.255 297.424 128.097 297.721 129.007Z" fill="white"/>
<path opacity="0.6" d="M296.296 126.53L251.178 166.878C248.91 168.904 246.256 170.452 243.376 171.427C240.495 172.403 237.447 172.786 234.414 172.555L174.079 167.983C174.167 166.494 174.695 165.065 175.598 163.878C176.5 162.69 177.735 161.798 179.146 161.316L288.219 124.343C289.63 123.864 291.152 123.816 292.591 124.205C294.03 124.595 295.32 125.404 296.296 126.53Z" fill="#407BFF"/>
<path d="M305.372 135.27L298.438 135.316L302.712 142.319C302.712 142.319 307.65 141.122 308.107 138.638L305.372 135.27Z" fill="#FF8B7B"/>
<path d="M294.102 139.423L297.904 145.054L302.712 142.319L298.437 135.316L294.102 139.423Z" fill="#FF8B7B"/>
<path d="M294.848 51.2597C296.372 55.4354 291.762 65.1052 289.08 64.9223C286.398 64.7395 285.666 54.6887 287.19 52.1893C285.742 52.8599 271.95 52.8827 272.019 51.4273C272.369 46.139 281.75 44.2188 292.037 46.8553C294.711 46.7258 295.709 47.4573 294.848 51.2597Z" fill="#263238"/>
<path d="M293.515 63.3603C293.107 64.0458 292.566 64.6433 291.925 65.1181C291.284 65.593 290.555 65.9357 289.781 66.1264C287.708 66.6293 286.733 64.7624 287.388 62.8422C287.96 61.1124 289.727 58.7731 291.785 59.1236C293.842 59.4741 294.52 61.6611 293.515 63.3603Z" fill="#FF8B7B"/>
<path d="M263.797 48.7681L295.45 52.4257C295.61 52.4429 295.769 52.3965 295.895 52.2966C296.02 52.1968 296.102 52.0515 296.121 51.8923C296.138 51.734 296.093 51.5752 295.994 51.4499C295.896 51.3245 295.753 51.2427 295.595 51.2217L263.934 47.5717C263.776 47.5544 263.617 47.5997 263.491 47.698C263.366 47.7963 263.284 47.9397 263.263 48.0975C263.246 48.257 263.292 48.4168 263.392 48.5423C263.492 48.6678 263.637 48.7489 263.797 48.7681Z" fill="#407BFF"/>
<path d="M296.121 51.8618L296.669 47.1374C296.664 46.6209 296.465 46.1251 296.113 45.7473C295.76 45.3696 295.279 45.137 294.764 45.0953L275.326 41.4224C273.886 41.1481 272.56 41.9558 272.567 43.0988V49.1491L296.121 51.8618Z" fill="#407BFF"/>
<path d="M274.381 47.7547L282.61 48.7072L282.892 46.3069L274.388 45.3315L274.381 47.7547Z" fill="white"/>
</svg>
