<svg xmlns="http://www.w3.org/2000/svg" xmlns:xlink="http://www.w3.org/1999/xlink" width="133" height="131" viewBox="0 0 133 131">
  <defs>
    <linearGradient id="linear-gradient" x1="0.94" y1="1" x2="-0.182" y2="-0.337" gradientUnits="objectBoundingBox">
      <stop offset="0" stop-color="#502eff"/>
      <stop offset="1" stop-color="#d1c7ff"/>
    </linearGradient>
  </defs>
  <g id="employees" transform="translate(-2707 10)">
    <g id="employees-2" data-name="employees" transform="translate(336 140)">
      <g id="Group_1494" data-name="Group 1494" transform="translate(2422 -18914)" opacity="0.87">
        <rect id="Rectangle_2201" data-name="Rectangle 2201" width="133" height="131" rx="15" transform="translate(-51 18764)" fill="url(#linear-gradient)"/>
      </g>
    </g>
    <g id="Group_1528" data-name="Group 1528" transform="translate(2726.1 14.401)">
      <g id="Group_1507" data-name="Group 1507" transform="translate(0.9 12.599)">
        <path id="Path_7302" data-name="Path 7302" d="M2.477,65.95H91.309a1.3,1.3,0,0,0,1-.43,1.548,1.548,0,0,0,.43-1A16,16,0,0,0,83,50.19a10.232,10.232,0,0,0,1.289-4.728,7.594,7.594,0,1,0-15.188,0,9.4,9.4,0,0,0,1.289,4.728,18.269,18.269,0,0,0-3.581,2.149,23.623,23.623,0,0,0-11.6-9.456A15.6,15.6,0,0,0,57.5,35.146a10.745,10.745,0,1,0-21.491,0A15.6,15.6,0,0,0,38.3,42.883a23.623,23.623,0,0,0-11.6,9.456,18.269,18.269,0,0,0-3.581-2.149,10.23,10.23,0,0,0,1.289-4.728,7.607,7.607,0,0,0-7.451-7.594,7.74,7.74,0,0,0-7.594,7.594,9.4,9.4,0,0,0,1.289,4.728A15.84,15.84,0,0,0,.9,64.518a1.3,1.3,0,0,0,.43,1,1.626,1.626,0,0,0,1.147.43ZM76.838,40.734a4.77,4.77,0,0,1,4.728,4.728c0,2.579-2.149,6.3-4.728,6.3-2.436,0-4.728-3.726-4.728-6.3a4.77,4.77,0,0,1,4.728-4.73ZM72.4,52.626a5.92,5.92,0,0,0,8.883,0,12.969,12.969,0,0,1,8.454,10.46H70.526a25.438,25.438,0,0,0-2.149-8.166A10.143,10.143,0,0,1,72.4,52.626ZM46.892,27.265a7.858,7.858,0,0,1,7.881,7.881,13.151,13.151,0,0,1-2.866,7.594,6.847,6.847,0,0,1-5.015,2.866,6.77,6.77,0,0,1-5.015-2.866,13.151,13.151,0,0,1-2.864-7.6,7.858,7.858,0,0,1,7.879-7.879ZM40.3,45.319a9.211,9.211,0,0,0,6.592,3.3,9.211,9.211,0,0,0,6.59-3.3,20.971,20.971,0,0,1,11.749,9.743h0a21.81,21.81,0,0,1,2.436,8.024H26.117a20.315,20.315,0,0,1,2.436-7.877h0A20.14,20.14,0,0,1,40.3,45.319ZM17.1,40.734a4.77,4.77,0,0,1,4.72,4.728c0,2.579-2.149,6.3-4.728,6.3-2.436,0-4.728-3.726-4.728-6.3a4.77,4.77,0,0,1,4.726-4.73ZM12.5,52.626a6.422,6.422,0,0,0,4.446,2.012,6.422,6.422,0,0,0,4.441-2.006A16.1,16.1,0,0,1,25.4,54.923,22.991,22.991,0,0,0,23.25,63.09H4.052A12.818,12.818,0,0,1,12.5,52.626Z" transform="translate(-0.9 -7.489)" fill="#fff"/>
        <path id="Path_7303" data-name="Path 7303" d="M45.233,32.767H52.97a1.433,1.433,0,1,0,0-2.866H45.233A1.354,1.354,0,0,0,43.8,31.333,1.436,1.436,0,0,0,45.233,32.767Z" transform="translate(17.666 -5.112)" fill="#fff"/>
        <path id="Path_7304" data-name="Path 7304" d="M16.033,29.9a1.433,1.433,0,0,0,0,2.866h7.737a1.433,1.433,0,1,0,0-2.866Z" transform="translate(5.029 -5.111)" fill="#fff"/>
        <path id="Path_7305" data-name="Path 7305" d="M47.845,18.43a1.385,1.385,0,0,0-2.006,0l-5.015,5.015a1.419,1.419,0,0,0,2.006,2.006l5.015-5.015a1.385,1.385,0,0,0,0-2.006Z" transform="translate(16.202 -10.261)" fill="#fff"/>
        <path id="Path_7306" data-name="Path 7306" d="M27.445,25.445a1.385,1.385,0,0,0,0-2.006l-5.015-5.015a1.419,1.419,0,1,0-2.006,2.006l5.015,5.015a1.385,1.385,0,0,0,2.006,0Z" transform="translate(7.373 -10.254)" fill="#fff"/>
        <path id="Path_7307" data-name="Path 7307" d="M31.9,14.033V21.77a1.433,1.433,0,1,0,2.866,0V14.033A1.354,1.354,0,0,0,33.334,12.6,1.436,1.436,0,0,0,31.9,14.033Z" transform="translate(12.518 -12.599)" fill="#fff"/>
      </g>
    </g>
  </g>
</svg>
