<svg xmlns="http://www.w3.org/2000/svg" width="454.919" height="374.782" viewBox="0 0 454.919 374.782"><defs><style>.a{fill:#e0e0e0;}.b{fill:#f5f5f5;}.c{fill:#fff;}.d{fill:none;stroke:#fbfbfb;stroke-miterlimit:10;stroke-width:0.25px;}.e{fill:#263238;}.f{fill:#3f59b8;}.g{fill:#ffbe9d;}.h{fill:#eb996e;}.i{opacity:0.3;}.j{fill:#fafafa;}.k{fill:#455a64;}.l{fill:#b78876;}.m{fill:#7c5142;}.n{opacity:0.6;}.o{fill:#efc692;}</style></defs><g transform="translate(-25.645 -62.521)"><rect class="a" width="50.15" height="72.691" transform="translate(314.605 141.617)"/><rect class="b" width="50.15" height="72.691" transform="translate(312.092 141.617)"/><rect class="c" width="37.689" height="56.945" transform="translate(318.323 149.49)"/><path class="a" d="M356.012,206.435s-.005-.1-.008-.279,0-.456-.007-.807c0-.716-.009-1.763-.015-3.124-.008-2.729-.019-6.706-.034-11.73-.015-10.041-.036-24.261-.061-41l.125.125-37.684.011h-.005l.136-.136c-.01,21.482-.02,41.288-.027,56.945l-.109-.109,27.433.057,7.579.028,1.989.012c.45,0,.688.012.688.012s-.222.008-.665.011l-1.969.013-7.555.027-27.5.057h-.109v-.109c-.007-15.657-.017-35.463-.027-56.945v-.137h.141l37.684.012h.125v.125c-.025,16.778-.047,31.026-.062,41.087-.014,5.012-.025,8.98-.033,11.7-.007,1.349-.012,2.389-.015,3.1l-.008.793C356.017,206.348,356.012,206.435,356.012,206.435Z"/><path class="d" d="M354.264,149.87"/><path class="a" d="M362.383,141.617a8.686,8.686,0,0,1-.894,1.3c-.582.779-1.409,1.838-2.353,2.984s-1.825,2.161-2.478,2.882a8.687,8.687,0,0,1-1.1,1.126,9.39,9.39,0,0,1,.957-1.252l2.415-2.929,2.412-2.931A9.35,9.35,0,0,1,362.383,141.617Z"/><path class="c" d="M356.2,206.251a46.669,46.669,0,0,0,6.573,8.221"/><path class="a" d="M362.777,214.472a7.545,7.545,0,0,1-1.146-1.042,36.789,36.789,0,0,1-4.662-5.832,7.408,7.408,0,0,1-.765-1.347,10.506,10.506,0,0,1,.924,1.239c.553.776,1.33,1.838,2.237,2.973s1.772,2.125,2.407,2.835A10.31,10.31,0,0,1,362.777,214.472Z"/><path class="c" d="M312.085,214.25q3.285-4.052,6.569-8.1"/><path class="a" d="M318.654,206.145a50.009,50.009,0,0,1-3.178,4.138,49.789,49.789,0,0,1-3.391,3.967,100.266,100.266,0,0,1,6.569-8.1Z"/><path class="a" d="M312.092,141.617a45.374,45.374,0,0,1,3.189,3.811,45.411,45.411,0,0,1,2.974,3.981,45.22,45.22,0,0,1-3.188-3.812A45.452,45.452,0,0,1,312.092,141.617Z"/><rect class="a" width="12.62" height="35.831" transform="translate(331.65 161.052)"/><path class="b" d="M265,345.024a17.843,17.843,0,0,0-10.495,9.225,31.512,31.512,0,0,0-3.009,13.921c-.126,9.266,3.892,19.148,8.552,27.158,8.546-5.735,11.8-17.221,13.093-23.152,2.034-9.374.02-27.55-8.141-27.152"/><path class="b" d="M249.185,409.267c1.888-5.006.46-10.943-3.054-14.978a20.219,20.219,0,0,0-14.205-6.5c-2.47-.124-5.205.254-6.863,2.09a6.511,6.511,0,0,0-.932,6.533,13.2,13.2,0,0,0,4.238,5.39c6.134,5.029,12.992,8.771,20.816,7.467"/><path class="a" d="M255.6,431.554c.124-.015.1-2.343-.277-6.12a28.436,28.436,0,0,0-1.525-6.52,62.439,62.439,0,0,0-3.066-7.574A30.47,30.47,0,0,0,241.213,400a22.067,22.067,0,0,0-3.964-2.164,4.865,4.865,0,0,0-1.591-.464c-.075.173,2.148.973,5.122,3.222a32.665,32.665,0,0,1,9.027,11.219,73.167,73.167,0,0,1,3.09,7.422,31.3,31.3,0,0,1,1.7,6.3C255.155,429.242,255.44,431.574,255.6,431.554Z"/><path class="a" d="M265.308,359a17.652,17.652,0,0,0-.7,3.022c-.381,1.956-.893,4.793-1.5,8.3-1.2,7.023-2.759,16.744-4.214,27.521s-2.492,20.576-3.1,27.678c-.3,3.55-.513,6.427-.618,8.417a17.707,17.707,0,0,0-.065,3.1,17.809,17.809,0,0,0,.468-3.064l.945-8.38c.79-7.076,1.944-16.843,3.394-27.612,1.514-10.665,2.884-20.314,3.91-27.544.474-3.386.868-6.2,1.17-8.355A17.648,17.648,0,0,0,265.308,359Z"/><path class="b" d="M260.348,414.255a35.613,35.613,0,0,1,25.587-20.1c2.825-.521,6.3-.42,7.855,2s.189,5.641-1.519,7.956a30.427,30.427,0,0,1-31.944,10.926"/><path class="a" d="M282.021,401.6a4.966,4.966,0,0,0-1.6.343c-1.012.272-2.444.761-4.2,1.415a40.178,40.178,0,0,0-12.617,7.438,25.214,25.214,0,0,0-5.022,6.406,24.563,24.563,0,0,0-2.851,10.648,4.931,4.931,0,0,0,.056,1.631c.208.017.291-2.309,1.216-5.873a26.382,26.382,0,0,1,2.417-5.944,25.936,25.936,0,0,1,4.888-6.1,45.206,45.206,0,0,1,12.194-7.524C279.906,402.555,282.075,401.759,282.021,401.6Z"/><path class="b" d="M455.591,169.763s-10.482-3.094-14.722,21.013-4.582,37.365-4.582,37.365-1.47,5.229-5.346,3.293-10.468-8.778-15.122-5.757c-4.827,3.133-4.76,9.571-1.094,17.937s11.026,26.993,11.686,28.679c.647,1.656.441,4.45-2.411,3.554s-21.029-11.838-25.7-2.9,9.368,30.566,10.858,32.96,1.321,3.663.281,4.688-6.8-3.23-12.1-6.131-11.949-5.334-14.215.047,2.039,23.521,27.818,47.228l12.665,10.2,15.33-5.643c32.071-14.075,42.02-29.84,41.621-35.666s-7.481-5.677-13.433-4.65-12.782,3.184-13.434,1.878-.4-2.561,1.784-4.343,22.48-17.694,20.953-27.664-22.271-5.507-25.259-5.583-2.277-2.787-1.128-4.144c1.17-1.382,14.168-16.618,20.347-23.345s8.329-12.8,4.778-17.324c-3.424-4.366-11.877-.029-16.171.546S455,231.156,455,231.156s3.972-12.654,7.773-36.834-7.4-24.607-7.4-24.607"/><path class="a" d="M451.758,191.345s-.009.175-.052.511c-.05.36-.119.855-.208,1.491-.2,1.335-.484,3.259-.85,5.726-.745,4.972-1.876,12.157-3.308,21.03-2.856,17.748-7.012,42.23-11.691,69.253s-8.9,51.5-11.852,69.233c-1.467,8.849-2.655,16.017-3.48,21-.411,2.46-.731,4.379-.953,5.709-.112.633-.2,1.125-.261,1.482-.062.334-.108.5-.108.5s.008-.174.052-.51c.05-.359.119-.854.207-1.491.2-1.334.484-3.259.851-5.725.744-4.971,1.875-12.156,3.307-21.029,2.857-17.747,7.013-42.232,11.694-69.264s8.9-51.493,11.85-69.222c1.466-8.848,2.654-16.017,3.48-21,.41-2.46.73-4.379.953-5.71.111-.633.2-1.125.261-1.482C451.712,191.514,451.758,191.345,451.758,191.345Z"/><path class="a" d="M424.655,235.619a4.881,4.881,0,0,1,.723.93c.438.617,1.044,1.527,1.781,2.66,1.469,2.268,3.416,5.455,5.5,9.011l5.291,9.125,1.616,2.757a4.87,4.87,0,0,1,.549,1.04,4.832,4.832,0,0,1-.73-.924c-.436-.618-1.042-1.529-1.768-2.67-1.447-2.284-3.352-5.494-5.434-9.05-2.057-3.489-3.917-6.645-5.354-9.084q-.961-1.618-1.631-2.749A4.863,4.863,0,0,1,424.655,235.619Z"/><path class="a" d="M441.627,260.981c-.083-.127,6.306-4.435,14.268-9.619s14.488-9.286,14.571-9.159-6.3,4.434-14.27,9.621S441.71,261.109,441.627,260.981Z"/><path class="a" d="M432.568,302.162a5.091,5.091,0,0,1,1.129-.413l3.122-.952c2.634-.8,6.269-1.93,10.234-3.315s7.52-2.745,10.083-3.754l3.038-1.191a5.008,5.008,0,0,1,1.141-.378,5.144,5.144,0,0,1-1.055.575c-.7.336-1.709.8-2.975,1.353-2.53,1.1-6.069,2.535-10.051,3.915s-7.641,2.459-10.308,3.17c-1.335.35-2.418.621-3.173.785A5.029,5.029,0,0,1,432.568,302.162Z"/><path class="a" d="M412.168,282.6a4.324,4.324,0,0,1,.882.677c.543.462,1.316,1.144,2.264,2,1.9,1.7,4.487,4.083,7.326,6.737s5.391,5.08,7.218,6.856c.913.888,1.646,1.613,2.144,2.123a4.34,4.34,0,0,1,.734.834,4.293,4.293,0,0,1-.881-.677c-.543-.462-1.316-1.144-2.264-2-1.895-1.7-4.487-4.083-7.327-6.737s-5.39-5.08-7.217-6.855c-.913-.888-1.646-1.614-2.144-2.124A4.329,4.329,0,0,1,412.168,282.6Z"/><path class="a" d="M399.553,317.94a7.129,7.129,0,0,1,1.117.879l2.91,2.549c2.44,2.17,5.785,5.195,9.457,8.561s6.976,6.439,9.349,8.682l2.791,2.678a7.026,7.026,0,0,1,.972,1.037,7.1,7.1,0,0,1-1.118-.879c-.768-.674-1.743-1.528-2.909-2.549-2.44-2.169-5.785-5.2-9.458-8.562s-6.975-6.438-9.348-8.681l-2.791-2.677A7.056,7.056,0,0,1,399.553,317.94Z"/><path class="a" d="M425.677,341.564a8,8,0,0,1,1.417-.557l3.916-1.348c3.3-1.14,7.863-2.729,12.847-4.622s9.459-3.71,12.687-5.05l3.827-1.583a8,8,0,0,1,1.429-.523,8,8,0,0,1-1.342.719c-.879.43-2.162,1.03-3.759,1.745-3.193,1.433-7.649,3.318-12.647,5.208s-9.581,3.43-12.921,4.476c-1.671.519-3.028.924-3.972,1.183A8.128,8.128,0,0,1,425.677,341.564Z"/><path class="b" d="M103.842,383.345c23.086-13.17,30.586-40.856,32.045-66.227.244-4.234,1.115-8.643-.553-12.531s-6.123-6.849-10.066-5.416c-3.271,1.189-4.971,4.71-7,7.566a24.807,24.807,0,0,1-10.768,8.55c-2.816,1.148-6.22,1.7-8.74-.01-3.457-2.343-3.426-7.414-3.015-11.611q1.151-11.733,2.3-23.464c.411-4.2.816-8.482-.125-12.587s-3.487-8.071-7.379-9.556-9.042.366-10.263,4.4c-.507,1.679-.322,3.486-.6,5.218s-1.265,3.587-2.965,3.92c-1.721.339-3.292-1.005-4.435-2.349-3.945-4.637-6.386-10.368-8.637-16.051s-4.409-11.488-7.917-16.473-8.613-9.147-14.6-10.039-12.729,2.234-14.79,8c-2.066,5.78.837,12.1,4.156,17.238A94.1,94.1,0,0,0,48.3,272.309c1.237,1.061,2.579,2.207,2.942,3.809.656,2.883-2.251,5.42-5.1,6.087-3.225.756-6.591.12-9.9.205s-6.989,1.2-8.511,4.186c-2.113,4.134,1.064,8.961,4.326,12.231a80.607,80.607,0,0,0,22.506,15.894c2.985,1.414,6.145,2.7,8.437,5.1s3.449,6.311,1.674,9.13-5.727,3.416-8.907,2.518-5.915-2.918-8.892-4.363c-5.571-2.707-13.059-2.992-17.212,1.656-2.73,3.056-3.362,7.6-2.491,11.621s3.053,7.614,5.415,10.961c8.254,11.7,19.293,21.518,32.254,27.386s25.248,8.26,39,4.614"/><path class="a" d="M102.456,402.126a185.063,185.063,0,0,0-3.69-35.234,377.667,377.667,0,0,0-11.224-41.877q-1.774-5.481-3.5-10.826c-1.159-3.55-2.308-7.071-3.645-10.445A188.623,188.623,0,0,0,71.6,284.793c-3.088-5.892-6.233-11.371-9.211-16.473s-5.867-9.8-8.671-13.966a149.626,149.626,0,0,0-14.686-18.675c-1.9-2.062-3.425-3.613-4.474-4.65-.5-.493-.9-.881-1.2-1.172a3.246,3.246,0,0,0-.427-.38,2.981,2.981,0,0,0,.371.437l1.145,1.226c1.011,1.072,2.5,2.656,4.364,4.745a158.367,158.367,0,0,1,14.452,18.78c2.768,4.178,5.611,8.882,8.572,13.986s6.072,10.6,9.135,16.482a190.583,190.583,0,0,1,8.716,18.9c1.324,3.357,2.459,6.849,3.618,10.408l3.5,10.821a387.363,387.363,0,0,1,11.262,41.778,188.33,188.33,0,0,1,3.841,35.1"/><path class="a" d="M80.174,303.693a8.593,8.593,0,0,0,.574-1.753c.327-1.141.745-2.8,1.232-4.869.977-4.127,2.131-9.871,3.38-16.209s2.482-12.053,3.518-16.153c.513-2.051.945-3.708,1.258-4.849a8.387,8.387,0,0,0,.4-1.8,8.424,8.424,0,0,0-.689,1.711c-.4,1.116-.916,2.755-1.5,4.8-1.177,4.079-2.5,9.8-3.75,16.143-1.217,6.258-2.316,11.919-3.157,16.244-.391,1.952-.723,3.6-.989,4.916A8.386,8.386,0,0,0,80.174,303.693Z"/><path class="a" d="M27.113,288.658a11.76,11.76,0,0,0,2.13.455c1.374.25,3.364.6,5.808,1.114,4.9.987,11.61,2.587,18.942,4.676s13.881,4.289,18.574,6.006c2.355.843,4.241,1.575,5.548,2.074a11.642,11.642,0,0,0,2.059.71,11.672,11.672,0,0,0-1.944-.992c-1.274-.586-3.134-1.4-5.47-2.312-4.656-1.856-11.2-4.132-18.556-6.242a191.149,191.149,0,0,0-19.051-4.465c-2.465-.444-4.475-.714-5.867-.871A11.38,11.38,0,0,0,27.113,288.658Z"/><path class="a" d="M98.193,365.838a2.77,2.77,0,0,0,.431-.625c.3-.505.661-1.122,1.1-1.868.95-1.627,2.263-4.017,3.846-6.991,3.171-5.945,7.293-14.3,11.717-23.573s8.466-17.658,11.508-23.661l3.624-7.1c.391-.774.712-1.413.976-1.938a2.808,2.808,0,0,0,.294-.7,2.83,2.83,0,0,0-.431.626l-1.1,1.867c-.95,1.627-2.263,4.017-3.846,6.99-3.172,5.946-7.293,14.3-11.719,23.578s-8.464,17.654-11.506,23.658c-1.49,2.916-2.714,5.317-3.624,7.1-.391.775-.712,1.415-.976,1.939A2.88,2.88,0,0,0,98.193,365.838Z"/><path class="a" d="M28.574,336.144a2.9,2.9,0,0,0,.685.359l2.02.889c1.867.8,4.387,1.881,7.454,3.193,6.293,2.7,14.942,6.524,24.494,10.765s18.248,7.992,24.6,10.56c3.175,1.285,5.754,2.3,7.551,2.963l2.074.753a2.862,2.862,0,0,0,.742.212,2.919,2.919,0,0,0-.685-.36l-2.019-.888L88.036,361.4c-6.294-2.7-14.944-6.524-24.5-10.766s-18.244-7.991-24.595-10.559c-3.176-1.285-5.755-2.3-7.553-2.963l-2.073-.753A2.837,2.837,0,0,0,28.574,336.144Z"/><path class="a" d="M174.838,81.7v82.535H56.3L52.025,82.282Z"/><rect class="c" width="81.784" height="118.542" transform="translate(52.025 164.065) rotate(-90)"/><path class="a" d="M171.13,164.628H51.463V81.719H171.13ZM52.587,163.5H170.005V82.844H52.587Z"/><rect class="c" width="92.864" height="61.462" transform="translate(64.864 92.442)"/><path class="a" d="M157.728,92.443s-.16.01-.458.015l-1.32.016-5.1.033-19.137.072-66.849.132.268-.268c.008,18.778.016,39.585.025,61.454v.007l-.293-.293,92.864.06-.233.233c.051-18.7.093-34.039.122-44.718.026-5.338.046-9.508.06-12.366q.017-2.12.026-3.25c.008-.736.025-1.127.025-1.127s.017.357.025,1.078q.009,1.114.026,3.206c.014,2.846.034,7,.06,12.313.029,10.714.071,26.1.122,44.864v.234h-.234l-92.864.059h-.293v-.3c.008-21.869.017-42.676.024-61.454v-.27h.269l67.025.132,19.076.072,5.046.033,1.291.016C157.589,92.432,157.728,92.443,157.728,92.443Z"/><path class="a" d="M52.025,82.052a10.025,10.025,0,0,1,2.038,1.32c1.212.876,2.864,2.118,4.647,3.544s3.352,2.778,4.456,3.789a9.615,9.615,0,0,1,1.7,1.738c-.111.124-2.961-2.227-6.52-5.069S51.92,82.186,52.025,82.052Z"/><path class="a" d="M170.567,82.282a57.688,57.688,0,0,1-6.237,5.309,57.694,57.694,0,0,1-6.6,4.852,57.531,57.531,0,0,1,6.238-5.311A57.506,57.506,0,0,1,170.567,82.282Z"/><path class="c" d="M170.473,164.077l-13.217-10.712"/><path class="a" d="M157.256,153.365a61.932,61.932,0,0,1,6.793,5.128,62.023,62.023,0,0,1,6.424,5.584,61.871,61.871,0,0,1-6.793-5.129A62.221,62.221,0,0,1,157.256,153.365Z"/><path class="a" d="M52.025,164.065a56.31,56.31,0,0,1,6.172-5.254,56.107,56.107,0,0,1,6.536-4.8,56.336,56.336,0,0,1-6.173,5.255A56.3,56.3,0,0,1,52.025,164.065Z"/><rect class="a" width="20.58" height="58.432" transform="translate(83.719 132.171) rotate(-90)"/><rect class="a" width="63.382" height="91.869" transform="translate(385.185 62.522)"/><rect class="b" width="63.382" height="91.869" transform="translate(382.01 62.522)"/><rect class="c" width="47.632" height="71.969" transform="translate(389.884 72.472)"/><path class="a" d="M437.517,144.441s-.007-.122-.01-.352l-.009-1.02c0-.9-.011-2.229-.019-3.948-.01-3.449-.024-8.476-.043-14.825-.019-12.691-.046-30.661-.077-51.824l.158.158-47.627.014h-.006l.173-.172c-.014,27.15-.026,52.182-.035,71.969l-.138-.137,34.67.072,9.579.035,2.514.015c.57.005.87.015.87.015s-.281.01-.841.015l-2.488.015-9.548.035-34.756.072h-.137v-.138c-.01-19.787-.022-44.819-.035-71.969V72.3h.178l47.627.014h.158v.158c-.032,21.205-.059,39.212-.078,51.928-.018,6.334-.033,11.348-.043,14.789-.008,1.705-.014,3.019-.019,3.916l-.009,1C437.523,144.332,437.517,144.441,437.517,144.441Z"/><path class="d" d="M435.308,72.952"/><path class="a" d="M445.569,62.522a10.928,10.928,0,0,1-1.129,1.641c-.737.985-1.782,2.324-2.974,3.772s-2.308,2.731-3.133,3.643a10.882,10.882,0,0,1-1.4,1.423,11.937,11.937,0,0,1,1.21-1.582l3.052-3.7,3.048-3.7A11.84,11.84,0,0,1,445.569,62.522Z"/><path class="c" d="M437.759,144.209a59,59,0,0,0,8.308,10.39"/><path class="a" d="M446.067,154.6a9.451,9.451,0,0,1-1.448-1.317,46.473,46.473,0,0,1-5.893-7.37,9.553,9.553,0,0,1-.967-1.7,13.1,13.1,0,0,1,1.169,1.566c.7.981,1.68,2.322,2.826,3.757s2.239,2.686,3.042,3.583A13.015,13.015,0,0,1,446.067,154.6Z"/><path class="c" d="M382,154.318q4.152-5.121,8.3-10.243"/><path class="a" d="M390.3,144.075a63.029,63.029,0,0,1-4.016,5.23A63.034,63.034,0,0,1,382,154.318a63.551,63.551,0,0,1,4.018-5.23A63.51,63.51,0,0,1,390.3,144.075Z"/><path class="a" d="M382.01,62.522a57.437,57.437,0,0,1,4.029,4.817,57.655,57.655,0,0,1,3.76,5.031,57.124,57.124,0,0,1-4.03-4.817A57.08,57.08,0,0,1,382.01,62.522Z"/><rect class="a" width="15.949" height="45.284" transform="translate(406.727 87.085)"/><path class="e" d="M461.925,437.042c0,.144-97.411.261-217.546.261-120.177,0-217.567-.117-217.567-.261s97.39-.26,217.567-.26C364.514,436.782,461.925,436.9,461.925,437.042Z"/><path class="e" d="M339.7,264a17.277,17.277,0,0,1-5.156,16.9c-3.046,2.7-7.021,4.259-9.8,7.232a15.2,15.2,0,0,0-3.042,14.678,19.382,19.382,0,0,0,10.227,11.341,22.691,22.691,0,0,0,20.6-.7c7.734-4.37,12.236-13.133,13.376-21.943s-.652-17.731-2.977-26.3"/><path class="e" d="M437.191,419.346c8-1.31,15.5,1.134,23.422,2.888a14.125,14.125,0,0,0,6.485.345c3.433-.874,5.873-4.215,6.4-7.717a12.645,12.645,0,0,0-2.023-8.766,8.343,8.343,0,0,0-2.739-2.722,9.545,9.545,0,0,0-3.827-1.039,27.357,27.357,0,0,0-14.107,2.66,41.877,41.877,0,0,0-11.7,8.485c-1.675,1.676-1.172,3.615-1.914,5.866"/><path class="e" d="M274.959,290.233a61.979,61.979,0,0,1,.465-22.958,30.245,30.245,0,0,1,3.953-10.454,6.747,6.747,0,0,1,2.935-2.754,5.128,5.128,0,0,1,5.211,1.229,8.765,8.765,0,0,1,2.471,6.715,21.64,21.64,0,0,1-1.781,7.122c-3.1,7.9-7.97,14.459-13.254,21.1"/><path class="f" d="M429.983,319.137c1.823,1.291,42.055,87.886,42.055,87.886h0a17.019,17.019,0,0,0-10.247-1.011l-2.18.582a36.224,36.224,0,0,0-10.955,5l-11.465,7.756h0a3.258,3.258,0,0,1-1.634-2.526l-.031-.332-31.168-53.5Z"/><path class="g" d="M279.09,181.32l10.716,60.931c3.453,8.2,43.688,57.882,43.688,57.882l-13.307,42.742-52.836-72.251a27.631,27.631,0,0,1-7.442-19.384l2.064-65.1Z"/><path class="f" d="M336.135,290.583l27.592,2.086,24.061,3.732s42.2,11.091,42.2,15.711c0,1.538-11.527,38.229-17.95,60.211a152.669,152.669,0,0,0-3.883,16.235l21.833,48.484H326.169V392.585S319.2,334.26,320.4,326.3,336.135,290.583,336.135,290.583Z"/><path class="h" d="M266.034,156.7a121.987,121.987,0,0,1,1.894-18.506c.156-.866.509-1.92,1.382-2.034,1.079-.141,1.629,1.246,1.769,2.325a65.383,65.383,0,0,1-.906,22.108"/><path class="f" d="M278.3,285.72c11.838-10.582,12.241-28.913,11.228-43.5a4.833,4.833,0,0,1,.463-3.134c1.127-1.613,3.879-1.015,4.98.616s1.04,3.753.938,5.719c.606-1.667,3.209-1.657,4.429-.37s1.426,3.2,1.569,4.971q.2,2.443.394,4.886l34.582,32.96s.951-2.959,3.491-1.268,4.181,5.373,4.181,5.373l-24.371,53.2-45.231-55.029A18.323,18.323,0,0,1,278.3,285.72Z"/><path class="f" d="M325.236,322.528a46.124,46.124,0,0,0-7.937,15.489,28.18,28.18,0,0,0,.515,17.218,23.86,23.86,0,0,0,18.321,14.8"/><path class="g" d="M437.191,419.346l-1.313,17.7h25.634l6.011-31.254h0a32.28,32.28,0,0,0-21.671,6.792Z"/><path class="e" d="M290.349,281.8a8.431,8.431,0,0,1,.562-1.4c.4-.883.938-2.181,1.549-3.8s1.259-3.58,1.867-5.785a62.127,62.127,0,0,0,2.143-14.694c.046-2.288-.006-4.351-.138-6.078s-.267-3.124-.4-4.085a8.5,8.5,0,0,1-.138-1.505,8.411,8.411,0,0,1,.338,1.475c.2.954.4,2.351.567,4.085a55.506,55.506,0,0,1,.25,6.117,57.324,57.324,0,0,1-2.159,14.813,55.612,55.612,0,0,1-1.987,5.791c-.659,1.613-1.25,2.9-1.709,3.753A8.456,8.456,0,0,1,290.349,281.8Z"/><path class="e" d="M297.884,272.525a23.522,23.522,0,0,1,1.069-2.538,37.581,37.581,0,0,0,2.958-12.807,23.306,23.306,0,0,1,.153-2.749,10.551,10.551,0,0,1,.215,2.76,30.216,30.216,0,0,1-2.991,12.948A10.537,10.537,0,0,1,297.884,272.525Z"/><path class="e" d="M338.5,300.175c-.08-.045.337-.7.579-1.872a9.976,9.976,0,0,0-.26-4.631,33.931,33.931,0,0,0-1.738-4.423,7,7,0,0,1-.69-1.875,8.486,8.486,0,0,1,1.022,1.714,22.866,22.866,0,0,1,1.908,4.444,9.1,9.1,0,0,1,.116,4.858A3.545,3.545,0,0,1,338.5,300.175Z"/><path class="e" d="M332.487,370.617a1.755,1.755,0,0,1-.434-.242l-1.185-.782c-1.019-.694-2.489-1.707-4.225-3.074a36.24,36.24,0,0,1-5.614-5.368,21.533,21.533,0,0,1-4.343-8.452,26.64,26.64,0,0,1-.573-9.5,37.293,37.293,0,0,1,1.71-7.576,51.839,51.839,0,0,1,1.907-4.868c.255-.561.461-.994.609-1.283a1.763,1.763,0,0,1,.249-.431,15.732,15.732,0,0,1-.671,1.793c-.447,1.146-1.093,2.8-1.743,4.9a39.166,39.166,0,0,0-1.584,7.516,26.808,26.808,0,0,0,.6,9.316,21.436,21.436,0,0,0,4.211,8.278,37.944,37.944,0,0,0,5.472,5.385c1.7,1.394,3.13,2.452,4.112,3.2l1.127.861A1.854,1.854,0,0,1,332.487,370.617Z"/><path class="e" d="M389.139,380.511a1.6,1.6,0,0,1-.441.158c-.3.079-.726.227-1.3.338a25.414,25.414,0,0,1-4.9.588,27.505,27.505,0,0,1-26.068-16.489,25.294,25.294,0,0,1-1.569-4.681c-.145-.565-.2-1.017-.251-1.318a1.548,1.548,0,0,1-.046-.466,15.9,15.9,0,0,1,.493,1.734,29.455,29.455,0,0,0,1.708,4.578,27.9,27.9,0,0,0,25.727,16.274,29.454,29.454,0,0,0,4.869-.419A15.845,15.845,0,0,1,389.139,380.511Z"/><path class="e" d="M405.051,399.945c-.139-.036,1.184-5.564,2.954-12.344s3.32-12.251,3.459-12.215-1.183,5.563-2.955,12.346S405.19,399.982,405.051,399.945Z"/><path class="e" d="M419.044,388.207c-.124.073-4.144-6.5-8.977-14.677s-8.654-14.871-8.53-14.944,4.143,6.5,8.978,14.679S419.168,388.134,419.044,388.207Z"/><path class="e" d="M457.388,404.4c.01.1-1.455.221-3.737.8a29.507,29.507,0,0,0-3.913,1.3,29.089,29.089,0,0,0-8.49,5.367,29.718,29.718,0,0,0-2.851,2.979c-1.5,1.814-2.238,3.084-2.322,3.033a3.947,3.947,0,0,1,.461-.925,19.51,19.51,0,0,1,1.574-2.338,25.741,25.741,0,0,1,2.813-3.1,27.124,27.124,0,0,1,8.636-5.459,25.8,25.8,0,0,1,4.008-1.211,19.479,19.479,0,0,1,2.787-.418A3.928,3.928,0,0,1,457.388,404.4Z"/><path class="e" d="M462.286,398.379c-.008.106-1.61-.086-4.174.133a26.577,26.577,0,0,0-4.438.779,26.826,26.826,0,0,0-9.8,4.911,26.606,26.606,0,0,0-3.28,3.089c-1.71,1.923-2.515,3.321-2.6,3.264a4.71,4.71,0,0,1,.528-1,9.777,9.777,0,0,1,.726-1.11,16.478,16.478,0,0,1,1.072-1.4,24.232,24.232,0,0,1,3.259-3.223,25.56,25.56,0,0,1,9.981-5,24.053,24.053,0,0,1,4.531-.681,16.053,16.053,0,0,1,1.76-.024,9.79,9.79,0,0,1,1.324.082A4.707,4.707,0,0,1,462.286,398.379Z"/><g class="i"><path d="M355.635,360.771c-2.358,4.461-.392,9.9,1.76,14.467,1.668,3.538,3.527,7.137,6.563,9.6a14.024,14.024,0,0,0,20.353-2.872,31.58,31.58,0,0,1-29.162-20.632"/></g><g class="i"><path d="M401.537,358.586c-1.792,4.294-.441,10.166,1.444,14.419s3.875,9.005,2.364,13.4a5.824,5.824,0,0,0-.585,2.518c.1.864,1.038,1.687,1.812,1.288a1.992,1.992,0,0,0,.8-1.236q2.136-6.416,4.271-12.833"/></g><path class="j" d="M306.944,302.1a61.95,61.95,0,0,1,1.023-7.958,61.828,61.828,0,0,1,1.538-7.876,62.313,62.313,0,0,1-1.024,7.959A61.994,61.994,0,0,1,306.944,302.1Z"/><path class="j" d="M296.4,299.886c-.126.085-1.849-2.319-4.224-5.075s-4.481-4.832-4.377-4.945a35.337,35.337,0,0,1,8.6,10.02Z"/><path class="j" d="M305.446,274.131a8.087,8.087,0,0,1-1.128,1.8c-.761,1.065-1.864,2.5-3.157,4.022s-2.531,2.843-3.459,3.766a8.032,8.032,0,0,1-1.592,1.4c-.107-.105,2.083-2.475,4.654-5.507S305.325,274.043,305.446,274.131Z"/><path class="j" d="M301.915,261.545c-.143.057-.71-1.216-1.819-2.482-1.093-1.28-2.271-2.024-2.194-2.158a6.5,6.5,0,0,1,4.013,4.64Z"/><path class="j" d="M292.8,269.3a13.84,13.84,0,0,1-5.281.837,13.84,13.84,0,0,1,5.281-.837Z"/><path class="j" d="M315.807,280.411a27.027,27.027,0,0,0-.331-4.653,26.99,26.99,0,0,0-1.626-4.373,9.6,9.6,0,0,1,1.957,9.026Z"/><path class="j" d="M328.1,293.629a42.757,42.757,0,0,0-3.217-4.062,42.7,42.7,0,0,0-4.038-3.249,12.617,12.617,0,0,1,7.255,7.311Z"/><path class="j" d="M308.37,316.572a11.932,11.932,0,0,1-9.169-.315c.048-.151,2.037.479,4.571.554C306.3,316.91,308.333,316.418,308.37,316.572Z"/><path class="j" d="M317.632,321.317c-.143-.054.637-2.36,1.287-5.278s.942-5.334,1.094-5.321a24.12,24.12,0,0,1-2.381,10.6Z"/><path class="j" d="M337.856,322.093a73.981,73.981,0,0,1-8.348-9.165,73.771,73.771,0,0,1,8.348,9.165Z"/><path class="j" d="M347.285,345.46a37.668,37.668,0,0,1-6.146-6.363,37.772,37.772,0,0,1,6.146,6.363Z"/><path class="j" d="M329.769,347.688a20.2,20.2,0,0,1-8.617,5c-.055-.142,1.993-1.03,4.361-2.412S329.673,347.569,329.769,347.688Z"/><path class="j" d="M337.83,369.925c-.151-.038.448-2.665.746-5.958.315-3.293.211-5.985.366-5.994a25.649,25.649,0,0,1-1.112,11.952Z"/><path class="j" d="M368.137,351.845a22.126,22.126,0,0,1-7.521-8.6c.133-.081,1.508,2.087,3.588,4.452C366.269,350.072,368.235,351.724,368.137,351.845Z"/><path class="j" d="M379.212,361.282c-.118-.093,1.4-2.171,3.094-4.84s2.95-4.915,3.085-4.847a31.615,31.615,0,0,1-6.179,9.687Z"/><path class="j" d="M377.589,338.2a51.973,51.973,0,0,1-10.03-2.692,51.83,51.83,0,0,1,10.03,2.692Z"/><path class="j" d="M369.517,378.819a43.142,43.142,0,0,1,.556-9.45,43.133,43.133,0,0,1-.556,9.45Z"/><path class="j" d="M376.5,392.733a39.131,39.131,0,0,0,1.262-4.93,39.033,39.033,0,0,0,.085-5.09,12.021,12.021,0,0,1-1.347,10.02Z"/><path class="j" d="M358.407,389.659a15.469,15.469,0,0,1,1.923-10.012c.144.064-.778,2.176-1.3,4.942C358.491,387.349,358.565,389.653,358.407,389.659Z"/><path class="j" d="M341.909,396.708a55.746,55.746,0,0,1-4.7-3.647,55.49,55.49,0,0,1-4.628-3.732,38.162,38.162,0,0,1,9.324,7.379Z"/><path class="j" d="M353.085,377.09a88.255,88.255,0,0,1-11.973,6.354,88.415,88.415,0,0,1,11.973-6.354Z"/><path class="e" d="M387.79,421.116a3.285,3.285,0,0,1-.648.165c-.429.08-1.057.242-1.882.348a40.237,40.237,0,0,1-7.03.45,43.242,43.242,0,0,1-37.654-23.515,40.226,40.226,0,0,1-2.68-6.513c-.267-.788-.4-1.423-.513-1.844a3.173,3.173,0,0,1-.136-.654,3.3,3.3,0,0,1,.237.625c.149.411.309,1.035.6,1.809a45.288,45.288,0,0,0,2.814,6.406,43.883,43.883,0,0,0,37.339,23.318,45.174,45.174,0,0,0,6.991-.283c.826-.074,1.457-.2,1.892-.251A3.21,3.21,0,0,1,387.79,421.116Z"/><path class="j" d="M357.914,415.942a9.251,9.251,0,0,1,3.223-8.6,15.417,15.417,0,0,0-3.223,8.6Z"/><path class="j" d="M349.679,412.5a10.689,10.689,0,0,0-4.237,5.668,6.134,6.134,0,0,1,4.237-5.668Z"/><path class="j" d="M381.327,431.339a10.248,10.248,0,0,1-7.995-4.985,18.027,18.027,0,0,0,7.995,4.985Z"/><path class="j" d="M386.252,403.637a7.86,7.86,0,0,1-5.436,6.4,13.038,13.038,0,0,0,5.436-6.4Z"/><path class="j" d="M400.24,424.293c-.12-.1,1.2-1.77,2.416-4.074s1.875-4.325,2.024-4.282a15.434,15.434,0,0,1-4.44,8.356Z"/><path class="j" d="M418.729,427.021c.059.147-1.763.868-3.593,2.377-1.848,1.489-2.921,3.127-3.054,3.04a10.167,10.167,0,0,1,6.647-5.417Z"/><path class="j" d="M404.628,403.333c-.155.049-1.025-2.875-2.866-6.115-1.818-3.255-3.867-5.514-3.745-5.622a6.3,6.3,0,0,1,1.433,1.4,25.178,25.178,0,0,1,4.723,8.385A6.287,6.287,0,0,1,404.628,403.333Z"/><path class="j" d="M407.395,373.555a46.721,46.721,0,0,1-9.6,2.216,46.682,46.682,0,0,1,9.6-2.216Z"/><path class="j" d="M398.884,364.656a41.768,41.768,0,0,1-5.712-7.348,41.736,41.736,0,0,1,5.712,7.348Z"/><path class="j" d="M419.96,359.315A23.254,23.254,0,0,1,410.6,357.1a41.46,41.46,0,0,1,4.683,1.091A41.279,41.279,0,0,1,419.96,359.315Z"/><path class="j" d="M434.95,359.055a37.863,37.863,0,0,1,1.53-4.169,38.1,38.1,0,0,1,1.528-4.17,19.158,19.158,0,0,1-3.058,8.339Z"/><path class="j" d="M431.578,379.371a15.03,15.03,0,0,1-7.97-4.742c.105-.114,1.679,1.256,3.876,2.554S431.628,379.224,431.578,379.371Z"/><path class="j" d="M441.325,378.753a70.013,70.013,0,0,1,2.7-11.762,70.013,70.013,0,0,1-2.7,11.762Z"/><path class="j" d="M433.185,401.467a61.01,61.01,0,0,1-6.651-9.107,61.148,61.148,0,0,1,6.651,9.107Z"/><path class="j" d="M447.074,392.784c-.139.064-1.053-1.742-2.492-3.761s-2.828-3.488-2.721-3.6a15.7,15.7,0,0,1,5.213,7.359Z"/><path class="j" d="M460.091,390.829c-.128.079-1.436-1.884-3.2-4.184s-3.309-4.083-3.2-4.187a26.948,26.948,0,0,1,6.4,8.371Z"/><path class="j" d="M457.032,399.456a7.379,7.379,0,0,0-3.859-5.848c.018-.059.455-.006,1.086.311a5.552,5.552,0,0,1,2.914,4.417C457.217,399.04,457.093,399.463,457.032,399.456Z"/><path class="j" d="M446.878,411.286c-.075-.02-.052-.267-.13-.621a1.857,1.857,0,0,0-1.965-1.533c-.363.01-.6.093-.634.025s.149-.269.577-.388a1.9,1.9,0,0,1,2.388,1.863C447.1,411.076,446.938,411.308,446.878,411.286Z"/><path class="j" d="M342.842,430.2a14.358,14.358,0,0,1-8.242-8.242,24.113,24.113,0,0,0,8.242,8.242Z"/><path class="g" d="M279.187,182c-1.6-15.207-4.514-29.514-5.3-44.433a2.715,2.715,0,0,0-.71-2.057,1.868,1.868,0,0,0-2.59.751,5.709,5.709,0,0,0-.506,2.976,68.926,68.926,0,0,1-3.963,23.278c-1.72,4.841-3.985,9.5-5.283,14.471s1.127,6.657,3.364,11.282"/><path class="e" d="M228.123,121.764c-.093.11-5.717-4.466-12.561-10.219s-12.319-10.508-12.227-10.618,5.716,4.464,12.562,10.22S228.215,121.654,228.123,121.764Z"/><path class="e" d="M256.639,114.914c-.143.007-.709-8.881-1.262-19.851s-.886-19.871-.743-19.879.709,8.88,1.263,19.853S256.783,114.907,256.639,114.914Z"/><path class="e" d="M238.477,108.561c-.137.044-1.89-5.028-3.916-11.327S231,85.79,231.14,85.746s1.89,5.027,3.917,11.328S238.614,108.517,238.477,108.561Z"/><path class="e" d="M222.291,131.139a67.538,67.538,0,0,1-7.716-3.252,67.25,67.25,0,0,1-7.5-3.725,67.619,67.619,0,0,1,7.716,3.252A67.355,67.355,0,0,1,222.291,131.139Z"/><path class="e" d="M195.978,119.652c-.018.143-.85.156-1.858.03s-1.812-.344-1.794-.487.849-.156,1.858-.03S196,119.509,195.978,119.652Z"/><path class="e" d="M231.787,79.294c-.143,0-.26-.817-.26-1.826s.117-1.826.26-1.826.261.817.261,1.826S231.931,79.294,231.787,79.294Z"/><path class="e" d="M292.01,93.413c.106.1-4.506,5.389-10.3,11.819S271.127,116.8,271.021,116.7s4.5-5.388,10.3-11.82S291.9,93.317,292.01,93.413Z"/><path class="e" d="M299.35,86.142c.1.1-.43.8-1.186,1.553s-1.452,1.287-1.553,1.186.428-.8,1.185-1.554S299.248,86.04,299.35,86.142Z"/><path class="e" d="M317.172,111.742a9.181,9.181,0,0,1-1.358.809c-.89.492-2.193,1.175-3.816,1.992-3.246,1.637-7.794,3.776-12.918,5.9s-9.854,3.833-13.3,4.974c-1.726.571-3.129,1.012-4.106,1.293a9.248,9.248,0,0,1-1.531.391,9.236,9.236,0,0,1,1.468-.584l4.048-1.448c3.415-1.228,8.111-2.987,13.227-5.107s9.674-4.2,12.956-5.754l3.885-1.842A9.4,9.4,0,0,1,317.172,111.742Z"/><path class="e" d="M302.545,136.357a13.153,13.153,0,0,1-2.652.878c-1.663.457-3.987,1-6.582,1.443s-4.969.7-6.689.822a13,13,0,0,1-2.793.052,17.186,17.186,0,0,1,2.756-.418c1.705-.214,4.056-.529,6.638-.969s4.9-.924,6.582-1.288A17.2,17.2,0,0,1,302.545,136.357Z"/><path class="e" d="M315.836,133.9a16.08,16.08,0,0,1-5.76,0,16.02,16.02,0,0,1,5.76,0Z"/><path class="g" d="M264.2,188.267a13.9,13.9,0,0,1-5.281-13.164c.505-3,1.989-5.725,3.174-8.526s2.094-5.9,1.37-8.858a14.9,14.9,0,0,1-.794-3.387c-.006-1.163.742-2.464,1.9-2.517a2.87,2.87,0,0,1,2.173,1.312c1.942,2.411,3.511,9.458,2.528,14.708"/><path class="h" d="M269.271,167.835c-.051-.008.1-.807.161-2.266a27.3,27.3,0,0,0-.514-6.14,21.781,21.781,0,0,0-1.2-4.069,8.627,8.627,0,0,0-1.119-2.033,2.882,2.882,0,0,0-1.876-1.271,1.794,1.794,0,0,0-1.668,1.4,4.209,4.209,0,0,0,.164,2.574,13.84,13.84,0,0,1,.7,2.834,11.309,11.309,0,0,1-.11,3.021c-.7,4.055-2.863,7.34-3.955,10.583a14.25,14.25,0,0,0-.894,4.74,13.951,13.951,0,0,0,.617,4.164,14.2,14.2,0,0,0,3,5.3c.981,1.077,1.65,1.549,1.615,1.592a2.41,2.41,0,0,1-.492-.328,9.953,9.953,0,0,1-1.271-1.125,13.784,13.784,0,0,1-3.207-5.331,14.059,14.059,0,0,1-.7-4.277,14.51,14.51,0,0,1,.871-4.9c1.1-3.322,3.233-6.6,3.9-10.51a10.885,10.885,0,0,0,.109-2.882,13.513,13.513,0,0,0-.669-2.744,4.68,4.68,0,0,1-.147-2.877,2.824,2.824,0,0,1,.788-1.227,1.9,1.9,0,0,1,1.38-.493,3.3,3.3,0,0,1,2.208,1.467,8.953,8.953,0,0,1,1.158,2.152,21.515,21.515,0,0,1,1.158,4.164,25.1,25.1,0,0,1,.355,6.221,14.339,14.339,0,0,1-.222,1.68A2.455,2.455,0,0,1,269.271,167.835Z"/><path class="e" d="M400.008,249.054a6.915,6.915,0,0,0,6.177,5.337,8.675,8.675,0,0,0,7.53-3.7,11.722,11.722,0,0,0,1.868-8.36c-.575-4.21-3.373-8.257-7.432-9.514s-9.111.98-10.233,5.078l-4.68,6.536Z"/><path class="g" d="M394.474,236.221A27.231,27.231,0,0,0,370,205.725c-14.516-1.384-27.417,9.425-29.592,23.844-1.908,12.639-3.547,25.4-3.488,30.033.178,13.974,8.354,19.414,11.668,21.047a18.1,18.1,0,0,0,3.677.915h0a.092.092,0,0,1,.078.109l-3.1,16.041c-1.407,10.51,4.46,19.884,14.953,21.414,10.528,1.534,18.758-6.539,20.365-17.056Z"/><path class="e" d="M342.817,237.741c.231.327,2.076-.663,4.441-.312,2.366.317,3.925,1.787,4.224,1.534.145-.109-.057-.667-.733-1.328a6.1,6.1,0,0,0-3.33-1.583,5.858,5.858,0,0,0-3.586.606C343.024,237.111,342.7,237.593,342.817,237.741Z"/><path class="e" d="M363.863,242.3c.231.326,2.078-.663,4.441-.312,2.366.316,3.925,1.786,4.224,1.534.144-.11-.055-.667-.733-1.328a6.1,6.1,0,0,0-3.33-1.583,5.856,5.856,0,0,0-3.587.606C364.071,241.671,363.748,242.153,363.863,242.3Z"/><path class="e" d="M355.678,253.481a15.822,15.822,0,0,0-3.741-1.253c-.6-.15-1.149-.354-1.191-.781a3.107,3.107,0,0,1,.665-1.731l2.456-4.339c3.435-6.187,6.016-11.31,5.765-11.446s-3.237,4.768-6.673,10.955q-1.248,2.292-2.385,4.378a3.523,3.523,0,0,0-.659,2.324,1.531,1.531,0,0,0,.864,1.028,4.1,4.1,0,0,0,1.005.292C354.163,253.387,355.649,253.614,355.678,253.481Z"/><path class="h" d="M352.362,281.578s9.024,2.081,21.449-3.12c0,0-5.364,11.548-22.285,7.442Z"/><path class="e" d="M362.4,256.132c-.382-.078-.761,2.489-3.224,3.991s-5.156.821-5.228,1.177c-.059.156.537.588,1.687.788a6.461,6.461,0,0,0,4.343-.838,5.624,5.624,0,0,0,2.539-3.37C362.772,256.821,362.579,256.143,362.4,256.132Z"/><path class="e" d="M365.492,234.6c.14.677,2.546.716,5.272,1.455,2.742.685,4.861,1.823,5.313,1.3.205-.252-.1-.914-.911-1.669a9.508,9.508,0,0,0-8.064-2.1C366.023,233.853,365.436,234.284,365.492,234.6Z"/><path class="e" d="M345.207,230.449c.338.6,2.048.278,4.012.537,1.972.19,3.566.889,4.03.382.207-.248.024-.824-.627-1.439a5.858,5.858,0,0,0-6.479-.74C345.37,229.64,345.061,230.16,345.207,230.449Z"/><path class="e" d="M337.665,226.437c2.892,4.414,12.07,1.688,17.614-1.344a13.182,13.182,0,0,0,17.994-3.726c3.17,4.039,9.612,2.7,11.961-1.848s1.027-10.816-2.2-14.8-7.946-5.992-12.606-6.853c-11.048-2.041-23.082,2.242-29.693,12.233-3.049,4.609-4.879,10.816-3.071,16.337"/><path class="k" d="M368.206,199.444c-.011.194-2.611-.306-6.7.377a24.412,24.412,0,0,0-13.887,7.47,30.325,30.325,0,0,0-6.67,14.456,39.35,39.35,0,0,0-.343,6.7,6.033,6.033,0,0,1-.377-1.793,21.3,21.3,0,0,1,.081-5,29.126,29.126,0,0,1,6.626-14.967,23.915,23.915,0,0,1,14.473-7.5,20.85,20.85,0,0,1,5-.083A5.853,5.853,0,0,1,368.206,199.444Z"/><path class="k" d="M353.267,219.983a4.517,4.517,0,0,1-.221-1.572,15.824,15.824,0,0,1,.45-4.314,17.744,17.744,0,0,1,22.283-13.125,15.862,15.862,0,0,1,3.991,1.7,4.522,4.522,0,0,1,1.268.956c-.09.166-1.938-1.21-5.418-2.028a17.716,17.716,0,0,0-21.5,12.663C353.148,217.7,353.456,219.986,353.267,219.983Z"/><path class="e" d="M379.78,215.2a52.69,52.69,0,0,0-1.864,11.964,17.7,17.7,0,0,0,3.6,11.338c3.86,4.657,10.3,6.069,16.241,7.2a46.924,46.924,0,0,0,2.768-25.035c-.675-4.1-1.994-8.265-4.883-11.246a13.587,13.587,0,0,0-16.494-1.969"/><path class="e" d="M383.083,234.558c-1.567,3.38-1.45,7.292-.908,10.978s1.476,7.341,1.44,11.066-1.221,7.667-4.141,9.979a17.288,17.288,0,0,0-2.483,1.973,2.576,2.576,0,0,0-.516,2.921c.556.9,2.242.882,2.487-.149l-.153.261a1.651,1.651,0,0,0,1.4,2.495,7.515,7.515,0,0,0,5.336-2.621c1.91-2.211,2.668-5.176,3.17-8.055,1.54-8.831,1.24-17.981,3.678-26.607"/><path class="f" d="M349.173,292.546A21.51,21.51,0,0,0,377.9,307.813c5.176-2,9.352-5.9,13.389-9.711a31.378,31.378,0,0,1-29.078,36.462c-6.624.4-13.748-1.627-17.914-6.793a20.37,20.37,0,0,1-4.039-13.005,47.357,47.357,0,0,1,2.615-13.593c1.187-3.78,3.051-8.02,6.876-9.054"/><path class="e" d="M396.613,246.019c3.96,2.153,6.136,6.648,6.9,11.089s.383,8.992.571,13.495,1.052,9.206,3.9,12.7c3.022,3.713,7.75,5.472,11.965,7.744,9.323,5.027,16.987,13.536,19.8,23.749s.262,22.024-7.389,29.349c-6.962,6.665-17.1,9.011-26.735,8.984-6.876-.02-14.425-1.48-18.713-6.855-4.235-5.309-4.045-12.9-2.5-19.512s4.249-13.054,4.354-19.844a35.2,35.2,0,0,1-5.279,11.736c-.7,1.013-1.914,2.106-3,1.525-1.208-.644-.749-2.452-.188-3.7,8.286-18.432,5.4-55.579,10.31-75.929"/><path class="g" d="M389.791,243.914c.249-.08,9.915-1.911,8.674,7.649s-10.583,6.341-10.564,6.065S389.791,243.914,389.791,243.914Z"/><path class="h" d="M391.292,254.385c.046-.025.151.139.416.3a1.679,1.679,0,0,0,1.241.187c1.058-.239,2.117-1.732,2.387-3.449a5.553,5.553,0,0,0-.157-2.445,1.943,1.943,0,0,0-1.086-1.441.857.857,0,0,0-1.043.329c-.162.251-.126.449-.179.459-.03.021-.185-.186-.056-.571a1.067,1.067,0,0,1,.453-.55,1.27,1.27,0,0,1,.953-.124,2.359,2.359,0,0,1,1.547,1.708,5.69,5.69,0,0,1,.231,2.739c-.311,1.918-1.531,3.593-2.965,3.813a1.8,1.8,0,0,1-1.49-.451C391.279,254.619,391.256,254.4,391.292,254.385Z"/><path class="e" d="M339.286,313.154a24.859,24.859,0,0,1,1.625-2.955,40.218,40.218,0,0,0,3.451-7.291,18,18,0,0,0,.862-7.914,29.347,29.347,0,0,0-.765-3.251,2.672,2.672,0,0,1,.433.8,10.991,10.991,0,0,1,.7,2.392,16.879,16.879,0,0,1-.732,8.132,33.546,33.546,0,0,1-3.629,7.319c-.561.881-1.034,1.579-1.372,2.055A3.067,3.067,0,0,1,339.286,313.154Z"/><path class="j" d="M344.163,302.117c-.144.034-.415-.814-1.271-1.39-.837-.6-1.727-.565-1.745-.712-.01-.064.212-.177.605-.183a2.608,2.608,0,0,1,2.374,1.654C344.255,301.858,344.227,302.105,344.163,302.117Z"/><path class="j" d="M350.336,302.1a9.907,9.907,0,0,0-5.554-3.659,5.6,5.6,0,0,1,5.554,3.659Z"/><path class="j" d="M354.223,322.393a32.72,32.72,0,0,1,1.665-8.061,32.6,32.6,0,0,1-1.665,8.061Z"/><path class="j" d="M369.824,325.453a35.843,35.843,0,0,1,.268-8.617,35.851,35.851,0,0,1-.268,8.617Z"/><path class="l" d="M51.307,369.887,35.888,437.042l32.611.1,15.066-59.054Z"/><path class="e" d="M211.454,287.394c-3.1-4.158-6.661-8.147-8.295-13.068-.79-2.377-1.1-4.9-1.939-7.256s-2.368-4.66-4.709-5.55-4.118.013-5.642,1.677l-11.191,32.73,6.453,25.143c6.435-1.452,14.5-3.169,20.517-5.88s10.043-7.05,10.418-13.637C217.361,296.377,214.553,291.551,211.454,287.394Z"/><path class="f" d="M109.619,281.606s-38.9,16.936-43.764,24.575-20.833,62.108-20.833,62.108L85.976,380.34l-.675,56.7H185.8l-.83-99.972-12.608-55.262s-22.19-1.429-24.244-2.441S109.619,281.606,109.619,281.606Z"/><path class="l" d="M247.857,142.991c.321-2.293-1.283-4.812-.131-6.822a5.694,5.694,0,0,1,3.116-2.106,4.95,4.95,0,0,1,1.913-.457,1.691,1.691,0,0,1,1.574,1,2.129,2.129,0,0,1-.766,2.064,5.894,5.894,0,0,0-1.51,1.741c-.392.959-.033,3.967.366,4.924a85.637,85.637,0,0,1,3.307,10.7"/><path class="l" d="M239.648,143.783c.143-3.471,2.958-17.146,3.1-20.617,2.347.724,3.709,3.224,4.151,5.64s.214,4.914.632,7.334c.561,3.25,2.25,6.18,3.953,9s3.477,5.683,4.242,8.891,3.67,11.517,1.41,13.918"/><path class="l" d="M239,167.183l-13.9,66.082c-.491,2.984-52.726,48.543-52.726,48.543l10.317,41.212,68.052-66.533a27.631,27.631,0,0,0,7.442-19.384l-1.154-62Z"/><path class="l" d="M236.622,144.2,239,167.183l18.027,7.917s.22-1.633.995-9.6c.855-8.788-8.59-12.558-12.8-19.041-1.8-2.776-1.329-7.877-2.72-14.2-.161-.727-1.165-5.143-1.706-7.517a5.293,5.293,0,0,0-2.159-3.247c-.812-.546-1.736-.818-2.411,0S236.622,144.2,236.622,144.2Z"/><path class="l" d="M247.858,171.039c2.048-1.731,2.486-4.831,1.728-7.4a18.863,18.863,0,0,0-4.248-6.757,26.969,26.969,0,0,1-4.691-6.495c-.761-1.728-1.115-3.621-1.954-5.312s-2.368-3.241-4.255-3.315c1.508,9.508,1.471,14.981,4.558,25.426"/><path class="m" d="M236.274,152.583c.005.035-.072-.262-.185-.763l-.483-2.178-1.585-7.482-.06-.279.291-.023a4.71,4.71,0,0,1,3.361,1.257,10.206,10.206,0,0,1,2.816,4.815,25.2,25.2,0,0,0,1.582,4.173,12.9,12.9,0,0,0,1.758,2.426,3.608,3.608,0,0,1,.6.948,6.555,6.555,0,0,1-.755-.818,10.977,10.977,0,0,1-1.926-2.378,22.95,22.95,0,0,1-1.713-4.2,10,10,0,0,0-2.7-4.575,4.241,4.241,0,0,0-2.989-1.148l.231-.3C235.708,148.083,236.492,152.591,236.274,152.583Z"/><path class="m" d="M244.358,146.735a86.973,86.973,0,0,1-1.66-9.383,87.324,87.324,0,0,1-1.145-9.461,86.964,86.964,0,0,1,1.66,9.384A87.592,87.592,0,0,1,244.358,146.735Z"/><path class="m" d="M250.092,147.506c.027,0,.07.109.131.353l-.154.032a52.663,52.663,0,0,1-1.815-6.537c-.43-1.929-.746-3.692-.932-4.973a8.05,8.05,0,0,1-.182-2.094c.147-.024.762,3.111,1.622,6.954.688,3.1,1.325,5.725,1.459,6.608l-.154.033C250.055,147.631,250.064,147.51,250.092,147.506Z"/><path class="m" d="M253.637,160.177c-.074.044-.437-.518-1.161-1.29a11.231,11.231,0,0,0-7.248-3.5,12.764,12.764,0,0,1-1.732-.106,3.888,3.888,0,0,1,1.747-.262,9.829,9.829,0,0,1,7.511,3.624A3.889,3.889,0,0,1,253.637,160.177Z"/><path class="m" d="M240.627,169a13.9,13.9,0,0,1-1.184-2.719,61.423,61.423,0,0,1-3.325-13.9,14.02,14.02,0,0,1-.174-2.961,20.792,20.792,0,0,1,.539,2.909c.3,1.8.753,4.274,1.4,6.978s1.362,5.115,1.91,6.854A20.694,20.694,0,0,1,240.627,169Z"/><path class="f" d="M160.163,282.979a6.342,6.342,0,0,1,8.518-1.991c7.341-5.969,14.846-11.822,22.188-17.791-2.4,11.965-3.975,28.737,1.368,39.708,0,0,6.768,12.586,17.548,10.66l-9.611,9.455-15.2,14.05"/><path class="e" d="M157.778,288.6a9.848,9.848,0,0,1,4.77-7.847,30.421,30.421,0,0,0-2.911,3.6A30.232,30.232,0,0,0,157.778,288.6Z"/><path class="e" d="M165.706,295.951a6.282,6.282,0,0,1-.836-2.186,14.06,14.06,0,0,1,1.934-10.909,6.292,6.292,0,0,1,1.536-1.766c.068.059-.51.737-1.224,1.961a15.708,15.708,0,0,0-1.885,10.639C165.48,295.084,165.79,295.919,165.706,295.951Z"/><path class="j" d="M202.453,321.684a8.075,8.075,0,0,1-2.394.962,13.213,13.213,0,0,1-7.005-.211,16.776,16.776,0,0,1-8.423-6.039,28.308,28.308,0,0,1-5.023-11.71,88.156,88.156,0,0,1-1.2-23.114c.232-2.959.565-5.338.836-6.974.13-.819.255-1.45.342-1.878a3.179,3.179,0,0,1,.16-.647,3.17,3.17,0,0,1-.056.664c-.063.486-.145,1.113-.246,1.891-.208,1.641-.484,4.02-.669,6.97a93,93,0,0,0,1.341,22.981,28.222,28.222,0,0,0,4.893,11.525,16.582,16.582,0,0,0,8.15,5.979,13.439,13.439,0,0,0,6.851.366A21.381,21.381,0,0,0,202.453,321.684Z"/><path class="e" d="M86.192,397.168c-.143,0-.26-14.215-.26-31.746s.117-31.749.26-31.749.261,14.211.261,31.749S86.336,397.168,86.192,397.168Z"/><path class="e" d="M85.385,322.7c-.107,0-.077-1.422-.566-3.632a20.359,20.359,0,0,0-1.248-3.759,20.847,20.847,0,0,0-5.837-7.645,20.262,20.262,0,0,0-3.3-2.194c-2-1.055-3.386-1.4-3.355-1.5a3.632,3.632,0,0,1,.977.2,7.478,7.478,0,0,1,1.114.362,12.544,12.544,0,0,1,1.431.609,18.6,18.6,0,0,1,3.431,2.149,19.958,19.958,0,0,1,5.976,7.827A18.541,18.541,0,0,1,85.179,319a12.266,12.266,0,0,1,.211,1.541,7.5,7.5,0,0,1,.056,1.17A3.64,3.64,0,0,1,85.385,322.7Z"/><path class="e" d="M153.884,281.175a5.346,5.346,0,0,1,.165.842,19.553,19.553,0,0,1,.259,2.45,25.532,25.532,0,0,1-1.248,8.951,26.214,26.214,0,0,1-7.247,11.221,25.8,25.8,0,0,1-30.8,2.308,26.2,26.2,0,0,1-8.839-10.016,25.521,25.521,0,0,1-2.568-8.665,19.628,19.628,0,0,1-.109-2.46,5.178,5.178,0,0,1,.038-.857,5.375,5.375,0,0,1,.067.855c.006.561.08,1.383.205,2.438a26.2,26.2,0,0,0,11.469,18.3,25.482,25.482,0,0,0,30.22-2.265,26.206,26.206,0,0,0,8.612-19.808c-.034-1.062-.082-1.887-.16-2.442A5.3,5.3,0,0,1,153.884,281.175Z"/><path class="j" d="M85.329,367.93c-.045.136-8.305-2.47-18.445-5.82s-18.329-6.179-18.284-6.316,8.3,2.469,18.447,5.821S85.374,367.793,85.329,367.93Z"/><path class="j" d="M184,354.053c0,.144-22.054.353-49.254.467s-49.26.091-49.261-.053,22.05-.353,49.259-.467S184,353.909,184,354.053Z"/><path class="j" d="M184.5,362.758c0,.143-22.167.26-49.5.26s-49.508-.117-49.508-.26S107.65,362.5,135,362.5,184.5,362.614,184.5,362.758Z"/><path class="e" d="M170.922,373.342a5.248,5.248,0,0,1-.279.807l-.9,2.281q-.3.748-.66,1.645c-.257.594-.57,1.225-.889,1.911-.658,1.361-1.341,2.947-2.29,4.6l-1.432,2.625c-.5.91-1.1,1.812-1.685,2.77-1.135,1.934-2.541,3.874-3.981,5.942a107.387,107.387,0,0,1-10.7,12.4,107.487,107.487,0,0,1-12.61,10.459c-2.1,1.4-4.064,2.767-6.02,3.864-.969.562-1.882,1.145-2.8,1.63l-2.653,1.381c-1.671.917-3.27,1.568-4.644,2.2-.692.306-1.328.606-1.928.851l-1.657.628-2.3.852a5.157,5.157,0,0,1-.813.263,5.4,5.4,0,0,1,.777-.361l2.258-.942,1.636-.668c.592-.258,1.222-.571,1.906-.888,1.358-.655,2.94-1.327,4.594-2.262l2.627-1.4c.91-.493,1.815-1.082,2.775-1.649,1.938-1.109,3.887-2.484,5.966-3.886a110.751,110.751,0,0,0,12.521-10.439,110.6,110.6,0,0,0,10.679-12.312c1.443-2.05,2.856-3.972,4-5.888.586-.949,1.193-1.841,1.7-2.742s.992-1.769,1.456-2.6c.967-1.636,1.67-3.2,2.351-4.55.33-.678.656-1.3.925-1.887s.488-1.131.7-1.623q.621-1.409.986-2.24A5.191,5.191,0,0,1,170.922,373.342Z"/><g class="i"><path d="M166.859,382.04c-6.721,8.177-13.76,14.114-23.633,17.929-4.726,1.826-9.679,3.072-14.259,5.238s-8.893,5.442-10.948,10.073c-1.588,3.579-.816,8.968,3.015,9.777a8.1,8.1,0,0,0,4.349-.668c19.549-7.087,32.394-24.963,41.476-42.349"/></g><path class="e" d="M96.933,204.079c-4.22,3.313-4.5,9.5-4.293,14.862s.272,11.458-3.612,15.158c-3.2,3.051-8.8,4.184-9.722,8.509a5.029,5.029,0,0,0,8.084,4.955c-1.357,3.384-.741,7.731,2.145,9.959s7.946,1.188,9.042-2.29a4.425,4.425,0,1,0,8.606,2"/><path class="e" d="M158.174,242.893a5.326,5.326,0,1,0,10.009-3.627c-.831-2.074-2.956-3.645-3.058-5.877-.124-2.7,2.71-4.487,5.2-5.542s5.412-2.442,5.806-5.119c.38-2.584-1.845-4.716-3.707-6.547s-3.648-4.609-2.337-6.868c.671-1.155,1.982-1.776,2.858-2.785,1.939-2.233,1.161-5.977-1.077-7.911s-5.451-2.343-8.384-1.96-5.726,1.455-8.6,2.161a35.365,35.365,0,0,1-27.962-5.045"/><path class="l" d="M99.795,224.7l10.3,59.641a19.193,19.193,0,0,0,22.29,15.629h0a19.2,19.2,0,0,0,15.741-20.6c-.471-5.288-.875-9.667-.875-9.667s14.94-3.838,13.649-19.023c-.624-7.339-3.14-22.349-5.573-35.9a28.387,28.387,0,0,0-30.7-23.219l-1.464.142A28.2,28.2,0,0,0,99.795,224.7Z"/><path class="e" d="M152.134,224.613A2.177,2.177,0,0,1,150.258,227a2.082,2.082,0,0,1-2.423-1.735,2.177,2.177,0,0,1,1.873-2.39A2.083,2.083,0,0,1,152.134,224.613Z"/><path class="e" d="M152.79,222.536c-.241.309-2-.745-4.331-.512-2.331.2-3.924,1.565-4.205,1.3-.137-.114.087-.651.779-1.266a5.98,5.98,0,0,1,3.333-1.394,5.735,5.735,0,0,1,3.481.761C152.617,221.91,152.91,222.4,152.79,222.536Z"/><path class="e" d="M129.33,227.275a2.177,2.177,0,0,1-1.876,2.389,2.081,2.081,0,0,1-2.423-1.735,2.177,2.177,0,0,1,1.874-2.39A2.082,2.082,0,0,1,129.33,227.275Z"/><path class="e" d="M129.922,225.2c-.242.309-2-.745-4.332-.512-2.33.2-3.924,1.566-4.2,1.3-.136-.114.085-.65.78-1.266a5.974,5.974,0,0,1,3.332-1.394,5.735,5.735,0,0,1,3.481.761C129.747,224.578,130.041,225.065,129.922,225.2Z"/><path class="e" d="M140.065,241.665a15.528,15.528,0,0,1,3.719-1.052c.59-.119,1.141-.292,1.2-.708a3.048,3.048,0,0,0-.569-1.726q-1.05-2.077-2.2-4.36c-3.074-6.215-5.36-11.348-5.109-11.47s2.947,4.817,6.02,11.032c.743,1.534,1.454,3,2.13,4.4a3.46,3.46,0,0,1,.537,2.306,1.5,1.5,0,0,1-.894.965,4.028,4.028,0,0,1-1,.239A15.228,15.228,0,0,1,140.065,241.665Z"/><path class="e" d="M129.633,216.012c-.168.656-2.525.582-5.227,1.178-2.714.542-4.842,1.558-5.26,1.025-.188-.256.138-.89.97-1.591a9.313,9.313,0,0,1,7.989-1.678C129.149,215.252,129.7,215.7,129.633,216.012Z"/><path class="e" d="M151.275,215.874c-.358.57-2.017.177-3.951.339-1.938.094-3.53.7-3.961.186-.191-.252.015-.808.68-1.379a5.744,5.744,0,0,1,6.376-.423C151.154,215.075,151.431,215.6,151.275,215.874Z"/><path class="e" d="M114.642,206.462l-.077.074a11.986,11.986,0,0,0-3.683,8.147c0,.109-.008.213-.012.31-.172,4.384.365,8.775.15,13.157s-1.282,8.923-4.186,12.211c-1.195,1.352-3.436,2.422-4.657,1.092a3.716,3.716,0,0,1-.733-1.93c-1.827-10.366-5.583-19.356-6.628-30.28a9.252,9.252,0,0,1,3.09-7.868c2.128-1.861,4.755-3.833,7.413-2.878s6.415,5.392,8.582,7.217"/><path class="l" d="M105.578,231.063c-.27-.087-10.722-2.067-9.38,8.27s11.443,6.858,11.423,6.559S105.578,231.063,105.578,231.063Z"/><path class="m" d="M103.954,242.386c-.049-.028-.163.149-.45.328a1.819,1.819,0,0,1-1.342.2c-1.144-.259-2.289-1.874-2.581-3.73a6,6,0,0,1,.17-2.644,2.1,2.1,0,0,1,1.175-1.558.925.925,0,0,1,1.127.355c.176.271.137.486.194.5.032.022.2-.2.06-.618a1.157,1.157,0,0,0-.49-.6,1.37,1.37,0,0,0-1.03-.134,2.551,2.551,0,0,0-1.673,1.847,6.161,6.161,0,0,0-.25,2.962c.336,2.075,1.655,3.885,3.206,4.123a1.946,1.946,0,0,0,1.611-.487C103.968,242.638,103.993,242.4,103.954,242.386Z"/><path class="e" d="M105.125,200.136c-2.957-3.9,3.457-10.538,8.417-12.65s11.945-.275,17.2.918c3.317.752,6.665,1.927,10.034,1.457a22.979,22.979,0,0,0,6.41-2.315,16.855,16.855,0,0,1,6.506-1.957,6.286,6.286,0,0,1,5.794,2.929c1.065,2.018.114,5.017-2.1,5.549a5.115,5.115,0,1,1,2.277,9.3c1.366-1.261,3.806.365,3.8,2.224s-1.542,3.361-3.163,4.27c-4.139,2.321-9.24,2.206-13.863,1.136s-9-3.012-13.6-4.2-12.309-3.362-16.61-1.358c-3.167,1.476-5.064,5.648-7,4.957a6.371,6.371,0,0,1-3.737-4.343,18.451,18.451,0,0,1-.371-5.923"/><path class="e" d="M105.705,232.835a91.17,91.17,0,0,0,1.88,16.33c1.278,5.337,3.6,10.542,7.447,14.455,5.042,5.127,11.562,10.043,18.658,11.21,7.75,1.275,17.23-.337,23.538-5.016,2.992-2.219,5.17-7.012,4.243-10.62a7.9,7.9,0,0,0,4.5-6.607c.153-2.8-1.55-6.295-3.766-6.671,1.667-.274,2.137-2.912,1.514-4.407-.649-1.559-2.822-1.939-4.481-1.62a11.508,11.508,0,0,0-4.468,2.3,15.958,15.958,0,0,1-4.333,2.581c-5.359,1.743-10.792-2.984-16.423-2.765-5.091.2-9.622,4.424-14.667,3.714a10.153,10.153,0,0,1-6.8-4.732c-1.556-2.386-.878-11.217-1.491-14"/><g class="n"><path class="k" d="M146.558,256.635a7.934,7.934,0,0,1-1.241-.372,6.616,6.616,0,0,0-5.777,1.046c-.637.46-.973.832-1.032.784s.2-.493.815-1.052a5.954,5.954,0,0,1,6.1-1.1C146.2,256.244,146.59,256.587,146.558,256.635Z"/></g><path class="c" d="M135.612,245.146c.377-.059.628,2.471,2.968,4.055s5.007,1.044,5.061,1.4c.051.155-.553.55-1.688.692a6.331,6.331,0,0,1-4.21-1.022,5.517,5.517,0,0,1-2.328-3.416C135.216,245.8,135.437,245.149,135.612,245.146Z"/><path class="k" d="M128.09,273.136a3.506,3.506,0,0,1,.653.241c.426.158,1.056.384,1.888.612a33.6,33.6,0,0,0,7.2,1.13,31.827,31.827,0,0,0,5.026-.1,27.324,27.324,0,0,0,5.647-1.1,22.624,22.624,0,0,0,5.761-2.627,17.392,17.392,0,0,0,4.988-4.539,10.308,10.308,0,0,0,1.977-7.494l-.038-.215.186-.079a8.009,8.009,0,0,0,3.125-2.575,8.847,8.847,0,0,0,1.006-1.679,5.948,5.948,0,0,0,.45-1.808,7.162,7.162,0,0,0-2.407-6.052l-.143-.121.117-.145a4.218,4.218,0,0,0,.614-4.114,3.978,3.978,0,0,0-2.3-2.254,4.418,4.418,0,0,0-2.084-.29c-.486.056-.734.145-.742.119a2.51,2.51,0,0,1,.727-.227,4.275,4.275,0,0,1,2.173.2,4.176,4.176,0,0,1,2.507,2.339,4.526,4.526,0,0,1-.6,4.465l-.026-.265a7.536,7.536,0,0,1,2.619,6.386,6.376,6.376,0,0,1-.472,1.955,9.206,9.206,0,0,1-1.051,1.781,8.454,8.454,0,0,1-3.319,2.751l.149-.293a10.741,10.741,0,0,1-2.042,7.914,17.765,17.765,0,0,1-5.142,4.671,22.866,22.866,0,0,1-5.9,2.655,27.381,27.381,0,0,1-5.746,1.073,33.531,33.531,0,0,1-12.319-1.265,15.979,15.979,0,0,1-1.871-.709A3.551,3.551,0,0,1,128.09,273.136Z"/><path class="k" d="M82.757,246.75a1.551,1.551,0,0,1-.527-.259,3,3,0,0,1-1.049-1.321,4.444,4.444,0,0,1-.208-2.665,5.375,5.375,0,0,1,1.988-2.923,13.3,13.3,0,0,1,3.8-1.973,24.557,24.557,0,0,0,4.421-1.879,8.661,8.661,0,0,0,3.333-3.919,14.258,14.258,0,0,0,1.176-5.5c.084-3.914-.821-7.619-.921-11.074-.157-3.436.505-6.665,2.074-8.829a8.3,8.3,0,0,1,5.042-3.426,5.879,5.879,0,0,1,1.681-.085,2.424,2.424,0,0,1,.574.116,8.64,8.64,0,0,0-2.213.168,8.255,8.255,0,0,0-4.782,3.438c-1.464,2.1-2.076,5.221-1.9,8.6.119,3.393,1.043,7.093.962,11.107a14.659,14.659,0,0,1-1.233,5.7,9.1,9.1,0,0,1-3.546,4.116,24.278,24.278,0,0,1-4.525,1.876,13.154,13.154,0,0,0-3.716,1.856,5.11,5.11,0,0,0-1.933,2.7,4.313,4.313,0,0,0,.113,2.521A3.368,3.368,0,0,0,82.757,246.75Z"/><path class="k" d="M157.725,193.864a2.365,2.365,0,0,1,.457-.214,3.09,3.09,0,0,1,.585-.2,4.412,4.412,0,0,1,.834-.17,6.184,6.184,0,0,1,5.094,1.831l0,0,0,.007a8.268,8.268,0,0,1,1.546,6.2,10.2,10.2,0,0,1-4.1,6.773,15.73,15.73,0,0,1-8.693,3.019,34.835,34.835,0,0,1-10.1-1.11,45.826,45.826,0,0,1-14.651-6.488,46.493,46.493,0,0,0-6.007-3.5,16.549,16.549,0,0,0-5.8-1.48,17.44,17.44,0,0,0-8.506,1.581,30.06,30.06,0,0,0-2.8,1.587,12.051,12.051,0,0,1,2.714-1.77,17.211,17.211,0,0,1,8.618-1.766,16.784,16.784,0,0,1,5.953,1.453,45.826,45.826,0,0,1,6.089,3.488,46.011,46.011,0,0,0,14.516,6.386,34.719,34.719,0,0,0,9.943,1.112,15.353,15.353,0,0,0,8.447-2.881,9.823,9.823,0,0,0,3.993-6.459,8,8,0,0,0-1.4-5.963l.007.009a6.09,6.09,0,0,0-4.856-1.873A11.824,11.824,0,0,0,157.725,193.864Z"/><path class="k" d="M152.427,185.054a5.848,5.848,0,0,1-.472,2.289,9.7,9.7,0,0,1-4.273,4.666,12.178,12.178,0,0,1-4.172,1.5,17.4,17.4,0,0,1-5.08.02c-3.57-.442-7.261-1.849-11.144-3.058s-7.786-1.927-11.223-1.185a14.764,14.764,0,0,0-7.888,4.6,15.34,15.34,0,0,0-3.2,5.363c-.462,1.417-.548,2.249-.61,2.238a2.609,2.609,0,0,1,.056-.6,11.808,11.808,0,0,1,.361-1.7,15.331,15.331,0,0,1,11.178-10.368c3.559-.794,7.579-.06,11.474,1.157,3.915,1.22,7.562,2.623,11.056,3.081a17.194,17.194,0,0,0,4.949.028,11.929,11.929,0,0,0,4.057-1.391,9.726,9.726,0,0,0,4.268-4.424A13.491,13.491,0,0,0,152.427,185.054Z"/><path class="o" d="M240.685,382.029a10.626,10.626,0,0,1,7.013,4.482,18.75,18.75,0,0,1,3.03,7.924c.913,5.444-.56,11.626-2.579,16.763-5.55-2.6-8.508-9.072-9.8-12.447-2.046-5.335-2.5-16.219,2.338-16.722"/><path class="o" d="M256.331,418.859a9.068,9.068,0,0,1-.214-9.1,12.041,12.041,0,0,1,7.386-5.66,5.07,5.07,0,0,1,4.263.3,3.876,3.876,0,0,1,1.408,3.669,7.869,7.869,0,0,1-1.746,3.693c-2.894,3.734-6.381,6.817-11.1,7.1"/><path class="e" d="M254.929,436.1a4.22,4.22,0,0,1-.185-1.146c-.079-.74-.171-1.813-.245-3.143a38.927,38.927,0,0,1,.634-10.4,19.515,19.515,0,0,1,4.729-9.266,12.793,12.793,0,0,1,2.456-2.017,3.591,3.591,0,0,1,1.041-.522,27.092,27.092,0,0,0-3.176,2.836,20.475,20.475,0,0,0-4.446,9.1,45.065,45.065,0,0,0-.8,10.255A34.925,34.925,0,0,1,254.929,436.1Z"/><path class="e" d="M241.976,390.286a11.273,11.273,0,0,1,.7,1.781c.414,1.158.984,2.844,1.666,4.935,1.366,4.181,3.158,9.988,4.978,16.447s3.322,12.352,4.339,16.63c.51,2.14.9,3.875,1.155,5.079a11.414,11.414,0,0,1,.332,1.884,11.24,11.24,0,0,1-.566-1.827c-.346-1.292-.8-2.986-1.345-5.029-1.125-4.248-2.693-10.113-4.51-16.569s-3.542-12.274-4.8-16.485c-.6-2.028-1.1-3.709-1.478-4.992A11.212,11.212,0,0,1,241.976,390.286Z"/><path class="o" d="M248.939,424.035a21.216,21.216,0,0,0-15.16-12.077c-1.68-.321-3.752-.275-4.687,1.158s-.135,3.359.873,4.746a18.124,18.124,0,0,0,18.983,6.637"/><path class="e" d="M235.624,416.8a3.809,3.809,0,0,1,1.106.112,9.057,9.057,0,0,1,1.275.271,15.127,15.127,0,0,1,1.656.5,22.348,22.348,0,0,1,4.081,1.9,23.847,23.847,0,0,1,7.879,7.628,22.366,22.366,0,0,1,2.034,4.018,15.1,15.1,0,0,1,.55,1.639,9.092,9.092,0,0,1,.312,1.265,3.842,3.842,0,0,1,.148,1.1c-.118.027-.421-1.525-1.415-3.839a25.018,25.018,0,0,0-2.106-3.873,25.232,25.232,0,0,0-7.7-7.453,24.931,24.931,0,0,0-3.938-1.979C237.163,417.166,235.6,416.913,235.624,416.8Z"/></g></svg>