<svg xmlns="http://www.w3.org/2000/svg" width="139" height="139" viewBox="0 0 139 139">
  <g id="Group_7972" data-name="Group 7972" transform="translate(-1059 -862)">
    <circle id="Ellipse_3468" data-name="Ellipse 3468" cx="69.5" cy="69.5" r="69.5" transform="translate(1059 862)" fill="#ddd9dc" opacity="0.34"/>
    <path id="Icon_ionic-ios-add-circle" data-name="Icon ionic-ios-add-circle" d="M18,3.375A14.625,14.625,0,1,0,32.625,18,14.623,14.623,0,0,0,18,3.375Zm6.363,15.75H19.125v5.238a1.125,1.125,0,0,1-2.25,0V19.125H11.637a1.125,1.125,0,0,1,0-2.25h5.238V11.637a1.125,1.125,0,0,1,2.25,0v5.238h5.238a1.125,1.125,0,0,1,0,2.25Z" transform="translate(1109.625 913.625)"/>
  </g>
</svg>
