<svg xmlns="http://www.w3.org/2000/svg" xmlns:xlink="http://www.w3.org/1999/xlink" width="133" height="131" viewBox="0 0 133 131">
  <defs>
    <linearGradient id="linear-gradient" x1="0.94" y1="1" x2="-0.182" y2="-0.337" gradientUnits="objectBoundingBox">
      <stop offset="0" stop-color="#502eff"/>
      <stop offset="1" stop-color="#d1c7ff"/>
    </linearGradient>
  </defs>
  <g id="leads" transform="translate(-2528 150)">
    <g id="Group_1500" data-name="Group 1500">
      <g id="Group_1496" data-name="Group 1496" transform="translate(2579 -18914)" opacity="0.87">
        <rect id="Rectangle_2201" data-name="Rectangle 2201" width="133" height="131" rx="15" transform="translate(-51 18764)" fill="url(#linear-gradient)"/>
      </g>
      <g id="Group_1498" data-name="Group 1498" transform="translate(2726 -18914)">
        <path id="Path_7117" data-name="Path 7117" d="M59.54,42.546A17.039,17.039,0,0,0,46.649,48.46l-6.621-6.746v-6.5a17.149,17.149,0,1,0-2.365,0v6.5l-6.623,6.629A17.095,17.095,0,1,0,35.3,59.578a17.051,17.051,0,0,0-2.847-9.345l6.4-6.386,6.386,6.386a17.154,17.154,0,1,0,14.313-7.687ZM9.16,71.281a9.352,9.352,0,0,1,8.989-7.333,9.132,9.132,0,0,1,8.987,7.333,14.5,14.5,0,0,1-8.989,3.075A14.265,14.265,0,0,1,9.16,71.281Zm19.868-1.774a11.516,11.516,0,0,0-11-7.806,11.744,11.744,0,0,0-11,7.812A15.8,15.8,0,0,1,3.36,59.578a14.783,14.783,0,1,1,25.663,9.934ZM38.853,32.85a14.5,14.5,0,0,1-8.989-3.075,9.352,9.352,0,0,1,8.989-7.331,9.132,9.132,0,0,1,8.989,7.333,14.5,14.5,0,0,1-8.989,3.073ZM24.069,18.185A14.783,14.783,0,1,1,49.851,28a11.516,11.516,0,0,0-11-7.806,11.744,11.744,0,0,0-11,7.806,14.96,14.96,0,0,1-3.793-9.815Zm26.484,53.1a9.352,9.352,0,0,1,8.989-7.333,9.132,9.132,0,0,1,8.987,7.333,14.265,14.265,0,0,1-8.989,3.075,14.759,14.759,0,0,1-8.987-3.075ZM70.54,69.507a11.516,11.516,0,0,0-11-7.806,11.744,11.744,0,0,0-11,7.806,14.38,14.38,0,0,1-3.785-9.815,14.783,14.783,0,1,1,29.567,0,15.2,15.2,0,0,1-3.785,9.821Z" transform="translate(-170.752 18790.211)" fill="#fff"/>
        <path id="Path_7118" data-name="Path 7118" d="M34.342,18.583a6.741,6.741,0,1,0,0-13.483A6.665,6.665,0,0,0,27.6,11.843a6.738,6.738,0,0,0,6.742,6.74Zm0-11a4.376,4.376,0,1,1,0,8.752,4.294,4.294,0,0,1-4.377-4.378,4.365,4.365,0,0,1,4.377-4.375Z" transform="translate(-165.895 18790.996)" fill="#fff"/>
        <path id="Path_7119" data-name="Path 7119" d="M16.842,40.2a6.741,6.741,0,1,0,0,13.483,6.665,6.665,0,0,0,6.742-6.743,6.894,6.894,0,0,0-6.742-6.74Zm0,11.111a4.376,4.376,0,1,1,0-8.752,4.294,4.294,0,0,1,4.369,4.383A4.52,4.52,0,0,1,16.842,51.311Z" transform="translate(-169.089 18797.408)" fill="#fff"/>
        <path id="Path_7120" data-name="Path 7120" d="M51.842,40.2a6.742,6.742,0,1,0,6.742,6.742A6.815,6.815,0,0,0,51.842,40.2Zm0,11.111a4.377,4.377,0,1,1,4.369-4.369A4.443,4.443,0,0,1,51.842,51.311Z" transform="translate(-162.698 18797.408)" fill="#fff"/>
      </g>
    </g>
  </g>
</svg>
