<svg xmlns="http://www.w3.org/2000/svg" xmlns:xlink="http://www.w3.org/1999/xlink" width="206.046" height="299.531" viewBox="0 0 206.046 299.531">
  <defs>
    <linearGradient id="linear-gradient" x1="-48.734" y1="0.5" x2="-47.734" y2="0.5" gradientUnits="objectBoundingBox">
      <stop offset="0" stop-color="#24419c"/>
      <stop offset="1" stop-color="#3b58a9"/>
    </linearGradient>
    <linearGradient id="linear-gradient-2" x1="72.6" y1="-23.7" x2="73.598" y2="-23.7" gradientUnits="objectBoundingBox">
      <stop offset="0" stop-color="#5f82c2"/>
      <stop offset="1" stop-color="#7fa5d8"/>
    </linearGradient>
    <linearGradient id="linear-gradient-3" x1="-53.995" y1="0.5" x2="-52.995" y2="0.5" xlink:href="#linear-gradient"/>
    <linearGradient id="linear-gradient-4" x1="-38.588" y1="0.5" x2="-37.588" y2="0.5" gradientUnits="objectBoundingBox">
      <stop offset="0" stop-color="#1c3388"/>
      <stop offset="1" stop-color="#2e4696"/>
    </linearGradient>
    <linearGradient id="linear-gradient-5" x1="-177.366" y1="0.5" x2="-176.366" y2="0.5" xlink:href="#linear-gradient-2"/>
    <linearGradient id="linear-gradient-6" x1="-153.784" y1="0.5" x2="-152.784" y2="0.5" gradientUnits="objectBoundingBox">
      <stop offset="0" stop-color="#1e3c98"/>
      <stop offset="1" stop-color="#3554a5"/>
    </linearGradient>
    <linearGradient id="linear-gradient-7" x1="-153.784" y1="0.5" x2="-152.784" y2="0.5" xlink:href="#linear-gradient-4"/>
  </defs>
  <g id="Group_8032" data-name="Group 8032" transform="translate(-1457.222 -806.509)">
    <g id="Group_8030" data-name="Group 8030" transform="translate(1457.222 806.509)">
      <g id="Group_8022" data-name="Group 8022" transform="translate(0 0)">
        <g id="Group_8017" data-name="Group 8017" transform="translate(2.548)">
          <rect id="Rectangle_3536" data-name="Rectangle 3536" width="128.719" height="159.237" transform="translate(0.381 0.381)" fill="#4e4060"/>
          <path id="Path_40408" data-name="Path 40408" d="M1463.143,806.509h129.481v160H1463.143Zm128.719.762H1463.9V965.745h127.957Z" transform="translate(-1463.143 -806.509)" fill="#00b0c7"/>
        </g>
        <path id="Path_40409" data-name="Path 40409" d="M1458.461,1176.293h132.571a1.239,1.239,0,0,1,0,2.478H1458.461a1.239,1.239,0,1,1,0-2.478Z" transform="translate(-1457.222 -1017.154)" fill="#00b0c7"/>
        <g id="Group_8018" data-name="Group 8018" transform="translate(52.677 116.632)">
          <path id="Path_40410" data-name="Path 40410" d="M1584.582,1077.522h17.489a28.312,28.312,0,0,1,.138,2.97h-17.674Z" transform="translate(-1582.423 -1077.522)" fill="#f1af1f"/>
          <path id="Path_40411" data-name="Path 40411" d="M1599.413,1084.423c.233,5.764-1.307,10.385-2.668,12.5l-17.119-.645c1.336-4.4,2.381-8.243,2.113-11.852Z" transform="translate(-1579.626 -1081.453)" fill="#f7c522"/>
        </g>
        <g id="Group_8019" data-name="Group 8019" transform="translate(23.986 86.421)">
          <path id="Path_40412" data-name="Path 40412" d="M1517.913,1007.322H1535.4a27.966,27.966,0,0,1,.138,2.97h-17.673Z" transform="translate(-1515.755 -1007.322)" fill="#e5910d"/>
          <path id="Path_40413" data-name="Path 40413" d="M1532.744,1014.223c.233,5.764-1.307,10.385-2.668,12.5l-17.118-.645c1.336-4.4,2.381-8.243,2.113-11.852Z" transform="translate(-1512.958 -1011.253)" fill="#eca908"/>
        </g>
        <g id="Group_8020" data-name="Group 8020" transform="translate(23.986 79.553)">
          <path id="Path_40414" data-name="Path 40414" d="M1517.913,991.362H1535.4a27.979,27.979,0,0,1,.138,2.97h-17.673Z" transform="translate(-1515.755 -991.362)" fill="#f1af1f"/>
          <path id="Path_40415" data-name="Path 40415" d="M1532.744,998.263c.233,5.764-1.307,10.385-2.668,12.5l-17.118-.645c1.336-4.4,2.381-8.243,2.113-11.853Z" transform="translate(-1512.958 -995.293)" fill="#f7c522"/>
        </g>
        <g id="Group_8021" data-name="Group 8021" transform="translate(64.777 79.672)">
          <path id="Path_40416" data-name="Path 40416" d="M1607.787,991.639h17.489a28.162,28.162,0,0,1,.138,2.969h-17.673Z" transform="translate(-1607.741 -991.639)" fill="#f1af1f"/>
          <path id="Path_40417" data-name="Path 40417" d="M1607.741,998.539c.2,2.742.024,6.439.455,10.073a24.76,24.76,0,0,0,.623,3.395l17.117.645c-.588-1.956-.569-4.614-.518-7.694.038-1.991.087-4.156-.005-6.418Z" transform="translate(-1607.741 -995.569)" fill="#f7c522"/>
          <path id="Path_40418" data-name="Path 40418" d="M1608.8,1017.107a24.758,24.758,0,0,0,.623,3.395l17.118.645c-.588-1.956-.569-4.614-.518-7.694A122.454,122.454,0,0,1,1608.8,1017.107Z" transform="translate(-1608.344 -1004.065)" fill="#eca908"/>
          <path id="Path_40419" data-name="Path 40419" d="M1624.328,1013.2c3.287,4.74,4.466,9.466,4.449,11.979l-14.8,8.634c-1.233-4.433-2.41-8.235-4.572-11.137Z" transform="translate(-1608.692 -1003.919)" fill="#f7c522"/>
        </g>
      </g>
      <g id="Group_8029" data-name="Group 8029" transform="translate(86.122 44.912)">
        <path id="Path_40420" data-name="Path 40420" d="M1787.338,952.537a18.212,18.212,0,0,0-.526,9c.34,1.739,1.14,3.641,2.817,4.214,1.567.535,3.239-.305,4.68-1.119,2.675-1.509,5.471-3.139,7.01-5.8a11.665,11.665,0,0,0,.977-8.176c-.675-3.245-2.789-11.5-7.208-9.5C1791.585,942.746,1788.439,949.1,1787.338,952.537Z" transform="translate(-1730.903 -927.95)" fill="#f37669"/>
        <g id="Group_8023" data-name="Group 8023" transform="translate(79.213 78.216)">
          <path id="Path_40421" data-name="Path 40421" d="M1841.406,1106.538c4.038,7.016,14.537,23.671,25.9,28.961a8.449,8.449,0,0,1,3.568,3.115,24.479,24.479,0,0,0,5,5.675c2.92,2.247,6.763,1.308,6.187.427a31.812,31.812,0,0,0-4.317-5.158,24,24,0,0,0-5.108-2.7c-.267-.33-3.047-7.021-6.145-14.567-3.851-9.386-8.189-20.1-8.769-21.549a46.7,46.7,0,0,1-2.221-8.126,43.254,43.254,0,0,1-10.483,11.486A41.809,41.809,0,0,1,1841.406,1106.538Z" transform="translate(-1841.406 -1092.616)" fill="#f37669"/>
          <path id="Path_40422" data-name="Path 40422" d="M1841.406,1121.741c4.038,7.016,14.537,23.671,25.9,28.961a8.449,8.449,0,0,1,3.568,3.115,24.48,24.48,0,0,0,5,5.675c2.92,2.247,6.763,1.307,6.187.427a31.8,31.8,0,0,0-4.317-5.159,23.985,23.985,0,0,0-5.108-2.7c-.267-.33-3.047-7.021-6.145-14.567-5.929-3.8-15.519-10.588-21.473-18.188A41.809,41.809,0,0,1,1841.406,1121.741Z" transform="translate(-1841.406 -1107.82)" fill="#e55c36"/>
        </g>
        <g id="Group_8025" data-name="Group 8025" transform="translate(23.952 112.296)">
          <g id="Group_8024" data-name="Group 8024" transform="translate(52.499 115.448)">
            <path id="Path_40423" data-name="Path 40423" d="M1834.986,1440.894c.546,1.7,1.087,3.335,1.625,4.884,3.165,9.192,5.955,15.5,5.955,15.5l5.7-.059a143.6,143.6,0,0,0,.127-14.816c-.068-2.049-.169-4.182-.3-6.332C1843.708,1440.365,1839.345,1440.656,1834.986,1440.894Z" transform="translate(-1834.986 -1440.068)" fill="#f37669"/>
            <path id="Path_40424" data-name="Path 40424" d="M1834.986,1440.894c.546,1.7,1.087,3.335,1.625,4.884a36.878,36.878,0,0,1,11.786.623c-.068-2.049-.169-4.182-.3-6.332C1843.708,1440.365,1839.345,1440.656,1834.986,1440.894Z" transform="translate(-1834.986 -1440.068)" fill="#e55c36"/>
          </g>
          <path id="Path_40425" data-name="Path 40425" d="M1713.476,1173.613c1.1,1.773,4.321,6.039,11.993,16.073a95.242,95.242,0,0,1,8.9,15.337c2.344,4.816,4.748,10.25,7.152,16.035,9.12,21.964,18.21,49.04,23.974,67.022,4.359-.237,8.722-.529,13.106-.826-1-15.916-3.187-37.051-5.324-55.718-2.713-23.707-5.345-43.432-5.345-43.432s-25.586-8.718-28.147-9.552c-12.48-4.058-24.49-7.643-24.926-6.547C1714.331,1173.321,1712.008,1171.235,1713.476,1173.613Z" transform="translate(-1712.997 -1171.805)" fill="url(#linear-gradient)"/>
          <path id="Path_40426" data-name="Path 40426" d="M1827.889,1424.977,1829.4,1432s15.426-.364,15.494-1.082.511-7.377.511-7.377Z" transform="translate(-1778.444 -1315.206)" fill="url(#linear-gradient-2)"/>
          <path id="Path_40427" data-name="Path 40427" d="M1858.214,1487.185s5.024,4.648,5.024,5.4-9.924,1.382-10.3-.377-.628-4.648-.628-4.648C1853.946,1486.186,1855.524,1486.025,1858.214,1487.185Z" transform="translate(-1792.356 -1351.019)" fill="#bce4ed"/>
        </g>
        <g id="Group_8027" data-name="Group 8027" transform="translate(0 112.296)">
          <path id="Path_40428" data-name="Path 40428" d="M1659.761,1287.361q6.856,1,13.7,2.209c5.65-23.153,14.837-58.558,20.461-68.6.259-.461.508-.871.753-1.223,2.59-3.745,5.764-9.009,8.9-14.469,5.747-10.013,11.371-20.7,13.064-23.944.334-.639.516-.99.516-.99l-43.043-8.087c-7.884,15.464-11.917,35.709-13.779,55.908A402.911,402.911,0,0,0,1659.761,1287.361Z" transform="translate(-1658.254 -1172.064)" fill="url(#linear-gradient-3)"/>
          <path id="Path_40429" data-name="Path 40429" d="M1662.18,1227.909c9.552-8.049,23.847-7.478,33.589-7.195.258-.461.508-.871.753-1.223,2.59-3.745,5.764-9.01,8.9-14.469,2.344,4.816,4.749,10.25,7.152,16.035,8.921,1.955,22.315,6.826,31.757,10.478-2.713-23.707-5.345-43.432-5.345-43.432s-9.522-3.36-20.5-7.025c.334-.639.516-.99.516-.99l-8.164-1.536c-12.48-4.058-24.49-7.643-24.926-6.547-.529,1.316-2.852-.771-1.384,1.608l-8.57-1.612C1668.075,1187.465,1664.042,1207.71,1662.18,1227.909Z" transform="translate(-1660.098 -1171.805)" fill="url(#linear-gradient-4)"/>
          <path id="Path_40430" data-name="Path 40430" d="M1675.573,1426.45l-2.164,6.851s-15.325-1.8-15.325-2.524.18-7.392.18-7.392Z" transform="translate(-1657.765 -1315.116)" fill="url(#linear-gradient-5)"/>
          <g id="Group_8026" data-name="Group 8026" transform="translate(1.507 115.297)">
            <path id="Path_40431" data-name="Path 40431" d="M1660.842,1439.715c.1,1.718.233,3.334.381,4.858,1.071,10.715,3.14,16.53,3.14,16.53l5.235,1.706s3.711-15.823,4.947-20.885Q1667.7,1440.711,1660.842,1439.715Z" transform="translate(-1660.842 -1439.715)" fill="#f37669"/>
            <path id="Path_40432" data-name="Path 40432" d="M1660.842,1439.715c.1,1.718.233,3.334.381,4.858,4.266,2.273,7.833,6.767,10.195,10.385.826-3.5,1.892-7.973,3.128-13.034Q1667.7,1440.711,1660.842,1439.715Z" transform="translate(-1660.842 -1439.715)" fill="#e55c36"/>
          </g>
          <path id="Path_40433" data-name="Path 40433" d="M1662.22,1487.7s-4.879,4.513-4.879,5.245,9.636,1.342,10-.366.61-4.513.61-4.513C1666.67,1486.636,1664.671,1486.783,1662.22,1487.7Z" transform="translate(-1657.341 -1351.354)" fill="#bce4ed"/>
        </g>
        <path id="Path_40434" data-name="Path 40434" d="M1794.862,932.606c-.436,1.159-.58,1.159,2.472,6.538s7.555,2.615,7.555,2.615c1.451-3.927,3.931-2.759,7.71-9.446,2.323-4.113.524-5.311-1.579-6.267-1.316-.6-2.747-1.1-3.365-2.162-1.6-2.764.728-9.45-2.179-11.922s-6.543-1.02-10.614,7.122a24.32,24.32,0,0,0-1.743,4.342c-1.236,4.536.808,5.81,2.759,6.272C1798.349,930.278,1795.3,931.442,1794.862,932.606Z" transform="translate(-1734.472 -910.869)" fill="url(#linear-gradient-6)"/>
        <path id="Path_40435" data-name="Path 40435" d="M1794.862,949.228c-.436,1.159-.58,1.159,2.472,6.538s7.555,2.615,7.555,2.615c1.451-3.927,3.931-2.759,7.71-9.446,2.323-4.113.524-5.311-1.579-6.267,1.155,3.322,2.218,8.4-5.154,7.537-10.707-1.249-6.42-9.4-11.279-9.683a2.828,2.828,0,0,1-1.468-.474c-1.236,4.536.808,5.81,2.759,6.272C1798.349,946.9,1795.3,948.064,1794.862,949.228Z" transform="translate(-1734.472 -927.491)" fill="url(#linear-gradient-7)"/>
        <g id="Group_8028" data-name="Group 8028" transform="translate(7.893 14.017)">
          <path id="Path_40436" data-name="Path 40436" d="M1798.717,985.145s-7.17-11.185-17.781-8.126Z" transform="translate(-1735.639 -962.266)" fill="#50c3dc"/>
          <path id="Path_40437" data-name="Path 40437" d="M1675.7,1053.814c1.266,9.627,69.442,24.313,75.921,10.889-.279-3.373-2.62-20.064-4.384-32.447-.267-1.875-1.993-13.868-1.993-13.868s.089.173.263.491c.279.533.791,1.466,1.493,2.681q1.124-.68,2.184-1.407a42.847,42.847,0,0,0,11.909-12.514c-.516-2.59-.991-5.344-1.592-8.2-2.675-12.747-7.918-27.533-31.427-38.989-8.464-4.13-18.469-9.221-27.775-14.291-1.672-.905-3.322-1.816-4.935-2.718-4.372,6.429-9.518,12.727-13.322,19.574,1.117,2.044,2.243,4.032,3.356,5.933a121.449,121.449,0,0,0,7.381,11.3s-15.121,52.391-16.953,72.544A1.944,1.944,0,0,0,1675.7,1053.814Z" transform="translate(-1675.682 -943.439)" fill="#bce4ed"/>
          <path id="Path_40438" data-name="Path 40438" d="M1742.186,1098c.836-13.411-9.4-26.111-4.966-34.977,5.438-10.876,12.235,17.338,12.235,17.338,0,2.273-.085,4.44-.241,6.492q-1.06.731-2.184,1.407c-.493-.853-1.309-2.3-1.756-3.172.757,5.226,5.951,41.158,6.377,46.314-6.479,13.424-74.656-1.261-75.921-10.889C1712.244,1120.866,1732.9,1106.488,1742.186,1098Z" transform="translate(-1675.709 -1010.137)" fill="#9ed6e4"/>
          <path id="Path_40439" data-name="Path 40439" d="M1690.469,963.013c1.117,2.043,2.244,4.034,3.356,5.933,4.863-7.707,11.342-17.835,14.9-22.789-1.669-.906-3.318-1.816-4.934-2.718C1699.422,949.87,1694.276,956.166,1690.469,963.013Z" transform="translate(-1684.105 -943.439)" fill="#50c3dc"/>
          <path id="Path_40440" data-name="Path 40440" d="M1837.937,1093c.278.532.793,1.463,1.493,2.681a42.54,42.54,0,0,0,14.093-13.922c-.518-2.589-.992-5.343-1.592-8.2C1850.632,1080.412,1838.853,1092.1,1837.937,1093Z" transform="translate(-1768.109 -1017.561)" fill="#50c3dc"/>
        </g>
      </g>
    </g>
    <path id="Path_40441" data-name="Path 40441" d="M1564.942,883.377a.779.779,0,0,1-.784-.612,17.842,17.842,0,0,1,.265-7.484c.6-2.366,2.325-4.663,4.811-4.463,1.988.159,3.011,1.717,3.914,3.093a9.14,9.14,0,0,0,1.611,2.025,3.941,3.941,0,0,0,4.574.148,9.57,9.57,0,0,0,1.3-1.222c.972-1.031,2.074-2.2,3.787-2.085,1.844.124,2.759,1.621,3.567,2.941.669,1.093,1.3,2.125,2.29,2.227a3.994,3.994,0,0,0,1.824-.476l.149-.062c4.068-1.7,7.864-1.555,10.155.394a.689.689,0,0,1,.043,1.032.845.845,0,0,1-1.123.04c-2.125-1.808-5.74-1.256-8.415-.137l-.144.061a5.382,5.382,0,0,1-2.664.6c-1.8-.185-2.7-1.66-3.5-2.963-.812-1.327-1.372-2.137-2.3-2.2-.86-.059-1.5.56-2.469,1.585a10.874,10.874,0,0,1-1.517,1.415,5.63,5.63,0,0,1-6.622-.214,10.205,10.205,0,0,1-1.906-2.355c-.809-1.232-1.508-2.3-2.69-2.391-1.545-.12-2.694,1.645-3.123,3.34a16.466,16.466,0,0,0-.245,6.914.74.74,0,0,1-.655.84A.9.9,0,0,1,1564.942,883.377Z" transform="translate(-60.758 -36.626)" fill="#e1e5ea"/>
    <g id="Group_8031" data-name="Group 8031" transform="translate(1541.258 837.888)">
      <path id="Path_40442" data-name="Path 40442" d="M1656.055,894.809c.1.355.2.711.309,1.066a175.41,175.41,0,0,0,12.607,30.834c1.1-1.985,2.319-3.919,3.6-5.828,3.127-4.676,6.619-9.179,9.729-13.745-6.712-3.749-17.021-9.56-23.1-14.981-2.094-1.87-2.7-4.6-2.408-5.793.254-1.024.639-3.72-.131-3.593s-.381-2.564-1.024-3.2-2.564,1.024-2.823,2.565C1651.688,888.906,1653.719,886.57,1656.055,894.809Z" transform="translate(-1652.494 -879.424)" fill="#f37669"/>
      <path id="Path_40443" data-name="Path 40443" d="M1661.487,917.652a175.41,175.41,0,0,0,12.607,30.834c1.1-1.985,2.319-3.919,3.6-5.828Z" transform="translate(-1657.617 -901.2)" fill="#e55c36"/>
    </g>
  </g>
</svg>
