<svg xmlns="http://www.w3.org/2000/svg" xmlns:xlink="http://www.w3.org/1999/xlink" width="375" height="812" viewBox="0 0 375 812">
  <defs>
    <clipPath id="clip-path">
      <rect id="Rectangle_2855" data-name="Rectangle 2855" width="375" height="812" fill="#fff" stroke="#707070" stroke-width="1"/>
    </clipPath>
  </defs>
  <g id="Mask_Group_1516" data-name="Mask Group 1516" clip-path="url(#clip-path)">
    <g id="Rectangle_2854" data-name="Rectangle 2854" fill="#fff" stroke="#707070" stroke-width="1" opacity="0">
      <rect width="375" height="812" stroke="none"/>
      <rect x="0.5" y="0.5" width="374" height="811" fill="none"/>
    </g>
    <g id="Group_4227" data-name="Group 4227" transform="translate(-136 -100)">
      <path id="Path_24928" data-name="Path 24928" d="M1508.38,776.425a17.2,17.2,0,1,0-17.2-17.2A17.2,17.2,0,0,0,1508.38,776.425Z" transform="translate(-1119 -635.025)" fill="#ffd000"/>
      <path id="Path_24929" data-name="Path 24929" d="M1502.2,770.235a17.2,17.2,0,1,0-17.2-17.2A17.2,17.2,0,0,0,1502.2,770.235Z" transform="translate(-1119 -636.335)" fill="none" stroke="#010101" stroke-linecap="round" stroke-linejoin="round" stroke-width="2"/>
    </g>
    <g id="Group_4229" data-name="Group 4229" transform="translate(-265 692)">
      <path id="Path_24928-2" data-name="Path 24928" d="M1508.38,776.425a17.2,17.2,0,1,0-17.2-17.2A17.2,17.2,0,0,0,1508.38,776.425Z" transform="translate(-1119 -635.025)" fill="#ffd000"/>
      <path id="Path_24929-2" data-name="Path 24929" d="M1502.2,770.235a17.2,17.2,0,1,0-17.2-17.2A17.2,17.2,0,0,0,1502.2,770.235Z" transform="translate(-1119 -636.335)" fill="none" stroke="#010101" stroke-linecap="round" stroke-linejoin="round" stroke-width="2"/>
    </g>
    <g id="Group_4230" data-name="Group 4230" transform="translate(-11 386)">
      <path id="Path_24928-3" data-name="Path 24928" d="M1508.38,776.425a17.2,17.2,0,1,0-17.2-17.2A17.2,17.2,0,0,0,1508.38,776.425Z" transform="translate(-1119 -635.025)" fill="#ffd000"/>
      <path id="Path_24929-3" data-name="Path 24929" d="M1502.2,770.235a17.2,17.2,0,1,0-17.2-17.2A17.2,17.2,0,0,0,1502.2,770.235Z" transform="translate(-1119 -636.335)" fill="none" stroke="#010101" stroke-linecap="round" stroke-linejoin="round" stroke-width="2"/>
    </g>
    <g id="Group_4231" data-name="Group 4231" transform="translate(-386 240)">
      <path id="Path_24928-4" data-name="Path 24928" d="M1508.38,776.425a17.2,17.2,0,1,0-17.2-17.2A17.2,17.2,0,0,0,1508.38,776.425Z" transform="translate(-1119 -635.025)" fill="#ffd000"/>
      <path id="Path_24929-4" data-name="Path 24929" d="M1502.2,770.235a17.2,17.2,0,1,0-17.2-17.2A17.2,17.2,0,0,0,1502.2,770.235Z" transform="translate(-1119 -636.335)" fill="none" stroke="#010101" stroke-linecap="round" stroke-linejoin="round" stroke-width="2"/>
    </g>
  </g>
</svg>
