<svg xmlns="http://www.w3.org/2000/svg" width="326.963" height="309.169" viewBox="0 0 326.963 309.169"><defs><style>.a{fill:#f5f5f5;}.b,.d{fill:#e0e0e0;}.c{fill:#fff;}.d{fill-rule:evenodd;}.e{fill:#263238;}.f{fill:#502eff;}.g{fill:#ffbe9d;}.h{fill:#3f59b8;}.i{fill:#455a64;}.j{fill:#eb996e;}.k{fill:#fafafa;}.l{fill:#efc692;}.m{fill:#e8505b;}</style></defs><g transform="translate(-784.999 -175)"><g transform="translate(463.582 115.503)"><path class="a" d="M433.249,103.536c.734-5.331-6.79-9.717-12.444-10.173-2.7-.217-5.5.195-8.051-.695-5.534-1.929-7.745-9.079-13.145-11.357-4.037-1.7-8.685-.187-12.6,1.783s-7.782,4.449-12.154,4.729c-3.8.243-7.934-1.167-11.262.691-2.48,1.384-3.778,4.242-6.064,5.927-2.236,1.65-5.153,2-7.927,2.15s-5.647.179-8.173,1.335-4.616,3.828-4.092,6.557Z"/></g><path class="b" d="M208.552,46.406v65.78H114.074l-3.4-65.32Z" transform="translate(732.244 128.594)"/><rect class="c" width="65.181" height="94.478" transform="translate(842.914 240.642) rotate(-90)"/><path class="b" d="M205.409,112.453H110.17V46.512h95.239Zm-94.479-.76h93.719V47.272H110.93Z" transform="translate(732.364 128.569)"/><rect class="c" width="74.013" height="48.985" transform="translate(853.148 183.558)"/><path class="b" d="M198.084,57.609s-.126.008-.363.011l-1.051.011-4.062.022-15.248.049-53.289.089.182-.181c0,14.966.01,31.549.016,48.979v.005l-.2-.2,74.012.04-.157.157c.034-14.914.063-27.139.083-35.65.017-4.255.03-7.579.04-9.852.008-1.127.013-1.992.017-2.587s.017-.9.017-.9.011.287.017.863.01,1.443.017,2.558c.009,2.265.023,5.576.04,9.817.02,8.534.048,20.792.083,35.748v.158h-.158l-74.012.04h-.2v-.2c.006-17.43.011-34.013.017-48.979v-.182h.182l53.409.089,15.207.049,4.025.022,1.031.011C197.972,57.6,198.084,57.609,198.084,57.609Z" transform="translate(729.076 125.949)"/><path class="b" d="M110.67,46.77a9.285,9.285,0,0,1,1.609,1.072c.963.7,2.276,1.7,3.7,2.833s2.673,2.21,3.557,3.011a8.953,8.953,0,0,1,1.37,1.366,9.9,9.9,0,0,1-1.551-1.153l-3.623-2.915-3.622-2.921A9.512,9.512,0,0,1,110.67,46.77Z" transform="translate(732.245 128.507)"/><path class="b" d="M231.746,47.01a53.776,53.776,0,0,1-4.993,4.2,53.9,53.9,0,0,1-5.24,3.894,54.015,54.015,0,0,1,4.994-4.2A54.178,54.178,0,0,1,231.746,47.01Z" transform="translate(705.646 128.45)"/><path class="c" d="M231.553,130.089l-10.534-8.538" transform="translate(705.764 110.562)"/><path class="b" d="M221.019,121.55a58.318,58.318,0,0,1,5.392,4.116,58.036,58.036,0,0,1,5.142,4.423,58.4,58.4,0,0,1-5.392-4.116A58.162,58.162,0,0,1,221.019,121.55Z" transform="translate(705.765 110.563)"/><path class="b" d="M110.671,130.242a52.848,52.848,0,0,1,4.94-4.16,52.873,52.873,0,0,1,5.187-3.85,52.862,52.862,0,0,1-4.941,4.16A52.878,52.878,0,0,1,110.671,130.242Z" transform="translate(732.244 110.399)"/><rect class="b" width="16.402" height="19.336" transform="translate(882.187 215.862) rotate(-90)"/><path class="b" d="M106.743,150.95v43.778l-64.5-.615.394-42.694Z" transform="translate(748.665 103.507)"/><rect class="c" width="42.691" height="61.88" transform="translate(791.298 297.615) rotate(-90)"/><path class="b" d="M104.9,194.515H42.258V151.064H104.9Zm-61.88-.76h61.12V151.824H43.018Z" transform="translate(748.66 103.48)"/><rect class="c" width="48.476" height="32.083" transform="translate(798.001 260.228)"/><path class="b" d="M99.99,158.485a2.032,2.032,0,0,1-.242.011l-.692.011-2.666.021-9.994.049-34.882.089.182-.182c.005,9.8.011,20.665.017,32.08v0h0l-.2-.2,48.476.04-.158.157c.035-9.754.063-17.754.083-23.332.017-2.782.031-4.959.04-6.459q.011-1.1.017-1.7c.006-.386.017-.593.017-.593s.011.185.017.559q.007.589.017,1.671c.01,1.49.023,3.657.04,6.423.02,5.6.049,13.635.083,23.43v.158H99.99l-48.476.04-.2-.2h0v0c.005-11.415.011-22.276.016-32.08V158.3h.182l35,.089,9.953.049,2.63.022.671.011A1.8,1.8,0,0,1,99.99,158.485Z" transform="translate(746.487 101.743)"/><path class="b" d="M42.757,151.4a23.621,23.621,0,0,1,3.476,2.559,23.589,23.589,0,0,1,3.226,2.865,23.749,23.749,0,0,1-3.477-2.559A23.744,23.744,0,0,1,42.757,151.4Z" transform="translate(748.541 103.399)"/><path class="b" d="M122.058,151.563a23.334,23.334,0,0,1-3.229,2.807,23.182,23.182,0,0,1-3.473,2.5,23.24,23.24,0,0,1,3.228-2.807A23.187,23.187,0,0,1,122.058,151.563Z" transform="translate(731.12 103.361)"/><path class="c" d="M121.932,205.977l-6.9-5.592" transform="translate(731.197 91.645)"/><path class="b" d="M115.032,200.384a25.1,25.1,0,0,1,3.574,2.642,25.044,25.044,0,0,1,3.325,2.95,25.031,25.031,0,0,1-3.574-2.643A25.094,25.094,0,0,1,115.032,200.384Z" transform="translate(731.198 91.646)"/><path class="b" d="M42.757,206.076a22.79,22.79,0,0,1,3.194-2.779,22.79,22.79,0,0,1,3.44-2.468,22.776,22.776,0,0,1-3.194,2.779A22.72,22.72,0,0,1,42.757,206.076Z" transform="translate(748.541 91.539)"/><rect class="b" width="10.743" height="30.502" transform="translate(806.987 281.718) rotate(-90)"/><path class="b" d="M431.324,132.387H383.279l.674-67.91,46.849-.3Z" transform="translate(666.828 124.329)"/><rect class="c" width="46.852" height="67.91" transform="translate(1046.844 188.806)"/><path class="b" d="M426.1,132.741H378.487V64.071H426.1Zm-46.852-.76h46.092V64.831H379.247Z" transform="translate(667.978 124.355)"/><rect class="c" width="35.21" height="53.2" transform="translate(1052.666 196.161)"/><path class="b" d="M421.794,127.386s-.008-.093-.011-.264l-.011-.759c-.005-.678-.013-1.658-.022-2.924-.011-2.56-.028-6.277-.049-10.967-.021-9.383-.052-22.658-.089-38.287l.182.181-35.206.017h0l.2-.2c-.015,20.067-.029,38.569-.04,53.2l-.157-.157,25.611.083,7.087.04,1.864.018c.423.005.649.017.649.017s-.2.011-.616.017l-1.834.018-7.052.04-25.709.084h-.158v-.158c-.011-14.631-.025-33.132-.04-53.2v-.2h.2L421.794,74h.182v.182c-.036,15.677-.068,28.993-.09,38.406-.021,4.672-.037,8.375-.049,10.925-.01,1.251-.017,2.219-.022,2.888,0,.315-.008.559-.011.738A2.163,2.163,0,0,1,421.794,127.386Z" transform="translate(666.083 121.975)"/><path class="b" d="M438.924,64.57a26.421,26.421,0,0,1-2.763,3.849,22.763,22.763,0,0,1-3.189,3.507,38.2,38.2,0,0,1,2.88-3.755A30.976,30.976,0,0,1,438.924,64.57Z" transform="translate(654.904 124.236)"/><path class="b" d="M438.793,151.6a27.926,27.926,0,0,1-3.066-3.554,27.956,27.956,0,0,1-2.755-3.8,28.007,28.007,0,0,1,3.065,3.555A28.055,28.055,0,0,1,438.793,151.6Z" transform="translate(654.905 105.117)"/><path class="c" d="M378.978,151.461l6.137-7.572" transform="translate(667.86 105.202)"/><path class="b" d="M385.114,143.888a30.217,30.217,0,0,1-2.915,3.91,30.163,30.163,0,0,1-3.223,3.662,30.138,30.138,0,0,1,2.915-3.911A30.259,30.259,0,0,1,385.114,143.888Z" transform="translate(667.861 105.202)"/><path class="b" d="M378.986,64.57a27.4,27.4,0,0,1,3.034,3.517,27.412,27.412,0,0,1,2.724,3.763,27.437,27.437,0,0,1-3.035-3.517A27.412,27.412,0,0,1,378.986,64.57Z" transform="translate(667.859 124.236)"/><rect class="b" width="11.79" height="33.474" transform="translate(1065.116 206.963)"/><path class="d" d="M380.663,225.626v3.262h1.554v-4.444h-1.554Zm6.628.184c-.1-.842-.486-1.366-1.623-1.366a1.387,1.387,0,0,0-1.3.6h-.021v-.6H383.1v4.444h1.3v-2.2c0-.581.114-1.141.825-1.141s.768.662.768,1.182v2.162h1.333v-2.44a5.2,5.2,0,0,0-.036-.638Zm-5.851-3.586a.777.777,0,1,0,.777.777.777.777,0,0,0-.777-.777Z" transform="translate(667.456 86.404)"/><path class="b" d="M440.659,229.585a2.162,2.162,0,1,1-2.021-2.295A2.162,2.162,0,0,1,440.659,229.585Z" transform="translate(654.095 85.189)"/><path class="b" d="M448.974,224.413a2.162,2.162,0,1,1-2.021-2.3A2.162,2.162,0,0,1,448.974,224.413Z" transform="translate(652.1 86.431)"/><path class="b" d="M448.209,236.387A2.17,2.17,0,1,1,446.2,233.9,2.262,2.262,0,0,1,448.209,236.387Z" transform="translate(652.284 83.603)"/><path class="b" d="M444.084,235.141a22.963,22.963,0,0,1-5.808-4.526,22.927,22.927,0,0,1,5.808,4.526Z" transform="translate(653.632 84.394)"/><path class="b" d="M445.154,224.716a19.18,19.18,0,0,1-5.58,3.772,19.21,19.21,0,0,1,5.58-3.772Z" transform="translate(653.321 85.81)"/><path class="d" d="M334.166,56.88l-1.84,4.712,2.244.876,1.991-5.1.516-1.322-2.244-.876Zm9.469,4c.328-1.274.068-2.247-1.574-2.887a2.149,2.149,0,0,0-2.222.132l-.03-.011.339-.868-1.79-.7-.482,1.234-2.025,5.184,1.872.731,1.243-3.182c.328-.839.809-1.583,1.836-1.182s.736,1.39.443,2.14l-1.22,3.124,1.925.752,1.376-3.526a7.987,7.987,0,0,0,.307-.942Zm-6.428-8.478a1.2,1.2,0,1,0,.684,1.56,1.2,1.2,0,0,0-.684-1.56Z" transform="translate(679.055 127.174)"/><path class="d" d="M82.434,257.225v-.017h-.017v0a1.5,1.5,0,0,0-.507-.181H81.9a4.285,4.285,0,0,1-2.054-1.513,5.3,5.3,0,0,1-.722-1.237h0a.6.6,0,0,1,.026-.534h.017a1.512,1.512,0,0,1,.7-.464h0a2.7,2.7,0,0,0,.963-.49h0a.347.347,0,0,0,.146-.181.383.383,0,0,1,.026-.068.394.394,0,0,0-.026-.258h0a.77.77,0,0,0-.327-.318h0a.775.775,0,0,0-.584-.052h0a2.1,2.1,0,0,1-.507.147c-.008,0-.008.017-.008.017a1.45,1.45,0,0,1-.585-.017.418.418,0,0,0-.017-.129h0c0-.344.026-.705.026-1.092h0a10.72,10.72,0,0,0-.035-1.736v-.017a3.944,3.944,0,0,0-1.633-2.415,4.054,4.054,0,0,0-2-.7h0a6.768,6.768,0,0,0-.722-.043,4.481,4.481,0,0,0-2.716.877,4.249,4.249,0,0,0-1.333,1.728v.008a4.832,4.832,0,0,0-.206,2.115h0c.008.473.06.937.026,1.393,0,.008,0,.008-.017.025a2.008,2.008,0,0,1-.679-.017H69.65c-.163-.026-.318-.1-.515-.147h-.017a.564.564,0,0,0-.507.112H68.6v.009a.531.531,0,0,0-.292.429.051.051,0,0,0,.008.034h.009a.481.481,0,0,0,.172.283.7.7,0,0,0,.18.129v.017a6.265,6.265,0,0,0,1.075.464h0a.74.74,0,0,1,.482.464,1.183,1.183,0,0,1-.19.816h0a4.963,4.963,0,0,1-1.633,1.874,4.091,4.091,0,0,1-1.195.541h-.009a.708.708,0,0,0-.429.258.071.071,0,0,0-.026.051.359.359,0,0,0,.068.327.52.52,0,0,0,.189.147h0a4.072,4.072,0,0,0,1.109.386h0a6.374,6.374,0,0,1,.7.173c.009.017.035.078.078.189.069.2.1.438.172.679a.2.2,0,0,0,.147.129.39.39,0,0,0,.266-.017.008.008,0,0,0,.008-.008,4.508,4.508,0,0,1,1.754-.052h0a6.594,6.594,0,0,1,1.651.885h0a2.588,2.588,0,0,0,1.307.482h0a8.036,8.036,0,0,0,1.117-.027h0a2.066,2.066,0,0,0,.877-.292l.017-.018c.594-.326,1.11-.739,1.694-1h0a3.141,3.141,0,0,1,.688-.077h0a9.923,9.923,0,0,1,1.436.077h.051a.269.269,0,0,0,.163-.086c.034-.043.034-.086.052-.112s.026-.06,0-.026c.017-.008.017-.026.026-.034a1.949,1.949,0,0,1,.267-.705.41.41,0,0,1,.3-.094h.034a5.813,5.813,0,0,0,1.135-.318c0-.017,0-.017.017-.017a.954.954,0,0,0,.448-.3h0a.316.316,0,0,0-.086-.464Z" transform="translate(742.786 80.716)"/><path class="e" d="M361.278,452.3c0,.109-72.814.2-162.614.2-89.831,0-162.629-.088-162.629-.2s72.8-.2,162.629-.2C288.464,452.1,361.278,452.187,361.278,452.3Z" transform="translate(750.154 31.243)"/><rect class="e" width="9.047" height="29.185" transform="translate(844.428 454.354)"/><rect class="e" width="9.047" height="29.185" transform="translate(938.526 454.354)"/><rect class="e" width="9.047" height="29.185" transform="translate(881.608 454.354)"/><rect class="e" width="9.047" height="29.185" transform="translate(970.51 454.354)"/><path class="f" d="M241.044,378.929A13.181,13.181,0,0,0,254.092,368.3c2.167-11,4.956-26.379,5.044-43.65a118.586,118.586,0,0,0-5.592-34.081c-4.787-14.715-15.03-27.677-29.909-31.924-19.325-5.516-26.319-3.4-40.023,3.788-14.906,7.816-18.94,22.48-34.456,29-15.065,6.333-33.232,4.17-46.965,13.028-12.08,7.79-17.972,22.759-18.451,37.125A79.76,79.76,0,0,0,85.947,364.3a17.518,17.518,0,0,0,16.88,13.483Z" transform="translate(738.721 78.413)"/><path class="g" d="M120.982,353.487l-41.5,54.873-14.489-3.2,33.436-58.679Z" transform="translate(743.205 56.588)"/><g transform="translate(784.999 456.088)"><path class="h" d="M72.627,424.4,59.344,444.321l-24.874-16.4c1.712-2.28,17.726,1.433,17.726,1.433l7.986-13.115Z" transform="translate(-34.47 -416.24)"/></g><g transform="translate(809.164 472.828)"><path class="c" d="M68.227,438.634a1.217,1.217,0,0,1-.062,1.623,1.17,1.17,0,0,1-1.608-.047,1.283,1.283,0,0,1,.074-1.718,1.213,1.213,0,0,1,1.668.234" transform="translate(-66.264 -438.266)"/></g><path class="c" d="M59.344,447.805l1.26-2.06-24.32-14.952s-1.425-.249-1.814.614Z" transform="translate(750.529 36.363)"/><g transform="translate(802.398 468.784)"><path class="e" d="M57.369,432.972c-.076.125.495.58.835,1.364.361.776.321,1.5.465,1.531.128.05.426-.8,0-1.738S57.416,432.843,57.369,432.972Z" transform="translate(-57.362 -432.946)"/></g><g transform="translate(799.067 468.154)"><path class="e" d="M53,432.132c-.1.1.285.653.359,1.439.1.783-.165,1.408-.041,1.482.1.094.655-.562.544-1.537S53.075,432.018,53,432.132Z" transform="translate(-52.979 -432.117)"/></g><g transform="translate(795.519 467.6)"><path class="e" d="M48.336,434.1c.093.1.663-.4.789-1.268s-.267-1.509-.385-1.443c-.135.055,0,.654-.116,1.368C48.526,433.477,48.224,434.012,48.336,434.1Z" transform="translate(-48.311 -431.388)"/></g><g transform="translate(804.556 465.948)"><path class="e" d="M60.2,429.289c-.022.144.646.344,1.3.844s1.048,1.069,1.18,1.006c.128-.042-.1-.835-.877-1.412S60.2,429.155,60.2,429.289Z" transform="translate(-60.201 -429.213)"/></g><g transform="translate(807.074 462.991)"><path class="e" d="M63.535,425.8c-.035.049.4.441,1.25.815a6.727,6.727,0,0,0,1.567.459,7.047,7.047,0,0,0,.966.092,1.837,1.837,0,0,0,.569-.045.635.635,0,0,0,.482-.61.8.8,0,0,0-.35-.629,1.962,1.962,0,0,0-.509-.244,5.415,5.415,0,0,0-.95-.245,5.268,5.268,0,0,0-1.645,0,2.488,2.488,0,0,0-1.4.529c.029.076.56-.119,1.439-.173a5.981,5.981,0,0,1,1.524.106,5.554,5.554,0,0,1,.86.252c.309.1.534.25.524.412,0,.061-.013.081-.119.122a1.484,1.484,0,0,1-.417.031,7.825,7.825,0,0,1-.906-.058,8.233,8.233,0,0,1-1.509-.332A10.266,10.266,0,0,0,63.535,425.8Z" transform="translate(-63.514 -425.323)"/></g><g transform="translate(806.736 459.053)"><path class="e" d="M63.472,424.83c.03.047.559-.23,1.122-.987a4.853,4.853,0,0,0,.729-1.476,4.9,4.9,0,0,0,.182-.965,1.234,1.234,0,0,0-.38-1.153.7.7,0,0,0-.749,0,2.02,2.02,0,0,0-.429.372,3.3,3.3,0,0,0-.553.838,3.426,3.426,0,0,0-.317,1.638c.062.964.473,1.444.51,1.41a12.086,12.086,0,0,1-.152-1.413,3.447,3.447,0,0,1,.378-1.43,3.075,3.075,0,0,1,.5-.7c.213-.239.453-.387.534-.294a.851.851,0,0,1,.167.7,5,5,0,0,1-.137.879,5.378,5.378,0,0,1-.578,1.4C63.847,424.4,63.418,424.768,63.472,424.83Z" transform="translate(-63.07 -420.141)"/></g><path class="e" d="M158.62,324.333H120.851a23.875,23.875,0,0,0-20.3,11.308L82.987,364.012l21.844,13.213,18.049-23.661,20.551-1.684,44.126-27.547Z" transform="translate(738.887 61.902)"/><path class="g" d="M138.775,353.487l-41.5,54.873-14.489-3.2,33.436-58.679Z" transform="translate(738.935 56.588)"/><path class="h" d="M90.42,424.4,77.137,444.321l-24.874-16.4c1.712-2.28,17.726,1.433,17.726,1.433l7.986-13.115Z" transform="translate(746.26 39.848)"/><g transform="translate(822.687 472.828)"><path class="c" d="M86.02,438.634a1.217,1.217,0,0,1-.062,1.623,1.17,1.17,0,0,1-1.608-.047,1.284,1.284,0,0,1,.074-1.718,1.213,1.213,0,0,1,1.668.234" transform="translate(-84.057 -438.266)"/></g><path class="c" d="M77.137,447.805l1.26-2.06-24.32-14.952s-1.425-.249-1.814.614Z" transform="translate(746.26 36.363)"/><g transform="translate(815.921 468.784)"><path class="e" d="M75.162,432.972c-.076.125.495.58.835,1.364.361.776.322,1.5.465,1.531.128.05.426-.8,0-1.738S75.209,432.843,75.162,432.972Z" transform="translate(-75.155 -432.946)"/></g><g transform="translate(812.59 468.154)"><path class="e" d="M70.79,432.132c-.106.1.284.653.358,1.439.1.783-.165,1.408-.041,1.482.1.094.655-.562.544-1.537S70.869,432.018,70.79,432.132Z" transform="translate(-70.772 -432.117)"/></g><g transform="translate(809.043 467.6)"><path class="e" d="M66.129,434.1c.093.1.663-.4.79-1.268s-.268-1.509-.385-1.443c-.135.055,0,.654-.116,1.368C66.32,433.477,66.017,434.012,66.129,434.1Z" transform="translate(-66.105 -431.388)"/></g><g transform="translate(818.079 465.948)"><path class="e" d="M77.995,429.289c-.022.144.646.344,1.3.844s1.048,1.069,1.18,1.006c.128-.042-.1-.835-.877-1.412S78,429.155,77.995,429.289Z" transform="translate(-77.994 -429.213)"/></g><g transform="translate(820.598 462.991)"><path class="e" d="M81.328,425.8c-.035.049.4.441,1.25.815a6.723,6.723,0,0,0,1.568.459,7.024,7.024,0,0,0,.965.092,1.837,1.837,0,0,0,.569-.045.635.635,0,0,0,.482-.61.8.8,0,0,0-.349-.629,1.965,1.965,0,0,0-.51-.244,5.415,5.415,0,0,0-.95-.245,5.268,5.268,0,0,0-1.645,0,2.48,2.48,0,0,0-1.4.529c.028.076.56-.119,1.438-.173a5.979,5.979,0,0,1,1.524.106,5.53,5.53,0,0,1,.86.252c.309.1.534.25.525.412-.005.061-.014.081-.119.122a1.492,1.492,0,0,1-.418.031,7.836,7.836,0,0,1-.906-.058,8.233,8.233,0,0,1-1.509-.332A10.266,10.266,0,0,0,81.328,425.8Z" transform="translate(-81.308 -425.323)"/></g><g transform="translate(820.26 459.053)"><path class="e" d="M81.265,424.83c.03.047.559-.23,1.122-.987a4.854,4.854,0,0,0,.729-1.476,4.9,4.9,0,0,0,.182-.965,1.234,1.234,0,0,0-.38-1.153.7.7,0,0,0-.749,0,2,2,0,0,0-.429.372,3.3,3.3,0,0,0-.554.838,3.435,3.435,0,0,0-.317,1.638c.062.964.473,1.444.51,1.41a12,12,0,0,1-.151-1.413,3.433,3.433,0,0,1,.377-1.43,3.1,3.1,0,0,1,.5-.7c.213-.239.453-.387.534-.294a.854.854,0,0,1,.166.7,4.935,4.935,0,0,1-.137.879,5.352,5.352,0,0,1-.578,1.4C81.641,424.4,81.211,424.768,81.265,424.83Z" transform="translate(-80.863 -420.141)"/></g><path class="e" d="M176.413,324.333H137.336a21.526,21.526,0,0,0-18.3,10.2l-18.252,29.483,21.843,13.213,19.507-25.572,19.093.226L203.7,325.364Z" transform="translate(734.617 61.902)"/><path class="i" d="M122.548,377.174a2.953,2.953,0,0,1-.418-.22l-1.19-.689-4.478-2.652-15.848-9.5-.151-.091.093-.151c3.469-5.611,7.375-12.212,11.73-19.1,3.543-5.6,7.1-10.823,10.628-15.355a8.785,8.785,0,0,1,3.348-2.586,19.91,19.91,0,0,1,3.756-1.314,44.539,44.539,0,0,1,7.026-1.107,93.842,93.842,0,0,1,10.279-.25c1.213.033,2.155.075,2.792.11l.725.048a1.141,1.141,0,0,1,.246.03,1.193,1.193,0,0,1-.248.011l-.727-.008-2.792-.036c-2.422-.007-5.937-.02-10.25.375a44.993,44.993,0,0,0-6.97,1.147,19.7,19.7,0,0,0-3.687,1.31,8.444,8.444,0,0,0-3.21,2.5c-3.507,4.531-7.043,9.754-10.583,15.344-4.35,6.878-8.271,13.471-11.767,19.07l-.058-.242,15.774,9.625L121,376.172l1.162.734A2.978,2.978,0,0,1,122.548,377.174Z" transform="translate(734.693 61.953)"/><path class="j" d="M102.473,380.4c.1.055-3.372,6.241-7.74,13.816s-7.99,13.675-8.085,13.62,3.371-6.24,7.742-13.818S102.379,380.349,102.473,380.4Z" transform="translate(738.009 48.447)"/><path class="e" d="M276.808,263.192a1.7,1.7,0,0,1,.146.274l.392.822c.346.747.841,1.815,1.474,3.181q.477,1.042,1.056,2.3c.377.847.709,1.8,1.108,2.8s.806,2.089,1.246,3.233c.469,1.135.855,2.374,1.265,3.673l1.3,4.073c.242.7.426,1.44.616,2.189s.389,1.51.589,2.285.4,1.565.609,2.366q.154.6.312,1.212.127.618.255,1.245l1.034,5.16a164.952,164.952,0,0,1,2.387,23.291,196.068,196.068,0,0,1-.921,23.4c-.432,3.574-.779,6.979-1.327,10.136-.255,1.581-.469,3.112-.734,4.575q-.423,2.188-.81,4.2c-.481,2.68-1.075,5.071-1.552,7.18q-.367,1.578-.682,2.935-.357,1.34-.652,2.448c-.393,1.453-.7,2.589-.914,3.383l-.248.877a1.8,1.8,0,0,1-.1.3,1.921,1.921,0,0,1,.059-.306c.052-.218.121-.512.21-.887l.842-3.4q.278-1.109.617-2.455c.2-.9.417-1.886.651-2.94.456-2.111,1.03-4.5,1.493-7.185q.375-2.005.784-4.195c.257-1.462.463-2.992.711-4.572.533-3.153.868-6.555,1.289-10.124a200.349,200.349,0,0,0,.888-23.354,167.99,167.99,0,0,0-2.35-23.237l-1.015-5.151-.249-1.243q-.154-.609-.306-1.209l-.6-2.363-.576-2.283c-.186-.748-.366-1.484-.6-2.187l-1.271-4.072c-.4-1.3-.777-2.538-1.235-3.673l-1.216-3.239c-.388-1.007-.71-1.961-1.076-2.811l-1.024-2.314c-.6-1.378-1.075-2.456-1.4-3.209-.151-.355-.269-.633-.357-.839A1.839,1.839,0,0,1,276.808,263.192Z" transform="translate(692.377 76.573)"/><path class="e" d="M146.043,394.318a17.164,17.164,0,0,1-.012,2.39c-.037,1.473-.063,3.506,0,5.751s.207,4.274.328,5.743a17.17,17.17,0,0,1,.147,2.385,12.34,12.34,0,0,1-.426-2.356c-.193-1.466-.38-3.5-.445-5.76s.007-4.3.116-5.776A12.277,12.277,0,0,1,146.043,394.318Z" transform="translate(723.86 45.108)"/><path class="g" d="M179.839,276.663,172.1,303.134l-28.637,3.071v5.083l42.077.581,5.729-34.471Z" transform="translate(724.374 73.341)"/><path class="h" d="M245.947,250.5c-3.381-7.758-12.946-10.422-18.027-10.434-7.09-.014-6.449-.448-13.417.806l-.918-.03c-21.189-.86-23.626,28.241-23.626,28.241l9.658.788h0l-2.55,20.048-7.4,14.191,40.688-.067,2.279-33.127,18.112-.486S249.074,257.675,245.947,250.5Z" transform="translate(713.287 82.143)"/><path class="e" d="M203.162,262.1c.109.013-.607,7.078-1.6,15.78s-1.883,15.749-1.991,15.736.607-7.076,1.6-15.781S203.054,262.087,203.162,262.1Z" transform="translate(710.913 76.836)"/><path class="e" d="M236.523,239.981a1.247,1.247,0,0,1,.053.36c.021.236.043.587.05,1.039a11.975,11.975,0,0,1-.533,3.793,11.219,11.219,0,0,1-2.795,4.94,7.981,7.981,0,0,1-2.849,1.844,10.973,10.973,0,0,1-3.585.594,18.824,18.824,0,0,1-3.613-.255,7.28,7.28,0,0,1-3.127-1.323,8.6,8.6,0,0,1-2.968-4.816,13.013,13.013,0,0,1-.409-3.809c.016-.452.049-.8.074-1.038a1.264,1.264,0,0,1,.063-.358c.031,0,.006.5.016,1.4a14.122,14.122,0,0,0,.526,3.736,8.438,8.438,0,0,0,2.917,4.6,6.966,6.966,0,0,0,2.979,1.233,18.811,18.811,0,0,0,3.533.241,10.736,10.736,0,0,0,3.46-.562,7.7,7.7,0,0,0,2.728-1.74,11.158,11.158,0,0,0,2.782-4.763,12.84,12.84,0,0,0,.646-3.712C236.5,240.481,236.491,239.982,236.523,239.981Z" transform="translate(706.792 82.143)"/><path d="M238.557,262.1c-1.734,8.294-4,16.819-5.732,25.112a12.49,12.49,0,0,1-1.842,5.031,11.8,11.8,0,0,1-2.475,2.277,43.673,43.673,0,0,1-11.043,6.434,99.242,99.242,0,0,0,17.191-2.992,4.692,4.692,0,0,0,2.583-1.335,4.747,4.747,0,0,0,.772-2.463c1.248-10.634.887-21.362.546-32.064" transform="translate(706.617 76.835)"/><path class="g" d="M169.84,303.341l12.615-1.516,8.889,5.829,33.991-8.147,1-18.97,15.257-.375-.356,22.26a12.92,12.92,0,0,1-13.274,12.642l-49.785-1.379-2.113-4.236-10.682-.318Z" transform="translate(719.116 72.501)"/><path class="j" d="M225.335,305.613a4.191,4.191,0,0,1-.638.194l-1.85.482-6.821,1.7-22.538,5.462-2.1.5-.084.02-.071-.047-8.88-5.841.122.028-12.622,1.458.084-.047c-1.411,1.791-2.536,3.219-3.333,4.231-.376.466-.675.835-.9,1.113a2.76,2.76,0,0,1-.328.369,2.662,2.662,0,0,1,.274-.411l.848-1.153,3.242-4.3.03-.041.052-.006,12.608-1.575.065-.008.056.037,8.9,5.816-.154-.027,2.1-.5,22.566-5.348,6.85-1.577,1.867-.41A4.075,4.075,0,0,1,225.335,305.613Z" transform="translate(719.116 66.395)"/><path class="j" d="M178.09,315.355a30.511,30.511,0,0,1-4.9.2l-.9,0,.126-.046a23.053,23.053,0,0,1-3.177,2.445,23.08,23.08,0,0,1,2.925-2.741l.053-.046h.073l.9,0A30.511,30.511,0,0,1,178.09,315.355Z" transform="translate(718.189 64.104)"/><path class="j" d="M250.226,308.585a7.377,7.377,0,0,0-5.879-3.7,2.1,2.1,0,0,1,1.1-.087,5.827,5.827,0,0,1,4.385,2.76A2.114,2.114,0,0,1,250.226,308.585Z" transform="translate(700.167 66.593)"/><path class="e" d="M264.358,275.291a8.971,8.971,0,0,1-1.361.1l-3.715.137c-3.137.1-7.471.207-12.259.3l-1.539.03-.193,0-.008-.191c-.173-4.445-.093-8.4-.01-11.24.044-1.421.1-2.564.147-3.352a7.616,7.616,0,0,1,.112-1.219,7.622,7.622,0,0,1,.033,1.224c-.006.852-.014,1.981-.025,3.353-.013,2.84-.045,6.794.136,11.215l-.2-.187,1.538-.031c4.787-.1,9.123-.16,12.262-.186l3.717-.011A9.066,9.066,0,0,1,264.358,275.291Z" transform="translate(699.966 77.372)"/><path class="k" d="M286.728,344.507a76.643,76.643,0,0,1-8-7.561,76.634,76.634,0,0,1,8,7.561Z" transform="translate(691.917 58.876)"/><path class="k" d="M273.017,397.982a9.586,9.586,0,0,1-1.579.987c-.993.574-2.363,1.367-3.854,2.278s-2.824,1.768-3.787,2.39a9.532,9.532,0,0,1-1.6.955,7.981,7.981,0,0,1,1.44-1.186c.926-.683,2.241-1.58,3.739-2.5s2.9-1.674,3.928-2.187A8.025,8.025,0,0,1,273.017,397.982Z" transform="translate(695.883 44.23)"/><path class="k" d="M297.89,289.589a57.963,57.963,0,0,1-5.6-7.775,58.151,58.151,0,0,1,5.6,7.775Z" transform="translate(688.662 72.105)"/><path class="k" d="M302.919,305.089a50.4,50.4,0,0,1-3.893,8.02,50.313,50.313,0,0,1,3.893-8.02Z" transform="translate(687.047 66.52)"/><path class="k" d="M305.878,343.133a116.394,116.394,0,0,1-6.1-12.141,117.184,117.184,0,0,1,6.1,12.141Z" transform="translate(686.868 60.304)"/><path class="k" d="M305.278,365.511a81.072,81.072,0,0,1-6.476,9.3,81.328,81.328,0,0,1,6.476-9.3Z" transform="translate(687.1 52.021)"/><path class="k" d="M299.985,404.551a23.044,23.044,0,0,1-4.122,4.386,22.987,22.987,0,0,1,4.122-4.386Z" transform="translate(687.806 42.654)"/><path class="k" d="M92.876,354.04a101.7,101.7,0,0,1,3.761-12.12,51.1,51.1,0,0,1-1.692,6.118A50.824,50.824,0,0,1,92.876,354.04Z" transform="translate(736.516 57.681)"/><path class="k" d="M108.713,331.447c-.02.118-1.787-.149-3.973-.071s-3.932.447-3.96.331a13.506,13.506,0,0,1,7.933-.26Z" transform="translate(734.617 60.309)"/><g transform="translate(918.55 283.968)"><g transform="translate(0 0)"><path class="g" d="M235.32,202.961,233.4,230.1a8.463,8.463,0,0,1-8.442,7.866h0a8.463,8.463,0,0,1-8.445-9.016c.17-2.583.324-4.7.324-4.7s-6.571-1.021-6.653-7.591c-.072-5.861,1.528-23.213,1.874-26.886h11.852A12.159,12.159,0,0,1,235.32,202.961Z" transform="translate(-210.186 -189.778)"/><g transform="translate(6.628 31.948)"><path class="j" d="M218.923,234.247a15.279,15.279,0,0,0,8.565-2.434s-2.025,4.728-8.581,4.136Z" transform="translate(-218.907 -231.813)"/></g></g></g><g transform="translate(920.839 293.915)"><g transform="translate(0 0)"><g transform="translate(0 3.539)"><g transform="translate(0.597 1.43)"><path class="e" d="M213.984,210.25a.939.939,0,0,0,.9.947.9.9,0,0,0,.968-.846.938.938,0,0,0-.9-.947A.9.9,0,0,0,213.984,210.25Z" transform="translate(-213.983 -209.403)"/></g><path class="e" d="M213.212,208.508c.116.122.827-.4,1.837-.4,1.009-.012,1.75.508,1.859.384.054-.055-.065-.275-.388-.511a2.575,2.575,0,0,0-1.488-.458,2.473,2.473,0,0,0-1.462.472C213.26,208.231,213.155,208.453,213.212,208.508Z" transform="translate(-213.197 -207.521)"/><g transform="translate(9.924 0.189)"><g transform="translate(0.183 1.514)"><path class="e" d="M226.5,210.609a.939.939,0,0,0,.9.946.9.9,0,0,0,.968-.846.938.938,0,0,0-.9-.947A.9.9,0,0,0,226.5,210.609Z" transform="translate(-226.495 -209.761)"/></g><path class="e" d="M226.269,208.755c.117.122.828-.4,1.838-.4s1.749.508,1.859.384c.053-.055-.064-.275-.388-.51a2.577,2.577,0,0,0-1.488-.459,2.474,2.474,0,0,0-1.462.472C226.319,208.479,226.213,208.7,226.269,208.755Z" transform="translate(-226.255 -207.769)"/></g><g transform="translate(3.703 0.25)"><path class="e" d="M220.642,216.262a6.672,6.672,0,0,0-1.64-.3c-.258-.027-.5-.078-.545-.254a1.316,1.316,0,0,1,.172-.765l.762-1.963a33.681,33.681,0,0,0,1.712-5.135,33.854,33.854,0,0,0-2.121,4.985c-.255.689-.5,1.346-.73,1.975a1.493,1.493,0,0,0-.134,1.012.648.648,0,0,0,.424.377,1.755,1.755,0,0,0,.438.061A6.616,6.616,0,0,0,220.642,216.262Z" transform="translate(-218.069 -207.849)"/></g><g transform="translate(6.028 9.361)"><path class="e" d="M224.347,219.837c-.164-.01-.166,1.086-1.1,1.864s-2.1.657-2.113.811c-.015.068.26.213.753.226a2.731,2.731,0,0,0,1.764-.615,2.375,2.375,0,0,0,.855-1.563C224.544,220.1,224.422,219.83,224.347,219.837Z" transform="translate(-221.129 -219.837)"/></g></g><g transform="translate(9.673)"><path class="e" d="M225.93,203.622c.1.274,1.107.144,2.292.287,1.188.119,2.143.465,2.3.219.07-.118-.1-.375-.483-.641a4.017,4.017,0,0,0-3.5-.386C226.106,203.275,225.887,203.491,225.93,203.622Z" transform="translate(-225.925 -202.865)"/></g><g transform="translate(0.36 0.557)"><path class="e" d="M213.7,204.644c.178.23.873-.008,1.71-.02.835-.04,1.544.154,1.707-.086.071-.116-.04-.346-.35-.563a2.476,2.476,0,0,0-2.753.085C213.716,204.3,213.619,204.532,213.7,204.644Z" transform="translate(-213.671 -203.598)"/></g></g></g><g transform="translate(941.212 301.875)"><g transform="translate(0 0)"><path class="g" d="M240.26,213.546c.112-.049,4.514-1.335,4.37,3.156s-4.623,3.421-4.627,3.292S240.26,213.546,240.26,213.546Z" transform="translate(-240.003 -213.339)"/></g><g transform="translate(1.422 1.471)"><path class="j" d="M241.879,218.8c.021-.014.077.058.207.122a.781.781,0,0,0,.584.03,1.936,1.936,0,0,0,.952-1.708,2.589,2.589,0,0,0-.183-1.128.906.906,0,0,0-.569-.619.4.4,0,0,0-.469.2c-.064.124-.039.214-.062.221s-.094-.078-.052-.263a.5.5,0,0,1,.186-.275.592.592,0,0,1,.436-.1,1.1,1.1,0,0,1,.795.723,2.647,2.647,0,0,1,.231,1.261,2.033,2.033,0,0,1-1.2,1.9.84.84,0,0,1-.712-.142C241.883,218.909,241.863,218.808,241.879,218.8Z" transform="translate(-241.874 -215.274)"/></g></g><g transform="translate(923.309 283.073)"><path class="e" d="M237.106,207.457a2.36,2.36,0,0,0-2.162,1.108c-.293.641-.356,1.368-.648,2.01a1.589,1.589,0,0,1-1.636,1.06,1.384,1.384,0,0,1-.936-1.025,3.8,3.8,0,0,1-.013-1.449c.264-2.1.705-4.178.79-6.29a10.8,10.8,0,0,0-1.326-6.108,5.9,5.9,0,0,0-5.254-2.954c-1.4.112-2.677.841-4.063,1.035a5.487,5.487,0,0,1-4.559-1.522c-.15-.15-.852-.613-.852-.613a2.589,2.589,0,0,1,.473-1.389c2.751-2.545,7.709-3.254,11.344-2.34a13.11,13.11,0,0,1,8.6,6.887c1.563,3.406,1.1,8.142.238,11.589" transform="translate(-216.447 -188.6)"/></g><path class="e" d="M235.527,206.43c.244-2.2,1.342-4.208,1.908-6.35s.445-4.749-1.268-6.152c-.585-.48-1.311-.777-1.856-1.3a9.521,9.521,0,0,1-1.275-1.884,7.808,7.808,0,0,0-5.817-3.541c-1.619-.142-3.248.23-4.87.128-2.57-.163-5-1.509-7.571-1.395a3.051,3.051,0,0,0-2.3.946,1.492,1.492,0,0,0,.315,2.208,1.3,1.3,0,0,0-1.988-.059,1.963,1.963,0,0,0-.141,2.168,4.253,4.253,0,0,0,1.656,1.571,10.745,10.745,0,0,0,7.334,1.352l4.851-2.641,5.487,1.21,5.221,3.489-2.315,9.659Z" transform="translate(708.31 95.114)"/><path class="b" d="M96.056,282.447l15.91,31.279h50.178l-2.031-4.087-14.536-.432-11.842-26.368a4.59,4.59,0,0,0-4.187-2.71H97.478A1.6,1.6,0,0,0,96.056,282.447Z" transform="translate(735.793 72.509)"/><ellipse class="e" cx="2.052" cy="2.052" rx="2.052" ry="2.052" transform="translate(853.417 366.743)"/><path class="f" d="M242.083,282.331c-.116,8.763-5.456,16.836-12.422,22.155s-15.425,8.274-23.848,10.7-17.032,4.429-24.954,8.176c-10.973,5.191-21.134,12.313-27.331,22.749s-8.406,24.145-7.713,36.263l93.177-9.317,5.1-52.96Z" transform="translate(723.84 71.981)"/><path class="e" d="M206.276,325.557a.815.815,0,0,1-.2.062l-.6.141c-.523.126-1.3.277-2.293.521-1.988.462-4.852,1.189-8.339,2.263a112.393,112.393,0,0,0-12,4.461,72.244,72.244,0,0,0-13.589,7.733,68.674,68.674,0,0,0-6.113,5.324,61.521,61.521,0,0,0-5.1,5.569,52.152,52.152,0,0,0-6.819,10.783,44.833,44.833,0,0,0-2.883,8.119c-.284.98-.391,1.768-.524,2.289-.056.243-.1.439-.136.6a.838.838,0,0,1-.06.2.806.806,0,0,1,.02-.207c.026-.159.058-.358.1-.6.108-.527.191-1.321.452-2.311a42.465,42.465,0,0,1,2.779-8.2,51.351,51.351,0,0,1,6.789-10.9,60.965,60.965,0,0,1,5.113-5.617,67.86,67.86,0,0,1,6.146-5.363A71.241,71.241,0,0,1,182.7,332.67a107.453,107.453,0,0,1,12.068-4.395c3.505-1.042,6.386-1.729,8.387-2.146,1-.221,1.782-.347,2.311-.448l.6-.1A.81.81,0,0,1,206.276,325.557Z" transform="translate(723.377 61.609)"/><path class="k" d="M246.957,384.1a72.362,72.362,0,0,1-6.457,3.951,72.713,72.713,0,0,1-6.656,3.609,72.512,72.512,0,0,1,6.459-3.951A72.811,72.811,0,0,1,246.957,384.1Z" transform="translate(702.687 47.561)"/><path class="k" d="M192.553,384.558a11.6,11.6,0,0,1-1.525-1.4c-.912-.892-2.169-2.124-3.581-3.461s-2.71-2.526-3.65-3.389a11.638,11.638,0,0,1-1.479-1.447,9.985,9.985,0,0,1,1.663,1.236c.989.81,2.321,1.972,3.739,3.313s2.646,2.611,3.509,3.554A10.055,10.055,0,0,1,192.553,384.558Z" transform="translate(715.052 49.777)"/><path class="k" d="M220.426,353.409a84.378,84.378,0,0,1-2.963,11.17,84.292,84.292,0,0,1,2.963-11.17Z" transform="translate(706.621 54.925)"/><path class="k" d="M266.575,360.263a53.871,53.871,0,0,1-6.047-2.469,53.905,53.905,0,0,1-5.886-2.832,54.034,54.034,0,0,1,6.047,2.47A54.083,54.083,0,0,1,266.575,360.263Z" transform="translate(697.696 54.553)"/><path class="k" d="M213.536,404.11a61.517,61.517,0,0,1-1.559-9.747,61.59,61.59,0,0,1,1.559,9.747Z" transform="translate(707.94 45.097)"/><path class="k" d="M168.664,401.292a52.8,52.8,0,0,1-4.411-4.723,52.881,52.881,0,0,1-4.115-4.984,52.817,52.817,0,0,1,4.412,4.724A53.019,53.019,0,0,1,168.664,401.292Z" transform="translate(720.374 45.764)"/><path class="k" d="M202.312,341.919a37.6,37.6,0,0,1-4.773,2.608,37.427,37.427,0,0,1-4.951,2.254,37.462,37.462,0,0,1,4.774-2.608A37.446,37.446,0,0,1,202.312,341.919Z" transform="translate(712.587 57.683)"/><path class="k" d="M250.3,333.682a43.36,43.36,0,0,1-5.834.195,43.2,43.2,0,0,1-5.834-.2,43.2,43.2,0,0,1,5.834-.195A43.064,43.064,0,0,1,250.3,333.682Z" transform="translate(701.538 59.707)"/><path class="k" d="M272.224,300.041a26.1,26.1,0,0,1-3.961,8.471c-.1-.059.917-1.889,2-4.225S272.116,300,272.224,300.041Z" transform="translate(694.429 67.731)"/><rect class="e" width="55.557" height="7.634" transform="translate(1032.442 436.862)"/><path class="e" d="M415.659,398.644H359.913V390.82h55.746Zm-55.556-.19h55.366V391.01H360.1Z" transform="translate(672.435 45.947)"/><path class="e" d="M366.815,397.646l8,39.451H404.4l7.73-36.911Z" transform="translate(670.779 44.309)"/><path class="i" d="M366.815,444.643l4.265,5.864h35.965l5.086-5.864Z" transform="translate(670.779 33.032)"/><path class="e" d="M393.733,373.386c-.109,0-.249-18.277-.312-40.817s-.027-40.822.083-40.822.249,18.272.312,40.821S393.842,373.386,393.733,373.386Z" transform="translate(664.402 69.721)"/><path class="e" d="M408.509,338.984a1.955,1.955,0,0,1-.149.425l-.5,1.183q-.165.391-.362.852l-.37,1.037-.429,1.19c-.148.422-.265.882-.41,1.357a55.275,55.275,0,0,0-1.554,6.8,82.833,82.833,0,0,0-.86,8.506,114.779,114.779,0,0,0,.439,15.538c.179,1.984.359,3.587.491,4.693.057.519.1.941.14,1.276a1.874,1.874,0,0,1,.022.449,1.964,1.964,0,0,1-.1-.438c-.055-.332-.127-.752-.214-1.267-.179-1.1-.4-2.7-.616-4.686a102.3,102.3,0,0,1-.556-15.585,77.662,77.662,0,0,1,.9-8.547,51.535,51.535,0,0,1,1.646-6.824c.155-.475.281-.935.44-1.357l.46-1.186.4-1.031c.137-.312.277-.589.4-.842l.565-1.156A1.875,1.875,0,0,1,408.509,338.984Z" transform="translate(662.001 58.386)"/><path class="e" d="M405.978,319.534a3.725,3.725,0,0,1-.176.6l-.578,1.7-.425,1.225-.447,1.476c-.325,1.057-.7,2.259-1.037,3.611q-.267,1.011-.557,2.113-.251,1.114-.521,2.311c-.388,1.591-.668,3.319-1.026,5.124-.613,3.63-1.152,7.643-1.524,11.876-.351,4.236-.5,8.284-.558,11.967-.011,3.683.036,7,.187,9.783.049,1.392.138,2.649.211,3.755s.133,2.056.2,2.832q.085,1.123.136,1.791a3.718,3.718,0,0,1,.021.627,3.661,3.661,0,0,1-.1-.619q-.078-.666-.21-1.785c-.094-.774-.186-1.725-.271-2.83s-.2-2.362-.269-3.756c-.187-2.786-.263-6.11-.272-9.8.034-3.691.176-7.75.528-12,.373-4.244.925-8.268,1.559-11.906.369-1.809.662-3.54,1.066-5.133q.282-1.2.544-2.313.3-1.1.584-2.113c.353-1.351.749-2.551,1.1-3.6l.48-1.469.458-1.216.649-1.676A3.8,3.8,0,0,1,405.978,319.534Z" transform="translate(663.112 63.053)"/><path class="e" d="M385.876,377.4a.891.891,0,0,1-.032-.214c-.014-.164-.03-.372-.052-.629-.039-.582-.093-1.392-.163-2.42-.133-2.133-.323-5.166-.556-8.9-.483-7.515-1.18-17.9-2.445-29.316-.646-5.709-1.4-11.131-2.174-16.047-.414-2.453-.79-4.789-1.216-6.96-.391-2.179-.812-4.2-1.2-6.038-.365-1.847-.772-3.5-1.1-4.959s-.633-2.71-.893-3.73c-.245-1-.439-1.788-.577-2.355l-.141-.615a.921.921,0,0,1-.035-.214.842.842,0,0,1,.074.2c.047.158.106.357.179.606.157.562.373,1.344.649,2.337.284,1.015.617,2.26.959,3.717s.775,3.106,1.158,4.952c.405,1.84.843,3.857,1.248,6.036.441,2.172.829,4.508,1.254,6.963.8,4.919,1.561,10.346,2.208,16.061,1.266,11.43,1.919,21.823,2.33,29.344.2,3.761.347,6.806.432,8.911.038,1.03.068,1.841.089,2.425.005.258.01.467.014.631A.877.877,0,0,1,385.876,377.4Z" transform="translate(668.745 68.941)"/><path class="l" d="M387.728,301.864c-.242-2.589-2.858-4.543-5.459-4.569a8.6,8.6,0,0,0-6.615,3.59,20.7,20.7,0,0,0-3.185,7.069,48.028,48.028,0,0,0-1.96,18.812,28.469,28.469,0,0,0,7.828,16.959,3.205,3.205,0,0,0,2.7,1.233,3.257,3.257,0,0,0,1.423-.879,42.1,42.1,0,0,0,13.662-32.013,13,13,0,0,0-1.712-6.887c-1.327-2-4.42-4.117-6.68-3.315" transform="translate(669.954 68.39)"/><path class="m" d="M363.226,273.028l-3.663,6.633c-.085.154-.2.328-.374.343-.193.016-.337-.166-.442-.328l-9.682-14.86,2.231-1.264Z" transform="translate(675.038 76.487)"/><path d="M363.226,273.028l-3.663,6.633c-.085.154-.2.328-.374.343-.193.016-.337-.166-.442-.328l-9.682-14.86,2.231-1.264Z" transform="translate(675.038 76.487)"/><path class="l" d="M382.848,282.712l-33.03-19.491a1.538,1.538,0,0,1-.8-.811c-.131-.489.236-.96.588-1.323a22.768,22.768,0,0,1,17.652-6.935,20.17,20.17,0,0,1,15.958,9.925c3.187,5.7,3.292,13.228-.363,18.635" transform="translate(675.057 78.755)"/><path class="e" d="M356.344,257.878a1.785,1.785,0,0,1,.432-.054c.285-.014.705-.066,1.248-.06a24.837,24.837,0,0,1,4.583.364,26.784,26.784,0,0,1,21.379,19.344,24.788,24.788,0,0,1,.819,4.524c.06.54.051.963.065,1.248a1.818,1.818,0,0,1-.011.436c-.035,0-.077-.6-.207-1.668a28.211,28.211,0,0,0-.935-4.464A26.984,26.984,0,0,0,362.558,258.4a28.124,28.124,0,0,0-4.534-.485C356.945,257.894,356.346,257.913,356.344,257.878Z" transform="translate(673.291 77.877)"/><path class="e" d="M383.9,274.043a7.96,7.96,0,0,1-1.67.759c-1.053.415-2.523.945-4.168,1.468s-3.153.939-4.252,1.207a7.982,7.982,0,0,1-1.8.344,8.934,8.934,0,0,1,1.726-.613l4.208-1.314,4.193-1.354A8.938,8.938,0,0,1,383.9,274.043Z" transform="translate(669.532 73.971)"/><path class="e" d="M380.793,255.663a23.093,23.093,0,0,1,.187,7.385,69.614,69.614,0,0,1-.187-7.385Z" transform="translate(667.44 78.38)"/><path class="e" d="M349.7,264.33a14.908,14.908,0,0,1,2.4-.844c1.5-.462,3.59-1.048,5.92-1.61s4.458-.991,6.005-1.262a14.84,14.84,0,0,1,2.52-.341,17.861,17.861,0,0,1-2.466.616c-1.53.34-3.642.813-5.967,1.373s-4.419,1.1-5.937,1.495A17.714,17.714,0,0,1,349.7,264.33Z" transform="translate(674.885 77.277)"/><path class="l" d="M361.764,294.466c-2.84-2.154-5.845-2.578-9.407-2.437a28.749,28.749,0,0,0-10.3,2.657c-5.57,2.439-10.8,6.035-14.133,11.124s-4.486,11.826-1.994,17.372a2.478,2.478,0,0,0,1.129,1.369,2.691,2.691,0,0,0,1.864-.143c6.335-2.067,12.715-4.152,18.539-7.388s11.126-7.735,14.252-13.619a11.706,11.706,0,0,0,1.5-4.52,5.617,5.617,0,0,0-1.453-4.414" transform="translate(680.91 69.66)"/><path class="e" d="M362.512,294.363a2.349,2.349,0,0,1-.456.185l-1.328.456-.961.321c-.349.125-.72.281-1.123.437-.8.325-1.731.648-2.711,1.124l-1.554.708c-.539.249-1.076.554-1.645.844-1.148.564-2.311,1.284-3.547,2.015a56.04,56.04,0,0,0-13.975,12.3c-.882,1.134-1.745,2.194-2.451,3.261-.36.528-.732,1.022-1.047,1.525l-.9,1.45c-.6.911-1.036,1.793-1.46,2.546-.206.38-.408.729-.577,1.058l-.44.913-.622,1.258a2.359,2.359,0,0,1-.242.429,2.234,2.234,0,0,1,.169-.461c.143-.334.328-.762.556-1.291q.187-.426.41-.931c.159-.335.352-.69.55-1.077.407-.766.831-1.662,1.416-2.587l.882-1.472c.311-.51.678-1.011,1.034-1.546.7-1.082,1.557-2.157,2.437-3.3A54.274,54.274,0,0,1,349,300.143c1.25-.727,2.426-1.441,3.587-2,.576-.285,1.12-.586,1.666-.828l1.572-.689c.993-.461,1.935-.768,2.747-1.075.409-.147.785-.293,1.139-.408l.975-.289,1.352-.386A2.263,2.263,0,0,1,362.512,294.363Z" transform="translate(680.219 69.094)"/><path class="e" d="M339.975,310.172a66.664,66.664,0,0,1-6.91,2.226,66.6,66.6,0,0,1-7.021,1.847,133.384,133.384,0,0,1,13.931-4.073Z" transform="translate(680.562 65.302)"/><path class="e" d="M343.943,325.6a11.107,11.107,0,0,1-.152-2.153c-.036-1.332-.042-3.172.014-5.2s.166-3.869.277-5.2a11.054,11.054,0,0,1,.271-2.141,12.186,12.186,0,0,1,.008,2.156c-.045,1.458-.1,3.232-.16,5.192s-.093,3.732-.13,5.191A12.351,12.351,0,0,1,343.943,325.6Z" transform="translate(676.31 65.123)"/><path class="e" d="M360.811,316.2c-.109.008-.457-3.732-.776-8.351s-.49-8.371-.381-8.379.456,3.731.776,8.351S360.92,316.194,360.811,316.2Z" transform="translate(672.505 67.868)"/><path class="e" d="M339.793,298.973a12.323,12.323,0,0,1,2.215-.067c1.367.009,3.251.049,5.332.118s3.966.154,5.329.235a12.284,12.284,0,0,1,2.206.213,12.246,12.246,0,0,1-2.212.067c-1.366-.009-3.252-.049-5.336-.119s-3.968-.154-5.332-.234A12.357,12.357,0,0,1,339.793,298.973Z" transform="translate(677.263 68.004)"/><path class="e" d="M382.708,346.976a1.951,1.951,0,0,1-.047-.451c-.015-.34-.035-.769-.059-1.3-.049-1.127-.061-2.76-.019-4.778s.17-4.419.408-7.077c.257-2.656.629-5.569,1.162-8.6.548-3.033,1.2-5.895,1.88-8.477.695-2.577,1.4-4.876,2.061-6.782s1.231-3.437,1.667-4.477l.5-1.2a1.915,1.915,0,0,1,.2-.407,2.014,2.014,0,0,1-.126.436l-.433,1.224c-.391,1.056-.924,2.6-1.545,4.51s-1.3,4.213-1.974,6.786c-.654,2.578-1.3,5.433-1.843,8.454s-.913,5.924-1.189,8.569c-.256,2.647-.419,5.039-.491,7.05s-.109,3.641-.106,4.767c-.007.528-.012.958-.016,1.3A1.982,1.982,0,0,1,382.708,346.976Z" transform="translate(667.001 66.918)"/><path class="e" d="M381.886,331.072a9.076,9.076,0,0,1-1.317,1.446c-.855.852-2.068,2-3.452,3.21s-2.678,2.266-3.635,3a9.009,9.009,0,0,1-1.606,1.117,10.213,10.213,0,0,1,1.429-1.334l3.551-3.083,3.522-3.117A10.163,10.163,0,0,1,381.886,331.072Z" transform="translate(669.565 60.285)"/><path class="e" d="M395.855,337.918a15.487,15.487,0,0,1-1.4-1.944l-3.264-4.763-3.332-4.717a15.553,15.553,0,0,1-1.335-1.991,13.364,13.364,0,0,1,1.559,1.824c.916,1.164,2.142,2.8,3.433,4.658s2.4,3.574,3.174,4.838A13.406,13.406,0,0,1,395.855,337.918Z" transform="translate(666.051 61.861)"/><path class="e" d="M386.631,307.305c.059.092-3.414,2.43-7.756,5.221s-7.911,4.981-7.971,4.889,3.413-2.429,7.757-5.221S386.572,307.213,386.631,307.305Z" transform="translate(669.797 65.989)"/><path class="e" d="M401.251,318.057a128.991,128.991,0,0,1-10.23-9.991,129.332,129.332,0,0,1,10.23,9.991Z" transform="translate(664.971 65.806)"/><path class="l" d="M407.722,314.044l2.981-.247a14.741,14.741,0,0,0,6.021-1.843,24.016,24.016,0,0,1,2.806-1.409c3.685-1.48,7.8-1.215,11.765-1.414a48.724,48.724,0,0,0,18.716-4.786,1.817,1.817,0,0,0,.816-.74c.613-1.116-.524-2.109-1.5-2.712-5.022-3.095-10.135-6.229-15.831-7.766s-12.162-1.276-17.022,2.068c-5.706,3.926-7.784,11.99-8.748,18.849" transform="translate(660.963 69.607)"/><path class="e" d="M450.914,304.131a2.865,2.865,0,0,1-.505-.236l-1.414-.74c-1.225-.645-2.99-1.6-5.219-2.665a48.763,48.763,0,0,0-8.078-3.113,26.665,26.665,0,0,0-10.472-.849,17.9,17.9,0,0,0-9.545,4.1,21.221,21.221,0,0,0-4.971,6.982,58.3,58.3,0,0,0-2.163,5.436l-.531,1.5a2.854,2.854,0,0,1-.209.517,2.968,2.968,0,0,1,.133-.542c.116-.386.27-.894.461-1.528a49.627,49.627,0,0,1,2.054-5.5,21.128,21.128,0,0,1,4.984-7.137,18.106,18.106,0,0,1,9.735-4.218,26.651,26.651,0,0,1,10.621.889,46.971,46.971,0,0,1,8.1,3.213c2.222,1.106,3.968,2.1,5.171,2.782l1.378.806A2.931,2.931,0,0,1,450.914,304.131Z" transform="translate(660.943 68.715)"/><path class="e" d="M449.675,308.115c-.061.09-3.96-2.431-8.708-5.633s-8.549-5.871-8.488-5.962,3.96,2.431,8.709,5.634S449.736,308.025,449.675,308.115Z" transform="translate(655.022 68.576)"/><path class="e" d="M448.235,296.019a14.61,14.61,0,0,1-6.147.565,71.777,71.777,0,0,1,6.147-.565Z" transform="translate(652.716 68.704)"/><path class="e" d="M426.255,291.908a20.663,20.663,0,0,1-2.9,4.914,20.659,20.659,0,0,1,2.9-4.914Z" transform="translate(657.213 69.683)"/><path class="e" d="M428.025,312.15a10.292,10.292,0,0,1-1.877-1.017c-1.126-.684-2.649-1.686-4.275-2.866s-3.061-2.3-4.091-3.116a11.5,11.5,0,0,1-1.619-1.388,11.263,11.263,0,0,1,1.787,1.164l4.156,3.019c1.621,1.177,3.11,2.21,4.195,2.951A12.791,12.791,0,0,1,428.025,312.15Z" transform="translate(658.937 66.839)"/><path class="l" d="M411.292,337.174c-2.843-.752-6.233,2.015-6.819,4.9s.495,5.829,1.76,8.485a43.286,43.286,0,0,0,11.759,15.386,29.085,29.085,0,0,0,17.98,6.619c-1.2-5.584.318-11.417-.352-17.09a22.229,22.229,0,0,0-19.689-19.493c-1.815-.2-3.916-.481-4.64,1.2" transform="translate(661.781 59.144)"/><path class="e" d="M438.177,372.986a1.9,1.9,0,0,1-.4-.188,7.329,7.329,0,0,1-1.064-.714,11.1,11.1,0,0,1-2.808-3.755c-.454-.881-.96-1.836-1.455-2.9s-.993-2.193-1.53-3.381a32.7,32.7,0,0,0-1.88-3.615,28.389,28.389,0,0,0-2.587-3.519c-1.947-2.287-4.036-4.265-5.847-6.155a40.257,40.257,0,0,1-4.458-5.348,19.669,19.669,0,0,1-2.178-4.16c-.183-.524-.315-.935-.38-1.22a1.927,1.927,0,0,1-.09-.436c.037-.011.2.581.613,1.6a21.476,21.476,0,0,0,2.266,4.058,42.352,42.352,0,0,0,4.489,5.253c1.819,1.87,3.919,3.844,5.887,6.154a27.969,27.969,0,0,1,2.616,3.572,32.149,32.149,0,0,1,1.882,3.666c.525,1.193,1.026,2.329,1.5,3.394s.97,2.019,1.406,2.9a11.473,11.473,0,0,0,2.658,3.765C437.639,372.682,438.2,372.948,438.177,372.986Z" transform="translate(659.578 58.719)"/><path class="e" d="M426.618,374.062a8.541,8.541,0,0,1,.261-1.914c.223-1.171.588-2.779,1.081-4.53s1.021-3.314,1.443-4.43a8.519,8.519,0,0,1,.777-1.769,10.331,10.331,0,0,1-.511,1.86c-.353,1.135-.835,2.7-1.327,4.445s-.9,3.331-1.188,4.483A10.377,10.377,0,0,1,426.618,374.062Z" transform="translate(656.432 53.002)"/><path class="e" d="M440.95,359.043a11.783,11.783,0,0,1-2-.461c-1.225-.321-2.918-.758-4.8-1.183s-3.6-.753-4.844-.99a11.672,11.672,0,0,1-2.007-.442,9.671,9.671,0,0,1,2.051.166c1.259.166,2.993.454,4.886.879s3.582.91,4.791,1.3A9.643,9.643,0,0,1,440.95,359.043Z" transform="translate(656.265 54.315)"/><path class="e" d="M412.735,360.609a11.6,11.6,0,0,1,.308-2.215c.25-1.357.648-3.224,1.18-5.262s1.1-3.863,1.543-5.169a11.575,11.575,0,0,1,.814-2.083,13.492,13.492,0,0,1-.546,2.165c-.376,1.326-.9,3.154-1.427,5.186s-.97,3.881-1.289,5.221A13.523,13.523,0,0,1,412.735,360.609Z" transform="translate(659.763 56.731)"/><path class="e" d="M431.685,343.767c-.011.109-3.562-.179-7.928-.641s-7.9-.926-7.888-1.035,3.561.179,7.93.641S431.7,343.659,431.685,343.767Z" transform="translate(659.008 57.646)"/><path class="i" d="M415.657,400.884c0,.109-12.479.2-27.869.2s-27.871-.089-27.871-.2,12.476-.2,27.871-.2S415.657,400.775,415.657,400.884Z" transform="translate(672.434 43.58)"/><path class="i" d="M409.975,422.013c0,.109-8.408.2-18.777.2s-18.779-.089-18.779-.2,8.406-.2,18.779-.2S409.975,421.9,409.975,422.013Z" transform="translate(669.434 38.51)"/><path class="i" d="M410.406,425.034c0,.109-8.408.2-18.777.2s-18.779-.089-18.779-.2,8.406-.2,18.779-.2S410.406,424.925,410.406,425.034Z" transform="translate(669.331 37.785)"/><path class="i" d="M410,419.523c0,.109-8.7.2-19.422.2s-19.425-.089-19.425-.2,8.7-.2,19.425-.2S410,419.414,410,419.523Z" transform="translate(669.738 39.107)"/></g></svg>