<svg width="34" height="34" viewBox="0 0 34 34" fill="none" xmlns="http://www.w3.org/2000/svg">
<g clip-path="url(#clip0)">
<path d="M20.9185 17.9296C15.9753 17.9296 11.9541 13.9084 11.9541 8.96517C11.9541 4.02191 15.9753 0.000732422 20.9185 0.000732422C25.8618 0.000732422 29.883 4.02191 29.883 8.96517C29.883 13.9084 25.8619 17.9296 20.9185 17.9296Z" fill="#FFDC73"/>
<path d="M29.8834 8.96517C29.8834 4.02191 25.8622 0.000732422 20.9189 0.000732422V17.9296C25.8623 17.9296 29.8834 13.9084 29.8834 8.96517Z" fill="#FFB95A"/>
<path d="M33.9996 33.9992H32.0075V30.8783C32.0075 30.3287 31.561 29.8822 31.0115 29.8822H27.8905L25.8984 27.8901H31.0115C32.6592 27.8901 33.9996 29.2306 33.9996 30.8783V33.9992Z" fill="#4D3535"/>
<path d="M23.907 9.96116H19.9229V3.98486H21.9149V7.96906H23.907V9.96116Z" fill="#665151"/>
<path d="M20.9189 3.98486V9.96116H23.9071V7.96906H21.915V3.98486H20.9189Z" fill="#4D3535"/>
<path d="M25.1817 21.834C23.6677 21.6947 22.4127 21.3958 21.4963 21.1168C20.5744 20.8609 19.8196 20.5447 19.803 20.5392L18.9265 21.2364L18.05 21.9535C14.4886 20.2604 12.1405 17.8449 11.6156 17.2722C9.82264 15.3399 8.36847 13.0489 7.39234 10.5389L8.84651 8.7062C8.76689 8.3874 7.96999 6.17617 7.96999 2.98888C7.96999 1.33537 6.63535 0.000732422 4.98184 0.000732422H0.180887C0.14835 0.374317 -1.79886 12.3043 7.8903 21.9934C13.9123 28.0154 21.1844 29.8822 26.8948 29.8822H27.8909V24.8221C27.8909 23.2484 26.7155 21.9735 25.1817 21.834Z" fill="#66CCFF"/>
<path d="M27.8912 24.822V29.882H26.8952C21.1871 29.882 13.9127 28.0154 7.89062 21.9933L11.6158 17.272C12.1392 17.8429 14.4833 20.2577 18.0503 21.9533L18.9268 21.2362L19.8033 20.539C19.8198 20.5445 20.5747 20.8607 21.4965 21.1167C22.4129 21.3956 23.668 21.6944 25.182 21.8338C26.7158 21.9734 27.8912 23.2483 27.8912 24.822Z" fill="#59ABFF"/>
</g>
<defs>
<clipPath id="clip0">
<rect width="34" height="34" fill="white"/>
</clipPath>
</defs>
</svg>
