<svg width="35" height="43" viewBox="0 0 35 43" fill="none" xmlns="http://www.w3.org/2000/svg">
<path d="M9.875 13.75L13.6875 15L17.5 13.75L18.75 10L17.5 6.25C13.3174 6.25 9.875 9.5085 9.875 13.75Z" fill="#DD4E4E"/>
<path d="M17.5 6.25V13.75L21.3125 15L25.125 13.75C25.125 9.51975 21.696 6.25 17.5 6.25Z" fill="#C21456"/>
<path d="M13.125 4.375C13.125 6.78733 15.0875 8.75 17.5 8.75L18.75 4.375L17.5 0C15.0877 0 13.125 1.9625 13.125 4.375Z" fill="#EDBBA7"/>
<path d="M21.875 4.375C21.875 1.96275 19.9124 0 17.5 0V8.75C19.9122 8.75 21.875 6.78742 21.875 4.375Z" fill="#E8A38B"/>
<path d="M0 13.75V20L8.75 21.25L17.5 20L18.75 16.875L17.5 13.75C16.528 13.75 0.972 13.75 0 13.75Z" fill="#F9F9F9"/>
<path d="M35 13.75C34.028 13.75 18.472 13.75 17.5 13.75V20L26.25 21.25L35 20C35 18.3172 35 14.7303 35 13.75Z" fill="#E2DFF4"/>
<path d="M0 20V24.4008C0.764167 24.9356 12.9858 33.4888 13.75 34.0235V42.1304C15.2547 41.7124 15.6926 41.5907 17.5 41.0887L18.75 30.5444L17.5 20.0001C16.528 20 0.972 20 0 20Z" fill="#E2DFF4"/>
<path d="M21.25 34.0235C22.0142 33.4888 34.2358 24.9356 35 24.4008C35 22.9357 35 21.4652 35 20C34.028 20 18.472 20 17.5 20V30.5443V41.0887C19.0047 40.6707 19.4426 40.549 21.25 40.047C21.25 38.4149 21.25 34.9851 21.25 34.0235Z" fill="#BEBCDD"/>
</svg>
