<svg width="40" height="23" viewBox="0 0 40 23" fill="none" xmlns="http://www.w3.org/2000/svg">
<path d="M0 12C0 10.8954 0.895431 10 2 10C3.10457 10 4 10.8954 4 12V23H0V12Z" fill="#7FE1A6"/>
<path d="M30 12C30 10.8954 30.8954 10 32 10C33.1046 10 34 10.8954 34 12V23H30V12Z" fill="#7FE1A6"/>
<path d="M6 16C6 14.8954 6.89543 14 8 14C9.10457 14 10 14.8954 10 16V23H6V16Z" fill="#7FE1A6"/>
<path d="M36 7C36 5.89543 36.8954 5 38 5C39.1046 5 40 5.89543 40 7V23H36V7Z" fill="#7FE1A6"/>
<path d="M18 14C18 12.8954 18.8954 12 20 12C21.1046 12 22 12.8954 22 14V23H18V14Z" fill="#7FE1A6"/>
<path d="M12 2C12 0.89543 12.8954 0 14 0C15.1046 0 16 0.895431 16 2V23H12V2Z" fill="#7FE1A6"/>
<path d="M24 2C24 0.89543 24.8954 0 26 0C27.1046 0 28 0.895431 28 2V23H24V2Z" fill="#7FE1A6"/>
</svg>
