<svg width="40" height="25" viewBox="0 0 40 25" fill="none" xmlns="http://www.w3.org/2000/svg">
<path d="M0 14C0 12.8954 0.895431 12 2 12C3.10457 12 4 12.8954 4 14V25H0V14Z" fill="#8C9CFF"/>
<path d="M30 14C30 12.8954 30.8954 12 32 12C33.1046 12 34 12.8954 34 14V25H30V14Z" fill="#8C9CFF"/>
<path d="M6 9C6 7.89543 6.89543 7 8 7C9.10457 7 10 7.89543 10 9V25H6V9Z" fill="#8C9CFF"/>
<path d="M36 9C36 7.89543 36.8954 7 38 7C39.1046 7 40 7.89543 40 9V25H36V9Z" fill="#8C9CFF"/>
<path d="M18 2C18 0.89543 18.8954 0 20 0C21.1046 0 22 0.895431 22 2V25H18V2Z" fill="#8C9CFF"/>
<path d="M12 18C12 16.8954 12.8954 16 14 16C15.1046 16 16 16.8954 16 18V25H12V18Z" fill="#8C9CFF"/>
<path d="M24 11C24 9.89543 24.8954 9 26 9C27.1046 9 28 9.89543 28 11V25H24V11Z" fill="#8C9CFF"/>
</svg>
