<svg width="24" height="18" viewBox="0 0 24 18" fill="none" xmlns="http://www.w3.org/2000/svg">
<path d="M24 14.6667C24 16.1393 22.806 17.3333 21.3333 17.3333H2.66667C1.194 17.3333 0 16.1393 0 14.6667V2.66667C0 1.194 1.194 0 2.66667 0H21.3333C22.806 0 24 1.194 24 2.66667V14.6667Z" fill="#CCD6DD"/>
<path d="M7.96677 8.42402L0.424766 15.966C0.406766 15.9847 0.400099 16.008 0.384766 16.0267C0.611432 16.4067 0.927432 16.722 1.30743 16.9493C1.32677 16.934 1.34943 16.9274 1.36743 16.9093L8.9101 9.36668C9.1701 9.10602 9.1701 8.68468 8.9101 8.42402C8.64877 8.16335 8.22743 8.16335 7.96677 8.42402ZM23.6154 16.0267C23.6014 16.008 23.5934 15.9847 23.5754 15.9667L16.0341 8.42402C15.7728 8.16335 15.3514 8.16335 15.0908 8.42402C14.8301 8.68535 14.8301 9.10668 15.0908 9.36668L22.6328 16.9093C22.6501 16.9267 22.6741 16.934 22.6928 16.9493C23.0734 16.7227 23.3888 16.4067 23.6154 16.0267Z" fill="#99AAB5"/>
<path d="M21.3333 0H2.66667C1.194 0 0 1.194 0 2.66667V3.35333L9.68533 13.0173C10.948 14.2793 13.0107 14.2793 14.2747 13.0173L24 3.33933V2.66667C24 1.194 22.806 0 21.3333 0Z" fill="#99AAB5"/>
<path d="M21.3334 0H2.66669C1.60802 0 0.700686 0.622667 0.27002 1.51667L10.114 11.3613C11.1554 12.4027 12.8447 12.4027 13.8854 11.3613L23.73 1.51667C23.2994 0.622667 22.3927 0 21.3334 0Z" fill="#E1E8ED"/>
</svg>
