<svg width="68" height="87" viewBox="0 0 68 87" fill="none" xmlns="http://www.w3.org/2000/svg">
<rect x="11.3974" y="6.25378" width="47.2509" height="47.2509" rx="1" fill="#FFCC42"/>
<g filter="url(#filter0_d)">
<path d="M35.0228 0.754427C35.0228 0.337768 35.3606 0 35.7773 0L62.5124 0C63.0647 0 63.5124 0.447715 63.5124 1V25.5909C63.5124 26.0405 63.1479 26.4049 62.6984 26.4049H60.6734C46.507 26.4049 35.0228 14.9208 35.0228 0.754427Z" fill="#2E256B"/>
</g>
<g filter="url(#filter1_d)">
<circle cx="29.4639" cy="53.5048" r="12.5076" fill="#9D6CDD"/>
</g>
<line x1="6.64645" y1="20.3198" x2="21.2386" y2="5.72759" stroke="#FF6D1C"/>
<line x1="6.64651" y1="23.7942" x2="21.2387" y2="9.20195" stroke="#FF6D1C"/>
<line x1="6.64648" y1="27.2685" x2="21.2387" y2="12.6763" stroke="#FF6D1C"/>
<line x1="6.64645" y1="30.7428" x2="21.2386" y2="16.1506" stroke="#FF6D1C"/>
<line x1="6.64645" y1="34.2171" x2="21.2386" y2="19.6249" stroke="#FF6D1C"/>
<line x1="6.64651" y1="37.6915" x2="21.2387" y2="23.0993" stroke="#FF6D1C"/>
<line x1="6.64648" y1="41.1659" x2="21.2387" y2="26.5737" stroke="#FF6D1C"/>
<line x1="6.64645" y1="44.6401" x2="21.2386" y2="30.0479" stroke="#FF6D1C"/>
<line x1="6.64645" y1="48.1145" x2="21.2386" y2="33.5223" stroke="#FF6D1C"/>
<line x1="6.64651" y1="51.5888" x2="21.2387" y2="36.9966" stroke="#FF6D1C"/>
<defs>
<filter id="filter0_d" x="31.0228" y="0" width="36.4895" height="34.4049" filterUnits="userSpaceOnUse" color-interpolation-filters="sRGB">
<feFlood flood-opacity="0" result="BackgroundImageFix"/>
<feColorMatrix in="SourceAlpha" type="matrix" values="0 0 0 0 0 0 0 0 0 0 0 0 0 0 0 0 0 0 127 0"/>
<feOffset dy="4"/>
<feGaussianBlur stdDeviation="2"/>
<feColorMatrix type="matrix" values="0 0 0 0 0 0 0 0 0 0 0 0 0 0 0 0 0 0 0.25 0"/>
<feBlend mode="normal" in2="BackgroundImageFix" result="effect1_dropShadow"/>
<feBlend mode="normal" in="SourceGraphic" in2="effect1_dropShadow" result="shape"/>
</filter>
<filter id="filter1_d" x="0.956299" y="28.9972" width="57.0152" height="57.0152" filterUnits="userSpaceOnUse" color-interpolation-filters="sRGB">
<feFlood flood-opacity="0" result="BackgroundImageFix"/>
<feColorMatrix in="SourceAlpha" type="matrix" values="0 0 0 0 0 0 0 0 0 0 0 0 0 0 0 0 0 0 127 0"/>
<feMorphology radius="6" operator="dilate" in="SourceAlpha" result="effect1_dropShadow"/>
<feOffset dy="4"/>
<feGaussianBlur stdDeviation="5"/>
<feColorMatrix type="matrix" values="0 0 0 0 0 0 0 0 0 0 0 0 0 0 0 0 0 0 0.13 0"/>
<feBlend mode="normal" in2="BackgroundImageFix" result="effect1_dropShadow"/>
<feBlend mode="normal" in="SourceGraphic" in2="effect1_dropShadow" result="shape"/>
</filter>
</defs>
</svg>
