<svg width="68" height="68" viewBox="0 0 68 68" fill="none" xmlns="http://www.w3.org/2000/svg">
<rect x="0.5" y="0.5" width="67" height="67" rx="33.5" fill="#F3F6FF" stroke="#DCE0EC"/>
<path d="M41.2083 20.625H22.7083C20.9971 20.625 19.625 22.0125 19.625 23.7083V45.2917C19.625 46.9875 20.9971 48.375 22.7083 48.375H44.2917C45.9875 48.375 47.375 46.9875 47.375 45.2917V26.7917L41.2083 20.625ZM33.5 45.2917C30.9408 45.2917 28.875 43.2258 28.875 40.6667C28.875 38.1075 30.9408 36.0417 33.5 36.0417C36.0592 36.0417 38.125 38.1075 38.125 40.6667C38.125 43.2258 36.0592 45.2917 33.5 45.2917ZM38.125 29.875H22.7083V23.7083H38.125V29.875Z" fill="black" fill-opacity="0.37"/>
</svg>
