<svg width="434" height="266" viewBox="0 0 434 266" fill="none" xmlns="http://www.w3.org/2000/svg">
<path d="M334.321 203.256H164.634C158.48 203.256 153.486 198.258 153.486 192.1V91.4533C153.486 85.295 158.48 80.2969 164.634 80.2969H334.351C340.505 80.2969 345.499 85.295 345.499 91.4533V192.1C345.499 198.258 340.505 203.256 334.321 203.256Z" fill="white"/>
<path d="M336.551 204.327H162.404C156.904 204.327 152.416 199.835 152.416 194.331V89.2223C152.416 83.7184 156.904 79.2261 162.404 79.2261H336.581C342.081 79.2261 346.57 83.7184 346.57 89.2223V194.331C346.57 199.865 342.081 204.327 336.551 204.327ZM162.404 81.3681C158.064 81.3681 154.556 84.9084 154.556 89.2223V194.331C154.556 198.675 158.094 202.185 162.404 202.185H336.581C340.921 202.185 344.429 198.645 344.429 194.331V89.2223C344.429 84.8787 340.891 81.3681 336.581 81.3681H162.404Z" fill="#E3ECF5"/>
<path d="M232.77 116.444C236.962 111.952 242.729 109.72 250.072 109.72C256.85 109.72 262.29 111.624 266.363 115.462C270.436 119.3 272.487 124.179 272.487 130.159C272.487 133.759 271.744 136.704 270.258 138.935C268.771 141.196 265.739 144.499 261.161 148.842C257.831 151.996 255.661 154.703 254.65 156.875C253.64 159.076 253.134 162.319 253.134 166.603H244.067C244.067 161.724 244.632 157.797 245.791 154.822C246.951 151.847 249.537 148.426 253.521 144.588L257.683 140.542C258.931 139.382 259.942 138.162 260.715 136.912C262.142 134.711 262.826 132.39 262.826 130.01C262.826 126.678 261.815 123.792 259.764 121.323C257.742 118.883 254.383 117.634 249.686 117.634C243.889 117.634 239.875 119.746 237.646 123.971C236.397 126.321 235.684 129.713 235.505 134.145H226.409C226.468 126.827 228.549 120.906 232.77 116.444ZM243.859 175.112H254.026V185.733H243.859V175.112Z" fill="#FDE36F"/>
<path d="M328.317 96.8979H142.219C141.624 96.8979 141.149 96.4219 141.149 95.8269C141.149 95.2319 141.624 94.7559 142.219 94.7559H328.287C328.881 94.7559 329.357 95.2319 329.357 95.8269C329.387 96.4219 328.911 96.8979 328.317 96.8979Z" fill="#E3ECF5"/>
<path d="M165.771 88.8714C165.963 87.6874 165.159 86.5718 163.976 86.3797C162.793 86.1875 161.679 86.9916 161.487 88.1755C161.295 89.3595 162.098 90.4751 163.281 90.6673C164.464 90.8594 165.579 90.0554 165.771 88.8714Z" fill="#E3ECF5"/>
<path d="M174.46 89.0481C174.736 87.8808 174.014 86.7111 172.847 86.4355C171.681 86.1598 170.512 86.8827 170.236 88.05C169.961 89.2173 170.683 90.387 171.85 90.6627C173.016 90.9383 174.185 90.2154 174.46 89.0481Z" fill="#E3ECF5"/>
<path d="M183.217 88.866C183.409 87.6821 182.606 86.5665 181.422 86.3743C180.239 86.1822 179.125 86.9862 178.933 88.1702C178.741 89.3542 179.544 90.4697 180.727 90.6619C181.91 90.854 183.025 90.05 183.217 88.866Z" fill="#E3ECF5"/>
<path d="M101.521 184.87C97.2701 184.751 92.6325 183.234 92.7217 176.391C92.8109 169.549 97.8052 168.478 98.3106 163.331C98.816 158.214 98.8457 153.424 101.521 153.364C104.197 153.305 102.502 155.507 103.751 157.887C104.999 160.267 107.407 163.301 106.932 167.764C106.456 172.197 109.637 173.922 109.459 177.552C109.31 181.181 107.051 185.049 101.521 184.87Z" fill="#D1C7FF"/>
<path d="M103.097 167.377C103.008 167.317 102.918 167.317 102.829 167.377C102.77 167.436 102.77 167.555 102.829 167.644C102.829 167.644 103.929 168.775 103.84 172.553C103.751 175.826 102.056 180.913 101.521 182.43C101.016 181.24 100.362 179.931 99.8268 178.801C99.47 178.057 99.143 177.403 98.9646 176.986C98.3404 175.499 99.2917 172.375 99.2917 172.345C99.3214 172.256 99.2619 172.137 99.1727 172.107C99.0836 172.077 98.9646 172.137 98.9349 172.226C98.9052 172.345 97.9242 175.528 98.6079 177.135C98.7863 177.551 99.1133 178.206 99.47 178.95C100.481 180.973 101.967 184.037 101.967 185.197C101.937 186.834 101.729 189.214 101.729 189.243C101.729 189.333 101.789 189.422 101.908 189.452C101.908 189.452 101.908 189.452 101.937 189.452C102.027 189.452 102.116 189.392 102.116 189.273C102.116 189.243 102.324 186.863 102.354 185.227C102.354 184.691 102.116 183.858 101.729 182.936C101.967 182.252 104.108 176.272 104.227 172.553C104.345 168.567 103.156 167.406 103.097 167.377Z" fill="#6AC1FF"/>
<path d="M417.917 167.169C414.29 167.05 410.336 165.771 410.426 159.939C410.515 154.108 414.766 153.186 415.182 148.813C415.628 144.439 415.628 140.364 417.917 140.334C420.206 140.304 418.749 142.149 419.82 144.201C420.89 146.254 422.941 148.813 422.555 152.621C422.168 156.399 424.844 157.857 424.695 160.951C424.546 164.015 422.614 167.318 417.917 167.169Z" fill="#D1C7FF"/>
<path d="M419.255 152.234C419.196 152.175 419.106 152.175 419.017 152.234C418.958 152.294 418.958 152.383 419.017 152.472C419.017 152.472 419.968 153.424 419.879 156.667C419.79 159.463 418.363 163.777 417.887 165.086C417.471 164.075 416.906 162.944 416.431 161.992C416.104 161.368 415.836 160.802 415.688 160.445C415.153 159.166 415.955 156.518 415.985 156.488C416.015 156.399 415.955 156.31 415.866 156.28C415.777 156.25 415.688 156.31 415.658 156.399C415.628 156.518 414.796 159.196 415.39 160.594C415.539 160.951 415.807 161.516 416.134 162.141C416.996 163.867 418.274 166.455 418.244 167.466C418.215 168.865 418.036 170.888 418.036 170.917C418.036 171.007 418.096 171.096 418.185 171.096C418.274 171.096 418.333 171.036 418.333 170.947C418.333 170.917 418.512 168.894 418.542 167.496C418.542 167.05 418.333 166.336 418.006 165.533C418.215 164.967 420.028 159.85 420.147 156.667C420.296 153.275 419.285 152.294 419.255 152.234Z" fill="#6AC1FF"/>
<path d="M133.895 156.399C131.398 156.31 128.693 155.447 128.752 151.431C128.812 147.414 131.725 146.79 132.022 143.785C132.32 140.78 132.32 137.983 133.895 137.954C135.471 137.924 134.46 139.203 135.203 140.601C135.946 142 137.344 143.785 137.076 146.373C136.808 148.991 138.652 149.973 138.562 152.115C138.473 154.227 137.135 156.488 133.895 156.399Z" fill="#D1C7FF"/>
<path d="M134.817 146.135C134.787 146.105 134.698 146.105 134.668 146.135C134.638 146.165 134.638 146.254 134.668 146.284C134.668 146.284 135.322 146.938 135.263 149.17C135.203 151.103 134.222 154.079 133.895 154.971C133.598 154.257 133.211 153.513 132.884 152.859C132.676 152.412 132.468 152.026 132.379 151.788C132.022 150.925 132.587 149.08 132.587 149.051C132.617 148.991 132.587 148.932 132.528 148.902C132.468 148.872 132.409 148.902 132.379 148.961C132.349 149.051 131.784 150.895 132.201 151.847C132.319 152.085 132.498 152.472 132.706 152.918C133.3 154.108 134.192 155.893 134.163 156.578C134.133 157.53 134.014 158.928 134.014 158.958C134.014 159.017 134.044 159.077 134.103 159.077C134.163 159.077 134.192 159.047 134.222 158.987C134.222 158.987 134.341 157.589 134.371 156.607C134.371 156.31 134.222 155.804 134.014 155.269C134.163 154.882 135.411 151.371 135.471 149.17C135.56 146.819 134.846 146.165 134.817 146.135Z" fill="#6AC1FF"/>
<path d="M378.914 196.801C374.544 196.682 369.787 195.135 369.906 188.113C369.995 181.092 375.109 179.991 375.614 174.726C376.119 169.46 376.149 164.581 378.914 164.521C381.649 164.462 379.925 166.723 381.203 169.162C382.481 171.602 384.949 174.726 384.473 179.277C383.997 183.829 387.238 185.585 387.059 189.303C386.881 193.022 384.562 196.979 378.914 196.801Z" fill="#D1C7FF"/>
<path d="M380.519 178.861C380.43 178.802 380.311 178.802 380.252 178.861C380.192 178.95 380.192 179.069 380.252 179.129C380.252 179.129 381.381 180.289 381.262 184.157C381.173 187.518 379.419 192.725 378.884 194.272C378.379 193.052 377.695 191.684 377.13 190.553C376.744 189.779 376.417 189.125 376.238 188.708C375.584 187.191 376.565 183.978 376.595 183.948C376.625 183.859 376.565 183.74 376.476 183.71C376.387 183.681 376.268 183.74 376.238 183.829C376.209 183.978 375.198 187.221 375.911 188.857C376.09 189.274 376.417 189.958 376.803 190.731C377.814 192.814 379.39 195.938 379.36 197.158C379.33 198.853 379.122 201.263 379.122 201.293C379.122 201.412 379.181 201.501 379.3 201.501C379.3 201.501 379.3 201.501 379.33 201.501C379.419 201.501 379.508 201.412 379.508 201.323C379.508 201.293 379.717 198.853 379.746 197.158C379.746 196.622 379.508 195.759 379.122 194.807C379.36 194.123 381.56 187.994 381.679 184.157C381.797 180.081 380.579 178.921 380.519 178.861Z" fill="#6AC1FF"/>
<path d="M141.089 202.572C138.592 203.227 129.198 202.84 130.982 198.199C132.974 193.022 138.325 197.544 140.614 200.4C139.752 195.819 139.633 191.178 139.633 188.679C137.938 186.656 134.371 173.714 141.416 174.369C150.632 175.202 142.457 187.429 140.346 188.828C140.346 191.803 140.554 197.723 141.892 202.84C142.189 199.597 145.43 190.315 149.74 193.588C155.983 198.318 144.032 204.03 142.219 203.941C142.784 205.815 143.527 207.541 144.478 208.909C145.162 209.891 145.935 211.051 146.738 212.301C146.738 212.33 146.767 212.33 146.767 212.36C147.184 208.939 150.364 200.133 154.586 203.316C160.413 207.749 150.394 213.015 147.54 213.61C149.294 216.466 151.108 219.738 152.505 222.892C152.713 219.798 158.777 213.461 161.185 217.091C162.523 219.114 155.418 225.688 153.07 224.201C154.407 227.474 155.21 230.538 154.943 232.769C154.853 233.602 154.675 234.554 154.526 235.625C156.191 233.781 162.196 227.622 163.98 232.382C165.466 236.339 160.502 238.63 158.421 238.63C156.786 238.63 155.061 237.083 154.378 236.428C154.289 236.994 154.17 237.589 154.08 238.184C153.248 243.063 152.237 248.924 152.535 252.434C153.962 249.667 160.294 238.213 163.98 245.592C165.882 249.37 160.502 252.553 158.421 253.238C156.726 253.803 153.664 253.297 152.624 253.089C152.683 253.476 152.743 253.862 152.862 254.16C154.229 258.236 156.964 262.371 156.994 262.401C157.113 262.549 157.053 262.787 156.905 262.877C156.845 262.906 156.786 262.936 156.726 262.936C156.607 262.936 156.518 262.877 156.429 262.787C156.399 262.758 154.378 259.664 152.921 256.183C151.286 255.975 145.013 255.112 143.2 253.922C141.119 252.524 137.403 247.972 140.435 246.276C145.132 243.658 150.067 250.59 152.208 254.219C151.405 251.512 152.118 246.127 152.951 241.07C151.256 241.575 145.816 240.594 143.913 239.314C141.832 237.916 138.235 234.316 140.435 232.353C145.965 227.444 151.791 237.856 153.07 240.326C153.189 239.552 153.337 238.749 153.456 238.005C153.813 235.982 154.14 234.078 154.318 232.65C154.586 230.568 153.813 227.593 152.445 224.26C151.345 224.617 147.629 225.629 143.557 225.064C138.711 224.379 136.244 220.571 137.998 218.816C141 215.811 149.919 222.059 152.208 223.755C150.81 220.482 148.848 216.853 146.678 213.431C143.854 214.086 132.557 213.848 134.103 209.355C135.619 204.863 141.416 207.898 144.805 210.516C144.538 210.099 144.24 209.683 143.973 209.296C142.635 207.481 141.743 205.101 141.089 202.572Z" fill="url(#paint0_linear)"/>
<path d="M161.215 245.591C167.042 243.271 168.469 252.196 168.766 255.112C170.044 250.857 170.609 245.651 170.015 241.426C169.123 241.396 165.704 241.248 163.296 240.028C160.531 238.63 158.807 233.066 161.215 232.382C165.258 231.222 168.826 238.243 169.896 240.623C169.807 240.087 169.688 239.552 169.539 239.076C168.647 235.833 168.023 231.638 167.726 227.503C166.626 227.473 163.564 227.384 161.869 226.819C159.788 226.134 156.251 220.69 159.105 219.857C162.999 218.727 166.447 224.349 167.666 226.581C167.428 222.297 167.607 218.161 168.35 215.335C168.023 214.085 167.428 211.467 167.428 209.415C167.428 206.648 170.639 201.174 173.671 203.851C179.201 208.76 170.907 214.502 168.945 215.781C168.261 218.548 168.112 222.564 168.38 226.7C169.628 223.576 174.623 212.33 180.628 217.745C182.946 219.827 177.863 224.706 174.385 226.075C171.62 227.176 169.272 227.414 168.409 227.473C168.677 231.519 169.331 235.655 170.193 238.838C170.342 239.433 170.49 240.028 170.58 240.682C171.888 238.035 178.012 226.729 184.79 231.638C187.584 233.691 182.025 238.6 179.23 239.968C176.852 241.158 172.007 241.218 170.669 241.218C171.234 245.443 170.728 250.589 169.48 254.903C171.531 251.809 177.476 243.896 182.025 248.983C184.7 252.017 177.744 254.576 175.782 255.231C174.028 255.826 170.312 255.974 169.153 256.034C168.172 259.009 166.834 261.508 165.258 262.787C165.199 262.847 165.11 262.876 165.05 262.876C164.961 262.876 164.842 262.847 164.783 262.757C164.664 262.609 164.693 262.4 164.812 262.281C166.299 261.032 167.577 258.682 168.528 255.826C167.637 255.439 164.991 254.308 163.296 253.178C161.215 251.839 157.975 246.871 161.215 245.591Z" fill="#F2BE3C"/>
<path d="M146.292 262.966H177.893C178.071 262.966 178.249 262.817 178.249 262.609C178.249 262.43 178.101 262.252 177.893 262.252H146.292C146.113 262.252 145.935 262.401 145.935 262.609C145.935 262.787 146.083 262.966 146.292 262.966Z" fill="#14336A"/>
<path d="M135.173 262.966H142.457C142.635 262.966 142.813 262.817 142.813 262.609C142.813 262.43 142.665 262.252 142.457 262.252H135.173C134.995 262.252 134.817 262.401 134.817 262.609C134.817 262.787 134.995 262.966 135.173 262.966Z" fill="#14336A"/>
<path d="M323.322 260.229H328.881V230.597V227.89V206.767H331.587V227.89H335.808V206.767H338.513V227.89V230.597H335.808H331.587V260.229H337.146C337.889 260.229 338.513 260.824 338.513 261.597C338.513 262.341 337.919 262.966 337.146 262.966H331.587H328.881H323.322C322.579 262.966 321.955 262.371 321.955 261.597C321.955 260.854 322.579 260.229 323.322 260.229Z" fill="#45A184"/>
<path d="M333.37 195.194C345.202 195.194 354.775 197.425 354.775 200.162V202.87C354.775 205.607 345.202 207.838 333.37 207.838C321.539 207.838 311.966 205.607 311.966 202.87V200.162C311.966 197.425 321.539 195.194 333.37 195.194Z" fill="url(#paint1_linear)"/>
<path opacity="0.1" d="M305.465 129.93C309.511 123.258 307.388 114.567 300.721 110.517C294.055 106.468 285.37 108.593 281.324 115.264C277.277 121.936 279.4 130.627 286.067 134.677C292.733 138.726 301.418 136.601 305.465 129.93Z" fill="white"/>
<path opacity="0.17" d="M302.275 118.289C301.77 118.289 301.294 117.961 301.145 117.456C300.64 115.849 299.54 114.54 298.054 113.767C296.567 112.993 294.873 112.844 293.267 113.32C292.643 113.529 291.959 113.171 291.781 112.547C291.573 111.922 291.93 111.238 292.554 111.059C294.754 110.375 297.132 110.583 299.183 111.654C301.235 112.725 302.751 114.54 303.434 116.771C303.642 117.396 303.286 118.08 302.661 118.259C302.513 118.259 302.394 118.289 302.275 118.289Z" fill="#50C6A1"/>
<path d="M288.362 106.477C279.473 109.274 274.509 118.735 277.274 127.66C280.068 136.555 289.522 141.524 298.44 138.757C307.329 135.96 312.293 126.5 309.528 117.574C306.734 108.649 297.281 103.681 288.362 106.477ZM297.608 136.079C290.176 138.4 282.268 134.265 279.949 126.827C277.63 119.389 281.763 111.476 289.195 109.155C296.627 106.834 304.534 110.97 306.853 118.407C309.201 125.845 305.04 133.759 297.608 136.079Z" fill="#D0DAED"/>
<path d="M299.682 137.778L296.873 138.657L300.862 151.435L303.671 150.557L299.682 137.778Z" fill="#D0DAED"/>
<path d="M309.439 173.952C307.656 174.517 305.753 173.506 305.188 171.721L299.064 152.056C298.767 151.104 299.302 150.092 300.253 149.795L303.286 148.842C304.237 148.545 305.248 149.08 305.545 150.033L311.669 169.698C312.204 171.483 311.223 173.387 309.439 173.952Z" fill="url(#paint2_linear)"/>
<path d="M310.599 165.325C310.599 165.325 304.267 161.427 302.364 159.404C300.461 157.381 299.659 156.459 300.134 156.043C300.61 155.626 305.961 157.976 306.466 157.56C306.972 157.173 306.526 156.191 307.121 155.745C307.685 155.299 311.134 158.839 311.966 158.571C312.799 158.304 311.55 164.7 310.599 165.325Z" fill="#FFAA9D"/>
<path d="M285.419 237.975L280.781 242.438L269.039 231.579L272.903 225.272L285.419 237.975Z" fill="#FFAA9D"/>
<path d="M281.435 241.783C281.435 241.783 278.195 245.83 277.601 245.83C277.006 245.83 263.42 231.163 263.509 230.687C263.599 230.211 269.515 230.716 269.515 230.716L281.435 241.783Z" fill="url(#paint3_linear)"/>
<path d="M272.16 224.617C272.16 224.617 285.746 238.808 286.251 238.808C286.786 238.808 351.564 189.036 351.564 189.036L324.095 176.838C324.125 176.868 289.254 186.447 272.16 224.617Z" fill="url(#paint4_linear)"/>
<path d="M333.668 228.901L335.957 234.911L321.36 241.426L317.109 235.417L333.668 228.901Z" fill="#FFAA9D"/>
<path d="M321.984 176.868C321.984 176.868 299.064 181.658 297.072 189.422C295.081 197.187 296.894 205.696 303.196 215.633C309.499 225.569 315.95 236.369 317.258 236.726C317.258 236.726 334.232 229.913 334.619 229.08C335.005 228.217 325.106 204.833 325.106 204.833C325.106 204.833 345.262 203.494 349.959 191.594L321.984 176.868Z" fill="url(#paint5_linear)"/>
<path d="M320.379 176.778C320.171 178.117 345.202 193.825 349.661 193.082C354.121 192.338 359.828 174.011 358.253 160.326C356.677 146.641 344.429 136.407 338.84 136.883C333.252 137.359 330.279 142.595 329.506 150.925C328.376 163.152 320.617 175.291 320.379 176.778Z" fill="#8C5CCC"/>
<path d="M341.337 138.995C344.281 138.728 354.448 144.707 356.826 162.29C359.204 179.873 349.483 181.36 341.337 180.23C333.192 179.099 312.65 169.014 309.647 165.414C309.647 165.414 308.993 159.761 311.193 157.738C311.193 157.738 330.992 159.761 336.135 161.308C341.248 162.826 330.13 139.977 341.337 138.995Z" fill="#9D6CDD"/>
<path d="M335.63 234.019C335.63 234.019 338.067 238.6 337.859 239.165C337.621 239.731 318.804 246.425 318.417 246.157C318.031 245.889 320.825 240.653 320.825 240.653L335.63 234.019Z" fill="url(#paint6_linear)"/>
<path d="M324.749 127.571L324.66 133.848L325.611 133.819C325.611 133.819 326.354 139.025 330.041 138.192C331.081 137.954 332.449 137.061 332.835 137.24C333.281 137.448 333.489 138.876 333.608 139.293C333.995 140.869 339.524 139.263 338.632 137.656C337.77 136.139 336.521 134.027 336.789 133.462C337.711 131.439 337.978 126.411 332.924 124.715C328.822 123.376 324.779 125.429 324.749 127.571Z" fill="#FFAA9D"/>
<path d="M338.573 137.656C337.71 136.139 336.462 134.027 336.729 133.461C336.729 133.461 334.589 136.734 332.627 137.24C332.686 137.24 332.746 137.24 332.805 137.27C333.251 137.478 333.459 138.906 333.578 139.322C333.965 140.869 339.464 139.293 338.573 137.656Z" fill="#FF9F91"/>
<path d="M333.251 130.665C335.63 130.248 334.143 135.544 336.759 135.366C339.375 135.187 341.189 129.475 339.256 125.102C337.354 120.699 333.697 120.937 330.249 121.561C326.771 122.156 322.52 123.733 322.52 126.351C322.52 132.658 329.981 127.363 330.487 129.267C330.873 130.724 331.468 134.979 329.922 135.068C328.406 135.157 326.86 133.908 325.641 134.235C324.957 134.414 323.055 142.714 328.019 142.982C332.954 143.249 334.173 138.906 333.162 135.366C332.181 131.944 332.092 130.843 333.251 130.665Z" fill="#14336A"/>
<defs>
<linearGradient id="paint0_linear" x1="146.352" y1="211.137" x2="154.279" y2="254.861" gradientUnits="userSpaceOnUse">
<stop stop-color="#D1C7FF"/>
<stop offset="0.9649" stop-color="#D5DBFE"/>
</linearGradient>
<linearGradient id="paint1_linear" x1="332.925" y1="196.695" x2="334.262" y2="211.394" gradientUnits="userSpaceOnUse">
<stop stop-color="#58CFAA"/>
<stop offset="0.9727" stop-color="#45A184"/>
</linearGradient>
<linearGradient id="paint2_linear" x1="301.245" y1="147.738" x2="307.502" y2="167.749" gradientUnits="userSpaceOnUse">
<stop stop-color="#58CFAA"/>
<stop offset="0.9727" stop-color="#45A184"/>
</linearGradient>
<linearGradient id="paint3_linear" x1="273.778" y1="234.637" x2="270.863" y2="238.27" gradientUnits="userSpaceOnUse">
<stop stop-color="#14336D"/>
<stop offset="0.9662" stop-color="#0E2253"/>
</linearGradient>
<linearGradient id="paint4_linear" x1="286.438" y1="221.038" x2="306.792" y2="204.654" gradientUnits="userSpaceOnUse">
<stop stop-color="#14336D"/>
<stop offset="0.9662" stop-color="#0E2253"/>
</linearGradient>
<linearGradient id="paint5_linear" x1="315.587" y1="205.322" x2="351.291" y2="218.262" gradientUnits="userSpaceOnUse">
<stop stop-color="#14336D"/>
<stop offset="0.9662" stop-color="#0E2253"/>
</linearGradient>
<linearGradient id="paint6_linear" x1="326.038" y1="238.274" x2="328.233" y2="242.382" gradientUnits="userSpaceOnUse">
<stop stop-color="#14336D"/>
<stop offset="0.9662" stop-color="#0E2253"/>
</linearGradient>
</defs>
</svg>
