<svg width="34" height="34" viewBox="0 0 34 34" fill="none" xmlns="http://www.w3.org/2000/svg">
<path d="M13.8125 14.875L12.2188 16.4688L17 21.25L21.7812 16.4688L20.1875 14.875L18.0625 17V12.5688C19.3003 12.1311 20.1875 10.9507 20.1875 9.5625C20.1875 7.80194 18.7606 6.375 17 6.375C15.2394 6.375 13.8125 7.80194 13.8125 9.5625C13.8125 10.9501 14.6997 12.1311 15.9375 12.5688V17L13.8125 14.875Z" fill="white"/>
<path d="M27.2246 23.9062H6.78951L5.99316 27.0938H28.0098L27.2246 23.9062Z" fill="white"/>
<path d="M27.094 15.4062H22.2214L23.2839 16.4688L17.0002 22.7524L10.7166 16.4688L11.7791 15.4062H6.90541L6.8916 22.8438H27.094V15.4062Z" fill="white"/>
<path d="M10.6213 12.1922C10.9193 12.9083 10.8864 13.6834 10.5512 14.3438H12.8414L13.574 13.6112C12.4233 12.6368 11.6875 11.1881 11.6875 9.5625C11.6875 6.62841 14.0659 4.25 17 4.25C19.9341 4.25 22.3125 6.62841 22.3125 9.5625C22.3125 11.1881 21.5767 12.6368 20.426 13.6112L21.1586 14.3438H23.4488C23.1136 13.6834 23.0796 12.9115 23.3713 12.2108C23.6704 11.4851 24.2516 10.956 24.9688 10.7313V8.39375C24.2521 8.16956 23.6714 7.64256 23.3787 6.93281C23.077 6.20713 23.1131 5.41981 23.4611 4.75416L21.8083 3.10144C21.1422 3.44834 20.3575 3.48712 19.6488 3.19122C18.9226 2.89213 18.3935 2.31094 18.1688 1.59375H15.8312C15.6071 2.31041 15.0801 2.89106 14.3703 3.18378C13.6441 3.48553 12.8578 3.44941 12.1911 3.10144L10.5389 4.75416C10.8869 5.41981 10.9246 6.20394 10.6287 6.91369C10.3296 7.63991 9.74844 8.16903 9.03125 8.39375V10.7313C9.74791 10.9554 10.3286 11.4824 10.6213 12.1922Z" fill="white"/>
<path d="M5.84375 30.8125C5.84375 31.6912 6.55881 32.4062 7.4375 32.4062H26.5625C27.4412 32.4062 28.1562 31.6912 28.1562 30.8125V28.1562H5.84375V30.8125Z" fill="white"/>
<path d="M5.84375 15.7346L1.59375 17.8596V25.1717L5.84375 23.0467V15.7346Z" fill="white"/>
<path d="M28.1562 15.7346V23.0467L32.4062 25.1717V17.8596L28.1562 15.7346Z" fill="white"/>
</svg>
