<svg xmlns="http://www.w3.org/2000/svg" width="1810.274" height="933.465" viewBox="0 0 1810.274 933.465">
  <g id="Group_1494" data-name="Group 1494" transform="translate(-49 -152.62)">
    <circle id="Ellipse_555" data-name="Ellipse 555" cx="24.5" cy="24.5" r="24.5" transform="translate(1424.066 848.361)" fill="#502eff" opacity="0.32"/>
    <circle id="Ellipse_565" data-name="Ellipse 565" cx="10" cy="10" r="10" transform="translate(1066.346 1066.085)" fill="#502eff" opacity="0.755"/>
    <circle id="Ellipse_564" data-name="Ellipse 564" cx="10" cy="10" r="10" transform="translate(1839.274 676.67)" fill="#502eff" opacity="0.596"/>
    <circle id="Ellipse_563" data-name="Ellipse 563" cx="10" cy="10" r="10" transform="translate(410.529 385.997)" fill="#502eff" opacity="0.978"/>
    <circle id="Ellipse_562" data-name="Ellipse 562" cx="10" cy="10" r="10" transform="translate(506.021 770.677)" fill="#502eff" opacity="0.732"/>
    <circle id="Ellipse_561" data-name="Ellipse 561" cx="10" cy="10" r="10" transform="translate(1184.397 210.965)" fill="#502eff" opacity="0.574"/>
    <circle id="Ellipse_560" data-name="Ellipse 560" cx="10" cy="10" r="10" transform="translate(1838.799 224.546)" fill="#502eff" opacity="0.819"/>
    <circle id="Ellipse_559" data-name="Ellipse 559" cx="13.5" cy="13.5" r="13.5" transform="translate(129.481 1006.905)" fill="#502eff" opacity="0.543"/>
    <circle id="Ellipse_558" data-name="Ellipse 558" cx="10" cy="10" r="10" transform="translate(102.121 539.605)" fill="#502eff" opacity="0.959"/>
    <circle id="Ellipse_557" data-name="Ellipse 557" cx="13.5" cy="13.5" r="13.5" transform="translate(505.592 152.62)" fill="#502eff" opacity="0.36"/>
    <circle id="Ellipse_556" data-name="Ellipse 556" cx="24.5" cy="24.5" r="24.5" transform="translate(1526.066 491.361)" fill="#502eff" opacity="0.32"/>
    <circle id="Ellipse_553" data-name="Ellipse 553" cx="39.5" cy="39.5" r="39.5" transform="translate(49 818)" fill="#502eff" opacity="0.32"/>
  </g>
</svg>
