<svg xmlns="http://www.w3.org/2000/svg" xmlns:xlink="http://www.w3.org/1999/xlink" width="42.614" height="49.229" viewBox="0 0 42.614 49.229"><defs><style>.a{fill:url(#a);}</style><linearGradient id="a" x1="-0.353" y1="-0.622" x2="0.5" y2="1" gradientUnits="objectBoundingBox"><stop offset="0" stop-color="#d1c7ff"/><stop offset="1" stop-color="#502eff"/></linearGradient></defs><g transform="translate(-3 -3)"><g transform="translate(3 3)"><path class="a" d="M44.991,9.384h-6V8.307a.831.831,0,0,0-.231-.538L32.3,1.308A.8.8,0,0,0,31.684,1H16.53A2.231,2.231,0,0,0,14.3,3.231V9.307H8.223A2.923,2.923,0,0,0,5.3,12.23V41.153a2.923,2.923,0,0,0,2.923,2.923H20.761l-1.385,4.615h-.538a.769.769,0,0,0,0,1.538H34.376a.769.769,0,0,0,0-1.538h-.538l-1.385-4.461H44.991a2.923,2.923,0,0,0,2.923-2.923v-29A2.923,2.923,0,0,0,44.991,9.384ZM32.453,3.615,36.3,7.461H33.145a.692.692,0,0,1-.692-.692ZM15.761,3.231a.692.692,0,0,1,.692-.692H30.915V6.769A2.231,2.231,0,0,0,33.145,9h4.231V30.384a.692.692,0,0,1-.692.692H16.53a.692.692,0,0,1-.692-.692V3.231Zm5.231,45.46,1.385-4.461h8.461l1.385,4.461Zm25.384-7.461a1.379,1.379,0,0,1-1.385,1.385H8.223a1.379,1.379,0,0,1-1.385-1.385V39.768H46.376v1.461Zm0-2.923H6.838v-26a1.379,1.379,0,0,1,1.385-1.385h6V30.384a2.231,2.231,0,0,0,2.231,2.231H36.607a2.231,2.231,0,0,0,2.231-2.231V10.923h6a1.379,1.379,0,0,1,1.385,1.385v26Z" transform="translate(-5.3 -1)"/><path class="a" d="M30.406,16.19A6.367,6.367,0,0,0,26.1,26.42a9.451,9.451,0,0,1,1.692,5.308.827.827,0,0,0,.769.769h5a.769.769,0,0,0,.769-.769A10.434,10.434,0,0,1,36.1,26.343h0A6.335,6.335,0,0,0,30.406,16.19ZM34.945,25.5a11.74,11.74,0,0,0-2.077,5.538h-1V25.651l1.615-1.615-1.077-1.077L31.1,24.189l-1.308-1.308-1.077,1.077,1.615,1.615v5.384h-1a10.727,10.727,0,0,0-2-5.461,4.808,4.808,0,0,1,3.231-7.769A4.877,4.877,0,0,1,34.945,25.5Z" transform="translate(-9.792 -4.498)"/><path class="a" d="M22.569,7.338H31.8a.727.727,0,0,0,.769-.769A.727.727,0,0,0,31.8,5.8h-9.23a.727.727,0,0,0-.769.769.727.727,0,0,0,.769.769Z" transform="translate(-9.108 -2.107)"/><path class="a" d="M22.569,11.638H31.8a.77.77,0,1,0,0-1.538h-9.23a.77.77,0,1,0,0,1.538Z" transform="translate(-9.108 -3.1)"/></g></g></svg>