<svg xmlns="http://www.w3.org/2000/svg" xmlns:xlink="http://www.w3.org/1999/xlink" width="33.945" height="48.639" viewBox="0 0 33.945 48.639"><defs><style>.a{fill:url(#a);}</style><linearGradient id="a" x1="-0.196" y1="-1.447" x2="0.5" y2="1" gradientUnits="objectBoundingBox"><stop offset="0" stop-color="#d1c7ff"/><stop offset="1" stop-color="#502eff"/></linearGradient></defs><path class="a" d="M16.664,12.214a2.2,2.2,0,0,0-2.02,3.091l-5.9,6.156a2.152,2.152,0,0,0-1.03-.289,2.208,2.208,0,1,0,2.209,2.207,2.141,2.141,0,0,0-.131-.652L15.8,16.45a2.182,2.182,0,0,0,.857.178,2.207,2.207,0,0,0,.832-.168l3.337,3.357a2.187,2.187,0,0,0-.147.78,2.209,2.209,0,1,0,4.22-.9l3.947-4.062a2.149,2.149,0,0,0,1.05.3,2.208,2.208,0,1,0-2.209-2.209,2.169,2.169,0,0,0,.125.618l-4.08,4.206a2.2,2.2,0,0,0-.84-.17,2.17,2.17,0,0,0-.953.228l-3.278-3.3a2.17,2.17,0,0,0,.2-.9,2.207,2.207,0,0,0-2.208-2.208ZM7.709,23.946a.568.568,0,1,1,.4-.166.568.568,0,0,1-.4.166Zm8.553-9.12a.558.558,0,0,1-.168-.4.568.568,0,1,1,1.134,0,.586.586,0,0,1-.966.4ZM29.9,13.17a.565.565,0,1,1-.4.165.565.565,0,0,1,.4-.165ZM23.467,20.6c0,.629-1.141.629-1.141,0a.571.571,0,1,1,1.141,0Z" transform="translate(-1.836 11.83)"/><path class="a" d="M5.315,48.76H36.051a1.606,1.606,0,0,0,1.6-1.607V8.313a1.606,1.606,0,0,0-1.606-1.606h-5.11a3.049,3.049,0,0,0-3.054-2.2h-.9A6.853,6.853,0,0,0,20.742.121,6.726,6.726,0,0,0,14.387,4.48l-.879.035a3.039,3.039,0,0,0-3.091,2.228h-5.1a1.606,1.606,0,0,0-1.6,1.6V47.16A1.606,1.606,0,0,0,5.315,48.76ZM13.544,6.15l1.476-.058a.818.818,0,0,0,.756-.6,5.1,5.1,0,0,1,4.946-3.737A5.171,5.171,0,0,1,25.6,5.536c.1.371.44.721.817.61h.5l.962.006A1.428,1.428,0,0,1,29.437,7.58a.742.742,0,0,0,.043.164V9.939H11.928V7.606A1.443,1.443,0,0,1,13.54,6.15ZM10.288,8.38v2.379a.824.824,0,0,0,.816.819h19.19a.824.824,0,0,0,.816-.819V8.341l4.9-.029v38.81l-30.665.035L5.315,8.38Z" transform="translate(-3.71 -0.121)"/><path class="a" d="M6.137,9.276H17.648a.819.819,0,0,0,0-1.637H6.137a.819.819,0,0,0,0,1.637Z" transform="translate(-2.028 7.753)"/><path class="a" d="M6.135,11.191h9.552a.819.819,0,1,0,0-1.637H6.135a.819.819,0,1,0,0,1.637Z" transform="translate(-2.026 9.757)"/><path class="a" d="M25.219,21.666H12.688a.819.819,0,0,0,0,1.637H25.219a.819.819,0,1,0,0-1.637Z" transform="translate(4.831 22.443)"/><path class="a" d="M18.308,20.29a.819.819,0,0,0,0,1.637h1.026a.819.819,0,0,0,0-1.637Z" transform="translate(10.718 21.002)"/><path class="a" d="M16.624,21.928a.819.819,0,1,0,0-1.637H15.46a.819.819,0,1,0,0,1.637Z" transform="translate(7.74 21.002)"/><path class="a" d="M12.687,21.927h1.026a.819.819,0,0,0,0-1.637H12.687a.819.819,0,0,0,0,1.637Z" transform="translate(4.831 21.002)"/></svg>