<svg width="66" height="79" viewBox="0 0 66 79" fill="none" xmlns="http://www.w3.org/2000/svg">
<path d="M63.6216 69.6658H2.30547C1.03223 69.6658 0 68.6336 0 67.3604V19.0584C0 17.7852 1.03223 16.7529 2.30547 16.7529H63.6216C64.8949 16.7529 65.9271 17.7852 65.9271 19.0584V67.3604C65.9271 68.6337 64.895 69.6658 63.6216 69.6658Z" fill="white"/>
<path d="M23.7417 69.6658H2.30547C1.03223 69.6658 0 68.6336 0 67.3604V19.0584C0 17.7852 1.03223 16.7529 2.30547 16.7529H23.7417V69.6658Z" fill="#8399FE"/>
<path d="M65.9271 27.4062V19.0584C65.9271 17.7852 64.8949 16.7529 63.6216 16.7529H2.30547C1.03223 16.7529 0 17.7852 0 19.0584V27.4062H65.9271Z" fill="#FF7EB8"/>
<path d="M6.77702 24.1004C7.70235 24.1004 8.45248 23.3503 8.45248 22.425C8.45248 21.4996 7.70235 20.7495 6.77702 20.7495C5.85169 20.7495 5.10156 21.4996 5.10156 22.425C5.10156 23.3503 5.85169 24.1004 6.77702 24.1004Z" fill="#EAAFC8"/>
<path d="M12.1259 24.1002C13.0512 24.1002 13.8014 23.3501 13.8014 22.4247C13.8014 21.4994 13.0512 20.7493 12.1259 20.7493C11.2006 20.7493 10.4504 21.4994 10.4504 22.4247C10.4504 23.3501 11.2006 24.1002 12.1259 24.1002Z" fill="white"/>
<path d="M17.4745 24.1002C18.3999 24.1002 19.15 23.3501 19.15 22.4247C19.15 21.4994 18.3999 20.7493 17.4745 20.7493C16.5492 20.7493 15.7991 21.4994 15.7991 22.4247C15.7991 23.3501 16.5492 24.1002 17.4745 24.1002Z" fill="#FFCC42"/>
<path d="M60.057 24.3071H39.1296V20.5422H60.057C60.4813 20.5422 60.8255 20.8864 60.8255 21.3107V23.5387C60.8255 23.9631 60.4813 24.3071 60.057 24.3071Z" fill="#FFDBED"/>
<path d="M39.2327 20.59C38.4202 19.7776 37.0983 19.7776 36.2858 20.59C35.4734 21.4025 35.4734 22.7244 36.2858 23.5369C36.9063 24.1574 37.8233 24.3023 38.5841 23.9752L39.2524 24.6435C39.5525 24.9435 40.0391 24.9435 40.3392 24.6435C40.6392 24.3435 40.6392 23.8567 40.3392 23.5567L39.6709 22.8884C39.9981 22.1275 39.8532 21.2105 39.2327 20.59ZM37.3726 21.6768C37.5858 21.4637 37.9327 21.4637 38.1459 21.6768C38.3591 21.89 38.3591 22.2369 38.1459 22.4501C37.9327 22.6633 37.5858 22.6633 37.3726 22.4501C37.1595 22.2369 37.1595 21.89 37.3726 21.6768Z" fill="white"/>
<path d="M60.9809 44.6187H28.8303C28.4059 44.6187 28.0618 44.9628 28.0618 45.3871C28.0618 45.8115 28.4059 46.1556 28.8303 46.1556H60.9809C61.4053 46.1556 61.7494 45.8115 61.7494 45.3871C61.7494 44.9628 61.4053 44.6187 60.9809 44.6187Z" fill="#8399FE"/>
<path d="M60.9809 47.7678H28.8303C28.4059 47.7678 28.0618 48.112 28.0618 48.5363C28.0618 48.9607 28.4059 49.3048 28.8303 49.3048H60.9809C61.4053 49.3048 61.7494 48.9607 61.7494 48.5363C61.7494 48.112 61.4053 47.7678 60.9809 47.7678Z" fill="#FFD000"/>
<path d="M60.9809 50.9165H28.8303C28.4059 50.9165 28.0618 51.2606 28.0618 51.685C28.0618 52.1094 28.4059 52.4535 28.8303 52.4535H60.9809C61.4053 52.4535 61.7494 52.1094 61.7494 51.685C61.7494 51.2606 61.4053 50.9165 60.9809 50.9165Z" fill="#8399FE"/>
<path d="M60.9809 56.6235H28.8303C28.4059 56.6235 28.0618 56.9677 28.0618 57.392C28.0618 57.8164 28.4059 58.1605 28.8303 58.1605H60.9809C61.4053 58.1605 61.7494 57.8164 61.7494 57.392C61.7494 56.9677 61.4053 56.6235 60.9809 56.6235Z" fill="#8399FE"/>
<path d="M60.9809 59.7725H28.8303C28.4059 59.7725 28.0618 60.1166 28.0618 60.5409C28.0618 60.9653 28.4059 61.3094 28.8303 61.3094H60.9809C61.4053 61.3094 61.7494 60.9653 61.7494 60.5409C61.7494 60.1166 61.4053 59.7725 60.9809 59.7725Z" fill="#8399FE"/>
<path d="M60.9809 62.9214H28.8303C28.4059 62.9214 28.0618 63.2655 28.0618 63.6899C28.0618 64.1142 28.4059 64.4584 28.8303 64.4584H60.9809C61.4053 64.4584 61.7494 64.1142 61.7494 63.6899C61.7494 63.2655 61.4053 62.9214 60.9809 62.9214Z" fill="#8399FE"/>
<path d="M60.9809 32.6135H28.8303C28.4059 32.6135 28.0618 32.9577 28.0618 33.382C28.0618 33.8064 28.4059 34.1505 28.8303 34.1505H60.9809C61.4053 34.1505 61.7494 33.8064 61.7494 33.382C61.7494 32.9577 61.4053 32.6135 60.9809 32.6135Z" fill="#8399FE"/>
<path d="M60.9809 35.7625H28.8303C28.4059 35.7625 28.0618 36.1066 28.0618 36.5309C28.0618 36.9553 28.4059 37.2994 28.8303 37.2994H60.9809C61.4053 37.2994 61.7494 36.9553 61.7494 36.5309C61.7494 36.1066 61.4053 35.7625 60.9809 35.7625Z" fill="#8399FE"/>
<path d="M60.9809 38.9116H28.8303C28.4059 38.9116 28.0618 39.2558 28.0618 39.6801C28.0618 40.1045 28.4059 40.4486 28.8303 40.4486H60.9809C61.4053 40.4486 61.7494 40.1045 61.7494 39.6801C61.7494 39.2558 61.4053 38.9116 60.9809 38.9116Z" fill="#8399FE"/>
<path d="M14.2495 40.2636C16.269 38.2441 16.269 34.9698 14.2495 32.9503C12.23 30.9308 8.95572 30.9308 6.9362 32.9503C4.91668 34.9698 4.91668 38.2441 6.9362 40.2636C8.95572 42.2831 12.23 42.2831 14.2495 40.2636Z" fill="#FFCC42"/>
<path d="M8.77547 38.5689C8.32514 39.03 8.04541 39.6601 8.04541 40.3533V41.108C8.51726 41.3754 9.03369 41.5721 9.58239 41.6812V40.3533C9.58239 39.7938 10.0373 39.3374 10.5983 39.3374C11.1593 39.3374 11.6143 39.7938 11.6143 40.3533V41.6812C12.163 41.5721 12.6809 41.3754 13.1512 41.108V40.3533C13.1512 39.6601 12.8731 39.03 12.4212 38.5689C12.8731 38.1078 13.1512 37.4776 13.1512 36.7844C13.1512 35.3766 12.0062 34.23 10.5983 34.23C9.19046 34.23 8.04541 35.3766 8.04541 36.7844C8.04541 37.4776 8.32514 38.1078 8.77547 38.5689ZM9.58239 36.7844C9.58239 36.2234 10.0373 35.767 10.5983 35.767C11.1593 35.767 11.6143 36.2234 11.6143 36.7844C11.6143 37.3439 11.1593 37.8004 10.5983 37.8004C10.0373 37.8004 9.58239 37.3439 9.58239 36.7844Z" fill="white"/>
<path d="M18.9793 44.6187H6.19476C5.7704 44.6187 5.42627 44.9628 5.42627 45.3871C5.42627 45.8115 5.7704 46.1556 6.19476 46.1556H18.9795C19.4038 46.1556 19.748 45.8115 19.748 45.3871C19.748 44.9628 19.4037 44.6187 18.9793 44.6187Z" fill="#4369FD"/>
<path d="M15.7517 47.7676H6.19476C5.7704 47.7676 5.42627 48.1117 5.42627 48.5361C5.42627 48.9604 5.7704 49.3046 6.19476 49.3046H15.7518C16.1762 49.3046 16.5203 48.9604 16.5203 48.5361C16.5203 48.1117 16.176 47.7676 15.7517 47.7676Z" fill="#4369FD"/>
<path d="M15.7517 50.9165H6.19476C5.7704 50.9165 5.42627 51.2606 5.42627 51.685C5.42627 52.1094 5.7704 52.4535 6.19476 52.4535H15.7518C16.1762 52.4535 16.5203 52.1094 16.5203 51.685C16.5203 51.2606 16.176 50.9165 15.7517 50.9165Z" fill="#4369FD"/>
<path d="M18.9796 56.6235H6.195C5.77064 56.6235 5.42651 56.9677 5.42651 57.392C5.42651 57.8164 5.77064 58.1605 6.195 58.1605H18.9797C19.4041 58.1605 19.7482 57.8164 19.7482 57.392C19.7482 56.9677 19.4039 56.6235 18.9796 56.6235Z" fill="white"/>
<path d="M18.9793 59.7725H6.19476C5.7704 59.7725 5.42627 60.1166 5.42627 60.5409C5.42627 60.9653 5.7704 61.3094 6.19476 61.3094H18.9795C19.4038 61.3094 19.748 60.9653 19.748 60.5409C19.748 60.1166 19.4037 59.7725 18.9793 59.7725Z" fill="white"/>
<path d="M18.9793 62.9214H6.19476C5.7704 62.9214 5.42627 63.2655 5.42627 63.6899C5.42627 64.1142 5.7704 64.4584 6.19476 64.4584H18.9795C19.4038 64.4584 19.748 64.1142 19.748 63.6899C19.748 63.2655 19.4037 62.9214 18.9793 62.9214Z" fill="white"/>
<path d="M19.7478 32.2053C19.7478 32.6298 19.4037 32.9741 18.979 32.9741C18.5545 32.9741 18.2102 32.63 18.2102 32.2053C18.2102 31.7808 18.5543 31.4365 18.979 31.4365C19.4037 31.4365 19.7478 31.7807 19.7478 32.2053Z" fill="white"/>
<path d="M24.7502 79C24.5582 79 24.3663 78.9268 24.2197 78.7804C23.9268 78.4873 23.9268 78.0124 24.2197 77.7195L25.7195 76.2196C26.0125 75.9268 26.4873 75.9268 26.7803 76.2196C27.0732 76.5127 27.0732 76.9876 26.7803 77.2805L25.2805 78.7804C25.1341 78.9266 24.9422 79 24.7502 79Z" fill="#FF6C6C"/>
<path d="M16.5 13C16.0686 13 15.7187 12.6503 15.7187 12.2188C15.7187 11.7017 15.2981 11.2812 14.7812 11.2812C14.3498 11.2812 14 10.9316 14 10.5C14 10.0684 14.3498 9.71875 14.7812 9.71875C15.2981 9.71875 15.7187 9.29828 15.7187 8.78125C15.7187 8.34969 16.0686 8 16.5 8C16.9316 8 17.2813 8.34969 17.2813 8.78125C17.2813 9.29828 17.7017 9.71875 18.2188 9.71875C18.6503 9.71875 19 10.0684 19 10.5C19 10.9316 18.6503 11.2812 18.2188 11.2812C17.7017 11.2812 17.2813 11.7017 17.2813 12.2188C17.2813 12.6502 16.9316 13 16.5 13Z" fill="#FF5BA8"/>
<path d="M51 77C49.8972 77 49 76.1028 49 74.9999C49 73.8972 49.8972 73 51 73C52.1028 73 53 73.8972 53 74.9999C53 76.1028 52.1028 77 51 77ZM51 74.3994C50.6689 74.3994 50.3995 74.6688 50.3995 74.9999C50.3995 75.331 50.6689 75.6006 51 75.6006C51.3311 75.6006 51.6005 75.331 51.6005 74.9999C51.6005 74.6688 51.3313 74.3994 51 74.3994Z" fill="#6583FE"/>
<path d="M63.692 70H2.30802C1.03338 70 0 68.9661 0 67.6907V19.3093C0 18.0339 1.03338 17 2.30802 17H63.692C64.9666 17 66 18.0339 66 19.3093V67.6907C66 68.9662 64.9668 70 63.692 70Z" fill="url(#paint0_linear)"/>
<path d="M48.9949 16.1781C48.9501 15.4213 48.3348 14.7191 47.4189 14.7191H43.0751V1.53585C43.0751 0.687653 42.3686 0 41.497 0H29.5033C28.6318 0 27.9252 0.687653 27.9252 1.53585V14.7191H23.5814C22.6655 14.7191 22.0502 15.4213 22.0054 16.1781L22 20H49L48.9949 16.1781Z" fill="#F1D971"/>
<path d="M42.9595 18.393V5.204C42.9595 4.35543 42.2716 3.66748 41.423 3.66748H29.7454C28.8968 3.66748 28.2088 4.35543 28.2088 5.204V18.393H23.9795C22.6107 18.393 21.9251 20.048 22.8931 21.016L34.4977 32.6206C35.0977 33.2206 36.0706 33.2206 36.6707 32.6206L48.2753 21.016C49.2433 20.048 48.5577 18.393 47.1888 18.393H42.9595Z" fill="#FFD000"/>
<defs>
<linearGradient id="paint0_linear" x1="33" y1="17" x2="33" y2="70" gradientUnits="userSpaceOnUse">
<stop offset="0.0028" stop-color="#FF7EB8" stop-opacity="0"/>
<stop offset="1" stop-color="#FF7EB8" stop-opacity="0.6"/>
</linearGradient>
</defs>
</svg>
