<svg width="32" height="32" viewBox="0 0 32 32" fill="none" xmlns="http://www.w3.org/2000/svg">
<path d="M16 29.1249C8.76288 29.1249 2.875 23.237 2.875 15.9999C2.875 8.76275 8.76288 2.87488 16 2.87488C23.2371 2.87488 29.125 8.76275 29.125 15.9999C29.125 23.237 23.2371 29.1249 16 29.1249ZM16 4.74994C9.79675 4.74994 4.75 9.79669 4.75 15.9999C4.75 22.2032 9.79675 27.2499 16 27.2499C22.2033 27.2499 27.25 22.2032 27.25 15.9999C27.25 9.79663 22.2033 4.74994 16 4.74994Z" fill="#7DD5F4"/>
<path d="M16 2.875V4.75C22.2032 4.75 27.25 9.79675 27.25 16C27.25 22.2033 22.2032 27.25 16 27.25V29.125C23.2371 29.125 29.125 23.2371 29.125 16C29.125 8.76281 23.2371 2.875 16 2.875Z" fill="#4793FF"/>
<path d="M16 8.49994C15.4822 8.49994 15.0625 8.08019 15.0625 7.56244V0.9375C15.0625 0.41975 15.4822 0 16 0C16.5178 0 16.9375 0.41975 16.9375 0.9375V7.56244C16.9375 8.08019 16.5178 8.49994 16 8.49994Z" fill="#007A9F"/>
<path d="M31.0624 16.9375H24.4375C23.9197 16.9375 23.5 16.5178 23.5 16C23.5 15.4822 23.9197 15.0625 24.4375 15.0625H31.0624C31.5802 15.0625 31.9999 15.4822 31.9999 16C31.9999 16.5178 31.5802 16.9375 31.0624 16.9375Z" fill="#00607F"/>
<path d="M16 31.9999C15.4822 31.9999 15.0625 31.5802 15.0625 31.0624V24.4375C15.0625 23.9197 15.4822 23.5 16 23.5C16.5178 23.5 16.9375 23.9197 16.9375 24.4375V31.0624C16.9375 31.5802 16.5178 31.9999 16 31.9999Z" fill="#007A9F"/>
<path d="M7.56244 16.9375H0.9375C0.41975 16.9375 0 16.5178 0 16C0 15.4822 0.41975 15.0625 0.9375 15.0625H7.56244C8.08019 15.0625 8.49994 15.4822 8.49994 16C8.49994 16.5178 8.08019 16.9375 7.56244 16.9375Z" fill="#007A9F"/>
<path d="M18.8583 20.7035C18.7384 20.7035 18.6179 20.6805 18.5034 20.6337L15.9999 19.6096L13.4965 20.6337C13.1959 20.7566 12.8533 20.7153 12.5905 20.5245C12.3278 20.3336 12.1826 20.0204 12.2066 19.6965L12.407 16.9991L10.6595 14.9346C10.4496 14.6868 10.3831 14.3481 10.4834 14.0392C10.5837 13.7304 10.8367 13.4954 11.1521 13.4183L13.7794 12.7753L15.2028 10.4753C15.3737 10.1991 15.6753 10.0311 16 10.0311C16.3247 10.0311 16.6263 10.1991 16.7972 10.4753L18.2206 12.7753L20.8479 13.4183C21.1632 13.4954 21.4162 13.7304 21.5166 14.0392C21.6169 14.348 21.5504 14.6868 21.3406 14.9346L19.593 16.9991L19.7934 19.6965C19.8174 20.0203 19.6723 20.3335 19.4095 20.5244C19.2468 20.6426 19.0534 20.7035 18.8583 20.7035Z" fill="#FF8856"/>
<path d="M21.5165 14.0392C21.4162 13.7304 21.1632 13.4954 20.8478 13.4183L18.2205 12.7753L16.7971 10.4753C16.6262 10.1991 16.3246 10.0311 15.9999 10.0311V19.6095L18.5034 20.6336C18.6178 20.6804 18.7383 20.7034 18.8583 20.7034C19.0533 20.7034 19.2467 20.6426 19.4094 20.5244C19.6721 20.3335 19.8173 20.0203 19.7933 19.6964L19.5929 16.9991L21.3404 14.9346C21.5503 14.6868 21.6169 14.3481 21.5165 14.0392Z" fill="#FF435B"/>
<path d="M16 0V8.49994C16.5178 8.49994 16.9375 8.08019 16.9375 7.56244V0.9375C16.9375 0.41975 16.5178 0 16 0Z" fill="#00607F"/>
<path d="M16 23.5V31.9999C16.5178 31.9999 16.9375 31.5802 16.9375 31.0624V24.4375C16.9375 23.9197 16.5178 23.5 16 23.5Z" fill="#00607F"/>
</svg>
