<svg width="700" height="291" viewBox="0 0 700 291" fill="none" xmlns="http://www.w3.org/2000/svg">
<path opacity="0.1" d="M550.138 65.0008H530.461C529.781 65.0199 529.128 65.27 528.616 65.7081C528.104 66.1461 527.764 66.7447 527.656 67.4007L524.891 86.5993C524.835 86.8977 524.849 87.2043 524.93 87.4969C525.012 87.7895 525.159 88.0607 525.362 88.2906C525.564 88.5206 525.817 88.7035 526.101 88.8261C526.385 88.9487 526.694 89.0078 527.005 88.9992H546.682C547.362 88.9801 548.015 88.73 548.527 88.2919C549.039 87.8539 549.378 87.2553 549.487 86.5993L552.252 67.4007C552.308 67.1023 552.294 66.7957 552.213 66.5031C552.131 66.2105 551.984 65.9393 551.781 65.7094C551.579 65.4794 551.326 65.2965 551.042 65.1739C550.758 65.0513 550.449 64.9922 550.138 65.0008V65.0008Z" fill="#CABDFF"/>
<g filter="url(#filter0_b_1725_10119)">
<rect x="158" y="116.428" width="344.571" height="48" rx="5" fill="white" fill-opacity="0.03"/>
<rect x="158.5" y="116.928" width="343.571" height="47" rx="4.5" stroke="#E5E5E5" stroke-opacity="0.19"/>
</g>
<g filter="url(#filter1_b_1725_10119)">
<rect x="190.571" y="174.714" width="334.286" height="48" rx="5" fill="white" fill-opacity="0.03"/>
<rect x="191.071" y="175.214" width="333.286" height="47" rx="4.5" stroke="#E5E5E5" stroke-opacity="0.19"/>
</g>
<g filter="url(#filter2_b_1725_10119)">
<rect x="209.429" y="233" width="334.286" height="48" rx="5" fill="white" fill-opacity="0.03"/>
<rect x="209.929" y="233.5" width="333.286" height="47" rx="4.5" stroke="#E5E5E5" stroke-opacity="0.19"/>
</g>
<circle cx="473.429" cy="140.429" r="8.57143" fill="#FF0000"/>
<circle cx="494" cy="200.429" r="8.57143" fill="#FFAC33"/>
<circle cx="511.143" cy="257" r="8.57143" fill="#0AF48D"/>
<rect x="173.429" y="137" width="109.714" height="8.57143" rx="4.28571" fill="#C4C4C4" fill-opacity="0.07"/>
<rect x="214.571" y="197" width="109.714" height="8.57143" rx="4.28571" fill="#C4C4C4" fill-opacity="0.07"/>
<rect x="233.429" y="257" width="109.714" height="8.57143" rx="4.28571" fill="#C4C4C4" fill-opacity="0.07"/>
<path opacity="0.1" d="M23.9645 166.001H5.31233C4.66708 166.019 4.04848 166.259 3.56312 166.679C3.07777 167.098 2.75604 167.672 2.65337 168.301L0.0317867 186.699C-0.0207977 186.985 -0.0080143 187.279 0.0692037 187.56C0.146422 187.84 0.286126 188.1 0.478126 188.32C0.670126 188.541 0.909578 188.716 1.17901 188.833C1.44845 188.951 1.74107 189.007 2.03552 188.999H20.6877C21.333 188.981 21.9517 188.741 22.4371 188.322C22.9225 187.902 23.2443 187.328 23.347 186.699L25.9682 168.301C26.0208 168.015 26.008 167.721 25.9308 167.44C25.8536 167.16 25.7139 166.9 25.5219 166.68C25.3299 166.459 25.0904 166.284 24.821 166.167C24.5516 166.049 24.2589 165.993 23.9645 166.001V166.001Z" fill="#AE9AFF"/>
<path opacity="0.1" d="M697.025 166.001H669.764C668.821 166.028 667.917 166.383 667.208 167.003C666.498 167.624 666.028 168.472 665.878 169.401L662.046 196.599C661.97 197.022 661.988 197.456 662.101 197.871C662.214 198.285 662.418 198.669 662.699 198.995C662.98 199.321 663.33 199.58 663.723 199.754C664.117 199.927 664.545 200.011 664.975 199.999H692.236C693.179 199.972 694.083 199.617 694.792 198.997C695.502 198.376 695.972 197.528 696.122 196.599L699.954 169.401C700.03 168.978 700.012 168.544 699.899 168.129C699.786 167.715 699.582 167.331 699.301 167.005C699.02 166.679 698.67 166.42 698.277 166.246C697.883 166.073 697.455 165.989 697.025 166.001V166.001Z" fill="#CABDFF"/>
<path opacity="0.1" d="M158.686 205L155.493 208.061C153.236 210.225 153.14 213.802 155.278 216.083V216.083C154.794 216.101 151.134 221.709 150.771 222.102C150.407 222.495 150.166 223.032 150.089 223.621V223.621C146.378 227.325 145.166 232.852 146.986 237.769L148.125 240.846C148.085 241.114 148.095 241.389 148.153 241.651C148.211 241.914 148.316 242.157 148.459 242.364C148.603 242.57 148.783 242.734 148.984 242.844C149.186 242.954 149.406 243.007 149.626 242.999H163.601C164.084 242.982 164.548 242.758 164.912 242.365C165.275 241.972 165.516 241.435 165.593 240.846L165.876 240.322C168.869 234.761 168.889 228.983 167.529 222.815V222.815C167.471 222.553 167.367 222.309 167.223 222.103C167.079 221.897 174.245 224.633 169.195 217.35C168.993 217.24 165.184 206.106 158.686 205Z" fill="#CABDFF"/>
<path opacity="0.1" d="M225.025 0.00116671H197.764C196.821 0.0282025 195.917 0.38252 195.208 1.00309C194.498 1.62366 194.028 2.47163 193.878 3.40093L190.046 30.5991C189.97 31.0217 189.988 31.4561 190.101 31.8706C190.214 32.2852 190.418 32.6693 190.699 32.995C190.98 33.3208 191.33 33.58 191.723 33.7536C192.117 33.9273 192.545 34.011 192.975 33.9988H220.236C221.179 33.9718 222.083 33.6175 222.792 32.9969C223.502 32.3763 223.972 31.5284 224.122 30.5991L227.954 3.40093C228.03 2.97828 228.012 2.54386 227.899 2.12935C227.786 1.71485 227.582 1.33071 227.301 1.00495C227.02 0.679201 226.67 0.420044 226.277 0.246388C225.883 0.0727321 225.455 -0.0110447 225.025 0.00116671V0.00116671Z" fill="#CABDFF"/>
<path d="M137 240C137 237.239 139.239 235 142 235H174C176.761 235 179 237.239 179 240V276C179 284.284 172.284 291 164 291H152C143.716 291 137 284.284 137 276V240Z" fill="#6F5ADC"/>
<path d="M177 248C180.448 248 183.754 249.37 186.192 251.808C188.63 254.246 190 257.552 190 261C190 264.448 188.63 267.754 186.192 270.192C183.754 272.63 180.448 274 177 274L177 270.077C179.407 270.077 181.716 269.121 183.418 267.418C185.121 265.716 186.077 263.407 186.077 261C186.077 258.593 185.121 256.284 183.418 254.582C181.716 252.879 179.407 251.923 177 251.923V248Z" fill="url(#paint0_linear_1725_10119)"/>
<defs>
<filter id="filter0_b_1725_10119" x="102" y="60.4285" width="456.572" height="160" filterUnits="userSpaceOnUse" color-interpolation-filters="sRGB">
<feFlood flood-opacity="0" result="BackgroundImageFix"/>
<feGaussianBlur in="BackgroundImage" stdDeviation="28"/>
<feComposite in2="SourceAlpha" operator="in" result="effect1_backgroundBlur_1725_10119"/>
<feBlend mode="normal" in="SourceGraphic" in2="effect1_backgroundBlur_1725_10119" result="shape"/>
</filter>
<filter id="filter1_b_1725_10119" x="134.571" y="118.714" width="446.286" height="160" filterUnits="userSpaceOnUse" color-interpolation-filters="sRGB">
<feFlood flood-opacity="0" result="BackgroundImageFix"/>
<feGaussianBlur in="BackgroundImage" stdDeviation="28"/>
<feComposite in2="SourceAlpha" operator="in" result="effect1_backgroundBlur_1725_10119"/>
<feBlend mode="normal" in="SourceGraphic" in2="effect1_backgroundBlur_1725_10119" result="shape"/>
</filter>
<filter id="filter2_b_1725_10119" x="153.429" y="177" width="446.286" height="160" filterUnits="userSpaceOnUse" color-interpolation-filters="sRGB">
<feFlood flood-opacity="0" result="BackgroundImageFix"/>
<feGaussianBlur in="BackgroundImage" stdDeviation="28"/>
<feComposite in2="SourceAlpha" operator="in" result="effect1_backgroundBlur_1725_10119"/>
<feBlend mode="normal" in="SourceGraphic" in2="effect1_backgroundBlur_1725_10119" result="shape"/>
</filter>
<linearGradient id="paint0_linear_1725_10119" x1="164" y1="261" x2="190" y2="261" gradientUnits="userSpaceOnUse">
<stop stop-color="#502EFF"/>
<stop offset="1" stop-color="#6F5ADC"/>
</linearGradient>
</defs>
</svg>
