<svg xmlns="http://www.w3.org/2000/svg" xmlns:xlink="http://www.w3.org/1999/xlink" width="40.724" height="50" viewBox="0 0 40.724 50"><defs><style>.a{fill:url(#a);}</style><linearGradient id="a" x1="-0.383" y1="-0.251" x2="0.5" y2="1" gradientUnits="objectBoundingBox"><stop offset="0" stop-color="#d1c7ff"/><stop offset="1" stop-color="#502eff"/></linearGradient></defs><path class="a" d="M37.363,2.994a.926.926,0,0,0-.116.017H14.233a3.714,3.714,0,0,0-3.7,3.7V8.566H8.7a3.714,3.714,0,0,0-3.7,3.7V49.291a3.716,3.716,0,0,0,3.7,3.7H36.477a3.714,3.714,0,0,0,3.708-3.7V47.443H42.01a3.714,3.714,0,0,0,3.7-3.7V11.486a.926.926,0,0,0-.351-.873l-7.27-7.282a.926.926,0,0,0-.726-.337ZM14.233,4.857H36.438v3.7a3.716,3.716,0,0,0,3.7,3.7h3.7V43.734a1.826,1.826,0,0,1-1.852,1.852H40.181V17.031a.926.926,0,0,0-.347-.874L32.577,8.9l-.011-.017a.811.811,0,0,0-.842-.315H12.381V6.711a1.826,1.826,0,0,1,1.852-1.85ZM38.3,6.165l4.242,4.24H40.154A1.828,1.828,0,0,1,38.3,8.554ZM8.7,10.405H30.916v3.7a3.714,3.714,0,0,0,3.7,3.7h3.7V49.291a1.828,1.828,0,0,1-1.852,1.852H8.7a1.828,1.828,0,0,1-1.85-1.852V12.258A1.826,1.826,0,0,1,8.7,10.411ZM32.77,11.716l4.242,4.242H34.626a1.828,1.828,0,0,1-1.852-1.852ZM11.488,15.964a.926.926,0,0,0-.926.926v5.553a.926.926,0,0,0,.926.926h5.553a.926.926,0,0,0,.926-.926V16.89a.926.926,0,0,0-.926-.926Zm9.267,0a.926.926,0,1,0,0,1.852h7.406a.926.926,0,0,0,0-1.852Zm-8.342,1.848h3.7v3.7h-3.71Zm8.346,1.856a.926.926,0,0,0,0,1.852H33.671a.926.926,0,1,0,0-1.852Zm-9.267,7.406a.926.926,0,0,0-.926.926v5.553a.926.926,0,0,0,.926.926h5.553a.926.926,0,0,0,.926-.926V28a.926.926,0,0,0-.926-.926Zm9.267,0a.926.926,0,0,0,0,1.852h7.406a.926.926,0,0,0,0-1.852Zm-8.346,1.848h3.7v3.7h-3.71Zm8.346,1.854a.926.926,0,0,0,0,1.852H33.671a.926.926,0,0,0,0-1.852Zm-9.267,7.406a.926.926,0,0,0-.926.926v5.553a.926.926,0,0,0,.926.926h5.553a.926.926,0,0,0,.926-.926V39.1a.926.926,0,0,0-.926-.926Zm9.267,0a.926.926,0,1,0,0,1.849h7.406a.926.926,0,0,0,0-1.852Zm-8.346,1.849h3.7v3.7h-3.71Zm8.346,1.851a.926.926,0,1,0,0,1.852H33.671a.926.926,0,1,0,0-1.852Z" transform="translate(-5 -2.994)"/></svg>