<svg xmlns="http://www.w3.org/2000/svg" xmlns:xlink="http://www.w3.org/1999/xlink" width="77.819" height="49.538" viewBox="0 0 77.819 49.538"><defs><style>.a{fill:url(#a);}</style><linearGradient id="a" x1="0.057" y1="-1.001" x2="0.5" y2="1" gradientUnits="objectBoundingBox"><stop offset="0" stop-color="#d1c7ff"/><stop offset="1" stop-color="#502eff"/></linearGradient></defs><path class="a" d="M2.236,59.607H77.507a1.1,1.1,0,0,0,.847-.364,1.312,1.312,0,0,0,.364-.847,13.557,13.557,0,0,0-8.252-12.142,8.67,8.67,0,0,0,1.092-4.006,6.435,6.435,0,1,0-12.869,0,7.965,7.965,0,0,0,1.092,4.006,15.48,15.48,0,0,0-3.034,1.821,20.017,20.017,0,0,0-9.829-8.012,13.219,13.219,0,0,0,1.941-6.556,9.105,9.105,0,0,0-18.21,0,13.218,13.218,0,0,0,1.941,6.556,20.017,20.017,0,0,0-9.829,8.012,15.48,15.48,0,0,0-3.034-1.821,8.668,8.668,0,0,0,1.092-4.006,6.446,6.446,0,0,0-6.314-6.435,6.558,6.558,0,0,0-6.435,6.435,7.965,7.965,0,0,0,1.092,4.006A13.422,13.422,0,0,0,.9,58.394a1.1,1.1,0,0,0,.364.847,1.378,1.378,0,0,0,.972.364ZM65.245,38.241a4.042,4.042,0,0,1,4.006,4.006c0,2.185-1.821,5.338-4.006,5.338-2.064,0-4.006-3.157-4.006-5.338a4.042,4.042,0,0,1,4.006-4.008Zm-3.76,10.077a5.016,5.016,0,0,0,7.527,0,10.989,10.989,0,0,1,7.163,8.863H59.9a21.554,21.554,0,0,0-1.821-6.919A8.594,8.594,0,0,1,61.485,48.317ZM39.871,26.828a6.658,6.658,0,0,1,6.678,6.678A11.143,11.143,0,0,1,44.12,39.94a5.8,5.8,0,0,1-4.249,2.428,5.736,5.736,0,0,1-4.249-2.428,11.143,11.143,0,0,1-2.427-6.44,6.658,6.658,0,0,1,6.676-6.676Zm-5.586,15.3a7.8,7.8,0,0,0,5.586,2.8,7.8,7.8,0,0,0,5.584-2.8,17.77,17.77,0,0,1,9.955,8.256h0a18.481,18.481,0,0,1,2.064,6.8H22.267a17.214,17.214,0,0,1,2.064-6.674h0a17.065,17.065,0,0,1,9.954-8.38ZM14.627,38.241a4.042,4.042,0,0,1,4,4.006c0,2.185-1.821,5.338-4.006,5.338-2.064,0-4.006-3.157-4.006-5.338a4.042,4.042,0,0,1,4-4.008Zm-3.9,10.077a5.442,5.442,0,0,0,3.767,1.7,5.442,5.442,0,0,0,3.763-1.7,13.642,13.642,0,0,1,3.4,1.941,19.481,19.481,0,0,0-1.822,6.92H3.571a10.861,10.861,0,0,1,7.158-8.867Z" transform="translate(-0.9 -10.07)"/><path class="a" d="M45.014,32.329H51.57a1.214,1.214,0,1,0,0-2.428H45.014A1.147,1.147,0,0,0,43.8,31.114,1.217,1.217,0,0,0,45.014,32.329Z" transform="translate(8.283 -8.895)"/><path class="a" d="M15.814,29.9a1.214,1.214,0,1,0,0,2.428H22.37a1.214,1.214,0,0,0,0-2.428Z" transform="translate(2.033 -8.894)"/><path class="a" d="M46.714,18.364a1.174,1.174,0,0,0-1.7,0l-4.249,4.249a1.2,1.2,0,0,0,1.7,1.7l4.249-4.249a1.174,1.174,0,0,0,0-1.7Z" transform="translate(7.556 -11.441)"/><path class="a" d="M26.305,24.305a1.174,1.174,0,0,0,0-1.7l-4.249-4.249a1.2,1.2,0,1,0-1.7,1.7l4.249,4.249a1.174,1.174,0,0,0,1.7,0Z" transform="translate(3.198 -11.432)"/><path class="a" d="M31.9,13.814V20.37a1.214,1.214,0,1,0,2.428,0V13.814A1.147,1.147,0,0,0,33.115,12.6,1.217,1.217,0,0,0,31.9,13.814Z" transform="translate(5.738 -12.598)"/></svg>