<svg xmlns="http://www.w3.org/2000/svg" width="45" height="45" viewBox="0 0 45 45"><defs><style>.a{fill:#f2f2f2;}.b{fill:#ffc428;}.c{fill:#fff;}.d{fill:#285fcf;}.e{fill:#4cdbc4;}.f{fill:#84dbff;}</style></defs><path class="a" d="M0,96v33.75a2.812,2.812,0,0,0,2.813,2.813H42.188A2.812,2.812,0,0,0,45,129.75V96Zm0,0" transform="translate(0 -87.563)"/><path class="b" d="M0,0H45V11.25H0ZM0,0"/><path class="c" d="M64,48h2.813v2.812H64Zm0,0" transform="translate(-58.375 -43.781)"/><path class="c" d="M128,48h2.813v2.812H128Zm0,0" transform="translate(-116.75 -43.781)"/><path class="d" d="M213.094,50.812H193.406a1.406,1.406,0,0,1,0-2.812h19.688a1.406,1.406,0,1,1,0,2.812Zm0,0" transform="translate(-175.125 -43.781)"/><path class="e" d="M122.719,418.813H97.406a1.406,1.406,0,0,1,0-2.812h25.313a1.406,1.406,0,0,1,0,2.813Zm0,0" transform="translate(-87.563 -379.438)"/><path class="f" d="M241.406,223.469A1.407,1.407,0,0,1,240,222.063V208h2.813v14.063A1.407,1.407,0,0,1,241.406,223.469Zm0,0" transform="translate(-218.906 -189.719)"/><path class="f" d="M196.994,192.989l-3.636-3.636-3.636,3.636A1.406,1.406,0,1,1,187.733,191l5.625-5.625L198.983,191a1.406,1.406,0,0,1-1.989,1.989Zm0,0" transform="translate(-170.858 -169.082)"/></svg>