<svg xmlns="http://www.w3.org/2000/svg" width="28.367" height="30" viewBox="0 0 28.367 30"><defs><style>.a{fill:#fff;}</style></defs><g transform="translate(-26 -29.5)"><path class="a" d="M96.5,43.308a6.9,6.9,0,1,0-6.9-6.9A6.9,6.9,0,0,0,96.5,43.308Zm0-12.5a5.6,5.6,0,1,1-5.6,5.6,5.6,5.6,0,0,1,5.6-5.6Z" transform="translate(-59.446)"/><path class="a" d="M53.714,254.9H41.957a.655.655,0,0,0-.653.653v.823a11.09,11.09,0,0,0-4.233-.836h-.02a10.84,10.84,0,0,0-7.825,3.285A11.6,11.6,0,0,0,26,267.049a.655.655,0,0,0,.653.653h0L45.9,267.67v1.855a.652.652,0,0,0,.307.555.646.646,0,0,0,.346.1.593.593,0,0,0,.294-.072l2.574-1.287a.653.653,0,0,0,.359-.581v-4.252l4.363-3.743a.66.66,0,0,0,.229-.5v-4.193a.651.651,0,0,0-.653-.653Zm-.653,1.306v.686H42.61v-.686ZM27.326,266.389a10.214,10.214,0,0,1,2.835-6.656,9.525,9.525,0,0,1,6.891-2.887h.02a9.752,9.752,0,0,1,4.233.96v1.94a.66.66,0,0,0,.229.5l4.363,3.743v2.378Zm21.372-3.2a.66.66,0,0,0-.229.5v4.148l-1.267.634v-4.781a.66.66,0,0,0-.229-.5l-4.363-3.743v-1.254H53.061v1.254Z" transform="translate(0 -210.677)"/></g></svg>