<svg width="158" height="172" viewBox="0 0 158 172" fill="none" xmlns="http://www.w3.org/2000/svg">
<path d="M62.3131 102.16C62.6401 104.283 62.9201 106.383 63.1301 108.529L63.0131 109.649C63.0114 109.797 62.9597 109.939 62.8666 110.054C62.7734 110.168 62.6442 110.248 62.5001 110.279L61.8001 110.442L62.5001 109.742C62.3601 111.772 62.2671 113.778 62.0801 115.784L60.6801 114.431H61.1701C61.4885 114.369 61.8186 114.435 62.0891 114.614C62.3596 114.793 62.5489 115.071 62.6161 115.388C62.6397 115.535 62.6397 115.684 62.6161 115.831V115.994L62.3361 117.767C62.2681 118.11 62.0696 118.414 61.7825 118.614C61.4953 118.814 61.1418 118.895 60.7961 118.84H60.3291L59.8161 118.63L61.6821 118.047C61.0991 119.213 60.5391 120.38 59.9321 121.57L59.2551 119.237C59.6455 119.429 59.9462 119.765 60.0941 120.174C60.242 120.583 60.2255 121.033 60.0481 121.43C59.8837 121.795 59.5896 122.085 59.2231 122.244C58.8566 122.404 58.4438 122.421 58.0651 122.293H57.9251C55.1579 121.352 52.3381 120.573 49.4801 119.96C48.1189 119.675 46.7391 119.488 45.3511 119.4C44.2105 119.27 43.055 119.389 41.9651 119.75C41.8469 119.795 41.7365 119.858 41.6381 119.937C41.6337 119.991 41.6337 120.046 41.6381 120.1C41.508 120.416 41.4598 120.76 41.4981 121.1C41.663 122.239 42.0686 123.33 42.6881 124.3C44.0254 126.641 45.6909 128.778 47.6341 130.646C49.7041 132.58 51.9467 134.321 54.3341 135.846C55.5148 136.586 56.7466 137.241 58.0201 137.806C59.3031 138.366 60.6801 138.926 62.0561 139.439C67.5621 141.422 73.2561 143.148 78.9931 144.805H79.1331C79.2841 144.853 79.4103 144.958 79.4851 145.097C79.5598 145.237 79.577 145.4 79.5331 145.552C79.5148 145.64 79.4754 145.722 79.4185 145.792C79.3616 145.862 79.2888 145.917 79.2061 145.952L77.8061 146.582C77.3438 146.804 76.8686 146.999 76.3831 147.165L73.4901 148.098L76.0801 146.558C76.5142 146.3 76.9348 146.02 77.3401 145.718L78.5531 144.855L78.7631 146.021C72.7526 145.441 66.7994 144.371 60.9631 142.821C59.4931 142.401 58.0231 141.981 56.5541 141.445C55.0577 140.891 53.607 140.22 52.2151 139.439C49.4548 137.924 46.8859 136.083 44.5631 133.957C42.1292 131.834 40.05 129.336 38.4041 126.557C37.4523 124.957 36.8714 123.163 36.7041 121.308C36.6108 120.157 36.8367 119.003 37.3571 117.972C37.4981 117.695 37.662 117.429 37.8471 117.179C38.0619 116.913 38.2959 116.664 38.5471 116.432C39.0172 116.025 39.5536 115.701 40.1331 115.475C41.8881 114.881 43.7594 114.713 45.5921 114.985C47.1672 115.177 48.7264 115.481 50.2581 115.895C53.2362 116.712 56.152 117.741 58.9831 118.974L57.6301 121.984C57.4491 121.88 57.2904 121.742 57.163 121.576C57.0357 121.411 56.9422 121.222 56.8881 121.02C56.8339 120.819 56.8201 120.608 56.8474 120.401C56.8747 120.194 56.9426 119.995 57.0471 119.814C57.7471 118.714 58.4701 117.621 59.1931 116.525V116.385C59.3757 116.098 59.6632 115.893 59.9943 115.815C60.3255 115.736 60.6741 115.79 60.9661 115.965L61.4791 116.245L59.4961 117.178L60.0091 115.498L61.4261 117.07H60.8191C60.5017 117.09 60.1889 116.987 59.9457 116.782C59.7024 116.577 59.5475 116.286 59.5131 115.97C59.5016 115.854 59.5016 115.737 59.5131 115.62C59.9131 113.66 60.3761 111.701 60.8191 109.741V109.601C60.8537 109.45 60.9357 109.314 61.0533 109.213C61.1709 109.113 61.3177 109.052 61.4721 109.041H62.1951L61.5421 109.694L61.7751 108.644C61.9651 106.429 62.1261 104.283 62.3131 102.16Z" fill="#FFFFD8"/>
<path d="M57.6452 73.6293C55.3122 75.9623 52.9792 78.2953 50.4362 80.4183C47.8932 82.5413 45.4902 84.7813 42.8772 86.8573C42.7738 86.9417 42.6545 87.0045 42.5264 87.042C42.3983 87.0796 42.264 87.0911 42.1313 87.0759C41.9987 87.0607 41.8705 87.0191 41.7542 86.9536C41.6379 86.888 41.5359 86.7999 41.4542 86.6943L41.2212 86.3213C41.2212 86.3213 41.0112 85.9943 41.2212 86.1583L41.3612 86.2753C41.453 86.3379 41.5543 86.3851 41.6612 86.4153H41.0782L39.2352 86.7883C38.0117 87.0521 36.8044 87.386 35.6192 87.7883H35.4322L35.0322 87.9283L35.2192 87.7883L35.5922 86.8553V87.4623C35.5988 87.6446 35.569 87.8263 35.5046 87.997C35.4403 88.1677 35.3427 88.3239 35.2174 88.4564C35.0922 88.589 34.9418 88.6954 34.7751 88.7694C34.6083 88.8433 34.4286 88.8834 34.2462 88.8873C34.0385 88.8846 33.833 88.845 33.6392 88.7703C30.1062 87.1181 26.6712 85.2641 23.3512 83.2173L18.6852 80.2073C17.1452 79.2503 15.3962 78.1073 14.0192 77.1973L16.6552 76.7073L13.8552 80.4163C13.6911 80.6399 13.4845 80.829 13.2472 80.9728C13.01 81.1166 12.7467 81.2123 12.4725 81.2544C12.1983 81.2964 11.9185 81.2841 11.6491 81.218C11.3796 81.1519 11.1259 81.0334 10.9022 80.8693C10.6786 80.7051 10.4895 80.4985 10.3457 80.2613C10.2019 80.0241 10.1062 79.7608 10.0641 79.4866C10.0221 79.2124 10.0344 78.9326 10.1005 78.6631C10.1666 78.3937 10.2851 78.1399 10.4492 77.9163L13.2262 74.1873L13.0862 76.5203C12.5032 75.5873 11.8732 74.6543 11.2432 73.7443C10.6841 72.9245 10.0683 72.145 9.40022 71.4113L9.35322 71.2713C8.84902 70.8269 8.41628 70.3074 8.07022 69.7313C7.72188 69.2043 7.40111 68.6595 7.10922 68.0993L6.29222 66.6063L5.96522 66.0693C6.11055 66.1725 6.26724 66.2587 6.43222 66.3263H7.22522C7.6976 66.321 8.15257 66.1472 8.50822 65.8363L4.80422 63.8303V63.6673C4.78656 63.752 4.78656 63.8395 4.80422 63.9243C4.945 64.2892 5.19821 64.5998 5.52722 64.8113C5.7549 64.9521 6.00872 65.0453 6.27338 65.0853C6.53805 65.1254 6.80809 65.1114 7.06722 65.0443C7.20574 65.0311 7.33643 64.974 7.44022 64.8813C7.07941 65.4367 6.76725 66.0222 6.50722 66.6313C5.88686 68.0176 5.41004 69.4638 5.08422 70.9473C5.03894 71.1497 4.96838 71.3455 4.87422 71.5303C4.71393 71.8581 4.58889 72.202 4.50122 72.5563V72.4163C4.49515 72.1931 4.4288 71.9758 4.30922 71.7873C4.12222 71.5303 4.30922 71.6473 4.30922 71.6243L4.49622 71.7643C5.31999 72.4041 6.18521 72.9887 7.08622 73.5143C8.99922 74.6803 11.0522 75.8473 13.0582 76.8733L9.88522 78.2033C10.1303 77.6699 10.5674 77.2486 11.1093 77.0232C11.6512 76.7978 12.2582 76.785 12.8092 76.9873C13.0068 77.057 13.1949 77.151 13.3692 77.2673C13.8613 77.6082 14.2035 78.1252 14.325 78.7113C14.4465 79.2974 14.3381 79.9078 14.0222 80.4163V80.5793L14.2792 78.2463L14.0222 77.9663C17.1482 82.6323 20.3912 87.5083 23.8442 91.9663C27.1702 96.5597 30.9098 100.839 35.0162 104.75C35.1909 104.901 35.3314 105.087 35.428 105.296C35.5246 105.505 35.5751 105.733 35.5762 105.963V107.763C35.597 107.687 35.597 107.607 35.5762 107.53C36.0694 107.936 36.6299 108.252 37.2322 108.463C38.692 109.012 40.2249 109.342 41.7812 109.443C43.3715 109.488 44.9556 109.227 46.4472 108.673C47.2091 108.421 47.95 108.109 48.6632 107.74C49.0132 107.553 49.2462 107.367 49.5732 107.18C49.4332 107.95 49.5732 107.18 49.4332 106.923C49.3717 106.745 49.3755 106.552 49.4438 106.376C49.5122 106.201 49.6406 106.056 49.8062 105.966C52.2315 104.555 54.5268 102.93 56.6652 101.113C58.8418 99.2792 60.9209 97.3325 62.8942 95.2813C59.4903 99.9144 55.3724 103.978 50.6942 107.319L51.1142 106.339C51.1872 106.576 51.2417 106.817 51.2772 107.062C51.3136 107.263 51.3136 107.469 51.2772 107.669C51.3011 107.785 51.3011 107.904 51.2772 108.019C51.2206 108.122 51.1499 108.216 51.0672 108.299H50.9042C50.5249 108.632 50.1276 108.943 49.7142 109.232C48.9358 109.736 48.1162 110.173 47.2642 110.538C45.5431 111.309 43.693 111.752 41.8092 111.842C39.9134 111.859 38.0258 111.592 36.2092 111.049C35.1292 110.79 34.1133 110.314 33.2232 109.649C33.0262 109.516 32.846 109.359 32.6862 109.182V108.972C32.6374 108.876 32.5982 108.776 32.5692 108.672V106.103L33.1762 107.363C28.618 103.57 24.4866 99.2907 20.8552 94.6023C17.1692 89.9363 13.7162 85.2703 10.4972 80.4183V80.2083C10.3301 79.8314 10.2658 79.4169 10.311 79.0071C10.3561 78.5973 10.5091 78.2068 10.7542 77.8753L11.2672 81.1883L14.6962 79.9753C14.5037 80.5364 14.1046 81.0031 13.5802 81.2805C13.0558 81.5578 12.4454 81.625 11.8732 81.4683L11.5002 81.3283C9.35422 80.2283 7.30022 79.1123 5.20022 77.8993C3.93342 77.2167 2.7173 76.4441 1.56122 75.5873C1.39295 75.462 1.23662 75.3214 1.09422 75.1673L0.814218 74.8673C0.664898 74.7159 0.539161 74.543 0.441218 74.3543C0.245949 74.029 0.104146 73.6745 0.0212177 73.3043C0.000787731 73.1182 0.000787731 72.9304 0.0212177 72.7443C-0.00707255 72.4727 -0.00707255 72.1989 0.0212177 71.9273C0.164243 71.1135 0.43171 70.3266 0.814218 69.5943L0.604218 70.1543C1.02426 68.3406 1.62735 66.5742 2.40422 64.8823C2.81837 63.9273 3.33471 63.0201 3.94422 62.1763C4.08422 62.0363 4.15422 61.9193 4.34422 61.7563C4.52178 61.574 4.71708 61.4098 4.92722 61.2663C5.20629 61.0591 5.52326 60.9086 5.86022 60.8233C6.21815 60.7137 6.59572 60.6838 6.96644 60.7356C7.33716 60.7875 7.69205 60.9198 8.00622 61.1233C8.52282 61.4497 8.91125 61.9441 9.10622 62.5233C9.24366 62.8176 9.33054 63.1331 9.36322 63.4563C9.39873 63.8221 9.39873 64.1905 9.36322 64.5563L5.62022 62.5703C6.05034 62.2379 6.5706 62.0428 7.11322 62.0103H7.69622C7.8424 62.0358 7.98395 62.083 8.11622 62.1503C8.34928 62.2356 8.56911 62.3535 8.76922 62.5003L9.02622 62.7333C9.24021 62.9495 9.43526 63.1837 9.60922 63.4333C9.8039 63.7271 9.98314 64.0308 10.1462 64.3433L10.9862 65.9063C11.2432 66.3963 11.4992 66.8633 11.7562 67.2593L12.0562 67.7023L12.5692 68.1693C13.4356 69.1256 14.2163 70.1562 14.9022 71.2493C15.5552 72.2493 16.1622 73.2553 16.7682 74.2823C16.9721 74.6458 17.0632 75.0618 17.0299 75.4773C16.9966 75.8927 16.8404 76.2889 16.5812 76.6153L13.7812 80.4153L10.4682 77.8723L13.3612 74.2333V74.0933C13.6591 73.727 14.0847 73.4872 14.5523 73.4222C15.02 73.3573 15.4948 73.472 15.8812 73.7433L20.5472 77.0563L25.2132 80.2563C28.3132 82.3323 31.4422 84.4093 34.5452 86.1563L32.4922 87.3923V86.6693C32.5204 86.3741 32.6432 86.096 32.8422 85.8763C33.0226 85.7006 33.2269 85.5515 33.4492 85.4333L33.8222 85.2933L34.4292 85.0833C34.537 85.0606 34.6484 85.0606 34.7562 85.0833H34.3362C35.6497 84.7374 36.9815 84.4646 38.3252 84.2663L40.3552 84.0093H41.5212L42.0112 83.9863C42.1426 84.0228 42.2682 84.0776 42.3842 84.1493C42.4444 84.1975 42.499 84.2521 42.5472 84.3123C42.7227 84.505 42.8647 84.7257 42.9672 84.9653L43.2002 85.4553L41.6372 85.0553C44.3902 83.3053 47.0492 81.3923 49.7092 79.4333L57.6452 73.6293Z" fill="#FFFFD8"/>
<path d="M110.163 54.078C110.35 54.2857 110.605 54.4206 110.882 54.459C111.16 54.4974 111.442 54.4369 111.679 54.288C112.13 53.9679 112.498 53.544 112.752 53.052C113.29 52.0529 113.712 50.9953 114.009 49.9C114.599 47.7038 114.959 45.4519 115.082 43.181C115.242 40.9387 115.156 38.6855 114.825 36.462C114.69 35.4165 114.431 34.3906 114.055 33.406C113.924 33.054 113.716 32.7354 113.448 32.473H113.121C112.765 32.5737 112.384 32.5296 112.06 32.3503C111.737 32.1711 111.498 31.8711 111.395 31.516V31.329C110.457 25.1714 107.752 19.4182 103.609 14.768C99.4163 10.1866 93.9187 7.0025 87.8586 5.646C86.3286 5.2447 84.7679 4.97142 83.1926 4.829C82.4226 4.829 81.6526 4.596 80.8596 4.572H78.5276C75.4974 4.67153 72.5034 5.26255 69.6626 6.322C63.944 8.55376 59.0545 12.4975 55.6626 17.614L55.5456 17.754C55.5126 17.8255 55.4649 17.8892 55.4056 17.941L55.2186 18.128L53.0956 18.828C53.3728 18.8919 53.6599 18.9 53.9402 18.8519C54.2206 18.8039 54.4886 18.7006 54.7286 18.548C55.0296 18.432 55.3009 18.2504 55.5228 18.0163C55.7448 17.7823 55.9118 17.5017 56.0116 17.195L55.4986 18.152C52.811 21.062 50.7045 24.4589 49.2926 28.16L46.1196 25.827L48.6856 28.927L48.2426 25.661L50.3186 26.804L49.1526 26.571C49.6815 26.5255 50.2069 26.6915 50.6137 27.0326C51.0204 27.3738 51.2753 27.8622 51.3226 28.391C51.343 28.6607 51.3031 28.9316 51.2056 29.184C50.3077 31.745 49.7431 34.4109 49.5256 37.116C49.3197 39.8417 49.5005 42.5829 50.0626 45.258C51.2014 50.7093 53.7885 55.7528 57.5516 59.858C57.6298 59.9361 57.6917 60.0289 57.734 60.131C57.7763 60.2331 57.7981 60.3425 57.7981 60.453C57.7981 60.5635 57.7763 60.6729 57.734 60.775C57.6917 60.8771 57.6298 60.9699 57.5516 61.048C57.4735 61.1261 57.3807 61.1881 57.2786 61.2304C57.1765 61.2727 57.0671 61.2945 56.9566 61.2945C56.8461 61.2945 56.7367 61.2727 56.6346 61.2304C56.5325 61.1881 56.4398 61.1261 56.3616 61.048L55.8246 60.648H56.9676L55.4086 62.15V61.15L55.7356 61.477C55.8639 61.6079 55.9357 61.7838 55.9357 61.967C55.9357 62.1502 55.8639 62.3261 55.7356 62.457C55.6087 62.5838 55.4366 62.6551 55.2571 62.6551C55.0777 62.6551 54.9056 62.5838 54.7786 62.457L54.4516 62.13L55.5016 61.36C57.0416 64.789 58.5346 68.36 59.9806 71.742L59.7236 71.952L59.9566 71.719C58.0206 68.476 56.1566 65.187 54.3106 61.897C54.2419 61.7649 54.2203 61.6132 54.2497 61.4671C54.279 61.3211 54.3573 61.1894 54.4717 61.094C54.5862 60.9986 54.7298 60.9452 54.8787 60.9427C55.0277 60.9401 55.173 60.9886 55.2906 61.08L55.6176 61.36L54.7076 62.36L54.3346 62.06C54.2131 61.9303 54.1455 61.7592 54.1455 61.5815C54.1455 61.4038 54.2131 61.2327 54.3346 61.103L55.7576 59.47C55.8838 59.3266 56.0588 59.2352 56.2486 59.2136C56.4384 59.1919 56.6294 59.2416 56.7846 59.353L57.3916 59.82L56.2716 61.08C54.0289 59.1061 52.1013 56.8008 50.5556 54.244C48.9857 51.6684 47.7768 48.8894 46.9626 45.985C46.1554 43.0455 45.7848 40.0033 45.8626 36.956C46.0119 33.9097 46.5703 30.8974 47.5226 28L49.6456 30.59C49.2595 30.6401 48.8674 30.5666 48.5256 30.38L46.4256 29.307C45.9537 29.0673 45.5957 28.6508 45.4295 28.1482C45.2634 27.6456 45.3026 27.0978 45.5386 26.624C45.6458 26.402 45.7964 26.2037 45.9816 26.041L48.5476 29.167L45.3976 26.834C46.8751 22.5578 49.1484 18.5998 52.0976 15.169L51.6076 16.126C51.7657 15.5785 52.1188 15.1077 52.6002 14.8026C53.0816 14.4976 53.658 14.3792 54.2206 14.47L52.1206 15.17L52.3306 14.937L52.0736 15.264C55.926 9.26372 61.554 4.61448 68.1736 1.964C71.515 0.734566 75.0379 0.0708006 78.5976 0L81.2576 0C82.1328 0.0483707 83.005 0.141828 83.8706 0.28C85.5966 0.482691 87.3046 0.816998 88.9796 1.28C95.8275 2.99093 101.964 6.81094 106.523 12.2C110.932 17.6221 113.57 24.2671 114.082 31.237L112.006 30.327C112.489 30.012 113.063 29.8644 113.639 29.907C114.219 29.9758 114.764 30.22 115.202 30.607C115.743 31.1784 116.15 31.8639 116.392 32.613C116.772 33.8151 116.992 35.0623 117.045 36.322C117.279 41.0412 116.54 45.7582 114.875 50.18C114.464 51.2958 113.899 52.3482 113.195 53.306C112.848 53.8078 112.384 54.2165 111.842 54.496C111.559 54.6433 111.231 54.6819 110.922 54.6045C110.612 54.5271 110.342 54.3391 110.162 54.076L110.163 54.078Z" fill="url(#paint0_linear)"/>
<path d="M156.704 66.0919C156.14 64.4752 155.429 62.9134 154.581 61.4259C154.191 60.7403 153.738 60.0923 153.228 59.4899C153.155 59.3832 153.05 59.3019 152.928 59.2569C152.998 59.287 153.074 59.3026 153.15 59.3026C153.226 59.3026 153.301 59.287 153.371 59.2569C153.671 58.9999 153.558 59.0469 153.581 59.2569C153.593 59.3967 153.593 59.5371 153.581 59.6769L151.925 60.5639C152.742 61.0769 152.975 60.5639 152.925 60.6809V60.8679L152.598 61.5449L151.898 63.1079C151.641 63.6449 151.385 64.1809 151.081 64.7409C150.906 65.0541 150.703 65.3509 150.474 65.6279C150.346 65.8149 150.198 65.987 150.031 66.1409L149.844 66.3259C149.213 67.1717 148.629 68.0518 148.094 68.9619C147.511 69.9189 146.928 70.9219 146.414 71.8779L146.297 69.8249C146.589 70.1432 146.751 70.5595 146.751 70.9914C146.751 71.4233 146.589 71.8396 146.297 72.1579V72.2979C143.964 74.8639 141.421 77.1979 138.832 79.6239C137.558 80.825 136.219 81.9544 134.819 83.0069L130.386 86.3199C129.917 86.6545 129.341 86.8039 128.769 86.7393C128.197 86.6746 127.669 86.4006 127.286 85.9699C127.037 85.6695 126.875 85.3062 126.819 84.9199V84.6869L126.632 83.4739L127.425 84.9199C127.561 85.0478 127.719 85.1495 127.892 85.2199H128.242C128.011 85.267 127.773 85.267 127.542 85.2199C126.261 84.9753 124.969 84.796 123.669 84.6829C123.055 84.6505 122.44 84.6505 121.826 84.6829H122.013C122.173 84.6098 122.322 84.5156 122.456 84.4029C122.647 84.2775 122.807 84.1098 122.923 83.9129V83.7959V83.9129L122.596 84.7999C122.373 85.3362 121.957 85.7697 121.431 86.0157C120.904 86.2617 120.305 86.3024 119.75 86.1299C119.474 86.0335 119.22 85.8829 119.003 85.6869C117.51 84.3109 116.203 82.8169 114.827 81.3709L110.791 76.9849C108.225 73.9989 105.705 70.9659 103.326 67.8159L103.209 67.6529C103.055 67.4387 102.973 67.1816 102.973 66.9179C102.973 66.6542 103.055 66.3971 103.209 66.1829L103.609 65.6459L103.444 66.2509C103.584 64.1279 103.794 62.0279 103.981 59.9049C104.004 59.7506 104.069 59.6054 104.168 59.4849L106.844 56.3869L109.014 54.1709L107.334 56.7139L105.216 60.4509L105.403 59.9379C105.566 62.0609 105.753 64.1839 105.87 66.2839C105.868 66.4689 105.828 66.6516 105.753 66.8209L105.353 67.5679V65.9759L113.682 74.2349L122.057 82.1669L118.444 83.1509L118.817 82.0309L119.004 81.6579L119.121 81.4009L119.261 81.1909C119.261 81.1909 119.261 80.9809 119.798 80.5839C119.945 80.4647 120.111 80.3701 120.288 80.3039H123.857C125.365 80.3732 126.867 80.5291 128.357 80.7709H127.634C127.851 80.7476 128.07 80.7476 128.287 80.7709L128.987 80.9109L129.454 81.0739C129.801 81.183 130.119 81.3663 130.387 81.6109C130.599 81.7737 130.777 81.9773 130.909 82.2097C131.041 82.442 131.126 82.6984 131.157 82.9639L131.32 84.1539L127.727 82.5679C130.363 80.4919 133.027 78.5789 135.682 76.3619C138.337 74.1449 140.861 71.9059 143.427 69.6899L143.24 72.1399V71.9999C143.047 71.7142 142.943 71.377 142.943 71.0319C142.943 70.6868 143.047 70.3496 143.24 70.0639C143.917 69.0639 144.57 68.1279 145.293 67.1709C145.977 66.1489 146.758 65.1958 147.626 64.3249C147.763 64.1795 147.911 64.0457 148.069 63.9249L148.209 63.8079C148.368 63.6548 148.516 63.4911 148.652 63.3179C148.972 62.8831 149.268 62.4315 149.539 61.9649L150.472 60.4719C150.652 60.2042 150.846 59.9471 151.055 59.7019C151.175 59.5157 151.325 59.3502 151.498 59.2119C151.644 59.0672 151.819 58.9556 152.011 58.8849C152.181 58.8516 152.355 58.8516 152.524 58.8849C152.785 58.914 153.035 59.0105 153.247 59.1649L151.567 60.0519C151.546 59.7723 151.546 59.4915 151.567 59.2119C151.592 58.9661 151.67 58.7286 151.795 58.5154C151.919 58.3022 152.088 58.1182 152.29 57.9759C152.604 57.8049 152.973 57.763 153.317 57.8589C153.507 57.9235 153.681 58.0255 153.83 58.1589C154.073 58.3355 154.279 58.5572 154.437 58.8119C154.918 59.5862 155.302 60.4168 155.58 61.2849C156.142 62.8378 156.519 64.4511 156.704 66.0919Z" fill="#FFFFD8"/>
<path d="M5.78234 69.2892C4.80234 68.5192 5.24534 67.0962 6.03934 66.3032C6.38818 65.9612 6.85727 65.7695 7.34584 65.7695C7.83442 65.7695 8.30351 65.9612 8.65234 66.3032C8.75219 66.4003 8.83863 66.5103 8.90934 66.6302L9.51634 67.6572C9.62761 67.8428 9.69912 68.0495 9.72634 68.2642V68.8242C9.76021 69.2899 9.6325 69.7531 9.36473 70.1356C9.09696 70.5181 8.70551 70.7967 8.25634 70.9242C7.99129 71.0133 7.7044 71.0133 7.43934 70.9242C7.28859 70.8481 7.14758 70.7541 7.01934 70.6442C6.89975 70.4601 6.72963 70.3143 6.52934 70.2242L5.15234 69.9892C5.17827 69.8241 5.2516 69.67 5.36344 69.5457C5.47529 69.4215 5.62081 69.3324 5.78234 69.2892ZM5.78234 69.2892C5.91274 69.3673 6.06187 69.4085 6.21384 69.4085C6.36582 69.4085 6.51495 69.3673 6.64534 69.2892L5.33934 69.0092C5.32015 68.6722 5.38438 68.3356 5.52634 68.0292C5.60822 67.8037 5.70856 67.5853 5.82634 67.3762C6.01826 67.038 6.30228 66.7613 6.64534 66.5782L5.19934 69.2382C5.14095 69.0163 5.14095 68.7831 5.19934 68.5612L8.67534 69.9612C7.80318 69.4444 6.79327 69.2081 5.78234 69.2842V69.2892Z" fill="#FFFFD8"/>
<path d="M7.74451 70.1287C8.34586 70.2494 8.91204 70.5048 9.40051 70.8757C9.65068 71.0498 9.85256 71.2845 9.98723 71.5578C10.1219 71.8312 10.185 72.1343 10.1705 72.4387C10.1806 72.774 10.1119 73.1069 9.97 73.4108C9.82812 73.7147 9.61698 73.9812 9.35351 74.1887C9.11239 74.3803 8.83574 74.5222 8.5395 74.6063C8.24327 74.6904 7.93331 74.715 7.62751 74.6787C7.31145 74.6471 7.00342 74.5601 6.71751 74.4217C6.31072 74.2212 5.95244 73.9346 5.66751 73.5817C5.34109 73.2337 5.12923 72.7939 5.06051 72.3217L4.92051 70.5957C4.89223 70.4851 4.89705 70.3686 4.93438 70.2607C4.97172 70.1528 5.03991 70.0582 5.13051 69.9887C5.63452 69.6485 6.22297 69.4546 6.83051 69.4287C7.39451 69.5457 7.74451 69.7787 7.74451 70.1287ZM7.74451 70.1287C7.58724 70.3762 7.49052 70.6573 7.4622 70.9492C7.43388 71.2411 7.47476 71.5356 7.58151 71.8087C7.6421 71.938 7.72967 72.0528 7.83834 72.1455C7.94701 72.2381 8.07425 72.3064 8.21151 72.3457V70.1987C8.44597 70.2692 8.67277 70.363 8.88851 70.4787C8.88851 70.4787 9.00551 70.4787 8.63151 70.2917C8.41992 70.1866 8.19008 70.1231 7.95451 70.1047C7.41941 70.0647 6.88822 70.2224 6.46151 70.5477C5.62151 71.3407 5.78451 71.7607 5.76151 71.8537C5.73851 71.9467 6.08851 71.6667 6.36851 71.3637C6.76653 70.8891 7.2298 70.4733 7.74451 70.1287Z" fill="#FFFFD8"/>
<path d="M7.01846 65.3225C7.01846 64.9955 7.53146 64.9025 8.04546 65.2055C8.60951 65.5488 9.03792 66.0762 9.25846 66.6985C9.28123 66.7417 9.29313 66.7897 9.29313 66.8385C9.29313 66.8873 9.28123 66.9354 9.25846 66.9785L7.99846 68.9855C7.91578 69.1457 7.80029 69.2866 7.65952 69.3991C7.51875 69.5116 7.35586 69.5932 7.18146 69.6385L6.64446 69.7785C6.21345 69.8977 5.75684 69.8869 5.33194 69.7475C4.90704 69.6081 4.53278 69.3463 4.25612 68.995C3.97945 68.6437 3.81272 68.2185 3.77685 67.7727C3.74097 67.327 3.83755 66.8806 4.05446 66.4895C4.43487 65.7861 5.0447 65.2342 5.78246 64.9255C6.31846 64.7625 6.85546 64.8795 7.01846 65.3225ZM7.01846 65.3225C6.88161 65.7664 6.83762 66.2337 6.88923 66.6953C6.94084 67.1569 7.08695 67.6029 7.31846 68.0055C7.69146 68.5185 8.04146 68.6125 8.08846 68.7285L4.84946 65.6025C5.30863 65.3306 5.83183 65.1857 6.36546 65.1825L5.08246 67.5155C5.43131 67.5576 5.78301 67.4645 6.06546 67.2555C6.36803 67.0337 6.61264 66.7422 6.77854 66.4057C6.94444 66.0692 7.02674 65.6976 7.01846 65.3225Z" fill="#FFFFD8"/>
<path d="M12.1106 79.1567C12.1106 79.1567 3.71057 74.1877 2.93857 72.8347C2.16657 71.4817 4.82857 64.3197 6.20457 63.2697C7.58057 62.2197 7.39457 65.2527 5.76157 67.9357C5.13157 68.9857 7.48757 72.8817 7.95457 72.2517C8.42157 71.6217 6.50857 66.2097 7.02157 64.5517C7.53457 62.8937 9.35457 68.4007 10.7306 69.4977C12.3304 71.3454 13.7448 73.3456 14.9536 75.4697L12.1106 79.1567Z" fill="#27061B"/>
<path d="M147.581 74.4686C147.581 74.4686 134.381 106.057 123.668 105.869C121.355 105.792 119.083 105.236 116.996 104.236C112.08 101.653 107.831 97.963 104.584 93.4576C104.584 93.4576 105.331 99.7576 106.384 105.403C106.641 106.756 106.921 108.086 107.201 109.276C108.531 114.595 114.48 120.638 114.48 120.638C114.48 120.638 98.0089 137.482 90.6799 138.345H90.2129C83.0739 138.531 58.6719 125.769 58.6719 125.769C58.6719 125.769 61.3319 116.227 62.1719 110.931C62.2889 110.161 62.4049 109.321 62.4719 108.598C62.7856 105.271 62.9191 101.93 62.8719 98.5896V95.2076C62.4289 95.6506 50.9039 109.649 41.3149 109.649C31.7259 109.649 12.7119 80.1126 12.1289 79.1796L14.9519 75.4686C16.4679 76.5436 32.5189 87.6686 36.9979 88.5116C37.2576 88.582 37.5313 88.582 37.7909 88.5116C40.9909 87.4116 51.0189 79.1796 57.3649 73.6976L57.5049 73.5576L59.5809 71.7846L60.8169 70.7116L62.7529 69.0116L88.4159 67.0516L103.416 65.9316C103.416 65.9316 113.539 77.5936 119.912 83.3556C121.127 84.6645 122.595 85.7125 124.228 86.4356C127.891 87.1586 144.828 70.6416 144.828 70.6416L147.581 74.4686Z" fill="url(#paint1_linear)"/>
<path opacity="0.35" d="M147.583 74.6543C144.007 83.1811 139.459 91.2663 134.028 98.7493C133.188 99.8223 132.278 100.825 131.415 101.735C129.47 104.069 126.691 105.552 123.67 105.869C113.032 105.682 104.586 93.4583 104.586 93.4583C104.586 93.4583 105.706 103.116 107.2 109.275C108.53 114.594 114.479 120.637 114.479 120.637C114.479 120.637 98.0068 137.481 90.6818 138.349L76.6818 131.933C76.6818 131.933 77.1488 102.304 72.9258 91.8333C69.6353 84.5307 65.2196 77.7894 59.8398 71.8553L88.6518 67.1893L103.652 66.0693C103.652 66.0693 120.776 85.8293 124.462 86.5763C126.198 86.3481 127.825 85.6 129.128 84.4303C134.705 80.228 140.004 75.6691 144.992 70.7823L147.583 74.6543Z" fill="#9A313B"/>
<path opacity="0.35" d="M117.066 104.236C113.017 102.191 109.434 99.3314 106.544 95.836C105.331 94.436 104.654 93.503 104.654 93.503C104.669 94.6342 104.46 95.7572 104.04 96.8076C103.62 97.8579 102.996 98.8148 102.205 99.6233C101.413 100.432 100.47 101.076 99.4291 101.519C98.388 101.961 97.2698 102.194 96.1385 102.203C79.9445 103 57.6445 73.674 57.6445 73.674L59.7205 71.901L63.0105 69.078L88.6735 67.118L101.365 66.161L103.698 65.998C103.698 65.998 106.871 69.661 110.698 73.86C113.777 77.219 117.298 80.86 120.03 83.425C120.217 85.385 120.403 87.625 120.497 89.817C120.233 94.7911 119.07 99.6763 117.066 104.236Z" fill="url(#paint2_linear)"/>
<path opacity="0.35" d="M62.8009 95.1147C62.4279 95.6517 50.9009 109.649 41.3139 109.649C31.7269 109.649 12.7119 80.1137 12.1289 79.1797L14.9519 75.4707C16.4679 76.5437 32.5189 87.6707 36.9989 88.5117C37.9837 90.7216 39.5326 92.6334 41.4901 94.0552C43.4477 95.477 45.7448 96.3587 48.1509 96.6117C53.0848 97.02 58.0518 96.5138 62.8019 95.1187L62.8009 95.1147Z" fill="#9A313B"/>
<path d="M12.1075 79.157C12.1075 79.157 2.49547 74.234 2.35547 72.975C2.53901 71.1564 3.42657 69.4818 4.82847 68.309C5.99447 67.562 8.00147 66.509 8.44447 66.979C8.88747 67.449 6.27447 68.703 5.66847 69.312C5.33484 69.7904 5.0605 70.3075 4.85147 70.852C5.24595 70.2497 5.72521 69.7074 6.27447 69.242C7.30147 68.705 8.74747 68.192 9.00447 68.495C9.26147 68.798 7.20447 70.361 6.67147 71.155C6.13847 71.949 11.1045 75.214 11.8555 76.403C12.0884 76.8184 12.2316 77.278 12.2759 77.7522C12.3202 78.2264 12.2645 78.7046 12.1125 79.156L12.1075 79.157Z" fill="#451533"/>
<path d="M147.58 74.6558C147.58 74.6558 155.98 69.6868 156.749 68.3338C157.518 66.9808 154.883 59.8188 153.483 58.7688C152.083 57.7188 152.293 60.7518 153.95 63.4348C154.58 64.4848 152.224 68.3808 151.757 67.7508C151.29 67.1208 153.203 61.6388 152.737 59.9818C152.271 58.3248 150.404 63.8308 149.004 64.9278C147.365 66.7625 145.911 68.7549 144.664 70.8758L147.58 74.6558Z" fill="#27061B"/>
<path d="M147.582 74.655C147.582 74.655 157.194 69.731 157.336 68.473C157.152 66.6545 156.265 64.9798 154.863 63.807C153.697 63.06 151.714 62.007 151.27 62.477C150.826 62.947 153.416 64.203 154.046 64.81C154.365 65.2931 154.631 65.8095 154.839 66.35C154.444 65.7477 153.965 65.2055 153.416 64.74C152.389 64.203 151.083 63.69 150.686 63.993C150.289 64.296 152.506 65.859 153.019 66.653C153.532 67.447 148.61 70.712 147.84 71.902C147.613 72.3198 147.474 72.779 147.429 73.2521C147.385 73.7253 147.437 74.2024 147.582 74.655Z" fill="#451533"/>
<path d="M70.149 91.5445C69.207 97.7988 66.5504 103.67 62.474 108.506V107.433L62.334 102.184C63.0549 96.7168 63.0549 91.1792 62.334 85.7125C61.7716 83.2156 60.9909 80.7728 60.001 78.4125C59.3858 76.7811 58.604 75.2175 57.668 73.7465L57.808 73.6065L59.884 71.8335L61.004 70.8535H61.258L64.221 71.4835L71.358 73.0215C71.4909 73.9571 71.5687 74.8998 71.591 75.8445C71.6632 81.114 71.1799 86.3764 70.149 91.5445Z" fill="#451533"/>
<path d="M107.035 83.9863C106.428 87.5842 106.24 91.2402 106.475 94.8813V95.8613C106.615 98.5443 106.848 100.527 106.848 100.527L106.708 106.896C106.708 106.896 106.148 106.266 105.425 105.333C102.137 100.772 99.9565 95.5088 99.0548 89.9593C97.7535 83.8283 97.3917 77.5351 97.9818 71.2953L101.182 66.2093H101.415L103.491 66.0693C103.491 66.0693 106.664 69.7323 110.491 73.9313C108.89 77.1116 107.727 80.494 107.035 83.9863Z" fill="#451533"/>
<path d="M70.1511 91.5455C69.2091 97.7998 66.5525 103.671 62.4761 108.507V107.433C65.4343 103.545 67.4975 99.0519 68.5181 94.2745C70.5011 85.8295 69.7541 82.2595 69.7541 82.2595C66.3558 81.3407 63.0693 80.0499 59.9541 78.4105C59.3389 76.7791 58.5571 75.2155 57.6211 73.7445L57.7611 73.6045L59.8371 71.8315L60.9571 70.8515H61.2141L62.4501 70.4785L64.1761 71.4785L71.5481 75.8415C71.6342 81.1095 71.1649 86.3719 70.1481 91.5415L70.1511 91.5455Z" fill="#27061B"/>
<path d="M107.033 83.9863C106.426 87.5842 106.238 91.2402 106.473 94.8813L103.417 98.6813C100.965 93.3165 99.5407 87.5398 99.2167 81.6503C99.0357 76.4035 99.8267 71.1685 101.55 66.2093L103.626 66.0693C103.626 66.0693 106.799 69.7323 110.626 73.9313C108.978 77.1046 107.769 80.4872 107.033 83.9863Z" fill="#27061B"/>
<path d="M109.066 45.2603C108.256 48.9142 106.776 52.3867 104.703 55.5023C103.382 57.5243 101.815 59.3739 100.037 61.0083C95.1955 65.5414 89.0292 68.4041 82.4421 69.1765C75.855 69.9488 69.1937 68.5902 63.4353 65.2998C57.6768 62.0094 53.1242 56.9605 50.445 50.8935C47.7659 44.8265 47.1013 38.0606 48.5487 31.5883C48.8479 30.3009 49.2219 29.0321 49.6687 27.7883C52.3899 20.404 57.8154 14.3297 64.8466 10.795C71.8778 7.26042 79.9895 6.5296 87.5393 8.75056C95.0891 10.9715 101.513 15.9783 105.51 22.7572C109.507 29.5362 110.779 37.5808 109.069 45.2623L109.066 45.2603Z" fill="url(#paint3_radial)"/>
<path d="M111.489 45.3762C110.672 49.0275 109.193 52.4985 107.127 55.6182C105.793 57.6366 104.227 59.4921 102.461 61.1472C97.6193 65.6838 91.4505 68.5488 84.8605 69.3216C78.2704 70.0944 71.6062 68.7342 65.846 65.4408C60.0858 62.1474 55.5331 57.0942 52.8561 51.023C50.1791 44.9518 49.5189 38.1823 50.9723 31.7082C51.2539 30.4482 51.6214 29.209 52.0723 27.9992C54.7935 20.615 60.219 14.5406 67.2502 11.006C74.2815 7.47135 82.3931 6.74054 89.9429 8.9615C97.4927 11.1825 103.917 16.1892 107.914 22.9682C111.911 29.7471 113.183 37.7917 111.472 45.4732L111.489 45.3762Z" fill="#451533"/>
<path d="M114.616 42.8104C113.735 45.728 112.497 48.5255 110.93 51.1394C105.693 60.0312 97.1675 66.5044 87.1958 69.1588C77.2241 71.8131 66.6083 70.4353 57.6445 65.3234C60.3471 58.0712 65.6418 52.0782 72.5055 48.5024C78.7776 44.7619 85.7417 42.3293 92.9786 41.3511C100.215 40.3729 107.576 40.8692 114.616 42.8104Z" fill="url(#paint4_linear)"/>
<path d="M83.2372 29.8153C83.4942 32.1483 77.4282 34.7843 69.7062 35.6013C61.9842 36.4183 55.4982 35.1813 55.2422 32.8253C54.9862 30.4693 61.0512 27.8563 68.7732 27.0163C76.4952 26.1763 82.9802 27.4363 83.2372 29.8153Z" fill="white"/>
<path d="M57.388 38.1905C57.4032 39.0352 57.1018 39.855 56.543 40.4887C55.9842 41.1224 55.2085 41.5241 54.3685 41.6147C53.5286 41.7053 52.6851 41.4784 52.004 40.9785C51.3228 40.4786 50.8534 39.742 50.688 38.9135C50.6729 38.0688 50.9743 37.2489 51.5331 36.6152C52.0919 35.9816 52.8676 35.5799 53.7075 35.4893C54.5475 35.3986 55.391 35.6256 56.0721 36.1254C56.7532 36.6253 57.2227 37.362 57.388 38.1905Z" fill="white"/>
<path opacity="0.35" d="M49.3867 28.5788C49.3867 28.5788 79.2017 24.8698 89.4667 38.4938C92.4349 42.4644 94.2677 47.1674 94.769 52.0994C95.2703 57.0315 94.4213 62.0071 92.3127 66.4937L100.828 61.5938L108.573 43.6998L103.907 22.6998L70.0097 16.8438L49.3867 28.5788Z" fill="#9A313B"/>
<path d="M79.0638 55.4321C78.9854 55.926 78.7623 56.3855 78.4228 56.7525C78.0833 57.1195 77.6425 57.3777 77.1563 57.4942C76.67 57.6107 76.1601 57.5805 75.6911 57.4072C75.2221 57.234 74.815 56.9255 74.5212 56.5209C74.2275 56.1162 74.0604 55.6336 74.041 55.1339C74.0216 54.6343 74.1508 54.1401 74.4122 53.7139C74.6737 53.2877 75.0556 52.9486 75.5098 52.7395C75.964 52.5304 76.47 52.4607 76.9638 52.5391C77.6259 52.6444 78.2191 53.0082 78.6129 53.5508C79.0067 54.0933 79.1689 54.77 79.0638 55.4321Z" fill="url(#paint5_radial)"/>
<path d="M49.3891 28.579L47.2891 27.479C47.2891 27.479 53.4951 21.763 73.4651 20.479C92.8521 19.219 103.794 24.305 103.794 24.305C106.747 30.977 108.273 38.1927 108.273 45.489C108.273 57.784 101.647 63.289 101.647 63.289L96.7471 63.872C101.382 59.894 104.272 54.2572 104.796 48.172C105.645 40.8027 104.467 33.3417 101.39 26.592C101.39 26.592 74.6781 17.101 49.3891 28.579Z" fill="#FFFFEA"/>
<path d="M111.282 46.3092C110.17 51.2747 107.936 55.9194 104.75 59.8872L104.073 60.6572L103.396 61.4272V61.5442C102.859 62.1272 102.276 62.7102 101.696 63.2442C103.12 61.2625 104.179 59.0423 104.822 56.6882C105.876 53.1669 106.511 49.5334 106.712 45.8632C107.342 33.2422 102.676 26.3362 102.676 26.3362C102.676 26.3362 101.043 25.7532 98.3131 24.9602C88.9117 22.2167 79.1208 21.0499 69.3381 21.5072C53.4291 22.7932 47.6391 27.2022 47.2891 27.4822C48.7226 23.5052 50.891 19.8332 53.6811 16.6572C57.5946 12.2931 62.5811 9.02812 68.1461 7.18621L68.7991 6.99921C74.391 5.24155 80.3507 5.00784 86.0631 6.32221L87.3461 6.62221C92.7732 8.06557 97.7431 10.8677 101.787 14.7642C105.965 18.7501 109.037 23.752 110.702 29.2809C112.367 34.8097 112.569 40.6761 111.287 46.3062L111.282 46.3092Z" fill="url(#paint6_linear)"/>
<path d="M104.075 60.6569C103.291 64.3655 101.317 67.7163 98.4525 70.1989C97.4461 70.9768 96.3192 71.5848 95.1165 71.9989C86.1795 74.9779 64.9745 70.9689 64.9745 70.9689L54.8945 61.4969L56.3875 59.9339C56.3875 59.9339 63.1535 66.5339 76.6875 66.0699C81.7247 65.9464 86.7163 65.0818 91.5015 63.5039C95.3454 62.3855 98.8653 60.3624 101.767 57.6039L104.753 56.6709C104.642 58.0167 104.415 59.3504 104.075 60.6569Z" fill="#FFFFEA"/>
<path d="M104.746 56.668V66.233C103.032 69.0727 100.82 71.5796 98.2145 73.633C94.094 76.9604 89.1552 79.1197 83.9145 79.885C68.5635 82.218 60.9585 73.516 60.9585 73.516L54.9375 61.521C55.3375 61.894 64.4375 70.853 82.9375 68.403C87.4964 67.8779 91.94 66.6172 96.0955 64.67C102.954 61.357 104.33 57.67 104.844 56.715L104.746 56.668Z" fill="url(#paint7_linear)"/>
<path opacity="0.35" d="M111.279 46.3089C110.159 51.2762 107.916 55.921 104.723 59.8869V66.2329C103.009 69.0727 100.796 71.5796 98.1907 73.6329C97.1907 69.5269 96.1847 64.7209 95.9977 64.6739C94.4663 64.5029 92.9664 64.1182 91.5417 63.5309C95.3821 62.4114 98.9007 60.3938 101.807 57.6449L104.77 56.6879C105.845 53.1707 106.487 49.5356 106.683 45.8629C107.5 33.2419 102.81 26.3359 102.81 26.3359C102.81 26.3359 101.177 25.7529 98.4467 24.9829C94.5314 19.2433 89.1616 14.6469 82.8867 11.6639C78.4053 9.59997 73.7104 8.03522 68.8867 6.99791C74.4833 5.259 80.4407 5.03369 86.1527 6.34491L87.4127 6.64491C92.776 8.2579 97.7155 11.0385 101.877 14.7869C106.038 18.7783 109.091 23.7813 110.739 29.3066C112.387 34.8319 112.573 40.6903 111.279 46.3089Z" fill="#9A313B"/>
<path d="M112.729 31.4712V31.6112L109.02 41.5732C109.03 41.4334 109.03 41.293 109.02 41.1532C108.861 39.834 108.595 38.5298 108.227 37.2532C107.994 36.4132 107.737 35.4332 107.387 34.4072C105.435 27.863 101.873 21.9126 97.0278 17.1002C96.4862 16.5431 95.9097 16.0211 95.3018 15.5372C92.4737 13.212 89.2579 11.4036 85.8018 10.1952C80.9332 8.35883 75.6793 7.78313 70.5286 8.52163C65.3778 9.26012 60.4973 11.2888 56.3408 14.4192C55.5123 15.0689 54.7326 15.7785 54.0078 16.5422C57.2489 11.434 61.929 7.39899 67.4587 4.94528C72.9884 2.49156 79.1205 1.72886 85.0828 2.75321C90.204 3.5705 95.0846 5.49748 99.3828 8.39921L99.6628 8.58621C103.3 11.2737 106.339 14.6872 108.588 18.6106C110.838 22.5339 112.248 26.8816 112.729 31.3782V31.4712Z" fill="#451533"/>
<path d="M108.225 45.4692C108.077 46.2648 107.858 47.0455 107.572 47.8022C108.19 44.5338 108.301 41.1894 107.899 37.8872C107.782 36.7028 107.595 35.5264 107.339 34.3642C105.799 27.6457 102.173 21.5867 96.9797 17.0542C96.4069 16.5247 95.806 16.0263 95.1797 15.5612C89.1809 10.9679 81.7879 8.5712 74.2351 8.7714C66.6823 8.97159 59.4267 11.7565 53.6797 16.6612C54.3797 15.8682 55.1257 15.1212 55.8957 14.3282C59.4132 11.0726 63.5906 8.6125 68.1437 7.11525C72.9822 6.01757 78.0052 6.01757 82.8437 7.11525C88.238 8.31915 93.2681 10.7903 97.5177 14.3242C103.839 19.4768 107.898 26.8938 108.831 34.9952C109.041 37.0505 109.041 39.122 108.831 41.1772C108.844 41.2624 108.844 41.3491 108.831 41.4342C108.811 41.9275 108.757 42.4187 108.668 42.9042C108.575 43.7192 108.411 44.5832 108.225 45.4692Z" fill="#451533"/>
<path d="M110.159 54.0777C109.953 54.1903 109.717 54.239 109.482 54.2177C107.522 53.9847 106.496 48.5717 107.149 42.1097C107.298 40.7218 107.524 39.3433 107.826 37.9807L108.036 37.2107C108.22 36.4162 108.461 35.6364 108.759 34.8777C109.646 32.5447 110.789 31.1447 111.885 31.2617C112.091 31.2647 112.289 31.339 112.445 31.4717C112.467 31.4613 112.491 31.4559 112.515 31.4559C112.54 31.4559 112.564 31.4613 112.585 31.4717C114.101 32.6617 114.918 37.1177 114.265 42.7637C113.612 48.4097 112.002 53.2577 110.159 54.0777Z" fill="#451533"/>
<path d="M111.005 54.5448C110.675 54.5039 110.374 54.3365 110.165 54.0778C108.812 52.6548 108.159 48.1288 108.695 42.8558V41.3858V41.1758C109.372 36.5098 110.818 32.7068 112.311 31.5408L112.521 31.4008C112.772 31.2242 113.078 31.1417 113.384 31.1678C115.344 31.3778 116.347 36.7898 115.717 43.2528C115.087 49.7158 112.961 54.7548 111.005 54.5448Z" fill="#451533"/>
<path opacity="0.65" d="M111.002 54.5448C110.672 54.5038 110.371 54.3364 110.162 54.0778C109.955 54.1904 109.719 54.2392 109.485 54.2178C107.525 53.9848 106.499 48.5718 107.152 42.1098C107.3 40.7219 107.526 39.3434 107.829 37.9808C107.739 36.7666 107.575 35.5591 107.339 34.3648C105.387 27.8192 101.826 21.8673 96.9797 17.0538C96.4069 16.5242 95.806 16.0258 95.1797 15.5608L97.6337 14.4388L99.3837 8.4668L99.6637 8.6538C103.301 11.3418 106.34 14.7559 108.589 18.6798C110.838 22.6036 112.247 26.9518 112.728 31.4488C112.979 31.272 113.285 31.1895 113.591 31.2158C115.551 31.4258 116.554 36.8378 115.924 43.3008C115.294 49.7638 112.961 54.7548 111.002 54.5448Z" fill="#9A313B"/>
<path d="M58.3438 120.474L60.3037 117.068C66.5319 120.2 72.5692 123.698 78.3838 127.543C82.8632 130.281 86.9785 133.573 90.6317 137.343L58.3438 120.474Z" fill="#451533"/>
<path d="M114.499 119.494L93.9461 134.868L90.7031 137.201C93.2075 132.775 96.3514 128.742 100.033 125.233C103.682 121.72 107.581 118.477 111.7 115.528L112.073 116.018L114.499 119.494Z" fill="#451533"/>
<path d="M114.498 119.494L93.9453 134.868C95.5799 131.882 97.5969 129.121 99.9453 126.656C103.629 122.81 107.631 119.283 111.909 116.111L114.498 119.494Z" fill="#27061B"/>
<path d="M110.908 115.224C110.908 115.224 96.5844 113.871 83.9634 113.946C76.2036 114.003 68.4562 114.579 60.7734 115.672L60.8904 114.995L61.6334 109.646C69.3623 108.542 77.1564 107.957 84.9634 107.896H87.7394C94.7698 107.832 101.794 108.347 108.739 109.436L110.908 115.224Z" fill="#27061B"/>
<path d="M93.5487 113.125C93.5487 113.125 88.8827 112.915 78.1977 113.288C72.3955 113.461 66.6118 114.029 60.8867 114.988L61.6337 109.649C69.3626 108.545 77.1567 107.961 84.9637 107.899H87.7397L93.5487 113.125Z" fill="#451533"/>
<path d="M50.2728 107.643C49.9498 107.934 49.598 108.192 49.2228 108.413C46.7403 109.981 43.8541 110.792 40.9178 110.746C36.7648 110.396 34.4318 109.02 34.1058 108.413C33.7798 107.806 34.1058 86.9956 34.1058 86.9956C34.3489 86.6985 34.6614 86.466 35.0158 86.3186C37.1805 85.6295 39.4209 85.2064 41.6878 85.0586C42.3648 85.3166 51.1128 106.8 50.2728 107.643Z" fill="url(#paint8_radial)"/>
<path opacity="0.65" d="M49.2228 108.413C46.7404 109.982 43.8542 110.793 40.9178 110.746C36.7648 110.396 34.4318 109.02 34.1058 108.413C33.7798 107.806 34.1058 86.9963 34.1058 86.9963C34.3478 86.7001 34.659 86.468 35.0118 86.3203C35.0118 86.3203 40.3778 90.9863 43.1308 93.8093C45.8838 96.6323 48.6388 106.5 49.2228 108.413Z" fill="#9A313B"/>
<path d="M115.41 105.824C115.772 106.081 116.163 106.293 116.576 106.454C119.23 107.67 122.182 108.084 125.068 107.644C129.151 106.804 131.297 105.144 131.554 104.401C131.811 103.658 128.918 83.1483 128.918 83.1483C128.604 82.9942 128.266 82.8929 127.918 82.8483C125.68 82.4419 123.402 82.2932 121.129 82.4053C120.519 82.6813 114.477 104.984 115.41 105.824Z" fill="url(#paint9_radial)"/>
<path opacity="0.65" d="M116.668 106.453C119.322 107.668 122.274 108.082 125.16 107.643C129.243 106.803 131.389 105.143 131.646 104.4C131.903 103.657 129.01 83.1467 129.01 83.1467C128.695 82.9926 128.357 82.8913 128.01 82.8467C128.01 82.8467 123.344 88.0467 120.848 91.2917C118.352 94.5367 116.878 104.47 116.668 106.453Z" fill="#9A313B"/>
<path opacity="0.35" d="M134.028 98.66C133.188 99.733 132.278 100.736 131.415 101.646L129.082 84.29L134.028 98.66Z" fill="#9A313B"/>
<path d="M104.749 146.18L101.763 148.816C101.763 148.816 98.1698 148.443 92.8278 147.673C89.6788 147.23 85.8278 146.646 81.9798 145.923C73.7286 144.556 65.6103 142.481 57.7148 139.721C51.3466 137.036 45.8019 132.713 41.6428 127.193C39.3098 123.81 38.2138 120.593 39.7528 118.514C42.7628 114.385 58.5798 119.727 70.4528 125.676C75.9348 128.452 84.0078 133.305 91.0058 137.644L100.128 143.336L102.461 144.829L104.304 146.019L104.749 146.18Z" fill="url(#paint10_linear)"/>
<path d="M121.335 157.265C120.355 158.222 114.569 157.895 110.86 156.355C109.894 155.928 108.979 155.396 108.13 154.769C105.214 152.693 102.23 149.73 99.8707 149.31L89.4677 147.257L87.5547 146.977L92.3837 138.508C92.3837 138.508 97.2127 141.588 100.899 143.687C101.999 144.34 103.022 144.877 103.745 145.227C104.061 145.392 104.397 145.518 104.745 145.6C108.652 146.282 112.415 147.623 115.873 149.566C119.867 151.946 122.335 156.308 121.335 157.265Z" fill="#27061B"/>
<path opacity="0.35" d="M91.9153 138.181L82.3033 145.623L81.9033 145.923C73.6541 144.555 65.5378 142.48 57.6443 139.721C51.2754 137.035 45.7299 132.713 41.5703 127.193C50.0472 127.061 58.5224 127.545 66.9293 128.639C75.3989 130.283 83.5355 133.327 91.0053 137.644L91.9153 138.181Z" fill="#502EFF"/>
<path d="M108.18 154.769C105.264 152.693 102.28 149.73 99.9206 149.31L89.5156 147.257L100.901 143.594C102.001 144.247 103.024 144.784 103.747 145.134L108.18 154.769Z" fill="#451533"/>
<path d="M119.004 138.205C113.705 140.604 108.249 142.639 102.673 144.294L97.19 145.95L92.944 147.163C87.415 148.749 83.332 149.823 83.332 149.823L81 146.37L82 145.437L82.3 145.137C84.026 143.527 87.246 140.471 91 137.158C96.6592 131.966 102.58 127.066 108.739 122.478C115.524 117.747 123.265 114.561 131.415 113.146C134.658 112.796 137.271 113.146 138.601 114.732C142.334 118.748 131.509 131.929 119.004 138.205Z" fill="url(#paint11_linear)"/>
<path opacity="0.35" d="M119.004 138.204C113.705 140.604 108.249 142.638 102.673 144.293L97.1908 145.949L96.0938 144.644C96.0938 144.644 97.7267 143.991 100.2 142.918C106.172 140.305 116.9 135.313 120.5 131.533C125.329 126.494 130.882 114.596 131.488 113.266C134.731 112.916 137.344 113.266 138.674 114.852C142.333 118.744 131.508 131.928 119.004 138.204Z" fill="url(#paint12_linear)"/>
<path d="M97.7498 145.74C97.7498 145.74 86.6258 149.263 83.2628 150.173C79.8998 151.083 79.3198 154.839 72.9048 158.922C66.4898 163.005 61.2398 163.401 60.8898 162.935C60.0728 161.489 60.7028 157.149 65.2758 153.09C69.8488 149.031 73.3758 148.307 76.5678 146.651C79.7598 144.995 87.6258 139.978 88.6748 139.278L90.3748 140.538L97.7498 145.74Z" fill="#27061B"/>
<path d="M87.9727 139.698L95.5547 146.44L97.7707 145.74L88.7197 139.231L87.9727 139.698Z" fill="#451533"/>
<path d="M90.4451 140.468C84.4149 144.353 78.1854 147.92 71.7821 151.153C64.9001 154.256 61.0031 162.818 61.0031 162.818C60.1861 161.372 60.8161 157.032 65.3891 152.973C69.9621 148.914 73.4891 148.19 76.6811 146.534C79.8731 144.878 87.6231 139.978 88.6721 139.278L90.4721 140.468H90.4451Z" fill="white"/>
<path opacity="0.28" d="M151.058 167.727C151.058 170.06 120.729 171.95 83.4021 171.95C46.0751 171.95 15.7461 170.06 15.7461 167.727C15.7461 165.394 46.0751 163.504 83.4061 163.504C120.737 163.504 151.058 165.394 151.058 167.727Z" fill="#610431"/>
<defs>
<linearGradient id="paint0_linear" x1="81.2075" y1="0" x2="81.2075" y2="71.952" gradientUnits="userSpaceOnUse">
<stop offset="0.03" stop-color="#FCF9DB"/>
<stop offset="0.45" stop-color="#659AAF"/>
<stop offset="0.65" stop-color="#669CB0"/>
<stop offset="0.75" stop-color="#6BA4B1"/>
<stop offset="0.83" stop-color="#74B1B5"/>
<stop offset="0.89" stop-color="#80C4B9"/>
<stop offset="0.95" stop-color="#8FDCBF"/>
<stop offset="1" stop-color="#A0F6C6"/>
</linearGradient>
<linearGradient id="paint1_linear" x1="79.8549" y1="65.9316" x2="79.8549" y2="138.347" gradientUnits="userSpaceOnUse">
<stop offset="0.03" stop-color="#FCF9DB"/>
<stop offset="0.45" stop-color="#659AAF"/>
<stop offset="0.65" stop-color="#669CB0"/>
<stop offset="0.75" stop-color="#6BA4B1"/>
<stop offset="0.83" stop-color="#74B1B5"/>
<stop offset="0.89" stop-color="#80C4B9"/>
<stop offset="0.95" stop-color="#8FDCBF"/>
<stop offset="1" stop-color="#A0F6C6"/>
</linearGradient>
<linearGradient id="paint2_linear" x1="89.0705" y1="65.998" x2="89.0705" y2="104.236" gradientUnits="userSpaceOnUse">
<stop offset="0.03" stop-color="#FCF9DB"/>
<stop offset="0.45" stop-color="#659AAF"/>
<stop offset="0.65" stop-color="#669CB0"/>
<stop offset="0.75" stop-color="#6BA4B1"/>
<stop offset="0.83" stop-color="#74B1B5"/>
<stop offset="0.89" stop-color="#80C4B9"/>
<stop offset="0.95" stop-color="#8FDCBF"/>
<stop offset="1" stop-color="#A0F6C6"/>
</linearGradient>
<radialGradient id="paint3_radial" cx="0" cy="0" r="1" gradientUnits="userSpaceOnUse" gradientTransform="translate(70.6292 48.43) rotate(12.7406) scale(30.9912 30.9959)">
<stop offset="0.03" stop-color="#FE7E81"/>
<stop offset="1" stop-color="#9D2454"/>
</radialGradient>
<linearGradient id="paint4_linear" x1="-20.3488" y1="150.061" x2="37.8756" y2="150.061" gradientUnits="userSpaceOnUse">
<stop stop-color="#7CCC7E"/>
<stop offset="0.1" stop-color="#68AA69"/>
<stop offset="0.27" stop-color="#487749"/>
<stop offset="0.43" stop-color="#2E4C2F"/>
<stop offset="0.59" stop-color="#1A2B1B"/>
<stop offset="0.74" stop-color="#0C130C"/>
<stop offset="0.88" stop-color="#030503"/>
<stop offset="1"/>
</linearGradient>
<radialGradient id="paint5_radial" cx="0" cy="0" r="1" gradientUnits="userSpaceOnUse" gradientTransform="translate(188.249 208.152) scale(2.65946)">
<stop stop-color="white"/>
<stop offset="1"/>
</radialGradient>
<linearGradient id="paint6_linear" x1="47.2891" y1="34.3638" x2="112.119" y2="34.3638" gradientUnits="userSpaceOnUse">
<stop offset="0.03" stop-color="#FCF9DB"/>
<stop offset="0.45" stop-color="#659AAF"/>
<stop offset="0.65" stop-color="#669CB0"/>
<stop offset="0.75" stop-color="#6BA4B1"/>
<stop offset="0.83" stop-color="#74B1B5"/>
<stop offset="0.89" stop-color="#80C4B9"/>
<stop offset="0.95" stop-color="#8FDCBF"/>
<stop offset="1" stop-color="#A0F6C6"/>
</linearGradient>
<linearGradient id="paint7_linear" x1="54.8876" y1="68.4751" x2="104.745" y2="68.4751" gradientUnits="userSpaceOnUse">
<stop offset="0.03" stop-color="#FCF9DB"/>
<stop offset="0.45" stop-color="#659AAF"/>
<stop offset="0.65" stop-color="#669CB0"/>
<stop offset="0.75" stop-color="#6BA4B1"/>
<stop offset="0.83" stop-color="#74B1B5"/>
<stop offset="0.89" stop-color="#80C4B9"/>
<stop offset="0.95" stop-color="#8FDCBF"/>
<stop offset="1" stop-color="#A0F6C6"/>
</linearGradient>
<radialGradient id="paint8_radial" cx="0" cy="0" r="1" gradientUnits="userSpaceOnUse" gradientTransform="translate(45.1898 86.9596) scale(10.7353 10.738)">
<stop offset="0.03" stop-color="#FE5961"/>
<stop offset="1" stop-color="#790C45"/>
</radialGradient>
<radialGradient id="paint9_radial" cx="0" cy="0" r="1" gradientUnits="userSpaceOnUse" gradientTransform="translate(152.238 83.5651) scale(10.6863 10.6872)">
<stop offset="0.03" stop-color="#FE5961"/>
<stop offset="1" stop-color="#790C45"/>
</radialGradient>
<linearGradient id="paint10_linear" x1="71.894" y1="117.055" x2="71.894" y2="148.816" gradientUnits="userSpaceOnUse">
<stop offset="0.03" stop-color="#FCF9DB"/>
<stop offset="0.45" stop-color="#659AAF"/>
<stop offset="0.65" stop-color="#669CB0"/>
<stop offset="0.75" stop-color="#6BA4B1"/>
<stop offset="0.83" stop-color="#74B1B5"/>
<stop offset="0.89" stop-color="#80C4B9"/>
<stop offset="0.95" stop-color="#8FDCBF"/>
<stop offset="1" stop-color="#A0F6C6"/>
</linearGradient>
<linearGradient id="paint11_linear" x1="110.174" y1="113.022" x2="110.174" y2="149.823" gradientUnits="userSpaceOnUse">
<stop offset="0.03" stop-color="#FCF9DB"/>
<stop offset="0.45" stop-color="#659AAF"/>
<stop offset="0.65" stop-color="#669CB0"/>
<stop offset="0.75" stop-color="#6BA4B1"/>
<stop offset="0.83" stop-color="#74B1B5"/>
<stop offset="0.89" stop-color="#80C4B9"/>
<stop offset="0.95" stop-color="#8FDCBF"/>
<stop offset="1" stop-color="#A0F6C6"/>
</linearGradient>
<linearGradient id="paint12_linear" x1="117.745" y1="113.143" x2="117.745" y2="145.949" gradientUnits="userSpaceOnUse">
<stop stop-color="#64B0D3"/>
<stop offset="1" stop-color="#502EFF"/>
</linearGradient>
</defs>
</svg>
