<svg width="110" height="224" viewBox="0 0 110 224" fill="none" xmlns="http://www.w3.org/2000/svg">
<path d="M21.1445 107.842L29.9546 199.307H79.291L87.3459 107.842H21.1445Z" fill="url(#paint0_linear)"/>
<path d="M73.7528 199.307H35.2402V206.11H73.7528V199.307Z" fill="#512440"/>
<path d="M84.0728 102.299H24.416V108.095H84.0728V102.299Z" fill="url(#paint1_radial)"/>
<path d="M21.1445 102.299H87.0942C87.0942 102.299 80.8013 51.1494 54.1194 51.1494C27.4374 51.1494 21.1445 102.299 21.1445 102.299Z" fill="url(#paint2_linear)"/>
<path d="M63.6832 49.3857H44.5527V53.4172H63.6832V49.3857Z" fill="url(#paint3_linear)"/>
<path d="M46.5684 49.3859L47.5752 46.8662H60.161L61.1679 49.3859H46.5684Z" fill="url(#paint4_linear)"/>
<path d="M51.0996 47.3701L53.1133 31.748H55.8822L57.896 47.3701H51.0996Z" fill="url(#paint5_linear)"/>
<path d="M54.8743 33.2598H54.1191V0H54.6226L54.8743 33.2598Z" fill="url(#paint6_linear)"/>
<path d="M47.3242 49.1334L48.0794 47.3696H52.3585L52.1068 49.1334H47.3242Z" fill="white"/>
<path d="M53.3655 32.0005L51.6035 46.3627H53.1138L54.1207 32.0005H53.3655Z" fill="white"/>
<path d="M52.3594 49.1334L52.6111 47.3696H53.8697V49.1334H52.3594Z" fill="white"/>
<path opacity="0.53" d="M55.3789 32.0005L56.1341 46.3627H57.6444L55.6306 32.0005H55.3789Z" fill="#3B1544"/>
<path opacity="0.53" d="M56.3867 47.1182H59.9107L60.9176 49.1339H56.3867V47.1182Z" fill="#3B1544"/>
<path d="M54.1191 9.82666H54.6226V15.37H54.1191V9.82666Z" fill="url(#paint7_linear)"/>
<path d="M59.6577 47.3702H59.1543V30.2363H59.6577V47.3702Z" fill="url(#paint8_linear)"/>
<path d="M49.3374 47.3706H48.834V23.1816H49.0857L49.3374 47.3706Z" fill="url(#paint9_linear)"/>
<path d="M48.834 32.7559H49.0857V38.0472H48.834V32.7559Z" fill="url(#paint10_linear)"/>
<path d="M53.112 50.1416H45.5605V53.1652H53.112V50.1416Z" fill="white"/>
<path d="M22.9062 100.284H41.0298C41.0298 100.284 39.2678 75.3386 49.0847 55.1812H44.3021C44.5538 55.1812 33.73 58.7087 22.9062 100.284Z" fill="white"/>
<path opacity="0.35" d="M61.1674 55.1812C61.1674 55.1812 72.2429 67.5276 76.7738 99.0237L21.1445 102.299H84.0736C84.3253 102.299 83.3184 74.5827 61.1674 55.1812Z" fill="#314F74"/>
<path d="M26.9334 78.8658L57.6427 77.8579L65.1942 87.4327L84.3247 87.1807V87.9367L64.9425 88.4406L57.391 78.8658L26.6816 79.6217L26.9334 78.8658Z" fill="#2EFF98"/>
<path opacity="0.35" d="M84.0712 86.6774H65.4442L57.8927 77.1025L27.1834 78.3624L26.9316 78.8663L57.641 77.8584L65.1925 87.4333L84.3229 87.1813L84.0712 86.6774Z" fill="#314F74"/>
<path opacity="0.35" d="M24.416 104.063L77.5281 103.307L80.8004 108.095H84.3245V102.299H24.416V104.063Z" fill="#314F74"/>
<path opacity="0.35" d="M35.2402 201.323L68.7185 200.567L71.4874 206.11H74.0045V199.307H35.2402V201.323Z" fill="#314F74"/>
<path d="M22.9062 108.851L31.7163 193.008H35.2403L28.444 108.851H22.9062Z" fill="white"/>
<path d="M29.9546 199.307L21.1445 107.842H87.3459L22.1514 108.094L29.9546 199.307Z" fill="#FFFFDF"/>
<path d="M67.4609 115.653H43.5479L42.541 110.362H68.4678L67.4609 115.653Z" fill="url(#paint11_radial)"/>
<path opacity="0.35" d="M43.5479 115.653L42.541 110.362H68.4678L68.2161 111.874L44.0513 111.622L45.3099 115.653H43.5479Z" fill="#314F74"/>
<path d="M31.4648 204.599L33.4786 209.134H76.522L78.7875 204.599H31.4648Z" fill="url(#paint12_linear)"/>
<path d="M73.7525 209.134H37.002V210.898H73.7525V209.134Z" fill="url(#paint13_linear)"/>
<path d="M31.4645 204.599L0 222.74H2.76888L33.4783 209.134L31.4645 204.599Z" fill="#512440"/>
<path d="M78.7869 204.599L110 222.74H107.231L76.5215 209.134L78.7869 204.599Z" fill="url(#paint14_linear)"/>
<path d="M50.5938 204.599L55.1246 224H57.8935L60.4107 204.599H50.5938Z" fill="#512440"/>
<path d="M51.3516 205.102L52.1067 208.63H59.1548L59.9099 205.102H51.3516Z" fill="white"/>
<path d="M52.1035 208.882L52.6069 210.142H58.6481L58.8998 208.882H52.1035Z" fill="white"/>
<path d="M0 222.74L31.4645 204.599H78.7872L32.2197 204.851L0 222.74Z" fill="#FFFFDF"/>
<path d="M80.8 182.173H51.0975V181.921L48.3286 136.819H23.9121V136.315H48.832V136.567L51.6009 181.669H80.8V182.173Z" fill="url(#paint15_radial)"/>
<path d="M86.0868 122.457H22.6543V123.213H86.0868V122.457Z" fill="url(#paint16_radial)"/>
<path d="M55.1246 199.055L54.8729 187.465H40.2734L38.2596 155.969H25.6738V155.465H38.7631L41.0285 186.709H55.3763L55.8798 199.055H55.1246Z" fill="url(#paint17_radial)"/>
<path opacity="0.35" d="M73.248 110.362L69.9757 194.771L31.7148 196.787H75.7652L85.8338 110.362H73.248Z" fill="#56859C"/>
<defs>
<linearGradient id="paint0_linear" x1="54.2452" y1="107.842" x2="54.2452" y2="199.307" gradientUnits="userSpaceOnUse">
<stop stop-color="#679DB0"/>
<stop offset="1" stop-color="#79A4AB"/>
</linearGradient>
<radialGradient id="paint1_radial" cx="0" cy="0" r="1" gradientUnits="userSpaceOnUse" gradientTransform="translate(54.3597 105.145) scale(21.2104 21.2316)">
<stop stop-color="#303030"/>
<stop offset="1" stop-color="#512440"/>
</radialGradient>
<linearGradient id="paint2_linear" x1="18.606" y1="94.9763" x2="79.4474" y2="72.8538" gradientUnits="userSpaceOnUse">
<stop offset="0.0297297" stop-color="#FCF9DB"/>
<stop offset="0.4541" stop-color="#659AAF"/>
<stop offset="0.6522" stop-color="#669CB0"/>
<stop offset="0.7514" stop-color="#6BA4B1"/>
<stop offset="0.8286" stop-color="#74B1B5"/>
<stop offset="0.8945" stop-color="#80C4B9"/>
<stop offset="0.9526" stop-color="#8FDCBF"/>
<stop offset="1" stop-color="#A0F6C6"/>
</linearGradient>
<linearGradient id="paint3_linear" x1="54.1179" y1="49.3857" x2="54.1179" y2="53.4172" gradientUnits="userSpaceOnUse">
<stop stop-color="#679DB0"/>
<stop offset="1" stop-color="#79A4AB"/>
</linearGradient>
<linearGradient id="paint4_linear" x1="53.8681" y1="46.8662" x2="53.8681" y2="49.3859" gradientUnits="userSpaceOnUse">
<stop stop-color="#679DB0"/>
<stop offset="1" stop-color="#79A4AB"/>
</linearGradient>
<linearGradient id="paint5_linear" x1="54.4978" y1="31.748" x2="54.4978" y2="47.3701" gradientUnits="userSpaceOnUse">
<stop stop-color="#679DB0"/>
<stop offset="1" stop-color="#79A4AB"/>
</linearGradient>
<linearGradient id="paint6_linear" x1="54.4967" y1="0" x2="54.4967" y2="33.2598" gradientUnits="userSpaceOnUse">
<stop stop-color="#679DB0"/>
<stop offset="1" stop-color="#79A4AB"/>
</linearGradient>
<linearGradient id="paint7_linear" x1="54.3558" y1="15.4289" x2="54.3558" y2="9.94231" gradientUnits="userSpaceOnUse">
<stop stop-color="#EFEFA9"/>
<stop offset="1" stop-color="#7FE1A6"/>
</linearGradient>
<linearGradient id="paint8_linear" x1="59.406" y1="30.2363" x2="59.406" y2="47.3702" gradientUnits="userSpaceOnUse">
<stop stop-color="#679DB0"/>
<stop offset="1" stop-color="#79A4AB"/>
</linearGradient>
<linearGradient id="paint9_linear" x1="49.0857" y1="23.1816" x2="49.0857" y2="47.3706" gradientUnits="userSpaceOnUse">
<stop stop-color="#679DB0"/>
<stop offset="1" stop-color="#79A4AB"/>
</linearGradient>
<linearGradient id="paint10_linear" x1="48.9827" y1="38.1432" x2="48.9827" y2="32.8337" gradientUnits="userSpaceOnUse">
<stop stop-color="#EFEFA9"/>
<stop offset="1" stop-color="#7FE1A6"/>
</linearGradient>
<radialGradient id="paint11_radial" cx="0" cy="0" r="1" gradientUnits="userSpaceOnUse" gradientTransform="translate(55.5185 113.118) scale(9.32886 9.33821)">
<stop stop-color="#EFEFA9"/>
<stop offset="1" stop-color="#57CBA1"/>
</radialGradient>
<linearGradient id="paint12_linear" x1="55.1262" y1="204.599" x2="55.1262" y2="209.134" gradientUnits="userSpaceOnUse">
<stop stop-color="#679DB0"/>
<stop offset="1" stop-color="#79A4AB"/>
</linearGradient>
<linearGradient id="paint13_linear" x1="55.3772" y1="209.134" x2="55.3772" y2="210.898" gradientUnits="userSpaceOnUse">
<stop stop-color="#512440"/>
<stop offset="1" stop-color="#79A4AB"/>
</linearGradient>
<linearGradient id="paint14_linear" x1="93.2606" y1="204.599" x2="93.2606" y2="222.74" gradientUnits="userSpaceOnUse">
<stop stop-color="#512440"/>
<stop offset="1" stop-color="#79A4AB"/>
</linearGradient>
<radialGradient id="paint15_radial" cx="0" cy="0" r="1" gradientUnits="userSpaceOnUse" gradientTransform="translate(52.3802 159.209) scale(25.8442 25.8701)">
<stop stop-color="#EFEFA9"/>
<stop offset="1" stop-color="#57CBA1"/>
</radialGradient>
<radialGradient id="paint16_radial" cx="0" cy="0" r="1" gradientUnits="userSpaceOnUse" gradientTransform="translate(54.3401 122.81) scale(22.3846 22.407)">
<stop stop-color="#EFEFA9"/>
<stop offset="1" stop-color="#57CBA1"/>
</radialGradient>
<radialGradient id="paint17_radial" cx="0" cy="0" r="1" gradientUnits="userSpaceOnUse" gradientTransform="translate(40.8105 177.242) scale(18.7181 18.7369)">
<stop stop-color="#EFEFA9"/>
<stop offset="1" stop-color="#57CBA1"/>
</radialGradient>
</defs>
</svg>
