<svg xmlns="http://www.w3.org/2000/svg" xmlns:xlink="http://www.w3.org/1999/xlink" width="73.039" height="79.825" viewBox="0 0 73.039 79.825"><defs><style>.a{fill:#ffffd8;}.b,.e{fill:url(#a);}.c{fill:#27061b;}.d,.q{fill:#9a313b;}.d,.e,.t,.u{opacity:0.35;}.f{fill:#451533;}.g{fill:url(#d);}.h{fill:url(#e);}.i{fill:#fff;}.j{fill:url(#f);}.k{fill:url(#g);}.l{fill:url(#h);}.m{fill:url(#i);}.n{fill:#ffffea;}.o{fill:url(#j);}.p{fill:url(#k);}.q{opacity:0.65;}.r{fill:url(#l);}.s{fill:url(#m);}.t{fill:#502eff;}.u{fill:url(#p);}.v{fill:#610431;opacity:0.28;}</style><linearGradient id="a" x1="0.5" x2="0.5" y2="1" gradientUnits="objectBoundingBox"><stop offset="0.03" stop-color="#fcf9db"/><stop offset="0.45" stop-color="#659aaf"/><stop offset="0.65" stop-color="#669cb0"/><stop offset="0.75" stop-color="#6ba4b1"/><stop offset="0.83" stop-color="#74b1b5"/><stop offset="0.89" stop-color="#80c4b9"/><stop offset="0.95" stop-color="#8fdcbf"/><stop offset="1" stop-color="#a0f6c6"/></linearGradient><radialGradient id="d" cx="0.5" cy="0.499" r="0.501" gradientTransform="matrix(0.973, 0.22, -0.22, 0.975, 0.713, -0.421)" gradientUnits="objectBoundingBox"><stop offset="0.03" stop-color="#fe7e81"/><stop offset="1" stop-color="#9d2454"/></radialGradient><linearGradient id="e" x1="-1.369" y1="3.687" x2="-0.347" y2="3.687" gradientUnits="objectBoundingBox"><stop offset="0" stop-color="#7ccc7e"/><stop offset="0.1" stop-color="#68aa69"/><stop offset="0.27" stop-color="#487749"/><stop offset="0.43" stop-color="#2e4c2f"/><stop offset="0.59" stop-color="#1a2b1b"/><stop offset="0.74" stop-color="#0c130c"/><stop offset="0.88" stop-color="#030503"/><stop offset="1"/></linearGradient><radialGradient id="f" cx="21.236" cy="28.736" r="0.525" gradientUnits="objectBoundingBox"><stop offset="0" stop-color="#fff"/><stop offset="1"/></radialGradient><radialGradient id="g" cx="12.86" cy="17.767" r="0.524" gradientTransform="translate(0)" xlink:href="#f"/><radialGradient id="h" cx="0.496" cy="0.508" r="0.523" gradientTransform="matrix(0.976, 0.22, -0.22, 0.975, 7.451, -4.171)" xlink:href="#f"/><radialGradient id="i" cx="22.589" cy="30.784" r="0.526" gradientTransform="translate(0)" xlink:href="#f"/><linearGradient id="j" x1="0" y1="0.5" x2="1" y2="0.5" xlink:href="#a"/><linearGradient id="k" x1="-0.001" y1="0.5" x2="0.998" y2="0.5" xlink:href="#a"/><radialGradient id="l" cx="0.126" cy="0.074" r="0.418" gradientTransform="translate(-0.285) scale(1.569 1)" gradientUnits="objectBoundingBox"><stop offset="0.03" stop-color="#fe5961"/><stop offset="1" stop-color="#790c45"/></radialGradient><radialGradient id="m" cx="0.365" cy="0.047" r="0.42" gradientTransform="translate(-0.283) scale(1.565 1)" xlink:href="#l"/><linearGradient id="p" x1="0.5" x2="0.5" y2="1" gradientUnits="objectBoundingBox"><stop offset="0" stop-color="#502eff"/><stop offset="0" stop-color="#64b0d3"/><stop offset="1" stop-color="#502eff"/></linearGradient></defs><g transform="translate(0.009)"><g transform="translate(-0.009)"><path class="a" d="M27.613,43.79c.152.986.282,1.96.379,2.957h0l-.054.52a.3.3,0,0,1-.238.292h0l-.325.076.325-.325c-.065.942-.108,1.874-.195,2.805l-.65-.628h.227a.574.574,0,0,1,.671.444.65.65,0,0,1,0,.206v.076l-.13.823a.628.628,0,0,1-.715.5h-.217l-.238-.1.866-.271c-.271.542-.531,1.083-.812,1.635l-.314-1.083h0a.78.78,0,0,1,.368,1.018.747.747,0,0,1-.921.4h-.065a34.884,34.884,0,0,0-3.921-1.083,13.539,13.539,0,0,0-1.917-.26,3.671,3.671,0,0,0-1.57.162.552.552,0,0,0-.152.087h0a.466.466,0,0,0,0,.076.942.942,0,0,0-.065.466,3.758,3.758,0,0,0,.552,1.484,13.1,13.1,0,0,0,2.3,2.946,21.542,21.542,0,0,0,3.108,2.415,13.658,13.658,0,0,0,1.711.91c.6.26,1.235.52,1.874.758,2.556.921,5.2,1.722,7.863,2.491h.065a.282.282,0,0,1,.184.347.26.26,0,0,1-.152.184l-.65.292a6.024,6.024,0,0,1-.661.271l-1.343.433L34,64.4a6.855,6.855,0,0,0,.585-.39l.563-.4.1.542a51.466,51.466,0,0,1-8.264-1.484c-.682-.195-1.365-.39-2.047-.639a14.21,14.21,0,0,1-2.014-.931,18.315,18.315,0,0,1-3.552-2.545,14.08,14.08,0,0,1-2.859-3.433,5.783,5.783,0,0,1-.791-2.437,2.913,2.913,0,0,1,.3-1.549,2.588,2.588,0,0,1,.227-.368,3.25,3.25,0,0,1,.325-.347,2.523,2.523,0,0,1,.736-.444,5.415,5.415,0,0,1,2.534-.227,15.476,15.476,0,0,1,2.166.422,30.032,30.032,0,0,1,4.051,1.43L25.436,53h0a.736.736,0,0,1-.271-1.007h0c.325-.509.661-1.018,1-1.527V50.4a.607.607,0,0,1,.823-.195l.238.13-.921.433.238-.78.661.726h-.282a.574.574,0,0,1-.607-.509.823.823,0,0,1,0-.162c.184-.91.4-1.82.607-2.729v-.065a.336.336,0,0,1,.3-.26h.336l-.3.3.108-.487h0C27.45,45.772,27.526,44.776,27.613,43.79Z" transform="translate(1.315 3.636)"/><path class="a" d="M26.752,32.02c-1.083,1.083-2.166,2.166-3.347,3.152s-2.3,2.025-3.509,2.989a.466.466,0,0,1-.661-.076h0l-.108-.173s-.1-.152,0-.076l.065.054a.477.477,0,0,0,.141.065h-.271l-.856.173a15.164,15.164,0,0,0-1.679.466h-.087l-.184.065h0l.087-.065.173-.433v.282a.639.639,0,0,1-.628.661.812.812,0,0,1-.282-.054h0a47.2,47.2,0,0,1-4.776-2.578l-2.166-1.4c-.715-.444-1.527-.975-2.166-1.4l1.224-.227-1.3,1.722a.98.98,0,0,1-1.581-1.159h0L6.131,32.28l-.065,1.083C5.8,32.93,5.5,32.5,5.21,32.074a9.867,9.867,0,0,0-.856-1.083l-.022-.065a3.039,3.039,0,0,1-.6-.715,8.48,8.48,0,0,1-.444-.758l-.379-.693-.152-.249h0a1.083,1.083,0,0,0,.217.119h.368a.921.921,0,0,0,.6-.227l-1.722-.931V27.4a.292.292,0,0,0,0,.119.856.856,0,0,0,.336.412.921.921,0,0,0,.715.108.3.3,0,0,0,.173-.076h0a5.339,5.339,0,0,0-.433.812,10.332,10.332,0,0,0-.661,2,1.148,1.148,0,0,1-.1.271,2.394,2.394,0,0,0-.173.477h0v-.065a.574.574,0,0,0-.087-.292c-.087-.119,0-.065,0-.076h0l.087.065a10.971,10.971,0,0,0,1.2.812c.888.542,1.841,1.083,2.773,1.56l-1.473.617h0a1.083,1.083,0,0,1,1.354-.563,1.17,1.17,0,0,1,.26.13h0a1.083,1.083,0,0,1,.3,1.462v.076h0l.119-1.083h0l-.119-.13c1.451,2.166,2.957,4.43,4.56,6.5a43.126,43.126,0,0,0,5.188,5.935h0a.747.747,0,0,1,.26.563v.834h0a.206.206,0,0,0,0-.108h0a2.534,2.534,0,0,0,.769.433,7.354,7.354,0,0,0,2.112.455,5.762,5.762,0,0,0,2.166-.357,7.137,7.137,0,0,0,1.029-.433c.162-.087.271-.173.422-.26-.065.357,0,0-.065-.119a.368.368,0,0,1,.173-.444h0A22.04,22.04,0,0,0,26.3,44.778a37.906,37.906,0,0,0,2.892-2.708h0a25.213,25.213,0,0,1-5.664,5.589l.195-.455a2.22,2.22,0,0,1,.076.336.791.791,0,0,1,0,.282.4.4,0,0,1,0,.162.584.584,0,0,1-.1.13h-.076a6.423,6.423,0,0,1-.552.433,7.635,7.635,0,0,1-1.137.607,7.018,7.018,0,0,1-2.534.607,8.816,8.816,0,0,1-2.6-.368,3.8,3.8,0,0,1-1.386-.65,1.386,1.386,0,0,1-.249-.217v-.1a.758.758,0,0,1-.054-.141V47.1l.282.585a37.907,37.907,0,0,1-5.718-5.924c-1.711-2.166-3.314-4.332-4.809-6.585v-.1h0a1.083,1.083,0,0,1,.119-1.083h0l.238,1.538h0l1.592-.563h0a1.083,1.083,0,0,1-1.31.693l-.173-.065c-1-.509-1.949-1.029-2.924-1.592A13.949,13.949,0,0,1,.716,32.93,1.581,1.581,0,0,1,.5,32.735l-.13-.141A.986.986,0,0,1,.2,32.356,1.646,1.646,0,0,1,0,31.868a1.191,1.191,0,0,1,0-.26,1.83,1.83,0,0,1,0-.379,3.736,3.736,0,0,1,.368-1.083l-.1.26a12.769,12.769,0,0,1,.834-2.448A6.693,6.693,0,0,1,1.82,26.7c.065-.065.1-.119.184-.195a1.776,1.776,0,0,1,.271-.227,1.235,1.235,0,0,1,.433-.206,1.191,1.191,0,0,1,1,.141,1.235,1.235,0,0,1,.509.65,1.343,1.343,0,0,1,.119.433,2.643,2.643,0,0,1,0,.509L2.6,26.886a1.256,1.256,0,0,1,.693-.26h.271a.693.693,0,0,1,.195.065,1.224,1.224,0,0,1,.3.162l.119.108a2.469,2.469,0,0,1,.271.325,4.711,4.711,0,0,1,.249.422l.39.726c.119.227.238.444.357.628l.141.206h0l.238.217a10.224,10.224,0,0,1,1.083,1.43c.3.466.585.931.866,1.408h0a.975.975,0,0,1-.087,1.083l-1.3,1.765L4.853,33.991,6.2,32.3v-.065a.866.866,0,0,1,1.17-.162l2.166,1.538L11.7,35.1c1.44.964,2.892,1.928,4.332,2.74l-.953.574v-.336a.639.639,0,0,1,.162-.368,1.235,1.235,0,0,1,.282-.206l.173-.065.282-.1h0a.369.369,0,0,1,.152,0h-.195a17.051,17.051,0,0,1,1.852-.379l.942-.119h.542l.227-.011a.672.672,0,0,1,.173.076.487.487,0,0,1,.076.076,1.083,1.083,0,0,1,.195.3l.108.227-.726-.184c1.278-.812,2.513-1.7,3.747-2.61Z" transform="translate(0.009 2.161)"/><path class="b" d="M49.518,25.1a.552.552,0,0,0,.7.1,1.6,1.6,0,0,0,.5-.574,6.877,6.877,0,0,0,.585-1.462,15.162,15.162,0,0,0,.5-3.119,14.253,14.253,0,0,0-.119-3.119,6.184,6.184,0,0,0-.357-1.419,1.18,1.18,0,0,0-.282-.433h-.152a.65.65,0,0,1-.8-.444v-.087a14.935,14.935,0,0,0-3.617-7.69,14.08,14.08,0,0,0-7.311-4.235A13.235,13.235,0,0,0,37,2.242c-.357,0-.715-.108-1.083-.119H34.832a13,13,0,0,0-4.116.812,13.83,13.83,0,0,0-6.5,5.242l-.054.065a.26.26,0,0,1-.065.087l-.087.087-.986.325a1,1,0,0,0,.758-.13,1.007,1.007,0,0,0,.6-.628l-.238.444a14.426,14.426,0,0,0-2.881,4.646l-1.473-1.083h0l1.191,1.44h0l-.206-1.516.964.531-.542-.108h0a.931.931,0,0,1,1.007.845.845.845,0,0,1-.054.368,14.686,14.686,0,0,0-.78,3.682,13.452,13.452,0,0,0,.249,3.78,14.383,14.383,0,0,0,3.477,6.78h0a.391.391,0,0,1-.552.552l-.249-.184h.531l-.726.693v-.466l.152.152h0a.325.325,0,0,1,0,.455.314.314,0,0,1-.444,0l-.152-.152.487-.357c.715,1.592,1.408,3.249,2.079,4.82h0l-.119.1.108-.108h0c-.9-1.505-1.765-3.033-2.621-4.56a.3.3,0,0,1,.455-.379h0l.152.13-.422.466-.173-.141a.325.325,0,0,1,0-.444h0l.661-.758a.357.357,0,0,1,.477-.054h0l.282.217-.52.585a13.6,13.6,0,0,1-2.653-3.173,15.3,15.3,0,0,1-1.668-3.834,14.437,14.437,0,0,1-.509-4.191A15.791,15.791,0,0,1,20.438,13l.986,1.2h0a.856.856,0,0,1-.52-.1h0l-.975-.5a.931.931,0,0,1-.412-1.246.856.856,0,0,1,.206-.271h0l1.191,1.451h0l-1.462-1.083A16.646,16.646,0,0,1,22.561,7.04l-.227.444a1.083,1.083,0,0,1,1.213-.769l-.975.325.1-.108-.119.152A15.91,15.91,0,0,1,30.023.91,14.87,14.87,0,0,1,34.864,0H36.1a11.84,11.84,0,0,1,1.213.13A15.834,15.834,0,0,1,39.684.6a15.628,15.628,0,0,1,8.144,5.069A15.845,15.845,0,0,1,51.337,14.5l-.964-.422a1.224,1.224,0,0,1,.758-.195,1.332,1.332,0,0,1,.726.325,2.448,2.448,0,0,1,.552.931,6.628,6.628,0,0,1,.3,1.722A16,16,0,0,1,51.706,23.3a5.87,5.87,0,0,1-.78,1.451,1.722,1.722,0,0,1-.628.552A.607.607,0,0,1,49.518,25.1Z" transform="translate(1.623)"/><path class="a" d="M69.073,28.754a13.071,13.071,0,0,0-.986-2.166,5.957,5.957,0,0,0-.628-.9.292.292,0,0,0-.141-.108h0a.26.26,0,0,0,.206,0c.141-.119.087-.1.1,0a1.164,1.164,0,0,1,0,.195l-.769.412c.379.238.487,0,.466.054v.087l-.152.314-.325.726c-.119.249-.238.5-.379.758a2.794,2.794,0,0,1-.282.412,1.408,1.408,0,0,1-.206.238l-.087.087a13.335,13.335,0,0,0-.812,1.224c-.271.444-.542.91-.78,1.354l-.054-.953h0a.8.8,0,0,1,0,1.083v.065c-1.083,1.191-2.264,2.274-3.466,3.4a21.942,21.942,0,0,1-1.863,1.57l-2.058,1.538a1.083,1.083,0,0,1-1.44-.162.986.986,0,0,1-.217-.487v-.108l-.087-.563.368.671a.7.7,0,0,0,.217.141h.162a.812.812,0,0,1-.325,0,17.834,17.834,0,0,0-1.8-.249,8.123,8.123,0,0,0-.856,0h.087a.91.91,0,0,0,.206-.13.693.693,0,0,0,.217-.227v-.054h0v.054l-.152.412h0a1.083,1.083,0,0,1-1.321.617,1.018,1.018,0,0,1-.347-.206c-.693-.639-1.3-1.332-1.939-2l-1.874-2.036c-1.191-1.386-2.361-2.794-3.466-4.256l-.054-.076a.585.585,0,0,1,0-.682l.184-.249-.076.282c.065-.986.162-1.96.249-2.946h0a.4.4,0,0,1,.087-.195l1.245-1.44h0l1.007-1.029-.78,1.181h0l-.986,1.733.087-.238c.076.986.162,1.971.217,2.946a.639.639,0,0,1-.054.249h0l-.184.347V28.7L49.1,32.534l3.888,3.682-1.679.455.173-.52.087-.173.054-.119.065-.1s0-.1.249-.282a.812.812,0,0,1,.227-.13h1.657a18.273,18.273,0,0,1,2.09.217h-.336a1.42,1.42,0,0,1,.3,0h0l.325.065.217.076a1.159,1.159,0,0,1,.433.249.931.931,0,0,1,.357.628h0l.076.552L55.621,36.4c1.224-.964,2.459-1.852,3.693-2.881s2.4-2.069,3.6-3.1l-.087,1.137h0v-.065a.8.8,0,0,1,0-.9c.314-.466.617-.9.953-1.343a8.816,8.816,0,0,1,1.083-1.321,1.668,1.668,0,0,1,.206-.184l.065-.054a2.261,2.261,0,0,0,.206-.227,7,7,0,0,0,.412-.628l.433-.693a3.888,3.888,0,0,1,.271-.357.953.953,0,0,1,.206-.227.661.661,0,0,1,.238-.152.617.617,0,0,1,.238,0,.7.7,0,0,1,.336.13l-.78.412a2.558,2.558,0,0,1,0-.39.8.8,0,0,1,.336-.574.639.639,0,0,1,.477-.054.693.693,0,0,1,.238.141,1.083,1.083,0,0,1,.282.3,5.155,5.155,0,0,1,.531,1.148A9.8,9.8,0,0,1,69.073,28.754Z" transform="translate(3.674 1.928)"/><path class="a" d="M2.492,29.825c-.455-.357-.249-1.018.119-1.386a.866.866,0,0,1,1.213,0,.726.726,0,0,1,.119.152l.282.477a.726.726,0,0,1,.1.282v.26a.942.942,0,0,1-.682.975.6.6,0,0,1-.379,0,.975.975,0,0,1-.195-.13.531.531,0,0,0-.227-.195L2.2,30.15a.4.4,0,0,1,.292-.325Zm0,0a.39.39,0,0,0,.4,0l-.607-.13a.953.953,0,0,1,.087-.455,2.025,2.025,0,0,1,.141-.3.953.953,0,0,1,.379-.368L2.222,29.8a.617.617,0,0,1,0-.314l1.614.65a2.3,2.3,0,0,0-1.343-.314Z" transform="translate(0.193 2.341)"/><path class="a" d="M3.411,30.085a1.885,1.885,0,0,1,.769.347.834.834,0,0,1,.357.726,1,1,0,0,1-.379.812,1.083,1.083,0,0,1-.8.227,1.257,1.257,0,0,1-.422-.119,1.451,1.451,0,0,1-.487-.39,1.083,1.083,0,0,1-.282-.585L2.1,30.3a.271.271,0,0,1,.1-.282,1.527,1.527,0,0,1,.791-.26C3.249,29.814,3.411,29.922,3.411,30.085Zm0,0a.866.866,0,0,0-.076.78.466.466,0,0,0,.292.249v-1a1.7,1.7,0,0,1,.314.13s.054,0-.119-.087a.856.856,0,0,0-.314-.087,1.018,1.018,0,0,0-.693.206c-.39.368-.314.563-.325.607s.152-.087.282-.227a3.043,3.043,0,0,1,.639-.574Z" transform="translate(0.184 2.471)"/><path class="a" d="M3.115,28.017c0-.152.238-.195.477-.054a1.332,1.332,0,0,1,.563.693.141.141,0,0,1,0,.13l-.585.931a.6.6,0,0,1-.379.3l-.249.065a1.054,1.054,0,0,1-1.2-1.527,1.625,1.625,0,0,1,.8-.726C2.791,27.757,3.04,27.811,3.115,28.017Zm0,0a1.57,1.57,0,0,0,.141,1.246c.173.238.336.282.357.336L2.108,28.147a1.4,1.4,0,0,1,.7-.195l-.6,1.083a.639.639,0,0,0,.455-.119A1.083,1.083,0,0,0,3.115,28.017Z" transform="translate(0.144 2.309)"/><path class="a" d="M65.071,29.155c-.054-.065-.065-.162-.13-.26a2.62,2.62,0,0,0-.238-.3,3.618,3.618,0,0,1-.509-.661.574.574,0,0,1,.671-.78l.975.26a.639.639,0,0,1,.466.747v.91a5.686,5.686,0,0,1-.736.087,1.234,1.234,0,0,0-.3,0C65.255,29.231,65.157,29.263,65.071,29.155Zm0,0c0,.065.13,0,.141-.076a.422.422,0,0,0,0-.26,2.946,2.946,0,0,0-.238-.607l.1.942c-.368.054-.509,0-.509-.26l1.592-.531a3.542,3.542,0,0,1-.7.368C65.233,28.852,65.071,29.014,65.071,29.155Z" transform="translate(5.337 2.253)"/><path class="a" d="M65.866,27.86a.4.4,0,0,0-.347,0,2.567,2.567,0,0,0-.422.3l-.379-.715a1.321,1.321,0,0,1-.314-.368.433.433,0,0,1,.195-.6.368.368,0,0,1,.206-.054h1.148a.379.379,0,0,1,.39.336,3.086,3.086,0,0,1,0,.769l.087.325a2.167,2.167,0,0,0-.271.119l-.108.065H66A.379.379,0,0,0,65.866,27.86Zm0,0a.4.4,0,0,0,.249.065h-.173a.975.975,0,0,0-.152-.217l.087.314c-.271.087-.552.217-.736.271s-.292,0-.325-.184l1.549-.617a1.6,1.6,0,0,1-.433.217l-.39-.661a1.985,1.985,0,0,0,.13.542.412.412,0,0,0,.195.271Z" transform="translate(5.354 2.195)"/><path class="a" d="M66.007,27.157c.076.108,0,.249-.162.357a1.235,1.235,0,0,1-.671.152l-.5-.91a.747.747,0,0,1-.173-.682l.087-.282a1.083,1.083,0,0,1,2.014,0,1.484,1.484,0,0,1,0,1.018C66.429,27.157,66.235,27.3,66.007,27.157Zm0,0a1.884,1.884,0,0,0-.986-.736,2.48,2.48,0,0,0-.487,0l2.166-.26a1.354,1.354,0,0,1-.368.921l-.509-.9a.574.574,0,0,0-.13.39A.888.888,0,0,0,66.007,27.157Z" transform="translate(5.364 2.085)"/><path class="c" d="M5.511,34.5s-3.9-2.307-4.256-2.935.877-3.953,1.516-4.44.552.921-.206,2.166c-.292.487.8,2.3,1.018,2s-.671-2.805-.433-3.574,1.083,1.787,1.722,2.3a17.329,17.329,0,0,1,1.96,2.773Z" transform="translate(0.109 2.245)"/><path class="b" d="M68.071,32.224S61.941,46.888,56.97,46.8a7.766,7.766,0,0,1-3.1-.758,16.646,16.646,0,0,1-5.762-5s.347,2.924.834,5.545c.119.628.249,1.246.379,1.8.617,2.469,3.379,5.274,3.379,5.274s-7.646,7.82-11.047,8.22h-.217C38.125,61.964,26.8,56.04,26.8,56.04s1.235-4.43,1.625-6.888c.054-.357.108-.747.141-1.083h0a43.02,43.02,0,0,0,.184-4.646v-1.57h0c-.206.206-5.556,6.7-10.007,6.7S5.461,34.845,5.19,34.412h0L6.5,32.69h0c.7.5,8.155,5.664,10.235,6.054a.7.7,0,0,0,.368,0c1.484-.509,6.141-4.332,9.087-6.877l.065-.065.964-.823h0l.574-.5.9-.791,11.913-.91,6.964-.52s4.7,5.415,7.657,8.09a6.108,6.108,0,0,0,2,1.43c1.7.336,9.563-7.332,9.563-7.332Z" transform="translate(0.441 2.347)"/><path class="d" d="M66.373,32.306a55.745,55.745,0,0,1-6.292,11.188h0c-.39.5-.812.964-1.213,1.386a5.415,5.415,0,0,1-3.6,1.917c-4.939-.087-8.859-5.762-8.859-5.762s.52,4.484,1.213,7.343C48.243,50.847,51,53.652,51,53.652s-7.646,7.82-11.047,8.22l-6.5-2.978s.217-13.755-1.744-18.617a35.556,35.556,0,0,0-6.076-9.271h0L39.016,28.84l6.964-.52s7.95,9.173,9.661,9.52a4.029,4.029,0,0,0,2.166-1,75.132,75.132,0,0,0,7.365-6.336Z" transform="translate(2.139 2.352)"/><path class="e" d="M52.285,46.041a15.271,15.271,0,0,1-4.885-3.9c-.563-.65-.877-1.083-.877-1.083A3.986,3.986,0,0,1,42.57,45.1c-7.516.368-17.87-13.246-17.87-13.246l.964-.823h0l1.527-1.31L39.1,28.81,45,28.366l1.083-.076s1.473,1.7,3.249,3.65c1.43,1.56,3.065,3.249,4.332,4.44.087.91.173,1.949.217,2.968A19.148,19.148,0,0,1,52.285,46.041Z" transform="translate(2.061 2.349)"/><path class="d" d="M28.714,41.469c-.173.249-5.524,6.747-9.975,6.747S5.461,34.505,5.19,34.072h0L6.5,32.35h0c.7.5,8.155,5.664,10.235,6.054a6.4,6.4,0,0,0,5.177,3.758,18.672,18.672,0,0,0,6.8-.693Z" transform="translate(0.441 2.686)"/><path class="f" d="M5.527,34.368S1.065,32.082,1,31.5a3.249,3.249,0,0,1,1.148-2.166c.542-.347,1.473-.834,1.679-.617s-1.007.8-1.289,1.083a3.347,3.347,0,0,0-.379.715,3.477,3.477,0,0,1,.661-.747c.477-.249,1.148-.487,1.267-.347S3.253,30.285,3,30.653s2.058,1.884,2.4,2.437a1.581,1.581,0,0,1,.119,1.278Z" transform="translate(0.093 2.38)"/><path class="c" d="M63.354,32.573s3.9-2.307,4.256-2.935-.866-3.953-1.516-4.44-.552.921.217,2.166c.292.487-.8,2.3-1.018,2s.671-2.838.455-3.607-1.083,1.787-1.733,2.3A17.329,17.329,0,0,0,62,30.819Z" transform="translate(5.159 2.084)"/><path class="f" d="M63.256,32.438s4.462-2.285,4.527-2.87A3.249,3.249,0,0,0,66.635,27.4c-.542-.347-1.462-.834-1.668-.617s1,.8,1.289,1.083a3.715,3.715,0,0,1,.368.715,3.477,3.477,0,0,0-.661-.747c-.477-.249-1.083-.487-1.267-.347s.845.866,1.083,1.235-2.047,1.884-2.4,2.437A1.635,1.635,0,0,0,63.256,32.438Z" transform="translate(5.256 2.22)"/><path class="f" d="M30.5,39.977a15.888,15.888,0,0,1-3.563,7.874h0v-.5h0l-.065-2.437a29.242,29.242,0,0,0,0-7.646,20.285,20.285,0,0,0-1.083-3.39,11.773,11.773,0,0,0-1.083-2.166l.065-.065.964-.823h0l.52-.455h.119l1.375.292,3.314.715a11.186,11.186,0,0,1,.108,1.31A34.82,34.82,0,0,1,30.5,39.977Z" transform="translate(2.062 2.522)"/><path class="f" d="M46.2,36.638a21.932,21.932,0,0,0-.26,5.058v.455c.065,1.246.173,2.166.173,2.166l-.065,2.957s-.26-.292-.6-.726h0A16.82,16.82,0,0,1,42.5,39.41a28.712,28.712,0,0,1-.5-8.664l1.484-2.361h.108l.964-.065s1.473,1.7,3.249,3.65a18.3,18.3,0,0,0-1.6,4.668Z" transform="translate(3.487 2.352)"/><path class="c" d="M30.506,39.99a15.888,15.888,0,0,1-3.563,7.874h0v-.5h0a15.4,15.4,0,0,0,2.805-6.108c.921-3.921.574-5.578.574-5.578a22.225,22.225,0,0,1-4.549-1.787,11.773,11.773,0,0,0-1.083-2.166l.065-.065.964-.823h0l.52-.455h.119l.574-.173.8.466L31.156,32.7a34.82,34.82,0,0,1-.65,7.289Z" transform="translate(2.06 2.509)"/><path class="c" d="M46.149,36.638a21.932,21.932,0,0,0-.26,5.058L44.47,43.461a21.921,21.921,0,0,1-1.949-7.906,19.765,19.765,0,0,1,1.083-7.17l.964-.065s1.473,1.7,3.249,3.65A18.3,18.3,0,0,0,46.149,36.638Z" transform="translate(3.54 2.352)"/><path class="g" d="M48.921,20.744A14.08,14.08,0,0,1,46.9,25.5a13.5,13.5,0,0,1-2.166,2.556h0A14.4,14.4,0,0,1,20.827,14.4a15.8,15.8,0,0,1,.52-1.765h0a14.4,14.4,0,0,1,27.574,8.112Z" transform="translate(1.71 0.267)"/><path class="f" d="M49.961,20.791a14.253,14.253,0,0,1-2.025,4.755,14.426,14.426,0,0,1-2.166,2.567h0a14.4,14.4,0,0,1-23.9-13.668,13.126,13.126,0,0,1,.509-1.722h0A14.4,14.4,0,0,1,49.95,20.834Z" transform="translate(1.797 0.275)"/><path class="h" d="M51.148,18.419a17.166,17.166,0,0,1-1.711,3.866h0A18.228,18.228,0,0,1,24.7,28.871a14.524,14.524,0,0,1,6.9-7.809,25.127,25.127,0,0,1,19.549-2.643Z" transform="translate(2.061 1.455)"/><path class="i" d="M36.667,12.889c.119,1.083-2.7,2.307-6.282,2.686s-6.6-.195-6.715-1.289,2.7-2.307,6.282-2.7S36.548,11.784,36.667,12.889Z" transform="translate(1.975 0.952)"/><path class="i" d="M24.828,16.466a1.57,1.57,0,0,1-3.108.336,1.57,1.57,0,0,1,3.108-.336Z" transform="translate(1.814 1.263)"/><path class="d" d="M21.16,12.668S35,10.946,39.767,17.271a12.693,12.693,0,0,1,1.321,13l3.953-2.274,3.6-8.307L46.471,9.938,30.734,7.22Z" transform="translate(1.767 0.6)"/><g transform="translate(42.602 21.045)"><path class="j" d="M41.767,20.849a1.228,1.228,0,1,1-1.023-1.4A1.228,1.228,0,0,1,41.767,20.849Z" transform="translate(-39.326 -19.431)"/></g><g transform="translate(41.497 15.078)"><path class="k" d="M42.307,16.27A2.014,2.014,0,1,1,40.9,14.007a2.014,2.014,0,0,1,1.408,2.264Z" transform="translate(-38.306 -13.922)"/></g><g transform="translate(26.536 23.021)"><path class="l" d="M26.84,22.614a1.181,1.181,0,1,1-.834-1.31A1.181,1.181,0,0,1,26.84,22.614Z" transform="translate(-24.492 -21.256)"/></g><g transform="translate(34.371 24.375)"><path class="m" d="M34.059,23.864a1.173,1.173,0,1,1-.975-1.343A1.173,1.173,0,0,1,34.059,23.864Z" transform="translate(-31.726 -22.506)"/></g><path class="n" d="M21.235,12.545l-.975-.509s2.881-2.653,12.152-3.249c9-.585,14.08,1.776,14.08,1.776A24.3,24.3,0,0,1,48.571,20.4c0,5.708-3.076,8.264-3.076,8.264l-2.274.271a10.83,10.83,0,0,0,3.736-7.289,18.932,18.932,0,0,0-1.581-10.018S32.975,7.217,21.235,12.545Z" transform="translate(1.692 0.722)"/><path class="o" d="M49.968,21.3a15.466,15.466,0,0,1-3.033,6.3l-.314.357-.314.357v.054c-.249.271-.52.542-.791.791a9.509,9.509,0,0,0,1.451-3.043h0a21.661,21.661,0,0,0,.877-5.025c.292-5.859-1.874-9.065-1.874-9.065s-.758-.271-2.025-.639a41.156,41.156,0,0,0-13.451-1.6c-7.386.6-10.072,2.643-10.235,2.773a15.661,15.661,0,0,1,2.968-5.025h0a15.607,15.607,0,0,1,6.715-4.4h0l.3-.087A15.293,15.293,0,0,1,38.26,2.74l.6.141a15.347,15.347,0,0,1,6.7,3.78h0A15.488,15.488,0,0,1,49.968,21.3Z" transform="translate(1.692 0.195)"/><path class="n" d="M46.351,26.142a8.069,8.069,0,0,1-2.61,4.43,5.415,5.415,0,0,1-1.549.834c-4.148,1.386-13.993-.477-13.993-.477l-4.679-4.4.693-.726s3.141,3.065,9.422,2.848a23.827,23.827,0,0,0,6.877-1.191,11.632,11.632,0,0,0,4.765-2.74l1.386-.433h0A10.831,10.831,0,0,1,46.351,26.142Z" transform="translate(1.963 2.017)"/><path class="p" d="M46.663,24.29v4.44a12.791,12.791,0,0,1-3.033,3.433,13.722,13.722,0,0,1-6.639,2.9c-7.126,1.083-10.657-2.957-10.657-2.957L23.54,26.543c.184.173,4.408,4.332,13,3.195A19.711,19.711,0,0,0,42.645,28h0c3.184-1.538,3.823-3.249,4.061-3.693Z" transform="translate(1.965 2.017)"/><path class="d" d="M49.2,21.3a15.477,15.477,0,0,1-3.043,6.3v2.946a12.791,12.791,0,0,1-3.033,3.433c-.466-1.906-.931-4.137-1.018-4.159h0a7.657,7.657,0,0,1-2.069-.531A11.7,11.7,0,0,0,44.8,26.566l1.375-.444a21.011,21.011,0,0,0,.888-5.025c.379-5.859-1.8-9.065-1.8-9.065s-.758-.271-2.025-.628a18.206,18.206,0,0,0-7.224-6.184,31.235,31.235,0,0,0-6.5-2.166,15.4,15.4,0,0,1,8.015-.3l.585.141a17.61,17.61,0,0,1,6.715,3.78h0A15.466,15.466,0,0,1,49.2,21.3Z" transform="translate(2.461 0.196)"/><path class="f" d="M50.4,14.528v.065l-1.722,4.625a1.332,1.332,0,0,0,0-.195h0a11.5,11.5,0,0,0-.368-1.809c-.108-.39-.227-.845-.39-1.321a18.964,18.964,0,0,0-4.809-8.036,8.5,8.5,0,0,0-.8-.726A14.459,14.459,0,0,0,37.9,4.651a14.329,14.329,0,0,0-13.679,1.96A10.008,10.008,0,0,0,23.14,7.6,14.231,14.231,0,0,1,37.566,1.2a16.516,16.516,0,0,1,6.639,2.621l.13.087A15.163,15.163,0,0,1,50.4,14.485Z" transform="translate(1.931 0.082)"/><path class="f" d="M48.322,20.885a6.326,6.326,0,0,1-.3,1.083,15,15,0,0,0,.152-4.6,13.919,13.919,0,0,0-.26-1.635A15.163,15.163,0,0,0,43.1,7.693,10.105,10.105,0,0,0,42.267,7,15.325,15.325,0,0,0,23,7.509c.325-.368.671-.715,1.029-1.083a15.5,15.5,0,0,1,5.686-3.347h0a15.423,15.423,0,0,1,6.823,0A16.159,16.159,0,0,1,43.35,6.426a14.524,14.524,0,0,1,5.253,9.6,14.08,14.08,0,0,1,0,2.87.39.39,0,0,1,0,.119h0a4.875,4.875,0,0,1-.076.682C48.484,20.072,48.408,20.473,48.322,20.885Z" transform="translate(1.92 0.224)"/><path class="f" d="M47.324,23.992a.552.552,0,0,1-.314.065c-.91-.108-1.386-2.621-1.083-5.621a17.331,17.331,0,0,1,.314-1.917l.1-.357a7.667,7.667,0,0,1,.336-1.083c.412-1.083.942-1.733,1.451-1.679a.412.412,0,0,1,.26.1.076.076,0,0,1,.065,0c.7.552,1.083,2.621.78,5.242S48.18,23.613,47.324,23.992Z" transform="translate(3.816 1.113)"/><path class="f" d="M47.659,24.212a.6.6,0,0,1-.39-.217c-.628-.661-.931-2.762-.682-5.209V18.1h0v-.1h0c.314-2.166.986-3.931,1.679-4.473l.1-.065a.606.606,0,0,1,.4-.108c.91.1,1.375,2.61,1.083,5.61S48.569,24.31,47.659,24.212Z" transform="translate(3.871 1.109)"/><path class="q" d="M48.133,25.02a.6.6,0,0,1-.39-.217.552.552,0,0,1-.314.065c-.91-.108-1.386-2.621-1.083-5.621a17.329,17.329,0,0,1,.314-1.917,13.917,13.917,0,0,0-.227-1.679,18.964,18.964,0,0,0-4.809-8.036,10.105,10.105,0,0,0-.834-.693h0l1.137-.52.812-2.773.13.087A15.163,15.163,0,0,1,48.934,14.3a.606.606,0,0,1,.4-.108c.91.1,1.375,2.61,1.083,5.61S49.043,25.118,48.133,25.02Z" transform="translate(3.397 0.301)"/><path class="f" d="M25,51.761l.91-1.581A81.957,81.957,0,0,1,34.3,55.043a28.907,28.907,0,0,1,5.686,4.549Z" transform="translate(2.086 4.167)"/><path class="f" d="M49.917,51.361,40.375,58.5h0L38.87,59.581A24,24,0,0,1,43.2,54.025a48.608,48.608,0,0,1,5.415-4.505l.173.227h0Z" transform="translate(3.238 4.112)"/><path class="c" d="M49.8,51.34,40.26,58.478h0a18.184,18.184,0,0,1,2.783-3.812,43.841,43.841,0,0,1,5.556-4.9h0Z" transform="translate(3.353 4.133)"/><path class="c" d="M49.315,49.651s-6.65-.628-12.509-.6a80.675,80.675,0,0,0-10.765.8l.054-.314.347-2.48a81.111,81.111,0,0,1,10.83-.812H38.56a59.481,59.481,0,0,1,9.747.715Z" transform="translate(2.172 3.841)"/><path class="f" d="M41.253,48.676s-2.166-.1-7.126.076a59.362,59.362,0,0,0-8.036.791l.347-2.48a81.11,81.11,0,0,1,10.83-.812h1.289Z" transform="translate(2.176 3.841)"/><path class="r" d="M22.121,46.944a2.979,2.979,0,0,1-.487.357,7.007,7.007,0,0,1-3.856,1.083c-1.928-.162-3.011-.8-3.162-1.083s0-9.942,0-9.942a1.083,1.083,0,0,1,.422-.314h0a13,13,0,0,1,3.1-.585C18.449,36.579,22.511,46.554,22.121,46.944Z" transform="translate(1.218 3.028)"/><path class="q" d="M21.633,47.256a7.007,7.007,0,0,1-3.856,1.083c-1.928-.162-3.011-.8-3.162-1.083s0-9.942,0-9.942A1.083,1.083,0,0,1,15.038,37h0s2.491,2.166,3.769,3.477S21.363,46.368,21.633,47.256Z" transform="translate(1.218 3.073)"/><path class="s" d="M49.463,46.2a2.512,2.512,0,0,0,.542.292,6.953,6.953,0,0,0,3.942.552c1.9-.39,2.892-1.159,3.011-1.505s-1.224-9.867-1.224-9.867a1.484,1.484,0,0,0-.466-.141h0a13.831,13.831,0,0,0-3.152-.206C51.835,35.451,49.03,45.805,49.463,46.2Z" transform="translate(4.114 2.932)"/><path class="q" d="M50,46.47a6.953,6.953,0,0,0,3.942.552c1.9-.39,2.892-1.159,3.011-1.505s-1.224-9.867-1.224-9.867a1.484,1.484,0,0,0-.466-.141h0s-2.166,2.415-3.325,3.921S50.1,45.55,50,46.47Z" transform="translate(4.162 2.949)"/><path class="d" d="M57.616,42.8h0c-.39.5-.812.964-1.213,1.386L55.32,36.13Z" transform="translate(4.604 3)"/><path class="b" d="M47.229,63.7l-1.386,1.224s-1.668-.173-4.148-.531h0c-1.462-.206-3.249-.477-5.036-.812h0A67.669,67.669,0,0,1,25.395,60.7a18.2,18.2,0,0,1-7.462-5.816c-1.083-1.57-1.592-3.065-.877-4.029,1.4-1.917,8.74.563,14.253,3.325,2.545,1.289,6.292,3.542,9.542,5.556l4.235,2.643,1.083.693h0l.856.552Z" transform="translate(1.399 4.167)"/><path class="c" d="M53.2,68.078c-.455.444-3.141.292-4.863-.422a6.7,6.7,0,0,1-1.267-.736c-1.354-.964-2.74-2.339-3.834-2.534l-4.83-.953-.888-.13,2.242-3.931s2.242,1.43,3.953,2.4c.509.3.986.552,1.321.715a1.993,1.993,0,0,0,.466.173A16.246,16.246,0,0,1,50.668,64.5C52.52,65.608,53.668,67.634,53.2,68.078Z" transform="translate(3.126 4.93)"/><path class="t" d="M41.182,59.622,36.72,63.077l-.184.141a67.668,67.668,0,0,1-11.264-2.881,18.2,18.2,0,0,1-7.462-5.816,81.4,81.4,0,0,1,11.773.671A36.076,36.076,0,0,1,40.76,59.373h0Z" transform="translate(1.489 4.527)"/><path class="f" d="M47.024,66.738c-1.354-.964-2.74-2.339-3.834-2.534l-4.83-.953,5.285-1.7c.509.3.986.552,1.321.715Z" transform="translate(3.195 5.111)"/><path class="b" d="M52.353,60.136a59.31,59.31,0,0,1-7.581,2.827h0l-2.545.769-1.971.563h0c-2.567.736-4.462,1.235-4.462,1.235l-1.083-1.6.466-.433.141-.141h0c.8-.747,2.3-2.166,4.04-3.7h0a104.7,104.7,0,0,1,8.231-6.812A26.253,26.253,0,0,1,58.115,48.5c1.505-.162,2.718,0,3.336.736C63.183,51.1,58.158,57.223,52.353,60.136Z" transform="translate(2.892 4.023)"/><path class="u" d="M51.815,60.132a59.309,59.309,0,0,1-7.581,2.827h0l-2.545.769-.509-.606s.758-.3,1.906-.8c2.773-1.213,7.755-3.531,9.422-5.285,2.242-2.339,4.82-7.863,5.1-8.48,1.505-.162,2.718,0,3.336.736C62.646,51.1,57.621,57.219,51.815,60.132Z" transform="translate(3.43 4.027)"/><path class="c" d="M43.213,62.7s-5.166,1.635-6.726,2.058-1.83,2.166-4.809,4.061S26.263,70.9,26.1,70.682c-.379-.671-.087-2.686,2.036-4.57s3.758-2.22,5.242-2.989S38.512,60.025,39,59.7h0l.791.585h0Z" transform="translate(2.166 4.958)"/><path class="f" d="M37.7,59.9l3.52,3.13,1.029-.325-4.2-3.022Z" transform="translate(3.141 4.956)"/><path class="i" d="M39.819,60.252a95.373,95.373,0,0,1-8.664,4.96c-3.195,1.44-5,5.415-5,5.415-.379-.671-.087-2.686,2.036-4.57s3.758-2.22,5.242-2.989S38.508,60.025,39,59.7l.834.552Z" transform="translate(2.17 4.958)"/><path class="v" d="M69.556,85.73c0,1.083-14.08,1.96-31.408,1.96S6.74,86.813,6.74,85.73s14.08-1.96,31.408-1.96S69.556,84.647,69.556,85.73Z" transform="translate(0.57 -7.865)"/></g></g></svg>