<svg xmlns="http://www.w3.org/2000/svg" xmlns:xlink="http://www.w3.org/1999/xlink" width="57.978" height="95.694" viewBox="0 0 57.978 95.694"><defs><style>.a{fill:#451533;}.b,.d,.u{fill:#3b1544;}.c{fill:#fff;}.d{opacity:0.53;}.e{fill:url(#a);}.f{fill:url(#b);}.g{fill:url(#c);}.h{fill:url(#d);}.i{fill:url(#e);}.ac,.j,.o{fill:#314f74;}.j{opacity:0.35;}.k{fill:url(#f);}.l{fill:url(#g);}.m{fill:url(#h);}.n{fill:url(#i);}.o{opacity:0.65;}.p{fill:url(#k);}.q{fill:url(#l);}.r{fill:url(#m);}.s{fill:url(#n);}.t{fill:url(#p);}.ac,.u{opacity:0.49;}.v{fill:url(#r);}.w{fill:url(#s);}.x{fill:url(#u);}.y{fill:url(#v);}.z{fill:url(#y);}.aa{fill:url(#aa);}.ab{fill:url(#ab);}.ad{fill:url(#ac);}.ae{fill:url(#ad);}.af{fill:url(#ae);}.ag{fill:url(#af);}.ah{fill:url(#ag);}.ai{fill:url(#ah);}.aj{fill:url(#ai);}.ak{fill:url(#aj);}.al{fill:url(#al);}.am{fill:url(#am);}.an{fill:url(#an);}.ao{fill:url(#ap);}.ap{fill:url(#aq);}.aq{fill:url(#ar);}.ar{fill:url(#as);}.as{fill:url(#at);}.at{fill:url(#au);}.au{fill:url(#av);}.av{fill:url(#aw);}.aw{fill:url(#ax);}.ax{fill:url(#ay);}.ay{fill:url(#az);}.az{fill:url(#ba);}.ba{fill:url(#bb);}.bb{fill:url(#bc);}.bc{fill:url(#bd);}</style><linearGradient id="a" x1="0.5" y1="1" x2="0.5" gradientUnits="objectBoundingBox"><stop offset="0" stop-color="#efefa9"/><stop offset="1" stop-color="#7fe1a6"/></linearGradient><linearGradient id="b" x1="0.488" y1="1" x2="0.488" y2="0" xlink:href="#a"/><linearGradient id="c" x1="0.489" y1="1" x2="0.489" y2="0" xlink:href="#a"/><linearGradient id="d" y1="0.5" x2="1" y2="0.5" gradientUnits="objectBoundingBox"><stop offset="0.03" stop-color="#fcf9db"/><stop offset="0.45" stop-color="#659aaf"/><stop offset="0.65" stop-color="#669cb0"/><stop offset="0.75" stop-color="#6ba4b1"/><stop offset="0.83" stop-color="#74b1b5"/><stop offset="0.89" stop-color="#80c4b9"/><stop offset="0.95" stop-color="#8fdcbf"/><stop offset="1" stop-color="#a0f6c6"/></linearGradient><linearGradient id="e" x1="-0.003" y1="0.967" x2="0.951" y2="0.133" xlink:href="#d"/><linearGradient id="f" y1="0.522" x2="1" y2="0.522" gradientUnits="objectBoundingBox"><stop offset="0" stop-color="#efefa9"/><stop offset="1" stop-color="#7fe1d4"/></linearGradient><radialGradient id="g" cx="0.402" cy="1.845" r="3.588" gradientTransform="translate(35.849 -716.457) rotate(180) scale(0.141 0.148)" gradientUnits="objectBoundingBox"><stop offset="0" stop-color="#bae7d1"/><stop offset="0.16" stop-color="#8aab9b"/><stop offset="0.32" stop-color="#60776c"/><stop offset="0.47" stop-color="#3d4c45"/><stop offset="0.62" stop-color="#232b27"/><stop offset="0.76" stop-color="#101311"/><stop offset="0.89" stop-color="#040504"/><stop offset="1"/></radialGradient><linearGradient id="h" x1="-0.138" y1="0.662" x2="0.85" y2="0.439" xlink:href="#d"/><linearGradient id="i" x1="0" y1="0.5" x2="1" y2="0.5" xlink:href="#f"/><linearGradient id="k" x1="-0.012" y1="0.908" x2="0.912" y2="0.347" xlink:href="#d"/><linearGradient id="l" x1="-0.573" y1="0.131" x2="1.518" y2="0.862" xlink:href="#d"/><linearGradient id="m" x1="-0.118" y1="0.258" x2="1.23" y2="0.74" xlink:href="#d"/><linearGradient id="n" x1="-2.485" y1="0.172" x2="3.546" y2="0.807" gradientUnits="objectBoundingBox"><stop offset="0.03" stop-color="#fcf9db"/><stop offset="0.45" stop-color="#8db4c4"/><stop offset="0.67" stop-color="#8eb6c4"/><stop offset="0.78" stop-color="#90bec4"/><stop offset="0.86" stop-color="#94cbc5"/><stop offset="0.94" stop-color="#99dec5"/><stop offset="1" stop-color="#a0f6c6"/></linearGradient><linearGradient id="p" x1="0" y1="0.504" x2="1" y2="0.504" xlink:href="#f"/><radialGradient id="r" cx="0.51" cy="0.418" r="3.598" gradientTransform="translate(14.139 2.191) rotate(180) scale(0.139 0.146)" xlink:href="#g"/><radialGradient id="s" cx="0.509" cy="0.78" r="3.599" gradientTransform="translate(10.916 -131.501) rotate(180) scale(0.139 0.146)" xlink:href="#g"/><radialGradient id="u" cx="0.509" cy="1.456" r="3.599" gradientTransform="translate(11.492 -395.644) rotate(180) scale(0.139 0.146)" xlink:href="#g"/><radialGradient id="v" cx="0.918" cy="0.579" r="0.511" gradientTransform="matrix(-0.645, -0.986, 0.568, -0.025, 36.286, 62.198)" xlink:href="#g"/><linearGradient id="y" x1="0.506" y1="1" x2="0.506" y2="0" xlink:href="#a"/><linearGradient id="aa" x1="0.492" y1="1" x2="0.492" y2="0" xlink:href="#a"/><linearGradient id="ab" x1="0.508" y1="1" x2="0.508" y2="0" xlink:href="#a"/><linearGradient id="ac" x1="0" y1="0.5" x2="1" y2="0.5" xlink:href="#a"/><linearGradient id="ad" x1="0" y1="0.499" y2="0.499" xlink:href="#d"/><radialGradient id="ae" cx="0.509" cy="1.521" r="3.599" gradientTransform="translate(11.526 -421.265) rotate(180) scale(0.139 0.146)" xlink:href="#g"/><radialGradient id="af" cx="0.5" cy="0.5" r="0.402" gradientTransform="translate(-0.422) scale(1.845 1)" gradientUnits="objectBoundingBox"><stop offset="0" stop-color="#efefa9"/><stop offset="1" stop-color="#57cba1"/></radialGradient><radialGradient id="ag" cx="0.486" cy="0.5" r="0.5" gradientTransform="translate(2.644 1.203) rotate(90)" gradientUnits="objectBoundingBox"><stop offset="0" stop-color="#7ccc7e"/><stop offset="0.1" stop-color="#68aa69"/><stop offset="0.27" stop-color="#487749"/><stop offset="0.43" stop-color="#2e4c2f"/><stop offset="0.59" stop-color="#1a2b1b"/><stop offset="0.74" stop-color="#0c130c"/><stop offset="0.88" stop-color="#030503"/><stop offset="1"/></radialGradient><linearGradient id="ah" x1="0.511" y1="1" x2="0.511" y2="0" xlink:href="#a"/><linearGradient id="ai" x1="0.51" y1="1" x2="0.51" y2="0" xlink:href="#a"/><linearGradient id="aj" x1="0.509" y1="1.001" x2="0.509" y2="0" xlink:href="#a"/><linearGradient id="al" x1="0.033" y1="2.909" x2="0.956" y2="-1.556" xlink:href="#d"/><linearGradient id="am" x1="0" y1="0.488" x2="1" y2="0.488" xlink:href="#f"/><radialGradient id="an" cx="0.459" cy="1.46" r="2.37" gradientTransform="translate(11.385 -423.703) rotate(180) scale(0.213 0.222)" xlink:href="#g"/><radialGradient id="ap" cx="0.512" cy="2.339" r="3.563" gradientTransform="translate(12.34 -760.653) rotate(180) scale(0.14 0.146)" xlink:href="#g"/><radialGradient id="aq" cx="0.413" cy="0.217" r="0.817" gradientTransform="translate(9.344 16.998) scale(0.609 0.605)" xlink:href="#g"/><radialGradient id="ar" cx="0.418" cy="0.217" r="0.817" gradientTransform="translate(9.193 17.046) scale(0.609 0.605)" xlink:href="#g"/><radialGradient id="as" cx="0.408" cy="0.217" r="0.817" gradientTransform="translate(9.488 16.998) scale(0.609 0.605)" xlink:href="#g"/><radialGradient id="at" cx="0.403" cy="0.217" r="0.817" gradientTransform="translate(9.632 17.046) scale(0.609 0.605)" xlink:href="#g"/><radialGradient id="au" cx="0.384" cy="0.042" r="0.818" gradientTransform="translate(12.419 26.149) scale(0.609 0.605)" xlink:href="#g"/><radialGradient id="av" cx="0.389" cy="0.042" r="0.818" gradientTransform="translate(12.267 26.149) scale(0.609 0.605)" xlink:href="#g"/><radialGradient id="aw" cx="0.378" cy="0.042" r="0.818" gradientTransform="translate(12.562 26.149) scale(0.609 0.605)" xlink:href="#g"/><radialGradient id="ax" cx="0.374" cy="0.042" r="0.818" gradientTransform="translate(12.706 26.149) scale(0.609 0.605)" xlink:href="#g"/><radialGradient id="ay" cx="0.331" cy="-0.258" r="0.817" gradientTransform="translate(20.294 43.514) scale(0.607 0.605)" xlink:href="#g"/><radialGradient id="az" cx="0.334" cy="-0.258" r="0.817" gradientTransform="translate(20.098 43.514) scale(0.61 0.605)" xlink:href="#g"/><radialGradient id="ba" cx="0.325" cy="-0.258" r="0.817" gradientTransform="translate(20.416 43.514) scale(0.609 0.605)" xlink:href="#g"/><radialGradient id="bb" cx="0.32" cy="-0.258" r="0.817" gradientTransform="translate(20.559 43.514) scale(0.609 0.605)" xlink:href="#g"/><linearGradient id="bc" x1="0.488" y1="1" x2="0.488" y2="0" xlink:href="#a"/><linearGradient id="bd" x1="0.512" y1="1" x2="0.512" y2="0" xlink:href="#a"/></defs><rect class="a" width="11.154" height="7.356" transform="translate(1.551 87.357)"/><path class="a" d="M18.51,264.333l.215-.793H21.3l.192.793Z" transform="translate(-13.212 -188.112)"/><path class="a" d="M21.73,245.7l.389-7.424h.587l.429,7.424Z" transform="translate(-15.511 -170.082)"/><path class="b" d="M23.963,214.015H23.82V203.6h.106Z" transform="translate(-17.002 -145.328)"/><path class="c" d="M19.04,264.715l.123-.5h.879l-.057.5Z" transform="translate(-13.591 -188.598)"/><path class="c" d="M22.475,238.74l-.355,6.932h.269l.218-6.932Z" transform="translate(-15.789 -170.41)"/><path class="c" d="M22.64,264.715l.057-.5h.249l-.02.5Z" transform="translate(-16.16 -188.598)"/><path class="d" d="M24.76,238.74l.143,6.932h.321l-.395-6.932Z" transform="translate(-17.673 -170.41)"/><path class="d" d="M25.57,263.94h.7l.18.575H25.57Z" transform="translate(-18.252 -188.398)"/><rect class="e" width="0.109" height="1.216" transform="translate(6.818 58.933)"/><path class="f" d="M23.82,214.48h.117l.006,1.72H23.82Z" transform="translate(-17.002 -153.094)"/><rect class="g" width="0.129" height="1.823" transform="translate(6.818 64.635)"/><path class="h" d="M15.2,277.378H1.95l.518-1.334.02-.054.023-.066,3.861-9.954h3.44l4.7,9.954.031.066.052.109Z" transform="translate(-1.392 -189.847)"/><path class="i" d="M.884,318.07H13.326l.867,4.66H0Z" transform="translate(0 -227.035)"/><path class="c" d="M8.282,265.97,3.9,277.378H6.442l2.41-11.408Z" transform="translate(-2.784 -189.847)"/><path class="c" d="M3.77,323.089l.424-4.259H6.168L5.8,323.089Z" transform="translate(-2.691 -227.578)"/><path class="c" d="M11.18,323.089l.392-4.259h1.173l-.444,4.259Z" transform="translate(-7.98 -227.578)"/><path class="j" d="M8.948,265.97l3.812,11.1-10.81.309H14.764L9.555,265.97Z" transform="translate(-1.392 -189.847)"/><path class="k" d="M15.888,300.816H3.83l.023-.066h12Z" transform="translate(-2.734 -214.672)"/><path class="j" d="M15.89,301.089l-1.608-.009L4.8,301.04l-1.042-.006.02-.054H15.838Z" transform="translate(-2.684 -214.837)"/><ellipse class="l" cx="4.774" cy="0.673" rx="4.774" ry="0.673" transform="translate(2.101 85.471)"/><path class="j" d="M11.008,318.07l.209,3.684L0,322.73H13.784l-.77-4.66Z" transform="translate(0 -227.035)"/><path class="a" d="M74.413,193.309H45.955l-1.525-4.3H75.784Z" transform="translate(-31.714 -134.913)"/><path class="a" d="M71.092,185.259H38.819L37.09,181.51H72.646Z" transform="translate(-26.474 -129.56)"/><path class="a" d="M133.493,239.37l-5.06,19.059-2.573-3.8,2.539-11.715Z" transform="translate(-89.838 -170.86)"/><path class="m" d="M50.488,126.432,43.11,121,55.955,74.15h6.268L75.429,121,67.8,126.432Z" transform="translate(-30.771 -52.928)"/><path class="a" d="M77.13,256.82l3.52,9.914h6.216l2.9-9.914Z" transform="translate(-55.055 -183.316)"/><path class="n" d="M70.352,74.15,60.67,120.622l5.747,5.81h.412l-5.9-5.827L70.493,74.15Z" transform="translate(-43.306 -52.928)"/><path class="o" d="M77.13,256.82H89.766l-1.649,5.635.5-3.747L77.5,257.865Z" transform="translate(-55.055 -183.316)"/><path class="n" d="M103.653,74.15l10.853,46.5-6.709,5.784h-.363l6.915-5.827L103.55,74.15Z" transform="translate(-73.913 -52.928)"/><path class="a" d="M43.11,235.905a170.506,170.506,0,0,1,32.319,0L67.8,241.343H50.488Z" transform="translate(-30.771 -167.836)"/><path class="p" d="M62.6,276.51,53.97,289.263H81.005L71.586,276.51Z" transform="translate(-38.523 -197.37)"/><path class="a" d="M58.04,321.07l1.088,1.108h22.45l1.09-1.108Z" transform="translate(-41.428 -229.177)"/><path class="a" d="M46.83,240.57,51.8,259.285l2.573-3.8-2.416-11.139Z" transform="translate(-33.427 -171.717)"/><path class="q" d="M44.5,238.86l5.16,19.909.475-.7-4.969-18.715Z" transform="translate(-31.764 -170.496)"/><path class="r" d="M140.278,238.977l-4.788,18.034.678.919,4.994-19.58Z" transform="translate(-96.711 -170.132)"/><path class="s" d="M96.53,238.35l.458,20.4h.853l.429-20.4Z" transform="translate(-68.902 -170.132)"/><path class="n" d="M66.009,210.682l19.909-.172.031.109L65.94,210.8Z" transform="translate(-47.067 -150.26)"/><path class="t" d="M66.406,152.026l3.538-.166-.052.243-3.532.092Z" transform="translate(-47.367 -108.396)"/><path class="n" d="M126.661,148.111h-2.29L121.16,134.39h1.634l.029.083-1.488-.011,3.131,13.555,2.175.023Z" transform="translate(-86.483 -95.926)"/><path class="j" d="M74.59,130.959l5.1-25.779H83.6l5.361,25.779-.295-.043-5.255-25.43H80.019l-5.16,25.473Z" transform="translate(-53.242 -75.076)"/><path class="c" d="M78.794,105.18l-5.1,25.779H88.064L82.7,105.18l5.65,26.114-15.023.2Z" transform="translate(-52.342 -75.076)"/><path class="u" d="M77.311,74.15l9.073,39.028-19.594.169,19.459-.306-9-38.89Z" transform="translate(-47.674 -52.928)"/><path class="u" d="M123.258,134.651l-1.488-.011,3.131,13.555,2.175.023-2.127-.092-3.1-13.435Z" transform="translate(-86.918 -96.105)"/><path class="u" d="M66.52,96.557l3.374-.166L74.528,74.15h-.117L69.757,96.311Z" transform="translate(-47.481 -52.928)"/><path class="c" d="M44.5,178l6.38-23.435h1.872l-6.03,23.06Z" transform="translate(-31.764 -110.331)"/><path class="c" d="M68.61,96.691,74.529,74.85h.887L69.961,96.691Z" transform="translate(-48.973 -53.427)"/><path class="c" d="M64.68,277.58,56.6,289.661h3.847l4.971-12.081Z" transform="translate(-40.401 -198.134)"/><path class="c" d="M76.222,277.58,71.19,289.661h.939l4.848-12.081Z" transform="translate(-50.815 -198.134)"/><path class="j" d="M70.336,277.58l6.6,11.692-21.469.756H81.6L72.225,277.58Z" transform="translate(-39.594 -198.134)"/><path class="j" d="M85.484,74.85l11.577,45.424a171.633,171.633,0,0,0-19.932,0s15.63-.415,21.58.827L86.269,74.85Z" transform="translate(-55.055 -53.427)"/><ellipse class="v" cx="8.689" cy="1.205" rx="8.689" ry="1.205" transform="translate(16.66 65.082) rotate(-78.05)"/><ellipse class="w" cx="8.689" cy="1.205" rx="8.689" ry="1.205" transform="translate(22.264 59.214)"/><path class="n" d="M57.78,315.14H82.391l.117.12H57.7Z" transform="translate(-41.186 -224.944)"/><path class="j" d="M82.352,315.56H57.543l-.063.092,25.012.106Z" transform="translate(-41.029 -225.244)"/><ellipse class="x" cx="8.689" cy="1.205" rx="8.689" ry="1.205" transform="translate(19.706 89.109)"/><path class="y" d="M104.344,75.83c.65-.14,2,3.546,3.022,8.234s1.319,8.606.67,8.747-2-3.546-3.022-8.234S103.695,75.973,104.344,75.83Z" transform="translate(-74.235 -54.124)"/><path class="a" d="M89.29,71.809l.386-.939h4.662l.349.939Z" transform="translate(-63.734 -50.586)"/><path class="a" d="M95.12,49.791l.707-8.781h1.065l.773,8.781Z" transform="translate(-67.896 -29.273)"/><path class="a" d="M99.17,12.313h-.26V0H99.1Z" transform="translate(-70.601)"/><path class="c" d="M90.26,72.271l.22-.581h1.591l-.1.581Z" transform="translate(-64.427 -51.172)"/><path class="c" d="M96.47,41.55l-.65,8.2h.492l.392-8.2Z" transform="translate(-68.395 -29.658)"/><path class="c" d="M96.77,72.271l.1-.581h.455l-.037.581Z" transform="translate(-69.073 -51.172)"/><path class="d" d="M100.62,41.55l.26,8.2h.578l-.716-8.2Z" transform="translate(-71.822 -29.658)"/><path class="d" d="M102.08,71.35h1.268l.332.678h-1.6Z" transform="translate(-72.864 -50.929)"/><rect class="e" width="0.195" height="1.437" transform="translate(28.309 0.784)"/><path class="e" d="M98.91,12.87h.212l.011,2.032H98.91Z" transform="translate(-70.601 -9.186)"/><rect class="z" width="0.232" height="2.155" transform="translate(28.309 7.524)"/><path class="a" d="M105.815,48.5h-.195V39.2h.143Z" transform="translate(-75.391 -27.981)"/><rect class="e" width="0.149" height="1.085" transform="translate(30.229 11.812)"/><path class="aa" d="M105.62,48.92h.16l.009,1.534h-.169Z" transform="translate(-75.391 -34.919)"/><path class="a" d="M92.237,41.968h-.2V30.05h.146Z" transform="translate(-65.697 -21.449)"/><path class="ab" d="M92.04,42.51h.16l.009,1.966H92.04Z" transform="translate(-65.697 -30.343)"/><path class="c" d="M48.32,238.642l6.254,4.76h2.564l-3.775-5.052Z" transform="translate(-34.49 -170.132)"/><path class="c" d="M68.61,238.35l3.632,5.032h.621l-2.33-5.032Z" transform="translate(-48.973 -170.132)"/><path class="c" d="M79.13,258.31l1.709,4.971h1.806l-1.457-4.971Z" transform="translate(-56.482 -184.379)"/><path class="c" d="M97.45,239.37l.209,11.466H98.5L98.7,239.37Z" transform="translate(-69.559 -170.86)"/><path class="c" d="M98.45,280.97v1.242l.647.195V280.97Z" transform="translate(-70.273 -200.554)"/><path class="ac" d="M101.539,238.35l2.616,5.286v5.635L102.53,257.7l-1.42,1.05Z" transform="translate(-72.171 -170.132)"/><path class="o" d="M132.76,243.937l-3.586,1.689L127.345,256.5l-1.125-1.523,2.344-10.813,5.1-3.629Z" transform="translate(-90.095 -171.695)"/><path class="o" d="M47.817,244.288l3.609,2.459,2.376,9.579.57-.841-2.416-11.139L46.83,240.57Z" transform="translate(-33.427 -171.717)"/><rect class="ad" width="20.916" height="0.727" transform="translate(18.372 93.001)"/><path class="ae" d="M74.965,328.561H40.48l2.582-2.321H72.624Z" transform="translate(-28.894 -232.867)"/><path class="c" d="M43.89,329.266l1.863-1.786H49.9L48.5,329.266Z" transform="translate(-31.328 -233.752)"/><path class="c" d="M61.98,329.266,63.2,327.48h1.649l-1.079,1.786Z" transform="translate(-44.241 -233.752)"/><path class="j" d="M67.172,326.94l1.153,1.694-27.845.426H74.422L72.55,326.94Z" transform="translate(-28.894 -233.367)"/><ellipse class="af" cx="8.689" cy="1.205" rx="8.689" ry="1.205" transform="translate(19.554 92.011)"/><path class="ag" d="M89.34,131.68l-5.255-25.43H80.69l-5.16,25.473Z" transform="translate(-53.913 -75.84)"/><ellipse class="ah" cx="8.592" cy="16.935" rx="8.592" ry="16.935" transform="translate(19.385 35.25)"/><path class="a" d="M161.02,251.559l.255-.939h3.042l.226.939Z" transform="translate(-114.935 -178.89)"/><path class="a" d="M164.83,229.541l.461-8.781h.7l.5,8.781Z" transform="translate(-117.654 -157.576)"/><path class="b" d="M167.469,192.063H167.3V179.75h.126Z" transform="translate(-119.417 -128.304)"/><path class="c" d="M161.66,252.021l.143-.581h1.039l-.069.581Z" transform="translate(-115.391 -179.475)"/><path class="c" d="M165.711,221.3l-.421,8.2h.321l.255-8.2Z" transform="translate(-117.982 -157.962)"/><path class="c" d="M165.91,252.021l.066-.581h.3l-.026.581Z" transform="translate(-118.425 -179.475)"/><path class="d" d="M168.42,221.3l.169,8.2h.378l-.467-8.2Z" transform="translate(-120.217 -157.962)"/><path class="d" d="M169.37,251.09h.827l.218.681H169.37Z" transform="translate(-120.895 -179.226)"/><rect class="ai" width="0.129" height="1.437" transform="translate(47.883 52.23)"/><path class="aj" d="M167.3,192.62h.137l.009,2.032H167.3Z" transform="translate(-119.417 -137.49)"/><rect class="ak" width="0.152" height="2.155" transform="translate(47.883 58.968)"/><path class="h" d="M157.11,273.947H141.44l.612-2.39.026-.1.026-.117,4.568-17.842h4.067l5.558,17.842.037.117.06.192Z" transform="translate(-100.958 -180.946)"/><rect class="a" width="13.189" height="1.534" transform="translate(41.658 93.001)"/><path class="al" d="M135.559,330.3h17.118l1.191,1.159H134.34Z" transform="translate(-95.891 -235.765)"/><path class="c" d="M148.93,253.5l-5.18,20.447h3.005L149.6,253.5Z" transform="translate(-102.607 -180.946)"/><path class="c" d="M139.53,331.542l.581-1.062h2.722l-.515,1.062Z" transform="translate(-99.595 -235.893)"/><path class="c" d="M149.73,331.542l.541-1.062h1.611l-.61,1.062Z" transform="translate(-106.876 -235.893)"/><path class="j" d="M149.717,253.5l4.5,19.892-12.782.555h15.152L150.433,253.5Z" transform="translate(-100.958 -180.946)"/><path class="am" d="M157.926,315.957H143.67l.026-.117h14.193Z" transform="translate(-102.55 -225.444)"/><path class="j" d="M157.922,316.442l-1.9-.011-11.205-.074-1.234-.009.026-.1h14.256Z" transform="translate(-102.486 -225.736)"/><ellipse class="an" cx="5.644" cy="1.205" rx="5.644" ry="1.205" transform="translate(42.305 89.309)"/><rect class="ad" width="13.189" height="0.389" transform="translate(41.658 93.573)"/><path class="ao" d="M150.69,325.95c0-.369,2.158-.67,4.82-.67s4.823.3,4.823.67-2.158.681-4.823.681S150.69,326.319,150.69,325.95Z" transform="translate(-107.561 -232.182)"/><path class="j" d="M149.486,330.3l.283.916-15.43.243H153.3l-1.062-1.159Z" transform="translate(-95.891 -235.765)"/><ellipse class="ap" cx="3.406" cy="2.075" rx="3.406" ry="2.075" transform="translate(21.657 65.379)"/><ellipse class="aq" cx="3.406" cy="2.075" rx="3.406" ry="2.075" transform="translate(13.157 65.814)"/><ellipse class="ar" cx="3.406" cy="2.075" rx="3.406" ry="2.075" transform="translate(29.723 65.379)"/><ellipse class="as" cx="3.406" cy="2.075" rx="3.406" ry="2.075" transform="translate(37.846 65.814)"/><ellipse class="at" cx="2.556" cy="1.557" rx="2.556" ry="1.557" transform="translate(23.767 90.299)"/><ellipse class="au" cx="2.556" cy="1.557" rx="2.556" ry="1.557" transform="translate(17.384 90.299)"/><ellipse class="av" cx="2.556" cy="1.557" rx="2.556" ry="1.557" transform="translate(29.826 90.299)"/><ellipse class="aw" cx="2.556" cy="1.557" rx="2.556" ry="1.557" transform="translate(35.882 90.299)"/><path class="ax" d="M17,303.56c0,.5-.67.91-1.494.91s-1.5-.406-1.5-.91.67-.91,1.5-.91S17,303.056,17,303.56Z" transform="translate(-9.993 -216.029)"/><path class="ay" d="M3.985,303.56c0,.5-.67.91-1.494.91S1,304.064,1,303.56s.67-.91,1.494-.91S3.985,303.056,3.985,303.56Z" transform="translate(-0.714 -216.029)"/><path class="az" d="M29.381,303.56c0,.5-.67.91-1.494.91s-1.5-.406-1.5-.91.67-.91,1.5-.91S29.381,303.056,29.381,303.56Z" transform="translate(-18.837 -216.029)"/><path class="ba" d="M41.751,303.56c0,.5-.67.91-1.494.91s-1.5-.406-1.5-.91.67-.91,1.5-.91S41.751,303.056,41.751,303.56Z" transform="translate(-27.667 -216.029)"/><path class="a" d="M146.06,179.5l.235-.864h2.8l.209.864Z" transform="translate(-104.256 -127.511)"/><path class="a" d="M149.56,159.268l.424-8.068h.641l.464,8.068Z" transform="translate(-106.754 -107.925)"/><path class="b" d="M151.995,124.827h-.155V113.51h.114Z" transform="translate(-108.382 -81.022)"/><path class="c" d="M146.65,179.925l.132-.535h.956l-.063.535Z" transform="translate(-104.677 -128.047)"/><path class="c" d="M150.376,151.7l-.386,7.533h.295l.235-7.533Z" transform="translate(-107.061 -108.282)"/><path class="c" d="M150.56,179.925l.06-.535h.272l-.023.535Z" transform="translate(-107.468 -128.047)"/><path class="d" d="M152.86,151.7l.155,7.533h.349l-.429-7.533Z" transform="translate(-109.11 -108.282)"/><path class="d" d="M153.74,179.08h.761l.2.624h-.959Z" transform="translate(-109.738 -127.826)"/><rect class="bb" width="0.117" height="1.322" transform="translate(43.458 33.206)"/><path class="a" d="M45.97,180.561l.232-.381H49l.209.381Z" transform="translate(-32.813 -128.611)"/><path class="a" d="M49.47,171.666l.424-3.546h.638L51,171.666Z" transform="translate(-35.311 -120.002)"/><path class="b" d="M51.895,156.524H51.74V151.55h.114Z" transform="translate(-36.931 -108.175)"/><path class="c" d="M46.55,180.745l.132-.235h.956l-.063.235Z" transform="translate(-33.227 -128.846)"/><path class="c" d="M50.279,168.34l-.389,3.311h.295l.235-3.311Z" transform="translate(-35.611 -120.159)"/><path class="c" d="M50.46,180.745l.06-.235h.275l-.023.235Z" transform="translate(-36.018 -128.846)"/><path class="d" d="M52.77,168.34l.155,3.311h.346l-.429-3.311Z" transform="translate(-37.667 -120.159)"/><path class="d" d="M53.65,180.37h.758l.2.275H53.65Z" transform="translate(-38.295 -128.746)"/><rect class="bc" width="0.117" height="0.581" transform="translate(14.808 43.69)"/><path class="a" d="M141.83,168.822l.426-5.172h.478l.306,5.155Z" transform="translate(-101.237 -116.812)"/><rect class="a" width="0.189" height="3.108" transform="translate(41.148 43.959)"/><path class="c" d="M142.29,169l.424-5.075h.094l-.26,5.075Z" transform="translate(-101.565 -117.012)"/><path class="a" d="M40.39,158.062l.426-9.462h.478l.306,9.433Z" transform="translate(-28.83 -106.069)"/><rect class="a" width="0.189" height="5.684" transform="translate(12.115 37.262)"/><path class="c" d="M40.84,158.4l.426-9.288h.094L41.1,158.4Z" transform="translate(-29.151 -106.433)"/></svg>