<svg xmlns="http://www.w3.org/2000/svg" xmlns:xlink="http://www.w3.org/1999/xlink" width="63.491" height="109.098" viewBox="0 0 63.491 109.098"><defs><style>.a{fill:#451533;}.b{fill:url(#a);}.c{fill:url(#b);}.d{fill:url(#c);}.e,.i{fill:#314f74;}.e{opacity:0.65;}.f{fill:url(#d);}.g{fill:#fff;}.h{fill:url(#e);}.i{opacity:0.35;}.j{fill:url(#f);}.k{fill:url(#g);}.l{fill:url(#h);}.m{fill:url(#i);}.n{fill:url(#j);}.o{fill:#3b1544;opacity:0.53;}.p{fill:url(#k);}.q{fill:url(#m);}.r{fill:url(#n);}.s{fill:url(#q);}.t{fill:url(#r);}.u{fill:url(#s);}.v{fill:url(#t);}.w{fill:url(#u);}.x{fill:url(#v);}</style><radialGradient id="a" cx="0.5" cy="0.499" r="4.514" gradientTransform="translate(0.461) scale(0.079 1)" gradientUnits="objectBoundingBox"><stop offset="0" stop-color="#efefa9"/><stop offset="1" stop-color="#57cba1"/></radialGradient><linearGradient id="b" x1="0.044" y1="-1.078" x2="0.971" y2="2.249" gradientUnits="objectBoundingBox"><stop offset="0.03" stop-color="#fcf9db"/><stop offset="0.45" stop-color="#659aaf"/><stop offset="0.65" stop-color="#669cb0"/><stop offset="0.75" stop-color="#6ba4b1"/><stop offset="0.83" stop-color="#74b1b5"/><stop offset="0.89" stop-color="#80c4b9"/><stop offset="0.95" stop-color="#8fdcbf"/><stop offset="1" stop-color="#a0f6c6"/></linearGradient><radialGradient id="c" cx="0.5" cy="0.516" r="2.152" gradientTransform="translate(-1.504 -6.168) scale(0.232 0.234)" gradientUnits="objectBoundingBox"><stop offset="0" stop-color="#7ccc7e"/><stop offset="0.1" stop-color="#68aa69"/><stop offset="0.27" stop-color="#487749"/><stop offset="0.43" stop-color="#2e4c2f"/><stop offset="0.59" stop-color="#1a2b1b"/><stop offset="0.74" stop-color="#0c130c"/><stop offset="0.88" stop-color="#030503"/><stop offset="1"/></radialGradient><linearGradient id="d" x1="-0.209" y1="0.403" x2="1.055" y2="0.585" xlink:href="#b"/><radialGradient id="e" cx="0.5" cy="0.5" r="0.357" gradientTransform="translate(-2.876) scale(6.752 1)" xlink:href="#a"/><radialGradient id="f" cx="0.508" cy="0.5" r="0.5" gradientTransform="translate(-6.872 4.269) rotate(90) scale(1 1.008)" xlink:href="#c"/><radialGradient id="g" cx="0.5" cy="0.5" r="0.551" gradientTransform="translate(0.082) scale(0.836 1)" xlink:href="#a"/><radialGradient id="h" cx="0.5" cy="0.551" r="2.155" gradientTransform="translate(-1.237 -36.138) rotate(180) scale(0.232 0.234)" xlink:href="#c"/><radialGradient id="i" cx="0.5" cy="0.499" r="2.155" gradientTransform="translate(-2.734 -11.758) rotate(180) scale(0.232 0.234)" xlink:href="#c"/><radialGradient id="j" cx="0.484" cy="0.484" r="0.51" gradientTransform="matrix(0.663, 0.978, -0.718, 0.049, 0.154, 5.974)" xlink:href="#c"/><linearGradient id="k" x1="0.5" y1="1" x2="0.5" gradientUnits="objectBoundingBox"><stop offset="0" stop-color="#efefa9"/><stop offset="1" stop-color="#7fe1a6"/></linearGradient><linearGradient id="m" x1="0.509" x2="0.509" y2="0" xlink:href="#k"/><linearGradient id="n" x1="0.514" x2="0.514" y2="0" xlink:href="#k"/><radialGradient id="q" cx="0.499" cy="0.5" r="0.388" gradientTransform="translate(-0.614) scale(2.229 1)" xlink:href="#a"/><radialGradient id="r" cx="0.5" cy="0.5" r="0.368" gradientTransform="translate(-1.221) scale(3.443 1)" xlink:href="#a"/><radialGradient id="s" cx="0.5" cy="0.5" r="0.4" gradientTransform="translate(-0.438) scale(1.877 1)" xlink:href="#a"/><radialGradient id="t" cx="0.507" cy="0.498" r="0.511" gradientTransform="matrix(0.66, 0.978, -0.715, 0.049, -4.077, 3.029)" xlink:href="#c"/><radialGradient id="u" cx="0.503" cy="0.513" r="0.509" gradientTransform="matrix(-0.498, 0.98, -0.861, -0.07, -31.852, 3.169)" xlink:href="#c"/><radialGradient id="v" cx="0.515" cy="0.52" r="0.509" gradientTransform="matrix(-0.494, 0.98, -0.856, -0.07, -29.535, -3.971)" xlink:href="#c"/></defs><rect class="a" width="51.761" height="1.808" transform="translate(6.116 107.29)"/><rect class="b" width="38.514" height="3.026" transform="translate(12.25 99.886)"/><path class="a" d="M18.715,66.662,0,83.055l9.852,41.16,43.862.184,9.776-41.344L44.364,66.58Z" transform="translate(0 -24.342)"/><path class="c" d="M62.3,166.6H7.5l1.078-4.377H60.536Z" transform="translate(-2.742 -59.308)"/><ellipse class="d" cx="16.222" cy="3.768" rx="16.222" ry="3.768" transform="translate(15.283 97.628)"/><path class="e" d="M22.6,71.445l5.215,46.749H52.036L56.61,70.963l-2.4-1.783-28.9.1Z" transform="translate(-8.263 -25.292)"/><path class="f" d="M50.6,108.632H30.653L25.07,48.745l9.237-2.265H47.2l9.066,2.265Z" transform="translate(-9.166 -16.993)"/><path class="g" d="M34.962,48.27l1.091,61.017H31.289L26.81,50.5Z" transform="translate(-9.802 -17.648)"/><path class="h" d="M42.8,50.88h8.6l-1.142,58.086H43.948Z" transform="translate(-15.648 -18.602)"/><path class="i" d="M50.261,108.966,51.4,50.88H42.8l1.148,58.086.45-.032L43.428,51.5l7.4.057-.882,57.407Z" transform="translate(-15.648 -18.602)"/><path class="i" d="M50.929,47.98l-1.783,60.8-15.276.4h19.1L58.409,49.82Z" transform="translate(-12.383 -17.542)"/><ellipse class="j" cx="5.735" cy="24.71" rx="5.735" ry="24.71" transform="translate(25.611 33.446)"/><path class="g" d="M10.03,166.5l.711-3.286h10.3l-.266,3.286Z" transform="translate(-3.667 -59.67)"/><path class="g" d="M27.75,166.5h4.028V163.21H28.067Z" transform="translate(-10.145 -59.67)"/><path class="i" d="M51.8,162.96l.533,2.747L7.5,166.868H60.923L59.21,162.96Z" transform="translate(-2.742 -59.578)"/><path class="k" d="M9.34,84.271l9.047,43.4H51.927L61.45,84.76l-.159-.133-9.522,42.746H18.64L9.53,84.1Z" transform="translate(-3.415 -30.747)"/><path class="e" d="M9.64,83.943l9.11,43.272H51.878L61.4,84.469l-.209-.184-9.465,42.79H19.01L9.957,83.67Z" transform="translate(-3.524 -30.59)"/><ellipse class="l" cx="15.644" cy="3.629" rx="15.644" ry="3.629" transform="translate(17.135 92.997)"/><ellipse class="m" cx="15.644" cy="3.629" rx="15.644" ry="3.629" transform="matrix(0.195, -0.981, 0.981, 0.195, 46.639, 89.496)"/><path class="n" d="M16.214,118.623c-1.954.425-5.031-6.078-6.871-14.521s-1.732-15.638.228-16.063,5.037,6.078,6.871,14.521S18.161,118.192,16.214,118.623Z" transform="translate(-2.936 -32.18)"/><path class="g" d="M1.69,91.1l7.372,29.975,3.216-1.313L5.807,87.89Z" transform="translate(-0.618 -32.133)"/><path class="g" d="M13.68,140.628l1.281,5.253,2.982-.78-1.281-5.83Z" transform="translate(-5.001 -50.917)"/><rect class="a" width="10.531" height="2.265" transform="translate(26.232 27.222)"/><path class="a" d="M43.1,42.106l.577-1.4h6.934l.52,1.4Z" transform="translate(-15.757 -14.884)"/><path class="a" d="M47.02,36.237l1.047-8.717h1.586L50.8,36.237Z" transform="translate(-17.191 -10.061)"/><path class="a" d="M49.947,18.321H49.56V0h.285Z" transform="translate(-18.119)"/><path class="g" d="M43.76,42.123l.324-.863h2.373l-.159.863Z" transform="translate(-15.999 -15.085)"/><path class="g" d="M48.454,27.89l-.964,7.848h.73L48.8,27.89Z" transform="translate(-17.362 -10.197)"/><path class="g" d="M48.13,42.123l.152-.863h.672l-.057.863Z" transform="translate(-17.596 -15.085)"/><path class="o" d="M50.71,27.89l.381,7.848h.863L50.894,27.89Z" transform="translate(-18.54 -10.197)"/><path class="o" d="M51.69,41.03h1.884l.495,1.009H51.69Z" transform="translate(-18.898 -15.001)"/><rect class="p" width="0.292" height="2.138" transform="translate(31.441 1.167)"/><path class="p" d="M49.56,8.64h.317l.013,3.026h-.33Z" transform="translate(-18.119 -3.159)"/><rect class="q" width="0.349" height="3.21" transform="translate(31.441 11.191)"/><path class="a" d="M54.352,35.794H54.06V26.31h.216Z" transform="translate(-19.764 -9.619)"/><rect class="r" width="0.222" height="1.611" transform="translate(34.296 17.573)"/><path class="p" d="M54.06,32.83H54.3l.013,2.284H54.06Z" transform="translate(-19.764 -12.003)"/><path class="a" d="M45.242,33.549H44.95V20.17h.216Z" transform="translate(-16.434 -7.374)"/><path class="p" d="M44.95,28.53h.241l.013,2.925H44.95Z" transform="translate(-16.434 -10.431)"/><rect class="g" width="4.168" height="1.681" transform="translate(26.778 27.584)"/><path class="s" d="M78.6,77.97l4.5,3.889L81.25,90.88l-3.94-1.814Z" transform="translate(-28.265 -28.506)"/><path class="t" d="M18.17,110.391l3.787-2.791L25.1,131.041l-2.69.431Z" transform="translate(-6.643 -39.339)"/><path class="u" d="M81.023,147.777H77.35l3.1-12.847H84.2Z" transform="translate(-28.279 -49.331)"/><path class="e" d="M80.446,134.67l-3.1,12.847,2.779-13.3,4.574.184-3.68,13.113L84.2,134.67Z" transform="translate(-28.279 -49.071)"/><path class="e" d="M77.31,88.729l1.294-11.1,4.5,3.889-1.91,9.288L83.7,81.25l-5.418-4.2Z" transform="translate(-28.265 -28.17)"/><path class="e" d="M22.1,130.891,17.856,109.81l3.787-2.791L24.79,130.46l-2.931-24.45-4.549,3.464Z" transform="translate(-6.329 -38.757)"/><path class="v" d="M24.414,134c-1.237.273-3.172-3.851-4.358-9.205s-1.1-9.916.146-10.188,3.172,3.851,4.358,9.211S25.657,133.73,24.414,134Z" transform="translate(-7.025 -41.894)"/><path class="w" d="M78,93.829c-1.307-.26-1.77-3.5-1.028-7.232S79.4,80.05,80.668,80.31s1.77,3.5,1.028,7.232S79.317,94.064,78,93.829Z" transform="translate(-28.013 -29.355)"/><path class="x" d="M79.83,147.909c-1.313-.26-1.776-3.5-1.034-7.232s2.411-6.547,3.718-6.287,1.776,3.5,1.034,7.232S81.137,148.17,79.83,147.909Z" transform="translate(-28.678 -49.127)"/></svg>