<svg xmlns="http://www.w3.org/2000/svg" xmlns:xlink="http://www.w3.org/1999/xlink" width="117.104" height="80.098" viewBox="0 0 117.104 80.098"><defs><style>.a{fill:url(#a);}.b{fill:url(#b);}.c,.m{fill:#451533;}.d{fill:#fff;}.e{fill:#3b1544;}.am,.e{opacity:0.53;}.f{fill:url(#c);}.g{fill:url(#d);}.h{fill:#610431;opacity:0.28;}.i{fill:url(#e);}.j,.w{fill:#88003b;}.j{opacity:0.25;}.k{fill:#fff5ce;}.l{fill:url(#f);}.m,.w{opacity:0.54;}.n{fill:#0f1132;}.o{fill:#2effa6;}.p,.x{fill:#0c107f;}.aj,.p{opacity:0.35;}.q{fill:url(#g);}.r{fill:url(#h);}.s{fill:url(#i);}.t{fill:url(#j);}.u{fill:url(#k);}.v{fill:#0f0022;}.y{fill:#592e49;}.z{fill:url(#o);}.aa{fill:#595c7e;}.ab{fill:url(#p);}.ac{fill:url(#q);}.ad{fill:url(#r);}.ae{fill:url(#s);}.af{fill:url(#t);}.ag{fill:url(#v);}.ah{fill:url(#w);}.ai{fill:url(#x);}.aj,.am{fill:#9a313b;}.ak{fill:url(#y);}.al{fill:url(#z);}.an{fill:url(#aa);}.ao{fill:url(#ab);}.ap{fill:url(#ac);}.aq{fill:url(#ad);}.ar{fill:url(#ae);}.as{fill:url(#af);}.at{fill:url(#ag);}.au{fill:url(#ah);}.av{fill:#ffffd8;}</style><linearGradient id="a" y1="0.5" x2="1" y2="0.5" gradientUnits="objectBoundingBox"><stop offset="0" stop-color="#fcf4c5"/><stop offset="0.96" stop-color="#ffa681"/></linearGradient><linearGradient id="b" x1="0" x2="1" xlink:href="#a"/><linearGradient id="c" x1="3184.681" y1="1" x2="3184.681" gradientUnits="objectBoundingBox"><stop offset="0" stop-color="#efefa9"/><stop offset="1" stop-color="#7fe1a6"/></linearGradient><linearGradient id="d" x1="4155.691" y1="1" x2="4155.691" y2="0" xlink:href="#c"/><linearGradient id="e" x1="0.002" y1="0.5" x2="1" y2="0.5" gradientUnits="objectBoundingBox"><stop offset="0.03" stop-color="#fcf9db"/><stop offset="0.45" stop-color="#659aaf"/><stop offset="0.65" stop-color="#669cb0"/><stop offset="0.75" stop-color="#6ba4b1"/><stop offset="0.83" stop-color="#74b1b5"/><stop offset="0.89" stop-color="#80c4b9"/><stop offset="0.95" stop-color="#8fdcbf"/><stop offset="1" stop-color="#a0f6c6"/></linearGradient><radialGradient id="f" cx="0.932" cy="0.443" r="0.815" gradientTransform="matrix(-1.241, 0, 0, 1, 82.694, 0)" gradientUnits="objectBoundingBox"><stop offset="0.03" stop-color="#d4845e"/><stop offset="1" stop-color="#731245"/></radialGradient><radialGradient id="g" cx="0.551" cy="0.49" r="0.5" gradientTransform="matrix(0, -1, -0.996, 0, 15.748, 15.839)" gradientUnits="objectBoundingBox"><stop offset="0" stop-color="#c4ffc2"/><stop offset="0.05" stop-color="#b2e8b1"/><stop offset="0.2" stop-color="#84ab82"/><stop offset="0.35" stop-color="#5c775b"/><stop offset="0.5" stop-color="#3b4c3a"/><stop offset="0.64" stop-color="#212b21"/><stop offset="0.77" stop-color="#0f130f"/><stop offset="0.9" stop-color="#040504"/><stop offset="1"/></radialGradient><linearGradient id="h" x1="0.001" y1="0.5" x2="1" y2="0.5" xlink:href="#e"/><radialGradient id="i" cx="33.864" cy="0.444" r="0.813" gradientTransform="translate(-0.122) scale(1.243 1)" xlink:href="#f"/><radialGradient id="j" cx="0.549" cy="0.49" r="0.5" gradientTransform="matrix(0, -1, -0.996, 0, 6.687, 6.774)" xlink:href="#g"/><linearGradient id="k" x1="0.5" y1="0" x2="0.5" y2="1" xlink:href="#e"/><radialGradient id="o" cx="0.506" cy="0.59" r="0.839" gradientTransform="matrix(-0.595, -0.152, -0.053, 0.577, 2.179, 7.345)" xlink:href="#g"/><linearGradient id="p" x1="85.112" y1="-48.097" x2="85.77" y2="-48.382" gradientUnits="objectBoundingBox"><stop offset="0.03" stop-color="#fcf9db"/><stop offset="0.45" stop-color="#659aaf"/></linearGradient><linearGradient id="q" x1="80.592" y1="0.5" x2="81.589" y2="0.5" gradientUnits="objectBoundingBox"><stop offset="0.55" stop-color="#659aaf"/><stop offset="0.97" stop-color="#fcf9db"/></linearGradient><linearGradient id="r" x1="-0.001" y1="0.5" x2="1" y2="0.5" xlink:href="#e"/><radialGradient id="s" cx="41.052" cy="0.444" r="0.813" gradientTransform="translate(-0.122) scale(1.244 1)" xlink:href="#f"/><radialGradient id="t" cx="0.588" cy="0.381" r="0.824" gradientTransform="matrix(-0.594, -0.534, -0.129, 0.291, 13.1, 29.351)" xlink:href="#g"/><radialGradient id="v" cx="37.972" cy="0.444" r="0.813" gradientTransform="translate(-0.121) scale(1.242 1)" xlink:href="#f"/><radialGradient id="w" cx="0.583" cy="0.386" r="0.824" gradientTransform="matrix(-0.593, -0.534, -0.129, 0.291, 7.767, 26.391)" xlink:href="#g"/><radialGradient id="x" cx="0.5" cy="0.5" r="0.383" gradientTransform="translate(-0.709) scale(2.417 1)" gradientUnits="objectBoundingBox"><stop offset="0.03" stop-color="#09635e"/><stop offset="1" stop-color="#222343"/></radialGradient><radialGradient id="y" cx="0.5" cy="0.5" r="0.412" gradientTransform="translate(-0.333) scale(1.667 1)" xlink:href="#x"/><linearGradient id="z" x1="0" y1="0.5" x2="1" y2="0.5" xlink:href="#e"/><radialGradient id="aa" cx="0.476" cy="0.507" r="0.499" gradientTransform="matrix(0, -1, -1, 0, 26.996, 26.995)" xlink:href="#g"/><radialGradient id="ab" cx="0.509" cy="0.505" r="0.565" gradientTransform="matrix(-0.884, -0.041, -0.032, 0.884, 1.127, 0.278)" xlink:href="#g"/><radialGradient id="ac" cx="0.488" cy="0.628" r="1.878" gradientTransform="matrix(-0.266, 0.041, 0.003, 0.263, 4.888, 33.648)" xlink:href="#g"/><radialGradient id="ad" cx="0.193" cy="0.474" r="0.5" gradientTransform="matrix(-0.145, -0.999, -0.993, 0.01, 64.694, 60.033)" xlink:href="#g"/><radialGradient id="ae" cx="0.214" cy="0.474" r="0.5" gradientTransform="matrix(-0.145, -0.999, -0.995, 0.01, 61.2, 56.774)" xlink:href="#g"/><radialGradient id="af" cx="0.542" cy="0.575" r="1.569" gradientTransform="matrix(-0.319, 0.186, 0.016, 0.26, 1.651, 20.41)" xlink:href="#g"/><radialGradient id="ag" cx="0.561" cy="0.712" r="1.145" gradientTransform="matrix(-0.435, -0.361, -0.044, 0.246, -0.981, 42.793)" xlink:href="#g"/><radialGradient id="ah" cx="0.496" cy="0.505" r="0.499" gradientTransform="matrix(0, -1, -1.001, 0, 5.253, 5.251)" xlink:href="#g"/></defs><g transform="translate(0)"><path class="a" d="M43.2,54.81l-8.69,4.316.93,8.741.344.084L35.44,59.1l7.852-3.754Z" transform="translate(-5.59 -8.878)"/><path class="b" d="M59.9,55.83H58.872L54.59,59.056l.553,8.037.737.059V59.3Z" transform="translate(-8.843 -9.044)"/><rect class="c" width="5.724" height="1.232" transform="translate(39.01 16.023) rotate(180)"/><path class="c" d="M44.988,17.494l-.31-.754H40.907l-.277.754Z" transform="translate(-6.581 -2.712)"/><path class="c" d="M43.823,16.046l-.57-4.726H42.39l-.62,4.726Z" transform="translate(-6.766 -1.834)"/><path class="c" d="M42.93,9.947h.21V0H42.98Z" transform="translate(-6.954)"/><path class="d" d="M45.278,17.438,45.1,16.96H43.82l.075.478Z" transform="translate(-7.098 -2.747)"/><path class="d" d="M43.364,11.47l.528,4.257h-.4l-.31-4.257Z" transform="translate(-6.994 -1.858)"/><path class="d" d="M43.683,17.438,43.6,16.96H43.23l.034.478Z" transform="translate(-7.003 -2.747)"/><path class="e" d="M42.57,11.47l-.21,4.257H41.9l.578-4.257Z" transform="translate(-6.787 -1.858)"/><path class="e" d="M42.051,16.87H41.028l-.268.553h1.291Z" transform="translate(-6.602 -2.733)"/><path class="f" d="M43.136,3.55h-.168L42.96,5.193h.176Z" transform="translate(-6.959 -0.575)"/><path class="c" d="M41.14,15.965H41.3V10.82h-.117Z" transform="translate(-6.664 -1.753)"/><path class="c" d="M44.88,15.556h.159V8.29h-.117Z" transform="translate(-7.27 -1.343)"/><path class="g" d="M45.044,11.73h-.126l-.008,1.592h.134Z" transform="translate(-7.275 -1.9)"/><rect class="d" width="2.263" height="0.913" transform="translate(36.454 14.984)"/><path class="c" d="M83.294,15.43h-.629l-.436,2.732.184-.084Z" transform="translate(-13.32 -2.499)"/><path class="c" d="M71.208,13.15h-.486l-.042,2.74.184-.084Z" transform="translate(-11.449 -2.13)"/><ellipse class="h" cx="58.552" cy="1.358" rx="58.552" ry="1.358" transform="translate(0 77.382)"/><path class="i" d="M76.119,87.238l.134-15.8a38.7,38.7,0,0,1,11.9,0h0c3.9.352,6.964,4.391,6.964,9.327a11.12,11.12,0,0,1-.729,4.006,7.86,7.86,0,0,1-5.866,5.263h0c-2.514.712-8.489.595-12.461,0Z" transform="translate(-12.32 -11.498)"/><path class="j" d="M76.1,91.954c3.972.57,9.947.687,12.461,0h0a8,8,0,0,0,5.866-5.263,16.308,16.308,0,0,1-5.967-1.282A12.956,12.956,0,0,1,84.4,82.66l-3.914,3.059-4.366,3.411Z" transform="translate(-12.327 -13.39)"/><ellipse class="k" cx="7.525" cy="9.352" rx="7.525" ry="9.352" transform="translate(57.035 59.91)"/><path class="l" d="M68.88,81.024c0,4.693,3.059,8.5,6.838,8.5a6.176,6.176,0,0,0,4.626-2.238,9.428,9.428,0,0,0,2.2-5.933q0-.163,0-.327v-.461c-.159-3.62-2.137-6.645-4.819-7.634a5.816,5.816,0,0,0-2.011-.369C71.939,72.518,68.88,76.323,68.88,81.024Z" transform="translate(-11.157 -11.753)"/><path class="m" d="M68.88,81.016c0,4.693,3.059,8.5,6.838,8.5a6.176,6.176,0,0,0,4.626-2.238c-2.514-.444-4.86-3.8-4.425-8.464.478-5.028,1.81-5.933,1.81-5.933a5.816,5.816,0,0,0-2.011-.369C71.939,72.51,68.88,76.315,68.88,81.016Z" transform="translate(-11.157 -11.745)"/><path class="n" d="M77.25,82.11V82.9H83.9V82.11Z" transform="translate(-12.513 -13.3)"/><ellipse class="n" cx="3.277" cy="4.081" rx="3.277" ry="4.081" transform="translate(64.36 64.946)"/><ellipse class="o" cx="3.277" cy="4.081" rx="3.277" ry="4.081" transform="translate(63.974 64.946)"/><path class="n" d="M76.63,81.677c0,1.986,1.291,3.6,2.891,3.6h.142c1.534-.1,2.749-1.676,2.749-3.6S81.2,78.182,79.664,78.09h-.142C77.921,78.082,76.63,79.691,76.63,81.677Z" transform="translate(-12.413 -12.649)"/><path class="c" d="M77,81.677c0,1.919,1.215,3.495,2.749,3.6h0c1.534-.1,2.749-1.676,2.749-3.6s-1.215-3.495-2.749-3.587h0C78.19,78.182,77,79.758,77,81.677Z" transform="translate(-12.473 -12.649)"/><path class="o" d="M96.538,84.172h-3.83l-1.643-3.536-5.246-.3V80.15l5.363.318,1.659,3.469,3.721.092Z" transform="translate(-13.901 -12.983)"/><path class="o" d="M91,92.894h-3.52l-.7-1.994H83.049l-.159.176,3.754-.05.737,2.02h3.193Z" transform="translate(-13.427 -14.724)"/><path class="o" d="M78.138,71.582l8.7-.025,3.553,2.062,2.439.318-.226-.243-2.154-.226L86.836,71.44l-9.8.05Z" transform="translate(-12.479 -11.572)"/><path class="p" d="M82.858,91.1l3.754-.05.737,2.02h3.193l-.469.134-2.958-.042-.654-1.944-3.771.059Z" transform="translate(-13.394 -14.749)"/><path class="p" d="M96.488,84.5,92.6,84.367l-1.718-3.511-5.011-.193-.05-.293,5.246.3,1.643,3.536h3.83Z" transform="translate(-13.901 -13.019)"/><path class="p" d="M78.945,71.748l8-.075,3.57,2.154,2.6.218-.075-.084L90.6,73.642,87.049,71.58l-8.7.025Z" transform="translate(-12.691 -11.595)"/><ellipse class="q" cx="1.634" cy="4.718" rx="1.634" ry="4.718" transform="translate(60.424 71.01) rotate(-57.7)"/><path class="r" d="M100.71,87.238l.134-15.8a38.75,38.75,0,0,1,11.908,0h0c3.888.352,6.956,4.391,6.956,9.327a11.305,11.305,0,0,1-.721,4.006,7.86,7.86,0,0,1-5.866,5.263h0c-2.514.712-8.489.595-12.461,0Z" transform="translate(-16.305 -11.498)"/><path class="j" d="M100.69,91.958c3.972.57,9.947.687,12.461,0h0a7.967,7.967,0,0,0,5.866-5.263,16.349,16.349,0,0,1-5.975-1.282,12.922,12.922,0,0,1-4.014-2.724l-3.922,3.059-4.366,3.411Z" transform="translate(-16.31 -13.394)"/><ellipse class="k" cx="7.525" cy="9.352" rx="7.525" ry="9.352" transform="translate(77.642 59.91)"/><path class="s" d="M93.47,81.016c0,4.693,3.059,8.5,6.838,8.5a6.143,6.143,0,0,0,4.626-2.238,9.486,9.486,0,0,0,2.212-5.933v-.788c-.151-3.62-2.129-6.645-4.819-7.676a5.816,5.816,0,0,0-2.011-.369C96.529,72.51,93.47,76.315,93.47,81.016Z" transform="translate(-15.141 -11.745)"/><path class="m" d="M93.47,81.016c0,4.693,3.059,8.5,6.838,8.5a6.143,6.143,0,0,0,4.626-2.238c-2.514-.444-4.86-3.8-4.425-8.464.478-5.028,1.81-5.933,1.81-5.933a5.816,5.816,0,0,0-2.011-.369C96.529,72.51,93.47,76.315,93.47,81.016Z" transform="translate(-15.141 -11.745)"/><path class="n" d="M101.84,82.11V82.9h6.7V82.11Z" transform="translate(-16.496 -13.3)"/><ellipse class="n" cx="3.277" cy="4.081" rx="3.277" ry="4.081" transform="translate(84.975 64.946)"/><path class="o" d="M100.93,81.581c0,2.254,1.467,4.081,3.277,4.081s3.285-1.827,3.285-4.081-1.475-4.081-3.285-4.081S100.93,79.327,100.93,81.581Z" transform="translate(-16.349 -12.554)"/><path class="n" d="M101.22,81.677c0,1.986,1.291,3.6,2.891,3.6h.151c1.525-.1,2.74-1.676,2.74-3.6s-1.215-3.495-2.74-3.587h-.151C102.511,78.082,101.22,79.691,101.22,81.677Z" transform="translate(-16.396 -12.649)"/><path class="c" d="M101.57,81.677c0,1.919,1.215,3.495,2.74,3.6h0c1.525-.1,2.74-1.676,2.74-3.6s-1.215-3.495-2.74-3.587h0C102.768,78.182,101.57,79.758,101.57,81.677Z" transform="translate(-16.453 -12.649)"/><path class="o" d="M121.13,84.172H117.3l-1.643-3.536-5.238-.3V80.15l5.355.318,1.668,3.469,3.712.092Z" transform="translate(-17.886 -12.983)"/><path class="o" d="M115.6,92.894h-3.52l-.7-1.994h-3.729l-.159.176,3.754-.05.729,2.02h3.193Z" transform="translate(-17.412 -14.724)"/><path class="o" d="M102.736,71.582l8.7-.025,3.545,2.062,2.447.318-.235-.243-2.154-.226-3.6-2.028-9.8.05Z" transform="translate(-16.462 -11.572)"/><path class="p" d="M107.456,91.1l3.754-.05.729,2.02h3.193l-.469.134-2.95-.042-.662-1.944-3.771.059Z" transform="translate(-17.378 -14.749)"/><path class="p" d="M121.08,84.5l-3.88-.134-1.726-3.511-5.011-.193-.042-.293,5.238.3,1.643,3.536h3.83Z" transform="translate(-17.886 -13.019)"/><path class="p" d="M103.545,71.748l7.995-.075,3.578,2.154,2.589.218-.067-.084-2.447-.318-3.545-2.062-8.7.025Z" transform="translate(-16.676 -11.595)"/><ellipse class="t" cx="1.634" cy="4.718" rx="1.634" ry="4.718" transform="translate(81.035 71.008) rotate(-57.7)"/><path class="c" d="M51.054,11.12,49.11,14.732h.31l1.919-3.369Z" transform="translate(-7.955 -1.801)"/><path class="u" d="M98.484,32.15,94.361,42.189l-24.411-.6L73.5,29.51Z" transform="translate(-11.331 -4.78)"/><path class="v" d="M69.022,43.92l-4.8,2.832,24.034.486,5.179-2.715Z" transform="translate(-10.403 -7.114)"/><path class="u" d="M96.74,29.471,82.167,17.051,59.18,12.97,71.759,26.831Z" transform="translate(-9.586 -2.101)"/><path class="u" d="M54.338,12.97,38.056,16.2,29.29,31.54,38.9,46.876H59.048l-.486-5.137h0l4.8-2.832,3.553-12.076Z" transform="translate(-4.744 -2.101)"/><path class="u" d="M88.254,47.786V52l-23.548.436L64.22,47.3Z" transform="translate(-10.403 -7.662)"/><path class="w" d="M60.069,50.683l-20.481.57L35.8,44.666l28.618-.746-4.8,2.832Z" transform="translate(-5.799 -7.114)"/><path class="x" d="M68.73,55.73h0Z" transform="translate(-11.133 -9.027)"/><path class="y" d="M76.665,14.314V11.448L61.84,8.54v3.411Z" transform="translate(-10.017 -1.383)"/><path class="v" d="M69.49,54.74l7.685,5.531L78.557,78.28h.427l.335-19.249L71.652,54.74Z" transform="translate(-11.256 -8.867)"/><path class="v" d="M86.58,54.46,98.4,61.416l2.631,16.819.654-.142-1.643-17.64-11.3-5.992Z" transform="translate(-14.024 -8.822)"/><path class="v" d="M63,54.83l-4.282,4.81L56.851,74.859l-.57-.025-.151-15.7,4.928-4.249Z" transform="translate(-9.092 -8.882)"/><path class="v" d="M48.282,54.517l-10.266,5.2-.955,15.176-.821-.176-.62-15.771L46.33,53.83Z" transform="translate(-5.77 -8.72)"/><path class="c" d="M60.82,8.54h.855v3.411l-.855-.168Z" transform="translate(-9.852 -1.383)"/><path class="o" d="M76.15,13.876v-2.1L62.7,9.15v2.539Z" transform="translate(-10.156 -1.482)"/><path class="y" d="M81.3,14.87l.629-2.9,4.483,1.115-1.064,2.464Z" transform="translate(-13.169 -1.939)"/><path class="c" d="M81.846,11.97h-.629L80.79,14.7l.427.168Z" transform="translate(-13.087 -1.939)"/><path class="o" d="M85.2,15.336l.964-1.994-3.788-.922-.6,2.321Z" transform="translate(-13.245 -2.012)"/><path class="c" d="M53.638,12.341V3.19h-.092l-.126,9.193Z" transform="translate(-8.653 -0.517)"/><path class="z" d="M78.286,14.26c-.226,1.483,1.676,3.008,4.19,3.4s4.81-.494,5.028-1.978-1.676-3.008-4.19-3.4S78.513,12.776,78.286,14.26Z" transform="translate(-12.678 -1.974)"/><path class="aa" d="M51.7,10.768c1.835,1.341,3.905,1.626,4.626.637s-.176-2.874-2.011-4.19S50.4,5.589,49.683,6.578,49.909,9.427,51.7,10.768Z" transform="translate(-8.009 -0.971)"/><path class="v" d="M82.681,52.9l-1.76,2.33-38.532.134-.469-2.7Z" transform="translate(-6.79 -8.532)"/><path class="ab" d="M51.987,10.365c1.835,1.341,3.914,1.626,4.634.637s-.184-2.883-2.02-4.19S50.7,5.161,49.951,6.15,50.152,9.024,51.987,10.365Z" transform="translate(-8.05 -0.904)"/><path class="ac" d="M52.007,10.208c1.726,1.265,3.679,1.534,4.358.6s-.176-2.707-1.9-3.964-3.645-1.525-4.349-.595S50.289,8.951,52.007,10.208Z" transform="translate(-8.078 -0.923)"/><path class="d" d="M68.163,38.907l3.553-12.076L59.138,12.97H58.92L71.264,26.755l.034.453Z" transform="translate(-9.544 -2.101)"/><path class="ad" d="M16.578,86.615l.142-17a40.349,40.349,0,0,1,12.822,0h0c4.19.385,7.492,4.735,7.492,10.056a12.042,12.042,0,0,1-.779,4.316,8.462,8.462,0,0,1-6.277,5.665h0c-2.707.771-9.134.645-13.408,0Z" transform="translate(-2.684 -11.193)"/><path class="j" d="M16.55,91.721c4.282.612,10.71.737,13.408,0h0a8.462,8.462,0,0,0,6.277-5.665,17.523,17.523,0,0,1-6.428-1.374,13.97,13.97,0,0,1-4.324-2.941l-4.19,3.3-4.718,3.62Z" transform="translate(-2.681 -13.241)"/><ellipse class="c" cx="8.095" cy="10.065" rx="8.095" ry="10.065" transform="translate(6.62 58.401)"/><path class="ae" d="M8.78,79.931c0,5.028,3.293,9.16,7.358,9.16a6.612,6.612,0,0,0,4.978-2.413,10.115,10.115,0,0,0,2.38-6.386v-.846c-.168-3.905-2.3-7.157-5.2-8.271a6.218,6.218,0,0,0-2.162-.394C12.073,70.78,8.78,74.878,8.78,79.931Z" transform="translate(-1.422 -11.465)"/><path class="w" d="M8.78,79.931c0,5.028,3.293,9.16,7.358,9.16a6.612,6.612,0,0,0,4.978-2.413c-2.707-.478-5.229-4.09-4.76-9.109.52-5.388,1.944-6.394,1.944-6.394a6.218,6.218,0,0,0-2.162-.394C12.073,70.78,8.78,74.878,8.78,79.931Z" transform="translate(-1.422 -11.465)"/><path class="n" d="M17.79,81.118v.838h7.165V81.11Z" transform="translate(-2.882 -13.138)"/><ellipse class="n" cx="3.528" cy="4.391" rx="3.528" ry="4.391" transform="translate(14.506 63.823)"/><ellipse class="o" cx="3.528" cy="4.391" rx="3.528" ry="4.391" transform="translate(14.087 63.823)"/><path class="n" d="M17.12,80.643c0,2.137,1.391,3.872,3.117,3.872h.134c1.676-.109,2.95-1.8,2.95-3.872s-1.274-3.754-2.95-3.863h-.159C18.511,76.78,17.12,78.515,17.12,80.643Z" transform="translate(-2.773 -12.437)"/><path class="c" d="M17.49,80.643c0,2.07,1.307,3.763,2.958,3.872h0c1.676-.109,2.95-1.8,2.95-3.872s-1.291-3.754-2.967-3.863h0C18.8,76.889,17.49,78.582,17.49,80.643Z" transform="translate(-2.833 -12.437)"/><path class="o" d="M38.551,83.333H34.436l-1.768-3.8L27.02,79.2V79l5.766.344,1.793,3.738,4.006.1Z" transform="translate(-4.377 -12.797)"/><path class="o" d="M32.6,92.725H28.814L28.06,90.58H24.038l-.168.193,4.039-.067.788,2.187h3.436Z" transform="translate(-3.867 -14.672)"/><path class="o" d="M18.75,69.781l9.361-.034,3.821,2.229,2.631.344-.243-.268L32,71.809,28.111,69.63l-10.551.05Z" transform="translate(-2.844 -11.279)"/><path class="d" d="M26.049,74.088A12.989,12.989,0,0,0,22.11,70.61l9.771.142a9.939,9.939,0,0,1,3.7,3.6Z" transform="translate(-3.581 -11.438)"/><path class="d" d="M27.23,75.63h9.185l.36.88H27.548Z" transform="translate(-4.411 -12.251)"/><path class="p" d="M23.834,90.8l4.039-.067.788,2.187H32.1l-.5.134-3.176-.042-.7-2.1-4.064.067Z" transform="translate(-3.831 -14.697)"/><path class="p" d="M38.5,83.681l-4.182-.134L32.467,79.76l-5.4-.209-.05-.31,5.648.327,1.768,3.8h4.115Z" transform="translate(-4.377 -12.836)"/><path class="p" d="M19.617,69.954l8.615-.084,3.847,2.321,2.791.235-.075-.084L32.162,72,28.341,69.77,18.98,69.8Z" transform="translate(-3.074 -11.302)"/><path class="af" d="M13.35,82.078c-.52.838.98,2.707,3.352,4.19s4.71,2.053,5.229,1.232-.98-2.707-3.352-4.19S13.878,81.265,13.35,82.078Z" transform="translate(-2.146 -13.235)"/><path class="ad" d="M43.058,86.615l.142-17a40.349,40.349,0,0,1,12.822,0h0c4.19.385,7.492,4.735,7.492,10.056a12.042,12.042,0,0,1-.779,4.316,8.462,8.462,0,0,1-6.277,5.665h0c-2.707.771-9.143.645-13.408,0Z" transform="translate(-6.973 -11.193)"/><path class="j" d="M43,91.714c4.274.612,10.71.737,13.408,0h0a8.462,8.462,0,0,0,6.277-5.665,17.6,17.6,0,0,1-6.436-1.374A14.062,14.062,0,0,1,51.967,81.7L47.777,85,43.05,88.656Z" transform="translate(-6.965 -13.234)"/><ellipse class="k" cx="8.095" cy="10.065" rx="8.095" ry="10.065" transform="translate(28.811 58.401)"/><path class="ag" d="M35.25,79.931c0,5.028,3.3,9.16,7.366,9.16a6.612,6.612,0,0,0,4.995-2.413,10.115,10.115,0,0,0,2.38-6.386c0-.117,0-.243,0-.36v-.486c-.168-3.905-2.3-7.157-5.2-8.271a6.26,6.26,0,0,0-2.212-.394C38.552,70.78,35.25,74.878,35.25,79.931Z" transform="translate(-5.71 -11.465)"/><path class="m" d="M35.25,79.931c0,5.028,3.3,9.16,7.366,9.16a6.612,6.612,0,0,0,4.995-2.413c-2.707-.478-5.229-4.09-4.76-9.109.511-5.388,1.944-6.394,1.944-6.394a6.26,6.26,0,0,0-2.212-.394C38.552,70.78,35.25,74.878,35.25,79.931Z" transform="translate(-5.71 -11.465)"/><path class="n" d="M44.27,81.118v.838h7.165V81.11Z" transform="translate(-7.171 -13.138)"/><path class="n" d="M43.78,80.55c0,2.422,1.584,4.391,3.536,4.391s3.528-1.969,3.528-4.391-1.575-4.4-3.528-4.4S43.78,78.119,43.78,80.55Z" transform="translate(-7.092 -12.335)"/><path class="o" d="M43.29,80.55c0,2.422,1.575,4.391,3.528,4.391s3.528-1.969,3.528-4.391-1.575-4.4-3.528-4.4S43.29,78.119,43.29,80.55Z" transform="translate(-7.012 -12.335)"/><path class="n" d="M43.6,80.643c0,2.137,1.391,3.872,3.109,3.872h.159c1.676-.109,2.958-1.8,2.958-3.872s-1.307-3.754-2.958-3.863h-.159C44.991,76.78,43.6,78.515,43.6,80.643Z" transform="translate(-7.062 -12.437)"/><path class="c" d="M44,80.643c0,2.07,1.307,3.763,2.958,3.872h0c1.676-.109,2.958-1.8,2.958-3.872s-1.307-3.754-2.958-3.863h0C45.282,76.889,44,78.582,44,80.643Z" transform="translate(-7.127 -12.437)"/><path class="o" d="M65.031,83.333H60.916l-1.777-3.8L53.5,79.2V79l5.766.344,1.793,3.738,4,.1Z" transform="translate(-8.666 -12.797)"/><path class="o" d="M59.081,92.725h-3.8L54.53,90.58H50.516l-.176.193,4.048-.067.788,2.187h3.436Z" transform="translate(-8.154 -14.672)"/><path class="o" d="M45.23,69.781l9.361-.034,3.821,2.229,2.631.344-.243-.268-2.321-.243L54.591,69.63l-10.551.05Z" transform="translate(-7.134 -11.279)"/><path class="d" d="M52.529,74.088A13.09,13.09,0,0,0,48.59,70.61l9.763.142a9.939,9.939,0,0,1,3.712,3.6Z" transform="translate(-7.871 -11.438)"/><path class="d" d="M53.7,75.63h9.193l.36.88H54.027Z" transform="translate(-8.698 -12.251)"/><path class="p" d="M50.306,90.8l4.048-.067.788,2.187h3.436l-.5.134-3.184-.042-.7-2.1-4.056.067Z" transform="translate(-8.12 -14.697)"/><path class="p" d="M64.981,83.681,60.8,83.547,58.947,79.76l-5.4-.209-.05-.31,5.64.327,1.777,3.8h4.115Z" transform="translate(-8.666 -12.836)"/><path class="p" d="M46.1,69.954l8.615-.084,3.847,2.321,2.791.235-.075-.084L58.642,72,54.821,69.77,45.46,69.8Z" transform="translate(-7.364 -11.302)"/><path class="ah" d="M39.821,82.078c-.511.838.989,2.707,3.352,4.19s4.718,2.053,5.238,1.232-.989-2.707-3.352-4.19S40.34,81.265,39.821,82.078Z" transform="translate(-6.434 -13.235)"/><path class="d" d="M91.58,51.9V48.3H86.77l.075,3.662Z" transform="translate(-14.055 -7.824)"/><path class="d" d="M85.938,48.3H83.7l.218,3.6,2.02-.042Z" transform="translate(-13.558 -7.824)"/><path class="ai" d="M78.494,78.44h-.587L76.475,60.834,69.1,55.73l1.55.05,6.461,4.651Z" transform="translate(-11.193 -9.027)"/><path class="aj" d="M69.341,47.88v3.612l19.031.6-22.467-.2L64.95,47.88Z" transform="translate(-10.521 -7.756)"/><path class="o" d="M75.335,26.794,72.05,23.4l3.369-6.21,3.788.553,12.084,7.023,4.341,4.115Z" transform="translate(-11.671 -2.784)"/><path class="v" d="M75.7,17.768l4,.419L91.43,25.243l3.453,3.5,1.341.134-4.341-4.115L79.8,17.743,76.01,17.19Z" transform="translate(-12.262 -2.784)"/><path class="aj" d="M54.59,59.056l1.291.243L59.9,55.83H58.872Z" transform="translate(-8.843 -9.044)"/><path class="aj" d="M34.51,59.126l.93-.025,7.852-3.754L43.2,54.81Z" transform="translate(-5.59 -8.878)"/><path class="ak" d="M101.177,78.422l-.553.075-3-16.383-10.174-6.4H88.3l.067-.092L98.545,61.6Z" transform="translate(-14.165 -9.009)"/><path class="al" d="M32.25,20.526,51.524,18.02l7.886,8.2L53.2,37.353l-22.744.528L26.35,32.367Z" transform="translate(-4.268 -2.919)"/><path class="v" d="M31.25,39.467l2.33.754,21.076-.469L60.2,29.536V27.81l-6.21,11.129Z" transform="translate(-5.062 -4.505)"/><path class="o" d="M28.99,36.066,47.8,35.6l4.819-8.112-5.657-4.726-15.52.964.092-.176L47,22.54l5.925,4.953-4.877,8.313-18.914.453Z" transform="translate(-4.696 -3.651)"/><path class="am" d="M28.966,36.109l18.813-.461L52.6,27.536,46.941,22.81l-15.52.964-.067.151L46.9,23.053l5.363,4.483-4.6,7.869-18.822.536Z" transform="translate(-4.672 -3.695)"/><ellipse class="an" cx="2.129" cy="8.078" rx="2.129" ry="8.078" transform="translate(27.288 33.891) rotate(-87.7)"/><path class="ao" d="M73.769,24.6c-.218,5.414,4.576,10.006,10.7,10.257S95.75,30.9,95.959,25.485s-4.576-10.014-10.7-10.257S73.961,19.175,73.769,24.6Z" transform="translate(-11.948 -2.465)"/><path class="ap" d="M33.29,23.364c.05,1.173,3.7,1.986,8.162,1.81s8.028-1.265,7.986-2.439-3.7-1.986-8.154-1.81S33.248,22.191,33.29,23.364Z" transform="translate(-5.392 -3.386)"/><path class="aq" d="M42.848.36c-.5,0-.838,1.6-.779,3.536s.545,3.478,1.056,3.461.838-1.6.788-3.536S43.334.335,42.848.36Z" transform="translate(-6.813 -0.058)"/><path class="ar" d="M44.677,8.43c-.511,0-.838,1.609-.788,3.536s.553,3.486,1.056,3.469.838-1.609.788-3.536S45.18,8.413,44.677,8.43Z" transform="translate(-7.108 -1.365)"/><path class="o" d="M29.283,27.937l15.654-1,2.715,2.154-2.229,3.495L26.35,33.812Z" transform="translate(-4.268 -4.364)"/><path class="aj" d="M29.69,28.205l15.788-1,2.6,2.07.117-.184L45.478,26.94l-15.654,1Z" transform="translate(-4.809 -4.364)"/><path class="d" d="M33.21,20.836l19.358-2.472,7.559,7.861L54.311,37.353l6.21-11.129-7.886-8.2L33.361,20.526Z" transform="translate(-5.379 -2.919)"/><path class="o" d="M75.49,42.213l2.078-7.458,10.551-2.1,8.07,3.7-2.321,6.3-.168-.017,2.212-6.1L88.119,32.9,77.761,34.956l-2.129,7.257Z" transform="translate(-12.228 -5.29)"/><path class="am" d="M75.66,42.26,77.789,35,88.146,32.95,95.94,36.6l-2.212,6.1h-.159l2.179-5.95L88.138,33.16,77.948,35.1l-2.137,7.173Z" transform="translate(-12.256 -5.337)"/><path class="as" d="M75.088,35.14c.218,1.156,3.947,1.416,8.33.578s7.76-2.439,7.542-3.6S87,30.707,82.58,31.545,74.862,33.992,75.088,35.14Z" transform="translate(-12.161 -5.03)"/><path class="at" d="M88.874,32.648c-.335.838,2.036,2.573,5.288,3.838s6.168,1.592,6.495.737-2.036-2.581-5.288-3.838S89.2,31.794,88.874,32.648Z" transform="translate(-14.391 -5.212)"/><ellipse class="au" cx="9.822" cy="11.104" rx="9.822" ry="11.104" transform="translate(20.512 36.983) rotate(-87.7)"/><path class="av" d="M38.338,46.876,32.7,37.817l-2.33-.754-4.106-5.514,5.9-11.841,3.587-.461L37.492,16.2,53.775,12.97,37.257,16.129l-1.726,2.833-3.52.444-6.2,12.461,4.215,5.372,2.439.88Z" transform="translate(-4.181 -2.101)"/><path class="av" d="M63.28,13.7l19.551,3.469L97.4,29.589,93.281,39.628l4.634-10.039L83.141,16.8Z" transform="translate(-10.25 -2.219)"/></g></svg>