<svg xmlns="http://www.w3.org/2000/svg" xmlns:xlink="http://www.w3.org/1999/xlink" width="120.161" height="86.257" viewBox="0 0 120.161 86.257"><defs><style>.a{fill:#610431;opacity:0.28;}.b{fill:#451533;}.c{fill:url(#a);}.d{fill:url(#b);}.e{fill:#fff;}.f{fill:url(#c);}.g{fill:url(#d);}.h,.k{fill:#314f74;}.h{opacity:0.35;}.i{fill:#b1ffb8;}.j{fill:url(#e);}.k{opacity:0.65;}.l{fill:url(#f);}.m{fill:url(#g);}.n{fill:url(#h);}.o{fill:url(#i);}.p{fill:url(#j);}.q{fill:url(#k);}</style><linearGradient id="a" x1="0.03" y1="0.671" x2="0.97" y2="0.329" gradientUnits="objectBoundingBox"><stop offset="0.03" stop-color="#fcf9db"/><stop offset="0.45" stop-color="#659aaf"/><stop offset="0.65" stop-color="#669cb0"/><stop offset="0.75" stop-color="#6ba4b1"/><stop offset="0.83" stop-color="#74b1b5"/><stop offset="0.89" stop-color="#80c4b9"/><stop offset="0.95" stop-color="#8fdcbf"/><stop offset="1" stop-color="#a0f6c6"/></linearGradient><linearGradient id="b" x1="0.03" y1="0.671" x2="0.97" y2="0.329" xlink:href="#a"/><linearGradient id="c" x1="0.063" y1="0.902" x2="0.959" y2="-0.001" xlink:href="#a"/><linearGradient id="d" x1="0.053" y1="3.324" x2="0.936" y2="-1.825" xlink:href="#a"/><radialGradient id="e" cx="0.508" cy="0.517" r="1.481" gradientTransform="translate(-1.705 3.842) scale(0.337 0.339)" gradientUnits="objectBoundingBox"><stop offset="0" stop-color="#7ccc7e"/><stop offset="0.1" stop-color="#68aa69"/><stop offset="0.27" stop-color="#487749"/><stop offset="0.43" stop-color="#2e4c2f"/><stop offset="0.59" stop-color="#1a2b1b"/><stop offset="0.74" stop-color="#0c130c"/><stop offset="0.88" stop-color="#030503"/><stop offset="1"/></radialGradient><radialGradient id="f" cx="0.521" cy="0.345" r="3.115" gradientTransform="translate(-6.558 30.867) scale(0.161 0.16)" xlink:href="#e"/><radialGradient id="g" cx="0.405" cy="0.356" r="0.82" gradientTransform="translate(10.484 10.511) scale(0.607 0.605)" gradientUnits="objectBoundingBox"><stop offset="0" stop-color="#bae7d1"/><stop offset="0.16" stop-color="#8aab9b"/><stop offset="0.32" stop-color="#60776c"/><stop offset="0.47" stop-color="#3d4c45"/><stop offset="0.62" stop-color="#232b27"/><stop offset="0.76" stop-color="#101311"/><stop offset="0.89" stop-color="#040504"/><stop offset="1"/></radialGradient><radialGradient id="h" cx="27.829" cy="27.029" r="1.079" gradientTransform="translate(0.196) scale(0.607 1)" xlink:href="#g"/><radialGradient id="i" cx="26.29" cy="27.037" r="1.075" gradientTransform="translate(0.195) scale(0.61 1)" xlink:href="#g"/><radialGradient id="j" cx="27.033" cy="26.452" r="1.079" gradientTransform="translate(0.197) scale(0.607 1)" xlink:href="#g"/><radialGradient id="k" cx="27.404" cy="26.573" r="1.079" gradientTransform="translate(0.197) scale(0.607 1)" xlink:href="#g"/></defs><path class="a" d="M120.162,144.871c0,.859-26.9,1.555-60.081,1.555S0,145.729,0,144.871s26.9-1.561,60.081-1.561S120.162,144.006,120.162,144.871Z" transform="translate(0 -60.168)"/><path class="b" d="M125.41,28.254,125.607,0h.377l.145,28.254Z" transform="translate(-52.653)"/><circle class="c" cx="12.351" cy="12.351" r="12.351" transform="translate(34.238 21.896) rotate(-20.39)"/><circle class="d" cx="12.351" cy="12.351" r="12.351" transform="matrix(0.884, -0.467, 0.467, 0.884, 63.482, 28.31)"/><path class="e" d="M138.366,39.067c.064,1.16-2.321,2.234-5.384,2.408s-5.564-.609-5.633-1.74,2.321-2.228,5.39-2.4S138.3,37.918,138.366,39.067Z" transform="translate(-53.466 -15.663)"/><path class="b" d="M42.64,50.183l2.529,10.083,27.18,8.772H87.973l27.575-8.772L118.8,50.183S105.639,41.55,80.716,41.55,42.64,50.183,42.64,50.183Z" transform="translate(-17.902 -17.445)"/><path class="f" d="M24,62.605l3.249,12.937L62.134,86.8H82.178l35.389-11.261,4.171-12.937S104.873,51.53,72.89,51.53,24,62.605,24,62.605Z" transform="translate(-10.076 -21.635)"/><path class="g" d="M40.03,141.065l5.8-4.885H112.4l5.894,4.885Z" transform="translate(-16.806 -57.175)"/><path class="b" d="M64.529,104.181v13.837H41.474L31.535,96.929,29.65,92.92Z" transform="translate(-12.448 -39.012)"/><path class="b" d="M159.709,92.92l-11.916,25.1H124.32V104.181Z" transform="translate(-52.195 -39.012)"/><path class="b" d="M101.744,135.275l-.934-12.885h8.656l-1.085,12.885Z" transform="translate(-42.325 -51.385)"/><path class="b" d="M101.744,39.525,100.81,26.64h8.656l-1.085,12.885Z" transform="translate(-42.325 -11.185)"/><path class="b" d="M108.27,20.681l.2-17.991h.371L109,20.681Z" transform="translate(-45.457 -1.129)"/><path class="b" d="M122.31,36.181l.2-17.991h.377l.145,17.991Z" transform="translate(-51.351 -7.637)"/><path class="h" d="M120.813,72.44l-.18.58-.47,1.445s-13.6-8.905-46.911-8.905-46.963,7.177-46.963,7.177l-.2-.795-.151-.58S42.219,61.91,73.252,61.91,120.813,72.44,120.813,72.44Z" transform="translate(-10.891 -25.993)"/><path class="i" d="M120.742,73.472l-.47,1.445s-13.6-8.871-46.911-8.871S26.4,73.223,26.4,73.223l-.2-.795c1.688-.928,17.869-9.358,47.161-9.358C102.513,63.07,118.909,72.37,120.742,73.472Z" transform="translate(-11 -26.48)"/><ellipse class="j" cx="25.184" cy="8.488" rx="25.184" ry="8.488" transform="translate(37.768 29.895)"/><path class="k" d="M29.65,92.92l34.879,11.261v7.049l-32.993-14.3Z" transform="translate(-12.448 -39.012)"/><path class="k" d="M159.709,92.92l-11.916,25.1h-3.58l2.564-10.681L124.32,109.4v-5.216Z" transform="translate(-52.195 -39.012)"/><path class="h" d="M173.255,63.07l-.905,4.195s7.165,3.481,9.282,4.531l1.537-4.363S175.715,63.749,173.255,63.07Z" transform="translate(-72.36 -26.48)"/><path class="h" d="M136.489,78.11,108.525,95.857,90.79,97.116h19.453L144.611,85.8l1.781-4.224S140,78.11,136.489,78.11Z" transform="translate(-38.118 -32.794)"/><path class="e" d="M28.34,80.276l7.606-2.286L64.571,95.807H61.455L29.582,85.567Z" transform="translate(-11.898 -32.744)"/><path class="e" d="M26.491,71.12l-.551-3.435a59.245,59.245,0,0,1,9.689-4.166l.3,3.8a92.036,92.036,0,0,0-9.433,3.8Z" transform="translate(-10.891 -26.669)"/><path class="e" d="M44.51,141.019l3.852-3.609h11.69l-2.97,3.609Z" transform="translate(-18.687 -57.691)"/><path class="e" d="M67.86,141.019l2.727-3.609H74.2l-2.39,3.609Z" transform="translate(-28.491 -57.691)"/><path class="h" d="M135.626,137.41h8.621l4.531,3.609H116.91l23.438-.685Z" transform="translate(-49.084 -57.691)"/><rect class="b" width="78.269" height="0.917" transform="translate(23.224 83.89)"/><path class="h" d="M93.312,73.17c-10.977,0-19.882,4.374-19.882,9.776s8.905,9.77,19.882,9.77,19.9-4.374,19.9-9.781S104.294,73.17,93.312,73.17Zm0,19.29c-10.692,0-19.354-4.264-19.354-9.515s8.662-9.515,19.354-9.515,19.36,4.282,19.36,9.5S104,92.46,93.312,92.46Z" transform="translate(-30.829 -30.72)"/><path class="i" d="M93.312,72.72c-10.977,0-19.882,4.374-19.882,9.77s8.905,9.77,19.882,9.77,19.9-4.374,19.9-9.77S104.294,72.72,93.312,72.72Zm0,19.284C82.62,92,73.958,87.746,73.958,82.49s8.662-9.515,19.354-9.515,19.36,4.258,19.36,9.515S104,92.028,93.312,92.028Z" transform="translate(-30.829 -30.531)"/><path class="l" d="M109.885,104.921c0,.824-4.166,1.491-9.282,1.491s-9.282-.667-9.282-1.491,4.171-1.491,9.282-1.491S109.885,104.074,109.885,104.921Z" transform="translate(-38.34 -43.425)"/><path class="i" d="M125.674,4.68l-.064,8.807h.516l-.041-8.807Z" transform="translate(-52.737 -1.965)"/><path class="i" d="M125.6,22.26h.516l.017,1.462h-.551Z" transform="translate(-52.724 -9.346)"/><rect class="i" width="0.47" height="4.189" transform="translate(71.104 11.562)"/><path class="e" d="M82.076,30.765c.354,1.1-1.706,2.744-4.606,3.684s-5.535.806-5.889-.29,1.706-2.744,4.606-3.684S81.722,29.663,82.076,30.765Z" transform="translate(-30.037 -12.531)"/><path class="e" d="M37.03,103.39,46.1,121.566h4.676L45.123,107.73Z" transform="translate(-15.547 -43.408)"/><path class="e" d="M44.83,54.629,44,52.436A77.208,77.208,0,0,1,59.4,46.78l.731,3.928A75.49,75.49,0,0,0,44.83,54.629Z" transform="translate(-18.473 -19.64)"/><path class="e" d="M72.94,49.514l-.58-3.649A40.687,40.687,0,0,1,78.742,44.6l.29,4.02A59.883,59.883,0,0,0,72.94,49.514Z" transform="translate(-30.38 -18.725)"/><path class="m" d="M79.614,50.611c0,2.251-2.994,4.061-6.689,4.061S66.23,52.85,66.23,50.611s3-4.061,6.695-4.061S79.614,48.36,79.614,50.611Z" transform="translate(-27.806 -19.544)"/><path class="n" d="M165.318,55.481c0,2.251-2.994,4.061-6.689,4.061s-6.689-1.827-6.689-4.061,2.994-4.061,6.689-4.061S165.318,53.23,165.318,55.481Z" transform="translate(-63.791 -21.588)"/><ellipse class="o" cx="6.689" cy="4.078" rx="6.689" ry="4.078" transform="translate(21.727 30.673)"/><path class="p" d="M106.944,48.451c0,2.251-3,4.061-6.695,4.061s-6.689-1.827-6.689-4.061,2.994-4.061,6.689-4.061S106.944,46.2,106.944,48.451Z" transform="translate(-39.281 -18.637)"/><path class="q" d="M134.454,49.931c0,2.251-2.994,4.061-6.689,4.061s-6.695-1.827-6.695-4.061,3-4.061,6.695-4.061S134.454,47.686,134.454,49.931Z" transform="translate(-50.831 -19.258)"/><path class="e" d="M102.13,27.14h2.437v7.983h-1.8Z" transform="translate(-42.879 -11.395)"/><path class="e" d="M101.54,123.13l1.172,12.456h1.166V123.13Z" transform="translate(-42.631 -51.696)"/><path class="b" d="M108.454,118.76l.627,2.106H103.25l.731-2.106Z" transform="translate(-43.349 -49.861)"/><path class="e" d="M103.89,120.984l.551-1.944h1.45l-.366,1.944Z" transform="translate(-43.618 -49.978)"/><rect class="b" width="0.261" height="18.878" transform="translate(62.465 50.189)"/></svg>