<svg width="68" height="138" viewBox="0 0 68 138" fill="none" xmlns="http://www.w3.org/2000/svg">
<path d="M13.0267 66.4382L18.4544 122.787H48.849L53.8115 66.4382H13.0267Z" fill="url(#paint0_linear)"/>
<path d="M45.4369 122.788H21.7104V126.979H45.4369V122.788Z" fill="#512440"/>
<path d="M51.7943 63.0239H15.0415V66.5942H51.7943V63.0239Z" fill="url(#paint1_radial)"/>
<path d="M13.0267 63.0234H53.6564C53.6564 63.0234 49.7795 31.5117 33.3416 31.5117C16.9036 31.5117 13.0267 63.0234 13.0267 63.0234Z" fill="url(#paint2_linear)"/>
<path d="M39.2332 30.4251H27.4475V32.9088H39.2332V30.4251Z" fill="url(#paint3_linear)"/>
<path d="M28.6888 30.4252L29.3091 28.8729H37.0629L37.6832 30.4252H28.6888Z" fill="url(#paint4_linear)"/>
<path d="M31.481 29.1833L32.7216 19.559H34.4274L35.668 29.1833H31.481Z" fill="url(#paint5_linear)"/>
<path d="M33.8064 20.4904H33.3412V0H33.6513L33.8064 20.4904Z" fill="url(#paint6_linear)"/>
<path d="M29.1548 30.27L29.62 29.1833H32.2563L32.1012 30.27H29.1548Z" fill="white"/>
<path d="M32.8759 19.7143L31.7904 28.5624H32.7209L33.3412 19.7143H32.8759Z" fill="white"/>
<path d="M32.2563 30.27L32.4114 29.1833H33.1868V30.27H32.2563Z" fill="white"/>
<path opacity="0.53" d="M34.1165 19.7143L34.5817 28.5624H35.5121L34.2715 19.7143H34.1165Z" fill="#3B1544"/>
<path opacity="0.53" d="M34.7372 29.0281H36.9082L37.5285 30.27H34.7372V29.0281Z" fill="#3B1544"/>
<path d="M33.3412 6.05362H33.6513V9.46868H33.3412V6.05362Z" fill="url(#paint7_linear)"/>
<path d="M36.7528 29.1834H36.4426V18.6277H36.7528V29.1834Z" fill="url(#paint8_linear)"/>
<path d="M30.395 29.1836H30.0848V14.2815H30.2399L30.395 29.1836Z" fill="url(#paint9_linear)"/>
<path d="M30.0848 20.1799H30.2399V23.4398H30.0848V20.1799Z" fill="url(#paint10_linear)"/>
<path d="M32.7205 30.8908H28.0682V32.7535H32.7205V30.8908Z" fill="white"/>
<path d="M14.1115 61.7814H25.2768C25.2768 61.7814 24.1913 46.4136 30.2392 33.9952H27.2928C27.4479 33.9952 20.7797 36.1684 14.1115 61.7814Z" fill="white"/>
<path opacity="0.35" d="M37.6837 33.9952C37.6837 33.9952 44.507 41.6015 47.2983 61.0053L13.0267 63.0233H51.7955C51.9506 63.0233 51.3302 45.9479 37.6837 33.9952Z" fill="#314F74"/>
<path d="M16.5927 48.5872L35.5118 47.9663L40.1641 53.865L51.9498 53.7098V54.1755L40.009 54.4859L35.3568 48.5872L16.4376 49.0529L16.5927 48.5872Z" fill="#2EFF98"/>
<path opacity="0.35" d="M51.7943 53.3994H40.3188L35.6665 47.5006L16.7474 48.2768L16.5923 48.5872L35.5114 47.9663L40.1637 53.8651L51.9494 53.7098L51.7943 53.3994Z" fill="#314F74"/>
<path opacity="0.35" d="M15.0415 64.1105L47.7623 63.6448L49.7783 66.5942H51.9493V63.0239H15.0415V64.1105Z" fill="#314F74"/>
<path opacity="0.35" d="M21.7104 124.029L42.3354 123.564L44.0412 126.979H45.592V122.788H21.7104V124.029Z" fill="#314F74"/>
<path d="M14.1115 67.0596L19.5391 118.907H21.7101L17.5231 67.0596H14.1115Z" fill="white"/>
<path d="M18.4544 122.787L13.0267 66.4382H53.8115L13.647 66.5934L18.4544 122.787Z" fill="#FFFFDF"/>
<path d="M41.5604 71.2508H26.8283L26.208 67.991H42.1807L41.5604 71.2508Z" fill="url(#paint11_radial)"/>
<path opacity="0.35" d="M26.8283 71.2508L26.208 67.991H42.1807L42.0257 68.9224L27.1385 68.7671L27.9138 71.2508H26.8283Z" fill="#314F74"/>
<path d="M19.3844 126.047L20.625 128.841H47.1428L48.5385 126.047H19.3844Z" fill="url(#paint12_linear)"/>
<path d="M45.4362 128.841H22.7953V129.928H45.4362V128.841Z" fill="url(#paint13_linear)"/>
<path d="M19.3844 126.047L0 137.224H1.70582L20.625 128.841L19.3844 126.047Z" fill="#512440"/>
<path d="M48.5389 126.047L67.7682 137.224H66.0623L47.1432 128.841L48.5389 126.047Z" fill="url(#paint14_linear)"/>
<path d="M31.1697 126.047L33.961 138H35.6668L37.2176 126.047H31.1697Z" fill="#512440"/>
<path d="M31.6356 126.358L32.1008 128.531H36.4429L36.9082 126.358H31.6356Z" fill="white"/>
<path d="M32.0997 128.686L32.4099 129.462H36.1317L36.2868 128.686H32.0997Z" fill="white"/>
<path d="M0 137.224L19.3844 126.047H48.5385L19.8496 126.202L0 137.224Z" fill="#FFFFDF"/>
<path d="M49.7791 112.232H31.4803V112.077L29.7745 84.2904H14.7322V83.9799H30.0846V84.1352L31.7904 111.921H49.7791V112.232Z" fill="url(#paint15_radial)"/>
<path d="M53.0356 75.4422H13.9567V75.9079H53.0356V75.4422Z" fill="url(#paint16_radial)"/>
<path d="M33.9607 122.632L33.8056 115.492H24.8112L23.5706 96.0878H15.8169V95.7773H23.8808L25.2765 115.026H34.1157L34.4259 122.632H33.9607Z" fill="url(#paint17_radial)"/>
<defs>
<linearGradient id="paint0_linear" x1="33.4191" y1="66.4382" x2="33.4191" y2="122.787" gradientUnits="userSpaceOnUse">
<stop stop-color="#679DB0"/>
<stop offset="1" stop-color="#79A4AB"/>
</linearGradient>
<radialGradient id="paint1_radial" cx="0" cy="0" r="1" gradientUnits="userSpaceOnUse" gradientTransform="translate(33.4889 64.7772) scale(13.0671 13.0802)">
<stop stop-color="#303030"/>
<stop offset="1" stop-color="#512440"/>
</radialGradient>
<linearGradient id="paint2_linear" x1="11.4628" y1="58.5121" x2="48.9454" y2="44.8831" gradientUnits="userSpaceOnUse">
<stop offset="0.0297297" stop-color="#FCF9DB"/>
<stop offset="0.4541" stop-color="#659AAF"/>
<stop offset="0.6522" stop-color="#669CB0"/>
<stop offset="0.7514" stop-color="#6BA4B1"/>
<stop offset="0.8286" stop-color="#74B1B5"/>
<stop offset="0.8945" stop-color="#80C4B9"/>
<stop offset="0.9526" stop-color="#8FDCBF"/>
<stop offset="1" stop-color="#A0F6C6"/>
</linearGradient>
<linearGradient id="paint3_linear" x1="33.3404" y1="30.4251" x2="33.3404" y2="32.9088" gradientUnits="userSpaceOnUse">
<stop stop-color="#679DB0"/>
<stop offset="1" stop-color="#79A4AB"/>
</linearGradient>
<linearGradient id="paint4_linear" x1="33.186" y1="28.8729" x2="33.186" y2="30.4252" gradientUnits="userSpaceOnUse">
<stop stop-color="#679DB0"/>
<stop offset="1" stop-color="#79A4AB"/>
</linearGradient>
<linearGradient id="paint5_linear" x1="33.5745" y1="19.559" x2="33.5745" y2="29.1833" gradientUnits="userSpaceOnUse">
<stop stop-color="#679DB0"/>
<stop offset="1" stop-color="#79A4AB"/>
</linearGradient>
<linearGradient id="paint6_linear" x1="33.5738" y1="0" x2="33.5738" y2="20.4904" gradientUnits="userSpaceOnUse">
<stop stop-color="#679DB0"/>
<stop offset="1" stop-color="#79A4AB"/>
</linearGradient>
<linearGradient id="paint7_linear" x1="33.487" y1="9.50501" x2="33.487" y2="6.12487" gradientUnits="userSpaceOnUse">
<stop stop-color="#EFEFA9"/>
<stop offset="1" stop-color="#7FE1A6"/>
</linearGradient>
<linearGradient id="paint8_linear" x1="36.5977" y1="18.6277" x2="36.5977" y2="29.1834" gradientUnits="userSpaceOnUse">
<stop stop-color="#679DB0"/>
<stop offset="1" stop-color="#79A4AB"/>
</linearGradient>
<linearGradient id="paint9_linear" x1="30.2399" y1="14.2815" x2="30.2399" y2="29.1836" gradientUnits="userSpaceOnUse">
<stop stop-color="#679DB0"/>
<stop offset="1" stop-color="#79A4AB"/>
</linearGradient>
<linearGradient id="paint10_linear" x1="30.1765" y1="23.4989" x2="30.1765" y2="20.2279" gradientUnits="userSpaceOnUse">
<stop stop-color="#EFEFA9"/>
<stop offset="1" stop-color="#7FE1A6"/>
</linearGradient>
<radialGradient id="paint11_radial" cx="0" cy="0" r="1" gradientUnits="userSpaceOnUse" gradientTransform="translate(34.2031 69.6887) scale(5.74723 5.753)">
<stop stop-color="#EFEFA9"/>
<stop offset="1" stop-color="#57CBA1"/>
</radialGradient>
<linearGradient id="paint12_linear" x1="33.9614" y1="126.047" x2="33.9614" y2="128.841" gradientUnits="userSpaceOnUse">
<stop stop-color="#679DB0"/>
<stop offset="1" stop-color="#79A4AB"/>
</linearGradient>
<linearGradient id="paint13_linear" x1="34.1158" y1="128.841" x2="34.1158" y2="129.928" gradientUnits="userSpaceOnUse">
<stop stop-color="#512440"/>
<stop offset="1" stop-color="#79A4AB"/>
</linearGradient>
<linearGradient id="paint14_linear" x1="57.4557" y1="126.047" x2="57.4557" y2="137.224" gradientUnits="userSpaceOnUse">
<stop stop-color="#512440"/>
<stop offset="1" stop-color="#79A4AB"/>
</linearGradient>
<radialGradient id="paint15_radial" cx="0" cy="0" r="1" gradientUnits="userSpaceOnUse" gradientTransform="translate(32.2705 98.0843) scale(15.9219 15.9378)">
<stop stop-color="#EFEFA9"/>
<stop offset="1" stop-color="#57CBA1"/>
</radialGradient>
<radialGradient id="paint16_radial" cx="0" cy="0" r="1" gradientUnits="userSpaceOnUse" gradientTransform="translate(33.4773 75.6598) scale(13.7905 13.8043)">
<stop stop-color="#EFEFA9"/>
<stop offset="1" stop-color="#57CBA1"/>
</radialGradient>
<radialGradient id="paint17_radial" cx="0" cy="0" r="1" gradientUnits="userSpaceOnUse" gradientTransform="translate(25.1422 109.194) scale(11.5317 11.5432)">
<stop stop-color="#EFEFA9"/>
<stop offset="1" stop-color="#57CBA1"/>
</radialGradient>
</defs>
</svg>
