<svg width="236" height="162" viewBox="0 0 236 162" fill="none" xmlns="http://www.w3.org/2000/svg">
<path d="M75.6369 92.3711L58.1599 101.05L60.0309 118.628L60.7219 118.797L60.0309 100.997L75.8219 93.4471L75.6369 92.3711Z" fill="url(#paint0_linear)"/>
<path d="M102.685 94.0898H100.61L92 100.578L93.11 116.74L94.593 116.858V101.067L102.685 94.0898Z" fill="url(#paint1_linear)"/>
<path d="M66.9399 32.2227H78.4509V29.7457H66.9399V32.2227Z" fill="#451533"/>
<path d="M77.238 29.7289L76.614 28.2119H69.03L68.474 29.7289H77.238Z" fill="#451533"/>
<path d="M74.525 28.5831L73.378 19.0781H71.642L70.395 28.5831H74.525Z" fill="#451533"/>
<path d="M72.35 20H72.771V0H72.451L72.35 20Z" fill="#451533"/>
<path d="M76.782 29.544L76.43 28.583H73.85L74.002 29.544H76.782Z" fill="white"/>
<path d="M73.142 19.3301L74.204 27.8911H73.391L72.771 19.3301H73.142Z" fill="white"/>
<path d="M73.765 29.544L73.596 28.583H72.855L72.922 29.544H73.765Z" fill="white"/>
<path opacity="0.53" d="M71.962 19.3301L71.541 27.8911H70.614L71.777 19.3301H71.962Z" fill="#3B1544"/>
<path opacity="0.53" d="M71.288 28.4307H69.233L68.694 29.5427H71.294L71.288 28.4307Z" fill="#3B1544"/>
<path d="M72.754 5.9834H72.417L72.4 9.2834H72.754V5.9834Z" fill="url(#paint2_linear)"/>
<path d="M69.333 28.5834H69.653V18.2354H69.417L69.333 28.5834Z" fill="#451533"/>
<path d="M75.636 28.5807H75.956V13.9707H75.72L75.636 28.5807Z" fill="#451533"/>
<path d="M75.957 19.7676H75.704L75.687 22.9676H75.957V19.7676Z" fill="url(#paint3_linear)"/>
<path d="M77.8601 30.1328H73.3101V31.9698H77.8601V30.1328Z" fill="white"/>
<path d="M140.722 26.0039H139.458L138.582 31.4979L138.953 31.3289L140.722 26.0039Z" fill="#451533"/>
<path d="M120.179 22.1621H119.202L119.118 27.6731L119.489 27.5041L120.179 22.1621Z" fill="#451533"/>
<path opacity="0.28" d="M117.752 161.08C182.785 161.08 235.504 159.858 235.504 158.35C235.504 156.842 182.785 155.62 117.752 155.62C52.7194 155.62 0 156.842 0 158.35C0 159.858 52.7194 161.08 117.752 161.08Z" fill="#610431"/>
<path d="M128.302 152.317L128.572 120.549C136.501 119.316 144.574 119.316 152.503 120.549C160.34 121.257 166.503 129.38 166.503 139.306C166.514 142.059 166.017 144.79 165.037 147.362C162.88 153.008 158.515 157.12 153.237 157.946C148.181 159.378 136.165 159.146 128.177 157.946L128.302 152.317Z" fill="url(#paint4_linear)"/>
<path opacity="0.25" d="M128.251 157.996C136.239 159.142 148.251 159.378 153.311 157.996C158.502 157.17 162.867 153.058 165.111 147.412C160.984 147.315 156.913 146.44 153.111 144.834C150.059 143.528 147.285 141.652 144.937 139.306L137.067 145.457L128.287 152.316L128.251 157.996Z" fill="#88003B"/>
<path d="M129.835 158.098C138.193 158.098 144.969 149.678 144.969 139.29C144.969 128.903 138.193 120.482 129.835 120.482C121.477 120.482 114.701 128.903 114.701 139.29C114.701 149.678 121.477 158.098 129.835 158.098Z" fill="#FFF5CE"/>
<path d="M116.083 139.307C116.083 148.745 122.234 156.396 129.835 156.396C131.617 156.357 133.37 155.935 134.975 155.159C136.58 154.382 137.999 153.269 139.135 151.896C141.943 148.548 143.509 144.333 143.567 139.964C143.567 139.745 143.567 139.526 143.567 139.307V138.38C143.247 131.1 139.267 125.016 133.877 123.027C132.583 122.543 131.214 122.291 129.832 122.285C122.234 122.201 116.083 129.852 116.083 139.307Z" fill="url(#paint5_radial)"/>
<path opacity="0.54" d="M116.083 139.307C116.083 148.745 122.234 156.396 129.835 156.396C131.617 156.357 133.37 155.935 134.975 155.159C136.58 154.383 137.999 153.27 139.135 151.896C134.079 151.003 129.36 144.262 130.235 134.875C131.196 124.763 133.875 122.943 133.875 122.943C132.581 122.459 131.212 122.208 129.83 122.201C122.234 122.201 116.083 129.852 116.083 139.307Z" fill="#451533"/>
<path d="M130.189 138.379V139.963H143.57V138.379H130.189Z" fill="#0F1132"/>
<path d="M136.021 147.024C139.661 147.024 142.611 143.35 142.611 138.817C142.611 134.285 139.661 130.61 136.021 130.61C132.381 130.61 129.431 134.285 129.431 138.817C129.431 143.35 132.381 147.024 136.021 147.024Z" fill="#0F1132"/>
<path d="M135.246 147.024C138.886 147.024 141.836 143.35 141.836 138.817C141.836 134.285 138.886 130.61 135.246 130.61C131.606 130.61 128.656 134.285 128.656 138.817C128.656 143.35 131.606 147.024 135.246 147.024Z" fill="#2EFFA6"/>
<path d="M129.144 138.815C129.144 142.809 131.744 146.045 134.958 146.045H135.244C138.328 145.845 140.772 142.674 140.772 138.815C140.772 134.956 138.328 131.787 135.244 131.602H134.958C131.739 131.588 129.144 134.824 129.144 138.815Z" fill="#0F1132"/>
<path d="M129.768 138.815C129.768 142.674 132.212 145.843 135.296 146.045C138.38 145.845 140.824 142.674 140.824 138.815C140.824 134.956 138.38 131.787 135.296 131.602C132.161 131.79 129.768 134.959 129.768 138.815Z" fill="#451533"/>
<path d="M166.187 143.165H158.487L155.187 136.053L144.637 135.446V135.076L155.423 135.716L158.76 142.693L166.243 142.878L166.187 143.165Z" fill="#2EFFA6"/>
<path d="M156.004 157.204H148.929L147.529 153.193H140.014L139.694 153.547L147.244 153.447L148.727 157.509H155.148L156.004 157.204Z" fill="#2EFFA6"/>
<path d="M132.043 120.684L149.536 120.633L156.682 124.779L161.582 125.419L161.127 124.93L156.795 124.475L149.536 120.397L129.836 120.497L132.043 120.684Z" fill="#2EFFA6"/>
<path opacity="0.35" d="M139.694 153.547L147.244 153.447L148.727 157.509H155.148L154.204 157.779L148.255 157.696L146.94 153.786L139.356 153.904L139.694 153.547Z" fill="#0C107F"/>
<path opacity="0.35" d="M166.086 143.756L158.266 143.486L154.812 136.424L144.733 136.037L144.633 135.447L155.183 136.054L158.483 143.166H166.183L166.086 143.756Z" fill="#0C107F"/>
<path opacity="0.35" d="M133.24 120.97L149.335 120.818L156.514 125.149L161.738 125.587L161.586 125.418L156.686 124.778L149.536 120.633L132.043 120.684L133.24 120.97Z" fill="#0C107F"/>
<path d="M169.743 152.317L170.013 120.549C177.948 119.316 186.026 119.316 193.961 120.549C201.781 121.257 207.949 129.38 207.949 139.306C207.957 142.057 207.466 144.787 206.5 147.362C204.343 153.008 199.978 157.12 194.7 157.946C189.644 159.378 177.628 159.146 169.64 157.946L169.743 152.317Z" fill="url(#paint6_linear)"/>
<path opacity="0.25" d="M169.693 157.996C177.681 159.142 189.693 159.378 194.753 157.996C199.961 157.17 204.325 153.058 206.553 147.412C202.421 147.316 198.345 146.441 194.537 144.834C191.524 143.535 188.785 141.676 186.464 139.357L178.577 145.508L169.797 152.367L169.693 157.996Z" fill="#88003B"/>
<path d="M171.277 158.098C179.635 158.098 186.411 149.678 186.411 139.29C186.411 128.903 179.635 120.482 171.277 120.482C162.919 120.482 156.143 128.903 156.143 139.29C156.143 149.678 162.919 158.098 171.277 158.098Z" fill="#FFF5CE"/>
<path d="M157.525 139.307C157.525 148.745 163.676 156.396 171.277 156.396C173.06 156.362 174.815 155.942 176.42 155.165C178.025 154.388 179.444 153.273 180.577 151.896C183.383 148.546 184.953 144.334 185.026 139.964V138.38C184.726 131.1 180.745 125.016 175.336 122.943C174.042 122.459 172.673 122.208 171.291 122.201C163.676 122.201 157.525 129.852 157.525 139.307Z" fill="url(#paint7_radial)"/>
<path opacity="0.54" d="M157.525 139.307C157.525 148.745 163.676 156.396 171.277 156.396C173.06 156.362 174.815 155.942 176.42 155.165C178.025 154.388 179.444 153.273 180.577 151.896C175.521 151.003 170.802 144.262 171.677 134.875C172.638 124.763 175.317 122.943 175.317 122.943C174.023 122.459 172.654 122.208 171.272 122.201C163.676 122.201 157.525 129.852 157.525 139.307Z" fill="#451533"/>
<path d="M171.631 138.379V139.963H185.113V138.379H171.631Z" fill="#0F1132"/>
<path d="M177.479 147.024C181.119 147.024 184.069 143.35 184.069 138.817C184.069 134.285 181.119 130.61 177.479 130.61C173.839 130.61 170.889 134.285 170.889 138.817C170.889 143.35 173.839 147.024 177.479 147.024Z" fill="#0F1132"/>
<path d="M170.097 138.817C170.097 143.35 173.046 147.024 176.687 147.024C180.328 147.024 183.293 143.35 183.293 138.817C183.293 134.284 180.327 130.61 176.687 130.61C173.047 130.61 170.097 134.284 170.097 138.817Z" fill="#2EFFA6"/>
<path d="M170.586 138.815C170.586 142.809 173.186 146.045 176.4 146.045H176.7C179.767 145.845 182.211 142.674 182.211 138.815C182.211 134.956 179.767 131.787 176.7 131.602H176.4C173.181 131.588 170.586 134.824 170.586 138.815Z" fill="#0F1132"/>
<path d="M171.176 138.815C171.176 142.674 173.62 145.843 176.687 146.045C179.754 145.845 182.198 142.674 182.198 138.815C182.198 134.956 179.754 131.787 176.687 131.602C173.586 131.79 171.176 134.959 171.176 138.815Z" fill="#451533"/>
<path d="M207.629 143.165H199.929L196.629 136.053L186.096 135.446V135.076L196.865 135.716L200.219 142.693L207.685 142.878L207.629 143.165Z" fill="#2EFFA6"/>
<path d="M197.463 157.204H190.385L188.973 153.193H181.473L181.153 153.547L188.703 153.447L190.169 157.509H196.59L197.463 157.204Z" fill="#2EFFA6"/>
<path d="M173.502 120.684L190.995 120.633L198.124 124.779L203.045 125.419L202.573 124.93L198.242 124.475L190.995 120.397L171.277 120.497L173.502 120.684Z" fill="#2EFFA6"/>
<path opacity="0.35" d="M181.153 153.547L188.703 153.447L190.169 157.509H196.59L195.646 157.779L189.719 157.696L188.388 153.786L180.804 153.904L181.153 153.547Z" fill="#0C107F"/>
<path opacity="0.35" d="M207.528 143.756L199.728 143.486L196.256 136.425L186.171 136.037L186.087 135.447L196.62 136.054L199.92 143.166H207.62L207.528 143.756Z" fill="#0C107F"/>
<path opacity="0.35" d="M174.698 120.97L190.776 120.818L197.976 125.149L203.184 125.587L203.049 125.418L198.128 124.778L190.999 120.632L173.506 120.683L174.698 120.97Z" fill="#0C107F"/>
<path d="M86.675 18.7402L82.765 26.0042H83.389L87.248 19.2292L86.675 18.7402Z" fill="#451533"/>
<path d="M175.271 55.0424L166.979 75.2324L117.887 74.0234L125.037 49.7334L175.271 55.0424Z" fill="url(#paint8_linear)"/>
<path d="M117.887 74.0176L108.23 79.7176L156.564 80.6946L166.979 75.2346L117.887 74.0176Z" fill="#0F0022"/>
<path d="M175.271 55.0414L145.964 30.0654L99.7361 21.8584L125.036 49.7334L175.271 55.0414Z" fill="url(#paint9_linear)"/>
<path d="M99.7361 21.8584L66.9901 28.3634L49.3621 59.2044L68.6921 90.0454H109.207L108.23 79.7144L117.887 74.0144L125.033 49.7294L99.7361 21.8584Z" fill="url(#paint10_linear)"/>
<path d="M156.564 80.6909V89.1679L109.21 90.0449L108.23 79.7139L156.564 80.6909Z" fill="url(#paint11_linear)"/>
<path opacity="0.54" d="M109.14 87.6176L67.952 88.7636L60.334 75.5176L117.887 74.0176L108.23 79.7176L109.14 87.6176Z" fill="#88003B"/>
<path d="M134.032 26.0036V20.2396L104.219 14.3916V21.2516L134.032 26.0036Z" fill="#592E49"/>
<path d="M117.111 92.2529L132.565 103.376L135.346 139.593H136.206L136.88 100.882L121.459 92.2529H117.111Z" fill="#0F0022"/>
<path d="M145.913 91.7812L169.693 105.769L174.985 139.593L176.3 139.306L173 103.831L150.261 91.7812H145.913Z" fill="#0F0022"/>
<path d="M108.415 92.4053L99.804 102.075L96.046 132.675L94.9 132.624L94.6 101.058L104.51 92.5143L108.415 92.4053Z" fill="#0F0022"/>
<path d="M85.495 92.1007L64.85 102.55L62.929 133.07L61.277 132.716L60.03 100.999L81.568 90.7188L85.495 92.1007Z" fill="#0F0022"/>
<path d="M102.5 14.3916H104.219V21.2516L102.5 20.9146V14.3916Z" fill="#451533"/>
<path d="M132.717 24.9249V20.6949L105.668 15.4199V20.5259L132.717 24.9249Z" fill="#2EFFA6"/>
<path d="M137.015 26.0029L138.279 20.1719L147.295 22.4129L145.155 27.3679L137.015 26.0029Z" fill="#592E49"/>
<path d="M138.278 20.1729H137.015L136.155 25.6669L137.015 26.0039L138.278 20.1729Z" fill="#451533"/>
<path d="M144.7 26.7957L146.637 22.7847L139.02 20.9307L137.807 25.5987L144.7 26.7957Z" fill="#2EFFA6"/>
<path d="M90.4671 23.779V5.37598H90.2821L90.0291 23.864L90.4671 23.779Z" fill="#451533"/>
<path d="M87.871 19.7011C91.562 22.4011 95.724 22.9701 97.171 20.9821C98.618 18.9941 96.817 15.2011 93.126 12.5561C89.435 9.91115 85.256 9.28715 83.806 11.2751C82.356 13.2631 84.264 17.0091 87.871 19.7011Z" fill="#595C7E"/>
<path d="M152.621 89.2357L149.082 93.9207L71.5919 94.1907L70.6479 88.7637L152.621 89.2357Z" fill="#0F0022"/>
<path d="M88.356 19.0229C92.047 21.7229 96.226 22.2919 97.676 20.3039C99.126 18.3159 97.305 14.5039 93.614 11.8779C89.923 9.25187 85.761 8.55787 84.261 10.5469C82.761 12.5359 84.67 16.3299 88.356 19.0229Z" fill="url(#paint12_linear)"/>
<path d="M88.343 18.6735C91.815 21.2185 95.743 21.7575 97.107 19.8865C98.471 18.0155 96.753 14.4425 93.281 11.9155C89.809 9.38846 85.95 8.84846 84.534 10.7155C83.118 12.5825 84.888 16.1455 88.343 18.6735Z" fill="url(#paint13_linear)"/>
<path d="M117.887 74.0184L125.033 49.7334L99.736 21.8584H99.298L124.122 49.5814L124.189 50.4914L117.887 74.0184Z" fill="white"/>
<path d="M27.942 151.677L28.229 117.482C32.897 116.302 46.514 115.932 54.014 117.482C62.44 118.257 69.081 127.004 69.081 137.706C69.0943 140.67 68.5632 143.612 67.514 146.385C65.188 152.469 60.486 156.901 54.891 157.778C49.447 159.328 36.521 159.078 27.926 157.778L27.942 151.677Z" fill="url(#paint14_linear)"/>
<path opacity="0.25" d="M27.892 157.828C36.504 159.058 49.43 159.311 54.857 157.828C60.457 156.952 65.157 152.519 67.48 146.435C63.0355 146.337 58.6497 145.399 54.554 143.671C51.3074 142.265 48.3556 140.258 45.854 137.756L37.428 144.396L27.942 151.677L27.892 157.828Z" fill="#88003B"/>
<path d="M29.594 157.928C38.5852 157.928 45.874 148.866 45.874 137.688C45.874 126.51 38.5852 117.448 29.594 117.448C20.6028 117.448 13.314 126.51 13.314 137.688C13.314 148.866 20.6028 157.928 29.594 157.928Z" fill="#451533"/>
<path d="M14.797 137.688C14.797 147.8 21.42 156.108 29.597 156.108C31.5172 156.07 33.4063 155.616 35.1344 154.778C36.8626 153.94 38.3887 152.738 39.608 151.254C42.6408 147.656 44.3322 143.118 44.394 138.412V136.712C44.057 128.859 39.776 122.32 33.945 120.078C32.5542 119.558 31.0819 119.29 29.597 119.286C21.417 119.285 14.797 127.526 14.797 137.688Z" fill="url(#paint15_radial)"/>
<path opacity="0.54" d="M14.797 137.688C14.797 147.8 21.42 156.108 29.597 156.108C31.5172 156.07 33.4063 155.616 35.1344 154.778C36.8626 153.94 38.3887 152.738 39.608 151.254C34.164 150.293 29.092 143.03 30.036 132.935C31.081 122.099 33.946 120.076 33.946 120.076C32.5552 119.556 31.0829 119.288 29.598 119.284C21.417 119.285 14.797 127.526 14.797 137.688Z" fill="#88003B"/>
<path d="M29.981 136.711V138.396H44.391V136.696L29.981 136.711Z" fill="#0F1132"/>
<path d="M36.268 146.014C40.1864 146.014 43.363 142.06 43.363 137.183C43.363 132.305 40.1864 128.352 36.268 128.352C32.3495 128.352 29.173 132.305 29.173 137.183C29.173 142.06 32.3495 146.014 36.268 146.014Z" fill="#0F1132"/>
<path d="M35.4251 146.014C39.3435 146.014 42.5201 142.06 42.5201 137.183C42.5201 132.305 39.3435 128.352 35.4251 128.352C31.5066 128.352 28.3301 132.305 28.3301 137.183C28.3301 142.06 31.5066 146.014 35.4251 146.014Z" fill="#2EFFA6"/>
<path d="M28.8521 137.166C28.8521 141.466 31.652 144.952 35.121 144.952H35.3911C38.7621 144.733 41.323 141.329 41.323 137.166C41.323 133.003 38.7621 129.617 35.3911 129.397H35.0711C31.6501 129.397 28.8521 132.886 28.8521 137.166Z" fill="#0F1132"/>
<path d="M29.4761 137.166C29.4761 141.329 32.1051 144.733 35.4251 144.952C38.7961 144.733 41.3571 141.329 41.3571 137.166C41.3571 133.003 38.7571 129.616 35.3911 129.397C32.1051 129.617 29.4761 133.017 29.4761 137.166Z" fill="#451533"/>
<path d="M68.727 141.851H60.452L56.896 134.2L45.537 133.538V133.138L57.132 133.829L60.739 141.345L68.795 141.545L68.727 141.851Z" fill="#2EFFA6"/>
<path d="M57.789 156.968H50.171L48.658 152.654H40.565L40.228 153.042L48.351 152.907L49.935 157.307H56.845L57.789 156.968Z" fill="#2EFFA6"/>
<path d="M31.9869 117.65L50.8119 117.583L58.4969 122.066L63.7889 122.757L63.2999 122.218L58.6339 121.729L50.8139 117.347L29.5959 117.447L31.9869 117.65Z" fill="#2EFFA6"/>
<path d="M45.183 125.989C43.0462 123.144 40.3508 120.765 37.262 118.999L56.913 119.285C59.9894 120.997 62.559 123.491 64.362 126.515L45.183 125.989Z" fill="white"/>
<path d="M45.891 127.459H64.361L65.086 129.229H46.531L45.891 127.459Z" fill="white"/>
<path opacity="0.35" d="M40.2279 153.042L48.3509 152.907L49.9349 157.307H56.8449L55.8339 157.577L49.4469 157.493L48.0309 153.277L39.8569 153.412L40.2279 153.042Z" fill="#0C107F"/>
<path opacity="0.35" d="M68.6261 142.475L60.2171 142.203L56.4921 134.585L45.6391 134.164L45.5391 133.54L56.8981 134.197L60.4541 141.848H68.7271L68.6261 142.475Z" fill="#0C107F"/>
<path opacity="0.35" d="M33.2679 117.954L50.5929 117.785L58.3289 122.453L63.9409 122.925L63.7889 122.756L58.4969 122.065L50.8069 117.583L31.9819 117.65L33.2679 117.954Z" fill="#0C107F"/>
<path d="M72.569 151.677L72.855 117.482C77.523 116.302 91.14 115.932 98.64 117.482C107.067 118.254 113.702 127.004 113.702 137.706C113.715 140.67 113.184 143.612 112.135 146.385C109.809 152.469 105.107 156.901 99.512 157.778C94.068 159.328 81.125 159.078 72.547 157.778L72.569 151.677Z" fill="url(#paint16_linear)"/>
<path opacity="0.25" d="M72.468 157.828C81.068 159.058 94.006 159.311 99.433 157.828C105.033 156.952 109.733 152.519 112.056 146.435C107.606 146.336 103.215 145.398 99.113 143.671C95.8945 142.232 92.9737 140.203 90.501 137.689L82.075 144.329L72.568 151.677L72.468 157.828Z" fill="#88003B"/>
<path d="M74.2209 157.928C83.2121 157.928 90.5009 148.866 90.5009 137.688C90.5009 126.51 83.2121 117.448 74.2209 117.448C65.2297 117.448 57.9409 126.51 57.9409 137.688C57.9409 148.866 65.2297 157.928 74.2209 157.928Z" fill="#FFF5CE"/>
<path d="M59.407 137.688C59.407 147.8 66.047 156.108 74.221 156.108C76.1468 156.075 78.0423 155.623 79.7765 154.785C81.5107 153.947 83.0421 152.742 84.265 151.254C87.2978 147.656 88.9891 143.118 89.051 138.412C89.051 138.176 89.051 137.923 89.051 137.687V136.71C88.714 128.857 84.416 122.318 78.602 120.076C77.1801 119.547 75.6742 119.279 74.157 119.285C66.047 119.285 59.407 127.526 59.407 137.688Z" fill="url(#paint17_radial)"/>
<path opacity="0.54" d="M59.407 137.688C59.407 147.8 66.047 156.108 74.221 156.108C76.1468 156.075 78.0423 155.623 79.7765 154.785C81.5107 153.947 83.0421 152.742 84.265 151.254C78.821 150.293 73.749 143.03 74.693 132.935C75.721 122.099 78.603 120.076 78.603 120.076C77.1808 119.547 75.6745 119.279 74.157 119.285C66.047 119.285 59.407 127.526 59.407 137.688Z" fill="#451533"/>
<path d="M74.608 136.711V138.396H89.017V136.696L74.608 136.711Z" fill="#0F1132"/>
<path d="M73.782 137.185C73.782 142.055 76.967 146.016 80.894 146.016C84.821 146.016 87.994 142.056 87.994 137.185C87.994 132.314 84.826 128.337 80.894 128.337C76.962 128.337 73.782 132.295 73.782 137.185Z" fill="#0F1132"/>
<path d="M72.957 137.185C72.957 142.055 76.125 146.016 80.057 146.016C83.989 146.016 87.157 142.056 87.157 137.185C87.157 132.314 83.989 128.337 80.057 128.337C76.125 128.337 72.957 132.295 72.957 137.185Z" fill="#2EFFA6"/>
<path d="M73.479 137.166C73.479 141.466 76.279 144.952 79.731 144.952H80.051C83.422 144.733 86 141.329 86 137.166C86 133.003 83.372 129.617 80.052 129.397H79.732C76.279 129.397 73.479 132.886 73.479 137.166Z" fill="#0F1132"/>
<path d="M74.1531 137.166C74.1531 141.329 76.7821 144.733 80.1021 144.952C83.4731 144.733 86.0511 141.329 86.0511 137.166C86.0511 133.003 83.4221 129.617 80.1021 129.397C76.7321 129.617 74.1531 133.017 74.1531 137.166Z" fill="#451533"/>
<path d="M113.353 141.851H105.078L101.505 134.2L90.1631 133.538V133.138L101.758 133.829L105.363 141.345L113.402 141.545L113.353 141.851Z" fill="#2EFFA6"/>
<path d="M102.416 156.968H94.781L93.264 152.654H85.192L84.838 153.042L92.978 152.907L94.562 157.307H101.472L102.416 156.968Z" fill="#2EFFA6"/>
<path d="M76.6139 117.65L95.4389 117.583L103.124 122.066L108.416 122.757L107.927 122.218L103.259 121.729L95.4389 117.347L74.2209 117.447L76.6139 117.65Z" fill="#2EFFA6"/>
<path d="M89.8099 125.989C87.669 123.148 84.9745 120.77 81.8889 118.999L101.523 119.285C104.606 120.995 107.181 123.489 108.989 126.515L89.8099 125.989Z" fill="white"/>
<path d="M90.5 127.459H108.988L109.713 129.229H91.157L90.5 127.459Z" fill="white"/>
<path opacity="0.35" d="M84.838 153.042L92.978 152.907L94.562 157.307H101.472L100.461 157.577L94.061 157.493L92.641 153.277L84.484 153.412L84.838 153.042Z" fill="#0C107F"/>
<path opacity="0.35" d="M113.252 142.475L104.842 142.205L101.117 134.587L90.2631 134.167L90.1631 133.543L101.505 134.2L105.078 141.851H113.353L113.252 142.475Z" fill="#0C107F"/>
<path opacity="0.35" d="M77.895 117.954L95.22 117.785L102.954 122.454L108.566 122.926L108.414 122.757L103.122 122.066L95.439 117.583L76.614 117.65L77.895 117.954Z" fill="#0C107F"/>
<path d="M155.907 88.6474V81.4004H146.233L146.385 88.7654L155.907 88.6474Z" fill="white"/>
<path d="M145.559 81.4004H141.059L141.497 88.6474L145.559 88.5634V81.4004Z" fill="white"/>
<path d="M135.346 139.591H134.166L131.285 104.184L116.454 93.9209L119.572 94.0209L132.566 103.374L135.346 139.591Z" fill="url(#paint18_radial)"/>
<path opacity="0.35" d="M118.291 80.6924V87.9564L156.564 89.1694L111.381 88.7694L109.46 80.6924H118.291Z" fill="#9A313B"/>
<path d="M128.032 48.2797L121.426 41.4577L128.201 28.9697L135.818 30.0797L160.118 44.2027L168.848 52.4777L128.032 48.2797Z" fill="#2EFFA6"/>
<path d="M127.577 30.1327L135.616 30.9757L159.21 45.1657L166.153 52.2107L168.853 52.4807L160.123 44.2057L135.818 30.0797L128.201 28.9697L127.577 30.1327Z" fill="#0F0022"/>
<path opacity="0.35" d="M92 100.578L94.6 101.067L102.689 94.0898H100.61L92 100.578Z" fill="#9A313B"/>
<path opacity="0.35" d="M58.1599 101.05L60.0309 100.999L75.8219 93.4491L75.6369 92.3701L58.1599 101.05Z" fill="#9A313B"/>
<path d="M174.984 139.593L173.872 139.745L167.839 106.797L147.379 93.9213H149.079L149.214 93.7363L169.69 105.769L174.984 139.593Z" fill="url(#paint19_radial)"/>
<path d="M56.272 35.4081L95.034 30.3691L110.893 46.8691L98.405 69.2491L52.666 70.3101L44.408 59.2211L56.272 35.4081Z" fill="url(#paint20_linear)"/>
<path d="M52.666 70.3102L57.351 71.8272L99.736 70.8832L110.893 50.3402V46.8682L98.405 69.2492L52.666 70.3102Z" fill="#0F0022"/>
<path d="M48.8569 65.1883L86.6919 64.2613L96.3819 47.9473L85.0069 38.4473L53.7949 40.3803L53.9799 40.0263L85.0739 37.9873L96.9889 47.9473L87.1809 64.6653L49.1439 65.5753L48.8569 65.1883Z" fill="#2EFFA6"/>
<path opacity="0.53" d="M48.857 65.1884L86.692 64.2614L96.382 47.9474L85.006 38.4424L53.795 40.3804L53.66 40.6804L84.922 38.9324L95.708 47.9484L86.456 63.7724L48.604 64.8514L48.857 65.1884Z" fill="#9A313B"/>
<path d="M72.4681 0.606062C71.4571 0.606062 70.7831 3.82506 70.9011 7.71806C71.0191 11.6111 72.0011 14.7121 73.0241 14.6781C74.0471 14.6441 74.7091 11.4591 74.6081 7.56606C74.5071 3.67306 73.4451 0.556062 72.4681 0.606062Z" fill="url(#paint21_radial)"/>
<path d="M75.552 14.2072C74.524 14.2072 73.867 17.4432 73.968 21.3192C74.069 25.1952 75.08 28.3302 76.091 28.2962C77.102 28.2622 77.774 25.0602 77.674 21.1842C77.574 17.3082 76.564 14.1772 75.552 14.2072Z" fill="url(#paint22_radial)"/>
<path d="M50.307 47.4073L81.788 45.4023L87.248 49.7333L82.765 56.7623L44.408 59.2213L50.307 47.4073Z" fill="#2EFFA6"/>
<path opacity="0.35" d="M50.036 47.9473L81.787 45.9413L87.011 50.1043L87.247 49.7333L81.787 45.4023L50.306 47.4073L50.036 47.9473Z" fill="#9A313B"/>
<path d="M55.969 36.0321L94.899 31.0601L110.099 46.8681L98.405 69.2491L110.893 46.8681L95.034 30.3691L56.272 35.4081L55.969 36.0321Z" fill="white"/>
<path d="M127.223 74.254L131.403 59.254L152.621 55.041L168.85 62.49L164.182 75.163L163.845 75.129L168.294 62.86L152.621 55.529L131.791 59.658L127.51 74.254H127.223Z" fill="#2EFFA6"/>
<path opacity="0.53" d="M127.51 74.2543L131.791 59.6593L152.621 55.5303L168.294 62.8613L163.85 75.1303H163.53L167.912 63.1643L152.612 55.9513L132.111 59.8443L127.811 74.2703L127.51 74.2543Z" fill="#9A313B"/>
<path d="M68.693 90.0454L57.351 71.8274L52.666 70.3104L44.408 59.2214L56.273 35.4084L63.486 34.4814L66.988 28.3634L99.736 21.8584L66.519 28.2124L63.047 33.9124L55.969 34.8054L43.498 59.8614L51.975 70.6614L56.875 72.4314L68.693 90.0454Z" fill="#FFFFD8"/>
<path d="M106.646 23.0889L145.966 30.0659L175.273 55.0419L166.981 75.2319L176.301 55.0419L146.588 29.3249L106.646 23.0889Z" fill="#FFFFD8"/>
<defs>
<linearGradient id="paint0_linear" x1="58.1599" y1="105.584" x2="75.8219" y2="105.584" gradientUnits="userSpaceOnUse">
<stop stop-color="#FCF4C5"/>
<stop offset="0.96" stop-color="#FFA681"/>
</linearGradient>
<linearGradient id="paint1_linear" x1="92" y1="94.0898" x2="102.685" y2="94.0898" gradientUnits="userSpaceOnUse">
<stop stop-color="#FCF4C5"/>
<stop offset="0.96" stop-color="#FFA681"/>
</linearGradient>
<linearGradient id="paint2_linear" x1="1199.78" y1="5.9834" x2="1199.78" y2="5.9834" gradientUnits="userSpaceOnUse">
<stop stop-color="#EFEFA9"/>
<stop offset="1" stop-color="#7FE1A6"/>
</linearGradient>
<linearGradient id="paint3_linear" x1="1197.73" y1="19.7676" x2="1197.73" y2="19.7676" gradientUnits="userSpaceOnUse">
<stop stop-color="#EFEFA9"/>
<stop offset="1" stop-color="#7FE1A6"/>
</linearGradient>
<linearGradient id="paint4_linear" x1="128.254" y1="139.28" x2="166.503" y2="139.28" gradientUnits="userSpaceOnUse">
<stop offset="0.03" stop-color="#FCF9DB"/>
<stop offset="0.45" stop-color="#659AAF"/>
<stop offset="0.65" stop-color="#669CB0"/>
<stop offset="0.75" stop-color="#6BA4B1"/>
<stop offset="0.83" stop-color="#74B1B5"/>
<stop offset="0.89" stop-color="#80C4B9"/>
<stop offset="0.95" stop-color="#8FDCBF"/>
<stop offset="1" stop-color="#A0F6C6"/>
</linearGradient>
<radialGradient id="paint5_radial" cx="0" cy="0" r="1" gradientUnits="userSpaceOnUse" gradientTransform="translate(12.6286 137.396) rotate(180) scale(27.7977 27.801)">
<stop offset="0.03" stop-color="#D4845E"/>
<stop offset="1" stop-color="#731245"/>
</radialGradient>
<linearGradient id="paint6_linear" x1="169.678" y1="139.28" x2="207.949" y2="139.28" gradientUnits="userSpaceOnUse">
<stop offset="0.03" stop-color="#FCF9DB"/>
<stop offset="0.45" stop-color="#659AAF"/>
<stop offset="0.65" stop-color="#669CB0"/>
<stop offset="0.75" stop-color="#6BA4B1"/>
<stop offset="0.83" stop-color="#74B1B5"/>
<stop offset="0.89" stop-color="#80C4B9"/>
<stop offset="0.95" stop-color="#8FDCBF"/>
<stop offset="1" stop-color="#A0F6C6"/>
</linearGradient>
<radialGradient id="paint7_radial" cx="0" cy="0" r="1" gradientUnits="userSpaceOnUse" gradientTransform="translate(1337.71 137.384) scale(27.7914 27.8005)">
<stop offset="0.03" stop-color="#D4845E"/>
<stop offset="1" stop-color="#731245"/>
</radialGradient>
<linearGradient id="paint8_linear" x1="146.579" y1="49.7334" x2="146.579" y2="75.2324" gradientUnits="userSpaceOnUse">
<stop offset="0.03" stop-color="#FCF9DB"/>
<stop offset="0.45" stop-color="#659AAF"/>
<stop offset="0.65" stop-color="#669CB0"/>
<stop offset="0.75" stop-color="#6BA4B1"/>
<stop offset="0.83" stop-color="#74B1B5"/>
<stop offset="0.89" stop-color="#80C4B9"/>
<stop offset="0.95" stop-color="#8FDCBF"/>
<stop offset="1" stop-color="#A0F6C6"/>
</linearGradient>
<linearGradient id="paint9_linear" x1="137.504" y1="21.8584" x2="137.504" y2="55.0414" gradientUnits="userSpaceOnUse">
<stop offset="0.03" stop-color="#FCF9DB"/>
<stop offset="0.45" stop-color="#659AAF"/>
<stop offset="0.65" stop-color="#669CB0"/>
<stop offset="0.75" stop-color="#6BA4B1"/>
<stop offset="0.83" stop-color="#74B1B5"/>
<stop offset="0.89" stop-color="#80C4B9"/>
<stop offset="0.95" stop-color="#8FDCBF"/>
<stop offset="1" stop-color="#A0F6C6"/>
</linearGradient>
<linearGradient id="paint10_linear" x1="87.1976" y1="21.8584" x2="87.1976" y2="90.0454" gradientUnits="userSpaceOnUse">
<stop offset="0.03" stop-color="#FCF9DB"/>
<stop offset="0.45" stop-color="#659AAF"/>
<stop offset="0.65" stop-color="#669CB0"/>
<stop offset="0.75" stop-color="#6BA4B1"/>
<stop offset="0.83" stop-color="#74B1B5"/>
<stop offset="0.89" stop-color="#80C4B9"/>
<stop offset="0.95" stop-color="#8FDCBF"/>
<stop offset="1" stop-color="#A0F6C6"/>
</linearGradient>
<linearGradient id="paint11_linear" x1="132.397" y1="79.7139" x2="132.397" y2="90.0449" gradientUnits="userSpaceOnUse">
<stop offset="0.03" stop-color="#FCF9DB"/>
<stop offset="0.45" stop-color="#659AAF"/>
<stop offset="0.65" stop-color="#669CB0"/>
<stop offset="0.75" stop-color="#6BA4B1"/>
<stop offset="0.83" stop-color="#74B1B5"/>
<stop offset="0.89" stop-color="#80C4B9"/>
<stop offset="0.95" stop-color="#8FDCBF"/>
<stop offset="1" stop-color="#A0F6C6"/>
</linearGradient>
<linearGradient id="paint12_linear" x1="1311.7" y1="-572.093" x2="1320.59" y2="-576.692" gradientUnits="userSpaceOnUse">
<stop offset="0.03" stop-color="#FCF9DB"/>
<stop offset="0.45" stop-color="#659AAF"/>
</linearGradient>
<linearGradient id="paint13_linear" x1="1174.55" y1="15.3021" x2="1188.04" y2="15.3021" gradientUnits="userSpaceOnUse">
<stop offset="0.55" stop-color="#659AAF"/>
<stop offset="0.97" stop-color="#FCF9DB"/>
</linearGradient>
<linearGradient id="paint14_linear" x1="27.8849" y1="137.651" x2="69.0813" y2="137.651" gradientUnits="userSpaceOnUse">
<stop offset="0.03" stop-color="#FCF9DB"/>
<stop offset="0.45" stop-color="#659AAF"/>
<stop offset="0.65" stop-color="#669CB0"/>
<stop offset="0.75" stop-color="#6BA4B1"/>
<stop offset="0.83" stop-color="#74B1B5"/>
<stop offset="0.89" stop-color="#80C4B9"/>
<stop offset="0.95" stop-color="#8FDCBF"/>
<stop offset="1" stop-color="#A0F6C6"/>
</linearGradient>
<radialGradient id="paint15_radial" cx="0" cy="0" r="1" gradientUnits="userSpaceOnUse" gradientTransform="translate(1528.3 135.635) scale(29.9336 29.9363)">
<stop offset="0.03" stop-color="#D4845E"/>
<stop offset="1" stop-color="#731245"/>
</radialGradient>
<linearGradient id="paint16_linear" x1="72.5058" y1="137.651" x2="113.702" y2="137.651" gradientUnits="userSpaceOnUse">
<stop offset="0.03" stop-color="#FCF9DB"/>
<stop offset="0.45" stop-color="#659AAF"/>
<stop offset="0.65" stop-color="#669CB0"/>
<stop offset="0.75" stop-color="#6BA4B1"/>
<stop offset="0.83" stop-color="#74B1B5"/>
<stop offset="0.89" stop-color="#80C4B9"/>
<stop offset="0.95" stop-color="#8FDCBF"/>
<stop offset="1" stop-color="#A0F6C6"/>
</linearGradient>
<radialGradient id="paint17_radial" cx="0" cy="0" r="1" gradientUnits="userSpaceOnUse" gradientTransform="translate(1465.86 135.635) scale(29.9329 29.9372)">
<stop offset="0.03" stop-color="#D4845E"/>
<stop offset="1" stop-color="#731245"/>
</radialGradient>
<radialGradient id="paint18_radial" cx="0" cy="0" r="1" gradientUnits="userSpaceOnUse" gradientTransform="translate(236.491 116.756) scale(17.4885 17.4916)">
<stop offset="0.03" stop-color="#09635E"/>
<stop offset="1" stop-color="#222343"/>
</radialGradient>
<radialGradient id="paint19_radial" cx="0" cy="0" r="1" gradientUnits="userSpaceOnUse" gradientTransform="translate(228.384 116.741) scale(18.9592 18.9557)">
<stop offset="0.03" stop-color="#09635E"/>
<stop offset="1" stop-color="#222343"/>
</radialGradient>
<linearGradient id="paint20_linear" x1="44.408" y1="50.3396" x2="110.893" y2="50.3396" gradientUnits="userSpaceOnUse">
<stop offset="0.03" stop-color="#FCF9DB"/>
<stop offset="0.45" stop-color="#659AAF"/>
<stop offset="0.65" stop-color="#669CB0"/>
<stop offset="0.75" stop-color="#6BA4B1"/>
<stop offset="0.83" stop-color="#74B1B5"/>
<stop offset="0.89" stop-color="#80C4B9"/>
<stop offset="0.95" stop-color="#8FDCBF"/>
<stop offset="1" stop-color="#A0F6C6"/>
</linearGradient>
<radialGradient id="paint21_radial" cx="0" cy="0" r="1" gradientUnits="userSpaceOnUse" gradientTransform="translate(80.3349 17.6095) rotate(-98.2585) scale(1.88292 6.92483)">
<stop stop-color="#C4FFC2"/>
<stop offset="0.05" stop-color="#B2E8B1"/>
<stop offset="0.2" stop-color="#84AB82"/>
<stop offset="0.35" stop-color="#5C775B"/>
<stop offset="0.5" stop-color="#3B4C3A"/>
<stop offset="0.64" stop-color="#212B21"/>
<stop offset="0.77" stop-color="#0F130F"/>
<stop offset="0.9" stop-color="#040504"/>
<stop offset="1"/>
</radialGradient>
<radialGradient id="paint22_radial" cx="0" cy="0" r="1" gradientUnits="userSpaceOnUse" gradientTransform="translate(69.7625 18.0658) rotate(-98.2585) scale(1.88066 6.94695)">
<stop stop-color="#C4FFC2"/>
<stop offset="0.05" stop-color="#B2E8B1"/>
<stop offset="0.2" stop-color="#84AB82"/>
<stop offset="0.35" stop-color="#5C775B"/>
<stop offset="0.5" stop-color="#3B4C3A"/>
<stop offset="0.64" stop-color="#212B21"/>
<stop offset="0.77" stop-color="#0F130F"/>
<stop offset="0.9" stop-color="#040504"/>
<stop offset="1"/>
</radialGradient>
</defs>
</svg>
