<svg width="116" height="198" viewBox="0 0 116 198" fill="none" xmlns="http://www.w3.org/2000/svg">
<path d="M105.039 194.719H11.0992V198H105.039V194.719Z" fill="#451533"/>
<path d="M92.1327 181.283H22.2333V186.775H92.1327V181.283Z" fill="url(#paint0_radial)"/>
<path d="M33.9653 76.8076L0 106.559L17.8805 181.26L97.4861 181.594L115.226 106.559L80.5123 76.6583L33.9653 76.8076Z" fill="#451533"/>
<path d="M108.091 194.719H8.6355L10.5929 186.775H104.89L108.091 194.719Z" fill="url(#paint1_linear)"/>
<path opacity="0.65" d="M26.021 83.7625L35.4885 168.607H79.4447L87.7461 82.8874L83.3941 79.6546L30.9379 79.827L26.021 83.7625Z" fill="#314F74"/>
<path d="M75.1959 166.315H38.9969L28.8651 57.6262L45.6288 53.5159H69.0281L85.4777 57.6262L75.1959 166.315Z" fill="url(#paint2_linear)"/>
<path d="M45.6626 55.5765L47.64 166.315H38.9969L30.8679 59.6291L45.6626 55.5765Z" fill="white"/>
<path d="M49.2787 58.5816H64.8916L62.8188 164H51.3623L49.2787 58.5816Z" fill="url(#paint3_radial)"/>
<path opacity="0.35" d="M62.8188 164L64.8916 58.5816H49.2787L51.3623 164L52.1797 163.943L50.4186 59.71L63.8548 59.8139L62.2546 164H62.8188Z" fill="#314F74"/>
<path opacity="0.35" d="M69.9572 55.2425L66.7244 165.59L38.9993 166.315H73.665L83.532 58.5816L69.9572 55.2425Z" fill="#314F74"/>
<path d="M11.5481 193.878L12.8374 187.914H31.5376L31.0542 193.878H11.5481Z" fill="white"/>
<path d="M31.9502 193.878H39.2625V187.914H32.5275L31.9502 193.878Z" fill="white"/>
<path opacity="0.35" d="M89.0354 187.627L90.0022 192.612L8.6355 194.719H105.592L102.483 187.627H89.0354Z" fill="#314F74"/>
<path d="M10.7538 97.1371L27.1726 175.902H88.0456L105.327 98.0269L105.039 97.7852L87.7577 175.364H27.6329L11.0994 96.8292L10.7538 97.1371Z" fill="url(#paint4_radial)"/>
<path opacity="0.65" d="M11.0992 96.8296L27.6327 175.364H87.7576L105.039 97.7855L104.659 97.4515L87.4812 175.111H28.1046L11.675 96.3346L11.0992 96.8296Z" fill="#314F74"/>
<path d="M1.94592 107.019L15.3251 161.421L21.1627 159.035L9.41987 101.193L1.94592 107.019Z" fill="white"/>
<path d="M15.7507 162.815L18.0753 172.349L23.4864 170.932L21.1618 160.351L15.7507 162.815Z" fill="white"/>
<path d="M66.7221 49.405H47.6093V53.5153H66.7221V49.405Z" fill="#451533"/>
<path d="M49.6244 49.4036L50.672 46.8705H63.2568L64.2005 49.4036H49.6244Z" fill="#451533"/>
<path d="M54.1372 47.5054L56.0369 31.6854H58.9156L60.9992 47.5054H54.1372Z" fill="#451533"/>
<path d="M57.7641 33.2517H57.0621V0H57.5802L57.7641 33.2517Z" fill="#451533"/>
<path d="M50.384 49.0705L50.9713 47.5049H55.2771L54.9892 49.0705H50.384Z" fill="white"/>
<path d="M56.4287 32.1113L54.6783 46.351H56.0023L57.0614 32.1113H56.4287Z" fill="white"/>
<path d="M55.4156 49.0705L55.692 47.5049H56.9127L56.8088 49.0705H55.4156Z" fill="white"/>
<path opacity="0.53" d="M58.386 32.1113L59.0787 46.351H60.6443L58.72 32.1113H58.386Z" fill="#3B1544"/>
<path opacity="0.53" d="M59.5144 47.2405H62.9343L63.8325 49.0709H59.5144V47.2405Z" fill="#3B1544"/>
<path d="M57.5917 2.11816H57.0621V5.9983H57.5917V2.11816Z" fill="url(#paint5_linear)"/>
<path d="M57.0621 9.94763H57.6379L57.661 15.4396H57.0621V9.94763Z" fill="url(#paint6_linear)"/>
<path d="M57.6956 20.3091H57.0621V26.1351H57.6956V20.3091Z" fill="url(#paint7_linear)"/>
<path d="M62.7727 47.5059H62.2431V30.2927H62.6349L62.7727 47.5059Z" fill="#451533"/>
<path d="M62.6464 31.8932H62.2431V34.8173H62.6464V31.8932Z" fill="url(#paint8_linear)"/>
<path d="M62.2431 37.7994H62.6803L62.7033 41.9443H62.2415L62.2431 37.7994Z" fill="url(#paint9_linear)"/>
<path d="M52.2837 47.5053H51.7542V23.2231H52.1459L52.2837 47.5053Z" fill="#451533"/>
<path d="M51.7542 32.848H52.1914L52.2145 38.159H51.7527L51.7542 32.848Z" fill="url(#paint10_linear)"/>
<path d="M56.1639 50.0618H48.5991V53.1129H56.1639V50.0618Z" fill="white"/>
<path d="M91.3615 89.7716L99.5243 96.8291L96.163 113.202L89.0131 109.909L91.3615 89.7716Z" fill="url(#paint11_radial)"/>
<path d="M20.92 128.954L27.7936 123.888L33.5041 166.431L28.6226 167.213L20.92 128.954Z" fill="url(#paint12_radial)"/>
<path d="M95.725 178.67H89.0585L94.6774 155.354H101.482L95.725 178.67Z" fill="url(#paint13_radial)"/>
<path opacity="0.65" d="M94.6774 155.354L89.0585 178.67L94.1001 154.537L102.401 154.871L95.7234 178.67L101.48 155.354H94.6774Z" fill="#314F74"/>
<path opacity="0.65" d="M89.0123 109.909L91.3615 89.7715L99.5243 96.8329L96.0606 113.69L100.62 96.3387L90.7881 88.7185L89.0123 109.909Z" fill="#314F74"/>
<path opacity="0.65" d="M28.6203 167.213L20.9231 128.953L27.7967 123.887L33.5072 166.43L28.1854 122.056L19.9302 128.343L28.6203 167.213Z" fill="#314F74"/>
<defs>
<radialGradient id="paint0_radial" cx="0" cy="0" r="1" gradientUnits="userSpaceOnUse" gradientTransform="translate(25.3491 184.023) scale(24.9266 24.7905)">
<stop stop-color="#EFEFA9"/>
<stop offset="1" stop-color="#57CBA1"/>
</radialGradient>
<linearGradient id="paint1_linear" x1="13.0115" y1="178.211" x2="13.6451" y2="206.679" gradientUnits="userSpaceOnUse">
<stop offset="0.03" stop-color="#FCF9DB"/>
<stop offset="0.45" stop-color="#659AAF"/>
<stop offset="0.65" stop-color="#669CB0"/>
<stop offset="0.75" stop-color="#6BA4B1"/>
<stop offset="0.83" stop-color="#74B1B5"/>
<stop offset="0.89" stop-color="#80C4B9"/>
<stop offset="0.95" stop-color="#8FDCBF"/>
<stop offset="1" stop-color="#A0F6C6"/>
</linearGradient>
<linearGradient id="paint2_linear" x1="17.0331" y1="98.9741" x2="89.6955" y2="104.225" gradientUnits="userSpaceOnUse">
<stop offset="0.03" stop-color="#FCF9DB"/>
<stop offset="0.45" stop-color="#659AAF"/>
<stop offset="0.65" stop-color="#669CB0"/>
<stop offset="0.75" stop-color="#6BA4B1"/>
<stop offset="0.83" stop-color="#74B1B5"/>
<stop offset="0.89" stop-color="#80C4B9"/>
<stop offset="0.95" stop-color="#8FDCBF"/>
<stop offset="1" stop-color="#A0F6C6"/>
</linearGradient>
<radialGradient id="paint3_radial" cx="0" cy="0" r="1" gradientUnits="userSpaceOnUse" gradientTransform="translate(289.267 111.291) scale(37.6344 37.6345)">
<stop stop-color="#EFEFA9"/>
<stop offset="1" stop-color="#57CBA1"/>
</radialGradient>
<radialGradient id="paint4_radial" cx="0" cy="0" r="1" gradientUnits="userSpaceOnUse" gradientTransform="translate(49.1696 136.366) scale(43.5639 43.5692)">
<stop stop-color="#EFEFA9"/>
<stop offset="1" stop-color="#57CBA1"/>
</radialGradient>
<linearGradient id="paint5_linear" x1="57.3269" y1="5.9983" x2="57.3269" y2="2.11816" gradientUnits="userSpaceOnUse">
<stop stop-color="#EFEFA9"/>
<stop offset="1" stop-color="#7FE1A6"/>
</linearGradient>
<linearGradient id="paint6_linear" x1="57.3616" y1="15.4396" x2="57.3616" y2="9.94763" gradientUnits="userSpaceOnUse">
<stop stop-color="#EFEFA9"/>
<stop offset="1" stop-color="#7FE1A6"/>
</linearGradient>
<linearGradient id="paint7_linear" x1="57.3846" y1="20.3091" x2="57.3846" y2="20.3091" gradientUnits="userSpaceOnUse">
<stop stop-color="#EFEFA9"/>
<stop offset="1" stop-color="#7FE1A6"/>
</linearGradient>
<linearGradient id="paint8_linear" x1="62.4504" y1="31.8932" x2="62.4504" y2="31.8932" gradientUnits="userSpaceOnUse">
<stop stop-color="#EFEFA9"/>
<stop offset="1" stop-color="#7FE1A6"/>
</linearGradient>
<linearGradient id="paint9_linear" x1="62.4724" y1="41.9443" x2="62.4724" y2="37.7994" gradientUnits="userSpaceOnUse">
<stop stop-color="#EFEFA9"/>
<stop offset="1" stop-color="#7FE1A6"/>
</linearGradient>
<linearGradient id="paint10_linear" x1="51.9836" y1="38.159" x2="51.9836" y2="32.848" gradientUnits="userSpaceOnUse">
<stop stop-color="#EFEFA9"/>
<stop offset="1" stop-color="#7FE1A6"/>
</linearGradient>
<radialGradient id="paint11_radial" cx="0" cy="0" r="1" gradientUnits="userSpaceOnUse" gradientTransform="translate(173.367 101.487) scale(9.09067 9.0909)">
<stop stop-color="#EFEFA9"/>
<stop offset="1" stop-color="#57CBA1"/>
</radialGradient>
<radialGradient id="paint12_radial" cx="0" cy="0" r="1" gradientUnits="userSpaceOnUse" gradientTransform="translate(75.8109 145.55) scale(15.9443 15.9439)">
<stop stop-color="#EFEFA9"/>
<stop offset="1" stop-color="#57CBA1"/>
</radialGradient>
<radialGradient id="paint13_radial" cx="0" cy="0" r="1" gradientUnits="userSpaceOnUse" gradientTransform="translate(152.595 167.012) scale(9.32735 9.32619)">
<stop stop-color="#EFEFA9"/>
<stop offset="1" stop-color="#57CBA1"/>
</radialGradient>
</defs>
</svg>
