<svg width="230" height="165" viewBox="0 0 230 165" fill="none" xmlns="http://www.w3.org/2000/svg">
<path opacity="0.28" d="M229.252 161.6C229.252 163.238 177.927 164.566 114.626 164.566C51.325 164.566 0 163.239 0 161.6C0 159.961 51.314 158.623 114.626 158.623C177.938 158.623 229.252 159.951 229.252 161.6Z" fill="#610431"/>
<path d="M138.811 53.9L139.187 0H139.906L140.183 53.9H138.811Z" fill="#451533"/>
<path d="M103.83 77.7409C116.029 73.2064 122.242 59.6412 117.708 47.4421C113.174 35.2429 99.6086 29.0294 87.4095 33.5639C75.2104 38.0983 68.9969 51.6635 73.5312 63.8627C78.0656 76.0618 91.6307 82.2753 103.83 77.7409Z" fill="url(#paint0_linear)"/>
<path d="M163.955 84.6689C175.46 78.5911 179.859 64.3374 173.782 52.8325C167.704 41.3276 153.45 36.9281 141.945 43.0059C130.441 49.0838 126.041 63.3374 132.119 74.8424C138.197 86.3473 152.45 90.7468 163.955 84.6689Z" fill="url(#paint1_linear)"/>
<path d="M161.977 44.6502C162.099 46.8642 157.55 48.9112 151.705 49.2432C145.86 49.5752 141.091 48.0862 140.958 45.9232C140.825 43.7602 145.385 41.6732 151.241 41.3412C157.097 41.0092 161.845 42.4582 161.977 44.6502Z" fill="white"/>
<path d="M47.196 62.4602L52.022 81.6972L103.878 98.4332H133.686L186.295 81.6972L192.495 62.4602C192.495 62.4602 167.395 45.9902 119.841 45.9902C72.287 45.9902 47.196 62.4602 47.196 62.4602Z" fill="#451533"/>
<path d="M26.5649 78.1661L32.7649 102.849L99.3199 124.333H137.565L205.083 102.849L213.041 78.1661C213.041 78.1661 180.865 57.0361 119.841 57.0361C58.8169 57.0361 26.5649 78.1661 26.5649 78.1661Z" fill="url(#paint2_linear)"/>
<path d="M44.307 160.051L55.364 150.731H182.387L193.633 160.051H44.307Z" fill="url(#paint3_linear)"/>
<path d="M99.362 124.329V150.729H55.376L36.416 110.495L32.816 102.847L99.362 124.329Z" fill="#451533"/>
<path d="M205.122 102.849L182.384 150.729H137.604V124.329L205.122 102.849Z" fill="#451533"/>
<path d="M113.364 160.051L111.582 135.468H128.096L126.026 160.051H113.364Z" fill="#451533"/>
<path d="M113.364 54.0703L111.582 29.4873H128.096L126.026 54.0703H113.364Z" fill="#451533"/>
<path d="M119.839 37.3006L120.226 2.97656H120.934L121.222 37.3006H119.839Z" fill="#451533"/>
<path d="M135.38 54.4578L135.756 20.1338H136.475L136.752 54.4578H135.38Z" fill="#451533"/>
<path opacity="0.35" d="M209.716 88.6154L209.373 89.7224L208.473 92.4784C208.473 92.4784 182.517 75.4884 118.973 75.4884C55.429 75.4884 29.372 89.1794 29.372 89.1794L28.996 87.6634L28.708 86.5564C28.708 86.5564 59.772 68.5254 118.972 68.5254C178.172 68.5254 209.716 88.6154 209.716 88.6154Z" fill="#314F74"/>
<path d="M209.373 89.6546L208.473 92.4106C208.473 92.4106 182.517 75.4866 118.973 75.4866C55.429 75.4866 29.373 89.1786 29.373 89.1786L29 87.6626C32.221 85.8916 63.091 69.8086 118.976 69.8086C174.6 69.8086 205.876 87.5516 209.373 89.6546Z" fill="#B1FFB8"/>
<path opacity="0.65" d="M32.818 102.849L99.362 124.329V137.777L36.415 110.497L32.818 102.849Z" fill="#314F74"/>
<path opacity="0.65" d="M205.122 102.849L182.384 150.729H175.555L180.447 130.352L137.601 134.281V124.329L205.122 102.849Z" fill="#314F74"/>
<path opacity="0.35" d="M192.494 69.8086L190.767 77.8086C190.767 77.8086 204.437 84.4496 208.477 86.4536L211.41 78.1296C211.41 78.1296 197.187 71.1036 192.494 69.8086Z" fill="#314F74"/>
<path opacity="0.35" d="M187.678 86.4561L134.328 120.315L100.491 122.715H137.601L203.171 101.12L206.571 93.0621C206.571 93.0621 194.375 86.4561 187.678 86.4561Z" fill="#314F74"/>
<path d="M31.368 90.6842L45.879 86.3232L100.491 120.314H94.547L33.737 100.779L31.368 90.6842Z" fill="white"/>
<path d="M29.764 84.8066L28.712 78.2536C28.712 78.2536 39.105 72.6086 47.196 70.3066L47.76 77.5566C41.631 79.6397 35.6218 82.06 29.76 84.8066H29.764Z" fill="white"/>
<path d="M49.266 158.978L56.616 152.093H78.916L73.256 158.978H49.266Z" fill="white"/>
<path d="M75.111 158.978L80.311 152.093H87.196L82.636 158.978H75.111Z" fill="white"/>
<path opacity="0.35" d="M165.11 152.093H181.558L190.203 158.978H129.403L174.12 157.672L165.11 152.093Z" fill="#314F74"/>
<path d="M193.633 160.051H44.307V161.8H193.633V160.051Z" fill="#451533"/>
<path opacity="0.35" d="M119.208 80.9883C98.266 80.9883 81.276 89.3343 81.276 99.6383C81.276 109.942 98.266 118.277 119.208 118.277C140.15 118.277 157.173 109.931 157.173 99.6153C157.173 89.2993 140.161 80.9883 119.208 80.9883ZM119.208 117.788C98.808 117.788 82.283 109.653 82.283 99.6363C82.283 89.6193 98.808 81.4843 119.208 81.4843C139.608 81.4843 156.146 89.6553 156.146 99.6183C156.146 109.581 139.607 117.791 119.208 117.791V117.788Z" fill="#314F74"/>
<path d="M119.208 80.4902C98.266 80.4902 81.276 88.8362 81.276 99.1292C81.276 109.422 98.266 117.77 119.208 117.77C140.15 117.77 157.173 109.424 157.173 99.1312C157.173 88.8382 140.161 80.4902 119.208 80.4902ZM119.208 117.282C98.808 117.282 82.283 109.158 82.283 99.1302C82.283 89.1022 98.808 80.9782 119.208 80.9782C139.608 80.9782 156.146 89.1012 156.146 99.1292C156.146 109.157 139.61 117.329 119.21 117.329L119.208 117.282Z" fill="#B1FFB8"/>
<path d="M136.497 117.327C136.497 118.899 128.55 120.172 118.787 120.172C109.024 120.172 101.077 118.899 101.077 117.327C101.077 115.755 109.035 114.482 118.787 114.482C128.539 114.482 136.497 115.711 136.497 117.327Z" fill="url(#paint4_radial)"/>
<path d="M139.154 5.17969L139.032 21.9797H140.017L139.94 5.17969H139.154Z" fill="#B1FFB8"/>
<path d="M139.032 24.6387H140.017L140.05 27.4277H138.999L139.032 24.6387Z" fill="#B1FFB8"/>
<path d="M136.553 22.0596H135.656V30.0506H136.553V22.0596Z" fill="#B1FFB8"/>
<path d="M99.285 34.7892C99.96 36.8812 96.031 40.0242 90.497 41.8182C84.963 43.6122 79.938 43.3572 79.262 41.2652C78.586 39.1732 82.516 36.0302 88.05 34.2362C93.584 32.4422 98.61 32.6892 99.285 34.7892Z" fill="white"/>
<path d="M40.9871 114.438L58.2871 149.116H67.2081L56.4271 122.716L40.9871 114.438Z" fill="white"/>
<path d="M50.285 66.7553L48.702 62.5713C58.083 57.941 67.9306 54.3233 78.078 51.7793L79.473 59.2723C69.5089 60.7389 59.726 63.2466 50.285 66.7543V66.7553Z" fill="white"/>
<path d="M81.199 58.7412L80.092 51.7792C84.0795 50.6512 88.1508 49.8443 92.267 49.3662L92.82 57.0372C88.9197 57.4056 85.0409 57.9743 81.199 58.7412Z" fill="white"/>
<path d="M113.043 30.04H117.692V45.27H114.25L113.043 30.04Z" fill="white"/>
<path d="M112.39 136.287L114.626 160.051H116.85V136.287H112.39Z" fill="white"/>
<path d="M124.211 131.45L125.411 135.468H114.283L115.678 131.45H124.211Z" fill="#451533"/>
<path d="M114.991 135.468L116.043 131.76H118.81L118.11 135.468H114.991Z" fill="white"/>
<path d="M119.673 95.7539H119.175V131.771H119.673V95.7539Z" fill="#451533"/>
<defs>
<linearGradient id="paint0_linear" x1="77.6644" y1="70.9243" x2="113.575" y2="40.3806" gradientUnits="userSpaceOnUse">
<stop offset="0.03" stop-color="#FCF9DB"/>
<stop offset="0.45" stop-color="#659AAF"/>
<stop offset="0.65" stop-color="#669CB0"/>
<stop offset="0.75" stop-color="#6BA4B1"/>
<stop offset="0.83" stop-color="#74B1B5"/>
<stop offset="0.89" stop-color="#80C4B9"/>
<stop offset="0.95" stop-color="#8FDCBF"/>
<stop offset="1" stop-color="#A0F6C6"/>
</linearGradient>
<linearGradient id="paint1_linear" x1="137.132" y1="81.3064" x2="168.768" y2="46.3686" gradientUnits="userSpaceOnUse">
<stop offset="0.03" stop-color="#FCF9DB"/>
<stop offset="0.45" stop-color="#659AAF"/>
<stop offset="0.65" stop-color="#669CB0"/>
<stop offset="0.75" stop-color="#6BA4B1"/>
<stop offset="0.83" stop-color="#74B1B5"/>
<stop offset="0.89" stop-color="#80C4B9"/>
<stop offset="0.95" stop-color="#8FDCBF"/>
<stop offset="1" stop-color="#A0F6C6"/>
</linearGradient>
<linearGradient id="paint2_linear" x1="38.3129" y1="117.738" x2="76.5904" y2="10.8449" gradientUnits="userSpaceOnUse">
<stop offset="0.03" stop-color="#FCF9DB"/>
<stop offset="0.45" stop-color="#659AAF"/>
<stop offset="0.65" stop-color="#669CB0"/>
<stop offset="0.75" stop-color="#6BA4B1"/>
<stop offset="0.83" stop-color="#74B1B5"/>
<stop offset="0.89" stop-color="#80C4B9"/>
<stop offset="0.95" stop-color="#8FDCBF"/>
<stop offset="1" stop-color="#A0F6C6"/>
</linearGradient>
<linearGradient id="paint3_linear" x1="52.2213" y1="181.711" x2="52.75" y2="132.317" gradientUnits="userSpaceOnUse">
<stop offset="0.03" stop-color="#FCF9DB"/>
<stop offset="0.45" stop-color="#659AAF"/>
<stop offset="0.65" stop-color="#669CB0"/>
<stop offset="0.75" stop-color="#6BA4B1"/>
<stop offset="0.83" stop-color="#74B1B5"/>
<stop offset="0.89" stop-color="#80C4B9"/>
<stop offset="0.95" stop-color="#8FDCBF"/>
<stop offset="1" stop-color="#A0F6C6"/>
</linearGradient>
<radialGradient id="paint4_radial" cx="0" cy="0" r="1" gradientUnits="userSpaceOnUse" gradientTransform="translate(20.8735 58.7823) scale(17.7637 2.8359)">
<stop stop-color="#7CCC7E"/>
<stop offset="0.1" stop-color="#68AA69"/>
<stop offset="0.27" stop-color="#487749"/>
<stop offset="0.43" stop-color="#2E4C2F"/>
<stop offset="0.59" stop-color="#1A2B1B"/>
<stop offset="0.74" stop-color="#0C130C"/>
<stop offset="0.88" stop-color="#030503"/>
<stop offset="1"/>
</radialGradient>
</defs>
</svg>
