<svg xmlns="http://www.w3.org/2000/svg" xmlns:xlink="http://www.w3.org/1999/xlink" width="70.686" height="69.686" viewBox="0 0 70.686 69.686"><defs><linearGradient id="a" x1="0.116" y1="0.644" x2="-0.147" gradientUnits="objectBoundingBox"><stop offset="0" stop-color="#2980b9"/><stop offset="0.153" stop-color="#348dc3"/><stop offset="0.768" stop-color="#6dd5fa"/><stop offset="1" stop-color="#fff"/></linearGradient></defs><g transform="translate(19677 24769)"><path d="M7,0H63.686a7,7,0,0,1,7,7V62.686a7,7,0,0,1-7,7H7a7,7,0,0,1-7-7V7A7,7,0,0,1,7,0Z" transform="translate(-19677 -24769)" opacity="0.6" fill="url(#a)"/><g transform="translate(-19542 -24726.121)"><g transform="translate(-116.29 -31.879)"><path d="M16.334,12.195a2.132,2.132,0,0,0-1.961,3l-5.73,5.976a2.089,2.089,0,0,0-1-.28,2.143,2.143,0,1,0,2.144,2.142A2.077,2.077,0,0,0,9.66,22.4L15.5,16.309a2.117,2.117,0,0,0,.832.173,2.141,2.141,0,0,0,.807-.163l3.238,3.258a2.122,2.122,0,0,0-.139.757,2.144,2.144,0,1,0,4.095-.87l3.83-3.942a2.085,2.085,0,0,0,1.019.294,2.143,2.143,0,1,0-2.144-2.144,2.105,2.105,0,0,0,.121.6L23.2,18.354a2.137,2.137,0,0,0-.815-.165,2.106,2.106,0,0,0-.922.221l-3.181-3.2a2.106,2.106,0,0,0,.195-.872A2.141,2.141,0,0,0,16.334,12.195ZM7.644,23.581a.551.551,0,1,1,.552-.552A.554.554,0,0,1,7.644,23.581Zm8.3-8.851a.542.542,0,0,1-.163-.391.551.551,0,1,1,1.1,0A.572.572,0,0,1,15.944,14.73Zm13.24-1.607a.551.551,0,1,1-.552.55A.55.55,0,0,1,29.184,13.122Zm-6.248,7.21c0,.61-1.107.61-1.107,0a.553.553,0,1,1,1.107,0Z" transform="translate(-1.944 11.138)" fill="#fff"/><path d="M5.266,47.322H35.095a1.558,1.558,0,0,0,1.556-1.556V8.072a1.559,1.559,0,0,0-1.558-1.558H30.134A2.959,2.959,0,0,0,27.17,4.379l-.874,0A6.651,6.651,0,0,0,20.238.121a6.527,6.527,0,0,0-6.167,4.23l-.854.034a2.949,2.949,0,0,0-3,2.162H5.266A1.558,1.558,0,0,0,3.71,8.1V45.769A1.558,1.558,0,0,0,5.266,47.322Zm7.987-41.35,1.432-.056a.794.794,0,0,0,.733-.578,4.948,4.948,0,0,1,4.8-3.628,5.018,5.018,0,0,1,4.732,3.666c.093.36.425.7.793.592l.481,0,.934.006a1.386,1.386,0,0,1,1.518,1.389.72.72,0,0,0,.042.159V9.651H11.685V7.385A1.4,1.4,0,0,1,13.252,5.972ZM10.093,8.136v2.309a.8.8,0,0,0,.795.795h18.62a.8.8,0,0,0,.795-.795V8.1l4.756-.028V45.733L5.3,45.767,5.266,8.136Z" transform="translate(-3.71 -0.121)" fill="#fff"/><path d="M6.112,9.228H17.283a.795.795,0,0,0,0-1.589H6.112a.795.795,0,0,0,0,1.589Z" transform="translate(-2.124 7.297)" fill="#fff"/><path d="M6.112,11.142h9.27a.795.795,0,1,0,0-1.589H6.112a.795.795,0,1,0,0,1.589Z" transform="translate(-2.124 9.186)" fill="#fff"/><path d="M24.823,21.666H12.662a.795.795,0,0,0,0,1.589H24.823a.795.795,0,1,0,0-1.589Z" transform="translate(4.339 21.139)" fill="#fff"/><path d="M18.283,20.29a.795.795,0,0,0,0,1.589h.993a.795.795,0,0,0,0-1.589Z" transform="translate(9.885 19.781)" fill="#fff"/><path d="M16.567,21.879a.795.795,0,1,0,0-1.589h-1.13a.795.795,0,1,0,0,1.589Z" transform="translate(7.077 19.781)" fill="#fff"/><path d="M12.662,21.879h.993a.795.795,0,0,0,0-1.589h-.993a.795.795,0,0,0,0,1.589Z" transform="translate(4.339 19.781)" fill="#fff"/></g></g></g></svg>