<svg xmlns="http://www.w3.org/2000/svg" xmlns:xlink="http://www.w3.org/1999/xlink" width="70.686" height="69.686" viewBox="0 0 70.686 69.686"><defs><linearGradient id="a" x1="0.116" y1="0.644" x2="-0.147" gradientUnits="objectBoundingBox"><stop offset="0" stop-color="#2980b9"/><stop offset="0.153" stop-color="#348dc3"/><stop offset="0.768" stop-color="#6dd5fa"/><stop offset="1" stop-color="#fff"/></linearGradient></defs><g transform="translate(19569 24769)"><path d="M7,0H63.686a7,7,0,0,1,7,7V62.686a7,7,0,0,1-7,7H7a7,7,0,0,1-7-7V7A7,7,0,0,1,7,0Z" transform="translate(-19569 -24769)" opacity="0.6" fill="url(#a)"/><g transform="translate(-19555 -24688.994)"><g transform="translate(0 -1088.362)"><path d="M30.938,2.994a.742.742,0,0,0-.093.014H12.4A2.977,2.977,0,0,0,9.435,5.976V7.46H7.971A2.977,2.977,0,0,0,5,10.427V40.1A2.978,2.978,0,0,0,7.971,43.07H30.228A2.977,2.977,0,0,0,33.2,40.1V38.619h1.463a2.977,2.977,0,0,0,2.968-2.968V9.8a.742.742,0,0,0-.281-.7L31.52,3.264A.742.742,0,0,0,30.938,2.994ZM12.4,4.487h17.8V7.454a2.978,2.978,0,0,0,2.967,2.968h2.968V35.645a1.464,1.464,0,0,1-1.484,1.484H33.2V14.244a.742.742,0,0,0-.281-.7L27.1,7.727l-.009-.014a.65.65,0,0,0-.675-.255h-15.5V5.973A1.464,1.464,0,0,1,12.4,4.49ZM31.691,5.536l3.4,3.4H33.175a1.465,1.465,0,0,1-1.484-1.484Zm-23.72,3.4h17.8v2.968a2.977,2.977,0,0,0,2.968,2.968h2.968V40.1a1.465,1.465,0,0,1-1.484,1.484H7.971A1.465,1.465,0,0,1,6.488,40.1V10.422A1.464,1.464,0,0,1,7.971,8.938ZM27.26,9.987l3.4,3.4H28.744a1.465,1.465,0,0,1-1.484-1.484ZM10.2,13.389a.742.742,0,0,0-.742.742v4.451a.742.742,0,0,0,.742.742h4.451a.742.742,0,0,0,.742-.742V14.131a.742.742,0,0,0-.742-.742Zm7.427,0a.742.742,0,1,0,0,1.484H23.56a.742.742,0,1,0,0-1.484Zm-6.686,1.484h2.967V17.84H10.939Zm6.686,1.484a.742.742,0,1,0,0,1.484H27.979a.742.742,0,1,0,0-1.484ZM10.2,22.292a.742.742,0,0,0-.742.742v4.451a.742.742,0,0,0,.742.742h4.451a.742.742,0,0,0,.742-.742V23.033a.742.742,0,0,0-.742-.742Zm7.427,0a.742.742,0,1,0,0,1.484H23.56a.742.742,0,1,0,0-1.484Zm-6.686,1.484h2.967v2.968H10.939Zm6.686,1.484a.742.742,0,1,0,0,1.484H27.979a.742.742,0,1,0,0-1.484ZM10.2,31.194a.742.742,0,0,0-.742.742v4.451a.742.742,0,0,0,.742.742h4.451a.742.742,0,0,0,.742-.742V31.936a.742.742,0,0,0-.742-.742Zm7.427,0a.742.742,0,1,0,0,1.484H23.56a.742.742,0,1,0,0-1.484Zm-6.686,1.484h2.967v2.967H10.939Zm6.686,1.484a.742.742,0,1,0,0,1.484H27.979a.742.742,0,1,0,0-1.484Z" transform="translate(0 1020.362)" fill="#fff"/></g></g></g></svg>