<svg xmlns="http://www.w3.org/2000/svg" xmlns:xlink="http://www.w3.org/1999/xlink" width="70.686" height="69.686" viewBox="0 0 70.686 69.686"><defs><linearGradient id="a" x1="0.116" y1="0.644" x2="-0.147" gradientUnits="objectBoundingBox"><stop offset="0" stop-color="#2980b9"/><stop offset="0.153" stop-color="#348dc3"/><stop offset="0.768" stop-color="#6dd5fa"/><stop offset="1" stop-color="#fff"/></linearGradient></defs><g transform="translate(19784 24563)"><path d="M7,0H63.686a7,7,0,0,1,7,7V62.686a7,7,0,0,1-7,7H7a7,7,0,0,1-7-7V7A7,7,0,0,1,7,0Z" transform="translate(-19784 -24563)" opacity="0.6" fill="url(#a)"/><g transform="translate(-19700 -24484.529)"><g transform="translate(-67.441 -61.47)"><path d="M26.838,33.492a4.19,4.19,0,0,1,.751-1.019l3.586-3.587a4.242,4.242,0,0,1,5.858-.126l5.6,4.1a2.3,2.3,0,0,1,.238.2,4.244,4.244,0,0,1,0,5.992L39.424,42.5c-1.2,1.2-4.5,1.331-5.864,1.331a25.156,25.156,0,0,1-17.821-7.425c-5.586-5.584-7.14-11.158-7.46-14.849-.375-4.313.771-7.566,1.7-8.5l3.29-3.29a4.245,4.245,0,0,1,6,.01,2.191,2.191,0,0,1,.158.182L23.7,15.424a4.244,4.244,0,0,1-.1,5.886L20.01,24.9c-.317.317-.879.782-1.318,1.134A15.77,15.77,0,0,0,26.838,33.492Zm-9.993-6.681a.98.98,0,0,1-.292-.359l-1.981-4.328a1,1,0,0,1,1.825-.835l1.341,2.93c.334-.273.668-.557.853-.743l3.586-3.586a2.236,2.236,0,0,0,.036-3.117c-.024-.025-.046-.051-.067-.077l-4.3-5.508a2.238,2.238,0,0,0-3.156,0l-3.29,3.29c-.336.336-1.469,2.915-1.123,6.906.291,3.36,1.722,8.446,6.88,13.6A23.156,23.156,0,0,0,30.5,41.618a22.9,22.9,0,0,0,3.055.206c2.8,0,4.2-.5,4.445-.743l3.442-3.443a2.235,2.235,0,0,0-.009-3.162L35.8,30.343a1.067,1.067,0,0,1-.1-.081,2.234,2.234,0,0,0-3.108.042l-3.584,3.588a2.363,2.363,0,0,0-.165.191l2.882.768a1,1,0,0,1-.258,1.974,1.015,1.015,0,0,1-.259-.033l-4.03-1.074h0A17.613,17.613,0,0,1,16.844,26.811Z" transform="translate(-8.205 -8.53)" fill="#fff"/><path d="M7.631,9.063a14.565,14.565,0,0,1,13.579,13.6,1,1,0,0,1-.935,1.068l-.068,0a1,1,0,0,1-1-.937A12.558,12.558,0,0,0,7.5,11.067a1,1,0,1,1,.135-2Z" transform="translate(15.454 -8.814)" fill="#fff"/><path d="M19.309,20.739a9.139,9.139,0,0,1,8.521,8.528,1,1,0,0,1-.935,1.069l-.068,0a1,1,0,0,1-1-.937,7.13,7.13,0,0,0-6.653-6.659,1,1,0,0,1,.136-2Z" transform="translate(3.406 -15.064)" fill="#fff"/><path d="M29.842,31.268A4.216,4.216,0,0,1,33.8,35.232a1,1,0,0,1-.936,1.067l-.066,0a1,1,0,0,1-1-.939A2.21,2.21,0,0,0,29.7,33.27a1,1,0,1,1,.14-2Z" transform="translate(-7.457 -20.699)" fill="#fff"/></g></g></g></svg>