<svg xmlns="http://www.w3.org/2000/svg" xmlns:xlink="http://www.w3.org/1999/xlink" width="70.686" height="69.686" viewBox="0 0 70.686 69.686"><defs><linearGradient id="a" x1="0.116" y1="0.644" x2="-0.147" gradientUnits="objectBoundingBox"><stop offset="0" stop-color="#2980b9"/><stop offset="0.153" stop-color="#348dc3"/><stop offset="0.768" stop-color="#6dd5fa"/><stop offset="1" stop-color="#fff"/></linearGradient></defs><g transform="translate(888 -4521)"><g transform="translate(18896 29084)"><path d="M7,0H63.686a7,7,0,0,1,7,7V62.686a7,7,0,0,1-7,7H7a7,7,0,0,1-7-7V7A7,7,0,0,1,7,0Z" transform="translate(-19784 -24563)" opacity="0.6" fill="url(#a)"/><g transform="translate(-19769 -24548)"><path d="M31.18,12.259a3.58,3.58,0,1,0,0-7.159A3.539,3.539,0,0,0,27.6,8.68,3.578,3.578,0,0,0,31.18,12.259Zm0-5.84a2.324,2.324,0,1,1,0,4.647,2.28,2.28,0,0,1-2.324-2.324A2.318,2.318,0,0,1,31.18,6.419Z" transform="translate(-10.896 -2.525)" fill="#fff"/><path d="M13.68,40.2a3.58,3.58,0,0,0,0,7.159,3.539,3.539,0,0,0,3.58-3.58A3.661,3.661,0,0,0,13.68,40.2Zm0,5.9a2.324,2.324,0,0,1,0-4.647A2.28,2.28,0,0,1,16,43.78,2.4,2.4,0,0,1,13.68,46.1Z" transform="translate(-4.385 -15.583)" fill="#fff"/><path d="M32.085,23.042a9.048,9.048,0,0,0-6.845,3.14L21.724,22.6V19.149a9.106,9.106,0,1,0-1.256,0V22.6L16.951,26.12a9.164,9.164,0,0,0-6.845-3.14,9.106,9.106,0,1,0,9.106,9.106A9.054,9.054,0,0,0,17.7,27.124L21.1,23.733l3.391,3.391a9.109,9.109,0,1,0,7.6-4.082ZM5.333,38.3a4.966,4.966,0,0,1,4.773-3.894A4.849,4.849,0,0,1,14.878,38.3a7.7,7.7,0,0,1-4.773,1.633A7.575,7.575,0,0,1,5.333,38.3Zm10.55-.942a6.115,6.115,0,0,0-5.84-4.145A6.236,6.236,0,0,0,4.2,37.361a8.391,8.391,0,0,1-1.947-5.275,7.85,7.85,0,1,1,13.627,5.275ZM21.1,17.893a7.7,7.7,0,0,1-4.773-1.633A4.966,4.966,0,0,1,21.1,12.367a4.849,4.849,0,0,1,4.773,3.894A7.7,7.7,0,0,1,21.1,17.893Zm-7.85-7.787a7.85,7.85,0,1,1,13.69,5.212,6.115,6.115,0,0,0-5.84-4.145,6.236,6.236,0,0,0-5.84,4.145A7.944,7.944,0,0,1,13.246,10.106ZM27.313,38.3a4.966,4.966,0,0,1,4.773-3.894A4.849,4.849,0,0,1,36.858,38.3a7.575,7.575,0,0,1-4.773,1.633A7.837,7.837,0,0,1,27.313,38.3Zm10.613-.942a6.115,6.115,0,0,0-5.84-4.145,6.236,6.236,0,0,0-5.84,4.145,7.636,7.636,0,0,1-2.01-5.212,7.85,7.85,0,1,1,15.7,0A8.07,8.07,0,0,1,37.926,37.361Z" transform="translate(-1 -1)" fill="#fff"/><path d="M48.68,40.2a3.58,3.58,0,1,0,3.58,3.58A3.619,3.619,0,0,0,48.68,40.2Zm0,5.9A2.324,2.324,0,1,1,51,43.78,2.359,2.359,0,0,1,48.68,46.1Z" transform="translate(-17.406 -15.583)" fill="#fff"/></g></g></g></svg>