<svg xmlns="http://www.w3.org/2000/svg" xmlns:xlink="http://www.w3.org/1999/xlink" width="70.686" height="69.686" viewBox="0 0 70.686 69.686"><defs><linearGradient id="a" x1="0.116" y1="0.644" x2="-0.147" gradientUnits="objectBoundingBox"><stop offset="0" stop-color="#2980b9"/><stop offset="0.153" stop-color="#348dc3"/><stop offset="0.768" stop-color="#6dd5fa"/><stop offset="1" stop-color="#fff"/></linearGradient></defs><g transform="translate(-3061 -4036)"><g transform="translate(22738 28697)"><path d="M7,0H63.686a7,7,0,0,1,7,7V62.686a7,7,0,0,1-7,7H7a7,7,0,0,1-7-7V7A7,7,0,0,1,7,0Z" transform="translate(-19677 -24661)" opacity="0.6" fill="url(#a)"/></g><g transform="translate(3077 4052)"><g transform="translate(0 0)"><path d="M36.033,1.9H34.769V.632a.632.632,0,0,0-1.264,0V1.9H29.712V.632a.632.632,0,0,0-1.264,0V1.9H24.654V.632a.632.632,0,1,0-1.264,0V1.9H19.6V.632a.632.632,0,0,0-1.264,0V1.9H14.54V.632a.632.632,0,0,0-1.264,0V1.9H9.482V.632a.632.632,0,1,0-1.264,0V1.9H4.425V.632a.632.632,0,1,0-1.264,0V1.9H1.9A1.9,1.9,0,0,0,0,3.793v32.24a1.9,1.9,0,0,0,1.9,1.9H36.033a1.9,1.9,0,0,0,1.9-1.9V3.793A1.9,1.9,0,0,0,36.033,1.9Zm.632,34.137a.632.632,0,0,1-.632.632H1.9a.632.632,0,0,1-.632-.632V8.85H31.608a.632.632,0,1,0,0-1.264H1.264V3.793A.632.632,0,0,1,1.9,3.161H36.033a.632.632,0,0,1,.632.632Z" transform="translate(0 0)" fill="#fff"/><path d="M5.181,7.188a.635.635,0,1,0,.9,0A.662.662,0,0,0,5.181,7.188Z" transform="translate(-1.837 -2.579)" fill="#fff"/><path d="M13.183,7.189a.632.632,0,1,0,.9,0A.665.665,0,0,0,13.183,7.189Z" transform="translate(-4.782 -2.58)" fill="#fff"/><path d="M21.183,7.189a.632.632,0,1,0,.9,0A.665.665,0,0,0,21.183,7.189Z" transform="translate(-7.725 -2.58)" fill="#fff"/><path d="M29.183,7.189a.632.632,0,1,0,.9,0A.665.665,0,0,0,29.183,7.189Z" transform="translate(-10.667 -2.58)" fill="#fff"/><path d="M37.183,7.189a.632.632,0,1,0,.9,0A.665.665,0,0,0,37.183,7.189Z" transform="translate(-13.61 -2.58)" fill="#fff"/><path d="M45.183,7.189a.632.632,0,1,0,.9,0A.665.665,0,0,0,45.183,7.189Z" transform="translate(-16.553 -2.58)" fill="#fff"/><path d="M53.183,7.189a.632.632,0,1,0,.9,0A.665.665,0,0,0,53.183,7.189Z" transform="translate(-19.495 -2.58)" fill="#fff"/><path d="M35.08,19H7.264A1.264,1.264,0,0,0,6,20.264V39.229a1.264,1.264,0,0,0,1.264,1.264H35.08a1.264,1.264,0,0,0,1.264-1.264V20.264A1.264,1.264,0,0,0,35.08,19ZM27.494,29.115H21.8V25.322h5.689Zm1.264-3.793H35.08v3.793H28.758ZM21.8,24.057V20.264h5.689v3.793Zm-1.264,0H14.85V20.264H20.54Zm0,1.264v3.793H14.85V25.322Zm-6.954,3.793H7.264V25.322h6.322ZM7.264,30.379h6.322v3.793H7.264Zm7.586,0H20.54v3.793H14.85Zm5.689,5.057v3.793H14.85V35.436Zm1.264,0h5.689v3.793H21.8Zm0-1.264V30.379h5.689v3.793Zm6.954-3.793H35.08v3.793H28.758Zm6.322-6.322H28.758V20.264H35.08ZM13.586,20.264v3.793H7.264V20.264ZM7.264,35.436h6.322v3.793H7.264Zm21.494,3.793V35.436H35.08v3.793Z" transform="translate(-2.207 -6.989)" fill="#fff"/></g></g></g></svg>