<svg xmlns="http://www.w3.org/2000/svg" xmlns:xlink="http://www.w3.org/1999/xlink" width="70.686" height="69.686" viewBox="0 0 70.686 69.686"><defs><linearGradient id="a" x1="0.116" y1="0.644" x2="-0.147" gradientUnits="objectBoundingBox"><stop offset="0" stop-color="#2980b9"/><stop offset="0.153" stop-color="#348dc3"/><stop offset="0.768" stop-color="#6dd5fa"/><stop offset="1" stop-color="#fff"/></linearGradient></defs><g transform="translate(19624 24877)"><path d="M7,0H63.686a7,7,0,0,1,7,7V62.686a7,7,0,0,1-7,7H7a7,7,0,0,1-7-7V7A7,7,0,0,1,7,0Z" transform="translate(-19624 -24877)" opacity="0.6" fill="url(#a)"/><g transform="translate(-19614 -24868.6)"><g transform="translate(0.9 12.6)"><path d="M1.729,46.248H48.438a.684.684,0,0,0,.527-.226.814.814,0,0,0,.226-.527,8.412,8.412,0,0,0-5.123-7.534,5.38,5.38,0,0,0,.678-2.486,3.993,3.993,0,0,0-7.986,0,4.94,4.94,0,0,0,.678,2.486,9.606,9.606,0,0,0-1.883,1.13,12.421,12.421,0,0,0-6.1-4.972,8.2,8.2,0,0,0,1.205-4.068,5.65,5.65,0,0,0-11.3,0,8.2,8.2,0,0,0,1.205,4.068,12.421,12.421,0,0,0-6.1,4.972,9.606,9.606,0,0,0-1.883-1.13,5.379,5.379,0,0,0,.678-2.486,4,4,0,0,0-3.918-3.993,4.07,4.07,0,0,0-3.993,3.993,4.94,4.94,0,0,0,.678,2.486A8.329,8.329,0,0,0,.9,45.495a.684.684,0,0,0,.226.527A.855.855,0,0,0,1.729,46.248Zm39.1-13.259a2.508,2.508,0,0,1,2.486,2.486c0,1.356-1.13,3.315-2.486,3.315-1.281,0-2.486-1.959-2.486-3.315A2.508,2.508,0,0,1,40.829,32.988Zm-2.335,6.253a3.113,3.113,0,0,0,4.671,0,6.819,6.819,0,0,1,4.445,5.5h-10.1a13.376,13.376,0,0,0-1.13-4.294A5.333,5.333,0,0,1,38.493,39.242ZM25.083,25.907a4.132,4.132,0,0,1,4.144,4.144,6.915,6.915,0,0,1-1.507,3.993,3.6,3.6,0,0,1-2.637,1.507,3.56,3.56,0,0,1-2.637-1.507A6.915,6.915,0,0,1,20.94,30.05,4.132,4.132,0,0,1,25.083,25.907ZM21.618,35.4a4.843,4.843,0,0,0,3.466,1.733A4.843,4.843,0,0,0,28.549,35.4a11.027,11.027,0,0,1,6.178,5.123h0a11.468,11.468,0,0,1,1.281,4.219H14.159A10.682,10.682,0,0,1,15.44,40.6h0A10.59,10.59,0,0,1,21.618,35.4Zm-12.2-2.411A2.508,2.508,0,0,1,11.9,35.475c0,1.356-1.13,3.315-2.486,3.315-1.281,0-2.486-1.959-2.486-3.315A2.508,2.508,0,0,1,9.413,32.988ZM7,39.242A3.377,3.377,0,0,0,9.338,40.3a3.377,3.377,0,0,0,2.335-1.055,8.465,8.465,0,0,1,2.109,1.205,12.089,12.089,0,0,0-1.13,4.294H2.557A6.74,6.74,0,0,1,7,39.242Z" transform="translate(-0.9 -15.51)" fill="#fff"/><path d="M44.553,31.407h4.068a.753.753,0,0,0,0-1.507H44.553a.712.712,0,0,0-.753.753A.755.755,0,0,0,44.553,31.407Z" transform="translate(-11.48 -16.867)" fill="#fff"/><path d="M15.353,29.9a.753.753,0,0,0,0,1.507h4.068a.753.753,0,1,0,0-1.507Z" transform="translate(-4.279 -16.867)" fill="#fff"/><path d="M44.318,18.226a.728.728,0,0,0-1.055,0l-2.637,2.637a.746.746,0,1,0,1.055,1.055l2.637-2.637A.728.728,0,0,0,44.318,18.226Z" transform="translate(-10.642 -13.932)" fill="#fff"/><path d="M23.918,21.918a.728.728,0,0,0,0-1.055l-2.637-2.637a.746.746,0,1,0-1.055,1.055l2.637,2.637A.728.728,0,0,0,23.918,21.918Z" transform="translate(-5.611 -13.932)" fill="#fff"/><path d="M31.9,13.353v4.068a.753.753,0,0,0,1.507,0V13.353a.712.712,0,0,0-.753-.753A.755.755,0,0,0,31.9,13.353Z" transform="translate(-8.545 -12.6)" fill="#fff"/></g></g></g></svg>