<svg xmlns="http://www.w3.org/2000/svg" xmlns:xlink="http://www.w3.org/1999/xlink" width="70.686" height="69.686" viewBox="0 0 70.686 69.686"><defs><linearGradient id="a" x1="0.116" y1="0.644" x2="-0.147" gradientUnits="objectBoundingBox"><stop offset="0" stop-color="#2980b9"/><stop offset="0.153" stop-color="#348dc3"/><stop offset="0.768" stop-color="#6dd5fa"/><stop offset="1" stop-color="#fff"/></linearGradient></defs><g transform="translate(19789 24769)"><path d="M7,0H63.686a7,7,0,0,1,7,7V62.686a7,7,0,0,1-7,7H7a7,7,0,0,1-7-7V7A7,7,0,0,1,7,0Z" transform="translate(-19789 -24769)" opacity="0.6" fill="url(#a)"/><g transform="translate(-19775 -24755.996)"><g transform="translate(1 0.996)"><path d="M21.89,7.366A6.368,6.368,0,1,1,15.521,1,6.363,6.363,0,0,1,21.89,7.366Z" transform="translate(-1.906 -0.996)" fill="none" stroke="#fff" stroke-linecap="round" stroke-miterlimit="10" stroke-width="2"/><path d="M22.312,21.9a14.93,14.93,0,0,0-7.7-2.087C7.1,19.809,1,25.147,1,31.737H16.9" transform="translate(-1 -3.088)" fill="none" stroke="#fff" stroke-linecap="round" stroke-miterlimit="10" stroke-width="2"/><g transform="translate(16.328 16.335)"><g transform="translate(8.646 4.958)"><path d="M36.336,34.037a2.844,2.844,0,0,1-.092,1.219,2.627,2.627,0,0,1-.588,1.01,3.491,3.491,0,0,1-1.036.757,5.347,5.347,0,0,1-1.443.463l.052,1.793a.408.408,0,0,1-.015.1.168.168,0,0,1-.068.083.516.516,0,0,1-.154.066,1.9,1.9,0,0,1-.263.051,1.953,1.953,0,0,1-.3.02.924.924,0,0,1-.183-.028.139.139,0,0,1-.094-.071.181.181,0,0,1-.02-.116l-.041-1.787a7.25,7.25,0,0,1-.745-.031,5.613,5.613,0,0,1-.614-.091,2.923,2.923,0,0,1-.468-.13,1.154,1.154,0,0,1-.3-.148.442.442,0,0,1-.148-.209,1.856,1.856,0,0,1-.083-.379,2.271,2.271,0,0,1-.022-.3,1.11,1.11,0,0,1,.022-.2.224.224,0,0,1,.073-.116.251.251,0,0,1,.124-.045.649.649,0,0,1,.316.08,4.993,4.993,0,0,0,.551.192,5.106,5.106,0,0,0,.822.163,4.356,4.356,0,0,0,1.132-.024,2.847,2.847,0,0,0,1.7-.684,1.481,1.481,0,0,0,.436-1.317,1.4,1.4,0,0,0-.322-.774,2.056,2.056,0,0,0-.658-.478,4.081,4.081,0,0,0-.875-.292c-.319-.072-.647-.145-.98-.216a9.922,9.922,0,0,1-.988-.271,3.465,3.465,0,0,1-.893-.437,2.564,2.564,0,0,1-.682-.723,2.727,2.727,0,0,1-.37-1.125,2.755,2.755,0,0,1,.055-1.043,2.293,2.293,0,0,1,.455-.9,2.946,2.946,0,0,1,.87-.7,4.4,4.4,0,0,1,1.294-.444l-.052-1.669a.31.31,0,0,1,.017-.1.191.191,0,0,1,.066-.087.446.446,0,0,1,.148-.066,2.892,2.892,0,0,1,.571-.069.5.5,0,0,1,.188.031.176.176,0,0,1,.087.075.316.316,0,0,1,.031.111l.034,1.655a4.193,4.193,0,0,1,.521.019c.18.019.352.042.514.073a3.312,3.312,0,0,1,.443.117,1.125,1.125,0,0,1,.278.128.429.429,0,0,1,.114.106.571.571,0,0,1,.061.128,1.462,1.462,0,0,1,.052.167,1.509,1.509,0,0,1,.042.218,2.588,2.588,0,0,1,.022.272.679.679,0,0,1-.013.183.19.19,0,0,1-.054.1.141.141,0,0,1-.092.047.736.736,0,0,1-.3-.069,5.114,5.114,0,0,0-.523-.164,6.181,6.181,0,0,0-.721-.138,3.373,3.373,0,0,0-.886.007,3.59,3.59,0,0,0-.92.228,1.712,1.712,0,0,0-.588.379,1.162,1.162,0,0,0-.292.506,1.576,1.576,0,0,0-.035.6,1.427,1.427,0,0,0,.332.787A1.959,1.959,0,0,0,31.5,31a3.922,3.922,0,0,0,.877.283l.993.214q.509.115,1,.265a3.226,3.226,0,0,1,.9.431,2.458,2.458,0,0,1,.691.718A2.656,2.656,0,0,1,36.336,34.037Z" transform="translate(-29.097 -24.952)" fill="#fff"/></g><path d="M42.715,29.569h-.856a10.4,10.4,0,0,0-1.519-3.66l.608-.609a1.217,1.217,0,0,0,0-1.714l-1.234-1.233a1.221,1.221,0,0,0-1.714,0l-.61.609a10.4,10.4,0,0,0-3.66-1.521v-.854a1.215,1.215,0,0,0-1.212-1.213H30.776a1.215,1.215,0,0,0-1.21,1.213v.854A10.378,10.378,0,0,0,25.9,22.962l-.608-.609a1.222,1.222,0,0,0-1.715,0l-1.233,1.233a1.221,1.221,0,0,0,0,1.714l.61.609a10.4,10.4,0,0,0-1.522,3.66h-.855a1.216,1.216,0,0,0-1.211,1.213v1.742a1.217,1.217,0,0,0,1.211,1.214h.856A10.392,10.392,0,0,0,22.958,37.4l-.61.608a1.221,1.221,0,0,0,0,1.714l1.233,1.234a1.221,1.221,0,0,0,1.715,0l.607-.609a10.377,10.377,0,0,0,3.663,1.52v.855a1.215,1.215,0,0,0,1.21,1.213h1.742a1.215,1.215,0,0,0,1.212-1.213v-.855a10.361,10.361,0,0,0,3.66-1.52l.61.609a1.217,1.217,0,0,0,1.714,0l1.234-1.232a1.219,1.219,0,0,0,0-1.715L40.34,37.4a10.406,10.406,0,0,0,1.519-3.659h.856a1.218,1.218,0,0,0,1.213-1.214V30.782A1.217,1.217,0,0,0,42.715,29.569Z" transform="translate(-19.37 -19.374)" fill="none" stroke="#fff" stroke-miterlimit="10" stroke-width="2"/></g></g></g></g></svg>