<svg xmlns="http://www.w3.org/2000/svg" xmlns:xlink="http://www.w3.org/1999/xlink" width="70.686" height="69.686" viewBox="0 0 70.686 69.686"><defs><linearGradient id="a" x1="0.116" y1="0.644" x2="-0.147" gradientUnits="objectBoundingBox"><stop offset="0" stop-color="#2980b9"/><stop offset="0.153" stop-color="#348dc3"/><stop offset="0.768" stop-color="#6dd5fa"/><stop offset="1" stop-color="#fff"/></linearGradient></defs><g transform="translate(765 -4544)"><path d="M7,0H63.686a7,7,0,0,1,7,7V62.686a7,7,0,0,1-7,7H7a7,7,0,0,1-7-7V7A7,7,0,0,1,7,0Z" transform="translate(-765 4544)" opacity="0.6" fill="url(#a)"/><g transform="translate(-681 4523)"><g transform="translate(-71 38)"><path d="M10.634,15A3.638,3.638,0,0,0,7,18.634V47.71a3.638,3.638,0,0,0,3.634,3.634H48.017a3.638,3.638,0,0,0,3.634-3.634V18.634A3.638,3.638,0,0,0,48.017,15H13.75a.519.519,0,1,0,0,1.038H48.017a2.579,2.579,0,0,1,2.6,2.6V47.71a2.579,2.579,0,0,1-2.6,2.6H10.634a2.579,2.579,0,0,1-2.6-2.6V18.634a2.579,2.579,0,0,1,2.6-2.6.519.519,0,1,0,0-1.038Zm4.673,4.154a3.634,3.634,0,1,0,3.634,3.634A3.642,3.642,0,0,0,15.307,19.154Zm6.133,0a.521.521,0,1,0,.1,1.038H43.344a2.6,2.6,0,1,1,0,5.192H21.538a.519.519,0,1,0,0,1.038H43.344a3.634,3.634,0,1,0,0-7.269H21.538a.519.519,0,0,0-.1,0Zm-6.133,1.038a2.6,2.6,0,1,1-2.6,2.6A2.588,2.588,0,0,1,15.307,20.192Zm0,9.346a3.634,3.634,0,1,0,0,7.269H37.114a.519.519,0,1,0,0-1.038H15.307a2.6,2.6,0,1,1,0-5.192H37.114a.519.519,0,1,0,0-1.038Zm28.037,0a3.634,3.634,0,1,0,3.634,3.634A3.642,3.642,0,0,0,43.344,29.538Zm0,1.038a2.6,2.6,0,1,1-2.6,2.6A2.588,2.588,0,0,1,43.344,30.576ZM15.307,39.922a3.634,3.634,0,1,0,3.634,3.634A3.642,3.642,0,0,0,15.307,39.922Zm6.133,0a.521.521,0,0,0,.1,1.038H43.344a2.6,2.6,0,1,1,0,5.192H21.538a.519.519,0,1,0,0,1.038H43.344a3.634,3.634,0,0,0,0-7.269H21.538A.519.519,0,0,0,21.44,39.922ZM15.307,40.96a2.6,2.6,0,1,1-2.6,2.6A2.588,2.588,0,0,1,15.307,40.96Z" transform="translate(-7 -15)" fill="#fff"/></g></g></g></svg>