<svg xmlns="http://www.w3.org/2000/svg" xmlns:xlink="http://www.w3.org/1999/xlink" width="70.686" height="69.686" viewBox="0 0 70.686 69.686"><defs><linearGradient id="a" x1="0.116" y1="0.644" x2="-0.147" gradientUnits="objectBoundingBox"><stop offset="0" stop-color="#2980b9"/><stop offset="0.153" stop-color="#348dc3"/><stop offset="0.768" stop-color="#6dd5fa"/><stop offset="1" stop-color="#fff"/></linearGradient></defs><g transform="translate(19677 24661)"><path d="M7,0H63.686a7,7,0,0,1,7,7V62.686a7,7,0,0,1-7,7H7a7,7,0,0,1-7-7V7A7,7,0,0,1,7,0Z" transform="translate(-19677 -24661)" opacity="0.6" fill="url(#a)"/><g transform="translate(-19677 -24715.619)"><path d="M43.65,13.043A3.423,3.423,0,0,0,40.228,9.62H13.7a3.423,3.423,0,0,0-3.423,3.423V13.9H9.423A3.423,3.423,0,0,0,6,17.321v15.83a3.423,3.423,0,0,0,3.423,3.423h1.711v6.743a.856.856,0,0,0,1.395.667l9.177-7.41H33.258L37.134,39.7a.856.856,0,0,0,1.382-.663V32.3h1.711a3.423,3.423,0,0,0,3.423-3.423ZM21.4,34.863a.856.856,0,0,0-.539.188l-8.018,6.478v-5.81a.856.856,0,0,0-.856-.856H9.423a1.711,1.711,0,0,1-1.711-1.711V17.321A1.711,1.711,0,0,1,9.423,15.61h.856V28.873A3.423,3.423,0,0,0,13.7,32.3H27.944l3.179,2.567Zm20.537-5.99a1.711,1.711,0,0,1-1.711,1.711H37.661a.856.856,0,0,0-.856.856v5.81l-8.018-6.473a.856.856,0,0,0-.539-.193H13.7a1.711,1.711,0,0,1-1.711-1.711V13.043A1.711,1.711,0,0,1,13.7,11.331H40.228a1.711,1.711,0,0,1,1.711,1.711Z" transform="translate(10 63)" fill="#fff"/></g></g></svg>