<svg xmlns="http://www.w3.org/2000/svg" xmlns:xlink="http://www.w3.org/1999/xlink" width="133" height="131" viewBox="0 0 133 131">
  <defs>
    <linearGradient id="linear-gradient" x1="-0.198" y1="1.156" x2="1.691" y2="-0.312" gradientUnits="objectBoundingBox">
      <stop offset="0" stop-color="#502eff"/>
      <stop offset="1" stop-color="#d1c7ff"/>
    </linearGradient>
  </defs>
  <g id="Group_1486" data-name="Group 1486" transform="translate(51 -18764)">
    <rect id="Rectangle_2201" data-name="Rectangle 2201" width="133" height="131" rx="15" transform="translate(-51 18764)" fill="url(#linear-gradient)"/>
    <g id="Group_1485" data-name="Group 1485" transform="translate(-24.518 18793.008)">
      <path id="Path_7062" data-name="Path 7062" d="M13.844,15A6.851,6.851,0,0,0,7,21.847V76.6a6.851,6.851,0,0,0,6.844,6.844h70.4A6.851,6.851,0,0,0,91.087,76.6V21.847A6.851,6.851,0,0,0,84.243,15H19.712a.977.977,0,0,0,0,1.955H84.243a4.857,4.857,0,0,1,4.9,4.9V76.6a4.857,4.857,0,0,1-4.9,4.9h-70.4a4.857,4.857,0,0,1-4.9-4.9V21.847a4.857,4.857,0,0,1,4.9-4.9.977.977,0,1,0,0-1.955Zm8.8,7.823a6.844,6.844,0,1,0,6.844,6.844A6.844,6.844,0,0,0,22.644,22.826Zm11.55,0a.982.982,0,1,0,.188,1.955H75.443a4.9,4.9,0,1,1,0,9.778H34.378a.977.977,0,0,0,0,1.955H75.443a6.845,6.845,0,0,0,0-13.689H34.378a.977.977,0,0,0-.188,0Zm-11.55,1.955a4.874,4.874,0,1,1-3.469,1.427,4.9,4.9,0,0,1,3.469-1.427Zm0,17.6a6.845,6.845,0,1,0,0,13.689H63.711a.977.977,0,0,0,0-1.955H22.644a4.9,4.9,0,1,1,0-9.778H63.711a.977.977,0,1,0,0-1.955Zm52.8,0a6.844,6.844,0,1,0,6.844,6.844A6.844,6.844,0,0,0,75.443,42.382Zm0,1.955a4.874,4.874,0,1,1-3.469,1.427,4.9,4.9,0,0,1,3.469-1.427Zm-52.8,17.6a6.844,6.844,0,1,0,6.844,6.844,6.844,6.844,0,0,0-6.844-6.844Zm11.55,0a.982.982,0,0,0,.188,1.955H75.443a4.9,4.9,0,1,1,0,9.778H34.378a.977.977,0,1,0,0,1.955H75.443a6.845,6.845,0,0,0,0-13.689H34.378A.978.978,0,0,0,34.194,61.937Zm-11.55,1.955a4.874,4.874,0,1,1-3.469,1.427A4.9,4.9,0,0,1,22.644,63.892Z" transform="translate(-7 -14.996)" fill="#fff"/>
    </g>
  </g>
</svg>
