<svg xmlns="http://www.w3.org/2000/svg" width="33.47" height="44.616" viewBox="0 0 33.47 44.616"><defs><style>.a{fill:#fff;}</style></defs><g transform="translate(-26 -18.015)"><path class="a" d="M51.975,18.243a.718.718,0,0,0-1.049,0L43.6,26.61a.7.7,0,0,0,.525,1.156h2.789v3.744a9.639,9.639,0,0,0-8.367,0V27.069a.7.7,0,0,0-.7-.7h-7.67a.7.7,0,0,0-.7.7v25.8H26.7a.7.7,0,0,0-.525,1.156l7.322,8.367a.7.7,0,0,0,1.049,0l7.322-8.367a.7.7,0,0,0-.524-1.156H38.551V49.124a9.639,9.639,0,0,0,8.367,0v4.442a.7.7,0,0,0,.7.7h7.67a.7.7,0,0,0,.7-.7v-25.8h2.789A.7.7,0,0,0,59.3,26.61ZM37.854,54.263H39.8l-5.785,6.611-5.785-6.611h1.95a.7.7,0,0,0,.7-.7v-25.8h6.276v4.551a9.74,9.74,0,0,0,0,16v5.248A.7.7,0,0,0,37.854,54.263ZM34.367,40.318a8.367,8.367,0,1,1,8.367,8.367A8.377,8.377,0,0,1,34.367,40.318ZM55.286,26.372a.7.7,0,0,0-.7.7v25.8H48.313V48.318a9.74,9.74,0,0,0,0-16V27.069a.7.7,0,0,0-.7-.7h-1.95l5.785-6.611,5.785,6.611Z" transform="translate(0 0)"/><path class="a" d="M49.092,45.789a.83.83,0,0,1,.7.7.7.7,0,0,0,1.395,0,2.216,2.216,0,0,0-1.395-1.945V43.7a.7.7,0,0,0-1.395,0v.844A2.216,2.216,0,0,0,47,46.486c0,1.049.89,1.715,1.675,2.3.522.391,1.114.835,1.114,1.183a.83.83,0,0,1-.7.7.816.816,0,0,1-.7-.7.7.7,0,0,0-1.395,0,2.216,2.216,0,0,0,1.395,1.945v.844a.7.7,0,0,0,1.395,0v-.844a2.216,2.216,0,0,0,1.395-1.945c0-1.046-.888-1.711-1.672-2.3-.524-.392-1.117-.837-1.117-1.187A.816.816,0,0,1,49.092,45.789Z" transform="translate(-6.357 -7.563)"/></g></svg>