<svg width="34" height="34" viewBox="0 0 34 34" fill="none" xmlns="http://www.w3.org/2000/svg">
<path d="M6.04297 17.9297L3.67725 19.9219L0 17.9297L4.05078 11.9531L6.04297 13.9453V17.9297Z" fill="#47568C"/>
<path d="M27.957 17.9297L30.3228 19.9219L34 17.9297L29.9492 11.9531L27.957 13.9453V17.9297Z" fill="#2C3B73"/>
<path d="M25.9648 0V10.957H8.03516V1.99219H16.462L17 1.19531L17.7969 0H25.9648Z" fill="#FFDA2D"/>
<path d="M25.9648 0V10.957H17V1.19531L17.7969 0H25.9648Z" fill="#FDBF00"/>
<path d="M27.957 3.98438V14.9414H6.04297V5.97656H18.4542L19.7891 3.98438H27.957Z" fill="#FDBF00"/>
<path d="M27.957 3.98438V14.9414H17V5.97656H18.4542L19.7891 3.98438H27.957Z" fill="#FF9100"/>
<path d="M29.9492 7.96875V22.9102H4.05078V9.96094H20.4464L21.7812 7.96875H29.9492Z" fill="#FFDA2D"/>
<path d="M29.9492 7.96875V22.9102H17V9.96094H20.4464L21.7812 7.96875H29.9492Z" fill="#FDBF00"/>
<path d="M16.5734 24.2552C20.2551 24.2552 23.2398 21.2671 23.2398 17.5812C23.2398 13.8953 20.2551 10.9072 16.5734 10.9072C12.8917 10.9072 9.90707 13.8953 9.90707 17.5812C9.90707 21.2671 12.8917 24.2552 16.5734 24.2552Z" fill="#FF6D1C"/>
<path d="M16.5734 24.0338C20.1332 24.0338 23.019 21.1447 23.019 17.5808C23.019 14.017 20.1332 11.1279 16.5734 11.1279C13.0136 11.1279 10.1279 14.017 10.1279 17.5808C10.1279 21.1447 13.0136 24.0338 16.5734 24.0338Z" fill="#FF4A38"/>
<path opacity="0.58" d="M10.633 17.3324H10.6299C10.5937 17.3294 10.5634 17.2991 10.5664 17.2597C10.5785 17.0054 10.6088 16.751 10.6541 16.5027C10.6602 16.4664 10.6965 16.4421 10.7328 16.4482C10.7691 16.4542 10.7933 16.4906 10.7872 16.5269C10.7449 16.7692 10.7146 17.0175 10.7025 17.2658C10.6995 17.3021 10.6693 17.3324 10.633 17.3324Z" fill="white"/>
<path opacity="0.58" d="M11.2591 14.9674C11.25 14.9674 11.2379 14.9643 11.2289 14.9613C11.1956 14.9431 11.1805 14.9038 11.1986 14.8705C12.227 12.8265 14.2868 11.5547 16.5734 11.5547C16.9364 11.5547 17.3024 11.588 17.6593 11.6516C17.6956 11.6576 17.7198 11.694 17.7137 11.7303C17.7077 11.7667 17.6714 11.7909 17.6351 11.7848C17.2872 11.7212 16.9303 11.6879 16.5734 11.6879C14.3412 11.6879 12.3268 12.9295 11.3196 14.925C11.3075 14.9553 11.2833 14.9674 11.2591 14.9674Z" fill="white"/>
<path opacity="0.78" d="M20.5684 21.5812C22.6981 19.4491 22.6981 15.9923 20.5684 13.8602C18.4387 11.728 14.9858 11.728 12.8561 13.8602C10.7265 15.9923 10.7265 19.4491 12.8561 21.5813C14.9858 23.7134 18.4387 23.7134 20.5684 21.5812Z" fill="white"/>
<path d="M18.3126 15.561C18.3126 16.5178 17.5383 17.5504 16.5825 17.5504C15.6267 17.5504 14.8524 16.5178 14.8524 15.561C14.8524 14.6041 15.6267 13.9258 16.5825 13.9258C17.5383 13.9258 18.3126 14.6041 18.3126 15.561Z" fill="#FF6C5D"/>
<path d="M14.435 21.2326H18.6574C19.102 21.2326 19.4952 20.9449 19.6313 20.521L19.8582 19.8094C20.0246 19.2885 19.7554 18.7253 19.2412 18.5376C17.5232 17.9077 15.7447 17.9895 13.9238 18.5951C13.4127 18.7647 13.1314 19.3097 13.2705 19.8306L13.4459 20.4756C13.5699 20.9237 13.9722 21.2326 14.435 21.2326Z" fill="#FF6D1C"/>
<path d="M34 17.9297V34H0V17.9297H13.0755L13.7329 19.9219H20.2671L20.9245 17.9297H34Z" fill="#61729B"/>
<path d="M34 17.9297V34H17V19.9219H20.2671L20.9245 17.9297H34Z" fill="#47568C"/>
<path d="M12.0195 23.9062H21.9805V25.8984H12.0195V23.9062Z" fill="#FFDA2D"/>
<path d="M17 23.9062H21.9805V25.8984H17V23.9062Z" fill="#FDBF00"/>
</svg>
