<svg xmlns="http://www.w3.org/2000/svg" width="37.056" height="37.056" viewBox="0 0 37.056 37.056"><defs><style>.a{opacity:0.72;}.b{fill:#f2f2f2;}.c{fill:#ffc428;}.d{fill:#cdd6e0;}.e{fill:#ff7058;}.f{fill:#fff;}.g{fill:#4178e6;}.h{fill:#c3d1dd;}.i{fill:#40596b;}.j{fill:#009c97;}</style></defs><g class="a"><path class="b" d="M30.012,113.961H1.609A1.614,1.614,0,0,1,0,112.352V92.8H31.621v19.552A1.614,1.614,0,0,1,30.012,113.961Z" transform="translate(0 -86.428)"/><path class="c" d="M30.334,0H1.287A1.271,1.271,0,0,0,0,1.287V7H31.621V1.287A1.271,1.271,0,0,0,30.334,0Z"/><g transform="translate(2.253 9.444)"><rect class="d" width="4.425" height="4.425" transform="translate(0 11.345)"/><rect class="d" width="4.425" height="4.425" transform="translate(0 5.632)"/><rect class="d" width="4.425" height="4.425" transform="translate(5.632)"/><rect class="d" width="4.425" height="4.425" transform="translate(5.632 11.345)"/><rect class="d" width="4.425" height="4.425" transform="translate(5.632 5.632)"/><rect class="d" width="4.425" height="4.425" transform="translate(11.345)"/><rect class="d" width="4.425" height="4.425" transform="translate(11.345 11.345)"/><rect class="d" width="4.425" height="4.425" transform="translate(11.345 5.632)"/><rect class="d" width="4.425" height="4.425" transform="translate(17.058)"/><rect class="d" width="4.425" height="4.425" transform="translate(17.058 11.345)"/></g><rect class="e" width="4.425" height="4.425" transform="translate(18.427 15.048)"/><g transform="translate(23.801 9.582)"><rect class="d" width="4.425" height="4.425"/><rect class="d" width="4.425" height="4.425" transform="translate(0 5.632)"/></g><g transform="translate(6.948 2.414)"><ellipse class="f" cx="1.126" cy="1.126" rx="1.126" ry="1.126"/><ellipse class="f" cx="1.126" cy="1.126" rx="1.126" ry="1.126" transform="translate(14.483)"/></g><path class="d" d="M128.8,37.715H115.924a.721.721,0,0,1-.724-.724h0a.721.721,0,0,1,.724-.724H128.8a.721.721,0,0,1,.724.724h0A.849.849,0,0,1,128.8,37.715Z" transform="translate(-107.07 -33.531)"/><circle class="g" cx="10.782" cy="10.782" r="10.782" transform="translate(15.492 15.492)"/><path class="d" d="M272.419,280.3a7.885,7.885,0,1,1,7.885-7.885A7.9,7.9,0,0,1,272.419,280.3Z" transform="translate(-246.145 -246.145)"/><path class="h" d="M272.419,265.339a7.93,7.93,0,0,1,7.885,7.483v-.4a7.885,7.885,0,1,0-15.77,0v.4A7.821,7.821,0,0,1,272.419,265.339Z" transform="translate(-246.145 -245.609)"/><g transform="translate(19.032 19.032)"><path class="b" d="M365.122,273.067a.346.346,0,0,0-.322.322v.966a.322.322,0,1,0,.644,0v-.966C365.363,273.228,365.283,273.067,365.122,273.067Z" transform="translate(-357.88 -273.067)"/><path class="b" d="M365.122,442.667a.346.346,0,0,0-.322.322v.966a.322.322,0,0,0,.644,0v-.966C365.363,442.828,365.283,442.667,365.122,442.667Z" transform="translate(-357.88 -429.874)"/><path class="b" d="M444.275,365.122a.346.346,0,0,0-.322-.322h-.966a.322.322,0,1,0,0,.644h.966C444.114,365.363,444.275,365.283,444.275,365.122Z" transform="translate(-429.873 -357.88)"/><path class="b" d="M274.675,365.122a.346.346,0,0,0-.322-.322h-.966a.322.322,0,1,0,0,.644h.966C274.514,365.363,274.675,365.283,274.675,365.122Z" transform="translate(-273.066 -357.88)"/></g><path class="i" d="M317.784,310.135h-3.862a.322.322,0,1,1,0-.644h3.621v-4.1a.322.322,0,1,1,.644,0v4.506C318.025,310.055,317.945,310.135,317.784,310.135Z" transform="translate(-291.033 -283.128)"/><ellipse class="j" cx="0.885" cy="0.885" rx="0.885" ry="0.885" transform="translate(25.809 25.809)"/></g></svg>