<svg xmlns="http://www.w3.org/2000/svg" width="37.26" height="36.501" viewBox="0 0 37.26 36.501"><defs><style>.a{fill:#ffd766;}.b{fill:none;}.c{fill:#2196f3;}</style></defs><g transform="translate(-0.741 -1.199)"><path class="a" d="M315.851,293.055l-5.715-5.715a1.947,1.947,0,0,0-2.753,0l-1.861,1.861a1.823,1.823,0,0,1-1.015.479l8.736,8.736,2.608-2.608a1.947,1.947,0,0,0,0-2.753Zm0,0" transform="translate(-279.18 -262.515)"/><path class="b" d="M304.858,290.312a.784.784,0,0,1-.537-.21l-8.737-8.231a.689.689,0,0,1-.187-.725.749.749,0,0,1,.6-.488,1.115,1.115,0,0,0,.6-.251l1.861-1.753a2.9,2.9,0,0,1,3.829,0L308,284.039a2.45,2.45,0,0,1,0,3.607L305.4,290.1A.785.785,0,0,1,304.858,290.312Zm-7.407-8.708,7.407,6.978,2.07-1.951a1.073,1.073,0,0,0,0-1.581l-5.715-5.384a1.27,1.27,0,0,0-1.678,0l-1.861,1.753A2.168,2.168,0,0,1,297.451,281.6Zm0,0" transform="translate(-270.794 -254.412)"/><path class="a" d="M39.742,20.47,41.6,18.609a1.947,1.947,0,0,0,0-2.753L35.888,10.14a1.947,1.947,0,0,0-2.753,0l-2.608,2.608,8.736,8.736a1.823,1.823,0,0,1,.479-1.015Zm0,0" transform="translate(-27.987 -8.371)"/><path class="c" d="M24.39,65.611c-3.357-3.357-5.3-7.054-4.957-9.094L10.7,47.781l-.661.661c-3.36,3.36.972,13.141,9.678,21.846S38.2,83.326,41.56,79.965l.661-.661-8.736-8.736c-2.041.343-5.737-1.6-9.094-4.957Zm0,0" transform="translate(-8.157 -43.404)"/></g></svg>