<svg width="256" height="191" viewBox="0 0 256 191" fill="none" xmlns="http://www.w3.org/2000/svg">
<path d="M256 167.789H0V167.917H256V167.789Z" fill="#EBEBEB"/>
<path d="M43.817 172.663H26.8595V172.791H43.817V172.663Z" fill="#EBEBEB"/>
<path d="M109.399 171.276H87.6237V171.404H109.399V171.276Z" fill="#EBEBEB"/>
<path d="M57.6819 174.46H47.8566V174.588H57.6819V174.46Z" fill="#EBEBEB"/>
<path d="M230.349 176.559H222.551V176.687H230.349V176.559Z" fill="#EBEBEB"/>
<path d="M217.989 176.559H200.433V176.687H217.989V176.559Z" fill="#EBEBEB"/>
<path d="M169.897 172.873H157.696V173.001H169.897V172.873Z" fill="#EBEBEB"/>
<path d="M121.344 144.954H22.487C21.7117 144.954 20.9681 144.646 20.4198 144.097C19.8715 143.549 19.5635 142.805 19.5635 142.03V3.05792C19.5703 2.287 19.8813 1.54995 20.4288 1.00721C20.9763 0.464471 21.7161 0.159974 22.487 0.160004H121.344C122.119 0.160004 122.863 0.468017 123.411 1.01628C123.96 1.56455 124.268 2.30816 124.268 3.08352V142.03C124.268 142.805 123.96 143.549 123.411 144.097C122.863 144.646 122.119 144.954 121.344 144.954ZM22.487 0.262404C21.746 0.263757 21.0358 0.558719 20.5118 1.08269C19.9878 1.60666 19.6929 2.31692 19.6915 3.05792V142.03C19.6929 142.771 19.9878 143.481 20.5118 144.005C21.0358 144.529 21.746 144.824 22.487 144.826H121.344C122.085 144.824 122.795 144.529 123.319 144.005C123.843 143.481 124.138 142.771 124.14 142.03V3.05792C124.138 2.31692 123.843 1.60666 123.319 1.08269C122.795 0.558719 122.085 0.263757 121.344 0.262404H22.487Z" fill="#EBEBEB"/>
<path d="M232.095 144.954H133.228C132.453 144.952 131.71 144.644 131.162 144.096C130.614 143.548 130.305 142.805 130.304 142.03V3.05792C130.312 2.28742 130.624 1.55115 131.171 1.00869C131.718 0.466235 132.457 0.161308 133.228 0.160004H232.095C232.864 0.162668 233.601 0.468355 234.146 1.01081C234.692 1.55326 235.001 2.28877 235.008 3.05792V142.03C235.008 142.804 234.701 143.546 234.155 144.094C233.609 144.642 232.868 144.951 232.095 144.954ZM133.228 0.262404C132.487 0.263757 131.776 0.558719 131.252 1.08269C130.728 1.60666 130.433 2.31692 130.432 3.05792V142.03C130.433 142.771 130.728 143.481 131.252 144.005C131.776 144.529 132.487 144.824 133.228 144.826H232.095C232.836 144.824 233.546 144.529 234.07 144.005C234.594 143.481 234.889 142.771 234.89 142.03V3.05792C234.889 2.31692 234.594 1.60666 234.07 1.08269C233.546 0.558719 232.836 0.263757 232.095 0.262404H133.228Z" fill="#EBEBEB"/>
<path d="M157.44 72.5414H212.669V17.1635L157.44 17.1635V72.5414Z" fill="#F0F0F0"/>
<path d="M157.44 17.1686H156.488V72.5466H157.44V17.1686Z" fill="#E0E0E0"/>
<path d="M162.319 69.0445H207.795V20.6605L162.319 20.6605V69.0445Z" fill="#FAFAFA"/>
<path d="M180.224 58.528H194.627C197.75 58.528 199.839 55.9987 199.291 52.896L196.49 36.8551C196.179 35.303 195.352 33.9018 194.144 32.8793C192.935 31.8567 191.416 31.273 189.834 31.2231H175.468C172.344 31.2231 170.255 33.7523 170.803 36.8551L173.604 52.896C173.913 54.4427 174.734 55.84 175.936 56.862C177.137 57.884 178.648 58.471 180.224 58.528Z" fill="#F0F0F0"/>
<path d="M53.7446 89.3606H41.4566V165.162H53.7446V89.3606Z" fill="#F0F0F0"/>
<path d="M107.663 165.167H42.711V167.784H107.663V165.167Z" fill="#F0F0F0"/>
<path d="M53.7446 165.167H108.744L108.744 89.3658H53.7446L53.7446 165.167Z" fill="#F5F5F5"/>
<path d="M55.9565 142.368H106.532V128.831H55.9565V142.368Z" fill="#F0F0F0"/>
<path d="M55.9565 160.083H106.532V146.546H55.9565V160.083Z" fill="#F0F0F0"/>
<path d="M100.547 128.001H61.9418C61.6081 128.001 61.3376 128.272 61.3376 128.605V129.256C61.3376 129.589 61.6081 129.86 61.9418 129.86H100.547C100.88 129.86 101.151 129.589 101.151 129.256V128.605C101.151 128.272 100.88 128.001 100.547 128.001Z" fill="#F5F5F5"/>
<path d="M100.547 145.722H61.9418C61.6081 145.722 61.3376 145.992 61.3376 146.326V146.976C61.3376 147.31 61.6081 147.58 61.9418 147.58H100.547C100.88 147.58 101.151 147.31 101.151 146.976V146.326C101.151 145.992 100.88 145.722 100.547 145.722Z" fill="#F5F5F5"/>
<path d="M55.9565 107.076H106.532V93.5386H55.9565V107.076Z" fill="#F0F0F0"/>
<path d="M55.9565 124.658H106.532V111.121H55.9565V124.658Z" fill="#F0F0F0"/>
<path d="M100.547 92.7142H61.9418C61.6081 92.7142 61.3376 92.9847 61.3376 93.3184V93.9686C61.3376 94.3023 61.6081 94.5728 61.9418 94.5728H100.547C100.88 94.5728 101.151 94.3023 101.151 93.9686V93.3184C101.151 92.9847 100.88 92.7142 100.547 92.7142Z" fill="#F5F5F5"/>
<path d="M100.547 110.286H61.9418C61.6081 110.286 61.3376 110.557 61.3376 110.89V111.54C61.3376 111.874 61.6081 112.145 61.9418 112.145H100.547C100.88 112.145 101.151 111.874 101.151 111.54V110.89C101.151 110.557 100.88 110.286 100.547 110.286Z" fill="#F5F5F5"/>
<path d="M106.752 12.9907H37.7805V73.5398H106.752V12.9907Z" fill="#E6E6E6"/>
<path d="M114.145 10.6355H33.3158C33.226 10.6355 33.137 10.6533 33.0541 10.6878C32.9711 10.7224 32.8958 10.773 32.8325 10.8368C32.7692 10.9006 32.7192 10.9762 32.6852 11.0594C32.6513 11.1427 32.6342 11.2318 32.6349 11.3216C32.6349 11.5022 32.7066 11.6754 32.8343 11.8031C32.962 11.9308 33.1352 12.0026 33.3158 12.0026H114.145C114.326 12.0026 114.5 11.931 114.629 11.8034C114.757 11.6759 114.83 11.5027 114.831 11.3216C114.831 11.1397 114.759 10.9651 114.63 10.8365C114.502 10.7078 114.327 10.6355 114.145 10.6355Z" fill="#E6E6E6"/>
<path d="M109.681 12.9907H39.1475V73.5398H109.681V12.9907Z" fill="#F0F0F0"/>
<path d="M106.752 73.5398H37.7805V75.4803H108.769L106.752 73.5398Z" fill="#E6E6E6"/>
<path d="M114.555 73.5398H44.0269L46.039 75.4803H116.572L114.555 73.5398Z" fill="#F0F0F0"/>
<path d="M105.585 69.4438V17.0867L43.2486 17.0867V69.4438H105.585Z" fill="#FAFAFA"/>
<path d="M57.4003 69.4439L81.4439 17.0867H92.8L68.7514 69.4439H57.4003Z" fill="white"/>
<path d="M71.1885 69.4439L95.2371 17.0867H99.6608L75.6173 69.4439H71.1885Z" fill="white"/>
<path d="M105.585 69.4438V17.0867H105.062V69.4438H105.585Z" fill="#E6E6E6"/>
<g opacity="0.4">
<path opacity="0.4" d="M43.2947 9.41183H36.2445V59.3779H43.2947V9.41183Z" fill="#F0F0F0"/>
<path opacity="0.4" d="M46.0442 9.41183H40.5504V59.3779H46.0442V9.41183Z" fill="#E6E6E6"/>
<path opacity="0.4" d="M50.3449 9.41183H43.2947V59.3779H50.3449V9.41183Z" fill="#F0F0F0"/>
<path opacity="0.4" d="M53.0944 9.41183H47.6006V59.3779H53.0944V9.41183Z" fill="#E6E6E6"/>
<path opacity="0.4" d="M57.3952 9.41183H50.345V59.3779H57.3952V9.41183Z" fill="#F0F0F0"/>
</g>
<g opacity="0.4">
<path opacity="0.4" d="M102.963 9.41183H98.8979V59.3779H102.963V9.41183Z" fill="#F0F0F0"/>
<path opacity="0.4" d="M104.54 9.41183H101.376V59.3779H104.54V9.41183Z" fill="#E6E6E6"/>
<path opacity="0.4" d="M107.023 9.41183H102.958V59.3779H107.023V9.41183Z" fill="#F0F0F0"/>
<path opacity="0.4" d="M108.605 9.41183H105.441V59.3779H108.605V9.41183Z" fill="#E6E6E6"/>
<path opacity="0.4" d="M111.089 9.41183H107.023V59.3779H111.089V9.41183Z" fill="#F0F0F0"/>
</g>
<path d="M182.707 109.836C182.647 110.576 182.808 111.318 183.169 111.967C183.53 112.617 184.076 113.144 184.737 113.484C185.398 113.823 186.145 113.959 186.883 113.874C187.621 113.789 188.318 113.487 188.884 113.006C189.451 112.525 189.862 111.887 190.066 111.173C190.271 110.458 190.258 109.699 190.031 108.992C189.804 108.284 189.372 107.66 188.79 107.198C188.209 106.735 187.503 106.456 186.762 106.395C185.768 106.314 184.783 106.631 184.023 107.276C183.263 107.921 182.789 108.842 182.707 109.836Z" fill="#E0E0E0"/>
<path d="M193.156 115.821C195.213 115.518 196.634 113.606 196.332 111.55C196.029 109.494 194.117 108.072 192.061 108.374C190.005 108.677 188.583 110.589 188.885 112.645C189.188 114.702 191.1 116.123 193.156 115.821Z" fill="#E0E0E0"/>
<path d="M195.441 112.57C195.38 113.31 195.541 114.052 195.902 114.701C196.264 115.351 196.809 115.878 197.47 116.218C198.131 116.557 198.878 116.693 199.617 116.608C200.355 116.523 201.051 116.221 201.618 115.74C202.184 115.259 202.596 114.621 202.8 113.907C203.004 113.192 202.992 112.433 202.765 111.726C202.537 111.018 202.106 110.394 201.524 109.932C200.942 109.469 200.236 109.19 199.496 109.129C199.003 109.088 198.508 109.144 198.037 109.295C197.567 109.445 197.13 109.687 196.754 110.007C196.377 110.327 196.067 110.718 195.842 111.157C195.616 111.597 195.48 112.077 195.441 112.57Z" fill="#E0E0E0"/>
<path d="M175.718 111.807C175.658 112.547 175.819 113.289 176.18 113.939C176.541 114.588 177.087 115.116 177.748 115.455C178.409 115.794 179.156 115.93 179.894 115.845C180.632 115.76 181.329 115.458 181.895 114.977C182.462 114.496 182.873 113.858 183.078 113.144C183.282 112.429 183.269 111.67 183.042 110.963C182.815 110.255 182.383 109.631 181.802 109.169C181.22 108.707 180.514 108.427 179.773 108.366C178.78 108.285 177.794 108.602 177.034 109.247C176.274 109.893 175.801 110.813 175.718 111.807Z" fill="#E0E0E0"/>
<path d="M205.168 115.818C207.224 115.516 208.646 113.603 208.343 111.547C208.041 109.491 206.129 108.069 204.072 108.372C202.016 108.674 200.594 110.587 200.897 112.643C201.2 114.699 203.112 116.121 205.168 115.818Z" fill="#E0E0E0"/>
<path d="M176.842 111.792C178.422 110.442 178.607 108.066 177.256 106.486C175.905 104.907 173.529 104.722 171.95 106.072C170.37 107.423 170.185 109.799 171.536 111.379C172.887 112.958 175.262 113.143 176.842 111.792Z" fill="#E0E0E0"/>
<path d="M165.335 110.952C165.275 111.692 165.435 112.434 165.797 113.084C166.158 113.733 166.704 114.261 167.365 114.6C168.026 114.939 168.773 115.075 169.511 114.99C170.249 114.905 170.946 114.603 171.512 114.122C172.079 113.641 172.49 113.003 172.694 112.289C172.898 111.574 172.886 110.815 172.659 110.108C172.432 109.4 172 108.776 171.418 108.314C170.836 107.852 170.131 107.572 169.39 107.511C168.396 107.43 167.411 107.747 166.651 108.392C165.89 109.038 165.417 109.958 165.335 110.952Z" fill="#E0E0E0"/>
<path d="M161.039 111.965C161.039 111.965 161.684 127.361 186.424 127.361C211.164 127.361 211.809 111.965 211.809 111.965H161.039Z" fill="#F0F0F0"/>
<path d="M225.925 127.361H221.22V167.784H225.925V127.361Z" fill="#E6E6E6"/>
<path d="M227.18 127.361H224.41V167.784H227.18V127.361Z" fill="#F0F0F0"/>
<path d="M205.906 127.361H201.201V167.784H205.906V127.361Z" fill="#E6E6E6"/>
<path d="M206.787 127.361H204.017V167.784H206.787V127.361Z" fill="#F0F0F0"/>
<path d="M161.244 132.266H228.04V127.366L161.244 127.366V132.266Z" fill="#F0F0F0"/>
<path d="M140.831 127.361H136.125V167.784H140.831V127.361Z" fill="#E6E6E6"/>
<path d="M141.711 127.361H138.941V167.784H141.711V127.361Z" fill="#F0F0F0"/>
<path d="M135.286 132.266H159.232V127.366H135.286V132.266Z" fill="#E6E6E6"/>
<path d="M160.845 127.361H156.14V167.784H160.845V127.361Z" fill="#E6E6E6"/>
<path d="M162.104 127.361H159.334V167.784H162.104V127.361Z" fill="#F0F0F0"/>
<path d="M128 190.911C182.826 190.911 227.272 188.316 227.272 185.115C227.272 181.914 182.826 179.319 128 179.319C73.1738 179.319 28.7283 181.914 28.7283 185.115C28.7283 188.316 73.1738 190.911 128 190.911Z" fill="#F5F5F5"/>
<path d="M182.006 180.031C182.006 181.054 181.644 182.044 180.983 182.825C180.322 183.606 179.405 184.127 178.396 184.296C165.974 186.392 153.289 186.392 140.867 184.296C139.862 184.123 138.95 183.6 138.294 182.819C137.638 182.038 137.28 181.05 137.283 180.031V138.559H182.026L182.006 180.031Z" fill="#407BFF"/>
<path opacity="0.3" d="M137.257 139.306V145.128C139.95 146.126 148.792 146.858 159.631 146.858C170.47 146.858 179.328 146.126 182.006 145.128V139.306H137.257Z" fill="black"/>
<path d="M182.845 143.745C182.845 145.061 172.687 146.126 159.631 146.126C146.575 146.126 136.417 145.061 136.417 143.745L135.992 138.574H183.296L182.845 143.745Z" fill="#407BFF"/>
<path d="M159.631 140.95C172.687 140.95 183.27 139.886 183.27 138.574C183.27 137.262 172.687 136.198 159.631 136.198C146.576 136.198 135.992 137.262 135.992 138.574C135.992 139.886 146.576 140.95 159.631 140.95Z" fill="#407BFF"/>
<path opacity="0.3" d="M159.631 140.95C172.687 140.95 183.27 139.886 183.27 138.574C183.27 137.262 172.687 136.198 159.631 136.198C146.576 136.198 135.992 137.262 135.992 138.574C135.992 139.886 146.576 140.95 159.631 140.95Z" fill="black"/>
<path opacity="0.2" d="M143.258 177.112C142.798 177.111 142.357 176.928 142.032 176.602C141.707 176.277 141.523 175.837 141.522 175.377V151.599C141.523 151.139 141.707 150.699 142.032 150.374C142.357 150.048 142.798 149.865 143.258 149.864C143.717 149.866 144.157 150.05 144.482 150.375C144.807 150.7 144.991 151.14 144.993 151.599V175.377C144.991 175.836 144.807 176.276 144.482 176.601C144.157 176.926 143.717 177.11 143.258 177.112Z" fill="black"/>
<path opacity="0.2" d="M176.01 177.112C175.55 177.111 175.11 176.928 174.784 176.602C174.459 176.277 174.276 175.837 174.275 175.377V151.599C174.276 151.139 174.459 150.699 174.784 150.374C175.11 150.048 175.55 149.865 176.01 149.864C176.47 149.866 176.91 150.05 177.235 150.375C177.56 150.7 177.743 151.14 177.746 151.599V175.377C177.743 175.836 177.56 176.276 177.235 176.601C176.91 176.926 176.47 177.11 176.01 177.112Z" fill="black"/>
<path opacity="0.2" d="M165.089 177.112C164.63 177.11 164.19 176.926 163.865 176.601C163.54 176.276 163.356 175.836 163.354 175.377V151.599C163.356 151.14 163.54 150.7 163.865 150.375C164.19 150.05 164.63 149.866 165.089 149.864C165.549 149.865 165.99 150.048 166.315 150.374C166.64 150.699 166.824 151.139 166.825 151.599V175.377C166.824 175.837 166.64 176.277 166.315 176.602C165.99 176.928 165.549 177.111 165.089 177.112Z" fill="black"/>
<path opacity="0.2" d="M154.173 177.112C153.714 177.11 153.274 176.926 152.949 176.601C152.624 176.276 152.44 175.836 152.438 175.377V151.599C152.44 151.14 152.624 150.7 152.949 150.375C153.274 150.05 153.714 149.866 154.173 149.864C154.633 149.865 155.074 150.048 155.399 150.374C155.724 150.699 155.908 151.139 155.909 151.599V175.377C155.908 175.837 155.724 176.277 155.399 176.602C155.074 176.928 154.633 177.111 154.173 177.112Z" fill="black"/>
<path d="M98.7545 43.2499C98.7545 43.7198 98.6152 44.1791 98.3541 44.5698C98.0931 44.9605 97.7221 45.265 97.288 45.4448C96.8539 45.6246 96.3762 45.6716 95.9154 45.58C95.4545 45.4883 95.0312 45.262 94.699 44.9298C94.3667 44.5975 94.1405 44.1742 94.0488 43.7134C93.9571 43.2526 94.0042 42.7749 94.184 42.3408C94.3638 41.9067 94.6683 41.5357 95.059 41.2746C95.4497 41.0136 95.909 40.8743 96.3788 40.8743C97.0089 40.8743 97.6132 41.1245 98.0587 41.5701C98.5042 42.0156 98.7545 42.6199 98.7545 43.2499Z" fill="#263238"/>
<path d="M94.4691 43.593C94.4459 43.5936 94.4231 43.5877 94.4032 43.5759C94.3832 43.5642 94.367 43.547 94.3564 43.5264C94.1994 43.238 94.1008 42.9214 94.0661 42.5949C94.0315 42.2683 94.0615 41.9381 94.1544 41.6231C94.2474 41.3081 94.4014 41.0145 94.6079 40.7591C94.8143 40.5037 95.069 40.2914 95.3574 40.1344C95.6458 39.9774 95.9624 39.8788 96.289 39.8441C96.6155 39.8094 96.9457 39.8394 97.2607 39.9324C97.5757 40.0253 97.8693 40.1794 98.1247 40.3858C98.3801 40.5922 98.5924 40.8469 98.7494 41.1354C98.7645 41.1655 98.7675 41.2002 98.758 41.2325C98.7485 41.2648 98.7272 41.2923 98.6982 41.3095C98.6834 41.3176 98.6672 41.3227 98.6504 41.3245C98.6336 41.3263 98.6167 41.3248 98.6005 41.32C98.5843 41.3153 98.5693 41.3074 98.5562 41.2968C98.543 41.2862 98.5322 41.2731 98.5241 41.2583C98.2396 40.7355 97.7591 40.3471 97.1883 40.1786C96.6175 40.0101 96.0031 40.0752 95.4803 40.3597C94.9575 40.6442 94.5691 41.1247 94.4006 41.6955C94.2321 42.2663 94.2972 42.8807 94.5817 43.4035C94.5898 43.4183 94.5949 43.4346 94.5968 43.4513C94.5986 43.4681 94.5971 43.485 94.5923 43.5012C94.5875 43.5174 94.5796 43.5325 94.569 43.5456C94.5584 43.5587 94.5453 43.5696 94.5305 43.5776C94.5115 43.5874 94.4905 43.5927 94.4691 43.593Z" fill="#263238"/>
<path d="M92.16 54.1043C91.6972 54.1025 91.2439 53.9723 90.8506 53.7284C90.4573 53.4845 90.1393 53.1364 89.9319 52.7226C89.7245 52.3089 89.6359 51.8458 89.6758 51.3847C89.7157 50.9236 89.8826 50.4827 90.158 50.1107C90.3544 49.8478 90.6005 49.6261 90.8825 49.4583C91.1645 49.2905 91.4768 49.1799 91.8016 49.1328C91.8181 49.1299 91.8351 49.1304 91.8514 49.1343C91.8677 49.1382 91.8831 49.1455 91.8965 49.1555C91.91 49.1656 91.9212 49.1783 91.9295 49.1929C91.9378 49.2075 91.9431 49.2236 91.9449 49.2403C91.9493 49.2735 91.9405 49.3072 91.9204 49.334C91.9003 49.3608 91.8705 49.3786 91.8374 49.3837C91.2487 49.4699 90.7185 49.7864 90.3632 50.2637C90.0079 50.7409 89.8568 51.3397 89.943 51.9283C90.0292 52.517 90.3458 53.0473 90.823 53.4025C91.3002 53.7578 91.899 53.909 92.4876 53.8227C92.5216 53.8173 92.5563 53.8256 92.5842 53.8457C92.612 53.8659 92.6307 53.8963 92.6361 53.9303C92.6416 53.9642 92.6333 53.9989 92.6131 54.0268C92.5929 54.0546 92.5626 54.0733 92.5286 54.0787C92.4064 54.0949 92.2833 54.1034 92.16 54.1043Z" fill="#263238"/>
<path d="M105.067 57.975C104.587 57.9743 104.118 57.8338 103.716 57.5706C103.687 57.5517 103.667 57.5225 103.659 57.4892C103.652 57.4558 103.657 57.4208 103.675 57.3914C103.695 57.3637 103.724 57.3445 103.757 57.3378C103.791 57.3312 103.825 57.3375 103.854 57.3555C104.353 57.6794 104.96 57.7917 105.542 57.6679C106.124 57.544 106.633 57.1941 106.957 56.695C107.281 56.196 107.393 55.5888 107.269 55.0069C107.145 54.425 106.795 53.9162 106.296 53.5923C106.268 53.5735 106.248 53.5443 106.24 53.5109C106.232 53.4776 106.238 53.4425 106.255 53.4131C106.275 53.3854 106.304 53.3663 106.338 53.3596C106.371 53.3529 106.406 53.3593 106.435 53.3773C106.99 53.7387 107.379 54.3053 107.517 54.953C107.655 55.6008 107.531 56.2769 107.172 56.8333C106.994 57.1101 106.764 57.3487 106.493 57.5351C106.222 57.7215 105.917 57.852 105.595 57.9187C105.421 57.9552 105.245 57.974 105.067 57.975Z" fill="#263238"/>
<path d="M95.0476 50.6586C96.9026 50.6586 98.4064 49.1548 98.4064 47.2999C98.4064 45.4449 96.9026 43.9411 95.0476 43.9411C93.1927 43.9411 91.6889 45.4449 91.6889 47.2999C91.6889 49.1548 93.1927 50.6586 95.0476 50.6586Z" fill="#263238"/>
<path d="M98.2001 54.9709C99.9396 53.2313 99.9396 50.411 98.2001 48.6714C96.4605 46.9319 93.6401 46.9319 91.9006 48.6714C90.161 50.411 90.161 53.2313 91.9006 54.9709C93.6401 56.7104 96.4605 56.7104 98.2001 54.9709Z" fill="#263238"/>
<path d="M95.5187 62.409C98.2389 62.409 100.444 60.2038 100.444 57.4835C100.444 54.7633 98.2389 52.5581 95.5187 52.5581C92.7984 52.5581 90.5932 54.7633 90.5932 57.4835C90.5932 60.2038 92.7984 62.409 95.5187 62.409Z" fill="#263238"/>
<path d="M105.24 58.9491C105.865 56.3016 104.225 53.6488 101.578 53.0239C98.9302 52.3991 96.2774 54.0387 95.6526 56.6862C95.0277 59.3337 96.6674 61.9865 99.3149 62.6114C101.962 63.2362 104.615 61.5966 105.24 58.9491Z" fill="#263238"/>
<path d="M116.782 67.9795C116.782 68.3789 116.782 68.8858 116.818 69.3466C116.854 69.8074 116.854 70.2989 116.884 70.775C116.951 71.7274 117.018 72.6899 117.12 73.6474C117.304 75.5691 117.562 77.4822 117.893 79.3869C117.98 79.8579 118.057 80.3392 118.154 80.8102L118.379 81.9725C118.436 82.1568 118.379 82.121 118.308 82.1158C118.236 82.1107 118.308 82.208 118.61 82.208C119.383 82.1305 120.136 81.9136 120.832 81.568C121.242 81.3837 121.661 81.184 122.081 80.969C122.501 80.7539 122.926 80.5082 123.31 80.2931L124.805 82.0186C124.448 82.4271 124.069 82.8151 123.668 83.1808C123.274 83.5562 122.857 83.9067 122.419 84.2304C121.96 84.5756 121.476 84.8854 120.97 85.1571C120.395 85.4713 119.778 85.7023 119.137 85.8432C118.742 85.9293 118.338 85.9637 117.934 85.9456C117.441 85.917 116.958 85.7954 116.511 85.5872C116.035 85.3637 115.611 85.0427 115.267 84.6451C114.971 84.2994 114.729 83.9111 114.55 83.4931C114.411 83.1734 114.298 82.8429 114.212 82.505L114.012 81.7574C113.869 81.2454 113.751 80.759 113.628 80.2573C113.149 78.2445 112.78 76.2071 112.522 74.1542C112.394 73.1302 112.292 72.1062 112.23 71.0566C112.2 70.5446 112.174 70.0326 112.159 69.4899C112.143 68.9472 112.159 68.4659 112.159 67.8566L116.782 67.9795Z" fill="#FFB573"/>
<path d="M114.299 62.4602C118.666 65.8035 118.492 72.1062 118.492 72.1062L110.679 73.975C110.679 73.975 108.283 67.6365 109.256 65.3171C110.269 62.9005 111.841 60.576 114.299 62.4602Z" fill="#407BFF"/>
<path opacity="0.7" d="M114.299 62.4602C118.666 65.8035 118.492 72.1062 118.492 72.1062L110.679 73.975C110.679 73.975 108.283 67.6365 109.256 65.3171C110.269 62.9005 111.841 60.576 114.299 62.4602Z" fill="white"/>
<path d="M123.018 80.8819L124.308 78.711L127.544 82.1722C127.544 82.1722 125.225 83.657 122.819 82.5971L123.018 80.8819Z" fill="#FFB573"/>
<path d="M125.901 77.6717L130.053 80.119L127.544 82.1722L124.308 78.711L125.901 77.6717Z" fill="#FFB573"/>
<path d="M89.8508 181.336L94.3155 181.766L97.0905 171.306L92.6208 170.876L89.8508 181.336Z" fill="#FFB573"/>
<path d="M66.9644 172.545L70.9734 174.644L75.7401 165.193L71.7312 163.094L66.9644 172.545Z" fill="#FFB573"/>
<path d="M72.0435 172.806L68.4595 169.166C68.3999 169.102 68.3188 169.063 68.2318 169.055C68.1448 169.048 68.0581 169.073 67.9884 169.125L64.6963 171.547C64.6164 171.611 64.551 171.691 64.5041 171.783C64.4573 171.874 64.4301 171.974 64.4243 172.076C64.4185 172.178 64.4342 172.281 64.4705 172.377C64.5068 172.472 64.5628 172.559 64.6348 172.632C65.9046 173.882 66.5804 174.419 68.1574 176.022C69.1302 177.005 71.127 179.324 72.4684 180.686C73.8099 182.048 75.223 180.794 74.7878 180.108C72.832 177.036 72.5043 175.105 72.3814 173.544C72.3592 173.266 72.2395 173.005 72.0435 172.806Z" fill="#263238"/>
<path d="M95.0118 180.41H89.6C89.5031 180.411 89.4093 180.443 89.3326 180.502C89.2559 180.561 89.2006 180.644 89.175 180.737L88.0179 184.992C87.989 185.093 87.9842 185.2 88.004 185.303C88.0238 185.406 88.0676 185.503 88.1319 185.586C88.1962 185.67 88.2792 185.737 88.3741 185.782C88.469 185.827 88.5732 185.849 88.6784 185.847C90.5779 185.847 91.479 185.847 93.8496 185.847H101.105C103.076 185.847 103.491 183.855 102.671 183.671C99.0156 182.862 96.9062 181.746 95.7798 180.681C95.5664 180.498 95.2926 180.402 95.0118 180.41Z" fill="#263238"/>
<path opacity="0.2" d="M97.0854 171.311L95.6569 176.703H91.0745L92.6156 170.881L97.0854 171.311Z" fill="black"/>
<path opacity="0.2" d="M71.726 163.094L75.7401 165.198L73.2825 170.067L69.2684 167.963L71.726 163.094Z" fill="black"/>
<path d="M112.978 61.815C112.978 61.815 114.954 62.6803 108.329 88.8947L89.9276 87.3024C90.8851 79.8426 91.2896 75.2243 89.0419 59.5418C91.6651 59.2346 94.307 59.1165 96.9472 59.1885C99.746 59.2308 102.538 59.4721 105.303 59.9104C107.892 60.4152 110.453 61.0509 112.978 61.815Z" fill="#407BFF"/>
<path opacity="0.7" d="M112.978 61.815C112.978 61.815 114.954 62.6803 108.329 88.8947L89.9276 87.3024C90.8851 79.8426 91.2896 75.2243 89.0419 59.5418C91.6651 59.2346 94.307 59.1165 96.9472 59.1885C99.746 59.2308 102.538 59.4721 105.303 59.9104C107.892 60.4152 110.453 61.0509 112.978 61.815Z" fill="white"/>
<path d="M96.9472 59.04C96.9472 59.04 95.9232 59.04 94.6688 59.04C93.9264 60.1818 97.0598 63.5149 101.043 66.7917C102.006 63.8067 103.521 63.817 103.521 63.817L96.9472 59.04Z" fill="white"/>
<path d="M105.298 59.8439C105.298 59.8439 105.764 59.9104 106.88 60.1664C107.617 61.3082 108.032 64.1651 105.856 66.6535C105.001 63.5815 103.526 63.8579 103.526 63.8579L105.298 59.8439Z" fill="white"/>
<path d="M98.5856 49.8496C98.8825 52.5837 98.9798 57.5296 96.9472 59.1885C96.9472 59.1885 99.118 61.4106 103.521 63.8579C106.716 61.6461 105.303 59.9104 105.303 59.9104C102.364 58.9376 102.635 56.7207 103.337 54.6726L98.5856 49.8496Z" fill="#FFB573"/>
<path opacity="0.2" d="M100.526 51.8208L103.337 54.6726C103.164 55.1466 103.034 55.6349 102.948 56.1318C101.821 55.8707 100.183 54.6931 100.163 53.4848C100.182 52.9127 100.305 52.3489 100.526 51.8208Z" fill="black"/>
<path d="M109.143 40.9306C111.027 42.5997 111.58 46.665 109.788 49.4246C109.25 46.6271 109.034 43.7773 109.143 40.9306Z" fill="#263238"/>
<path d="M98.0121 44.1101C97.6844 48.6106 97.454 50.5101 99.3996 53.1059C102.328 57.0125 107.93 56.4237 109.594 52.1126C111.094 48.2266 111.375 41.5194 107.243 39.1539C106.336 38.6239 105.307 38.3358 104.256 38.317C103.205 38.2983 102.166 38.5496 101.24 39.0469C100.314 39.5442 99.5305 40.2708 98.9654 41.1573C98.4002 42.0438 98.072 43.0605 98.0121 44.1101Z" fill="#FFB573"/>
<path d="M97.4131 47.735C100.741 47.607 102.584 43.255 101.75 41.417C105.523 43.383 111.237 44.9293 110.602 42.4C109.747 38.985 105.615 36.4813 100.531 38.304C97.5872 39.584 95.0681 42.4 97.4131 47.735Z" fill="#263238"/>
<path d="M96.3993 47.7299C96.5415 48.5905 97.0158 49.3609 97.7203 49.8752C98.6624 50.5459 99.5225 49.7984 99.5891 48.7079C99.6505 47.7197 99.2358 46.1837 98.1299 45.9482C97.8877 45.9001 97.6373 45.9133 97.4016 45.9868C97.1659 46.0602 96.9522 46.1915 96.7802 46.3686C96.6082 46.5457 96.4832 46.7631 96.4167 47.0008C96.3502 47.2386 96.3442 47.4893 96.3993 47.7299Z" fill="#FFB573"/>
<path d="M108.329 88.8947C108.329 88.8947 112.491 116.056 110.172 133.505C108.416 146.689 97.0854 175.136 97.0854 175.136L89.728 174.936C89.728 174.936 97.326 147.365 98.8979 136.536C101.586 117.992 94.8531 87.7479 94.8531 87.7479L108.329 88.8947Z" fill="#263238"/>
<path opacity="0.2" d="M101.151 94.4602L97.2236 100.65C98.4062 107.99 99.1567 115.392 99.4713 122.82C104.991 112.938 102.4 99.6877 101.151 94.4602Z" fill="black"/>
<path d="M98.2323 175.546L88.9856 175.295L89.5488 172.32L99.1027 172.376L98.2323 175.546Z" fill="#407BFF"/>
<path d="M104.305 88.6029C104.305 88.6029 101.233 118.678 94.2131 135.041C88.535 148.251 74.9977 169.381 74.9977 169.381L69.591 166.217C69.591 166.217 78.295 142.721 82.5907 133.915C93.0713 112.324 83.3228 95.0029 89.9276 87.3229L104.305 88.6029Z" fill="#263238"/>
<path d="M75.5865 169.842L68.6899 166.058L69.8112 163.109L77.1584 167.256L75.5865 169.842Z" fill="#407BFF"/>
<path d="M89.7433 86.2016L88.7705 87.7786C88.6989 87.8963 88.8371 88.0448 89.0521 88.0602L108.349 89.7293C108.513 89.7293 108.662 89.673 108.677 89.5706L108.989 87.9373C108.989 87.8246 108.872 87.7171 108.692 87.7018L90.0556 86.089C89.9983 86.0803 89.9397 86.086 89.8852 86.1057C89.8307 86.1253 89.7819 86.1583 89.7433 86.2016Z" fill="#407BFF"/>
<path d="M92.0678 88.5005L91.5558 88.4595C91.4585 88.4595 91.3868 88.393 91.3971 88.3315L91.8169 86.2119C91.8169 86.1453 91.9244 86.1043 92.0217 86.1146L92.5337 86.1555C92.6361 86.1555 92.7078 86.2221 92.6924 86.2835L92.2777 88.4032C92.2572 88.4647 92.16 88.5107 92.0678 88.5005Z" fill="#263238"/>
<path d="M106.931 89.7856L106.419 89.7447C106.317 89.7447 106.245 89.6781 106.26 89.6167L106.68 87.497C106.68 87.4355 106.783 87.3895 106.88 87.3997L107.392 87.4407C107.489 87.4407 107.561 87.5072 107.551 87.5687L107.131 89.6883C107.121 89.76 107.008 89.7959 106.931 89.7856Z" fill="#263238"/>
<path d="M99.4969 89.1456L98.9849 89.0995C98.8876 89.0995 98.816 89.033 98.8262 88.9715L99.246 86.8519C99.246 86.7904 99.3484 86.7443 99.4508 86.7546L99.9628 86.8007C100.06 86.8007 100.132 86.8672 100.122 86.9287L99.7017 89.0483C99.6915 89.1098 99.5993 89.1507 99.4969 89.1456Z" fill="#263238"/>
<path d="M105.062 46.3475C105.011 46.7111 105.165 47.0336 105.4 47.0643C105.636 47.0951 105.871 46.8288 105.912 46.4653C105.953 46.1018 105.805 45.7792 105.569 45.7485C105.334 45.7178 105.108 45.984 105.062 46.3475Z" fill="#263238"/>
<path d="M109.169 46.9005C109.123 47.264 109.276 47.5866 109.512 47.6173C109.747 47.648 109.983 47.3818 110.024 47.0183C110.065 46.6547 109.921 46.3322 109.686 46.3014C109.45 46.2707 109.22 46.537 109.169 46.9005Z" fill="#263238"/>
<path d="M109.568 46.3066L110.479 46.1735C110.479 46.1735 109.947 46.793 109.568 46.3066Z" fill="#263238"/>
<path d="M107.556 47.2999C107.769 48.1716 108.1 49.0104 108.539 49.7933C108.336 49.901 108.113 49.9632 107.884 49.9755C107.655 49.9879 107.426 49.9502 107.213 49.865L107.556 47.2999Z" fill="#ED893E"/>
<path d="M105.083 50.9504C104.363 50.7157 103.759 50.2161 103.393 49.5527C103.384 49.5315 103.383 49.5076 103.391 49.4858C103.398 49.464 103.414 49.4458 103.434 49.4349C103.456 49.4242 103.481 49.4225 103.504 49.4302C103.527 49.4378 103.546 49.4542 103.557 49.4759C103.785 49.8748 104.103 50.2143 104.486 50.467C104.87 50.7197 105.308 50.8783 105.764 50.9299C105.787 50.9299 105.809 50.9391 105.825 50.9554C105.842 50.9718 105.851 50.9939 105.851 51.017C105.851 51.0401 105.842 51.0622 105.825 51.0785C105.809 51.0949 105.787 51.104 105.764 51.104C105.532 51.0784 105.303 51.0269 105.083 50.9504Z" fill="#263238"/>
<path d="M103.194 44.2432C103.164 44.2309 103.137 44.2116 103.117 44.1869C103.1 44.1707 103.086 44.1512 103.077 44.1296C103.068 44.1081 103.063 44.0849 103.063 44.0614C103.063 44.038 103.068 44.0148 103.077 43.9933C103.086 43.9717 103.1 43.9523 103.117 43.936C103.368 43.7117 103.669 43.5516 103.996 43.4695C104.322 43.3875 104.664 43.3859 104.991 43.465C105.013 43.4714 105.034 43.4823 105.052 43.4969C105.07 43.5115 105.085 43.5296 105.096 43.5502C105.107 43.5707 105.114 43.5932 105.116 43.6164C105.118 43.6396 105.116 43.6629 105.108 43.6851C105.095 43.7305 105.065 43.7688 105.024 43.7918C104.982 43.8148 104.934 43.8207 104.888 43.808C104.619 43.7481 104.339 43.753 104.072 43.8225C103.805 43.8919 103.558 44.0238 103.352 44.2074C103.33 44.2244 103.304 44.2365 103.277 44.2427C103.249 44.2489 103.221 44.249 103.194 44.2432Z" fill="#263238"/>
<path d="M110.894 45.3338C110.867 45.3233 110.843 45.3077 110.822 45.2877C110.643 45.0771 110.416 44.9117 110.161 44.8049C109.906 44.6982 109.629 44.6531 109.353 44.6733C109.33 44.6785 109.305 44.6787 109.282 44.6738C109.259 44.669 109.236 44.6592 109.217 44.6451C109.198 44.6311 109.182 44.6131 109.17 44.5924C109.158 44.5716 109.15 44.5486 109.148 44.5248C109.141 44.478 109.152 44.4301 109.18 44.3917C109.208 44.3534 109.25 44.3276 109.297 44.32C109.631 44.2899 109.967 44.3402 110.278 44.4667C110.589 44.5932 110.865 44.7922 111.083 45.0471C111.108 45.0766 111.123 45.1135 111.125 45.1521C111.127 45.1906 111.117 45.2289 111.096 45.2612C111.075 45.2934 111.043 45.3179 111.007 45.331C110.971 45.3441 110.931 45.345 110.894 45.3338Z" fill="#263238"/>
<path d="M91.2076 66.7712L90.926 67.0835L90.6086 67.447C90.3936 67.6928 90.1785 67.9591 89.9737 68.2099C89.5539 68.7219 89.1545 69.2698 88.7808 69.8227C87.2337 72.0125 86.0159 74.4171 85.166 76.96C84.9612 77.5949 84.7718 78.2298 84.6233 78.88C84.5721 79.0694 84.567 79.1462 84.5414 79.2333C84.5375 79.3083 84.5375 79.3835 84.5414 79.4586C84.5332 79.5386 84.5332 79.6192 84.5414 79.6992C84.5414 79.7914 84.7155 80.0064 85.1353 80.2112C85.6401 80.4383 86.1717 80.6 86.7174 80.6925C88.0343 80.9019 89.3678 80.9893 90.7008 80.9536C92.0934 80.9536 93.5065 80.8307 94.9196 80.6823C96.3328 80.5338 97.7664 80.3495 99.1539 80.1395L99.712 82.3565C96.8543 83.2866 93.9138 83.9398 90.9312 84.3072C89.3608 84.5116 87.7729 84.5459 86.1952 84.4096C85.2931 84.325 84.4073 84.1147 83.5635 83.785C83.0573 83.582 82.5817 83.3098 82.1504 82.976C81.6423 82.5777 81.2237 82.0771 80.9216 81.5066C80.4015 80.4364 80.2624 79.2208 80.5273 78.0608C80.6502 77.2774 80.8294 76.5248 81.0393 75.7363C81.4411 74.2228 81.9757 72.7476 82.6368 71.328C83.2996 69.9051 84.0716 68.5357 84.9459 67.232C85.3862 66.5818 85.8572 65.952 86.3488 65.3325C86.5996 65.0253 86.8608 64.7232 87.1168 64.4211L87.5315 63.9757C87.68 63.817 87.7977 63.689 88.0025 63.4944L91.2076 66.7712Z" fill="#FFB573"/>
<path d="M98.0377 80.6106L101.622 78.711L101.78 82.5613C101.78 82.5613 99.2204 83.6211 97.7561 82.4538L98.0377 80.6106Z" fill="#FFB573"/>
<path d="M104.576 78.4192L104.038 81.9674L101.786 82.5613L101.627 78.711L104.576 78.4192Z" fill="#FFB573"/>
<path d="M89.0419 59.552C86.784 59.9514 83.6249 66.423 83.6249 66.423L89.3132 71.543C89.3132 71.543 93.8342 66.6074 93.5936 63.6685C93.3888 61.1853 91.9142 59.04 89.0419 59.552Z" fill="#407BFF"/>
<path opacity="0.7" d="M89.0419 59.552C86.784 59.9514 83.6249 66.423 83.6249 66.423L89.3132 71.543C89.3132 71.543 93.8342 66.6074 93.5936 63.6685C93.3888 61.1853 91.9142 59.04 89.0419 59.552Z" fill="white"/>
<path d="M73.8048 174.783C73.7453 174.791 73.685 174.791 73.6256 174.783C73.0572 174.752 72.4531 173.882 72.1408 173.37C72.1311 173.355 72.1259 173.338 72.1259 173.321C72.1259 173.304 72.1311 173.287 72.1408 173.272C72.1501 173.257 72.1642 173.245 72.1808 173.239C72.1975 173.232 72.2158 173.232 72.2329 173.236C72.4172 173.272 74.0096 173.631 74.2092 174.168C74.23 174.227 74.2352 174.289 74.2244 174.35C74.2137 174.412 74.1873 174.469 74.1478 174.516C74.0659 174.641 73.9453 174.734 73.8048 174.783ZM72.407 173.482C72.8627 174.184 73.3132 174.604 73.6358 174.624C73.7093 174.625 73.7818 174.608 73.8465 174.573C73.9111 174.538 73.9655 174.487 74.0044 174.424C74.0265 174.402 74.0417 174.373 74.048 174.343C74.0544 174.312 74.0517 174.28 74.0403 174.25C73.9174 173.923 72.96 173.615 72.407 173.482Z" fill="#407BFF"/>
<path d="M73.6409 173.37C73.1688 173.499 72.6734 173.52 72.192 173.431C72.1769 173.426 72.1633 173.417 72.1525 173.406C72.1417 173.394 72.1342 173.38 72.1305 173.364C72.1234 173.351 72.1196 173.336 72.1196 173.321C72.1196 173.306 72.1234 173.291 72.1305 173.277C72.1715 173.242 73.1033 172.33 73.7536 172.376C73.8339 172.377 73.9129 172.398 73.984 172.435C74.0552 172.472 74.1166 172.526 74.1632 172.591C74.2191 172.651 74.2535 172.728 74.2609 172.81C74.2683 172.891 74.2483 172.973 74.2041 173.042C74.0571 173.21 73.8593 173.325 73.6409 173.37ZM72.407 173.288C72.919 173.359 73.8764 173.231 74.0761 172.94C74.1068 172.893 74.1324 172.822 74.0403 172.704C74.0093 172.659 73.9681 172.622 73.92 172.596C73.8719 172.57 73.8184 172.556 73.7638 172.556C73.3184 172.525 72.6732 173.047 72.407 173.288Z" fill="#407BFF"/>
<path d="M96.9216 181.096C96.4265 181.084 95.934 181.02 95.4521 180.906C95.4352 180.9 95.4207 180.889 95.4103 180.874C95.4 180.86 95.3945 180.842 95.3945 180.824C95.3945 180.806 95.4 180.789 95.4103 180.774C95.4207 180.76 95.4352 180.748 95.4521 180.742C95.6723 180.635 97.6332 179.718 98.1248 180.067C98.1691 180.097 98.2044 180.138 98.2269 180.187C98.2495 180.236 98.2584 180.29 98.2528 180.343C98.2504 180.443 98.2252 180.541 98.179 180.63C98.1329 180.719 98.067 180.796 97.9865 180.855C97.6653 181.044 97.293 181.129 96.9216 181.096ZM95.7593 180.788C96.3379 180.896 97.4131 181.039 97.8585 180.707C97.9156 180.662 97.9625 180.605 97.996 180.541C98.0296 180.476 98.049 180.405 98.0531 180.333C98.0576 180.31 98.0551 180.287 98.0459 180.266C98.0368 180.245 98.0214 180.227 98.0019 180.215C97.7254 180.026 96.5683 180.43 95.744 180.788H95.7593Z" fill="#407BFF"/>
<path d="M95.4675 180.896C95.449 180.901 95.4296 180.901 95.4112 180.896C95.3988 180.884 95.3895 180.87 95.3842 180.854C95.3788 180.838 95.3775 180.821 95.3804 180.804C95.3804 180.722 95.8464 178.792 96.9164 178.915C97.1827 178.95 97.2544 179.078 97.2697 179.186C97.3363 179.698 96.1024 180.666 95.5136 180.911L95.4675 180.896ZM96.8089 179.068C96.1331 179.068 95.7388 180.195 95.6057 180.645C96.2457 180.307 97.1417 179.503 97.0854 179.191C97.0854 179.165 97.0854 179.094 96.8857 179.073L96.8089 179.068Z" fill="#407BFF"/>
<path d="M105.472 45.7536L106.378 45.6205C106.378 45.6205 105.841 46.24 105.472 45.7536Z" fill="#263238"/>
</svg>
