<svg xmlns="http://www.w3.org/2000/svg" width="27.516" height="32.103" viewBox="0 0 27.516 32.103"><defs><style>.a{fill:#ff7058;}.b{fill:#ffc428;}.c{fill:#fff;}</style></defs><g transform="translate(0 0)"><path class="a" d="M52.84,155.516H35.678A3.565,3.565,0,0,1,32,152.077V128H56.518v24.077A3.565,3.565,0,0,1,52.84,155.516Zm0,0" transform="translate(-30.552 -123.414)"/><path class="b" d="M27.516,70.879H0V66.293A2.293,2.293,0,0,1,2.293,64h22.93a2.293,2.293,0,0,1,2.293,2.293Zm0,0" transform="translate(0 -64)"/><path class="c" d="M136.823,255.651a1.147,1.147,0,0,0-1.621,0l-2.965,2.965-2.965-2.965a1.146,1.146,0,1,0-1.621,1.621l2.965,2.965-2.965,2.965a1.146,1.146,0,0,0,1.621,1.621l2.965-2.965,2.965,2.965a1.146,1.146,0,0,0,1.621-1.621l-2.965-2.965,2.965-2.965A1.147,1.147,0,0,0,136.823,255.651Zm0,0" transform="translate(-118.192 -241.606)"/></g></svg>