<svg xmlns="http://www.w3.org/2000/svg" width="42.082" height="28.931" viewBox="0 0 42.082 28.931"><defs><style>.a{fill:#1e88e5;}.b{fill:#2196f3;}.c{fill:#64b5f6;}</style></defs><g transform="translate(0 -80)"><path class="a" d="M2.63,108.931H39.452a2.631,2.631,0,0,0,2.63-2.63V82.63A2.631,2.631,0,0,0,39.452,80H2.63A2.631,2.631,0,0,0,0,82.63V106.3A2.631,2.631,0,0,0,2.63,108.931Z"/><path class="b" d="M2.63,241.1H39.452a2.6,2.6,0,0,0,2.63-2.63,1.317,1.317,0,0,0-.537-1.06L21.82,224.255a1.315,1.315,0,0,0-1.557,0L.537,237.406A1.317,1.317,0,0,0,0,238.466,2.6,2.6,0,0,0,2.63,241.1Z" transform="translate(0 -132.164)"/><path class="c" d="M2.63,80H39.452a2.6,2.6,0,0,1,2.63,2.63,1.317,1.317,0,0,1-.537,1.06L21.809,97.859a1.315,1.315,0,0,1-1.533,0L.539,83.69A1.312,1.312,0,0,1,0,82.63,2.6,2.6,0,0,1,2.63,80Z"/></g></svg>