<svg xmlns="http://www.w3.org/2000/svg" width="34.41" height="25.312" viewBox="0 0 34.41 25.312">
  <g id="Group_2434" data-name="Group 2434" transform="translate(-1493 -990)">
    <path id="Subtraction_20" data-name="Subtraction 20" d="M17.071,25.312a14.055,14.055,0,0,1-6.952-1.96,23.8,23.8,0,0,1-5.392-4.311A34.118,34.118,0,0,1,0,12.77H.058C.344,12.249,7.218,0,17.21,0c5.883,0,11.662,4.238,17.174,12.595H34.4l-.005.008.013.022,0,.007h-.038C28.823,21.046,23,25.312,17.071,25.312Zm.457-22.379a10,10,0,1,0,10,10A10.012,10.012,0,0,0,17.528,2.932Z" transform="translate(1493 990)" fill="#f7907e"/>
    <circle id="Ellipse_519" data-name="Ellipse 519" cx="7" cy="7" r="7" transform="translate(1503 996)" fill="#f7907e"/>
  </g>
</svg>
