<svg xmlns="http://www.w3.org/2000/svg" xmlns:xlink="http://www.w3.org/1999/xlink" width="53.071" height="52.406" viewBox="0 0 53.071 52.406"><defs><style>.a{fill:#dfdede;opacity:0.87;}.b{opacity:0.57;fill:url(#a);}</style><linearGradient id="a" x1="0.5" x2="0.5" y2="1" gradientUnits="objectBoundingBox"><stop offset="0" stop-color="#ff2525"/><stop offset="1" stop-color="#ffe53b"/></linearGradient></defs><g transform="translate(0.417 0.226)"><path class="a" d="M26,52A26.007,26.007,0,0,1,15.879,2.043,26.007,26.007,0,0,1,36.12,49.957,25.837,25.837,0,0,1,26,52ZM26,3.193A22.807,22.807,0,1,0,48.807,26,22.833,22.833,0,0,0,26,3.193Z" transform="translate(-0.417 -0.226)"/><path class="b" d="M0,47.974l3.858-6.643A18.081,18.081,0,1,0,15.024,7.6l1-7.6A25.75,25.75,0,0,1,30.843,43.734a25.572,25.572,0,0,1-18.206,7.541A25.6,25.6,0,0,1,0,47.974Z" transform="translate(14.269 0.905)"/></g></svg>