<svg xmlns="http://www.w3.org/2000/svg" width="37.056" height="37.056" viewBox="0 0 37.056 37.056"><defs><style>.a{opacity:0.72;}.b{fill:#ff7058;}.c{fill:#4a63bc;}</style></defs><g class="a" transform="translate(0 0)"><g transform="translate(1.087 1.319)"><g transform="translate(0 0)"><g transform="translate(0)"><path class="b" d="M34.439,32.4,2.253.212a.722.722,0,0,0-1.021,0L.211,1.232a.722.722,0,0,0,0,1.021l5.97,5.97c-.143.113-.283.228-.685.569A18.262,18.262,0,0,0,.034,17.1a.726.726,0,0,0,0,.441A18.193,18.193,0,0,0,17.325,30.32a17.841,17.841,0,0,0,8.7-2.253L32.4,34.439a.722.722,0,0,0,1.021,0l1.021-1.021A.722.722,0,0,0,34.439,32.4ZM17.325,27.432A10.118,10.118,0,0,1,7.219,17.326a10.385,10.385,0,0,1,1.339-5.009l.306-.5.376-.533,3.139,3.139a5.656,5.656,0,0,0-.828,2.906A5.782,5.782,0,0,0,17.325,23.1a5.657,5.657,0,0,0,2.906-.828l3.139,3.139A10.083,10.083,0,0,1,17.325,27.432Z" transform="translate(0 0)"/><path class="b" d="M91.408,63.807a.723.723,0,0,0,.155.79l4.991,4.991a.722.722,0,0,0,1.232-.519,5.735,5.735,0,0,0-5.7-5.7A.788.788,0,0,0,91.408,63.807Z" transform="translate(-74.692 -51.809)"/><path class="b" d="M59.383,27.491a.723.723,0,0,0,.822.141,10,10,0,0,1,4.348-.995A10.118,10.118,0,0,1,74.659,36.744a10,10,0,0,1-.995,4.348.722.722,0,0,0,.141.822l2.5,2.5a.721.721,0,0,0,.51.211h0a.725.725,0,0,0,.512-.214,18.813,18.813,0,0,0,4.513-7.449.726.726,0,0,0,0-.441A18.193,18.193,0,0,0,64.553,23.75a17.979,17.979,0,0,0-6.322,1.145.722.722,0,0,0-.257,1.186Z" transform="translate(-47.227 -19.418)"/></g></g></g><rect class="c" width="4.46" height="47.945" rx="1" transform="translate(0 3.154) rotate(-45)"/></g></svg>