<svg width="63" height="79" viewBox="0 0 63 79" fill="none" xmlns="http://www.w3.org/2000/svg">
<path d="M60.582 60.3819H2.19532C0.982916 60.3819 0 59.399 0 58.1866V12.1924C0 10.98 0.982916 9.99707 2.19532 9.99707H60.582C61.7944 9.99707 62.7773 10.98 62.7773 12.1924V58.1866C62.7773 59.3992 61.7945 60.3819 60.582 60.3819Z" fill="white"/>
<path d="M62.7773 20.1413V12.1924C62.7773 10.98 61.7944 9.99707 60.582 9.99707H2.19532C0.982916 9.99707 0 10.98 0 12.1924V20.1413H62.7773Z" fill="#FF7EB8"/>
<path d="M6.45308 16.9931C7.3342 16.9931 8.04849 16.2788 8.04849 15.3977C8.04849 14.5165 7.3342 13.8022 6.45308 13.8022C5.57196 13.8022 4.85767 14.5165 4.85767 15.3977C4.85767 16.2788 5.57196 16.9931 6.45308 16.9931Z" fill="#FF5BA8"/>
<path d="M11.5463 16.9931C12.4275 16.9931 13.1417 16.2788 13.1417 15.3977C13.1417 14.5165 12.4275 13.8022 11.5463 13.8022C10.6652 13.8022 9.95093 14.5165 9.95093 15.3977C9.95093 16.2788 10.6652 16.9931 11.5463 16.9931Z" fill="white"/>
<path d="M16.6394 16.9931C17.5205 16.9931 18.2348 16.2788 18.2348 15.3977C18.2348 14.5165 17.5205 13.8022 16.6394 13.8022C15.7582 13.8022 15.0439 14.5165 15.0439 15.3977C15.0439 16.2788 15.7582 16.9931 16.6394 16.9931Z" fill="#F1D971"/>
<path d="M57.1873 17.1903H37.26V13.6052H57.1873C57.5914 13.6052 57.9191 13.9329 57.9191 14.337V16.4586C57.9191 16.8626 57.5916 17.1903 57.1873 17.1903Z" fill="#FFDBED"/>
<path d="M37.3582 13.6508C36.5846 12.8771 35.3258 12.8771 34.5521 13.6508C33.7785 14.4244 33.7785 15.6832 34.5521 16.4568C35.143 17.0477 36.0161 17.1857 36.7406 16.8742L37.3769 17.5106C37.6628 17.7963 38.1261 17.7963 38.4118 17.5106C38.6975 17.2249 38.6975 16.7614 38.4118 16.4757L37.7755 15.8394C38.087 15.1148 37.949 14.2415 37.3582 13.6508ZM35.587 14.6857C35.79 14.4827 36.1203 14.4827 36.3233 14.6857C36.5263 14.8886 36.5263 15.219 36.3233 15.422C36.1203 15.625 35.79 15.625 35.587 15.422C35.384 15.2188 35.384 14.8886 35.587 14.6857Z" fill="white"/>
<path d="M19.3098 35.5105H4.85433C4.45025 35.5105 4.12256 35.1829 4.12256 34.7787V23.9063C4.12256 23.5022 4.45025 23.1746 4.85433 23.1746H19.3098C19.7138 23.1746 20.0415 23.5022 20.0415 23.9063V34.7787C20.0415 35.1828 19.7138 35.5105 19.3098 35.5105Z" fill="#F1D971"/>
<path d="M38.6162 35.5102H24.1607C23.7566 35.5102 23.429 35.1827 23.429 34.7785V23.9061C23.429 23.502 23.7566 23.1743 24.1607 23.1743H38.6162C39.0202 23.1743 39.3479 23.502 39.3479 23.9061V34.7785C39.3479 35.1826 39.0202 35.5102 38.6162 35.5102Z" fill="#8399FE"/>
<path d="M57.9228 35.5102H43.4674C43.0633 35.5102 42.7356 35.1827 42.7356 34.7785V23.9061C42.7356 23.502 43.0633 23.1743 43.4674 23.1743H57.9228C58.3269 23.1743 58.6546 23.502 58.6546 23.9061V34.7785C58.6546 35.1826 58.3269 35.5102 57.9228 35.5102Z" fill="#F1D971"/>
<path d="M57.9227 56.7081H4.85433C4.45025 56.7081 4.12256 56.3806 4.12256 55.9763V38.942C4.12256 38.5379 4.45025 38.2102 4.85433 38.2102H57.9226C58.3267 38.2102 58.6544 38.5379 58.6544 38.942V55.9763C58.6545 56.3804 58.3268 56.7081 57.9227 56.7081Z" fill="#8399FE"/>
<path d="M18.0463 38.2102H4.85433C4.45025 38.2102 4.12256 38.5379 4.12256 38.942V55.9763C4.12256 56.3804 4.45025 56.7081 4.85433 56.7081H18.0461V38.2102H18.0463Z" fill="#FFA8CF"/>
<path d="M21.4364 41.0264H29.2196C29.6237 41.0264 29.9514 41.3541 29.9514 41.7581C29.9514 42.1622 29.6237 42.4899 29.2196 42.4899H21.4364C21.0323 42.4899 20.7046 42.1622 20.7046 41.7581C20.7046 41.3541 21.0323 41.0264 21.4364 41.0264Z" fill="white"/>
<path d="M51.9979 41.0264H54.5124C54.9165 41.0264 55.2442 41.3541 55.2442 41.7581C55.2442 42.1622 54.9165 42.4899 54.5124 42.4899H51.9979C51.5938 42.4899 51.2661 42.1622 51.2661 41.7581C51.2661 41.3541 51.5938 41.0264 51.9979 41.0264Z" fill="white"/>
<path d="M21.4369 44.0249H33.6102C34.0143 44.0249 34.3419 44.3526 34.3419 44.7567C34.3419 45.1608 34.0143 45.4884 33.6102 45.4884H21.4369C21.0328 45.4884 20.7051 45.1608 20.7051 44.7567C20.7051 44.3526 21.0328 44.0249 21.4369 44.0249Z" fill="white"/>
<path d="M21.4369 47.0232H54.5125C54.9166 47.0232 55.2443 47.3509 55.2443 47.755C55.2443 48.1591 54.9166 48.4867 54.5125 48.4867H21.4369C21.0328 48.4867 20.7051 48.1591 20.7051 47.755C20.7051 47.3509 21.0328 47.0232 21.4369 47.0232Z" fill="white"/>
<path d="M21.4369 50.0217H54.5125C54.9166 50.0217 55.2443 50.3494 55.2443 50.7535C55.2443 51.1576 54.9166 51.4853 54.5125 51.4853H21.4369C21.0328 51.4853 20.7051 51.1576 20.7051 50.7535C20.7051 50.3494 21.0328 50.0217 21.4369 50.0217Z" fill="white"/>
<path d="M21.4369 54.4841C21.0328 54.4841 20.7051 54.1564 20.7051 53.7523C20.7051 53.3482 21.0328 53.0205 21.4369 53.0205H54.5125C54.9166 53.0205 55.2443 53.3482 55.2443 53.7523C55.2443 54.1564 54.9166 54.4841 54.5125 54.4841" fill="white"/>
<path d="M46.715 6.39101C45.5616 6.39101 44.6233 5.45273 44.6233 4.29931C44.6233 3.14604 45.5616 2.20776 46.715 2.20776C47.8683 2.20776 48.8065 3.14604 48.8065 4.29931C48.8065 5.45273 47.8683 6.39101 46.715 6.39101ZM46.715 3.67131C46.3687 3.67131 46.0868 3.95304 46.0868 4.29931C46.0868 4.64559 46.3687 4.92747 46.715 4.92747C47.0613 4.92747 47.343 4.64559 47.343 4.29931C47.343 3.95304 47.0613 3.67131 46.715 3.67131Z" fill="#6583FE"/>
<path d="M16.6398 7.35342C15.4864 7.35342 14.5481 6.41514 14.5481 5.26186C14.5481 4.10844 15.4864 3.17017 16.6398 3.17017C17.7931 3.17017 18.7313 4.10844 18.7313 5.26186C18.7313 6.41514 17.7929 7.35342 16.6398 7.35342ZM16.6398 4.63371C16.2935 4.63371 16.0116 4.91559 16.0116 5.26186C16.0116 5.60814 16.2935 5.88987 16.6398 5.88987C16.9861 5.88987 17.2678 5.60814 17.2678 5.26186C17.2678 4.91559 16.9861 4.63371 16.6398 4.63371Z" fill="#6583FE"/>
<path d="M33.2134 67.6444C32.0601 67.6444 31.1218 66.7062 31.1218 65.5527C31.1218 64.3995 32.0601 63.4612 33.2134 63.4612C34.3668 63.4612 35.3051 64.3995 35.3051 65.5527C35.3051 66.7062 34.3668 67.6444 33.2134 67.6444ZM33.2134 64.9247C32.8671 64.9247 32.5854 65.2065 32.5854 65.5527C32.5854 65.899 32.8671 66.1809 33.2134 66.1809C33.5597 66.1809 33.8415 65.899 33.8415 65.5527C33.8415 65.2065 33.5597 64.9247 33.2134 64.9247Z" fill="#FFCC42"/>
<path d="M39.9483 4.68334C39.544 4.68334 39.2165 4.3558 39.2165 3.95157C39.2165 3.46728 38.8225 3.07344 38.3382 3.07344C37.934 3.07344 37.6064 2.7459 37.6064 2.34167C37.6064 1.93744 37.934 1.6099 38.3382 1.6099C38.8225 1.6099 39.2165 1.21606 39.2165 0.731772C39.2165 0.327541 39.544 0 39.9483 0C40.3525 0 40.68 0.327541 40.68 0.731772C40.68 1.21606 41.0739 1.6099 41.558 1.6099C41.9622 1.6099 42.2898 1.93744 42.2898 2.34167C42.2898 2.7459 41.9622 3.07344 41.558 3.07344C41.0739 3.07344 40.68 3.46728 40.68 3.95157C40.68 4.3558 40.3525 4.68334 39.9483 4.68334Z" fill="#FF5BA8"/>
<path d="M25.254 68.291C24.8498 68.291 24.5223 67.9635 24.5223 67.5592C24.5223 67.0749 24.1284 66.6811 23.6441 66.6811C23.2399 66.6811 22.9124 66.3536 22.9124 65.9493C22.9124 65.5451 23.2399 65.2176 23.6441 65.2176C24.1284 65.2176 24.5223 64.8237 24.5223 64.3394C24.5223 63.9352 24.8498 63.6077 25.254 63.6077C25.6583 63.6077 25.9858 63.9352 25.9858 64.3394C25.9858 64.8237 26.3796 65.2176 26.8639 65.2176C27.2682 65.2176 27.5957 65.5451 27.5957 65.9493C27.5957 66.3536 27.2682 66.6811 26.8639 66.6811C26.3796 66.6811 25.9858 67.0749 25.9858 67.5592C25.9858 67.9635 25.6583 68.291 25.254 68.291Z" fill="#FF5BA8"/>
<path d="M60.582 60.3819H2.19532C0.982916 60.3819 0 59.399 0 58.1866V12.1924C0 10.98 0.982916 9.99707 2.19532 9.99707H60.582C61.7944 9.99707 62.7773 10.98 62.7773 12.1924V58.1866C62.7773 59.3992 61.7945 60.3819 60.582 60.3819Z" fill="url(#paint0_linear)"/>
<path d="M44.9709 62.8363C44.9261 63.5924 44.3113 64.2941 43.3962 64.2941H39.0563V77.4655C39.0563 78.313 38.3504 79 37.4796 79H25.4966C24.6258 79 23.9199 78.313 23.9199 77.4655V64.2941H19.58C18.6649 64.2941 18.0502 63.5924 18.0054 62.8363L18 59.0178H44.9759L44.9709 62.8363Z" fill="#9FB0FE"/>
<path d="M38.5013 60.6234V73.8005C38.5013 74.6484 37.8139 75.3357 36.9661 75.3357H25.2989C24.4511 75.3357 23.7638 74.6484 23.7638 73.8005V60.6234H19.5382C18.1706 60.6234 17.4856 58.9698 18.4527 58.0027L30.047 46.4084C30.6465 45.8089 31.6185 45.8089 32.218 46.4084L43.8123 58.0027C44.7794 58.9698 44.0944 60.6234 42.7268 60.6234H38.5013Z" fill="#6583FE"/>
<defs>
<linearGradient id="paint0_linear" x1="31.3886" y1="9.99707" x2="31.3886" y2="60.3821" gradientUnits="userSpaceOnUse">
<stop offset="0.0028" stop-color="#FF7EB8" stop-opacity="0"/>
<stop offset="1" stop-color="#FF7EB8" stop-opacity="0.6"/>
</linearGradient>
</defs>
</svg>
