<svg xmlns="http://www.w3.org/2000/svg" width="42.977" height="37.056" viewBox="0 0 42.977 37.056"><defs><style>.a{opacity:0.72;}.b{fill:#f2f2f2;}.c{fill:#ffc428;}.d{fill:#cdd6e0;}.e{fill:#ff7058;}.f{fill:#1e41b9;}.g{fill:none;stroke:#fff;stroke-linecap:round;}</style></defs><g class="a"><path class="b" d="M35.974,118.165H1.929A1.935,1.935,0,0,1,0,116.236V92.8H37.9v23.436A1.935,1.935,0,0,1,35.974,118.165Z" transform="translate(0 -85.162)"/><path class="c" d="M36.36,0H1.543A1.523,1.523,0,0,0,0,1.543V8.391H37.9V1.543A1.523,1.523,0,0,0,36.36,0Z" transform="translate(0)"/><g transform="translate(1.199 9.47)"><rect class="d" width="8.266" height="22.392"/></g><g transform="translate(10.309 9.47)"><rect class="d" width="8.266" height="22.392"/></g><g transform="translate(19.42 9.47)"><rect class="d" width="8.266" height="22.392"/></g><g transform="translate(28.53 9.47)"><rect class="d" width="8.266" height="22.392"/></g><rect class="e" width="5.305" height="5.305" transform="translate(3.333 12.116)"/><rect class="e" width="5.305" height="5.305" transform="translate(12.217 18.037)"/><rect class="e" width="5.305" height="5.305" transform="translate(21.1 12.116)"/><rect class="e" width="5.305" height="5.305" transform="translate(29.984 22.973)"/><ellipse class="f" cx="6.282" cy="6.282" rx="6.282" ry="6.282" transform="translate(30.414 24.492)"/><line class="g" y2="5.277" transform="translate(36.553 27.872)"/><line class="g" x2="5.757" transform="translate(33.674 30.752)"/></g></svg>