<svg width="34" height="45" viewBox="0 0 34 45" fill="none" xmlns="http://www.w3.org/2000/svg">
<g opacity="0.76">
<g opacity="0.76">
<path opacity="0.76" d="M27.067 44.5547H6.22503C5.07927 44.5916 3.96562 44.1726 3.12838 43.3896C2.29115 42.6065 1.79869 41.5233 1.75903 40.3777V11.1387H31.533V40.3777C31.4934 41.5233 31.0009 42.6065 30.1637 43.3896C29.3264 44.1726 28.2128 44.5916 27.067 44.5547Z" fill="#FF7058"/>
<path opacity="0.76" d="M33.416 13.9233H0V8.35434C0 7.61571 0.293419 6.90733 0.815708 6.38504C1.338 5.86275 2.04637 5.56934 2.785 5.56934H30.631C31.3696 5.56934 32.078 5.86275 32.6003 6.38504C33.1226 6.90733 33.416 7.61571 33.416 8.35434V13.9233Z" fill="#FFC428"/>
<path opacity="0.76" d="M22.6261 22.6257C22.4968 22.4964 22.3434 22.3938 22.1744 22.3238C22.0055 22.2538 21.8245 22.2178 21.6416 22.2178C21.4588 22.2178 21.2777 22.2538 21.1088 22.3238C20.9399 22.3938 20.7864 22.4964 20.6571 22.6257L17.0571 26.2257L13.4571 22.6257C13.196 22.3646 12.8419 22.2179 12.4726 22.2179C12.1034 22.2179 11.7492 22.3646 11.4881 22.6257C11.227 22.8868 11.0803 23.2409 11.0803 23.6102C11.0803 23.9794 11.227 24.3336 11.4881 24.5947L15.0881 28.1947L11.4881 31.7947C11.227 32.0558 11.0803 32.4099 11.0803 32.7792C11.0803 33.1484 11.227 33.5026 11.4881 33.7637C11.7492 34.0248 12.1034 34.1715 12.4726 34.1715C12.8419 34.1715 13.196 34.0248 13.4571 33.7637L17.0571 30.1637L20.6571 33.7637C20.7864 33.893 20.9399 33.9955 21.1088 34.0655C21.2777 34.1355 21.4588 34.1715 21.6416 34.1715C21.8245 34.1715 22.0055 34.1355 22.1744 34.0655C22.3433 33.9955 22.4968 33.893 22.6261 33.7637C22.7554 33.6344 22.858 33.4809 22.9279 33.312C22.9979 33.1431 23.0339 32.962 23.0339 32.7792C23.0339 32.5964 22.9979 32.4153 22.9279 32.2464C22.858 32.0775 22.7554 31.924 22.6261 31.7947L19.0261 28.1947L22.6261 24.5947C22.7554 24.4654 22.858 24.3119 22.928 24.143C22.998 23.9741 23.034 23.793 23.034 23.6102C23.034 23.4273 22.998 23.2463 22.928 23.0774C22.858 22.9085 22.7554 22.755 22.6261 22.6257Z" fill="white"/>
</g>
<path opacity="0.76" d="M12.1101 2.94512H20.7471V5.64512H23.6921V2.45412C23.6953 2.13105 23.6341 1.81058 23.512 1.51147C23.3898 1.21235 23.2093 0.940594 22.9809 0.71209C22.7525 0.483587 22.4808 0.302927 22.1817 0.180678C21.8826 0.0584287 21.5622 -0.00295421 21.2391 0.000119717H11.6201C11.297 -0.00308802 10.9764 0.0581961 10.6772 0.180385C10.3781 0.302574 10.1063 0.483214 9.87774 0.711731C9.64923 0.940247 9.46859 1.21205 9.3464 1.51123C9.22421 1.81041 9.16293 2.13096 9.16614 2.45412V5.64412H12.1111V2.94412L12.1101 2.94512Z" fill="#1E41B9"/>
</g>
</svg>
