<svg width="96" height="108" viewBox="0 0 96 108" fill="none" xmlns="http://www.w3.org/2000/svg">
<path d="M55.126 9.28393e-05H4.02516C3.4792 -0.00362773 2.93827 0.104516 2.43571 0.317857C1.93314 0.531199 1.4796 0.845218 1.10305 1.24055C0.726492 1.63589 0.4349 2.10416 0.246249 2.6165C0.057598 3.12885 -0.0241173 3.6744 0.00614709 4.21953L4.79872 103.577C4.867 104.709 5.361 105.773 6.1815 106.555C7.00201 107.338 8.08826 107.781 9.2221 107.796H60.323C60.8688 107.8 61.4096 107.692 61.912 107.478C62.4144 107.265 62.8677 106.951 63.244 106.555C63.6202 106.16 63.9115 105.692 64.0997 105.179C64.288 104.667 64.3692 104.122 64.3385 103.577L59.5494 4.21953C59.4811 3.08765 58.9871 2.02352 58.1666 1.24084C57.3461 0.458164 56.2599 0.0149068 55.126 9.28393e-05Z" fill="white"/>
<path d="M57.0142 9.4307e-05H5.89929C5.35348 -0.00365619 4.81269 0.104496 4.3103 0.317875C3.80792 0.531254 3.35459 0.845334 2.97831 1.24073C2.60203 1.63612 2.31077 2.10443 2.12253 2.61676C1.93428 3.1291 1.85303 3.67457 1.88379 4.21953L6.67285 103.577C6.74113 104.709 7.23512 105.773 8.05563 106.555C8.87613 107.338 9.96238 107.781 11.0962 107.796H62.1971C62.7429 107.8 63.2837 107.692 63.7861 107.478C64.2885 107.265 64.7418 106.951 65.1181 106.555C65.4944 106.16 65.7856 105.692 65.9739 105.179C66.1621 104.667 66.2434 104.122 66.2126 103.577L61.4235 4.21953C61.3555 3.09004 60.8634 2.02789 60.0459 1.24557C59.2284 0.463243 58.1456 0.0184245 57.0142 9.4307e-05Z" fill="#407BFF"/>
<path d="M10.9521 104.983C10.5757 104.974 10.2163 104.824 9.94391 104.564C9.67156 104.304 9.50574 103.952 9.47878 103.577L4.69676 4.21947C4.6882 4.03812 4.7165 3.85692 4.77994 3.68682C4.84338 3.51671 4.94064 3.36124 5.06586 3.22978C5.19107 3.09832 5.34163 2.99361 5.50845 2.92197C5.67527 2.85034 5.85488 2.81326 6.03643 2.81299H57.1373C57.5142 2.82092 57.8745 2.9697 58.1472 3.23002C58.4199 3.49034 58.5852 3.84333 58.6106 4.21947L63.3997 103.577C63.4082 103.758 63.38 103.939 63.3168 104.108C63.2536 104.278 63.1566 104.434 63.0318 104.565C62.9069 104.696 62.7568 104.801 62.5904 104.873C62.424 104.945 62.2447 104.982 62.0635 104.983H10.9521Z" fill="#C6D7FF"/>
<path opacity="0.1" d="M10.9275 104.28C10.7396 104.274 10.5605 104.199 10.4244 104.069C10.2882 103.939 10.2045 103.764 10.1891 103.577L5.4 4.21947C5.39671 4.12919 5.41148 4.03915 5.44345 3.95465C5.47542 3.87015 5.52394 3.79288 5.58617 3.72738C5.6484 3.66188 5.72307 3.60946 5.80583 3.57321C5.88858 3.53695 5.97774 3.51758 6.06808 3.51624H57.169C57.3571 3.52173 57.5366 3.59658 57.6729 3.7264C57.8092 3.85621 57.8927 4.03182 57.9074 4.21947L62.6964 103.577C62.6997 103.667 62.6849 103.757 62.653 103.841C62.621 103.926 62.5725 104.003 62.5102 104.069C62.448 104.134 62.3733 104.187 62.2906 104.223C62.2078 104.259 62.1187 104.279 62.0283 104.28H10.9275Z" fill="white"/>
<g opacity="0.3">
<path opacity="0.3" d="M26.3495 98.5697H16.2264C15.9485 98.5665 15.6821 98.4581 15.4811 98.2662C15.2801 98.0743 15.1594 97.8133 15.1434 97.5359L14.405 82.1666C14.3958 82.0307 14.4147 81.8944 14.4607 81.7663C14.5066 81.6381 14.5786 81.5208 14.672 81.4217C14.7655 81.3227 14.8784 81.244 15.0037 81.1907C15.1289 81.1373 15.2639 81.1105 15.4001 81.1117H25.5408C25.818 81.114 26.0839 81.2218 26.2844 81.4132C26.485 81.6046 26.605 81.8652 26.6202 82.142L27.3481 97.5148C27.3568 97.6508 27.3374 97.7872 27.291 97.9154C27.2446 98.0436 27.1723 98.1608 27.0786 98.2598C26.9849 98.3588 26.8718 98.4374 26.7463 98.4907C26.6209 98.544 26.4858 98.5709 26.3495 98.5697ZM15.386 81.4704C15.2983 81.4699 15.2113 81.4871 15.1304 81.521C15.0494 81.5548 14.9761 81.6045 14.9148 81.6673C14.8551 81.7319 14.8088 81.8078 14.7786 81.8905C14.7484 81.9732 14.735 82.0611 14.739 82.149L15.4809 97.5148C15.4907 97.703 15.5718 97.8804 15.7076 98.011C15.8434 98.1416 16.0239 98.2156 16.2123 98.218H26.3495C26.4376 98.2187 26.525 98.2012 26.6061 98.1667C26.6872 98.1322 26.7604 98.0814 26.821 98.0174C26.8817 97.9534 26.9286 97.8777 26.9588 97.7949C26.9889 97.712 27.0018 97.6239 26.9965 97.5359L26.2546 82.1666C26.2456 81.9787 26.1653 81.8013 26.0301 81.6707C25.8948 81.54 25.7148 81.4658 25.5267 81.4634L15.386 81.4704Z" fill="#FAFAFA"/>
<path opacity="0.3" d="M25.3931 85.0394H15.8747C15.8281 85.0394 15.7834 85.0208 15.7504 84.9879C15.7175 84.9549 15.6989 84.9102 15.6989 84.8636C15.6989 84.8169 15.7175 84.7722 15.7504 84.7392C15.7834 84.7063 15.8281 84.6877 15.8747 84.6877H25.4036C25.4503 84.6877 25.495 84.7063 25.5279 84.7392C25.5609 84.7722 25.5794 84.8169 25.5794 84.8636C25.5794 84.9102 25.5609 84.9549 25.5279 84.9879C25.495 85.0208 25.4503 85.0394 25.4036 85.0394H25.3931Z" fill="#FAFAFA"/>
<path opacity="0.3" d="M25.4915 87.0259H15.9591C15.9128 87.025 15.8686 87.0062 15.8358 86.9734C15.803 86.9407 15.7842 86.8965 15.7833 86.8501C15.7833 86.8035 15.8018 86.7588 15.8348 86.7258C15.8678 86.6928 15.9125 86.6743 15.9591 86.6743H25.4915C25.5382 86.6743 25.5829 86.6928 25.6159 86.7258C25.6488 86.7588 25.6674 86.8035 25.6674 86.8501C25.6665 86.8965 25.6476 86.9407 25.6149 86.9734C25.5821 87.0062 25.5379 87.025 25.4915 87.0259Z" fill="#FAFAFA"/>
<path opacity="0.3" d="M25.5865 89.0126H16.0541C16.0077 89.0117 15.9635 88.9929 15.9307 88.9601C15.898 88.9274 15.8792 88.8832 15.8783 88.8368C15.8783 88.7902 15.8968 88.7455 15.9297 88.7125C15.9627 88.6795 16.0074 88.661 16.0541 88.661H25.5865C25.6331 88.661 25.6778 88.6795 25.7108 88.7125C25.7438 88.7455 25.7623 88.7902 25.7623 88.8368C25.7623 88.8834 25.7438 88.9282 25.7108 88.9611C25.6778 88.9941 25.6331 89.0126 25.5865 89.0126Z" fill="#FAFAFA"/>
<path opacity="0.3" d="M25.6814 90.9992H16.1525C16.1059 90.9992 16.0612 90.9807 16.0282 90.9477C15.9952 90.9147 15.9767 90.87 15.9767 90.8234C15.9767 90.7768 15.9952 90.732 16.0282 90.6991C16.0612 90.6661 16.1059 90.6476 16.1525 90.6476H25.6814C25.728 90.6476 25.7728 90.6661 25.8057 90.6991C25.8387 90.732 25.8572 90.7768 25.8572 90.8234C25.8572 90.87 25.8387 90.9147 25.8057 90.9477C25.7728 90.9807 25.728 90.9992 25.6814 90.9992Z" fill="#FAFAFA"/>
<path opacity="0.3" d="M25.7764 92.9859H16.2475C16.2008 92.9859 16.1561 92.9674 16.1232 92.9344C16.0902 92.9014 16.0717 92.8567 16.0717 92.8101C16.0717 92.7635 16.0902 92.7187 16.1232 92.6858C16.1561 92.6528 16.2008 92.6343 16.2475 92.6343H25.7764C25.823 92.6343 25.8677 92.6528 25.9007 92.6858C25.9336 92.7187 25.9522 92.7635 25.9522 92.8101C25.9522 92.8567 25.9336 92.9014 25.9007 92.9344C25.8677 92.9674 25.823 92.9859 25.7764 92.9859Z" fill="#FAFAFA"/>
<path opacity="0.3" d="M23.9198 94.9726H16.3424C16.2958 94.9726 16.251 94.9541 16.2181 94.9211C16.1851 94.8881 16.1666 94.8434 16.1666 94.7968C16.1666 94.7502 16.1851 94.7054 16.2181 94.6725C16.251 94.6395 16.2958 94.621 16.3424 94.621H23.9198C23.9664 94.621 24.0111 94.6395 24.0441 94.6725C24.0771 94.7054 24.0956 94.7502 24.0956 94.7968C24.0947 94.8431 24.0759 94.8873 24.0431 94.9201C24.0103 94.9529 23.9661 94.9717 23.9198 94.9726Z" fill="#FAFAFA"/>
</g>
<g opacity="0.3">
<path opacity="0.3" d="M32.7314 42.1804L25.7799 43.2915C25.5116 42.63 25.1569 42.0069 24.725 41.4384C24.3089 41.0017 23.8168 40.6443 23.2728 40.3836L23.533 45.8337C27.3985 46.851 29.9993 47.9247 31.3355 49.0545C32.1873 49.7644 32.8786 50.6471 33.3635 51.6443C33.8485 52.6415 34.116 53.7303 34.1484 54.8387C34.2415 56.1358 34.0031 57.4354 33.4557 58.6151C32.9351 59.7156 32.1859 60.6925 31.2581 61.4808C30.3939 62.2211 29.3944 62.7871 28.315 63.1474C27.048 63.5284 25.7349 63.7342 24.4121 63.7593L24.4578 64.7192C24.4684 64.8969 24.4423 65.0748 24.3812 65.242C24.3201 65.4092 24.2253 65.562 24.1026 65.6909C23.9799 65.8199 23.832 65.9222 23.6681 65.9916C23.5042 66.0609 23.3277 66.0958 23.1497 66.094C22.78 66.0902 22.4254 65.9461 22.1578 65.6909C21.8902 65.4357 21.7295 65.0884 21.7081 64.7192L21.6624 63.7593C20.1192 63.6601 18.5955 63.3599 17.13 62.8661C16.0074 62.4605 14.9692 61.8514 14.0674 61.0694C13.2443 60.3666 12.5474 59.5282 12.0069 58.5904C11.4649 57.5819 11.0706 56.5008 10.836 55.3802L18.3994 54.4976C18.6853 55.7376 19.037 56.6343 19.4542 57.1875C19.9785 57.8302 20.6521 58.3348 21.4163 58.6573L21.0963 52.0046C19.2232 51.5383 17.3893 50.927 15.611 50.1762C14.4606 49.6026 13.4719 48.7504 12.7348 47.6973C11.8732 46.48 11.3967 45.0322 11.367 43.5411C11.2852 42.5123 11.4285 41.478 11.7867 40.5102C12.145 39.5423 12.7097 38.664 13.4415 37.9363C14.9324 36.4337 17.2179 35.6016 20.2981 35.4398L20.2735 34.9511C20.2629 34.7734 20.2889 34.5954 20.35 34.4283C20.4111 34.2611 20.506 34.1083 20.6287 33.9793C20.7513 33.8504 20.8992 33.748 21.0632 33.6787C21.2271 33.6093 21.4035 33.5745 21.5815 33.5762C21.9513 33.5801 22.3058 33.7242 22.5734 33.9794C22.8411 34.2346 23.0018 34.5819 23.0232 34.9511L23.0478 35.4398C25.8607 35.6156 28.0419 36.2814 29.5914 37.437C31.15 38.6123 32.2583 40.2866 32.7314 42.1804ZM20.5302 40.2992C19.9032 40.4599 19.3372 40.801 18.9022 41.2802C18.6062 41.6775 18.4627 42.1679 18.4978 42.6621C18.5164 43.1921 18.7092 43.7013 19.0463 44.1108C19.5158 44.6033 20.11 44.9594 20.7658 45.141L20.5302 40.2992ZM24.1765 58.8366C25.2313 58.6022 25.9932 58.2084 26.462 57.6552C26.6871 57.4063 26.8607 57.1154 26.9729 56.7992C27.0852 56.483 27.1338 56.1477 27.116 55.8127C27.0802 55.2021 26.8313 54.6235 26.4128 54.1776C25.9697 53.6818 25.1258 53.2177 23.8881 52.7922L24.1765 58.8366Z" fill="#FAFAFA"/>
</g>
<path opacity="0.2" d="M51.107 12.9713H16.2967L19.6898 83.3339C19.8554 86.2165 21.1093 88.9286 23.1981 90.9221C25.2868 92.9155 28.0545 94.0415 30.9417 94.0724H65.752L62.3624 23.7098C62.1984 20.826 60.9445 18.1124 58.8547 16.1186C56.7648 14.1247 53.9953 12.9997 51.107 12.9713Z" fill="white"/>
<path d="M59.6338 12.9713H16.3072C19.1946 13.0014 21.9628 14.1271 24.0517 16.1207C26.1406 18.1143 27.3943 20.8269 27.5591 23.7098L30.3263 80.9886C30.4919 83.8712 31.7458 86.5833 33.8345 88.5768C35.9233 90.5702 38.691 91.6962 41.5781 91.7271H63.4243C64.8152 91.7416 66.1942 91.4697 67.4755 90.9285C68.7569 90.3873 69.9132 89.5882 70.8726 88.581C71.832 87.5739 72.5739 86.3801 73.0522 85.0739C73.5305 83.7678 73.7349 82.3772 73.6529 80.9886L70.8891 23.7098C70.7252 20.826 69.4713 18.1124 67.3814 16.1186C65.2916 14.1247 62.5221 12.9997 59.6338 12.9713Z" fill="#FAFAFA"/>
<path d="M51.8032 80.9886C51.8858 82.3764 51.682 83.7664 51.2045 85.072C50.727 86.3777 49.9861 87.5712 49.0277 88.5783C48.0694 89.5855 46.9141 90.3847 45.6338 90.9264C44.3534 91.4681 42.9753 91.7407 41.5852 91.7271H84.9082C86.2985 91.7406 87.6768 91.4681 88.9573 90.9264C90.2378 90.3848 91.3933 89.5856 92.3519 88.5785C93.3105 87.5714 94.0518 86.378 94.5297 85.0723C95.0076 83.7666 95.2118 82.3766 95.1298 80.9886H51.8032Z" fill="#E6E6E6"/>
<path d="M65.7344 48.5236H35.1154C34.9007 48.5213 34.695 48.4376 34.5396 48.2895C34.3843 48.1413 34.291 47.9397 34.2785 47.7254C34.2727 47.6224 34.2882 47.5192 34.3238 47.4223C34.3594 47.3254 34.4145 47.2369 34.4856 47.1621C34.5568 47.0873 34.6425 47.0279 34.7375 46.9875C34.8325 46.9471 34.9348 46.9266 35.038 46.9273H65.657C65.8741 46.926 66.0834 47.0081 66.2417 47.1566C66.4001 47.3051 66.4954 47.5087 66.508 47.7254C66.5138 47.8297 66.498 47.934 66.4615 48.0319C66.4251 48.1298 66.3687 48.219 66.296 48.294C66.2234 48.369 66.1359 48.4281 66.0393 48.4676C65.9426 48.5071 65.8388 48.5262 65.7344 48.5236Z" fill="#C6D7FF"/>
<path d="M65.9735 53.506H35.3545C35.1398 53.5037 34.9341 53.4201 34.7787 53.2719C34.6234 53.1237 34.5301 52.9222 34.5176 52.7079C34.5118 52.6048 34.5273 52.5016 34.5629 52.4048C34.5985 52.3079 34.6536 52.2193 34.7248 52.1445C34.7959 52.0698 34.8816 52.0103 34.9766 51.9699C35.0716 51.9296 35.1739 51.909 35.2771 51.9097H65.8997C66.1137 51.9129 66.3186 51.997 66.4732 52.145C66.6278 52.2931 66.7206 52.4942 66.733 52.7079C66.7388 52.8109 66.7234 52.9141 66.6877 53.011C66.6521 53.1079 66.597 53.1964 66.5259 53.2712C66.4547 53.346 66.369 53.4054 66.274 53.4458C66.179 53.4862 66.0767 53.5067 65.9735 53.506Z" fill="#C6D7FF"/>
<path d="M66.2161 58.485H35.5936C35.3789 58.4827 35.1732 58.3991 35.0178 58.2509C34.8625 58.1027 34.7692 57.9012 34.7567 57.6869C34.751 57.5838 34.7664 57.4806 34.802 57.3838C34.8376 57.2869 34.8927 57.1983 34.9639 57.1235C35.035 57.0488 35.1207 56.9893 35.2157 56.9489C35.3107 56.9085 35.413 56.888 35.5162 56.8887H66.1564C66.371 56.891 66.5768 56.9747 66.7321 57.1228C66.8874 57.271 66.9808 57.4726 66.9932 57.6869C66.9991 57.7914 66.9832 57.8961 66.9465 57.9942C66.9098 58.0923 66.8531 58.1817 66.7801 58.2567C66.707 58.3318 66.6192 58.3908 66.5221 58.4301C66.425 58.4694 66.3208 58.4881 66.2161 58.485Z" fill="#C6D7FF"/>
<path d="M66.4552 63.4744H35.8362C35.6218 63.4713 35.4165 63.3873 35.2613 63.2393C35.1062 63.0914 35.0126 62.8903 34.9993 62.6762C34.9936 62.5732 35.009 62.47 35.0446 62.3731C35.0802 62.2763 35.1353 62.1877 35.2065 62.1129C35.2776 62.0381 35.3633 61.9787 35.4583 61.9383C35.5533 61.8979 35.6556 61.8774 35.7588 61.8781H66.3779C66.5925 61.8804 66.7983 61.9641 66.9536 62.1122C67.109 62.2604 67.2023 62.462 67.2147 62.6762C67.2205 62.7793 67.2051 62.8825 67.1695 62.9793C67.1338 63.0762 67.0787 63.1648 67.0076 63.2396C66.9364 63.3144 66.8507 63.3738 66.7557 63.4142C66.6607 63.4546 66.5585 63.4751 66.4552 63.4744Z" fill="#C6D7FF"/>
<path d="M54.5213 68.457H36.0753C35.8606 68.4546 35.6549 68.371 35.4995 68.2228C35.3442 68.0747 35.2509 67.8731 35.2384 67.6588C35.2327 67.5557 35.2481 67.4526 35.2837 67.3557C35.3193 67.2588 35.3744 67.1702 35.4456 67.0954C35.5167 67.0207 35.6025 66.9613 35.6974 66.9209C35.7924 66.8805 35.8947 66.86 35.9979 66.8606H54.4439C54.6585 66.8629 54.8643 66.9466 55.0196 67.0948C55.175 67.2429 55.2683 67.4445 55.2808 67.6588C55.2865 67.7618 55.2711 67.865 55.2355 67.9619C55.1999 68.0588 55.1448 68.1473 55.0736 68.2221C55.0025 68.2969 54.9167 68.3563 54.8217 68.3967C54.7267 68.4371 54.6245 68.4576 54.5213 68.457Z" fill="#C6D7FF"/>
<path d="M56.6486 38.1957C60.2719 34.4841 60.0516 28.3929 56.1565 24.5905C52.2615 20.7882 46.1667 20.7146 42.5434 24.4263C38.9201 28.1379 39.1405 34.2291 43.0355 38.0315C46.9305 41.8338 53.0253 41.9074 56.6486 38.1957Z" fill="#C6D7FF"/>
<path d="M57.5346 31.3048C57.6011 32.6115 57.3336 33.9135 56.7576 35.0882C56.133 36.3478 55.166 37.4059 53.9676 38.141C52.7691 38.8761 51.3877 39.2585 49.9818 39.2444C48.5275 39.2334 47.1009 38.8445 45.8421 38.1159C44.5834 37.3873 43.5357 36.3439 42.8018 35.0882C42.117 33.9396 41.7246 32.6404 41.659 31.3048C41.5982 30.2787 41.7491 29.251 42.1023 28.2856C42.4555 27.3203 43.0035 26.4379 43.7121 25.6932C44.4208 24.9486 45.275 24.3577 46.2217 23.9572C47.1685 23.5567 48.1874 23.3552 49.2153 23.3652C51.3489 23.3917 53.3932 24.2254 54.9367 25.6986C56.4803 27.1717 57.4086 29.1748 57.5346 31.3048Z" fill="white"/>
<path opacity="0.4" d="M56.7576 35.0882C56.133 36.3478 55.166 37.4059 53.9676 38.141C52.7691 38.8761 51.3877 39.2585 49.9818 39.2444C48.5275 39.2334 47.1009 38.8445 45.8421 38.1159C44.5834 37.3873 43.5357 36.3439 42.8018 35.0882C44.8253 33.6996 47.2253 32.9635 49.6795 32.9785C52.1931 32.9832 54.6515 33.716 56.7576 35.0882Z" fill="#C6D7FF"/>
<path opacity="0.4" d="M52.054 31.1141C53.3861 29.7495 53.3057 27.5107 51.8745 26.1134C50.4432 24.7162 48.203 24.6898 46.8709 26.0543C45.5388 27.4189 45.6192 29.6578 47.0505 31.055C48.4817 32.4523 50.7219 32.4787 52.054 31.1141Z" fill="#C6D7FF"/>
</svg>
