<svg xmlns="http://www.w3.org/2000/svg" width="37.056" height="37.056" viewBox="0 0 37.056 37.056"><defs><style>.a{opacity:0.72;}.b{fill:#f2f2f2;}.c{fill:#285fcf;}.d{fill:#3dc9ae;}.e{fill:#cdd6e0;}.f{fill:#54c0eb;}.g{fill:#e0b280;}.h{fill:#ffc428;}.i{fill:#84dbff;}.j{fill:#55bfe9;}.k{fill:#4cdbc4;}.l{fill:#ffd15c;}.m{fill:#334a5e;}</style></defs><g class="a"><path class="b" d="M0,134.4v25.785a1.549,1.549,0,0,0,1.544,1.544H29.259l7.8-7.8V134.4Z" transform="translate(0 -124.673)"/><path class="c" d="M37.056,9.727V1.544A1.549,1.549,0,0,0,35.512,0H1.544A1.549,1.549,0,0,0,0,1.544V9.727Z"/><rect class="d" width="37.056" height="1.004" transform="translate(0 8.723)"/><path class="e" d="M29.567,156.4H8.492v-5.327H37.056v-.386H8.492v-5.25H37.056v-.386H8.492v-5.327H37.056v-.386H8.492V134.4H8.106v4.941H0v.386H8.106v5.327H0v.386H8.106v5.25H0v.386H8.106V156.4H0v.386H8.106v4.941h.386v-4.941H29.567Z" transform="translate(0 -124.673)"/><path class="f" d="M383.5,170.783a1.308,1.308,0,0,0,0-1.776l-3.86-3.86a1.308,1.308,0,0,0-1.776,0l-2.393,2.393,5.713,5.713Z" transform="translate(-348.293 -152.873)"/><g transform="translate(13.742 16.675)"><path class="g" d="M203.208,232.388l-11.5,11.5-.217-.29a1.988,1.988,0,0,0-.54-1.235,2.058,2.058,0,0,0-1.081-.54h0L201.292,230.4l1.7,1.7Z" transform="translate(-189.867 -230.4)"/><path class="g" d="M251.938,280.064l-11.474,11.445h0a2.058,2.058,0,0,0-.54-1.081,3.788,3.788,0,0,0-1.587-.709l11.47-11.918Z" transform="translate(-234.828 -274.37)"/></g><path class="h" d="M214.5,267.608a1.99,1.99,0,0,0-.54-1.7,1.861,1.861,0,0,0-1.39-.54h-.309l11.5-11.5,2.239,2.239Z" transform="translate(-196.903 -235.493)"/><rect class="i" width="2.856" height="8.028" transform="translate(25.172 16.705) rotate(-45)"/><g transform="translate(25.167 14.668)"><path class="j" d="M347.733,204.674l2.007-2.007Z" transform="translate(-347.733 -202.667)"/><path class="j" d="M377.243,204.365h0l-1.776-1.7Z" transform="translate(-373.46 -202.667)"/><path class="j" d="M402.162,228.372h0L400,226.133h0Z" transform="translate(-396.217 -224.435)"/></g><path class="k" d="M405.811,404.267a1.549,1.549,0,0,0-1.544,1.544v6.253l7.8-7.8Z" transform="translate(-375.008 -375.008)"/><path class="l" d="M173.734,393.954l-4.555,1-2.779.618.618-2.779,1.085-4.557a2.647,2.647,0,0,1,1.048.468,2,2,0,0,1,.626,1.272,1.765,1.765,0,0,1,1.6.491,2.039,2.039,0,0,1,.556.851,3.352,3.352,0,0,1,.07.875c.463,0,.729.292,1.116.6A1.914,1.914,0,0,1,173.734,393.954Z" transform="translate(-154.357 -360.14)"/><path class="m" d="M169.179,454.351l-2.779.618.618-2.7Z" transform="translate(-154.357 -419.534)"/></g></svg>