<svg xmlns="http://www.w3.org/2000/svg" width="37.056" height="37.079" viewBox="0 0 37.056 37.079"><defs><style>.a{opacity:0.72;}.b{fill:#ffd15c;}.c{fill:#1e41b9;}.d{fill:#4a63bc;}.e{fill:#ff7058;}.f{fill:#40596b;}.g{fill:#f2f2f2;}</style></defs><g class="a"><path class="b" d="M19.784,312.466l-8.211-8.291H7.27L4.455,318.954l14.7-2.888Z" transform="translate(-4.455 -281.876)"/><path class="c" d="M112.584,152.775l-7.272,7.272-4.846,4.846a5.53,5.53,0,0,0,1.642,5.007,5.654,5.654,0,0,0,5.007,1.642l4.846-4.846,7.272-7.272Z" transform="translate(-93.347 -141.575)"/><g transform="translate(2.815 8.619)"><path class="d" d="M56.615,117.575l-5.63,5.55-8.13,8.13a6.131,6.131,0,0,0,4.3,1.034l12.228-12.148Z" transform="translate(-42.855 -117.575)"/><path class="d" d="M203.423,243.375l-7.272,7.272-4.846,4.846h0a5.792,5.792,0,0,0,.938,4.223l8.13-8.13,5.63-5.63Z" transform="translate(-180.353 -234.153)"/></g><path class="e" d="M301.069,6.662l-5.315-5.315a4.776,4.776,0,0,0-6.649,0l-3.05,3.05L297.939,16.28l3.05-3.05A4.469,4.469,0,0,0,301.069,6.662Z" transform="translate(-265.411)"/><path class="f" d="M242.446,71.077l4.611-4.611L235.174,54.575l-4.619,4.619" transform="translate(-213.98 -50.574)"/><g transform="translate(15.432 3.481)"><path class="g" d="M227.133,121.633a46.939,46.939,0,0,0-11.8-11.81.864.864,0,0,1-.235-1.173h0a.864.864,0,0,1,1.173-.235,46.608,46.608,0,0,1,12.2,12.279.8.8,0,0,1-.235,1.173h0A.79.79,0,0,1,227.133,121.633Z" transform="translate(-214.964 -103.826)"/><path class="g" d="M256.94,90.633a47.088,47.088,0,0,0-11.81-11.81.864.864,0,0,1-.235-1.173h0a.864.864,0,0,1,1.173-.235,48.273,48.273,0,0,1,12.279,12.279.8.8,0,0,1-.235,1.173h0A.8.8,0,0,1,256.94,90.633Z" transform="translate(-242.579 -75.099)"/><path class="g" d="M287.84,60.833a47.088,47.088,0,0,0-11.81-11.81.864.864,0,0,1-.235-1.173h0a.864.864,0,0,1,1.173-.235,46.608,46.608,0,0,1,12.2,12.279.8.8,0,0,1-.235,1.173h0A.782.782,0,0,1,287.84,60.833Z" transform="translate(-271.214 -47.484)"/></g><path class="f" d="M5.313,446.075l-.858,4.377,4.377-.858Z" transform="translate(-4.455 -413.373)"/></g></svg>