<svg xmlns="http://www.w3.org/2000/svg" width="27.516" height="36.689" viewBox="0 0 27.516 36.689"><defs><style>.a{fill:#5c75cc;opacity:0.75;}.b{fill:#ffc428;}.c{fill:#fff;}.d{fill:#1e41b9;}</style></defs><g transform="translate(-1338 -984.073)"><g transform="translate(1338 988.659)"><path class="a" d="M52.84,155.516H35.678A3.565,3.565,0,0,1,32,152.077V128H56.518v24.077A3.565,3.565,0,0,1,52.84,155.516Zm0,0" transform="translate(-30.552 -123.414)"/><path class="b" d="M27.516,70.879H0V66.293A2.293,2.293,0,0,1,2.293,64h22.93a2.293,2.293,0,0,1,2.293,2.293Zm0,0" transform="translate(0 -64)"/></g><g transform="translate(3)"><g transform="translate(-1)"><path class="c" d="M11.668,8.5a7.124,7.124,0,0,0-7.12,7.12v.858l-.755-.755a.777.777,0,0,0-1.081,0,.761.761,0,0,0,0,1.081l2.059,2.059a.784.784,0,0,0,.532.223.753.753,0,0,0,.532-.223L7.894,16.8a.764.764,0,0,0-1.081-1.081l-.738.755V15.62a5.593,5.593,0,1,1,5.593,5.593,5.518,5.518,0,0,1-3.363-1.132A.76.76,0,0,0,7.4,21.3a7.024,7.024,0,0,0,4.289,1.441A7.12,7.12,0,1,0,11.668,8.5Z" transform="translate(1338.513 991.5)"/><path class="c" d="M52.289,32.678l2.042.034h.017a.764.764,0,0,0,0-1.527l-1.3-.017-.017-2.213a.789.789,0,0,0-.772-.755.765.765,0,0,0-.755.772l.017,2.968A.786.786,0,0,0,52.289,32.678Z" transform="translate(1297.5 975.8)"/></g></g><path class="d" d="M122.589,2.425H129.7V4.647h2.425V2.021A2,2,0,0,0,130.105,0h-7.921a2,2,0,0,0-2.021,2.021V4.647h2.425V2.425Z" transform="translate(1225.134 984.073)"/></g></svg>