<svg xmlns="http://www.w3.org/2000/svg" width="45" height="45" viewBox="0 0 45 45"><defs><style>.a{fill:#f2f2f2;}.b{fill:#ffc428;}.c{fill:#fff;}.d{fill:#285fcf;}.e{fill:#3dc9ae;}</style></defs><g transform="translate(-988 -1190)"><g transform="translate(988 1190)"><path class="a" d="M0,96v33.75a2.812,2.812,0,0,0,2.813,2.813H42.188A2.812,2.812,0,0,0,45,129.75V96Zm0,0" transform="translate(0 -87.563)"/><path class="b" d="M0,0H45V11.25H0ZM0,0"/><path class="c" d="M64,48h2.813v2.812H64Zm0,0" transform="translate(-58.375 -43.781)"/><path class="c" d="M128,48h2.813v2.812H128Zm0,0" transform="translate(-116.75 -43.781)"/><path class="d" d="M213.094,50.812H193.406a1.406,1.406,0,0,1,0-2.812h19.688a1.406,1.406,0,1,1,0,2.812Zm0,0" transform="translate(-175.125 -43.781)"/></g><g transform="translate(-494 219)"><path class="e" d="M10.807,16.024a8.9,8.9,0,0,1-4.4-1.241,15.069,15.069,0,0,1-3.413-2.729A21.6,21.6,0,0,1,0,8.084H.036C.218,7.755,4.569,0,10.895,0c3.724,0,7.382,2.683,10.872,7.973h.008l0,.005.008.014,0,0h-.024C18.246,13.323,14.561,16.024,10.807,16.024ZM10.78,1.856A6.5,6.5,0,0,0,4.133,8.187a6.5,6.5,0,0,0,6.647,6.33,6.5,6.5,0,0,0,6.647-6.33A6.5,6.5,0,0,0,10.78,1.856Z" transform="translate(1493 990)"/><circle class="e" cx="4.5" cy="4.5" r="4.5" transform="translate(1499 994)"/></g></g></svg>