<svg xmlns="http://www.w3.org/2000/svg" xmlns:xlink="http://www.w3.org/1999/xlink" width="314.523" height="212.315" viewBox="0 0 314.523 212.315"><defs><style>.a{fill:url(#a);}.b{fill:#1b389d;}.c{fill:url(#b);}.d{fill:url(#c);}.e{fill:url(#d);}.f{fill:#c3cad0;}.g{fill:#d6dadd;}.h{fill:#1c1a42;}.ab,.i,.v{fill:#fff;}.j{fill:#c9c9c9;}.af,.ag,.ah,.ai,.ak,.k,.o,.w{fill:none;}.k{stroke:#707070;}.k,.w{stroke-width:0.5px;}.l{fill:#d1dfec;stroke:#d1dfec;stroke-width:2px;}.m{fill:#efefef;}.n{fill:#fff6c9;}.o{stroke:#000a24;}.p{fill:#10c4e7;}.q{fill:#62abfa;}.r{fill:url(#k);}.s{fill:url(#l);}.t{fill:#5b8fda;}.u{fill:#fcffff;}.v,.w{stroke:#cad8e3;}.x{fill:#5888da;}.y{fill:#ecf1ff;}.z{fill:#6da0df;}.aa{fill:#fce500;stroke:#fce500;}.ab{stroke:#d9445a;}.ac{fill:#1592e6;stroke:#367644;}.ad{fill:#b4c9e6;}.ae{fill:#5288c6;}.af{stroke:#dff3fc;}.ag{stroke:#3673a1;}.ah{stroke:#bdd2fd;}.ai{stroke:#354def;}.aj{stroke:none;}</style><linearGradient id="a" x1="0.781" y1="0.285" x2="0.225" y2="0.722" gradientUnits="objectBoundingBox"><stop offset="0" stop-color="#d0dce3"/><stop offset="1" stop-color="#fff"/></linearGradient><linearGradient id="b" x1="0.5" x2="0.5" y2="1" gradientUnits="objectBoundingBox"><stop offset="0" stop-color="#d6e6fd"/><stop offset="1" stop-color="#fff"/></linearGradient><linearGradient id="c" x1="0.058" y1="0.482" x2="0.5" y2="1" gradientUnits="objectBoundingBox"><stop offset="0" stop-color="#38baf6"/><stop offset="1" stop-color="#fff"/></linearGradient><linearGradient id="d" x1="0.5" y1="0.186" xlink:href="#c"/><linearGradient id="k" x1="0.5" x2="0.5" y2="1" gradientUnits="objectBoundingBox"><stop offset="0" stop-color="#fff"/><stop offset="1" stop-color="#93b7f3"/></linearGradient><linearGradient id="l" x1="0.5" x2="0.5" y2="1" gradientUnits="objectBoundingBox"><stop offset="0" stop-color="#12b8ea"/><stop offset="1" stop-color="#0c4dc3"/></linearGradient></defs><g transform="translate(-30.239 -57.776)"><g transform="translate(30.239 57.776)"><path class="a" d="M-118.307-11.436-273.38-100.67-432.157-7.963l157.282,91.207Z" transform="translate(432.83 123.8)"/><path class="b" d="M-678.374,109.037l20.348,13.718-21.339,15.2-21.8-13.3Z" transform="translate(766.514 9.137)"/><g transform="translate(149.149)"><path class="c" d="M-78.224,312l26.1-12.312-24.321-13.379-24.3,13.379Z" transform="translate(100.763 -286.313)"/><path class="d" d="M-288.64-14.366-290-63.745l25.88-12.241-1.19,49.4" transform="translate(312.733 89.388)"/><path class="e" d="M-265.942-16.427l-1-47.034-22.82-12.446v43.225" transform="translate(289.759 89.431)"/></g><g transform="translate(187.655 36.966)"><path class="c" d="M-78.224,312l26.1-12.312-24.321-13.379-24.3,13.379Z" transform="translate(100.763 -286.313)"/><path class="d" d="M-288.64-14.366-290-63.745l25.88-12.241-1.19,49.4" transform="translate(312.733 89.388)"/><path class="e" d="M-265.942-16.427l-1-47.034-22.82-12.446v43.225" transform="translate(289.759 89.431)"/></g><g transform="translate(228.873 70.851)"><path class="c" d="M-78.224,312l26.1-12.312-24.321-13.379-24.3,13.379Z" transform="translate(101.131 -286.313)"/><path class="d" d="M-290-32.759V-63.745l25.88-12.241v34.27" transform="translate(313.101 89.388)"/><path class="e" d="M-266.663-32.681l-.146-30.779-22.82-12.446L-290-41.759" transform="translate(289.998 89.431)"/></g><path class="f" d="M-126.25,420.61v7.606L30.639,336.188v-7.923Z" transform="translate(283.884 -215.901)"/><path class="g" d="M-70.614,419.27-70.865,427l-157.729-88.575v-8.069Z" transform="translate(228.594 -214.77)"/><g transform="translate(107.286 22.182)"><path class="h" d="M-388.439-109.715l-.5,76.272,101.594,58.707,1.015-74.241Z" transform="translate(388.938 110.594)"/><path class="i" d="M-385.469-103.107l93.085,54.643-.988,63.765-93.02-53.631Z" transform="translate(390.314 114.164)"/><path class="j" d="M-370.448-94.115v65.529l-16.336-10.045,1-64.861Z" transform="translate(390.103 113.955)"/><line class="k" x2="7.701" y2="4.621" transform="translate(62.285 101.325)"/><line class="k" x2="7.701" y2="4.621" transform="translate(62.285 96.705)"/><line class="k" x2="7.701" y2="4.621" transform="translate(62.285 92.084)"/><line class="k" x2="7.701" y2="4.621" transform="translate(62.285 87.463)"/><line class="k" x2="7.701" y2="4.621" transform="translate(62.285 82.842)"/><line class="k" x2="7.701" y2="4.621" transform="translate(62.285 78.222)"/><line class="k" x2="7.701" y2="4.621" transform="translate(22.239 79.762)"/><line class="k" x2="7.701" y2="4.621" transform="translate(22.239 75.141)"/><line class="k" x2="7.701" y2="4.621" transform="translate(22.239 70.521)"/><line class="k" x2="7.701" y2="4.621" transform="translate(22.239 65.9)"/><line class="k" x2="7.701" y2="4.621" transform="translate(22.239 61.279)"/><line class="k" x2="7.701" y2="4.621" transform="translate(22.239 56.658)"/><line class="k" x2="7.701" y2="4.621" transform="translate(22.239 42.184)"/><line class="k" x2="7.701" y2="4.621" transform="translate(22.239 39.308)"/><line class="k" x2="7.701" y2="4.621" transform="translate(22.239 36.431)"/><line class="k" x2="7.701" y2="4.621" transform="translate(22.239 33.555)"/><line class="k" x2="7.701" y2="4.621" transform="translate(33.02 48.345)"/><line class="k" x2="10.782" y2="6.569" transform="translate(33.02 45.468)"/><line class="k" x2="7.701" y2="4.621" transform="translate(33.02 42.592)"/><line class="k" x2="7.701" y2="4.621" transform="translate(33.02 39.716)"/><line class="k" x2="7.701" y2="4.621" transform="translate(37.641 72.061)"/><line class="k" x2="7.701" y2="4.621" transform="translate(37.641 67.44)"/><line class="k" x2="7.701" y2="4.621" transform="translate(37.641 62.819)"/><line class="k" x2="7.701" y2="4.621" transform="translate(37.641 79.762)"/><path class="l" d="M-387.876-110.286l99.55,58.611.784.462" transform="translate(389.512 110.286)"/></g><g transform="translate(191.134 85.001)"><path class="m" d="M-340.5-84.32v40.6l42.517,24.687V-62.858Z" transform="translate(340.5 84.597)"/><path class="n" d="M-340.5-66.377V-53.2l42.689,24.52V-42.193Z" transform="translate(340.5 94.291)"/><line class="o" y2="44.667" transform="translate(43.127 21.563)"/><path class="o" d="M0,0,43.565,22.237" transform="translate(0 0)"/><line class="k" x2="26.184" y2="15.402" transform="translate(7.701 40.046)"/><line class="k" x2="26.184" y2="15.402" transform="translate(7.701 40.046)"/><line class="k" x2="15.402" y2="9.241" transform="translate(7.701 35.425)"/><line class="k" x2="26.184" y2="15.402" transform="translate(10.782 29.264)"/><line class="k" x2="15.402" y2="9.241" transform="translate(10.782 24.644)"/><line class="k" x2="26.184" y2="15.402" transform="translate(10.782 16.943)"/><line class="k" x2="15.402" y2="9.241" transform="translate(10.782 12.322)"/></g><path class="p" d="M5.007,0c2.765,0,5.007,2.837,5.007,6.337s-2.242,6.337-5.007,6.337S0,9.837,0,6.337,2.242,0,5.007,0Z" transform="translate(189.833 130.358)"/><path class="q" d="M5.007,0c2.765,0,5.007,2.837,5.007,6.337s-2.242,6.337-5.007,6.337S0,9.837,0,6.337,2.242,0,5.007,0Z" transform="translate(188.581 130.358)"/><path class="r" d="M-526.341,20.163l28.665,15.772V75.786l-28.665-15.054Z" transform="translate(599.121 7.331)"/><path class="s" d="M-512.823,34.789l3.483,2.026.113,23.428-3.54-1.462Z" transform="translate(604.884 15.232)"/><path class="s" d="M-512.823,34.789l3.483,1.515.319,16.791-3.746-.364Z" transform="translate(598.723 18.324)"/><path class="s" d="M-512.524,38.072l3.588,2.6V51.214l-3.481-.264Z" transform="translate(592.724 15.477)"/><path class="s" d="M-512.582,37.262l3.509,1.62.168,12.77-3.677-.117Z" transform="translate(588.072 11.958)"/><g transform="translate(97.603 139.596)"><path class="t" d="M-587.063,78.965h0l22.812,13.268-28.219,17.016-22.754-13.289,27.654-18.015" transform="translate(615.225 -77.946)"/><path class="u" d="M-587.3,79.559l20.581,11.924-25.488,15.741L-614.4,95.18Z" transform="translate(615.669 -77.074)"/><g class="v" transform="translate(23.45 7.785)"><ellipse class="aj" cx="3.851" cy="0.77" rx="3.851" ry="0.77"/><ellipse class="ak" cx="3.851" cy="0.77" rx="3.351" ry="0.27"/></g><g class="v" transform="translate(23.45 7.785)"><ellipse class="aj" cx="3.851" cy="0.77" rx="3.851" ry="0.77"/><ellipse class="ak" cx="3.851" cy="0.77" rx="3.351" ry="0.27"/></g><g class="v" transform="translate(15.749 12.405)"><ellipse class="aj" cx="3.851" cy="0.77" rx="3.851" ry="0.77"/><ellipse class="ak" cx="3.851" cy="0.77" rx="3.351" ry="0.27"/></g><g class="v" transform="translate(8.048 15.486)"><ellipse class="aj" cx="3.851" cy="0.77" rx="3.851" ry="0.77"/><ellipse class="ak" cx="3.851" cy="0.77" rx="3.351" ry="0.27"/></g><line class="w" x2="9.241" y2="4.621" transform="translate(31.922 11.635)"/><line class="w" x2="9.241" y2="4.621" transform="translate(24.22 16.256)"/><line class="w" x2="9.241" y2="4.621" transform="translate(16.519 19.336)"/><path class="x" d="M-592.39,81.1c1.02-.412,8.511.205,9.828,2.577a10.594,10.594,0,0,1,1.4,4.226l-1.4.45L-592.85,82.9S-593.41,81.515-592.39,81.1Z" transform="translate(627.23 -76.304)"/></g><path class="y" d="M-708.967,101.169l18.49-1.9.358,14.448-16.145,6.271-9.009-9.074Z" transform="translate(758.894 3.86)"/><path class="z" d="M-679.7,109.037l20.947,12.538L-679.7,136.268l-21.471-12.807Z" transform="translate(766.514 9.137)"/><g class="aa" transform="translate(103.694 130.438)"><ellipse class="aj" cx="2.31" cy="1.54" rx="2.31" ry="1.54"/><ellipse class="ak" cx="2.31" cy="1.54" rx="1.81" ry="1.04"/></g><g class="ab" transform="translate(100.052 132.27)"><ellipse class="aj" cx="2.31" cy="1.54" rx="2.31" ry="1.54"/><ellipse class="ak" cx="2.31" cy="1.54" rx="1.81" ry="1.04"/></g><g class="ac" transform="translate(96.409 134.102)"><ellipse class="aj" cx="2.31" cy="1.54" rx="2.31" ry="1.54"/><ellipse class="ak" cx="2.31" cy="1.54" rx="1.81" ry="1.04"/></g><path class="ad" d="M-690.579,118.547l8.507,4.668-.245-4.179h3.513l-4.949-4.9-1.384,2.911v.84Z" transform="translate(772.234 11.891)"/><path class="ae" d="M-719.783,110.312l19.413,11.812,13.868-8.75-1.8-2.6-16.579,1.586.846-10.1-2.572-1.931Z" transform="translate(756.458 4.435)"/><line class="af" x2="7.701" y2="4.621" transform="translate(54.053 109.645)"/><line class="af" x2="6.161" y2="3.08" transform="translate(58.674 108.105)"/><g class="ag" transform="translate(145.697 165.864)"><ellipse class="aj" cx="11.552" cy="6.931" rx="11.552" ry="6.931"/><ellipse class="ak" cx="11.552" cy="6.931" rx="11.052" ry="6.431"/></g><line class="ag" y2="9.241" transform="translate(157.249 178.956)"/><line class="ah" x2="18.483" y2="10.782" transform="translate(44.812 28.013)"/><line class="ai" y1="4.621" transform="translate(63.294 38.794)"/><path class="ah" d="M1.407-1.982,25.859,11.853" transform="translate(37.435 11.539)"/><line class="ai" y1="4.621" transform="translate(63.294 23.392)"/><line class="ah" x2="18.483" y2="10.782" transform="translate(20.168 26.472)"/><line class="ai" y1="4.621" transform="translate(38.651 37.254)"/><path class="ah" d="M1.407-1.982,25.859,11.853" transform="translate(12.791 9.999)"/><line class="ai" y1="4.621" transform="translate(38.651 21.852)"/></g></g></svg>