<svg width="30" height="24" viewBox="0 0 30 24" fill="none" xmlns="http://www.w3.org/2000/svg">
<path d="M27.332 11.8606C27.0057 11.8606 26.7046 11.9401 26.4375 12.06C26.0313 11.5406 25.401 11.2045 24.6904 11.2038C24.3233 11.2038 23.9855 11.3012 23.6953 11.4472L23.6649 11.464L22.7575 12.0022C22.3507 11.5158 21.7415 11.2041 21.0581 11.2038C20.6909 11.2038 20.3531 11.3012 20.0629 11.4472L20.0265 11.4676L16.5526 13.5954C15.7681 13.3636 14.8971 13.1093 14.0554 12.8706C13.1676 12.6187 12.3137 12.3846 11.6292 12.2119C11.2865 12.1254 10.9867 12.0544 10.7417 12.0039C10.6188 11.9784 10.5099 11.9583 10.4131 11.9434C10.3151 11.9289 10.2332 11.9187 10.1407 11.9183C10.0694 11.9187 10.0077 11.9249 9.93733 11.9335C9.68143 11.9672 9.31757 12.0451 8.88832 12.1458C8.01134 12.3519 6.89201 12.6517 6.27357 12.8201V11.7734C6.27357 11.047 5.67923 10.4526 4.95282 10.4526H1.32075C0.594338 10.4526 0 11.047 0 11.7734V22.0092C0 22.7356 0.594338 23.33 1.32075 23.33H4.95282C5.67923 23.33 6.27357 22.7356 6.27357 22.0092V21.2144C7.05743 21.3852 8.79719 21.7609 10.6314 22.1377C11.8719 22.3922 13.154 22.6471 14.2129 22.8393C14.7426 22.9354 15.2164 23.0156 15.6043 23.0724C15.9956 23.1289 16.2872 23.1639 16.5094 23.1652C16.6824 23.1645 16.8462 23.1318 17.0232 23.083C17.3524 22.9902 17.7271 22.8327 18.156 22.6243C19.6488 21.8966 21.7927 20.5333 23.8151 19.1841C25.8339 17.8366 27.7222 16.506 28.6474 15.8687C29.2266 15.4695 29.5521 14.7949 29.5521 14.0811C29.5511 12.8554 28.5583 11.8612 27.332 11.8606ZM5.283 22.0095C5.283 22.1885 5.13178 22.3397 4.95282 22.3397H1.32075C1.14179 22.3397 0.990563 22.1885 0.990563 22.0095V11.7737C0.990563 11.5948 1.14179 11.4435 1.32075 11.4435H4.95282C5.13178 11.4435 5.283 11.5948 5.283 11.7737V22.0095ZM28.0858 15.0528C26.9479 15.8367 24.4019 17.6346 21.9373 19.2353C20.7061 20.035 19.4953 20.7849 18.5024 21.3284C18.0065 21.6001 17.564 21.8197 17.2104 21.9666C17.0337 22.0399 16.8792 22.0951 16.7567 22.1291C16.6349 22.1637 16.5431 22.1753 16.5097 22.1746C16.4017 22.1756 16.1158 22.1472 15.7483 22.0924C14.4474 21.9019 12.0122 21.4155 9.91554 20.978C8.8662 20.7591 7.89974 20.5524 7.19545 20.4005C6.78635 20.3124 6.47069 20.2434 6.2739 20.2008V13.8473C6.37064 13.8206 6.49743 13.7859 6.64965 13.7446C7.17168 13.603 7.96842 13.3906 8.68295 13.2147C9.03988 13.1265 9.377 13.0479 9.64478 12.9921C9.77818 12.9644 9.89474 12.9423 9.98422 12.9281C10.072 12.9135 10.1404 12.9082 10.1411 12.9092C10.1427 12.9089 10.1945 12.9122 10.2652 12.9231C10.5386 12.964 11.0989 13.0951 11.7814 13.2738C13.8382 13.811 17.0813 14.7821 18.3915 15.1799C18.8448 15.3166 19.2552 15.5227 19.5247 15.7726C19.66 15.8974 19.7617 16.0308 19.8301 16.1751C19.8984 16.3201 19.9371 16.4769 19.9377 16.6688C19.9374 17.0574 19.7815 17.4047 19.527 17.66C19.274 17.9119 18.9307 18.0661 18.5473 18.0697L17.2691 17.9446L12.907 17.3846C12.6356 17.3499 12.3873 17.5414 12.3523 17.8129C12.3173 18.0843 12.5095 18.3322 12.7806 18.3672L17.1569 18.9289L18.5113 19.0616H18.5357C19.8568 19.0613 20.9276 17.9905 20.9283 16.6691C20.929 16.3366 20.8553 16.0239 20.7249 15.7502C20.5284 15.3378 20.2124 15.0185 19.8552 14.7755C19.4966 14.5318 19.0918 14.3581 18.6797 14.2326C18.4499 14.163 18.1603 14.0751 17.8295 13.9757L20.5175 12.3291C20.6919 12.2432 20.8702 12.1947 21.059 12.1944C21.3793 12.194 21.6686 12.3182 21.8872 12.519L20.5591 13.3065C20.324 13.4458 20.2465 13.7499 20.3861 13.985C20.5258 14.2201 20.8296 14.298 21.065 14.1583L24.1476 12.3301C24.323 12.2432 24.5022 12.1944 24.6918 12.1944C25.0335 12.194 25.3409 12.3364 25.5638 12.5622L21.9743 14.6909C21.7389 14.8303 21.6616 15.1344 21.8013 15.3698C21.941 15.6049 22.2447 15.6825 22.4802 15.5428L26.3615 13.2407C26.3992 13.2345 26.4371 13.2252 26.4741 13.2094C26.5537 13.1757 26.6184 13.1222 26.6683 13.0588L26.7895 12.9868C26.9648 12.9 27.1441 12.8511 27.3336 12.8511C27.674 12.8515 27.9785 12.9881 28.2027 13.2114C28.4259 13.4356 28.5626 13.7403 28.5629 14.0811C28.5612 14.4961 28.371 14.8587 28.0858 15.0528Z" fill="white"/>
<path d="M11.0613 5.53329C11.0613 5.80668 11.2832 6.02857 11.5566 6.02857H12.1803C12.8103 7.74191 14.452 8.96625 16.3842 8.96658C17.2008 8.96658 17.9678 8.7437 18.6259 8.36201C18.8626 8.22465 18.9432 7.92187 18.8062 7.68512C18.6688 7.44838 18.366 7.36781 18.1293 7.50484C17.6135 7.80333 17.0202 7.97569 16.3842 7.97602C15.4181 7.97569 14.5481 7.58573 13.9144 6.95309C13.646 6.68465 13.4251 6.3713 13.2554 6.02824H17.0126C17.286 6.02824 17.5079 5.80635 17.5079 5.53296C17.5079 5.25923 17.286 5.03767 17.0126 5.03767H12.9394C12.9107 4.85706 12.8912 4.67282 12.8912 4.48362C12.8912 4.29409 12.9107 4.10985 12.9394 3.9289H17.0119C17.2853 3.9289 17.5072 3.70702 17.5072 3.43362C17.5072 3.1599 17.2853 2.93834 17.0119 2.93834H13.2554C13.4254 2.59561 13.6466 2.28259 13.9148 2.01382C14.5484 1.38085 15.4184 0.990894 16.3842 0.990564C17.0202 0.990564 17.6135 1.16325 18.1293 1.46174C18.366 1.5991 18.6691 1.5182 18.8062 1.28146C18.9432 1.04471 18.8626 0.741602 18.6259 0.604574C17.9678 0.223207 17.2008 -0.000329823 16.3842 3.65279e-07C14.452 0.000330553 12.8106 1.22467 12.1803 2.93801H11.5566C11.2832 2.93801 11.0613 3.15957 11.0613 3.43329C11.0613 3.70669 11.2832 3.92857 11.5566 3.92857H11.9389C11.9165 4.11084 11.9009 4.29508 11.9009 4.48329C11.9009 4.67117 11.9165 4.85541 11.9386 5.03734H11.5566C11.2832 5.03801 11.0613 5.25989 11.0613 5.53329Z" fill="white"/>
</svg>
