<svg width="19" height="19" viewBox="0 0 19 19" fill="none" xmlns="http://www.w3.org/2000/svg">
<path d="M18.3214 15.6071H9.40364C9.10032 14.4398 8.04695 13.5714 6.78571 13.5714C5.52448 13.5714 4.47133 14.4398 4.16779 15.6071H0.678571C0.303548 15.6071 0 15.9109 0 16.2857C0 16.6605 0.303548 16.9643 0.678571 16.9643H4.16779C4.47111 18.1317 5.52448 19 6.78571 19C8.04695 19 9.1001 18.1317 9.40364 16.9643H18.3214C18.6965 16.9643 19 16.6605 19 16.2857C19 15.9109 18.6965 15.6071 18.3214 15.6071ZM6.78571 17.6429C6.03748 17.6429 5.42857 17.0342 5.42857 16.2857C5.42857 15.5373 6.03748 14.9286 6.78571 14.9286C7.53395 14.9286 8.14286 15.5373 8.14286 16.2857C8.14286 17.0342 7.53395 17.6429 6.78571 17.6429ZM18.3214 8.82143H14.8322C14.5289 7.65406 13.4755 6.78571 12.2143 6.78571C10.953 6.78571 9.8999 7.65406 9.59636 8.82143H0.678571C0.303548 8.82143 0 9.1252 0 9.5C0 9.8748 0.303548 10.1786 0.678571 10.1786H9.59636C9.89968 11.3459 10.953 12.2143 12.2143 12.2143C13.4755 12.2143 14.5287 11.3459 14.8322 10.1786H18.3214C18.6965 10.1786 19 9.8748 19 9.5C19 9.1252 18.6965 8.82143 18.3214 8.82143ZM12.2143 10.8571C11.466 10.8571 10.8571 10.2485 10.8571 9.5C10.8571 8.75154 11.466 8.14286 12.2143 8.14286C12.9625 8.14286 13.5714 8.75154 13.5714 9.5C13.5714 10.2485 12.9625 10.8571 12.2143 10.8571ZM0.678571 3.39286H4.16779C4.47111 4.56023 5.52448 5.42857 6.78571 5.42857C8.04695 5.42857 9.1001 4.56023 9.40364 3.39286H18.3214C18.6965 3.39286 19 3.08908 19 2.71429C19 2.33949 18.6965 2.03571 18.3214 2.03571H9.40364C9.1001 0.868345 8.04695 0 6.78571 0C5.52448 0 4.47133 0.868345 4.16779 2.03571H0.678571C0.303548 2.03571 0 2.33949 0 2.71429C0 3.08908 0.303548 3.39286 0.678571 3.39286ZM6.78571 1.35714C7.53395 1.35714 8.14286 1.96582 8.14286 2.71429C8.14286 3.46275 7.53395 4.07143 6.78571 4.07143C6.03748 4.07143 5.42857 3.46275 5.42857 2.71429C5.42857 1.96582 6.03748 1.35714 6.78571 1.35714Z" fill="white" fill-opacity="0.79"/>
</svg>
