<svg width="16" height="17" viewBox="0 0 16 17" fill="none" xmlns="http://www.w3.org/2000/svg">
<path d="M2.2082 11.6954L0.574189 13.3294C-0.154428 14.0222 -0.195039 15.1712 0.48341 15.9142L0.535966 15.9524C1.23353 16.65 2.35631 16.6691 3.07537 15.9954L4.70222 14.3686C5.44039 13.6806 5.481 12.5243 4.793 11.7838C4.1026 11.048 2.94637 11.005 2.2082 11.6954Z" fill="white" fill-opacity="0.61"/>
<path d="M12.3795 15.6848C13.0985 16.3704 14.2333 16.3561 14.9356 15.6561C14.9476 15.6418 14.9619 15.6322 14.9714 15.6179C15.6738 14.8797 15.6451 13.7115 14.9046 13.0116L10.5137 8.6184L14.551 4.58353C15.1363 3.99586 15.2557 3.09285 14.8424 2.37379C14.7588 2.21135 14.6489 2.06563 14.5199 1.93662C13.7985 1.2319 12.6494 1.22473 11.9208 1.9199L7.86683 5.97626L3.41152 1.51857C3.40436 1.5114 3.39958 1.50662 3.39241 1.50184C2.67813 0.804283 1.53623 0.818616 0.83867 1.5329C0.157832 2.28779 0.172165 3.43925 0.869726 4.17981L12.2887 15.5964L12.3795 15.6848Z" fill="white" fill-opacity="0.61"/>
</svg>
