<svg width="24" height="24" viewBox="0 0 24 24" fill="none" xmlns="http://www.w3.org/2000/svg">
<path fill-rule="evenodd" clip-rule="evenodd" d="M3 6.5C3 3.87479 3.02811 3 6.5 3C9.97189 3 10 3.87479 10 6.5C10 9.12521 10.0111 10 6.5 10C2.98893 10 3 9.12521 3 6.5Z" stroke="white" stroke-opacity="0.54" stroke-width="1.5" stroke-linecap="round" stroke-linejoin="round"/>
<path fill-rule="evenodd" clip-rule="evenodd" d="M14 6.5C14 3.87479 14.0281 3 17.5 3C20.9719 3 21 3.87479 21 6.5C21 9.12521 21.0111 10 17.5 10C13.9889 10 14 9.12521 14 6.5Z" stroke="white" stroke-opacity="0.54" stroke-width="1.5" stroke-linecap="round" stroke-linejoin="round"/>
<path fill-rule="evenodd" clip-rule="evenodd" d="M14 17.5C14 14.8748 14.0281 14 17.5 14C20.9719 14 21 14.8748 21 17.5C21 20.1252 21.0111 21 17.5 21C13.9889 21 14 20.1252 14 17.5Z" stroke="white" stroke-opacity="0.54" stroke-width="1.5" stroke-linecap="round" stroke-linejoin="round"/>
<path d="M6.66662 13V20.3264" stroke="white" stroke-width="1.5" stroke-linecap="round" stroke-linejoin="round"/>
<path d="M10.3333 16.6631H3" stroke="white" stroke-width="1.5" stroke-linecap="round" stroke-linejoin="round"/>
</svg>
