<svg width="24" height="24" viewBox="0 0 24 24" fill="none" xmlns="http://www.w3.org/2000/svg">
<path d="M19.3249 9.4682C19.3249 9.4682 18.7819 16.2032 18.4669 19.0402C18.3169 20.3952 17.4799 21.1892 16.1089 21.2142C13.4999 21.2612 10.8879 21.2642 8.27991 21.2092C6.96091 21.1822 6.13791 20.3782 5.99091 19.0472C5.67391 16.1852 5.13391 9.4682 5.13391 9.4682" stroke="white" stroke-opacity="0.54" stroke-width="1.5" stroke-linecap="round" stroke-linejoin="round"/>
<path d="M20.7082 6.23972H3.75024" stroke="white" stroke-opacity="0.54" stroke-width="1.5" stroke-linecap="round" stroke-linejoin="round"/>
<path d="M17.4407 6.2397C16.6557 6.2397 15.9797 5.6847 15.8257 4.9157L15.5827 3.6997C15.4327 3.1387 14.9247 2.7507 14.3457 2.7507H10.1127C9.5337 2.7507 9.0257 3.1387 8.8757 3.6997L8.6327 4.9157C8.4787 5.6847 7.8027 6.2397 7.0177 6.2397" stroke="white" stroke-opacity="0.54" stroke-width="1.5" stroke-linecap="round" stroke-linejoin="round"/>
</svg>
