<svg width="18" height="18" viewBox="0 0 18 18" fill="none" xmlns="http://www.w3.org/2000/svg">
<path d="M12.1111 16.8243H1C1 13.7558 3.48698 11.2688 6.55554 11.2688C9.62409 11.2688 12.1111 13.7558 12.1111 16.8243Z" stroke="white" stroke-miterlimit="10" stroke-linecap="round" stroke-linejoin="round"/>
<path d="M8.99448 8.30809C8.99448 9.65413 7.90364 11.2704 6.5576 11.2704C6.19233 11.2704 5.84707 11.1503 5.53683 10.9501C5.27662 10.785 5.04145 10.5648 4.8463 10.3096C4.84129 10.3046 4.83628 10.2996 4.8313 10.2946C4.38595 9.72416 4.11572 8.9836 4.11572 8.30809C4.11572 6.96206 5.20659 5.86621 6.5576 5.86621C7.90364 5.86621 8.99448 6.96206 8.99448 8.30809Z" stroke="white" stroke-miterlimit="10" stroke-linecap="round" stroke-linejoin="round"/>
<path d="M13.6567 7.68654C15.5032 7.68654 17 6.1897 17 4.34327C17 2.49683 15.5032 1 13.6567 1C11.8103 1 10.3135 2.49683 10.3135 4.34327C10.3135 6.1897 11.8103 7.68654 13.6567 7.68654Z" stroke="white" stroke-miterlimit="10" stroke-linecap="round" stroke-linejoin="round"/>
<path d="M12.1428 4.38403L13.125 5.36622L15.1707 3.32056" stroke="white" stroke-miterlimit="10" stroke-linecap="round" stroke-linejoin="round"/>
</svg>
