<svg width="21" height="20" viewBox="0 0 21 20" fill="none" xmlns="http://www.w3.org/2000/svg">
<path d="M14.4475 0.787693C14.4475 1.28364 14.4475 1.77956 14.4475 2.27551C14.4475 3.45658 14.4475 4.63767 14.4475 5.81874C14.4475 7.25125 14.4475 8.68378 14.4475 10.1163C14.4475 11.3411 14.4475 12.566 14.4475 13.7909C14.4475 14.3745 14.4579 14.9592 14.4475 15.5428C14.4474 15.5474 14.4476 15.552 14.4475 15.5566C14.4475 15.5574 14.4475 15.5581 14.4475 15.5589C14.4473 15.5646 14.4625 15.6077 14.4532 15.542C14.4503 15.5544 14.4474 15.5668 14.4445 15.5792C14.4602 15.5534 14.4574 15.5594 14.4362 15.597C14.6233 15.5729 14.8103 15.5488 14.9974 15.5247C14.4672 15.0448 13.9371 14.5648 13.4069 14.085C12.6916 13.4376 11.9763 12.7902 11.2611 12.1429C11.0057 11.9118 10.7503 11.6807 10.495 11.4495C10.2702 11.2461 9.88487 11.3815 9.88507 11.7022C9.88545 12.3106 9.88583 12.9191 9.88621 13.5276C9.88652 14.0123 9.8868 14.4971 9.88709 14.9818C9.88728 15.3163 9.88749 15.6509 9.88768 15.9854C10.0068 15.8664 10.1259 15.7473 10.2449 15.6282C9.25026 15.6282 8.25556 15.6282 7.26089 15.6282C7.03586 15.6282 6.81086 15.6282 6.58584 15.6282C6.53151 15.6282 6.47716 15.6287 6.42283 15.6282C6.41464 15.6281 6.40642 15.628 6.39823 15.6282C6.38739 15.6284 6.34164 15.6247 6.36441 15.6269C6.45563 15.6358 6.31044 15.5961 6.39051 15.6336C6.37205 15.625 6.35281 15.6137 6.3364 15.602C6.36748 15.626 6.36803 15.6243 6.33802 15.5968C6.35745 15.625 6.36026 15.6284 6.34645 15.6072C6.34364 15.6028 6.34085 15.5984 6.33804 15.594C6.31906 15.5574 6.31825 15.5571 6.33564 15.5928C6.3328 15.5825 6.32997 15.5722 6.32713 15.5619C6.3299 15.598 6.33061 15.6026 6.32928 15.5758C6.32909 15.5722 6.32854 15.5638 6.32863 15.558C6.32871 15.5544 6.32859 15.5506 6.32863 15.5469C6.32883 15.5289 6.32863 15.5108 6.32863 15.4927C6.32863 15.4157 6.32863 15.3387 6.32863 15.2617C6.32863 14.505 6.32863 13.7483 6.32863 12.9916C6.32863 11.7846 6.32863 10.5776 6.32863 9.37053C6.32863 8.05913 6.32863 6.74775 6.32863 5.43636C6.32863 4.3678 6.32863 3.29922 6.32863 2.23066C6.32863 1.75224 6.33485 1.27337 6.32863 0.794981C6.32861 0.792623 6.32868 0.790241 6.32863 0.787883C6.32854 0.782548 6.33033 0.751371 6.32928 0.771021C6.32949 0.765471 6.32971 0.759922 6.32992 0.754349C6.32437 0.795195 6.32628 0.795052 6.33564 0.753944C6.33149 0.76278 6.32732 0.77164 6.32318 0.780476C6.32994 0.766257 6.33768 0.752634 6.34645 0.739582C6.36026 0.718361 6.35745 0.721838 6.33802 0.750038C6.36803 0.722481 6.36748 0.720743 6.3364 0.744846C6.33652 0.744774 6.41361 0.687017 6.37725 0.719409C6.34783 0.745608 6.44186 0.712288 6.36438 0.719933C6.36231 0.720147 6.38813 0.718456 6.39923 0.718647C6.40568 0.718766 6.41214 0.718718 6.41859 0.718647C6.50636 0.717694 6.59417 0.718647 6.68194 0.718647C7.09712 0.718647 7.51228 0.718647 7.92746 0.718647C9.19587 0.718647 10.4643 0.718647 11.7327 0.718647C12.594 0.718647 13.4553 0.718647 14.3166 0.718647C14.3361 0.718647 14.3556 0.718933 14.375 0.718647C14.3761 0.718623 14.3772 0.71867 14.3783 0.718647C14.4741 0.71698 14.375 0.723982 14.3812 0.717146C14.3889 0.708596 14.4341 0.735962 14.3856 0.713192C14.3948 0.718146 14.404 0.7231 14.4133 0.728054C14.4476 0.75049 14.4485 0.75049 14.416 0.728031C14.4234 0.735366 14.4307 0.742726 14.4381 0.750062C14.4186 0.721862 14.4158 0.718385 14.4296 0.739606C14.4325 0.744012 14.4352 0.748418 14.4381 0.752824C14.457 0.789384 14.4578 0.789765 14.4405 0.753991C14.4433 0.764304 14.4461 0.774617 14.449 0.78493C14.4457 0.74325 14.4452 0.744202 14.4475 0.787693C14.4547 0.974205 14.6067 1.15381 14.8047 1.14495C14.9922 1.13657 15.1697 0.987733 15.162 0.787693C15.1448 0.34062 14.8015 0.00848951 14.3547 0.00410714C14.2614 0.00320209 14.1681 0.00410714 14.0748 0.00410714C13.6403 0.00410714 13.2058 0.00410714 12.7712 0.00410714C11.4727 0.00410714 10.1742 0.00410714 8.87562 0.00410714C8.05681 0.00410714 7.23743 -0.00513393 6.41866 0.00410714C5.97466 0.00910875 5.62824 0.341859 5.61421 0.78774C5.61321 0.819608 5.61421 0.851666 5.61421 0.883557C5.61421 1.1128 5.61421 1.34206 5.61421 1.5713C5.61421 2.52132 5.61421 3.47137 5.61421 4.42139C5.61421 5.73155 5.61421 7.04171 5.61421 8.35189C5.61421 9.64242 5.61421 10.933 5.61421 12.2235C5.61421 13.1285 5.61421 14.0336 5.61421 14.9387C5.61421 15.1314 5.61324 15.3242 5.61421 15.517C5.61536 15.7437 5.68624 15.9644 5.85491 16.124C6.05624 16.3146 6.30077 16.3427 6.55923 16.3427C7.68614 16.3427 8.81303 16.3427 9.93994 16.3427C10.0416 16.3427 10.1433 16.3427 10.245 16.3427C10.438 16.3427 10.6024 16.179 10.6022 15.9854C10.6019 15.448 10.6016 14.9105 10.6013 14.3731C10.6009 13.7365 10.6005 13.0999 10.6001 12.4633C10.5999 12.2096 10.5998 11.9559 10.5996 11.7022C10.3963 11.7864 10.193 11.8706 9.98974 11.9548C10.6213 12.5263 11.2528 13.0979 11.8843 13.6694C12.3928 14.1297 12.9013 14.5899 13.4098 15.0502C13.7706 15.3767 14.1314 15.7033 14.4921 16.0299C14.6564 16.1786 14.9392 16.1691 15.0533 15.9576C15.1819 15.719 15.1621 15.4777 15.1621 15.2201C15.1621 14.8717 15.1621 14.5234 15.1621 14.175C15.1621 13.0046 15.1621 11.8342 15.1621 10.6638C15.1621 9.23224 15.1621 7.80069 15.1621 6.36916C15.1621 5.12518 15.1621 3.88121 15.1621 2.63726C15.1621 2.02995 15.1775 1.42035 15.1621 0.813177C15.1618 0.804698 15.1621 0.796195 15.1621 0.787693C15.1621 0.600823 14.9977 0.421789 14.8048 0.430435C14.6112 0.439104 14.4475 0.587414 14.4475 0.787693Z" fill="white"/>
<path d="M12.0078 4.48411C12.0074 4.53389 12.0059 4.58347 12.0022 4.63311C12.0002 4.66036 11.9976 4.68751 11.9945 4.71464C11.9962 4.69994 12.0063 4.64654 11.9937 4.71616C11.9765 4.8109 11.9553 4.90415 11.9258 4.99587C11.9193 5.01595 11.9125 5.03595 11.9054 5.05582C11.9062 5.05336 11.8694 5.14992 11.8891 5.10128C11.9056 5.06075 11.8801 5.12153 11.8759 5.13065C11.8647 5.15428 11.8536 5.17786 11.8417 5.2011C11.7992 5.28434 11.7508 5.36458 11.697 5.44099C11.6851 5.4579 11.6729 5.47467 11.6604 5.49117C11.7022 5.43584 11.6601 5.49062 11.6486 5.50372C11.6179 5.53873 11.5877 5.57372 11.5552 5.60718C11.5265 5.63684 11.4968 5.66561 11.4663 5.6934C11.451 5.70731 11.4355 5.72098 11.4198 5.73442C11.4139 5.73944 11.334 5.80253 11.3954 5.75618C11.3251 5.8093 11.2509 5.85738 11.1741 5.90056C11.1332 5.92355 11.0915 5.94508 11.0491 5.96506C11.0302 5.97395 11.0111 5.98276 10.9919 5.99088C11.0639 5.96042 10.9671 5.99862 10.96 6.00114C10.875 6.03158 10.788 6.05607 10.6996 6.07455C10.6782 6.07903 10.545 6.09856 10.6189 6.09034C10.5643 6.09641 10.5097 6.10068 10.4549 6.10253C10.361 6.1057 10.2675 6.10134 10.174 6.09208C10.1114 6.08586 10.2576 6.10901 10.1563 6.08946C10.1351 6.08539 10.1139 6.08203 10.0928 6.07781C10.0405 6.06736 9.9886 6.05469 9.93733 6.04001C9.89667 6.02839 9.8564 6.01539 9.8166 6.00112C9.79676 5.99402 9.7772 5.98635 9.75753 5.97887C9.82281 6.00367 9.75801 5.97933 9.74176 5.97159C9.65235 5.92895 9.56559 5.88223 9.48277 5.82771C9.44819 5.80494 9.41425 5.78112 9.38122 5.75616C9.43797 5.79901 9.33723 5.7175 9.32187 5.70374C9.24839 5.63779 9.18318 5.56572 9.11799 5.49186C9.10932 5.48205 9.0765 5.43861 9.11618 5.49115C9.10372 5.47464 9.09153 5.45785 9.07962 5.44096C9.05573 5.40707 9.03292 5.37242 9.01122 5.3371C8.98671 5.29723 8.96373 5.25645 8.9421 5.21494C8.93005 5.19181 8.91843 5.16845 8.9073 5.14485C8.90361 5.13703 8.87029 5.05886 8.88746 5.10124C8.90716 5.14987 8.87034 5.05332 8.87122 5.05577C8.8641 5.03591 8.85729 5.0159 8.85083 4.99582C8.83785 4.9554 8.82611 4.91458 8.81575 4.87342C8.80399 4.82667 8.79401 4.77949 8.78569 4.73202C8.78253 4.7139 8.77405 4.64256 8.78205 4.71459C8.77902 4.68744 8.77638 4.66028 8.77436 4.63306C8.76738 4.53939 8.76685 4.44519 8.77314 4.35145C8.7746 4.32958 8.77705 4.30784 8.77857 4.286C8.78574 4.18232 8.77026 4.32973 8.78041 4.26799C8.78912 4.215 8.79929 4.16243 8.81201 4.1102C8.83333 4.02258 8.8615 3.9375 8.89349 3.85324C8.8681 3.92009 8.91828 3.80022 8.92793 3.781C8.95125 3.73446 8.9763 3.68888 9.00322 3.64431C9.02734 3.60437 9.05278 3.56527 9.07967 3.52711C9.09158 3.5102 9.10375 3.49343 9.11623 3.47693C9.10744 3.48857 9.07369 3.52647 9.11804 3.47621C9.17973 3.40629 9.24129 3.33757 9.31039 3.27467C9.32949 3.25726 9.34937 3.2408 9.36871 3.22368C9.38177 3.2121 9.43659 3.17014 9.38127 3.21189C9.4143 3.18693 9.44824 3.16311 9.48282 3.14034C9.56101 3.08885 9.64287 3.04291 9.72757 3.00304C9.72557 3.00399 9.81957 2.96379 9.77118 2.9832C9.73045 2.99954 9.7924 2.97567 9.80183 2.97238C9.8468 2.95674 9.89162 2.94121 9.9374 2.92806C9.97836 2.91629 10.0197 2.90586 10.0614 2.89684C10.0823 2.89229 10.1034 2.88807 10.1245 2.88419C10.1473 2.88 10.2223 2.87059 10.1578 2.87776C10.2565 2.86678 10.3557 2.86235 10.455 2.86556C10.4989 2.86699 10.5426 2.87066 10.5864 2.87426C10.6572 2.88009 10.6034 2.87581 10.5885 2.87357C10.6204 2.87835 10.6523 2.8839 10.6839 2.89026C10.7889 2.91136 10.8885 2.94407 10.9898 2.97784C11.0539 2.99923 11.006 2.98313 10.992 2.97722C11.0209 2.98944 11.0493 3.00282 11.0775 3.01661C11.1242 3.03952 11.17 3.06432 11.2148 3.09085C11.2594 3.11729 11.3029 3.14549 11.3453 3.17535C11.3434 3.174 11.4244 3.2349 11.3839 3.20301C11.3483 3.17504 11.4135 3.22818 11.4199 3.23366C11.4984 3.30078 11.5717 3.37404 11.6388 3.45249C11.6372 3.45066 11.7012 3.5293 11.6694 3.48857C11.6416 3.45292 11.6922 3.52016 11.6971 3.52711C11.7299 3.57374 11.7607 3.62181 11.7894 3.67111C11.8156 3.71615 11.8401 3.76211 11.8626 3.80908C11.8717 3.82794 11.8804 3.84693 11.8889 3.86605C11.8992 3.88946 11.8974 3.8852 11.8833 3.85321C11.8891 3.86786 11.8947 3.88263 11.9001 3.89747C11.9344 3.9985 11.9651 4.09932 11.9852 4.2043C11.9893 4.22548 11.9929 4.2467 11.9963 4.26797C12.0004 4.29412 11.9998 4.28928 11.9947 4.25349C11.9966 4.26973 11.9983 4.286 11.9997 4.30229C12.005 4.36288 12.0073 4.42337 12.0078 4.48411C12.0094 4.67093 12.171 4.85006 12.3651 4.84137C12.5573 4.83274 12.724 4.68436 12.7223 4.48411C12.7142 3.49955 12.0974 2.63442 11.1796 2.28893C10.2834 1.95156 9.20957 2.24553 8.6029 2.98308C7.97808 3.7427 7.87309 4.83436 8.38616 5.68445C8.89994 6.5357 9.90372 6.96124 10.8737 6.76687C11.9451 6.55218 12.7134 5.56329 12.7223 4.48411C12.7239 4.29719 12.5569 4.11825 12.3651 4.12685C12.1702 4.13559 12.0095 4.28381 12.0078 4.48411Z" fill="white"/>
<path d="M16.6044 1.79002C17.2902 1.79002 17.976 1.79002 18.6618 1.79002C19.0438 1.79002 19.4259 1.79002 19.808 1.79002C19.8736 1.79002 19.9399 1.78721 20.0055 1.79066C20.0531 1.79317 19.9925 1.78764 19.9917 1.78852C19.9997 1.7799 20.0445 1.80729 19.9961 1.78457C20.0145 1.79321 20.0338 1.80453 20.0502 1.81624C20.0457 1.81305 20.0049 1.78662 20.0375 1.81043C20.0788 1.84056 20.0108 1.76906 20.0401 1.811C20.0462 1.81965 20.0833 1.87169 20.0572 1.83863C20.0319 1.80669 20.0681 1.84833 20.0595 1.8563C20.0666 1.84976 20.0589 1.80467 20.0579 1.85914C20.0579 1.86416 20.0579 1.86919 20.0579 1.87422C20.0623 2.20704 20.0579 2.54019 20.0579 2.87301C20.0579 3.59596 20.0579 4.31888 20.0579 5.04183C20.0579 5.96672 20.0579 6.89159 20.0579 7.81648C20.0579 8.76741 20.0579 9.71834 20.0579 10.6693C20.0579 11.4586 20.0579 12.248 20.0579 13.0373C20.0579 13.481 20.0579 13.9247 20.0579 14.3684C20.0579 14.4037 20.0579 14.4389 20.0579 14.4742C20.0579 14.4786 20.0579 14.483 20.0579 14.4875C20.0581 14.5812 20.0585 14.4893 20.0595 14.4903C20.0642 14.4949 20.0301 14.5656 20.0634 14.4947C20.0548 14.5131 20.0434 14.5324 20.0317 14.5488C20.0349 14.5443 20.0614 14.5035 20.0375 14.5361C20.0064 14.5788 20.0771 14.5047 20.037 14.5387C20.0258 14.5482 20.0092 14.5558 19.9961 14.562C20.067 14.5287 19.9963 14.5628 19.9917 14.5581C19.9907 14.5571 20.0828 14.5567 19.9887 14.5566C19.7596 14.5561 19.5304 14.5566 19.3012 14.5566C18.4626 14.5566 17.6239 14.5566 16.7853 14.5566C16.725 14.5566 16.6647 14.5566 16.6044 14.5566C16.4175 14.5566 16.2385 14.7209 16.2472 14.9138C16.2558 15.1074 16.4041 15.2711 16.6044 15.2711C17.3095 15.2711 18.0145 15.2711 18.7196 15.2711C19.0933 15.2711 19.4671 15.2711 19.8408 15.2711C19.9606 15.2711 20.0796 15.2751 20.197 15.2428C20.5413 15.1482 20.7626 14.8331 20.7724 14.4832C20.7811 14.1696 20.7724 13.8546 20.7724 13.541C20.7724 12.8165 20.7724 12.092 20.7724 11.3675C20.7724 10.4217 20.7724 9.47588 20.7724 8.5301C20.7724 7.5645 20.7724 6.59888 20.7724 5.63328C20.7724 4.83507 20.7724 4.03686 20.7724 3.23865C20.7724 2.80814 20.7724 2.37764 20.7724 1.94712C20.7724 1.91911 20.7732 1.89096 20.7724 1.86295C20.7622 1.50498 20.5255 1.17435 20.1657 1.09649C19.9094 1.04102 19.6181 1.07558 19.3589 1.07558C18.5029 1.07558 17.647 1.07558 16.7911 1.07558C16.7288 1.07558 16.6666 1.07558 16.6044 1.07558C16.4175 1.07558 16.2385 1.23989 16.2471 1.43284C16.2558 1.62633 16.4042 1.79002 16.6044 1.79002Z" fill="white"/>
<path d="M16.6045 3.73994C16.649 3.74037 16.6934 3.74164 16.7378 3.74507C16.7543 3.74633 16.7706 3.74811 16.787 3.74966C16.8443 3.75509 16.7331 3.73997 16.7894 3.75009C16.8689 3.76441 16.9472 3.78186 17.0243 3.80623C17.0648 3.81902 17.1047 3.83338 17.1441 3.84912C17.0811 3.82395 17.1694 3.86206 17.1883 3.87156C17.2634 3.90931 17.3339 3.95335 17.4035 4.00022C17.4164 4.00894 17.429 4.01834 17.4415 4.02763C17.3893 3.98895 17.433 4.02104 17.4428 4.0297C17.474 4.05736 17.5057 4.08401 17.5357 4.11297C17.5619 4.13822 17.5872 4.16437 17.6117 4.19121C17.6222 4.20271 17.6327 4.21434 17.6428 4.22612C17.6419 4.22508 17.7006 4.29722 17.674 4.26261C17.6543 4.23708 17.7096 4.3137 17.719 4.3279C17.7421 4.36274 17.7639 4.39844 17.7844 4.43488C17.8024 4.46694 17.8187 4.49974 17.8351 4.53263C17.8395 4.54154 17.8664 4.6021 17.8493 4.56207C17.8319 4.52132 17.8667 4.60925 17.8662 4.60791C17.8914 4.67832 17.912 4.75044 17.9277 4.82356C17.931 4.83937 17.9498 4.96451 17.9414 4.88924C17.9463 4.93309 17.9499 4.97708 17.9516 5.02117C17.9546 5.09914 17.9512 5.17662 17.9449 5.25434C17.9391 5.32541 17.943 5.27189 17.9454 5.25696C17.9419 5.27837 17.9383 5.29973 17.9342 5.32102C17.926 5.36323 17.9161 5.40515 17.9047 5.44659C17.8935 5.48765 17.8806 5.52833 17.8662 5.56841C17.8609 5.58337 17.8551 5.59816 17.8495 5.61302C17.8299 5.66497 17.8724 5.56525 17.8485 5.61514C17.8121 5.691 17.7735 5.76469 17.7276 5.83538C17.7078 5.86601 17.6869 5.89595 17.6652 5.92527C17.705 5.87146 17.6464 5.94639 17.6326 5.96204C17.5775 6.02466 17.5177 6.08194 17.4548 6.13669C17.4474 6.14312 17.3963 6.18409 17.4302 6.15772C17.4647 6.13093 17.3897 6.18609 17.3908 6.1853C17.3564 6.209 17.3212 6.23144 17.2852 6.25256C17.249 6.27376 17.212 6.29362 17.1744 6.31208C17.1555 6.32135 17.1364 6.33018 17.1172 6.33883C17.1641 6.31775 17.1264 6.33495 17.0998 6.34452C17.0141 6.37529 16.9269 6.40056 16.8375 6.418C16.8162 6.42214 16.7948 6.42567 16.7734 6.42921C16.8095 6.42324 16.8036 6.42607 16.7708 6.42874C16.7154 6.43326 16.6603 6.43619 16.6046 6.43674C16.4178 6.43855 16.2387 6.59977 16.2474 6.794C16.256 6.98601 16.4044 7.15319 16.6046 7.15126C17.4758 7.14285 18.2371 6.59956 18.5443 5.78825C18.8399 5.00721 18.5895 4.05869 17.9482 3.52447C17.5668 3.2068 17.1026 3.03019 16.6046 3.02541C16.4177 3.0236 16.2388 3.19101 16.2474 3.38266C16.256 3.5778 16.4042 3.73802 16.6045 3.73994Z" fill="white"/>
<path d="M4.17189 14.5569C3.48612 14.5569 2.80033 14.5569 2.11456 14.5569C1.73249 14.5569 1.35044 14.5569 0.968362 14.5569C0.902722 14.5569 0.836391 14.5597 0.770798 14.5562C0.723212 14.5537 0.783826 14.5593 0.78466 14.5584C0.77661 14.567 0.73181 14.5396 0.780254 14.5623C0.761796 14.5537 0.742551 14.5424 0.726141 14.5306C0.730619 14.5339 0.771418 14.5603 0.738788 14.5365C0.697513 14.5063 0.765535 14.5778 0.736192 14.5359C0.730142 14.5273 0.693011 14.4752 0.719139 14.5083C0.744385 14.5402 0.708207 14.4986 0.716876 14.4906C0.709755 14.4971 0.717424 14.5422 0.718377 14.4878C0.718472 14.4827 0.718448 14.4777 0.718377 14.4727C0.713994 14.1399 0.718377 13.8067 0.718377 13.4739C0.718377 12.7509 0.718377 12.028 0.718377 11.3051C0.718377 10.3802 0.718377 9.4553 0.718377 8.53041C0.718377 7.57948 0.718377 6.62856 0.718377 5.67763C0.718377 4.88828 0.718377 4.09891 0.718377 3.30956C0.718377 2.86587 0.718377 2.4222 0.718377 1.97851C0.718377 1.94324 0.718401 1.90799 0.718377 1.87272C0.718377 1.86829 0.718377 1.86386 0.718377 1.85943C0.71821 1.76571 0.717853 1.85757 0.716876 1.85662C0.712137 1.85202 0.746195 1.78128 0.712923 1.85221C0.721568 1.83375 0.732881 1.81451 0.744599 1.7981C0.741408 1.80258 0.714971 1.84337 0.738788 1.81074C0.769893 1.76811 0.699299 1.84223 0.73936 1.80817C0.750482 1.79872 0.767131 1.79107 0.780254 1.7849C0.709326 1.81818 0.780063 1.78412 0.78466 1.78886C0.785636 1.78986 0.693559 1.79019 0.78759 1.79036C1.01676 1.79079 1.24593 1.79036 1.47512 1.79036C2.31375 1.79036 3.1524 1.79036 3.99103 1.79036C4.05133 1.79036 4.11161 1.79036 4.17192 1.79036C4.35879 1.79036 4.53782 1.62604 4.52918 1.4331C4.52051 1.23954 4.3722 1.07584 4.17192 1.07584C3.46686 1.07584 2.7618 1.07584 2.05674 1.07584C1.683 1.07584 1.30926 1.07584 0.935542 1.07584C0.815694 1.07584 0.696727 1.07184 0.579284 1.10411C0.234935 1.19876 0.0136499 1.51377 0.00388485 1.86376C-0.00485606 2.17729 0.00388485 2.49232 0.00388485 2.80595C0.00388485 3.53044 0.00388485 4.25494 0.00388485 4.97945C0.00388485 5.92526 0.00388485 6.87106 0.00388485 7.81684C0.00388485 8.78244 0.00388485 9.74806 0.00388485 10.7137C0.00388485 11.5119 0.00388485 12.3101 0.00388485 13.1083C0.00388485 13.5388 0.00388485 13.9693 0.00388485 14.3998C0.00388485 14.4278 0.00309888 14.456 0.00388485 14.484C0.0140548 14.842 0.250774 15.1726 0.610628 15.2505C0.866925 15.3059 1.15816 15.2714 1.41739 15.2714C2.27333 15.2714 3.12927 15.2714 3.98521 15.2714C4.04745 15.2714 4.10968 15.2714 4.17189 15.2714C4.35876 15.2714 4.5378 15.107 4.52915 14.9141C4.52048 14.7206 4.37217 14.5569 4.17189 14.5569Z" fill="white"/>
<path d="M4.17194 6.67502C4.12742 6.6746 4.08305 6.67333 4.03866 6.66988C4.0222 6.66862 4.00581 6.66683 3.9894 6.66528C3.93212 6.65985 4.04333 6.67498 3.98707 6.66485C3.90757 6.65054 3.82921 6.63308 3.75211 6.60869C3.71167 6.5959 3.67171 6.58154 3.63231 6.56578C3.69529 6.59095 3.60702 6.55282 3.58811 6.54332C3.51301 6.50557 3.44256 6.4615 3.37294 6.41463C3.36001 6.40591 3.34746 6.39651 3.33491 6.38722C3.38709 6.42592 3.34343 6.39382 3.33365 6.38512C3.30249 6.35747 3.27079 6.3308 3.24078 6.30186C3.21458 6.27661 3.18929 6.25046 3.16473 6.22359C3.15421 6.21209 3.1438 6.20047 3.13361 6.18865C3.13451 6.1897 3.07587 6.11754 3.1025 6.15214C3.12215 6.17765 3.06682 6.10105 3.05741 6.08684C3.03433 6.05199 3.01252 6.01627 2.99208 5.97983C2.9741 5.94777 2.95774 5.91495 2.94138 5.88206C2.93695 5.87315 2.91006 5.81258 2.92713 5.85262C2.9445 5.89334 2.90979 5.80541 2.91027 5.80675C2.88505 5.73634 2.86445 5.6642 2.84882 5.59108C2.84544 5.57527 2.82672 5.45013 2.83508 5.52539C2.8302 5.48155 2.8266 5.43756 2.82489 5.39345C2.82186 5.31547 2.82524 5.23799 2.83158 5.16028C2.83739 5.0892 2.83348 5.14272 2.8311 5.15766C2.83453 5.13624 2.83818 5.11488 2.8423 5.09359C2.85049 5.05138 2.86035 5.00947 2.87173 4.96802C2.88302 4.92696 2.89589 4.88631 2.91025 4.84622C2.91561 4.83126 2.92142 4.8165 2.92701 4.80161C2.94657 4.74967 2.90405 4.84939 2.92797 4.79952C2.96434 4.72368 3.00302 4.64999 3.04884 4.5793C3.0687 4.5487 3.08954 4.51874 3.11129 4.48944C3.07142 4.54324 3.13008 4.46831 3.14387 4.45269C3.19903 4.3901 3.25884 4.33282 3.32169 4.27806C3.32907 4.27163 3.38023 4.23069 3.34629 4.25706C3.31181 4.28385 3.38681 4.22869 3.38566 4.2295C3.42005 4.2058 3.45533 4.18337 3.49134 4.16226C3.52749 4.14109 3.56448 4.12123 3.60211 4.10277C3.621 4.0935 3.6401 4.08467 3.65927 4.07605C3.6124 4.09712 3.65006 4.07995 3.67671 4.07038C3.7624 4.0396 3.84957 4.01434 3.93898 3.99692C3.96028 3.99278 3.98166 3.98926 4.00305 3.98573C3.96704 3.99168 3.97292 3.98887 4.00567 3.98621C4.06114 3.98168 4.11618 3.97875 4.17187 3.9782C4.35867 3.97639 4.53782 3.81518 4.52913 3.62095C4.52053 3.42893 4.37212 3.26176 4.17187 3.26369C3.30075 3.2721 2.53941 3.8152 2.23224 4.62648C1.93651 5.40755 2.18704 6.35609 2.82834 6.89038C3.2097 7.2081 3.67395 7.38475 4.17187 7.38954C4.35878 7.39135 4.5377 7.22394 4.52913 7.03228C4.52046 6.83717 4.37224 6.67695 4.17194 6.67502Z" fill="white"/>
<path d="M13.2203 17.424C13.4861 18.0224 13.7518 18.6208 14.0175 19.2191C14.0602 19.0562 14.1029 18.8933 14.1456 18.7303C13.686 18.9344 13.2265 19.1386 12.7669 19.3427C12.9298 19.3854 13.0927 19.4281 13.2557 19.4708C12.9899 18.8725 12.7242 18.2741 12.4585 17.6757C12.3744 17.4862 12.1293 17.4767 11.9697 17.5476C11.4163 17.7932 10.8629 18.0389 10.3094 18.2846C10.2285 18.3205 10.1476 18.3564 10.0667 18.3924C10.2459 18.4952 10.4251 18.598 10.6043 18.7008C10.6037 17.7956 10.603 16.8904 10.6024 15.9852C10.6018 15.1015 10.6013 14.2179 10.6008 13.3342C10.6005 12.7903 10.6001 12.2463 10.5998 11.7024C10.3965 11.7866 10.1932 11.8708 9.98988 11.9551C10.7452 12.6386 11.5004 13.3222 12.2557 14.0058C12.8977 14.5867 13.5395 15.1677 14.1814 15.7487C14.5139 16.0497 14.8464 16.3506 15.1789 16.6515C15.203 16.4645 15.2271 16.2775 15.2512 16.0904C14.6979 16.3361 14.1445 16.5818 13.5912 16.8275C13.5103 16.8634 13.4294 16.8993 13.3485 16.9352C13.1721 17.0135 13.1306 17.2707 13.2203 17.424C13.3266 17.6057 13.5321 17.6308 13.7091 17.5522C14.2625 17.3065 14.8158 17.0608 15.3692 16.8151C15.4501 16.7792 15.531 16.7433 15.6119 16.7074C15.8187 16.6156 15.8414 16.2885 15.6842 16.1463C14.9656 15.496 14.2471 14.8456 13.5286 14.1952C12.843 13.5746 12.1572 12.9541 11.4715 12.3335C11.1461 12.0389 10.8206 11.7443 10.4951 11.4497C10.2704 11.2463 9.88506 11.3817 9.88525 11.7024C9.8858 12.5963 9.88637 13.4901 9.88692 14.384C9.88747 15.2841 9.88802 16.1841 9.88864 17.0842C9.88902 17.6231 9.8894 18.162 9.88978 18.7008C9.88999 18.9943 10.1878 19.1156 10.4274 19.0093C10.9808 18.7636 11.5342 18.5179 12.0877 18.2723C12.1686 18.2363 12.2494 18.2004 12.3304 18.1645C12.1674 18.1218 12.0045 18.079 11.8416 18.0363C12.1073 18.6347 12.373 19.2331 12.6387 19.8314C12.7229 20.0209 12.9679 20.0305 13.1275 19.9596C13.5871 19.7555 14.0467 19.5514 14.5063 19.3473C14.6958 19.2631 14.7053 19.0181 14.6344 18.8585C14.3687 18.2601 14.103 17.6617 13.8373 17.0634C13.759 16.887 13.5018 16.8455 13.3485 16.9352C13.1668 17.0415 13.1417 17.247 13.2203 17.424Z" fill="white"/>
<path d="M8.99318 12.0893C9.01854 12.148 8.9806 12.0527 8.97477 12.0355C8.96243 11.9994 8.95128 11.9629 8.94147 11.9261C8.93037 11.8843 8.92199 11.8423 8.91315 11.8C8.91208 11.795 8.90219 11.7422 8.90948 11.7843C8.91751 11.8307 8.90467 11.7367 8.9047 11.7369C8.89841 11.6635 8.89712 11.5897 8.90072 11.5162C8.90172 11.4959 8.90886 11.4034 8.90548 11.4389C8.90105 11.4855 8.90836 11.4202 8.91039 11.4092C8.91415 11.3887 8.91787 11.3683 8.92218 11.348C8.9383 11.2719 8.95971 11.197 8.98629 11.1239C8.9916 11.1093 8.99734 11.0949 9.00289 11.0803C9.02254 11.0292 8.97931 11.1291 9.00358 11.08C9.02199 11.0427 9.03971 11.0054 9.05991 10.9691C9.09528 10.9053 9.13491 10.8442 9.17824 10.7856C9.21077 10.7416 9.14415 10.825 9.18057 10.784C9.191 10.7723 9.20084 10.76 9.21125 10.7482C9.23914 10.7167 9.26824 10.6862 9.29847 10.6569C9.32898 10.6273 9.36094 10.5996 9.39316 10.5719C9.39602 10.5695 9.4377 10.5372 9.40731 10.5601C9.37387 10.5854 9.42848 10.5457 9.4361 10.5405C9.50348 10.4939 9.57427 10.4522 9.64774 10.4161C9.6677 10.4062 9.6879 10.3968 9.70822 10.3878C9.70209 10.3905 9.66153 10.4064 9.69988 10.3919C9.73584 10.3783 9.772 10.3654 9.80875 10.354C9.845 10.3428 9.88168 10.333 9.91859 10.3243C9.93698 10.32 10.0744 10.2956 9.99733 10.3059C10.0704 10.2961 10.1448 10.2926 10.2185 10.2934C10.2552 10.2938 10.2916 10.2965 10.3282 10.2983C10.3439 10.2991 10.3594 10.3017 10.375 10.3025C10.3009 10.2987 10.3705 10.3016 10.3883 10.3049C10.4598 10.3185 10.5304 10.3344 10.6 10.3561C10.6347 10.3669 10.6685 10.3795 10.7027 10.3917C10.7669 10.4147 10.7164 10.3977 10.7034 10.3916C10.7269 10.4026 10.7503 10.4136 10.7735 10.4253C10.8478 10.463 10.9183 10.5066 10.9866 10.5544C10.9946 10.56 11.0462 10.6004 11.0129 10.5736C10.979 10.5464 11.0505 10.607 11.0492 10.6058C11.0808 10.6337 11.1113 10.6628 11.1406 10.693C11.1701 10.7235 11.1978 10.7556 11.2255 10.7877C11.2336 10.7971 11.2651 10.8414 11.2289 10.7912C11.2415 10.8087 11.2541 10.8262 11.2662 10.844C11.3217 10.926 11.3686 11.0128 11.4097 11.1028C11.4897 11.2784 11.7439 11.3214 11.8985 11.231C12.0789 11.1255 12.107 10.9184 12.0266 10.7422C11.6889 10.0014 10.8751 9.51532 10.0606 9.5847C9.21837 9.65644 8.48994 10.2321 8.25908 11.0522C8.12625 11.5241 8.1838 12.0049 8.37612 12.4499C8.45269 12.627 8.71273 12.667 8.86492 12.578C9.048 12.4711 9.07006 12.2671 8.99318 12.0893Z" fill="white"/>
</svg>
