<svg width="23" height="20" viewBox="0 0 23 20" fill="none" xmlns="http://www.w3.org/2000/svg">
<path d="M15.2517 9.90557H15.5574C17.6175 9.90557 19.2933 8.23818 19.2933 6.18875V3.71681C19.2933 1.66712 17.6172 0 15.5574 0H15.2517C13.1913 0 11.5153 1.66739 11.5153 3.71681V6.18875C11.5153 8.23845 13.1913 9.90557 15.2517 9.90557ZM12.8713 3.71681C12.8713 2.41123 13.9393 1.34902 15.2517 1.34902H15.5574C16.8697 1.34902 17.9372 2.4115 17.9372 3.71681V6.18875C17.9372 7.49433 16.8695 8.55655 15.5574 8.55655H15.2517C13.9391 8.55655 12.8713 7.49406 12.8713 6.18875V3.71681V3.71681ZM22.634 11.5832C22.3126 11.1979 21.8093 10.9772 21.2522 10.9772H9.55632C8.9998 10.9772 8.49643 11.1979 8.17505 11.5827C7.86343 11.9563 7.74491 12.4452 7.84174 12.9597C7.97354 13.6602 8.61305 14.2883 8.99464 14.6633L13.6188 19.2626C14.0603 19.7013 14.6445 19.9595 15.2707 19.9941C15.31 19.9995 15.3569 20 15.3968 19.9986C15.4071 19.9992 15.4394 20 15.4494 20H15.4646C15.4915 19.9995 15.5175 19.9973 15.5435 19.9941C16.1681 19.9584 16.7504 19.7002 17.1906 19.2626L21.732 14.7445L21.8141 14.6636C22.196 14.2883 22.8352 13.6602 22.9671 12.96C23.0639 12.4458 22.9456 11.9572 22.634 11.5832ZM21.6341 12.7113C21.5801 12.9972 21.0759 13.4926 20.8606 13.7041L16.2316 18.3086C16.0206 18.5185 15.7364 18.6396 15.4321 18.6488C15.4247 18.6491 15.4171 18.6494 15.4098 18.6499H15.4041L15.4001 18.6502C15.3922 18.6496 15.3841 18.6491 15.3762 18.6488C15.0722 18.6396 14.7882 18.5188 14.5772 18.3089L10.0361 13.7913L9.94794 13.7041C9.7326 13.4926 9.2287 12.9972 9.17446 12.7115C9.15276 12.5955 9.16768 12.5057 9.21866 12.4447C9.28104 12.3697 9.40444 12.3265 9.55632 12.3265H21.2522C21.4044 12.3265 21.5278 12.3697 21.5904 12.4447C21.6414 12.5057 21.6558 12.5952 21.6341 12.7113ZM8.9499 6.50982C8.9499 6.13722 8.64641 5.83531 8.27187 5.83531H5.15297V2.73257C5.15297 2.35997 4.84949 2.05806 4.47495 2.05806C4.10041 2.05806 3.79693 2.35997 3.79693 2.73257V5.83531H0.678022C0.303483 5.83531 0 6.13722 0 6.50982C0 6.88242 0.303483 7.18433 0.678022 7.18433H3.79693V10.2871C3.79693 10.6597 4.10041 10.9616 4.47495 10.9616C4.84949 10.9616 5.15297 10.6597 5.15297 10.2871V7.18433H8.27187C8.64641 7.18433 8.9499 6.88242 8.9499 6.50982Z" fill="white"/>
</svg>
