<svg width="30" height="22" viewBox="0 0 30 22" fill="none" xmlns="http://www.w3.org/2000/svg">
<path d="M17.0947 22H1.55406C1.14203 21.9996 0.746984 21.8394 0.455629 21.5544C0.164275 21.2695 0.00041142 20.8832 0 20.4803V17.5181C0.00122974 16.8944 0.198027 16.2862 0.563845 15.7753C0.929663 15.2645 1.4469 14.8756 2.04578 14.6612L5.07574 13.5838C7.82069 12.6102 10.8281 12.6102 13.573 13.5838L16.603 14.6612C17.2019 14.8756 17.7191 15.2645 18.0849 15.7753C18.4507 16.2862 18.6475 16.8944 18.6488 17.5181V20.4803C18.6483 20.8832 18.4845 21.2695 18.1931 21.5544C17.9018 21.8394 17.5067 21.9996 17.0947 22ZM17.0947 20.4803V21.2402L17.0963 20.4803H17.0947ZM9.32438 14.3733C8.05668 14.3728 6.79863 14.5887 5.60692 15.0115L2.57695 16.0889C2.27757 16.1964 2.01906 16.391 1.83618 16.6466C1.65331 16.9021 1.55485 17.2062 1.55406 17.5181V20.4803H17.0947V17.5181C17.0939 17.2062 16.9955 16.902 16.8126 16.6465C16.6297 16.391 16.3712 16.1964 16.0718 16.0889L13.0418 15.0114C11.8502 14.5886 10.5921 14.3727 9.32438 14.3733ZM9.32438 11.3621C8.40229 11.3621 7.5009 11.0947 6.73421 10.5938C5.96751 10.0928 5.36995 9.38078 5.01708 8.54771C4.66421 7.71465 4.57188 6.79797 4.75177 5.91359C4.93167 5.02921 5.3757 4.21686 6.02771 3.57926C6.67973 2.94166 7.51046 2.50745 8.41483 2.33153C9.31921 2.15562 10.2566 2.2459 11.1085 2.59097C11.9604 2.93604 12.6886 3.52039 13.2009 4.27013C13.7131 5.01987 13.9866 5.90132 13.9866 6.80302C13.9852 8.01177 13.4936 9.17062 12.6196 10.0253C11.7455 10.88 10.5605 11.3608 9.32438 11.3621ZM9.32438 3.76363C8.70965 3.76363 8.10873 3.94189 7.5976 4.27586C7.08647 4.60983 6.68809 5.08452 6.45285 5.6399C6.2176 6.19528 6.15605 6.8064 6.27598 7.39598C6.3959 7.98557 6.69192 8.52713 7.1266 8.9522C7.56128 9.37727 8.1151 9.66674 8.71802 9.78402C9.32093 9.90129 9.94587 9.8411 10.5138 9.61106C11.0817 9.38101 11.5672 8.99145 11.9087 8.49162C12.2502 7.9918 12.4325 7.40416 12.4325 6.80302C12.4316 5.99721 12.1038 5.22466 11.5211 4.65486C10.9384 4.08507 10.1484 3.76455 9.32438 3.76363ZM26.9647 12.4811C26.8385 12.4815 26.7142 12.4514 26.6027 12.3936L23.311 10.7002L20.0192 12.3936C19.891 12.4596 19.7464 12.4892 19.6018 12.479C19.4573 12.4689 19.3185 12.4194 19.2012 12.3362C19.0839 12.253 18.9927 12.1394 18.938 12.0081C18.8833 11.8769 18.8672 11.7333 18.8916 11.5936L19.5199 8.0081L16.8564 5.46884C16.7526 5.36975 16.6792 5.24425 16.6445 5.10652C16.6098 4.96878 16.6152 4.8243 16.66 4.68939C16.7048 4.55448 16.7873 4.43452 16.8982 4.34304C17.0091 4.25157 17.1439 4.19224 17.2874 4.17174L20.9677 3.64935L22.6144 0.387347C22.6862 0.269289 22.7882 0.171513 22.9103 0.103608C23.0324 0.0357029 23.1705 0 23.311 0C23.4514 0 23.5895 0.0357029 23.7116 0.103608C23.8337 0.171513 23.9357 0.269289 24.0075 0.387347L25.6542 3.64935L29.3345 4.17174C29.478 4.19224 29.6128 4.25157 29.7237 4.34304C29.8346 4.43452 29.9171 4.55448 29.9619 4.68939C30.0068 4.8243 30.0121 4.96878 29.9774 5.10652C29.9427 5.24425 29.8693 5.36975 29.7655 5.46884L27.102 8.00814L27.7303 11.5937C27.7493 11.7027 27.7438 11.8144 27.714 11.9211C27.6843 12.0277 27.6312 12.1268 27.5582 12.2113C27.4853 12.2958 27.3945 12.3637 27.2919 12.4103C27.1894 12.457 27.0777 12.4811 26.9647 12.4812V12.4811ZM23.311 9.08257C23.4371 9.08285 23.5612 9.11289 23.6729 9.17014L25.9327 10.3322L25.5017 7.87008C25.4804 7.74873 25.4896 7.62415 25.5285 7.50705C25.5673 7.38995 25.6347 7.28382 25.7248 7.1978L27.5535 5.45548L25.0266 5.0964C24.902 5.07853 24.7837 5.03139 24.6818 4.95902C24.58 4.88665 24.4975 4.79121 24.4416 4.68087L23.311 2.44131L22.1803 4.6808C22.1244 4.79115 22.042 4.88661 21.9401 4.95899C21.8382 5.03137 21.7199 5.07852 21.5953 5.0964L19.0684 5.45555L20.8971 7.19787C20.9872 7.2839 21.0545 7.39002 21.0934 7.50713C21.1323 7.62423 21.1415 7.74881 21.1202 7.87016L20.6892 10.3322L22.949 9.17014C23.0607 9.11289 23.1849 9.08285 23.311 9.08257Z" fill="white"/>
</svg>
