<svg xmlns="http://www.w3.org/2000/svg" width="32.75" height="30.5" viewBox="0 0 32.75 30.5"><defs><style>.a{fill:#fff;stroke:#fff;stroke-width:0.5px;}</style></defs><g transform="translate(-40.75 -56.943)"><g transform="translate(41 57.193)"><g transform="translate(0.75 9)"><path class="a" d="M74.25,177.5H51.75a.75.75,0,0,1,0-1.5h22.5a.75.75,0,0,1,0,1.5Z" transform="translate(-51 -176)"/></g><g transform="translate(0 3)"><path class="a" d="M69.125,123H58.518a.75.75,0,0,1,0-1.5H69.125a2.628,2.628,0,0,0,2.625-2.625v-6.589a.75.75,0,0,1,1.5,0v6.589A4.13,4.13,0,0,1,69.125,123Zm-14.357,0H45.125A4.13,4.13,0,0,1,41,118.875v-7.554a.75.75,0,0,1,1.5,0v7.554a2.628,2.628,0,0,0,2.625,2.625h9.643a.75.75,0,0,1,0,1.5ZM72.5,109.286a.75.75,0,0,1-.75-.75v-8.411A2.628,2.628,0,0,0,69.125,97.5H68v2.25a.75.75,0,0,1-.75.75H63.5a.75.75,0,0,1-.75-.75V97.5H52.625a.75.75,0,1,1,0-1.5H63.5a.75.75,0,0,1,.75.75V99H66.5V96.75a.75.75,0,0,1,.75-.75h1.875a4.13,4.13,0,0,1,4.125,4.125v8.411A.75.75,0,0,1,72.5,109.286Zm-30.75-.964a.75.75,0,0,1-.75-.75v-7.446A4.13,4.13,0,0,1,45.125,96H47a.75.75,0,0,1,.75.75V99H50v-.375a.75.75,0,0,1,1.5,0V99.75a.75.75,0,0,1-.75.75H47a.75.75,0,0,1-.75-.75V97.5H45.125a2.628,2.628,0,0,0-2.625,2.625v7.446A.75.75,0,0,1,41.75,108.321Z" transform="translate(-41 -96)"/></g><g transform="translate(5.25)"><path class="a" d="M115.5,63.5h-3.75a.75.75,0,0,1-.75-.75V58.625a2.625,2.625,0,1,1,5.25,0V62.75A.75.75,0,0,1,115.5,63.5Zm-3-1.5h2.25V58.625a1.125,1.125,0,1,0-2.25,0Z" transform="translate(-111 -56)"/></g><g transform="translate(21.75)"><path class="a" d="M335.5,63.5h-3.75a.75.75,0,0,1-.75-.75V58.625a2.625,2.625,0,1,1,5.25,0V62.75A.75.75,0,0,1,335.5,63.5Zm-3-1.5h2.25V58.625a1.125,1.125,0,0,0-2.25,0Z" transform="translate(-331 -56)"/></g></g></g></svg>