<svg xmlns="http://www.w3.org/2000/svg" xmlns:xlink="http://www.w3.org/1999/xlink" width="46.64" height="46.647" viewBox="0 0 46.64 46.647"><defs><style>.a{fill:rgba(0,0,0,0);stroke-linecap:round;}.a,.c{stroke:#502eff;stroke-miterlimit:10;stroke-width:2px;}.b{stroke:#5c3cff;fill:url(#a);}.c{fill:none;}</style><linearGradient id="a" x1="-1.93" y1="-0.512" x2="0.5" y2="1" gradientUnits="objectBoundingBox"><stop offset="0" stop-color="#d1c7ff"/><stop offset="1" stop-color="#502eff"/></linearGradient></defs><g transform="translate(1 1.003)"><g transform="translate(0 0)"><path class="a" d="M23.063,7.951a6.947,6.947,0,1,1-2.035-4.914,6.947,6.947,0,0,1,2.035,4.914Z" transform="translate(-1.245 -1.003)"/><path class="a" d="M24.268,22.092a16.3,16.3,0,0,0-8.406-2.279C7.66,19.809,1,25.637,1,32.832H18.36" transform="translate(-1 -1.559)"/><g transform="translate(17.823 17.828)"><g transform="translate(9.44 5.429)"><path class="b" d="M37,34.871a3.1,3.1,0,0,1-.1,1.331,2.869,2.869,0,0,1-.641,1.1,3.811,3.811,0,0,1-1.131.827,5.839,5.839,0,0,1-1.575.506l.057,1.958a.446.446,0,0,1-.016.109.184.184,0,0,1-.071.09.564.564,0,0,1-.168.071,2.073,2.073,0,0,1-.285.056,2.131,2.131,0,0,1-.328.022,1.009,1.009,0,0,1-.2-.031.152.152,0,0,1-.1-.078.2.2,0,0,1-.022-.127l-.045-1.951a7.916,7.916,0,0,1-.813-.034,6.129,6.129,0,0,1-.67-.1,3.19,3.19,0,0,1-.511-.142,1.26,1.26,0,0,1-.328-.162.483.483,0,0,1-.162-.228,2.027,2.027,0,0,1-.09-.414,2.479,2.479,0,0,1-.024-.328,1.21,1.21,0,0,1,.024-.219A.244.244,0,0,1,29.88,37a.274.274,0,0,1,.135-.049.712.712,0,0,1,.345.088,5.45,5.45,0,0,0,.6.209,5.574,5.574,0,0,0,.9.178,4.757,4.757,0,0,0,1.236-.026,3.108,3.108,0,0,0,1.856-.747,1.617,1.617,0,0,0,.476-1.438,1.529,1.529,0,0,0-.352-.845,2.245,2.245,0,0,0-.719-.522,4.455,4.455,0,0,0-.963-.316c-.348-.078-.706-.158-1.068-.236a10.832,10.832,0,0,1-1.079-.3,3.783,3.783,0,0,1-.975-.477,2.8,2.8,0,0,1-.746-.79,2.977,2.977,0,0,1-.4-1.228,3.008,3.008,0,0,1,.06-1.139,2.5,2.5,0,0,1,.5-.983,3.216,3.216,0,0,1,.949-.761,4.8,4.8,0,0,1,1.413-.485l-.057-1.822A.338.338,0,0,1,32,25.209a.209.209,0,0,1,.071-.095.487.487,0,0,1,.162-.071,3.158,3.158,0,0,1,.623-.075.545.545,0,0,1,.205.034.192.192,0,0,1,.095.082.345.345,0,0,1,.034.121l.037,1.807a4.578,4.578,0,0,1,.57.021c.2.021.385.046.561.08a3.618,3.618,0,0,1,.484.127,1.228,1.228,0,0,1,.3.142.469.469,0,0,1,.125.116.623.623,0,0,1,.067.142,1.6,1.6,0,0,1,.057.182,1.647,1.647,0,0,1,.046.238,2.821,2.821,0,0,1,.024.3.741.741,0,0,1-.014.2.207.207,0,0,1-.059.109.154.154,0,0,1-.1.051.8.8,0,0,1-.328-.075,5.583,5.583,0,0,0-.57-.179,6.749,6.749,0,0,0-.787-.151,3.682,3.682,0,0,0-.967.008,3.917,3.917,0,0,0-1,.249,1.869,1.869,0,0,0-.641.414,1.269,1.269,0,0,0-.319.553,1.72,1.72,0,0,0-.038.655,1.558,1.558,0,0,0,.362.86,2.136,2.136,0,0,0,.723.513,4.283,4.283,0,0,0,.958.309l1.084.234q.555.125,1.092.289a3.522,3.522,0,0,1,.983.471,2.683,2.683,0,0,1,.754.783A2.9,2.9,0,0,1,37,34.879Z" transform="translate(-29.093 -24.968)"/></g><path class="c" d="M44.858,30.5h-.934a11.355,11.355,0,0,0-1.659-4l.664-.665a1.329,1.329,0,0,0,0-1.871l-1.347-1.346a1.333,1.333,0,0,0-1.871,0l-.666.668a11.355,11.355,0,0,0-4-1.661V20.7a1.327,1.327,0,0,0-1.323-1.325h-1.9A1.327,1.327,0,0,0,30.5,20.7v.932a11.33,11.33,0,0,0-4,1.661l-.664-.665a1.335,1.335,0,0,0-1.872,0l-1.346,1.346a1.333,1.333,0,0,0,0,1.871l.666.665A11.355,11.355,0,0,0,21.622,30.5h-.934a1.327,1.327,0,0,0-1.322,1.325v1.9a1.329,1.329,0,0,0,1.322,1.331h.934a11.346,11.346,0,0,0,1.665,4l-.666.664a1.333,1.333,0,0,0,0,1.871l1.346,1.347a1.333,1.333,0,0,0,1.872,0l.663-.665a11.33,11.33,0,0,0,4,1.657v.934A1.327,1.327,0,0,0,31.82,46.19h1.9a1.327,1.327,0,0,0,1.323-1.325v-.934a11.312,11.312,0,0,0,4-1.66l.666.665a1.329,1.329,0,0,0,1.871,0l1.347-1.345a1.331,1.331,0,0,0,0-1.872l-.664-.665a11.361,11.361,0,0,0,1.659-3.995h.934a1.33,1.33,0,0,0,1.325-1.325v-1.9A1.329,1.329,0,0,0,44.858,30.5Z" transform="translate(-19.366 -19.374)"/></g></g></g></svg>