<svg xmlns="http://www.w3.org/2000/svg" width="31.102" height="29.562" viewBox="0 0 31.102 29.562"><defs><style>.a{fill:#fff;}</style></defs><g transform="translate(0 -12.675)"><g transform="translate(0 12.676)"><path class="a" d="M30.58,25.809l-2.627-2.394V15.477a.915.915,0,0,0-.915-.915H20.713a.915.915,0,0,0-.915.915v.509l-3.173-2.891a1.588,1.588,0,0,0-2.148,0L.522,25.809A1.595,1.595,0,0,0,1.6,28.583H3.825v12.74a.915.915,0,0,0,.915.915h7.649a.915.915,0,0,0,.915-.915V33.588h4.5v7.735a.915.915,0,0,0,.915.915h7.648a.915.915,0,0,0,.915-.915V28.583h2.229a1.595,1.595,0,0,0,1.074-2.774Zm-4.218.945a.915.915,0,0,0-.915.915v12.74H19.628V32.673a.915.915,0,0,0-.915-.915H12.389a.915.915,0,0,0-.915.915v7.735H5.655V27.669a.915.915,0,0,0-.915-.915H2.2L15.551,14.59,20.1,18.732a.915.915,0,0,0,1.531-.676V16.391h4.5v7.428a.915.915,0,0,0,.3.676L28.9,26.754Z" transform="translate(0 -12.676)"/></g></g></svg>