<svg xmlns="http://www.w3.org/2000/svg" width="28.383" height="30.356" viewBox="0 0 28.383 30.356"><defs><style>.a{fill:#fff;stroke:#fff;}</style></defs><g transform="translate(-4.704 -1.5)"><path class="a" d="M25.927,15.929v7.423a.9.9,0,0,0,.061.305l1.65,3.482a.03.03,0,0,0,.031.031.4.4,0,0,1,0,.428.439.439,0,0,1-.4.214H19.756a.78.78,0,0,0-.733.58,1.867,1.867,0,0,1-1.833,1.466,1.892,1.892,0,0,1-1.833-1.466.753.753,0,0,0-.733-.58H7.141a.488.488,0,0,1-.4-.214.412.412,0,0,1,0-.428l.031-.031,1.65-3.452a.551.551,0,0,0,.061-.305V15.166c0-4.582,2.5-8.064,6.354-8.828a.742.742,0,0,0,.519-.428L16.4,3.5V3.466h1.65V3.5l1.039,2.444a.742.742,0,0,0,.519.428c.092.031.214.061.305.092a6.968,6.968,0,0,1,.611-1.375.719.719,0,0,0-.244-.061l-.764-2.047A1.311,1.311,0,0,0,18.229,2H16.366a1.311,1.311,0,0,0-1.283.977l-.855,2.016C9.859,6.063,7.049,10,7.049,15.2V23.23L5.461,26.5a1.9,1.9,0,0,0,.031,1.894,1.924,1.924,0,0,0,1.65.947h7a3.369,3.369,0,0,0,6.17,0h7a1.921,1.921,0,0,0,1.68-2.841l-1.558-3.3V15.96c-.183,0-.367.031-.55.031A9.25,9.25,0,0,1,25.927,15.929Z"/><path class="a" d="M62.943,5.3a5.743,5.743,0,1,0,5.743,5.743A5.736,5.736,0,0,0,62.943,5.3Zm2.016,8.034a.387.387,0,0,1-.428.428H61.66a.387.387,0,0,1-.428-.428v-.305a.387.387,0,0,1,.428-.428h.764V9.821h-.031a.8.8,0,0,1-.183.244l-.061.061a.388.388,0,0,1-.611-.031l-.214-.214a.388.388,0,0,1,.031-.611l.978-.916a.67.67,0,0,1,.519-.214h.458a.386.386,0,0,1,.428.428v4H64.5a.386.386,0,0,1,.428.428v.336Z" transform="translate(-36.099 -2.292)"/></g></svg>