<svg xmlns="http://www.w3.org/2000/svg" xmlns:xlink="http://www.w3.org/1999/xlink" width="44.998" height="50" viewBox="0 0 44.998 50"><defs><style>.a{fill:url(#a);}</style><linearGradient id="a" x1="-1.595" x2="0.5" y2="1" gradientUnits="objectBoundingBox"><stop offset="0" stop-color="#d1c7ff"/><stop offset="1" stop-color="#502eff"/></linearGradient></defs><path class="a" d="M41,17.666H33.5a2.455,2.455,0,0,1-2.5-2.5V6h1.667v9.166A.787.787,0,0,0,33.5,16H41Z" transform="translate(-9.334 -2.666)"/><path class="a" d="M46,37.666H44.333a1.667,1.667,0,1,1,0-3.333H46A1.675,1.675,0,0,1,47.667,36h1.667A3.343,3.343,0,0,0,46,32.666V31H44.333v1.667a3.333,3.333,0,1,0,0,6.667H46a1.667,1.667,0,0,1,0,3.333H44.333A1.675,1.675,0,0,1,42.667,41H41a3.343,3.343,0,0,0,3.333,3.333V46H46V44.332a3.333,3.333,0,1,0,0-6.667Z" transform="translate(-11.001 -6.835)"/><path class="a" d="M54.665,37.815A10.833,10.833,0,1,0,38,46.9v9.082l5.833-3.917,5.833,3.917V46.9A10.75,10.75,0,0,0,54.665,37.815ZM48,52.9l-4.166-2.749L39.666,52.9V47.814a10.833,10.833,0,0,0,8.333,0Zm-4.166-5.916A9.14,9.14,0,1,1,50.321,44.3a9.166,9.166,0,0,1-6.488,2.677Z" transform="translate(-9.667 -6.151)"/><path class="a" d="M6.667,49.5V4.5A.787.787,0,0,1,7.5,3.667H27.665a.757.757,0,0,1,.583.25l9.83,11.749a.757.757,0,0,1,.25.583v4.916c.25,0,.583-.083.833-.083a2.835,2.835,0,0,1,.833.083V16.249a2.27,2.27,0,0,0-.75-1.748L29.415,2.75A2.4,2.4,0,0,0,27.665,2H7.5A2.455,2.455,0,0,0,5,4.5v45A2.455,2.455,0,0,0,7.5,52H31.665V50.33H7.5a.787.787,0,0,1-.833-.833Z" transform="translate(-4.999 -1.999)"/><rect class="a" width="11.811" height="1.575" transform="translate(3.15 3.544)"/><rect class="a" width="16.534" height="1.575" transform="translate(3.15 6.693)"/><rect class="a" width="16.534" height="1.575" transform="translate(3.15 9.842)"/><rect class="a" width="23.62" height="2.362" transform="translate(3.15 41.336)"/><rect class="a" width="23.62" height="1.575" transform="translate(3.15 45.273)"/><rect class="a" width="16.534" height="2.362" transform="translate(3.15 12.991)"/><path class="a" d="M29,43.249v.417H24v-15h5v2.083A12.019,12.019,0,0,1,32.333,27H30.665V23.667h5V25.25c.5-.167,1.083-.333,1.667-.5V22H9V45.332H30.5A11.976,11.976,0,0,1,29,43.249ZM24,23.667h5V27H24Zm-8.334,20h-5v-15h5Zm0-16.666h-5V23.667h5Zm6.666,16.666h-5v-15h5Zm0-16.666h-5V23.667h5Z" transform="translate(-5.666 -5.334)"/></svg>