<svg xmlns="http://www.w3.org/2000/svg" xmlns:xlink="http://www.w3.org/1999/xlink" width="567" height="580" viewBox="0 0 567 580">
  <defs>
    <clipPath id="clip-path">
      <rect id="Rectangle_2209" data-name="Rectangle 2209" width="567" height="580" transform="translate(4019 469)" fill="#d0dbff" stroke="#707070" stroke-width="1"/>
    </clipPath>
    <linearGradient id="linear-gradient" x1="0.5" x2="0.5" y2="1.347" gradientUnits="objectBoundingBox">
      <stop offset="0.09" stop-color="#001fa9"/>
      <stop offset="1" stop-color="#150e42"/>
    </linearGradient>
    <linearGradient id="linear-gradient-2" y1="0.5" x2="1" y2="0.5" gradientUnits="objectBoundingBox">
      <stop offset="0" stop-color="#f47960"/>
      <stop offset="1" stop-color="#ff1d25"/>
    </linearGradient>
    <linearGradient id="linear-gradient-3" x1="390.713" y1="312.255" x2="391.713" y2="312.255" gradientUnits="objectBoundingBox">
      <stop offset="0" stop-color="#fdf53f"/>
      <stop offset="1" stop-color="#d93c65"/>
    </linearGradient>
    <linearGradient id="linear-gradient-4" x1="78.215" y1="-14.213" x2="78.856" y2="-14.213" gradientUnits="objectBoundingBox">
      <stop offset="0" stop-color="#53d8ff"/>
      <stop offset="1" stop-color="#3840f7"/>
    </linearGradient>
    <linearGradient id="linear-gradient-5" x1="200.099" y1="33.795" x2="201.095" y2="33.795" gradientUnits="objectBoundingBox">
      <stop offset="0" stop-color="#f9b776"/>
      <stop offset="1" stop-color="#f47960"/>
    </linearGradient>
    <linearGradient id="linear-gradient-6" x1="36.479" y1="6.457" x2="37.475" y2="6.457" gradientUnits="objectBoundingBox">
      <stop offset="0.12" stop-color="#021e9e"/>
      <stop offset="0.53" stop-color="#001fa9"/>
      <stop offset="1" stop-color="#201600"/>
    </linearGradient>
    <linearGradient id="linear-gradient-7" x1="82.979" y1="192.769" x2="83.411" y2="192.769" xlink:href="#linear-gradient-4"/>
    <linearGradient id="linear-gradient-8" x1="83.23" y1="96.136" x2="83.65" y2="96.136" gradientUnits="objectBoundingBox">
      <stop offset="0" stop-color="#2b3582"/>
      <stop offset="1" stop-color="#150e42"/>
    </linearGradient>
    <linearGradient id="linear-gradient-9" x1="78.273" y1="-5.152" x2="79.048" y2="-5.152" xlink:href="#linear-gradient-8"/>
    <linearGradient id="linear-gradient-10" x1="316.516" y1="-4.958" x2="318.021" y2="-4.958" xlink:href="#linear-gradient-5"/>
    <linearGradient id="linear-gradient-11" x1="39.583" y1="5.981" x2="40.584" y2="5.981" xlink:href="#linear-gradient-6"/>
    <linearGradient id="linear-gradient-12" x1="178.868" y1="25.767" x2="179.191" y2="24.996" xlink:href="#linear-gradient-5"/>
    <linearGradient id="linear-gradient-13" x1="135.695" y1="3.438" x2="134.533" y2="4.163" xlink:href="#linear-gradient-5"/>
    <linearGradient id="linear-gradient-14" x1="684.653" y1="10.105" x2="685.676" y2="10.105" xlink:href="#linear-gradient-5"/>
    <linearGradient id="linear-gradient-15" x1="673.669" y1="9.875" x2="667.866" y2="12.176" xlink:href="#linear-gradient-5"/>
    <linearGradient id="linear-gradient-16" x1="43.232" y1="7.219" x2="44.255" y2="6.499" gradientUnits="objectBoundingBox">
      <stop offset="0" stop-color="#001fa9"/>
      <stop offset="1" stop-color="#2f78fa"/>
    </linearGradient>
    <linearGradient id="linear-gradient-17" x1="-29.475" y1="-159.493" x2="-28.328" y2="-159.493" xlink:href="#linear-gradient-5"/>
    <linearGradient id="linear-gradient-18" x1="121.643" y1="142.511" x2="122.748" y2="142.511" xlink:href="#linear-gradient-5"/>
    <linearGradient id="linear-gradient-19" x1="46.682" y1="7.374" x2="47.682" y2="7.374" xlink:href="#linear-gradient-16"/>
    <linearGradient id="linear-gradient-20" x1="64.301" y1="-2.855" x2="65.108" y2="-2.855" xlink:href="#linear-gradient-2"/>
    <linearGradient id="linear-gradient-21" x1="-8.966" y1="0.916" x2="-8.226" y2="0.916" xlink:href="#linear-gradient-4"/>
    <linearGradient id="linear-gradient-22" x1="-9.298" y1="0.907" x2="-8.579" y2="0.907" xlink:href="#linear-gradient-8"/>
    <linearGradient id="linear-gradient-23" x1="-16.308" y1="1.48" x2="-15.252" y2="1.48" xlink:href="#linear-gradient-5"/>
    <linearGradient id="linear-gradient-24" x1="-2.428" y1="0.69" x2="-1.254" y2="0.69" xlink:href="#linear-gradient-6"/>
    <linearGradient id="linear-gradient-25" x1="-10.028" y1="1.926" x2="-8.729" y2="1.926" xlink:href="#linear-gradient-4"/>
    <linearGradient id="linear-gradient-26" x1="-7.401" y1="1.929" x2="-6.235" y2="1.929" xlink:href="#linear-gradient-8"/>
    <linearGradient id="linear-gradient-27" x1="-12.893" y1="4.374" x2="-11.919" y2="4.374" xlink:href="#linear-gradient-5"/>
    <linearGradient id="linear-gradient-28" x1="-1.472" y1="1.264" x2="-0.518" y2="1.264" xlink:href="#linear-gradient-6"/>
    <linearGradient id="linear-gradient-29" x1="-8.716" y1="2.523" x2="-8.354" y2="1.737" xlink:href="#linear-gradient-5"/>
    <linearGradient id="linear-gradient-30" x1="-4.892" y1="1.493" x2="-5.908" y2="2.246" xlink:href="#linear-gradient-5"/>
    <linearGradient id="linear-gradient-31" x1="6.463" y1="4.021" x2="7.248" y2="4.021" xlink:href="#linear-gradient-5"/>
    <linearGradient id="linear-gradient-32" x1="-20.952" y1="2.98" x2="-25.154" y2="5.663" xlink:href="#linear-gradient-5"/>
    <linearGradient id="linear-gradient-33" x1="-0.043" y1="0.501" x2="1" y2="0.501" xlink:href="#linear-gradient-5"/>
    <linearGradient id="linear-gradient-34" x1="0.294" y1="0.904" x2="1.409" y2="0.904" xlink:href="#linear-gradient-16"/>
    <linearGradient id="linear-gradient-35" x1="0.166" y1="0.105" x2="0.985" y2="0.995" gradientUnits="objectBoundingBox">
      <stop offset="0.06" stop-color="#001fa9"/>
      <stop offset="1" stop-color="#2f78fa"/>
    </linearGradient>
    <linearGradient id="linear-gradient-36" x1="0" y1="0.502" y2="0.502" xlink:href="#linear-gradient-2"/>
    <linearGradient id="linear-gradient-37" x1="0" y1="0.5" x2="3.02" y2="0.5" xlink:href="#linear-gradient-3"/>
    <linearGradient id="linear-gradient-38" y1="0.5" x2="3.022" y2="0.5" gradientUnits="objectBoundingBox">
      <stop offset="0" stop-color="#f47960"/>
      <stop offset="1" stop-color="#f9b776"/>
    </linearGradient>
    <linearGradient id="linear-gradient-39" x1="0" y1="0.504" y2="0.504" xlink:href="#linear-gradient-2"/>
    <linearGradient id="linear-gradient-41" x1="0" y1="0.504" y2="0.504" xlink:href="#linear-gradient-2"/>
    <linearGradient id="linear-gradient-42" x1="0" y1="0.5" x2="1" y2="0.5" xlink:href="#linear-gradient-6"/>
    <linearGradient id="linear-gradient-43" x1="-10.85" y1="-9.072" x2="-9.753" y2="-9.072" xlink:href="#linear-gradient-5"/>
  </defs>
  <g id="Group_1506" data-name="Group 1506" transform="translate(-4072 -1378)">
    <g id="Rectangle_2210" data-name="Rectangle 2210" transform="translate(4072 1378)" fill="#d0dbff" stroke="#707070" stroke-width="1">
      <rect width="567" height="580" stroke="none"/>
      <rect x="0.5" y="0.5" width="566" height="579" fill="none"/>
    </g>
    <g id="Mask_Group_1438" data-name="Mask Group 1438" transform="translate(53 909)" clip-path="url(#clip-path)">
      <g id="Layer_2" data-name="Layer 2" transform="translate(3948 506.889)">
        <g id="OBJECTS" transform="translate(0 -0.01)">
          <path id="Path_7221" data-name="Path 7221" d="M12.48,260.86a10.2,10.2,0,0,1,10.2-10.127,9.894,9.894,0,0,1,3.614.67,7.752,7.752,0,0,1,12.852-4.721A11.074,11.074,0,0,1,61,249.131v.729a11.074,11.074,0,1,1,6.149,21.011V271H20.96v-.146A10.2,10.2,0,0,1,12.48,260.86Z" transform="translate(5.705 108.863)" fill="#fff"/>
          <path id="Path_7222" data-name="Path 7222" d="M116.29,110.209a15.052,15.052,0,0,1,20.4-14.09,11.555,11.555,0,0,1,19.248-7.111,16.494,16.494,0,0,1,32.639,3.657v1.078a16.3,16.3,0,0,1,6.7-1.457,16.494,16.494,0,0,1,2.448,32.8v.189H128.981v-.219a15.081,15.081,0,0,1-12.691-14.848Z" transform="translate(53.155 34.699)" fill="#fff"/>
          <path id="Path_7223" data-name="Path 7223" d="M337.29,40.177A17.806,17.806,0,0,1,355.1,22.371a17.558,17.558,0,0,1,6.338,1.18,13.653,13.653,0,0,1,22.731-8.393,19.467,19.467,0,0,1,38.453,4.371q0,.634,0,1.268a19.467,19.467,0,1,1,10.826,37.039v.219H352.2v-.262A17.806,17.806,0,0,1,337.29,40.177Z" transform="translate(154.173 0.01)" fill="#fff"/>
          <path id="Path_7224" data-name="Path 7224" d="M24.29,189.177A17.806,17.806,0,0,1,42.1,171.371a17.557,17.557,0,0,1,6.338,1.18,13.653,13.653,0,0,1,22.731-8.393,19.467,19.467,0,0,1,38.453,4.371q0,.634,0,1.268a19.467,19.467,0,1,1,10.826,37.039v.219H39.2v-.262A17.806,17.806,0,0,1,24.29,189.177Z" transform="translate(11.103 68.117)" fill="#fff"/>
          <path id="Path_7225" data-name="Path 7225" d="M225.565,311.561c-2.186,0-218.564-.714-223.431,0l-.2-1.457c4.969-.743,214.717,0,223.649,0Z" transform="translate(0.882 141.611)" fill="#fff"/>
          <path id="Path_7226" data-name="Path 7226" d="M286.034,254.559c-2.783,0-279.033-.714-283.9,0l-.2-1.457c4.969-.729,272.724,0,284.133,0Z" transform="translate(0.882 115.558)" fill="#fff"/>
          <path id="Path_7227" data-name="Path 7227" d="M309.348,180.561c-3.016,0-302.347-.714-307.214,0l-.2-1.457c4.969-.743,295.076,0,307.447,0Z" transform="translate(0.882 81.731)" fill="#fff"/>
          <rect id="Rectangle_2208" data-name="Rectangle 2208" width="407.141" height="1.457" transform="translate(0 143.16)" fill="#fff"/>
          <path id="Path_7228" data-name="Path 7228" d="M6.352,426.078l-.131-11.409a25.266,25.266,0,0,1,33.193-24.392l13.478,4.371A25.281,25.281,0,0,0,81.1,385.614l31.007-42.11a25.3,25.3,0,0,1,39.531-1.457L173.2,367.095a25.281,25.281,0,0,0,43.043-8.174l30.9-88.781c9.369-26.9,49.177-20.166,49.177,8.32V424.621Z" transform="translate(2.842 115.729)" fill="#2f78fa"/>
          <path id="Path_7229" data-name="Path 7229" d="M592.2,496.748h.379l-.481-.291L478.445,166.338C466.788,133.393,440.794,98,400,98l.6.277c-36.165,0-68.134,36.631-78.9,71.15L249.842,400.07,232.823,452.73a16.684,16.684,0,0,1-23.314,9.792l-10.2-5.1a16.7,16.7,0,0,0-19.263,3.133L168.39,472.211a16.684,16.684,0,0,1-25.63-2.462l-10.7-15.853a16.7,16.7,0,0,0-26.679-1.326L82.946,479.627a16.7,16.7,0,0,1-17.033,5.508l-17.383-4.5a16.684,16.684,0,0,0-12.866,1.894L12.35,496.734H588.456l3.92.5Z" transform="translate(5.645 44.81)" fill="url(#linear-gradient)"/>
          <path id="Path_7230" data-name="Path 7230" d="M441.17,269.817l-17.791,94.609a25.281,25.281,0,0,1-43.013,8.145L358.8,347.524a25.3,25.3,0,0,0-39.531,1.457l-31.007,42.11a25.28,25.28,0,0,1-28.209,9.034l-13.478-4.371a25.281,25.281,0,0,0-33.134,24.392l.131,9.952,326.549,1.7-48.4-163.442C480.06,223.19,440.718,243.589,441.17,269.817Z" transform="translate(97.561 110.5)" fill="#2f78fa"/>
          <path id="Path_7231" data-name="Path 7231" d="M323.91,6.08,286.2,140.774l1.953.539L325.862,6.619,323.91,6.08Z" transform="translate(130.82 2.794)" fill="#031d7c"/>
          <path id="Path_7232" data-name="Path 7232" d="M311.768,8.79s29.943,4.983,21.361,11.992,36.5,19.175,36.5,19.175S354.985,51.352,350.614,57.18c-7.052,9.4-34.3-9.223-28.311-15.052,10.287-9.981-20.122.933-20.122.933L311.768,8.79Z" transform="translate(138.125 4.033)" fill="url(#linear-gradient-2)"/>
          <path id="Path_7233" data-name="Path 7233" d="M107.633,426.854l-1.093-.962,6.411-7.417a40.463,40.463,0,0,1,30.016-14.5,13.7,13.7,0,0,0,13.114-9.573L256.621,85.064a33.63,33.63,0,0,1,30.6-23.124L414.511,57v1.457l-127.2,4.94a32.187,32.187,0,0,0-29.229,22.119L157.538,394.856a15.139,15.139,0,0,1-14.571,10.578,38.963,38.963,0,0,0-28.909,14Z" transform="translate(48.699 26.069)" fill="#031d7c"/>
          <path id="Path_7234" data-name="Path 7234" d="M282.941,53.878a13.74,13.74,0,0,1-10.491-.758" transform="translate(124.535 24.296)" fill="none" stroke="#d0dbff" stroke-linecap="round" stroke-miterlimit="10" stroke-width="4"/>
          <path id="Path_7235" data-name="Path 7235" d="M269.407,28.66l-6.557-1.37Z" transform="translate(120.147 12.489)" fill="url(#linear-gradient-3)"/>
          <path id="Path_7236" data-name="Path 7236" d="M265.533,113.58a2.666,2.666,0,0,1-1.967,2.273c-4.284,1.239-15.824,4.022-24.945,1.151a1.005,1.005,0,0,1-.67-1.326,38.2,38.2,0,0,0,11.657,1.093C258.35,116.567,263.013,114.979,265.533,113.58Z" transform="translate(108.736 51.932)" fill="url(#linear-gradient-4)"/>
          <path id="Path_7237" data-name="Path 7237" d="M109.8,238.479A13.755,13.755,0,0,0,120,235.74" transform="translate(50.189 107.77)" fill="none" stroke="#d0dbff" stroke-linecap="round" stroke-miterlimit="10" stroke-width="4"/>
          <path id="Path_7238" data-name="Path 7238" d="M182.648,259.273a.685.685,0,0,1-.51-.2,12.094,12.094,0,0,1-3.191-5.173.729.729,0,1,1,1.384-.437,10.827,10.827,0,0,0,2.812,4.561.729.729,0,0,1-.5,1.253Z" transform="translate(81.77 115.609)" fill="#d0dbff"/>
          <path id="Path_7239" data-name="Path 7239" d="M184.135,256.97h-.175a4.153,4.153,0,0,1-2.914-5.1.733.733,0,0,1,1.4.437,2.506,2.506,0,0,0,.262,2,2.579,2.579,0,0,0,1.588,1.253.733.733,0,1,1-.16,1.457Z" transform="translate(82.688 114.91)" fill="#d0dbff"/>
          <path id="Path_7240" data-name="Path 7240" d="M133.761,280.313,80.14,265.378l3.847-13.828,53.621,14.95-3.847,13.813Z" transform="translate(36.632 114.997)" fill="#820000"/>
          <path id="Path_7241" data-name="Path 7241" d="M304.8,107.054l6.848,6.644a2.084,2.084,0,0,0,2.564.233,5.449,5.449,0,0,0,1.967-2.477,2.055,2.055,0,0,0-.393-2.171L308.94,102.1a2.054,2.054,0,0,0-3.293.35l-1.209,2.084A2.04,2.04,0,0,0,304.8,107.054Z" transform="translate(139.029 46.378)" fill="url(#linear-gradient-5)"/>
          <path id="Path_7242" data-name="Path 7242" d="M284.208,57.12s8.145,27.131,13.391,39.036c0,0,9.019,1.326,14.571,4.546S329.9,121.917,329.9,121.917s-3.089,5.974-6.877,6.921L288.755,105.35,261.23,73.775l1.195-14.746Z" transform="translate(119.407 26.124)" fill="url(#linear-gradient-6)"/>
          <path id="Path_7243" data-name="Path 7243" d="M323.883,111.68a2.652,2.652,0,0,1-1.792,2.4c-4.167,1.545-15.489,5.144-24.771,2.914a1.005,1.005,0,0,1-.758-1.268,38.074,38.074,0,0,0,11.657.233C316.948,115.162,321.479,113.254,323.883,111.68Z" transform="translate(135.538 51.063)" fill="url(#linear-gradient-7)"/>
          <path id="Path_7244" data-name="Path 7244" d="M319.53,106.54a9.355,9.355,0,0,1,4.371,7.446h0c-2.4,1.574-6.936,3.482-15.635,4.371a38.073,38.073,0,0,1-11.657-.233c0-.175.2-.291.277-.5,1.02-3.118,8.947-1.938,17.048-7.489C315.421,109.017,318.19,110.124,319.53,106.54Z" transform="translate(135.579 48.714)" fill="url(#linear-gradient-8)"/>
          <path id="Path_7245" data-name="Path 7245" d="M307.7,112.792a.729.729,0,0,1-.714-.656,1.151,1.151,0,0,0-.641-.845,1.224,1.224,0,0,0-1.064-.1.729.729,0,0,1-.612-1.311,2.725,2.725,0,0,1,3.759,2.1.728.728,0,0,1-.641.8Z" transform="translate(139.104 50.141)" fill="#d0dbff"/>
          <path id="Path_7246" data-name="Path 7246" d="M305.053,113.367a.729.729,0,0,1-.7-.481,1.457,1.457,0,0,0-1.676-.816.729.729,0,1,1-.452-1.384,2.914,2.914,0,0,1,3.512,1.7.729.729,0,0,1-.437.933Z" transform="translate(137.904 50.556)" fill="#d0dbff"/>
          <path id="Path_7247" data-name="Path 7247" d="M261.734,108.349a9.4,9.4,0,0,1,3.774,7.752h0c-2.521,1.457-7.183,2.914-15.911,3.191A38.205,38.205,0,0,1,237.94,118.2a1.3,1.3,0,0,1,.306-.466c2.39-2.229,13.464-4.371,17.339-8.99C257.334,106.659,259.592,109.777,261.734,108.349Z" transform="translate(108.761 49.382)" fill="url(#linear-gradient-9)"/>
          <path id="Path_7248" data-name="Path 7248" d="M249.728,106.011l.714,5.377a2.054,2.054,0,0,0,1.85,1.778,5.391,5.391,0,0,0,3.089-.67,2.1,2.1,0,0,0,1.064-1.952l-.379-5.828a2.054,2.054,0,0,0-2.783-1.792l-2.244.845a2.055,2.055,0,0,0-1.311,2.244Z" transform="translate(114.138 46.999)" fill="url(#linear-gradient-10)"/>
          <path id="Path_7249" data-name="Path 7249" d="M249.793,116.158a.743.743,0,0,1-.685-.466,10.71,10.71,0,0,0-3.1-4.371.714.714,0,0,1-.1-1.02.743.743,0,0,1,1.035-.087,12.182,12.182,0,0,1,3.541,4.954.714.714,0,0,1-.423.933.568.568,0,0,1-.262.058Z" transform="translate(112.324 50.315)" fill="#d0dbff"/>
          <path id="Path_7250" data-name="Path 7250" d="M247.144,116.655h-.117a.728.728,0,0,1-.6-.845,2.608,2.608,0,0,0-.539-1.952,2.536,2.536,0,0,0-1.734-1.02.743.743,0,0,1-.656-.8.758.758,0,0,1,.8-.656,4.138,4.138,0,0,1,3.555,4.677A.714.714,0,0,1,247.144,116.655Z" transform="translate(111.302 50.926)" fill="#d0dbff"/>
          <path id="Path_7251" data-name="Path 7251" d="M296.454,55.6l2.375,7.431s-2,19.525-26.679,16.465-27.685-7.111-27.685-7.111,40.1,45.957,13.3,61.111c0,0-4.109-3.06-5.027-6.557L233.42,64.925c0-5.828,5.1-7.941,9.894-7.285,10.593,1.588,30.424,3.614,33.426,3.089Z" transform="translate(106.695 25.43)" fill="url(#linear-gradient-11)"/>
          <path id="Path_7252" data-name="Path 7252" d="M274.462,17.781c7.14.772,18.534,3.643,25.893,10.331a89.2,89.2,0,0,0-8.218,10.578,28.938,28.938,0,0,0-11.657-5.828c2.783,16.028,10.3,30.1,16.188,43.407a1.559,1.559,0,0,1-.889,2.1c-4.488,1.6-17.7,5.42-28.37-.525L243.63,44.329a29,29,0,0,1-4.94-12.138l2.914-6.12S257.326,15.93,274.462,17.781Z" transform="translate(109.104 8.039)" fill="#fff"/>
          <path id="Path_7253" data-name="Path 7253" d="M254.821,11.63l6.236,12.006a2,2,0,0,1-.277,2.244c-1.457,1.661-4.969,4.371-11.1,2.492a1.865,1.865,0,0,1-1.282-1.457L246.72,15.987Z" transform="translate(112.774 5.331)" fill="url(#linear-gradient-12)"/>
          <path id="Path_7254" data-name="Path 7254" d="M240.59,8.518s1.457,8.917,3.57,12.72,2.914,6.673,7.591,4.706a10.7,10.7,0,0,0,6.513-11.263s-.568-7.562-2.725-9.442S240.59,8.518,240.59,8.518Z" transform="translate(109.972 2.222)" fill="url(#linear-gradient-13)"/>
          <path id="Path_7255" data-name="Path 7255" d="M241.45,11.31a48.077,48.077,0,0,1,0,6.644l3.73-.6c-1.035-1.836-2.069-3.672-3.118-5.508" transform="translate(110.365 5.185)" fill="url(#linear-gradient-14)"/>
          <path id="Path_7256" data-name="Path 7256" d="M235.859,7.037a5.319,5.319,0,0,1,.729-3.278.291.291,0,0,1,.146-.117,3.436,3.436,0,0,1,.408-.612,6.586,6.586,0,0,1,8.029-1.821,4.372,4.372,0,0,1,1.122.831c5.61-2.171,10.2-2.171,12.531,1.282a.35.35,0,0,0,.6,0c.233-.481.787-.991,2.055-.831,2.215.291,3.628,3.8,2.127,8.393a.335.335,0,0,0,.306.452c.816,0,2.229.335.787,2.914a8.742,8.742,0,0,1-3.992,3.978.335.335,0,0,1-.452-.189L258.91,14.41a.335.335,0,0,0-.51-.16l-1.078.685H257a.685.685,0,0,1-.787-.627c-.146-1.457-.67-4.925-2.579-4.575-2.448.452-11.132,3.8-14.571,2.127a5.347,5.347,0,0,1-1.719-1.311v.583A6.5,6.5,0,0,1,235.859,7.037Z" transform="translate(107.797 0.264)" fill="#003de6"/>
          <path id="Path_7257" data-name="Path 7257" d="M250.939,12.581s-1.69-5.2,1.107-5.231,2.156,5.668.656,6.863Z" transform="translate(114.471 3.375)" fill="url(#linear-gradient-15)"/>
          <path id="Path_7258" data-name="Path 7258" d="M256.654,17.387A2.914,2.914,0,0,1,259,20.461a4.765,4.765,0,0,1-2.142,3.512c-1.166.816-3.818,2.3-3.818,2.3s4.371,45.243,37.884,57.745c4.94,1.836,19.321-16.13,19.321-16.13s-18.053,2.127-25.426-6.965c-3.832-4.736-8.932-24.29-8.932-24.29s34.766,18.942,33.309,34.97c-.117,1.355,5.828-2.914,5.828-2.914s1.457-18.942-20.4-39.342C279.4,15,256.654,17.387,256.654,17.387Z" transform="translate(115.663 7.894)" fill="url(#linear-gradient-16)"/>
          <path id="Path_7259" data-name="Path 7259" d="M291.07,68.046a2.506,2.506,0,0,0,2.1-1.137,7.4,7.4,0,0,0,.962-2.288l1.049-3.6A15.562,15.562,0,0,0,299.2,66.21a9.194,9.194,0,0,0,3.978,2.04.656.656,0,0,0,.627-1.049,20.747,20.747,0,0,0-4.226-4.371c1.588,2.055,4.488,4.663,5.537,3.176.568-.787-2.025-2.637-3.92-3.745l3.278,1.923c.51.306.67-.1,1.049-.554-.1-1.166-2.914-2.433-4.677-3.992l4.094,2.914c.423-.51-.087-1.239-.554-1.69a40.711,40.711,0,0,1-6.746-8.393c-2.623,2.506-4.6,1.909-4.9,5.581C292.673,58.91,291.551,68.075,291.07,68.046Z" transform="translate(133.046 23.999)" fill="url(#linear-gradient-17)"/>
          <path id="Path_7260" data-name="Path 7260" d="M291.4,57.456a.729.729,0,0,1-.714-.67.714.714,0,0,1,.656-.787,16.028,16.028,0,0,0,7.533-3.934.732.732,0,0,1,1.02,1.049,17.558,17.558,0,0,1-8.422,4.371Z" transform="translate(132.867 23.719)" fill="#fff"/>
          <path id="Path_7261" data-name="Path 7261" d="M218.055,76.22a2.521,2.521,0,0,1-1.326-2,7.446,7.446,0,0,1,.233-2.463c.248-1.224.5-2.448.758-3.672a15.358,15.358,0,0,1-5.989,2.7,9.734,9.734,0,0,1-6.411-.9,28.3,28.3,0,0,1,7.664-2.273,9.486,9.486,0,0,1-7.562,0,20.021,20.021,0,0,1,6.4-1.311l-3.8.16c-.583,0-1.341-.073-1.457-.641l6.819-1.661-4.983.641c-.131-.641.656-1.049,1.282-1.224a47.254,47.254,0,0,0,10.564-4.5c1.137,3.439,2.492,4.08,1.035,7.46C220.882,67.39,217.618,76.016,218.055,76.22Z" transform="translate(93.851 27.016)" fill="url(#linear-gradient-18)"/>
          <path id="Path_7262" data-name="Path 7262" d="M248.076,25.646c-2,3.366-13.114,40.8-33.513,51-2.215,1.107,4.371,5.828,4.371,5.828s14.571-4.371,30.6-23.314c2.462-2.914,6.819-12.6,6.819-12.6a83.272,83.272,0,0,1,7.475,17.354c2.069,8.029.743,11.467.743,11.467l9.4,1.865s-6.12-16.028-9.573-28.734-3.439-15.387-.816-23.43l-2.04-4.677" transform="translate(97.867 9.34)" fill="url(#linear-gradient-19)"/>
          <path id="Path_7263" data-name="Path 7263" d="M219.991,66.781a.787.787,0,0,1-.408-.117,12.079,12.079,0,0,1-5.42-6.164c-.189-.437-.408-.9-.656-1.457a.729.729,0,1,1,1.3-.641c.262.525.481,1.005.685,1.457a10.637,10.637,0,0,0,4.9,5.552.743.743,0,0,1,.2,1.02A.728.728,0,0,1,219.991,66.781Z" transform="translate(97.539 26.488)" fill="#fff"/>
          <path id="Path_7264" data-name="Path 7264" d="M252.4,27.1l2.3-3.424-6-.321,1.107,5.726s2.7,13.668,11.657,21.492c4.138,3.628,18.52,11.249,18.52,11.249l10.287-.51-4.532-8.029a184.931,184.931,0,0,1-16.582-8.6c-5.129-3.453-13.391-7.781-16.48-16.028A10.507,10.507,0,0,1,252.4,27.1Z" transform="translate(113.679 10.693)" fill="url(#linear-gradient-20)"/>
          <path id="Path_7265" data-name="Path 7265" d="M253.417,27.91a.761.761,0,0,1-.437-1.457,11.059,11.059,0,0,0,4.852-3.424,4.561,4.561,0,0,0,.554-3.686,2.185,2.185,0,0,0-1.457-1.37.729.729,0,0,1,.452-1.384,3.657,3.657,0,0,1,2.419,2.244,6.105,6.105,0,0,1-.685,4.969,12.181,12.181,0,0,1-5.45,4.094Z" transform="translate(115.388 7.585)" fill="#fff"/>
          <path id="Path_7266" data-name="Path 7266" d="M249.012,26.23a.729.729,0,0,1-.481-.175,6.834,6.834,0,0,1-2.331-5.231.743.743,0,0,1,.729-.714h0a.729.729,0,0,1,.714.743,5.377,5.377,0,0,0,1.821,4.094.714.714,0,0,1,.073,1.02.685.685,0,0,1-.525.262Z" transform="translate(112.536 9.207)" fill="#fff"/>
          <path id="Path_7267" data-name="Path 7267" d="M87.251,295a2.652,2.652,0,0,0-.6,2.914c1.632,4.138,6.47,14.979,14.309,20.4a1.005,1.005,0,0,0,1.457-.262,38.848,38.848,0,0,1-7.97-8.6C89.262,302.519,87.688,297.914,87.251,295Z" transform="translate(39.516 134.858)" fill="url(#linear-gradient-21)"/>
          <path id="Path_7268" data-name="Path 7268" d="M95.48,293.923A9.384,9.384,0,0,0,87,295.657h0c.437,2.841,2.011,7.5,7.183,14.571a38.848,38.848,0,0,0,7.97,8.6,1.035,1.035,0,0,0,.189-.539C102.766,313.754,93.921,310.461,95.48,293.923Z" transform="translate(39.767 134.201)" fill="url(#linear-gradient-22)"/>
          <path id="Path_7269" data-name="Path 7269" d="M97.789,294.69l-3.162,4.371a2.04,2.04,0,0,1-2.462.714,5.333,5.333,0,0,1-2.4-2.04,2.069,2.069,0,0,1,0-2.215l3.045-4.954a2.055,2.055,0,0,1,3.293-.277l1.588,1.807A2.084,2.084,0,0,1,97.789,294.69Z" transform="translate(40.882 132.385)" fill="url(#linear-gradient-23)"/>
          <path id="Path_7270" data-name="Path 7270" d="M91.511,302.88a.568.568,0,0,1,.306-.306,4.182,4.182,0,0,1,3.118-.423.568.568,0,0,1,.481.656.612.612,0,0,1-.656.51,3.147,3.147,0,0,0-2.55.35.564.564,0,0,1-.7-.787Z" transform="translate(41.799 138.067)" fill="#d0dbff"/>
          <path id="Path_7271" data-name="Path 7271" d="M92.392,304.908l.073-.117a3.162,3.162,0,0,1,2.244-1.166c.889-.087.947.117,1.545.685a.612.612,0,0,1,0,.831.583.583,0,0,1-.816,0c-.364-.35-.1-.437-.67-.393a2.025,2.025,0,0,0-1.457.743.57.57,0,0,1-.962-.612Z" transform="translate(42.171 138.792)" fill="#d0dbff"/>
          <path id="Path_7272" data-name="Path 7272" d="M123.266,241.244s-2.914,28.18-5.712,40.8c0,0-8.6,3.016-13.493,7.285S90.7,313.53,90.7,313.53s4.182,5.275,8.072,5.479L128.031,289.4l21-36.238L145.05,239Z" transform="translate(41.458 109.261)" fill="url(#linear-gradient-24)"/>
          <path id="Path_7273" data-name="Path 7273" d="M178.09,272.12a2.652,2.652,0,0,0,2.914-.933c2.8-3.468,9.835-13.026,10.724-22.556a.991.991,0,0,0-.947-1.122,38.044,38.044,0,0,1-3.526,11.176C183.612,266.656,180.363,270.328,178.09,272.12Z" transform="translate(81.404 113.15)" fill="url(#linear-gradient-25)"/>
          <path id="Path_7274" data-name="Path 7274" d="M174.17,265.627a9.4,9.4,0,0,0,5.683,6.484h0c2.273-1.792,5.522-5.464,9.107-13.434a38.045,38.045,0,0,0,3.526-11.176,1.093,1.093,0,0,0-.554.1c-2.914,1.341-9.209,10.724-15.008,12.487C174.316,260.921,176.312,264.258,174.17,265.627Z" transform="translate(79.612 113.145)" fill="url(#linear-gradient-26)"/>
          <path id="Path_7275" data-name="Path 7275" d="M174.432,254.581l4.677,2.739a2.055,2.055,0,0,1,.918,2.39,5.26,5.26,0,0,1-1.821,2.579,2.025,2.025,0,0,1-2.2.233l-5.187-2.594a2.055,2.055,0,0,1-.568-3.264l1.647-1.734a2.04,2.04,0,0,1,2.535-.35Z" transform="translate(77.558 116.25)" fill="url(#linear-gradient-27)"/>
          <path id="Path_7276" data-name="Path 7276" d="M182.648,259.273a.685.685,0,0,1-.51-.2,12.094,12.094,0,0,1-3.191-5.173.729.729,0,1,1,1.384-.437,10.827,10.827,0,0,0,2.812,4.561.729.729,0,0,1-.5,1.253Z" transform="translate(81.77 115.609)" fill="#d0dbff"/>
          <path id="Path_7277" data-name="Path 7277" d="M184.135,256.97h-.175a4.153,4.153,0,0,1-2.914-5.1.733.733,0,0,1,1.4.437,2.506,2.506,0,0,0,.262,2,2.579,2.579,0,0,0,1.588,1.253.733.733,0,1,1-.16,1.457Z" transform="translate(82.688 114.91)" fill="#d0dbff"/>
          <path id="Path_7278" data-name="Path 7278" d="M113.388,241.8l-.918,7.752s5.683,18.782,29.258,11.016,25.878-12.283,25.878-12.283.189,12.648,29.39,22.41c0,0,3.453-3.774,3.686-7.387l-24.246-27.073c-3.337-3.512-5.916-4.124-10.491-2.506-10.1,3.57-29.142,9.355-32.216,9.4Z" transform="translate(51.409 106.462)" fill="url(#linear-gradient-28)"/>
          <path id="Path_7279" data-name="Path 7279" d="M126.415,199.636c-6.979,1.676-17.485,7.111-23.445,15.1a87.049,87.049,0,0,1,10.1,8.743,28.734,28.734,0,0,1,10.3-7.912c.321,16.29-4.371,31.5-7.621,45.68a1.574,1.574,0,0,0,1.282,1.909c4.706.7,18.4,1.923,27.685-5.93l16.931-37.491a28.864,28.864,0,0,0,2.55-12.852l-3.41-5.828S141.627,195.979,126.415,199.636Z" transform="translate(47.067 90.662)" fill="#fff"/>
          <path id="Path_7280" data-name="Path 7280" d="M129.888,191.17l-3.832,12.968a1.982,1.982,0,0,0,.7,2.142c1.763,1.355,5.581,3.7,11.249.67a2.579,2.579,0,0,0,1.107-2.055l-.452-11.045Z" transform="translate(57.582 87.398)" fill="url(#linear-gradient-29)"/>
          <path id="Path_7281" data-name="Path 7281" d="M137.932,180.44s5.085,7.475,6.12,11.657,2.477,6.834-2.3,8.626a10.71,10.71,0,0,1-12.473-3.745s-4.765-5.9-4.473-8.743S137.932,180.44,137.932,180.44Z" transform="translate(57.041 82.493)" fill="url(#linear-gradient-30)"/>
          <path id="Path_7282" data-name="Path 7282" d="M135.89,183.9a47.781,47.781,0,0,0,4.532,4.867l-3.133,2.113c-.5-2.04-.86-4.91-1.355-6.95" transform="translate(62.114 84.075)" fill="url(#linear-gradient-31)"/>
          <path id="Path_7283" data-name="Path 7283" d="M142.612,176.108a5.217,5.217,0,0,0-2.768-1.88h-.189a5.658,5.658,0,0,0-.714-.16,6.586,6.586,0,0,0-7.038,4.226,4.372,4.372,0,0,0-.248,1.457c-5.581,2.259-8.932,5.406-8.262,9.515a.335.335,0,0,1-.466.379c-.5-.189-1.239-.189-2.055.8-1.457,1.719,0,5.246,4.2,7.562a.35.35,0,0,1,.087.554c-.583.554-1.457,1.763,1.457,2.666a8.742,8.742,0,0,0,5.639.16.35.35,0,0,0,.189-.452l-1.457-3.555a.335.335,0,0,1,.262-.466l1.268-.248.262-.175a.685.685,0,0,0,.146-.991c-.947-1.209-2.914-4.051-1.268-5.1,2.1-1.355,10.724-4.867,12.05-8.407a5.23,5.23,0,0,0,.35-2.127A8.437,8.437,0,0,0,142.612,176.108Z" transform="translate(54.999 79.554)" fill="#003de6"/>
          <path id="Path_7284" data-name="Path 7284" d="M130.38,191.1s-2.317-4.954-4.371-3.06,2.3,5.61,4.226,5.45Z" transform="translate(57.352 85.768)" fill="url(#linear-gradient-32)"/>
          <path id="Path_7285" data-name="Path 7285" d="M189.636,203.8l-3.555,1.37a19.745,19.745,0,0,0,5.639-3.293,9.34,9.34,0,0,0-3.89.525,27.6,27.6,0,0,0,3.293-2.652,9.661,9.661,0,0,0-6.368,1.195,15.314,15.314,0,0,0-4.808,4.473l-.452-3.73a7.548,7.548,0,0,0-.583-2.4,2.535,2.535,0,0,0-1.88-1.457c.466,0,.1,9.282,0,10.2a8.046,8.046,0,0,0,0,1.821c-8.218,7.9-13.974,10.2-20.924,8.043a26.519,26.519,0,0,0-3.176,14.061c16.611,3.089,27.583-16.174,29.054-18.942a47,47,0,0,1,6.936-5.9c.539-.379,1.166-1.005.831-1.574l-4.517,2.215,5.93-3.759C190.933,203.44,190.175,203.586,189.636,203.8Z" transform="translate(69.887 90.442)" fill="url(#linear-gradient-33)"/>
          <path id="Path_7286" data-name="Path 7286" d="M146.242,200.915c2.579,2.914,11.19,15.023,18.053,16.378,10.608,2.1,15.008-3.5,15.008-3.5l5.435,7.154s-12.05,19.292-32.785,6.834a30.353,30.353,0,0,1-5.6-4.371,83.464,83.464,0,0,0-4.036,18.432c-.5,8.276,1.457,11.409,1.457,11.409l-8.859,3.614s2.914-16.859,3.9-30.031.466-15.751-3.657-23.153l1.122-4.983" transform="translate(61.671 90.84)" fill="url(#linear-gradient-34)"/>
          <path id="Path_7287" data-name="Path 7287" d="M171.839,217.745a.714.714,0,0,1-.6-.321,59.334,59.334,0,0,0-4.983-6.44c-.466-.539-.86-.991-1.209-1.457a.729.729,0,0,1,1.151-.889c.335.437.714.86,1.166,1.37a60.691,60.691,0,0,1,5.071,6.586.714.714,0,0,1-.189,1.005.685.685,0,0,1-.408.146Z" transform="translate(75.386 95.269)" fill="#fff"/>
          <path id="Path_7288" data-name="Path 7288" d="M144.336,206.172a19.744,19.744,0,0,1-4.138-.933,4.779,4.779,0,0,1-2.783-3.031c-.335-1.457-.189-3.351,1.166-3.788,0,0-22.935.525-35.1,17.485-10.579,14.731-3.482,32.216-.787,37.724h0c.277.554.5.991.656,1.282h0a3,3,0,0,0,.175.291h0v.087l1.239-.248a30.817,30.817,0,0,0,5.26-1.457l.437-.233a1.02,1.02,0,0,0,.452-.466.233.233,0,0,0,0-.219c-.291-.525-.554-1.035-.8-1.544l-.175-.364c-.219-.5-.437-.991-.612-1.457l-.073-.175c-.16-.452-.291-.889-.423-1.326l-.087-.35c-.131-.466-.233-.933-.321-1.384v-.291c0-.393-.117-.772-.146-1.166v-1.632a2.815,2.815,0,0,1,0-.35v-1.37a6.755,6.755,0,0,1,.175-1.195,3.727,3.727,0,0,1,0-.393q.087-.481.219-.962v-.291q.16-.539.35-1.093a1.217,1.217,0,0,1,.146-.423c3.584-9.7,14.571-15.635,14.571-15.635s-1.282,20.152-4.138,25.528C114.1,257.126,95.96,258.452,95.96,258.452s17.485,14.964,22.046,12.225C148.751,252.012,144.336,206.172,144.336,206.172Z" transform="translate(43.863 90.712)" fill="url(#linear-gradient-35)"/>
          <path id="Path_7289" data-name="Path 7289" d="M108.916,267.456,85.5,256.047a10.376,10.376,0,0,1-1.938-1.457l-5.1,18.287a4.838,4.838,0,0,0,3.337,5.916l44.412,12.371a4.808,4.808,0,0,0,5.916-3.337l5.129-18.359a13.788,13.788,0,0,1-2.419.277L108.916,267.4Z" transform="translate(35.788 116.387)" fill="url(#linear-gradient-36)"/>
          <path id="Path_7290" data-name="Path 7290" d="M138.16,257.238,89.522,243.687l-.35-.1a4.808,4.808,0,0,0-5.916,3.337l-2.113,7.548a4.211,4.211,0,0,0,1.457,4.517,10.376,10.376,0,0,0,1.938,1.457l23.4,11.395,25.936,2.361a12.2,12.2,0,0,0,2.4-.291l3.308-11.861A4.794,4.794,0,0,0,138.16,257.238Z" transform="translate(37.012 111.276)" fill="#f47960"/>
          <path id="Path_7291" data-name="Path 7291" d="M104,271.939l-8.641-2.4,3.031-10.884,8.641,2.419L104,271.939Z" transform="translate(43.588 118.242)" fill="url(#linear-gradient-37)"/>
          <path id="Path_7292" data-name="Path 7292" d="M102.169,268.571,96.88,267.1l1.851-6.659,5.289,1.472-1.851,6.659Z" transform="translate(44.283 119.061)" fill="url(#linear-gradient-38)"/>
          <path id="Path_7293" data-name="Path 7293" d="M99.411,247.409l-3.351-.947.262-.962,3.351.947-.262.962Z" transform="translate(43.908 112.232)" fill="url(#linear-gradient-39)"/>
          <path id="Path_7294" data-name="Path 7294" d="M112.026,250.914l-3.366-.933.262-.962,3.366.933-.262.962Z" transform="translate(49.668 113.841)" fill="url(#linear-gradient-2)"/>
          <path id="Path_7295" data-name="Path 7295" d="M108.8,243.194c-5.828-1.6-11.278,0-12.3,3.73l2.579.714c.772-2.754,4.91-4.007,9.253-2.8s7.285,4.371,6.469,7.183l2.594.714c1.02-3.657-2.827-7.927-8.6-9.544Z" transform="translate(44.11 110.895)" fill="url(#linear-gradient-41)"/>
          <path id="Path_7296" data-name="Path 7296" d="M141.949,207.081l-2.914-2.914,5.828-1.457v5.828s0,13.93-7.285,23.314c-3.351,4.371-16.028,14.571-16.028,14.571l-10.2,1.457,2.914-8.743a184.963,184.963,0,0,0,14.571-11.657c4.371-4.371,11.657-10.2,13.114-18.942A11.653,11.653,0,0,0,141.949,207.081Z" transform="translate(50.897 92.673)" fill="url(#linear-gradient-42)"/>
          <path id="Path_7297" data-name="Path 7297" d="M117.721,243.827a2.506,2.506,0,0,1-2.258.743,7.532,7.532,0,0,1-2.331-.874l-3.337-1.7a15.2,15.2,0,0,1,1.005,6.484,8.99,8.99,0,0,1-1.239,4.3.656.656,0,0,1-1.195-.262,20.72,20.72,0,0,1-.277-6.091c.393,2.564.306,6.455-1.457,6.222-.962-.131-.525-3.308,0-5.435-.277,1.239-.568,2.477-.845,3.716-.131.568-.539.408-1.122.379-.787-.874.233-3.8.306-6.149l-.7,4.983c-.656,0-.831-.9-.845-1.559a46.846,46.846,0,0,0-1.457-11.38c3.628-.189,3.8-2.04,5.989-.583C108.542,237.1,117.415,244.191,117.721,243.827Z" transform="translate(46.61 107.916)" fill="url(#linear-gradient-43)"/>
          <path id="Path_7298" data-name="Path 7298" d="M101.229,239.3a.729.729,0,0,1,0-1.457,16.028,16.028,0,0,0,8.014-2.812.714.714,0,0,1,1.02,0,.729.729,0,0,1,0,1.035,17.485,17.485,0,0,1-8.917,3.162Z" transform="translate(45.938 107.347)" fill="#fff"/>
          <path id="Path_7299" data-name="Path 7299" d="M135.09,204.681a.773.773,0,0,1-.393-.117.743.743,0,0,1-.233-1.005,5.362,5.362,0,0,0,.568-4.371.729.729,0,0,1,.466-.918.743.743,0,0,1,.918.466,6.8,6.8,0,0,1-.714,5.668A.758.758,0,0,1,135.09,204.681Z" transform="translate(61.414 90.628)" fill="#fff"/>
          <path id="Path_7300" data-name="Path 7300" d="M132.31,207.876h-.087a12.08,12.08,0,0,1-6.134-3,5.479,5.479,0,0,1-1.457-3.963,4.838,4.838,0,0,1,1.734-3.4.708.708,0,1,1,.962,1.035,3.366,3.366,0,0,0-1.239,2.39,4.065,4.065,0,0,0,1.107,2.914,10.943,10.943,0,0,0,5.435,2.565.743.743,0,0,1,.51.9.7.7,0,0,1-.831.554Z" transform="translate(56.966 90.203)" fill="#fff"/>
        </g>
      </g>
    </g>
  </g>
</svg>
