<svg xmlns="http://www.w3.org/2000/svg" xmlns:xlink="http://www.w3.org/1999/xlink" width="139" height="139" viewBox="0 0 139 139">
  <defs>
    <linearGradient id="linear-gradient" x1="0.5" x2="0.5" y2="1" gradientUnits="objectBoundingBox">
      <stop offset="0" stop-color="#c8fdc4"/>
      <stop offset="1" stop-color="#07badd"/>
    </linearGradient>
  </defs>
  <g id="Group_7974" data-name="Group 7974" transform="translate(-1037 -445)">
    <circle id="Ellipse_3470" data-name="Ellipse 3470" cx="69.5" cy="69.5" r="69.5" transform="translate(1037 445)" fill="#ddd9dc" opacity="0.34"/>
    <path id="Icon_awesome-file-csv" data-name="Icon awesome-file-csv" d="M15.75,9.563V0H1.688A1.683,1.683,0,0,0,0,1.688V34.313A1.683,1.683,0,0,0,1.688,36H25.313A1.683,1.683,0,0,0,27,34.313V11.25H17.438A1.692,1.692,0,0,1,15.75,9.563ZM9,19.688a.562.562,0,0,1-.562.563H7.875A1.125,1.125,0,0,0,6.75,21.375v2.25A1.125,1.125,0,0,0,7.875,24.75h.563A.562.562,0,0,1,9,25.313v1.125A.562.562,0,0,1,8.438,27H7.875A3.375,3.375,0,0,1,4.5,23.625v-2.25A3.375,3.375,0,0,1,7.875,18h.563A.562.562,0,0,1,9,18.563ZM12.113,27H11.25a.562.562,0,0,1-.562-.562V25.313a.562.562,0,0,1,.563-.562h.863c.418,0,.732-.246.732-.465a.372.372,0,0,0-.149-.27l-1.539-1.32a2.61,2.61,0,0,1-.937-1.979A2.861,2.861,0,0,1,13.2,18h.861a.562.562,0,0,1,.563.563v1.125a.562.562,0,0,1-.562.563H13.2c-.418,0-.732.246-.732.465a.372.372,0,0,0,.149.27l1.539,1.32a2.61,2.61,0,0,1,.937,1.979A2.86,2.86,0,0,1,12.113,27ZM18,18.563v1.462a7.664,7.664,0,0,0,1.125,4,7.663,7.663,0,0,0,1.125-4V18.563A.562.562,0,0,1,20.813,18h1.125a.562.562,0,0,1,.563.563v1.462a9.671,9.671,0,0,1-2.551,6.616,1.125,1.125,0,0,1-1.648,0,9.671,9.671,0,0,1-2.551-6.616V18.563A.562.562,0,0,1,16.313,18h1.125A.562.562,0,0,1,18,18.563Zm8.508-11.18L19.624.492A1.686,1.686,0,0,0,18.429,0H18V9h9V8.571A1.682,1.682,0,0,0,26.508,7.383Z" transform="translate(1093.6 495.5)" fill="url(#linear-gradient)"/>
  </g>
</svg>
