<svg width="45" height="45" viewBox="0 0 45 45" fill="none" xmlns="http://www.w3.org/2000/svg">
<circle cx="22.5" cy="22.5" r="22.5" fill="#5127AC"/>
<path d="M23.0008 27.1998C24.7681 27.1998 26.2008 25.7671 26.2008 23.9998C26.2008 22.2325 24.7681 20.7998 23.0008 20.7998C21.2335 20.7998 19.8008 22.2325 19.8008 23.9998C19.8008 25.7671 21.2335 27.1998 23.0008 27.1998Z" fill="white"/>
<path d="M20 14L18.17 16H15C13.9 16 13 16.9 13 18V30C13 31.1 13.9 32 15 32H31C32.1 32 33 31.1 33 30V18C33 16.9 32.1 16 31 16H27.83L26 14H20ZM23 29C20.24 29 18 26.76 18 24C18 21.24 20.24 19 23 19C25.76 19 28 21.24 28 24C28 26.76 25.76 29 23 29Z" fill="white"/>
</svg>
