<svg xmlns="http://www.w3.org/2000/svg" xmlns:xlink="http://www.w3.org/1999/xlink" width="1696" height="1714" viewBox="0 0 1696 1714">
  <defs>
    <clipPath id="clip-path">
      <circle id="Ellipse_3734" data-name="Ellipse 3734" cx="848" cy="848" r="848" transform="translate(-672 -2822)" fill="#fff" stroke="#707070" stroke-width="1"/>
    </clipPath>
  </defs>
  <g id="Group_8823" data-name="Group 8823" transform="translate(-1896 3054)">
    <g id="clients" transform="translate(2412.22 -1847.695)">
      <path id="Path_29755" data-name="Path 29755" d="M85.507,42.211a19.072,19.072,0,1,0-24.911,0,20.831,20.831,0,0,0-5.007,2.541A19.068,19.068,0,1,0,24.834,64.533,20.932,20.932,0,0,0,10.777,84.277V98.4a2.412,2.412,0,0,0,2.412,2.412h48.2A2.412,2.412,0,0,0,63.8,98.4V84.277a20.823,20.823,0,0,0-.82-5.784l34.172,0a2.412,2.412,0,0,0,2.412-2.412V61.955A20.933,20.933,0,0,0,85.507,42.211Z" transform="translate(-0.784 -0.785)" fill="#e6e7e8"/>
      <path id="Path_29756" data-name="Path 29756" d="M88.752,46.786a18.255,18.255,0,0,1-21.56,0A20.1,20.1,0,0,0,52.264,66.209v14.12a1.608,1.608,0,0,0,1.608,1.608h48.2a1.608,1.608,0,0,0,1.608-1.608V66.209A20.1,20.1,0,0,0,88.755,46.787Z" transform="translate(-8.92 -8.254)" fill="#453890"/>
      <path id="Path_29757" data-name="Path 29757" d="M83.283,51.021l-3.937,3.142,2.23,4.682H84.99l2.23-4.681Z" transform="translate(-14.231 -9.085)" fill="#0089ef"/>
      <path id="Path_29758" data-name="Path 29758" d="M83.413,81.864l3.4-2.59-1.694-18.52H81.707l-1.695,18.52Z" transform="translate(-14.361 -10.994)" fill="#0089ef"/>
      <path id="Path_29759" data-name="Path 29759" d="M84.421,50.544l7.187,5.737L93.584,48a18.184,18.184,0,0,1-9.163,2.544Z" transform="translate(-15.226 -8.492)" fill="#6dc9f7"/>
      <path id="Path_29760" data-name="Path 29760" d="M72.668,48l1.975,8.28,7.187-5.737A18.175,18.175,0,0,1,72.668,48Z" transform="translate(-12.921 -8.492)" fill="#6dc9f7"/>
      <circle id="Ellipse_2423" data-name="Ellipse 2423" cx="18.268" cy="18.268" r="18.268" transform="translate(50.784 5.52)" fill="#f6dd6f"/>
      <circle id="Ellipse_2424" data-name="Ellipse 2424" cx="14.614" cy="14.614" r="14.614" transform="translate(54.438 9.173)" fill="#ffd000"/>
      <path id="Path_29761" data-name="Path 29761" d="M87.962,32.847a6.614,6.614,0,0,1-3.8,1.753v1.6a1.319,1.319,0,0,1-.355.953,1.385,1.385,0,0,1-1.881,0,1.316,1.316,0,0,1-.355-.953v-1.55a11.451,11.451,0,0,1-2.821-.61,8.061,8.061,0,0,1-2.363-1.27,1.286,1.286,0,0,1-.457-.508,1.662,1.662,0,0,1-.127-.687,1.479,1.479,0,0,1,.318-.94.91.91,0,0,1,.724-.407,1.224,1.224,0,0,1,.47.088,5.3,5.3,0,0,1,.572.293,9.361,9.361,0,0,0,2.3,1.117,7.844,7.844,0,0,0,2.376.356,4.5,4.5,0,0,0,2.63-.66,2.2,2.2,0,0,0,.927-1.907,1.534,1.534,0,0,0-.508-1.195,3.707,3.707,0,0,0-1.271-.724q-.762-.266-2.134-.623A23,23,0,0,1,79.1,26a5.357,5.357,0,0,1-2.059-1.512,4.093,4.093,0,0,1-.864-2.744,4.737,4.737,0,0,1,1.474-3.507,6.759,6.759,0,0,1,3.863-1.8v-1.6a1.314,1.314,0,0,1,.356-.953,1.385,1.385,0,0,1,1.881,0,1.321,1.321,0,0,1,.355.953v1.576A8.521,8.521,0,0,1,88.53,18.26a1.426,1.426,0,0,1,.61,1.195,1.486,1.486,0,0,1-.318.941.933.933,0,0,1-.75.4,1.331,1.331,0,0,1-.445-.076,2.974,2.974,0,0,1-.572-.305,9.672,9.672,0,0,0-1.97-1.105,5.949,5.949,0,0,0-2.2-.368,4.126,4.126,0,0,0-2.516.7,2.261,2.261,0,0,0-.94,1.919,1.815,1.815,0,0,0,.533,1.359,3.546,3.546,0,0,0,1.347.8q.813.28,2.211.635a21.9,21.9,0,0,1,3.023.941,5.145,5.145,0,0,1,2,1.461,3.988,3.988,0,0,1,.826,2.653,4.645,4.645,0,0,1-1.407,3.434Z" transform="translate(-13.535 -1.728)" fill="#fff"/>
      <path id="Path_29762" data-name="Path 29762" d="M44.265,74.553a18.255,18.255,0,0,1-21.56,0A20.1,20.1,0,0,0,7.778,93.976V108.1A1.608,1.608,0,0,0,9.386,109.7h48.2a1.608,1.608,0,0,0,1.608-1.608V93.976A20.1,20.1,0,0,0,44.269,74.554Z" transform="translate(-0.196 -13.7)" fill="#54349f"/>
      <path id="Path_29763" data-name="Path 29763" d="M57.586,114.887H9.386a1.608,1.608,0,0,1-1.608-1.608v2.412A1.608,1.608,0,0,0,9.386,117.3h48.2a1.608,1.608,0,0,0,1.608-1.608v-2.412A1.608,1.608,0,0,1,57.586,114.887Z" transform="translate(-0.196 -21.294)" fill="#fff"/>
      <path id="Path_29764" data-name="Path 29764" d="M38.8,78.934h-.143L34.86,81.961l2.229,4.681H40.5l2.23-4.681L38.94,78.933c-.048,0-.095,0-.143,0Z" transform="translate(-5.507 -14.558)" fill="#fa759e"/>
      <path id="Path_29765" data-name="Path 29765" d="M38.927,109.631l3.4-2.59-1.695-18.52H37.22l-1.694,18.52Z" transform="translate(-5.637 -16.439)" fill="#fa759e"/>
      <path id="Path_29766" data-name="Path 29766" d="M39.935,78.311l7.187,5.737,1.975-8.28A18.175,18.175,0,0,1,39.935,78.311Z" transform="translate(-6.502 -13.938)" fill="#d4fbff"/>
      <path id="Path_29767" data-name="Path 29767" d="M28.181,75.765l1.976,8.28,7.187-5.737A18.178,18.178,0,0,1,28.181,75.765Z" transform="translate(-4.197 -13.937)" fill="#d4fbff"/>
      <circle id="Ellipse_2425" data-name="Ellipse 2425" cx="18.268" cy="18.268" r="18.268" transform="translate(15.022 27.842)" fill="#f6dd6f"/>
      <path id="Path_29768" data-name="Path 29768" d="M81.494,38.221a19.072,19.072,0,1,0-24.869.011A20.806,20.806,0,0,0,51.6,40.769,19.068,19.068,0,1,0,20.848,60.545,20.919,20.919,0,0,0,6.78,80.276V94.4a2.412,2.412,0,0,0,2.412,2.412h48.2A2.412,2.412,0,0,0,59.8,94.4V80.276a20.8,20.8,0,0,0-.833-5.788h13a.8.8,0,0,0,0-1.608H58.431a20.982,20.982,0,0,0-12.7-12.334A19.023,19.023,0,0,0,52,42.439a19.22,19.22,0,0,1,6.145-3.017c.293.2.589.4.892.59l1.9,7.964a.8.8,0,0,0,.521.573.79.79,0,0,0,.261.044.8.8,0,0,0,.5-.175l2.6-2.077,1.7,3.567-1.675,18.3a.8.8,0,0,0,.314.712l3.4,2.591a.8.8,0,0,0,.974,0l3.4-2.591a.8.8,0,0,0,.314-.712l-1.674-18.3,1.7-3.567,2.6,2.076a.8.8,0,0,0,1.284-.442l1.9-7.965c.3-.187.6-.385.89-.588a19.31,19.31,0,0,1,14,18.533v14.12a.8.8,0,0,1-.8.8H85.39a.8.8,0,0,0,0,1.608h7.765a2.412,2.412,0,0,0,2.412-2.412V57.955A20.919,20.919,0,0,0,81.494,38.221ZM32.316,72.886h1.947L35.85,90.233l-2.56,1.949-2.561-1.949Zm2.171-1.608h-2.4l-1.74-3.647,2.937-2.344,2.937,2.344Zm1.069-6.238A18.906,18.906,0,0,0,41.4,63.363l-1.269,5.326Zm-9.108,3.649-1.271-5.328a18.9,18.9,0,0,0,5.844,1.677ZM58.193,80.276V94.4a.8.8,0,0,1-.8.8H9.189a.8.8,0,0,1-.8-.8V80.276A19.311,19.311,0,0,1,22.392,61.743q.437.306.89.588l1.9,7.965a.8.8,0,0,0,1.286.442l2.6-2.077,1.7,3.564-1.675,18.3a.8.8,0,0,0,.314.712l3.4,2.591a.8.8,0,0,0,.974,0l3.4-2.591a.8.8,0,0,0,.314-.712l-1.675-18.3,1.7-3.566,2.6,2.077A.8.8,0,0,0,41.4,70.3l1.9-7.964q.453-.281.89-.588a19.311,19.311,0,0,1,14,18.534Zm-24.9-16.7A17.464,17.464,0,1,1,50.754,46.109a17.662,17.662,0,0,1-2.716,9.343A17.342,17.342,0,0,1,33.29,63.572Zm18.3-39.785A17.464,17.464,0,1,1,69.052,41.25,17.464,17.464,0,0,1,51.589,23.787ZM62.211,46.37,60.94,41.041a18.9,18.9,0,0,0,5.844,1.677ZM69.052,69.86l-2.56-1.949,1.586-17.346h1.947l1.587,17.346Zm1.2-20.9h-2.4l-1.737-3.65,2.937-2.345,2.94,2.345Zm5.643-2.587-4.573-3.651a18.9,18.9,0,0,0,5.844-1.677Z" transform="translate(0 0)" fill="#3a2c60"/>
      <path id="Path_29769" data-name="Path 29769" d="M98.537,89.512H91.8a.8.8,0,0,0,0,1.608h6.733a.8.8,0,0,0,0-1.608Z" transform="translate(-16.516 -16.633)" fill="#3a2c60"/>
      <circle id="Ellipse_2426" data-name="Ellipse 2426" cx="14.614" cy="14.614" r="14.614" transform="translate(18.676 31.495)" fill="#ffd000"/>
      <path id="Path_29770" data-name="Path 29770" d="M43.476,60.614a6.606,6.606,0,0,1-3.8,1.753v1.6a1.317,1.317,0,0,1-.356.953,1.384,1.384,0,0,1-1.88,0,1.313,1.313,0,0,1-.355-.953V62.418a11.486,11.486,0,0,1-2.821-.609A8.1,8.1,0,0,1,31.9,60.538a1.286,1.286,0,0,1-.457-.508,1.646,1.646,0,0,1-.127-.687,1.479,1.479,0,0,1,.318-.94A.91.91,0,0,1,32.358,58a1.226,1.226,0,0,1,.471.088,5.373,5.373,0,0,1,.572.293A9.361,9.361,0,0,0,35.7,59.5a7.843,7.843,0,0,0,2.376.356,4.486,4.486,0,0,0,2.633-.66,2.2,2.2,0,0,0,.928-1.907,1.527,1.527,0,0,0-.509-1.194,3.683,3.683,0,0,0-1.27-.724q-.762-.267-2.134-.623a22.936,22.936,0,0,1-3.1-.978,5.361,5.361,0,0,1-2.058-1.512A4.093,4.093,0,0,1,31.7,49.51,4.737,4.737,0,0,1,33.174,46a6.759,6.759,0,0,1,3.863-1.8V42.6a1.314,1.314,0,0,1,.356-.953,1.384,1.384,0,0,1,1.88,0,1.318,1.318,0,0,1,.356.953v1.576a8.521,8.521,0,0,1,4.421,1.855,1.426,1.426,0,0,1,.61,1.195,1.482,1.482,0,0,1-.322.941.933.933,0,0,1-.749.407,1.337,1.337,0,0,1-.445-.076,2.974,2.974,0,0,1-.571-.305,9.676,9.676,0,0,0-1.97-1.1,5.949,5.949,0,0,0-2.2-.368,4.122,4.122,0,0,0-2.515.7,2.261,2.261,0,0,0-.941,1.919,1.813,1.813,0,0,0,.534,1.359,3.532,3.532,0,0,0,1.347.8q.813.28,2.211.636a21.814,21.814,0,0,1,3.024.94,5.163,5.163,0,0,1,2,1.461,3.988,3.988,0,0,1,.826,2.653,4.642,4.642,0,0,1-1.411,3.429Z" transform="translate(-4.812 -7.174)" fill="#fff"/>
    </g>
    <circle id="Ellipse_3733" data-name="Ellipse 3733" cx="848" cy="848" r="848" transform="translate(1896 -3036)" fill="#e2e1ee"/>
    <g id="Mask_Group_1565" data-name="Mask Group 1565" transform="translate(2568 -232)" clip-path="url(#clip-path)">
      <g id="Group_8822" data-name="Group 8822" transform="translate(-823.511 -2974.08)">
        <g id="Group_8821" data-name="Group 8821">
          <g id="Group_8639" data-name="Group 8639">
            <g id="Group_8638" data-name="Group 8638">
              <path id="Path_44112" data-name="Path 44112" d="M610.192,1632.628S234.764,1484.1,351.124,1227.006C504.133,1037.425,537.192,936.842,458.9,832.727,384.746,734.113,333.468,362.08,938.109,362.08,1335.516,384.022,1235.555,814.526,1454.981,748s461.915,193.779,204.929,432.12,2.307,454.045-395.1,452.511S610.192,1632.628,610.192,1632.628Z" fill="#e2e1ee"/>
            </g>
          </g>
          <g id="Group_8650" data-name="Group 8650">
            <g id="Group_8643" data-name="Group 8643">
              <g id="Group_8640" data-name="Group 8640">
                <path id="Path_44113" data-name="Path 44113" d="M1302.582,1616.046s-61.117-231.836,133.43-306.278S1302.582,1616.046,1302.582,1616.046Z" fill="#272568"/>
              </g>
              <g id="Group_8642" data-name="Group 8642">
                <g id="Group_8641" data-name="Group 8641">
                  <path id="Path_44114" data-name="Path 44114" d="M1300.481,1616.657c9.576-79.034,49.319-152.348,96.946-214.877,13.412-17.608,27.724-34.518,42.764-50.755,1.31-1.415-.806-3.542-2.122-2.122-54.17,58.486-101.164,127.065-126.1,203.323a338.23,338.23,0,0,0-14.484,64.431c-.232,1.913,2.77,1.9,3,0Z" fill="#fff"/>
                </g>
              </g>
            </g>
            <g id="Group_8644" data-name="Group 8644">
              <path id="Path_44115" data-name="Path 44115" d="M1302.581,1617.235s16.711-239.175,224.863-247.076S1302.581,1617.235,1302.581,1617.235Z" fill="#8b83bd"/>
            </g>
            <g id="Group_8646" data-name="Group 8646">
              <g id="Group_8645" data-name="Group 8645">
                <path id="Path_44116" data-name="Path 44116" d="M1300.273,1617.414c34.575-71.969,95.882-128.775,161.328-172.731q27.465-18.445,56.624-34.167c1.7-.919.185-3.51-1.514-2.59-69.826,37.793-136.019,87.388-184.142,151.156a336.308,336.308,0,0,0-34.887,56.817c-.832,1.732,1.754,3.256,2.591,1.515Z" fill="#fff"/>
              </g>
            </g>
            <g id="Group_8647" data-name="Group 8647">
              <path id="Path_44117" data-name="Path 44117" d="M1298.8,1622.98s90.589-221.986,290.794-164.466S1298.8,1622.98,1298.8,1622.98Z" fill="#42bdd9"/>
            </g>
            <g id="Group_8649" data-name="Group 8649">
              <g id="Group_8648" data-name="Group 8648">
                <path id="Path_44118" data-name="Path 44118" d="M1296.615,1622.364c55.462-57.714,131.7-92.514,207.806-113.807q31.572-8.834,63.886-14.607c1.9-.342,1.093-3.234-.8-2.893-78.412,14.137-157.244,40.714-222.965,86.671a337.2,337.2,0,0,0-50.051,42.515c-1.338,1.392.78,3.517,2.121,2.121Z" fill="#fff"/>
              </g>
            </g>
          </g>
          <g id="Group_8665" data-name="Group 8665">
            <g id="Group_8651" data-name="Group 8651">
              <path id="Path_44119" data-name="Path 44119" d="M666.224,687.585l-116.182,148-1.171,1.018v700.982H1214.96v-850Z" fill="#8ad4ea"/>
            </g>
            <g id="Group_8652" data-name="Group 8652">
              <path id="Path_44120" data-name="Path 44120" d="M664.819,835.585H550.041L666.489,687.247Z" fill="#67b9cd"/>
            </g>
            <g id="Group_8653" data-name="Group 8653">
              <path id="Path_44121" data-name="Path 44121" d="M1152.051,855.763c0,3.215-3.216,5.822-7.181,5.822H618.959c-3.965,0-7.18-2.607-7.18-5.822h0c0-3.214,3.215-5.821,7.18-5.821H1144.87c3.965,0,7.181,2.607,7.181,5.821Z" fill="#fff"/>
            </g>
            <g id="Group_8654" data-name="Group 8654">
              <path id="Path_44122" data-name="Path 44122" d="M1152.051,903.406c0,3.215-3.216,5.821-7.181,5.821H618.959c-3.965,0-7.18-2.606-7.18-5.821h0c0-3.215,3.215-5.821,7.18-5.821H1144.87c3.965,0,7.181,2.606,7.181,5.821Z" fill="#fff"/>
            </g>
            <g id="Group_8655" data-name="Group 8655">
              <path id="Path_44123" data-name="Path 44123" d="M1152.051,949.41c0,3.215-3.216,5.821-7.181,5.821H618.959c-3.965,0-7.18-2.606-7.18-5.821h0c0-3.215,3.215-5.821,7.18-5.821H1144.87c3.965,0,7.181,2.606,7.181,5.821Z" fill="#fff"/>
            </g>
            <g id="Group_8656" data-name="Group 8656">
              <path id="Path_44124" data-name="Path 44124" d="M1152.051,1052.012c0,3.214-3.216,5.821-7.181,5.821H618.959c-3.965,0-7.18-2.607-7.18-5.821h0c0-3.215,3.215-5.822,7.18-5.822H1144.87c3.965,0,7.181,2.607,7.181,5.822Z" fill="#fff"/>
            </g>
            <g id="Group_8657" data-name="Group 8657">
              <path id="Path_44125" data-name="Path 44125" d="M1152.051,1099.654c0,3.215-3.216,5.821-7.181,5.821H618.959c-3.965,0-7.18-2.606-7.18-5.821h0c0-3.215,3.215-5.821,7.18-5.821H1144.87c3.965,0,7.181,2.606,7.181,5.821Z" fill="#fff"/>
            </g>
            <g id="Group_8658" data-name="Group 8658">
              <path id="Path_44126" data-name="Path 44126" d="M1152.051,1145.658c0,3.215-3.216,5.821-7.181,5.821H618.959c-3.965,0-7.18-2.606-7.18-5.821h0c0-3.215,3.215-5.821,7.18-5.821H1144.87c3.965,0,7.181,2.606,7.181,5.821Z" fill="#fff"/>
            </g>
            <g id="Group_8659" data-name="Group 8659">
              <path id="Path_44127" data-name="Path 44127" d="M1152.051,1238.095c0,3.215-3.216,5.822-7.181,5.822H618.959c-3.965,0-7.18-2.607-7.18-5.822h0c0-3.214,3.215-5.821,7.18-5.821H1144.87c3.965,0,7.181,2.607,7.181,5.821Z" fill="#fff"/>
            </g>
            <g id="Group_8660" data-name="Group 8660">
              <path id="Path_44128" data-name="Path 44128" d="M1152.051,1285.738c0,3.215-3.216,5.821-7.181,5.821H618.959c-3.965,0-7.18-2.606-7.18-5.821h0c0-3.215,3.215-5.821,7.18-5.821H1144.87c3.965,0,7.181,2.606,7.181,5.821Z" fill="#fff"/>
            </g>
            <g id="Group_8661" data-name="Group 8661">
              <path id="Path_44129" data-name="Path 44129" d="M1152.051,1331.742c0,3.215-3.216,5.821-7.181,5.821H618.959c-3.965,0-7.18-2.606-7.18-5.821h0c0-3.215,3.215-5.821,7.18-5.821H1144.87c3.965,0,7.181,2.606,7.181,5.821Z" fill="#fff"/>
            </g>
            <g id="Group_8662" data-name="Group 8662">
              <path id="Path_44130" data-name="Path 44130" d="M1152.051,1408.57c0,3.215-3.216,5.821-7.181,5.821H618.959c-3.965,0-7.18-2.606-7.18-5.821h0c0-3.215,3.215-5.821,7.18-5.821H1144.87c3.965,0,7.181,2.606,7.181,5.821Z" fill="#fff"/>
            </g>
            <g id="Group_8663" data-name="Group 8663">
              <path id="Path_44131" data-name="Path 44131" d="M1152.051,1456.213c0,3.214-3.216,5.821-7.181,5.821H618.959c-3.965,0-7.18-2.607-7.18-5.821h0c0-3.215,3.215-5.822,7.18-5.822H1144.87c3.965,0,7.181,2.607,7.181,5.822Z" fill="#fff"/>
            </g>
            <g id="Group_8664" data-name="Group 8664">
              <path id="Path_44132" data-name="Path 44132" d="M1152.051,1502.217c0,3.214-3.216,5.821-7.181,5.821H618.959c-3.965,0-7.18-2.607-7.18-5.821h0c0-3.215,3.215-5.822,7.18-5.822H1144.87c3.965,0,7.181,2.607,7.181,5.822Z" fill="#fff"/>
            </g>
          </g>
          <g id="Group_8679" data-name="Group 8679">
            <g id="Group_8666" data-name="Group 8666">
              <rect id="Rectangle_3830" data-name="Rectangle 3830" width="212.654" height="165.823" rx="6.695" transform="translate(1192.62 984.725)" fill="#fff"/>
            </g>
            <g id="Group_8667" data-name="Group 8667">
              <path id="Path_44133" data-name="Path 44133" d="M1249.556,1042.224c0,9.158-8.393,16.583-18.745,16.583H1220.4c-10.351,0-18.742-7.425-18.742-16.583v-28.667c0-9.159,8.391-16.583,18.742-16.583h10.414c10.352,0,18.745,7.424,18.745,16.583Z" fill="#b0a8d3"/>
            </g>
            <g id="Group_8668" data-name="Group 8668">
              <path id="Path_44134" data-name="Path 44134" d="M1389.481,1006.3a9.33,9.33,0,0,1-9.33,9.329H1273.632a9.33,9.33,0,0,1-9.33-9.329h0a9.329,9.329,0,0,1,9.33-9.329h106.519a9.329,9.329,0,0,1,9.33,9.329Z" fill="#eb698e"/>
            </g>
            <g id="Group_8669" data-name="Group 8669">
              <path id="Path_44135" data-name="Path 44135" d="M1397.214,1024.052c0,.922-1.147,1.67-2.559,1.67H1261.8c-1.416,0-2.561-.748-2.561-1.67h0c0-.923,1.145-1.671,2.561-1.671h132.859c1.412,0,2.559.748,2.559,1.671Z" fill="#dad7eb"/>
            </g>
            <g id="Group_8670" data-name="Group 8670">
              <path id="Path_44136" data-name="Path 44136" d="M1397.214,1034.921c0,.922-1.147,1.67-2.559,1.67H1261.8c-1.416,0-2.561-.748-2.561-1.67h0c0-.923,1.145-1.671,2.561-1.671h132.859c1.412,0,2.559.748,2.559,1.671Z" fill="#dad7eb"/>
            </g>
            <g id="Group_8671" data-name="Group 8671">
              <path id="Path_44137" data-name="Path 44137" d="M1395.88,1047.938c0,.922-1.145,1.67-2.559,1.67H1260.462c-1.414,0-2.561-.748-2.561-1.67h0c0-.922,1.147-1.671,2.561-1.671h132.859c1.414,0,2.559.749,2.559,1.671Z" fill="#dad7eb"/>
            </g>
            <g id="Group_8672" data-name="Group 8672">
              <path id="Path_44138" data-name="Path 44138" d="M1395.88,1058.808c0,.921-1.145,1.67-2.559,1.67H1260.462c-1.414,0-2.561-.749-2.561-1.67h0c0-.923,1.147-1.671,2.561-1.671h132.859c1.414,0,2.559.748,2.559,1.671Z" fill="#dad7eb"/>
            </g>
            <g id="Group_8673" data-name="Group 8673">
              <path id="Path_44139" data-name="Path 44139" d="M1393.735,1120.394c0,9.158-8.392,16.583-18.744,16.583h-10.412c-10.352,0-18.744-7.425-18.744-16.583v-28.668c0-9.16,8.392-16.583,18.744-16.583h10.412c10.352,0,18.744,7.423,18.744,16.583Z" fill="#b0a8d3"/>
            </g>
            <g id="Group_8674" data-name="Group 8674">
              <path id="Path_44140" data-name="Path 44140" d="M1269.344,1081.663c0,3.433-2.255,6.215-5.04,6.215h-57.551c-2.784,0-5.041-2.782-5.041-6.215h0c0-3.433,2.257-6.216,5.041-6.216H1264.3c2.785,0,5.04,2.783,5.04,6.216Z" fill="#42bdd9"/>
            </g>
            <g id="Group_8675" data-name="Group 8675">
              <path id="Path_44141" data-name="Path 44141" d="M1339.667,1098.963c0,.924-1.147,1.671-2.559,1.671H1204.247c-1.412,0-2.559-.747-2.559-1.671h0c0-.923,1.147-1.67,2.559-1.67h132.861c1.412,0,2.559.747,2.559,1.67Z" fill="#dad7eb"/>
            </g>
            <g id="Group_8676" data-name="Group 8676">
              <path id="Path_44142" data-name="Path 44142" d="M1339.667,1109.833c0,.923-1.147,1.67-2.559,1.67H1204.247c-1.412,0-2.559-.747-2.559-1.67h0c0-.923,1.147-1.671,2.559-1.671h132.861c1.412,0,2.559.748,2.559,1.671Z" fill="#dad7eb"/>
            </g>
            <g id="Group_8677" data-name="Group 8677">
              <path id="Path_44143" data-name="Path 44143" d="M1338.333,1122.85c0,.923-1.145,1.671-2.559,1.671H1202.913c-1.412,0-2.559-.748-2.559-1.671h0c0-.923,1.147-1.67,2.559-1.67h132.861c1.414,0,2.559.747,2.559,1.67Z" fill="#dad7eb"/>
            </g>
            <g id="Group_8678" data-name="Group 8678">
              <path id="Path_44144" data-name="Path 44144" d="M1338.333,1133.719c0,.924-1.145,1.671-2.559,1.671H1202.913c-1.412,0-2.559-.747-2.559-1.671h0c0-.923,1.147-1.67,2.559-1.67h132.861c1.414,0,2.559.747,2.559,1.67Z" fill="#dad7eb"/>
            </g>
          </g>
          <g id="Group_8690" data-name="Group 8690">
            <g id="Group_8683" data-name="Group 8683">
              <g id="Group_8680" data-name="Group 8680">
                <path id="Path_44145" data-name="Path 44145" d="M662.2,1618.831S737.186,1391.32,547.671,1305.3,662.2,1618.831,662.2,1618.831Z" fill="#272568"/>
              </g>
              <g id="Group_8682" data-name="Group 8682">
                <g id="Group_8681" data-name="Group 8681">
                  <path id="Path_44146" data-name="Path 44146" d="M667.25,1619.659c-4.815-80.232-40.245-156.53-84.517-222.41q-18.477-27.5-39.544-53.111c-1.225-1.494-3.336.639-2.122,2.121,49.977,60.991,92.269,131.514,112.5,208.238a334.143,334.143,0,0,1,10.679,65.162c.115,1.918,3.116,1.932,3,0Z" fill="#fff"/>
                </g>
              </g>
            </g>
            <g id="Group_8684" data-name="Group 8684">
              <path id="Path_44147" data-name="Path 44147" d="M662.127,1620.017s-2.185-239.542-209.3-260.024S662.127,1620.017,662.127,1620.017Z" fill="#8b83bd"/>
            </g>
            <g id="Group_8686" data-name="Group 8686">
              <g id="Group_8685" data-name="Group 8685">
                <path id="Path_44148" data-name="Path 44148" d="M667.2,1619.259c-30.255-74.18-87.973-134.727-150.771-182.842q-26.667-20.433-55.259-38.159c-1.644-1.023-3.152,1.571-1.514,2.59,66.808,41.584,129.479,94.6,173.3,160.564a334.629,334.629,0,0,1,31.35,58.645c.72,1.764,3.623.992,2.893-.8Z" fill="#fff"/>
              </g>
            </g>
            <g id="Group_8687" data-name="Group 8687">
              <path id="Path_44149" data-name="Path 44149" d="M665.553,1625.975S588.649,1399.1,385.5,1444.346,665.553,1625.975,665.553,1625.975Z" fill="#42bdd9"/>
            </g>
            <g id="Group_8689" data-name="Group 8689">
              <g id="Group_8688" data-name="Group 8688">
                <path id="Path_44150" data-name="Path 44150" d="M669.948,1623.439c-51.809-60.9-125.622-100.355-200.165-126.374q-31.672-11.055-64.319-18.955c-1.876-.457-2.676,2.436-.8,2.893,76.973,18.757,153.641,49.8,216.106,99.379a335.009,335.009,0,0,1,47.055,45.179c1.253,1.472,3.366-.658,2.121-2.122Z" fill="#fff"/>
              </g>
            </g>
          </g>
          <g id="Group_8692" data-name="Group 8692">
            <g id="Group_8691" data-name="Group 8691">
              <rect id="Rectangle_3831" data-name="Rectangle 3831" width="775.525" height="5" transform="translate(564.04 1629.137)" fill="#272568"/>
            </g>
          </g>
          <g id="Group_8707" data-name="Group 8707">
            <g id="Group_8693" data-name="Group 8693">
              <path id="Path_44151" data-name="Path 44151" d="M762.753,779.273l-118.723,148-1.2,1.018v700.983h680.655v-850Z" fill="#ffca8a"/>
            </g>
            <g id="Group_8694" data-name="Group 8694">
              <path id="Path_44152" data-name="Path 44152" d="M761.317,927.273H644.029L763.023,778.936Z" fill="#eeb474"/>
            </g>
            <g id="Group_8695" data-name="Group 8695">
              <path id="Path_44153" data-name="Path 44153" d="M1259.2,947.452c0,3.215-3.287,5.821-7.339,5.821H714.454c-4.052,0-7.337-2.606-7.337-5.821h0c0-3.215,3.285-5.821,7.337-5.821h537.411c4.052,0,7.339,2.606,7.339,5.821Z" fill="#fff"/>
            </g>
            <g id="Group_8696" data-name="Group 8696">
              <path id="Path_44154" data-name="Path 44154" d="M1259.2,995.095c0,3.215-3.287,5.821-7.339,5.821H714.454c-4.052,0-7.337-2.606-7.337-5.821h0c0-3.215,3.285-5.822,7.337-5.822h537.411c4.052,0,7.339,2.607,7.339,5.822Z" fill="#fff"/>
            </g>
            <g id="Group_8697" data-name="Group 8697">
              <path id="Path_44155" data-name="Path 44155" d="M1259.2,1041.1c0,3.214-3.287,5.821-7.339,5.821H714.454c-4.052,0-7.337-2.607-7.337-5.821h0c0-3.215,3.285-5.822,7.337-5.822h537.411c4.052,0,7.339,2.607,7.339,5.822Z" fill="#fff"/>
            </g>
            <g id="Group_8698" data-name="Group 8698">
              <path id="Path_44156" data-name="Path 44156" d="M1259.2,1143.7c0,3.215-3.287,5.821-7.339,5.821H714.454c-4.052,0-7.337-2.606-7.337-5.821h0c0-3.215,3.285-5.821,7.337-5.821h537.411c4.052,0,7.339,2.606,7.339,5.821Z" fill="#fff"/>
            </g>
            <g id="Group_8699" data-name="Group 8699">
              <path id="Path_44157" data-name="Path 44157" d="M1259.2,1191.343c0,3.215-3.287,5.821-7.339,5.821H714.454c-4.052,0-7.337-2.606-7.337-5.821h0c0-3.215,3.285-5.822,7.337-5.822h537.411c4.052,0,7.339,2.607,7.339,5.822Z" fill="#fff"/>
            </g>
            <g id="Group_8700" data-name="Group 8700">
              <path id="Path_44158" data-name="Path 44158" d="M1259.2,1237.347c0,3.214-3.287,5.822-7.339,5.822H714.454c-4.052,0-7.337-2.608-7.337-5.822h0c0-3.215,3.285-5.822,7.337-5.822h537.411c4.052,0,7.339,2.607,7.339,5.822Z" fill="#fff"/>
            </g>
            <g id="Group_8701" data-name="Group 8701">
              <path id="Path_44159" data-name="Path 44159" d="M1259.2,1329.784c0,3.215-3.287,5.822-7.339,5.822H714.454c-4.052,0-7.337-2.607-7.337-5.822h0c0-3.215,3.285-5.82,7.337-5.82h537.411c4.052,0,7.339,2.6,7.339,5.82Z" fill="#fff"/>
            </g>
            <g id="Group_8702" data-name="Group 8702">
              <path id="Path_44160" data-name="Path 44160" d="M1259.2,1377.427c0,3.215-3.287,5.822-7.339,5.822H714.454c-4.052,0-7.337-2.607-7.337-5.822h0c0-3.215,3.285-5.821,7.337-5.821h537.411c4.052,0,7.339,2.606,7.339,5.821Z" fill="#fff"/>
            </g>
            <g id="Group_8703" data-name="Group 8703">
              <path id="Path_44161" data-name="Path 44161" d="M1259.2,1423.431c0,3.215-3.287,5.822-7.339,5.822H714.454c-4.052,0-7.337-2.607-7.337-5.822h0c0-3.215,3.285-5.821,7.337-5.821h537.411c4.052,0,7.339,2.606,7.339,5.821Z" fill="#fff"/>
            </g>
            <g id="Group_8704" data-name="Group 8704">
              <path id="Path_44162" data-name="Path 44162" d="M1259.2,1500.259c0,3.215-3.287,5.822-7.339,5.822H714.454c-4.052,0-7.337-2.607-7.337-5.822h0c0-3.215,3.285-5.821,7.337-5.821h537.411c4.052,0,7.339,2.606,7.339,5.821Z" fill="#fff"/>
            </g>
            <g id="Group_8705" data-name="Group 8705">
              <path id="Path_44163" data-name="Path 44163" d="M1259.2,1547.9c0,3.215-3.287,5.823-7.339,5.823H714.454c-4.052,0-7.337-2.608-7.337-5.823h0c0-3.215,3.285-5.82,7.337-5.82h537.411c4.052,0,7.339,2.6,7.339,5.82Z" fill="#fff"/>
            </g>
            <g id="Group_8706" data-name="Group 8706">
              <path id="Path_44164" data-name="Path 44164" d="M1259.2,1593.905c0,3.215-3.287,5.823-7.339,5.823H714.454c-4.052,0-7.337-2.608-7.337-5.823h0c0-3.215,3.285-5.82,7.337-5.82h537.411c4.052,0,7.339,2.6,7.339,5.82Z" fill="#fff"/>
            </g>
          </g>
          <g id="Group_8708" data-name="Group 8708">
            <path id="Path_44165" data-name="Path 44165" d="M1366.586,843.493,1352.22,676.626l-99.457,128.189,36.783,13.92L1188.127,1038.54,930.433,985.117l-5.408,331.591-302.312-61.581-195.963,151.74,2.728,118.46,211.07-164.657,333.734,41.993L991.964,1062.3,1216.3,1086.61l112.718-257.484Z" fill="#ee7e99"/>
          </g>
          <g id="Group_8725" data-name="Group 8725">
            <g id="Group_8709" data-name="Group 8709">
              <path id="Path_44166" data-name="Path 44166" d="M586.923,1158.437l1.974,22.037-30.774,41.361s-14.77-4.834-17.957,1.862,1.537,7.556-2.387,10.848c0,0,3.867,2.534,4.988-5.651,4.41-2.75,3.519,6.416,9.665,2.823a71.373,71.373,0,0,0,11.248-8.379l43.424-35.152.275-35.978Z" fill="#f37c66"/>
            </g>
            <g id="Group_8712" data-name="Group 8712">
              <g id="Group_8710" data-name="Group 8710">
                <path id="Path_44167" data-name="Path 44167" d="M547.969,1432.7l5.541,16.782s2.58,4.591,5.568-.074c1.42-6.007,1.186-19.5,1.186-19.5S546.791,1423.834,547.969,1432.7Z" fill="#f79c86"/>
              </g>
              <g id="Group_8711" data-name="Group 8711">
                <path id="Path_44168" data-name="Path 44168" d="M568.2,1452.533a28.082,28.082,0,0,0-2.358-2.4s-1.449-5.122-3.245-6.18c-2.978,3.743-6.008,3.072-11.092,3.209-.81.022-2.9,4-2.845,4.313a5.815,5.815,0,0,1-.422,3.675c-.244.765-3.211,11.238-9.587,11.916-.986.133-.974,1.264-1.01,1.845s.294,2.4.3,2.711a.617.617,0,0,0,.546.618c.306.057,9.7-.268,13.229-1.558a7.775,7.775,0,0,0,3.354-1.9c.743-.693,1.638-3.115,1.952-3.854a3.989,3.989,0,0,1,2.017-1.707c1.056-.409,1.2.155,1.2.155a18.323,18.323,0,0,0,1.082,2.092c4.35.23,9.388-3.7,10.705-4.831A52.478,52.478,0,0,0,568.2,1452.533Z" fill="#181c51"/>
              </g>
            </g>
            <g id="Group_8715" data-name="Group 8715">
              <g id="Group_8713" data-name="Group 8713">
                <path id="Path_44169" data-name="Path 44169" d="M518.16,1450.712l1.819,17.58s1.539,5.036,5.456,1.119c2.673-5.564,6.436-18.557,6.436-18.557S518.906,1441.8,518.16,1450.712Z" fill="#f79c86"/>
              </g>
              <g id="Group_8714" data-name="Group 8714">
                <path id="Path_44170" data-name="Path 44170" d="M535.4,1467.577a28.315,28.315,0,0,0-2.291-2.466s-1.311-5.159-3.078-6.267c-3.078,3.661-6.09,2.909-11.174,2.909-.81,0-3.011,3.922-2.961,4.235a5.8,5.8,0,0,1-.522,3.661c-.263.759-3.513,11.149-9.905,11.654-.989.1-1.007,1.235-1.059,1.817s.23,2.406.225,2.717a.62.62,0,0,0,.531.634c.3.065,9.7-.007,13.267-1.2a7.767,7.767,0,0,0,3.4-1.806c.762-.673,1.722-3.071,2.055-3.8a3.992,3.992,0,0,1,2.064-1.653c1.066-.381,1.19.188,1.19.188a18.148,18.148,0,0,0,1.025,2.12c4.343.348,9.485-3.447,10.832-4.54A52.527,52.527,0,0,0,535.4,1467.577Z" fill="#181c51"/>
              </g>
            </g>
            <g id="Group_8716" data-name="Group 8716">
              <path id="Path_44171" data-name="Path 44171" d="M587.834,1238.471s-73.209,41.292-76.94,48.773,38.885,151.388,38.885,151.388l10.2-1.55,4.72-127.35S700.878,1215.34,587.834,1238.471Z" fill="#181c51"/>
            </g>
            <g id="Group_8717" data-name="Group 8717">
              <path id="Path_44172" data-name="Path 44172" d="M602.771,1229.163l-88.155,72.266,3.264,149.514,13.991.56,27.422-121.439,80.925-61.163s7.683-16.251-5.749-33.787C622.717,1223.363,602.771,1229.163,602.771,1229.163Z" fill="#272568"/>
            </g>
            <g id="Group_8718" data-name="Group 8718">
              <path id="Path_44173" data-name="Path 44173" d="M630.412,1136.077c0,19.521-7.934,35.345-17.722,35.345s-17.721-15.824-17.721-35.345,7.934-35.342,17.721-35.342S630.412,1116.558,630.412,1136.077Z" fill="#181c51"/>
            </g>
            <g id="Group_8719" data-name="Group 8719">
              <path id="Path_44174" data-name="Path 44174" d="M599.026,1145.837s-15.763,4.011-16.509,20.039,2.7,76.672,2.7,76.672,24.251,18.308,52.979,0c3.358-13.724,4.85-82.349-14.924-92.243C610.219,1142.645,599.026,1145.837,599.026,1145.837Z" fill="#eb698e"/>
            </g>
            <g id="Group_8720" data-name="Group 8720">
              <path id="Path_44175" data-name="Path 44175" d="M615.443,1118.957c-.3-8.025-11.553-16.561-26.367-4.448,0,0-2.953,25.295,9.561,25.295v8.089a4.315,4.315,0,1,0,8.631,0v-7.441C611.492,1137.385,615.658,1124.622,615.443,1118.957Z" fill="#f79c86"/>
            </g>
            <g id="Group_8721" data-name="Group 8721">
              <path id="Path_44176" data-name="Path 44176" d="M606.335,1098.722c-9.047-.591-13.774.46-16.709,7.611,0,0-4.894,13.324,4.835,15.948,5.47,1.476,9.965,3.435,12.519,5.944a2.985,2.985,0,0,1,5.77,1.079c0,1.65-3.831,11.148-5.482,11.148-.2,0,11.127-5.576,13.55-11.632S627.618,1100.113,606.335,1098.722Z" fill="#181c51"/>
            </g>
            <g id="Group_8722" data-name="Group 8722">
              <path id="Path_44177" data-name="Path 44177" d="M614.238,1181.391l.458,19.549-38.055,37.241s-13.586-7.544-17.986-1.574.078,7.71-4.4,10.2c0,0,3.317,3.22,5.969-4.6,4.85-1.865,2.239,6.965,8.954,4.6a71.366,71.366,0,0,0,12.632-6.1s44.73-20.2,49.3-26.284,4.571-33.5,4.571-33.5Z" fill="#f79c86"/>
            </g>
            <g id="Group_8724" data-name="Group 8724">
              <g id="Group_8723" data-name="Group 8723">
                <path id="Path_44178" data-name="Path 44178" d="M613.738,1173.706c.019,9.084.546,18.154.746,27.234a.5.5,0,0,0,1,0c-.2-9.08-.727-18.15-.746-27.234a.5.5,0,0,0-1,0Z" fill="#ae3c66"/>
              </g>
            </g>
          </g>
          <g id="Group_8731" data-name="Group 8731">
            <g id="Group_8726" data-name="Group 8726">
              <path id="Path_44179" data-name="Path 44179" d="M600.587,1261.781l-49.757-6.16-42.121,22.838,54.1,6.462Z" fill="#8b83bd"/>
            </g>
            <g id="Group_8727" data-name="Group 8727">
              <path id="Path_44180" data-name="Path 44180" d="M562.806,1284.92l-61.482-7.345-18.64-57.452,61.482,7.344Z" fill="#b0a8d3"/>
            </g>
            <g id="Group_8728" data-name="Group 8728">
              <path id="Path_44181" data-name="Path 44181" d="M564.609,1288.936l-62.311-7.172-.975-4.188,61.482,7.345Z" fill="#8b83bd"/>
            </g>
            <g id="Group_8729" data-name="Group 8729">
              <path id="Path_44182" data-name="Path 44182" d="M601.078,1266.45l-36.469,22.486-1.8-4.016,37.781-23.22Z" fill="#b0a8d3"/>
            </g>
            <g id="Group_8730" data-name="Group 8730">
              <path id="Path_44183" data-name="Path 44183" d="M527.407,1252.521a6.529,6.529,0,1,1-6.528-6.527A6.529,6.529,0,0,1,527.407,1252.521Z" fill="#fff"/>
            </g>
          </g>
          <g id="Group_8754" data-name="Group 8754">
            <g id="Group_8744" data-name="Group 8744">
              <g id="Group_8732" data-name="Group 8732">
                <path id="Path_44184" data-name="Path 44184" d="M1348.352,1605.723l1.227,17.455s4.44,4.572,7.911.291c2.066-5.783,4.44-19.027,4.44-19.027S1348.165,1596.828,1348.352,1605.723Z" fill="#f79c86"/>
              </g>
              <g id="Group_8733" data-name="Group 8733">
                <path id="Path_44185" data-name="Path 44185" d="M1362.739,1625.9a28.266,28.266,0,0,0-1.481-3.005s.224-5.291-1.144-6.849c-3.979,2.609-6.632,1.033-11.479-.418-.772-.231-3.988,2.878-4.03,3.19a5.769,5.769,0,0,1-1.541,3.341c-.468.648-6.528,9.621-12.765,8.279-.972-.182-1.313.889-1.529,1.429s-.467,2.358-.559,2.653a.615.615,0,0,0,.322.755c.274.149,9.251,2.763,12.987,2.642a7.735,7.735,0,0,0,3.757-.75c.918-.424,2.516-2.434,3.045-3.033a3.956,3.956,0,0,1,2.437-.988c1.125-.057,1.079.519,1.079.519a18.033,18.033,0,0,0,.374,2.313c4.038,1.572,10.02-.577,11.616-1.234A52.587,52.587,0,0,0,1362.739,1625.9Z" fill="#181c51"/>
              </g>
              <g id="Group_8734" data-name="Group 8734">
                <path id="Path_44186" data-name="Path 44186" d="M1405.691,1605.805l2.594,17.3s4.784,4.21,7.907-.331c1.607-5.925,2.937-19.315,2.937-19.315S1404.808,1596.952,1405.691,1605.805Z" fill="#f79c86"/>
              </g>
              <g id="Group_8735" data-name="Group 8735">
                <path id="Path_44187" data-name="Path 44187" d="M1420.634,1625.383a28.359,28.359,0,0,0-1.481-3.005s.224-5.291-1.143-6.849c-3.98,2.61-6.633,1.033-11.48-.417-.772-.232-3.988,2.878-4.029,3.19a5.779,5.779,0,0,1-1.542,3.341c-.468.648-6.528,9.62-12.765,8.279-.972-.182-1.313.889-1.528,1.428s-.468,2.359-.559,2.653a.614.614,0,0,0,.322.756c.273.149,9.25,2.763,12.986,2.642a7.739,7.739,0,0,0,3.758-.75c.917-.424,2.516-2.435,3.044-3.034a3.966,3.966,0,0,1,2.438-.987c1.124-.058,1.078.519,1.078.519a18.2,18.2,0,0,0,.374,2.312c4.038,1.572,10.021-.576,11.617-1.234A52.571,52.571,0,0,0,1420.634,1625.383Z" fill="#181c51"/>
              </g>
              <g id="Group_8736" data-name="Group 8736">
                <path id="Path_44188" data-name="Path 44188" d="M1360.345,1329.3l-36.369,134.346L1348,1604.673h13.68s13.509-107.627,1.629-137.686c16.331-32.289,75.709-90.925,70.514-124.326S1360.345,1329.3,1360.345,1329.3Z" fill="#181c51"/>
              </g>
              <g id="Group_8737" data-name="Group 8737">
                <path id="Path_44189" data-name="Path 44189" d="M1372.946,1336.081l32.721,268.592H1419s16.309-100.086,2.2-138.821c5.195-35.726,22.168-102.29,12.939-125.811S1372.946,1336.081,1372.946,1336.081Z" fill="#272568"/>
              </g>
              <g id="Group_8738" data-name="Group 8738">
                <path id="Path_44190" data-name="Path 44190" d="M1302.432,1181.982c-7.421-38.98-11.762-56.707-11.762-56.707s13.619-19.335,5.826-27.322-10.764-9.585-10.392-17.893-4.369-2.275-4,5.713-1.2,12.608-1.2,12.608a59.009,59.009,0,0,0-2.612,22.256c1.126,11.5,2.24,79.557,23.763,107.354,0,0,16.347,31.908,59.072,41.511,7.794-23.324,16.655-33.524,16.655-33.524S1317.665,1230.581,1302.432,1181.982Z" fill="#f79c86"/>
              </g>
              <g id="Group_8739" data-name="Group 8739">
                <path id="Path_44191" data-name="Path 44191" d="M1442.362,1285.3c0-36.142-13.679-46.446-23.65-52.048-13.408-7.532-39.366-11-52.609-.615-6.937-1.968-15.009-4.377-22.3-6.858-5.214,12.52-12.186,32-12.186,32a101.383,101.383,0,0,0,24.71,10.886c-2.488,23.453-3.28,53.3.3,70.1,35.628,11.133,77.379,3.9,77.379,3.9a256.776,256.776,0,0,0,.091-57.065C1436.78,1285.53,1439.544,1285.435,1442.362,1285.3Z" fill="#f98835"/>
              </g>
              <g id="Group_8740" data-name="Group 8740">
                <path id="Path_44192" data-name="Path 44192" d="M1442.362,1383.112c1.32-46.746.339-78.206.339-97.811h-29.286c.515,1.816,6.406,17.649,10.02,30.542,0,27.858,14.846,46.859,8.724,90.094-5.01,10.02-4.732,24.681,4.267,24.681,12.06,2.041,11.853-16.331,9.046-25.238S1442.362,1383.112,1442.362,1383.112Z" fill="#f79c86"/>
              </g>
              <g id="Group_8741" data-name="Group 8741">
                <path id="Path_44193" data-name="Path 44193" d="M1381.514,1177.214s-12.638,30.817,0,40.647a17.859,17.859,0,0,0,3.6,2.2v13.465a7.445,7.445,0,1,0,14.889,0v-15.11c5.852-3.789,10.847-10.83,13.8-18.622C1419.654,1184.387,1401.552,1157.822,1381.514,1177.214Z" fill="#f79c86"/>
              </g>
              <g id="Group_8742" data-name="Group 8742">
                <path id="Path_44194" data-name="Path 44194" d="M1412.04,1167.96c-8.4-3.674-7.019-1.979-20.182-7.546-9.452-3.342-16.689,5.209-14.723,13.2,3.692,11.414,18.7,5.667,23.848,7.466s3.914,9.516,3.914,9.516c-4.043,15.227-13.095,9.594-25.072,8.308-9-1.858-5.011,21.3,5.425,21.3,11.577.3,17.883-14.99,20.456-19.362.237-.4,2.181-4.985,4.042-4.985a3.369,3.369,0,1,1-2.55,5.546c-6.572,11.809-12.321,25.324-4.289,19.419C1430.293,1200.755,1420.6,1171.7,1412.04,1167.96Z" fill="#181c51"/>
              </g>
              <g id="Group_8743" data-name="Group 8743">
                <path id="Path_44195" data-name="Path 44195" d="M1356.331,1268.664c-.017.155-.033.315-.049.472,1.762-10.762,4.153-21.382,8.262-31.6.536-1.333-1.618-1.907-2.146-.591-4.041,10.051-5.587,20.669-7.342,31.246C1355.75,1268.409,1355.611,1268.449,1356.331,1268.664Z" fill="#dc6b23"/>
              </g>
            </g>
            <g id="Group_8753" data-name="Group 8753">
              <g id="Group_8750" data-name="Group 8750">
                <g id="Group_8748" data-name="Group 8748">
                  <g id="Group_8746" data-name="Group 8746">
                    <g id="Group_8745" data-name="Group 8745">
                      <path id="Path_44196" data-name="Path 44196" d="M1447.981,1464.429h-20.04a15.047,15.047,0,0,1-15.031-15.031v-15.78a15.046,15.046,0,0,1,15.031-15.031h20.04a15.047,15.047,0,0,1,15.031,15.031v15.78A15.048,15.048,0,0,1,1447.981,1464.429Zm-20.04-42.5a11.7,11.7,0,0,0-11.691,11.691v15.78a11.7,11.7,0,0,0,11.691,11.691h20.04a11.7,11.7,0,0,0,11.691-11.691v-15.78a11.7,11.7,0,0,0-11.691-11.691Z" fill="#181c51"/>
                    </g>
                  </g>
                  <g id="Group_8747" data-name="Group 8747">
                    <rect id="Rectangle_3832" data-name="Rectangle 3832" width="116.606" height="72.025" transform="translate(1388.105 1442.465)" fill="#f98835"/>
                  </g>
                </g>
                <g id="Group_8749" data-name="Group 8749">
                  <rect id="Rectangle_3833" data-name="Rectangle 3833" width="12.247" height="72.025" transform="translate(1492.464 1442.465)" fill="#272568"/>
                </g>
              </g>
              <g id="Group_8751" data-name="Group 8751">
                <rect id="Rectangle_3834" data-name="Rectangle 3834" width="105.276" height="2.224" transform="translate(1387.496 1478.174)" fill="#fff"/>
              </g>
              <g id="Group_8752" data-name="Group 8752">
                <rect id="Rectangle_3835" data-name="Rectangle 3835" width="32.884" height="15.997" transform="translate(1420.715 1470.208)" fill="#fff"/>
              </g>
            </g>
          </g>
          <g id="Group_8767" data-name="Group 8767">
            <g id="Group_8755" data-name="Group 8755">
              <rect id="Rectangle_3836" data-name="Rectangle 3836" width="187.59" height="146.278" rx="13.688" transform="translate(229.511 1010.847)" fill="#8ad4ea"/>
            </g>
            <g id="Group_8756" data-name="Group 8756">
              <path id="Path_44197" data-name="Path 44197" d="M273.8,1058.015c0,5.808-5.322,10.517-11.888,10.517h-6.6c-6.565,0-11.887-4.709-11.887-10.517v-18.181c0-5.809,5.322-10.517,11.887-10.517h6.6c6.566,0,11.888,4.708,11.888,10.517Z" fill="#b0a8d3"/>
            </g>
            <g id="Group_8757" data-name="Group 8757">
              <path id="Path_44198" data-name="Path 44198" d="M403.169,1029.881a8.23,8.23,0,0,1-8.23,8.23H300.975a8.23,8.23,0,0,1-8.23-8.23h0a8.229,8.229,0,0,1,8.23-8.229h93.964a8.23,8.23,0,0,1,8.23,8.229Z" fill="#eb698e"/>
            </g>
            <g id="Group_8758" data-name="Group 8758">
              <path id="Path_44199" data-name="Path 44199" d="M409.99,1045.538c0,.813-1.011,1.473-2.257,1.473h-117.2c-1.248,0-2.258-.66-2.258-1.473h0c0-.814,1.01-1.474,2.258-1.474h117.2c1.246,0,2.257.66,2.257,1.474Z" fill="#fff"/>
            </g>
            <g id="Group_8759" data-name="Group 8759">
              <path id="Path_44200" data-name="Path 44200" d="M409.99,1055.126c0,.813-1.011,1.473-2.257,1.473h-117.2c-1.248,0-2.258-.66-2.258-1.473h0c0-.814,1.01-1.474,2.258-1.474h117.2c1.246,0,2.257.66,2.257,1.474Z" fill="#fff"/>
            </g>
            <g id="Group_8760" data-name="Group 8760">
              <path id="Path_44201" data-name="Path 44201" d="M408.814,1066.61c0,.813-1.011,1.473-2.257,1.473h-117.2c-1.248,0-2.258-.66-2.258-1.473h0c0-.815,1.01-1.474,2.258-1.474h117.2c1.246,0,2.257.659,2.257,1.474Z" fill="#fff"/>
            </g>
            <g id="Group_8761" data-name="Group 8761">
              <path id="Path_44202" data-name="Path 44202" d="M408.814,1076.2c0,.813-1.011,1.473-2.257,1.473h-117.2c-1.248,0-2.258-.66-2.258-1.473h0c0-.815,1.01-1.474,2.258-1.474h117.2c1.246,0,2.257.659,2.257,1.474Z" fill="#fff"/>
            </g>
            <g id="Group_8762" data-name="Group 8762">
              <path id="Path_44203" data-name="Path 44203" d="M297.192,1096.359c0,3.028-1.99,5.483-4.446,5.483H241.979c-2.456,0-4.447-2.455-4.447-5.483h0c0-3.028,1.991-5.483,4.447-5.483h50.767c2.456,0,4.446,2.455,4.446,5.483Z" fill="#42bdd9"/>
            </g>
            <g id="Group_8763" data-name="Group 8763">
              <path id="Path_44204" data-name="Path 44204" d="M359.226,1111.62c0,.815-1.01,1.474-2.257,1.474h-117.2c-1.246,0-2.257-.659-2.257-1.474h0c0-.814,1.011-1.473,2.257-1.473h117.2c1.247,0,2.257.659,2.257,1.473Z" fill="#fff"/>
            </g>
            <g id="Group_8764" data-name="Group 8764">
              <path id="Path_44205" data-name="Path 44205" d="M359.226,1121.208c0,.815-1.01,1.474-2.257,1.474h-117.2c-1.246,0-2.257-.659-2.257-1.474h0c0-.814,1.011-1.474,2.257-1.474h117.2c1.247,0,2.257.66,2.257,1.474Z" fill="#fff"/>
            </g>
            <g id="Group_8765" data-name="Group 8765">
              <path id="Path_44206" data-name="Path 44206" d="M358.05,1132.691c0,.815-1.01,1.474-2.257,1.474h-117.2c-1.246,0-2.257-.659-2.257-1.474h0c0-.814,1.011-1.473,2.257-1.473h117.2c1.247,0,2.257.659,2.257,1.473Z" fill="#fff"/>
            </g>
            <g id="Group_8766" data-name="Group 8766">
              <path id="Path_44207" data-name="Path 44207" d="M358.05,1142.28c0,.814-1.01,1.473-2.257,1.473h-117.2c-1.246,0-2.257-.659-2.257-1.473h0c0-.815,1.011-1.474,2.257-1.474h117.2c1.247,0,2.257.659,2.257,1.474Z" fill="#fff"/>
            </g>
          </g>
          <g id="Group_8772" data-name="Group 8772">
            <g id="Group_8768" data-name="Group 8768">
              <path id="Path_44208" data-name="Path 44208" d="M1354.626,631.553a65.755,65.755,0,1,1-65.758-65.755A65.756,65.756,0,0,1,1354.626,631.553Z" fill="#f98835"/>
            </g>
            <g id="Group_8769" data-name="Group 8769">
              <path id="Path_44209" data-name="Path 44209" d="M1288.868,700.509a68.956,68.956,0,1,1,68.959-68.956A69.033,69.033,0,0,1,1288.868,700.509Zm0-131.509a62.552,62.552,0,1,0,62.555,62.553A62.622,62.622,0,0,0,1288.868,569Z" fill="#ffb444"/>
            </g>
            <g id="Group_8771" data-name="Group 8771">
              <g id="Group_8770" data-name="Group 8770">
                <path id="Path_44210" data-name="Path 44210" d="M1282.761,673.3v-.831a5.31,5.31,0,0,0-4.649-5.246,50.267,50.267,0,0,1-10.567-2.538,5.287,5.287,0,0,1-3.287-6.278l.795-3.1a5.289,5.289,0,0,1,7-3.625,39.206,39.206,0,0,0,13.7,2.584c6.572,0,11.066-2.536,11.066-7.148,0-4.38-3.687-7.146-12.217-10.028-12.338-4.15-20.752-9.914-20.752-21.1,0-9.058,5.7-16.37,15.7-19.555a5.347,5.347,0,0,0,3.784-5.071v-1.557a5.289,5.289,0,0,1,5.289-5.289h.719a5.289,5.289,0,0,1,5.289,5.289h0a5.287,5.287,0,0,0,4.626,5.243,42.48,42.48,0,0,1,7.466,1.588,5.26,5.26,0,0,1,3.464,6.337l-.7,2.743a5.269,5.269,0,0,1-6.8,3.655,35.271,35.271,0,0,0-11.283-1.8c-7.494,0-9.916,3.227-9.916,6.456,0,3.8,4.035,6.226,13.834,9.916,13.721,4.84,19.25,11.181,19.25,21.557,0,9.214-5.858,17.22-16.656,20.426a5.33,5.33,0,0,0-3.862,5.089V673.3a5.288,5.288,0,0,1-5.288,5.288h-.72A5.288,5.288,0,0,1,1282.761,673.3Z" fill="#fff"/>
              </g>
            </g>
          </g>
          <g id="Group_8778" data-name="Group 8778">
            <g id="Group_8773" data-name="Group 8773">
              <path id="Path_44211" data-name="Path 44211" d="M599.071,593.663a63.9,63.9,0,1,1-63.9-63.9A63.9,63.9,0,0,1,599.071,593.663Z" fill="#f98835"/>
            </g>
            <g id="Group_8775" data-name="Group 8775">
              <g id="Group_8774" data-name="Group 8774">
                <path id="Path_44212" data-name="Path 44212" d="M535.171,660.672a67.009,67.009,0,1,1,67.012-67.009A67.084,67.084,0,0,1,535.171,660.672Zm0-127.795a60.785,60.785,0,1,0,60.788,60.786A60.852,60.852,0,0,0,535.171,532.877Z" fill="#ffb444"/>
              </g>
            </g>
            <g id="Group_8777" data-name="Group 8777">
              <g id="Group_8776" data-name="Group 8776">
                <path id="Path_44213" data-name="Path 44213" d="M529.234,634.228v-.808a5.159,5.159,0,0,0-4.517-5.1,48.866,48.866,0,0,1-10.267-2.465,5.137,5.137,0,0,1-3.2-6.1l.773-3.015a5.14,5.14,0,0,1,6.8-3.523,38.109,38.109,0,0,0,13.315,2.512c6.387,0,10.753-2.466,10.753-6.947,0-4.257-3.582-6.945-11.872-9.745-11.988-4.032-20.165-9.634-20.165-20.5,0-8.8,5.537-15.907,15.258-19a5.194,5.194,0,0,0,3.677-4.926v-1.514a5.139,5.139,0,0,1,5.139-5.139h.7a5.139,5.139,0,0,1,5.139,5.139h0a5.138,5.138,0,0,0,4.495,5.1,41.315,41.315,0,0,1,7.255,1.543,5.111,5.111,0,0,1,3.367,6.158l-.685,2.667a5.118,5.118,0,0,1-6.6,3.55,34.3,34.3,0,0,0-10.965-1.748c-7.281,0-9.635,3.136-9.635,6.272,0,3.7,3.92,6.051,13.444,9.638,13.333,4.7,18.707,10.864,18.707,20.946,0,8.956-5.694,16.735-16.188,19.851a5.179,5.179,0,0,0-3.753,4.945v2.216a5.139,5.139,0,0,1-5.139,5.139h-.7A5.139,5.139,0,0,1,529.234,634.228Z" fill="#fff"/>
              </g>
            </g>
          </g>
          <g id="Group_8803" data-name="Group 8803">
            <g id="Group_8779" data-name="Group 8779">
              <path id="Path_44214" data-name="Path 44214" d="M1703.737,1294.674c0,6.627-5.836,12-13.034,12H1552.77c-7.2,0-13.033-5.373-13.033-12v-264.25c0-6.627,5.836-12,13.033-12H1690.7c7.2,0,13.034,5.373,13.034,12Z" fill="#8ad4ea"/>
            </g>
            <g id="Group_8780" data-name="Group 8780">
              <path id="Path_44215" data-name="Path 44215" d="M1689.7,1043.054a7.5,7.5,0,0,1-7.5,7.5h-73.181a7.5,7.5,0,0,1-7.5-7.5h0a7.5,7.5,0,0,1,7.5-7.5H1682.2a7.5,7.5,0,0,1,7.5,7.5Z" fill="#eb698e"/>
            </g>
            <g id="Group_8781" data-name="Group 8781">
              <rect id="Rectangle_3837" data-name="Rectangle 3837" width="44.633" height="69.675" rx="12" transform="translate(1550.737 1035.554)" fill="#b0a8d3"/>
            </g>
            <g id="Group_8782" data-name="Group 8782">
              <path id="Path_44216" data-name="Path 44216" d="M1691.555,1060.958c0,.667-.742,1.208-1.654,1.208h-85.864c-.914,0-1.654-.541-1.654-1.208h0c0-.668.74-1.209,1.654-1.209H1689.9c.912,0,1.654.541,1.654,1.209Z" fill="#fff"/>
            </g>
            <g id="Group_8783" data-name="Group 8783">
              <path id="Path_44217" data-name="Path 44217" d="M1691.555,1068.824c0,.667-.742,1.208-1.654,1.208h-85.864c-.914,0-1.654-.541-1.654-1.208h0c0-.668.74-1.209,1.654-1.209H1689.9c.912,0,1.654.541,1.654,1.209Z" fill="#fff"/>
            </g>
            <g id="Group_8784" data-name="Group 8784">
              <path id="Path_44218" data-name="Path 44218" d="M1690.694,1078.244c0,.667-.743,1.207-1.655,1.207h-85.865c-.912,0-1.652-.54-1.652-1.207h0c0-.669.74-1.21,1.652-1.21h85.865c.912,0,1.655.541,1.655,1.21Z" fill="#fff"/>
            </g>
            <g id="Group_8785" data-name="Group 8785">
              <path id="Path_44219" data-name="Path 44219" d="M1690.694,1086.109c0,.667-.743,1.208-1.655,1.208h-85.865c-.912,0-1.652-.541-1.652-1.208h0c0-.668.74-1.209,1.652-1.209h85.865c.912,0,1.655.541,1.655,1.209Z" fill="#fff"/>
            </g>
            <g id="Group_8786" data-name="Group 8786">
              <path id="Path_44220" data-name="Path 44220" d="M1690.629,1096.787c0,.667-.742,1.208-1.654,1.208h-85.863c-.914,0-1.655-.541-1.655-1.208h0c0-.667.741-1.209,1.655-1.209h85.863c.912,0,1.654.542,1.654,1.209Z" fill="#fff"/>
            </g>
            <g id="Group_8787" data-name="Group 8787">
              <path id="Path_44221" data-name="Path 44221" d="M1690.629,1104.653c0,.667-.742,1.208-1.654,1.208h-85.863c-.914,0-1.655-.541-1.655-1.208h0c0-.668.741-1.209,1.655-1.209h85.863c.912,0,1.654.541,1.654,1.209Z" fill="#fff"/>
            </g>
            <g id="Group_8788" data-name="Group 8788">
              <path id="Path_44222" data-name="Path 44222" d="M1689.768,1114.073c0,.667-1.158,1.208-2.58,1.208H1553.315c-1.424,0-2.578-.541-2.578-1.208h0c0-.668,1.154-1.209,2.578-1.209h133.873c1.422,0,2.58.541,2.58,1.209Z" fill="#fff"/>
            </g>
            <g id="Group_8789" data-name="Group 8789">
              <path id="Path_44223" data-name="Path 44223" d="M1689.768,1121.938c0,.667-1.158,1.208-2.58,1.208H1553.315c-1.424,0-2.578-.541-2.578-1.208h0c0-.668,1.154-1.209,2.578-1.209h133.873c1.422,0,2.58.541,2.58,1.209Z" fill="#fff"/>
            </g>
            <g id="Group_8790" data-name="Group 8790">
              <path id="Path_44224" data-name="Path 44224" d="M1689.768,1130.349c0,.667-1.158,1.208-2.58,1.208H1553.315c-1.424,0-2.578-.541-2.578-1.208h0c0-.668,1.154-1.209,2.578-1.209h133.873c1.422,0,2.58.541,2.58,1.209Z" fill="#fff"/>
            </g>
            <g id="Group_8791" data-name="Group 8791">
              <path id="Path_44225" data-name="Path 44225" d="M1689.768,1138.214c0,.667-1.158,1.208-2.58,1.208H1553.315c-1.424,0-2.578-.541-2.578-1.208h0c0-.668,1.154-1.209,2.578-1.209h133.873c1.422,0,2.58.541,2.58,1.209Z" fill="#fff"/>
            </g>
            <g id="Group_8792" data-name="Group 8792">
              <path id="Path_44226" data-name="Path 44226" d="M1639.459,1155.049a7.5,7.5,0,0,1-7.5,7.5h-73.181a7.5,7.5,0,0,1-7.5-7.5h0a7.5,7.5,0,0,1,7.5-7.5h73.181a7.5,7.5,0,0,1,7.5,7.5Z" fill="#42bdd9"/>
            </g>
            <g id="Group_8793" data-name="Group 8793">
              <path id="Path_44227" data-name="Path 44227" d="M1689.768,1171.564c0,.667-1.158,1.208-2.58,1.208H1553.315c-1.424,0-2.578-.541-2.578-1.208h0c0-.668,1.154-1.209,2.578-1.209h133.873c1.422,0,2.58.541,2.58,1.209Z" fill="#fff"/>
            </g>
            <g id="Group_8794" data-name="Group 8794">
              <path id="Path_44228" data-name="Path 44228" d="M1689.768,1179.429c0,.667-1.158,1.208-2.58,1.208H1553.315c-1.424,0-2.578-.541-2.578-1.208h0c0-.668,1.154-1.209,2.578-1.209h133.873c1.422,0,2.58.541,2.58,1.209Z" fill="#fff"/>
            </g>
            <g id="Group_8795" data-name="Group 8795">
              <path id="Path_44229" data-name="Path 44229" d="M1689.768,1187.84c0,.667-1.158,1.208-2.58,1.208H1553.315c-1.424,0-2.578-.541-2.578-1.208h0c0-.668,1.154-1.209,2.578-1.209h133.873c1.422,0,2.58.541,2.58,1.209Z" fill="#fff"/>
            </g>
            <g id="Group_8796" data-name="Group 8796">
              <path id="Path_44230" data-name="Path 44230" d="M1689.768,1195.7c0,.667-1.158,1.208-2.58,1.208H1553.315c-1.424,0-2.578-.541-2.578-1.208h0c0-.668,1.154-1.209,2.578-1.209h133.873c1.422,0,2.58.541,2.58,1.209Z" fill="#fff"/>
            </g>
            <g id="Group_8797" data-name="Group 8797">
              <rect id="Rectangle_3838" data-name="Rectangle 3838" width="10.5" height="27.322" transform="translate(1568.203 1265.876)" fill="#42bdd9"/>
            </g>
            <g id="Group_8798" data-name="Group 8798">
              <rect id="Rectangle_3839" data-name="Rectangle 3839" width="10.5" height="42.572" transform="translate(1590.119 1250.626)" fill="#eb698e"/>
            </g>
            <g id="Group_8799" data-name="Group 8799">
              <rect id="Rectangle_3840" data-name="Rectangle 3840" width="10.5" height="58.145" transform="translate(1613.002 1235.054)" fill="#42bdd9"/>
            </g>
            <g id="Group_8800" data-name="Group 8800">
              <rect id="Rectangle_3841" data-name="Rectangle 3841" width="10.5" height="68.645" transform="translate(1634.209 1224.554)" fill="#eb698e"/>
            </g>
            <g id="Group_8801" data-name="Group 8801">
              <rect id="Rectangle_3842" data-name="Rectangle 3842" width="10.5" height="74.645" transform="translate(1654.709 1218.554)" fill="#42bdd9"/>
            </g>
            <g id="Group_8802" data-name="Group 8802">
              <path id="Path_44231" data-name="Path 44231" d="M1670.545,1217.054l5.621,3.467c-26.353,43.963-115.275,69.532-116.226,69.8l.814,2.886a371.54,371.54,0,0,0,53.549-20.739c32.123-15.519,53.73-32.426,64.432-50.364l5.074,3.131.455-15.579Z" fill="#f98835"/>
            </g>
          </g>
          <g id="Group_8810" data-name="Group 8810">
            <g id="Group_8805" data-name="Group 8805">
              <g id="Group_8804" data-name="Group 8804">
                <path id="Path_44232" data-name="Path 44232" d="M474.072,1094.639l-5.592-2.425c.01-.024,1.058-2.45,2.584-6.643l5.728,2.085C475.2,1092.039,474.118,1094.535,474.072,1094.639Z" fill="#8b83bd"/>
              </g>
            </g>
            <g id="Group_8807" data-name="Group 8807">
              <g id="Group_8806" data-name="Group 8806">
                <path id="Path_44233" data-name="Path 44233" d="M480.682,1075.963l-5.832-1.772c1.4-4.6,2.664-9.279,3.764-13.907l5.93,1.41C483.415,1066.443,482.115,1071.243,480.682,1075.963Zm6.389-26.337-6-1.083c.867-4.806,1.555-9.591,2.045-14.223l6.062.64C488.676,1039.74,487.966,1044.675,487.071,1049.626Zm2.982-27.01-6.091-.211c.06-1.757.091-3.519.091-5.237,0-3.067-.1-6.109-.29-9.045l6.082-.4c.2,3.067.3,6.245.3,9.444C490.149,1018.956,490.116,1020.788,490.053,1022.616Zm-7.635-26.27a100.8,100.8,0,0,0-3.267-13.766l5.813-1.833a107.187,107.187,0,0,1,3.467,14.6Zm-7.536-24.7a78.029,78.029,0,0,0-7.1-12.085l4.952-3.552a83.972,83.972,0,0,1,7.652,13.031Zm-14.608-21.008a79.6,79.6,0,0,0-10.692-9.07l3.524-4.973a85.664,85.664,0,0,1,11.512,9.768Zm-20.7-15.2a106.383,106.383,0,0,0-12.954-5.72l2.1-5.724a112.586,112.586,0,0,1,13.7,6.052ZM415.3,926.182c-4.431-1.17-9.135-2.175-13.981-2.986l1.007-6.012c5.03.843,9.919,1.888,14.53,3.1ZM389.45,921.6c-5.017-.537-9.938-1.2-14.626-1.962l.982-6.016c4.578.747,9.387,1.392,14.292,1.917Zm-26.73-4.264c-4.978-1.091-9.806-2.343-14.35-3.721l1.769-5.833c4.392,1.332,9.063,2.543,13.886,3.6Zm-26.066-7.782a122.063,122.063,0,0,1-13.564-6.291L326,897.912a116.074,116.074,0,0,0,12.884,5.975Zm-24.181-12.98a73.246,73.246,0,0,1-11.314-10.137l4.538-4.069a67.211,67.211,0,0,0,10.372,9.285Zm-18.788-20.53a49.547,49.547,0,0,1-5.372-14.506l5.978-1.185a43.463,43.463,0,0,0,4.718,12.722ZM293.6,849.07l-6.08-.429a54.823,54.823,0,0,1,3.293-15.034l5.721,2.1A48.759,48.759,0,0,0,293.6,849.07Zm7.976-23.752-5.213-3.16a80.983,80.983,0,0,1,9.066-12.124l4.531,4.077A74.842,74.842,0,0,0,301.577,825.318Zm16.811-19.4-3.966-4.628a113.6,113.6,0,0,1,12.013-8.958l3.321,5.111A107.63,107.63,0,0,0,318.388,805.913Zm21.619-14.443-2.813-5.407a145.142,145.142,0,0,1,13.562-6.173l2.24,5.669A138.732,138.732,0,0,0,340.007,791.47Zm24.239-9.848-1.789-5.826c4.65-1.428,9.487-2.684,14.375-3.732l1.278,5.959C373.394,779.035,368.73,780.246,364.246,781.622Zm25.627-5.709L389,769.881l.853-.123c4.56-.641,9.053-1.4,13.362-2.269l1.2,5.976c-4.425.888-9.035,1.671-13.7,2.327Zm26.556-5.217-1.544-5.9c4.711-1.233,9.328-2.634,13.721-4.164l2.005,5.755C426.067,767.973,421.294,769.422,416.429,770.7Zm25.713-8.8-2.428-5.591a142.7,142.7,0,0,0,12.8-6.319l2.974,5.32C451.258,757.671,446.768,759.888,442.142,761.9Zm23.909-13.147-3.454-5.021a117.449,117.449,0,0,0,11.2-8.739l4.039,4.565A123.4,123.4,0,0,1,466.051,748.749Zm20.675-17.955-4.51-4.1a104.483,104.483,0,0,0,8.8-11.1l5.024,3.451A110.728,110.728,0,0,1,486.726,730.794Zm15.79-22.454-5.39-2.844a99.076,99.076,0,0,0,5.694-12.954l5.743,2.042A104.9,104.9,0,0,1,502.516,708.34Z" fill="#8b83bd"/>
              </g>
            </g>
            <g id="Group_8809" data-name="Group 8809">
              <g id="Group_8808" data-name="Group 8808">
                <path id="Path_44234" data-name="Path 44234" d="M512.082,682.129l-5.968-1.239a53.371,53.371,0,0,0,1.034-6.782l6.086.353A58.014,58.014,0,0,1,512.082,682.129Z" fill="#8b83bd"/>
              </g>
            </g>
          </g>
          <g id="Group_8814" data-name="Group 8814">
            <g id="Group_8811" data-name="Group 8811">
              <path id="Path_44235" data-name="Path 44235" d="M1477.2,1137.9c-.043-.085-1.078-2.12-2.532-5.665l4.626-1.9c1.367,3.333,2.35,5.268,2.36,5.287Z" fill="#8b83bd"/>
            </g>
            <g id="Group_8812" data-name="Group 8812">
              <path id="Path_44236" data-name="Path 44236" d="M1471.164,1122.589q-.273-.852-.546-1.743c-1.03-3.366-1.928-6.782-2.673-10.154l4.883-1.077c.715,3.242,1.58,6.529,2.571,9.769.175.571.352,1.131.527,1.679Zm-.053-22.686-4.957.654a105.473,105.473,0,0,1-.915-12.344l5-.069A100.757,100.757,0,0,0,1471.111,1099.9Zm-.462-21.532-4.975-.5a79.731,79.731,0,0,1,2.193-12.267l4.835,1.272A74.745,74.745,0,0,0,1470.649,1078.371Zm5.18-20.67-4.6-1.955a69.337,69.337,0,0,1,5.908-11.021l4.176,2.752A64.254,64.254,0,0,0,1475.829,1057.7Zm11.4-17.888-3.724-3.335a77.854,77.854,0,0,1,9.039-8.567l3.144,3.887A73.159,73.159,0,0,0,1487.226,1039.813Zm16.4-13.688-2.671-4.225a105.675,105.675,0,0,1,10.821-5.959l2.159,4.509A101.222,101.222,0,0,0,1503.624,1026.125Zm19.454-9.618-1.974-4.594a36.326,36.326,0,0,0,9.5-5.975l3.282,3.771A41.275,41.275,0,0,1,1523.078,1016.507Zm17.929-14.654-4.056-2.924a54.036,54.036,0,0,0,5.632-10.04l4.585,1.992A58.923,58.923,0,0,1,1541.007,1001.853Zm9.628-20.768-4.809-1.366a98.047,98.047,0,0,0,2.488-11.506l4.94.775A102.9,102.9,0,0,1,1550.635,981.085Zm3.8-22.294-4.985-.384c.293-3.8.44-7.8.44-11.882h5C1554.886,950.739,1554.732,954.866,1554.43,958.791Zm.178-22.467-4.992.266c-.206-3.855-.534-7.861-.974-11.909l4.971-.541C1554.063,928.279,1554.4,932.378,1554.608,936.324Zm-2.31-22.274-4.943.745c-.585-3.879-1.275-7.848-2.051-11.8l4.907-.964C1551,906.055,1551.7,910.1,1552.3,914.05ZM1548.08,892.1l-4.87,1.132c-.89-3.829-1.88-7.741-2.941-11.624l4.824-1.318C1546.171,884.234,1547.176,888.208,1548.08,892.1Zm-10.6-20.088c-1.165-3.788-2.42-7.62-3.73-11.391l4.722-1.641c1.331,3.827,2.6,7.717,3.787,11.562Zm-7.153-20.778c-1.427-3.736-2.935-7.482-4.483-11.132l4.6-1.951c1.572,3.7,3.1,7.507,4.55,11.3Zm-8.533-20.284c-1.677-3.636-3.439-7.272-5.237-10.8l4.456-2.268c1.827,3.591,3.618,7.284,5.322,10.979Zm-9.917-19.631c-1.946-3.523-3.969-7.009-6.015-10.362l4.269-2.6c2.083,3.413,4.142,6.963,6.123,10.549ZM1500.5,792.542c-2.24-3.37-4.553-6.663-6.871-9.788l4.015-2.979c2.37,3.193,4.732,6.557,7.02,10Zm-55.8-3.081c-2.845.871-5.8,1.641-8.8,2.291l-1.061-4.886c2.857-.621,5.683-1.356,8.4-2.186l.015-.005q1.491-.456,2.961-.957l1.613,4.732q-1.545.528-3.111,1.006Zm12.724-4.865-2.122-4.528a73.5,73.5,0,0,0,10.162-5.747l2.813,4.135A79,79,0,0,1,1457.429,784.6Zm30.087-9.693c-2.192-2.676-4.433-5.267-6.678-7.722a54.878,54.878,0,0,1-4.4,4.717l-3.453-3.617a47.281,47.281,0,0,0,7.294-8.813l4.22,2.68c-.2.32-.409.637-.621.954,2.523,2.729,5.045,5.63,7.5,8.633Zm-61.753,18.582a116.75,116.75,0,0,1-12.315.9l-.1-5a111.894,111.894,0,0,0,11.788-.859Zm-22.622.612a89.823,89.823,0,0,1-12.3-1.772l1.071-4.885a84.525,84.525,0,0,0,11.612,1.672Zm-22.323-4.779a40.742,40.742,0,0,1-11.125-6.373l3.2-3.841a35.726,35.726,0,0,0,9.763,5.564Zm91.875-30.436c-2.95-2.79-5.962-5.407-8.954-7.782l3.108-3.916c3.1,2.463,6.227,5.177,9.281,8.066Zm16.442-6.28-4.721-1.647a42.046,42.046,0,0,0,2.23-11.135l4.99.322A47.091,47.091,0,0,1,1489.135,752.6ZM1362.9,774.153a20.274,20.274,0,0,1-.785-2.13,21.991,21.991,0,0,1-.314-11.229l4.885,1.066a17.053,17.053,0,0,0,.211,8.7,14.973,14.973,0,0,0,.591,1.6Zm92.88-28.852a98.031,98.031,0,0,0-10.168-5.923l2.242-4.468a102.716,102.716,0,0,1,10.689,6.224Zm35.486-15.676-4.959.641a63.426,63.426,0,0,0-2.282-10.372c-.1-.312-.193-.625-.294-.94l4.76-1.531q.162.507.315,1.008A68.548,68.548,0,0,1,1491.263,729.625Zm-54.612,5.884a72.165,72.165,0,0,0-11.231-3.082l.919-4.914a77.033,77.033,0,0,1,12.013,3.295Zm-66.489,17.768-4.335-2.492a63.983,63.983,0,0,1,7.406-10.14l3.758,3.3A58.97,58.97,0,0,0,1370.162,753.277Zm45.654-21.925a63.839,63.839,0,0,0-11.566.632l-.725-4.947a68.871,68.871,0,0,1,12.475-.682Zm64.373-21.514c-.981-2.168-2.091-4.4-3.3-6.631q-1.068-1.975-2.153-3.895l4.354-2.46q1.107,1.959,2.2,3.977c1.261,2.335,2.425,4.672,3.454,6.946Zm-96.268,28.486-2.163-4.508a80.2,80.2,0,0,1,11.188-4.388l.428-.13,1.429,4.792-.4.119A75.252,75.252,0,0,0,1383.921,738.324Zm85.735-47.567c-2.124-3.4-4.344-6.741-6.6-9.934l4.082-2.886c2.311,3.27,4.586,6.691,6.76,10.171Zm-12.541-17.892c-2.477-3.144-5.057-6.207-7.669-9.1l3.712-3.349c2.688,2.98,5.34,6.129,7.884,9.359Zm-14.518-16.27c-2.839-2.8-5.789-5.5-8.768-8.02l3.233-3.815c3.074,2.6,6.117,5.389,9.045,8.274Zm-16.522-14.168c-3.187-2.358-6.491-4.6-9.819-6.667l2.636-4.248c3.443,2.137,6.861,4.457,10.157,6.9Zm-18.4-11.581c-3.489-1.84-7.095-3.549-10.719-5.081l1.947-4.606c3.754,1.587,7.49,3.358,11.1,5.263Zm-19.958-8.6c-3.724-1.269-7.555-2.394-11.387-3.345l1.2-4.853c3.969.985,7.938,2.15,11.795,3.466Zm-21.067-5.39c-3.88-.678-7.841-1.2-11.774-1.556l.448-4.98c4.071.367,8.171.909,12.186,1.611Zm-21.66-2.1c-3.989-.082-7.985.007-11.875.262l-.327-4.989c4.032-.265,8.172-.356,12.305-.272Z" fill="#8b83bd"/>
            </g>
            <g id="Group_8813" data-name="Group 8813">
              <path id="Path_44237" data-name="Path 44237" d="M1322.89,616.111c-3.594.55-5.635,1.061-5.655,1.066l-1.23-4.846c.09-.023,2.268-.572,6.129-1.162Z" fill="#8b83bd"/>
            </g>
          </g>
          <g id="Group_8819" data-name="Group 8819">
            <g id="Group_8815" data-name="Group 8815">
              <path id="Path_44238" data-name="Path 44238" d="M1290.245,1341.485a44.343,44.343,0,1,1-44.344-44.343A44.344,44.344,0,0,1,1290.245,1341.485Z" fill="#f98835"/>
            </g>
            <g id="Group_8816" data-name="Group 8816">
              <path id="Path_44239" data-name="Path 44239" d="M1245.9,1387.986a46.5,46.5,0,1,1,46.5-46.5A46.553,46.553,0,0,1,1245.9,1387.986Zm0-88.684a42.183,42.183,0,1,0,42.184,42.183A42.231,42.231,0,0,0,1245.9,1299.3Z" fill="#ffb444"/>
            </g>
            <g id="Group_8818" data-name="Group 8818">
              <g id="Group_8817" data-name="Group 8817">
                <path id="Path_44240" data-name="Path 44240" d="M1241.782,1369.635v-.561a3.561,3.561,0,0,0-3.094-3.531,33.821,33.821,0,0,1-7.218-1.735,3.546,3.546,0,0,1-2.166-4.215l.545-2.127a3.551,3.551,0,0,1,4.723-2.406,26.434,26.434,0,0,0,9.232,1.74c4.429,0,7.46-1.711,7.46-4.822,0-2.954-2.486-4.818-8.238-6.762-8.32-2.8-13.994-6.686-13.994-14.227,0-6.123,3.862-11.064,10.639-13.2a3.568,3.568,0,0,0,2.5-3.4v-1.054a3.567,3.567,0,0,1,3.567-3.567h.482a3.567,3.567,0,0,1,3.568,3.567h0a3.575,3.575,0,0,0,3.139,3.538,28.714,28.714,0,0,1,4.94,1.044,3.575,3.575,0,0,1,2.41,4.3l-.465,1.816a3.55,3.55,0,0,1-4.536,2.514,23.809,23.809,0,0,0-7.666-1.232c-5.053,0-6.685,2.176-6.685,4.353,0,2.566,2.72,4.2,9.328,6.686,9.252,3.265,12.982,7.542,12.982,14.538,0,6.23-3.971,11.64-11.29,13.791a3.555,3.555,0,0,0-2.548,3.412v1.541a3.567,3.567,0,0,1-3.568,3.568h-.481A3.567,3.567,0,0,1,1241.782,1369.635Z" fill="#fff"/>
              </g>
            </g>
          </g>
          <g id="Group_8820" data-name="Group 8820">
            <path id="Path_44241" data-name="Path 44241" d="M1413.12,1284.637c-.019-.083-1.96-8.284-4.707-12.234l.82-.571c2.858,4.108,4.78,12.233,4.861,12.577Z" fill="#e37126"/>
          </g>
        </g>
      </g>
    </g>
  </g>
</svg>
