<svg xmlns="http://www.w3.org/2000/svg" xmlns:xlink="http://www.w3.org/1999/xlink" width="290" height="58.404" viewBox="0 0 290 58.404"><defs><style>.a{opacity:0.26;fill:url(#a);}.b{fill:url(#f);}</style><linearGradient id="a" x1="1.963" y1="-0.777" x2="-4.252" y2="3.913" gradientUnits="objectBoundingBox"><stop offset="0" stop-color="#d1c7ff"/><stop offset="1" stop-color="#7a64ef"/></linearGradient><linearGradient id="f" x1="0.168" y1="1" x2="0.195" y2="-0.797" gradientUnits="objectBoundingBox"><stop offset="0" stop-color="#beb6e8"/><stop offset="1" stop-color="#d1c7ff"/></linearGradient></defs><g transform="translate(-140 -2801.565)"><g transform="translate(-3093 2505)"><g transform="translate(3233 296.565)"><path class="a" d="M695.428,149.915h-16.9v-43.4h16.9a21.7,21.7,0,0,1,21.7,21.7h0A21.7,21.7,0,0,1,695.428,149.915Z" transform="translate(-678.525 -91.592)"/><path class="a" d="M693.441,144.815H678.525v-38.3h14.916a19.15,19.15,0,0,1,19.15,19.15h0A19.15,19.15,0,0,1,693.441,144.815Z" transform="translate(-678.525 -86.5)"/><path class="a" d="M697.507,155.263H678.525V106.515h18.982a24.372,24.372,0,0,1,24.37,24.374h0A24.372,24.372,0,0,1,697.507,155.263Z" transform="translate(-678.525 -96.908)"/><path class="a" d="M699.4,160.115H678.525v-53.6H699.4a26.8,26.8,0,0,1,26.8,26.8h0A26.8,26.8,0,0,1,699.4,160.115Z" transform="translate(-678.525 -101.711)"/><path class="a" d="M701.1,164.478H678.525V106.515H701.1A28.982,28.982,0,0,1,730.083,135.5h0A28.982,28.982,0,0,1,701.1,164.478Z" transform="translate(-678.525 -106.515)"/></g></g><path class="b" d="M1.43-17.578A17.323,17.323,0,0,1,6.3-30.117,16.481,16.481,0,0,1,18.68-35.156a16.481,16.481,0,0,1,12.375,5.039A17.323,17.323,0,0,1,35.93-17.578,17.323,17.323,0,0,1,31.055-5.039,16.481,16.481,0,0,1,18.68,0,16.462,16.462,0,0,1,6.3-5.051,17.334,17.334,0,0,1,1.43-17.578ZM18.7-6.562a9.37,9.37,0,0,0,7.43-3.164A11.5,11.5,0,0,0,28.9-17.578a11.5,11.5,0,0,0-2.766-7.852,9.424,9.424,0,0,0-7.477-3.164,9.37,9.37,0,0,0-7.43,3.164,11.5,11.5,0,0,0-2.766,7.852,11.5,11.5,0,0,0,2.766,7.852A9.424,9.424,0,0,0,18.7-6.562ZM41.484,0V-35.156h2.344L58.992-16.734,74.32-35.156h2.344V0H69.633l-.023-18.867L58.992-7.008,48.516-18.867V0ZM83.2-35.039h7.1V0H83.3ZM97.734,0V-35.156h2.344L122.109-10.43V-35.156h7.031V0L122.18.07l-17.742-16.2L104.766,0Zm36.844,0,27.914-34.875h6.4l.188,34.852L162.234,0l.047-5.391-16.266.164L141.656.07Zm27.938-25.148L151.992-12.3h10.453Zm40.406-10.078v6.563l-10.992.07V0H184.9V-28.594l-10.945-.07v-6.562Zm5.859,28.617,25.781.047V0H208.781Zm0-7.969v-6.562l21.117.047v6.539Zm0-14.016v-6.539l25.828-.023v6.563Z" transform="translate(195.391 2855.651)"/></g></svg>