<svg xmlns="http://www.w3.org/2000/svg" xmlns:xlink="http://www.w3.org/1999/xlink" width="290.609" height="58.137" viewBox="0 0 290.609 58.137"><defs><style>.a,.b,.c,.d,.e{opacity:0.5;}.a{fill:url(#a);}.b{fill:url(#b);}.c{fill:url(#c);}.d{fill:url(#d);}.e{fill:url(#e);}.f{fill:url(#f);}</style><linearGradient id="a" x1="0.949" y1="-0.049" x2="0" y2="1" gradientUnits="objectBoundingBox"><stop offset="0" stop-color="#d1c7ff"/><stop offset="1" stop-color="#502eff"/></linearGradient><linearGradient id="b" x1="1.036" y1="-0.043" xlink:href="#a"/><linearGradient id="c" x1="1.129" y1="-0.143" xlink:href="#a"/><linearGradient id="d" x1="1.394" y1="-0.283" xlink:href="#a"/><linearGradient id="e" x1="1.963" y1="-0.777" xlink:href="#a"/><linearGradient id="f" x1="0.168" y1="1" x2="0.195" y2="-0.797" gradientUnits="objectBoundingBox"><stop offset="0" stop-color="#502eff"/><stop offset="1" stop-color="#d1c7ff"/></linearGradient></defs><g transform="translate(-161 -36.212)"><g transform="translate(42 -561)"><g transform="translate(119 597.212)"><path class="a" d="M701.166,97.137H678.525V39h22.641a29.069,29.069,0,0,1,29.068,29.069h0A29.069,29.069,0,0,1,701.166,97.137Z" transform="translate(-678.525 -39)"/><path class="b" d="M699.46,107.755H678.525V54H699.46a26.877,26.877,0,0,1,26.877,26.877h0A26.877,26.877,0,0,1,699.46,107.755Z" transform="translate(-678.525 -49.618)"/><path class="c" d="M697.564,119.548H678.525V70.66h19.039A24.444,24.444,0,0,1,722.008,95.1h0A24.444,24.444,0,0,1,697.564,119.548Z" transform="translate(-678.525 -61.411)"/><path class="d" d="M695.477,132.53H678.525V89h16.952a21.765,21.765,0,0,1,21.765,21.765h0A21.765,21.765,0,0,1,695.477,132.53Z" transform="translate(-678.525 -74.393)"/><path class="e" d="M693.485,144.928h-14.96V106.515h14.96a19.206,19.206,0,0,1,19.206,19.206h0A19.206,19.206,0,0,1,693.485,144.928Z" transform="translate(-678.525 -86.791)"/></g><path class="f" d="M1.43-17.578A17.323,17.323,0,0,1,6.3-30.117,16.481,16.481,0,0,1,18.68-35.156a16.481,16.481,0,0,1,12.375,5.039A17.323,17.323,0,0,1,35.93-17.578,17.323,17.323,0,0,1,31.055-5.039,16.481,16.481,0,0,1,18.68,0,16.462,16.462,0,0,1,6.3-5.051,17.334,17.334,0,0,1,1.43-17.578ZM18.7-6.562a9.37,9.37,0,0,0,7.43-3.164A11.5,11.5,0,0,0,28.9-17.578a11.5,11.5,0,0,0-2.766-7.852,9.424,9.424,0,0,0-7.477-3.164,9.37,9.37,0,0,0-7.43,3.164,11.5,11.5,0,0,0-2.766,7.852,11.5,11.5,0,0,0,2.766,7.852A9.424,9.424,0,0,0,18.7-6.562ZM41.484,0V-35.156h2.344L58.992-16.734,74.32-35.156h2.344V0H69.633l-.023-18.867L58.992-7.008,48.516-18.867V0ZM83.2-35.039h7.1V0H83.3ZM97.734,0V-35.156h2.344L122.109-10.43V-35.156h7.031V0L122.18.07l-17.742-16.2L104.766,0Zm36.844,0,27.914-34.875h6.4l.188,34.852L162.234,0l.047-5.391-16.266.164L141.656.07Zm27.938-25.148L151.992-12.3h10.453Zm40.406-10.078v6.563l-10.992.07V0H184.9V-28.594l-10.945-.07v-6.562Zm5.859,28.617,25.781.047V0H208.781Zm0-7.969v-6.562l21.117.047v6.539Zm0-14.016v-6.539l25.828-.023v6.563Z" transform="translate(175 651)"/></g></g></svg>