<svg xmlns="http://www.w3.org/2000/svg" width="252.164" height="39.194" viewBox="0 0 252.164 39.194"><defs><style>.a{fill:#502eff;fill-rule:evenodd;}</style></defs><g transform="translate(0.001)"><path class="a" d="M21.238,6.494h.437V.907H0v.374c2.5,2.03,2.842,2.624,2.842,4.841V33.167c0,2.217-.342,2.809-2.842,4.84v.376H11.243v-.376c-2.53-1.9-2.967-2.623-2.967-4.746v-13.4H10.71c3.187,0,3.75.218,6.464,3.685h.376v-8.8h-.376c-2.715,3.463-3.277,3.685-6.464,3.685H8.275V2.278h3.716c1.5,0,2.779.5,9.248,4.216Zm8.553,15.9H22.269L25.833,11.5c.165.39.33.823.508,1.335Zm5.92,3.187L29.187,7.649H23.282v.346a10.719,10.719,0,0,1,1.787,2.012L20.19,24.825a10.424,10.424,0,0,1-3.655,5.559v.378h6.841v-.377c-1.874-1.154-2.5-1.9-2.5-3a8.391,8.391,0,0,1,.563-2.465l.429-1.313H30.23l.765,2.121a7.127,7.127,0,0,1,.563,2.408c0,.778-.531,1.435-1.966,2.246v.378h9.555v-.377a8.351,8.351,0,0,1-3.435-4.809ZM50.067,6.495h.439v-5.4a38.553,38.553,0,0,0-6.59-.688c-6.28,0-9.37,4.187-9.37,8.651,0,5.152,3.342,8.244,7.62,11.807,4.621,3.872,7.338,6.213,7.338,10.678,0,3.686-2.434,5.935-5.681,5.935-2.842,0-5.091-1.127-11.061-5.811h-.524l2.182,6.092a30.057,30.057,0,0,0,8.062,1.124c7.15,0,11.3-4.339,11.3-10.368,0-5.559-3.249-8.4-7.873-12.148-4.247-3.439-7.151-6.215-7.151-10.213A4.131,4.131,0,0,1,43.135,1.78c1.842,0,3.123.717,6.931,4.714Zm27.515,0h.435V.9H52.473V6.494h.435c6.028-3.808,7.248-4.311,8.652-4.311h.969V33.259c0,2.123-.439,2.843-2.969,4.746v.376H70.929V38c-2.53-1.9-2.968-2.623-2.968-4.746V2.185h.97c1.4,0,2.622.5,8.651,4.311Zm32.578-1h.441V.687A62.722,62.722,0,0,0,101.857,0C88.582,0,80.711,7.4,80.711,19.674c0,12.057,7.526,19.52,20.643,19.52a34.55,34.55,0,0,0,8.9-1.156l.965-5.338h-.433c-4.9,4.153-7.091,5.121-10.65,5.121-9.809,0-13.088-7.4-13.088-18.363C87.05,8.307,90.329,1.5,99.606,1.5c2.964,0,5.062.686,10.555,4Zm-1.265,13.959c0,6.185-.528,10.273-5,10.273-4.5,0-5-4.088-5-10.274s.5-10.275,5-10.275S108.895,13.272,108.895,19.457Zm5.309,0c0-6.53-3.872-11.433-10.3-11.433S93.594,12.963,93.594,19.457c0,6.463,3.872,11.427,10.3,11.427S114.2,25.92,114.2,19.457Zm22.972,18.859,11.118.065V38c-2.5-2.03-2.839-2.622-2.839-4.839V6.122c0-2.217.341-2.811,2.84-4.811V.937l-7.87-.063-8.739,27.682L122.748.905h-7.962V1.28a22.26,22.26,0,0,1,3.089,3.027v26.2c0,3.028-.374,4.248-3.187,7.5v.376h8.9v-.376c-3.75-3.089-4.278-4.339-4.278-7.5V7.2c.061.179.122.348.183.547l10.03,30.95h.435L140.016,6.839V33.134c0,2.218-.342,2.81-2.84,4.81v.372ZM169.359,12.37c0,7.025-1.654,9.96-7.027,9.96H159.24V2.278h2.185c5.935,0,7.935,2.53,7.935,10.091Zm5.807-.252c0-8.433-5.9-11.211-13.9-11.211h-10.3V1.28c2.5,2.03,2.838,2.624,2.838,4.841V33.166c0,2.217-.342,2.809-2.838,4.84v.376h11.242v-.376c-2.531-1.9-2.967-2.623-2.967-4.746V23.7h2.933c7.061,0,12.993-3,12.993-11.586ZM188.883,24.7H178.277L183.5,5.815c.111.322.22.667.33,1.055L188.882,24.7ZM252.162,1.279V.907H243.7v.374c2.279,2.03,2.965,3,2.965,4.466a6.707,6.707,0,0,1-.814,2.842l-4.858,11.36-6.351-14.08a5.342,5.342,0,0,1-.66-2.246c0-1,.565-1.563,2.093-2.343V.906H217.341V1.28C221.525,4.374,222.09,5.589,222.09,9V30.55L206.444.905h-7.779v.374a21.4,21.4,0,0,1,3.374,3.336V30.6c0,2.824-.314,4.053-2.554,7.4-1.726-2.163-2.1-3.2-2.976-6.276L187.673.906h-7.588V1.28a13.674,13.674,0,0,1,2.51,2.622l-7.35,26.454c-1.062,3.841-1.907,5-4.717,7.649v.376h9.059v-.376c-2.593-1.967-3.4-2.966-3.4-4.685a11.377,11.377,0,0,1,.531-2.964l1.174-4.248h11.389L190.86,31.7a12.59,12.59,0,0,1,.686,3.186c0,.967-.4,1.624-2.31,3.122v.376h18.988v-.376c-4.189-3.089-4.748-4.309-4.748-7.4V6.947c.03.063.061.11.091.175L220.09,38.381h3.438V9c0-3.11.309-4.346,2.468-7.7a22.276,22.276,0,0,1,3.461,5.728L236.2,21.933V33.261c0,2.122-.439,2.842-2.967,4.745v.376h11.371v-.376c-2.532-1.9-2.966-2.623-2.966-4.746v-11.5l5.618-13.082c1.19-2.779,2.093-4.089,4.905-7.4Z" transform="translate(0)"/></g></svg>