<svg xmlns="http://www.w3.org/2000/svg" width="136" height="46.667" viewBox="0 0 136 46.667"><defs><style>.a{fill:#502eff;}</style></defs><g transform="translate(-7 199)"><path class="a" d="M7-193.815v5.185h5.657l-.094,12.822-.141,12.869-2.687.141L7-162.656v9.381H38.583v-9.381L35.66-162.8l-2.97-.141v-25.455l2.97-.141,2.923-.141V-199H7Z"/><path class="a" d="M79-171.333v4.714l2.027.141,1.98.141v15.556l-1.98.141L79-150.5v9.381h24.512V-150.5l-2.215-.141-2.263-.141-.141-5.185c-.141-4.2,0-5.468.66-6.741,1.838-3.441,7.259-4.667,9.758-2.168,1.556,1.556,1.838,2.97,1.65,9.145l-.141,4.95-2.357.141-2.357.141v9.381h24.276V-145.6c0-4.667.424-5.468,1.6-3.205,2.64,5.091,10.653,8.626,19.515,8.626,6.882,0,12.539-1.886,15.508-5.138,1.414-1.556,3.441-5.609,3.441-6.976,0-.99-.189-1.037-6.364-1.178l-6.317-.141-.754,1.886a5.3,5.3,0,0,1-5.421,3.535,5.92,5.92,0,0,1-5.751-3.677c-.848-2.451-.8-10.795.094-12.539a6.073,6.073,0,0,1,8.768-2.31c1.178.848,1.65,1.7,2.168,3.771.377,1.508.848,2.734,1.084,2.734,2.027-.094,10.182-.8,11.219-.99,1.273-.283,1.32-.377,1.037-1.98a18.071,18.071,0,0,0-3.771-7.306c-3.158-3.347-8.155-5.138-14.377-5.232-10.182-.141-18.855,4.431-21.5,11.266-.99,2.545-1.226,8.3-.519,11.879l.424,2.027H126.7l-.189-8.155c-.141-8.014-.189-8.249-1.556-10.983a7.143,7.143,0,0,0-4.2-4.148c-2.31-1.178-3.394-1.461-7.071-1.6a21.107,21.107,0,0,0-6.741.519c-2.781.848-6.458,3.158-7.212,4.572-.943,1.744-1.414.943-1.414-2.357V-176H79Z" transform="translate(-38.06 -12.158)"/><path class="a" d="M275.488-124.431a6.649,6.649,0,0,0-3.488,4.9,6.167,6.167,0,0,0,3.865,5.327,5.36,5.36,0,0,0,6.788-7.071A5.6,5.6,0,0,0,275.488-124.431Z" transform="translate(-140.083 -39.216)"/></g></svg>