<svg xmlns="http://www.w3.org/2000/svg" width="261.032" height="48.422" viewBox="0 0 261.032 48.422"><defs><style>.a{fill:#502eff;}</style></defs><g transform="translate(-1000.184 154.288)"><g transform="translate(1000.184 -151.87)"><g transform="translate(0 0)"><path class="a" d="M397.117-1815.772l-4.768,15.045c-1.545,5.1-3.09,11.014-4.3,16.252h-.269c-1.006-5.308-2.35-10.948-3.827-16.119h0l-4.432-15.179H365.888L363-1770.505h9.469l.873-17.194c.268-5.641.537-12.625.739-18.735h.134c1.142,5.975,2.619,12.356,4.1,17.728h0l4.836,17.462h7.992l5.507-17.663c1.746-5.305,3.627-11.753,5.1-17.527h.134c0,6.647.2,13.162.4,18.6h0l.739,17.328h9.94l-2.417-45.266Z" transform="translate(-363.001 1815.772)"/></g></g><g transform="translate(1052.407 -140.184)"><path class="a" d="M565.213-1768.091l1.881,6.513a19.207,19.207,0,0,1,9.066-2.417h0c5.037,0,5.977,2.483,5.977,4.23h0v.4c-11.617,0-19.274,4.029-19.274,12.56h0c0,5.237,3.963,10.072,10.611,10.072h0a11.834,11.834,0,0,0,9.4-4.028h.2l.606,3.29h9.2a42.485,42.485,0,0,1-.538-7.924h0v-11.485c0-7.723-3.425-14.171-14.371-14.171h0a26.95,26.95,0,0,0-12.76,2.956m7.724,20.281c0-3.894,4.162-5.171,9.535-5.171h0v3.559a7.291,7.291,0,0,1-.2,1.746h0a5.641,5.641,0,0,1-5.306,3.761h0c-2.283,0-4.028-1.277-4.028-3.9" transform="translate(-562.863 1771.047)"/></g><g transform="translate(1084.826 -140.184)"><g transform="translate(0)"><path class="a" d="M687.741-1760.234c-.067,3.829,2.552,7.588,9.4,9.8h0c3.76,1.277,4.769,2.082,4.769,3.828h0c0,1.68-1.277,2.687-4.364,2.687h0a19.971,19.971,0,0,1-8.8-2.417h0l-1.813,7.251a23.187,23.187,0,0,0,10.612,2.351h0c9.4,0,14.168-4.5,14.168-10.678h0c-.067-4.769-2.619-7.991-8.864-10.073h0c-4.029-1.411-5.3-2.216-5.3-3.827h0c0-1.613,1.409-2.621,3.894-2.621h0a17.452,17.452,0,0,1,7.119,1.814h0l1.745-6.984a21.571,21.571,0,0,0-9.2-1.949h0c-8.127,0-13.365,4.635-13.365,10.813" transform="translate(-686.935 1771.048)"/></g></g><g transform="translate(1112.544 -154.288)"><g transform="translate(0)"><path class="a" d="M793.014-1825.024v47.684h10.207v-19.477a5.914,5.914,0,0,1,.336-2.216h0a5.4,5.4,0,0,1,5.1-3.627h0c3.829,0,5.3,2.956,5.3,7.254h0v18.066h10.208v-19.141c0-9.937-4.97-14.439-11.484-14.439h0a11.676,11.676,0,0,0-5.3,1.277h0a11,11,0,0,0-4.029,3.424h-.136v-18.8Z" transform="translate(-793.014 1825.024)"/></g></g><g transform="translate(1146.439 -140.184)"><g transform="translate(0)"><path class="a" d="M925.086-1768.091l1.88,6.513a19.213,19.213,0,0,1,9.066-2.417h0c5.038,0,5.978,2.483,5.978,4.23h0v.4c-11.619,0-19.274,4.029-19.274,12.56h0c0,5.237,3.962,10.072,10.61,10.072h0a11.834,11.834,0,0,0,9.4-4.028h.2l.6,3.29h9.2a42.636,42.636,0,0,1-.538-7.924h0v-11.485c0-7.723-3.424-14.171-14.371-14.171h0a26.953,26.953,0,0,0-12.76,2.956m7.724,20.281c0-3.894,4.164-5.171,9.536-5.171h0v3.559a7.322,7.322,0,0,1-.2,1.746h0a5.644,5.644,0,0,1-5.305,3.761h0c-2.284,0-4.029-1.277-4.029-3.9" transform="translate(-922.736 1771.047)"/></g></g><g transform="translate(1179.657 -154.288)"><path class="a" d="M1050.133-1825.024v37.877c0,3.7-.134,7.658-.268,9.807h8.662l.4-4.566h.133c2.284,3.894,6.045,5.3,9.873,5.3h0c7.522,0,14.976-5.911,14.976-17.729h0c.067-10.073-5.643-16.589-13.5-16.589h0c-4.567,0-7.992,1.814-9.939,4.635h-.135v-18.739Zm10.409,35.526a7.43,7.43,0,0,1-.2-1.811h0v-4.836a8.431,8.431,0,0,1,.2-1.88h0a6.325,6.325,0,0,1,5.978-5.037h0c4.768,0,7.052,4.03,7.052,9.133h0c0,5.911-2.686,9.269-7.052,9.269h0a6.251,6.251,0,0,1-5.978-4.837" transform="translate(-1049.864 1825.024)"/></g><g transform="translate(1216.775 -154.288)"><g transform="translate(0)"><path class="a" d="M1191.919-1777.34h10.206v-47.684h-10.206Z" transform="translate(-1191.919 1825.024)"/></g></g><g transform="translate(1229.987 -140.252)"><g transform="translate(0)"><path class="a" d="M1242.483-1753.778c0,10.342,6.381,16.792,17.529,16.792h0a31.05,31.05,0,0,0,11.888-2.082h0l-1.344-6.919a27.009,27.009,0,0,1-9.067,1.411h0c-4.768,0-8.931-2.015-9.266-6.314h0l21.153.069a26.054,26.054,0,0,0,.336-4.1h0c0-8.126-4.028-16.387-14.639-16.387h0c-11.351,0-16.589,9.2-16.589,17.528m16.05-10.744c4.634,0,5.709,4.23,5.709,6.648h-12.087c.267-2.686,2.013-6.648,6.377-6.648" transform="translate(-1242.483 1771.306)"/></g></g></g></svg>