<svg xmlns="http://www.w3.org/2000/svg" width="27.816" height="27.785" viewBox="0 0 27.816 27.785"><defs><style>.a{fill:#fff;}</style></defs><path class="a" d="M1480.186,7452.174a13.892,13.892,0,1,0,13.908,13.894A13.9,13.9,0,0,0,1480.186,7452.174Zm8.825,6.4a11.5,11.5,0,0,1,2.73,6.721,58.287,58.287,0,0,0-7.913.1c-.3-.768-.615-1.521-.952-2.242A14.005,14.005,0,0,0,1489.011,7458.576Zm-8.825-4.083a11.551,11.551,0,0,1,7.394,2.662,14.331,14.331,0,0,1-5.7,4.022,28.485,28.485,0,0,0-4.548-6.319A11.49,11.49,0,0,1,1480.186,7454.493Zm-5.243,1.259a27.9,27.9,0,0,1,4.62,6.266,30.532,30.532,0,0,1-8.814,1.253c-.605,0-1.2-.025-1.79-.057A11.609,11.609,0,0,1,1474.943,7455.752Zm-6.327,9.763c.659.029,1.325.041,2,.033a34.3,34.3,0,0,0,9.967-1.546c.272.571.534,1.156.783,1.76a6.41,6.41,0,0,0-1.036.312,17.3,17.3,0,0,0-8.839,7.634,11.515,11.515,0,0,1-2.9-7.64C1468.6,7465.88,1468.608,7465.7,1468.616,7465.515Zm11.57,12.131a11.53,11.53,0,0,1-7.1-2.443,15.952,15.952,0,0,1,7.766-7.148,6.827,6.827,0,0,1,1.26-.38c.411,1.146.785,2.332,1.107,3.561a41.483,41.483,0,0,1,1.072,5.65A11.509,11.509,0,0,1,1480.186,7477.646Zm6.264-1.847a41.7,41.7,0,0,0-1.08-5.707c-.246-.94-.53-1.852-.831-2.745a49.949,49.949,0,0,1,7.163,0A11.572,11.572,0,0,1,1486.45,7475.8Z" transform="translate(-1466.278 -7452.173)"/></svg>