<svg xmlns="http://www.w3.org/2000/svg" xmlns:xlink="http://www.w3.org/1999/xlink" width="1920" height="1146.866" viewBox="0 0 1920 1146.866"><defs><style>.a,.g,.h{fill:#fff;}.a{stroke:#707070;}.b{clip-path:url(#a);}.c{opacity:0.1;fill:url(#b);}.d{fill:#eef1fc;}.d,.f{opacity:0.5;}.e{fill:#f8fafd;}.g,.h{stroke:#fff;}.h{stroke-width:3px;}.i{stroke:none;}.j{fill:none;}</style><clipPath id="a"><rect class="a" width="1920" height="643" transform="translate(0 8402)"/></clipPath><linearGradient id="b" y1="0.5" x2="1" y2="0.5" gradientUnits="objectBoundingBox"><stop offset="0" stop-color="#4c84ff"/><stop offset="1" stop-color="#783dff"/></linearGradient></defs><g transform="translate(0 -7898.134)"><g class="b"><g transform="translate(-0.495 550)"><path class="c" d="M31.333,5227.963s387.546-211.782,530.132-193.72,312.254,100.308,388.764,61.174,320.114-284.342,483.01-234.5,303.129,130.732,435.887,50.978S2163.644,4657,2163.644,4657v762.233H28Z" transform="translate(-243.149 3214.769)"/><circle class="d" cx="48.753" cy="48.753" r="48.753" transform="translate(86 8242.794)"/><circle class="d" cx="30.235" cy="30.235" r="30.235" transform="translate(145.713 8163.428)"/><circle class="d" cx="30.235" cy="30.235" r="30.235" transform="translate(198.624 8305.531)"/><circle class="d" cx="48.753" cy="48.753" r="48.753" transform="translate(1845.539 7969.971) rotate(-150)"/><path class="e" d="M0,6239Z" transform="translate(6 2305)"/></g></g><g transform="translate(88.505 784)"><g class="f" transform="translate(3487.996 6914.002) rotate(90)"><path class="g" d="M558.423,2192.008l-1.414,1.414,26.569,26.568,1.414-1.415Z"/><path class="h" d="M281.6,2386.448A11.935,11.935,0,0,1,277,2377c.116-6.408,5.932-11.835,12-12a11.663,11.663,0,0,1,7.688,2.786"/><path class="g" d="M222,2511H201l10.5-18,10.5,18m-16.808-2.4h12.62l-6.31-10.821-6.31,10.821"/><path class="g" d="M308.423,2512.008l-1.414,1.415,16.568,16.568,1.414-1.414Z"/><path class="g" d="M266.423,2689.008l-1.414,1.414,56.569,56.568,1.414-1.414Z"/><path class="g" d="M373.258,2917.394l-17.234,11.99-1.664-20.772,18.9,8.782m-15.167,7.631,10.36-7.208-11.36-5.279,1,12.487"/><path class="g" d="M603.423,2912.008l-1.414,1.414,16.568,16.569,1.414-1.415Z"/><path class="g" d="M748.423,2882.008l-1.414,1.415,36.569,36.568,1.414-1.414Z"/><g class="h" transform="translate(707 2635)"><circle class="i" cx="12" cy="12" r="12"/><circle class="j" cx="12" cy="12" r="10.5"/></g><path class="g" d="M672.687,2469l-.683.682,27.309,27.309.683-.683Z"/></g></g></g></svg>