<svg xmlns="http://www.w3.org/2000/svg" width="23.841" height="23.839" viewBox="0 0 23.841 23.839"><defs><style>.a{fill:#fff;}</style></defs><path class="a" d="M18.728,23.838V15.233c0-2.163-.74-3.636-2.59-3.636a2.81,2.81,0,0,0-2.618,1.955,3.752,3.752,0,0,0-.169,1.3v8.984H8.242s.066-14.577,0-16.085h5.11v2.278a5.041,5.041,0,0,1,4.605-2.657c3.361,0,5.884,2.3,5.884,7.241v9.223ZM.3,23.838V7.754H5.411V23.838ZM2.822,5.561A2.7,2.7,0,0,1,0,2.782,2.722,2.722,0,0,1,2.891,0,2.711,2.711,0,0,1,5.747,2.782a2.72,2.72,0,0,1-2.89,2.779Z"/></svg>