<svg xmlns="http://www.w3.org/2000/svg" width="165.066" height="37" viewBox="0 0 165.066 37"><defs><style>.a{fill:#fafafa;font-size:28px;font-family:SegoeUI-Bold, Segoe UI;font-weight:700;}.b{fill:#fff;}.c{fill:#000964;}</style></defs><g transform="translate(-251 -85)"><text class="a" transform="translate(251 115)"><tspan x="0" y="0">Dominate</tspan></text><g transform="translate(28.214 14.5)"><circle class="b" cx="9.286" cy="9.286" r="9.286" transform="translate(369.28 81.457)"/><path class="c" d="M9.313-8.5,6.508-4.383,9.3,0H6.275L5.047-2.291Q4.9-2.565,4.69-3.063H4.657a5.39,5.39,0,0,1-.34.747L3.08,0H.066L2.938-4.233.241-8.5H3.279L4.491-6.118a5.225,5.225,0,0,1,.34.8h.033a5.616,5.616,0,0,1,.357-.813L6.458-8.5Z" transform="translate(373.214 95.5)"/></g></g></svg>