<svg xmlns="http://www.w3.org/2000/svg" width="27.815" height="21.864" viewBox="0 0 27.815 21.864"><defs><style>.a{fill:#fff;}</style></defs><path class="a" d="M1446.569,7457.343a11.807,11.807,0,0,1-3.278.868,5.569,5.569,0,0,0,2.51-3.056,11.6,11.6,0,0,1-3.624,1.342,5.785,5.785,0,0,0-4.165-1.744,5.617,5.617,0,0,0-5.707,5.521,5.375,5.375,0,0,0,.148,1.259,16.4,16.4,0,0,1-11.762-5.769,5.363,5.363,0,0,0-.773,2.776,5.472,5.472,0,0,0,2.539,4.593,5.842,5.842,0,0,1-2.585-.689c0,.022,0,.046,0,.068a5.568,5.568,0,0,0,4.578,5.41,5.82,5.82,0,0,1-1.5.2,5.635,5.635,0,0,1-1.073-.1,5.688,5.688,0,0,0,5.331,3.833,11.843,11.843,0,0,1-8.448,2.286,16.539,16.539,0,0,0,8.748,2.48,15.849,15.849,0,0,0,16.236-15.7q0-.362-.016-.715A11.422,11.422,0,0,0,1446.569,7457.343Z" transform="translate(-1418.754 -7454.753)"/></svg>