<svg xmlns="http://www.w3.org/2000/svg" width="102" height="100" viewBox="0 0 102 100">
  <g id="Group_9261" data-name="Group 9261" transform="translate(-2821 1954)">
    <ellipse id="Ellipse_2413" data-name="Ellipse 2413" cx="51" cy="50" rx="51" ry="50" transform="translate(2821 -1954)" fill="#dce0ec"/>
    <g id="Group_8754" data-name="Group 8754" transform="translate(2829.743 -1940.937)">
      <g id="Group_8737" data-name="Group 8737" transform="translate(0.608 0.706)">
        <g id="Group_8733" data-name="Group 8733" transform="translate(0 0)">
          <path id="Path_44473" data-name="Path 44473" d="M1514.287,1788.566a.386.386,0,1,0-.386.386A.386.386,0,0,0,1514.287,1788.566Z" transform="translate(-1455.721 -1729.172)" fill="#302558"/>
          <path id="Path_44474" data-name="Path 44474" d="M1982.033,1632.29a.386.386,0,1,0-.386.386A.386.386,0,0,0,1982.033,1632.29Z" transform="translate(-1896.381 -1581.946)" fill="#302558"/>
          <path id="Path_44475" data-name="Path 44475" d="M1894.532,1318.616a.386.386,0,1,0-.386.386A.386.386,0,0,0,1894.532,1318.616Z" transform="translate(-1813.947 -1286.435)" fill="#302558"/>
          <path id="Path_44476" data-name="Path 44476" d="M1466.05,1284.146a.386.386,0,1,0-.386.386A.386.386,0,0,0,1466.05,1284.146Z" transform="translate(-1410.277 -1253.962)" fill="#302558"/>
          <path id="Path_44477" data-name="Path 44477" d="M1812.2,991.485a.386.386,0,1,0-.386.386A.386.386,0,0,0,1812.2,991.485Z" transform="translate(-1736.385 -978.248)" fill="#302558"/>
          <path id="Path_44478" data-name="Path 44478" d="M1160.323,870.27a.386.386,0,1,0-.386.386A.386.386,0,0,0,1160.323,870.27Z" transform="translate(-1122.254 -864.052)" fill="#302558"/>
          <path id="Path_44479" data-name="Path 44479" d="M1852.389,1404.614a.084.084,0,1,0-.084.084A.084.084,0,0,0,1852.389,1404.614Z" transform="translate(-1774.813 -1367.738)" fill="#302558"/>
          <path id="Path_44480" data-name="Path 44480" d="M1678.4,1691.2a.084.084,0,1,0-.084.084A.084.084,0,0,0,1678.4,1691.2Z" transform="translate(-1610.896 -1637.724)" fill="#302558"/>
          <path id="Path_44481" data-name="Path 44481" d="M1905.8,1825.651a.084.084,0,1,0-.084.084A.084.084,0,0,0,1905.8,1825.651Z" transform="translate(-1825.133 -1764.395)" fill="#302558"/>
          <path id="Path_44482" data-name="Path 44482" d="M1340.125,1157.345a.084.084,0,1,0-.084.084A.084.084,0,0,0,1340.125,1157.345Z" transform="translate(-1292.212 -1134.788)" fill="#302558"/>
          <path id="Path_44483" data-name="Path 44483" d="M1958.175,983.06a.084.084,0,1,0-.084.084A.084.084,0,0,0,1958.175,983.06Z" transform="translate(-1874.473 -970.595)" fill="#302558"/>
          <path id="Path_44484" data-name="Path 44484" d="M1698.953,897.087a.084.084,0,1,0-.084.084A.084.084,0,0,0,1698.953,897.087Z" transform="translate(-1630.262 -889.6)" fill="#302558"/>
          <path id="Path_44485" data-name="Path 44485" d="M1211.394,1295.717a.084.084,0,1,0-.084.084A.084.084,0,0,0,1211.394,1295.717Z" transform="translate(-1170.935 -1265.147)" fill="#302558"/>
          <path id="Path_44486" data-name="Path 44486" d="M1182.348,1027.336a.084.084,0,1,0-.084.084A.085.085,0,0,0,1182.348,1027.336Z" transform="translate(-1143.571 -1012.307)" fill="#302558"/>
          <path id="Path_44487" data-name="Path 44487" d="M1531.992,1189.235a.084.084,0,1,0-.084.085A.084.084,0,0,0,1531.992,1189.235Z" transform="translate(-1472.969 -1164.831)" fill="#302558"/>
          <path id="Path_44488" data-name="Path 44488" d="M1796.907,1100.049a.084.084,0,1,0-.084.084A.084.084,0,0,0,1796.907,1100.049Z" transform="translate(-1722.543 -1080.809)" fill="#302558"/>
          <path id="Path_44489" data-name="Path 44489" d="M1338.667,943.584a.084.084,0,1,0-.084.084A.084.084,0,0,0,1338.667,943.584Z" transform="translate(-1290.839 -933.405)" fill="#302558"/>
          <path id="Path_44490" data-name="Path 44490" d="M911.673,1135.674a.084.084,0,1,0-.084.084A.084.084,0,0,0,911.673,1135.674Z" transform="translate(-888.57 -1114.372)" fill="#302558"/>
          <path id="Path_44491" data-name="Path 44491" d="M1057.549,1086.983a.084.084,0,1,0-.084.085A.084.084,0,0,0,1057.549,1086.983Z" transform="translate(-1025.999 -1068.5)" fill="#302558"/>
          <path id="Path_44492" data-name="Path 44492" d="M599.446,832.8a.084.084,0,1,0-.084.084A.085.085,0,0,0,599.446,832.8Z" transform="translate(-594.423 -829.038)" fill="#302558"/>
          <path id="Path_44493" data-name="Path 44493" d="M726.525,822.276a.084.084,0,1,0-.084.084A.084.084,0,0,0,726.525,822.276Z" transform="translate(-714.143 -819.121)" fill="#302558"/>
          <path id="Path_44494" data-name="Path 44494" d="M830.531,1211.26a.084.084,0,1,0-.084.084A.084.084,0,0,0,830.531,1211.26Z" transform="translate(-812.127 -1185.581)" fill="#302558"/>
          <path id="Path_44495" data-name="Path 44495" d="M1780.009,1349.035a.193.193,0,1,0-.193.193A.193.193,0,0,0,1780.009,1349.035Z" transform="translate(-1706.419 -1315.275)" fill="#302558"/>
          <path id="Path_44496" data-name="Path 44496" d="M1530.334,1420.2a.193.193,0,1,0-.193.193A.193.193,0,0,0,1530.334,1420.2Z" transform="translate(-1471.202 -1382.322)" fill="#302558"/>
          <path id="Path_44497" data-name="Path 44497" d="M1881.818,1548.4a.193.193,0,1,0-.193.193A.193.193,0,0,0,1881.818,1548.4Z" transform="translate(-1802.333 -1503.099)" fill="#302558"/>
          <path id="Path_44498" data-name="Path 44498" d="M1953.184,1144.864a.193.193,0,1,0-.193.193A.193.193,0,0,0,1953.184,1144.864Z" transform="translate(-1869.566 -1122.927)" fill="#302558"/>
          <path id="Path_44499" data-name="Path 44499" d="M1554.241,984.627a.193.193,0,1,0-.193.193A.193.193,0,0,0,1554.241,984.627Z" transform="translate(-1493.725 -971.969)" fill="#302558"/>
          <path id="Path_44500" data-name="Path 44500" d="M1365.937,1050.235a.193.193,0,1,0-.193.193A.193.193,0,0,0,1365.937,1050.235Z" transform="translate(-1316.325 -1033.777)" fill="#302558"/>
          <path id="Path_44501" data-name="Path 44501" d="M1907.476,850.5a.193.193,0,1,0-.193.193A.193.193,0,0,0,1907.476,850.5Z" transform="translate(-1826.505 -845.613)" fill="#302558"/>
          <path id="Path_44502" data-name="Path 44502" d="M1185.263,1141.841a.193.193,0,1,0-.193.193A.193.193,0,0,0,1185.263,1141.841Z" transform="translate(-1146.113 -1120.079)" fill="#302558"/>
          <path id="Path_44503" data-name="Path 44503" d="M1167.082,1509.121a.386.386,0,1,0-.386.386A.386.386,0,0,0,1167.082,1509.121Z" transform="translate(-1128.621 -1465.909)" fill="#302558"/>
          <circle id="Ellipse_3735" data-name="Ellipse 3735" cx="0.386" cy="0.386" r="0.386" transform="translate(10.284 23.803) rotate(-45)" fill="#302558"/>
          <path id="Path_44504" data-name="Path 44504" d="M998,1697.694a.386.386,0,1,0-.386.386A.386.386,0,0,0,998,1697.694Z" transform="translate(-969.333 -1643.563)" fill="#302558"/>
          <path id="Path_44505" data-name="Path 44505" d="M1124.939,1595.121a.084.084,0,1,0-.084.084A.084.084,0,0,0,1124.939,1595.121Z" transform="translate(-1089.487 -1547.213)" fill="#302558"/>
          <path id="Path_44506" data-name="Path 44506" d="M947.5,1649.369a.084.084,0,1,0-.084.084A.084.084,0,0,0,947.5,1649.369Z" transform="translate(-922.319 -1598.319)" fill="#302558"/>
          <path id="Path_44507" data-name="Path 44507" d="M1266.758,1797.792a.084.084,0,1,0-.084.084A.084.084,0,0,0,1266.758,1797.792Z" transform="translate(-1223.093 -1738.149)" fill="#302558"/>
          <path id="Path_44508" data-name="Path 44508" d="M1351.25,1981.445a.084.084,0,1,0-.084.084A.084.084,0,0,0,1351.25,1981.445Z" transform="translate(-1302.693 -1911.167)" fill="#302558"/>
          <path id="Path_44509" data-name="Path 44509" d="M1645.881,1838.393a.084.084,0,1,0-.084.084A.085.085,0,0,0,1645.881,1838.393Z" transform="translate(-1580.263 -1776.399)" fill="#302558"/>
          <path id="Path_44510" data-name="Path 44510" d="M1135.55,1827.108a.084.084,0,1,0-.084.084A.084.084,0,0,0,1135.55,1827.108Z" transform="translate(-1099.483 -1765.767)" fill="#302558"/>
          <path id="Path_44511" data-name="Path 44511" d="M1668.389,1982.9a.084.084,0,1,0-.084.084A.085.085,0,0,0,1668.389,1982.9Z" transform="translate(-1601.467 -1912.541)" fill="#302558"/>
          <path id="Path_44512" data-name="Path 44512" d="M1553.213,1913.758a.084.084,0,1,0-.084.084A.084.084,0,0,0,1553.213,1913.758Z" transform="translate(-1492.961 -1847.4)" fill="#302558"/>
          <path id="Path_44513" data-name="Path 44513" d="M1817.517,1984.361a.084.084,0,1,0-.084.084A.084.084,0,0,0,1817.517,1984.361Z" transform="translate(-1741.96 -1913.914)" fill="#302558"/>
          <path id="Path_44514" data-name="Path 44514" d="M1052.559,1539.54a.193.193,0,1,0-.193.193A.193.193,0,0,0,1052.559,1539.54Z" transform="translate(-1021.094 -1494.749)" fill="#302558"/>
          <path id="Path_44515" data-name="Path 44515" d="M1123.281,1716.557a.193.193,0,1,0-.193.193A.193.193,0,0,0,1123.281,1716.557Z" transform="translate(-1087.72 -1661.515)" fill="#302558"/>
          <path id="Path_44516" data-name="Path 44516" d="M1328.5,1897.83a.193.193,0,1,0-.193.193A.193.193,0,0,0,1328.5,1897.83Z" transform="translate(-1281.054 -1832.291)" fill="#302558"/>
          <path id="Path_44517" data-name="Path 44517" d="M919.646,1204.7a.193.193,0,1,0-.193.193A.193.193,0,0,0,919.646,1204.7Z" transform="translate(-895.877 -1179.302)" fill="#302558"/>
          <path id="Path_44518" data-name="Path 44518" d="M515.841,769.36a.193.193,0,1,0-.193.193A.193.193,0,0,0,515.841,769.36Z" transform="translate(-515.455 -769.167)" fill="#302558"/>
          <path id="Path_44519" data-name="Path 44519" d="M866.344,965.923a.193.193,0,1,0-.193.193A.193.193,0,0,0,866.344,965.923Z" transform="translate(-845.662 -954.348)" fill="#302558"/>
          <path id="Path_44520" data-name="Path 44520" d="M1878.485,1730.185a.193.193,0,1,0-.193.193A.193.193,0,0,0,1878.485,1730.185Z" transform="translate(-1799.193 -1674.354)" fill="#302558"/>
          <path id="Path_44521" data-name="Path 44521" d="M1561.312,1993.63a.193.193,0,1,0-.193.193A.193.193,0,0,0,1561.312,1993.63Z" transform="translate(-1500.386 -1922.544)" fill="#302558"/>
          <path id="Path_44522" data-name="Path 44522" d="M1967.472,2000.294a.193.193,0,1,0-.193.193A.193.193,0,0,0,1967.472,2000.294Z" transform="translate(-1883.027 -1928.822)" fill="#302558"/>
          <path id="Path_44523" data-name="Path 44523" d="M1568.183,1713.225a.193.193,0,1,0-.193.193A.193.193,0,0,0,1568.183,1713.225Z" transform="translate(-1506.859 -1658.376)" fill="#302558"/>
        </g>
        <g id="Group_8735" data-name="Group 8735" transform="translate(14.961 9.326)">
          <path id="Path_44524" data-name="Path 44524" d="M1755.271,997.263c-3.228,1.876-6.658,7.727-2.054,10.223a5.876,5.876,0,0,0,4.688.413c1.24-.424,2.743-1.426,2.022-3.215-1.327-3.291-9.9.695-7.533,7.49,1.7,4.875,9.241,2.851,9.241,2.851" transform="translate(-1750.982 -989.381)" fill="none" stroke="#302558" stroke-miterlimit="10" stroke-width="1"/>
          <g id="Group_8734" data-name="Group 8734" transform="translate(1.879 0)">
            <path id="Path_44525" data-name="Path 44525" d="M1708.705,863.4c.019-.045-2.35,1.423-2.35,1.423l.615,3.991,1.162-2.985,3.061-.584,4.362-4.1Z" transform="translate(-1704.198 -861.14)" fill="#918aa9"/>
            <path id="Path_44526" data-name="Path 44526" d="M1714.941,861.14l-8.585,7.672,1.162-2.985Z" transform="translate(-1703.582 -861.14)" fill="#7e779a"/>
            <path id="Path_44527" data-name="Path 44527" d="M1717.714,861.14l-11.358,2.412,2.157,1.269,9.2-3.681-7.423,4.686,3.669,2.265Z" transform="translate(-1706.355 -861.14)" fill="#a39eb7"/>
          </g>
        </g>
        <g id="Group_8736" data-name="Group 8736" transform="translate(12.601 6.743)">
          <path id="Path_44528" data-name="Path 44528" d="M734.371,885.759l-.024.214-1.286-.144.024-.214Zm2.571.287-.024.214-1.286-.144.024-.214Zm2.571.287-.024.214L738.2,886.4l.024-.214Zm2.571.287-.024.214-1.286-.144.024-.214Zm2.571.287-.024.214-1.286-.144.024-.214Zm2.571.287-.024.215-1.286-.144.024-.214Z" transform="translate(-733.061 -885.615)" fill="#7e779a"/>
          <path id="Path_44529" data-name="Path 44529" d="M964.426,900.3l-.158.147.634.681-.768.518.121.179.977-.659Z" transform="translate(-950.754 -899.449)" fill="#7e779a"/>
        </g>
      </g>
      <g id="Group_8753" data-name="Group 8753" transform="translate(0.403 -2.361)">
        <g id="Group_8750" data-name="Group 8750" transform="translate(7.707 22.09)">
          <g id="Group_8738" data-name="Group 8738">
            <rect id="Rectangle_3830" data-name="Rectangle 3830" width="70.789" height="44.237" rx="2" fill="#6c3b75"/>
            <rect id="Rectangle_3831" data-name="Rectangle 3831" width="63.745" height="33.447" rx="2" transform="translate(3.522 3.841)" fill="#fde8ac"/>
            <rect id="Rectangle_3832" data-name="Rectangle 3832" width="12.378" height="5.766" transform="translate(29.206 44.237)" fill="#906498"/>
            <rect id="Rectangle_3833" data-name="Rectangle 3833" width="2.743" height="5.766" transform="translate(29.206 44.237)" fill="#572f5e"/>
            <path id="Path_44530" data-name="Path 44530" d="M1068.139,1962.43a.6.6,0,0,1-.612.575h-23.413a.6.6,0,0,1-.612-.575v-2.882a.6.6,0,0,1,.612-.575h23.413a.6.6,0,0,1,.612.575v2.882Z" transform="translate(-1020.426 -1909.1)" fill="#6c3b75"/>
            <path id="Path_44531" data-name="Path 44531" d="M1046.248,1962.43v-2.882a.6.6,0,0,1,.613-.575h-2.743a.6.6,0,0,0-.613.575v2.882a.6.6,0,0,0,.613.575h2.743A.6.6,0,0,1,1046.248,1962.43Z" transform="translate(-1020.429 -1909.1)" fill="#572f5e"/>
            <ellipse id="Ellipse_3736" data-name="Ellipse 3736" cx="2.166" cy="2.033" rx="2.166" ry="2.033" transform="translate(33.228 38.78)" fill="#906498"/>
          </g>
          <g id="Group_8747" data-name="Group 8747" transform="translate(10.485 6.999)">
            <g id="Group_8746" data-name="Group 8746">
              <g id="Group_8739" data-name="Group 8739" transform="translate(0 2.88)">
                <path id="Path_44532" data-name="Path 44532" d="M843.034,1283.32a13.818,13.818,0,0,1-1.171-1.126c-.218-.288-.637-.364-.856-.479s-1.677-.594-2.026-.345-.821.4-1.005,0-.272-.46-.528-.517-.128-.361-.145-.629-.166-.556-.348-.364-.8.69-.893.438-.531-1.279.128-1.473a1.568,1.568,0,0,1,1.369.1c.164.17.29.651.493.593s.091-.424.164-.726.55-.707.766-1.127.255-.671.528-.786a2.89,2.89,0,0,0,.677-.459c.257-.192.656-.362.805-.46a2.318,2.318,0,0,1,1.02-.364c.219.058.364-.019.183-.344a11.509,11.509,0,0,0-.766-1.739,2.8,2.8,0,0,1-.548-.974c-.164-.424-.348-.786-.476-.5s-.4.67-.547.306-.128-.347-.31-.517a1.23,1.23,0,0,0-.583-.288c-.255-.077-.51.021-.493.268s-.239.692-.072,1.018.31.67.09.785,0,.8-.217.783-.328.02-.328-.23.109-.629-.295-.629a1.5,1.5,0,0,1-.93-.422c-.293-.209-.529-.1-.457-.572s-.035-.651.291-.918.4-.422.64-.306.4.115.55-.019.418-.079.418-.249-.31-.172-.273-.457.183-.135.236-.615-.347-1.205-.748-1.109-1.021.651-1.149.4-.385-.134-.878.039a6.281,6.281,0,0,1-2.682-.345s-.348-.247-.531-.113a2.527,2.527,0,0,1-1.131.039c-.221-.039-.421.247-.692.153a10.836,10.836,0,0,1-1.461-.441c-.222-.154-.552-.154-.693-.23s-.677-.115-.785.038-.512.419-.714.611-.435.154-.236.556-.51.651-.329,1.089-.036,1.625.693,1.854,1.333.364,1.752.022,1.06-.347,1.26.036.31.956.966,1.281a2.372,2.372,0,0,1,1.187,1.681,4.2,4.2,0,0,0,.692,2.62c.677.8,1.371,2.26,1.423,1.913s.055-.69.2-.44.528,1.015,1.149,1.149.933.172,1.167.4a2.3,2.3,0,0,0,.693.479,2.989,2.989,0,0,1,1,.689,1.072,1.072,0,0,1-.055.881,1.192,1.192,0,0,0-.091,1.015,5.844,5.844,0,0,0,.879,1.472,1.071,1.071,0,0,1,.545,1.034,28.6,28.6,0,0,0-.383,2.984c.038.457-.418,1.968-.054,2.581a1.327,1.327,0,0,0,1.26.725c.273-.074.055-.1-.074-.381a1.076,1.076,0,0,1,.036-.918.833.833,0,0,0,.074-.726.7.7,0,0,1,.145-.707c.184-.23.95-.841,1.188-1.109s1.735-2.105,1.935-2.258a2.1,2.1,0,0,0,.8-1.089c.147-.572.674-1.7.31-1.99A7.515,7.515,0,0,0,843.034,1283.32Z" transform="translate(-826.066 -1268.299)" fill="#fbd66a"/>
              </g>
              <g id="Group_8740" data-name="Group 8740" transform="translate(15.326 0.77)">
                <path id="Path_44533" data-name="Path 44533" d="M1096.026,1232.849c.1-.2.356-.712.492-.991h-5.783a9.037,9.037,0,0,1,.273,1.91c-.055.536.11.345.255.556a.9.9,0,0,1,.019.783,2.036,2.036,0,0,0,.148,1.456c.29.649.636,1.472.928,1.511s.22.458.422.3.235-.495.4-.994.164-.86.584-1.109a13.39,13.39,0,0,0,1.842-1.339c.257-.288.548-.4.457-.9A2.033,2.033,0,0,1,1096.026,1232.849Z" transform="translate(-1090.735 -1231.858)" fill="#fbd66a"/>
              </g>
              <g id="Group_8741" data-name="Group 8741" transform="translate(20.973)">
                <path id="Path_44534" data-name="Path 44534" d="M1216.37,1222.585c-.219-.153-1.531-1.2-2.1-1.07a3.373,3.373,0,0,1-1.733-.4,8.64,8.64,0,0,0-2.225-.536,11.724,11.724,0,0,1-2.464-.611c-.622-.27-1.149-1.588-2.335-1.377a5.993,5.993,0,0,0-1.952.556c-.362.326-.529.706-.729.783s-.785.038-.785.326.2,1.168-.035.994-.476-.573-.583-.266-.3.478-.4.362a.678.678,0,0,0-.729.191,2.383,2.383,0,0,1-1.094.69,1.808,1.808,0,0,0-.6.287c-.164.076-1.407.651-1.642.44s-.31-.076-.457-.038a1.288,1.288,0,0,1-.711-.421c-.276-.344-.329-.23-.64-.555s-.383-.649-.692-.515a14.775,14.775,0,0,0-2.135,2.1c-.509.613-1.423,1.243-.967,1.681s.693.383.75.63a2.293,2.293,0,0,0,.183.613c.073.1.509.44.729-.019s.255-.785.511-.707.309.249.179.592-.217.881-.655.86-.911-.287-1.059-.229-.233.191-.4.325-.676.763-1.023.86-.764.017-.528.3.583.919.255.9-.876-.075-.912.249-.181.517-.109.745.31.671.6.517.86-.3,1.005-.651.312-.725.676-.706,1.242.5,1.185.67-.235.573-.017.44.4-.288.528-.345.3.192.348.288.421.287.492-.022.146-.074.364.022.876.17.964.247a.4.4,0,0,1,.038.613.687.687,0,0,1-.967.192c-.421-.23-.878.192-1.347-.039s-.257-.553-.823-.783a4.8,4.8,0,0,0-2.245.172c-.4.113-.419.153-.583.344s-1.24,1.434-1.24,2.141.4,2.622,1.7,2.43,2.082-.079,1.937.3-.073.48.164.918a34.375,34.375,0,0,1,.876,3.843c.094.479-.071,1.089.531.994a1.789,1.789,0,0,0,1.5-.8c.257-.556.3-1.185.624-1.51s.729-.326.764-.785-.092-1.549.128-1.8a8.165,8.165,0,0,0,1.349-1.855c.11-.458.255-.573-.164-.573s-1.131-.055-1.335-.438a8.5,8.5,0,0,1-.676-1.276c0-.17.293-.153.436.209s.656,1.456,1.24,1.223,1.407-.5,1.424-.86-.255-.783-.548-.763-.6-.192-.6-.4.054-.132.4,0,.455.363.986.4a3.139,3.139,0,0,1,1.421.785,13.653,13.653,0,0,1,.931,1.951c.126.155.277.155.4-.153a6.434,6.434,0,0,1,.986-1.551c.309-.268.328-.63.507-.4s.968.8,1.023,1.147-.036,1.09.128.86.293-.706.435-.495.148.536.493.287.95-.344.623-.879-.109-.86.095-.881,1.569-.268,1.605-1.015-.476-1.147-.233-1.53.581-.726.656-.5-.183.975.145.86.712-.114.712-.345-.074-.805.074-.957a8.052,8.052,0,0,0,1.349-1.566c.128-.4.365-.747.164-1.051s-.547-.213-.274-.592a1.811,1.811,0,0,1,1.078-.766c1.108-.1.8,1.273.815,1.579s.02,1.072.183.688a3.634,3.634,0,0,1,.684-1.177c.329-.323.511-.536.531-.821s.033-.383.347-.536,1.678-.69,1.806-1.051-.164-.69.164-.668.638.38.8.189.529-.534.511-.726S1216.592,1222.738,1216.37,1222.585Z" transform="translate(-1188.256 -1218.566)" fill="#fbd66a"/>
              </g>
              <g id="Group_8742" data-name="Group 8742" transform="translate(41.502 10.03)">
                <path id="Path_44535" data-name="Path 44535" d="M1544.458,1392.183a4.738,4.738,0,0,0-.328.807,2.741,2.741,0,0,1-.277.7c-.164.326-.435.362-.709.575a1.133,1.133,0,0,0-.35.63c-.236.325.968-.46,1.387-.707s.312-.536.348-.937a.755.755,0,0,1,.328-.632c.181-.172.036-.517-.05-.764S1544.566,1391.938,1544.458,1392.183Z" transform="translate(-1542.764 -1391.771)" fill="#fbd66a"/>
              </g>
              <g id="Group_8743" data-name="Group 8743" transform="translate(36.594 16.985)">
                <path id="Path_44536" data-name="Path 44536" d="M1460.866,1514.03c.128-.1.035-.306.235-.27s.383.156.624.022.436-.079.4-.307,0-.534-.053-.725-.383-.25-.621-.038-.564.537-.564.421.143-.421.071-.611.036-.363-.328-.211-.566.115-.693.326-.274.574-.491.345a10.263,10.263,0,0,0-.859-.706c-.052-.058-.781-.652-.526-.249s.638,1.09.821,1.338.381.537.6.4.255-.172.548,0S1460.739,1514.125,1460.866,1514.03Z" transform="translate(-1458.006 -1511.887)" fill="#fbd66a"/>
              </g>
              <g id="Group_8744" data-name="Group 8744" transform="translate(41.834 18.015)">
                <path id="Path_44537" data-name="Path 44537" d="M1550.6,1530.253c-.35-.153-.2-.287-.624-.361a8.692,8.692,0,0,1-.878-.075c-.11-.077-.656-.268-.583,0s.565.343.693.419-.183.251.052.383.4.383.712.306.421.1.673.134.512-.038.406-.156a.517.517,0,0,1-.164-.4C1550.907,1530.368,1550.945,1530.407,1550.6,1530.253Z" transform="translate(-1548.509 -1529.678)" fill="#fbd66a"/>
              </g>
              <g id="Group_8745" data-name="Group 8745" transform="translate(39.176 19.457)">
                <path id="Path_44538" data-name="Path 44538" d="M1507.177,1555.41c-.128-.383-.438-1.087-.509-.745a.894.894,0,0,1-.751.572c-.167-.019-.073-.191-.073-.347s-.1-.3-.512-.189-.509.515-.622.479a.531.531,0,0,0-.581.1c-.183.211-.35.613-.566.69s-.952.17-.952.479.184.764.165,1.013-.351.821.091,1a.768.768,0,0,0,.733-.038,4.23,4.23,0,0,1,1.716-.422c.164.134.428.448.547.515.232.139.295.458.605.536a3.229,3.229,0,0,0,.673.113.951.951,0,0,0,.693-.421c.11-.269.31-.9.4-1.205a.837.837,0,0,0-.091-.919A4.3,4.3,0,0,1,1507.177,1555.41Z" transform="translate(-1502.611 -1554.573)" fill="#fbd66a"/>
              </g>
            </g>
          </g>
          <g id="Group_8749" data-name="Group 8749" transform="translate(3.67 26.581)">
            <path id="Path_44539" data-name="Path 44539" d="M770.388,1361.312H709.794a1.329,1.329,0,0,1-1.415-1.223v-7.454a1.329,1.329,0,0,1,1.415-1.223h60.594a1.329,1.329,0,0,1,1.415,1.223v7.454A1.329,1.329,0,0,1,770.388,1361.312Z" transform="translate(-708.379 -1351.302)" fill="#e07372"/>
            <g id="Group_8748" data-name="Group 8748" transform="translate(6.176 2.242)">
              <path id="Path_44540" data-name="Path 44540" d="M815.924,1394.384c0,.118-.206.243-.446.243-.261,0-.439-.125-.439-.243V1390.4c0-.143.179-.238.439-.238.24,0,.446.095.446.238v1.822a.965.965,0,0,1,.865-.451,1.211,1.211,0,0,1,1.181,1.2v1.406c0,.16-.226.243-.446.243s-.439-.083-.439-.243v-1.406a.593.593,0,0,0-.6-.534.543.543,0,0,0-.563.534Z" transform="translate(-815.039 -1390.053)" fill="#302558"/>
              <path id="Path_44541" data-name="Path 44541" d="M884.932,1399.941c0,.231.1.314.385.314h.268a.327.327,0,1,1,0,.647h-.268c-.824,0-1.27-.291-1.27-.961v-2.878c0-.142.234-.238.439-.238.227,0,.446.1.446.238v1.021h.81a.254.254,0,0,1,.226.279.251.251,0,0,1-.226.279h-.81Z" transform="translate(-880.05 -1396.327)" fill="#302558"/>
              <path id="Path_44542" data-name="Path 44542" d="M933.189,1399.941c0,.231.1.314.385.314h.268a.327.327,0,1,1,0,.647h-.268c-.824,0-1.27-.291-1.27-.961v-2.878c0-.142.233-.238.439-.238.226,0,.446.1.446.238v1.021H934a.254.254,0,0,1,.226.279.251.251,0,0,1-.226.279h-.81Z" transform="translate(-925.514 -1396.327)" fill="#302558"/>
              <path id="Path_44543" data-name="Path 44543" d="M981.626,1418.211v.178a1.119,1.119,0,0,1,.927-.451,1.216,1.216,0,0,1,1.228,1.2v.486a1.251,1.251,0,0,1-1.2,1.217,1.049,1.049,0,0,1-.9-.469v1.484c0,.125-.206.243-.453.243s-.433-.118-.433-.243v-3.65c0-.142.185-.237.419-.237S981.626,1418.068,981.626,1418.211Zm1.27.931a.606.606,0,0,0-.625-.534.563.563,0,0,0-.59.534v.594a.642.642,0,0,0,.6.439.612.612,0,0,0,.611-.547Z" transform="translate(-971.197 -1416.217)" fill="#302558"/>
              <path id="Path_44544" data-name="Path 44544" d="M1047.848,1420.009c0-.522-1.627-.2-1.627-1.187,0-.421.309-.884,1.228-.884.556,0,1.092.166,1.092.385,0,.107-.117.368-.323.368a4.066,4.066,0,0,0-.755-.172c-.344,0-.48.148-.48.267,0,.433,1.648.136,1.648,1.193,0,.528-.453.866-1.264.866-.7,0-1.243-.249-1.243-.51,0-.125.124-.338.3-.338.2,0,.35.267.927.267C1047.752,1420.264,1047.848,1420.127,1047.848,1420.009Z" transform="translate(-1032.744 -1416.217)" fill="#302558"/>
              <path id="Path_44545" data-name="Path 44545" d="M1105.739,1424.387a.446.446,0,0,1-.46.4.407.407,0,1,1,.46-.4Zm0,1.733a.446.446,0,0,1-.46.4.407.407,0,1,1,.46-.4Z" transform="translate(-1088.032 -1421.912)" fill="#302558"/>
              <path id="Path_44546" data-name="Path 44546" d="M1138.259,1388.489a.2.2,0,0,1-.028.107l-2.464,4.309a.31.31,0,0,1-.268.13.3.3,0,0,1-.329-.261.183.183,0,0,1,.034-.1l2.465-4.326a.276.276,0,0,1,.247-.125C1138.081,1388.222,1138.259,1388.329,1138.259,1388.489Z" transform="translate(-1116.632 -1388.222)" fill="#302558"/>
              <path id="Path_44547" data-name="Path 44547" d="M1174.066,1388.489a.209.209,0,0,1-.027.107l-2.465,4.309a.31.31,0,0,1-.268.13.3.3,0,0,1-.33-.261.181.181,0,0,1,.034-.1l2.464-4.326a.277.277,0,0,1,.247-.125C1173.888,1388.222,1174.066,1388.329,1174.066,1388.489Z" transform="translate(-1150.366 -1388.222)" fill="#302558"/>
              <path id="Path_44548" data-name="Path 44548" d="M1234.669,1420.816c-.048.1-.2.136-.35.136-.172,0-.323-.047-.364-.136l-.529-1.294-.522,1.288c-.041.095-.206.142-.377.142-.144,0-.3-.036-.344-.142l-1.057-2.344a.214.214,0,0,1-.035-.113c0-.184.343-.315.577-.315a.26.26,0,0,1,.254.125l.686,1.685.515-1.466c.048-.137.165-.154.3-.154s.254.017.3.154l.508,1.471.693-1.691a.263.263,0,0,1,.255-.125c.219,0,.57.13.57.32a.2.2,0,0,1-.027.107Z" transform="translate(-1207 -1416.312)" fill="#302558"/>
              <path id="Path_44549" data-name="Path 44549" d="M1323.948,1420.816c-.048.1-.2.136-.35.136-.172,0-.322-.047-.364-.136l-.528-1.294-.522,1.288c-.041.095-.206.142-.377.142-.144,0-.3-.036-.343-.142l-1.057-2.344a.215.215,0,0,1-.034-.113c0-.184.343-.315.576-.315a.259.259,0,0,1,.254.125l.687,1.685.515-1.466c.048-.137.165-.154.3-.154s.254.017.3.154l.509,1.471.693-1.691a.262.262,0,0,1,.254-.125c.22,0,.57.13.57.32a.192.192,0,0,1-.028.107Z" transform="translate(-1291.109 -1416.312)" fill="#302558"/>
              <path id="Path_44550" data-name="Path 44550" d="M1413.227,1420.816c-.048.1-.2.136-.35.136-.172,0-.323-.047-.364-.136l-.529-1.294-.522,1.288c-.041.095-.206.142-.378.142-.144,0-.3-.036-.343-.142l-1.057-2.344a.216.216,0,0,1-.034-.113c0-.184.344-.315.577-.315a.26.26,0,0,1,.254.125l.687,1.685.515-1.466c.048-.137.165-.154.3-.154s.254.017.3.154l.508,1.471.693-1.691a.263.263,0,0,1,.254-.125c.22,0,.57.13.57.32a.2.2,0,0,1-.028.107Z" transform="translate(-1375.218 -1416.312)" fill="#302558"/>
            </g>
            <path id="Path_44551" data-name="Path 44551" d="M1598.057,1359.547h-11.136V1349.5h11.136a1.329,1.329,0,0,1,1.415,1.223v7.6A1.329,1.329,0,0,1,1598.057,1359.547Z" transform="translate(-1536.048 -1349.499)" fill="#d1a2b4"/>
            <path id="Path_44552" data-name="Path 44552" d="M1620.349,1392.731l.573,1a.482.482,0,0,0,.361.227l1.283.161a.4.4,0,0,1,.266.707l-.928.782a.38.38,0,0,0-.138.367l.219,1.1c.067.339-.344.6-.7.437l-1.147-.521a.547.547,0,0,0-.446,0l-1.147.521c-.351.16-.763-.1-.7-.437l.219-1.1a.381.381,0,0,0-.138-.367l-.928-.782a.4.4,0,0,1,.266-.707l1.282-.161a.481.481,0,0,0,.361-.227l.573-1A.516.516,0,0,1,1620.349,1392.731Z" transform="translate(-1564.254 -1390.01)" fill="#e3ba42"/>
            <path id="Path_44553" data-name="Path 44553" d="M1751.144,1361.312h-1.726v-9.9h1.726a1.329,1.329,0,0,1,1.415,1.223v7.454A1.33,1.33,0,0,1,1751.144,1361.312Z" transform="translate(-1689.135 -1351.302)" fill="#92717e"/>
          </g>
        </g>
        <g id="Group_8752" data-name="Group 8752" transform="translate(19.528 12)">
          <g id="Group_8751" data-name="Group 8751" transform="translate(9 -8)">
            <path id="Path_44554" data-name="Path 44554" d="M576.523,1668.074a20.319,20.319,0,0,1-28.335,6.487,21.134,21.134,0,0,1-6.371-28.849,20.322,20.322,0,0,1,28.335-6.486A21.134,21.134,0,0,1,576.523,1668.074Z" transform="translate(-538.632 -1635.983)" fill="#54349f"/>
            <path id="Path_44555" data-name="Path 44555" d="M588.281,1679.352a20.321,20.321,0,0,1-28.335,6.487,20.641,20.641,0,0,1-4.618-4.061,20.914,20.914,0,0,0,2.181,1.617,20.32,20.32,0,0,0,28.335-6.487,21.22,21.22,0,0,0-1.753-24.788A21.176,21.176,0,0,1,588.281,1679.352Z" transform="translate(-550.39 -1647.26)" fill="#271e47"/>
            <path id="Path_44556" data-name="Path 44556" d="M562.949,1673.862A26.259,26.259,0,0,0,572.3,1661.5a26.963,26.963,0,0,0,1.279-4.757q1.31.5,2.617.9a25.873,25.873,0,0,0,3.542.867q-.033-.721-.116-1.436a26.191,26.191,0,0,1-3.028-.768q-1.4-.432-2.809-.981a26.049,26.049,0,0,0,.155-4.078,24.926,24.926,0,0,0-1.584-7.848h0q-.4-.339-.822-.659c-.409-.311-.833-.61-1.273-.893h0s0,0,0,0l-.107-.068,0,0h0c-.439-.282-.886-.545-1.338-.788q-.465-.25-.937-.474h0a23.761,23.761,0,0,0-7.644,1.9,24.886,24.886,0,0,0-3.623,1.933,29.841,29.841,0,0,1-3.983-4.667q-.67.23-1.323.508a30.7,30.7,0,0,0,4.139,4.958,26.2,26.2,0,0,0-3.607,3.164,26.492,26.492,0,0,0-6.959,13.816,29.793,29.793,0,0,0-6.163-1.683q.033.719.115,1.435a29.07,29.07,0,0,1,5.85,1.667,24.826,24.826,0,0,0-.1,4.422,27.89,27.89,0,0,0,1.556,7.621q.386.323.79.632.61.462,1.263.886h0s0,0,0,0l.108.069h0v0c.436.281.88.541,1.327.782.3.16.6.311.9.456a26.587,26.587,0,0,0,7.431-1.83,23.877,23.877,0,0,0,3.813-1.938q1.089,1.061,2.075,2.167a27.056,27.056,0,0,1,1.978,2.456q.671-.228,1.325-.507a26.833,26.833,0,0,0-2.285-2.888Q563.95,1674.849,562.949,1673.862Zm8.067-12.856a24.838,24.838,0,0,1-9.09,11.876q-1.444-1.341-3.05-2.6a58.761,58.761,0,0,0,7.973-11.849c.671-1.312,1.275-2.619,1.81-3.9q1.808.936,3.618,1.692A25.572,25.572,0,0,1,571.016,1661.006Zm-22.723,16.053a25.53,25.53,0,0,1,.963-6.819,38.384,38.384,0,0,1,1.234-3.867c.959.546,1.865,1.1,2.71,1.624q1.9,1.188,3.632,2.471a37.721,37.721,0,0,1-2.9,2.787A24.594,24.594,0,0,1,548.293,1677.059Zm5.627-10.254c-.906-.565-1.88-1.156-2.914-1.741a57.45,57.45,0,0,1,6.977-12.209c.881-1.182,1.781-2.3,2.693-3.333.96.7,1.9,1.343,2.786,1.932q.351.233.7.459,1.633,1.053,3.277,1.959c-.531,1.284-1.135,2.593-1.809,3.911a57.229,57.229,0,0,1-7.856,11.651Q555.94,1668.067,553.92,1666.805Zm16.237-24.92a28.717,28.717,0,0,1-2.2,10.682q-1.877-1.043-3.746-2.284c-.83-.551-1.7-1.149-2.6-1.8A27.791,27.791,0,0,1,570.157,1641.885Zm2.412,9.416a24.581,24.581,0,0,1-.106,3.481q-1.642-.7-3.284-1.558a35.907,35.907,0,0,0,2.211-8.437A23.556,23.556,0,0,1,572.569,1651.3Zm-11.8-7.606a22.46,22.46,0,0,1,6.288-1.7,34.97,34.97,0,0,0-6.558,5.662c-.946-.719-1.9-1.5-2.836-2.333A23.841,23.841,0,0,1,560.765,1643.7Zm-7.949,5.583a24.951,24.951,0,0,1,3.65-3.166c1.018.93,2.063,1.787,3.1,2.579-.907,1.037-1.8,2.147-2.675,3.318a58.991,58.991,0,0,0-7.1,12.387c-1.145-.612-2.354-1.206-3.615-1.745A25.066,25.066,0,0,1,552.816,1649.279Zm-6.871,18.589a23.554,23.554,0,0,1,.052-3.774c1.14.5,2.236,1.045,3.278,1.605a39.711,39.711,0,0,0-1.347,4.186,34.711,34.711,0,0,0-.838,4.243A27.057,27.057,0,0,1,545.945,1667.868Zm11.512,7.417a25.8,25.8,0,0,1-6.047,1.627,33.779,33.779,0,0,0,3.408-2.588,38.934,38.934,0,0,0,3.124-3.013q1.458,1.142,2.78,2.349A22.37,22.37,0,0,1,557.457,1675.285Z" transform="translate(-538.686 -1638.563)" fill="#271e47"/>
          </g>
        </g>
      </g>
    </g>
  </g>
</svg>
