<svg width="105" height="104" viewBox="0 0 105 104" fill="none" xmlns="http://www.w3.org/2000/svg">
<g filter="url(#filter0_d)">
<path d="M52.1514 53.434C64.3852 53.434 74.3027 43.711 74.3027 31.717C74.3027 19.723 64.3852 10 52.1514 10C39.9175 10 30 19.723 30 31.717C30 43.711 39.9175 53.434 52.1514 53.434Z" fill="#DCE0EC"/>
</g>
<path d="M63.6345 25.6238L52.9345 19.4471C52.6439 19.2793 52.3144 19.191 51.9789 19.191C51.6435 19.191 51.3139 19.2793 51.0234 19.4471L40.3251 25.6238C40.1121 25.7467 39.9353 25.9236 39.8123 26.1365C39.6893 26.3495 39.6247 26.591 39.6246 26.8369L40.217 27.0706L40.34 26.4413L51.38 33.1219L51.4265 34.1608L52.4189 34.0791L52.6526 33.1509L63.618 26.4408L63.7409 27.0702L64.3334 26.8365C64.3334 26.5908 64.2689 26.3495 64.1462 26.1366C64.0235 25.9238 63.847 25.7469 63.6345 25.6238Z" fill="url(#paint0_linear)"/>
<path d="M51.3604 34.2363L51.3121 33.1626L40.3624 26.6909L40.27 27.1648L39.5551 26.8829V26.8351C39.5556 26.577 39.6238 26.3236 39.7528 26.1001C39.8818 25.8766 40.0671 25.6908 40.2903 25.5612L50.9886 19.3844C51.2897 19.2113 51.6309 19.1201 51.9782 19.1201C52.3255 19.1201 52.6668 19.2113 52.9679 19.3844L63.6678 25.5612C63.891 25.6908 64.0764 25.8766 64.2055 26.1001C64.3345 26.3236 64.4027 26.577 64.4032 26.8351V26.8846L63.6883 27.1665L63.5684 26.5537L52.7138 33.196L52.4749 34.1451L51.3604 34.2363ZM40.263 26.4707L51.4485 33.08L51.492 34.0842L52.3607 34.0126L52.5887 33.1052L52.613 33.0905L63.6643 26.3278L63.7903 26.9736L64.2594 26.7886C64.251 26.5632 64.1857 26.3437 64.0695 26.1504C63.9533 25.9571 63.79 25.7964 63.5949 25.6832L52.8949 19.5065C52.6151 19.3455 52.298 19.2608 51.9752 19.2608C51.6524 19.2608 51.3353 19.3455 51.0555 19.5065L40.3572 25.6832C40.1621 25.7963 39.9988 25.957 39.8826 26.1503C39.7664 26.3436 39.701 26.5632 39.6927 26.7886L40.1618 26.9736L40.263 26.4707Z" fill="#F3F6FF"/>
<path d="M63.6362 26.4315L52.6169 32.7937C52.424 32.9051 52.2638 33.0652 52.1524 33.2581C52.041 33.451 51.9824 33.6698 51.9823 33.8926V43.6457L50.7258 44.7902L51.2339 45.043C51.4659 45.1584 51.7214 45.2192 51.9805 45.2206C52.2397 45.2221 52.4957 45.1641 52.729 45.0512L52.9679 44.9357C53.0013 44.9224 53.0336 44.9067 53.0647 44.8888L64.1035 38.5157C64.1745 38.4747 64.2334 38.4158 64.2744 38.3448C64.3154 38.2738 64.337 38.1933 64.3371 38.1113V26.8358C64.3371 26.7538 64.3156 26.6732 64.2746 26.6021C64.2336 26.531 64.1746 26.472 64.1035 26.431C64.0324 26.39 63.9518 26.3684 63.8698 26.3685C63.7877 26.3686 63.7072 26.3903 63.6362 26.4315Z" fill="url(#paint1_linear)"/>
<path d="M51.9899 45.2897C51.7168 45.2901 51.4473 45.2272 51.2025 45.1059L50.6027 44.8076L51.9109 43.6144V33.8926C51.9113 33.6576 51.9734 33.4268 52.0909 33.2233C52.2084 33.0198 52.3773 32.8507 52.5807 32.7329L63.6 26.3707L63.6351 26.4315L63.6 26.3707C63.6816 26.3236 63.7742 26.2988 63.8685 26.2988C63.9627 26.2989 64.0553 26.3237 64.1369 26.3708C64.2186 26.4179 64.2864 26.4857 64.3335 26.5674C64.3807 26.649 64.4056 26.7416 64.4057 26.8359V38.1118C64.4055 38.206 64.3806 38.2986 64.3335 38.3802C64.2864 38.4619 64.2187 38.5297 64.1372 38.577L53.0984 44.95C53.065 44.9693 53.0304 44.9861 52.9947 45.0004L52.7583 45.1146C52.5186 45.23 52.256 45.2899 51.9899 45.2897ZM50.8485 44.7732L51.265 44.9805C51.4877 45.0904 51.7325 45.1483 51.9808 45.1497C52.2291 45.1511 52.4745 45.0961 52.6984 44.9887L52.9416 44.8714C52.9716 44.859 53.0006 44.8445 53.0285 44.828L64.0673 38.4549C64.1275 38.42 64.1776 38.3699 64.2124 38.3096C64.2473 38.2493 64.2657 38.181 64.2658 38.1114V26.8359C64.2657 26.7662 64.2473 26.6978 64.2124 26.6375C64.1776 26.5772 64.1275 26.5271 64.0672 26.4922C64.0068 26.4574 63.9383 26.4391 63.8687 26.4391C63.799 26.4391 63.7306 26.4575 63.6703 26.4923L52.6511 32.8545C52.4691 32.96 52.3179 33.1114 52.2127 33.2935C52.1076 33.4757 52.052 33.6823 52.0517 33.8926V43.6766L50.8485 44.7732Z" fill="#F3F6FF"/>
<path d="M50.8974 44.8892L39.8586 38.5161C39.7876 38.4751 39.7287 38.4162 39.6877 38.3452C39.6467 38.2742 39.6251 38.1937 39.625 38.1117V26.8358C39.625 26.7538 39.6466 26.6733 39.6876 26.6023C39.7286 26.5313 39.7875 26.4723 39.8585 26.4313C39.9295 26.3903 40.01 26.3687 40.092 26.3688C40.174 26.3688 40.2546 26.3904 40.3256 26.4314L51.3448 32.7937C51.5377 32.905 51.6979 33.0652 51.8093 33.2581C51.9207 33.451 51.9793 33.6698 51.9793 33.8926V44.2646C51.9793 44.3912 51.9459 44.5155 51.8826 44.6251C51.8193 44.7348 51.7282 44.8258 51.6186 44.8891C51.5089 44.9524 51.3846 44.9857 51.258 44.9857C51.1314 44.9857 51.007 44.9524 50.8974 44.8892Z" fill="url(#paint2_linear)"/>
<path d="M51.2579 45.0574C51.1188 45.0571 50.9824 45.0201 50.8622 44.9501L39.8234 38.577C39.7419 38.5297 39.6742 38.4619 39.6271 38.3803C39.58 38.2986 39.5552 38.2061 39.5551 38.1118V26.8359C39.555 26.7417 39.5797 26.649 39.6268 26.5674C39.6739 26.4858 39.7417 26.418 39.8233 26.3708C39.905 26.3237 39.9976 26.2988 40.0918 26.2988C40.1861 26.2988 40.2787 26.3236 40.3603 26.3707L51.3795 32.7329C51.5828 32.8508 51.7516 33.0199 51.8691 33.2234C51.9865 33.4269 52.0485 33.6577 52.0488 33.8927V44.2647C52.0484 44.4746 51.9649 44.6757 51.8166 44.8242C51.6683 44.9727 51.4673 45.0566 51.2574 45.0574H51.2579ZM50.9321 44.8289C51.0312 44.886 51.1435 44.916 51.2579 44.9159C51.3722 44.9159 51.4845 44.8857 51.5835 44.8285C51.6825 44.7713 51.7646 44.689 51.8218 44.59C51.8789 44.4909 51.909 44.3786 51.9089 44.2643V33.8922C51.9086 33.6819 51.8532 33.4753 51.748 33.2931C51.6428 33.1109 51.4916 32.9596 51.3096 32.8541L40.2903 26.4919C40.23 26.4571 40.1616 26.4388 40.0919 26.4387C40.0223 26.4387 39.9538 26.4571 39.8934 26.4919C39.8331 26.5267 39.783 26.5768 39.7482 26.6371C39.7133 26.6974 39.695 26.7658 39.6949 26.8355V38.1114C39.6951 38.181 39.7134 38.2494 39.7483 38.3097C39.7831 38.37 39.8331 38.4201 39.8933 38.455L50.9321 44.8289Z" fill="#D5DBFE"/>
<path d="M50.0445 34.1193V43.0571L41.1066 37.8967V28.9589L41.7291 29.3181L50.0445 34.1193Z" fill="url(#paint3_linear)"/>
<path d="M50.0436 34.1194V42.3558L41.7277 37.5546V29.3195L50.0436 34.1194Z" fill="url(#paint4_linear)"/>
<path d="M41.9171 29.3181H41.7281V42.3544H41.9171V29.3181Z" fill="#2E256B"/>
<path d="M42.1061 29.3181H41.9171V42.3544H42.1061V29.3181Z" fill="#2F256C"/>
<path d="M42.295 29.3181H42.1061V42.3544H42.295V29.3181Z" fill="#30266C"/>
<path d="M42.4839 29.3181H42.295V42.3544H42.4839V29.3181Z" fill="#31266D"/>
<path d="M42.6733 29.3181H42.4844V42.3544H42.6733V29.3181Z" fill="#32266E"/>
<path d="M42.8623 29.3181H42.6733V42.3544H42.8623V29.3181Z" fill="#33266E"/>
<path d="M43.0512 29.3181H42.8622V42.3544H43.0512V29.3181Z" fill="#34276F"/>
<path d="M43.2401 29.3181H43.0512V42.3544H43.2401V29.3181Z" fill="#352770"/>
<path d="M43.4291 29.3181H43.2402V42.3544H43.4291V29.3181Z" fill="#362770"/>
<path d="M43.618 29.3181H43.4291V42.3544H43.618V29.3181Z" fill="#372771"/>
<path d="M43.807 29.3181H43.618V42.3544H43.807V29.3181Z" fill="#382872"/>
<path d="M43.9959 29.3181H43.8069V42.3544H43.9959V29.3181Z" fill="#392872"/>
<path d="M44.1853 29.3181H43.9963V42.3544H44.1853V29.3181Z" fill="#3A2873"/>
<path d="M44.3742 29.3181H44.1852V42.3544H44.3742V29.3181Z" fill="#3B2873"/>
<path d="M44.5631 29.3181H44.3742V42.3544H44.5631V29.3181Z" fill="#3C2974"/>
<path d="M44.7521 29.3181H44.5632V42.3544H44.7521V29.3181Z" fill="#3D2975"/>
<path d="M44.941 29.3181H44.7521V42.3544H44.941V29.3181Z" fill="#3E2975"/>
<path d="M45.13 29.3181H44.941V42.3544H45.13V29.3181Z" fill="#3F2976"/>
<path d="M45.3189 29.3181H45.1299V42.3544H45.3189V29.3181Z" fill="#402A77"/>
<path d="M45.5078 29.3181H45.3189V42.3544H45.5078V29.3181Z" fill="#412A77"/>
<path d="M45.6972 29.3181H45.5083V42.3544H45.6972V29.3181Z" fill="#422A78"/>
<path d="M45.8861 29.3181H45.6972V42.3544H45.8861V29.3181Z" fill="#432A79"/>
<path d="M46.075 29.3181H45.8861V42.3544H46.075V29.3181Z" fill="#452B79"/>
<path d="M46.264 29.3181H46.0751V42.3544H46.264V29.3181Z" fill="#462B7A"/>
<path d="M46.4529 29.3181H46.264V42.3544H46.4529V29.3181Z" fill="#472B7B"/>
<path d="M46.6419 29.3181H46.4529V42.3544H46.6419V29.3181Z" fill="#482B7B"/>
<path d="M46.8308 29.3181H46.6419V42.3544H46.8308V29.3181Z" fill="#492C7C"/>
<path d="M47.0202 29.3181H46.8312V42.3544H47.0202V29.3181Z" fill="#4A2C7D"/>
<path d="M47.2091 29.3181H47.0202V42.3544H47.2091V29.3181Z" fill="#4B2C7D"/>
<path d="M47.398 29.3181H47.2091V42.3544H47.398V29.3181Z" fill="#4C2C7E"/>
<path d="M47.587 29.3181H47.3981V42.3544H47.587V29.3181Z" fill="#4D2D7F"/>
<path d="M47.776 29.3181H47.587V42.3544H47.776V29.3181Z" fill="#4E2D7F"/>
<path d="M47.9649 29.3181H47.7759V42.3544H47.9649V29.3181Z" fill="#4F2D80"/>
<path d="M48.1538 29.3181H47.9649V42.3544H48.1538V29.3181Z" fill="#502D80"/>
<path d="M48.3427 29.3181H48.1538V42.3544H48.3427V29.3181Z" fill="#512E81"/>
<path d="M48.5321 29.3181H48.3432V42.3544H48.5321V29.3181Z" fill="#522E82"/>
<path d="M48.721 29.3181H48.5321V42.3544H48.721V29.3181Z" fill="#532E82"/>
<path d="M48.91 29.3181H48.7211V42.3544H48.91V29.3181Z" fill="#542E83"/>
<path d="M49.099 29.3181H48.91V42.3544H49.099V29.3181Z" fill="#552F84"/>
<path d="M49.2879 29.3181H49.0989V42.3544H49.2879V29.3181Z" fill="#562F84"/>
<path d="M49.4768 29.3181H49.2879V42.3544H49.4768V29.3181Z" fill="#572F85"/>
<path d="M49.6657 29.3181H49.4768V42.3544H49.6657V29.3181Z" fill="#582F86"/>
<path d="M49.8547 29.3181H49.6658V42.3544H49.8547V29.3181Z" fill="#593086"/>
<path d="M50.0441 29.3181H49.8552V42.3544H50.0441V29.3181Z" fill="#5A3087"/>
<path d="M41.9171 29.5144H41.8416V42.1581H41.9171V29.5144Z" fill="#2E256B"/>
<path d="M42.1061 29.5144H41.9171V42.1581H42.1061V29.5144Z" fill="#2F256C"/>
<path d="M42.295 29.5144H42.1061V42.1581H42.295V29.5144Z" fill="#30266C"/>
<path d="M42.4839 29.5144H42.295V42.1581H42.4839V29.5144Z" fill="#31266D"/>
<path d="M42.6733 29.5144H42.4844V42.1581H42.6733V29.5144Z" fill="#32266E"/>
<path d="M42.8623 29.5144H42.6733V42.1581H42.8623V29.5144Z" fill="#33266E"/>
<path d="M43.0512 29.5144H42.8622V42.1581H43.0512V29.5144Z" fill="#34276F"/>
<path d="M43.2401 29.5144H43.0512V42.1581H43.2401V29.5144Z" fill="#352770"/>
<path d="M43.4291 29.5144H43.2402V42.1581H43.4291V29.5144Z" fill="#362770"/>
<path d="M43.618 29.5144H43.4291V42.1581H43.618V29.5144Z" fill="#372771"/>
<path d="M43.807 29.5144H43.618V42.1581H43.807V29.5144Z" fill="#382872"/>
<path d="M43.9959 29.5144H43.8069V42.1581H43.9959V29.5144Z" fill="#392872"/>
<path d="M44.1853 29.5144H43.9963V42.1581H44.1853V29.5144Z" fill="#3A2873"/>
<path d="M44.3742 29.5144H44.1852V42.1581H44.3742V29.5144Z" fill="#3B2873"/>
<path d="M44.5631 29.5144H44.3742V42.1581H44.5631V29.5144Z" fill="#3C2974"/>
<path d="M44.7521 29.5144H44.5632V42.1581H44.7521V29.5144Z" fill="#3D2975"/>
<path d="M44.941 29.5144H44.7521V42.1581H44.941V29.5144Z" fill="#3E2975"/>
<path d="M45.13 29.5144H44.941V42.1581H45.13V29.5144Z" fill="#3F2976"/>
<path d="M45.3189 29.5144H45.1299V42.1581H45.3189V29.5144Z" fill="#402A77"/>
<path d="M45.5078 29.5144H45.3189V42.1581H45.5078V29.5144Z" fill="#412A77"/>
<path d="M45.6972 29.5144H45.5083V42.1581H45.6972V29.5144Z" fill="#422A78"/>
<path d="M45.8861 29.5144H45.6972V42.1581H45.8861V29.5144Z" fill="#432A79"/>
<path d="M46.075 29.5144H45.8861V42.1581H46.075V29.5144Z" fill="#452B79"/>
<path d="M46.264 29.5144H46.0751V42.1581H46.264V29.5144Z" fill="#462B7A"/>
<path d="M46.4529 29.5144H46.264V42.1581H46.4529V29.5144Z" fill="#472B7B"/>
<path d="M46.6419 29.5144H46.4529V42.1581H46.6419V29.5144Z" fill="#482B7B"/>
<path d="M46.8308 29.5144H46.6419V42.1581H46.8308V29.5144Z" fill="#492C7C"/>
<path d="M47.0202 29.5144H46.8312V42.1581H47.0202V29.5144Z" fill="#4A2C7D"/>
<path d="M47.2091 29.5144H47.0202V42.1581H47.2091V29.5144Z" fill="#4B2C7D"/>
<path d="M47.398 29.5144H47.2091V42.1581H47.398V29.5144Z" fill="#4C2C7E"/>
<path d="M47.587 29.5144H47.3981V42.1581H47.587V29.5144Z" fill="#4D2D7F"/>
<path d="M47.776 29.5144H47.587V42.1581H47.776V29.5144Z" fill="#4E2D7F"/>
<path d="M47.9649 29.5144H47.7759V42.1581H47.9649V29.5144Z" fill="#4F2D80"/>
<path d="M48.1538 29.5144H47.9649V42.1581H48.1538V29.5144Z" fill="#502D80"/>
<path d="M48.3427 29.5144H48.1538V42.1581H48.3427V29.5144Z" fill="#512E81"/>
<path d="M48.5321 29.5144H48.3432V42.1581H48.5321V29.5144Z" fill="#522E82"/>
<path d="M48.721 29.5144H48.5321V42.1581H48.721V29.5144Z" fill="#532E82"/>
<path d="M48.91 29.5144H48.7211V42.1581H48.91V29.5144Z" fill="#542E83"/>
<path d="M49.099 29.5144H48.91V42.1581H49.099V29.5144Z" fill="#552F84"/>
<path d="M49.2879 29.5144H49.0989V42.1581H49.2879V29.5144Z" fill="#562F84"/>
<path d="M49.4768 29.5144H49.2879V42.1581H49.4768V29.5144Z" fill="#572F85"/>
<path d="M49.6657 29.5144H49.4768V42.1581H49.6657V29.5144Z" fill="#582F86"/>
<path d="M49.8547 29.5144H49.6658V42.1581H49.8547V29.5144Z" fill="#593086"/>
<path d="M49.9307 29.5144H49.8552V42.1581H49.9307V29.5144Z" fill="#5A3087"/>
<path d="M41.0427 28.0982C41.1235 28.0375 41.1019 27.8727 40.9946 27.7301C40.8874 27.5874 40.735 27.521 40.6543 27.5817C40.5735 27.6424 40.5951 27.8073 40.7024 27.9499C40.8096 28.0925 40.962 28.1589 41.0427 28.0982Z" fill="#634D99"/>
<path d="M41.0427 28.0982C41.1235 28.0375 41.1019 27.8727 40.9946 27.7301C40.8874 27.5874 40.735 27.521 40.6543 27.5817C40.5735 27.6424 40.5951 27.8073 40.7024 27.9499C40.8096 28.0925 40.962 28.1589 41.0427 28.0982Z" fill="url(#paint5_linear)"/>
<path d="M43.4929 29.5228C43.5736 29.4621 43.5521 29.2973 43.4448 29.1546C43.3375 29.012 43.1852 28.9456 43.1044 29.0063C43.0237 29.067 43.0453 29.2318 43.1526 29.3745C43.2598 29.5171 43.4122 29.5835 43.4929 29.5228Z" fill="url(#paint6_linear)"/>
<path d="M45.9917 30.8293C45.9917 30.9636 45.8831 31.0096 45.7489 30.9318C45.6813 30.8914 45.6241 30.8357 45.5819 30.7692C45.5398 30.7026 45.5138 30.6272 45.5061 30.5488C45.5061 30.4146 45.6147 30.3685 45.7489 30.4463C45.8165 30.4867 45.8737 30.5424 45.9158 30.6089C45.958 30.6755 45.984 30.751 45.9917 30.8293Z" fill="url(#paint7_linear)"/>
<path d="M48.4419 32.2535C48.4419 32.3878 48.3332 32.4338 48.199 32.3561C48.1314 32.3156 48.0743 32.2599 48.0321 32.1934C47.99 32.1268 47.964 32.0514 47.9563 31.973C47.9563 31.8388 48.0648 31.7927 48.199 31.8704C48.2666 31.9109 48.3239 31.9666 48.366 32.0331C48.4082 32.0997 48.4341 32.1752 48.4419 32.2535Z" fill="url(#paint8_linear)"/>
<path d="M50.8915 33.6786C50.8915 33.8128 50.7829 33.8588 50.6487 33.7811C50.5811 33.7407 50.524 33.685 50.4818 33.6184C50.4396 33.5519 50.4136 33.4764 50.4059 33.398C50.4059 33.2638 50.5145 33.2178 50.6487 33.2955C50.7163 33.3359 50.7735 33.3916 50.8156 33.4582C50.8578 33.5247 50.8838 33.6002 50.8915 33.6786Z" fill="url(#paint9_linear)"/>
<path d="M63.401 28.1923C63.5083 28.0497 63.5298 27.8848 63.4491 27.8241C63.3684 27.7634 63.216 27.8298 63.1087 27.9725C63.0015 28.1151 62.9799 28.2799 63.0606 28.3406C63.1413 28.4013 63.2937 28.3349 63.401 28.1923Z" fill="#925FC4"/>
<path d="M63.401 28.1923C63.5083 28.0497 63.5298 27.8848 63.4491 27.8241C63.3684 27.7634 63.216 27.8298 63.1087 27.9725C63.0015 28.1151 62.9799 28.2799 63.0606 28.3406C63.1413 28.4013 63.2937 28.3349 63.401 28.1923Z" fill="url(#paint10_linear)"/>
<path d="M60.5616 29.6475C60.5616 29.7817 60.6703 29.8277 60.8045 29.75C60.8721 29.7095 60.9292 29.6538 60.9714 29.5873C61.0136 29.5208 61.0395 29.4453 61.0472 29.3669C61.0472 29.2327 60.9387 29.1866 60.8045 29.2644C60.7369 29.3048 60.6796 29.3605 60.6375 29.4271C60.5953 29.4936 60.5694 29.5691 60.5616 29.6475Z" fill="url(#paint11_linear)"/>
<path d="M58.5008 31.0415C58.6081 30.8989 58.6296 30.7341 58.5489 30.6734C58.4682 30.6127 58.3158 30.6791 58.2085 30.8217C58.1012 30.9643 58.0797 31.1292 58.1604 31.1899C58.2411 31.2506 58.3935 31.1842 58.5008 31.0415Z" fill="url(#paint12_linear)"/>
<path d="M55.6615 32.496C55.6615 32.6302 55.77 32.6762 55.9042 32.5985C55.9718 32.558 56.0291 32.5023 56.0712 32.4358C56.1134 32.3693 56.1393 32.2938 56.1471 32.2154C56.1471 32.0812 56.0384 32.0351 55.9042 32.1129C55.8366 32.1533 55.7795 32.209 55.7373 32.2756C55.6952 32.3421 55.6692 32.4176 55.6615 32.496Z" fill="url(#paint13_linear)"/>
<path d="M53.2113 33.921C53.2113 34.0552 53.3199 34.1013 53.4541 34.0235C53.5217 33.9831 53.5789 33.9274 53.621 33.8608C53.6632 33.7943 53.6892 33.7188 53.6969 33.6404C53.6969 33.5062 53.5883 33.4602 53.4541 33.5379C53.3865 33.5784 53.3293 33.6341 53.2871 33.7006C53.245 33.7671 53.219 33.8426 53.2113 33.921Z" fill="url(#paint14_linear)"/>
<path d="M62.8752 38.2161C62.8752 38.3503 62.9839 38.3963 63.1181 38.3186C63.1857 38.2782 63.2428 38.2224 63.285 38.1559C63.3271 38.0894 63.3532 38.0139 63.3609 37.9355C63.3609 37.8013 63.2523 37.7552 63.1181 37.833C63.0505 37.8734 62.9933 37.9291 62.9512 37.9957C62.909 38.0622 62.883 38.1377 62.8752 38.2161Z" fill="#925FC4"/>
<path d="M62.8752 38.2161C62.8752 38.3503 62.9839 38.3963 63.1181 38.3186C63.1857 38.2782 63.2428 38.2224 63.285 38.1559C63.3271 38.0894 63.3532 38.0139 63.3609 37.9355C63.3609 37.8013 63.2523 37.7552 63.1181 37.833C63.0505 37.8734 62.9933 37.9291 62.9512 37.9957C62.909 38.0622 62.883 38.1377 62.8752 38.2161Z" fill="url(#paint15_linear)"/>
<path d="M60.4247 39.6408C60.4247 39.775 60.5333 39.821 60.6675 39.7432C60.7351 39.7028 60.7923 39.6471 60.8345 39.5806C60.8767 39.5141 60.9026 39.4386 60.9103 39.3602C60.9103 39.226 60.8017 39.1799 60.6675 39.2577C60.5999 39.2981 60.5427 39.3538 60.5006 39.4203C60.4584 39.4869 60.4325 39.5624 60.4247 39.6408Z" fill="url(#paint16_linear)"/>
<path d="M57.975 41.0646C57.975 41.1988 58.0837 41.2448 58.2179 41.1671C58.2855 41.1266 58.3426 41.0709 58.3848 41.0044C58.4269 40.9379 58.4529 40.8624 58.4606 40.784C58.4606 40.6498 58.3521 40.6037 58.2179 40.6815C58.1503 40.7219 58.093 40.7776 58.0509 40.8441C58.0087 40.9107 57.9827 40.9862 57.975 41.0646Z" fill="url(#paint17_linear)"/>
<path d="M55.5249 42.4896C55.5249 42.6238 55.6335 42.6699 55.7677 42.5921C55.8353 42.5517 55.8925 42.496 55.9346 42.4294C55.9768 42.3629 56.0028 42.2874 56.0105 42.209C56.0105 42.0748 55.9019 42.0288 55.7677 42.1065C55.7001 42.147 55.6429 42.2027 55.6007 42.2692C55.5586 42.3357 55.5326 42.4112 55.5249 42.4896Z" fill="url(#paint18_linear)"/>
<path d="M53.0748 43.9147C53.0748 44.0489 53.1834 44.0949 53.3176 44.0172C53.3852 43.9768 53.4423 43.921 53.4845 43.8545C53.5267 43.788 53.5527 43.7125 53.5604 43.6341C53.5604 43.4999 53.4518 43.4538 53.3176 43.5316C53.25 43.572 53.1929 43.6278 53.1507 43.6943C53.1085 43.7608 53.0825 43.8363 53.0748 43.9147Z" fill="url(#paint19_linear)"/>
<path d="M40.8478 38.319C40.8478 38.4532 40.7393 38.4992 40.6051 38.4215C40.5375 38.381 40.4802 38.3253 40.4381 38.2588C40.3959 38.1923 40.37 38.1168 40.3622 38.0384C40.3622 37.9042 40.4709 37.8581 40.6051 37.9359C40.6727 37.9763 40.7298 38.032 40.772 38.0985C40.8142 38.1651 40.8401 38.2406 40.8478 38.319Z" fill="#634D99"/>
<path d="M40.8478 38.319C40.8478 38.4532 40.7393 38.4992 40.6051 38.4215C40.5375 38.381 40.4802 38.3253 40.4381 38.2588C40.3959 38.1923 40.37 38.1168 40.3622 38.0384C40.3622 37.9042 40.4709 37.8581 40.6051 37.9359C40.6727 37.9763 40.7298 38.032 40.772 38.0985C40.8142 38.1651 40.8401 38.2406 40.8478 38.319Z" fill="url(#paint20_linear)"/>
<path d="M43.2497 39.8613C43.3304 39.8006 43.3089 39.6358 43.2016 39.4931C43.0943 39.3505 42.9419 39.2841 42.8612 39.3448C42.7805 39.4055 42.8021 39.5703 42.9093 39.713C43.0166 39.8556 43.169 39.922 43.2497 39.8613Z" fill="url(#paint21_linear)"/>
<path d="M45.7485 41.1682C45.7485 41.3024 45.6399 41.3485 45.5057 41.2707C45.4381 41.2303 45.3809 41.1746 45.3387 41.108C45.2965 41.0415 45.2706 40.966 45.2629 40.8876C45.2629 40.7534 45.3715 40.7074 45.5057 40.7851C45.5733 40.8256 45.6305 40.8813 45.6726 40.9478C45.7148 41.0143 45.7408 41.0898 45.7485 41.1682Z" fill="url(#paint22_linear)"/>
<path d="M48.2 42.5932C48.2 42.7275 48.0913 42.7735 47.9571 42.6958C47.8895 42.6553 47.8324 42.5996 47.7902 42.5331C47.7481 42.4665 47.722 42.3911 47.7143 42.3127C47.7143 42.1785 47.8229 42.1324 47.9571 42.2102C48.0247 42.2506 48.0819 42.3063 48.124 42.3728C48.1662 42.4394 48.1922 42.5149 48.2 42.5932Z" fill="url(#paint23_linear)"/>
<path d="M50.6483 44.0174C50.6483 44.1517 50.5398 44.1977 50.4056 44.12C50.338 44.0795 50.2807 44.0238 50.2385 43.9573C50.1964 43.8907 50.1704 43.8152 50.1627 43.7369C50.1627 43.6026 50.2713 43.5566 50.4056 43.6344C50.4732 43.6748 50.5303 43.7305 50.5725 43.797C50.6146 43.8636 50.6406 43.9391 50.6483 44.0174Z" fill="url(#paint24_linear)"/>
<path d="M61.7819 31.9497C61.6924 31.8977 61.5982 31.854 61.5005 31.8194C61.0846 31.6832 60.6385 31.6681 60.2143 31.776C59.8139 31.8715 59.4301 32.0269 59.076 32.2368C58.1198 32.8161 57.3144 33.6136 56.7257 34.564C56.1346 35.4369 55.7963 36.4562 55.7485 37.5093C55.7228 37.8571 55.7839 38.2058 55.9262 38.5242C56.0685 38.8426 56.2876 39.1207 56.5638 39.3335C56.5999 39.3583 56.6367 39.3822 56.6749 39.4039C56.9696 39.5685 57.3025 39.6521 57.64 39.6463C57.7357 39.6462 57.8313 39.6405 57.9263 39.6293C58.4415 39.559 58.9368 39.3839 59.3817 39.1146C60.3379 38.5356 61.1433 37.738 61.7316 36.7874C62.3229 35.9147 62.6611 34.8953 62.7088 33.8422C62.7391 33.4725 62.669 33.1015 62.5059 32.7684C62.3427 32.4353 62.0926 32.1524 61.7819 31.9497ZM57.8246 39.0295C57.5339 39.0681 57.2384 39.0143 56.9799 38.8757C56.9341 38.8491 56.8905 38.8189 56.8496 38.7854C56.6776 38.6229 56.5443 38.424 56.4595 38.2031C56.3747 37.9822 56.3405 37.7451 56.3596 37.5093C56.3596 35.8562 57.7157 33.7279 59.3822 32.7654C59.6744 32.5911 59.9901 32.4595 60.3195 32.3745C60.4815 32.3346 60.6474 32.3138 60.8142 32.3124C60.9501 32.3113 61.0855 32.3293 61.2164 32.3658C61.3075 32.3914 61.395 32.4282 61.4771 32.4753C61.6928 32.6272 61.8642 32.8339 61.9734 33.0741C62.0827 33.3143 62.1259 33.5793 62.0986 33.8417C62.0986 35.4953 60.7426 37.6231 59.076 38.5856C58.6949 38.8205 58.2684 38.9722 57.8246 39.0308V39.0295Z" fill="#FFD071"/>
<path d="M58.6213 39.0312L58.4041 35.3437L61.7216 32.2281L62.1394 32.6734L59.0321 35.5908L59.2328 38.993L58.6213 39.0312Z" fill="#FFD071"/>
<path d="M57.8246 39.0309C58.294 39.0846 58.7695 39.031 59.2152 38.8743C59.6608 38.7176 60.0652 38.4618 60.3977 38.1262C60.7813 37.7361 61.1224 37.3063 61.415 36.844C61.9394 36.0558 62.2697 35.1546 62.3788 34.2141C62.3862 34.1287 62.3616 34.0437 62.3097 33.9755C62.2578 33.9073 62.1824 33.8609 62.0982 33.8453C62.0982 35.4989 60.7422 37.6267 59.0756 38.5892C58.6944 38.823 58.2681 38.9737 57.8246 39.0314V39.0309Z" fill="#D1975D"/>
<path d="M57.3526 34.1922L56.999 34.6901L58.5446 35.788L58.8982 35.2902L57.3526 34.1922Z" fill="#FFD071"/>
<path d="M59.6488 34.4204L59.6949 34.3539L59.4607 34.221L59.4473 34.2136C59.3096 34.1587 59.1603 34.1399 59.0133 34.1587C58.8664 34.1775 58.7266 34.2335 58.6073 34.3213C58.2943 34.5084 58.0295 34.7664 57.8343 35.0744C57.6391 35.3824 57.5188 35.7318 57.4832 36.0948C57.4744 36.1995 57.4916 36.3047 57.533 36.4013C57.5744 36.4978 57.6389 36.5827 57.7208 36.6485C57.7431 36.6641 57.7666 36.6777 57.7911 36.6894L57.9944 36.8084L58.0379 36.7437C58.2394 36.737 58.4356 36.6771 58.6065 36.5699C58.9194 36.3829 59.1841 36.125 59.3793 35.8171C59.5745 35.5092 59.6948 35.1598 59.7305 34.797C59.7345 34.6666 59.7065 34.5373 59.6488 34.4204Z" fill="#D1975D"/>
<path d="M59.5109 36.0856C60.007 35.4261 60.1066 34.6639 59.7334 34.3832C59.3603 34.1025 58.6556 34.4096 58.1595 35.0691C57.6634 35.7287 57.5638 36.4909 57.937 36.7715C58.3101 37.0522 59.0148 36.7451 59.5109 36.0856Z" fill="#FFD071"/>
<path d="M56.7502 24.304V25.24V25.3704H56.7449C56.719 25.6536 56.626 25.9265 56.4734 26.1665C56.4552 26.1965 56.4352 26.2269 56.4148 26.2568C56.1922 26.5686 55.9121 26.835 55.5896 27.0417L55.531 27.0799C55.473 27.1164 55.4139 27.1525 55.3533 27.1881C55.1449 27.3077 54.9284 27.4124 54.7053 27.5017L54.6467 27.5247C54.3778 27.6291 54.102 27.715 53.8214 27.7818L53.7627 27.7961C53.4905 27.8591 53.2151 27.9068 52.9375 27.939L52.8789 27.9456C52.6048 27.9758 52.3294 27.992 52.0537 27.9942H51.9955C51.7199 27.9947 51.4444 27.9813 51.1702 27.9538L51.1115 27.9477C50.8342 27.9186 50.5588 27.8742 50.2863 27.8148L50.2281 27.8018C49.9479 27.7384 49.6723 27.6565 49.4029 27.5568L49.3443 27.5347C49.0909 27.4384 48.8457 27.3222 48.6107 27.1872C48.5794 27.1689 48.5489 27.1507 48.5185 27.1325L48.4599 27.0964C48.1452 26.9044 47.866 26.6594 47.6347 26.3724C47.6143 26.3463 47.5947 26.3207 47.576 26.2946C47.3746 26.0249 47.251 25.705 47.219 25.3699H47.2138V24.304H47.4969C47.5215 24.2647 47.548 24.2256 47.576 24.1868C47.5947 24.1603 47.6143 24.1347 47.6347 24.1086C47.7122 24.0095 47.7967 23.916 47.8875 23.8289C48.0095 23.7119 48.1401 23.6043 48.2783 23.507C48.3817 23.4335 48.4929 23.3622 48.6119 23.2933C49.6571 22.7631 50.8126 22.4868 51.9846 22.4868C53.1565 22.4868 54.3121 22.7631 55.3573 23.2933C55.476 23.362 55.587 23.4332 55.6903 23.507C55.8286 23.6043 55.9593 23.7119 56.0813 23.8289C56.2072 23.9493 56.3206 24.0821 56.4197 24.2254C56.4379 24.2515 56.4548 24.2775 56.4713 24.304H56.7502Z" fill="#FF9D4D"/>
<path d="M51.9806 22.5451C53.1455 22.5203 54.2972 22.7954 55.3252 23.3438C55.4411 23.4107 55.5518 23.4819 55.6539 23.5545C55.7894 23.6501 55.9177 23.7558 56.0374 23.8707C56.1605 23.9885 56.2714 24.1184 56.3684 24.2585C56.3849 24.2824 56.4014 24.3072 56.4187 24.335L56.4361 24.3623H56.6933V25.3109L56.6889 25.3648C56.664 25.6389 56.5739 25.9031 56.4262 26.1353C56.4092 26.1631 56.3901 26.1922 56.3692 26.2222C56.1506 26.5278 55.8757 26.7889 55.5592 26.9914L55.5019 27.0292C55.4459 27.0652 55.3868 27.1009 55.3281 27.1356C55.1221 27.2538 54.9081 27.3574 54.6875 27.4457L54.6293 27.4687C54.3624 27.5722 54.0887 27.6574 53.8102 27.7237L53.7532 27.7376C53.4829 27.8 53.2092 27.8472 52.9336 27.8792L52.8758 27.8857C52.6035 27.9157 52.3298 27.9318 52.0558 27.9339H51.9824C51.7127 27.9339 51.4421 27.9205 51.1772 27.894L51.1202 27.8883C50.845 27.8599 50.5715 27.8164 50.3011 27.758L50.2433 27.745C49.9653 27.6821 49.6918 27.601 49.4245 27.5022L49.4177 27.4996L49.3669 27.4805C49.1166 27.3853 48.8741 27.2706 48.6419 27.1373C48.611 27.1195 48.5806 27.1013 48.5511 27.083L48.4934 27.0474C48.1841 26.8589 47.9095 26.6183 47.682 26.3364C47.6637 26.3138 47.6456 26.2891 47.6252 26.2608C47.4291 26 47.3088 25.6901 47.2777 25.3652L47.2733 25.3114V24.3628H47.5305L47.5478 24.335C47.5713 24.2972 47.5974 24.2585 47.6247 24.2203C47.6417 24.1964 47.6603 24.1712 47.6816 24.1443C47.7574 24.0474 47.84 23.9559 47.9287 23.8707C48.0485 23.7558 48.1767 23.6501 48.3123 23.5545C48.4152 23.4811 48.5259 23.4103 48.641 23.3438C49.6689 22.7953 50.8206 22.5203 51.9854 22.5451H51.9806ZM51.9806 22.4864C50.8061 22.4635 49.6452 22.7411 48.608 23.293C48.4893 23.3616 48.3781 23.4328 48.2744 23.5067C48.1362 23.604 48.0056 23.7115 47.8836 23.8285C47.7928 23.9156 47.7083 24.0091 47.6308 24.1082C47.6104 24.1343 47.5908 24.1599 47.5721 24.1864C47.5432 24.2252 47.5169 24.2643 47.4931 24.3037H47.2099V25.3683H47.2151C47.2471 25.7034 47.3706 26.0233 47.5721 26.293C47.5908 26.319 47.6099 26.3451 47.6308 26.3707C47.8621 26.6578 48.1413 26.9027 48.456 27.0948L48.5146 27.1308C48.5446 27.1491 48.5755 27.1673 48.6068 27.1855C48.8418 27.3205 49.087 27.4367 49.3404 27.533L49.399 27.5552C49.6684 27.6549 49.944 27.7367 50.2242 27.8001L50.2824 27.8132C50.5548 27.8727 50.8303 27.9173 51.1076 27.9465L51.1663 27.9522C51.4354 27.9791 51.7058 27.9926 51.9763 27.9926H52.0506C52.3264 27.9904 52.6018 27.9742 52.8758 27.9439L52.9345 27.9374C53.212 27.9052 53.4876 27.8575 53.7598 27.7945L53.8184 27.7802C54.0991 27.7134 54.3747 27.6275 54.6436 27.523L54.7023 27.5C54.9254 27.4108 55.1419 27.306 55.3503 27.1864C55.4117 27.1508 55.4709 27.1148 55.5279 27.0783L55.5865 27.04C55.9091 26.8333 56.1892 26.5669 56.4119 26.2552C56.4323 26.2252 56.4522 26.1953 56.4705 26.1649C56.623 25.9249 56.7161 25.6519 56.742 25.3687H56.7471V25.2384V24.3041H56.4639C56.4474 24.2776 56.4305 24.2516 56.4123 24.2255C56.3132 24.0822 56.1998 23.9494 56.0739 23.829C55.9519 23.712 55.8213 23.6044 55.683 23.5071C55.5797 23.4333 55.4686 23.362 55.3499 23.2934C54.3127 22.7416 53.1518 22.464 51.9773 22.4869L51.9806 22.4864Z" fill="#FFE840"/>
<path d="M51.9824 27.0287C54.6165 27.0287 56.7519 25.7958 56.7519 24.275C56.7519 22.7541 54.6165 21.5212 51.9824 21.5212C49.3483 21.5212 47.2129 22.7541 47.2129 24.275C47.2129 25.7958 49.3483 27.0287 51.9824 27.0287Z" fill="#FFE840"/>
<path d="M56.0769 23.8289C55.8616 23.2832 55.4524 22.8362 54.9277 22.5737C54.0146 22.1103 53.0051 21.8689 51.9811 21.8689C50.9572 21.8689 49.9477 22.1103 49.0346 22.5737C48.5098 22.8361 48.1003 23.2831 47.8848 23.8289C47.8381 23.973 47.8142 24.1235 47.8141 24.275C47.824 24.5228 47.8866 24.7657 47.9976 24.9876C48.1087 25.2094 48.2657 25.405 48.4582 25.5615C48.4773 25.5793 48.4968 25.5962 48.5168 25.6132C48.6779 25.7502 48.8514 25.8719 49.035 25.9767C49.1338 26.0346 49.2363 26.0882 49.3425 26.1374L49.4012 26.1648C49.6676 26.2857 49.9436 26.3841 50.2264 26.4588L50.285 26.4745C50.5565 26.5438 50.8321 26.5953 51.1102 26.6287L51.1689 26.636C51.4386 26.6658 51.7098 26.6803 51.9811 26.6795H52.0533C52.3292 26.6772 52.6047 26.6588 52.8785 26.6243L52.9371 26.6165C53.2156 26.5795 53.4913 26.5239 53.7624 26.4501L53.821 26.4336C54.1046 26.3541 54.3806 26.2502 54.6463 26.1231C54.6658 26.114 54.6853 26.1044 54.7049 26.0944C54.7808 26.0565 54.8547 26.0167 54.9268 25.975C55.1441 25.8517 55.3466 25.704 55.5305 25.535C55.5505 25.5163 55.5701 25.4976 55.5892 25.4785C55.7582 25.3253 55.8947 25.1396 55.9906 24.9326C56.0865 24.7255 56.1399 24.5013 56.1474 24.2732C56.1472 24.1224 56.1234 23.9724 56.0769 23.8289ZM55.5896 25.1849C55.5709 25.2097 55.5514 25.2344 55.5309 25.2592C55.3145 25.5106 55.0553 25.7218 54.7652 25.8829L54.7053 25.9168C54.6862 25.9276 54.6667 25.9381 54.6467 25.948C54.3831 26.0868 54.1068 26.1997 53.8215 26.2851L53.7628 26.3025C53.4923 26.3811 53.2165 26.4403 52.9375 26.4797L52.8789 26.4875C52.6053 26.5242 52.3297 26.544 52.0537 26.5466H51.995C51.7192 26.5472 51.4437 26.531 51.1698 26.4979L51.1112 26.4905C50.8326 26.4549 50.5568 26.3999 50.2859 26.3259L50.2272 26.3099C49.9429 26.2294 49.6667 26.1228 49.402 25.9915L49.3434 25.9615C49.2942 25.936 49.2457 25.9094 49.1979 25.8816C48.9466 25.7404 48.7173 25.5631 48.5177 25.3552C48.4977 25.3335 48.4781 25.3117 48.459 25.29C48.2307 25.0574 48.0882 24.7542 48.055 24.4299C48.0218 24.1057 48.0998 23.7798 48.2762 23.5057C48.5098 23.1544 48.8264 22.8661 49.1979 22.6662C50.061 22.2291 51.0148 22.0014 51.9822 22.0014C52.9496 22.0014 53.9035 22.2291 54.7666 22.6662C55.1381 22.866 55.4544 23.1544 55.6878 23.5057C55.853 23.7594 55.9326 24.0593 55.9149 24.3615C55.8973 24.6637 55.7832 24.9522 55.5896 25.1849Z" fill="#FF9D4D"/>
<path d="M53.6138 24.2033C53.6527 24.1261 53.673 24.0408 53.673 23.9542C53.673 23.8677 53.6527 23.7824 53.6138 23.7052C53.5368 23.5416 53.412 23.4053 53.2559 23.3142C53.1359 23.2392 53.0063 23.1807 52.8706 23.1405C52.7234 23.0961 52.5715 23.0689 52.4181 23.0597C52.2632 23.05 52.1078 23.0601 51.9555 23.0897C51.808 23.117 51.6671 23.1721 51.5403 23.2521L51.4277 23.3238L51.0703 23.551L50.6359 23.8281L50.2781 24.0552L49.64 24.4613L50.3988 24.9443L50.4749 24.9925L51.5473 25.6749L51.6232 25.7235C51.6232 25.7235 53.7058 24.1716 53.6138 24.2033ZM51.5473 23.9988L51.6232 23.9501L51.6602 23.9267L51.8704 23.7929C51.8825 23.7851 51.896 23.7794 51.9086 23.7725C51.952 23.7486 51.9981 23.7299 52.0459 23.7169C52.1184 23.6985 52.193 23.6903 52.2678 23.6925C52.4197 23.6959 52.5676 23.741 52.6956 23.8229L52.7052 23.8289C52.7281 23.8433 52.7501 23.859 52.7712 23.8758C52.8121 23.902 52.8462 23.9375 52.8708 23.9794C52.8955 24.0213 52.9098 24.0684 52.9127 24.1169C52.9121 24.1628 52.8994 24.2078 52.8758 24.2472C52.8487 24.2909 52.8131 24.3287 52.7712 24.3584C52.7599 24.3667 52.7481 24.3753 52.7351 24.3831L52.6951 24.4083L52.5548 24.4978L52.1205 24.7745L52.002 24.8501L51.8152 24.9686L51.7114 24.9026L51.5954 24.8288L51.5468 24.7975L51.3297 24.6585L50.9213 24.3979L51.0347 24.3258L51.2267 24.2038L51.5473 23.9988Z" fill="#FF9D4D"/>
<path d="M47.7564 25.5276V26.4928C47.736 26.4667 47.7169 26.4411 47.6982 26.415V25.4495C47.7169 25.4755 47.7364 25.5016 47.7564 25.5276Z" fill="#FFE840"/>
<path d="M48.5159 26.1674V27.1329L48.4573 27.0969V26.1313L48.5159 26.1674Z" fill="#FFE840"/>
<path d="M49.4003 26.5909V27.5564C49.3807 27.549 49.3612 27.5421 49.3416 27.5342V26.5687L49.4003 26.5909Z" fill="#FFE840"/>
<path d="M50.2846 26.8493V27.8149L50.226 27.8019V26.8363L50.2846 26.8493Z" fill="#FFE840"/>
<path d="M51.1689 26.9879V27.9535L51.1102 27.9478V26.9823L51.1689 26.9879Z" fill="#FFE840"/>
<path d="M52.0533 27.0278V27.9934H51.9946V27.0278H52.0533Z" fill="#FFE840"/>
<path d="M52.9349 26.9727V27.9382L52.8763 27.9447V26.9792L52.9349 26.9727Z" fill="#FFE840"/>
<path d="M53.821 26.8159V27.7832L53.7623 27.7975V26.8277L53.821 26.8159Z" fill="#FFE840"/>
<path d="M54.7048 26.5358V27.5013L54.6462 27.5243V26.5588L54.7048 26.5358Z" fill="#FFE840"/>
<path d="M55.5892 26.0758V27.0413L55.5306 27.0796V26.114L55.5892 26.0758Z" fill="#FFE840"/>
<path d="M56.375 25.2975V26.263C56.3567 26.293 56.3368 26.3234 56.3163 26.3534V25.3878C56.3355 25.3579 56.355 25.3275 56.375 25.2975Z" fill="#FFE840"/>
<defs>
<filter id="filter0_d" x="0" y="0" width="104.303" height="103.434" filterUnits="userSpaceOnUse" color-interpolation-filters="sRGB">
<feFlood flood-opacity="0" result="BackgroundImageFix"/>
<feColorMatrix in="SourceAlpha" type="matrix" values="0 0 0 0 0 0 0 0 0 0 0 0 0 0 0 0 0 0 127 0"/>
<feOffset dy="20"/>
<feGaussianBlur stdDeviation="15"/>
<feColorMatrix type="matrix" values="0 0 0 0 0 0 0 0 0 0 0 0 0 0 0 0 0 0 0.102 0"/>
<feBlend mode="normal" in2="BackgroundImageFix" result="effect1_dropShadow"/>
<feBlend mode="normal" in="SourceGraphic" in2="effect1_dropShadow" result="shape"/>
</filter>
<linearGradient id="paint0_linear" x1="39.6246" y1="26.6759" x2="64.3334" y2="26.6759" gradientUnits="userSpaceOnUse">
<stop offset="0.35" stop-color="#9AA9E2"/>
<stop offset="0.635" stop-color="#B3BEEE"/>
<stop offset="0.957" stop-color="#D5DBFE"/>
</linearGradient>
<linearGradient id="paint1_linear" x1="50.7258" y1="35.7946" x2="64.3371" y2="35.7946" gradientUnits="userSpaceOnUse">
<stop offset="0.079" stop-color="#9AA9E2"/>
<stop offset="0.287" stop-color="#B2BDED"/>
<stop offset="0.517" stop-color="#C5CDF6"/>
<stop offset="0.751" stop-color="#D1D7FC"/>
<stop offset="0.995" stop-color="#D5DBFE"/>
</linearGradient>
<linearGradient id="paint2_linear" x1="39.625" y1="35.6772" x2="51.9793" y2="35.6772" gradientUnits="userSpaceOnUse">
<stop offset="0.079" stop-color="#9AA9E2"/>
<stop offset="0.153" stop-color="#A7B4E8"/>
<stop offset="0.299" stop-color="#BBC5F1"/>
<stop offset="0.465" stop-color="#CAD1F8"/>
<stop offset="0.666" stop-color="#D2D8FC"/>
<stop offset="0.995" stop-color="#D5DBFE"/>
</linearGradient>
<linearGradient id="paint3_linear" x1="41.1066" y1="36.008" x2="50.0445" y2="36.008" gradientUnits="userSpaceOnUse">
<stop stop-color="#2E256B"/>
<stop offset="1" stop-color="#5A3087"/>
</linearGradient>
<linearGradient id="paint4_linear" x1="41.7277" y1="35.8376" x2="50.0436" y2="35.8376" gradientUnits="userSpaceOnUse">
<stop offset="0.079" stop-color="#9AA9E2"/>
<stop offset="0.287" stop-color="#B2BDED"/>
<stop offset="0.517" stop-color="#C5CDF6"/>
<stop offset="0.751" stop-color="#D1D7FC"/>
<stop offset="0.995" stop-color="#D5DBFE"/>
</linearGradient>
<linearGradient id="paint5_linear" x1="40.4599" y1="27.7279" x2="40.8486" y2="27.4355" gradientUnits="userSpaceOnUse">
<stop stop-color="#2E256B"/>
<stop offset="1" stop-color="#5A3087"/>
</linearGradient>
<linearGradient id="paint6_linear" x1="42.9101" y1="29.1525" x2="43.2988" y2="28.8601" gradientUnits="userSpaceOnUse">
<stop stop-color="#2E256B"/>
<stop offset="1" stop-color="#5A3087"/>
</linearGradient>
<linearGradient id="paint7_linear" x1="45.5061" y1="30.689" x2="45.9917" y2="30.689" gradientUnits="userSpaceOnUse">
<stop stop-color="#2E256B"/>
<stop offset="1" stop-color="#5A3087"/>
</linearGradient>
<linearGradient id="paint8_linear" x1="47.9563" y1="32.1133" x2="48.4419" y2="32.1133" gradientUnits="userSpaceOnUse">
<stop stop-color="#2E256B"/>
<stop offset="1" stop-color="#5A3087"/>
</linearGradient>
<linearGradient id="paint9_linear" x1="50.4059" y1="33.5383" x2="50.8915" y2="33.5383" gradientUnits="userSpaceOnUse">
<stop stop-color="#2E256B"/>
<stop offset="1" stop-color="#5A3087"/>
</linearGradient>
<linearGradient id="paint10_linear" x1="63.1088" y1="28.2766" x2="63.4009" y2="27.8882" gradientUnits="userSpaceOnUse">
<stop stop-color="#483CA6"/>
<stop offset="1" stop-color="#59278F"/>
</linearGradient>
<linearGradient id="paint11_linear" x1="60.5616" y1="29.5072" x2="61.0472" y2="29.5072" gradientUnits="userSpaceOnUse">
<stop stop-color="#483CA6"/>
<stop offset="1" stop-color="#59278F"/>
</linearGradient>
<linearGradient id="paint12_linear" x1="58.2086" y1="31.1258" x2="58.5007" y2="30.7374" gradientUnits="userSpaceOnUse">
<stop stop-color="#483CA6"/>
<stop offset="1" stop-color="#59278F"/>
</linearGradient>
<linearGradient id="paint13_linear" x1="55.6615" y1="32.3557" x2="56.1471" y2="32.3557" gradientUnits="userSpaceOnUse">
<stop stop-color="#483CA6"/>
<stop offset="1" stop-color="#59278F"/>
</linearGradient>
<linearGradient id="paint14_linear" x1="53.2113" y1="33.7807" x2="53.6969" y2="33.7807" gradientUnits="userSpaceOnUse">
<stop stop-color="#483CA6"/>
<stop offset="1" stop-color="#59278F"/>
</linearGradient>
<linearGradient id="paint15_linear" x1="62.8752" y1="38.0758" x2="63.3609" y2="38.0758" gradientUnits="userSpaceOnUse">
<stop stop-color="#483CA6"/>
<stop offset="1" stop-color="#59278F"/>
</linearGradient>
<linearGradient id="paint16_linear" x1="60.4247" y1="39.5004" x2="60.9103" y2="39.5004" gradientUnits="userSpaceOnUse">
<stop stop-color="#483CA6"/>
<stop offset="1" stop-color="#59278F"/>
</linearGradient>
<linearGradient id="paint17_linear" x1="57.975" y1="40.9243" x2="58.4606" y2="40.9243" gradientUnits="userSpaceOnUse">
<stop stop-color="#483CA6"/>
<stop offset="1" stop-color="#59278F"/>
</linearGradient>
<linearGradient id="paint18_linear" x1="55.5249" y1="42.3493" x2="56.0105" y2="42.3493" gradientUnits="userSpaceOnUse">
<stop stop-color="#483CA6"/>
<stop offset="1" stop-color="#59278F"/>
</linearGradient>
<linearGradient id="paint19_linear" x1="53.0748" y1="43.7744" x2="53.5604" y2="43.7744" gradientUnits="userSpaceOnUse">
<stop stop-color="#483CA6"/>
<stop offset="1" stop-color="#59278F"/>
</linearGradient>
<linearGradient id="paint20_linear" x1="40.3622" y1="38.1787" x2="40.8478" y2="38.1787" gradientUnits="userSpaceOnUse">
<stop stop-color="#2E256B"/>
<stop offset="1" stop-color="#5A3087"/>
</linearGradient>
<linearGradient id="paint21_linear" x1="42.6669" y1="39.491" x2="43.0556" y2="39.1986" gradientUnits="userSpaceOnUse">
<stop stop-color="#2E256B"/>
<stop offset="1" stop-color="#5A3087"/>
</linearGradient>
<linearGradient id="paint22_linear" x1="45.2629" y1="41.0279" x2="45.7485" y2="41.0279" gradientUnits="userSpaceOnUse">
<stop stop-color="#2E256B"/>
<stop offset="1" stop-color="#5A3087"/>
</linearGradient>
<linearGradient id="paint23_linear" x1="47.7143" y1="42.453" x2="48.2" y2="42.453" gradientUnits="userSpaceOnUse">
<stop stop-color="#2E256B"/>
<stop offset="1" stop-color="#5A3087"/>
</linearGradient>
<linearGradient id="paint24_linear" x1="50.1627" y1="43.8772" x2="50.6483" y2="43.8772" gradientUnits="userSpaceOnUse">
<stop stop-color="#2E256B"/>
<stop offset="1" stop-color="#5A3087"/>
</linearGradient>
</defs>
</svg>
