<svg width="39" height="40" viewBox="0 0 39 40" fill="none" xmlns="http://www.w3.org/2000/svg">
<path d="M39 19.5C39 8.73045 30.2696 0 19.5 0C8.73045 0 0 8.73045 0 19.5V20.5C0 31.2696 8.73045 40 19.5 40C30.2696 40 39 31.2696 39 20.5V19.5Z" fill="#F7F7F7"/>
<path d="M38.5 19.5C38.5 9.00659 29.9934 0.5 19.5 0.5C9.00659 0.5 0.5 9.00659 0.5 19.5V20.5C0.5 30.9934 9.00659 39.5 19.5 39.5C29.9934 39.5 38.5 30.9934 38.5 20.5V19.5Z" stroke="#F7F7F7"/>
<path d="M19.8281 12.7563V26.8985" stroke="black" stroke-width="4" stroke-linecap="round"/>
<path d="M26.8992 19.8274H12.7571" stroke="black" stroke-width="4" stroke-linecap="round"/>
</svg>
