<svg width="43" height="29" viewBox="0 0 43 29" fill="none" xmlns="http://www.w3.org/2000/svg">
<path d="M2.63024 28.931H39.4522C40.1497 28.9307 40.8185 28.6536 41.3116 28.1604C41.8048 27.6672 42.082 26.9984 42.0822 26.301V2.62999C42.082 1.93255 41.8048 1.26375 41.3116 0.770592C40.8185 0.277429 40.1497 0.000257405 39.4522 -7.62939e-06H2.63024C1.93281 0.000257405 1.26401 0.277429 0.770846 0.770592C0.277683 1.26375 0.000509175 1.93255 0.000244141 2.62999L0.000244141 26.3C0.00024409 26.9976 0.277301 27.6667 0.770493 28.16C1.26368 28.6534 1.93263 28.9307 2.63024 28.931Z" fill="#1E88E5"/>
<path d="M2.63022 28.936H39.4522C39.7987 28.94 40.1425 28.8747 40.4634 28.744C40.7843 28.6132 41.0759 28.4197 41.3209 28.1746C41.5659 27.9296 41.7595 27.6381 41.8902 27.3172C42.021 26.9963 42.0862 26.6525 42.0822 26.306C42.082 26.0996 42.0333 25.8961 41.9401 25.712C41.8468 25.5279 41.7115 25.3682 41.5452 25.246L21.8202 12.091C21.5945 11.9252 21.3218 11.8358 21.0417 11.8358C20.7617 11.8358 20.4889 11.9252 20.2632 12.091L0.537225 25.242C0.370913 25.3642 0.235662 25.5239 0.142383 25.708C0.0491042 25.8921 0.0004086 26.0956 0.000224639 26.302C-0.00433462 26.6488 0.0605487 26.993 0.191054 27.3144C0.321559 27.6358 0.515048 27.9278 0.760126 28.1732C1.0052 28.4187 1.29692 28.6126 1.61809 28.7436C1.93926 28.8746 2.28339 28.94 2.63022 28.936Z" fill="#2196F3"/>
<path d="M2.63018 -7.97358e-06H39.4522C39.7987 -0.00402957 40.1425 0.0612476 40.4634 0.191993C40.7843 0.322739 41.0758 0.516313 41.3208 0.761337C41.5658 1.00636 41.7594 1.29789 41.8902 1.6188C42.0209 1.9397 42.0862 2.2835 42.0822 2.62999C42.082 2.8364 42.0333 3.03987 41.94 3.224C41.8467 3.40812 41.7115 3.56775 41.5452 3.68999L21.8092 17.859C21.5857 18.0193 21.3177 18.1055 21.0427 18.1055C20.7677 18.1055 20.4996 18.0193 20.2762 17.859L0.539175 3.68999C0.372202 3.56824 0.23635 3.40877 0.142685 3.22456C0.0490203 3.04036 0.000191097 2.83664 0.000175124 2.62999C-0.00384647 2.2835 0.061434 1.9397 0.19218 1.6188C0.322926 1.29789 0.516499 1.00636 0.761522 0.761337C1.00655 0.516313 1.29808 0.322739 1.61898 0.191993C1.93988 0.0612476 2.28368 -0.00402957 2.63018 -7.97358e-06Z" fill="#64B5F6"/>
</svg>
