<svg width="16" height="16" viewBox="0 0 16 16" fill="none" xmlns="http://www.w3.org/2000/svg">
<g clip-path="url(#clip0)">
<path d="M7.99934 15.9994C7.458 16.0003 6.91794 15.9467 6.38734 15.8394C5.36424 15.631 4.39216 15.2232 3.52654 14.6394C2.24031 13.771 1.23351 12.5483 0.628141 11.1194C0.422276 10.6335 0.265236 10.1283 0.159341 9.61137C-0.0573456 8.54736 -0.0573456 7.45059 0.159341 6.38657C0.367746 5.36347 0.775497 4.39139 1.35934 3.52577C2.2295 2.23888 3.45454 1.23228 4.88574 0.628172C5.36957 0.422709 5.87256 0.265675 6.38734 0.159372C7.45136 -0.057315 8.54813 -0.057315 9.61214 0.159372C10.6352 0.367777 11.6073 0.775527 12.4729 1.35937C13.7592 2.2277 14.766 3.45042 15.3713 4.87937C15.5769 5.36528 15.7337 5.87044 15.8393 6.38737C16.056 7.45139 16.056 8.54816 15.8393 9.61217C15.6309 10.6353 15.2232 11.6074 14.6393 12.473C13.771 13.7592 12.5483 14.766 11.1193 15.3714C10.6354 15.576 10.1324 15.7322 9.61774 15.8378C9.08511 15.9461 8.54288 16.0002 7.99934 15.9994ZM7.99934 3.76817C7.16249 3.76817 6.34443 4.01633 5.64861 4.48126C4.9528 4.94619 4.41047 5.60701 4.09022 6.38016C3.76997 7.15331 3.68618 8.00407 3.84944 8.82484C4.01271 9.64561 4.41569 10.3995 5.00743 10.9913C5.59918 11.583 6.3531 11.986 7.17388 12.1493C7.99465 12.3125 8.8454 12.2287 9.61855 11.9085C10.3917 11.5882 11.0525 11.0459 11.5175 10.3501C11.9824 9.65428 12.2305 8.83622 12.2305 7.99937C12.2282 6.8779 11.7817 5.80303 10.9887 5.01003C10.1957 4.21703 9.12081 3.7705 7.99934 3.76817Z" fill="url(#paint0_linear)"/>
</g>
<defs>
<linearGradient id="paint0_linear" x1="7.99934" y1="-0.00314331" x2="7.99934" y2="15.9994" gradientUnits="userSpaceOnUse">
<stop stop-color="#562BCF"/>
<stop offset="1" stop-color="#A8EFFF"/>
</linearGradient>
<clipPath id="clip0">
<rect width="16" height="16" fill="white"/>
</clipPath>
</defs>
</svg>
