<svg width="92" height="32" viewBox="0 0 92 32" fill="none" xmlns="http://www.w3.org/2000/svg">
<rect width="4" height="32" fill="#C4C4C4"/>
<rect x="8" width="4" height="32" fill="#C4C4C4"/>
<rect x="16" width="4" height="32" fill="#C4C4C4"/>
<rect x="24" width="4" height="32" fill="#C4C4C4"/>
<rect x="32" width="4" height="32" fill="#C4C4C4"/>
<rect x="40" width="4" height="32" fill="#C4C4C4"/>
<rect x="48" width="4" height="32" fill="#C4C4C4"/>
<rect x="56" width="4" height="32" fill="#C4C4C4"/>
<rect x="64" width="4" height="32" fill="#C4C4C4"/>
<rect x="72" width="4" height="32" fill="#C4C4C4"/>
<rect x="80" width="4" height="32" fill="#C4C4C4"/>
<rect x="88" width="4" height="32" fill="#C4C4C4"/>
<rect x="40" y="16" width="4" height="16" fill="#572F85"/>
<rect x="48" y="8.66663" width="4" height="23.3333" fill="#572F85"/>
<rect x="56" y="16" width="4" height="16" fill="#572F85"/>
<rect x="64" y="4" width="4" height="28" fill="#572F85"/>
<rect x="72" y="22" width="4" height="10" fill="#572F85"/>
<rect x="80" y="12.6666" width="4" height="19.3333" fill="#572F85"/>
<rect x="88" y="8.66663" width="4" height="23.3333" fill="#572F85"/>
</svg>
