<svg width="39" height="39" viewBox="0 0 39 39" fill="none" xmlns="http://www.w3.org/2000/svg">
<g clip-path="url(#clip0)">
<path d="M31.937 15.5664C31.6226 15.5664 31.3678 15.3115 31.3678 14.9971V12.2926C31.3678 11.9782 31.6226 11.7233 31.937 11.7233C32.2515 11.7233 32.5063 11.9782 32.5063 12.2926V14.9971C32.5063 15.3115 32.2515 15.5664 31.937 15.5664Z" fill="#5A5A5A"/>
<path d="M28.0807 14.9971H34.3921C34.7837 14.9971 35.1011 15.3146 35.1011 15.7061V22.2343H28.0807V14.9971Z" fill="#5A5A5A"/>
<path d="M34.3921 14.9971H32.4067C32.7983 14.9971 33.1157 15.3146 33.1157 15.7061V21.5714H35.1011V15.7061C35.1011 15.3146 34.7836 14.9971 34.3921 14.9971Z" fill="#444444"/>
<path d="M31.9371 18.551C32.2505 18.551 32.5046 18.2969 32.5046 17.9835C32.5046 17.67 32.2505 17.416 31.9371 17.416C31.6237 17.416 31.3696 17.67 31.3696 17.9835C31.3696 18.2969 31.6237 18.551 31.9371 18.551Z" fill="#DDEAFB"/>
<path d="M19.468 4.72247C19.1536 4.72247 18.8988 4.46761 18.8988 4.15323V1.14014C18.8988 0.825772 19.1536 0.570905 19.468 0.570905C19.7825 0.570905 20.0373 0.825772 20.0373 1.14014V4.15323C20.0373 4.46761 19.7825 4.72247 19.468 4.72247Z" fill="#5A5A5A"/>
<path d="M23.2705 4.15323H15.6654C15.2738 4.15323 14.9564 4.47064 14.9564 4.8622V8.2752H23.9796V4.8622C23.9795 4.47064 23.6621 4.15323 23.2705 4.15323Z" fill="#5A5A5A"/>
<path d="M23.2706 4.15323H21.1786C21.5701 4.15323 21.8876 4.47064 21.8876 4.8622V8.2752H23.9795V4.8622C23.9795 4.47064 23.6621 4.15323 23.2706 4.15323Z" fill="#444444"/>
<path d="M25.3745 7.27288H13.5615C13.1699 7.27288 12.8525 7.59029 12.8525 7.98185V11.0739H26.0835V7.98185C26.0835 7.59036 25.7661 7.27288 25.3745 7.27288Z" fill="#82AEE3"/>
<path d="M25.3746 7.27288H23.2559C23.6474 7.27288 23.9648 7.59029 23.9648 7.98185V11.0739H26.0835V7.98185C26.0835 7.59036 25.7661 7.27288 25.3746 7.27288Z" fill="#528FD8"/>
<path d="M28.0807 36.2553H37.0389V22.2805C37.0389 21.8889 36.7215 21.5715 36.3299 21.5715H28.0807V36.2553Z" fill="#82AEE3"/>
<path d="M36.3299 21.5715H34.5179C34.9095 21.5715 35.2269 21.8889 35.2269 22.2805V36.2553H37.0389V22.2805C37.0389 21.8889 36.7215 21.5715 36.3299 21.5715Z" fill="#528FD8"/>
<path d="M37.0388 36.2552H28.6499V34.2214H37.0388V36.2552Z" fill="#FE646F"/>
<path d="M37.0389 36.2552H35.2243V34.2214H37.0389V36.2552Z" fill="#FD4755"/>
<path d="M38.2907 35.686H37.0389H28.6499C28.3355 35.686 28.0807 35.9408 28.0807 36.2552C28.0807 36.5696 28.3355 36.8244 28.6499 36.8244H37.0389H38.2907C38.6052 36.8244 38.86 36.5696 38.86 36.2552C38.86 35.9408 38.6052 35.686 38.2907 35.686Z" fill="#5A5A5A"/>
<path d="M33.8413 25.8152H31.645C31.3306 25.8152 31.0758 25.5603 31.0758 25.2459C31.0758 24.9316 31.3306 24.6767 31.645 24.6767H33.8413C34.1558 24.6767 34.4106 24.9316 34.4106 25.2459C34.4106 25.5603 34.1558 25.8152 33.8413 25.8152Z" fill="#DDEAFB"/>
<path d="M33.8413 28.4978H31.645C31.3306 28.4978 31.0758 28.2429 31.0758 27.9285C31.0758 27.6142 31.3306 27.3593 31.645 27.3593H33.8413C34.1558 27.3593 34.4106 27.6142 34.4106 27.9285C34.4106 28.2429 34.1558 28.4978 33.8413 28.4978Z" fill="#DDEAFB"/>
<path d="M33.8413 31.1803H31.645C31.3306 31.1803 31.0758 30.9255 31.0758 30.6111C31.0758 30.2967 31.3306 30.0419 31.645 30.0419H33.8413C34.1558 30.0419 34.4106 30.2967 34.4106 30.6111C34.4106 30.9255 34.1558 31.1803 33.8413 31.1803Z" fill="#DDEAFB"/>
<path d="M8.25451 18.5582V12.263C8.25451 12.263 3.92883 12.8263 3.92883 17.7354L8.25451 18.5582Z" fill="#DDEAFB"/>
<path d="M7.68923 18.4547C7.37479 18.4547 7.12 18.1998 7.12 17.8855V9.28936C7.12 8.97499 7.37479 8.72012 7.68923 8.72012C8.00368 8.72012 8.25847 8.97499 8.25847 9.28936V17.8855C8.25847 18.1998 8.00368 18.4547 7.68923 18.4547Z" fill="#5A5A5A"/>
<path d="M10.2858 17.632V36.2552H1.89746V18.3409C1.89746 17.9492 2.21472 17.632 2.60635 17.632H10.2858Z" fill="#82AEE3"/>
<path d="M8.25842 17.632H10.2857V36.2552H8.25842V17.632Z" fill="#528FD8"/>
<path d="M10.286 36.2552H1.89711V34.2214H10.286V36.2552Z" fill="#FE646F"/>
<path d="M10.286 36.2552H8.25216V34.2214H10.286V36.2552Z" fill="#FD4755"/>
<path d="M7.17262 21.2106H4.97634C4.6619 21.2106 4.4071 20.9557 4.4071 20.6413C4.4071 20.327 4.6619 20.0721 4.97634 20.0721H7.17262C7.48707 20.0721 7.74186 20.327 7.74186 20.6413C7.74186 20.9557 7.48707 21.2106 7.17262 21.2106Z" fill="#DDEAFB"/>
<path d="M7.17262 23.8932H4.97634C4.6619 23.8932 4.4071 23.6383 4.4071 23.3239C4.4071 23.0095 4.6619 22.7547 4.97634 22.7547H7.17262C7.48707 22.7547 7.74186 23.0095 7.74186 23.3239C7.74186 23.6383 7.48707 23.8932 7.17262 23.8932Z" fill="#DDEAFB"/>
<path d="M7.17262 26.5757H4.97634C4.6619 26.5757 4.4071 26.3208 4.4071 26.0064C4.4071 25.6921 4.6619 25.4372 4.97634 25.4372H7.17262C7.48707 25.4372 7.74186 25.6921 7.74186 26.0064C7.74186 26.3208 7.48707 26.5757 7.17262 26.5757Z" fill="#DDEAFB"/>
<path d="M7.17262 29.2583H4.97634C4.6619 29.2583 4.4071 29.0034 4.4071 28.689C4.4071 28.3747 4.6619 28.1198 4.97634 28.1198H7.17262C7.48707 28.1198 7.74186 28.3747 7.74186 28.689C7.74186 29.0034 7.48707 29.2583 7.17262 29.2583Z" fill="#DDEAFB"/>
<path d="M7.17262 31.9408H4.97634C4.6619 31.9408 4.4071 31.686 4.4071 31.3716C4.4071 31.0572 4.6619 30.8024 4.97634 30.8024H7.17262C7.48707 30.8024 7.74186 31.0572 7.74186 31.3716C7.74186 31.686 7.48707 31.9408 7.17262 31.9408Z" fill="#DDEAFB"/>
<path d="M10.2861 35.686H1.89716C1.88433 35.686 1.87173 35.687 1.85913 35.6879C1.84653 35.687 1.83393 35.686 1.82111 35.686H0.569238C0.254791 35.686 0 35.9408 0 36.2552C0 36.5696 0.254791 36.8244 0.569238 36.8244H1.82111C1.83393 36.8244 1.84653 36.8234 1.85913 36.8226C1.87173 36.8234 1.88433 36.8244 1.89716 36.8244H10.2861C10.6005 36.8244 10.8553 36.5696 10.8553 36.2552C10.8553 35.9408 10.6005 35.686 10.2861 35.686Z" fill="#5A5A5A"/>
<path d="M28.65 36.2553L19.4799 37.2721L10.286 36.2553V11.1016C10.286 10.71 10.6034 10.3926 10.995 10.3926H27.9409C28.3325 10.3926 28.6499 10.71 28.6499 11.1016V36.2553H28.65Z" fill="#DDEAFB"/>
<path d="M27.941 10.3925H25.8922C26.2838 10.3925 26.6012 10.7099 26.6012 11.1015V36.8244L28.65 36.2552V11.1016C28.65 10.71 28.3326 10.3925 27.941 10.3925Z" fill="#CBE2FF"/>
<path d="M23.9793 24.4173V34.2211L19.4299 34.5907L14.98 34.2211V24.4173C14.98 24.056 15.2729 23.7631 15.6342 23.7631H23.325C23.6863 23.7631 23.9793 24.056 23.9793 24.4173Z" fill="#82AEE3"/>
<path d="M23.9793 24.4173V34.2211H17.5933V23.7631H23.325C23.6863 23.7631 23.9793 24.056 23.9793 24.4173Z" fill="#528FD8"/>
<path d="M23.3253 23.763H19.4799V34.2214H23.9796V24.4172C23.9796 24.0559 23.6867 23.763 23.3253 23.763Z" fill="#82AEE3"/>
<path d="M23.3253 23.763H21.2627C21.624 23.763 21.9169 24.0559 21.9169 24.4172V34.2214H23.9796V24.4172C23.9796 24.0559 23.6867 23.763 23.3253 23.763Z" fill="#528FD8"/>
<path d="M25.5455 34.2214H13.4143C13.1106 34.2214 12.8644 34.4676 12.8644 34.7712V36.2552L19.43 36.564L26.0954 36.2552V34.7712C26.0954 34.4675 25.8492 34.2214 25.5455 34.2214Z" fill="#FE646F"/>
<path d="M25.5455 34.2214H23.6589C23.9626 34.2214 24.2088 34.4676 24.2088 34.7712V36.2552L25.0785 36.564L26.0954 36.2552V34.7712C26.0954 34.4675 25.8492 34.2214 25.5455 34.2214Z" fill="#FD4755"/>
<path d="M14.3326 18.6075H13.43C13.1176 18.6075 12.8644 18.8607 12.8644 19.1731V20.0757C12.8644 20.3881 13.1176 20.6413 13.43 20.6413H14.3326C14.645 20.6413 14.8982 20.3881 14.8982 20.0757V19.1731C14.8982 18.8607 14.645 18.6075 14.3326 18.6075Z" fill="#82AEE3"/>
<path d="M25.5298 18.6075H24.6271C24.3147 18.6075 24.0615 18.8607 24.0615 19.1731V20.0757C24.0615 20.3881 24.3147 20.6413 24.6271 20.6413H25.5298C25.8422 20.6413 26.0954 20.3881 26.0954 20.0757V19.1731C26.0954 18.8607 25.8421 18.6075 25.5298 18.6075Z" fill="#82AEE3"/>
<path d="M19.9311 18.6075H19.0285C18.7161 18.6075 18.4629 18.8607 18.4629 19.1731V20.0757C18.4629 20.3881 18.7161 20.6413 19.0285 20.6413H19.9311C20.2435 20.6413 20.4967 20.3881 20.4967 20.0757V19.1731C20.4967 18.8607 20.2435 18.6075 19.9311 18.6075Z" fill="#82AEE3"/>
<path d="M14.3326 13.5148H13.43C13.1176 13.5148 12.8644 13.768 12.8644 14.0804V14.983C12.8644 15.2954 13.1176 15.5486 13.43 15.5486H14.3326C14.645 15.5486 14.8982 15.2954 14.8982 14.983V14.0804C14.8982 13.768 14.645 13.5148 14.3326 13.5148Z" fill="#82AEE3"/>
<path d="M25.5298 13.5148H24.6271C24.3147 13.5148 24.0615 13.768 24.0615 14.0804V14.983C24.0615 15.2954 24.3147 15.5486 24.6271 15.5486H25.5298C25.8422 15.5486 26.0954 15.2954 26.0954 14.983V14.0804C26.0954 13.768 25.8421 13.5148 25.5298 13.5148Z" fill="#82AEE3"/>
<path d="M19.9311 13.5148H19.0285C18.7161 13.5148 18.4629 13.768 18.4629 14.0804V14.983C18.4629 15.2954 18.7161 15.5486 19.0285 15.5486H19.9311C20.2435 15.5486 20.4967 15.2954 20.4967 14.983V14.0804C20.4967 13.768 20.2435 13.5148 19.9311 13.5148Z" fill="#82AEE3"/>
<path d="M28.65 36.2552H10.286V37.5801C10.286 37.9717 10.6034 38.2891 10.995 38.2891H27.9409C28.3325 38.2891 28.6499 37.9717 28.6499 37.5801V36.2552H28.65Z" fill="#5A5A5A"/>
<path d="M26.6012 36.2552V37.5801C26.6012 37.9717 26.2838 38.2891 25.8922 38.2891H27.941C28.3326 38.2891 28.65 37.9717 28.65 37.5801V36.2552H26.6012Z" fill="#444444"/>
</g>
<defs>
<clipPath id="clip0">
<rect width="38.86" height="38.86" fill="white"/>
</clipPath>
</defs>
</svg>
