<svg width="18" height="18" viewBox="0 0 18 18" fill="none" xmlns="http://www.w3.org/2000/svg">
<path d="M6.26534 13.2347L4.76538 11.7347C4.68867 11.6561 4.58081 11.616 4.47138 11.6252C4.36268 11.6331 4.26273 11.6878 4.19762 11.7752L0.0750311 17.4C-0.0492418 17.5657 -0.0156688 17.8008 0.150017 17.925C0.28336 18.025 0.466658 18.025 0.600001 17.925L6.2248 13.8002C6.39186 13.6778 6.4281 13.4431 6.30573 13.2761C6.29437 13.2606 6.28189 13.246 6.26832 13.2325L6.26534 13.2347Z" fill="#CFD8DC"/>
<path d="M11.14 10.6098L7.3902 6.85994C6.75934 6.36879 5.97335 6.12 5.17477 6.15871C4.1294 6.12215 3.11377 6.51036 2.35938 7.23491C1.75039 7.8439 1.81338 8.7851 2.54686 10.0331C3.23955 11.1192 4.05765 12.12 4.98426 13.015C6.47596 14.5059 8.35914 16.0553 9.73159 16.0553C10.1184 16.0651 10.4921 15.9148 10.7643 15.6398C12.3258 14.0792 11.9365 11.407 11.14 10.6098Z" fill="#D32F2F"/>
<path d="M14.1401 7.6099L10.3902 3.86002C10.2438 3.71363 10.0065 3.71363 9.86 3.86002L6.86011 6.8599C6.36963 7.35038 6.41013 8.43484 7.98507 10.015C9.01329 11.0432 9.833 11.4175 10.415 11.4175C10.6843 11.427 10.946 11.3269 11.1402 11.14L14.1401 8.14011C14.2865 7.99368 14.2865 7.75632 14.1401 7.6099Z" fill="#F44336"/>
<path d="M17.971 6.60717C17.913 6.46694 17.7763 6.37547 17.6245 6.37543C16.8116 6.37543 15.0266 5.49645 13.7652 4.23502C12.5037 2.97359 11.6248 1.18936 11.6248 0.375667C11.6251 0.168569 11.4575 0.000387287 11.2504 5.81874e-07C11.1506 -0.000175193 11.0548 0.0394797 10.9843 0.110176C9.45282 1.64237 8.97436 4.25527 11.3593 6.64018C12.2666 7.64847 13.5437 8.24617 14.8991 8.29686C16.0266 8.28393 17.1025 7.82276 17.8893 7.01515C17.9964 6.90817 18.0286 6.74723 17.971 6.60717Z" fill="#D32F2F"/>
<path d="M15.6401 2.3601C14.0516 0.772394 12.6155 0.000671387 11.2498 0.000671387C11.0427 0.000671387 10.8748 0.168572 10.8748 0.37567C10.8748 1.49539 11.9337 3.46481 13.2342 4.766C14.5346 6.0672 16.5056 7.12543 17.6245 7.12543C17.8316 7.12543 17.9995 6.95753 17.9995 6.75043C17.9995 5.38399 17.2278 3.94777 15.6401 2.3601Z" fill="#F44336"/>
</svg>
