<svg width="26" height="26" viewBox="0 0 26 26" fill="none" xmlns="http://www.w3.org/2000/svg">
<path d="M13.9288 17.9544L11.8083 17.8979C11.6986 17.8936 11.5927 17.9387 11.5196 18.0207C11.4461 18.1012 11.4113 18.2097 11.4242 18.3179L12.3025 25.2362C12.3263 25.442 12.5124 25.5894 12.7181 25.5656C12.8837 25.5464 13.0167 25.4203 13.0447 25.256L14.2885 18.3926C14.3255 18.1889 14.1904 17.9937 13.9866 17.9566C13.9677 17.9532 13.9486 17.9512 13.9294 17.9507L13.9288 17.9544Z" fill="#CFD8DC"/>
<path d="M15.6605 12.6955L10.3593 12.5543C9.56355 12.632 8.82199 12.9922 8.26911 13.5697C7.48534 14.2625 7.01543 15.243 6.96649 16.2878C6.94356 17.1487 7.63685 17.7884 9.02776 18.1894C10.2777 18.501 11.56 18.6644 12.8482 18.6763C14.9565 18.7319 17.3891 18.5606 18.3851 17.6163C18.6725 17.3573 18.8403 16.9911 18.8486 16.6043C18.908 14.3974 16.787 12.7261 15.6605 12.6955Z" fill="#D32F2F"/>
<path d="M15.7732 8.45455L10.472 8.31336C10.265 8.30787 10.0928 8.47119 10.0872 8.67818L9.97425 12.9192C9.95578 13.6126 10.7313 14.3717 12.9614 14.4348C14.415 14.4735 15.2674 14.1811 15.6897 13.7806C15.8917 13.6022 16.0127 13.3495 16.0251 13.0803L16.138 8.83933C16.1435 8.63234 15.9802 8.46008 15.7732 8.45455Z" fill="#F44336"/>
<path d="M17.8634 5.09108C17.7248 5.0292 17.5626 5.05693 17.4525 5.1613C16.8625 5.72064 14.9624 6.31089 13.1791 6.2634C11.3958 6.2159 9.53038 5.52589 8.97053 4.93541C8.8283 4.78488 8.59097 4.77813 8.44042 4.92034C8.36784 4.98891 8.32561 5.0836 8.32307 5.18342C8.26592 7.349 9.71646 9.57432 13.088 9.66412C14.4402 9.77155 15.7782 9.3266 16.7967 8.4308C17.606 7.64572 18.0694 6.57079 18.0847 5.44337C18.0889 5.29204 18.0015 5.15307 17.8634 5.09108Z" fill="#D32F2F"/>
<path d="M13.2499 3.61285C11.0048 3.55358 9.43165 3.9817 8.44059 4.92134C8.2903 5.06383 8.28398 5.30119 8.42647 5.45148C9.19687 6.26404 11.3204 6.96461 13.1593 7.01411C14.9983 7.06361 17.1567 6.47549 17.9687 5.70562C18.119 5.56313 18.1253 5.32576 17.9828 5.17548C17.0427 4.18387 15.4945 3.6726 13.2499 3.61285Z" fill="#F44336"/>
</svg>
