<svg width="37" height="37" viewBox="0 0 37 37" fill="none" xmlns="http://www.w3.org/2000/svg">
<path d="M28.3281 4.625H8.09375C7.13588 4.625 6.35938 5.40151 6.35938 6.35938V33.5312C6.35938 34.4891 7.13588 35.2656 8.09375 35.2656H28.3281C29.286 35.2656 30.0625 34.4891 30.0625 33.5312V6.35938C30.0625 5.40151 29.286 4.625 28.3281 4.625Z" fill="#435E99"/>
<path d="M28.9062 34.3984C28.8296 34.3984 28.7561 34.368 28.7019 34.3138C28.6476 34.2596 28.6172 34.186 28.6172 34.1094V5.78125C28.6172 5.70459 28.6476 5.63106 28.7019 5.57685C28.7561 5.52264 28.8296 5.49219 28.9062 5.49219C28.9829 5.49219 29.0564 5.52264 29.1106 5.57685C29.1649 5.63106 29.1953 5.70459 29.1953 5.78125V34.1094C29.1953 34.186 29.1649 34.2596 29.1106 34.3138C29.0564 34.368 28.9829 34.3984 28.9062 34.3984Z" fill="#2A447D"/>
<path d="M27.75 34.3984C27.6733 34.3984 27.5998 34.368 27.5456 34.3138C27.4914 34.2596 27.4609 34.186 27.4609 34.1094V5.78125C27.4609 5.70459 27.4914 5.63106 27.5456 5.57685C27.5998 5.52264 27.6733 5.49219 27.75 5.49219C27.8267 5.49219 27.9002 5.52264 27.9544 5.57685C28.0086 5.63106 28.0391 5.70459 28.0391 5.78125V34.1094C28.0391 34.186 28.0086 34.2596 27.9544 34.3138C27.9002 34.368 27.8267 34.3984 27.75 34.3984Z" fill="#2A447D"/>
<path d="M24.8594 4.625H8.09375C7.13588 4.625 6.35938 5.40151 6.35938 6.35938V33.5312C6.35938 34.4891 7.13588 35.2656 8.09375 35.2656H24.8594C25.8172 35.2656 26.5938 34.4891 26.5938 33.5312V6.35938C26.5938 5.40151 25.8172 4.625 24.8594 4.625Z" fill="#537EC2"/>
<path d="M10.4062 10.9844H8.67188C8.35259 10.9844 8.09375 11.2432 8.09375 11.5625V13.2969C8.09375 13.6162 8.35259 13.875 8.67188 13.875H10.4062C10.7255 13.875 10.9844 13.6162 10.9844 13.2969V11.5625C10.9844 11.2432 10.7255 10.9844 10.4062 10.9844Z" fill="#B1CDB4"/>
<path d="M10.4062 16.7656H8.67188C8.35259 16.7656 8.09375 17.0245 8.09375 17.3438V19.0781C8.09375 19.3974 8.35259 19.6562 8.67188 19.6562H10.4062C10.7255 19.6562 10.9844 19.3974 10.9844 19.0781V17.3438C10.9844 17.0245 10.7255 16.7656 10.4062 16.7656Z" fill="#B1CDB4"/>
<path d="M10.4062 22.5469H8.67188C8.35259 22.5469 8.09375 22.8057 8.09375 23.125V24.8594C8.09375 25.1787 8.35259 25.4375 8.67188 25.4375H10.4062C10.7255 25.4375 10.9844 25.1787 10.9844 24.8594V23.125C10.9844 22.8057 10.7255 22.5469 10.4062 22.5469Z" fill="#B1CDB4"/>
<path d="M10.4062 28.3281H8.67188C8.35259 28.3281 8.09375 28.587 8.09375 28.9062V30.6406C8.09375 30.9599 8.35259 31.2188 8.67188 31.2188H10.4062C10.7255 31.2188 10.9844 30.9599 10.9844 30.6406V28.9062C10.9844 28.587 10.7255 28.3281 10.4062 28.3281Z" fill="#B1CDB4"/>
<path d="M10.4062 14.1641H8.67188C8.44196 14.1638 8.22154 14.0724 8.05896 13.9098C7.89639 13.7472 7.80494 13.5268 7.80469 13.2969V11.5625C7.80494 11.3326 7.89639 11.1122 8.05896 10.9496C8.22154 10.787 8.44196 10.6956 8.67188 10.6953H10.4062C10.6362 10.6956 10.8566 10.787 11.0192 10.9496C11.1817 11.1122 11.2732 11.3326 11.2734 11.5625V13.2969C11.2732 13.5268 11.1817 13.7472 11.0192 13.9098C10.8566 14.0724 10.6362 14.1638 10.4062 14.1641ZM8.67188 11.2734C8.59524 11.2735 8.52176 11.304 8.46757 11.3582C8.41338 11.4124 8.38289 11.4859 8.38281 11.5625V13.2969C8.38289 13.3735 8.41338 13.447 8.46757 13.5012C8.52176 13.5554 8.59524 13.5859 8.67188 13.5859H10.4062C10.4829 13.5859 10.5564 13.5554 10.6106 13.5012C10.6647 13.447 10.6952 13.3735 10.6953 13.2969V11.5625C10.6952 11.4859 10.6647 11.4124 10.6106 11.3582C10.5564 11.304 10.4829 11.2735 10.4062 11.2734H8.67188Z" fill="#F3B73F"/>
<path d="M10.4062 19.9453H8.67188C8.44196 19.9451 8.22154 19.8536 8.05896 19.691C7.89639 19.5285 7.80494 19.308 7.80469 19.0781V17.3438C7.80494 17.1138 7.89639 16.8934 8.05896 16.7308C8.22154 16.5683 8.44196 16.4768 8.67188 16.4766H10.4062C10.6362 16.4768 10.8566 16.5683 11.0192 16.7308C11.1817 16.8934 11.2732 17.1138 11.2734 17.3438V19.0781C11.2732 19.308 11.1817 19.5285 11.0192 19.691C10.8566 19.8536 10.6362 19.9451 10.4062 19.9453ZM8.67188 17.0547C8.59524 17.0548 8.52176 17.0853 8.46757 17.1394C8.41338 17.1936 8.38289 17.2671 8.38281 17.3438V19.0781C8.38289 19.1548 8.41338 19.2282 8.46757 19.2824C8.52176 19.3366 8.59524 19.3671 8.67188 19.3672H10.4062C10.4829 19.3671 10.5564 19.3366 10.6106 19.2824C10.6647 19.2282 10.6952 19.1548 10.6953 19.0781V17.3438C10.6952 17.2671 10.6647 17.1936 10.6106 17.1394C10.5564 17.0853 10.4829 17.0548 10.4062 17.0547H8.67188Z" fill="#F3B73F"/>
<path d="M10.4062 25.7266H8.67188C8.44196 25.7263 8.22154 25.6349 8.05896 25.4723C7.89639 25.3097 7.80494 25.0893 7.80469 24.8594V23.125C7.80494 22.8951 7.89639 22.6747 8.05896 22.5121C8.22154 22.3495 8.44196 22.2581 8.67188 22.2578H10.4062C10.6362 22.2581 10.8566 22.3495 11.0192 22.5121C11.1817 22.6747 11.2732 22.8951 11.2734 23.125V24.8594C11.2732 25.0893 11.1817 25.3097 11.0192 25.4723C10.8566 25.6349 10.6362 25.7263 10.4062 25.7266ZM8.67188 22.8359C8.59524 22.836 8.52176 22.8665 8.46757 22.9207C8.41338 22.9749 8.38289 23.0484 8.38281 23.125V24.8594C8.38289 24.936 8.41338 25.0095 8.46757 25.0637C8.52176 25.1179 8.59524 25.1484 8.67188 25.1484H10.4062C10.4829 25.1484 10.5564 25.1179 10.6106 25.0637C10.6647 25.0095 10.6952 24.936 10.6953 24.8594V23.125C10.6952 23.0484 10.6647 22.9749 10.6106 22.9207C10.5564 22.8665 10.4829 22.836 10.4062 22.8359H8.67188Z" fill="#F3B73F"/>
<path d="M10.4062 31.5078H8.67188C8.44196 31.5076 8.22154 31.4161 8.05896 31.2535C7.89639 31.091 7.80494 30.8705 7.80469 30.6406V28.9062C7.80494 28.6763 7.89639 28.4559 8.05896 28.2933C8.22154 28.1308 8.44196 28.0393 8.67188 28.0391H10.4062C10.6362 28.0393 10.8566 28.1308 11.0192 28.2933C11.1817 28.4559 11.2732 28.6763 11.2734 28.9062V30.6406C11.2732 30.8705 11.1817 31.091 11.0192 31.2535C10.8566 31.4161 10.6362 31.5076 10.4062 31.5078ZM8.67188 28.6172C8.59524 28.6173 8.52176 28.6478 8.46757 28.7019C8.41338 28.7561 8.38289 28.8296 8.38281 28.9062V30.6406C8.38289 30.7173 8.41338 30.7907 8.46757 30.8449C8.52176 30.8991 8.59524 30.9296 8.67188 30.9297H10.4062C10.4829 30.9296 10.5564 30.8991 10.6106 30.8449C10.6647 30.7907 10.6952 30.7173 10.6953 30.6406V28.9062C10.6952 28.8296 10.6647 28.7561 10.6106 28.7019C10.5564 28.6478 10.4829 28.6173 10.4062 28.6172H8.67188Z" fill="#F3B73F"/>
<path d="M9.24999 13.0078C9.19282 13.0078 9.13694 12.9909 9.08941 12.9591C9.04187 12.9273 9.00482 12.8822 8.98295 12.8294C8.96107 12.7766 8.95534 12.7184 8.96649 12.6624C8.97764 12.6063 9.00516 12.5548 9.04558 12.5144L11.3581 10.2019C11.4123 10.1477 11.4858 10.1172 11.5625 10.1172C11.6391 10.1172 11.7127 10.1476 11.7669 10.2018C11.8211 10.256 11.8515 10.3296 11.8515 10.4062C11.8516 10.4829 11.8211 10.5564 11.7669 10.6106L9.4544 12.9231C9.42759 12.95 9.39573 12.9713 9.36065 12.9859C9.32557 13.0004 9.28796 13.0079 9.24999 13.0078Z" fill="#F57A08"/>
<path d="M9.24999 18.7891C9.19282 18.7891 9.13694 18.7721 9.08941 18.7403C9.04187 18.7086 9.00482 18.6634 8.98295 18.6106C8.96107 18.5578 8.95534 18.4997 8.96649 18.4436C8.97764 18.3876 9.00516 18.3361 9.04558 18.2956L11.3581 15.9831C11.3849 15.9563 11.4168 15.935 11.4519 15.9205C11.4869 15.9059 11.5245 15.8984 11.5625 15.8984C11.6004 15.8984 11.638 15.9059 11.6731 15.9204C11.7082 15.935 11.74 15.9563 11.7669 15.9831C11.7937 16.0099 11.815 16.0418 11.8295 16.0769C11.8441 16.1119 11.8515 16.1495 11.8515 16.1875C11.8516 16.2254 11.8441 16.263 11.8296 16.2981C11.815 16.3332 11.7937 16.365 11.7669 16.3919L9.4544 18.7044C9.42759 18.7313 9.39573 18.7526 9.36065 18.7671C9.32557 18.7817 9.28796 18.7891 9.24999 18.7891Z" fill="#F57A08"/>
<path d="M9.24999 24.5703C9.19282 24.5703 9.13694 24.5534 9.08941 24.5216C9.04187 24.4898 9.00482 24.4447 8.98295 24.3919C8.96107 24.3391 8.95534 24.281 8.96649 24.2249C8.97764 24.1688 9.00516 24.1173 9.04558 24.0769L11.3581 21.7644C11.4123 21.7102 11.4858 21.6797 11.5625 21.6797C11.6391 21.6797 11.7127 21.7101 11.7669 21.7643C11.8211 21.8185 11.8515 21.8921 11.8515 21.9687C11.8516 22.0454 11.8211 22.1189 11.7669 22.1731L9.4544 24.4856C9.42759 24.5125 9.39573 24.5338 9.36065 24.5484C9.32557 24.5629 9.28796 24.5704 9.24999 24.5703Z" fill="#F57A08"/>
<path d="M23.4141 8.09375C23.893 8.09375 24.2812 7.57608 24.2812 6.9375C24.2812 6.29892 23.893 5.78125 23.4141 5.78125C22.9351 5.78125 22.5469 6.29892 22.5469 6.9375C22.5469 7.57608 22.9351 8.09375 23.4141 8.09375Z" fill="#435E99"/>
<path d="M25.4375 4.33594C25.4375 4.4335 25.4332 4.53033 25.4252 4.625H24.2639C24.2756 4.52909 24.2814 4.43256 24.2812 4.33594C24.2812 3.5374 23.8932 2.89062 23.4141 2.89062C22.9349 2.89062 22.5469 3.5374 22.5469 4.33594C22.5469 5.13447 22.9349 5.78125 23.4141 5.78125C23.8318 5.78125 24.1801 6.17438 24.2625 6.6983C24.0065 6.85337 23.7133 6.93605 23.4141 6.9375C22.2968 6.9375 21.3906 5.77258 21.3906 4.33594C21.3906 2.8993 22.2968 1.73438 23.4141 1.73438C24.5313 1.73438 25.4375 2.8993 25.4375 4.33594Z" fill="#F3B73F"/>
<path d="M18.7891 8.09375C19.268 8.09375 19.6562 7.57608 19.6562 6.9375C19.6562 6.29892 19.268 5.78125 18.7891 5.78125C18.3101 5.78125 17.9219 6.29892 17.9219 6.9375C17.9219 7.57608 18.3101 8.09375 18.7891 8.09375Z" fill="#435E99"/>
<path d="M20.8125 4.33594C20.8125 4.4335 20.8082 4.53033 20.8002 4.625H19.6389C19.6506 4.52909 19.6564 4.43256 19.6562 4.33594C19.6562 3.5374 19.2682 2.89062 18.7891 2.89062C18.3099 2.89062 17.9219 3.5374 17.9219 4.33594C17.9219 5.13447 18.3099 5.78125 18.7891 5.78125C19.2068 5.78125 19.5551 6.17438 19.6375 6.6983C19.3815 6.85337 19.0883 6.93605 18.7891 6.9375C17.6718 6.9375 16.7656 5.77258 16.7656 4.33594C16.7656 2.8993 17.6718 1.73438 18.7891 1.73438C19.9063 1.73438 20.8125 2.8993 20.8125 4.33594Z" fill="#F3B73F"/>
<path d="M14.1641 8.09375C14.643 8.09375 15.0312 7.57608 15.0312 6.9375C15.0312 6.29892 14.643 5.78125 14.1641 5.78125C13.6851 5.78125 13.2969 6.29892 13.2969 6.9375C13.2969 7.57608 13.6851 8.09375 14.1641 8.09375Z" fill="#435E99"/>
<path d="M16.1875 4.33594C16.1875 4.4335 16.1832 4.53033 16.1752 4.625H15.0139C15.0256 4.52909 15.0314 4.43256 15.0312 4.33594C15.0312 3.5374 14.6432 2.89062 14.1641 2.89062C13.6849 2.89062 13.2969 3.5374 13.2969 4.33594C13.2969 5.13447 13.6849 5.78125 14.1641 5.78125C14.5818 5.78125 14.9301 6.17438 15.0125 6.6983C14.7565 6.85337 14.4633 6.93605 14.1641 6.9375C13.0468 6.9375 12.1406 5.77258 12.1406 4.33594C12.1406 2.8993 13.0468 1.73438 14.1641 1.73438C15.2813 1.73438 16.1875 2.8993 16.1875 4.33594Z" fill="#F3B73F"/>
<path d="M9.53906 8.09375C10.018 8.09375 10.4062 7.57608 10.4062 6.9375C10.4062 6.29892 10.018 5.78125 9.53906 5.78125C9.06013 5.78125 8.67188 6.29892 8.67188 6.9375C8.67188 7.57608 9.06013 8.09375 9.53906 8.09375Z" fill="#435E99"/>
<path d="M11.5625 4.33594C11.5625 4.4335 11.5582 4.53033 11.5502 4.625H10.3889C10.4006 4.52909 10.4064 4.43256 10.4062 4.33594C10.4062 3.5374 10.0182 2.89062 9.53906 2.89062C9.05994 2.89062 8.67188 3.5374 8.67188 4.33594C8.67188 5.13447 9.05994 5.78125 9.53906 5.78125C9.95676 5.78125 10.3051 6.17438 10.3875 6.6983C10.1315 6.85337 9.8383 6.93605 9.53906 6.9375C8.42184 6.9375 7.51562 5.77258 7.51562 4.33594C7.51562 2.8993 8.42184 1.73438 9.53906 1.73438C10.6563 1.73438 11.5625 2.8993 11.5625 4.33594Z" fill="#F3B73F"/>
<path d="M15.0312 11.8516H12.7188C12.6421 11.8516 12.5686 11.8211 12.5144 11.7669C12.4601 11.7127 12.4297 11.6392 12.4297 11.5625C12.4297 11.4858 12.4601 11.4123 12.5144 11.3581C12.5686 11.3039 12.6421 11.2734 12.7188 11.2734H15.0312C15.1079 11.2734 15.1814 11.3039 15.2356 11.3581C15.2899 11.4123 15.3203 11.4858 15.3203 11.5625C15.3203 11.6392 15.2899 11.7127 15.2356 11.7669C15.1814 11.8211 15.1079 11.8516 15.0312 11.8516Z" fill="#2A447D"/>
<path d="M23.7031 11.8516H16.7656C16.689 11.8516 16.6154 11.8211 16.5612 11.7669C16.507 11.7127 16.4766 11.6392 16.4766 11.5625C16.4766 11.4858 16.507 11.4123 16.5612 11.3581C16.6154 11.3039 16.689 11.2734 16.7656 11.2734H23.7031C23.7798 11.2734 23.8533 11.3039 23.9075 11.3581C23.9617 11.4123 23.9922 11.4858 23.9922 11.5625C23.9922 11.6392 23.9617 11.7127 23.9075 11.7669C23.8533 11.8211 23.7798 11.8516 23.7031 11.8516Z" fill="#2A447D"/>
<path d="M17.3438 13.5859H12.7188C12.6421 13.5859 12.5686 13.5555 12.5144 13.5013C12.4601 13.4471 12.4297 13.3735 12.4297 13.2969C12.4297 13.2202 12.4601 13.1467 12.5144 13.0925C12.5686 13.0383 12.6421 13.0078 12.7188 13.0078H17.3438C17.4204 13.0078 17.4939 13.0383 17.5481 13.0925C17.6024 13.1467 17.6328 13.2202 17.6328 13.2969C17.6328 13.3735 17.6024 13.4471 17.5481 13.5013C17.4939 13.5555 17.4204 13.5859 17.3438 13.5859Z" fill="#2A447D"/>
<path d="M23.7031 13.5859H19.0781C19.0015 13.5859 18.9279 13.5555 18.8737 13.5013C18.8195 13.4471 18.7891 13.3735 18.7891 13.2969C18.7891 13.2202 18.8195 13.1467 18.8737 13.0925C18.9279 13.0383 19.0015 13.0078 19.0781 13.0078H23.7031C23.7798 13.0078 23.8533 13.0383 23.9075 13.0925C23.9617 13.1467 23.9922 13.2202 23.9922 13.2969C23.9922 13.3735 23.9617 13.4471 23.9075 13.5013C23.8533 13.5555 23.7798 13.5859 23.7031 13.5859Z" fill="#2A447D"/>
<path d="M13.875 17.6328H12.7188C12.6421 17.6328 12.5686 17.6024 12.5144 17.5481C12.4601 17.4939 12.4297 17.4204 12.4297 17.3438C12.4297 17.2671 12.4601 17.1936 12.5144 17.1394C12.5686 17.0851 12.6421 17.0547 12.7188 17.0547H13.875C13.9517 17.0547 14.0252 17.0851 14.0794 17.1394C14.1336 17.1936 14.1641 17.2671 14.1641 17.3438C14.1641 17.4204 14.1336 17.4939 14.0794 17.5481C14.0252 17.6024 13.9517 17.6328 13.875 17.6328Z" fill="#2A447D"/>
<path d="M23.7031 17.6328H15.6094C15.5327 17.6328 15.4592 17.6024 15.405 17.5481C15.3508 17.4939 15.3203 17.4204 15.3203 17.3438C15.3203 17.2671 15.3508 17.1936 15.405 17.1394C15.4592 17.0851 15.5327 17.0547 15.6094 17.0547H23.7031C23.7798 17.0547 23.8533 17.0851 23.9075 17.1394C23.9617 17.1936 23.9922 17.2671 23.9922 17.3438C23.9922 17.4204 23.9617 17.4939 23.9075 17.5481C23.8533 17.6024 23.7798 17.6328 23.7031 17.6328Z" fill="#2A447D"/>
<path d="M17.9219 19.3672H12.7188C12.6421 19.3672 12.5686 19.3367 12.5144 19.2825C12.4601 19.2283 12.4297 19.1548 12.4297 19.0781C12.4297 19.0015 12.4601 18.9279 12.5144 18.8737C12.5686 18.8195 12.6421 18.7891 12.7188 18.7891H17.9219C17.9985 18.7891 18.0721 18.8195 18.1263 18.8737C18.1805 18.9279 18.2109 19.0015 18.2109 19.0781C18.2109 19.1548 18.1805 19.2283 18.1263 19.2825C18.0721 19.3367 17.9985 19.3672 17.9219 19.3672Z" fill="#2A447D"/>
<path d="M23.7031 19.3672H19.6562C19.5796 19.3672 19.5061 19.3367 19.4519 19.2825C19.3976 19.2283 19.3672 19.1548 19.3672 19.0781C19.3672 19.0015 19.3976 18.9279 19.4519 18.8737C19.5061 18.8195 19.5796 18.7891 19.6562 18.7891H23.7031C23.7798 18.7891 23.8533 18.8195 23.9075 18.8737C23.9617 18.9279 23.9922 19.0015 23.9922 19.0781C23.9922 19.1548 23.9617 19.2283 23.9075 19.2825C23.8533 19.3367 23.7798 19.3672 23.7031 19.3672Z" fill="#2A447D"/>
<path d="M15.0312 23.4141H12.7188C12.6421 23.4141 12.5686 23.3836 12.5144 23.3294C12.4601 23.2752 12.4297 23.2017 12.4297 23.125C12.4297 23.0483 12.4601 22.9748 12.5144 22.9206C12.5686 22.8664 12.6421 22.8359 12.7188 22.8359H15.0312C15.1079 22.8359 15.1814 22.8664 15.2356 22.9206C15.2899 22.9748 15.3203 23.0483 15.3203 23.125C15.3203 23.2017 15.2899 23.2752 15.2356 23.3294C15.1814 23.3836 15.1079 23.4141 15.0312 23.4141Z" fill="#2A447D"/>
<path d="M23.7031 23.4141H21.9688C21.8921 23.4141 21.8186 23.3836 21.7644 23.3294C21.7101 23.2752 21.6797 23.2017 21.6797 23.125C21.6797 23.0483 21.7101 22.9748 21.7644 22.9206C21.8186 22.8664 21.8921 22.8359 21.9688 22.8359H23.7031C23.7798 22.8359 23.8533 22.8664 23.9075 22.9206C23.9617 22.9748 23.9922 23.0483 23.9922 23.125C23.9922 23.2017 23.9617 23.2752 23.9075 23.3294C23.8533 23.3836 23.7798 23.4141 23.7031 23.4141Z" fill="#2A447D"/>
<path d="M20.2344 23.4141H16.7656C16.689 23.4141 16.6154 23.3836 16.5612 23.3294C16.507 23.2752 16.4766 23.2017 16.4766 23.125C16.4766 23.0483 16.507 22.9748 16.5612 22.9206C16.6154 22.8664 16.689 22.8359 16.7656 22.8359H20.2344C20.311 22.8359 20.3846 22.8664 20.4388 22.9206C20.493 22.9748 20.5234 23.0483 20.5234 23.125C20.5234 23.2017 20.493 23.2752 20.4388 23.3294C20.3846 23.3836 20.311 23.4141 20.2344 23.4141Z" fill="#2A447D"/>
<path d="M15.0312 25.1484H12.7188C12.6421 25.1484 12.5686 25.118 12.5144 25.0638C12.4601 25.0096 12.4297 24.936 12.4297 24.8594C12.4297 24.7827 12.4601 24.7092 12.5144 24.655C12.5686 24.6008 12.6421 24.5703 12.7188 24.5703H15.0312C15.1079 24.5703 15.1814 24.6008 15.2356 24.655C15.2899 24.7092 15.3203 24.7827 15.3203 24.8594C15.3203 24.936 15.2899 25.0096 15.2356 25.0638C15.1814 25.118 15.1079 25.1484 15.0312 25.1484Z" fill="#2A447D"/>
<path d="M21.9688 25.1484H16.7656C16.689 25.1484 16.6154 25.118 16.5612 25.0638C16.507 25.0096 16.4766 24.936 16.4766 24.8594C16.4766 24.7827 16.507 24.7092 16.5612 24.655C16.6154 24.6008 16.689 24.5703 16.7656 24.5703H21.9688C22.0454 24.5703 22.1189 24.6008 22.1731 24.655C22.2274 24.7092 22.2578 24.7827 22.2578 24.8594C22.2578 24.936 22.2274 25.0096 22.1731 25.0638C22.1189 25.118 22.0454 25.1484 21.9688 25.1484Z" fill="#2A447D"/>
<path d="M15.0312 29.1953H12.7188C12.6421 29.1953 12.5686 29.1649 12.5144 29.1106C12.4601 29.0564 12.4297 28.9829 12.4297 28.9062C12.4297 28.8296 12.4601 28.7561 12.5144 28.7019C12.5686 28.6476 12.6421 28.6172 12.7188 28.6172H15.0312C15.1079 28.6172 15.1814 28.6476 15.2356 28.7019C15.2899 28.7561 15.3203 28.8296 15.3203 28.9062C15.3203 28.9829 15.2899 29.0564 15.2356 29.1106C15.1814 29.1649 15.1079 29.1953 15.0312 29.1953Z" fill="#2A447D"/>
<path d="M23.7031 29.1953H16.7656C16.689 29.1953 16.6154 29.1649 16.5612 29.1106C16.507 29.0564 16.4766 28.9829 16.4766 28.9062C16.4766 28.8296 16.507 28.7561 16.5612 28.7019C16.6154 28.6476 16.689 28.6172 16.7656 28.6172H23.7031C23.7798 28.6172 23.8533 28.6476 23.9075 28.7019C23.9617 28.7561 23.9922 28.8296 23.9922 28.9062C23.9922 28.9829 23.9617 29.0564 23.9075 29.1106C23.8533 29.1649 23.7798 29.1953 23.7031 29.1953Z" fill="#2A447D"/>
<path d="M17.3438 30.9297H15.6094C15.5327 30.9297 15.4592 30.8992 15.405 30.845C15.3508 30.7908 15.3203 30.7173 15.3203 30.6406C15.3203 30.564 15.3508 30.4904 15.405 30.4362C15.4592 30.382 15.5327 30.3516 15.6094 30.3516H17.3438C17.4204 30.3516 17.4939 30.382 17.5481 30.4362C17.6024 30.4904 17.6328 30.564 17.6328 30.6406C17.6328 30.7173 17.6024 30.7908 17.5481 30.845C17.4939 30.8992 17.4204 30.9297 17.3438 30.9297Z" fill="#2A447D"/>
<path d="M13.875 30.9297H12.7188C12.6421 30.9297 12.5686 30.8992 12.5144 30.845C12.4601 30.7908 12.4297 30.7173 12.4297 30.6406C12.4297 30.564 12.4601 30.4904 12.5144 30.4362C12.5686 30.382 12.6421 30.3516 12.7188 30.3516H13.875C13.9517 30.3516 14.0252 30.382 14.0794 30.4362C14.1336 30.4904 14.1641 30.564 14.1641 30.6406C14.1641 30.7173 14.1336 30.7908 14.0794 30.845C14.0252 30.8992 13.9517 30.9297 13.875 30.9297Z" fill="#2A447D"/>
<path d="M23.7031 30.9297H19.0781C19.0015 30.9297 18.9279 30.8992 18.8737 30.845C18.8195 30.7908 18.7891 30.7173 18.7891 30.6406C18.7891 30.564 18.8195 30.4904 18.8737 30.4362C18.9279 30.382 19.0015 30.3516 19.0781 30.3516H23.7031C23.7798 30.3516 23.8533 30.382 23.9075 30.4362C23.9617 30.4904 23.9922 30.564 23.9922 30.6406C23.9922 30.7173 23.9617 30.7908 23.9075 30.845C23.8533 30.8992 23.7798 30.9297 23.7031 30.9297Z" fill="#2A447D"/>
</svg>
