<svg width="60" height="123" viewBox="0 0 60 123" fill="none" xmlns="http://www.w3.org/2000/svg">
<path d="M11.5337 58.8223L16.3392 108.712H43.2498L47.6433 58.8223H11.5337Z" fill="url(#paint0_linear_384:3261)"/>
<path d="M40.2284 108.713H19.2217V112.424H40.2284V108.713Z" fill="white"/>
<path d="M45.8572 55.7988H13.3174V58.9599H45.8572V55.7988Z" fill="white"/>
<path d="M11.5337 55.8H47.506C47.506 55.8 44.0736 27.9004 29.5199 27.9004C14.9662 27.9004 11.5337 55.8 11.5337 55.8Z" fill="#A18EFF" fill-opacity="0.81"/>
<path d="M34.7365 26.9375H24.3018V29.1365H34.7365V26.9375Z" fill="url(#paint1_linear_384:3261)"/>
<path d="M25.4009 26.9369L25.9501 25.5625H32.815L33.3642 26.9369H25.4009Z" fill="url(#paint2_linear_384:3261)"/>
<path d="M27.873 25.8375L28.9714 17.3164H30.4817L31.5801 25.8375H27.873Z" fill="url(#paint3_linear_384:3261)"/>
<path d="M29.9319 18.1416H29.52V0H29.7946L29.9319 18.1416Z" fill="url(#paint4_linear_384:3261)"/>
<path d="M25.8135 26.7999L26.2254 25.8379H28.5595L28.4222 26.7999H25.8135Z" fill="white"/>
<path d="M29.1081 17.4551L28.147 25.289H28.9708L29.52 17.4551H29.1081Z" fill="white"/>
<path d="M28.5596 26.7999L28.6969 25.8379H29.3834V26.7999H28.5596Z" fill="white"/>
<path opacity="0.53" d="M30.2065 17.4551L30.6184 25.289H31.4422L30.3438 17.4551H30.2065Z" fill="white"/>
<path opacity="0.53" d="M30.7559 25.6992H32.678L33.2272 26.7987H30.7559V25.6992Z" fill="white"/>
<path d="M29.52 5.35938H29.7946V8.38298H29.52V5.35938Z" fill="url(#paint5_linear_384:3261)"/>
<path d="M32.5407 25.8379H32.2661V16.4922H32.5407V25.8379Z" fill="url(#paint6_linear_384:3261)"/>
<path d="M26.9113 25.8384H26.6367V12.6445H26.774L26.9113 25.8384Z" fill="url(#paint7_linear_384:3261)"/>
<path d="M26.6367 17.8672H26.774V20.7534H26.6367V17.8672Z" fill="url(#paint8_linear_384:3261)"/>
<path d="M28.97 27.3496H24.8511V28.9989H28.97V27.3496Z" fill="white"/>
<path d="M12.4937 54.7008H22.3792C22.3792 54.7008 21.4181 41.0945 26.7727 30.0996H24.1641C24.3014 30.0996 18.3975 32.0237 12.4937 54.7008Z" fill="white"/>
<path opacity="0.35" d="M33.3642 30.0996C33.3642 30.0996 39.4054 36.834 41.8768 54.0136L11.5337 55.8002H45.8584C45.9957 55.8002 45.4465 40.6822 33.3642 30.0996Z" fill="#6F5ADC"/>
<path d="M14.6905 43.0185L31.441 42.4688L35.56 47.6913L45.9947 47.5539V47.9662L35.4227 48.2411L31.3037 43.0185L14.5532 43.4308L14.6905 43.0185Z" fill="#A18EFF"/>
<path opacity="0.35" d="M45.8573 47.2773H35.6972L31.5782 42.0547L14.8277 42.7419L14.6904 43.0167L31.4409 42.467L35.5599 47.6896L45.9946 47.5522L45.8573 47.2773Z" fill="#6F5ADC"/>
<path opacity="0.35" d="M13.3174 56.7609L42.2875 56.3486L44.0724 58.9599H45.9945V55.7988H13.3174V56.7609Z" fill="#6F5ADC"/>
<path opacity="0.35" d="M19.2217 109.812L37.4824 109.4L38.9927 112.424H40.3657V108.713H19.2217V109.812Z" fill="#6F5ADC"/>
<path d="M12.4937 59.373L17.2991 105.277H19.2213L15.5142 59.373H12.4937Z" fill="white"/>
<path d="M16.3392 108.712L11.5337 58.8223H47.6433L12.0829 58.9597L16.3392 108.712Z" fill="#6F5ADC"/>
<path d="M36.7962 63.0834H23.7528L23.2036 60.1973H37.3454L36.7962 63.0834Z" fill="url(#paint9_radial_384:3261)"/>
<path opacity="0.35" d="M23.7528 63.0834L23.2036 60.1973H37.3454L37.2081 61.0219L24.0274 60.8844L24.7139 63.0834H23.7528Z" fill="#6F5ADC"/>
<path d="M17.1621 111.598L18.2605 114.072H41.7386L42.9743 111.598H17.1621Z" fill="url(#paint10_linear_384:3261)"/>
<path d="M40.2283 114.072H20.1826V115.034H40.2283V114.072Z" fill="url(#paint11_linear_384:3261)"/>
<path d="M17.1624 111.598L0 121.493H1.51029L18.2608 114.072L17.1624 111.598Z" fill="white"/>
<path d="M42.9749 111.598L60 121.493H58.4897L41.7393 114.072L42.9749 111.598Z" fill="url(#paint12_linear_384:3261)"/>
<path d="M27.5972 111.598L30.0685 122.18H31.5788L32.9518 111.598H27.5972Z" fill="white"/>
<path d="M28.0093 111.873L28.4212 113.797H32.2655L32.6774 111.873H28.0093Z" fill="white"/>
<path d="M28.4199 113.934L28.6945 114.621H31.9897L32.127 113.934H28.4199Z" fill="white"/>
<path d="M0 121.493L17.1624 111.598H42.9746L17.5743 111.735L0 121.493Z" fill="#6F5ADC"/>
<path d="M44.073 99.367H27.8717V99.2296L26.3615 74.6284H13.0435V74.3535H26.6361V74.491L28.1463 99.0921H44.073V99.367Z" fill="url(#paint13_radial_384:3261)"/>
<path d="M46.9563 66.793H12.3569V67.2053H46.9563V66.793Z" fill="url(#paint14_radial_384:3261)"/>
<path d="M30.0679 108.575L29.9306 102.253H21.9672L20.8689 85.0737H14.0039V84.7988H21.1435L22.3791 101.841H30.2052L30.4798 108.575H30.0679Z" fill="#A18EFF"/>
<path opacity="0.35" d="M39.9532 60.1973L38.1683 106.239L17.2988 107.338H41.3262L46.8181 60.1973H39.9532Z" fill="white"/>
<defs>
<linearGradient id="paint0_linear_384:3261" x1="29.5885" y1="58.8223" x2="29.5885" y2="108.712" gradientUnits="userSpaceOnUse">
<stop stop-color="#6F5ADC"/>
<stop offset="1" stop-color="#AE9AFF"/>
</linearGradient>
<linearGradient id="paint1_linear_384:3261" x1="29.5191" y1="26.9375" x2="29.5191" y2="29.1365" gradientUnits="userSpaceOnUse">
<stop stop-color="#6F5ADC"/>
<stop offset="1" stop-color="#AE9AFF"/>
</linearGradient>
<linearGradient id="paint2_linear_384:3261" x1="29.3825" y1="25.5625" x2="29.3825" y2="26.9369" gradientUnits="userSpaceOnUse">
<stop stop-color="#6F5ADC"/>
<stop offset="1" stop-color="#AE9AFF"/>
</linearGradient>
<linearGradient id="paint3_linear_384:3261" x1="29.7266" y1="17.3164" x2="29.7266" y2="25.8375" gradientUnits="userSpaceOnUse">
<stop stop-color="#6F5ADC"/>
<stop offset="1" stop-color="#AE9AFF"/>
</linearGradient>
<linearGradient id="paint4_linear_384:3261" x1="29.726" y1="0" x2="29.726" y2="18.1416" gradientUnits="userSpaceOnUse">
<stop stop-color="#6F5ADC"/>
<stop offset="1" stop-color="#AE9AFF"/>
</linearGradient>
<linearGradient id="paint5_linear_384:3261" x1="29.6491" y1="8.41514" x2="29.6491" y2="5.42246" gradientUnits="userSpaceOnUse">
<stop stop-color="white" stop-opacity="0.79"/>
<stop offset="1" stop-color="white" stop-opacity="0.03"/>
</linearGradient>
<linearGradient id="paint6_linear_384:3261" x1="32.4034" y1="16.4922" x2="32.4034" y2="25.8379" gradientUnits="userSpaceOnUse">
<stop stop-color="#6F5ADC"/>
<stop offset="1" stop-color="#AE9AFF"/>
</linearGradient>
<linearGradient id="paint7_linear_384:3261" x1="26.774" y1="12.6445" x2="26.774" y2="25.8384" gradientUnits="userSpaceOnUse">
<stop stop-color="#6F5ADC"/>
<stop offset="1" stop-color="#AE9AFF"/>
</linearGradient>
<linearGradient id="paint8_linear_384:3261" x1="26.7179" y1="20.8057" x2="26.7179" y2="17.9097" gradientUnits="userSpaceOnUse">
<stop stop-color="white" stop-opacity="0.79"/>
<stop offset="1" stop-color="white"/>
</linearGradient>
<radialGradient id="paint9_radial_384:3261" cx="0" cy="0" r="1" gradientUnits="userSpaceOnUse" gradientTransform="translate(30.2822 61.7004) scale(5.08844 5.09354)">
<stop stop-color="white" stop-opacity="0.42"/>
<stop offset="1" stop-color="white"/>
</radialGradient>
<linearGradient id="paint10_linear_384:3261" x1="30.0682" y1="111.598" x2="30.0682" y2="114.072" gradientUnits="userSpaceOnUse">
<stop stop-color="#6F5ADC"/>
<stop offset="1" stop-color="#AE9AFF"/>
</linearGradient>
<linearGradient id="paint11_linear_384:3261" x1="30.2054" y1="114.072" x2="30.2054" y2="115.034" gradientUnits="userSpaceOnUse">
<stop stop-color="#6F5ADC"/>
<stop offset="1" stop-color="#AE9AFF"/>
</linearGradient>
<linearGradient id="paint12_linear_384:3261" x1="50.8696" y1="111.598" x2="50.8696" y2="121.493" gradientUnits="userSpaceOnUse">
<stop stop-color="#6F5ADC"/>
<stop offset="1" stop-color="#AE9AFF"/>
</linearGradient>
<radialGradient id="paint13_radial_384:3261" cx="0" cy="0" r="1" gradientUnits="userSpaceOnUse" gradientTransform="translate(28.5714 86.8412) scale(14.0968 14.1109)">
<stop stop-color="#A18EFF"/>
<stop offset="1" stop-color="#AE9AFF"/>
</radialGradient>
<radialGradient id="paint14_radial_384:3261" cx="0" cy="0" r="1" gradientUnits="userSpaceOnUse" gradientTransform="translate(29.64 66.9857) scale(12.2097 12.222)">
<stop stop-color="#A18EFF"/>
<stop offset="1" stop-color="#AE9AFF"/>
</radialGradient>
</defs>
</svg>
