<svg width="158" height="108" viewBox="0 0 158 108" fill="none" xmlns="http://www.w3.org/2000/svg">
<path d="M50.5742 61.7637L38.8882 67.5667L40.1389 79.3201L40.6008 79.4326L40.1389 67.5334L50.6978 62.4853L50.5742 61.7637Z" fill="url(#paint0_radial_371:3664)"/>
<path d="M68.6597 62.9141H67.2743L61.5156 67.2525L62.2557 78.0578L63.2474 78.137V67.5796L68.6597 62.9141Z" fill="url(#paint1_radial_371:3664)"/>
<path d="M44.7598 21.5449H52.4561V19.8886H44.7598V21.5449Z" fill="#451533"/>
<path d="M51.6452 19.8772L51.2285 18.8633H46.1567L45.7866 19.8772H51.6452Z" fill="#451533"/>
<path d="M49.8304 19.1118L49.0644 12.7559H47.9061L47.0698 19.1118H49.8304Z" fill="#451533"/>
<path d="M48.377 13.3757H48.6589V0H48.445L48.377 13.3757Z" fill="#451533"/>
<path d="M51.3404 19.7537L51.1036 19.1113H49.3799L49.4813 19.7537H51.3404Z" fill="white"/>
<path d="M48.9061 12.9258L49.6159 18.6504H49.0749L48.6582 12.9258H48.9061Z" fill="white"/>
<path d="M49.3232 19.7537L49.2107 19.1113H48.7148L48.76 19.7537H49.3232Z" fill="white"/>
<path opacity="0.53" d="M48.1177 12.9256L47.8358 18.6465H47.2163L47.9941 12.9219L48.1177 12.9256Z" fill="#3B1544"/>
<path opacity="0.53" d="M47.6635 19.0098H46.2921L45.9316 19.7499H47.6635V19.0098Z" fill="#3B1544"/>
<path d="M48.647 4H48.425L48.4102 6.20843H48.647V4Z" fill="url(#paint2_linear_371:3664)"/>
<path d="M46.3594 19.1125H46.5733V12.1934H46.4156L46.3594 19.1125Z" fill="#451533"/>
<path d="M50.5742 19.1117H50.7881V9.3418H50.6305L50.5742 19.1117Z" fill="#451533"/>
<path d="M50.7887 13.2188H50.62L50.6089 15.3598H50.7895L50.7887 13.2188Z" fill="url(#paint3_linear_371:3664)"/>
<path d="M52.0616 20.1484H49.019V21.377H52.0616V20.1484Z" fill="white"/>
<path d="M94.0944 17.3887H93.2492L92.6631 21.0625L92.911 20.95L94.0944 17.3887Z" fill="#451533"/>
<path d="M80.3572 14.8184H79.7037L79.6475 18.5033L79.8954 18.3908L80.3572 14.8184Z" fill="#451533"/>
<path opacity="0.28" d="M78.7347 107.706C122.219 107.706 157.469 106.889 157.469 105.88C157.469 104.872 122.219 104.055 78.7347 104.055C35.2507 104.055 0 104.872 0 105.88C0 106.889 35.2507 107.706 78.7347 107.706Z" fill="#610431"/>
<path d="M85.7894 101.848L85.97 80.607C91.2719 79.782 96.6696 79.782 101.971 80.607C107.211 81.0807 111.336 86.5122 111.336 93.1493C111.343 94.9899 111.011 96.8159 110.355 98.5357C108.913 102.31 105.994 105.06 102.467 105.612C99.0866 106.57 91.0522 106.413 85.7109 105.612L85.7894 101.848Z" fill="url(#paint4_radial_371:3664)"/>
<path opacity="0.25" d="M85.7549 105.644C91.0961 106.41 99.1306 106.568 102.511 105.644C105.982 105.092 108.901 102.342 110.399 98.5669C107.64 98.5021 104.918 97.9171 102.376 96.8425C100.335 95.9699 98.4801 94.7154 96.9103 93.1465L91.6475 97.2599L85.7763 101.848L85.7549 105.644Z" fill="white"/>
<path d="M86.8141 105.712C92.4028 105.712 96.9334 100.082 96.9334 93.1362C96.9334 86.1909 92.4028 80.5605 86.8141 80.5605C81.2254 80.5605 76.6948 86.1909 76.6948 93.1362C76.6948 100.082 81.2254 105.712 86.8141 105.712Z" fill="white"/>
<path d="M77.6191 93.1487C77.6191 99.4594 81.7326 104.575 86.8148 104.575C88.0062 104.549 89.178 104.267 90.2507 103.748C91.3234 103.228 92.2718 102.485 93.0316 101.566C94.9081 99.3276 95.9539 96.5093 95.9919 93.5883C95.9919 93.4403 95.9919 93.2937 95.9919 93.1487V92.5277C95.778 87.6594 93.1181 83.5919 89.5124 82.2619C88.6473 81.9382 87.7318 81.7703 86.8081 81.7661C81.7326 81.7106 77.6191 86.829 77.6191 93.1487Z" fill="url(#paint5_linear_371:3664)"/>
<path opacity="0.54" d="M77.6191 93.1483C77.6191 99.4591 81.7326 104.575 86.8148 104.575C88.0062 104.548 89.178 104.266 90.2507 103.747C91.3234 103.228 92.2718 102.484 93.0316 101.566C89.6508 100.969 86.4958 96.4595 87.082 90.185C87.7244 83.4235 89.5161 82.2068 89.5161 82.2068C88.651 81.8831 87.7355 81.7152 86.8118 81.7109C81.7326 81.7102 77.6191 86.8264 77.6191 93.1483Z" fill="url(#paint6_linear_371:3664)"/>
<path d="M87.0513 92.5273V93.5864H95.999V92.5273H87.0513Z" fill="#0F1132"/>
<path d="M90.9497 98.3076C93.3829 98.3076 95.3555 95.8506 95.3555 92.8198C95.3555 89.789 93.3829 87.332 90.9497 87.332C88.5165 87.332 86.5439 89.789 86.5439 92.8198C86.5439 95.8506 88.5165 98.3076 90.9497 98.3076Z" fill="#0F1132"/>
<path d="M90.4312 98.3076C92.8644 98.3076 94.8369 95.8506 94.8369 92.8198C94.8369 89.789 92.8644 87.332 90.4312 87.332C87.9979 87.332 86.0254 89.789 86.0254 92.8198C86.0254 95.8506 87.9979 98.3076 90.4312 98.3076Z" fill="#A18EFF"/>
<path d="M86.3525 92.8213C86.3525 95.4923 88.0881 97.6555 90.2402 97.6555H90.4319C92.4938 97.5201 94.1279 95.402 94.1279 92.8213C94.1279 90.2406 92.4938 88.1224 90.4319 87.9981H90.2402C88.0881 87.987 86.3525 90.1518 86.3525 92.8213Z" fill="#0F1132"/>
<path d="M86.769 92.8212C86.769 95.4019 88.4032 97.5201 90.4651 97.6555C92.527 97.5201 94.1611 95.4019 94.1611 92.8212C94.1611 90.2405 92.527 88.1224 90.4651 87.998C88.3691 88.1224 86.769 90.2405 86.769 92.8212Z" fill="url(#paint7_linear_371:3664)"/>
<path d="M111.121 95.7277H105.971L103.763 90.9726L96.7085 90.567V90.3184L103.921 90.7469L106.152 95.4094L111.155 95.533L111.121 95.7277Z" fill="#A18EFF"/>
<path d="M104.314 105.116H99.5779L98.6461 102.434H93.6201L93.4062 102.67L98.4544 102.603L99.4461 105.318H103.739L104.314 105.116Z" fill="#A18EFF"/>
<path d="M88.2907 80.6963L99.9841 80.6623L104.769 83.4347L108.048 83.8632L107.744 83.5361L104.848 83.2319L99.9871 80.5039L86.8135 80.5713L88.2907 80.6963Z" fill="#A18EFF"/>
<path opacity="0.35" d="M93.4069 102.669L98.4551 102.602L99.4468 105.318H103.739L103.108 105.498L99.13 105.442L98.2508 102.828L93.1797 102.907L93.4069 102.669Z" fill="#0C107F"/>
<path opacity="0.35" d="M111.051 96.1223L105.823 95.9417L103.513 91.2199L96.7744 90.9609L96.707 90.5664L103.762 90.972L105.97 95.7271H111.12L111.051 96.1223Z" fill="#0C107F"/>
<path opacity="0.35" d="M89.0908 80.8878L99.8524 80.7864L104.653 83.6824L108.146 83.9785L108.045 83.866L104.765 83.4375L99.9879 80.6621L88.2944 80.6962L89.0908 80.8878Z" fill="#0C107F"/>
<path d="M113.498 101.848L113.679 80.607C118.984 79.782 124.386 79.782 129.691 80.607C134.92 81.0807 139.045 86.5122 139.045 93.1494C139.05 94.9887 138.722 96.8137 138.076 98.5358C136.634 102.31 133.715 105.06 130.188 105.613C126.807 106.57 118.773 106.413 113.432 105.613L113.498 101.848Z" fill="url(#paint8_radial_371:3664)"/>
<path opacity="0.25" d="M113.465 105.645C118.806 106.411 126.841 106.569 130.221 105.645C133.7 105.093 136.622 102.343 138.109 98.568C135.346 98.5034 132.621 97.9184 130.075 96.8436C128.061 95.9746 126.229 94.7321 124.677 93.1816L119.403 97.2951L113.532 101.884L113.465 105.645Z" fill="white"/>
<path d="M114.524 105.712C120.113 105.712 124.643 100.082 124.643 93.1362C124.643 86.1909 120.113 80.5605 114.524 80.5605C108.935 80.5605 104.405 86.1909 104.405 93.1362C104.405 100.082 108.935 105.712 114.524 105.712Z" fill="white"/>
<path d="M105.329 93.1471C105.329 99.4579 109.443 104.573 114.525 104.573C115.717 104.55 116.89 104.269 117.963 103.75C119.036 103.231 119.984 102.485 120.742 101.565C122.618 99.3248 123.668 96.5084 123.717 93.5867V92.5269C123.514 87.6586 120.855 83.591 117.237 82.2048C116.372 81.8812 115.457 81.7133 114.533 81.709C109.443 81.709 105.329 86.8252 105.329 93.1471Z" fill="url(#paint9_linear_371:3664)"/>
<path opacity="0.54" d="M105.329 93.1483C105.329 99.4591 109.443 104.575 114.525 104.575C115.717 104.551 116.89 104.271 117.963 103.751C119.036 103.232 119.984 102.486 120.742 101.566C117.361 100.969 114.206 96.4595 114.792 90.185C115.434 83.4235 117.226 82.2068 117.226 82.2068C116.361 81.8831 115.445 81.7152 114.522 81.7109C109.443 81.7102 105.329 86.8264 105.329 93.1483Z" fill="url(#paint10_linear_371:3664)"/>
<path d="M114.761 92.5273V93.5864H123.776V92.5273H114.761Z" fill="#0F1132"/>
<path d="M118.671 98.3076C121.104 98.3076 123.077 95.8506 123.077 92.8198C123.077 89.789 121.104 87.332 118.671 87.332C116.238 87.332 114.265 89.789 114.265 92.8198C114.265 95.8506 116.238 98.3076 118.671 98.3076Z" fill="#0F1132"/>
<path d="M113.735 92.8198C113.735 95.8542 115.707 98.3076 118.141 98.3076C120.574 98.3076 122.558 95.8512 122.558 92.8198C122.558 89.7884 120.575 87.332 118.141 87.332C115.706 87.332 113.735 89.7884 113.735 92.8198Z" fill="#A18EFF"/>
<path d="M114.062 92.8213C114.062 95.4923 115.798 97.6555 117.95 97.6555H118.153C120.204 97.5201 121.838 95.402 121.838 92.8213C121.838 90.2406 120.204 88.1224 118.153 87.9981H117.95C115.798 87.987 114.062 90.1518 114.062 92.8213Z" fill="#0F1132"/>
<path d="M114.457 92.8212C114.457 95.4019 116.091 97.5201 118.141 97.6555C120.192 97.5201 121.826 95.4019 121.826 92.8212C121.826 90.2405 120.192 88.1224 118.141 87.998C116.068 88.1224 114.457 90.2405 114.457 92.8212Z" fill="url(#paint11_linear_371:3664)"/>
<path d="M138.831 95.7277H133.681L131.473 90.9726L124.43 90.567V90.3184L131.631 90.7469L133.873 95.4094L138.865 95.533L138.831 95.7277Z" fill="#A18EFF"/>
<path d="M132.036 105.116H127.303L126.357 102.434H121.342L121.128 102.67L126.176 102.603L127.157 105.318H131.449L132.036 105.116Z" fill="#A18EFF"/>
<path d="M116.012 80.6956L127.705 80.6615L132.472 83.4339L135.762 83.8624L135.447 83.5353L132.551 83.2311L127.706 80.5039L114.521 80.5713L116.012 80.6956Z" fill="#A18EFF"/>
<path opacity="0.35" d="M121.128 102.669L126.176 102.602L127.156 105.318H131.449L130.818 105.498L126.851 105.442L125.963 102.828L120.892 102.907L121.128 102.669Z" fill="#0C107F"/>
<path opacity="0.35" d="M138.764 96.1225L133.546 95.942L131.224 91.2202L124.489 90.9589L124.433 90.5645L131.475 90.97L133.684 95.7251H138.833L138.764 96.1225Z" fill="#0C107F"/>
<path opacity="0.35" d="M116.812 80.8868L127.562 80.7854L132.373 83.6814L135.851 83.9775L135.761 83.865L132.471 83.4364L127.704 80.6641L116.01 80.6981L116.812 80.8868Z" fill="#0C107F"/>
<path d="M57.9553 12.5312L55.3413 17.3877H55.758L58.3387 12.8576L57.9553 12.5312Z" fill="#451533"/>
<path opacity="0.42" d="M117.195 36.8034L111.648 50.3034L78.8223 49.4893L83.6033 33.2539L117.195 36.8034Z" fill="#1A2023"/>
<path d="M78.825 49.4922L72.3677 53.3007L104.687 53.9542L111.651 50.3033L78.825 49.4922Z" fill="url(#paint12_linear_371:3664)"/>
<path opacity="0.55" d="M117.195 36.8032L97.5979 20.103L66.688 14.6152L83.602 33.2537L117.195 36.8032Z" fill="#1A2023"/>
<path opacity="0.55" d="M66.6874 14.6152L44.7933 18.9648L33.0059 39.5867L45.9308 60.2086H73.0182L72.3647 53.3006L78.8249 49.4921L83.603 33.2537L66.6874 14.6152Z" fill="#1A2023"/>
<path d="M104.687 53.9543V59.6226L73.019 60.2088L72.3677 53.3008L104.687 53.9543Z" fill="url(#paint13_radial_371:3664)"/>
<path opacity="0.95" d="M72.9766 58.5857L45.4356 59.3524L40.3423 50.495L78.8271 49.4922L72.3698 53.3007L72.9766 58.5857Z" fill="#33373B"/>
<path d="M89.6199 17.3873V13.533L69.6855 9.62305V14.2116L89.6199 17.3873Z" fill="#592E49"/>
<path d="M78.3062 61.6846L88.6393 69.1218L90.4992 93.3383H91.0742L91.5249 67.4544L81.214 61.6816L78.3062 61.6846Z" fill="#0F0022"/>
<path d="M97.5649 61.3691L113.465 70.7239L117.003 93.3404L117.883 93.1487L115.674 69.428L100.472 61.3691H97.5649Z" fill="#0F0022"/>
<path d="M72.491 61.7871L66.7324 68.2555L64.2161 88.7198L63.4508 88.6857L63.251 67.5791L69.877 61.8656L72.491 61.7871Z" fill="#0F0022"/>
<path d="M57.166 61.5845L43.3618 68.571L42.077 88.9783L40.9728 88.7415L40.1387 67.5341L54.5401 60.6602L57.166 61.5845Z" fill="#0F0022"/>
<path d="M68.5361 9.62305H69.6855V14.2116L68.5361 13.9896V9.62305Z" fill="#451533"/>
<path d="M88.7416 16.6665V13.8378L70.6553 10.3105V13.7253L88.7416 16.6665Z" fill="#A18EFF"/>
<path d="M91.6143 17.3871L92.4594 13.4883L98.4882 14.9907L97.0569 18.3033L91.6143 17.3871Z" fill="#592E49"/>
<path d="M92.4603 13.4883H91.6151L91.04 17.1621L91.6151 17.3841L92.4603 13.4883Z" fill="#451533"/>
<path d="M96.7553 17.9178L98.0512 15.2357L92.9557 13.9961L92.1416 17.1178L96.7553 17.9178Z" fill="#A18EFF"/>
<path d="M60.4906 15.8993V3.59375H60.367L60.1982 15.9533L60.4906 15.8993Z" fill="#451533"/>
<path d="M58.7553 13.1727C61.2235 14.9756 64.0099 15.359 64.9721 14.029C65.9342 12.6991 64.7389 10.1635 62.27 8.3947C59.801 6.62588 57.0072 6.20847 56.0384 7.53841C55.0696 8.86836 56.3433 11.3699 58.7553 13.1727Z" fill="#595C7E"/>
<path d="M102.05 59.6705L99.6814 62.8033L47.8676 62.9839L47.2363 59.3574L102.05 59.6705Z" fill="#0F0022"/>
<path d="M59.0817 12.7226C61.5499 14.5255 64.3445 14.9088 65.3133 13.5789C66.282 12.249 65.0653 9.7023 62.5971 7.94459C60.1289 6.18687 57.3425 5.72431 56.3434 7.05648C55.3442 8.38864 56.6142 10.9198 59.0817 12.7226Z" fill="url(#paint14_linear_371:3664)"/>
<path d="M59.0703 12.4855C61.392 14.1877 64.0171 14.5474 64.9304 13.2996C65.8437 12.0518 64.6936 9.65984 62.3726 7.97095C60.0517 6.28206 57.471 5.92016 56.5259 7.17091C55.5808 8.42167 56.7605 10.7951 59.0703 12.4855Z" fill="url(#paint15_linear_371:3664)"/>
<path d="M78.8241 49.4921L83.6022 33.2537L66.6881 14.6152H66.3921L82.9938 33.1523L83.039 33.7607L78.8241 49.4921Z" fill="white"/>
<path d="M18.6834 101.419L18.8751 78.5547C21.9968 77.7658 31.1014 77.5186 36.1192 78.5547C41.7535 79.0728 46.1934 84.9195 46.1934 92.0769C46.2022 94.0591 45.8469 96.0261 45.1454 97.88C43.5912 101.95 40.4465 104.911 36.7083 105.498C33.0686 106.534 24.4228 106.365 18.6782 105.498L18.6834 101.419Z" fill="url(#paint16_radial_371:3664)"/>
<path opacity="0.25" d="M18.6494 105.53C24.4081 106.353 33.0509 106.522 36.6795 105.53C40.4207 104.944 43.5624 101.978 45.1166 97.9127C42.1447 97.8467 39.2122 97.2189 36.4738 96.0625C34.3038 95.1219 32.3309 93.7801 30.6589 92.1074L25.0246 96.548L18.6864 101.418L18.6494 105.53Z" fill="url(#paint17_linear_371:3664)"/>
<path d="M19.7876 105.599C25.7994 105.599 30.6729 99.54 30.6729 92.0653C30.6729 84.5907 25.7994 78.5312 19.7876 78.5312C13.7758 78.5312 8.90234 84.5907 8.90234 92.0653C8.90234 99.54 13.7758 105.599 19.7876 105.599Z" fill="#451533"/>
<path d="M9.89453 92.0653C9.89453 98.8267 14.3232 104.382 19.7888 104.382C21.0727 104.356 22.3358 104.053 23.4912 103.493C24.6467 102.933 25.6671 102.129 26.4822 101.137C28.5097 98.7311 29.6406 95.6972 29.6824 92.5515V91.4118C29.4603 86.1571 26.5947 81.7906 22.6959 80.2897C21.766 79.9419 20.7816 79.7624 19.7888 79.7598C14.3232 79.7598 9.89453 85.2705 9.89453 92.0653Z" fill="url(#paint18_linear_371:3664)"/>
<path opacity="0.54" d="M9.89453 92.066C9.89453 98.8275 14.3232 104.383 19.7888 104.383C21.0727 104.357 22.3358 104.054 23.4912 103.494C24.6467 102.933 25.6671 102.13 26.4822 101.137C22.8424 100.495 19.4513 95.6384 20.0819 88.8881C20.7805 81.6426 22.6959 80.2897 22.6959 80.2897C21.766 79.9419 20.7816 79.7624 19.7888 79.7598C14.3232 79.7605 9.89453 85.2712 9.89453 92.066Z" fill="url(#paint19_linear_371:3664)"/>
<path d="M20.0469 91.4115V92.5387H29.6814V91.4004L20.0469 91.4115Z" fill="#0F1132"/>
<path d="M24.2498 97.6312C26.8699 97.6312 28.9938 94.9877 28.9938 91.7267C28.9938 88.4658 26.8699 85.8223 24.2498 85.8223C21.6298 85.8223 19.5059 88.4658 19.5059 91.7267C19.5059 94.9877 21.6298 97.6312 24.2498 97.6312Z" fill="#0F1132"/>
<path d="M23.6864 97.6312C26.3064 97.6312 28.4304 94.9877 28.4304 91.7267C28.4304 88.4658 26.3064 85.8223 23.6864 85.8223C21.0663 85.8223 18.9424 88.4658 18.9424 91.7267C18.9424 94.9877 21.0663 97.6312 23.6864 97.6312Z" fill="#A18EFF"/>
<path d="M19.292 91.7162C19.292 94.59 21.1629 96.922 23.4839 96.922H23.6645C25.918 96.774 27.6313 94.4989 27.6313 91.7162C27.6313 88.9334 25.9188 86.668 23.6645 86.5215H23.4506C21.1629 86.5207 19.292 88.8535 19.292 91.7162Z" fill="#0F1132"/>
<path d="M19.7095 91.7162C19.7095 94.4997 21.4672 96.7762 23.6875 96.922C25.941 96.774 27.6544 94.4989 27.6544 91.7162C27.6544 88.9334 25.9188 86.668 23.6653 86.5215C21.4672 86.6673 19.7095 88.9438 19.7095 91.7162Z" fill="url(#paint20_linear_371:3664)"/>
<path d="M45.9539 94.8494H40.4247L38.0468 89.7332L30.4482 89.2936V89.0234L38.2014 89.4853L40.6127 94.5112L45.999 94.6467L45.9539 94.8494Z" fill="#A18EFF"/>
<path d="M38.6409 104.957H33.5469L32.533 102.07H27.1244L26.9023 102.329L32.3339 102.239L33.3929 105.18H38.0133L38.6409 104.957Z" fill="#A18EFF"/>
<path d="M21.3882 78.6647L33.9756 78.6195L39.1141 81.6169L42.6525 82.0787L42.3254 81.7183L39.2037 81.3912L33.9756 78.4648L19.7881 78.5322L21.3882 78.6647Z" fill="#A18EFF"/>
<path d="M30.2111 84.245C28.7828 82.3416 26.9806 80.7502 24.915 79.5684L38.0546 79.76C40.1117 80.9047 41.8299 82.5724 43.0354 84.5943L30.2111 84.245Z" fill="white"/>
<path d="M30.6851 85.2246H43.0357L43.5205 86.4088H31.1136L30.6851 85.2246Z" fill="white"/>
<path opacity="0.35" d="M26.8986 102.332L32.3301 102.242L33.3892 105.18H38.011L37.3346 105.361L33.0635 105.305L32.1169 102.487L26.6514 102.577L26.8986 102.332Z" fill="#0C107F"/>
<path opacity="0.35" d="M45.8866 95.2658L40.2619 95.0852L37.7714 89.9919L30.5156 89.7077L30.4482 89.291L38.0431 89.7306L40.4247 94.8484H45.9576L45.8866 95.2658Z" fill="#0C107F"/>
<path opacity="0.35" d="M22.2442 78.8663L33.8281 78.7538L39.0007 81.8755L42.7529 82.1908L42.6515 82.0783L39.1131 81.6165L33.9747 78.6191L21.3872 78.6643L22.2442 78.8663Z" fill="#0C107F"/>
<path d="M48.5232 101.419L48.7149 78.5547C51.8366 77.7658 60.9412 77.5186 65.9591 78.5547C71.5934 79.0728 76.0332 84.9195 76.0332 92.0769C76.042 94.0591 75.6868 96.0261 74.9852 97.88C73.431 101.95 70.2864 104.911 66.5482 105.498C62.9084 106.534 54.2538 106.365 48.5181 105.498L48.5232 101.419Z" fill="url(#paint21_radial_371:3664)"/>
<path opacity="0.25" d="M48.4551 105.536C54.2019 106.359 62.8565 106.528 66.4852 105.536C70.2264 104.95 73.368 101.984 74.9222 97.9183C71.9467 97.8513 69.0105 97.2236 66.2676 96.0681C64.1167 95.1045 62.1648 93.7473 60.5127 92.0664L54.8783 96.507L48.5224 101.42L48.4551 105.536Z" fill="white"/>
<path d="M49.627 105.599C55.6387 105.599 60.5122 99.54 60.5122 92.0653C60.5122 84.5907 55.6387 78.5312 49.627 78.5312C43.6152 78.5312 38.7417 84.5907 38.7417 92.0653C38.7417 99.54 43.6152 105.599 49.627 105.599Z" fill="white"/>
<path d="M39.7222 92.0658C39.7222 98.8273 44.1627 104.382 49.6276 104.382C50.9153 104.36 52.1829 104.059 53.3425 103.498C54.5022 102.938 55.5263 102.132 56.3439 101.137C58.3713 98.7316 59.5023 95.6977 59.544 92.5521C59.544 92.3944 59.544 92.2249 59.544 92.0673V91.4138C59.322 86.1591 56.4453 81.7926 52.5576 80.2917C51.6059 79.9371 50.598 79.7575 49.5824 79.7618C44.162 79.7603 39.7222 85.271 39.7222 92.0658Z" fill="url(#paint22_linear_371:3664)"/>
<path opacity="0.54" d="M39.7222 92.0661C39.7222 98.8276 44.1627 104.383 49.6276 104.383C50.9153 104.361 52.1829 104.059 53.3425 103.498C54.5022 102.938 55.5263 102.133 56.3439 101.137C52.7041 100.495 49.313 95.6385 49.9436 88.8881C50.6311 81.6426 52.5576 80.2897 52.5576 80.2897C51.6059 79.9351 50.598 79.7556 49.5824 79.7598C44.162 79.7606 39.7222 85.2713 39.7222 92.0661Z" fill="url(#paint23_linear_371:3664)"/>
<path d="M49.8867 91.4115V92.5387H59.5212V91.4004L49.8867 91.4115Z" fill="#0F1132"/>
<path d="M49.3345 91.7268C49.3345 94.9832 51.4645 97.632 54.0896 97.632C56.7147 97.632 58.8336 94.984 58.8336 91.7268C58.8336 88.4697 56.7147 85.8105 54.0896 85.8105C51.4645 85.8105 49.3345 88.4586 49.3345 91.7268Z" fill="#0F1132"/>
<path d="M48.7822 91.7268C48.7822 94.9832 50.9011 97.632 53.5262 97.632C56.1513 97.632 58.2702 94.984 58.2702 91.7268C58.2702 88.4697 56.1521 85.8105 53.5262 85.8105C50.9004 85.8105 48.7822 88.4586 48.7822 91.7268Z" fill="#A18EFF"/>
<path d="M49.1318 91.7162C49.1318 94.59 51.0028 96.922 53.3126 96.922H53.5265C55.7801 96.774 57.5045 94.4989 57.5045 91.7162C57.5045 88.9334 55.7468 86.668 53.5265 86.5215H53.3126C51.0028 86.5207 49.1318 88.8535 49.1318 91.7162Z" fill="#0F1132"/>
<path d="M49.5825 91.7162C49.5825 94.4997 51.3402 96.7762 53.5605 96.922C55.8141 96.774 57.5385 94.4989 57.5385 91.7162C57.5385 88.9334 55.7808 86.668 53.5605 86.5215C51.3069 86.6673 49.5825 88.9438 49.5825 91.7162Z" fill="url(#paint24_linear_371:3664)"/>
<path d="M75.7937 94.8494H70.2608L67.8718 89.7332L60.2881 89.2936V89.0234L68.0413 89.4853L70.4525 94.5112L75.83 94.6481L75.7937 94.8494Z" fill="#A18EFF"/>
<path d="M68.48 104.957H63.3733L62.3594 102.07H56.9634L56.7266 102.329L62.1692 102.239L63.2283 105.18H67.8487L68.48 104.957Z" fill="#A18EFF"/>
<path d="M51.226 78.6647L63.8135 78.6195L68.952 81.6169L72.4904 82.0787L72.1632 81.7183L69.0415 81.3912L63.815 78.4648L49.6274 78.5322L51.226 78.6647Z" fill="#A18EFF"/>
<path d="M60.051 84.245C58.6198 82.3442 56.8182 80.7533 54.7549 79.5684L67.8826 79.76C69.9439 80.9028 71.6664 82.5704 72.8753 84.5936L60.051 84.245Z" fill="white"/>
<path d="M60.5127 85.2246H72.8722L73.357 86.4088H60.9523L60.5127 85.2246Z" fill="white"/>
<path opacity="0.35" d="M56.7273 102.332L62.167 102.242L63.229 105.18H67.8494L67.173 105.361L62.8908 105.305L61.9449 102.49L56.4912 102.58L56.7273 102.332Z" fill="#0C107F"/>
<path opacity="0.35" d="M75.7264 95.2655L70.1017 95.0849L67.615 89.9916L60.3554 89.7074L60.2881 89.293L67.8718 89.7326L70.2608 94.8488H75.7937L75.7264 95.2655Z" fill="#0C107F"/>
<path opacity="0.35" d="M52.0841 78.8663L63.668 78.7538L68.8405 81.8755L72.5928 82.1908L72.4914 82.0783L68.953 81.6165L63.8145 78.6191L51.2271 78.6643L52.0841 78.8663Z" fill="#0C107F"/>
<path d="M104.247 59.2731V54.4277H97.7788L97.8802 59.3523L104.247 59.2731Z" fill="white"/>
<path d="M97.3278 54.4277H94.3193L94.6154 59.2731L97.3315 59.2169L97.3278 54.4277Z" fill="white"/>
<path d="M90.4998 93.3392H89.7087L87.7844 69.6614L77.8672 62.8008L79.952 62.8681L88.64 69.1219L90.4998 93.3392Z" fill="url(#paint25_radial_371:3664)"/>
<path opacity="0.35" d="M79.0956 53.9551V58.8116L104.687 59.6257L74.476 59.3555L73.1904 53.9551H79.0956Z" fill="#9A313B"/>
<path d="M85.6085 32.285L81.1909 27.7215L85.721 19.3711L90.8143 20.1112L107.064 29.5548L112.904 35.0906L85.6085 32.285Z" fill="url(#paint26_linear_371:3664)"/>
<path d="M85.3047 20.1491L90.68 20.7109L106.457 30.1988L111.099 34.9095L112.902 35.0901L107.063 29.5579L90.8154 20.1151L85.7221 19.375L85.3047 20.1491Z" fill="#0F0022"/>
<path opacity="0.35" d="M61.5156 67.2515L63.2511 67.5786L68.6605 62.916H67.2743L61.5156 67.2515Z" fill="#9A313B"/>
<path opacity="0.35" d="M38.8882 67.5667L40.1389 67.5327L50.6978 62.4845L50.5742 61.7637L38.8882 67.5667Z" fill="#9A313B"/>
<path d="M117.003 93.3397L116.263 93.4411L112.226 71.4108L98.5454 62.8013H99.6837L99.774 62.6777L113.466 70.7233L117.003 93.3397Z" fill="url(#paint27_radial_371:3664)"/>
<path d="M37.6264 23.6763L63.5444 20.3066L74.1484 31.3384L65.7987 46.3038L35.2152 47.0136L29.6934 39.5986L37.6264 23.6763Z" fill="#54585B"/>
<path d="M35.2148 47.013L38.3477 48.027L66.6887 47.3957L74.1488 33.6588V31.3379L65.7984 46.3025L35.2148 47.013Z" fill="#0F0022"/>
<path d="M32.6685 43.5881L57.967 42.9687L64.4465 32.0605L56.8399 25.7046L35.97 26.999L36.0936 26.7622L56.885 25.4004L64.8521 32.0612L58.2934 43.2366L32.8601 43.845L32.6685 43.5881Z" fill="#A18EFF"/>
<path opacity="0.53" d="M32.6675 43.5867L57.9661 42.9672L64.4456 32.0605L56.8389 25.7031L35.9683 26.999L35.878 27.2018L56.7812 26.0295L63.9971 32.0605L57.8106 42.6438L32.4995 43.3647L32.6675 43.5867Z" fill="#9A313B"/>
<path d="M33.6373 31.6985L54.6877 30.3574L58.3386 33.2534L55.3375 37.9508L29.6934 39.5975L33.6373 31.6985Z" fill="url(#paint28_radial_371:3664)"/>
<path opacity="0.35" d="M33.4565 32.0589L54.6868 30.7178L58.18 33.5013L58.3377 33.2534L54.6868 30.3574L33.6371 31.6985L33.4565 32.0589Z" fill="#9A313B"/>
<path d="M37.4233 24.0929L63.4538 20.7685L73.6183 31.3384L65.7977 46.3038L74.1482 31.3392L63.5412 20.3066L37.6232 23.6763L37.4233 24.0929Z" fill="white"/>
<path opacity="0.55" d="M85.0674 49.6512L87.862 39.6222L102.05 36.8047L112.902 41.7855L109.781 50.2596L109.559 50.2374L112.534 42.0334L102.05 37.1303L88.121 39.8909L85.2591 49.6512H85.0674Z" fill="#A18EFF"/>
<path opacity="0.53" d="M85.2593 49.6503L88.1212 39.8914L102.05 37.1309L112.529 42.0325L109.554 50.2364H109.342L112.272 42.2353L102.039 37.4128L88.3358 40.0157L85.4621 49.6614L85.2593 49.6503Z" fill="#9A313B"/>
<path d="M45.9317 60.2086L38.3479 48.0274L35.2151 47.0135L29.6933 39.5978L37.6264 23.6754L42.4495 23.056L44.7934 18.9655L66.689 14.6152L44.4781 18.8634L42.1565 22.6719L37.4236 23.2691L29.085 40.0226L34.7533 47.2459L38.0327 48.43L45.9317 60.2086Z" fill="#6F5ADC"/>
<path d="M71.3086 15.4375L97.5967 20.1001L117.193 36.8002L111.651 50.3032L117.883 36.8032L98.0155 19.6072L71.3086 15.4375Z" fill="#6F5ADC"/>
<defs>
<radialGradient id="paint0_radial_371:3664" cx="0" cy="0" r="1" gradientUnits="userSpaceOnUse" gradientTransform="translate(44.793 70.5981) scale(5.90482 8.83447)">
<stop stop-color="#6F5ADC"/>
<stop offset="1" stop-color="#AE9AFF"/>
</radialGradient>
<radialGradient id="paint1_radial_371:3664" cx="0" cy="0" r="1" gradientUnits="userSpaceOnUse" gradientTransform="translate(65.0877 70.5255) scale(3.57205 7.61147)">
<stop stop-color="#6F5ADC"/>
<stop offset="1" stop-color="#AE9AFF"/>
</radialGradient>
<linearGradient id="paint2_linear_371:3664" x1="802.635" y1="6.20843" x2="802.635" y2="4" gradientUnits="userSpaceOnUse">
<stop stop-color="#6F5ADC"/>
<stop offset="1" stop-color="#7FE1A6"/>
</linearGradient>
<linearGradient id="paint3_linear_371:3664" x1="801.052" y1="15.3598" x2="801.052" y2="13.2188" gradientUnits="userSpaceOnUse">
<stop stop-color="#6F5ADC"/>
<stop offset="1" stop-color="#AE9AFF"/>
</linearGradient>
<radialGradient id="paint4_radial_371:3664" cx="0" cy="0" r="1" gradientUnits="userSpaceOnUse" gradientTransform="translate(98.5235 93.1306) scale(12.8125 13.1423)">
<stop stop-color="#6F5ADC"/>
<stop offset="1" stop-color="#AE9AFF"/>
</radialGradient>
<linearGradient id="paint5_linear_371:3664" x1="86.8055" y1="81.7656" x2="86.8055" y2="104.575" gradientUnits="userSpaceOnUse">
<stop stop-color="#1A2023"/>
<stop offset="1" stop-color="#4D5258"/>
</linearGradient>
<linearGradient id="paint6_linear_371:3664" x1="85.3253" y1="81.7109" x2="85.3253" y2="104.575" gradientUnits="userSpaceOnUse">
<stop stop-color="#1A2023"/>
<stop offset="1" stop-color="#4D5258"/>
</linearGradient>
<linearGradient id="paint7_linear_371:3664" x1="90.4651" y1="87.998" x2="90.4651" y2="97.6555" gradientUnits="userSpaceOnUse">
<stop stop-color="#1A2023"/>
<stop offset="1" stop-color="#4D5258"/>
</linearGradient>
<radialGradient id="paint8_radial_371:3664" cx="0" cy="0" r="1" gradientUnits="userSpaceOnUse" gradientTransform="translate(126.238 93.1306) scale(12.8066 13.1424)">
<stop stop-color="#6F5ADC"/>
<stop offset="1" stop-color="#AE9AFF"/>
</radialGradient>
<linearGradient id="paint9_linear_371:3664" x1="114.523" y1="81.709" x2="114.523" y2="104.573" gradientUnits="userSpaceOnUse">
<stop stop-color="#1A2023"/>
<stop offset="1" stop-color="#4D5258"/>
</linearGradient>
<linearGradient id="paint10_linear_371:3664" x1="113.035" y1="81.7109" x2="113.035" y2="104.575" gradientUnits="userSpaceOnUse">
<stop stop-color="#1A2023"/>
<stop offset="1" stop-color="#4D5258"/>
</linearGradient>
<linearGradient id="paint11_linear_371:3664" x1="118.141" y1="87.998" x2="118.141" y2="97.6555" gradientUnits="userSpaceOnUse">
<stop stop-color="#1A2023"/>
<stop offset="1" stop-color="#4D5258"/>
</linearGradient>
<linearGradient id="paint12_linear_371:3664" x1="92.0093" y1="49.4922" x2="92.0093" y2="53.9542" gradientUnits="userSpaceOnUse">
<stop stop-color="#1A2023"/>
<stop offset="1" stop-color="#4D5258"/>
</linearGradient>
<radialGradient id="paint13_radial_371:3664" cx="0" cy="0" r="1" gradientUnits="userSpaceOnUse" gradientTransform="translate(88.5272 56.7548) scale(16.1595 3.45401)">
<stop stop-color="#6F5ADC"/>
<stop offset="1" stop-color="#AE9AFF"/>
</radialGradient>
<linearGradient id="paint14_linear_371:3664" x1="876.935" y1="-382.537" x2="882.884" y2="-385.611" gradientUnits="userSpaceOnUse">
<stop offset="0.03" stop-color="#FCF9DB"/>
<stop offset="0.45" stop-color="#659AAF"/>
</linearGradient>
<linearGradient id="paint15_linear_371:3664" x1="785.175" y1="10.2341" x2="794.193" y2="10.2341" gradientUnits="userSpaceOnUse">
<stop stop-color="#A18EFF"/>
<stop offset="0.97" stop-color="#6F5ADC"/>
</linearGradient>
<radialGradient id="paint16_radial_371:3664" cx="0" cy="0" r="1" gradientUnits="userSpaceOnUse" gradientTransform="translate(32.4359 92.0401) scale(13.7576 14.1729)">
<stop stop-color="#6F5ADC"/>
<stop offset="1" stop-color="#AE9AFF"/>
</radialGradient>
<linearGradient id="paint17_linear_371:3664" x1="31.883" y1="92.1074" x2="31.883" y2="106.212" gradientUnits="userSpaceOnUse">
<stop stop-color="#1A2023"/>
<stop offset="1" stop-color="#4D5258"/>
</linearGradient>
<linearGradient id="paint18_linear_371:3664" x1="19.7884" y1="79.7598" x2="19.7884" y2="104.382" gradientUnits="userSpaceOnUse">
<stop stop-color="#1A2023"/>
<stop offset="1" stop-color="#4D5258"/>
</linearGradient>
<linearGradient id="paint19_linear_371:3664" x1="18.1884" y1="79.7598" x2="18.1884" y2="104.383" gradientUnits="userSpaceOnUse">
<stop stop-color="#1A2023"/>
<stop offset="1" stop-color="#4D5258"/>
</linearGradient>
<linearGradient id="paint20_linear_371:3664" x1="23.6819" y1="86.5215" x2="23.6819" y2="96.922" gradientUnits="userSpaceOnUse">
<stop stop-color="#1A2023"/>
<stop offset="1" stop-color="#4D5258"/>
</linearGradient>
<radialGradient id="paint21_radial_371:3664" cx="0" cy="0" r="1" gradientUnits="userSpaceOnUse" gradientTransform="translate(62.2757 92.0401) scale(13.7576 14.1729)">
<stop stop-color="#6F5ADC"/>
<stop offset="1" stop-color="#AE9AFF"/>
</radialGradient>
<linearGradient id="paint22_linear_371:3664" x1="49.6331" y1="79.7617" x2="49.6331" y2="104.382" gradientUnits="userSpaceOnUse">
<stop stop-color="#1A2023"/>
<stop offset="1" stop-color="#4D5258"/>
</linearGradient>
<linearGradient id="paint23_linear_371:3664" x1="48.033" y1="79.7598" x2="48.033" y2="104.383" gradientUnits="userSpaceOnUse">
<stop stop-color="#1A2023"/>
<stop offset="1" stop-color="#4D5258"/>
</linearGradient>
<linearGradient id="paint24_linear_371:3664" x1="53.5605" y1="86.5215" x2="53.5605" y2="96.922" gradientUnits="userSpaceOnUse">
<stop stop-color="#1A2023"/>
<stop offset="1" stop-color="#4D5258"/>
</linearGradient>
<radialGradient id="paint25_radial_371:3664" cx="0" cy="0" r="1" gradientUnits="userSpaceOnUse" gradientTransform="translate(165.075 78.07) scale(11.6942 11.6962)">
<stop offset="0.03" stop-color="#09635E"/>
<stop offset="1" stop-color="#222343"/>
</radialGradient>
<linearGradient id="paint26_linear_371:3664" x1="97.0474" y1="19.3711" x2="97.0474" y2="35.0906" gradientUnits="userSpaceOnUse">
<stop stop-color="#6F5ADC"/>
<stop offset="1" stop-color="#AE9AFF"/>
</linearGradient>
<radialGradient id="paint27_radial_371:3664" cx="0" cy="0" r="1" gradientUnits="userSpaceOnUse" gradientTransform="translate(156.853 78.0594) scale(12.677 12.6745)">
<stop offset="0.03" stop-color="#09635E"/>
<stop offset="1" stop-color="#222343"/>
</radialGradient>
<radialGradient id="paint28_radial_371:3664" cx="0" cy="0" r="1" gradientUnits="userSpaceOnUse" gradientTransform="translate(44.016 34.9774) scale(14.3226 4.62002)">
<stop stop-color="#6F5ADC"/>
<stop offset="1" stop-color="#AE9AFF"/>
</radialGradient>
</defs>
</svg>
