<svg width="85" height="146" viewBox="0 0 85 146" fill="none" xmlns="http://www.w3.org/2000/svg">
<path d="M76.9532 142.654H8.13135V145.058H76.9532V142.654Z" fill="url(#paint0_linear_371:3547)"/>
<path d="M67.4972 132.811H16.2881V136.834H67.4972V132.811Z" fill="url(#paint1_radial_371:3547)"/>
<path d="M24.8834 56.2697L0 78.0661L13.0996 132.793L71.4189 133.038L84.4171 78.0669L58.9853 56.1602L24.8834 56.2697Z" fill="url(#paint2_linear_371:3547)"/>
<path d="M79.1882 142.654H6.32617L7.76047 136.834H76.8436L79.1882 142.654Z" fill="url(#paint3_radial_371:3547)"/>
<path opacity="0.65" d="M19.0635 61.3647L25.9974 123.523H58.2025L64.2831 60.7238L61.0948 58.3555L22.6648 58.482L19.0635 61.3647Z" fill="white"/>
<path d="M55.0896 121.846H28.5698L21.1467 42.2185L33.4286 39.207H50.5683L62.6222 42.2185L55.0896 121.846Z" fill="url(#paint4_radial_371:3547)"/>
<path d="M33.4536 40.7168L34.9042 121.846H28.5698L22.6143 43.686L33.4536 40.7168Z" fill="white"/>
<path d="M36.1025 42.918H47.5407L46.0198 120.149H37.6293L36.1025 42.918Z" fill="url(#paint5_linear_371:3547)"/>
<path opacity="0.35" d="M46.0198 120.149L47.5407 42.918H36.1025L37.6293 120.149L38.2281 120.107L36.9374 43.7469L46.7806 43.8209L45.609 120.149H46.0198Z" fill="white"/>
<path opacity="0.35" d="M51.2514 40.4707L48.8831 121.312L28.5713 121.844H53.9675L61.1968 42.9167L51.2514 40.4707Z" fill="white"/>
<path d="M8.46069 142.038L9.40579 137.672H23.1041L22.7496 142.038H8.46069Z" fill="white"/>
<path d="M23.4077 142.038H28.7638V137.672H23.8296L23.4077 142.038Z" fill="white"/>
<path opacity="0.35" d="M65.2286 137.457L65.9369 141.109L6.32617 142.653H77.358L75.0807 137.457H65.2286Z" fill="white"/>
<path d="M7.87842 71.1674L19.9071 128.872H64.5028L77.1636 71.8165L76.9527 71.6396L64.2919 128.479H20.2439L8.13153 70.9395L7.87842 71.1674Z" fill="url(#paint6_radial_371:3547)"/>
<path opacity="0.65" d="M8.13135 70.9388L20.2444 128.474H64.2917L76.9525 71.6345L76.6742 71.3895L64.0926 128.284H20.5901L8.5532 70.5762L8.13135 70.9388Z" fill="white"/>
<path d="M1.42529 78.4029L11.2271 118.258L15.5033 116.512L6.89975 74.1348L1.42529 78.4029Z" fill="white"/>
<path d="M11.5396 119.28L13.2418 126.264L17.2064 125.228L15.5042 117.477L11.5396 119.28Z" fill="white"/>
<path d="M48.8817 36.1953H34.8792V39.2067H48.8817V36.1953Z" fill="url(#paint7_linear_371:3547)"/>
<path d="M36.3555 36.1953L37.1229 34.3398H46.3423L47.0343 36.1953H36.3555Z" fill="url(#paint8_linear_371:3547)"/>
<path d="M39.6616 34.8027L41.053 23.2129H43.1623L44.6891 34.8027H39.6616Z" fill="url(#paint9_linear_371:3547)"/>
<path d="M42.3184 24.3601H41.8003V0H42.18L42.3184 24.3601Z" fill="url(#paint10_linear_371:3547)"/>
<path d="M36.9121 35.9499L37.3421 34.8027H40.4942L40.2832 35.9499H36.9121Z" fill="white"/>
<path d="M41.3399 23.5254L40.0581 33.9607H41.0276L41.804 23.5254H41.3399Z" fill="white"/>
<path d="M40.5977 35.9499L40.8004 34.8027H41.6945L41.6205 35.9499H40.5977Z" fill="white"/>
<path opacity="0.53" d="M42.7744 23.5254L43.2806 33.9607H44.4278L43.0216 23.5254H42.7744Z" fill="#6F5ADC"/>
<path opacity="0.53" d="M43.6011 34.6094H46.1063L46.7642 35.9504H43.6011V34.6094Z" fill="#6F5ADC"/>
<path d="M42.192 1.55273H41.8042V4.39543H42.192V1.55273Z" fill="url(#paint11_linear_371:3547)"/>
<path d="M41.8042 7.28711H42.2261L42.2431 11.311H41.8042V7.28711Z" fill="url(#paint12_linear_371:3547)"/>
<path d="M42.2682 14.8789H41.8042V19.147H42.2682V14.8789Z" fill="url(#paint13_linear_371:3547)"/>
<path d="M45.9879 34.8018H45.6001V22.1914H45.8873L45.9879 34.8018Z" fill="url(#paint14_linear_371:3547)"/>
<path d="M45.8954 23.3652H45.6001V25.5078H45.8954V23.3652Z" fill="url(#paint15_linear_371:3547)"/>
<path d="M45.6001 27.6914H45.9206L45.9376 30.7258H45.6001V27.6914Z" fill="url(#paint16_linear_371:3547)"/>
<path d="M38.3033 34.8033H37.9155V17.0137H38.2027L38.3033 34.8033Z" fill="url(#paint17_linear_371:3547)"/>
<path d="M37.9155 24.0664H38.236L38.253 27.9548H37.9155V24.0664Z" fill="url(#paint18_linear_371:3547)"/>
<path d="M41.1463 36.6758H35.6045V38.9109H41.1463V36.6758Z" fill="white"/>
<path d="M66.9326 65.7676L72.9133 70.9386L70.4503 82.9333L65.2119 80.5176L66.9326 65.7676Z" fill="url(#paint19_radial_371:3547)"/>
<path d="M15.3267 94.4733L20.3593 90.7617L24.543 121.929L20.9669 122.503L15.3267 94.4733Z" fill="url(#paint20_radial_371:3547)"/>
<path d="M70.1287 130.896H65.2441L69.3605 113.814H74.3458L70.1287 130.896Z" fill="url(#paint21_radial_371:3547)"/>
<path opacity="0.65" d="M69.3615 113.814L65.2451 130.895L68.9397 113.215L75.021 113.46L70.129 130.895L74.3475 113.814H69.3615Z" fill="white"/>
<path opacity="0.65" d="M65.2119 80.5208L66.9326 65.7693L72.9133 70.9403L70.3741 83.2895L73.7156 70.5799L66.5108 64.9922L65.2119 80.5208Z" fill="white"/>
<path opacity="0.65" d="M20.9698 122.502L15.3266 94.4725L20.3592 90.761L24.543 121.928L20.6493 89.4199L14.6013 94.0255L20.9698 122.502Z" fill="white"/>
<defs>
<linearGradient id="paint0_linear_371:3547" x1="42.5423" y1="142.654" x2="42.5423" y2="145.058" gradientUnits="userSpaceOnUse">
<stop stop-color="#1A2023"/>
<stop offset="1" stop-color="#4D5258"/>
</linearGradient>
<radialGradient id="paint1_radial_371:3547" cx="0" cy="0" r="1" gradientUnits="userSpaceOnUse" gradientTransform="translate(18.652 134.818) scale(18.2615 18.1638)">
<stop stop-color="#6F5ADC"/>
<stop offset="1" stop-color="#AE9AFF"/>
</radialGradient>
<linearGradient id="paint2_linear_371:3547" x1="42.2085" y1="56.1602" x2="42.2085" y2="133.038" gradientUnits="userSpaceOnUse">
<stop stop-color="#1A2023"/>
<stop offset="1" stop-color="#4D5258"/>
</linearGradient>
<radialGradient id="paint3_radial_371:3547" cx="0" cy="0" r="1" gradientUnits="userSpaceOnUse" gradientTransform="translate(42.7572 139.744) scale(36.431 2.91004)">
<stop stop-color="#6F5ADC"/>
<stop offset="1" stop-color="#AE9AFF"/>
</radialGradient>
<radialGradient id="paint4_radial_371:3547" cx="0" cy="0" r="1" gradientUnits="userSpaceOnUse" gradientTransform="translate(41.8845 80.5264) scale(20.7377 41.3193)">
<stop stop-color="#6F5ADC"/>
<stop offset="1" stop-color="#AE9AFF"/>
</radialGradient>
<linearGradient id="paint5_linear_371:3547" x1="41.8216" y1="42.918" x2="41.8216" y2="120.149" gradientUnits="userSpaceOnUse">
<stop stop-color="#1A2023"/>
<stop offset="1" stop-color="#4D5258"/>
</linearGradient>
<radialGradient id="paint6_radial_371:3547" cx="0" cy="0" r="1" gradientUnits="userSpaceOnUse" gradientTransform="translate(35.7667 99.9055) scale(31.9152 31.9206)">
<stop stop-color="#6F5ADC"/>
<stop offset="1" stop-color="#AE9AFF"/>
</radialGradient>
<linearGradient id="paint7_linear_371:3547" x1="41.8804" y1="36.1953" x2="41.8804" y2="39.2067" gradientUnits="userSpaceOnUse">
<stop stop-color="#1A2023"/>
<stop offset="1" stop-color="#4D5258"/>
</linearGradient>
<linearGradient id="paint8_linear_371:3547" x1="41.6949" y1="34.3398" x2="41.6949" y2="36.1953" gradientUnits="userSpaceOnUse">
<stop stop-color="#1A2023"/>
<stop offset="1" stop-color="#4D5258"/>
</linearGradient>
<linearGradient id="paint9_linear_371:3547" x1="42.1753" y1="23.2129" x2="42.1753" y2="34.8027" gradientUnits="userSpaceOnUse">
<stop stop-color="#1A2023"/>
<stop offset="1" stop-color="#4D5258"/>
</linearGradient>
<linearGradient id="paint10_linear_371:3547" x1="42.0593" y1="0" x2="42.0593" y2="24.3601" gradientUnits="userSpaceOnUse">
<stop stop-color="#1A2023"/>
<stop offset="1" stop-color="#4D5258"/>
</linearGradient>
<linearGradient id="paint11_linear_371:3547" x1="41.9981" y1="4.39543" x2="41.9981" y2="1.55273" gradientUnits="userSpaceOnUse">
<stop stop-color="#6F5ADC"/>
<stop offset="1" stop-color="#AE9AFF"/>
</linearGradient>
<linearGradient id="paint12_linear_371:3547" x1="42.0236" y1="11.311" x2="42.0236" y2="7.28711" gradientUnits="userSpaceOnUse">
<stop stop-color="#6F5ADC"/>
<stop offset="1" stop-color="#AE9AFF"/>
</linearGradient>
<linearGradient id="paint13_linear_371:3547" x1="42.0404" y1="19.147" x2="42.0404" y2="14.8789" gradientUnits="userSpaceOnUse">
<stop stop-color="#6F5ADC"/>
<stop offset="1" stop-color="#AE9AFF"/>
</linearGradient>
<linearGradient id="paint14_linear_371:3547" x1="45.794" y1="22.1914" x2="45.794" y2="34.8018" gradientUnits="userSpaceOnUse">
<stop stop-color="#1A2023"/>
<stop offset="1" stop-color="#4D5258"/>
</linearGradient>
<linearGradient id="paint15_linear_371:3547" x1="45.7519" y1="25.5078" x2="45.7519" y2="23.3652" gradientUnits="userSpaceOnUse">
<stop stop-color="#A18EFF"/>
<stop offset="1" stop-color="#6F5ADC"/>
</linearGradient>
<linearGradient id="paint16_linear_371:3547" x1="45.7688" y1="30.7258" x2="45.7688" y2="27.6914" gradientUnits="userSpaceOnUse">
<stop stop-color="#6F5ADC"/>
<stop offset="1" stop-color="#AE9AFF"/>
</linearGradient>
<linearGradient id="paint17_linear_371:3547" x1="38.1094" y1="17.0137" x2="38.1094" y2="34.8033" gradientUnits="userSpaceOnUse">
<stop stop-color="#1A2023"/>
<stop offset="1" stop-color="#4D5258"/>
</linearGradient>
<linearGradient id="paint18_linear_371:3547" x1="38.0843" y1="27.9548" x2="38.0843" y2="24.0664" gradientUnits="userSpaceOnUse">
<stop stop-color="#6F5ADC"/>
<stop offset="1" stop-color="#AE9AFF"/>
</linearGradient>
<radialGradient id="paint19_radial_371:3547" cx="0" cy="0" r="1" gradientUnits="userSpaceOnUse" gradientTransform="translate(143.643 74.3504) scale(6.66057 6.66029)">
<stop stop-color="#6F5ADC"/>
<stop offset="1" stop-color="#AE9AFF"/>
</radialGradient>
<radialGradient id="paint20_radial_371:3547" cx="0" cy="0" r="1" gradientUnits="userSpaceOnUse" gradientTransform="translate(63.1411 106.632) scale(11.6774 11.6807)">
<stop stop-color="#AE9AFF"/>
<stop offset="1" stop-color="#D1C7FF"/>
</radialGradient>
<radialGradient id="paint21_radial_371:3547" cx="0" cy="0" r="1" gradientUnits="userSpaceOnUse" gradientTransform="translate(123.666 122.355) scale(6.83352 6.83253)">
<stop stop-color="#A18EFF"/>
<stop offset="1" stop-color="#AE9AFF"/>
</radialGradient>
</defs>
</svg>
