<svg width="28" height="28" viewBox="0 0 28 28" fill="none" xmlns="http://www.w3.org/2000/svg">
<path d="M5.99976 14.0006V8.74089C6.01538 7.707 6.23485 6.68636 6.6456 5.73744C7.05635 4.78852 7.65031 3.92997 8.39344 3.211C9.13656 2.49202 10.0143 1.92674 10.9762 1.54756C11.9382 1.16837 12.9655 0.982728 13.9994 1.00126V1.00126C15.0332 0.982728 16.0605 1.16837 17.0225 1.54756C17.9845 1.92674 18.8622 2.49202 19.6053 3.211C20.3484 3.92997 20.9424 4.78852 21.3531 5.73744C21.7639 6.68636 21.9834 7.707 21.999 8.74089V14.0006" stroke="white" stroke-width="2" stroke-linecap="round" stroke-linejoin="round"/>
<path d="M2.9999 11.0007H4.99981C5.26501 11.0007 5.51935 11.1061 5.70688 11.2936C5.8944 11.4811 5.99976 11.7355 5.99976 12.0007V18.0004C5.99976 18.2656 5.8944 18.5199 5.70688 18.7075C5.51935 18.895 5.26501 19.0003 4.99981 19.0003H2.9999C2.4695 19.0003 1.96081 18.7896 1.58576 18.4146C1.2107 18.0395 1 17.5308 1 17.0004V13.0006C1 12.4702 1.2107 11.9615 1.58576 11.5865C1.96081 11.2114 2.4695 11.0007 2.9999 11.0007V11.0007Z" stroke="white" stroke-width="2" stroke-linecap="round" stroke-linejoin="round"/>
<path d="M24.9989 19.0005H22.999C22.7338 19.0005 22.4794 18.8951 22.2919 18.7076C22.1044 18.5201 21.999 18.2657 21.999 18.0005V12.0008C21.999 11.7356 22.1044 11.4813 22.2919 11.2938C22.4794 11.1062 22.7338 11.0009 22.999 11.0009H24.9989C25.5293 11.0009 26.038 11.2116 26.413 11.5866C26.7881 11.9617 26.9988 12.4704 26.9988 13.0008V17.0006C26.9988 17.531 26.7881 18.0397 26.413 18.4147C26.038 18.7898 25.5293 19.0005 24.9989 19.0005V19.0005Z" stroke="white" stroke-width="2" stroke-linecap="round" stroke-linejoin="round"/>
<path d="M17.9991 24.5001C19.06 24.5001 20.0773 24.0787 20.8274 23.3286C21.5775 22.5784 21.999 21.5611 21.999 20.5003V16.0005" stroke="white" stroke-width="2" stroke-linecap="round" stroke-linejoin="round"/>
<path d="M17.9991 24.5001C17.9991 25.1631 17.7357 25.799 17.2669 26.2678C16.7981 26.7366 16.1623 27 15.4992 27H12.4994C11.8364 27 11.2005 26.7366 10.7317 26.2678C10.2629 25.799 9.99951 25.1631 9.99951 24.5001C9.99951 23.8371 10.2629 23.2013 10.7317 22.7324C11.2005 22.2636 11.8364 22.0002 12.4994 22.0002H15.4992C16.1623 22.0002 16.7981 22.2636 17.2669 22.7324C17.7357 23.2013 17.9991 23.8371 17.9991 24.5001Z" stroke="white" stroke-width="2" stroke-linecap="round" stroke-linejoin="round"/>
</svg>
