<svg width="29" height="28" viewBox="0 0 29 28" fill="none" xmlns="http://www.w3.org/2000/svg">
<path d="M3.72754 5C3.19711 5 2.6884 5.21071 2.31333 5.58579C1.93825 5.96086 1.72754 6.46957 1.72754 7V25C1.72754 25.5304 1.93825 26.0391 2.31333 26.4142C2.6884 26.7893 3.19711 27 3.72754 27H25.7275C26.258 27 26.7667 26.7893 27.1418 26.4142C27.5168 26.0391 27.7275 25.5304 27.7275 25V7C27.7275 6.46957 27.5168 5.96086 27.1418 5.58579C26.7667 5.21071 26.258 5 25.7275 5H21.7275" stroke="#A18EFF" stroke-width="2" stroke-linecap="round" stroke-linejoin="round"/>
<path d="M1.72754 13H27.7275" stroke="#A18EFF" stroke-width="2" stroke-linecap="round" stroke-linejoin="round"/>
<path d="M7.72754 1V9" stroke="#A18EFF" stroke-width="2" stroke-linecap="round" stroke-linejoin="round"/>
<path d="M21.7275 1V9" stroke="#A18EFF" stroke-width="2" stroke-linecap="round" stroke-linejoin="round"/>
<path d="M7.72754 5H17.7275" stroke="#A18EFF" stroke-width="2" stroke-linecap="round" stroke-linejoin="round"/>
</svg>
