<svg width="28" height="28" viewBox="0 0 28 28" fill="none" xmlns="http://www.w3.org/2000/svg">
<path d="M27 27.0001H1" stroke="white" stroke-width="2" stroke-linecap="round" stroke-linejoin="round"/>
<path d="M17 11V20C17 21.1046 17.8954 22 19 22H23C24.1046 22 25 21.1046 25 20V11C25 9.89543 24.1046 9 23 9H19C17.8954 9 17 9.89543 17 11Z" stroke="white" stroke-width="2" stroke-linecap="round" stroke-linejoin="round"/>
<path d="M3 3L3 20C3 21.1046 3.89543 22 5 22H9C10.1046 22 11 21.1046 11 20L11 3C11 1.89543 10.1046 0.999998 9 0.999998H5C3.89543 0.999998 3 1.89543 3 3Z" stroke="white" stroke-width="2" stroke-linecap="round" stroke-linejoin="round"/>
</svg>
