<svg width="28" height="28" viewBox="0 0 28 28" fill="none" xmlns="http://www.w3.org/2000/svg">
<path d="M26 13H18C17.4477 13 17 13.4477 17 14V26C17 26.5523 17.4477 27 18 27H26C26.5523 27 27 26.5523 27 26V14C27 13.4477 26.5523 13 26 13Z" stroke="#A18EFF" stroke-width="2" stroke-linecap="round" stroke-linejoin="round"/>
<path d="M26 1H18C17.4477 1 17 1.44772 17 2V6.02C17 6.57228 17.4477 7.02 18 7.02H26C26.5523 7.02 27 6.57228 27 6.02V2C27 1.44772 26.5523 1 26 1Z" stroke="#A18EFF" stroke-width="2" stroke-linecap="round" stroke-linejoin="round"/>
<path d="M10 1H2C1.44772 1 1 1.44772 1 2V14C1 14.5523 1.44772 15 2 15H10C10.5523 15 11 14.5523 11 14V2C11 1.44772 10.5523 1 10 1Z" stroke="#A18EFF" stroke-width="2" stroke-linecap="round" stroke-linejoin="round"/>
<path d="M10 20.98H2C1.44772 20.98 1 21.4277 1 21.98V26C1 26.5523 1.44772 27 2 27H10C10.5523 27 11 26.5523 11 26V21.98C11 21.4277 10.5523 20.98 10 20.98Z" stroke="#A18EFF" stroke-width="2" stroke-linecap="round" stroke-linejoin="round"/>
</svg>
