<svg width="23" height="28" viewBox="0 0 23 28" fill="none" xmlns="http://www.w3.org/2000/svg">
<path d="M16.7275 3H19.7275C20.258 3 20.7667 3.21071 21.1418 3.58579C21.5168 3.96086 21.7275 4.46957 21.7275 5V25C21.7275 25.5304 21.5168 26.0391 21.1418 26.4142C20.7667 26.7893 20.258 27 19.7275 27H3.72754C3.19711 27 2.6884 26.7893 2.31333 26.4142C1.93825 26.0391 1.72754 25.5304 1.72754 25V5C1.72754 4.46957 1.93825 3.96086 2.31333 3.58579C2.6884 3.21071 3.19711 3 3.72754 3H6.72754" stroke="#A18EFF" stroke-width="2" stroke-linecap="round" stroke-linejoin="round"/>
<path d="M14.7275 1H8.72754C7.62297 1 6.72754 1.89543 6.72754 3V4C6.72754 5.10457 7.62297 6 8.72754 6H14.7275C15.8321 6 16.7275 5.10457 16.7275 4V3C16.7275 1.89543 15.8321 1 14.7275 1Z" stroke="#A18EFF" stroke-width="2" stroke-linecap="round" stroke-linejoin="round"/>
<path d="M6.72754 11H16.7275" stroke="#A18EFF" stroke-width="2" stroke-linecap="round" stroke-linejoin="round"/>
<path d="M6.72754 16H16.7275" stroke="#A18EFF" stroke-width="2" stroke-linecap="round" stroke-linejoin="round"/>
<path d="M6.72754 21H16.7275" stroke="#A18EFF" stroke-width="2" stroke-linecap="round" stroke-linejoin="round"/>
</svg>
