<svg width="29" height="28" viewBox="0 0 29 28" fill="none" xmlns="http://www.w3.org/2000/svg">
<path d="M13.7085 14.02H27.7085" stroke="white" stroke-width="2" stroke-linecap="round" stroke-linejoin="round"/>
<path d="M23.7085 10.02L27.7085 14.02L23.7085 18.02" stroke="white" stroke-width="2" stroke-linecap="round" stroke-linejoin="round"/>
<path d="M24.1084 23C22.3124 24.8719 19.9976 26.1637 17.4615 26.7093C14.9254 27.2548 12.2841 27.0292 9.87732 26.0613C7.47053 25.0935 5.40834 23.4277 3.95598 21.2783C2.50363 19.1289 1.72754 16.5941 1.72754 14C1.72754 11.4059 2.50363 8.87113 3.95598 6.72171C5.40834 4.57229 7.47053 2.90653 9.87732 1.93869C12.2841 0.970845 14.9254 0.745187 17.4615 1.29074C19.9976 1.83629 22.3124 3.1281 24.1084 5" stroke="white" stroke-width="2" stroke-linecap="round" stroke-linejoin="round"/>
</svg>
