<svg width="29" height="28" viewBox="0 0 29 28" fill="none" xmlns="http://www.w3.org/2000/svg">
<path d="M26.9244 5.96279C26.8173 5.81737 26.6707 5.7057 26.5021 5.64099L14.4349 1.07556C14.3207 1.02572 14.1974 1 14.0728 1C13.9483 1 13.825 1.02572 13.7108 1.07556L1.64359 5.72144C1.48416 5.76367 1.33855 5.84687 1.22123 5.96279C1.08075 6.13274 1.00267 6.34566 1 6.56615V21.2882C1.00261 21.489 1.06531 21.6845 1.18001 21.8494C1.29472 22.0143 1.45618 22.141 1.64359 22.2133L13.7108 26.8592H14.0728H14.4349L26.5021 22.2133C26.6895 22.141 26.851 22.0143 26.9657 21.8494C27.0804 21.6845 27.1431 21.489 27.1457 21.2882V6.6466C27.1627 6.39868 27.0834 6.15375 26.9244 5.96279V5.96279Z" stroke="white" stroke-width="2" stroke-linecap="round" stroke-linejoin="round"/>
<path d="M14.0728 26.9999V10.9907" stroke="white" stroke-width="2" stroke-linecap="round" stroke-linejoin="round"/>
<path d="M14.0728 10.9907V26.9999" stroke="white" stroke-width="2" stroke-linecap="round" stroke-linejoin="round"/>
<path d="M1.22119 6.04321L14.0728 10.9908L26.9244 6.04321" stroke="white" stroke-width="2" stroke-linecap="round" stroke-linejoin="round"/>
</svg>
