<svg xmlns="http://www.w3.org/2000/svg" xmlns:xlink="http://www.w3.org/1999/xlink" width="567" height="580" viewBox="0 0 567 580">
  <defs>
    <clipPath id="clip-path">
      <rect id="Rectangle_2206" data-name="Rectangle 2206" width="567" height="580" transform="translate(-1994 16485)" fill="#f2dcc5" stroke="#707070" stroke-width="1"/>
    </clipPath>
  </defs>
  <g id="Group_1491" data-name="Group 1491" transform="translate(2384 -15688)">
    <g id="Rectangle_2207" data-name="Rectangle 2207" transform="translate(-2384 15688)" fill="#f2dcc5" stroke="#707070" stroke-width="1">
      <rect width="567" height="580" stroke="none"/>
      <rect x="0.5" y="0.5" width="566" height="579" fill="none"/>
    </g>
    <g id="Mask_Group_1437" data-name="Mask Group 1437" transform="translate(-390 -797)" clip-path="url(#clip-path)">
      <g id="Layer_2" data-name="Layer 2" transform="translate(-2959 16578.617)">
        <g id="OBJECTS">
          <path id="Path_7121" data-name="Path 7121" d="M392.177,455.891h0c-.546-.909-1.182-1.637-1.728-2.455-49.195-64.562-33.918-159.133-29.644-180.593a27.272,27.272,0,0,0,.818-3.91,3.735,3.735,0,0,0,0-.637h0a156.225,156.225,0,0,0,2.637-27.917,150.04,150.04,0,0,0-300.079,0A148.312,148.312,0,0,0,66.91,268.3H67a3.726,3.726,0,0,0,0,.636,18.674,18.674,0,0,0,.818,3.91c4.274,21.46,19.551,116.031-29.644,180.593L36.447,455.8h0a213.632,213.632,0,1,0,355.73.091Z" transform="translate(5.746 731.149)" fill="#efc591"/>
          <line id="Line_388" data-name="Line 388" y2="724.918" transform="translate(223.968 994.807)" fill="none" stroke="#fff" stroke-miterlimit="10" stroke-width="0.72"/>
          <line id="Line_389" data-name="Line 389" x2="114.212" y2="179.956" transform="translate(109.756 1214.138)" fill="none" stroke="#fff" stroke-miterlimit="10" stroke-width="0.72"/>
          <line id="Line_390" data-name="Line 390" x1="75.838" y2="100.208" transform="translate(223.968 1097.016)" fill="none" stroke="#fff" stroke-miterlimit="10" stroke-width="0.72"/>
          <path id="Path_7122" data-name="Path 7122" d="M0,493.859s31.736-100.026,164.134-90.933S400.56,254.705,538.6,250.249c139.855-4.456,201.69,47.376,249.339,123.214,0,0,210.328-212.056,523.865-214.329,374.826-2.728,573.787,335.088,573.787,335.088Z" transform="translate(0 1287.792)" fill="#eacdb2"/>
          <line id="Line_391" data-name="Line 391" x2="478.581" transform="translate(1805.111 291.44)" fill="none" stroke="#d9bba0" stroke-miterlimit="10" stroke-width="0.6"/>
          <path id="Path_7123" data-name="Path 7123" d="M206.928,154.234s-8.184-48.649,33.554-69.927,77.02,16.368,77.02,16.368,19.369-86.386,109.12-83.658a90.024,90.024,0,0,1,37.556,9.093c17.277,8.548,40.829,25.188,45.466,53.56,0,0,98.208-31.554,105.119,74.474" transform="translate(1669.475 137.206)" fill="none" stroke="#d9bba0" stroke-miterlimit="10" stroke-width="0.6"/>
          <path id="Path_7124" data-name="Path 7124" d="M85.03,278.995l76.747-122.3,90.478,45.83L159.5,344.83,86.849,312.094Z" transform="translate(688.173 1268.14)" fill="#f1be9b"/>
          <path id="Path_7125" data-name="Path 7125" d="M142.15,169.09s44.284,71.382,103.3,51.923l67.927,168.772L77.77,217.012Z" transform="translate(629.416 1368.496)" fill="#312220"/>
          <path id="Path_7218" data-name="Path 7218" d="M0,0H25.552V293.9H0Z" transform="translate(689.54 1606.862) rotate(-54.17)" fill="#fff"/>
          <path id="Path_7126" data-name="Path 7126" d="M96.991,192.006a5.909,5.909,0,0,0,2.819,0,104.662,104.662,0,0,1,33.918-5,4.911,4.911,0,0,0,5.183-4.819,5.365,5.365,0,0,0-5.092-5.365,113.035,113.035,0,0,0-37.555,5.456,4.729,4.729,0,0,0-3.092,6.274A5.546,5.546,0,0,0,96.991,192.006Z" transform="translate(751.414 1430.785)" fill="#fff"/>
          <path id="Path_7127" data-name="Path 7127" d="M98.544,194.779a4.64,4.64,0,0,0,2.728,0,107.845,107.845,0,0,1,33.918-5,4.819,4.819,0,0,0,5.183-4.82,5.456,5.456,0,0,0-5.092-5.365,119.124,119.124,0,0,0-37.555,5.456,4.819,4.819,0,0,0-3.092,6.365A5.183,5.183,0,0,0,98.544,194.779Z" transform="translate(763.228 1453.382)" fill="#fff"/>
          <path id="Path_7128" data-name="Path 7128" d="M100,197.6a5.544,5.544,0,0,0,2.728,0,104.663,104.663,0,0,1,33.918-5,4.91,4.91,0,0,0,5.183-4.819,5.274,5.274,0,0,0-5-5.365,113.845,113.845,0,0,0-37.555,5.365,4.82,4.82,0,0,0-3.183,6.365A5.638,5.638,0,0,0,100,197.6Z" transform="translate(775.053 1476.023)" fill="#fff"/>
          <path id="Path_7129" data-name="Path 7129" d="M677.129,84.427,523.179,499.264a330.721,330.721,0,0,1-49.74,89.023L232.921,895.732,84.7,802.8,323.126,475.439,451.888,83.7Z" transform="translate(685.503 677.409)" fill="#3e3431"/>
          <path id="Path_7130" data-name="Path 7130" d="M201.825,343.55,154.54,207.059l92.388-41.829L299.76,326.636l-71.019,36.1Z" transform="translate(1250.739 1337.256)" fill="#f1be9b"/>
          <path id="Path_7131" data-name="Path 7131" d="M161.157,227.052s83.386,10.185,105.118-48.012l174.137,52.741L158.52,307.437Z" transform="translate(1282.95 1449.025)" fill="#312220"/>
          <path id="Path_7219" data-name="Path 7219" d="M0,0H293.9V25.552H0Z" transform="matrix(0.964, -0.265, 0.265, 0.964, 1439.965, 1758.867)" fill="#fff"/>
          <path id="Path_7132" data-name="Path 7132" d="M179,219.2a5.731,5.731,0,0,0,1.637-2.182,106.566,106.566,0,0,1,17.277-29.553,4.91,4.91,0,0,0-.455-7.093,5.456,5.456,0,0,0-7.366.545,118.944,118.944,0,0,0-19.278,32.736,4.911,4.911,0,0,0,3,6.456A5.547,5.547,0,0,0,179,219.2Z" transform="translate(1379.684 1450.242)" fill="#fff"/>
          <path id="Path_7133" data-name="Path 7133" d="M182.045,219.844a5.548,5.548,0,0,0,1.637-2.183,109.121,109.121,0,0,1,17.369-29.644,4.91,4.91,0,0,0-.455-7.093,5.638,5.638,0,0,0-7.457.637,116.848,116.848,0,0,0-19.187,32.645,4.819,4.819,0,0,0,2.91,6.456A5.547,5.547,0,0,0,182.045,219.844Z" transform="translate(1404.736 1455.233)" fill="#fff"/>
          <path id="Path_7134" data-name="Path 7134" d="M185.125,220.474a5,5,0,0,0,1.637-2.182,111.487,111.487,0,0,1,17.369-29.644,4.91,4.91,0,0,0-.455-7.093,5.456,5.456,0,0,0-7.366.637,115.759,115.759,0,0,0-19.278,32.645,4.819,4.819,0,0,0,3,6.456A5.365,5.365,0,0,0,185.125,220.474Z" transform="translate(1429.755 1460.15)" fill="#fff"/>
          <path id="Path_7135" data-name="Path 7135" d="M382.618,83.72l15.459,80.112L502.467,471,607.495,915.212l-179.138,47.1-135.4-460.94L118.73,146.009l50.013-61.38Z" transform="translate(960.918 677.571)" fill="#3e3431"/>
          <path id="Path_7136" data-name="Path 7136" d="M249.214,356.74C246.94,352.011,121.18,95.58,121.18,95.58" transform="translate(980.746 773.558)" fill="none" stroke="#28201e" stroke-miterlimit="10" stroke-width="0.51"/>
          <path id="Path_7137" data-name="Path 7137" d="M249.214,356.74C246.94,352.011,121.18,95.58,121.18,95.58" transform="translate(980.746 773.558)" fill="none" stroke="#28201e" stroke-miterlimit="10" stroke-width="0.51"/>
          <path id="Path_7138" data-name="Path 7138" d="M145.778,46.157a32.463,32.463,0,0,0,29.735,34.555,35.282,35.282,0,0,0,36.555-30.826,32.372,32.372,0,0,0-29.735-34.555,35.282,35.282,0,0,0-36.555,30.826Z" transform="translate(1179.208 123.797)" fill="#d69687"/>
          <path id="Path_7139" data-name="Path 7139" d="M233.359,61.243l.818,78.021c0,27.28-15.822,42.193-41.92,42.193h0c-22.279,0-60.016-10.548-59.288-34.736l4.456-122.76Z" transform="translate(1076.076 193.916)" fill="#ecb6a2"/>
          <path id="Path_7140" data-name="Path 7140" d="M210.279,101s-75.2-51.65-74.383-61.653c2-23.279,73.474-7.547,73.474-7.547Z" transform="translate(1099.793 215.27)" fill="#d69687"/>
          <path id="Path_7141" data-name="Path 7141" d="M236.354,246.655h0c44.466,0,80.93-37.01,81.84-74.565l1.455-78.657A86.3,86.3,0,0,0,239.992,4.046h0c-46.649-2.819-107.574,33.736-110.3,81.84l12.367,60.925a98.117,98.117,0,0,0,94.3,99.844Z" transform="translate(1049.62 31.509)" fill="#ecb6a2"/>
          <path id="Path_7142" data-name="Path 7142" d="M166.659,152.877l17.186-6A118.214,118.214,0,0,0,179.39,96.5c-4.365-9.093-3.819-24.188,12.458-36.373A128.761,128.761,0,0,1,308.605,46.667a47.012,47.012,0,0,1,25.1,27.28,156.326,156.326,0,0,1,7.82,29.371l12.549-25.734C353.254,32.936,302.058,1.655,257.5,2.656a240.969,240.969,0,0,0-53.2,2.273c-54.014,12.64-90.478,57.743-72.747,104.027l15.731,32.463Z" transform="translate(1028.11 16.986)" fill="#312220"/>
          <path id="Path_7143" data-name="Path 7143" d="M125.82,46.515a34.827,34.827,0,0,0,32.918,34.1,31.644,31.644,0,0,0,33.009-30.372c1-18.187-18.914-32.918-36.373-34.009S126.82,28.693,125.82,46.515Z" transform="translate(1018.299 130.895)" fill="#ecb6a2"/>
          <path id="Path_7144" data-name="Path 7144" d="M155.05,39.986s-3.728-24.825-27.28-20.915" transform="translate(1034.081 150.973)" fill="none" stroke="#312220" stroke-linecap="round" stroke-linejoin="round" stroke-width="0.47"/>
          <path id="Path_7145" data-name="Path 7145" d="M152.927,21.56l2.546,16-11,.546" transform="translate(1169.239 174.492)" fill="none" stroke="#312220" stroke-linecap="round" stroke-linejoin="round" stroke-width="0.47"/>
          <path id="Path_7146" data-name="Path 7146" d="M147.16,26.8a7.729,7.729,0,1,0,7.82-7.729,7.82,7.82,0,0,0-7.82,7.73Z" transform="translate(1191.01 154.339)" fill="#312220"/>
          <path id="Path_7147" data-name="Path 7147" d="M139.43,26.639a7.638,7.638,0,1,0,7.82-7.729,7.82,7.82,0,0,0-7.82,7.73Z" transform="translate(1128.449 153.044)" fill="#312220"/>
          <path id="Path_7148" data-name="Path 7148" d="M148.344,23.8a48.285,48.285,0,0,0,7.911.727h7.184a106.858,106.858,0,0,1,14.64,3.365h0a1.91,1.91,0,0,0,2.273-1.455,2.182,2.182,0,0,0-.545-1.819,26.552,26.552,0,0,0-6.911-5.456,23.823,23.823,0,0,0-8.638-3.092,24.1,24.1,0,0,0-9.093,0,21.189,21.189,0,0,0-8,3.637,2,2,0,0,0-.455,2.819,1.819,1.819,0,0,0,1.182.818Z" transform="translate(1184.189 126.599)" fill="#312220"/>
          <path id="Path_7149" data-name="Path 7149" d="M188.222,19.824a39.557,39.557,0,0,0-13-3.819,48.286,48.286,0,0,0-13.549,0,45.468,45.468,0,0,0-13.185,4.183,52.286,52.286,0,0,0-11.639,7.365,2.183,2.183,0,0,0,0,2.91,1.91,1.91,0,0,0,2,.818h0a171.869,171.869,0,0,1,24.1-5.911,92.45,92.45,0,0,0,12.185-.546,121.576,121.576,0,0,0,12.731-.909h0a2.273,2.273,0,0,0,1.728-2.455,2.091,2.091,0,0,0-1.364-1.637Z" transform="translate(1103.027 125.669)" fill="#312220"/>
          <path id="Path_7150" data-name="Path 7150" d="M167.677,29.961s-18.187,4.274-26.007-5" transform="translate(1146.578 202.009)" fill="none" stroke="#312220" stroke-linecap="round" stroke-linejoin="round" stroke-width="0.47"/>
          <path id="Path_7151" data-name="Path 7151" d="M145.886,56.5A40.556,40.556,0,1,0,157.28,27.575,40.647,40.647,0,0,0,145.886,56.5Z" transform="translate(1180.645 123.093)" fill="none" stroke="#fff" stroke-miterlimit="10" stroke-width="0.71"/>
          <path id="Path_7220" data-name="Path 7220" d="M40.712-.934A41.647,41.647,0,1,1-.935,40.714,41.647,41.647,0,0,1,40.712-.934Z" transform="matrix(0.692, -0.722, 0.722, 0.692, 1203.148, 177.79)" fill="none" stroke="#fff" stroke-width="0.71"/>
          <path id="Path_7152" data-name="Path 7152" d="M167.813,23.412a21.369,21.369,0,0,0-24.643.455" transform="translate(1158.718 159.637)" fill="none" stroke="#fff" stroke-miterlimit="10" stroke-width="0.71"/>
          <line id="Line_392" data-name="Line 392" x1="14.095" y1="2.546" transform="translate(1206.045 164.952)" fill="none" stroke="#fff" stroke-linecap="round" stroke-miterlimit="10" stroke-width="0.71"/>
          <path id="Path_7153" data-name="Path 7153" d="M132.63,88.653a254.613,254.613,0,0,1,84.75,1.182C256.845,97.2,328.773,118.3,334.32,60.554c6.82-70.291-100.936-67.927-122.3-46.831S132.63,88.653,132.63,88.653Z" transform="translate(1073.415 5.918)" fill="#312220"/>
          <path id="Path_7154" data-name="Path 7154" d="M133.3,32.008c0,17.732,18.914,32.008,42.193,32.008s42.284-14.276,42.284-32.008S198.863,0,175.493,0,133.3,14.367,133.3,32.008Z" transform="translate(1078.837)" fill="#312220"/>
          <path id="Path_7155" data-name="Path 7155" d="M175.125,13.041a66.017,66.017,0,0,1-35.282,72.746L130.75,38.321,163.395,5.13Z" transform="translate(1058.199 41.519)" fill="#312220"/>
          <path id="Path_7156" data-name="Path 7156" d="M297.913,52.224s-58.834-41.647-186.413,0l18.187,137.218s132.49-20.824,176.865-42.011Z" transform="translate(902.403 272.861)" fill="#e0b280"/>
          <path id="Path_7157" data-name="Path 7157" d="M234.545,43.27,337.754,268.238l-88.387,63.38L144.43,221.135Z" transform="translate(1168.915 350.197)" fill="#3f59b9"/>
          <path id="Path_7158" data-name="Path 7158" d="M311.037,166.964l-74.656-84.2L168.09,106.948l89.842,97.208Z" transform="translate(1360.403 669.802)" fill="#ecb6a2"/>
          <path id="Path_7159" data-name="Path 7159" d="M244.357,68.01,397.67,251.786l-82.2,65.2L155.97,131.39Z" transform="translate(1262.312 550.425)" fill="#3f59b9"/>
          <path id="Path_7160" data-name="Path 7160" d="M176.627,158.638a61.925,61.925,0,1,1,68.382,54.56A61.925,61.925,0,0,1,176.627,158.638Z" transform="translate(1426.25 726.141)" fill="#ecb6a2"/>
          <path id="Path_7161" data-name="Path 7161" d="M238.4,189.04s27.28,5.274,26.643-27.28-20.46-73.928-82.749-71.928Z" transform="translate(1475.328 726.474)" fill="#ecb6a2"/>
          <path id="Path_7162" data-name="Path 7162" d="M318.492,36.07,442.979,79.445a44.375,44.375,0,0,1,29.28,40.92c2.273,114.576-2.546,508.225-3.637,481.4,0-3.365-226.878,64.29-353-28.644L156.176,67.715l59.106-16.186Z" transform="translate(935.748 291.925)" fill="#3f59b9"/>
          <line id="Line_393" data-name="Line 393" y1="191.687" x2="0.727" transform="translate(1407.825 475.852)" fill="none" stroke="#252c49" stroke-miterlimit="10" stroke-width="0.51"/>
          <path id="Path_7163" data-name="Path 7163" d="M82.5,197.833l47.558-115.3L220.9,93.26,155.883,214.928Z" transform="translate(667.697 667.94)" fill="#ecb6a2"/>
          <path id="Path_7164" data-name="Path 7164" d="M469.736,37.77S361.162,51.41,307.784,117.882L184.206,279.834A937.892,937.892,0,0,0,84.18,497.254L177.2,548.268,293.235,332.393l148.4-132.126Z" transform="translate(681.294 305.684)" fill="#3f59b9"/>
          <path id="Path_7165" data-name="Path 7165" d="M79.787,164.031a64.926,64.926,0,1,1,23.951,43.618,65.017,65.017,0,0,1-23.951-43.618Z" transform="translate(642.494 743.389)" fill="#ecb6a2"/>
          <path id="Path_7166" data-name="Path 7166" d="M144.584,195.9s29.19,5.547,28.007-28.553S151.131,89.873,85.75,91.965Z" transform="translate(694.001 743.71)" fill="#ecb6a2"/>
          <line id="Line_394" data-name="Line 394" y1="48.376" x2="53.105" transform="translate(1079.648 495.858)" fill="none" stroke="#252c49" stroke-miterlimit="10" stroke-width="0.51"/>
          <line id="Line_395" data-name="Line 395" y1="48.376" x2="53.105" transform="translate(1079.648 495.858)" fill="none" stroke="#252c49" stroke-miterlimit="10" stroke-width="0.51"/>
          <path id="Path_7167" data-name="Path 7167" d="M133.857,108.54c8.275,7.82,62.2,41.1,166.317.546a18.186,18.186,0,0,0,10.912-12.367,159.769,159.769,0,0,0,2-47.831c-1-9.093-9.093-18.732-18.187-16.641-25.916,6.547-70.291,12.367-155.4.727a9.093,9.093,0,0,0-10.821,8.457c0,15.55-1.637,50.1,3.092,64.29a7.183,7.183,0,0,0,2.091,2.819Z" transform="translate(1039.179 258.648)" fill="#efc591"/>
        </g>
      </g>
    </g>
  </g>
</svg>
