<svg width="35" height="22" viewBox="0 0 35 22" fill="none" xmlns="http://www.w3.org/2000/svg">
<path d="M28.5919 10.0687L27.7028 2.84635L26.0368 3.05143L26.0375 3.05027L22.8075 1.23253C22.463 1.03867 22.0676 0.95431 21.6739 0.990677L16.5739 1.46236C15.947 1.52032 15.3868 1.87805 15.0705 2.42246L11.4759 8.6095C11.2105 9.06635 11.4188 9.65225 11.9131 9.83894L12.0602 9.89445C12.343 10.0013 12.6338 10.0632 12.9244 10.0874L12.4689 10.484L11.5577 11.278L8.96596 13.4887C8.50461 13.8906 8.45669 14.5899 8.85857 15.0513L9.12148 15.3524C9.63759 15.9442 10.5359 16.0057 11.1288 15.4894L12.1194 16.6256C12.4414 16.9954 12.9132 17.159 13.3665 17.1032C13.6389 17.0697 13.9047 16.9568 14.1267 16.7626L15.1161 17.8988C15.4393 18.2696 15.911 18.4321 16.3643 18.3763C16.6367 18.3427 16.9026 18.2309 17.1246 18.0368L17.6623 18.5015C18.1786 19.0944 19.0779 19.1557 19.6709 18.6395L20.4018 18.0018L26.547 13.2158L26.5536 13.2097L28.9782 13.2073L28.5919 10.0687Z" fill="#F29F5C"/>
<path d="M25.9584 11.349L25.9518 11.3551L19.8066 16.141L19.0756 16.7788C18.4827 17.295 17.5833 17.2337 17.0671 16.6408L16.5294 16.1761C16.3074 16.3702 16.0414 16.4821 15.7691 16.5156C15.3158 16.5713 14.8441 16.4089 14.5209 16.0381L13.5314 14.9019C13.3094 15.096 13.0436 15.2089 12.7713 15.2425C12.318 15.2982 11.8462 15.1347 11.5241 14.7648L10.5336 13.6287C10.026 14.0707 9.29508 14.0879 8.77124 13.7126C8.50259 14.1177 8.52406 14.6667 8.85895 15.0512L9.12186 15.3523C9.63797 15.9442 10.5363 16.0056 11.1292 15.4894L12.1197 16.6255C12.4418 16.9953 12.9136 17.1589 13.3669 17.1031C13.6393 17.0696 13.905 16.9567 14.127 16.7626L15.1165 17.8988C15.4397 18.2696 15.9114 18.4321 16.3647 18.3763C16.6371 18.3427 16.903 18.2309 17.125 18.0368L17.6627 18.5015C18.179 19.0944 19.0783 19.1557 19.6712 18.6395L20.4022 18.0018L26.5474 13.2158L26.554 13.2097L28.9786 13.2073L28.7103 11.0283L25.9584 11.349Z" fill="#D37D42"/>
<path d="M27.0772 14.4731L23.7847 11.6341L22.8691 10.8453L22.214 10.281L19.3971 7.85291L19.7224 5.08369C19.8325 4.1471 19.2429 3.27026 18.334 3.01876L12.1936 1.3197C11.5439 1.13991 10.8573 1.44138 10.5499 2.04137L9.77774 3.54868L6.46314 3.32371L5.61412 10.5509L5.24512 13.6917L8.47153 13.9062L8.47823 13.9123L15.2186 19.7224L15.9531 20.3561C16.5488 20.869 17.4478 20.8027 17.9608 20.207L18.9438 19.0663C19.1669 19.2592 19.4334 19.3696 19.706 19.4016C20.1596 19.455 20.6304 19.2898 20.9516 18.9172L21.9347 17.7756C22.1578 17.9684 22.4242 18.0799 22.6968 18.1119C23.1504 18.1652 23.6213 17.999 23.9413 17.6274L24.9254 16.4858C25.5212 16.9987 26.4192 16.9323 26.932 16.3376L27.1933 16.035C27.5926 15.5715 27.5408 14.8724 27.0772 14.4731Z" fill="#F9C295"/>
<path d="M27.0771 14.4731L26.0742 13.6084C26.4002 14.0406 26.3935 14.6555 26.0256 15.0825L25.7483 15.4037C25.2039 16.035 24.2507 16.1056 23.6182 15.561L22.5734 16.7729C22.2338 17.1674 21.7338 17.3438 21.2523 17.2872C20.963 17.2532 20.6802 17.1349 20.4434 16.9302L19.3997 18.1422C19.0587 18.5376 18.559 18.7129 18.0775 18.6564C17.7881 18.6224 17.5051 18.5052 17.2684 18.3004L16.2248 19.5114C16.0282 19.7397 15.7778 19.8936 15.5088 19.9729L15.9531 20.3562C16.5488 20.8692 17.4478 20.8029 17.9608 20.2071L18.9438 19.0665C19.1668 19.2593 19.4334 19.3697 19.706 19.4018C20.1595 19.455 20.6304 19.2899 20.9515 18.9174L21.9347 17.7757C22.1577 17.9686 22.4241 18.0801 22.6967 18.112C23.1503 18.1654 23.6212 17.9992 23.9412 17.6275L24.9254 16.4859C25.5211 16.9989 26.4191 16.9324 26.9319 16.3377L27.1932 16.0351C27.5925 15.5715 27.5407 14.8725 27.0771 14.4731Z" fill="#E59F6A"/>
<path d="M25.2591 16.1057L23.4549 14.5502C23.2406 14.3653 22.9168 14.3892 22.7318 14.6037C22.5469 14.8181 22.5709 15.1419 22.7854 15.3268L24.5863 16.8796L24.9257 16.4859C25.0612 16.6026 25.2128 16.6877 25.3715 16.745C25.4886 16.5366 25.4471 16.2678 25.2591 16.1057Z" fill="#E59F6A"/>
<path d="M22.3738 18.0343C22.4973 17.8247 22.4577 17.5507 22.267 17.3862L20.6463 15.9889C20.4319 15.804 20.1082 15.828 19.9232 16.0424C19.7383 16.2568 19.7623 16.5806 19.9768 16.7655L21.5974 18.1628C21.5981 18.1634 21.5988 18.1639 21.5995 18.1644L21.9343 17.7756C22.0678 17.891 22.2171 17.9767 22.3738 18.0343Z" fill="#E59F6A"/>
<path d="M8.63951 13.8991L8.24897 14.4148C7.82371 14.9763 7.93418 15.7763 8.49575 16.2017C9.05732 16.6269 9.85732 16.5165 10.2827 15.9549L10.6732 15.4392C11.0984 14.8776 10.988 14.0776 10.4264 13.6523C9.86484 13.227 9.06477 13.3375 8.63951 13.8991Z" fill="#F29F5C"/>
<path d="M11.0176 14.9835L10.2822 15.9547C9.85691 16.5163 9.96738 17.3163 10.5289 17.7416C11.0905 18.1669 11.8905 18.0564 12.3159 17.4948L13.0513 16.5237C13.4766 15.9621 13.3661 15.1621 12.8046 14.7368C12.2429 14.3115 11.4429 14.422 11.0176 14.9835Z" fill="#F29F5C"/>
<path d="M13.3187 16.1713L12.3164 17.4949C11.8911 18.0565 12.0016 18.8565 12.5631 19.2818C13.1247 19.707 13.9247 19.5966 14.35 19.035L15.3524 17.7114C15.7776 17.1499 15.6672 16.3499 15.1056 15.9245C14.544 15.4992 13.744 15.6097 13.3187 16.1713Z" fill="#F29F5C"/>
<path d="M15.4101 17.6347L14.3496 19.035C13.9243 19.5966 14.0348 20.3966 14.5963 20.8219C15.1579 21.2472 15.9579 21.1367 16.3832 20.5751L17.4438 19.1748C17.869 18.6132 17.7586 17.8132 17.197 17.3879C16.6354 16.9626 15.8353 17.0731 15.4101 17.6347Z" fill="#F29F5C"/>
<path d="M26.037 3.05027L22.807 1.23253C22.4625 1.03867 22.0671 0.95431 21.6734 0.990677L16.5734 1.46236C15.9465 1.52032 15.3863 1.87805 15.07 2.42246L11.4754 8.60951C11.21 9.06642 11.4183 9.65225 11.9126 9.83894L12.0597 9.89445C13.3773 10.3921 14.8654 9.96862 15.7235 8.85184L17.1007 7.05946C17.1007 7.05946 20.4113 10.8926 24.0562 6.4162" fill="#F29F5C"/>
<path d="M34.9966 14.1731L33.3072 0.45C33.2906 0.315059 33.2211 0.192218 33.1139 0.108547C33.0067 0.0248753 32.8708 -0.0127226 32.7357 0.00382032L28.7854 0.490127C27.7594 0.616454 27.0275 1.55393 27.1538 2.57986L28.5103 13.5993C28.6271 14.548 29.4372 15.2452 30.3697 15.2452C30.4457 15.2452 30.5228 15.2405 30.6001 15.231L34.5504 14.7447C34.8314 14.71 35.0312 14.4542 34.9966 14.1731Z" fill="#5C9CEE"/>
<path d="M34.9966 14.1732L34.8112 12.6668C34.7271 12.7902 34.5928 12.8784 34.433 12.8981L30.292 13.4078C30.2109 13.4178 30.1302 13.4227 30.0505 13.4227C29.3532 13.4227 28.7215 13.0506 28.3721 12.4766L28.5103 13.5993C28.627 14.5479 29.4372 15.2451 30.3697 15.2451C30.4457 15.2451 30.5227 15.2405 30.6 15.231L34.5504 14.7446C34.8314 14.7101 35.0312 14.4542 34.9966 14.1732Z" fill="#3580D3"/>
<path d="M6.21507 0.49015L2.26473 0.003843C2.12959 -0.0127683 1.99376 0.024898 1.88657 0.10857C1.77938 0.192241 1.70986 0.315082 1.69325 0.450023L0.00389207 14.1732C-0.0306976 14.4543 0.169116 14.7101 0.450072 14.7447L4.40041 15.231C4.47779 15.2405 4.55469 15.2452 4.63078 15.2452C5.5632 15.2452 6.37339 14.5479 6.49015 13.5994L7.84666 2.57989C7.97299 1.55395 7.24107 0.616478 6.21507 0.49015Z" fill="#ED5575"/>
<path d="M31.7186 12.967C32.266 12.967 32.7097 12.5233 32.7097 11.9759C32.7097 11.4286 32.266 10.9849 31.7186 10.9849C31.1713 10.9849 30.7275 11.4286 30.7275 11.9759C30.7275 12.5233 31.1713 12.967 31.7186 12.967Z" fill="#EBEEF2"/>
<path d="M3.22545 12.967C3.7728 12.967 4.21652 12.5233 4.21652 11.9759C4.21652 11.4286 3.7728 10.9849 3.22545 10.9849C2.67809 10.9849 2.23438 11.4286 2.23438 11.9759C2.23438 12.5233 2.67809 12.967 3.22545 12.967Z" fill="#EBEEF2"/>
</svg>
