<svg width="1076" height="349" viewBox="0 0 1076 349" fill="none" xmlns="http://www.w3.org/2000/svg">
<g clip-path="url(#clip0)">
<g clip-path="url(#clip1)">
<path fill-rule="evenodd" clip-rule="evenodd" d="M-159.062 -75.4651C-115.198 -77.9811 -79.6332 -46.3051 -49.1622 -20.0741C-22.8332 2.58994 -15.6922 33.7999 0.781769 62.1259C20.7568 96.4769 68.2188 126.266 57.4918 163.339C46.8368 200.165 -6.28922 216.19 -48.1952 231.395C-83.1182 244.066 -121.339 237.323 -159.065 241.914C-206.202 247.649 -251.321 274.23 -296.454 261.601C-346.82 247.511 -390.691 213.645 -408.384 172.152C-426.242 130.278 -420.052 79.6929 -389.62 43.1159C-361.512 9.33593 -300.52 13.5779 -258.428 -8.07207C-221.143 -27.2481 -202.855 -72.9531 -159.062 -75.4651Z" fill="#695BDF"/>
</g>
</g>
<defs>
<clipPath id="clip0">
<rect width="1076" height="349" fill="white"/>
</clipPath>
<clipPath id="clip1">
<rect width="1203" height="690" fill="white"/>
</clipPath>
</defs>
</svg>
