<svg xmlns="http://www.w3.org/2000/svg" xmlns:xlink="http://www.w3.org/1999/xlink" width="495.635" height="304.217" viewBox="0 0 495.635 304.217">
  <defs>
    <linearGradient id="linear-gradient" y1="0.572" x2="1.228" y2="0.56" gradientUnits="objectBoundingBox">
      <stop offset="0" stop-color="#502eff"/>
      <stop offset="1" stop-color="#d1c7ff"/>
    </linearGradient>
  </defs>
  <g id="_2" data-name="2" transform="translate(0 -95.709)">
    <g id="Group_1544" data-name="Group 1544">
      <g id="Group_1542" data-name="Group 1542">
        <path id="Path_7373" data-name="Path 7373" d="M145.741,379.771C71.714,376.2,14.685,312.029,20.394,237.636c5.38-70.107,65.522-124.059,135.8-121.862a132.048,132.048,0,0,1,108.28,62.671,9.935,9.935,0,0,0,7.959,4.721l.229.011a9.906,9.906,0,0,0,8.906-15.1A152.045,152.045,0,0,0,158.513,95.846C74.556,92.3,3.154,158.341.1,242.32-2.915,325.3,61.615,395.736,144.778,399.747A152.22,152.22,0,0,0,281.6,327.553a9.914,9.914,0,0,0-7.912-15.154l-.227-.011a9.968,9.968,0,0,0-8.944,4.763A132.2,132.2,0,0,1,145.741,379.771Z" fill="url(#linear-gradient)"/>
      </g>
      <g id="Group_1543" data-name="Group 1543">
        <path id="Path_7374" data-name="Path 7374" d="M490.636,239.159,327.73,145.106a10,10,0,0,0-15,8.66v49.542h-162.8a10,10,0,0,0-10,10V282.33a10,10,0,0,0,10,10h162.8v49.542a10,10,0,0,0,15,8.66l162.906-94.054a10,10,0,0,0,0-17.319ZM332.729,324.553V282.33a10,10,0,0,0-10-10h-162.8V223.309h162.8a10,10,0,0,0,10-10V171.087l132.906,76.732Z" fill="url(#linear-gradient)"/>
      </g>
    </g>
  </g>
</svg>
