<svg xmlns="http://www.w3.org/2000/svg" xmlns:xlink="http://www.w3.org/1999/xlink" width="222.137" height="79.127" viewBox="0 0 222.137 79.127"><defs><style>.a,.b,.c,.d,.e{opacity:0.5;}.a{fill:url(#a);}.b{fill:url(#b);}.c{fill:url(#c);}.d{fill:url(#d);}.e{fill:url(#e);}.f{fill:#502eff;font-size:29px;font-family:Graphie-Regular, Graphie;}</style><linearGradient id="a" x1="0.949" y1="-0.049" x2="0" y2="1" gradientUnits="objectBoundingBox"><stop offset="0" stop-color="#d1c7ff"/><stop offset="1" stop-color="#502eff"/></linearGradient><linearGradient id="b" x1="1.036" y1="-0.043" xlink:href="#a"/><linearGradient id="c" x1="1.129" y1="-0.143" xlink:href="#a"/><linearGradient id="d" x1="1.394" y1="-0.283" xlink:href="#a"/><linearGradient id="e" x1="1.963" y1="-0.777" xlink:href="#a"/></defs><g transform="translate(-849.863 -305.115)"><g transform="translate(849.863 305.115)"><path class="a" d="M709.341,118.127H678.525V39h30.816A39.564,39.564,0,0,1,748.9,78.564h0A39.564,39.564,0,0,1,709.341,118.127Z" transform="translate(-678.525 -39)"/><path class="b" d="M707.018,127.163H678.525V54h28.493A36.582,36.582,0,0,1,743.6,90.582h0A36.582,36.582,0,0,1,707.018,127.163Z" transform="translate(-678.525 -48.036)"/><path class="c" d="M704.438,137.2H678.525V70.66h25.913a33.269,33.269,0,0,1,33.269,33.269h0A33.269,33.269,0,0,1,704.438,137.2Z" transform="translate(-678.525 -58.071)"/><path class="d" d="M701.6,148.246H678.525V89H701.6a29.623,29.623,0,0,1,29.623,29.623h0A29.623,29.623,0,0,1,701.6,148.246Z" transform="translate(-678.525 -69.119)"/><path class="e" d="M698.886,158.8H678.525V106.515h20.361a26.141,26.141,0,0,1,26.141,26.141h0A26.141,26.141,0,0,1,698.886,158.8Z" transform="translate(-678.525 -79.669)"/></g><text class="f" transform="translate(943 356)"><tspan x="0" y="0">Dominate</tspan></text></g></svg>