<svg xmlns="http://www.w3.org/2000/svg" xmlns:xlink="http://www.w3.org/1999/xlink" width="242.571" height="72.404" viewBox="0 0 242.571 72.404"><defs><style>.a,.b,.c,.d,.e{opacity:0.5;}.a{fill:url(#a);}.b{fill:url(#b);}.c{fill:url(#c);}.d{fill:url(#d);}.e{fill:url(#e);}.f,.g{fill:#502eff;}.f{font-size:28px;font-family:Graphie-Bold, Graphie;font-weight:700;}.h{fill:#fff;}</style><linearGradient id="a" x1="0.949" y1="-0.049" x2="0" y2="1" gradientUnits="objectBoundingBox"><stop offset="0" stop-color="#d1c7ff"/><stop offset="1" stop-color="#502eff"/></linearGradient><linearGradient id="b" x1="1.036" y1="-0.043" xlink:href="#a"/><linearGradient id="c" x1="1.129" y1="-0.143" xlink:href="#a"/><linearGradient id="d" x1="1.394" y1="-0.283" xlink:href="#a"/><linearGradient id="e" x1="1.963" y1="-0.777" xlink:href="#a"/></defs><g transform="translate(-165 -52)"><g transform="translate(-513.525 13)"><path class="a" d="M706.723,111.4h-28.2V39h28.2a36.2,36.2,0,0,1,36.2,36.2h0A36.2,36.2,0,0,1,706.723,111.4Z"/><path class="b" d="M704.6,120.947H678.525V54H704.6A33.473,33.473,0,0,1,738.07,87.473h0A33.473,33.473,0,0,1,704.6,120.947Z" transform="translate(0 -9.542)"/><path class="c" d="M702.237,131.545H678.525V70.66h23.711A30.442,30.442,0,0,1,732.679,101.1h0A30.442,30.442,0,0,1,702.237,131.545Z" transform="translate(0 -20.141)"/><path class="d" d="M699.638,143.212H678.525V89h21.113a27.106,27.106,0,0,1,27.106,27.106h0A27.106,27.106,0,0,1,699.638,143.212Z" transform="translate(0 -31.808)"/><path class="e" d="M697.156,154.355H678.525v-47.84h18.631a23.92,23.92,0,0,1,23.92,23.92h0A23.92,23.92,0,0,1,697.156,154.355Z" transform="translate(0 -42.95)"/></g><g transform="translate(16 -14)"><text class="f" transform="translate(234 113)"><tspan x="0" y="0">Dominate</tspan></text><g transform="translate(4 14.5)"><circle class="g" cx="9.286" cy="9.286" r="9.286" transform="translate(369 81.5)"/><path class="h" d="M9.313-8.5,6.508-4.383,9.3,0H6.275L5.047-2.291Q4.9-2.565,4.69-3.063H4.657a5.39,5.39,0,0,1-.34.747L3.08,0H.066L2.938-4.233.241-8.5H3.279L4.491-6.118a5.225,5.225,0,0,1,.34.8h.033a5.616,5.616,0,0,1,.357-.813L6.458-8.5Z" transform="translate(373.934 95)"/></g></g></g></svg>