<svg xmlns="http://www.w3.org/2000/svg" xmlns:xlink="http://www.w3.org/1999/xlink" width="880.095" height="718" viewBox="0 0 880.095 718"><defs><style>.a,.b{fill:#edeff4;}.b{opacity:0.75;}.c{fill:#ebeff7;}.d{fill:#24246b;}.e{fill:url(#a);}.f{fill:url(#b);}.g{fill:url(#c);}.h{fill:#3535aa;}.i{fill:url(#d);}.j{fill:url(#e);}.k{fill:#152c68;}.l{fill:#192ead;}.m{fill:#faceb9;}.n{fill:#ffdecf;}.o{fill:#4864d8;}.p{fill:#19337c;}.q{fill:#5481db;}.ap,.bu,.bv,.by,.r{fill:none;}.s{fill:#ebf0f2;}.t{fill:url(#f);}.u{fill:url(#g);}.v{fill:url(#h);}.w{fill:url(#i);}.x{fill:url(#j);}.y{fill:url(#k);}.z{fill:#d0d1d8;}.aa{fill:#a7b3c6;}.ab{fill:url(#l);}.ac{fill:url(#m);}.ad{fill:url(#n);}.ae{fill:url(#o);}.af{fill:url(#p);}.ag{fill:url(#q);}.ah{fill:#1e46c4;}.ai{fill:#1631a4;}.aj{fill:url(#r);}.ak{fill:url(#s);}.al{fill:url(#t);}.am{fill:url(#u);}.an{fill:url(#v);}.ao{fill:url(#w);}.ap{stroke:#405cc6;}.ap,.bu,.bv,.by{stroke-linecap:round;stroke-miterlimit:10;}.aq{fill:url(#x);}.ar{fill:url(#y);}.as{fill:url(#z);}.at{fill:#ebf2fc;}.au{fill:#294dc1;}.av{fill:#f47d7d;}.aw{fill:#ef6520;}.ax{fill:#e0e3ea;}.ay{fill:url(#aa);}.az{fill:url(#ab);}.ba{fill:url(#ac);}.bb{fill:url(#ad);}.bc{fill:#ff911e;}.bd{fill:#ced1d8;}.be{fill:url(#ae);}.bf{fill:#d9e0e2;}.bg{fill:#486cd3;}.bh{fill:url(#af);}.bi{fill:url(#ag);}.bj{fill:url(#ah);}.bk{fill:#4561d8;}.bl{fill:#242528;}.bm{fill:#3c53a0;}.bn{fill:#ccd2db;}.bo{fill:#bfd7fa;}.bp{fill:#1c3391;}.bq{fill:#5f80f6;}.br{fill:#fff;}.bs{fill:url(#ai);}.bt{fill:url(#aj);}.bu,.bv,.by{stroke:#18317f;stroke-width:1.6px;}.bv{stroke-dasharray:4.88 5.86;}.bw{fill:url(#ak);}.bx{fill:url(#al);}.by{stroke-dasharray:5.01 6.01;}</style><linearGradient id="a" y1="0.502" x2="1" y2="0.502" gradientUnits="objectBoundingBox"><stop offset="0" stop-color="#546aea"/><stop offset="1" stop-color="#658bfd"/></linearGradient><linearGradient id="b" x1="0" y1="0.499" x2="1" y2="0.499" xlink:href="#a"/><linearGradient id="c" x1="0.5" y1="-0.169" x2="0.5" y2="0.652" gradientUnits="objectBoundingBox"><stop offset="0" stop-color="#24247f"/><stop offset="1" stop-color="#2d2d96"/></linearGradient><linearGradient id="d" x1="6.932" y1="0.51" x2="-14.952" y2="0.475" gradientUnits="objectBoundingBox"><stop offset="0" stop-color="#242463"/><stop offset="1" stop-color="#242463" stop-opacity="0"/></linearGradient><linearGradient id="e" x1="1.204" y1="0.568" x2="-3.043" y2="0.177" xlink:href="#d"/><linearGradient id="f" x1="0.511" y1="0.014" x2="0.371" y2="0.893" xlink:href="#c"/><linearGradient id="g" x1="0.125" y1="-0.051" x2="0.843" y2="0.736" xlink:href="#c"/><linearGradient id="h" x1="0.5" y1="0.089" x2="0.5" y2="1.939" xlink:href="#d"/><linearGradient id="i" x1="0.5" y1="0.092" x2="0.5" y2="1.941" xlink:href="#d"/><linearGradient id="j" x1="1.325" y1="0.248" x2="-0.279" y2="0.865" gradientUnits="objectBoundingBox"><stop offset="0" stop-color="#e1e1e1"/><stop offset="1" stop-color="#fff"/></linearGradient><linearGradient id="k" x1="0.568" y1="2.185" x2="0.494" y2="-0.153" xlink:href="#j"/><linearGradient id="l" x1="0.9" y1="0.116" x2="0.19" y2="0.798" gradientUnits="objectBoundingBox"><stop offset="0" stop-color="#dfe1e5"/><stop offset="1" stop-color="#f3f3f3"/></linearGradient><linearGradient id="m" x1="0.491" y1="-1.017" x2="0.504" y2="1.085" gradientUnits="objectBoundingBox"><stop offset="0" stop-color="#b9bec6"/><stop offset="1" stop-color="#b9bec6" stop-opacity="0"/></linearGradient><linearGradient id="n" x1="4.323" y1="1.496" x2="-0.34" y2="0.352" xlink:href="#m"/><linearGradient id="o" x1="0.598" y1="-0.509" x2="0.397" y2="1.099" xlink:href="#l"/><linearGradient id="p" x1="1.408" y1="0.54" x2="0.331" y2="0.492" xlink:href="#j"/><linearGradient id="q" x1="2.522" y1="0.698" x2="-0.985" y2="0.364" gradientUnits="objectBoundingBox"><stop offset="0" stop-color="#bccace"/><stop offset="1" stop-color="#bccace" stop-opacity="0"/></linearGradient><linearGradient id="r" x1="451.78" y1="0.709" x2="451.798" y2="-0.094" gradientUnits="objectBoundingBox"><stop offset="0" stop-color="#404fd9"/><stop offset="1" stop-color="#658bfd"/></linearGradient><linearGradient id="s" x1="245.948" y1="0.618" x2="245.732" y2="-0.157" gradientUnits="objectBoundingBox"><stop offset="0" stop-color="#4f6ad9"/><stop offset="1" stop-color="#658bfd"/></linearGradient><linearGradient id="t" x1="235.514" y1="1.099" x2="235.36" y2="0.335" xlink:href="#a"/><linearGradient id="u" x1="237.341" y1="1.232" x2="237.185" y2="-0.296" xlink:href="#a"/><linearGradient id="v" x1="456.03" y1="1.555" x2="455.728" y2="-1.01" xlink:href="#a"/><linearGradient id="w" x1="375.919" y1="1.049" x2="375.674" y2="-0.015" xlink:href="#a"/><linearGradient id="x" x1="0.497" y1="0.709" x2="0.515" y2="-0.094" xlink:href="#r"/><linearGradient id="y" x1="0.502" y1="0.618" x2="0.286" y2="-0.157" xlink:href="#s"/><linearGradient id="z" x1="0.555" y1="0.637" x2="0.313" y2="-0.197" xlink:href="#s"/><linearGradient id="aa" x1="0.608" y1="1.099" x2="0.453" y2="0.335" xlink:href="#a"/><linearGradient id="ab" x1="0.562" y1="1.232" x2="0.406" y2="-0.296" xlink:href="#a"/><linearGradient id="ac" x1="0.585" y1="1.555" x2="0.283" y2="-1.01" xlink:href="#a"/><linearGradient id="ad" x1="0.606" y1="1.049" x2="0.361" y2="-0.015" xlink:href="#a"/><linearGradient id="ae" x1="0.516" y1="0.148" x2="0.479" y2="1.44" xlink:href="#a"/><linearGradient id="af" x1="0.517" y1="0.075" x2="0.482" y2="1.368" xlink:href="#a"/><linearGradient id="ag" x1="0.502" y1="0.046" x2="0.432" y2="0.965" xlink:href="#c"/><linearGradient id="ah" x1="-0.376" y1="0.027" x2="2.35" y2="1.162" xlink:href="#d"/><linearGradient id="ai" x1="0.991" y1="0.118" x2="0.077" y2="0.791" xlink:href="#a"/><linearGradient id="aj" x1="0.579" y1="-0.493" x2="0.319" y2="1.261" xlink:href="#a"/><linearGradient id="ak" x1="0" y1="0.5" x2="1" y2="0.5" xlink:href="#a"/><linearGradient id="al" x1="87.819" y1="-74.17" x2="89.088" y2="-74.17" xlink:href="#a"/></defs><g transform="translate(0.003)"><g transform="translate(-0.003)"><path class="a" d="M404.017,303.308c-24.768-.853-72.578,8.526-65.757,28.179s25.578,9.4,38.858,5.137,53.288,21.315,68.741,6.395-12.789-38-46.1-36.7" transform="translate(382.008 343.139)"/><path class="a" d="M294.9,313.647s-46.893-2.558-46.531,4.263,25.195,15.39,46.531,20.505,26.473,17.926,68.315,16.221,22.637-51.157,22.637-51.157-16.647-2.558-38.005,7.269-49.941,9.826-59.341-4.263Z" transform="translate(281.041 343.053)"/><path class="a" d="M19.376,308.09s-2.984,14.516,8.974,18.8,35,19.631,67.463,16.221-6.395-35.021-6.395-35.021Z" transform="translate(21.557 348.609)"/><path class="a" d="M226.3,29.413c-40.5-7.929-104.615-8.121-94.789,8.526S206.162,105,235.278,91.76,265.589,37.087,226.3,29.413Z" transform="translate(147.677 27.371)"/><path class="b" d="M681.049,441.675C608.471,500.8,348.532,556.116,187.027,443.38S29.465,179.5,26.481,157.756,30.3,25.282,137.938,26.647s142.364,163.871,259.6,81.978C509.4,30.483,542.714,39.457,581.145,83.047c13.684,15.517,36.342,36.982,64.478,38.858,36.7,2.451,66.184-1.705,106.747-13.237C805.679,93.491,978.247,199.577,681.049,441.675Z" transform="translate(29.393 30.137)"/><path class="c" d="M360.9,170.171l12.341-11.681,24.832,11.681-4.327,118.342H373.114Z" transform="translate(408.372 179.334)"/><path class="d" d="M366.992,324.844A14.641,14.641,0,0,1,362,326.336l-20.164-4.86c6.608-1.982,11.851-5.329,13.492-7.759a21.72,21.72,0,0,0,1.577-7.5c.256-2.792.32-5.265.32-5.265l10.849-1.62v6.842C368.186,313.547,368.058,324.2,366.992,324.844Z" transform="translate(386.805 338.697)"/><path class="e" d="M360.164,306.195a41.76,41.76,0,0,1-11.254,0c.256-2.792.32-5.265.32-5.265l10.85-1.62S360.143,302.294,360.164,306.195Z" transform="translate(394.805 338.675)"/><path class="d" d="M397.817,325.366s-14.643,4.881-17.9,4.263-1.087-8.313-.533-12.661a71.174,71.174,0,0,0-.192-10.189c-.277-3.964-.64-7.439-.64-7.439h11.126s.171,3.453.405,7.055c.192,3.005.448,6.1.682,7.332C391.316,316.414,397.817,325.366,397.817,325.366Z" transform="translate(427.897 338.709)"/><path class="f" d="M389.872,306.385c-2.9.213-6.672.341-10.892.384-.277-3.965-.639-7.439-.639-7.439h11.127S389.637,302.89,389.872,306.385Z" transform="translate(428.106 338.697)"/><path class="g" d="M427.154,215.577v95.535c0,7.61-1.62,86.859-1.62,86.859H411.957s-8.143-71.385-8.42-83.875-5.691-67.569-5.691-67.569l-.128.384L380.2,306.231a231.182,231.182,0,0,0-5.691,29.053c-2.451,17.628-12.789,62.688-12.789,62.688H348.16l5.968-87.946,9.485-95.535a290.124,290.124,0,0,0,52.841,1.9C420.035,216.259,423.594,215.982,427.154,215.577Z" transform="translate(393.956 242.699)"/><path class="h" d="M363.383,315.744s-6.714-8.952-15.858-6.522-6.97,5.712-5.371,6.522A41.054,41.054,0,0,0,363.383,315.744Z" transform="translate(385.533 349.417)"/><path class="h" d="M397.329,316.746c-2.131.426-18.182,1.343-18.992,0s.533-5.713,5.158-6.522,13.833,2.131,15.2,3.538S398.694,316.469,397.329,316.746Z" transform="translate(427.852 350.867)"/><path class="i" d="M390.889,215v95.535c0,7.61-1.62,86.859-1.62,86.859h-3.581a292.886,292.886,0,0,0-.234-44.506c-2.132-24.981-3.517-34.211,0-63.8,2.814-23.617-2.835-59.683-5.244-73.282C383.77,215.682,387.329,215.4,390.889,215Z" transform="translate(430.222 243.276)"/><path class="j" d="M392.785,239.156l-17.521,59.32a231.208,231.208,0,0,0-5.691,29.053c-2.451,17.628-12.789,62.688-12.789,62.688H352.52a309.8,309.8,0,0,0,8.91-44.506c2.664-18.693-.959-19.972,4.6-47.234,2.707-13.3,11.936-25.791,14.665-41.522a187.011,187.011,0,0,1,9.229-35.554Z" transform="translate(398.89 250.518)"/><path class="k" d="M405.6,253.621s1.9,17.628,1.364,18.715S391,278.943,389.039,273.7c-2.707-7.332,0-47.512,0-47.512s-.256-13.833,2.728-13.279S405.6,253.621,405.6,253.621Z" transform="translate(438.85 240.892)"/><path class="l" d="M392.064,242.232s-1.62-18.992,0-21.443,3.794-2.132,7.055,12.491,3.815,26.047,5.968,27.134a19.037,19.037,0,0,0,5.712,1.364s-13.023-51.838-16.562-51.838-7.865,4.071-7.055,31.205C387.183,241.145,387.993,251.185,392.064,242.232Z" transform="translate(437.999 237.551)"/><path class="m" d="M383.693,149.32l-.32,9.507-.213,6.267-.277,8.654c-10.658,15.475-18.182,0-18.182,0l-1.066-9.933-.362-3.261-.213-2Z" transform="translate(410.816 168.958)"/><path class="n" d="M383.26,154.061l-.213,6.267c-2.686,3.389-6.2,7.034-8.974,7.034-3.6,0-8.164-5.2-10.551-8.313l-.362-3.261C368.105,152.8,377.846,153.421,383.26,154.061Z" transform="translate(410.929 173.724)"/><path class="l" d="M360.063,160.7s-2.558-9.4-1.535-13.983a3.581,3.581,0,0,1,5.329-2.537,7.034,7.034,0,0,1,1.023-7.865c3.3-3.815,16.754-5.585,24.64-2.3s3.048,10.423,3.048,10.423,9.912-2.537,3.048,14.921l-15.24,6.395-20.313-4.817Z" transform="translate(405.415 149.691)"/><path class="n" d="M364.111,146.756s-3.815-4.071-5.073-1.535,1.513,11.937,7.61,11.425Z" transform="translate(405.928 163.379)"/><path class="n" d="M375.1,146.756s3.815-4.071,5.073-1.535-1.513,11.937-7.61,11.425Z" transform="translate(421.565 163.379)"/><path class="n" d="M389.1,152.294h0c0,.575-1.023,16.8-1.769,19.8a16.711,16.711,0,0,1-7.8,8.292,6.053,6.053,0,0,1-2.366.6,12.79,12.79,0,0,1-8.27-3.837,18.369,18.369,0,0,1-3.155-3.794c-2.132-3.3-4.839-21.081-4.839-21.081a17.052,17.052,0,0,0,2.75-9.08c0-.746,0-1.513,0-2.345,0,0,13.727-5.329,22.871.256v.107A23.981,23.981,0,0,0,389.1,152.294Z" transform="translate(408.372 156.776)"/><path class="n" d="M379.211,145c0,.576-1.023,16.8-1.769,19.8a16.712,16.712,0,0,1-7.8,8.292C376.354,168.617,379.125,145.639,379.211,145Z" transform="translate(418.261 164.07)"/><path class="o" d="M385.1,141.134v.107c-9.4-2.132-19.5.789-22.914,1.982v-2.345C362.233,140.878,375.96,135.549,385.1,141.134Z" transform="translate(409.832 156.81)"/><path class="p" d="M398.644,279.676a85.539,85.539,0,0,1-13.556-.831,59.255,59.255,0,0,1-14.132-3.517l-2.728-69.21s-4.263,13.919-5.606,19.823a10.9,10.9,0,0,0-.363,2.43c.277,2.132,3.538,17.372,3.538,17.372l-15.752,5.968s-7.865-15.475-7.865-20.612,11.4-54.844,13.834-58.638,32.314-11.681,32.314-11.681Z" transform="translate(387.19 181.925)"/><path class="p" d="M399.458,230.268a16.454,16.454,0,0,0,0-3.794c-.533-2.707-4.263-14.388-4.263-14.388.554,6.522,4.263,68.933,4.263,68.933a113.046,113.046,0,0,1-11.617-.3c-6.629-.4-12.278-1.044-12.278-1.044l-2.984-118.9a103.357,103.357,0,0,1,32.314,9.229c1.62,1.087,13.024,54.567,13.024,56.741s-4.625,17.9-4.625,17.9l-15.326-4.263h-.128v-.448c.256-1.407,1.066-5.862,1.449-9.357h0V230.4Z" transform="translate(421.588 181.925)"/><path class="q" d="M376.149,265.685a59.25,59.25,0,0,1-14.132-3.517l-2.728-69.21s-4.263,13.919-5.606,19.823l-3.6,10.658,11.382-51.029a131.514,131.514,0,0,1,3.368,42.268C363.253,233.67,375.871,248.271,376.149,265.685Z" transform="translate(396.129 195.085)"/><path class="r" d="M384.464,198.328v-.448a3.865,3.865,0,0,0,0,.49Z" transform="translate(435.026 223.905)"/><path class="r" d="M385.193,193.39a.491.491,0,0,0,0,.149Z" transform="translate(435.853 218.824)"/><path class="q" d="M387.084,200.838c.554,6.522,4.263,68.933,4.263,68.933a113.075,113.075,0,0,1-11.617-.3c6.757-13.407,4.583-40.883,2.387-54.247-2.451-14.921,0-44.506,0-44.506s10.039,37.728,10.039,39.071-.725,7.908-.874,9.229a16.461,16.461,0,0,0,0-3.794C390.963,212.519,387.084,200.838,387.084,200.838Z" transform="translate(429.678 193.173)"/><path class="n" d="M375.733,241.906a8.525,8.525,0,0,1-1.727,2.963,16.816,16.816,0,0,1-5.329,3.816c-7.61-11.937-22.807-42.076-22.807-42.076l10.764-4.071,4.988-1.9c.661,1.535,3.112,10.658,6.245,20.633S375.733,241.906,375.733,241.906Z" transform="translate(391.365 227.028)"/><path class="n" d="M370.018,241.906a8.524,8.524,0,0,1-1.726,2.963c-2.132-9.784-7.013-12.789-9.677-23.873a64.627,64.627,0,0,0-7.695-18.459l4.988-1.9c.661,1.535,3.112,10.658,6.245,20.633S370.018,241.906,370.018,241.906Z" transform="translate(397.079 227.028)"/><path class="p" d="M366.5,208.112s-16.541,5.968-17.35,6.522-5.435-8.7-5.435-8.7l21.443-7.588S367.775,206.322,366.5,208.112Z" transform="translate(388.921 224.437)"/><path class="l" d="M381.876,161.959s-3.261,80.124,18.864,100.032l-3.389,7.46s-25.77-25.813-21.7-108.047C375.652,161.4,377.8,160.062,381.876,161.959Z" transform="translate(424.57 182.111)"/><path class="n" d="M398.429,248.314c.533,1.641,1.087,10.871-1.364,11.958a22.892,22.892,0,0,1-8.142.533s9.229,10.04,7.865,10.317-9.762-7.055-10.3-8.675-4.071-15.219-3.815-22.274,3.815-42.332,3.815-42.332l9.528,3.005,5.926,1.876c-1.748,5.478-11.127,38-11.127,38v.128c1.9,4.412,4.839,15.07,4.839,15.07S397.875,246.694,398.429,248.314Z" transform="translate(432.998 223.86)"/><path class="n" d="M387.961,239.182v.128l-2.771,3.133c3.261-8.526,1.62-17.372,5.435-27.71A40.137,40.137,0,0,0,393.1,199.28l5.926,1.876C397.34,206.57,387.961,239.182,387.961,239.182Z" transform="translate(435.857 225.489)"/><path class="p" d="M383.44,197l21.443,5.968a72.9,72.9,0,0,1-3.815,8.419,127.109,127.109,0,0,1-17.372-4.625C383.44,206.123,383.44,197,383.44,197Z" transform="translate(433.876 222.909)"/><path class="d" d="M293.816,315.717a14.407,14.407,0,0,1-.853,3.943s-27.987.81-38.048,0-4.6-11.148-.81-13.322a4.391,4.391,0,0,1,1.513-.512c4.263-.767,10.892,2.3,14.26,1.343a60.124,60.124,0,0,0,11.127-5.99l11.233,1.13A43.181,43.181,0,0,1,293.816,315.717Z" transform="translate(281.957 340.791)"/><path class="s" d="M293.816,313.25a14.406,14.406,0,0,1-.853,3.943s-27.987.81-38.048,0-4.6-11.148-.81-13.322a4.387,4.387,0,0,1,1.513-.512c2.132.575,4.647,3.346,6.65,11.126C262.27,314.444,283.35,315.147,293.816,313.25Z" transform="translate(281.957 343.257)"/><path class="d" d="M320.984,329.841s-17.67.256-20.1,0c-2-.234-.384-5.712,1.769-9.357h0a12.953,12.953,0,0,1,1.492-2.132,7.737,7.737,0,0,1,6.778-2.131s2.75-8.526,0-14.025l11.4-5.265a78.881,78.881,0,0,1,4.263,10.977,23.472,23.472,0,0,1,.618,2.878C328.061,316.263,320.984,329.841,320.984,329.841Z" transform="translate(339.431 335.982)"/><path class="s" d="M320.984,324s-17.67.256-20.1,0c-2-.234-.384-5.712,1.769-9.357h0c8.313-11.254,17.244,3.368,17.244,3.368,3.453-4.263,5.691-11.809,6.714-15.922a23.442,23.442,0,0,1,.618,2.878C328.061,310.424,320.984,324,320.984,324Z" transform="translate(339.431 341.82)"/><path class="t" d="M287.226,263.124c-.277,4.391-.7,9.4-1.428,14.579-2.132,15.752-7.034,84.643-7.034,84.643a11.468,11.468,0,0,1-13.279,0l-4.263-96.75-.341-8.27L287.5,247.82S287.78,254.172,287.226,263.124Z" transform="translate(295.197 280.413)"/><path class="u" d="M345.425,359.077c-1.364,4.9-11.212,5.478-11.212,5.478s-46.787-88.628-49.494-93.787a42.815,42.815,0,0,1-2.238-5.2c-1.684-4.647-2.941-9.485-2.941-9.485l1.641.554,29.841-14.686.171,21.017v6.267a140.548,140.548,0,0,1,12.278,30.076C327.926,315.615,345.425,359.077,345.425,359.077Z" transform="translate(316.312 273.771)"/><path class="v" d="M287.553,247.82s.171,6.395-.384,15.3l-25.9,2.473-.341-8.27Z" transform="translate(295.254 280.413)"/><path class="w" d="M311.257,263l-28.776,2.536c-1.684-4.647-2.941-9.485-2.941-9.485l1.641.554,29.841-14.686Z" transform="translate(316.312 273.737)"/><path class="n" d="M266.345,200.45s-4.881,5.712-5.712,6.245-14.366,1.982-14.921,2.792,9.016,2.43,9.016,2.43-7.375,4.86-7.652,6.2,1.769,14.921,6.394,14.388,14.388-18.438,14.388-18.438l4.924-5.393Z" transform="translate(278.009 226.813)"/><path class="x" d="M277.151,220.142l-14.665,10.317-8.7-10.317s20.377-23.447,21.742-25.834A108.717,108.717,0,0,0,279.6,183.65Z" transform="translate(287.175 207.803)"/><path class="p" d="M310.127,162.69s11.7,3.688,15.517,4.8c9.912,2.835,11.276,7.737,11.958,18.48s-17.947,68.209-17.947,68.209l-55.995-1.3s2.451-24.171,2.728-29.841-3.538-43.76-2.728-47.021,10-10.338,20.484-12.64Z" transform="translate(298.215 184.087)"/><path class="q" d="M294.645,173.16s-.81,29.628-2.707,34.786-9.528,29.841-9.528,29.841l16.924,1.279,11.084-31.184Z" transform="translate(319.559 195.934)"/><path class="l" d="M306.236,163.814a25.58,25.58,0,0,0,2.451-14.132s5.99-6.267-4.881-12.512-24.193-4.263-28.541-1.62-2.728,8.419-2.728,8.419-6.522,11.681,3.005,20.654l26.623,3.794Z" transform="translate(305.922 150.521)"/><path class="y" d="M278.352,162.518l-6.842,2.3,9.507,55.462L304.4,163.733l-6.245-1.343Z" transform="translate(307.226 183.747)"/><path class="z" d="M282.549,164.94l-6.629,51.8,8.27-51.8Z" transform="translate(312.216 186.633)"/><path class="n" d="M302.965,163.811a2.132,2.132,0,0,1-3.261-1.087c-1.364,6.8-2.131,21.315-2.131,21.315s-5.18,8.42-9.528,8.164-7.865-6.267-7.865-6.267l.469-2.3.874-4.263a6.543,6.543,0,0,1-4.092.256,10.657,10.657,0,0,1-2.025-.725h0a13.607,13.607,0,0,1-1.471-.853c-3.368-2.323-1.364-23.83-.341-33,.277-2.515.49-4.114.49-4.114,1.215,2.131,3.666,2.856,11.276,2.3a35.426,35.426,0,0,1,11.958.831v.256a25.728,25.728,0,0,0,.9,14.409s2.451-6.8,5.435-6.522S305.139,162.383,302.965,163.811Z" transform="translate(307.85 159.476)"/><path class="o" d="M296.429,144.033v.256a108.1,108.1,0,0,0-15.688,1.364,13.877,13.877,0,0,1-7.951-.639c.277-2.515.49-4.114.49-4.114,1.215,2.132,3.666,2.856,11.276,2.3A35.426,35.426,0,0,1,296.429,144.033Z" transform="translate(308.674 159.431)"/><path class="n" d="M287.9,156.14s-2.622,9.059-10.125,10.189l.874-4.263a6.543,6.543,0,0,1-4.093.256C277.011,162.769,281.573,162.236,287.9,156.14Z" transform="translate(310.677 176.675)"/><path class="aa" d="M277.864,161a9.612,9.612,0,0,0-3.261,3.815c-.81,2.132,6.522,13.045,6.522,13.045l3.005-8.526A12.49,12.49,0,0,1,277.864,161Z" transform="translate(310.655 182.174)"/><path class="aa" d="M288.764,161a8.4,8.4,0,0,1,2.132,4.093c.256,2.131-8.974,12.789-8.974,12.789l-2.132-8.419A31.971,31.971,0,0,0,288.764,161Z" transform="translate(316.595 182.174)"/><path class="ab" d="M407.634,199.377l18.033,85.09a8.526,8.526,0,0,1-2.132,7.524,8.14,8.14,0,0,1-3.261,2.238,6.981,6.981,0,0,1-1.3.384L276.46,324.8a8.257,8.257,0,0,1-2.025.192,8.739,8.739,0,0,1-3.688-.938,8.632,8.632,0,0,1-4.455-5.84l-18.011-85.09a8.526,8.526,0,0,1,6.608-10.146L397.4,192.79a8.526,8.526,0,0,1,7.993,2.494A8.355,8.355,0,0,1,407.634,199.377Z" transform="translate(280.726 217.932)"/><path class="ac" d="M407.589,199.365l4.135,19.525c-18.885,15.326-63.946,51.519-69.019,53.288-5.862,2-80.571-32.271-94.277-38.58l-.107-.469a8.526,8.526,0,0,1,6.608-10.146L397.443,192.8a8.526,8.526,0,0,1,7.993,2.494,8.357,8.357,0,0,1,2.153,4.071Z" transform="translate(280.771 217.943)"/><path class="ad" d="M321,274.814,332.958,213l10.253,48.322a8.526,8.526,0,0,1-2.131,7.524,8.143,8.143,0,0,1-3.261,2.238,7,7,0,0,1-1.3.384Z" transform="translate(363.224 241.013)"/><path class="ae" d="M405.142,195.284l-63.2,63.434a9.635,9.635,0,0,1-1.9,1.471,8.13,8.13,0,0,1-1.364.682,9.591,9.591,0,0,1-4.263.661,6.66,6.66,0,0,1-.938-.107,9.037,9.037,0,0,1-1.94-.533L314.488,254.2h0l-3.283-1.279L248.39,228.3a8.526,8.526,0,0,1,6.245-5.329L397.149,192.79A8.526,8.526,0,0,1,405.142,195.284Z" transform="translate(281.065 217.932)"/><path class="n" d="M249.166,209.31s5.435,1.087,7.887,1.364,1.087,1.62-1.641,1.9-.448,8.824-4.839,10.381C250.572,222.952,245.371,214.468,249.166,209.31Z" transform="translate(280.375 236.838)"/><path class="n" d="M300.477,217.461s-1.364,1.556-2.877,3.389c-1,1.236-2.132,2.579-2.835,3.666-1.9,2.728-2.451,10.658-4.625,11.425s-8.42-.277-9.507.533-5.712,2.728-6.522,2.132,3.815-3.261,5.99-5.968,4.881-7.887,2.707-7.609-7.332,1.9-5.712.533,8.7-5.158,9.528-5.968c.4-.426,1.6-1.876,2.643-3.219s1.961-2.494,1.961-2.494Z" transform="translate(310.061 242.009)"/><path class="o" d="M292.382,217.438s-1.364,1.556-2.877,3.389l-8.334-4.434c1.044-1.3,1.961-2.494,1.961-2.494Z" transform="translate(318.156 242.032)"/><path class="af" d="M320.906,217.473c-.81,5.158-5.435,16.306-13.6,30.161s-13.578,24.747-13.578,24.747l-6.395-2.856-6.394-2.856s5.307-10.977,9.784-20.377c5.158-10.871,10.317-25.834,10.317-32.079s-7.332-27.177-4.071-38.048a12.15,12.15,0,0,1,13.045-8.824,7.652,7.652,0,0,1,6.245,3.389C319.009,175.887,321.716,212.315,320.906,217.473Z" transform="translate(317.896 189.263)"/><path class="ag" d="M317.511,217.433c-.81,5.158-5.435,16.306-13.6,30.161s-13.578,24.747-13.578,24.747l-6.395-2.856c21.571-19.184,25.429-48.705,28.541-61.153,3.261-13.045-5.84-41.032-5.84-41.032a7.652,7.652,0,0,1,6.245,3.389C315.614,175.847,318.321,212.275,317.511,217.433Z" transform="translate(321.29 189.303)"/><rect class="ah" width="44.4" height="233.998" transform="translate(261.267 389.407)"/><rect class="ai" width="14.516" height="233.998" transform="translate(261.267 389.407)"/><path class="aj" d="M178.953,315.793s-9.826-73.452-20.931-75.157-16.647,17.052-12.363,75.157l18.779,30.737Z" transform="translate(163.184 272.165)"/><path class="ak" d="M150.69,375.47a378.76,378.76,0,0,0,9.826-50.027c4.817-37.962.49-67.846,17.052-93.083,7.354-11.169,15.2-13.365,19.184-13.237,7.29.213,15.368,5.116,17.052,17.926,5.627,42.161-35,138.357-35,138.357Z" transform="translate(170.516 247.936)"/><path class="al" d="M160.51,351.2s5.947-85.261,38-104.615,35.4,11.574,17.5,41.415c-28.179,46.893-26.9,63.2-26.9,63.2Z" transform="translate(181.627 272.204)"/><path class="am" d="M182.725,299.546s27.859-36.236,43.653-32.825-5.968,55.1-5.968,55.1H166.44Z" transform="translate(188.337 301.542)"/><path class="an" d="M194.55,309.975S206.167,277,219.766,277s7.268,32.889,7.268,32.889Z" transform="translate(220.144 313.431)"/><path class="ao" d="M179.516,334.649s-2.132-46.126-14.111-67.462-33.06-12.256-26.473,11.937a507.259,507.259,0,0,1,11.532,55.526Z" transform="translate(155.8 288.756)"/><line class="ap" x1="6.736" y2="19.653" transform="translate(432.748 603.753)"/><path class="ap" d="M203.672,271.63s-16.136,21.784-19.8,44.421" transform="translate(208.059 307.354)"/><path class="ap" d="M205.015,249a332.666,332.666,0,0,0-38.5,92.572" transform="translate(188.427 281.748)"/><path class="ap" d="M144.89,265s11.936,36.236,12.363,58.51" transform="translate(163.953 299.852)"/><path class="aq" d="M102.13,315.793s9.826-73.452,20.932-75.157,16.647,17.052,12.384,75.157l-18.8,30.737Z" transform="translate(115.569 272.165)"/><path class="ar" d="M145.845,375.47a378.761,378.761,0,0,1-9.933-50.027c-4.8-37.962-.49-67.846-17.052-93.083-7.332-11.169-15.2-13.365-19.184-13.237-7.268.213-15.368,5.116-17.052,17.926C77,279.21,117.645,375.406,117.645,375.406Z" transform="translate(92.892 247.936)"/><path class="as" d="M105.852,361.485s2.984-95.663-18.374-120.857-39.753,6.885-29.458,32.889c15.368,38.858,21.784,87.968,21.784,87.968Z" transform="translate(62.331 261.92)"/><path class="at" d="M345.75,88.161a81.552,81.552,0,0,0-79.378,81.531V289.675H78.5V169.692A81.531,81.531,0,0,1,160.052,88.14h185.7Z" transform="translate(88.831 99.732)"/><path class="au" d="M325.481,169.692V289.675H166.64V169.692a81.573,81.573,0,0,1,71.726-81c2.515-.3,5.073-.49,7.652-.554h0A81.573,81.573,0,0,1,325.481,169.692Z" transform="translate(188.563 99.732)"/><path class="ai" d="M310.091,169.4V289.381H166.64V169.4a81.573,81.573,0,0,1,71.726-81A81.573,81.573,0,0,1,310.091,169.4Z" transform="translate(188.563 100.026)"/><path class="av" d="M345.75,88.161a64.968,64.968,0,0,0-7.652.554,81.573,81.573,0,0,0-71.726,81v65.331H78.5V169.692A81.531,81.531,0,0,1,160.052,88.14h185.7Z" transform="translate(88.831 99.732)"/><path class="aw" d="M117.11,173.755a7.673,7.673,0,1,1-2.24-5.44A7.695,7.695,0,0,1,117.11,173.755Z" transform="translate(115.105 187.9)"/><path class="aw" d="M130.74,173.755a7.695,7.695,0,1,1-7.695-7.695,7.695,7.695,0,0,1,7.695,7.695Z" transform="translate(130.528 187.9)"/><path class="aw" d="M142.76,173.755a7.695,7.695,0,1,1-7.695-7.695,7.695,7.695,0,0,1,7.695,7.695Z" transform="translate(144.129 187.9)"/><path class="au" d="M325.481,182.69v99.052a71.747,71.747,0,0,1-71.747,71.747H238.366a71.726,71.726,0,0,1-71.726-71.747V182.69Z" transform="translate(188.563 206.717)"/><path class="ax" d="M322.313,182.69v99.052a71.7,71.7,0,0,1-71.747,71.747h-9.379a71.747,71.747,0,0,1-71.747-71.747V182.69Z" transform="translate(191.731 206.717)"/><path class="ay" d="M137.332,351.2s-5.926-85.261-38-104.615S63.943,258.161,81.827,288c28.179,46.893,26.9,63.2,26.9,63.2Z" transform="translate(80.367 272.204)"/><path class="az" d="M114.785,299.546S86.926,263.31,71.131,266.72s5.968,55.1,5.968,55.1h53.97Z" transform="translate(73.989 301.542)"/><path class="ba" d="M86.149,309.975S74.575,277,60.912,277s-7.268,32.889-7.268,32.889Z" transform="translate(59.014 313.431)"/><path class="bb" d="M105.34,334.649s2.132-46.126,14.089-67.462,33.081-12.256,26.473,11.937a507.325,507.325,0,0,0-11.446,55.526Z" transform="translate(119.201 288.756)"/><line class="ap" x2="6.736" y2="19.653" transform="translate(120.353 603.753)"/><path class="ap" d="M69.48,271.63S85.616,293.414,89.3,316.051" transform="translate(78.625 307.354)"/><path class="ap" d="M78.07,249a333.032,333.032,0,0,1,38.474,92.572" transform="translate(88.345 281.748)"/><path class="ap" d="M124.334,265s-11.958,36.236-12.384,58.51" transform="translate(126.681 299.852)"/><path class="av" d="M286.919,88.41a81.573,81.573,0,0,0-71.726,81v65.331H123.73c10.849-7.716,19.717-23.127,19.717-52.947V161.585A73.175,73.175,0,0,1,216.6,88.41Z" transform="translate(140.01 100.038)"/><path class="ai" d="M154.295,238.29h0A7.7,7.7,0,0,1,146.6,230.6V38.46h15.39V230.6A7.7,7.7,0,0,1,154.295,238.29Z" transform="translate(165.888 43.518)"/><path class="bc" d="M184.428,38.46H126.77l57.658,47.384Z" transform="translate(143.45 43.518)"/><path class="bd" d="M283.711,345.346a71.344,71.344,0,0,1-33.145,8.1h-9.379A71.747,71.747,0,0,1,169.44,281.7V182.69h11.212Z" transform="translate(191.731 206.717)"/><path class="be" d="M36.632,299.09s-1.322,6.395,0,9.741,10.253,1.833,10.253,1.833L46.1,299.623Z" transform="translate(40.792 338.426)"/><path class="bf" d="M71.439,314.869a1.45,1.45,0,0,1,0,.618c-.469,1.194-9.293,1-18.161,1.044s-18.438.277-18.161-1.044a10.776,10.776,0,0,0-.171-1.108A41.435,41.435,0,0,1,36.44,301.59h1.3c1.066,7.375,10.018,4.476,9.89,0h1.428c-.256,4.732,4.412,7.2,12.128,7.887S71.333,313.121,71.439,314.869Z" transform="translate(39.514 341.255)"/><path class="bg" d="M71.422,308.086a1.45,1.45,0,0,1,0,.618c-.469,1.194-9.293,1-18.161,1.044s-18.438.277-18.161-1.044a10.768,10.768,0,0,0-.171-1.108C45.161,307.511,64.068,307.916,71.422,308.086Z" transform="translate(39.531 348.037)"/><path class="bh" d="M20.942,299.09s-1.322,6.395,0,9.741,10.274,1.833,10.274,1.833l-.789-11.041Z" transform="translate(23.038 338.426)"/><path class="s" d="M55.748,315.521c-.49,1.194-9.293,1-18.182,1.044s-18.438.277-18.161-1.044a19.863,19.863,0,0,1-.256-2.323,44.612,44.612,0,0,1,1.577-11.638h1.322c1.833,6.586,9.741,5.009,9.869,0h1.449c-.277,4.732,4.391,7.2,12.107,7.887,6.757.618,9.613,2.963,10.231,4.732a1.961,1.961,0,0,1,.043,1.343Z" transform="translate(21.676 341.221)"/><path class="d" d="M29.15,219.247c3.986,36.662,2.579,50.709,6.842,88.991,2.75,24.6.277,65.033,6.395,100.053H56.348c0-26.324,1.6-30.63,3.41-81.616.9-25.365.469-51.327,2.132-62.922a332.88,332.88,0,0,0,2.622-57.913Z" transform="translate(32.991 232.912)"/><path class="bi" d="M53.02,261.16c-6.181,29.671-15.539,143.217-15.539,143.217H24.053c-3.688-33.444-.107-62.731-2.132-87.392-2.9-36.065-8.952-71.086-4.732-101.631l14.58-1.641L60.63,209.3a517.967,517.967,0,0,1-7.61,51.86Z" transform="translate(17.817 236.827)"/><path class="bj" d="M28.529,337.257c-2.494,17.734-2.281,49.43.789,64.777H24.053c-3.688-33.444-.107-62.731-2.132-87.392-2.9-36.065-8.952-71.086-4.732-101.631l14.58-1.641c-1.258,6.927-8.526,49.536-6.16,77.992C28.273,320.418,31.428,316.731,28.529,337.257Z" transform="translate(17.817 239.169)"/><path class="c" d="M62.793,229.68a31.542,31.542,0,0,1-7.162,1.812c.533-1.961,1-3.9,1.407-5.8a16.094,16.094,0,0,0,5.35-1.769l.213.469-.81-21.315-.192-4.988L44.76,165.18H21.74l18.075,94.853,1.94,10.189a34.1,34.1,0,0,0,22.381-2.366ZM44.782,254.32a55.027,55.027,0,0,0,3.56-5.414c8.526,0,12.363-2.366,12.363-2.366l2.132,5.009a36.555,36.555,0,0,1-18.054,2.771Z" transform="translate(24.606 186.904)"/><path class="bk" d="M45.014,171.13s-5.776,3.688-19.184,1.833l2.132,5.8a37.238,37.238,0,0,0,19.184-2.643Z" transform="translate(29.234 193.637)"/><path class="bk" d="M50.334,182s-5.8,3.688-19.184,1.833l2.132,5.8a37.239,37.239,0,0,0,19.184-2.643Z" transform="translate(35.254 205.936)"/><path class="bk" d="M45.616,193.57c-.4,1.9-.874,3.837-1.407,5.8a40.5,40.5,0,0,1-10.338,0l-2.132-5.776A43.333,43.333,0,0,0,45.616,193.57Z" transform="translate(35.921 219.028)"/><path class="bl" d="M42.757,197.455c-.554.277-1.13.512-1.705.746L40.86,193Z" transform="translate(46.241 218.383)"/><path class="bk" d="M37.863,204.685a55,55,0,0,1-3.56,5.393H33.132L31,204.28a52.372,52.372,0,0,0,6.864.405Z" transform="translate(35.084 231.146)"/><path class="bm" d="M50.573,208.369A36.555,36.555,0,0,1,32.54,211.14a55.016,55.016,0,0,0,3.56-5.414c8.526,0,12.363-2.366,12.363-2.366Z" transform="translate(36.827 230.106)"/><path class="bm" d="M44.8,198.5a31.543,31.543,0,0,1-7.162,1.812c.533-1.961,1-3.9,1.407-5.8a16.094,16.094,0,0,0,5.35-1.769l.213.469h0Z" transform="translate(42.597 218.089)"/><path class="bn" d="M38.25,208.2a109.9,109.9,0,0,0,2.132-27.56l2.558,4.988.81,21.315-.213-.469A16.093,16.093,0,0,1,38.25,208.2Z" transform="translate(43.288 204.397)"/><path class="bn" d="M54.541,233.669a34.1,34.1,0,0,1-22.381,2.366l-1.94-10.189a52.285,52.285,0,0,0,4.966-5.755,36.557,36.557,0,0,0,18.033-2.771l-2.132-5.009s-3.794,2.43-12.363,2.366a73.683,73.683,0,0,0,7.183-17.436,31.542,31.542,0,0,0,7.162-1.812Z" transform="translate(34.202 221.133)"/><path class="bo" d="M64.742,262.345c-3.688,8.7-15.539,11.6-15.539,11.6s1.236-20.569,1.492-39.518c.149-12.64-.128-24.576-1.492-29.2a135.092,135.092,0,0,0-7.546-17.8c-5.286-10.828-11.148-21.443-11.148-21.443l1.236-2.409L49.2,171.521s.639,4.263,1.492,10.253c1.535,10.658,3.794,26.751,4.263,31.333.4,3.6,2.878,16.157,5.244,27.71S64.742,262.345,64.742,262.345Z" transform="translate(34.53 185.082)"/><path class="bp" d="M43.808,140.272c-9.485-16.05-23.7-8.526-26.324-4.476-13.961,21.848,13.684,49.771-1.577,55.547,0,0,16.668,8.228,21.507-11.3a152.423,152.423,0,0,1,11.915-32.655Z" transform="translate(15.179 147.611)"/><path class="l" d="M59.883,167.36s4.263-6.395,3.155-17.9-8.7-14.217-12.384-10.786c0,0-10-9.741-21.315-1.854-10.253,7.162-10.785,21.315-7.119,31.333s4.9,14.494,5.094,19.354l16.242-15.922Z" transform="translate(22.806 151.323)"/><path class="n" d="M59.127,155.31v.213c-.128,2.494-1.513,27.262-10,28.754a8.952,8.952,0,0,1-5.84-.682,5.349,5.349,0,0,1-1.535-1.151,35.916,35.916,0,0,0-.234,6.842,24.32,24.32,0,0,0,1.023,6.053s-8.952,7.375-20.8-2.9a106.831,106.831,0,0,0,6.949-26.58S24.213,164.007,25,157.7c.874-6.863,7.908-1.854,7.119,3.943A32.91,32.91,0,0,0,49.492,139.26S50,146.1,59.127,155.31Z" transform="translate(24.606 157.575)"/><path class="m" d="M45.492,155.31v.213a26.58,26.58,0,0,1-11.7-10.189,32.226,32.226,0,0,0,1.961-6.075S36.369,146.1,45.492,155.31Z" transform="translate(38.241 157.575)"/><path class="m" d="M36.58,165.57a5.351,5.351,0,0,1-1.535-1.151,35.914,35.914,0,0,0-.234,6.842A27.475,27.475,0,0,1,27.67,155.19,34.381,34.381,0,0,0,36.58,165.57Z" transform="translate(31.316 175.6)"/><path class="bo" d="M59.383,275.4a66.087,66.087,0,0,1-11.34,0,80.785,80.785,0,0,1-31.056-8.888s4.988-13.151,9.166-25.067c1.428-4.071,2.771-8.014,3.773-11.212a27.858,27.858,0,0,0,1.812-7.418c-.107-.32-.533-1.279-1.215-2.686l-.128-.277c-5.158-10.658-23.17-46.062-21.571-48.13.831-1.044,8.7-4.732,28.562-8.526,0,0,22.253,36.023,23.319,41.543S59.383,275.4,59.383,275.4Z" transform="translate(9.877 184.664)"/><path class="q" d="M18.67,199.983a27.86,27.86,0,0,0,1.812-7.418c-.107-.32-.533-1.279-1.215-2.686l9.379,18.992Z" transform="translate(21.132 214.853)"/><path class="q" d="M43.656,233.835A80.786,80.786,0,0,1,12.6,224.947s4.988-13.152,9.166-25.067C23.6,209.514,28.821,225.352,43.656,233.835Z" transform="translate(14.264 226.168)"/><path class="m" d="M28.025,232.665c-2.643,1.321-4.647-2.9-5.478-6.842s-.853-5.265,1-4.476a12.341,12.341,0,0,1,0-5.009l-4.689-3.283-2.43-1.727,7.908-7.1s.6.661,1.556,1.641L28.025,208c1.066,1.066,2.259,2.132,3.41,3.283,2.686,2.494,4.476,10.53,5.009,13.961S30.647,231.449,28.025,232.665Z" transform="translate(18.598 231.09)"/><path class="bo" d="M31.849,195.349S18.7,213.212,18.7,214.746,46.62,244.588,46.62,244.588l-12.384,12.64S-.572,217.411,0,214.746C3.18,200.785,18.974,168.13,18.974,168.13S30.783,180.109,31.849,195.349Z" transform="translate(0.003 190.242)"/><path class="bo" d="M44.8,228.843c.149-12.64-.128-24.576-1.492-29.2a135.1,135.1,0,0,0-7.546-17.8A115.845,115.845,0,0,1,38.979,168.5s2.409,2.856,5.819,7.695c1.535,10.658,3.794,26.751,4.263,31.333.4,3.6,2.878,16.157,5.244,27.71A33.039,33.039,0,0,1,44.8,228.843Z" transform="translate(40.47 190.661)"/><path class="n" d="M52.73,182.213l-6.395,3.2-3.048,1.535-3.155-13.173s-2.643-1.577-4.476-7.887c0,0-.661.981-1.407,1.044s-.853-.213-1.215-1.044c-1.066-2.366-.277-3.687.512-6.395s1.577-4.476,4.753-4.263,5.009-1.535,6.245,0c3.5,4.263,4.8,17.414,4.8,17.414Z" transform="translate(36.801 174.923)"/><path class="m" d="M45.416,182.628l-3.048,1.535L39.213,170.99s-2.643-1.577-4.476-7.887c0,0-.661.981-1.407,1.044a10.826,10.826,0,0,1,.618-1.833l-.533-5.265a24.96,24.96,0,0,0,3.965,8.164,29.178,29.178,0,0,1,4.476,6.053C42.559,172.759,44.393,179.154,45.416,182.628Z" transform="translate(37.721 177.705)"/><path class="bo" d="M35.21,168.61l17.052-3.41s10.018,45.551,11.318,51.156-.256,19.184-4.263,20.527-10.53-5.521-11.6-10.253S35.21,168.61,35.21,168.61Z" transform="translate(39.848 186.927)"/><path class="o" d="M26.736,207.154l-9.166,5.009L24.6,204.98Z" transform="translate(19.888 231.939)"/><path class="bq" d="M55.748,309.343c-.49,1.194-9.293,1-18.182,1.044s-18.438.277-18.161-1.044a19.866,19.866,0,0,1-.256-2.323c4.988.81,16.583,2.132,36.556.981a1.961,1.961,0,0,1,.043,1.343Z" transform="translate(21.676 347.399)"/><path class="br" d="M140.34,138.609h0v0Z" transform="translate(158.804 156.308)"/><path class="bs" d="M283.859,229.442a8.526,8.526,0,0,1-3.517,6.97,8.4,8.4,0,0,1-3.645,1.513,7.224,7.224,0,0,1-1.364.128l-99.073.512v-104.1l98.54-.512a8.526,8.526,0,0,1,8.526,8.526v5.158Z" transform="translate(199.448 151.567)"/><path class="br" d="M150.15,138.809h0v0Z" transform="translate(169.905 156.534)"/><path class="at" d="M283.539,147.559h-.107c-21.656,11.254-72.94,52.329-78.269,52.99-2.473.32-14.537-7.269-28.9-17.052V134.472l98.54-.512a8.526,8.526,0,0,1,8.526,8.526Z" transform="translate(199.448 151.578)"/><path class="bt" d="M282.065,138.021l-74.731,49.323a9.641,9.641,0,0,1-2.132,1.066,8.273,8.273,0,0,1-1.471.384,9.378,9.378,0,0,1-4.263-.213,4.6,4.6,0,0,1-.917-.3,10.656,10.656,0,0,1-1.769-.9l-15.39-10.018-2.942-1.918L176.32,174v-39.54l98.54-.512A8.526,8.526,0,0,1,282.065,138.021Z" transform="translate(199.516 151.567)"/><path class="br" d="M150.15,138.609h0v0Z" transform="translate(169.905 156.308)"/><path class="br" d="M274.039,229.231a8.526,8.526,0,0,1-3.517,6.97,8.4,8.4,0,0,1-3.645,1.513,7.166,7.166,0,0,1-1.343.128l-99.094.512V134.272l98.54-.512a8.526,8.526,0,0,1,8.526,8.526v5.158Z" transform="translate(188.337 151.352)"/><path class="br" d="M140.34,138.609h0v0Z" transform="translate(158.804 156.308)"/><path class="at" d="M273.741,147.359h-.107c-21.678,11.318-72.941,52.393-78.291,52.99-2.451.32-14.516-7.268-28.9-17.052V134.272l98.54-.512a8.526,8.526,0,0,1,8.526,8.526Z" transform="translate(188.337 151.352)"/><path class="br" d="M272.3,137.81l-74.731,49.345a9.633,9.633,0,0,1-2.131,1.066,9.35,9.35,0,0,1-1.471.384,9.487,9.487,0,0,1-4.263-.213,4.906,4.906,0,0,1-.9-.3,9.192,9.192,0,0,1-1.769-.9l-15.39-10.018-2.942-1.918-2.238-1.449v-39.54l98.54-.512A8.526,8.526,0,0,1,272.3,137.81Z" transform="translate(188.371 151.352)"/><path class="bu" d="M231.34,139.265a52.173,52.173,0,0,0,5.18-1.215" transform="translate(261.772 156.206)"/><path class="bv" d="M239.28,285.475c20.612-9.293,51.157-33.166,37.728-91.016C257.377,109.9,259.956,41.587,309.9,14.261c37.2-20.356,78.866-5.649,97.773,3.176" transform="translate(270.757 4.518)"/><path class="bu" d="M320.9,11.6c3.005,1.577,4.668,2.6,4.668,2.6" transform="translate(363.111 13.126)"/><path class="bw" d="M331.592,26.807,319.08,42.261l61.068,22.807L352.566,4,339.692,20.562,355.87,40.428Z" transform="translate(361.052 4.526)"/><path class="bx" d="M31.112,58.638,49.87,65.182,50.68,0,2.55,46.638l19.93,6.5L35.7,31.184Z" transform="translate(2.892)"/><path class="by" d="M341.458,282.955s71.427-9.976,46.531-59.043c-59.768-117.852-239.732,12.235-312.545-47.3C-.566,114.181,13.1,26.64,13.1,26.64" transform="translate(13.746 30.144)"/><path class="a" d="M318.327,42.42c-7.5-15.5-32.868-5.137-17.5,15.368S332.416,71.451,318.327,42.42Z" transform="translate(334.905 39.558)"/><path class="a" d="M373.955,43.167c-12.789-1.684-49.025,8.249-49.025,29.458,0,11.958,27.71,21.315,55.419,8.1S409.807,47.857,373.955,43.167Z" transform="translate(367.671 48.637)"/><path class="a" d="M52.05,292.47s1.279,22.189,46.893,22.189,86.668-5.116,135.351,35.873,168.241,47.831,199.83,18.779-44.4-76.735-44.4-76.735Z" transform="translate(58.903 330.935)"/></g></g></svg>