<svg xmlns="http://www.w3.org/2000/svg" xmlns:xlink="http://www.w3.org/1999/xlink" width="1920" height="1073" viewBox="0 0 1920 1073">
  <defs>
    <clipPath id="clip-path">
      <rect width="187" height="444" fill="none"/>
    </clipPath>
    <clipPath id="clip-path-2">
      <rect width="151" height="418" fill="none"/>
    </clipPath>
    <clipPath id="clip-path-3">
      <rect width="184" height="688" fill="none"/>
    </clipPath>
    <clipPath id="clip-Dominate_sign_up">
      <rect width="1920" height="1073"/>
    </clipPath>
  </defs>
  <g id="Dominate_sign_up" data-name="Dominate sign up" clip-path="url(#clip-Dominate_sign_up)">
    <rect width="1920" height="1073" fill="#fff"/>
    <g id="Group_1238" data-name="Group 1238" transform="translate(-0.001 -1637.466)">
      <path id="Path_1367" data-name="Path 1367" d="M0,196.628,2068.661,0V1195.5L0,1392.125Z" transform="translate(0 1080)" fill="#502eff"/>
      <g id="Repeat_Grid_11" data-name="Repeat Grid 11" transform="translate(1882.001 1130.466)" clip-path="url(#clip-path)">
        <g transform="translate(-945 -1296)">
          <path id="Fill_1" data-name="Fill 1" d="M30,15A15,15,0,1,1,14.994,0,15,15,0,0,1,30,15" transform="translate(945 1296)" fill="#5e5ee6"/>
        </g>
        <g transform="translate(-844 -1296)">
          <path id="Fill_1-2" data-name="Fill 1" d="M30,15A15,15,0,1,1,14.994,0,15,15,0,0,1,30,15" transform="translate(945 1296)" fill="#5e5ee6"/>
        </g>
        <g transform="translate(-945 -1202)">
          <path id="Fill_1-3" data-name="Fill 1" d="M30,15A15,15,0,1,1,14.994,0,15,15,0,0,1,30,15" transform="translate(945 1296)" fill="#5e5ee6"/>
        </g>
        <g transform="translate(-844 -1202)">
          <path id="Fill_1-4" data-name="Fill 1" d="M30,15A15,15,0,1,1,14.994,0,15,15,0,0,1,30,15" transform="translate(945 1296)" fill="#5e5ee6"/>
        </g>
        <g transform="translate(-945 -1108)">
          <path id="Fill_1-5" data-name="Fill 1" d="M30,15A15,15,0,1,1,14.994,0,15,15,0,0,1,30,15" transform="translate(945 1296)" fill="#5e5ee6"/>
        </g>
        <g transform="translate(-844 -1108)">
          <path id="Fill_1-6" data-name="Fill 1" d="M30,15A15,15,0,1,1,14.994,0,15,15,0,0,1,30,15" transform="translate(945 1296)" fill="#5e5ee6"/>
        </g>
        <g transform="translate(-945 -1014)">
          <path id="Fill_1-7" data-name="Fill 1" d="M30,15A15,15,0,1,1,14.994,0,15,15,0,0,1,30,15" transform="translate(945 1296)" fill="#5e5ee6"/>
        </g>
        <g transform="translate(-844 -1014)">
          <path id="Fill_1-8" data-name="Fill 1" d="M30,15A15,15,0,1,1,14.994,0,15,15,0,0,1,30,15" transform="translate(945 1296)" fill="#5e5ee6"/>
        </g>
        <g transform="translate(-945 -920)">
          <path id="Fill_1-9" data-name="Fill 1" d="M30,15A15,15,0,1,1,14.994,0,15,15,0,0,1,30,15" transform="translate(945 1296)" fill="#5e5ee6"/>
        </g>
        <g transform="translate(-844 -920)">
          <path id="Fill_1-10" data-name="Fill 1" d="M30,15A15,15,0,1,1,14.994,0,15,15,0,0,1,30,15" transform="translate(945 1296)" fill="#5e5ee6"/>
        </g>
      </g>
      <g id="Repeat_Grid_13" data-name="Repeat Grid 13" transform="translate(16.001 2234.466)" clip-path="url(#clip-path-2)">
        <g transform="translate(-945 -1296)">
          <path id="Fill_1-11" data-name="Fill 1" d="M30,15A15,15,0,1,1,14.994,0,15,15,0,0,1,30,15" transform="translate(945 1296)" fill="#5e5ee6"/>
        </g>
        <g transform="translate(-863 -1296)">
          <path id="Fill_1-12" data-name="Fill 1" d="M30,15A15,15,0,1,1,14.994,0,15,15,0,0,1,30,15" transform="translate(945 1296)" fill="#5e5ee6"/>
        </g>
        <g transform="translate(-945 -1208)">
          <path id="Fill_1-13" data-name="Fill 1" d="M30,15A15,15,0,1,1,14.994,0,15,15,0,0,1,30,15" transform="translate(945 1296)" fill="#5e5ee6"/>
        </g>
        <g transform="translate(-863 -1208)">
          <path id="Fill_1-14" data-name="Fill 1" d="M30,15A15,15,0,1,1,14.994,0,15,15,0,0,1,30,15" transform="translate(945 1296)" fill="#5e5ee6"/>
        </g>
        <g transform="translate(-945 -1120)">
          <path id="Fill_1-15" data-name="Fill 1" d="M30,15A15,15,0,1,1,14.994,0,15,15,0,0,1,30,15" transform="translate(945 1296)" fill="#5e5ee6"/>
        </g>
        <g transform="translate(-863 -1120)">
          <path id="Fill_1-16" data-name="Fill 1" d="M30,15A15,15,0,1,1,14.994,0,15,15,0,0,1,30,15" transform="translate(945 1296)" fill="#5e5ee6"/>
        </g>
        <g transform="translate(-945 -1032)">
          <path id="Fill_1-17" data-name="Fill 1" d="M30,15A15,15,0,1,1,14.994,0,15,15,0,0,1,30,15" transform="translate(945 1296)" fill="#5e5ee6"/>
        </g>
        <g transform="translate(-863 -1032)">
          <path id="Fill_1-18" data-name="Fill 1" d="M30,15A15,15,0,1,1,14.994,0,15,15,0,0,1,30,15" transform="translate(945 1296)" fill="#5e5ee6"/>
        </g>
        <g transform="translate(-945 -944)">
          <path id="Fill_1-19" data-name="Fill 1" d="M30,15A15,15,0,1,1,14.994,0,15,15,0,0,1,30,15" transform="translate(945 1296)" fill="#5e5ee6"/>
        </g>
        <g transform="translate(-863 -944)">
          <path id="Fill_1-20" data-name="Fill 1" d="M30,15A15,15,0,1,1,14.994,0,15,15,0,0,1,30,15" transform="translate(945 1296)" fill="#5e5ee6"/>
        </g>
      </g>
    </g>
    <g id="Repeat_Grid_46" data-name="Repeat Grid 46" transform="translate(1736 915)" clip-path="url(#clip-path-3)">
      <g transform="translate(-42 -85)">
        <circle id="Ellipse_339" data-name="Ellipse 339" cx="14" cy="14" r="14" transform="translate(42 85)" fill="#fff" opacity="0.45"/>
      </g>
      <g transform="translate(40 -85)">
        <circle id="Ellipse_339-2" data-name="Ellipse 339" cx="14" cy="14" r="14" transform="translate(42 85)" fill="#fff" opacity="0.45"/>
      </g>
      <g transform="translate(122 -85)">
        <circle id="Ellipse_339-3" data-name="Ellipse 339" cx="14" cy="14" r="14" transform="translate(42 85)" fill="#fff" opacity="0.45"/>
      </g>
      <g transform="translate(-42 22)">
        <circle id="Ellipse_339-4" data-name="Ellipse 339" cx="14" cy="14" r="14" transform="translate(42 85)" fill="#fff" opacity="0.45"/>
      </g>
      <g transform="translate(40 22)">
        <circle id="Ellipse_339-5" data-name="Ellipse 339" cx="14" cy="14" r="14" transform="translate(42 85)" fill="#fff" opacity="0.45"/>
      </g>
      <g transform="translate(122 22)">
        <circle id="Ellipse_339-6" data-name="Ellipse 339" cx="14" cy="14" r="14" transform="translate(42 85)" fill="#fff" opacity="0.45"/>
      </g>
      <g transform="translate(-42 129)">
        <circle id="Ellipse_339-7" data-name="Ellipse 339" cx="14" cy="14" r="14" transform="translate(42 85)" fill="#fff" opacity="0.45"/>
      </g>
      <g transform="translate(40 129)">
        <circle id="Ellipse_339-8" data-name="Ellipse 339" cx="14" cy="14" r="14" transform="translate(42 85)" fill="#fff" opacity="0.45"/>
      </g>
      <g transform="translate(122 129)">
        <circle id="Ellipse_339-9" data-name="Ellipse 339" cx="14" cy="14" r="14" transform="translate(42 85)" fill="#fff" opacity="0.45"/>
      </g>
      <g transform="translate(-42 236)">
        <circle id="Ellipse_339-10" data-name="Ellipse 339" cx="14" cy="14" r="14" transform="translate(42 85)" fill="#fff" opacity="0.45"/>
      </g>
      <g transform="translate(40 236)">
        <circle id="Ellipse_339-11" data-name="Ellipse 339" cx="14" cy="14" r="14" transform="translate(42 85)" fill="#fff" opacity="0.45"/>
      </g>
      <g transform="translate(122 236)">
        <circle id="Ellipse_339-12" data-name="Ellipse 339" cx="14" cy="14" r="14" transform="translate(42 85)" fill="#fff" opacity="0.45"/>
      </g>
      <g transform="translate(-42 343)">
        <circle id="Ellipse_339-13" data-name="Ellipse 339" cx="14" cy="14" r="14" transform="translate(42 85)" fill="#fff" opacity="0.45"/>
      </g>
      <g transform="translate(40 343)">
        <circle id="Ellipse_339-14" data-name="Ellipse 339" cx="14" cy="14" r="14" transform="translate(42 85)" fill="#fff" opacity="0.45"/>
      </g>
      <g transform="translate(122 343)">
        <circle id="Ellipse_339-15" data-name="Ellipse 339" cx="14" cy="14" r="14" transform="translate(42 85)" fill="#fff" opacity="0.45"/>
      </g>
      <g transform="translate(-42 450)">
        <circle id="Ellipse_339-16" data-name="Ellipse 339" cx="14" cy="14" r="14" transform="translate(42 85)" fill="#fff" opacity="0.45"/>
      </g>
      <g transform="translate(40 450)">
        <circle id="Ellipse_339-17" data-name="Ellipse 339" cx="14" cy="14" r="14" transform="translate(42 85)" fill="#fff" opacity="0.45"/>
      </g>
      <g transform="translate(122 450)">
        <circle id="Ellipse_339-18" data-name="Ellipse 339" cx="14" cy="14" r="14" transform="translate(42 85)" fill="#fff" opacity="0.45"/>
      </g>
      <g transform="translate(-42 557)">
        <circle id="Ellipse_339-19" data-name="Ellipse 339" cx="14" cy="14" r="14" transform="translate(42 85)" fill="#fff" opacity="0.45"/>
      </g>
      <g transform="translate(40 557)">
        <circle id="Ellipse_339-20" data-name="Ellipse 339" cx="14" cy="14" r="14" transform="translate(42 85)" fill="#fff" opacity="0.45"/>
      </g>
      <g transform="translate(122 557)">
        <circle id="Ellipse_339-21" data-name="Ellipse 339" cx="14" cy="14" r="14" transform="translate(42 85)" fill="#fff" opacity="0.45"/>
      </g>
    </g>
    <g id="Repeat_Grid_43" data-name="Repeat Grid 43" transform="translate(1736 385)" clip-path="url(#clip-path-3)">
      <g transform="translate(-42 -85)">
        <circle id="Ellipse_339-22" data-name="Ellipse 339" cx="14" cy="14" r="14" transform="translate(102 81)" fill="#502eff" opacity="0.45"/>
      </g>
      <g transform="translate(40 -85)">
        <circle id="Ellipse_339-23" data-name="Ellipse 339" cx="14" cy="14" r="14" transform="translate(102 81)" fill="#502eff" opacity="0.45"/>
      </g>
      <g transform="translate(122 -85)">
        <circle id="Ellipse_339-24" data-name="Ellipse 339" cx="14" cy="14" r="14" transform="translate(102 81)" fill="#502eff" opacity="0.45"/>
      </g>
      <g transform="translate(-42 22)">
        <circle id="Ellipse_339-25" data-name="Ellipse 339" cx="14" cy="14" r="14" transform="translate(102 81)" fill="#502eff" opacity="0.45"/>
      </g>
      <g transform="translate(40 22)">
        <circle id="Ellipse_339-26" data-name="Ellipse 339" cx="14" cy="14" r="14" transform="translate(102 81)" fill="#502eff" opacity="0.45"/>
      </g>
      <g transform="translate(122 22)">
        <circle id="Ellipse_339-27" data-name="Ellipse 339" cx="14" cy="14" r="14" transform="translate(102 81)" fill="#502eff" opacity="0.45"/>
      </g>
      <g transform="translate(-42 129)">
        <circle id="Ellipse_339-28" data-name="Ellipse 339" cx="14" cy="14" r="14" transform="translate(102 81)" fill="#502eff" opacity="0.45"/>
      </g>
      <g transform="translate(40 129)">
        <circle id="Ellipse_339-29" data-name="Ellipse 339" cx="14" cy="14" r="14" transform="translate(102 81)" fill="#502eff" opacity="0.45"/>
      </g>
      <g transform="translate(122 129)">
        <circle id="Ellipse_339-30" data-name="Ellipse 339" cx="14" cy="14" r="14" transform="translate(102 81)" fill="#502eff" opacity="0.45"/>
      </g>
      <g transform="translate(-42 236)">
        <circle id="Ellipse_339-31" data-name="Ellipse 339" cx="14" cy="14" r="14" transform="translate(102 81)" fill="#502eff" opacity="0.45"/>
      </g>
      <g transform="translate(40 236)">
        <circle id="Ellipse_339-32" data-name="Ellipse 339" cx="14" cy="14" r="14" transform="translate(102 81)" fill="#502eff" opacity="0.45"/>
      </g>
      <g transform="translate(122 236)">
        <circle id="Ellipse_339-33" data-name="Ellipse 339" cx="14" cy="14" r="14" transform="translate(102 81)" fill="#502eff" opacity="0.45"/>
      </g>
      <g transform="translate(-42 343)">
        <circle id="Ellipse_339-34" data-name="Ellipse 339" cx="14" cy="14" r="14" transform="translate(102 81)" fill="#502eff" opacity="0.45"/>
      </g>
      <g transform="translate(40 343)">
        <circle id="Ellipse_339-35" data-name="Ellipse 339" cx="14" cy="14" r="14" transform="translate(102 81)" fill="#502eff" opacity="0.45"/>
      </g>
      <g transform="translate(122 343)">
        <circle id="Ellipse_339-36" data-name="Ellipse 339" cx="14" cy="14" r="14" transform="translate(102 81)" fill="#502eff" opacity="0.45"/>
      </g>
      <g transform="translate(-42 450)">
        <circle id="Ellipse_339-37" data-name="Ellipse 339" cx="14" cy="14" r="14" transform="translate(102 81)" fill="#502eff" opacity="0.45"/>
      </g>
      <g transform="translate(40 450)">
        <circle id="Ellipse_339-38" data-name="Ellipse 339" cx="14" cy="14" r="14" transform="translate(102 81)" fill="#502eff" opacity="0.45"/>
      </g>
      <g transform="translate(122 450)">
        <circle id="Ellipse_339-39" data-name="Ellipse 339" cx="14" cy="14" r="14" transform="translate(102 81)" fill="#502eff" opacity="0.45"/>
      </g>
      <g transform="translate(-42 557)">
        <circle id="Ellipse_339-40" data-name="Ellipse 339" cx="14" cy="14" r="14" transform="translate(102 81)" fill="#502eff" opacity="0.45"/>
      </g>
      <g transform="translate(40 557)">
        <circle id="Ellipse_339-41" data-name="Ellipse 339" cx="14" cy="14" r="14" transform="translate(102 81)" fill="#502eff" opacity="0.45"/>
      </g>
      <g transform="translate(122 557)">
        <circle id="Ellipse_339-42" data-name="Ellipse 339" cx="14" cy="14" r="14" transform="translate(102 81)" fill="#502eff" opacity="0.45"/>
      </g>
    </g>
    <circle id="Ellipse_341" data-name="Ellipse 341" cx="16" cy="16" r="16" transform="translate(16 859)" fill="#502eff" opacity="0.27"/>
    <circle id="Ellipse_342" data-name="Ellipse 342" cx="16" cy="16" r="16" transform="translate(1520 859)" fill="#502eff" opacity="0.27"/>
    <circle id="Ellipse_347" data-name="Ellipse 347" cx="16" cy="16" r="16" transform="translate(710.237 1024.016)" fill="#502eff" opacity="0.27"/>
    <circle id="Ellipse_346" data-name="Ellipse 346" cx="24.5" cy="24.5" r="24.5" transform="translate(1554.066 279.361)" fill="#502eff" opacity="0.27"/>
  </g>
</svg>
