<svg xmlns="http://www.w3.org/2000/svg" width="87.022" height="87.022" viewBox="0 0 87.022 87.022">
  <path id="Icon_awesome-check-circle" data-name="Icon awesome-check-circle" d="M87.585,44.074A43.511,43.511,0,1,1,44.074.563,43.511,43.511,0,0,1,87.585,44.074ZM39.041,67.113,71.323,34.83a2.807,2.807,0,0,0,0-3.97l-3.97-3.97a2.807,2.807,0,0,0-3.97,0L37.056,53.218,24.764,40.926a2.807,2.807,0,0,0-3.97,0l-3.97,3.97a2.807,2.807,0,0,0,0,3.97L35.071,67.112a2.807,2.807,0,0,0,3.97,0Z" transform="translate(-0.563 -0.563)" fill="#55e184"/>
</svg>
