<svg width="396" height="271" viewBox="0 0 396 271" fill="none" xmlns="http://www.w3.org/2000/svg">
<path d="M396 234.301H0V234.499H396V234.301Z" fill="#E0E0E0"/>
<path d="M299.107 242.688H271.862V242.886H299.107V242.688Z" fill="#E0E0E0"/>
<path d="M87.9436 242.783H72.6105V242.981H87.9436V242.783Z" fill="#E0E0E0"/>
<path d="M198.792 242.324H167.714V242.522H198.792V242.324Z" fill="#E0E0E0"/>
<path d="M166.922 239.504H153.03V239.702H166.922V239.504Z" fill="#E0E0E0"/>
<path d="M336.251 239.607H294.283V239.805H336.251V239.607Z" fill="#E0E0E0"/>
<path d="M347.934 135.166C338.192 120.332 347.086 104.389 345.605 87.8836C344.124 71.3784 328.443 67.7827 331.413 53.8276C334.85 37.6075 325.686 22.0447 315.303 22.0447C304.92 22.0447 295.765 37.5679 299.202 53.8039C302.172 67.7827 286.53 71.3863 285.009 87.8599C283.489 104.333 292.422 120.332 282.673 135.142C272.923 149.953 275.489 169.618 280.978 179.368C282.438 181.954 284.198 184.36 286.221 186.535C289.941 190.528 294.443 193.713 299.447 195.89C304.451 198.068 309.85 199.191 315.307 199.191C320.764 199.191 326.163 198.068 331.167 195.89C336.172 193.713 340.674 190.528 344.393 186.535C346.412 184.358 348.169 181.952 349.629 179.368C355.125 169.642 357.683 150.032 347.934 135.166Z" fill="#E0E0E0"/>
<path d="M315.303 146.42C315.95 146.42 316.591 146.548 317.188 146.795C317.786 147.043 318.329 147.406 318.787 147.863C319.244 148.321 319.607 148.864 319.854 149.461C320.102 150.059 320.229 150.7 320.229 151.347V234.301H310.377V151.347C310.377 150.7 310.504 150.059 310.752 149.461C310.999 148.864 311.362 148.321 311.82 147.863C312.277 147.406 312.82 147.043 313.418 146.795C314.016 146.548 314.656 146.42 315.303 146.42Z" fill="#F0F0F0"/>
<path d="M253.369 234.301H239.976V151.355C239.98 149.577 240.688 147.873 241.945 146.616C243.203 145.359 244.906 144.651 246.684 144.646C248.462 144.651 250.166 145.359 251.423 146.616C252.68 147.873 253.388 149.577 253.393 151.355L253.369 234.301Z" fill="#E0E0E0"/>
<path d="M246.66 211.927C269.48 211.927 287.979 193.428 287.979 170.608C287.979 147.789 269.48 129.29 246.66 129.29C223.841 129.29 205.342 147.789 205.342 170.608C205.342 193.428 223.841 211.927 246.66 211.927Z" fill="#F0F0F0"/>
<path d="M295.213 158.209C297.381 149.482 292.063 140.649 283.335 138.481C274.607 136.313 265.774 141.63 263.606 150.358C261.438 159.086 266.756 167.919 275.484 170.087C284.212 172.255 293.045 166.937 295.213 158.209Z" fill="#F0F0F0"/>
<path d="M222.751 146.19C223.607 140.936 220.041 135.983 214.787 135.128C209.533 134.272 204.58 137.838 203.724 143.092C202.869 148.346 206.434 153.299 211.688 154.154C216.942 155.01 221.895 151.444 222.751 146.19Z" fill="#F0F0F0"/>
<path d="M223.724 146.421C227.46 146.421 230.488 143.392 230.488 139.657C230.488 135.922 227.46 132.893 223.724 132.893C219.989 132.893 216.96 135.922 216.96 139.657C216.96 143.392 219.989 146.421 223.724 146.421Z" fill="#F0F0F0"/>
<path d="M161.568 184.793C155.143 185.75 149.003 188.093 143.574 191.659C143.526 185.387 142.378 179.439 139.432 174.631C134.949 178.995 131.314 184.65 128.344 190.733C127.259 179.336 124.257 168.248 117.612 161.223C107.657 167.488 102.525 177.926 100.085 188.982C96.0552 181.527 90.2059 175.212 83.0809 170.624C76.9905 177.039 75.0421 185.91 75.2085 195.002C68.2864 186.939 60.604 180.651 53.1117 179.914C51.2663 192.657 55.1946 204.68 60.1922 214.184C63.4367 220.282 68.2838 225.378 74.2112 228.925C80.1385 232.471 86.9212 234.333 93.8284 234.309H126.372C140.24 234.309 153.244 226.911 159.747 214.659C163.857 206.898 165.821 196.91 161.568 184.793Z" fill="#E0E0E0"/>
<path d="M152.27 20.2549C156.285 8.47786 153.062 0.0905762 143.265 0.0905762C137.103 0.0905762 129.46 3.39321 122.016 8.76297C121.176 5.69793 118.808 3.86841 114.998 3.86841C108.29 3.86841 99.0475 9.53913 91.8007 17.5383C89.7604 15.5999 87.0593 14.5098 84.245 14.4891C77.8219 14.1248 70.0524 17.3879 63.2966 22.6863C62.9581 22.2125 62.5112 21.8266 61.9932 21.5607C61.4751 21.2948 60.901 21.1566 60.3187 21.1578C56.6201 20.9519 51.6067 24.2466 49.1278 28.5075C48.9773 28.7689 48.8426 29.0303 48.7001 29.2995H154.218C154.535 25.5771 153.878 22.4725 152.27 20.2549Z" fill="#F0F0F0"/>
<path d="M152.595 91.7647C154.559 86.0148 152.999 81.9202 148.199 81.9202C145.182 81.9202 141.451 83.5042 137.816 86.1574C137.62 85.4183 137.167 84.7731 136.539 84.3377C135.91 83.9023 135.147 83.705 134.387 83.7814C131.116 83.7814 126.601 86.5534 123.053 90.4658C122.059 89.5158 120.738 88.983 119.362 88.9769C116.194 88.7947 112.432 90.3867 109.13 92.9765C108.97 92.7475 108.758 92.5593 108.512 92.4273C108.265 92.2952 107.991 92.2229 107.712 92.2162C105.906 92.1132 103.459 93.721 102.247 95.8039L102.033 96.1841H153.577C153.792 94.6408 153.444 93.0715 152.595 91.7647Z" fill="#F0F0F0"/>
<path d="M271.474 48.2521C271.067 48.195 270.657 48.1658 270.246 48.165C270.626 42.423 268.432 38.7481 263.736 38.7481C260.354 38.7481 256.196 40.6647 251.967 43.904C253.179 32.7527 249.298 25.5059 240.507 25.5059C233.426 25.5059 224.453 30.2579 215.59 37.9086C214.798 33.5367 212.201 30.9073 207.813 30.9073C200.107 30.9073 189.153 39.0174 180.37 50.4539C179.369 49.1351 178.086 48.0572 176.614 47.2993C175.142 46.5415 173.519 46.1228 171.864 46.0741C164.53 45.5593 155.414 50.2163 147.312 57.8036C147.017 57.1638 146.548 56.6201 145.958 56.2348C145.368 55.8496 144.682 55.6384 143.978 55.6256C139.962 55.3405 134.474 59.5302 131.219 65.1296H277.929C281.374 56.6394 278.633 49.2104 271.474 48.2521Z" fill="#F0F0F0"/>
<path d="M198 270.068C282.809 270.068 351.561 266.054 351.561 261.102C351.561 256.151 282.809 252.137 198 252.137C113.191 252.137 44.439 256.151 44.439 261.102C44.439 266.054 113.191 270.068 198 270.068Z" fill="#F5F5F5"/>
<path d="M38.697 50.6836L219.249 76.677L243.477 101.126L38.697 50.6836Z" fill="#407BFF"/>
<path opacity="0.6" d="M38.697 50.6836L219.249 76.677L243.477 101.126L38.697 50.6836Z" fill="white"/>
<path d="M38.697 50.6836L219.249 76.677L210.87 112.032L38.697 50.6836Z" fill="#407BFF"/>
<path opacity="0.2" d="M38.697 50.6836L219.249 76.677L210.87 112.032L38.697 50.6836Z" fill="black"/>
<path d="M207.163 9.75297L217.642 58.857C217.914 60.1392 217.667 61.4772 216.954 62.5774C216.242 63.6776 215.122 64.4502 213.84 64.7257L120.321 84.6841C119.039 84.9545 117.702 84.7064 116.602 83.994C115.502 83.2817 114.729 82.163 114.452 80.8825L103.966 31.7785C103.696 30.4953 103.945 29.1574 104.659 28.0575C105.373 26.9576 106.493 26.1854 107.775 25.9098L201.295 5.95137C202.578 5.68119 203.916 5.93034 205.016 6.6443C206.116 7.35827 206.888 8.47888 207.163 9.76089V9.75297Z" fill="#407BFF"/>
<path opacity="0.4" d="M207.163 9.75297L217.642 58.857C217.914 60.1392 217.667 61.4772 216.954 62.5774C216.242 63.6776 215.122 64.4502 213.84 64.7257L120.321 84.6841C119.039 84.9545 117.702 84.7064 116.602 83.994C115.502 83.2817 114.729 82.163 114.452 80.8825L103.966 31.7785C103.696 30.4953 103.945 29.1574 104.659 28.0575C105.373 26.9576 106.493 26.1854 107.775 25.9098L201.295 5.95137C202.578 5.68119 203.916 5.93034 205.016 6.6443C206.116 7.35827 206.888 8.47888 207.163 9.76089V9.75297Z" fill="black"/>
<path d="M204.859 6.53756L173.614 44.8941C170.716 48.4503 166.692 50.9108 162.205 51.8685C157.719 52.8262 153.041 52.2238 148.943 50.1609L104.758 27.9057C105.473 26.8788 106.551 26.1624 107.775 25.902L201.295 5.94356C202.515 5.68382 203.788 5.89606 204.859 6.53756Z" fill="#407BFF"/>
<path d="M38.697 50.6836L187.617 86.0781L210.87 112.032L38.697 50.6836Z" fill="#407BFF"/>
<path opacity="0.6" d="M38.697 50.6836L187.617 86.0781L210.87 112.032L38.697 50.6836Z" fill="white"/>
<path d="M93.0194 84.799L92.6191 85.4824L109.191 95.1897L109.592 94.5064L93.0194 84.799Z" fill="#407BFF"/>
<path d="M116.908 98.7861L116.508 99.4695L122.467 102.96L122.868 102.277L116.908 98.7861Z" fill="#407BFF"/>
<path d="M38.697 50.6836L187.617 86.0781L158.669 120.966L38.697 50.6836Z" fill="#407BFF"/>
<path d="M237.885 133.606C237.684 133.606 237.485 133.569 237.299 133.495L213.048 123.896C212.66 123.74 212.349 123.436 212.184 123.052C212.019 122.668 212.013 122.234 212.167 121.845C212.32 121.456 212.622 121.143 213.005 120.976C213.388 120.808 213.822 120.799 214.212 120.95L238.471 130.549C238.814 130.684 239.099 130.936 239.277 131.259C239.455 131.582 239.514 131.958 239.444 132.32C239.375 132.683 239.181 133.009 238.896 133.244C238.612 133.479 238.254 133.607 237.885 133.606Z" fill="#407BFF"/>
<path opacity="0.3" d="M237.885 133.606C237.684 133.606 237.485 133.569 237.299 133.495L213.048 123.896C212.66 123.74 212.349 123.436 212.184 123.052C212.019 122.668 212.013 122.234 212.167 121.845C212.32 121.456 212.622 121.143 213.005 120.976C213.388 120.808 213.822 120.799 214.212 120.95L238.471 130.549C238.814 130.684 239.099 130.936 239.277 131.259C239.455 131.582 239.514 131.958 239.444 132.32C239.375 132.683 239.181 133.009 238.896 133.244C238.612 133.479 238.254 133.607 237.885 133.606Z" fill="black"/>
<path d="M236.452 119.698C236.253 119.697 236.057 119.657 235.874 119.58L222.845 114.392C222.65 114.317 222.472 114.203 222.322 114.059C222.171 113.914 222.05 113.741 221.966 113.55C221.883 113.359 221.838 113.152 221.834 112.944C221.83 112.735 221.868 112.527 221.944 112.333C222.021 112.139 222.136 111.961 222.281 111.812C222.427 111.662 222.6 111.542 222.792 111.46C222.984 111.377 223.191 111.334 223.399 111.331C223.608 111.329 223.816 111.368 224.009 111.446L237.038 116.61C237.428 116.763 237.742 117.066 237.91 117.45C238.077 117.835 238.086 118.27 237.933 118.661C237.821 118.964 237.62 119.226 237.355 119.412C237.09 119.597 236.775 119.697 236.452 119.698Z" fill="#407BFF"/>
<path opacity="0.5" d="M236.452 119.698C236.253 119.697 236.057 119.657 235.874 119.58L222.845 114.392C222.65 114.317 222.472 114.203 222.322 114.059C222.171 113.914 222.05 113.741 221.966 113.55C221.883 113.359 221.838 113.152 221.834 112.944C221.83 112.735 221.868 112.527 221.944 112.333C222.021 112.139 222.136 111.961 222.281 111.812C222.427 111.662 222.6 111.542 222.792 111.46C222.984 111.377 223.191 111.334 223.399 111.331C223.608 111.329 223.816 111.368 224.009 111.446L237.038 116.61C237.428 116.763 237.742 117.066 237.91 117.45C238.077 117.835 238.086 118.27 237.933 118.661C237.821 118.964 237.62 119.226 237.355 119.412C237.09 119.597 236.775 119.697 236.452 119.698Z" fill="white"/>
<path d="M209.215 133.4C209.017 133.398 208.821 133.36 208.636 133.289L184.979 123.896C184.785 123.821 184.607 123.707 184.456 123.563C184.305 123.418 184.184 123.245 184.101 123.054C184.017 122.863 183.972 122.657 183.968 122.448C183.964 122.239 184.002 122.031 184.079 121.837C184.155 121.643 184.27 121.466 184.415 121.316C184.561 121.166 184.735 121.046 184.927 120.964C185.118 120.881 185.325 120.838 185.534 120.835C185.743 120.833 185.95 120.872 186.144 120.95L209.801 130.311C210.144 130.447 210.429 130.698 210.607 131.022C210.784 131.345 210.844 131.72 210.774 132.083C210.705 132.445 210.511 132.772 210.226 133.007C209.941 133.241 209.584 133.369 209.215 133.369V133.4Z" fill="#407BFF"/>
<path opacity="0.3" d="M209.215 133.4C209.017 133.398 208.821 133.36 208.636 133.289L184.979 123.896C184.785 123.821 184.607 123.707 184.456 123.563C184.305 123.418 184.184 123.245 184.101 123.054C184.017 122.863 183.972 122.657 183.968 122.448C183.964 122.239 184.002 122.031 184.079 121.837C184.155 121.643 184.27 121.466 184.415 121.316C184.561 121.166 184.735 121.046 184.927 120.964C185.118 120.881 185.325 120.838 185.534 120.835C185.743 120.833 185.95 120.872 186.144 120.95L209.801 130.311C210.144 130.447 210.429 130.698 210.607 131.022C210.784 131.345 210.844 131.72 210.774 132.083C210.705 132.445 210.511 132.772 210.226 133.007C209.941 133.241 209.584 133.369 209.215 133.369V133.4Z" fill="black"/>
<path d="M294.861 61.9771C296.96 66.0717 298.885 70.1742 300.714 74.3718C302.544 78.5694 304.247 82.8225 305.736 87.2814L306.274 88.9684C306.369 89.2694 306.504 89.7604 306.583 90.1089C306.662 90.4574 306.734 90.8534 306.773 91.186C306.954 92.4637 307.047 93.7525 307.05 95.043C307.062 97.4232 306.951 99.8024 306.718 102.171C306.275 106.756 305.556 111.311 304.563 115.809L300.215 115.326C300.16 110.867 300.12 106.361 299.962 101.965C299.891 99.7792 299.764 97.5854 299.542 95.5262C299.442 94.5592 299.283 93.5991 299.067 92.6512C299.027 92.4294 298.964 92.2631 298.917 92.081C298.869 91.8988 298.821 91.8354 298.742 91.5978L298.14 90.101C296.485 86.0934 294.624 82.0542 292.723 78.0309L286.973 65.9608L294.861 61.9771Z" fill="#E4897B"/>
<path d="M300.279 113.932L298.251 117.726L304.73 119.532C304.73 119.532 305.965 116.483 304.492 114.075L300.279 113.932Z" fill="#E4897B"/>
<path d="M295.772 123.191L301.728 123.666L304.729 119.532L298.251 117.726L295.772 123.191Z" fill="#E4897B"/>
<path d="M267.593 34.6057C267.506 35.073 267.181 35.3977 266.88 35.3344C266.579 35.271 266.413 34.8513 266.508 34.3919C266.603 33.9325 266.92 33.5999 267.221 33.6633C267.522 33.7266 267.696 34.1464 267.593 34.6057Z" fill="#263238"/>
<path d="M267.229 35.3977C266.392 36.6934 265.382 37.8686 264.227 38.8904C264.497 39.1774 264.825 39.4024 265.191 39.5501C265.556 39.6977 265.948 39.7645 266.342 39.7458L267.229 35.3977Z" fill="#DE5753"/>
<path d="M269.794 32.3959C269.72 32.394 269.648 32.3627 269.596 32.3088C269.369 32.0485 269.083 31.8455 268.763 31.7162C268.442 31.5869 268.096 31.5348 267.751 31.5643C267.685 31.565 267.622 31.5423 267.571 31.5004C267.521 31.4584 267.487 31.3999 267.475 31.3353C267.464 31.2707 267.476 31.2041 267.509 31.1474C267.542 31.0907 267.594 31.0476 267.656 31.0258C268.097 30.9699 268.544 31.0239 268.958 31.1828C269.373 31.3417 269.742 31.6006 270.032 31.9366C270.083 31.9884 270.111 32.058 270.111 32.1306C270.111 32.2032 270.083 32.2728 270.032 32.3246C270 32.3536 269.963 32.3751 269.921 32.3875C269.88 32.3998 269.837 32.4027 269.794 32.3959Z" fill="#263238"/>
<path d="M280.693 41.0762C279.861 45.3371 279.029 53.1304 282.007 55.9737C282.007 55.9737 280.843 60.2901 272.931 60.2901C264.219 60.2901 268.781 55.9737 268.781 55.9737C273.533 54.8411 273.398 51.3167 272.575 48.0141L280.693 41.0762Z" fill="#E4897B"/>
<path d="M283.203 58.6587C283.829 56.5757 284.518 54.1918 283.092 53.4394C281.508 52.6474 272.899 51.7762 269.929 53.3206C266.959 54.865 267.807 59.1022 267.807 59.1022L283.203 58.6587Z" fill="#263238"/>
<path d="M301.467 256.16C301.221 256.192 300.971 256.176 300.731 256.11C300.492 256.045 300.268 255.932 300.073 255.779C300.004 255.684 299.967 255.569 299.967 255.451C299.967 255.333 300.004 255.218 300.073 255.122C300.118 255.04 300.18 254.969 300.256 254.913C300.331 254.857 300.417 254.817 300.508 254.797C301.364 254.607 302.964 255.7 303.035 255.748C303.055 255.765 303.071 255.787 303.081 255.812C303.091 255.837 303.094 255.864 303.09 255.89C303.086 255.916 303.074 255.94 303.055 255.958C303.037 255.976 303.013 255.989 302.987 255.993C302.488 256.101 301.978 256.157 301.467 256.16ZM300.738 255.051H300.572C300.518 255.062 300.468 255.085 300.424 255.118C300.38 255.15 300.344 255.192 300.318 255.241C300.192 255.463 300.271 255.558 300.318 255.589C300.564 255.922 301.752 255.922 302.623 255.779C302.056 255.405 301.412 255.161 300.738 255.067V255.051Z" fill="#407BFF"/>
<path d="M302.955 256.017H302.892C302.29 255.685 301.126 254.433 301.245 253.768C301.265 253.665 301.32 253.573 301.401 253.506C301.482 253.44 301.584 253.404 301.688 253.404C301.793 253.392 301.898 253.402 301.999 253.432C302.099 253.462 302.193 253.512 302.274 253.578C302.948 254.132 303.066 255.811 303.066 255.883C303.07 255.908 303.065 255.933 303.054 255.956C303.043 255.978 303.025 255.997 303.003 256.009C302.988 256.016 302.972 256.018 302.955 256.017ZM301.783 253.641H301.752C301.57 253.641 301.554 253.752 301.546 253.784C301.474 254.172 302.219 255.13 302.813 255.582C302.773 254.92 302.536 254.286 302.132 253.76C302.079 253.718 302.017 253.688 301.952 253.67C301.887 253.653 301.819 253.648 301.752 253.657L301.783 253.641Z" fill="#407BFF"/>
<path d="M266.532 256.16C265.787 256.16 265.066 256.057 264.821 255.724C264.759 255.636 264.726 255.531 264.726 255.423C264.726 255.315 264.759 255.21 264.821 255.122C264.869 255.041 264.933 254.97 265.009 254.914C265.086 254.858 265.172 254.819 265.264 254.797C266.223 254.536 268.266 255.692 268.353 255.74C268.376 255.755 268.395 255.776 268.406 255.802C268.417 255.827 268.421 255.855 268.417 255.882C268.412 255.91 268.399 255.936 268.379 255.956C268.359 255.976 268.333 255.989 268.306 255.993C267.721 256.103 267.127 256.159 266.532 256.16ZM265.605 255.035C265.518 255.022 265.43 255.022 265.344 255.035C265.288 255.046 265.235 255.069 265.189 255.101C265.142 255.134 265.103 255.176 265.074 255.225C264.971 255.399 265.011 255.479 265.074 255.526C265.336 255.89 266.809 255.914 267.902 255.764C267.19 255.379 266.41 255.137 265.605 255.051V255.035Z" fill="#407BFF"/>
<path d="M268.29 256.017H268.234C267.529 255.708 266.143 254.433 266.246 253.792C266.246 253.633 266.381 253.443 266.761 253.404C266.903 253.382 267.047 253.392 267.184 253.433C267.321 253.474 267.447 253.545 267.553 253.641C268.298 254.243 268.448 255.811 268.456 255.882C268.459 255.907 268.456 255.931 268.446 255.954C268.436 255.976 268.42 255.995 268.401 256.009C268.384 256.018 268.365 256.024 268.346 256.025C268.327 256.027 268.308 256.024 268.29 256.017ZM266.872 253.641H266.785C266.539 253.641 266.524 253.768 266.516 253.8C266.452 254.196 267.403 255.186 268.1 255.613C268.031 254.948 267.754 254.321 267.308 253.823C267.195 253.726 267.053 253.667 266.904 253.657L266.872 253.641Z" fill="#407BFF"/>
<path d="M274.689 255.875H268.868L268.29 242.403H274.111L274.689 255.875Z" fill="#E4897B"/>
<path d="M309.624 255.875H303.803L300.881 242.403H306.694L309.624 255.875Z" fill="#E4897B"/>
<path d="M303.391 255.201H309.925C310.042 255.202 310.155 255.243 310.246 255.316C310.336 255.389 310.399 255.491 310.424 255.605L311.573 260.777C311.599 260.903 311.596 261.033 311.565 261.158C311.534 261.283 311.475 261.399 311.393 261.498C311.311 261.597 311.208 261.676 311.091 261.73C310.974 261.783 310.846 261.809 310.717 261.807C308.436 261.767 307.328 261.632 304.453 261.632C302.686 261.632 299.043 261.823 296.596 261.823C294.149 261.823 293.84 259.447 294.838 259.185C299.32 258.203 301.007 256.849 302.441 255.566C302.701 255.33 303.04 255.2 303.391 255.201Z" fill="#263238"/>
<path d="M268.908 255.201H275.244C275.36 255.202 275.473 255.243 275.564 255.316C275.654 255.389 275.717 255.491 275.743 255.605L276.891 260.777C276.918 260.902 276.917 261.031 276.888 261.156C276.858 261.28 276.801 261.396 276.72 261.495C276.639 261.594 276.537 261.673 276.422 261.727C276.306 261.781 276.179 261.808 276.051 261.807C273.763 261.767 270.452 261.632 267.569 261.632C264.203 261.632 261.289 261.823 257.337 261.823C254.961 261.823 254.287 259.447 255.285 259.185C259.839 258.187 263.554 258.084 267.49 255.661C267.909 255.376 268.401 255.216 268.908 255.201Z" fill="#263238"/>
<path d="M266.112 66.1906C261.246 65.8136 256.405 65.1711 251.61 64.266C249.234 63.8066 246.811 63.2918 244.403 62.6424C241.935 62.0108 239.512 61.2171 237.148 60.2664C236.538 60.013 235.921 59.7358 235.311 59.4744C234.624 59.1362 233.963 58.7498 233.331 58.3181C232.19 57.5657 231.208 56.7816 230.234 56.0054C228.294 54.4214 226.496 52.8374 224.69 51.2138C221.15 47.935 217.792 44.5452 214.552 40.9812L217.467 37.7261L228.959 45.9866C230.852 47.3489 232.768 48.6874 234.653 49.9466C235.588 50.5723 236.546 51.1584 237.425 51.6574C237.793 51.867 238.174 52.0522 238.566 52.2118C239.033 52.3939 239.508 52.5761 240.007 52.7503C244.288 54.0684 248.665 55.0482 253.099 55.6807C257.621 56.3935 262.294 56.9796 266.809 57.4548L266.112 66.1906Z" fill="#E4897B"/>
<path d="M292.422 57.2885C297.879 58.5398 303.391 74.4828 303.391 74.4828L292.169 82.5374C292.169 82.5374 289.001 75.1085 285.944 68.6141C282.744 61.8108 286.847 56.0134 292.422 57.2885Z" fill="#407BFF"/>
<path opacity="0.4" d="M292.422 57.2885C297.879 58.5398 303.391 74.4828 303.391 74.4828L292.169 82.5374C292.169 82.5374 289.001 75.1085 285.944 68.6141C282.744 61.8108 286.847 56.0134 292.422 57.2885Z" fill="black"/>
<path d="M289.278 66.0005L287.052 70.9822C289.357 75.9559 291.464 80.8822 292.026 82.1969C291.947 76.3123 290.83 69.0101 289.278 66.0005Z" fill="#407BFF"/>
<path opacity="0.6" d="M289.278 66.0005L287.052 70.9822C289.357 75.9559 291.464 80.8822 292.026 82.1969C291.947 76.3123 290.83 69.0101 289.278 66.0005Z" fill="black"/>
<path d="M259.832 57.5893C259.832 57.5893 253.638 64.5827 259.483 107.881H290.601C290.822 103.129 287.821 79.797 292.422 57.2884C288.983 56.626 285.504 56.1869 282.008 55.9737C277.602 55.72 273.186 55.72 268.781 55.9737C265.76 56.278 262.768 56.8182 259.832 57.5893Z" fill="#407BFF"/>
<path opacity="0.4" d="M259.832 57.5893C259.832 57.5893 253.638 64.5827 259.483 107.881H290.601C290.822 103.129 287.821 79.797 292.422 57.2884C288.983 56.626 285.504 56.1869 282.008 55.9737C277.602 55.72 273.186 55.72 268.781 55.9737C265.76 56.278 262.768 56.8182 259.832 57.5893Z" fill="black"/>
<path d="M257.526 66.0005C257.32 67.6399 257.162 69.5803 257.059 71.8692C260.132 70.9469 263.052 69.5751 265.724 67.7983L257.526 66.0005Z" fill="#407BFF"/>
<path opacity="0.6" d="M257.526 66.0005C257.32 67.6399 257.162 69.5803 257.059 71.8692C260.132 70.9469 263.052 69.5751 265.724 67.7983L257.526 66.0005Z" fill="black"/>
<path d="M270.864 66.8717C266.698 70.5624 250.795 70.1902 250.795 70.1902L250.272 54.7937C255.642 55.5587 261.06 55.9503 266.484 55.9659C275.347 55.7837 275.41 62.8008 270.864 66.8717Z" fill="#407BFF"/>
<path opacity="0.4" d="M270.864 66.8717C266.698 70.5624 250.795 70.1902 250.795 70.1902L250.272 54.7937C255.642 55.5587 261.06 55.9503 266.484 55.9659C275.347 55.7837 275.41 62.8008 270.864 66.8717Z" fill="black"/>
<path d="M217.618 37.7579L213.658 33.093L209.389 37.845C209.389 37.845 212.018 42.2644 216.192 41.5674L217.618 37.7579Z" fill="#E4897B"/>
<path d="M207.987 27.6519L206.45 33.7423L209.357 37.8132L213.626 33.0929L207.987 27.6519Z" fill="#E4897B"/>
<path d="M268.29 242.411L268.591 249.349H274.412L274.111 242.411H268.29Z" fill="#CE6F64"/>
<path d="M306.702 242.411H300.881L302.385 249.349H308.207L306.702 242.411Z" fill="#CE6F64"/>
<path d="M271.791 28.8557C266.571 26.4797 264.924 15.9223 279.94 18.5597C279.94 18.5597 277.675 21.0624 282.269 22.6464C286.862 24.2304 283.021 34.0116 271.791 28.8557Z" fill="#263238"/>
<path d="M283.132 36.7756C281.635 42.3196 281.049 45.6935 277.588 48.014C272.408 51.4988 265.969 47.4992 265.763 41.583C265.581 36.2687 268.06 28.0398 274.04 26.9152C275.36 26.6564 276.724 26.7401 278.002 27.1582C279.281 27.5764 280.43 28.3151 281.342 29.3039C282.254 30.2927 282.897 31.4986 283.21 32.8066C283.524 34.1145 283.497 35.481 283.132 36.7756Z" fill="#E4897B"/>
<path d="M279.734 21.3318C283.29 23.3118 288.106 24.4998 287.654 27.3193C287.06 30.7645 290.561 28.6102 289.745 33.7345C289.214 37.0846 283.037 47.2381 278.657 46.747C272.115 45.955 272.947 36.0075 272.923 30.7645C272.907 27.6678 272.765 17.4272 279.734 21.3318Z" fill="#263238"/>
<path d="M272.139 25.7749C270.555 26.1471 268.456 35.2789 274.594 36.1184C281.651 37.0767 272.139 25.7749 272.139 25.7749Z" fill="#263238"/>
<path d="M272.297 29.0142C270.357 29.1884 265.961 26.852 266.5 23.3356C266.5 23.3118 269.28 27.446 272.297 29.0142Z" fill="#263238"/>
<path d="M275.18 36.8471C274.585 38.1529 273.574 39.225 272.305 39.8963C270.634 40.7675 269.692 39.5003 270.072 37.8213C270.412 36.3165 271.695 34.0434 273.414 33.8613C275.133 33.6791 275.869 35.2631 275.18 36.8471Z" fill="#E4897B"/>
<path d="M283.892 30.4396C285.076 29.926 286.113 29.1268 286.912 28.1137C287.711 27.1005 288.246 25.905 288.47 24.6343C288.47 24.6343 291.083 31.8969 283.892 30.4396Z" fill="#263238"/>
<path d="M290.497 30.321C289.946 29.9509 289.312 29.7231 288.651 29.6582C287.991 29.5932 287.324 29.6931 286.712 29.9488C286.712 29.9488 289.151 26.7887 290.497 30.321Z" fill="#263238"/>
<path d="M270.523 107.882C270.523 107.882 277.128 152.344 280.748 169C284.708 187.216 299.677 248.01 299.677 248.01H310.329C310.329 248.01 300.469 188.713 298.204 170.624C295.748 151.022 290.6 107.85 290.6 107.85L270.523 107.882Z" fill="#407BFF"/>
<path opacity="0.5" d="M270.523 107.882C270.523 107.882 277.128 152.344 280.748 169C284.708 187.216 299.677 248.01 299.677 248.01H310.329C310.329 248.01 300.469 188.713 298.204 170.624C295.748 151.022 290.6 107.85 290.6 107.85L270.523 107.882Z" fill="white"/>
<path d="M297.974 244.082C297.926 244.082 299.075 248.176 299.075 248.176H311.066L310.844 244.525L297.974 244.082Z" fill="#407BFF"/>
<path opacity="0.1" d="M297.974 244.082C297.926 244.082 299.075 248.176 299.075 248.176H311.066L310.844 244.525L297.974 244.082Z" fill="black"/>
<path d="M274.697 123.721C282.332 125.218 281.524 153.691 280.605 168.335C278.404 157.983 275.18 138.064 272.979 123.927C273.511 123.665 274.118 123.592 274.697 123.721Z" fill="#407BFF"/>
<path opacity="0.4" d="M274.697 123.721C282.332 125.218 281.524 153.691 280.605 168.335C278.404 157.983 275.18 138.064 272.979 123.927C273.511 123.665 274.118 123.592 274.697 123.721Z" fill="white"/>
<path d="M259.483 107.881C259.483 107.881 258.691 151.378 259.317 169.127C259.974 187.58 266.445 248.01 266.445 248.01H276.297C276.297 248.01 276.661 188.657 277.089 170.536C277.572 150.776 279.956 107.881 279.956 107.881H259.483Z" fill="#407BFF"/>
<path opacity="0.5" d="M259.483 107.881C259.483 107.881 258.691 151.378 259.317 169.127C259.974 187.58 266.445 248.01 266.445 248.01H276.297C276.297 248.01 276.661 188.657 277.089 170.536C277.572 150.776 279.956 107.881 279.956 107.881H259.483Z" fill="white"/>
<path d="M268.488 240.93C268.464 240.93 268.441 240.921 268.423 240.905C268.406 240.888 268.395 240.866 268.393 240.842C266.651 224.115 262.556 183.644 262.057 169.127C261.526 154.308 262.009 121.06 262.168 111.224C262.168 111.198 262.178 111.174 262.196 111.156C262.214 111.139 262.238 111.129 262.263 111.129C262.289 111.129 262.314 111.138 262.333 111.156C262.352 111.174 262.364 111.198 262.366 111.224C262.207 121.06 261.724 154.309 262.255 169.119C262.77 183.636 266.864 224.092 268.591 240.819C268.591 240.846 268.582 240.872 268.564 240.892C268.547 240.912 268.523 240.926 268.496 240.93H268.488Z" fill="#407BFF"/>
<path opacity="0.4" d="M268.488 240.93C268.464 240.93 268.441 240.921 268.423 240.905C268.406 240.888 268.395 240.866 268.393 240.842C266.651 224.115 262.556 183.644 262.057 169.127C261.526 154.308 262.009 121.06 262.168 111.224C262.168 111.198 262.178 111.174 262.196 111.156C262.214 111.139 262.238 111.129 262.263 111.129C262.289 111.129 262.314 111.138 262.333 111.156C262.352 111.174 262.364 111.198 262.366 111.224C262.207 121.06 261.724 154.309 262.255 169.119C262.77 183.636 266.864 224.092 268.591 240.819C268.591 240.846 268.582 240.872 268.564 240.892C268.547 240.912 268.523 240.926 268.496 240.93H268.488Z" fill="white"/>
<path d="M264.528 244.082C264.488 244.082 265.09 248.176 265.09 248.176H277.073L277.398 244.525L264.528 244.082Z" fill="#407BFF"/>
<path opacity="0.1" d="M264.528 244.082C264.488 244.082 265.09 248.176 265.09 248.176H277.073L277.398 244.525L264.528 244.082Z" fill="black"/>
</svg>
