<svg xmlns="http://www.w3.org/2000/svg" xmlns:xlink="http://www.w3.org/1999/xlink" width="404" height="327" viewBox="0 0 404 327"><defs><style>.a,.p{fill:#fff;}.a{stroke:#707070;}.b{fill:none;}.c{clip-path:url(#a);}.d{clip-path:url(#b);}.e{fill:#c3d6e2;opacity:0.24;}.ad,.e,.t,.z{mix-blend-mode:multiply;isolation:isolate;}.f{fill:#6774ff;}.g{fill:#1d113f;}.h{fill:#8b99fc;}.ad,.i{fill:#2d1f60;}.j{fill:#f2881d;}.k,.z{fill:#ffb41f;}.l{fill:#ff9a22;}.m{fill:#7ab5f5;}.n{fill:#3748a0;}.o{fill:#2b3972;}.q,.t{fill:#ff921e;}.r{fill:#ff791f;}.s{fill:#202b4f;}.t{opacity:0.3;}.u{fill:#d66e18;}.v{fill:#e2791b;}.w{fill:#eda38e;}.x{fill:#5061dd;}.y{fill:#ffd648;}.z{opacity:0.22;}.aa{fill:#f48e76;}.ab{fill:#3d3177;}.ac{fill:#4c4487;}.ad{opacity:0.48;}</style><clipPath id="a"><rect class="a" width="404" height="327" transform="translate(4957 467)"/></clipPath><clipPath id="b"><rect class="b" width="533.583" height="300.726"/></clipPath></defs><g class="c" transform="translate(-4957 -467)"><g transform="translate(4978.298 479.288)"><g class="d" transform="translate(0 0)"><g transform="translate(66.487 164.44)"><path class="e" d="M177.718,390.659c0,2.2-9.376,3.98-20.943,3.98s-20.942-1.782-20.942-3.98,9.376-3.98,20.942-3.98S177.718,388.461,177.718,390.659Z" transform="translate(-131.447 -288.793)"/><path class="f" d="M174.446,346.8l0-.006,0-.011c0-.061-.011-.13-.016-.182h-.039c-.6-1.483-8.035-2.655-17.141-2.655s-16.54,1.172-17.141,2.655h-.039c0,.052-.011.121-.016.182l0,.011,0,.006c-.333,3.791-1.83,25.55,6.468,36.937h21.459C176.275,372.353,174.779,350.594,174.446,346.8Z" transform="translate(-132.152 -281.066)"/><ellipse class="g" cx="17.2" cy="2.848" rx="17.2" ry="2.848" transform="translate(7.897 62.883)"/><g transform="translate(7.581 71.41)"><path class="h" d="M174.707,359.892a181.366,181.366,0,0,1-34.95-5.534c-.033,1.487-.036,3.178.016,5a186.431,186.431,0,0,0,34.634,5.4C174.558,363.072,174.653,361.44,174.707,359.892Z" transform="translate(-139.733 -354.358)"/><path class="h" d="M144.327,384.513a151.972,151.972,0,0,0,28.465-4.361,51.3,51.3,0,0,0,1.293-5.453,146.311,146.311,0,0,1-31.483,4.981A37.752,37.752,0,0,0,144.327,384.513Z" transform="translate(-140.252 -358.036)"/></g><ellipse class="i" cx="15.834" cy="1.735" rx="15.834" ry="1.735" transform="translate(9.263 65.11)"/><path class="j" d="M175.961,290.873a4.534,4.534,0,0,0-5.456-.76c1.121-4.034,2.1-8.213,1.642-12.376-.412-3.761-2.563-9.039-6.536-10.352-3.481-1.151-6.075,2.921-7.136,5.754a30.768,30.768,0,0,0-1.4,16.452,11,11,0,0,0-3.865-1.286c-8.229-.592-1.837,12.04-.51,15.445-.586-1.5-4.641,1.957-5.023,2.52a7.841,7.841,0,0,0-.863,7.164,26.015,26.015,0,0,0,3.862,6.435,38.873,38.873,0,0,1,6.312,12.438,21.925,21.925,0,0,1,.626,3.453c.276,0,.551.006.831.006.395,0,.786,0,1.174-.007a16.847,16.847,0,0,1,.048-3.454,16.44,16.44,0,0,1,.931-3.893,8.7,8.7,0,0,1,1.535-2.726,13.573,13.573,0,0,1,3.065-2.3,18.355,18.355,0,0,0,5.436-4.813,8.528,8.528,0,0,0,1.488-6.923,5.959,5.959,0,0,0-5.04-4.307c4.609-2.346,10.291-5.1,10.709-10.995A6.964,6.964,0,0,0,175.961,290.873Z" transform="translate(-133.343 -267.185)"/><path class="k" d="M157.258,318.346c1.837-3.182,4.862-10.744-.861-12.013a10.656,10.656,0,0,0-5.022.521c2.179-3.691,8.547-9.892,4.237-13.969-1.781-1.683-5.291-1.595-6.471.51.258-6.083.294-12.808-3.889-17.428a5.117,5.117,0,0,0-7.423-1.225c-7.71,5.021-3.362,15.806.53,21.949-2.041-.109-5.18-.435-6.505,1.309a6.228,6.228,0,0,0-.848,6.376c.629,1.353,4.7,7.382,6.324,7.49-3.038-.2-6.646,2.762-6.188,5.836.5,3.363,5.6,5.683,8.2,7.357a37.964,37.964,0,0,1,9.438,8.64,36.582,36.582,0,0,1,2.171,3.131c.869.04,1.766.069,2.686.086a12.335,12.335,0,0,1-1.341-3.4,12.117,12.117,0,0,1-.025-5.51C153.1,324.5,155.434,321.5,157.258,318.346Z" transform="translate(-130.478 -268.356)"/><path class="l" d="M190.722,302.77c1.654-2.15,2.785-4.854,2.221-7.461s-3.277-4.872-6.034-4.369a23.452,23.452,0,0,0,4.545-10,9.126,9.126,0,0,0-.2-5.068,4.647,4.647,0,0,0-3.989-3.017,6.058,6.058,0,0,0-3.268,1.1,14.6,14.6,0,0,0-6.406,8.582c-.588,2.26-.607,4.677-1.647,6.786-1.3-1.419-3.885-1.094-5.283.235a7.868,7.868,0,0,0-2.015,5.169,23.4,23.4,0,0,0,1.941,11.508c-1.718-2.186-5.6-1.879-7.563.11s-2.3,5.016-1.776,7.695,1.79,5.171,2.665,7.767a23.456,23.456,0,0,1,.342,11.564,17.273,17.273,0,0,1-1.085,3.4c1.135-.022,2.236-.062,3.291-.12a12.8,12.8,0,0,1,.433-3.158,13.487,13.487,0,0,1,4.672-7.1c2.743-2.15,6.213-3.231,9.48-4.571s6.569-3.136,8.263-6.1a4.914,4.914,0,0,0,.245-5.067,5.37,5.37,0,0,0-4.537-2.006A75.9,75.9,0,0,0,190.722,302.77Z" transform="translate(-136.002 -268.21)"/></g><g transform="translate(306.163 197.495)"><ellipse class="e" cx="18.482" cy="3.512" rx="18.482" ry="3.512" transform="translate(3.871 86.388)"/><path class="f" d="M461.865,377.8l0-.006,0-.01c0-.054-.01-.116-.014-.161h-.035c-.531-1.308-7.091-2.343-15.127-2.343s-14.6,1.035-15.128,2.343h-.035c0,.045-.009.106-.014.161l0,.01,0,.006c-.293,3.346-1.615,22.548,5.709,32.6h18.938C463.48,400.351,462.159,381.148,461.865,377.8Z" transform="translate(-424.539 -319.787)"/><path class="g" d="M461.928,377.8c0,1.388-6.8,2.514-15.179,2.514s-15.18-1.126-15.18-2.514,6.8-2.513,15.18-2.513S461.928,376.409,461.928,377.8Z" transform="translate(-424.6 -319.787)"/><g transform="translate(6.69 63.022)"><path class="h" d="M462.094,389.354a160.086,160.086,0,0,1-30.845-4.884c-.029,1.312-.031,2.8.016,4.411a164.507,164.507,0,0,0,30.565,4.763C461.964,392.16,462.048,390.719,462.094,389.354Z" transform="translate(-431.229 -384.47)"/><path class="h" d="M435.284,411.083a134.128,134.128,0,0,0,25.121-3.849,45.251,45.251,0,0,0,1.142-4.813,129.1,129.1,0,0,1-27.785,4.4A33.4,33.4,0,0,0,435.284,411.083Z" transform="translate(-431.687 -387.716)"/></g><path class="i" d="M433.041,379.214c2.311.9,7.7,1.531,13.974,1.531s11.663-.632,13.973-1.531c-2.311-.9-7.7-1.531-13.973-1.531S435.352,378.314,433.041,379.214Z" transform="translate(-424.867 -320.221)"/><path class="j" d="M463.2,328.442a4,4,0,0,0-4.814-.671c.99-3.561,1.851-7.248,1.449-10.922-.364-3.319-2.263-7.977-5.769-9.136-3.072-1.016-5.362,2.578-6.3,5.078a27.164,27.164,0,0,0-1.239,14.52,9.712,9.712,0,0,0-3.411-1.135c-7.263-.523-1.621,10.626-.451,13.631-.517-1.326-4.1,1.727-4.433,2.224a6.92,6.92,0,0,0-.761,6.322,22.946,22.946,0,0,0,3.408,5.679,34.312,34.312,0,0,1,5.57,10.977,19.458,19.458,0,0,1,.552,3.047c.244,0,.487,0,.734,0,.348,0,.693,0,1.035-.007a14.92,14.92,0,0,1,.043-3.048,14.524,14.524,0,0,1,.822-3.436,7.68,7.68,0,0,1,1.355-2.407,11.988,11.988,0,0,1,2.7-2.03,16.178,16.178,0,0,0,4.8-4.247,7.525,7.525,0,0,0,1.312-6.109,5.257,5.257,0,0,0-4.446-3.8c4.067-2.071,9.082-4.5,9.451-9.7A6.15,6.15,0,0,0,463.2,328.442Z" transform="translate(-425.59 -307.537)"/><path class="k" d="M446.7,352.687c1.622-2.807,4.291-9.482-.759-10.6a9.411,9.411,0,0,0-4.432.46c1.923-3.257,7.543-8.73,3.739-12.328-1.571-1.485-4.669-1.407-5.711.451.228-5.369.26-11.3-3.432-15.38a4.515,4.515,0,0,0-6.55-1.082c-6.8,4.432-2.968,13.95.467,19.371-1.8-.1-4.571-.384-5.741,1.155a5.5,5.5,0,0,0-.748,5.627c.555,1.2,4.151,6.516,5.58,6.612-2.681-.179-5.864,2.437-5.461,5.15.442,2.968,4.945,5.016,7.242,6.493a33.5,33.5,0,0,1,8.329,7.625A32.232,32.232,0,0,1,441.135,369q1.151.053,2.37.075a10.892,10.892,0,0,1-1.183-3,10.7,10.7,0,0,1-.023-4.863C443.028,358.115,445.086,355.475,446.7,352.687Z" transform="translate(-423.062 -308.571)"/><path class="l" d="M476.229,338.942c1.46-1.9,2.458-4.283,1.959-6.584a4.922,4.922,0,0,0-5.325-3.857,20.7,20.7,0,0,0,4.011-8.824,8.061,8.061,0,0,0-.174-4.473,4.1,4.1,0,0,0-3.522-2.662,5.347,5.347,0,0,0-2.883.97,12.882,12.882,0,0,0-5.653,7.574c-.519,1.995-.536,4.129-1.455,5.989-1.142-1.253-3.428-.965-4.662.207a6.948,6.948,0,0,0-1.778,4.562A20.651,20.651,0,0,0,458.461,342c-1.516-1.928-4.94-1.659-6.675.1s-2.033,4.426-1.568,6.791a55.626,55.626,0,0,0,2.352,6.854,20.7,20.7,0,0,1,.3,10.205,15.269,15.269,0,0,1-.957,3c1-.02,1.973-.055,2.9-.106a11.314,11.314,0,0,1,.381-2.788,11.9,11.9,0,0,1,4.124-6.269c2.421-1.9,5.484-2.852,8.366-4.034s5.8-2.768,7.292-5.386a4.337,4.337,0,0,0,.216-4.473,4.738,4.738,0,0,0-4-1.77A67.35,67.35,0,0,0,476.229,338.942Z" transform="translate(-427.937 -308.442)"/></g><g transform="translate(8.156 48.657)"><rect class="g" width="6.489" height="140.52" transform="translate(24.987 89.844)"/><rect class="g" width="21.378" height="5.078" transform="translate(17.542 227.182)"/><path class="m" d="M148.117,225.591V190.628A23.513,23.513,0,0,0,124.6,167.115H82.785a23.513,23.513,0,0,0-23.513,23.513v34.963Z" transform="translate(-59.272 -133.306)"/><path class="n" d="M161.085,225.525V190.56a23.813,23.813,0,0,0-23.813-23.813h0a23.813,23.813,0,0,0-23.814,23.813v34.965Z" transform="translate(-69.07 -133.24)"/><path class="o" d="M149.429,225.684V190.719a23.821,23.821,0,0,0-17.985-23.092,23.822,23.822,0,0,0-17.986,23.092v34.965Z" transform="translate(-69.07 -133.399)"/><g transform="translate(8.467 33.809)"><path class="p" d="M70.427,225.7v-35.77a23.44,23.44,0,0,1,18.19-22.811H85.689a24.263,24.263,0,0,0-16.081,22.811V225.7Z" transform="translate(-69.608 -167.115)"/></g><g transform="translate(39.462 33.809)"><path class="p" d="M108.264,225.7v-35.77a23.44,23.44,0,0,1,18.19-22.811h-2.928a24.263,24.263,0,0,0-16.082,22.811V225.7Z" transform="translate(-107.445 -167.115)"/></g><g transform="translate(57.764 46.36)"><rect class="q" width="39.359" height="27.037" transform="translate(0 13.443) rotate(-19.971)"/><path class="k" d="M141.06,225.694l36.992-13.443-22.925-5.465Z" transform="translate(-131.826 -186.84)"/><path class="r" d="M166.779,182.437,129.787,195.88l25.167,11.637Z" transform="translate(-129.787 -182.437)"/></g><path class="k" d="M98.688,125.843H79.435v68.233H82.51V133.809H98.688Z" transform="translate(-62.918 -125.843)"/><circle class="p" cx="3.584" cy="3.584" r="3.584" transform="translate(14.388 65.277)"/><path class="o" d="M82.613,209.507a1.8,1.8,0,1,0-1.8,1.8A1.8,1.8,0,0,0,82.613,209.507Z" transform="translate(-62.842 -140.647)"/><path class="s" d="M182.823,238.066H113.458v-2.545h69.365a1.272,1.272,0,0,1,1.272,1.272h0A1.273,1.273,0,0,1,182.823,238.066Z" transform="translate(-69.07 -145.676)"/></g><g transform="translate(298.327 92.308)"><rect class="k" width="43.522" height="29.766" transform="translate(9.396 0) rotate(18.401)"/><path class="p" d="M481.529,200.631" transform="translate(-425.799 -183.018)"/><rect class="q" width="39.31" height="26.123" transform="translate(10.819 2.393) rotate(18.401)"/><path class="t" d="M424.97,192.031a5.005,5.005,0,0,1,2.434-1.581,2.639,2.639,0,0,1,2.091.142,3.585,3.585,0,0,1,1.284,2.445c1.506-2.2,3.866-4.092,6.527-3.984a3.406,3.406,0,0,1,1.486.364c1.267.683,1.7,2.28,1.833,3.713a18.487,18.487,0,0,1-.695,7.026,2.451,2.451,0,0,1,3.557-.161,4.769,4.769,0,0,1,1.255,3.713,9.43,9.43,0,0,1-.91,3.737,6.009,6.009,0,0,1-2.112,2.548,5.526,5.526,0,0,1-1.766.695c-2.916.641-5.915-.514-8.566-1.888a49.59,49.59,0,0,1-4.748-2.806,3.166,3.166,0,0,1-1.427-1.545" transform="translate(-415.571 -180.923)"/><path class="t" d="M435.158,207.534c.677-1.1,1.6-2.768,2.829-3.3a3.183,3.183,0,0,1,3.622.923,22.183,22.183,0,0,0,1.6-3.5,17.7,17.7,0,0,1,2.069-3.585c1.19-1.6,2.935-3.1,4.917-2.894a4.15,4.15,0,0,1,2.785,1.641,6.49,6.49,0,0,1,1.2,3.057,4.466,4.466,0,0,1,2.75-1.99,3.03,3.03,0,0,1,3.078,1.15,5.108,5.108,0,0,1,.641,2.393,13.774,13.774,0,0,1,.041,3.531c-.063.389-.16.774-.188,1.167-.023.319,0,.641-.009.961a4.952,4.952,0,0,1-4,4.789c-2.364.385-4.214,2.032-6.6,2.3a10.792,10.792,0,0,1-3.9-.442,34.086,34.086,0,0,1-7.816-3.1,5.988,5.988,0,0,1-2.126-1.679" transform="translate(-417.413 -182.029)"/><path class="u" d="M432.362,214.385l24.419,8.124,7.459-22.422c-7.406.75-14.778,2.471-21.332,5.978A37.326,37.326,0,0,0,432.362,214.385Z" transform="translate(-416.908 -182.919)"/><path class="v" d="M430.047,194.418a37.616,37.616,0,0,0-6.485-7.518l-6.924,20.815,19.834,6.6A40.823,40.823,0,0,0,430.047,194.418Z" transform="translate(-414.064 -180.535)"/></g><g transform="translate(246.564 53.954)"><rect class="q" width="39.67" height="27.251" transform="translate(0 15.057) rotate(-22.306)"/><path class="k" d="M362.933,177.136l36.7-15.057-23.311-4.562Z" transform="translate(-352.59 -136.867)"/><path class="r" d="M387.009,132.309l-36.7,15.057,25.823,10.686Z" transform="translate(-350.307 -132.309)"/></g><g transform="translate(126.405 43.15)"><ellipse class="e" cx="66.947" cy="9.219" rx="66.947" ry="9.219" transform="translate(7.135 226.652)"/><g transform="translate(0)"><g transform="translate(0 26.419)"><rect class="k" width="36.388" height="24.887" transform="translate(6.754 0) rotate(15.747)"/><path class="p" d="M259.941,167.139" transform="translate(-213.807 -154.222)"/><rect class="q" width="32.866" height="21.841" transform="translate(8.035 1.944) rotate(15.747)"/><path class="t" d="M212.4,162.04a4.192,4.192,0,0,1,1.971-1.415,2.207,2.207,0,0,1,1.751.038,3,3,0,0,1,1.167,1.993c1.172-1.893,3.071-3.567,5.3-3.581a2.86,2.86,0,0,1,1.255.247,3.759,3.759,0,0,1,1.675,3.03,15.448,15.448,0,0,1-.309,5.895,2.05,2.05,0,0,1,2.965-.271,3.987,3.987,0,0,1,1.192,3.052,7.874,7.874,0,0,1-.616,3.156,5.023,5.023,0,0,1-1.665,2.21,4.626,4.626,0,0,1-1.448.649c-2.41.648-4.96-.2-7.228-1.246a41.255,41.255,0,0,1-4.073-2.159,2.646,2.646,0,0,1-1.252-1.235" transform="translate(-205.21 -152.764)"/><path class="t" d="M221.586,174.573c.523-.94,1.228-2.373,2.235-2.864a2.659,2.659,0,0,1,3.06.631,18.5,18.5,0,0,0,1.2-2.985,14.77,14.77,0,0,1,1.589-3.074c.932-1.38,2.332-2.7,3.994-2.607a3.469,3.469,0,0,1,2.39,1.262,5.427,5.427,0,0,1,1.124,2.507,3.731,3.731,0,0,1,2.22-1.769,2.533,2.533,0,0,1,2.616.841,4.27,4.27,0,0,1,.627,1.973,11.5,11.5,0,0,1,.171,2.947c-.038.328-.1.653-.112.982-.007.268.024.535.029.8a4.141,4.141,0,0,1-3.151,4.154c-1.96.414-3.441,1.861-5.423,2.178a9,9,0,0,1-3.274-.218,28.5,28.5,0,0,1-6.648-2.29,5,5,0,0,1-1.84-1.321" transform="translate(-206.872 -153.595)"/><path class="u" d="M219.532,180.256l20.709,5.839L245.6,167.08a47.846,47.846,0,0,0-17.585,5.819A31.193,31.193,0,0,0,219.532,180.256Z" transform="translate(-206.5 -154.212)"/><path class="v" d="M216.881,163.883a31.443,31.443,0,0,0-5.707-6.027L206.2,175.508l16.821,4.743A34.134,34.134,0,0,0,216.881,163.883Z" transform="translate(-204.089 -152.544)"/><path class="w" d="M255.082,179.645l-6.281-8.067a.861.861,0,0,0-1.5.778l1.308,5.243s-3.353,5.132,3.952,7.776" transform="translate(-211.514 -154.964)"/><path class="x" d="M255.443,180.182l25.367,37.025-17.718,2.649-14.645-32.834Z" transform="translate(-211.729 -156.581)"/><path class="n" d="M256.154,185.686a18.562,18.562,0,0,1-1.674,1.775l18.594,32.062,2.487-.372Z" transform="translate(-212.82 -157.576)"/><path class="f" d="M250.33,191.083l7.276-7.688-.451-.658-7.169,7.575Z" transform="translate(-212.007 -157.043)"/></g><path class="f" d="M303.19,174.049s-12.591,20.279-12.819,44.7,32.482,5.981,32.482,5.981l-2.591-28.412Z" transform="translate(-219.31 -129.053)"/><g transform="translate(16.145 149.967)"><path class="w" d="M245.162,385.366l-3.694,7.53s-14.787-4.247-18.135.068c7.024,3.871,21.1,8.507,21.1,8.507l7.522-15.156" transform="translate(-223.333 -317.232)"/><path class="w" d="M345.1,383.5l3.973,7.387s-12.059,9.553-10.5,14.786c7.236-3.458,19.2-12.21,19.2-12.21l-7.946-14.938" transform="translate(-244.147 -315.995)"/><path class="n" d="M242.559,391.843l-1.092,2.224s-14.786-4.247-18.134.068c7.024,3.871,21.1,8.507,21.1,8.507l3.59-7.235Z" transform="translate(-223.333 -318.404)"/><path class="n" d="M347.9,390.427l1.174,2.181s-12.059,9.553-10.5,14.786c7.236-3.458,19.2-12.21,19.2-12.21l-3.793-7.131Z" transform="translate(-244.147 -317.718)"/><path class="k" d="M310.1,311.263c.629.052,18.34,46.7,29.708,62.046,8.754-3.785,9.547-4.949,9.547-4.949s-16.816-51.036-18.893-66.169" transform="translate(-239.024 -302.192)"/><path class="k" d="M268.944,317.156l-21.271,55.373,8.4,3.849s34.956-56.153,43.3-63.622" transform="translate(-227.734 -304.102)"/><path class="y" d="M254.426,375.52l37-61.215-2.994.433-36.15,59.8Z" transform="translate(-228.568 -304.382)"/><path class="y" d="M321.541,308.219c4.889,13.762,16.6,45.852,25.668,63.573.851-.421,1.534-.779,2.078-1.082C340.354,353.2,328.555,320.922,323.7,307.3Z" transform="translate(-241.092 -303.116)"/><path class="z" d="M316.608,326.46q3.964.31,7.926.631,6.162.51,12.328.987c-3.051-10.563-5.659-20.5-6.4-25.886L310.1,311.263C310.336,311.283,312.9,317.657,316.608,326.46Z" transform="translate(-239.024 -302.192)"/><path class="z" d="M272.384,325.757q9.906.648,19.809,1.343c4.831-6.911,8.941-12.356,11.162-14.344l-30.43,4.4-3.238,8.429Z" transform="translate(-231.715 -304.102)"/></g><path class="f" d="M275.344,130.312l-20.637,2.39s18.874,6.466,18.938,6.068S275.344,130.312,275.344,130.312Z" transform="translate(-212.861 -121.144)"/><path class="aa" d="M275.037,140.636,271.4,152.691l6.488,1.408Z" transform="translate(-215.88 -123.011)"/><path class="w" d="M290.222,125.787s-16.791-1.158-14.514,17.085c1.149,9.207,2.145,14.015,2.9,16.4a3.812,3.812,0,0,0,3.029,2.6c5.671.935,20.937,2.246,24.741-9.78,4.7-14.852-1.545-24.7-1.545-24.7Z" transform="translate(-216.62 -120.323)"/><path class="p" d="M278.721,158.538l6.089-2.447-4.4,6.142Z" transform="translate(-217.203 -125.805)"/><rect class="ab" width="123.413" height="84.777" transform="matrix(0.999, -0.05, 0.05, 0.999, 18.635, 85.059)"/><path class="ac" d="M231.5,316.682l123.262-6.109-63.644-37.552Z" transform="translate(-208.664 -146.95)"/><path class="i" d="M349.634,215.5l-123.261,6.109,57.634,51.8a9.521,9.521,0,0,0,13.4-.664Z" transform="translate(-207.737 -136.548)"/><path class="y" d="M308.977,150.079a24.311,24.311,0,0,0,2.746-8.412,42.248,42.248,0,0,0-2.855-3.792l-19.858-3.6s5.962,13.057,19.272,15.677C308.525,150.006,308.755,150.045,308.977,150.079Z" transform="translate(-219.064 -121.861)"/><path class="w" d="M296.8,165.227l9.026,17.734,8.316-5.309-11.3-16.765Z" transform="translate(-220.472 -126.673)"/><path class="q" d="M276.077,132.86c.416.061,24.488,4.285,32.964,7.971,2.144-6.831.36-13.731-1.311-15.4-3.784-4.911-12.427-7.182-20.319-6a9.348,9.348,0,0,0-.926.181C277.411,121.926,276.077,132.86,276.077,132.86Z" transform="translate(-216.725 -119.12)"/><path class="f" d="M314.023,134.982a3.712,3.712,0,0,0-1.436.732,1.983,1.983,0,0,0-.709,1.41,2.624,2.624,0,0,0,.663,1.6,7.294,7.294,0,0,0,3.585,2.456,22.682,22.682,0,0,0,.247-6.433A6.668,6.668,0,0,0,314.023,134.982Z" transform="translate(-223.199 -121.942)"/><path class="w" d="M301.44,250.99l-5.767-2.223-5.046,8.248c-.02.03-.028.054-.045.083a8.237,8.237,0,0,0-1.5.374c-1.476.511-2.548,1.283-2.4,1.723s1.472.383,2.948-.128a8.826,8.826,0,0,0,.913-.375,10.866,10.866,0,0,0-.876.928c-1.185,1.409-1.819,2.825-1.417,3.163s1.689-.529,2.874-1.938c.022-.026.04-.052.061-.078-.084.141-.168.282-.249.433-.874,1.62-1.207,3.136-.745,3.385s1.546-.862,2.419-2.481l.013-.027c-.318,1.8-.16,3.337.356,3.429.47.084,1.073-1.067,1.422-2.637.046,1.271.327,2.2.734,2.227.524.036,1.054-1.422,1.183-3.259,0-.019,0-.038,0-.057a2.7,2.7,0,0,0,.319-.637Z" transform="translate(-218.641 -142.564)"/><path class="w" d="M318.672,154.365c-2.456,2.638-5.95,3.378-7.8,1.652s-1.366-5.265,1.09-7.9,5.95-3.378,7.805-1.652S321.129,151.726,318.672,154.365Z" transform="translate(-222.813 -123.896)"/><path class="ad" d="M313.4,218.19l-11.808,32.725,45.082-34.188Z" transform="translate(-221.34 -136.77)"/><g transform="translate(74.082 45.639)"><path class="x" d="M323.874,192.276h0l-8.486-14.3a6.863,6.863,0,1,0-11.529,7.447l12.373,18.073-22.173,35.5,6.253,4.414,29.863-34.462a5.375,5.375,0,0,0,.424-6.483Z" transform="translate(-294.059 -174.834)"/><g transform="translate(2.222 0.222)"><path class="n" d="M324.756,201.129,308.92,175.1a6.861,6.861,0,0,0-2.005.877c-.048.031-.091.067-.138.1l15.983,26.264a4.163,4.163,0,0,1-.252,4.723L299.668,236.9a4.967,4.967,0,0,1,2.385.732l22.31-29.14A6.486,6.486,0,0,0,324.756,201.129Z" transform="translate(-297.296 -175.105)"/><path class="f" d="M303.833,253.142l.514-.594q-3.562-2.3-7.163-4.541l-.413.661Q300.319,250.877,303.833,253.142Z" transform="translate(-296.772 -188.288)"/></g></g></g></g></g></g></g></svg>