<svg width="380" height="284" viewBox="0 0 380 284" fill="none" xmlns="http://www.w3.org/2000/svg">
<path d="M380 249.624H0V249.814H380V249.624Z" fill="#E0E0E0"/>
<path d="M307.967 255.4H287.774V255.59H307.967V255.4Z" fill="#E0E0E0"/>
<path d="M338.641 259.2H321.237V259.39H338.641V259.2Z" fill="#E0E0E0"/>
<path d="M187.386 258.638H175.15V258.828H187.386V258.638Z" fill="#E0E0E0"/>
<path d="M170.772 258.638H125.104V258.828H170.772V258.638Z" fill="#E0E0E0"/>
<path d="M106.149 257.437H77.0945V257.627H106.149V257.437Z" fill="#E0E0E0"/>
<path d="M275.006 254.305H209.167V254.495H275.006V254.305Z" fill="#E0E0E0"/>
<path d="M68.4837 257.345H49.3469V257.535H68.4837V257.345Z" fill="#E0E0E0"/>
<path d="M180.12 215.728H33.3716C32.2219 215.726 31.1201 215.268 30.3079 214.454C29.4957 213.64 29.0395 212.538 29.0396 211.388V5.1014C29.0496 3.95838 29.5101 2.86547 30.3212 2.06005C31.1324 1.25463 32.2285 0.801763 33.3716 0.799805H180.12C181.271 0.799805 182.375 1.25701 183.189 2.07084C184.002 2.88468 184.46 3.98847 184.46 5.1394V211.388C184.46 212.539 184.002 213.643 183.189 214.457C182.375 215.271 181.271 215.728 180.12 215.728ZM33.3716 0.951805C32.2723 0.953819 31.2188 1.39189 30.4423 2.16988C29.6657 2.94786 29.2295 4.00218 29.2296 5.1014V211.388C29.2295 212.487 29.6657 213.542 30.4423 214.32C31.2188 215.098 32.2723 215.536 33.3716 215.538H180.12C181.22 215.536 182.274 215.098 183.052 214.32C183.83 213.542 184.268 212.488 184.27 211.388V5.1014C184.268 4.00148 183.83 2.94718 183.052 2.16941C182.274 1.39165 181.22 0.953814 180.12 0.951805H33.3716Z" fill="#E0E0E0"/>
<path d="M344.516 215.728H197.76C196.609 215.726 195.507 215.268 194.693 214.455C193.88 213.641 193.422 212.539 193.42 211.388V5.1014C193.432 3.95769 193.894 2.86478 194.707 2.05958C195.519 1.25437 196.616 0.801741 197.76 0.799805H344.516C345.657 0.80376 346.751 1.25751 347.561 2.06272C348.37 2.86792 348.83 3.9597 348.84 5.1014V211.388C348.84 212.536 348.385 213.638 347.574 214.451C346.764 215.265 345.664 215.724 344.516 215.728ZM197.76 0.951805C196.66 0.953814 195.605 1.39165 194.828 2.16941C194.05 2.94718 193.612 4.00148 193.61 5.1014V211.388C193.612 212.488 194.05 213.542 194.828 214.32C195.605 215.098 196.66 215.536 197.76 215.538H344.516C345.615 215.536 346.67 215.098 347.448 214.32C348.225 213.542 348.663 212.488 348.665 211.388V5.1014C348.663 4.00148 348.225 2.94718 347.448 2.16941C346.67 1.39165 345.615 0.953814 344.516 0.951805H197.76Z" fill="#E0E0E0"/>
<path d="M238.564 249.616H253.232V154.001H238.564V249.616Z" fill="#EBEBEB"/>
<path d="M244.923 221.629L247.198 220.537L227.699 179.931L225.424 181.023L244.923 221.629Z" fill="#EBEBEB"/>
<path d="M240.099 185.647C240.099 185.647 242.79 198.886 257.116 194.988C263.378 193.278 264.716 188.573 264.427 184.074C270.218 188.201 278.928 191.56 278.107 173.472C278.107 173.472 296.765 187.692 303.02 167.248C309.274 146.804 292.524 144.881 292.524 144.881C292.524 144.881 316.084 125.417 308.043 109.465C299.356 92.2813 284.24 101.166 284.24 101.166C284.24 101.166 287.364 78.3657 270.514 79.3613C268.389 79.493 266.386 80.3987 264.883 81.9073C259.114 78.8673 251.834 88.2001 251.834 88.2001C251.834 88.2001 250.382 76.7393 238.914 80.8737C233.905 82.6825 232.598 86.8777 232.613 90.8069C228.274 87.4781 221.593 84.9777 221.35 100.786C221.35 100.786 207.397 89.2565 201.453 107.489C195.51 125.721 208.582 126.565 208.582 126.565C208.582 126.565 189.081 144.805 194.606 158.386C200.549 173.016 212.846 164.466 212.846 164.466C212.846 164.466 209.844 181.33 219.534 182.866C219.209 184.557 219.408 186.308 220.104 187.883C220.801 189.459 221.962 190.784 223.432 191.682C231.169 196.211 240.099 185.647 240.099 185.647Z" fill="#EBEBEB"/>
<path d="M327.522 156.531V249.624H55.6321V156.197L172.725 140.343L327.522 156.531Z" fill="#FAFAFA"/>
<path d="M172.725 140.343L55.6321 156.197V249.624H172.725V140.343Z" fill="#EBEBEB"/>
<path d="M185.022 249.624H240.867V178.009H185.022V249.624Z" fill="#E0E0E0"/>
<path d="M238.237 249.624V180.426H187.667V249.624H238.237Z" fill="#EBEBEB"/>
<path d="M213.165 249.624V180.426H212.739V249.624H213.165Z" fill="#E0E0E0"/>
<path d="M338.056 159.921L172.756 142.639L45.1669 159.914L44.5513 155.399L172.687 138.048L172.961 138.079L338.534 155.392L338.056 159.921Z" fill="#E0E0E0"/>
<path d="M326.268 51.3477C330.676 41.8249 327.18 35.0381 316.388 35.0381C309.631 35.0381 301.249 37.7133 293.094 42.0529C292.167 39.5753 289.575 38.0933 285.395 38.0933C278.046 38.0933 267.915 42.6533 259.965 49.1513C258.043 47.7073 255.261 46.8257 251.681 46.6813C244.644 46.3925 236.124 49.0297 228.722 53.3161C227.841 52.4902 226.668 52.0474 225.462 52.0849C221.403 51.9177 215.916 54.5777 213.188 58.0205L212.716 58.6513H331.732C335.502 55.2769 331.36 51.5149 326.268 51.3477Z" fill="#FAFAFA"/>
<path d="M158.658 25.8797C158.357 25.8492 158.055 25.834 157.753 25.8341C158.034 22.7181 156.423 20.7269 152.973 20.7269C150.488 20.7269 147.432 21.7681 144.324 23.5237C145.213 17.4437 142.363 13.5449 135.911 13.5449C130.697 13.5449 124.108 16.1061 117.595 20.2709C117.025 17.8997 115.11 16.4709 111.887 16.4709C106.225 16.4709 98.2072 20.8637 91.7244 27.0653C90.326 25.6821 88.236 24.7853 85.4848 24.6865C80.0889 24.4129 73.3932 26.9665 67.4576 31.0477C67.1766 30.6663 66.8069 30.359 66.3806 30.1525C65.9542 29.9459 65.484 29.8463 65.0104 29.8621C62.0616 29.7101 57.9956 31.9825 55.6396 35.0149H163.4C165.931 30.4397 163.917 26.4117 158.658 25.8797Z" fill="#FAFAFA"/>
<path d="M49.4 249.624H37.8404C37.8404 249.624 30.7192 243.293 28.4012 234.804C27.3372 230.898 32.5888 228.192 35.7656 231.004C43.2136 237.532 49.4 249.624 49.4 249.624Z" fill="#FAFAFA"/>
<path d="M54.2791 249.624H42.7119C42.7119 249.624 36.0923 236.035 38.6535 226.14C38.8479 225.358 39.252 224.644 39.8223 224.075C40.3925 223.506 41.1073 223.104 41.8895 222.912C42.6716 222.719 43.4915 222.744 44.2605 222.984C45.0296 223.223 45.7187 223.668 46.2535 224.27C54.9783 233.899 54.2791 249.624 54.2791 249.624Z" fill="#FAFAFA"/>
<path d="M54.2944 249.624H61.7652C61.7652 249.624 66.4468 241.363 70.8852 231.217C74.9892 221.747 67.9972 217.795 63.6044 227.097C57.9804 238.931 54.2944 249.624 54.2944 249.624Z" fill="#FAFAFA"/>
<path d="M56.3389 249.624H67.9061C67.9061 249.624 79.5569 244.114 78.9033 233.664C78.7361 230.936 75.6125 229.157 72.8233 230.221C60.4353 234.994 56.3389 249.624 56.3389 249.624Z" fill="#FAFAFA"/>
<path d="M49.8409 249.624H61.4156C61.4156 249.624 64.9116 230.32 60.8 218.16C59.5612 214.527 55.1609 213.889 53.1317 217.05C45.5545 228.8 49.8409 249.624 49.8409 249.624Z" fill="#FAFAFA"/>
<path d="M144.605 166.267H83.752V228.671H144.605V166.267Z" fill="#E0E0E0"/>
<path d="M141.748 225.464V169.482H86.6096V225.464H141.748Z" fill="#FAFAFA"/>
<path d="M143.42 195.314H84.9299V199.624H143.42V195.314Z" fill="#E0E0E0"/>
<path d="M116.333 227.546V167.407H112.024V227.546H116.333Z" fill="#E0E0E0"/>
<path d="M327.522 228.671H258.514V167.399H327.522" fill="#E0E0E0"/>
<path d="M327.522 225.524V170.561H261.318V225.524H327.522Z" fill="#FAFAFA"/>
<path d="M221.174 163.669C222.251 159.128 219.444 154.573 214.902 153.495C210.361 152.417 205.806 155.225 204.728 159.766C203.65 164.308 206.458 168.863 210.999 169.941C215.541 171.018 220.096 168.211 221.174 163.669Z" fill="white"/>
<path d="M251.932 247.465H131.222V249.631H251.932V247.465Z" fill="#E0E0E0"/>
<path d="M190 283.946C271.383 283.946 337.356 280.094 337.356 275.342C337.356 270.591 271.383 266.739 190 266.739C108.617 266.739 42.6436 270.591 42.6436 275.342C42.6436 280.094 108.617 283.946 190 283.946Z" fill="#F5F5F5"/>
<path d="M120.536 90.4797C120.407 92.6457 120.156 94.6369 119.875 96.6965C119.593 98.7561 119.206 100.77 118.773 102.776C117.926 106.889 116.7 110.914 115.109 114.8L114.456 116.259L114.289 116.624L114.205 116.806C114.205 116.867 114.159 116.912 114.099 117.042C113.866 117.503 113.578 117.935 113.24 118.326C112.439 119.245 111.326 119.836 110.116 119.983C109.215 120.081 108.302 119.985 107.441 119.702C106.233 119.291 105.093 118.702 104.059 117.954C103.163 117.312 102.306 116.619 101.49 115.879C98.4579 113.05 95.7322 109.909 93.3582 106.508L95.8814 104.372C97.2874 105.695 98.7618 107.032 100.229 108.309C101.695 109.586 103.208 110.802 104.72 111.889C105.453 112.416 106.214 112.904 107 113.348C107.623 113.722 108.296 114.006 108.999 114.192C109.235 114.237 109.387 114.192 109.28 114.192C109.071 114.213 108.876 114.304 108.725 114.45C108.672 114.496 108.665 114.503 108.672 114.45L108.9 113.85L109.394 112.542C110.636 108.936 111.606 105.243 112.297 101.492C112.677 99.6073 112.943 97.6921 113.232 95.7769C113.521 93.8617 113.719 91.9009 113.886 90.0845L120.536 90.4797Z" fill="#EEC1BB"/>
<path d="M115.999 82.5458C113.308 83.2298 111.439 94.2878 111.439 94.2878L118.841 99.3266C118.841 99.3266 125.932 88.2002 123.88 85.2134C121.828 82.2266 119.913 81.5502 115.999 82.5458Z" fill="#407BFF"/>
<path opacity="0.3" d="M115.999 82.5458C113.308 83.2298 111.439 94.2878 111.439 94.2878L118.841 99.3266C118.841 99.3266 125.932 88.2002 123.88 85.2134C121.828 82.2266 119.913 81.5502 115.999 82.5458Z" fill="black"/>
<path d="M116.234 85.0156L114.175 96.1648L118.332 98.9844L116.234 85.0156Z" fill="#407BFF"/>
<path opacity="0.5" d="M116.234 85.0156L114.175 96.1648L118.332 98.9844L116.234 85.0156Z" fill="black"/>
<path d="M95.9575 103.94L92.4311 98.3765L90.4399 104.7C90.4399 104.7 93.3279 107.74 95.9423 106.98L95.9575 103.94Z" fill="#EEC1BB"/>
<path d="M87.2707 96.5371L85.8799 101.918L90.4323 104.7L92.4311 98.3763L87.2707 96.5371Z" fill="#EEC1BB"/>
<path d="M130.538 268.685H124.017L123.576 253.583H130.097L130.538 268.685Z" fill="#EEC1BB"/>
<path d="M188.069 238.399L183.099 242.617L171.729 232.463L176.7 228.245L188.069 238.399Z" fill="#EEC1BB"/>
<path d="M181.739 242.115L186.557 236.598C186.637 236.5 186.751 236.436 186.876 236.418C187.001 236.4 187.129 236.429 187.233 236.499L192.151 239.683C192.267 239.768 192.365 239.875 192.438 239.999C192.511 240.123 192.558 240.261 192.575 240.403C192.592 240.546 192.579 240.691 192.538 240.829C192.496 240.966 192.426 241.094 192.333 241.203C190.623 243.096 189.703 243.924 187.583 246.348C186.276 247.868 184.543 250.148 182.727 252.216C180.91 254.283 178.79 252.611 179.36 251.592C181.891 247.032 181.283 245.414 181.321 243.164C181.338 242.777 181.485 242.408 181.739 242.115Z" fill="#263238"/>
<path d="M123.789 267.925H131.115C131.242 267.923 131.365 267.968 131.461 268.051C131.558 268.133 131.621 268.248 131.639 268.373L132.468 274.172C132.485 274.318 132.471 274.467 132.426 274.607C132.382 274.747 132.308 274.876 132.209 274.986C132.111 275.095 131.99 275.182 131.855 275.241C131.72 275.3 131.574 275.329 131.427 275.327C128.873 275.282 127.627 275.137 124.419 275.137C122.436 275.137 118.339 275.342 115.603 275.342C112.867 275.342 112.715 272.637 113.855 272.386C118.97 271.292 120.977 269.772 122.702 268.328C123.006 268.072 123.391 267.929 123.789 267.925Z" fill="#263238"/>
<path d="M123.576 253.591L123.804 261.374H130.325L130.104 253.591H123.576Z" fill="#DB9792"/>
<path d="M176.7 228.245L171.729 232.471L177.597 237.7L182.567 233.474L176.7 228.245Z" fill="#DB9792"/>
<path d="M120.673 53.1108C125.073 46.5672 135.622 44.3936 142.188 50.2608C150.548 57.7316 145.479 72.3768 158.331 68.5008C171.182 64.6248 183.221 65.552 183.289 72.202C183.357 78.852 191.208 70.4084 200.45 77.2332C219.161 91.0424 204.85 126.557 188.396 112.991C177.604 104.099 173.827 100.284 168.446 107.063C163.065 113.842 143.906 110.643 142.188 102.093C140.471 93.5428 128.25 97.7 121.6 90.2292C114.95 82.7584 111.287 67.0568 120.673 53.1108Z" fill="#263238"/>
<path d="M115.999 82.5455C115.999 82.5455 112.89 83.6399 119.115 121.898H145.593C145.145 111.121 145.137 104.479 150.29 82.3783C146.581 81.6171 142.822 81.1243 139.042 80.9039C135.039 80.6147 131.021 80.6147 127.019 80.9039C121.851 81.3599 115.999 82.5455 115.999 82.5455Z" fill="#407BFF"/>
<path opacity="0.3" d="M115.999 82.5455C115.999 82.5455 112.89 83.6399 119.115 121.898H145.593C145.145 111.121 145.137 104.479 150.29 82.3783C146.581 81.6171 142.822 81.1243 139.042 80.9039C135.039 80.6147 131.021 80.6147 127.019 80.9039C121.851 81.3599 115.999 82.5455 115.999 82.5455Z" fill="black"/>
<path d="M137.849 67.3379C137.089 71.2063 136.329 78.2971 139.042 80.8811C139.042 80.8811 137.986 84.8027 130.796 84.8027C122.892 84.8027 126.996 80.8811 126.996 80.8811C131.305 79.8475 131.199 76.6479 130.446 73.6383L137.849 67.3379Z" fill="#EEC1BB"/>
<path d="M134.839 69.9067L130.469 73.6383C130.659 74.3371 130.784 75.0521 130.841 75.7739C132.491 75.5307 134.755 73.7219 134.93 71.9739C135.024 71.285 134.993 70.5847 134.839 69.9067Z" fill="#DB9792"/>
<path d="M141.93 60.2396C140.41 66.5324 139.908 69.2304 136.116 71.9208C130.416 75.9792 123.021 72.734 122.626 66.122C122.269 60.1636 124.815 50.8764 131.488 49.4476C132.957 49.1252 134.486 49.184 135.926 49.6186C137.367 50.0532 138.673 50.8491 139.719 51.9306C140.766 53.0121 141.518 54.3433 141.905 55.7976C142.292 57.2519 142.301 58.7811 141.93 60.2396Z" fill="#EEC1BB"/>
<path d="M119.115 121.898C119.115 121.898 113.97 172.127 114.395 192.008C114.844 212.696 122.421 259.861 122.421 259.861H131.237C131.237 259.861 129.838 213.904 130.621 193.589C131.472 171.45 138.502 121.898 138.502 121.898H119.115Z" fill="#407BFF"/>
<path opacity="0.5" d="M119.115 121.898C119.115 121.898 113.97 172.127 114.395 192.008C114.844 212.696 122.421 259.861 122.421 259.861H131.237C131.237 259.861 129.838 213.904 130.621 193.589C131.472 171.45 138.502 121.898 138.502 121.898H119.115Z" fill="black"/>
<path d="M131.997 260.18H121.653L120.893 256.882L132.483 256.479L131.997 260.18Z" fill="#407BFF"/>
<path opacity="0.3" d="M131.997 260.18H121.653L120.893 256.882L132.483 256.479L131.997 260.18Z" fill="white"/>
<path d="M130.53 134.401C124.032 147.48 129.23 171.352 131.526 180.229C132.711 166.898 134.695 150.589 136.245 138.619C135.28 131.847 133.532 128.366 130.53 134.401Z" fill="#407BFF"/>
<path opacity="0.6" d="M130.53 134.401C124.032 147.48 129.23 171.352 131.526 180.229C132.711 166.898 134.695 150.589 136.245 138.619C135.28 131.847 133.532 128.366 130.53 134.401Z" fill="black"/>
<path d="M126.107 121.898C126.107 121.898 132.103 174.118 136.633 190.884C142.013 210.788 175.393 237.57 175.393 237.57L182.164 231.817C182.164 231.817 157.951 202.717 153.839 192.236C145.061 169.854 152.577 136.506 145.563 121.898H126.107Z" fill="#407BFF"/>
<path opacity="0.5" d="M126.107 121.898C126.107 121.898 132.103 174.118 136.633 190.884C142.013 210.788 175.393 237.57 175.393 237.57L182.164 231.817C182.164 231.817 157.951 202.717 153.839 192.236C145.061 169.854 152.577 136.506 145.563 121.898H126.107Z" fill="black"/>
<path d="M183.281 231.506L174.868 238.65L171.729 236.765L181.237 227.918L183.281 231.506Z" fill="#407BFF"/>
<path opacity="0.3" d="M183.281 231.506L174.868 238.65L171.729 236.765L181.237 227.918L183.281 231.506Z" fill="white"/>
<path d="M131.959 60.296C132.051 59.7794 131.85 59.3119 131.511 59.2519C131.172 59.1919 130.823 59.5621 130.732 60.0787C130.64 60.5953 130.841 61.0628 131.18 61.1228C131.519 61.1828 131.868 60.8126 131.959 60.296Z" fill="#263238"/>
<path d="M126.114 59.2745C126.023 59.7913 125.674 60.1637 125.354 60.1029C125.035 60.0421 124.815 59.5709 124.906 59.0541C124.997 58.5373 125.347 58.1649 125.666 58.2257C125.985 58.2865 126.206 58.7577 126.114 59.2745Z" fill="#263238"/>
<path d="M125.81 58.2788L124.632 57.7012C124.632 57.7012 125.096 58.788 125.81 58.2788Z" fill="#263238"/>
<path d="M127.505 60.437C126.834 61.5362 126.016 62.5385 125.073 63.4162C125.305 63.65 125.584 63.8309 125.893 63.9463C126.201 64.0618 126.531 64.1091 126.859 64.085L127.505 60.437Z" fill="#D4827D"/>
<path d="M129.2 66.5322C128.904 66.533 128.609 66.505 128.318 66.4486C128.279 66.4412 128.245 66.4187 128.222 66.386C128.199 66.3533 128.19 66.313 128.197 66.2738C128.204 66.2341 128.226 66.1988 128.259 66.1748C128.291 66.1509 128.331 66.14 128.372 66.1446C129.014 66.2719 129.677 66.2468 130.308 66.0712C130.939 65.8957 131.52 65.5746 132.004 65.1338C132.033 65.1059 132.071 65.0903 132.111 65.0903C132.151 65.0903 132.189 65.1059 132.217 65.1338C132.232 65.148 132.244 65.1651 132.252 65.184C132.26 65.203 132.264 65.2234 132.264 65.244C132.264 65.2646 132.26 65.285 132.252 65.3039C132.244 65.3229 132.232 65.34 132.217 65.3542C131.404 66.1257 130.321 66.5484 129.2 66.5322Z" fill="#263238"/>
<path d="M131.746 48.9155C128.835 50.5875 136.017 66.3955 141.269 64.1763C146.52 61.9571 144.818 53.1335 142.219 50.9143C139.619 48.6951 135.781 46.6051 131.746 48.9155Z" fill="#263238"/>
<path d="M130.112 48.1708C130.112 48.1708 126.608 48.68 124.267 53.05C121.927 57.42 135.379 48.7788 133.479 48.1708C132.386 47.8063 131.205 47.8063 130.112 48.1708Z" fill="#263238"/>
<path d="M142.196 64.9821C141.958 65.5547 141.61 66.0746 141.17 66.5116C140.73 66.9486 140.209 67.2941 139.635 67.5281C138.115 68.1513 137.149 66.8213 137.423 65.2481C137.674 63.8573 138.768 61.8585 140.387 61.8965C140.743 61.9097 141.09 62.0125 141.397 62.1955C141.703 62.3784 141.957 62.6356 142.138 62.9432C142.318 63.2507 142.418 63.5988 142.428 63.9552C142.438 64.3116 142.358 64.6648 142.196 64.9821Z" fill="#EEC1BB"/>
<path d="M133.57 56.9032C133.487 56.9024 133.408 56.8697 133.35 56.812C133.092 56.5211 132.769 56.2962 132.406 56.1561C132.044 56.0159 131.653 55.9646 131.267 56.0064C131.187 56.0197 131.104 56.0009 131.037 55.954C130.97 55.9071 130.925 55.8358 130.91 55.7556C130.902 55.7161 130.902 55.6756 130.911 55.6362C130.919 55.5968 130.934 55.5595 130.957 55.5262C130.98 55.493 131.009 55.4646 131.042 55.4427C131.076 55.4207 131.114 55.4057 131.153 55.3984C131.641 55.3369 132.137 55.3947 132.597 55.5667C133.058 55.7388 133.47 56.0201 133.798 56.3864C133.854 56.4445 133.886 56.5222 133.886 56.603C133.886 56.6838 133.854 56.7615 133.798 56.8196C133.768 56.8492 133.733 56.8721 133.693 56.8865C133.654 56.9009 133.612 56.9066 133.57 56.9032Z" fill="#263238"/>
<path d="M123.986 56.1129C123.947 56.1128 123.907 56.1046 123.871 56.089C123.834 56.0733 123.801 56.0504 123.774 56.0217C123.717 55.9636 123.686 55.886 123.686 55.8051C123.686 55.7243 123.717 55.6466 123.774 55.5885C124.102 55.2236 124.515 54.9438 124.975 54.773C125.436 54.6023 125.931 54.5457 126.418 54.6081C126.491 54.6311 126.553 54.6799 126.592 54.7452C126.631 54.8105 126.645 54.8878 126.631 54.9626C126.617 55.0374 126.576 55.1045 126.516 55.1512C126.455 55.1979 126.38 55.221 126.304 55.2161C125.919 55.1753 125.529 55.2263 125.167 55.365C124.805 55.5037 124.481 55.7262 124.222 56.0141C124.191 56.0456 124.155 56.0705 124.114 56.0875C124.074 56.1045 124.03 56.1131 123.986 56.1129Z" fill="#263238"/>
<path d="M153.148 89.3247C154.574 92.8012 155.81 96.3532 156.849 99.9647C157.941 103.623 158.747 107.361 159.258 111.144C159.357 112.125 159.471 113.09 159.501 114.108V114.868C159.536 115.378 159.498 115.89 159.387 116.388C159.283 116.806 159.117 117.206 158.893 117.574C158.633 117.994 158.295 118.36 157.898 118.653C157.292 119.088 156.58 119.35 155.838 119.413C155.387 119.457 154.933 119.444 154.485 119.375C154.147 119.329 153.811 119.26 153.482 119.17C152.929 119.016 152.386 118.828 151.856 118.608C150.925 118.212 150.019 117.76 149.142 117.255C145.88 115.337 142.8 113.127 139.939 110.65L141.808 107.922C145.008 109.541 148.261 111.228 151.445 112.528C152.205 112.854 153.034 113.136 153.763 113.356C154.09 113.455 154.422 113.533 154.759 113.592C154.875 113.601 154.992 113.601 155.108 113.592C155.184 113.592 155.222 113.592 155.108 113.592C154.83 113.62 154.567 113.729 154.348 113.903C153.977 114.186 153.71 114.584 153.588 115.036C153.512 115.286 153.543 115.499 153.512 115.165L153.444 114.549C153.376 113.736 153.224 112.9 153.087 112.064C152.783 110.377 152.418 108.682 151.954 106.987C151.491 105.292 151.027 103.59 150.503 101.895C149.416 98.5283 148.223 95.0931 146.976 91.8403L153.148 89.3247Z" fill="#EEC1BB"/>
<path d="M150.29 82.3557C152.942 83.1689 156.127 92.3041 156.127 92.3041L145.836 99.6609C145.836 99.6609 142.082 92.0609 143.191 88.6029C144.354 85.0309 147.257 81.4361 150.29 82.3557Z" fill="#407BFF"/>
<path opacity="0.3" d="M150.29 82.3557C152.942 83.1689 156.127 92.3041 156.127 92.3041L145.836 99.6609C145.836 99.6609 142.082 92.0609 143.191 88.6029C144.354 85.0309 147.257 81.4361 150.29 82.3557Z" fill="black"/>
<path d="M179.96 245.262C179.826 245.257 179.694 245.223 179.574 245.161C179.455 245.099 179.35 245.012 179.269 244.904C179.204 244.837 179.158 244.754 179.137 244.663C179.115 244.572 179.119 244.477 179.147 244.388C179.383 243.59 181.648 242.944 181.906 242.868C181.935 242.861 181.965 242.862 181.993 242.871C182.022 242.881 182.047 242.898 182.066 242.921C182.082 242.946 182.091 242.975 182.091 243.004C182.091 243.034 182.082 243.063 182.066 243.088C181.655 243.848 180.857 245.163 180.029 245.254L179.96 245.262ZM181.632 243.278C180.736 243.559 179.565 244.038 179.444 244.479C179.428 244.518 179.425 244.562 179.436 244.603C179.447 244.644 179.471 244.68 179.504 244.707C179.563 244.788 179.641 244.853 179.731 244.896C179.822 244.938 179.921 244.957 180.021 244.95C180.462 244.897 181.055 244.281 181.64 243.278H181.632Z" fill="#407BFF"/>
<path d="M180.918 243.301C180.244 243.368 179.569 243.181 179.025 242.776C178.95 242.68 178.908 242.561 178.908 242.438C178.908 242.316 178.95 242.196 179.025 242.1C179.088 241.999 179.174 241.914 179.276 241.852C179.377 241.79 179.492 241.752 179.611 241.743C180.545 241.614 181.967 242.852 182.027 242.906C182.047 242.924 182.062 242.946 182.072 242.971C182.081 242.996 182.084 243.023 182.081 243.05C182.074 243.077 182.061 243.101 182.042 243.121C182.024 243.141 182 243.156 181.974 243.164C181.631 243.261 181.275 243.307 180.918 243.301ZM179.77 242.039H179.671C179.597 242.048 179.525 242.073 179.46 242.113C179.396 242.152 179.341 242.205 179.299 242.267C179.193 242.427 179.231 242.518 179.299 242.579C179.573 242.944 180.857 243.08 181.64 242.936C181.109 242.474 180.463 242.164 179.77 242.039Z" fill="#407BFF"/>
<path d="M121.342 269.08C120.785 269.13 120.228 268.991 119.761 268.685C119.657 268.59 119.577 268.471 119.528 268.339C119.479 268.207 119.462 268.065 119.48 267.925C119.484 267.839 119.512 267.756 119.558 267.684C119.605 267.612 119.669 267.554 119.746 267.514C120.544 267.074 123.143 268.404 123.439 268.556C123.468 268.57 123.491 268.594 123.504 268.622C123.518 268.651 123.522 268.684 123.515 268.715C123.511 268.747 123.497 268.776 123.475 268.799C123.453 268.823 123.425 268.838 123.394 268.844C122.718 268.985 122.031 269.064 121.342 269.08ZM120.179 267.735C120.08 267.73 119.981 267.749 119.89 267.788C119.861 267.806 119.837 267.83 119.82 267.859C119.802 267.888 119.793 267.921 119.791 267.955C119.776 268.046 119.784 268.138 119.815 268.225C119.845 268.311 119.897 268.389 119.966 268.449C120.361 268.806 121.433 268.867 122.884 268.632C122.041 268.175 121.126 267.866 120.179 267.72V267.735Z" fill="#407BFF"/>
<path d="M123.363 268.837C123.343 268.845 123.322 268.845 123.302 268.837C122.542 268.487 120.984 267.081 121.106 266.344C121.106 266.169 121.258 265.949 121.683 265.911C121.837 265.891 121.994 265.905 122.142 265.951C122.29 265.997 122.426 266.074 122.542 266.177C123.363 266.853 123.515 268.609 123.515 268.685C123.519 268.711 123.516 268.738 123.505 268.762C123.494 268.787 123.477 268.807 123.454 268.822C123.426 268.837 123.394 268.842 123.363 268.837ZM121.843 266.192H121.752C121.463 266.192 121.448 266.337 121.44 266.367C121.372 266.815 122.413 267.887 123.203 268.404C123.145 267.662 122.855 266.958 122.375 266.39C122.299 266.321 122.211 266.268 122.114 266.234C122.017 266.2 121.915 266.186 121.813 266.192H121.843Z" fill="#407BFF"/>
<path d="M145.988 120.348L146.665 122.719C146.756 122.902 146.543 123.092 146.232 123.092H118.978C118.742 123.092 118.545 122.97 118.53 122.826L118.286 120.454C118.286 120.287 118.476 120.15 118.742 120.15H145.555C145.638 120.143 145.722 120.157 145.798 120.192C145.874 120.226 145.94 120.28 145.988 120.348Z" fill="#407BFF"/>
<path opacity="0.6" d="M145.988 120.348L146.665 122.719C146.756 122.902 146.543 123.092 146.232 123.092H118.978C118.742 123.092 118.545 122.97 118.53 122.826L118.286 120.454C118.286 120.287 118.476 120.15 118.742 120.15H145.555C145.638 120.143 145.722 120.157 145.798 120.192C145.874 120.226 145.94 120.28 145.988 120.348Z" fill="white"/>
<path d="M142.386 123.342H143.146C143.283 123.342 143.397 123.274 143.389 123.183L143.047 120.105C143.047 120.014 142.91 119.938 142.773 119.938H142.051C141.907 119.938 141.801 120.014 141.808 120.105L142.12 123.16C142.12 123.274 142.241 123.342 142.386 123.342Z" fill="#407BFF"/>
<path opacity="0.5" d="M142.386 123.342H143.146C143.283 123.342 143.397 123.274 143.389 123.183L143.047 120.105C143.047 120.014 142.91 119.938 142.773 119.938H142.051C141.907 119.938 141.801 120.014 141.808 120.105L142.12 123.16C142.12 123.274 142.241 123.342 142.386 123.342Z" fill="black"/>
<path d="M121 123.342H121.714C121.858 123.342 121.972 123.274 121.957 123.183L121.6 120.12C121.6 120.029 121.463 119.953 121.319 119.953H120.604C120.46 119.953 120.354 120.029 120.361 120.12L120.696 123.198C120.734 123.274 120.84 123.342 121 123.342Z" fill="#407BFF"/>
<path opacity="0.5" d="M121 123.342H121.714C121.858 123.342 121.972 123.274 121.957 123.183L121.6 120.12C121.6 120.029 121.463 119.953 121.319 119.953H120.604C120.46 119.953 120.354 120.029 120.361 120.12L120.696 123.198C120.734 123.274 120.84 123.342 121 123.342Z" fill="black"/>
<path d="M131.693 123.342H132.415C132.551 123.342 132.665 123.274 132.65 123.183L132.316 120.12C132.316 120.029 132.179 119.953 132.035 119.953H131.32C131.176 119.953 131.069 120.029 131.077 120.12L131.411 123.198C131.427 123.274 131.548 123.342 131.693 123.342Z" fill="#407BFF"/>
<path opacity="0.5" d="M131.693 123.342H132.415C132.551 123.342 132.665 123.274 132.65 123.183L132.316 120.12C132.316 120.029 132.179 119.953 132.035 119.953H131.32C131.176 119.953 131.069 120.029 131.077 120.12L131.411 123.198C131.427 123.274 131.548 123.342 131.693 123.342Z" fill="black"/>
<path d="M142.705 108.621L140.516 101.926L137.02 107.565C137.02 107.565 139.08 111.213 141.785 111.16L142.705 108.621Z" fill="#EEC1BB"/>
<path d="M138.191 94.2801L136.473 116.503C136.426 117.082 136.152 117.619 135.711 117.996C135.269 118.373 134.696 118.561 134.117 118.517L91.8154 115.256C91.2358 115.21 90.6981 114.936 90.3194 114.494C89.9408 114.053 89.7519 113.48 89.7938 112.9L91.5114 90.6777C91.5375 90.3818 91.6238 90.0944 91.765 89.833C91.9061 89.5716 92.0991 89.3418 92.3322 89.1577C92.7625 88.8161 93.3039 88.6455 93.8522 88.6789L136.154 91.9469C136.734 91.9916 137.273 92.2648 137.652 92.7066C138.031 93.1483 138.219 93.7225 138.175 94.3029L138.191 94.2801Z" fill="#407BFF"/>
<path opacity="0.8" d="M138.191 94.2801L136.473 116.503C136.426 117.082 136.152 117.619 135.711 117.996C135.269 118.373 134.696 118.561 134.117 118.517L91.8154 115.256C91.2358 115.21 90.6981 114.936 90.3194 114.494C89.9408 114.053 89.7519 113.48 89.7938 112.9L91.5114 90.6777C91.5375 90.3818 91.6238 90.0944 91.765 89.833C91.9061 89.5716 92.0991 89.3418 92.3322 89.1577C92.7625 88.8161 93.3039 88.6455 93.8522 88.6789L136.154 91.9469C136.734 91.9916 137.273 92.2648 137.652 92.7066C138.031 93.1483 138.219 93.7225 138.175 94.3029L138.191 94.2801Z" fill="white"/>
<path d="M137.613 92.5928L119.495 104.988C117.818 106.139 115.799 106.684 113.771 106.534C111.743 106.383 109.826 105.546 108.338 104.16L92.3323 89.1348C92.7625 88.7931 93.3039 88.6226 93.8523 88.656L136.154 91.924C136.706 91.9585 137.226 92.1968 137.613 92.5928Z" fill="#407BFF"/>
<path opacity="0.6" d="M137.613 92.5928L119.495 104.988C117.818 106.139 115.799 106.684 113.771 106.534C111.743 106.383 109.826 105.546 108.338 104.16L92.3323 89.1348C92.7625 88.7931 93.3039 88.6226 93.8523 88.656L136.154 91.924C136.706 91.9585 137.226 92.1968 137.613 92.5928Z" fill="white"/>
<path d="M135.964 98.8779L133.296 103.75L137.613 108.454L140.516 101.926L135.964 98.8779Z" fill="#EEC1BB"/>
<path d="M131.67 59.3198L130.484 58.7422C130.484 58.7422 130.956 59.8214 131.67 59.3198Z" fill="#263238"/>
<path d="M253.3 149H243.983V275.342H253.3V149Z" fill="#407BFF"/>
<path opacity="0.6" d="M253.3 149H243.983V275.342H253.3V149Z" fill="white"/>
<path d="M243.983 149H253.3V158.318L243.983 154.89V149Z" fill="#407BFF"/>
<path opacity="0.4" d="M243.983 149H253.3V158.318L243.983 154.89V149Z" fill="white"/>
<path d="M233.928 118.691C233.983 115.729 233.446 112.785 232.351 110.032C231.255 107.279 229.621 104.773 227.546 102.658C225.47 100.544 222.994 98.8644 220.262 97.7179C217.529 96.5715 214.596 95.981 211.633 95.981C208.67 95.981 205.737 96.5715 203.005 97.7179C200.273 98.8644 197.797 100.544 195.721 102.658C193.645 104.773 192.012 107.279 190.916 110.032C189.82 112.785 189.284 115.729 189.339 118.691V149H233.928V118.691Z" fill="#407BFF"/>
<path opacity="0.3" d="M233.928 118.691C233.983 115.729 233.446 112.785 232.351 110.032C231.255 107.279 229.621 104.773 227.546 102.658C225.47 100.544 222.994 98.8644 220.262 97.7179C217.529 96.5715 214.596 95.981 211.633 95.981C208.67 95.981 205.737 96.5715 203.005 97.7179C200.273 98.8644 197.797 100.544 195.721 102.658C193.645 104.773 192.012 107.279 190.916 110.032C189.82 112.785 189.284 115.729 189.339 118.691V149H233.928V118.691Z" fill="black"/>
<path d="M185.113 162.003C182.134 174.315 189.673 184.294 202.015 184.294C214.358 184.294 226.723 174.315 229.702 162.003L232.803 149.182C232.846 149.009 232.849 148.829 232.811 148.655C232.774 148.481 232.697 148.318 232.587 148.178C232.477 148.038 232.337 147.925 232.177 147.847C232.017 147.77 231.841 147.73 231.663 147.73H189.491C189.227 147.732 188.971 147.822 188.764 147.986C188.558 148.15 188.412 148.378 188.351 148.635L185.113 162.003Z" fill="#407BFF"/>
<path opacity="0.4" d="M185.113 162.003C182.134 174.315 189.673 184.294 202.015 184.294C214.358 184.294 226.723 174.315 229.702 162.003L232.803 149.182C232.846 149.009 232.849 148.829 232.811 148.655C232.774 148.481 232.697 148.318 232.587 148.178C232.477 148.038 232.337 147.925 232.177 147.847C232.017 147.77 231.841 147.73 231.663 147.73H189.491C189.227 147.732 188.971 147.822 188.764 147.986C188.558 148.15 188.412 148.378 188.351 148.635L185.113 162.003Z" fill="white"/>
<path d="M183.32 162.003C180.34 174.315 187.88 184.294 200.222 184.294C212.564 184.294 224.93 174.315 227.909 162.003L231.04 149.182C231.083 149.009 231.085 148.829 231.048 148.655C231.011 148.481 230.934 148.318 230.824 148.178C230.714 148.038 230.574 147.925 230.414 147.847C230.254 147.77 230.078 147.73 229.9 147.73H187.72C187.456 147.732 187.2 147.822 186.994 147.986C186.787 148.15 186.641 148.378 186.58 148.635L183.32 162.003Z" fill="#407BFF"/>
<path opacity="0.5" d="M183.32 162.003C180.34 174.315 187.88 184.294 200.222 184.294C212.564 184.294 224.93 174.315 227.909 162.003L231.04 149.182C231.083 149.009 231.085 148.829 231.048 148.655C231.011 148.481 230.934 148.318 230.824 148.178C230.714 148.038 230.574 147.925 230.414 147.847C230.254 147.77 230.078 147.73 229.9 147.73H187.72C187.456 147.732 187.2 147.822 186.994 147.986C186.787 148.15 186.641 148.378 186.58 148.635L183.32 162.003Z" fill="white"/>
<path d="M286.398 118.683V149H233.958V118.683C233.956 112.772 231.607 107.104 227.427 102.924C223.247 98.7437 217.579 96.3946 211.667 96.3926H264.145C270.057 96.3946 275.725 98.7437 279.905 102.924C284.085 107.104 286.434 112.772 286.436 118.683H286.398Z" fill="#407BFF"/>
<path opacity="0.5" d="M286.398 118.683V149H233.958V118.683C233.956 112.772 231.607 107.104 227.427 102.924C223.247 98.7437 217.579 96.3946 211.667 96.3926H264.145C270.057 96.3946 275.725 98.7437 279.905 102.924C284.085 107.104 286.434 112.772 286.436 118.683H286.398Z" fill="white"/>
<path d="M286.398 118.683V126.793H233.958V118.683C233.968 113.726 232.315 108.909 229.261 105.003H281.739C284.779 108.914 286.419 113.731 286.398 118.683Z" fill="#407BFF"/>
<path opacity="0.7" d="M286.398 118.683V126.793H233.958V118.683C233.968 113.726 232.315 108.909 229.261 105.003H281.739C284.779 108.914 286.419 113.731 286.398 118.683Z" fill="white"/>
<path d="M241.231 130.699V85.8592C241.231 85.4594 241.317 85.0642 241.484 84.7012C241.651 84.3381 241.896 84.0159 242.2 83.7569C242.505 83.4979 242.862 83.3084 243.248 83.2016C243.633 83.0948 244.037 83.0732 244.431 83.1384L255.177 84.9167C255.563 84.98 255.913 85.1785 256.165 85.4765C256.417 85.7746 256.555 86.1528 256.553 86.5432V89.3247C256.553 89.7621 256.379 90.1816 256.07 90.4909C255.761 90.8002 255.341 90.9739 254.904 90.9739H244.651V130.684C244.651 131.137 244.471 131.572 244.151 131.893C243.83 132.214 243.395 132.394 242.941 132.394C242.491 132.394 242.058 132.216 241.738 131.898C241.417 131.581 241.235 131.15 241.231 130.699Z" fill="#407BFF"/>
<path opacity="0.3" d="M241.231 130.699V85.8592C241.231 85.4594 241.317 85.0642 241.484 84.7012C241.651 84.3381 241.896 84.0159 242.2 83.7569C242.505 83.4979 242.862 83.3084 243.248 83.2016C243.633 83.0948 244.037 83.0732 244.431 83.1384L255.177 84.9167C255.563 84.98 255.913 85.1785 256.165 85.4765C256.417 85.7746 256.555 86.1528 256.553 86.5432V89.3247C256.553 89.7621 256.379 90.1816 256.07 90.4909C255.761 90.8002 255.341 90.9739 254.904 90.9739H244.651V130.684C244.651 131.137 244.471 131.572 244.151 131.893C243.83 132.214 243.395 132.394 242.941 132.394C242.491 132.394 242.058 132.216 241.738 131.898C241.417 131.581 241.235 131.15 241.231 130.699Z" fill="black"/>
<path d="M211.629 102.313V124.596C211.627 125.177 211.396 125.733 210.987 126.145C210.577 126.556 210.021 126.789 209.441 126.793H167.01C166.429 126.789 165.874 126.556 165.464 126.145C165.054 125.733 164.823 125.177 164.821 124.596V102.313C164.823 101.733 165.054 101.176 165.464 100.765C165.874 100.354 166.429 100.121 167.01 100.117H209.441C210.021 100.121 210.577 100.354 210.987 100.765C211.396 101.176 211.627 101.733 211.629 102.313Z" fill="#407BFF"/>
<path opacity="0.8" d="M211.629 102.313V124.596C211.627 125.177 211.396 125.733 210.987 126.145C210.577 126.556 210.021 126.789 209.441 126.793H167.01C166.429 126.789 165.874 126.556 165.464 126.145C165.054 125.733 164.823 125.177 164.821 124.596V102.313C164.823 101.733 165.054 101.176 165.464 100.765C165.874 100.354 166.429 100.121 167.01 100.117H209.441C210.021 100.121 210.577 100.354 210.987 100.765C211.396 101.176 211.627 101.733 211.629 102.313Z" fill="white"/>
<path d="M210.93 100.71L193.8 114.458C192.212 115.73 190.238 116.424 188.203 116.424C186.168 116.424 184.193 115.73 182.605 114.458L165.498 100.71C165.909 100.324 166.454 100.112 167.018 100.117H209.448C209.999 100.122 210.528 100.333 210.93 100.71Z" fill="#407BFF"/>
<path opacity="0.6" d="M210.93 100.71L193.8 114.458C192.212 115.73 190.238 116.424 188.203 116.424C186.168 116.424 184.193 115.73 182.605 114.458L165.498 100.71C165.909 100.324 166.454 100.112 167.018 100.117H209.448C209.999 100.122 210.528 100.333 210.93 100.71Z" fill="white"/>
<path d="M179.117 135.776V158.067C179.117 158.648 178.886 159.206 178.476 159.617C178.066 160.029 177.509 160.261 176.928 160.263H134.52C133.939 160.259 133.384 160.026 132.974 159.615C132.564 159.204 132.333 158.648 132.331 158.067V135.776C132.331 135.196 132.562 134.639 132.972 134.228C133.383 133.818 133.939 133.587 134.52 133.587H176.928C177.508 133.587 178.065 133.818 178.476 134.228C178.886 134.639 179.117 135.196 179.117 135.776Z" fill="#407BFF"/>
<path opacity="0.8" d="M179.117 135.776V158.067C179.117 158.648 178.886 159.206 178.476 159.617C178.066 160.029 177.509 160.261 176.928 160.263H134.52C133.939 160.259 133.384 160.026 132.974 159.615C132.564 159.204 132.333 158.648 132.331 158.067V135.776C132.331 135.196 132.562 134.639 132.972 134.228C133.383 133.818 133.939 133.587 134.52 133.587H176.928C177.508 133.587 178.065 133.818 178.476 134.228C178.886 134.639 179.117 135.196 179.117 135.776Z" fill="white"/>
<path d="M178.418 134.172L161.31 147.921C159.724 149.197 157.749 149.893 155.713 149.893C153.677 149.893 151.702 149.197 150.115 147.921L133 134.172C133.413 133.789 133.957 133.579 134.52 133.587H176.928C177.481 133.585 178.014 133.794 178.418 134.172Z" fill="#407BFF"/>
<path opacity="0.6" d="M178.418 134.172L161.31 147.921C159.724 149.197 157.749 149.893 155.713 149.893C153.677 149.893 151.702 149.197 150.115 147.921L133 134.172C133.413 133.789 133.957 133.579 134.52 133.587H176.928C177.481 133.585 178.014 133.794 178.418 134.172Z" fill="white"/>
<path d="M233.928 119.071V145.747H218.074C217.492 145.745 216.935 145.513 216.523 145.102C216.112 144.69 215.88 144.133 215.878 143.551V121.268C215.882 120.686 216.115 120.13 216.526 119.719C216.937 119.308 217.493 119.075 218.074 119.071H233.928Z" fill="#407BFF"/>
<path opacity="0.8" d="M233.928 119.071V145.747H218.074C217.492 145.745 216.935 145.513 216.523 145.102C216.112 144.69 215.88 144.133 215.878 143.551V121.268C215.882 120.686 216.115 120.13 216.526 119.719C216.937 119.308 217.493 119.075 218.074 119.071H233.928Z" fill="white"/>
<path d="M233.928 119.071V133.587C233.846 133.533 233.768 133.475 233.692 133.412L216.6 119.664C217.01 119.276 217.555 119.063 218.12 119.071H233.928Z" fill="#407BFF"/>
<path opacity="0.6" d="M233.928 119.071V133.587C233.846 133.533 233.768 133.475 233.692 133.412L216.6 119.664C217.01 119.276 217.555 119.063 218.12 119.071H233.928Z" fill="white"/>
<path opacity="0.5" d="M233.92 119.071H230.447V145.747H233.92V119.071Z" fill="#407BFF"/>
</svg>
