<svg xmlns="http://www.w3.org/2000/svg" width="269.079" height="256.656" viewBox="0 0 269.079 256.656"><defs><style>.a{fill:#eec8cc;}.b{fill:#f4dcde;}.c{fill:#0f0f42;}.d{fill:#ffb4ac;}.e{fill:#ff8e85;}.f{fill:#0b72d5;}.g{fill:#b5b9e8;}.h{fill:#ffb156;}.i{fill:#3798f5;}.j{fill:#2627ab;}.k{fill:#dcdef4;}.l{fill:#fff;}.m{fill:#faeff0;}</style></defs><g transform="translate(-19.018 -20.253)"><path class="a" d="M234.329,432.717H62.81a.56.56,0,0,1,0-1.12H234.329a.56.56,0,0,1,0,1.12Z" transform="translate(-19.026 -181.031)"/><g transform="translate(48.775 37.094)"><g transform="translate(0 0)"><path class="b" d="M114.161,108.891a.553.553,0,0,1-.227-.049c-7.975-3.544-7.759-14.331-7.568-23.849.091-4.531.177-8.811-.628-11.831-2.377-8.915-13.523-8.728-13.633-8.728a.56.56,0,0,1-.03-1.119c.125-.007,12.139-.212,14.745,9.559.847,3.172.759,7.529.666,12.142-.184,9.169-.393,19.561,6.9,22.8a.56.56,0,0,1-.228,1.072Z" transform="translate(-80.688 -56.045)"/><path class="b" d="M118.623,102.32s1.681-15.554,13.032-16.605C131.655,85.715,135.228,97.065,118.623,102.32Z" transform="translate(-92.611 -65.904)"/><path class="b" d="M117.163,50.332S111.7,53.7,115.692,65.676c0,0,5.255-.63,6.306-7.147A7.067,7.067,0,0,0,117.163,50.332Z" transform="translate(-90.679 -50.332)"/><path class="b" d="M88.377,82.819s9.358-4.648,17.855,5.352c0,0-2.528,3.3-10.8.877A11.433,11.433,0,0,1,88.377,82.819Z" transform="translate(-79.3 -64.155)"/><path class="b" d="M72.165,52.4s1.682,9.458,18.077,8.2c0,0-1.909-5.282-6.516-7.147C79.561,51.763,72.165,52.4,72.165,52.4Z" transform="translate(-72.165 -51.19)"/></g><path class="b" d="M108.28,155.361s-.963-23.576,9.143-33.736c8.154-8.2,17.613-7.567,26.8-11.35,9.126-3.759,18.374-19.252,23.761-18.129,3.784.788-4.414,32.475-4.213,42.091.152,7.257,5.045,22.07-.63,34.052s-15.765,19.863-25.854,22.07Z" transform="translate(-88.048 -68.708)"/><g transform="translate(31.215 8.355)"><path class="a" d="M143.148,181.5a.56.56,0,0,1-.387-.964c.15-.143,14.96-14.33,18.489-17.858,1.405-1.405,5.779-3.867,11.833-7.274,9.534-5.366,22.591-12.714,30.651-19.864a92,92,0,0,0,19.419-24.425.56.56,0,0,1,1,.5,93.3,93.3,0,0,1-19.677,24.761c-8.15,7.229-21.267,14.612-30.845,20-5.751,3.237-10.294,5.794-11.591,7.09-3.536,3.537-18.356,17.732-18.506,17.875A.555.555,0,0,1,143.148,181.5Z" transform="translate(-134.373 -85.302)"/><path class="a" d="M162.358,236.493s6.946-4.309,14.513-3.048,9.24,7.252,9.24,7.252-4.2,2.732-12.4,2.943S162.358,236.493,162.358,236.493Z" transform="translate(-143.074 -139.173)"/><path class="a" d="M135.009,175.626s-4.3,3.994-6.306,13.242c-2.332,10.753,1.261,13.873,1.261,13.873s8.408-6.516,8.2-13.663A38.526,38.526,0,0,0,135.009,175.626Z" transform="translate(-127.916 -113.829)"/><path class="a" d="M288.783,65.255s-6.026,6.162-7.716,14.4a25.949,25.949,0,0,0,1.41,15.029s7.357-3.993,8.618-10.509S291.156,69.984,288.783,65.255Z" transform="translate(-195.089 -65.255)"/><path class="a" d="M281.592,142.295s-7.764,5.486-14.688,6.092-10.1-.946-10.1-.946,1.5-4.983,9.653-6.455A30.529,30.529,0,0,1,281.592,142.295Z" transform="translate(-184.637 -98.395)"/><path class="a" d="M252.082,96.977s-5.045,9.879-4.2,18.287,4.414,12.822,4.414,12.822,7.147-6.1,5.465-15.344A50.365,50.365,0,0,0,252.082,96.977Z" transform="translate(-180.67 -79.216)"/><path class="a" d="M204.49,123.444s-6.727,10.089-5.465,18.707a40.3,40.3,0,0,0,5.675,15.134s9.326-11.994,7.777-20.6C211.173,129.434,204.49,123.444,204.49,123.444Z" transform="translate(-159.142 -90.864)"/><path class="a" d="M220.923,175.064s11.35-4.625,19.127-3.363a26.844,26.844,0,0,1,13.032,6.306s-4.834,5.045-15.765,3.784S220.923,175.064,220.923,175.064Z" transform="translate(-168.848 -112.005)"/><path class="a" d="M193.794,192.894s9.249-.21,14.083,5.255a40.392,40.392,0,0,1,7.147,12.612,25.6,25.6,0,0,1-15.134-3.573C193.366,203.067,193.794,192.894,193.794,192.894Z" transform="translate(-156.907 -121.428)"/><path class="a" d="M176.448,147.846s-7.988,10.509-2.733,19.548l4.2,1.261S181.913,153.731,176.448,147.846Z" transform="translate(-147.284 -101.603)"/></g></g><g transform="translate(19.018 61.477)"><g transform="translate(5.073)"><path class="c" d="M71.839,128.614c-.1-8.933-3.363-19.338-4.939-22.911s-5.465-9.88-11.035-11.456-9.669,2.417-9.669,2.417-8.69-.149-13.348,6.516c-4.773,6.831-5.815,14.988-3.783,23.542a74.777,74.777,0,0,0,4.685,12.507l22.807-4.414A64.943,64.943,0,0,0,71.839,128.614Z" transform="translate(-28.08 -93.879)"/><g transform="translate(22.214 37.363)"><rect class="d" width="12.191" height="13.978"/><path class="e" d="M79.944,160.61v4.614a19.464,19.464,0,0,1-5.722,1.148,12.108,12.108,0,0,1-6.467-1.4V160.61Z" transform="translate(-67.755 -160.61)"/></g><path class="d" d="M74.827,117.83c2.294,8.7,4.51,18.734-9.174,19.715-7.121.511-14.2-5.768-16.043-15.767s2.363-19.153,9.384-20.444S72.233,108,74.827,117.83Z" transform="translate(-37.365 -97.099)"/><g transform="translate(7.185 3.628)"><path class="c" d="M54.952,100.731a18.133,18.133,0,0,1,.946,12.507c-1.689,5.433-7.733,10.72-7.733,10.72l-7.252-1.471,3.11-15.659C46.752,104.05,51.358,101.3,54.952,100.731Z" transform="translate(-40.912 -100.523)"/><path class="c" d="M63.078,101.25S74,109.5,78.834,110.131c0,0-1.892-5.57-4.1-7.357S67.071,99.254,63.078,101.25Z" transform="translate(-50.667 -100.359)"/><g transform="translate(0.334 18.852)"><ellipse class="d" cx="3.862" cy="4.966" rx="3.862" ry="4.966" transform="matrix(0.787, -0.617, 0.617, 0.787, 0, 4.764)"/><path class="c" d="M52.115,141.444a.21.21,0,0,1-.184-.107c-.011-.02-1.142-2.01-2.882-1.942a2.319,2.319,0,0,0-2.172,1.583.21.21,0,0,1-.4-.116,2.778,2.778,0,0,1,2.558-1.886c1.994-.088,3.216,2.066,3.266,2.157a.21.21,0,0,1-.183.312Z" transform="translate(-43.69 -136.204)"/></g><g transform="translate(12.829 14.19)"><path class="c" d="M81.687,139.765a3.522,3.522,0,0,1-.887-.115.21.21,0,0,1,.109-.405c.017,0,1.739.451,2.048-.6.3-1.03-1.443-2.432-2.142-2.886a.21.21,0,1,1,.228-.352c.113.073,2.769,1.817,2.316,3.356A1.567,1.567,0,0,1,81.687,139.765Z" transform="translate(-71.227 -129.959)"/><path class="c" d="M66.651,133.842h-.013a.21.21,0,0,1-.2-.222,3.6,3.6,0,0,1,1.237-2.571,2.22,2.22,0,0,1,2.1-.028.21.21,0,0,1-.158.389A1.837,1.837,0,0,0,67.9,131.4c-.932.587-1.042,2.225-1.043,2.242A.21.21,0,0,1,66.651,133.842Z" transform="translate(-64.976 -127.935)"/><path class="c" d="M82.888,127.985l-.029,0a.209.209,0,0,1-.18-.235,2.521,2.521,0,0,1,1.5-1.956c1.345-.494,2.7,1.256,2.761,1.331a.21.21,0,1,1-.334.255c-.012-.016-1.228-1.581-2.283-1.192A2.137,2.137,0,0,0,83.1,127.8.211.211,0,0,1,82.888,127.985Z" transform="translate(-72.122 -125.703)"/><path class="c" d="M77.738,148.939c-2.271,0-3.467-.88-3.971-2.9a.21.21,0,1,1,.408-.1c.478,1.91,1.606,2.661,3.888,2.574a.216.216,0,0,1,.217.2.211.211,0,0,1-.2.218Q77.9,148.94,77.738,148.939Z" transform="translate(-68.198 -134.54)"/><circle class="e" cx="2.404" cy="2.404" r="2.404" transform="translate(0 7.181)"/><circle class="e" cx="2.404" cy="2.404" r="2.404" transform="translate(12.375 3.555)"/></g></g></g><g transform="translate(46.871 53.338)"><path class="f" d="M102.731,193.13l24.409,19.837-5.947,11.561Z" transform="translate(-102.731 -190.896)"/><g transform="translate(16.15)"><path class="e" d="M152.8,219.279l-4.414,34.682-16.816-2.1,13.873-35.313Z" transform="translate(-131.575 -201.202)"/><path class="e" d="M153.858,189.141a64.974,64.974,0,0,0-6.516,12.822l7.567-2.1Z" transform="translate(-138.514 -189.141)"/></g></g><g transform="translate(0 60.789)"><g transform="translate(0 0)"><rect class="g" width="10.089" height="58.96" transform="translate(54.616 94.597)"/><rect class="h" width="15.292" height="45.354" rx="7.646" transform="translate(0 4.584) rotate(-17.442)"/><rect class="h" width="72.107" height="13.71" rx="6.855" transform="translate(23.607 82.115)"/><path class="h" d="M63.459,321.2l-2.24-.024c.2-18.878-2.04-33.424-6.844-44.47l2.054-.894C61.362,287.156,63.661,302,63.459,321.2Z" transform="translate(-34.579 -234.737)"/></g><path class="g" d="M143.982,477.766H98.667a.56.56,0,1,1,0-1.12h45.315a.56.56,0,1,1,0,1.12Z" transform="translate(-53.825 -323.122)"/></g><g transform="translate(39.052 95.766)"><g transform="translate(70.422 20.631)"><path class="e" d="M214.541,332.033l3.784,55.7,15.2-1.209,1.83-59.328-16.185-25.434Z" transform="translate(-214.541 -301.765)"/><g transform="translate(3.783 84.409)"><path class="i" d="M221.3,453.81v12.463h33.736a10.287,10.287,0,0,0-6.9-9.713l-11.582-4.04Z" transform="translate(-221.298 -452.521)"/><path class="f" d="M254.63,471.5H221.524a.21.21,0,0,1,0-.42H254.63a.21.21,0,1,1,0,.42Z" transform="translate(-221.305 -460.687)"/></g></g><g transform="translate(0 0.242)"><path class="j" d="M89.488,313.353l-.058-.309C89.449,313.144,89.468,313.244,89.488,313.353Z" transform="translate(-89.058 -286.34)"/><path class="j" d="M89.6,313.917l-.061-.322Z" transform="translate(-89.104 -286.582)"/><path class="j" d="M89.4,312.883l-.039-.2Z" transform="translate(-89.028 -286.179)"/><path class="j" d="M90.213,317.182l-.079-.416Z" transform="translate(-89.368 -287.978)"/><path class="j" d="M89.918,315.624c-.067-.354-.168-.887-.275-1.454Q89.763,314.8,89.918,315.624Z" transform="translate(-89.152 -286.836)"/><path class="j" d="M161.533,265.35c-23.752.84-39.1,8.2-39.1,8.2l-32.16,21.019,0-.013,0,.013c2.347,12.4,5.7,17.152,25.7,18.234,23.288,1.261,31.486,21.283,36.732,21.492,3.951.158,9.248-15.765,12.612-34.682A62.727,62.727,0,0,0,161.533,265.35Z" transform="translate(-89.43 -265.35)"/><path class="j" d="M88.841,309.935l-.02-.107Z" transform="translate(-88.79 -284.925)"/><path class="j" d="M88.8,309.7c-.038-.2-.044-.232,0,0Z" transform="translate(-88.766 -284.796)"/><path class="j" d="M88.975,310.64l-.118-.621C88.884,310.161,88.923,310.367,88.975,310.64Z" transform="translate(-88.806 -285.009)"/><path class="j" d="M89.119,311.4l-.052-.272C89.084,311.215,89.1,311.306,89.119,311.4Z" transform="translate(-88.899 -285.497)"/><path class="j" d="M89.272,312.21l-.113-.6Z" transform="translate(-88.939 -285.711)"/><path class="c" d="M206.5,308.235a.21.21,0,0,1-.175-.094l-3.731-5.6-20.608-2.615a.21.21,0,0,1-.182-.235.208.208,0,0,1,.235-.182l20.7,2.627a.21.21,0,0,1,.149.092l3.784,5.676a.21.21,0,0,1-.175.326Z" transform="translate(-129.711 -280.385)"/></g><g transform="translate(72.103)"><path class="d" d="M221.538,291.014,249.45,348.5l14.967-4.73s-18.435-63.269-25.223-72.938c-5.409-7.705-21.65-5.675-21.65-5.675Z" transform="translate(-217.544 -264.918)"/><g transform="translate(31.646 78.954)"><path class="i" d="M274.065,410.085l2.414,12.751,33.113-6.269h0a10.69,10.69,0,0,0-8.652-8.655l-12.15-1.982Z" transform="translate(-274.065 -405.931)"/><path class="f" d="M277.16,425.578a.21.21,0,0,1-.038-.417l32.854-6.029a.21.21,0,1,1,.075.413l-32.853,6.03A.222.222,0,0,1,277.16,425.578Z" transform="translate(-275.335 -411.74)"/></g></g></g><g transform="translate(20.061 19.882)"><g transform="translate(0 26.519)"><path class="i" d="M62.136,176.752s-6.157,7.988-7.208,23.332,8.6,29.4,12.191,34.893c4.055,6.2,7.567,20.6,7.567,20.6s20.389-2.943,32.16-21.019c0,0-3.827-34.21-30.9-53.6l-1.673-3.784Z" transform="translate(-54.848 -176.752)"/><path class="c" d="M67.589,185.041a.21.21,0,0,1-.011-.419l13.873-.736a.206.206,0,0,1,.22.2.209.209,0,0,1-.2.221L67.6,185.04Z" transform="translate(-60.363 -179.891)"/></g><g transform="translate(4.074)"><g transform="translate(52.128)"><rect class="j" width="17.236" height="26.274" transform="translate(0 28.2)"/><path class="j" d="M184.478,201.152c-.274,0-.446-.01-.479-.012l.107-1.676c.038,0,3.934.216,6.153-1.87A5.237,5.237,0,0,0,191.8,193.6a5.076,5.076,0,0,0-1.6-4.085c-2.173-1.84-5.9-1.242-5.938-1.235l-.281-1.656c.183-.031,4.521-.74,7.3,1.6a6.665,6.665,0,0,1,2.2,5.373,6.847,6.847,0,0,1-2.081,5.221C189.141,200.943,185.732,201.152,184.478,201.152Z" transform="translate(-167.885 -154.524)"/><g transform="translate(4.485)"><path class="c" d="M163.8,154.261a.561.561,0,0,1-.552-.655,21.122,21.122,0,0,1,2.2-6.049c2.249-4.049,5.523-6.261,9.47-6.4,4.812-.166,7.949,1.657,10.985,3.42,2.875,1.669,5.58,3.247,9.612,3.1,5.115-.189,8.134-4.126,10.8-7.6,1.6-2.087,3.111-4.058,4.9-4.954a12.83,12.83,0,0,1,6.956-1.1.56.56,0,0,1-.167,1.107,11.9,11.9,0,0,0-6.288,1c-1.562.781-3,2.652-4.516,4.633-2.814,3.67-6,7.828-11.644,8.037-4.355.157-7.331-1.572-10.217-3.247s-5.891-3.428-10.384-3.269c-8.576.3-10.588,11.4-10.608,11.517A.561.561,0,0,1,163.8,154.261Z" transform="translate(-163.235 -131.386)"/><path class="c" d="M213.687,134.828a17.664,17.664,0,0,1-5.389-.877.56.56,0,0,1,.34-1.067c5.632,1.8,10.678.725,15.878-3.374a.56.56,0,1,1,.694.879C221.446,133.355,217.64,134.828,213.687,134.828Z" transform="translate(-182.896 -129.389)"/></g></g><g transform="translate(0 36.778)"><path class="d" d="M104.158,228.647l6.942,6.308,12.4-22.914,8.618,7.357s-6.8,25.276-13.453,34.051c-4.624,6.1-12.611,3.153-12.611,3.153L93.158,246.145Z" transform="translate(-75.782 -202.542)"/><path class="c" d="M93.136,269.057a.213.213,0,0,1-.1-.027c-4.95-2.787-22.228-18.631-25.38-21.655a27.365,27.365,0,0,1-5.512-7.633.21.21,0,0,1,.384-.171,26.92,26.92,0,0,0,5.419,7.5c3.8,3.648,20.635,18.968,25.295,21.592a.21.21,0,0,1-.1.393Z" transform="translate(-62.124 -214.603)"/><g transform="translate(47.714)"><path class="d" d="M147.342,204.574a10.306,10.306,0,0,1,7.357-5.045c5.045-.63,5.215-.637,7.708-1.445,3.81-1.235,5.544-3.494,6.936-2.917,1.3.541,1.392,8.3-2.286,12.349-3.151,3.466-11.1,4.414-11.1,4.414Z" transform="translate(-147.342 -195.075)"/><path class="c" d="M171.744,202.63a.14.14,0,0,1-.035-.275c.068-.018,6.823-1.758,8.663-4.9a.14.14,0,1,1,.241.141c-1.9,3.245-8.554,4.96-8.836,5.031A.12.12,0,0,1,171.744,202.63Z" transform="translate(-158.019 -196.091)"/><path class="c" d="M169.773,208.53a.14.14,0,0,1-.011-.279c.071-.006,7.089-.569,9.933-4.566a.14.14,0,0,1,.229.162c-2.921,4.105-10.069,4.677-10.141,4.682Z" transform="translate(-157.152 -198.838)"/><path class="c" d="M172.916,215.04a.14.14,0,0,1-.03-.277c.055-.012,5.568-1.277,7.329-3.575a.14.14,0,0,1,.222.171c-1.822,2.377-7.259,3.626-7.49,3.677A.148.148,0,0,1,172.916,215.04Z" transform="translate(-158.535 -202.143)"/></g><path class="c" d="M112.359,240.989a.209.209,0,0,1-.144-.058L96.086,225.637a.21.21,0,1,1,.288-.305L112.5,240.626a.21.21,0,0,1-.144.363Z" transform="translate(-77.041 -208.366)"/></g></g></g></g><g transform="translate(158.938 61.956)"><g transform="translate(12.447)"><g transform="translate(36.666 55.807)"><path class="g" d="M392.893,225.305H361.114l-4.479-30.9h31.779Z" transform="translate(-356.635 -194.407)"/><path class="j" d="M390.274,207.258h-31.78l-1.019-7.038h31.78Z" transform="translate(-357.004 -196.965)"/></g><path class="k" d="M382.268,157.162h-91.12l17.917-62.428h91.12Z" transform="translate(-291.148 -94.734)"/><path class="g" d="M383.726,156.009H304.257a.209.209,0,0,1-.2-.268l14.7-51.23a.21.21,0,0,1,.2-.152H398.43a.21.21,0,0,1,.2.268l-14.7,51.23A.21.21,0,0,1,383.726,156.009Zm-79.191-.42h79.033l14.582-50.81H319.118Z" transform="translate(-296.825 -98.97)"/><path class="g" d="M453.89,157.162H458.4l17.917-62.428h-4.506Z" transform="translate(-362.77 -94.734)"/><g transform="translate(13.422 9.593)"><g transform="translate(0 23.332)"><path class="l" d="M315.289,168.475l3.536-12.018a4.066,4.066,0,0,1,3.9-2.918h62.482a4.066,4.066,0,0,1,3.9,5.213l-3.536,12.019a4.067,4.067,0,0,1-3.9,2.918H319.189A4.066,4.066,0,0,1,315.289,168.475Z" transform="translate(-315.121 -153.538)"/><path class="a" d="M360.045,171.961l1-3.468h42.608l-1,3.468Z" transform="translate(-334.892 -160.12)"/><path class="a" d="M357.042,181.722l1-3.468h42.608l-1,3.468Z" transform="translate(-333.57 -164.415)"/><path class="k" d="M336.125,171.708a6.472,6.472,0,1,1,6.472-6.472A6.479,6.479,0,0,1,336.125,171.708Zm0-11.823a5.352,5.352,0,1,0,5.352,5.352A5.358,5.358,0,0,0,336.125,159.885Z" transform="translate(-321.516 -155.838)"/></g><g transform="translate(8.244)"><path class="l" d="M329.989,124.172l2.767-9.642a3.678,3.678,0,0,1,3.535-2.663H364.7a3.678,3.678,0,0,1,3.535,4.693l-2.767,9.642a3.677,3.677,0,0,1-3.535,2.663H333.524A3.677,3.677,0,0,1,329.989,124.172Z" transform="translate(-329.844 -111.867)"/><path class="b" d="M339.889,118.879h0a3.294,3.294,0,0,1,3.146-2.319H354.61a3.294,3.294,0,0,1,3.146,4.268h0a3.294,3.294,0,0,1-3.146,2.319H343.035A3.294,3.294,0,0,1,339.889,118.879Z" transform="translate(-334.199 -113.932)"/></g><path class="l" d="M408.106,124.352l2.848-9.924a3.536,3.536,0,0,1,3.4-2.561h20.233a3.536,3.536,0,0,1,3.4,4.512l-2.848,9.925a3.536,3.536,0,0,1-3.4,2.56H411.5A3.536,3.536,0,0,1,408.106,124.352Z" transform="translate(-355.982 -111.867)"/><g transform="translate(27.108 10.089)"><path class="h" d="M363.7,144.2l3.338-11.391a4.064,4.064,0,0,1,3.9-2.922H406.1a4.064,4.064,0,0,1,3.9,5.207l-3.338,11.391a4.064,4.064,0,0,1-3.9,2.922H367.6A4.064,4.064,0,0,1,363.7,144.2Z" transform="translate(-363.536 -129.887)"/><g transform="translate(12.119 2.256)"><g transform="translate(0 12.265)"><circle class="c" cx="0.683" cy="0.683" r="0.683"/></g><g transform="translate(0.754)"><path class="c" d="M387.088,144.483a.562.562,0,0,1-.537-.719l2.788-9.446a.56.56,0,0,1,1.074.317l-2.788,9.446A.56.56,0,0,1,387.088,144.483Z" transform="translate(-386.528 -133.917)"/></g><g transform="translate(8.408)"><g transform="translate(0 12.265)"><circle class="c" cx="0.683" cy="0.683" r="0.683"/></g><g transform="translate(0.754)"><path class="c" d="M402.1,144.483a.562.562,0,0,1-.537-.719l2.787-9.446a.56.56,0,1,1,1.074.317l-2.787,9.446A.56.56,0,0,1,402.1,144.483Z" transform="translate(-401.545 -133.917)"/></g></g><g transform="translate(16.816)"><g transform="translate(0 12.265)"><circle class="c" cx="0.683" cy="0.683" r="0.683"/></g><g transform="translate(0.754)"><path class="c" d="M417.122,144.483a.561.561,0,0,1-.537-.719l2.787-9.446a.56.56,0,0,1,1.074.317l-2.787,9.446A.561.561,0,0,1,417.122,144.483Z" transform="translate(-416.562 -133.917)"/></g></g></g></g></g></g><g transform="translate(0 83.08)"><path class="a" d="M285.174,379.928h-7.094l26.9-124.5,11.508-.21Z" transform="translate(-272.95 -248.44)"/><rect class="b" width="129.16" height="9.459"/></g></g><g transform="translate(114.856 20.253)"><g transform="translate(5.57 4.654)"><rect class="h" width="38.711" height="26.901" rx="6.446"/><g transform="translate(0.902 8.304)"><path class="m" d="M238.654,60.762a2.631,2.631,0,0,1-.4.392L220.2,44.065,202.137,61.148a2.842,2.842,0,0,1-.392-.386l18.264-17.284a.267.267,0,0,1,.381,0Z" transform="translate(-201.745 -43.397)"/></g><path class="h" d="M201.135,31.126l17.837,16.055a1.492,1.492,0,0,0,2.076,0l17.118-16.611Z" transform="translate(-200.575 -29.446)"/><path class="m" d="M238.288,30.51a.12.12,0,0,1-.039.067L221.127,47.189a1.764,1.764,0,0,1-2.464.006l-17.788-16a2.921,2.921,0,0,1,.308-.482.077.077,0,0,1,.022.017l17.839,16.058a1.212,1.212,0,0,0,1.7,0l17.116-16.607a.145.145,0,0,1,.062-.039A2.88,2.88,0,0,1,238.288,30.51Z" transform="translate(-200.461 -29.258)"/></g><circle class="g" cx="6.189" cy="6.189" r="6.189"/><ellipse class="l" cx="3.93" cy="3.978" rx="3.93" ry="3.978" transform="translate(2.259 2.21)"/><g transform="translate(67.184 1.97)"><path class="g" d="M391.313,23.772H310.177v33h54.035L375.968,75.9l4.383-19.128h10.961Z" transform="translate(-310.177 -23.772)"/><g transform="translate(10.37 9.161)"><path class="k" d="M388.533,41.254H329.258a.56.56,0,1,1,0-1.12h59.275a.56.56,0,1,1,0,1.12Z" transform="translate(-328.698 -40.134)"/><g transform="translate(0 7.095)"><path class="k" d="M388.533,53.925H329.258a.56.56,0,1,1,0-1.12h59.275a.56.56,0,1,1,0,1.12Z" transform="translate(-328.698 -52.805)"/></g><g transform="translate(0 13.558)"><path class="k" d="M388.533,65.469H329.258a.56.56,0,0,1,0-1.12h59.275a.56.56,0,1,1,0,1.12Z" transform="translate(-328.698 -64.349)"/></g></g></g></g><g transform="translate(126.776 226.794)"><g transform="translate(86.749)"><rect class="l" width="51.595" height="49.555"/><rect class="k" width="16.712" height="49.555" transform="translate(34.883)"/><path class="k" d="M405.173,402.563H418.73v2.312Z" transform="translate(-383.47 -395.047)"/><path class="k" d="M393.347,430.231l20.7-1.576v3.258Z" transform="translate(-378.266 -406.53)"/><path class="k" d="M415.309,457.343l8.933-1.471-.105,2.207Z" transform="translate(-387.931 -418.508)"/><path class="k" d="M420.189,421.491l6.2-1.471-.105,3.573Z" transform="translate(-390.079 -402.73)"/></g><path class="g" d="M356.869,477.766H212.036a.56.56,0,1,1,0-1.12H356.869a.56.56,0,0,1,0,1.12Z" transform="translate(-211.476 -427.651)"/></g></g></svg>