<svg width="35" height="35" viewBox="0 0 35 35" fill="none" xmlns="http://www.w3.org/2000/svg">
<path d="M33.6784 14.4573L19.4023 14.4566C18.7718 14.4566 18.2609 14.9675 18.2609 15.5979V20.1585C18.2609 20.7888 18.7718 21.2998 19.4022 21.2998H27.4417C26.5613 23.5845 24.9182 25.4978 22.8219 26.7135L26.25 32.6477C31.7489 29.4674 35 23.8873 35 17.6408C35 16.7513 34.9344 16.1155 34.8033 15.3996C34.7036 14.8557 34.2314 14.4573 33.6784 14.4573Z" fill="#167EE6"/>
<path d="M17.5 28.1522C13.5656 28.1522 10.131 26.0025 8.2863 22.8216L2.35229 26.2419C5.37207 31.4756 11.0291 35 17.5 35C20.6744 35 23.6697 34.1453 26.25 32.6558V32.6477L22.822 26.7134C21.2539 27.6229 19.4394 28.1522 17.5 28.1522Z" fill="#12B347"/>
<path d="M26.25 32.6558V32.6477L22.822 26.7134C21.254 27.6228 19.4396 28.1522 17.5 28.1522V35C20.6744 35 23.6698 34.1453 26.25 32.6558Z" fill="#0F993E"/>
<path d="M6.84783 17.5C6.84783 15.5607 7.37707 13.7464 8.28632 12.1784L2.35231 8.75813C0.854629 11.3303 0 14.3175 0 17.5C0 20.6825 0.854629 23.6697 2.35231 26.2419L8.28632 22.8216C7.37707 21.2536 6.84783 19.4393 6.84783 17.5Z" fill="#FFD500"/>
<path d="M17.5 6.84783C20.0656 6.84783 22.4222 7.75947 24.2629 9.27589C24.717 9.64995 25.377 9.62295 25.793 9.20698L29.0243 5.97564C29.4963 5.50368 29.4627 4.73115 28.9585 4.29379C25.8745 1.61827 21.8618 0 17.5 0C11.0291 0 5.37207 3.5244 2.35229 8.75813L8.2863 12.1784C10.131 8.99746 13.5656 6.84783 17.5 6.84783Z" fill="#FF4B26"/>
<path d="M24.2629 9.27589C24.717 9.64995 25.3771 9.62295 25.793 9.20698L29.0244 5.97564C29.4963 5.50368 29.4626 4.73115 28.9585 4.29379C25.8745 1.6182 21.8618 0 17.5 0V6.84783C20.0655 6.84783 22.4222 7.75947 24.2629 9.27589Z" fill="#D93F21"/>
</svg>
