<svg xmlns="http://www.w3.org/2000/svg" width="175.708" height="23.552" viewBox="0 0 175.708 23.552"><defs><style>.a{fill:#ffd000;}</style></defs><g transform="translate(67.288 -14.048) rotate(2)"><g transform="translate(-66.148 16.255)"><path class="a" d="M62.054,212.934a1.952,1.952,0,0,1-1.046.211.1.1,0,0,0-.1.024c-.082.111-.231.115-.386.123-.059,0-.155.032-.165.061-.073.2-.289.155-.47.119a3.2,3.2,0,0,0-.476-.034l-.221.083h0c-.052.092-.395.072-.213.257.021.022-.015.044-.058.052a1.936,1.936,0,0,1-1.216.013,1.714,1.714,0,0,0-.312-.069.74.74,0,0,0,.124-.045,1.74,1.74,0,0,1,1.261-.3h0A1.831,1.831,0,0,1,60.1,213.3c-.009-.038-.006-.058-.016-.062-.106-.039-.185-.087-.146-.181.045-.111.154-.061.252-.05s.1-.019.1-.079c0-.144.123-.2.335-.193.171.009.34-.023.507-.028s.26-.151.434-.121a3.174,3.174,0,0,0,.719,0,1.2,1.2,0,0,1,.39.022C62.429,212.708,62.119,212.719,62.054,212.934Z" transform="translate(-54.956 -207.68)"/><path class="a" d="M61.778,201.653c.141.006.226.012.31.014.068,0,.14,0,.173.049s-.038.077-.08.11a.832.832,0,0,1-.841.044c-.058-.028-.147-.055-.13-.115s.122-.071.2-.078C61.551,201.663,61.692,201.658,61.778,201.653Z" transform="translate(-57.084 -193.963)"/><path class="a" d="M233.946,157.539a.606.606,0,0,0,.613-.1.584.584,0,0,1,.171-.033c.155,0,.311.075.341.187s-.16.1-.274.115a2.347,2.347,0,0,1-.848-.021c-.084-.022-.1-.049-.1-.1A.065.065,0,0,1,233.946,157.539Z" transform="translate(-153.39 -143.808)"/><path class="a" d="M80.522,169.515a1.289,1.289,0,0,1-.749-.13.609.609,0,0,0-.44-.138c-.2-.014-.407-.234-.616,0a.106.106,0,0,1-.051-.011.166.166,0,0,0-.231.021c-.023.021-.089.033-.1.012-.065-.224-.33-.1-.5-.135h-.055a.54.54,0,0,1-.083.009c-.24-.009-.351-.21-.619-.192-.035,0,.013-.067.063-.08a.523.523,0,0,1,.277.022c.132.042.138-.013.14-.076-.023-.061-.122-.068-.183-.109a.468.468,0,0,1,.3-.027c.6.18,1.252.23,1.874.355a1.043,1.043,0,0,1,.518.216c.086,0,.154-.128.164-.077.032.167.26.082.347.155v.073C80.567,169.438,80.563,169.5,80.522,169.515Zm-1.479-.4-.112-.007a1.039,1.039,0,0,0,.168.017A.265.265,0,0,0,79.043,169.11Z" transform="translate(-65.934 -165.255)"/><path class="a" d="M135.153,155c.282.018.564.033.846.049.063,0,.156-.016.157.046s-.1.092-.165.076a2.561,2.561,0,0,0-.691.006.9.9,0,0,1-.195-.017c-.073-.023-.225,0-.189-.1C134.947,154.969,135.059,154.994,135.153,155Z" transform="translate(-98.198 -141.003)"/><path class="a" d="M103.094,161.7c-.058,0-.042.1-.1.059a.408.408,0,0,1-.16-.193c-.017-.046.063-.071.141-.051a6.022,6.022,0,0,1,.822.092c.279.015.2.109.095.206h0c-.314.1-.5.069-.653-.119C103.193,161.645,103.142,161.7,103.094,161.7Z" transform="translate(-80.303 -151.343)"/><path class="a" d="M122.3,157.289a9.24,9.24,0,0,1-1.254.008c-.072,0-.142,0-.136-.065s.067-.045.126-.047A3.7,3.7,0,0,1,122.3,157.289Z" transform="translate(-90.388 -143.165)"/><path class="a" d="M85.235,167.695a7.144,7.144,0,0,1,1.009.164c.147.112.37.086.552.138a7.187,7.187,0,0,0,1.421.195c.087.007.2-.009.191.067-.008.057-.011.133-.182.153a3.5,3.5,0,0,1-.665-.047.77.77,0,0,1-.52-.077l-.279-.042a.714.714,0,0,1-.361-.015c-.07-.023-.175-.007-.186-.093-.019-.149-.028-.15-.233-.086a.616.616,0,0,1-.775-.192c-.05-.034-.084-.085-.172-.077C85.046,167.695,85.134,167.684,85.235,167.695Z" transform="translate(-70.377 -163.222)"/><path class="a" d="M85.028,169.127l0,0h.006v0h0Z" transform="translate(-70.37 -164.648)"/><path class="a" d="M124.413,154.8c.148.024.094.141.148.211.018.023-.043.058-.064.048a1.655,1.655,0,0,0-.681-.048c.07-.068.153-.075.178-.128C124.072,154.718,124.262,154.772,124.413,154.8Z" transform="translate(-92.009 -140.556)"/><path class="a" d="M101.407,159.917c.175-.008.366-.061.5.054a.323.323,0,0,0,.347.1c.052-.015.109.011.094.064-.161-.043-.26.16-.437.05a.582.582,0,0,0-.339.039c-.107.042.006.2-.164.181-.142-.018-.034-.144-.08-.214-.092-.006-.187-.005-.276-.019-.071-.011-.177-.077-.117-.1C101.1,160.03,101.135,159.806,101.407,159.917Z" transform="translate(-79.236 -148.584)"/><path class="a" d="M131.1,156.909a2.844,2.844,0,0,1,.637.051,2.6,2.6,0,0,1-.634.109c-.075.01-.151-.039-.153-.1S131.036,156.909,131.1,156.909Z" transform="translate(-95.986 -146.13)"/><path class="a" d="M139.382,154.415c-.051.052-.073.134-.193.117s-.163-.107-.143-.166-.011-.1,0-.143a.29.29,0,0,1,.224.056C139.324,154.318,139.481,154.315,139.382,154.415Z" transform="translate(-100.502 -137.512)"/><path class="a" d="M126.2,157.875c.143,0,.132.088.149.142-.013.068.011.143-.116.141s-.216-.042-.2-.127A.162.162,0,0,1,126.2,157.875Z" transform="translate(-93.245 -144.608)"/><path class="a" d="M94.41,166.887l-.936-.112.012-.052a3.347,3.347,0,0,1,.936.112Z" transform="translate(-75.083 -160.546)"/><path class="a" d="M106.762,156.838a.162.162,0,0,1,.192.087c-.042.092-.158.1-.272.1-.08,0-.19,0-.181-.085C106.511,156.836,106.666,156.857,106.762,156.838Z" transform="translate(-82.349 -146)"/><path class="a" d="M107.136,159.345c-.065.018-.163,0-.155-.076s.061-.1.169-.1c.273-.012.208.128.249.238C107.3,159.38,107.249,159.313,107.136,159.345Z" transform="translate(-82.617 -146.901)"/><path class="a" d="M234.514,156.608c.1.06.125-.011.183-.031.079-.029.146-.089.252-.055.016.005.031.039.022.049a.429.429,0,0,1-.217.118.712.712,0,0,1-.144.012c-.052,0-.081,0-.108,0-.075-.007-.179-.019-.163-.076C234.357,156.551,234.457,156.573,234.514,156.608Z" transform="translate(-153.66 -145.116)"/><path class="a" d="M122.658,154.974c.062,0,.153.038.126.08a.308.308,0,0,1-.232.164c-.058-.011-.157-.035-.127-.053C122.52,155.108,122.491,154.978,122.658,154.974Z" transform="translate(-91.23 -141.047)"/><path class="a" d="M149.169,153.727c.066-.011.1.022.08.073-.1.022.09.173-.137.141-.081-.012-.214-.012-.2-.073S149.054,153.745,149.169,153.727Z" transform="translate(-106.009 -136.706)"/><path class="a" d="M77.406,167.943c-.021.047-.081.048-.139.046-.15,0-.25-.044-.243-.182.129.025.205.083.322.067C77.4,167.867,77.422,167.907,77.406,167.943Z" transform="translate(-65.907 -162.546)"/><path class="a" d="M94.692,162.728c.088.007.173.019.181.1a.1.1,0,0,1-.116.093c-.1,0-.183-.039-.193-.115C94.557,162.745,94.613,162.722,94.692,162.728Z" transform="translate(-75.691 -153.32)"/><path class="a" d="M91.957,163.114c.088.017.126.059.122.116s-.086.076-.164.076-.135-.025-.127-.081S91.865,163.126,91.957,163.114Z" transform="translate(-74.143 -154.026)"/><path class="a" d="M58.867,189.6c.017.092-.108.031-.157.052-.093-.005-.218.015-.222-.073,0-.056.111-.066.18-.064S58.856,189.543,58.867,189.6Z" transform="translate(-55.567 -179.312)"/><path class="a" d="M238.876,157.02c.064,0,.135.01.14.074-.039.08-.144.068-.234.073-.06,0-.12,0-.114-.057C238.678,157.021,238.779,157.016,238.876,157.02Z" transform="translate(-156.075 -157.019)"/><path class="a" d="M103.746,159.536a.154.154,0,0,1,.157.119c.009.043-.015.076-.086.084-.092-.011-.166-.04-.177-.107C103.632,159.585,103.671,159.533,103.746,159.536Z" transform="translate(-80.754 -147.534)"/><path class="a" d="M126.623,154.782c.063.008.152.038.184.021.1-.054.2-.139.283-.019s-.158.045-.182.115a.081.081,0,0,1-.052.043c-.162.031-.333.1-.462-.042-.038-.016-.1-.039-.072-.068C126.394,154.757,126.513,154.773,126.623,154.782Z" transform="translate(-93.403 -140.393)"/><path class="a" d="M75.164,168.166c.091.006.163.037.164.1,0,.044-.063.059-.125.06-.1,0-.17-.04-.184-.1S75.093,168.171,75.164,168.166Z" transform="translate(-64.788 -163.17)"/><path class="a" d="M135.339,154.693a.358.358,0,0,1-.375-.133c.182.029.326-.026.419.073C135.407,154.657,135.375,154.687,135.339,154.693Z" transform="translate(-98.227 -137.832)"/><path class="a" d="M241.584,157.315c.047.019.049.056,0,.08-.1.056-.192.017-.31-.042A.283.283,0,0,1,241.584,157.315Z" transform="translate(-157.532 -143.363)"/><path class="a" d="M105.7,161.534c.077.007.17,0,.212.063-.009.057-.075.076-.135.087a.137.137,0,0,1-.161-.079C105.592,161.557,105.632,161.528,105.7,161.534Z" transform="translate(-81.852 -151.099)"/><path class="a" d="M150.467,154.032c.072-.015.106.006.108.055s-.058.092-.15.088c-.058,0-.118,0-.118-.058C150.307,154.043,150.4,154.046,150.467,154.032Z" transform="translate(-106.786 -137.069)"/><path class="a" d="M247.4,158.03c.059,0,.11.011.12.059-.019.058-.079.083-.16.086-.053,0-.092-.02-.084-.057A.117.117,0,0,1,247.4,158.03Z" transform="translate(-160.876 -144.724)"/><path class="a" d="M250.2,158.693c.068,0,.1.034.1.075s-.036.068-.121.072c-.046-.012-.108-.028-.1-.086S250.144,158.692,250.2,158.693Z" transform="translate(-162.444 -145.93)"/><path class="a" d="M175.812,153.914a.133.133,0,0,1,.158.043c-.007.044-.043.071-.106.074s-.14-.008-.159-.055S175.767,153.924,175.812,153.914Z" transform="translate(-120.952 -136.873)"/><path class="a" d="M130.23,157.1a.535.535,0,0,1-.378.011.034.034,0,0,1,.008-.065A.876.876,0,0,1,130.23,157.1Z" transform="translate(-95.363 -146.355)"/><path class="a" d="M116.7,156.63c.069-.005.134,0,.165.066a.138.138,0,0,1-.12.057c-.073,0-.138-.018-.145-.072S116.652,156.634,116.7,156.63Z" transform="translate(-87.983 -145.301)"/><path class="a" d="M92.787,163.067c.065,0,.1.024.111.068a.106.106,0,0,1-.12.067c-.049,0-.093-.023-.1-.06S92.725,163.07,92.787,163.067Z" transform="translate(-74.642 -153.862)"/><path class="a" d="M127.367,158.174c-.013-.006-.008-.053.011-.069.083-.067.163.016.251.016C127.547,158.156,127.476,158.22,127.367,158.174Z" transform="translate(-93.985 -144.772)"/><path class="a" d="M156.126,153.169a.078.078,0,0,1,.088.089c-.01.032-.039.06-.107.051-.048-.007-.083-.027-.08-.064A.092.092,0,0,1,156.126,153.169Z" transform="translate(-109.977 -135.825)"/><path class="a" d="M373.894,213.4a2.626,2.626,0,0,1-.592.116c-.787-.03-1.538.139-2.312.168a1.329,1.329,0,0,1-.509.077c-.115,0-.314.025-.313-.061s.191-.054.3-.056a2.953,2.953,0,0,1,.327-.067c.943-.088,1.884-.183,2.833-.235A.355.355,0,0,1,373.894,213.4Z" transform="translate(-229.43 -208.013)"/><path class="a" d="M403.671,224.924a5.439,5.439,0,0,1-1.042.027,3.194,3.194,0,0,1,1.031-.145c.058,0,.129.009.134.054S403.729,224.916,403.671,224.924Z" transform="translate(-247.537 -211.463)"/><path class="a" d="M395.442,216.456a4.1,4.1,0,0,1,1.089.116h-1.093c-.06,0-.089-.019-.089-.056S395.391,216.461,395.442,216.456Z" transform="translate(-243.476 -211.555)"/><path class="a" d="M373.977,216.957c.1.172-.1.12-.206.134-.069.009-.181.02-.167-.058s.055-.186.236-.182C373.939,216.852,374.077,216.84,373.977,216.957Z" transform="translate(-231.345 -212.109)"/><path class="a" d="M391.773,218.076h.374a.721.721,0,0,1,.452-.026c.066.011.171-.011.171.064s-.1.061-.166.082c-.01.058-.062.08-.138.063a1.558,1.558,0,0,0-.7-.069c-.053.011-.115-.023-.116-.065S391.719,218.077,391.773,218.076Z" transform="translate(-241.412 -213.512)"/><path class="a" d="M370.345,228.921a1.15,1.15,0,0,1,.7,0A1.642,1.642,0,0,1,370.345,228.921Z" transform="translate(-229.529 -218.75)"/><path class="a" d="M262.288,158.036c.066-.011.1.022.079.073-.1.022.09.173-.137.141-.081-.012-.214-.012-.2-.073S262.173,158.054,262.288,158.036Z" transform="translate(-169.11 -144.821)"/><path class="a" d="M373.3,217.613c-.178.087-.353.006-.591-.007C373.1,217.508,373.1,217.508,373.3,217.613Z" transform="translate(-230.849 -212.851)"/><path class="a" d="M384.136,218.954c-.076-.016-.2-.025-.13-.145.1.119.253.083.42.052A.236.236,0,0,1,384.136,218.954Z" transform="translate(-237.137 -214.402)"/><path class="a" d="M263.586,158.341c.073-.015.106.006.108.055s-.058.092-.15.088c-.058,0-.118,0-.118-.058C263.426,158.352,263.517,158.355,263.586,158.341Z" transform="translate(-169.887 -145.283)"/><path class="a" d="M269.245,157.478a.078.078,0,0,1,.088.089c-.009.032-.039.06-.107.051-.048-.006-.083-.027-.079-.064A.092.092,0,0,1,269.245,157.478Z" transform="translate(-173.077 -143.717)"/><path class="a" d="M256.508,239.423c-.282-.018-.564-.033-.846-.048-.063,0-.156.015-.157-.047s.1-.092.164-.076a2.586,2.586,0,0,0,.691-.006.913.913,0,0,1,.195.017c.073.023.225,0,.189.1C256.714,239.454,256.6,239.43,256.508,239.423Z" transform="translate(-165.468 -236.147)"/><path class="a" d="M269.174,237.187a9.239,9.239,0,0,1,1.254-.008c.072,0,.141,0,.136.065s-.067.045-.126.047A3.687,3.687,0,0,1,269.174,237.187Z" transform="translate(-173.093 -230.398)"/><path class="a" d="M267.874,239.495c-.148-.024-.094-.141-.148-.211-.017-.023.043-.058.064-.048a1.65,1.65,0,0,0,.681.048c-.071.068-.153.075-.178.128C268.215,239.573,268.025,239.519,267.874,239.495Z" transform="translate(-172.284 -236.468)"/><path class="a" d="M261.141,237.544a2.852,2.852,0,0,1-.637-.051,2.583,2.583,0,0,1,.635-.109c.075-.01.15.039.153.095S261.2,237.545,261.141,237.544Z" transform="translate(-168.257 -231.048)"/><path class="a" d="M253.379,239.845c.051-.052.073-.134.193-.116s.163.107.144.166.01.1,0,.143a.29.29,0,0,1-.224-.056C253.437,239.942,253.28,239.944,253.379,239.845Z" transform="translate(-164.264 -239.262)"/><path class="a" d="M266.626,236.423c-.143,0-.132-.088-.149-.143.013-.067-.012-.143.115-.141s.216.042.2.127A.162.162,0,0,1,266.626,236.423Z" transform="translate(-171.588 -232.269)"/><path class="a" d="M285.9,237.571a.161.161,0,0,1-.192-.087c.042-.091.158-.1.272-.1.08,0,.19,0,.181.085C286.148,237.574,285.992,237.553,285.9,237.571Z" transform="translate(-182.314 -231.138)"/><path class="a" d="M285.567,235.01c.065-.018.163,0,.155.076s-.061.1-.169.1c-.273.012-.207-.128-.249-.238C285.4,234.975,285.453,235.042,285.567,235.01Z" transform="translate(-182.091 -230.033)"/><path class="a" d="M270.106,239.375c-.062,0-.153-.038-.126-.08a.308.308,0,0,1,.232-.164c.058.011.157.036.127.053C270.244,239.241,270.272,239.371,270.106,239.375Z" transform="translate(-173.54 -236.032)"/><path class="a" d="M243.632,240.651c-.066.011-.1-.022-.08-.073.1-.022-.09-.174.137-.142.081.012.214.012.2.073S243.746,240.633,243.632,240.651Z" transform="translate(-158.797 -240.187)"/><path class="a" d="M289.15,234.864a.154.154,0,0,1-.157-.119c-.009-.043.015-.076.086-.084.092.011.166.04.177.107C289.263,234.815,289.225,234.867,289.15,234.864Z" transform="translate(-184.147 -229.444)"/><path class="a" d="M265.607,239.542c-.063-.008-.152-.038-.184-.02-.1.055-.2.139-.284.019s.159-.045.183-.115a.08.08,0,0,1,.052-.043c.161-.031.333-.1.462.042.038.017.1.039.072.068C265.837,239.567,265.718,239.551,265.607,239.542Z" transform="translate(-170.833 -238.651)"/><path class="a" d="M257.353,239.785a.357.357,0,0,1,.374.133c-.182-.029-.325.026-.419-.073C257.285,239.821,257.317,239.792,257.353,239.785Z" transform="translate(-166.469 -239.161)"/><path class="a" d="M242.426,240.439c-.073.015-.106-.007-.109-.055s.058-.092.151-.087c.057,0,.118,0,.118.058C242.585,240.427,242.495,240.424,242.426,240.439Z" transform="translate(-158.112 -239.916)"/><path class="a" d="M217.081,240.584a.133.133,0,0,1-.158-.043c.007-.044.043-.071.106-.074s.139.008.159.056S217.125,240.574,217.081,240.584Z" transform="translate(-143.946 -240.14)"/><path class="a" d="M262.5,237.427a.535.535,0,0,1,.378-.011.034.034,0,0,1-.008.065A.875.875,0,0,1,262.5,237.427Z" transform="translate(-169.368 -230.896)"/><path class="a" d="M276.2,237.869c-.069.006-.134,0-.166-.066a.141.141,0,0,1,.121-.057c.073,0,.138.018.145.072S276.243,237.865,276.2,237.869Z" transform="translate(-176.918 -231.923)"/><path class="a" d="M265.524,236.343c.013.006.008.054-.011.069-.083.067-.163-.016-.251-.016C265.344,236.36,265.415,236.3,265.524,236.343Z" transform="translate(-170.911 -232.323)"/><path class="a" d="M236.869,241.309a.079.079,0,0,1-.088-.089c.009-.032.039-.06.108-.051.048.007.083.027.08.064A.092.092,0,0,1,236.869,241.309Z" transform="translate(-155.023 -241.167)"/><path class="a" d="M109.461,235.5a.409.409,0,0,0-.414.068.392.392,0,0,1-.116.022c-.105,0-.21-.05-.231-.127s.108-.07.185-.078a1.585,1.585,0,0,1,.573.015c.057.015.068.033.065.065A.045.045,0,0,1,109.461,235.5Z" transform="translate(-83.576 -230.755)"/><path class="a" d="M97.153,234.9c-.038,0-.1,0-.086-.033.053-.144-.1-.071-.2-.085l.035-.029a.217.217,0,0,1,.222-.064c.1.029.031.117.1.164C97.241,234.862,97.2,234.9,97.153,234.9Z" transform="translate(-76.975 -229.503)"/><path class="a" d="M109.576,236.246c-.065-.04-.085.008-.124.022s-.1.06-.17.037c-.011,0-.021-.026-.015-.033a.3.3,0,0,1,.147-.079.457.457,0,0,1,.1-.008c.035,0,.054,0,.073,0,.051,0,.121.013.111.052S109.614,236.27,109.576,236.246Z" transform="translate(-83.892 -232.09)"/><path class="a" d="M106.776,235.951c.027-.054.1-.046.158-.05.041,0,.082,0,.077.039-.007.06-.076.063-.141.061C106.827,236,106.779,235.994,106.776,235.951Z" transform="translate(-82.503 -231.533)"/><path class="a" d="M88.252,233.7c-.04,0-.077,0-.074-.044a.106.106,0,0,1,.107-.074c.049,0,.079.025.073.061S88.308,233.7,88.252,233.7Z" transform="translate(-72.129 -227.358)"/><path class="a" d="M105.044,235.814c-.032-.012-.033-.038,0-.054.071-.038.13-.012.21.028A.192.192,0,0,1,105.044,235.814Z" transform="translate(-81.523 -231.228)"/><path class="a" d="M101.194,235.321c-.04,0-.074-.008-.081-.04.013-.039.054-.056.108-.058.036,0,.062.013.057.038A.08.08,0,0,1,101.194,235.321Z" transform="translate(-79.344 -230.298)"/><path class="a" d="M99.316,234.871c-.046,0-.065-.023-.068-.051s.024-.046.081-.049c.031.008.073.019.068.058S99.356,234.872,99.316,234.871Z" transform="translate(-78.304 -229.482)"/><path class="a" d="M149.6,238.123a.091.091,0,0,1-.107-.029c0-.03.03-.048.072-.05s.095.005.107.038S149.634,238.116,149.6,238.123Z" transform="translate(-106.334 -232.602)"/><path class="a" d="M162.991,238.613a.053.053,0,0,1-.059-.06c.007-.022.027-.041.073-.034s.056.018.054.043A.062.062,0,0,1,162.991,238.613Z" transform="translate(-113.829 -233.902)"/><path class="a" d="M226.314,165.455h.762a4.5,4.5,0,0,1-.559.02c-.064,0-.152,0-.153.022s-.08.052-.068.085l.7-.013c.035,0,.085-.007.092.01s-.05.016-.092.016l-.573.007c-.126,0-.243,0-.146.056.022.013-.015.03-.024.045-.033.054-.171.1-.2.147-.047.094-.264.139-.485.173a17.394,17.394,0,0,1-1.89.232c-.031.02-.116.008-.153.024a.182.182,0,0,0,.034,0c.043,0,.089,0,.13,0a.963.963,0,0,1,.445.113c.028.019.119.033.077.059a.429.429,0,0,1-.188.012l-.106.005a.782.782,0,0,1-.193.011.926.926,0,0,1-.24.022c-.061.021-.046.065-.195.059l-.191.025a2.667,2.667,0,0,1-.547.045l-.033,0h0c.054.033.014.062-.061.088.17.019.333.013.493.016a.51.51,0,0,1,.225.036c.224.035.488.033.767.071a2.96,2.96,0,0,1-.333.014c-.108.026-.178.05.034.06.036,0,.085,0,.093.016s-.05.02-.084.026-.081.01-.123.015c0,.008.073.017.017.02a4.128,4.128,0,0,1-.529.037h0c.007.05.164.093.06.149-.023.013.051.038.137.04.039,0,.087.007.042.022-.075.024-.049.046,0,.068s.016.03-.043.034c-.153.009-.115.053-.171.08.115.016.1.074.23.076s.094.027.123.045-.034.024.019.031c.172.022.042.038-.013.054a.681.681,0,0,1-.233.016l-.34.025c-.031.018-.148,0-.143.027s.057.034.126.039a.414.414,0,0,1,.069.01c.081.023.137.045-.019.062-.088.01-.172.023-.261.035a.538.538,0,0,0,.282.056,1.289,1.289,0,0,1,.332.041c.061,0,.129,0,.182.013s.2,0,.178.046-.082.059-.212.059h0a4.376,4.376,0,0,1-.7.118h0a3.031,3.031,0,0,1-.43.058c-.057,0-.124.005-.139.026s-.123.034-.191.05c-.163.038-.468.01-.511.1a.1.1,0,0,1-.045.01c-.271,0-.5.046-.754.06-.308.018-.615.032-.917.062a5.279,5.279,0,0,1-.728.046c-.114.006-.226.014-.341.018-.522.018-1.022.077-1.554.077a4.744,4.744,0,0,1-.589.022c-.452.014-.91.01-1.356.037-.373.023-.743.039-1.124.034-.51.012-1.014.039-1.527.048-.563.01-1.124.036-1.686.054-.165.005-.342-.005-.5.009a12.386,12.386,0,0,1-1.251.044h0a1.353,1.353,0,0,1-.289.023c-.473.014-.952.013-1.418.048-.192.01-.387.01-.58.021a2.793,2.793,0,0,1-.448,0h0a.351.351,0,0,0-.067.01.741.741,0,0,1-.382.031c-.047-.006-.1,0-.15,0l-.083,0h-.069c-.183,0-.362.007-.542.012-.119.023-.265,0-.387.022a1.884,1.884,0,0,1-.31.042c-.176,0-.358,0-.532.012a.3.3,0,0,1-.168-.028c-.277-.005-.542.031-.82.023a.2.2,0,0,0-.065.007c-.066.047-.145.011-.224,0,.011.042.124.073.1.114-.033.058.051.106.121.157a.184.184,0,0,1,.083.148l.108.009.034,0a1.78,1.78,0,0,1,.509-.011h0a2.923,2.923,0,0,0,.426-.046,13.36,13.36,0,0,1,1.749-.069,2.2,2.2,0,0,0,.3-.015,5.4,5.4,0,0,1,.857-.034l.184-.014c.451-.031.908-.051,1.366-.07a.546.546,0,0,1,.308-.046h0a3.233,3.233,0,0,1,.558,0,.119.119,0,0,0,.085-.014.39.39,0,0,1,.255-.025.421.421,0,0,0,.145,0,2.44,2.44,0,0,1,.519-.021h0c.088,0,.178-.008.265-.006.258,0,.48-.045.735-.042h0l.7-.034h.036a2.649,2.649,0,0,1,.4-.007c.04,0,.1,0,.1.022s-.057.017-.1.02-.12,0-.14.02a1.021,1.021,0,0,1-.4.079,1.637,1.637,0,0,0-.472.018,2.043,2.043,0,0,1-.463.009c-.009,0-.022-.007-.02-.009.146-.071-.089-.032-.142-.046l-.12.011h0a4.005,4.005,0,0,1-.839.053,1.856,1.856,0,0,0-.379.022c.09.016.18,0,.273.02h-.312a.378.378,0,0,0-.176.026.714.714,0,0,1-.431.005.6.6,0,0,0-.261-.012c-.084.01.085.02.008.046a3.3,3.3,0,0,0-.672.006l-.327.008a2.624,2.624,0,0,0,.344.05,1.1,1.1,0,0,1-.371.038,2.027,2.027,0,0,0-.338-.011c-.027.035-.094.05-.214.062-.193.019-.214-.041-.33-.053h0a1.788,1.788,0,0,0-.312-.014,1.838,1.838,0,0,1-.39-.008h0l-.3,0h0c-.024.019-.171.007-.119.048a.419.419,0,0,0,.151.039c-.168.01-.324.022-.483.029a.546.546,0,0,1-.226-.012c-.033-.026.115-.017.142-.037,0,0-.005-.007-.018-.022-.146.052-.3-.015-.46.012a1.97,1.97,0,0,1-.356.023c-.117.008-.222.014-.076.055.025.007.045.015.024.025s-.064,0-.1,0c-.158,0-.26-.049-.421-.043a1.269,1.269,0,0,1-.625.037.289.289,0,0,0-.138.008c-.014.006-.013.022,0,.027.143.043-.008.029-.065.032-.11.02-.076.058-.056.078.071.072-.077.067-.216.064a5.367,5.367,0,0,0-.675.026c-.068.007-.137.007-.207.009-.341.008-.684-.031-1.026,0a.527.527,0,0,1-.147-.009,1.026,1.026,0,0,0-.344-.012,3.683,3.683,0,0,1-.383,0c-.26.015-.533,0-.783.013a6.18,6.18,0,0,1-.772-.014c-.259.019-.522.035-.776.059-.164.016-.306-.017-.461-.008-.033.008-.092.015-.1.024-.012.046-.008.046-.141.057h0l-.112.013c.024.037.056.059.2.027a1.873,1.873,0,0,1,.571.044c-.29-.011-.55.02-.824,0-.234-.015-.471.008-.706.017-.064,0-.186.013-.179-.009.012-.038-.059-.023-.093-.02-.082.006-.166.006-.248.01a6.383,6.383,0,0,0-1.059.069.5.5,0,0,1-.075,0c-.165,0-.33.008-.5.017-.605.031-1.215.056-1.821.086-.463.023-.921.058-1.4.051a.7.7,0,0,0-.184.015,2.728,2.728,0,0,1-.684.063c-.2,0-.395.006-.589.026s-.4.023-.61.024c-.516,0-1.031.007-1.546,0-1.269-.006-2.539.008-3.8-.037-.531-.019-1.069-.021-1.6-.045-.782-.036-1.557-.084-2.335-.126a1.818,1.818,0,0,0-.248-.005,5.055,5.055,0,0,1-.684-.011c-.291.014-.571-.032-.86-.017a1.836,1.836,0,0,1-.358-.013,2.046,2.046,0,0,0-.339-.018c-.446.009-.888-.01-1.331-.02-.218,0-.436.008-.654-.006-.325-.021-.644-.052-.988-.048-.192,0-.387-.021-.581-.033-.242,0-.464-.027-.695-.042a1.9,1.9,0,0,1-.317-.013,3.462,3.462,0,0,0-.643-.089,6.177,6.177,0,0,0-1.3-.006.46.46,0,0,1-.277-.032.58.58,0,0,0-.294-.052c-.231-.006-.459-.016-.682-.034l-.956-.026c-.19.009-.365-.019-.551-.022-.04,0-.065-.008-.047-.024.043-.039-.053-.054-.142-.069l-.321-.007,0-.015.318-.005c.1-.021.108-.023.076-.032a1.179,1.179,0,0,0-.317-.064,1.156,1.156,0,0,1-.3-.032,2.737,2.737,0,0,1-.387-.024c-.1,0-.2,0-.3.007-.357.011-.707-.007-1.055-.03h-.018l-.016,0c-.335,0-.668.017-1,.026-.463.013-.925-.008-1.388.014-.343.017-.694.015-1.042,0-.134,0-.265-.016-.4-.013-.667.015-1.334.04-2,.042-.8,0-1.6-.031-2.382-.1-.146.013-.314.016-.433.041a1.181,1.181,0,0,1-.306.018c-.088,0-.156-.016-.057-.046.042-.012.1-.032.066-.045-.115-.047.013-.056.1-.072-.084-.02-.192-.012-.284-.024a1.211,1.211,0,0,1-.135.036h0c-.138.035-.134.054.061.053.067,0,.158,0,.163.022s-.1.025-.164.03c-.192.014-.386.021-.583.018a17.328,17.328,0,0,1-2.1-.041,4.469,4.469,0,0,1,1.1,0c.1-.07-.09-.132-.011-.2.116,0,.114.028.133.044a1.243,1.243,0,0,0,.306.1c.179.056.208-.034.328-.045.1-.031-.065-.05-.042-.074.073-.08.254-.031.4-.028a1.832,1.832,0,0,1,.39-.063l-.259.006c-.039,0-.088,0-.091-.016s.044-.017.083-.02c.084-.005.17-.007.256-.009a2.792,2.792,0,0,0-.755-.065c-.409.014-.814.038-1.228.027-.051.066-.269.084-.4.128,0,.065-.18.089-.315.094a1.577,1.577,0,0,0-.558.133.636.636,0,0,1-.314.065c-.256.012-.5-.005-.747,0-.489.015-.978,0-1.465.013-.122,0-.236,0-.219-.053s-.1-.033-.168-.042c-.15-.021-.083.019-.107.034a.289.289,0,0,1-.163.025l-.173-.013a.6.6,0,0,1-.181.035,1.027,1.027,0,0,1-.393-.014c-.07-.013.062-.033.085-.053-.053-.042-.268-.05-.264-.1.008-.088-.195-.1-.394-.112.005.043-.149.024-.195.047-.073.056.167.024.173.057.023.015.069.04.011.046-.168.017-.1.016,0,.036.069.014.136.053.092.08a.485.485,0,0,1-.256.009,2.229,2.229,0,0,1-.527-.122c.029-.022-.089-.041-.011-.063.187-.054.057-.074-.1-.092a.4.4,0,0,0-.049,0,1.123,1.123,0,0,1-.294-.016c.081-.014.188,0,.223-.032a1.053,1.053,0,0,0-.562.033c-.143.053-.365-.034-.525.032.251.01.265.146.619.094a.384.384,0,0,1,.06.015c.18.04,0,.064-.03.1-.05.06-.126.053-.246.023a.946.946,0,0,1-.512-.031c.074-.028.207-.046.165-.091l-.044-.022c-.069-.034-.38-.047-.107-.112-.035-.01-.038-.039-.082-.045h0a.272.272,0,0,0-.093.011c-.157.04-.276.063-.318-.026a.893.893,0,0,0-.149-.018.825.825,0,0,1-.187.012l-.042.021a.206.206,0,0,1-.022.008.573.573,0,0,1,.144.024,2.322,2.322,0,0,1-.359.009,1.1,1.1,0,0,0-.586-.015.165.165,0,0,1-.144.046,1.165,1.165,0,0,1-.174.069l.223.02a1.315,1.315,0,0,1,.271,0c-.009.056-.195.015-.262.045a.394.394,0,0,0,.049.019c.057.015.136.027.062.054a.278.278,0,0,1-.153.031c-.1-.009-.13-.041-.1-.063s.016-.041-.045-.056h-.1c.038.025.118.059-.023.068s-.115-.041-.157-.066c-.08-.013-.081-.032-.05-.055l-.06-.086a.548.548,0,0,0-.165-.02c-.155.011-.117-.078-.3-.053-.083.019-.222,0-.277.038-.023.052-.168.052-.28.065l0,0h-.02l-.035,0c.007.023-.031.048.048.066a.1.1,0,0,1,.115-.031c.082.026.172.057.17.1s-.067.043-.168.036a2.708,2.708,0,0,0-.309-.016c-.165,0-.258-.023-.094-.071a.248.248,0,0,1-.124-.034,2.171,2.171,0,0,1-.447,0,.784.784,0,0,1-.171.021l-.006,0a.607.607,0,0,1-.328.042c-.122-.015-.081-.056-.115-.087,0,.006-.005.012-.025.02a.276.276,0,0,1-.193.052c-.118-.008-.163-.048-.144-.074s-.01-.043,0-.064a.583.583,0,0,1,.224.025.868.868,0,0,0,.1.018c-.016-.008.045-.029.106-.03s.144,0,.127.022c-.046.056.016.062.1.06a.737.737,0,0,1-.084-.023,1.036,1.036,0,0,1,.344-.024s-.007,0-.01-.006a1.5,1.5,0,0,0-.209-.145,3.436,3.436,0,0,1-.348-.024.256.256,0,0,0-.049.007c.048.051.119.106-.19.086a.189.189,0,0,0-.116.032h0c-.024.008-.05.017-.077.025.031.007.051.017.031.039s-.016.048-.107.054a.487.487,0,0,1-.218-.028c-.024-.047-.2-.061-.217-.107l-.037-.009a.37.37,0,0,1-.126.009h-.007a.954.954,0,0,1-.335.009.014.014,0,0,0,0-.018c-.115,0-.229.01-.344.012a.388.388,0,0,0,.039.052l.008,0c.006,0,0,.006,0,.009s.018.037-.048.045a.356.356,0,0,1-.2-.011c-.109-.077-.208-.028-.31,0-.015.094-.206.04-.337.038a.714.714,0,0,1-.233.03c-.035.046-.122.046-.221.02a.662.662,0,0,0-.183-.036,7.427,7.427,0,0,0-.746.1l.121.037.107-.022a.26.26,0,0,1,.291,0v.036c.007.022.045.049-.042.061a.8.8,0,0,1-.532-.1c-.18-.023.062-.058-.024-.088a.654.654,0,0,1-.422-.035c.015.018.074.03.039.043a1.216,1.216,0,0,1-.5.006c-.188-.008-.065-.037-.02-.059s.01-.03-.037-.036c-.223-.025-.1-.038.016-.053.094-.012.119-.031.057-.06-.023-.011.039-.046-.038-.039a1.409,1.409,0,0,1-.238,0,.141.141,0,0,1,.031.011c.081.05-.158.02-.182.052a.094.094,0,0,1-.052.019l-.122.012c.043.019.011.034-.112.071s.072.032.051.053c.122.058.207.113-.1.142-.143.03-.25.039-.234-.034.007-.03.022-.065-.123-.024a.362.362,0,0,1-.344-.013.688.688,0,0,0-.273,0,1.128,1.128,0,0,1-.414,0,1.34,1.34,0,0,0-.7-.041.693.693,0,0,1-.157.011,1.148,1.148,0,0,0-.592.02,1.033,1.033,0,0,1-.249,0,3.713,3.713,0,0,0-.475-.015c.027.054.158.051.293.053.2,0,.272.049.146.093a1.181,1.181,0,0,1-.665.1.769.769,0,0,1-.306.031,1.062,1.062,0,0,0-.563.078.2.2,0,0,1-.136.01c-.043-.032-.078-.07-.066-.1s.1-.035.209-.028c.078,0,.171-.012.249-.006.206.014.283-.018.32-.071l0-.034-.16-.028a.786.786,0,0,1,.154-.028c.1-.022.242.015.306-.029-.167-.027-.372-.007-.534-.04a4.842,4.842,0,0,1-.681.038c-.173.04-.037.092-.055.139,0,.005,0,.016-.006.016-.295.018-.583.056-.884.048a.4.4,0,0,0-.241.037c.148-.005.278-.015.406-.013.077,0,.192-.017.233.012s-.091.039-.13.06c0,.017,0,.033,0,.05s.074.053-.037.067a.218.218,0,0,1-.192-.042.4.4,0,0,0-.075-.01c-.152.009-.292.01-.333-.05-.177.039-.379-.006-.576.019a3.955,3.955,0,0,1-.723.047,1.392,1.392,0,0,0-.486.037v.022c.035.014.078.027-.011.038a2.469,2.469,0,0,1-.329.012,2.839,2.839,0,0,0-.626.019h0a1.294,1.294,0,0,1-.516,0c-.084,0-.006-.074-.168-.031a.178.178,0,0,1-.217.027,1.036,1.036,0,0,0-.416-.047,1.174,1.174,0,0,1-.283-.01c0-.041.177-.024.186-.064a1.2,1.2,0,0,0-.427-.035,2.461,2.461,0,0,1-.337.009c-.137,0-.06.086-.26.051-.12-.021-.024-.067-.109-.085a2.44,2.44,0,0,0-.731.072.746.746,0,0,1-.361.069.778.778,0,0,0-.38.059c-.07.057-.159.031-.258.013a.859.859,0,0,0-.659.029l-.149-.059a1.407,1.407,0,0,0-.659.017c-.051.08-.214.091-.427.09l-.081-.007c-.3-.022-.357-.042-.215-.079.2-.052-.23-.071-.045-.117a.723.723,0,0,1,.207-.02c.112,0,.22.015.333.018l.086.007s0,0,0,0l-.078-.005c-.174-.008-.356-.014-.233-.093.009-.005-.035-.012-.06-.015-.047,0-.095-.01-.141-.013-.077,0-.152.013-.229.016l-.031.011a2.384,2.384,0,0,1-.773-.041.6.6,0,0,0-.218-.01,7.135,7.135,0,0,1-.921.046c-.12,0-.209.017-.115.061a.061.061,0,0,1,.019.024c.067.019.136.036.214.05h.1c.115.005.1-.023.132-.043a1.29,1.29,0,0,1,.874-.05.489.489,0,0,0,.222.021c.109-.01.222-.014.225.035s.008.087-.206.076a.3.3,0,0,0-.28-.02,1.753,1.753,0,0,1-.447.046c-.16,0-.262.028-.466.042a1.592,1.592,0,0,0,.174.016,4.4,4.4,0,0,1,.48-.035c.082-.013.156,0,.168.026s-.22.11-.332.092a1.811,1.811,0,0,0-.453.006c-.218.015-.41.014-.492-.068a1.533,1.533,0,0,1-.616.035c-.084-.007.011-.067-.141-.036-.029.033-.151.052-.418.064a1.258,1.258,0,0,0-.437.01c-.073.022-.205,0-.192-.021.038-.073-.129-.061-.255-.068a.754.754,0,0,1-.214.017l-.952,0a.591.591,0,0,0-.252.026,1.3,1.3,0,0,0,.207.015c.092.011.271-.01.256.041s-.167.032-.261.027c-.486-.029-.944.1-1.436.022a.094.094,0,0,0-.026,0,2.164,2.164,0,0,1-.49.025c-.305.021-.61-.013-.915,0-.533.015-1.07.019-1.6.048-.139.007-.289,0-.438,0a2.994,2.994,0,0,0-.479-.018c-.308.035-.642,0-.952.032-.069.008-.2-.01-.117-.032.333-.087.151-.142-.091-.2a4.65,4.65,0,0,1-.625.013,4.758,4.758,0,0,1-.573.018c.021.025.164.042.067.074a.643.643,0,0,1-.284,0c-.059-.008-.122-.013-.183-.02l-.054.018a.865.865,0,0,1-.22.071c-.138.035-.134.054.061.053.067,0,.158,0,.163.023s-.1.024-.165.03c-.192.014-.386.021-.583.018a17.365,17.365,0,0,1-2.1-.041,4.476,4.476,0,0,1,1.1,0c.1-.07-.09-.132-.011-.2.116,0,.114.028.133.044a1.243,1.243,0,0,0,.307.1c.179.056.207-.034.327-.045.1-.031-.065-.05-.042-.074.073-.08.254-.031.4-.028a2.2,2.2,0,0,1,.417-.067l.052,0c.005,0,.011-.006.009-.007a2.606,2.606,0,0,0-.853-.089c-.409.014-.814.038-1.228.027-.051.066-.269.084-.4.128h0c0,.065-.18.09-.315.094a1.581,1.581,0,0,0-.557.133.634.634,0,0,1-.315.066c-.256.012-.5-.005-.747,0-.49.015-.978,0-1.465.012-.122,0-.236,0-.219-.053s-.1-.032-.168-.042c-.15-.022-.083.019-.107.034a.288.288,0,0,1-.163.025l-.173-.013a.583.583,0,0,1-.181.035,1.019,1.019,0,0,1-.392-.014c-.07-.013.061-.033.085-.053-.053-.042-.269-.049-.264-.1.008-.088-.195-.1-.394-.112.005.043-.149.024-.195.047-.073.056.167.024.173.057.023.015.069.04.011.046-.168.017-.1.016,0,.036.069.014.136.053.092.08a.484.484,0,0,1-.256.009,2.217,2.217,0,0,1-.527-.122c.028-.022-.089-.041-.011-.063.187-.054.056-.074-.1-.092a.372.372,0,0,0-.049,0,1.124,1.124,0,0,1-.294-.016c.08-.014.188,0,.223-.032a1.056,1.056,0,0,0-.562.033c-.143.053-.365-.034-.524.032.25.01.265.146.619.094a.422.422,0,0,1,.061.016c.18.039,0,.064-.031.1-.05.06-.126.053-.246.023a.944.944,0,0,1-.511-.031c.074-.028.207-.046.164-.091l-.044-.022c-.07-.034-.381-.047-.108-.112-.035-.01-.038-.039-.082-.045h0a.275.275,0,0,0-.093.012c-.157.04-.276.063-.318-.026a.9.9,0,0,0-.149-.018c-.118.027-.269,0-.433.021a3.123,3.123,0,0,1,.326.045,2.357,2.357,0,0,1-.359.009,1.265,1.265,0,0,0-.674,0,.724.724,0,0,1-.23.1l.223.02a1.3,1.3,0,0,1,.271.005c-.009.056-.195.015-.261.045a.394.394,0,0,0,.049.019c.057.015.136.027.062.054a.277.277,0,0,1-.153.031c-.1-.009-.13-.041-.1-.062s.016-.041-.045-.056h-.1c.038.025.118.059-.023.068s-.115-.041-.157-.066c-.08-.013-.082-.032-.051-.055l-.06-.086a.55.55,0,0,0-.165-.02c-.155.011-.117-.078-.3-.053-.084.019-.222,0-.278.038-.027.061-.226.048-.338.073.007.022-.031.048.048.066a.1.1,0,0,1,.115-.031c.082.026.172.057.17.1s-.068.043-.168.036a2.714,2.714,0,0,0-.309-.016c-.165,0-.258-.023-.094-.071a.249.249,0,0,1-.124-.034,2.167,2.167,0,0,1-.447,0,.693.693,0,0,1-.4-.016,1.2,1.2,0,0,1,.409-.02l.555,0,.078-.013c.034-.047.19-.057.282-.086.02-.06-.167-.042-.237-.047-.43-.026-.881.026-1.308-.029a.247.247,0,0,0-.049.008c.048.051.119.106-.19.086a.188.188,0,0,0-.116.032h0a.348.348,0,0,1-.255.024c-.069-.026-.068-.07.068-.1.056-.01.158-.013.124-.046-.039-.006-.033-.022-.051-.027-.065-.018.146-.057-.059-.062-.118,0-.185.006-.173.045s-.072.022-.129.028a5.057,5.057,0,0,1-.733-.032,1.8,1.8,0,0,1-.566-.043c-.118,0-.191.021-.208.058-.007.015-.026.03-.084.028s-.071-.015-.072-.031c0-.08-.165-.073-.33-.051a1.01,1.01,0,0,1-.321,0,.823.823,0,0,0-.355-.015c-.045.01-.11,0-.118-.025s.023-.026.079-.029c.326-.013.651-.03.978-.037.08,0,.282.011.249.034-.082.056.053.044.126.055.017-.06.24-.086.3-.066a.921.921,0,0,0,.452.019c.264-.03.58-.019.887-.025-.091-.046-.207-.094.071-.119.123-.011.084-.04.038-.063a.315.315,0,0,0-.192-.007c-.073.013-.066.051-.18.048-.032.01-.068.019-.094.03a.254.254,0,0,1-.155.027c-.05-.006-.058-.022-.045-.037.028-.031.1-.028.18-.021a.24.24,0,0,0,.054-.013c-.019-.057-.3-.032-.309-.091s-.2-.041-.222-.026a.785.785,0,0,1-.5.031c-.113-.011-.282,0-.244.037s.05.1.276.086c.069,0,.17,0,.142.038a.335.335,0,0,1-.208.031c-.252-.041-.53-.01-.785-.035-.1-.01-.275-.005-.256-.046s.179-.027.287-.02c.072,0,.142.016.213.016.1,0,.235.016.291-.03a8.934,8.934,0,0,0-.941-.028c-.234-.009-.422,0-.32-.109a.363.363,0,0,1-.26.033c-.1-.02.023-.039.032-.06s.083-.079.034-.077a5.549,5.549,0,0,0-.6-.047c-.047.006-.134,0-.129.02s.076.022.118.033c.131.02.328.028.178.1a2.715,2.715,0,0,1-.589.038c-.055-.012-.052-.028-.04-.046a.575.575,0,0,0,.032-.068c-.2-.008-.393-.014-.586-.026-.115-.007-.274.033-.337-.012s.2-.026.2-.068a.5.5,0,0,0-.187-.014,2.97,2.97,0,0,1-.537,0,2.77,2.77,0,0,0-.78.027,1.463,1.463,0,0,1-.417.055,3.325,3.325,0,0,1-.83-.064.626.626,0,0,0-.184,0,1.911,1.911,0,0,1-.671-.093c.044-.024-.007-.074.158-.067a6.745,6.745,0,0,1,.727.02,3.067,3.067,0,0,0,.481.023c-.1-.018-.24-.023-.218-.058s.151-.027.243-.03c.311-.013.622.027.935,0,.075-.007.12.016.126.038.014.048.119.049.242.052.261.008.5-.033.761-.027.087,0,.1-.019.061-.043a.872.872,0,0,0-.513-.054c.045.016.112.028.113.052s0,.035-.073.042-.139.01-.143-.01c-.006-.036-.108-.06-.146-.092l-.075-.021c-.643-.017-1.288-.013-1.933-.019-.117,0-.169.019-.181.053s-.044.045-.138.047a.373.373,0,0,1-.165-.028l0,0c0,.051-.08.056-.321.053-.1-.014-.2-.034-.234.022-.022.028.3.053.012.084-.01.025-.007.049.049.069.145.02.19.067.09.089a1.531,1.531,0,0,1-.591-.024c.208,0,.275-.029.278-.082-.022-.074-.227-.041-.35-.056-.135.009-.206-.038-.333-.035-.208-.027-.182.021-.181.055,0,.065-.071.088-.272.051-.05.041-.052.1-.269.029a1.765,1.765,0,0,1-.253-.074.488.488,0,0,0-.263-.039.878.878,0,0,1-.6-.075,2.6,2.6,0,0,1-.667-.074c.038-.016.134,0,.154-.029-.055-.029-.2-.049-.084-.1a1.494,1.494,0,0,0,.419.046.764.764,0,0,1,.4-.021h0l0,.017h0c.3.017.2-.042.182-.087.007-.043-.078-.037-.183-.043-.182-.01-.288.052-.466.034-.4-.041-.837-.039-1.238-.085-.144-.017-.317.024-.47-.008a1.631,1.631,0,0,1-.259-.027c-.19-.007-.188-.01-.2-.06a5.764,5.764,0,0,1,.669.026.771.771,0,0,1,.129-.009.387.387,0,0,0,.226,0c.118-.054.2-.106-.095-.134-.005,0-.006-.005-.008-.008a8.2,8.2,0,0,0-.823-.043c-.006,0-.03.007-.047.008-.056,0-.108-.006-.107-.019,0-.079-.19-.063-.314-.053-.162.013-.279-.062-.44-.014-.119.086-.486,0-.621.082a.129.129,0,0,1-.09-.024c-.041-.073-.16-.039-.271-.019.056.035.008.038-.1.034-.245-.011-.266-.1-.464-.123h0a2.714,2.714,0,0,0-.338.019c-.073.018-.114.01-.128-.017-.142-.044-.387-.02-.518-.071l-.287.005c.039.077.258.061.395.084.093.016-.025.1.249.061a2.666,2.666,0,0,0-.3.058c.016.024.055.033.13.018a1.217,1.217,0,0,0,.45-.063c.011.041,0,.066.06.082.1.046.038.068-.126.065a.738.738,0,0,0-.156-.011,2.872,2.872,0,0,1-.743-.021,1.581,1.581,0,0,0-.3,0c-.125,0-.226,0-.234-.051h0c-.111-.022.084-.06-.031-.074a.358.358,0,0,1-.224-.094,1.223,1.223,0,0,0-.638-.1.4.4,0,0,1-.256-.008,1.289,1.289,0,0,0-.184-.04c-.112-.01-.233-.011-.351-.016.012.033.011.067.042.1.015.016.124.023.075.048a.428.428,0,0,1-.16.009c-.082,0-.135-.017-.13-.047s0-.07-.17-.039c-.051.009-.066,0-.052-.015.046-.041-.036-.039-.118-.031a2.242,2.242,0,0,1-.62-.03c-.127-.024-.3.033-.375-.029a4.121,4.121,0,0,0-.568-.038h0c-.355-.023-.707-.049-1.065-.066-.18-.009-.27-.03-.26-.086l-1.208-.088a.7.7,0,0,0-.109,0,.594.594,0,0,1-.447-.023.9.9,0,0,0-.337-.052c-.082,0-.177,0-.191-.033l-.16-.021a.785.785,0,0,1-.36-.053c.18.035.406,0,.58.037l.558.021a1.806,1.806,0,0,1,.358.032v-.018c.034-.063-.17-.131-.422-.14a1.235,1.235,0,0,1-.559-.088c.112.007.235.01.349.022.267.028.56.03.8.079a2.839,2.839,0,0,1,.344.022c.259.012.516.026.776.036.227.009.288-.023.195-.085-.138-.012-.28-.027-.407-.043a2.758,2.758,0,0,1-.517-.046,2.139,2.139,0,0,0-.214-.021c-.538,0-1.016-.082-1.537-.108a3.659,3.659,0,0,1-.55-.062h0c-.122-.006-.243-.013-.365-.018a2.469,2.469,0,0,1-.6-.056c-.045-.015-.145-.027-.092-.052a.475.475,0,0,1,.208-.013c.252.023.515.038.756.069.32.041.692.034.98.1.459,0,.852.089,1.313.083a.7.7,0,0,1,.119.02c.355.048.746.054,1.116.088a6.178,6.178,0,0,0,1.235.042.5.5,0,0,1,.219.031,9.985,9.985,0,0,1,1.156.049h0a3.478,3.478,0,0,1,.685.036l.565.037a7.31,7.31,0,0,0,1.221-.053l-.126-.035c-.393-.015-.783-.029-1.171-.059a8.1,8.1,0,0,0-.965-.047c-.184.007.044-.059-.081-.078-.019,0-.073-.013.017-.015a4.164,4.164,0,0,1,.491-.009c.21.019.436.017.642.034.416.033.855-.029,1.257.037a.442.442,0,0,0,.207-.018,6.683,6.683,0,0,0-.8-.077,2.12,2.12,0,0,1-.575-.064c-.147.008-.288.01-.442.006-.356-.009-.709-.019-1.051-.048-.474-.041-.969-.045-1.444-.081-.254-.019-.27-.026-.368-.088a8.667,8.667,0,0,0,1.013.061c.7.035,1.38.107,2.1.108.076,0,.171.008.252,0l.058,0c.057-.008.1-.025.106-.062a10.6,10.6,0,0,1-1.107-.037c-.217-.033-.563-.023-.852-.035-.7-.028-1.4-.075-2.1-.106-.281-.04-.616-.017-.9-.067.046-.022.254-.013.1-.056a1.427,1.427,0,0,0-.285-.018.625.625,0,0,1-.536-.029.108.108,0,0,0-.065-.008c-.122.015-.266-.006-.382.02a.707.707,0,0,1-.57-.12,2.665,2.665,0,0,1-.537-.038.258.258,0,0,0-.183.013c-.069.062-.063.063-.253.027a4.2,4.2,0,0,1-.742-.043c-.073,0-.119-.036-.053-.064.015-.021.091-.022.13-.035l-.009,0a4.394,4.394,0,0,0-.637-.05,1.954,1.954,0,0,1-.52-.052c-.287.073-.285.072-.5-.024a.229.229,0,0,0-.157-.013c-.141.085-.226.008-.406,0,.176-.011.279-.019.254-.062l-.216-.037a1.21,1.21,0,0,1-.473-.07,3.119,3.119,0,0,1,.518.036h0l.115,0c.005-.031,0-.062-.056-.09h0c-.254-.011-.385-.09-.631-.105h0a.954.954,0,0,1-.4-.085c-.115-.014-.187.054-.264.025-.174-.066-.462-.061-.654-.112h0a.769.769,0,0,1-.413-.015,2.415,2.415,0,0,0-.61-.045c-.131,0-.231.01-.291-.039-.041-.033-.11-.046-.138.005-.01.018-.047.016-.079.006a3.425,3.425,0,0,0-.667-.083,1.11,1.11,0,0,1-.4-.071.907.907,0,0,0-.245-.036,4.445,4.445,0,0,1-1.136-.105c-.148-.009-.331-.054-.521-.065a.634.634,0,0,1-.255-.041c-.229-.048-.532-.047-.748-.1-.107-.009-.26-.009-.254-.054s.162-.019.247-.028a3.223,3.223,0,0,1,.63.04c.638.038,1.218.126,1.834.183.344.032.684.074,1.039.076a.7.7,0,0,1,.341.046c.157.026.317.046.49.063.393.039.824.04,1.187.108a7.027,7.027,0,0,1,.9.073h.48c.095,0,.239.038.271,0s-.157-.044-.256-.06c-.056-.008-.134,0-.193-.011-.115-.015-.268-.015-.3-.066-.227-.028-.468-.044-.7-.065a2.073,2.073,0,0,1-.652-.106c-.176-.134-.629-.186-.84-.3-.125-.071-.418-.087-.556-.155-.512-.141-.983-.294-1.434-.453-.118-.01-.172-.048-.185-.072-.081-.148-.489-.254-.533-.405-.009-.031-.036-.064-.139-.082a.184.184,0,0,1-.1-.027c-.215-.118.008-.222.151-.32a1.161,1.161,0,0,1,.53-.209,4.518,4.518,0,0,1,1.054-.21,6.3,6.3,0,0,0,.692-.1c.455-.1.978-.146,1.491-.2a11.58,11.58,0,0,0,1.441-.22c-.619-.027-1.158-.109-1.757-.091.036.021.215.005.153.045a.762.762,0,0,1-.239,0c-.132,0-.13-.023-.092-.051-.369,0-.738.014-1.1-.014a2.805,2.805,0,0,0-.421.015c-.112.008-.2.02-.173.07.008.015.051.052-.09.083a5.214,5.214,0,0,1-.839.052,14.424,14.424,0,0,1-2.668-.136,2.677,2.677,0,0,0-.355-.008,3.094,3.094,0,0,1-.808,0c.28-.016.508-.032.738-.041a1.39,1.39,0,0,0,.27-.03c-.116-.028.048-.066-.02-.086a.808.808,0,0,0-.3,0,.935.935,0,0,1-.391-.025c.26-.017.476-.04.7-.044.279-.006.249-.065.242-.115s-.166-.036-.279-.036H51.9a6.625,6.625,0,0,1,.826-.03c.094,0,.224,0,.225-.033s.118-.076.1-.126l-1.031.02c-.053,0-.126.011-.137-.014s.075-.023.136-.024c.283,0,.565-.008.847-.01.186,0,.359,0,.217-.082-.032-.019.022-.044.035-.067.048-.08.252-.146.288-.217.07-.139.39-.205.718-.255a25.618,25.618,0,0,1,2.793-.343c.046-.029.172-.011.226-.035a.31.31,0,0,0-.05,0c-.065,0-.132,0-.193,0a1.424,1.424,0,0,1-.658-.167c-.042-.028-.176-.049-.113-.086a.626.626,0,0,1,.278-.018l.156-.008a1.147,1.147,0,0,1,.285-.016,1.351,1.351,0,0,1,.355-.032c.089-.031.068-.1.288-.087l.282-.037a3.9,3.9,0,0,1,.808-.067l.049,0c-.08-.049-.021-.091.09-.13-.252-.028-.492-.019-.728-.023a.748.748,0,0,1-.332-.054c-.33-.052-.721-.049-1.134-.105a4.351,4.351,0,0,1,.492-.02c.161-.039.264-.074-.05-.089-.054,0-.125-.006-.137-.024s.073-.029.123-.039.12-.015.181-.022c0-.011-.107-.025-.025-.029a6.109,6.109,0,0,1,.782-.054h0c-.011-.074-.242-.137-.088-.221.034-.019-.076-.056-.2-.059-.058,0-.128-.011-.063-.032.111-.036.073-.068,0-.1s-.023-.045.064-.05c.226-.013.171-.079.253-.119-.17-.023-.147-.11-.34-.112s-.14-.041-.182-.066c-.024-.014.05-.036-.028-.046-.255-.033-.061-.056.019-.08a1,1,0,0,1,.344-.023l.5-.037c.045-.027.219,0,.211-.04s-.084-.05-.186-.058a.587.587,0,0,1-.1-.015c-.118-.033-.2-.066.028-.092.13-.015.254-.034.386-.052a.8.8,0,0,0-.417-.083,1.909,1.909,0,0,1-.49-.06c-.091-.006-.191-.007-.269-.019-.1-.016-.3-.006-.263-.068s.122-.087.313-.087h0a6.465,6.465,0,0,1,1.03-.175h0a4.47,4.47,0,0,1,.636-.086c.084-.005.183-.008.206-.038.037-.048.182-.051.282-.074.24-.056.692-.015.755-.151a.151.151,0,0,1,.067-.014c.4,0,.737-.068,1.115-.089.455-.026.909-.048,1.355-.092a7.75,7.75,0,0,1,1.076-.068c.168-.009.335-.021.5-.027.772-.026,1.511-.114,2.3-.113.054-.007.109-.011.164-.016a2.222,2.222,0,0,1-.25-.038,1.37,1.37,0,0,1-.43-.094l-.331.028a4.02,4.02,0,0,1-.445.04,7.062,7.062,0,0,1-.811.067h0a5.984,5.984,0,0,1-.8.074,2.719,2.719,0,0,1-.725.032.738.738,0,0,0-.107.009c-.249.019-.5.039-.746.054-.1.006-.264.02-.288-.027s.122-.064.238-.072.266-.007.4,0a1.571,1.571,0,0,0,.8-.13.719.719,0,0,1,.317-.044,4.895,4.895,0,0,0,.676-.02h0c.08-.107.358-.083.6-.084.057,0,.113,0,.169,0,.325.012.413-.008.469-.106.008-.014.032-.02.074-.02.15,0,.283-.023.445-.016l.187.011a4.6,4.6,0,0,0-.471-.054.642.642,0,0,1-.4-.085.539.539,0,0,0-.334-.082c-.064,0-.122,0-.113-.028s-.056-.059-.084-.089c-.244-.037-.383-.114-.622-.153-.047-.008-.048-.027-.075-.039a.759.759,0,0,0-.359-.13,5.722,5.722,0,0,1-.977-.209,2.951,2.951,0,0,0-.341-.074c-.144-.017-.229-.055-.192-.1.064-.074-.034-.122-.191-.171-.062-.019-.119-.045-.175-.065a.952.952,0,0,0-.357-.1,1.133,1.133,0,0,1-.258-.042,4.089,4.089,0,0,1-.593-.114c-.062-.015.006-.087-.2-.044,0,0-.025-.009-.042-.011-.244-.023-.253-.1-.376-.151-.091-.038-.018-.048.09-.051.043,0,.088,0,.133.005a.67.67,0,0,0,.414-.069.1.1,0,0,1,.042-.01.639.639,0,0,0,.246-.026.365.365,0,0,0,.212-.094.822.822,0,0,1,.405-.148h0c.015-.025.027-.029.149-.035.056,0,.144,0,.138-.021-.011-.043.08-.089,0-.128-.146-.072.078-.1.177-.138s.094.027.159.036a.374.374,0,0,0,.057,0,4.338,4.338,0,0,1,.489.04,4.588,4.588,0,0,0,.52.018,2.168,2.168,0,0,1,.462.006c.046.008.1.011.125-.01s.077-.067.08-.1c0-.05.07-.073.233-.071.079-.019.218-.012.242-.055.008-.014.042-.013.069,0a.82.82,0,0,0,.505-.013.136.136,0,0,0,.049-.1c.008-.063.195-.1.462-.066a1.2,1.2,0,0,0-.294.049c.063.045.16.024.251.016.066,0,.138-.075.2,0,.008.01.054.006.085.005.051,0,.031-.011.034-.02.032-.084.1-.1.38-.106a1.534,1.534,0,0,0,.317-.028.579.579,0,0,1,.3.012.51.51,0,0,0,.268.05c.018-.019.114-.023.1-.047-.034-.057.1-.041.193-.041.032,0,.08.02.1.009.093-.058.207-.009.289,0a.557.557,0,0,1,.215.044c.011.008-.017.014-.041.017a1.059,1.059,0,0,1-.277-.008.443.443,0,0,1-.052-.016.217.217,0,0,0-.12,0c-.069.03-.207.039-.249.077-.011.011-.034.024.036.024.09-.026.219,0,.315-.025.115-.026.264,0,.386-.023a.094.094,0,0,1,.056-.009c.042.038.133.028.219.022s.175-.012.257-.022.084-.037.006-.045c-.13-.014-.2-.037-.219-.079,0-.012-.084,0-.058-.021a.2.2,0,0,1,.1-.01,5.114,5.114,0,0,0,.528.011.329.329,0,0,1,.2.018c-.073-.051-.04-.068.119-.051a.126.126,0,0,0,.075-.026l.07-.035a.131.131,0,0,1,.1-.013,1.278,1.278,0,0,0,.437.012c.042-.055.081-.062.2-.033-.014.029.038.037.121.034a1.108,1.108,0,0,1,.3.023c.068.011.036.03.037.046v.024c.1.01.047.04.089.058a1.007,1.007,0,0,0,.308-.021.114.114,0,0,0,.026,0c0-.011.013-.022-.019-.032-.139-.045-.137-.045.066-.065a1.243,1.243,0,0,1,.142-.012l-.1-.026c-.067-.017-.032-.037-.017-.056.138.027.16-.039.274-.032a.6.6,0,0,0,.24.024c.041-.006.079-.035.117,0a1.083,1.083,0,0,0,.145.1.125.125,0,0,0,.081.024,1.15,1.15,0,0,0,.465-.012c-.191-.048.034-.058.082-.084-.045-.013-.159-.007-.126-.043.014-.015.011-.033.073-.036a.327.327,0,0,1,.147.019c.016.032.137.041.147.072.034.007.065.024.107,0a.585.585,0,0,1,.235-.009c-.029.034.139.042.108.076a.155.155,0,0,1-.031.006c-.1.019-.281,0-.294.056a.312.312,0,0,0,.091,0c.373-.038.42-.062.329-.168-.012-.013-.023-.029.029-.036a.242.242,0,0,1,.135.007c.074.052.141.019.21,0,.01-.063.14-.027.228-.025a.481.481,0,0,1,.157-.021c.023-.031.082-.031.149-.014a.443.443,0,0,0,.124.024,5.037,5.037,0,0,0,.5-.07h0l-.081-.025-.073.015a.175.175,0,0,1-.2,0v-.024c0-.015-.03-.033.029-.041a.54.54,0,0,1,.36.066c.122.016-.042.039.017.059a.441.441,0,0,1,.286.024c-.011-.013-.05-.02-.027-.03a.83.83,0,0,1,.336,0c.127.006.044.025.013.04s-.007.02.025.024c.151.017.067.026-.011.036s-.081.021-.039.04c.015.007-.026.031.026.026a2.211,2.211,0,0,1,.386.022.184.184,0,0,0,.119-.024c.021-.013,0-.027-.04-.036-.132-.032-.133-.035-.008-.073.089-.021-.049-.021-.034-.036-.083-.039-.14-.076.069-.1.1-.021.169-.026.158.023,0,.02-.015.044.083.016a.245.245,0,0,1,.233.009.465.465,0,0,0,.185,0,.761.761,0,0,1,.28,0,.908.908,0,0,0,.471.028.474.474,0,0,1,.107-.008.776.776,0,0,0,.4-.013.714.714,0,0,1,.169,0,2.587,2.587,0,0,0,.321.01c-.018-.037-.107-.035-.2-.036-.133,0-.184-.033-.1-.063a.8.8,0,0,1,.45-.068.525.525,0,0,1,.207-.021.719.719,0,0,0,.381-.053.138.138,0,0,1,.092-.007c.029.022.053.047.044.07s-.07.023-.141.019c-.053,0-.116.008-.168,0-.139-.009-.191.012-.216.048l0,.023.108.019a.534.534,0,0,1-.1.019c-.065.015-.164-.01-.207.02.113.018.252,0,.362.027a3.25,3.25,0,0,1,.461-.026c.117-.028.025-.062.037-.094,0,0,0-.011,0-.011.2-.012.394-.038.6-.033a.271.271,0,0,0,.163-.025c-.1,0-.188.01-.275.009-.052,0-.13.011-.157-.008s.062-.026.088-.041c0-.011,0-.023,0-.034s-.05-.036.025-.045a.148.148,0,0,1,.13.029.265.265,0,0,0,.05.007c.1-.006.2-.007.226.034.12-.026.257,0,.39-.013a2.681,2.681,0,0,1,.489-.031.943.943,0,0,0,.328-.025v-.015c-.024-.009-.054-.018.007-.025a1.681,1.681,0,0,1,.222-.009,1.923,1.923,0,0,0,.424-.012h0a.876.876,0,0,1,.349,0c.057,0,0,.05.114.021a.121.121,0,0,1,.147-.018.7.7,0,0,0,.282.032.791.791,0,0,1,.191.006c0,.027-.12.016-.126.043a.81.81,0,0,0,.289.024,1.707,1.707,0,0,1,.228-.006c.092,0,.04-.058.175-.035.081.014.017.046.074.058a1.654,1.654,0,0,0,.494-.048.506.506,0,0,1,.245-.047.524.524,0,0,0,.257-.04c.047-.038.108-.021.175-.008a.582.582,0,0,0,.446-.02l.1.04a.956.956,0,0,0,.446-.012c.035-.054.145-.062.289-.061l.055,0c.205.015.242.029.145.054-.135.035.156.048.031.079a.484.484,0,0,1-.14.013c-.076,0-.149-.01-.225-.012l-.058,0s0,0,0,0l.053,0c.118.005.241.01.158.063-.006,0,.024.008.041.01l.1.009c.052,0,.1-.009.155-.011l.021-.007a1.611,1.611,0,0,1,.524.028.4.4,0,0,0,.147.007,4.848,4.848,0,0,1,.623-.031c.082,0,.142-.011.078-.041a.039.039,0,0,1-.013-.016c-.045-.013-.092-.025-.145-.034h-.07c-.078,0-.069.016-.089.029a.871.871,0,0,1-.591.034.33.33,0,0,0-.15-.014c-.074.007-.15.01-.152-.023s0-.059.139-.051a.2.2,0,0,0,.19.013,1.2,1.2,0,0,1,.3-.031c.108,0,.177-.019.315-.028a1.141,1.141,0,0,0-.118-.01,2.928,2.928,0,0,1-.325.024c-.055.009-.106,0-.114-.017s.149-.074.225-.062a1.223,1.223,0,0,0,.306,0c.148-.01.278-.009.333.046a1.037,1.037,0,0,1,.417-.024c.057,0-.008.045.1.025.02-.023.1-.035.283-.044a.844.844,0,0,0,.3-.007c.049-.015.138,0,.13.015-.026.049.087.041.173.046a.51.51,0,0,1,.145-.011l.644,0a.4.4,0,0,0,.17-.018.9.9,0,0,0-.141-.01c-.062-.007-.183.007-.173-.028s.113-.022.177-.018c.329.02.639-.066.971-.015l.018,0a1.449,1.449,0,0,1,.332-.017c.206-.015.413.008.619,0,.361-.01.723-.013,1.082-.032.095,0,.2,0,.3,0a2.013,2.013,0,0,0,.324.012c.208-.024.435,0,.644-.022.046-.006.138.006.079.022-.225.058-.1.1.061.135a36.38,36.38,0,0,0,.811-.021c-.014-.017-.111-.028-.045-.05a.437.437,0,0,1,.192,0c.04.006.082.009.124.013l.037-.012a.577.577,0,0,1,.149-.048c.094-.023.09-.036-.041-.036-.046,0-.107,0-.111-.015s.065-.017.111-.02c.13-.01.261-.014.394-.012a11.69,11.69,0,0,1,1.418.028,3.023,3.023,0,0,1-.743,0c-.068.046.054.088.008.13a1.1,1.1,0,0,1,.186-.012c.06,0,.121,0,.115.026-.011.04-.112.042-.208.04-.064,0-.135,0-.14-.033a.1.1,0,0,1,.039-.019c-.069,0-.069-.019-.082-.029a.833.833,0,0,0-.207-.067c-.121-.038-.141.023-.222.03s.044.034.029.05c-.05.054-.172.021-.268.019a.96.96,0,0,1-.237.04,1.417,1.417,0,0,1,.143.026.505.505,0,0,1-.079.016,2.025,2.025,0,0,0,.428.031c.277-.009.551-.026.831-.019.035-.045.182-.057.268-.086h0c0-.044.122-.061.214-.063a1.064,1.064,0,0,0,.377-.09.431.431,0,0,1,.213-.044c.173-.008.341,0,.505,0,.331-.01.662,0,.991-.008.082,0,.16,0,.148.036s.068.022.114.028c.1.015.056-.013.073-.023a.193.193,0,0,1,.11-.017l.117.009a.4.4,0,0,1,.122-.023.69.69,0,0,1,.266.009c.047.009-.042.023-.058.036.036.029.182.034.179.067,0,.006.006.009.008.014a1.285,1.285,0,0,0,.251-.025c-.007-.007-.008-.013.015-.016l.054-.006.012-.005c-.007,0-.034-.006-.065-.013-.047-.01-.092-.036-.062-.054a.331.331,0,0,1,.173-.006,1.483,1.483,0,0,1,.356.083c-.019.015.06.028.008.043-.126.036-.038.05.07.062l.033,0a1,1,0,0,1,.158.006c.181-.015.362-.029.546-.031a.637.637,0,0,1-.078-.024.434.434,0,0,1-.2-.013c-.008-.006-.006-.011,0-.015a.484.484,0,0,0-.061,0,.26.26,0,0,1-.041-.01c-.122-.027,0-.043.02-.066.034-.041.085-.036.166-.016a.388.388,0,0,1,.044-.008c-.005-.023-.069-.051.038-.065a.218.218,0,0,1,.192.043.427.427,0,0,0,.075.01c.152-.009.292-.01.333.05.011,0,.023,0,.034,0-.006-.013-.007-.024.077-.018.032,0,.073,0,.1.007a2.549,2.549,0,0,0,.363,0,3.993,3.993,0,0,1,.723-.046,1.394,1.394,0,0,0,.486-.036v-.022c-.035-.014-.079-.027.011-.038a2.5,2.5,0,0,1,.329-.012,2.821,2.821,0,0,0,.626-.019h0a1.3,1.3,0,0,1,.516,0c.084,0,.006.074.168.031a.178.178,0,0,1,.218-.027,1.036,1.036,0,0,0,.416.047,1.176,1.176,0,0,1,.282.009c0,.041-.176.024-.186.064a1.2,1.2,0,0,0,.427.035,2.478,2.478,0,0,1,.337-.009c.137,0,.06-.086.26-.051.12.021.024.067.109.085a2.44,2.44,0,0,0,.731-.071.742.742,0,0,1,.361-.069.78.78,0,0,0,.38-.059c.07-.057.159-.031.257-.013a.861.861,0,0,0,.659-.029l.148.059a1.413,1.413,0,0,0,.659-.017c.051-.081.214-.092.427-.09l.081.007c.3.022.357.042.215.079-.2.052.23.071.045.117a.725.725,0,0,1-.207.02c-.112,0-.22-.015-.333-.018l-.086-.007s0,0,0,0l.078.005c.174.008.356.014.233.093-.008.006.035.012.061.015.047,0,.095.01.142.013.077,0,.152-.013.229-.016l.031-.011a2.389,2.389,0,0,1,.774.041.6.6,0,0,0,.218.01,7.062,7.062,0,0,1,.921-.046c.121,0,.209-.017.116-.061a.06.06,0,0,1-.019-.024c-.067-.019-.136-.036-.214-.05h-.1c-.115-.005-.1.023-.132.043a1.289,1.289,0,0,1-.873.05.488.488,0,0,0-.222-.021c-.11.01-.222.015-.225-.035s-.008-.087.206-.076a.3.3,0,0,0,.28.02,1.755,1.755,0,0,1,.447-.046c.16,0,.262-.028.465-.042a1.6,1.6,0,0,0-.173-.015,4.359,4.359,0,0,1-.48.035c-.082.013-.156,0-.168-.026s.219-.11.332-.092a1.808,1.808,0,0,0,.453-.006c.219-.015.411-.014.492.068a1.533,1.533,0,0,1,.616-.035c.083.007-.011.067.141.036.029-.033.151-.052.419-.064a1.257,1.257,0,0,0,.437-.01c.073-.022.205,0,.191.021-.038.073.129.061.256.068a.749.749,0,0,1,.214-.016c.317,0,.635,0,.952,0a.6.6,0,0,0,.252-.026,1.3,1.3,0,0,0-.208-.016c-.091-.011-.271.01-.255-.041s.166-.032.261-.027c.486.029.944-.1,1.436-.022a.1.1,0,0,0,.026,0,2.166,2.166,0,0,1,.49-.025c.3-.021.61.013.914,0,.534-.015,1.07-.02,1.6-.048.14-.007.289,0,.439,0a3.005,3.005,0,0,0,.479.018c.308-.035.643,0,.952-.032.069-.008.2.01.117.032-.333.087-.15.142.091.2a56.722,56.722,0,0,0,1.2-.03c-.021-.025-.164-.042-.067-.074a.644.644,0,0,1,.284,0c.059.008.122.013.183.02l.054-.018a.875.875,0,0,1,.22-.071c.138-.035.133-.054-.061-.053-.067,0-.158,0-.164-.022s.1-.024.165-.03c.192-.014.386-.021.583-.018a17.331,17.331,0,0,1,2.1.041,4.461,4.461,0,0,1-1.1,0c-.1.07.091.132.011.2-.116,0-.113-.028-.132-.044a1.254,1.254,0,0,0-.307-.1c-.179-.056-.208.034-.327.045-.1.031.065.05.042.074-.073.08-.254.031-.4.028a2.2,2.2,0,0,1-.417.067l-.053,0s-.011.006-.008.007a2.606,2.606,0,0,0,.853.089c.409-.014.814-.038,1.228-.027.051-.066.269-.084.4-.128h0c0-.065.18-.09.315-.094a1.581,1.581,0,0,0,.557-.133.632.632,0,0,1,.315-.065c.256-.013.5,0,.747,0,.49-.015.978,0,1.465-.013.122,0,.236,0,.219.053s.1.033.168.042c.15.022.083-.02.107-.034a.289.289,0,0,1,.163-.025l.173.013a.578.578,0,0,1,.181-.035,1.019,1.019,0,0,1,.393.014c.07.013-.061.033-.085.053.054.042.268.049.264.1-.008.087.195.1.394.112-.006-.043.149-.024.195-.047.073-.056-.167-.024-.173-.057-.024-.016-.069-.04-.011-.046.168-.017.1-.016,0-.036-.069-.014-.136-.053-.092-.08a.488.488,0,0,1,.256-.009,2.22,2.22,0,0,1,.527.122c-.028.022.089.041.011.064-.187.054-.056.074.1.092a.389.389,0,0,0,.049,0,1.133,1.133,0,0,1,.294.016c-.081.014-.188,0-.223.032a1.058,1.058,0,0,0,.562-.033c.143-.053.365.034.524-.032-.25-.01-.265-.146-.619-.094a.442.442,0,0,1-.061-.015c-.18-.04,0-.064.031-.1.05-.061.126-.052.245-.023a.947.947,0,0,1,.512.031c-.074.028-.207.046-.164.091l.044.022c.07.034.381.047.108.112.035.011.038.039.082.045h0a.277.277,0,0,0,.093-.011c.157-.04.276-.063.319.026a.9.9,0,0,0,.149.018c.119-.027.27,0,.434-.021a3.092,3.092,0,0,1-.326-.045,2.358,2.358,0,0,1,.358-.009,1.266,1.266,0,0,0,.674,0,.733.733,0,0,1,.23-.1l-.223-.02a1.312,1.312,0,0,1-.271,0c.009-.056.2-.015.262-.045a.358.358,0,0,0-.049-.019c-.057-.015-.136-.027-.061-.055a.277.277,0,0,1,.153-.031c.1.009.13.041.1.063s-.016.041.045.056h.1c-.038-.025-.118-.059.024-.068s.115.041.157.066c.08.013.082.032.05.055l.061.086a.557.557,0,0,0,.164.02c.156-.011.118.078.3.054.084-.019.222,0,.278-.038.027-.061.226-.048.338-.073-.008-.022.031-.048-.048-.066a.1.1,0,0,1-.115.031c-.082-.026-.172-.057-.17-.1s.068-.043.168-.035a2.715,2.715,0,0,0,.309.016c.165-.005.258.023.094.071a.248.248,0,0,1,.124.035,2.154,2.154,0,0,1,.447,0,.693.693,0,0,1,.4.016,1.2,1.2,0,0,1-.408.02l-.555,0-.078.013c-.034.047-.19.057-.282.086-.02.059.167.042.237.046.43.027.881-.025,1.309.029a.28.28,0,0,0,.049-.007c-.048-.051-.119-.106.19-.087a.189.189,0,0,0,.116-.032h0a.349.349,0,0,1,.255-.024c.069.026.068.07-.068.1-.056.011-.158.013-.124.046.039.006.033.022.052.027.065.018-.146.057.058.062.119,0,.185-.006.173-.046s.071-.022.129-.028a5.048,5.048,0,0,1,.733.032,1.8,1.8,0,0,1,.566.043c.118,0,.192-.021.208-.058.007-.015.026-.03.084-.028s.071.015.072.031c0,.081.164.073.33.051a1.012,1.012,0,0,1,.321,0,.822.822,0,0,0,.355.015c.045-.01.11,0,.118.025s-.024.027-.079.029c-.326.013-.651.03-.978.037-.08,0-.282-.011-.248-.034.082-.056-.053-.044-.126-.055-.018.06-.24.086-.3.066a.921.921,0,0,0-.452-.019c-.264.03-.581.019-.887.026.09.046.207.094-.071.119-.123.011-.084.04-.038.063a.313.313,0,0,0,.192.007c.073-.013.066-.051.18-.048.032-.01.068-.019.094-.03a.251.251,0,0,1,.154-.027c.051.005.058.022.045.036-.029.031-.1.028-.18.021a.232.232,0,0,0-.054.013c.019.057.3.032.309.091s.2.041.222.026a.786.786,0,0,1,.5-.031c.113.011.282,0,.244-.037s-.05-.1-.276-.086c-.069,0-.171,0-.142-.038a.334.334,0,0,1,.208-.031c.252.041.53.01.785.035.1.01.275.005.256.046s-.179.027-.287.02c-.072,0-.142-.016-.214-.016-.1,0-.234-.016-.29.03a8.968,8.968,0,0,0,.941.028c.234.009.422,0,.32.109a.364.364,0,0,1,.26-.033c.1.02-.023.039-.032.06s-.083.079-.034.077a5.543,5.543,0,0,0,.6.048c.047-.006.134,0,.129-.02s-.077-.022-.118-.033c-.131-.02-.329-.028-.178-.1a2.694,2.694,0,0,1,.589-.038c.055.012.051.028.04.046a.457.457,0,0,0-.032.068c.2.008.393.014.586.026.115.007.274-.033.337.012s-.2.026-.2.068a.5.5,0,0,0,.187.014,2.97,2.97,0,0,1,.537,0,2.766,2.766,0,0,0,.78-.026,1.472,1.472,0,0,1,.417-.055,3.314,3.314,0,0,1,.83.064.626.626,0,0,0,.184,0,1.913,1.913,0,0,1,.671.093c-.045.024.007.074-.158.067a6.754,6.754,0,0,1-.727-.02,3.035,3.035,0,0,0-.481-.022c.1.018.239.022.218.057s-.151.027-.243.031c-.311.013-.622-.027-.935,0-.075.007-.12-.016-.126-.038-.014-.048-.12-.049-.242-.052-.261-.008-.5.032-.761.027-.087,0-.1.019-.061.043a.873.873,0,0,0,.513.054c-.044-.016-.112-.028-.112-.052s0-.035.073-.042.139-.01.142.01c.006.036.109.061.146.092l.076.021c.643.016,1.288.013,1.933.019.118,0,.169-.019.181-.053s.044-.045.138-.047a.371.371,0,0,1,.165.028l0,0c0-.051.08-.056.321-.053.1.014.2.034.234-.022.022-.029-.3-.053-.011-.084.01-.025.007-.049-.049-.069-.145-.02-.19-.067-.089-.088a1.523,1.523,0,0,1,.591.024c-.208,0-.276.029-.278.082.022.074.228.041.351.056.135-.01.207.037.333.035.207.027.182-.021.181-.055,0-.065.071-.088.272-.051.05-.041.052-.1.269-.03a1.765,1.765,0,0,1,.253.074.488.488,0,0,0,.263.039.877.877,0,0,1,.6.075,2.594,2.594,0,0,1,.667.074c-.037.016-.134,0-.153.029.055.029.2.05.084.1a1.487,1.487,0,0,0-.419-.046.767.767,0,0,1-.4.022h0l0-.017h0c-.3-.017-.2.042-.182.087-.007.043.078.037.183.043.182.01.287-.052.466-.034.3.031.627.037.94.059.63-.033,1.256-.076,1.9-.066a1.043,1.043,0,0,0,.272-.022,4.035,4.035,0,0,1,1.011-.094l.249-.005c.047-.027-.015-.078.132-.07.1.006.075.037.069.065.141-.005.282-.014.421-.028.287-.029.6-.035.9-.036.762,0,1.524-.011,2.285-.007,1.875.009,3.754-.012,5.624.054.785.028,1.58.031,2.361.067,1.155.053,2.3.124,3.452.187a2.683,2.683,0,0,0,.367.008,7.524,7.524,0,0,1,1.011.016c.431-.021.844.047,1.272.025a2.683,2.683,0,0,1,.529.019,3.021,3.021,0,0,0,.5.027c.659-.013,1.313.016,1.967.03.323.007.645-.012.967.009.481.031.952.077,1.46.071.284,0,.573.031.86.048.358-.005.685.041,1.026.063a2.843,2.843,0,0,1,.468.02,5.135,5.135,0,0,0,.949.132,9.15,9.15,0,0,0,1.915.009.681.681,0,0,1,.41.047.855.855,0,0,0,.435.076c.341.009.678.024,1.008.051l1.414.038c.282-.013.54.028.815.033.058,0,.1.011.069.036-.064.058.077.08.21.1l.474.01,0,.022-.471.008c-.152.031-.16.034-.112.047a1.749,1.749,0,0,0,.468.095,1.724,1.724,0,0,1,.445.047,4.037,4.037,0,0,1,.572.036c.152,0,.3-.006.45-.01.528-.017,1.045.011,1.559.044h.026l.024,0c.495-.006.987-.025,1.48-.038.684-.019,1.368.013,2.051-.021.507-.024,1.025-.022,1.54-.007.2.006.391.024.595.019.986-.022,1.972-.06,2.959-.062,1.189,0,2.369.046,3.521.143.216-.019.463-.024.64-.06a1.733,1.733,0,0,1,.452-.027c.13.006.231.024.084.068-.061.018-.146.047-.1.066.169.069-.019.083-.153.107.133.032.311.013.451.037.164,0,.226.048.126.058a5.7,5.7,0,0,1-.589.115,5.657,5.657,0,0,0-.88.054.3.3,0,0,0-.158.044c-.123.126-.2.141-.615.153-.328.01-.639-.034-.965-.02a1.713,1.713,0,0,1-.332.014c-.317-.006-.626.006-1.018.026a3.2,3.2,0,0,0,.787.057,1.8,1.8,0,0,1,.483-.013c.365.018.731.034,1.1.051a.271.271,0,0,1,.253-.006,1.471,1.471,0,0,0,.413.061c.143.009.4-.028.425.063l.064-.014c-.017-.026-.036-.052.1-.052-.076-.036-.13-.065.1-.053.174.009.389.026.387-.077.1.05.061.1.132.14l.018.009c.01,0,.013.01.013.016.062.065.222.075.443.053-.12-.007-.266-.006-.246-.059s.172-.033.268-.044a.569.569,0,0,1,.207.016,2.193,2.193,0,0,1,.677.034c.105.029.262-.013.368.021.236-.016.49,0,.716-.024l.032.07c.045.01.043.023.038.038a1.2,1.2,0,0,0,.134.013c.116,0,.237.009.232.043s-.107.049-.233.05c-.2,0-.409,0-.612,0a1.39,1.39,0,0,0-.237.035c-.145-.066-.22,0-.3.019-.117-.037,0-.066-.006-.1a2.964,2.964,0,0,1-.3.013,7.939,7.939,0,0,0-1.194.038c-.092.022.077.069-.1.086-.152.015-.014-.051-.157-.036-.013.044-.107.075-.255.091.038.014.143.012.119.038s-.092.016-.146.014l-.5-.018-.873,0a3.886,3.886,0,0,1-.624-.017h0l-.1,0a1.225,1.225,0,0,1-.729.057,1.086,1.086,0,0,0-.135-.006h0a.488.488,0,0,1-.287,0,.7.7,0,0,0-.206-.02,2.7,2.7,0,0,1-.653,0,.683.683,0,0,1-.294-.006.6.6,0,0,0-.413,0,1.055,1.055,0,0,1-.467.008c-.139-.034.084-.044.084-.072-.277-.018-.555-.014-.834-.008-.143,0-.287,0-.431-.008a1.237,1.237,0,0,0-.336.04,4.021,4.021,0,0,1-1.284-.036.441.441,0,0,0-.25-.008,1.188,1.188,0,0,1-.393.036,2.7,2.7,0,0,0-.73.1.3.3,0,0,0,.142.008c.97.036,1.949.018,2.921.049.61.02,1.231.008,1.846.017.54.008,1.078.035,1.617.033.464,0,.909.02,1.407.046-.09.006-.134.011-.178.012-.7,0-1.395.017-2.1,0-.733-.018-1.472-.015-2.209-.016a10.6,10.6,0,0,0-1.292.007,2.237,2.237,0,0,1-.315.007c-.793-.043-1.6-.025-2.4-.053-.363-.013-.72.017-1.081.015-.05.013-.135,0-.173.018l.047.031c0,.05.16.062.237.093.339.032.688.006,1.032.016l.452,0c.151.009.245.031.185.083.308.014.556-.077.888-.06-.047.046-.191.037-.238.064l.264.034.059-.016c-.014-.027,0-.054.064-.072s.229-.027.2.009c-.041.06.116.055.187.077l.171.036a3.7,3.7,0,0,1,.623-.039.042.042,0,0,1,.011.009h.007l-.019-.009c.134-.071-.207-.027-.187-.075.191-.016.347-.011.4.061a.637.637,0,0,1,.535-.017.182.182,0,0,0,.08.006.99.99,0,0,1,.445.033,2.331,2.331,0,0,1,.518.012,1.26,1.26,0,0,1,.243,0c.069,0,.167-.008.173.025s-.082.036-.158.037a3.539,3.539,0,0,1-.73-.023,1.012,1.012,0,0,1-.4.015h0a2.464,2.464,0,0,1-.457.016.369.369,0,0,1-.049,0,.577.577,0,0,1-.295-.007.585.585,0,0,0-.22-.025c-.022.025.065.048.012.073l-.307-.009a.339.339,0,0,0-.052,0,.677.677,0,0,1-.413-.052h0a.21.21,0,0,1-.238.019.256.256,0,0,0-.144-.012,1.6,1.6,0,0,1-.471-.011c-.038-.007-.231,0-.312,0-.049,0-.278.039-.154-.039.026-.016-.065,0-.1-.01a1.719,1.719,0,0,1-.524.049.5.5,0,0,1-.469,0,.344.344,0,0,0-.147-.016c-.187.007-.277.042-.276.128a.526.526,0,0,0-.31-.062c-.162.005-.147-.031-.119-.065a5,5,0,0,1-.729-.012c-.042-.01-.194,0-.211-.031s.1-.034.175-.046c.033-.006.068-.011.054-.027a5.31,5.31,0,0,0-.89.009c-.043.024-.229.05.006.071.054,0,.086.009.053.028a.2.2,0,0,1-.106.025,1.225,1.225,0,0,1-.317-.049c-.113-.031.036-.037.083-.053s-.057-.024-.06-.039l-.108-.013c0,.033-.151.048-.111.084s.089.063-.041.082c-.161.024-.154-.038-.251-.049h0c-.214.008-.427.016-.632.037-.189.058-.213-.009-.291-.036h-.12a1.163,1.163,0,0,0-.127.018,1.289,1.289,0,0,1-.658,0,.683.683,0,0,0-.325-.019.154.154,0,0,1-.093-.011c-.025-.018.012-.026.061-.031l.16-.013c.064-.1.064-.1-.275-.1-.018.032.038.082-.172.07a5.177,5.177,0,0,1-.569.1l-.142.005c-.254,0-.558.034-.749.014-.444-.047-.9,0-1.327-.048-.057-.078-.179-.094-.6-.08.31-.006.31-.006.413.032-.4.05-.808.086-1.289.108.3.03.572.03.789.075.176.036.371,0,.546.023.031-.037.093-.06.233-.046a1.867,1.867,0,0,1,.587.018,9.725,9.725,0,0,1,1.04-.02c.252-.02.518.026.785.016.177.011.356-.02.569,0l-.3.064a5.491,5.491,0,0,0,.689.016c.153,0-.007-.016,0-.025-.035,0-.1,0-.084-.013a.377.377,0,0,1,.2-.041c.247,0,.493.009.74,0,.045,0,.1-.005.11.014s-.04.025-.089.029h0c-.015.019-.112,0-.12.027l.077.01c.061.008.184,0,.166.031s-.125.014-.193.014h-.9a1.361,1.361,0,0,1,.176.031c.079.006.106.018.016.028a3.14,3.14,0,0,1-.42.007c-.265-.01-.538.018-.8-.016a3.237,3.237,0,0,1-.633,0l-.115,0a13.042,13.042,0,0,1-1.536-.027c.072-.042.207-.015.306-.027s.224.013.4-.01a22.312,22.312,0,0,0-2.944-.018c.7.049,1.38.006,2.034.053-.26.006-.514.041-.761.028-.273-.015-.545-.015-.815-.015-.625,0-1.253.009-1.875.006-.651,0-1.3-.034-1.952,0a2.975,2.975,0,0,0-.417-.027c-.088.079.191.036.243.068a4.087,4.087,0,0,0,.527.014c.051-.006.139-.043.165,0,.012.022.025.064-.15.058a2.282,2.282,0,0,0-.391.032,4.333,4.333,0,0,1-.678.038.444.444,0,0,1-.061.007,4.207,4.207,0,0,1-.5.028c-.087,0-.233,0-.122-.05s.107-.063-.08-.058c-.484.012-.971.018-1.448.043-.3.016-.615.014-.912.048a20.392,20.392,0,0,0,2.379.037.483.483,0,0,1-.236.047c-.364.021-.729.042-1.1.059a6.484,6.484,0,0,0-1.308.131c-.028.008-.116,0-.057.026a.644.644,0,0,0,.106.008.3.3,0,0,1,.181.006c.525.007,1.04.036,1.553.069.408.02.823.032,1.222.064.22.018.457,0,.663.04a8.523,8.523,0,0,1,1.323.1,8.075,8.075,0,0,1,1.835.176c.506-.008.979.076,1.492.052a.207.207,0,0,1,.068.009c-.005.08.19.045.3.045.134,0,.27,0,.4.01a13.385,13.385,0,0,0,1.355.027c.751,0,1.5-.037,2.252-.026.209,0,.416,0,.625-.008.32-.01.657-.023.964,0,.241.016.472.031.72.029.768-.006,1.529-.055,2.3-.028a2.92,2.92,0,0,0,.613-.026,2.411,2.411,0,0,1,.608-.023,5.359,5.359,0,0,0,.6.008c.779-.033,1.56-.049,2.345-.033.24,0,.486,0,.768.023-.1.013-.161.024-.222.027-.409.022-.821.039-1.227.064-.312.019-.613.056-.926.069-.772.032-1.548.055-2.323.081-.069.027-.266.019-.246.06s.191.017.29.028c.05.005.1.013.16.022-.091.023-.166.045-.252.062-.056.011-.126.018-.108.043s.1.027.159.028c.267.006.5.046.745.069.171-.006.341.021.512,0a.72.72,0,0,1,.374-.034c.434.024.874.023,1.306.014a6.423,6.423,0,0,1,1.143.088,1.276,1.276,0,0,1-.577.12c-.447,0-.887.02-1.333.022a3.862,3.862,0,0,0-.626,0,1.464,1.464,0,0,1-.352.014.156.156,0,0,0-.049,0c-.056.124-.23.215-.688.226a1.885,1.885,0,0,1-.52.037.644.644,0,0,0-.324.058,2.409,2.409,0,0,1-.912.135c-.431,0-.849.034-1.266.057-.477.026-.957.059-1.433.064l-.077,0c.314,0,.624.023.936.039a3.035,3.035,0,0,1-.743,0,.032.032,0,0,0-.016.043l1.153-.033c.018-.007.036-.013.057-.019a.429.429,0,0,1,.213-.044c.173-.008.342,0,.505,0,.331-.01.662,0,.991-.008a.5.5,0,0,1,.116.006c.478-.026.958-.052,1.458-.056a2.5,2.5,0,0,1-.662.1.073.073,0,0,0-.02.009c.036.028.182.033.179.067-.005.059.132.066.266.076,0-.029.1-.016.132-.032.049-.038-.113-.016-.117-.039s-.047-.027-.007-.031c.114-.011.066-.011,0-.024-.047-.01-.092-.036-.062-.054a.329.329,0,0,1,.173-.006,1.516,1.516,0,0,1,.356.083c-.019.015.06.028.008.043-.127.036-.038.05.069.062l.033,0a.763.763,0,0,1,.2.011c-.055.009-.128,0-.151.022a.716.716,0,0,0,.38-.022c.1-.036.247.023.355-.022-.17-.006-.179-.1-.419-.063a.275.275,0,0,1-.041-.01c-.122-.027,0-.043.02-.066.034-.041.085-.036.166-.016a.64.64,0,0,1,.346.021c-.05.019-.14.031-.112.061l.03.015c.047.023.257.032.073.076.023.007.026.026.056.03h0a.18.18,0,0,0,.063-.008c.107-.027.187-.042.215.018a.609.609,0,0,0,.1.012c.08-.018.182,0,.293-.014a2.163,2.163,0,0,1-.22-.03,1.553,1.553,0,0,1,.242-.006.855.855,0,0,0,.456,0,.487.487,0,0,1,.156-.068l-.151-.013a.894.894,0,0,1-.184,0c.006-.038.132-.01.177-.031a.253.253,0,0,0-.033-.013c-.038-.01-.092-.018-.042-.037a.186.186,0,0,1,.1-.021c.064.006.088.027.069.042s-.011.027.031.038h.069c-.026-.017-.08-.04.016-.046s.077.028.106.045c.054.009.055.022.034.037l.041.058a.374.374,0,0,0,.111.013c.105-.007.079.053.2.036.056-.013.15,0,.188-.026.019-.041.153-.033.229-.049,0-.015.021-.032-.032-.044a.066.066,0,0,1-.078.021c-.055-.017-.116-.039-.115-.068s.046-.029.113-.024a1.831,1.831,0,0,0,.209.011c.112,0,.174.015.064.048a.168.168,0,0,1,.084.023,1.469,1.469,0,0,1,.3,0,.47.47,0,0,1,.273.011.813.813,0,0,1-.276.013l-.375,0-.053.009c-.023.032-.129.038-.191.058-.014.04.113.029.16.031.291.018.6-.017.886.02a.183.183,0,0,0,.033-.005c-.032-.035-.081-.072.129-.058a.127.127,0,0,0,.078-.022h0a.236.236,0,0,1,.172-.016c.047.018.046.048-.046.065-.038.007-.107.009-.084.031.027,0,.022.015.035.018.044.012-.1.039.04.042.08,0,.125,0,.117-.031s.048-.015.087-.019a3.44,3.44,0,0,1,.5.022,1.22,1.22,0,0,1,.383.029c.08,0,.13-.015.141-.039s.017-.02.057-.019.048.01.048.021c0,.055.111.049.223.035a.684.684,0,0,1,.217,0,.56.56,0,0,0,.241.01c.03-.007.074,0,.08.017s-.016.018-.053.019c-.22.009-.44.02-.662.025-.054,0-.191-.008-.168-.023.056-.038-.036-.03-.085-.037-.012.041-.162.058-.205.045a.622.622,0,0,0-.306-.013c-.179.021-.393.013-.6.017.061.031.14.063-.048.08-.083.008-.057.027-.025.043a.213.213,0,0,0,.13,0c.05-.009.045-.035.122-.032.021-.006.046-.012.063-.02a.171.171,0,0,1,.1-.018c.034,0,.039.015.03.025s-.067.019-.122.014a.162.162,0,0,0-.037.009c.013.039.2.022.209.061s.134.027.15.017a.532.532,0,0,1,.336-.021c.077.008.191,0,.165-.025s-.034-.065-.187-.058c-.047,0-.115,0-.1-.026a.226.226,0,0,1,.14-.021c.171.027.359.007.532.024.07.007.186,0,.173.031s-.121.018-.194.013c-.049,0-.1-.011-.145-.011-.07,0-.158-.011-.2.02a6.019,6.019,0,0,0,.636.019c.158.006.286,0,.217.074a.224.224,0,0,1,.132-.025.5.5,0,0,1-.084-.007c-.041-.009-.024-.021.012-.026a.494.494,0,0,1,.261.019.906.906,0,0,1-.141.018c.053.013-.02.026-.026.039s-.056.053-.023.052a.713.713,0,0,1,.151.013c.113,0,.226,0,.339,0a.4.4,0,0,0-.076-.02c-.089-.013-.222-.019-.12-.065a1.837,1.837,0,0,1,.4-.026c.038.008.035.019.027.031a.345.345,0,0,0-.022.046c.132.006.266.009.4.017.078,0,.185-.022.228.008s-.132.017-.133.046a.335.335,0,0,0,.126.009,2.014,2.014,0,0,1,.363,0c.069,0,.139.007.211.009.05,0,.1-.008.153-.015a.5.5,0,0,1,.106,0c.019,0,.038,0,.058-.01a1,1,0,0,1,.282-.037h0c.7-.076.713-.076.914-.027-.253.019-.5.026-.784.03a1.337,1.337,0,0,1,.427.04.435.435,0,0,0,.125,0,1.289,1.289,0,0,1,.454.063c-.03.016,0,.05-.107.045a4.554,4.554,0,0,1-.492-.014,2.087,2.087,0,0,0-.325-.015c.069.012.162.015.148.039s-.1.018-.164.021c-.21.009-.421-.018-.633,0-.051,0-.081-.011-.085-.025-.01-.033-.081-.033-.164-.035s-.143,0-.213.007a.023.023,0,0,0-.011.012c.037,0,.082,0,.084.007s.073.041.1.062l.051.014c.435.011.871.009,1.307.013.08,0,.115-.013.123-.036s.03-.03.094-.032a.254.254,0,0,1,.112.019h0c0-.035.054-.038.217-.036.067.009.138.023.158-.015.015-.019-.2-.036-.008-.057.007-.017,0-.033-.033-.047-.1-.013-.129-.045-.061-.06a1.031,1.031,0,0,1,.4.016c-.141,0-.186.019-.188.056.015.05.154.028.237.038.092-.006.14.025.226.024.14.018.123-.014.122-.037,0-.044.048-.06.184-.035.034-.028.035-.071.182-.02a1.191,1.191,0,0,1,.171.05.328.328,0,0,0,.178.026h.013a2.06,2.06,0,0,1,.283-.031.262.262,0,0,1,.253.092.806.806,0,0,1,.307.041c-.025.011-.091,0-.1.019.037.02.135.033.057.065a1.01,1.01,0,0,0-.283-.031.516.516,0,0,1-.27.014h0l0-.012h0c-.2-.012-.137.029-.123.059,0,.029.053.025.123.029.123.007.195-.035.316-.023.272.028.566.026.837.058.1.011.214-.016.318.006a1.112,1.112,0,0,1,.175.018c.129,0,.128.007.132.041a3.885,3.885,0,0,1-.452-.018.54.54,0,0,1-.087.006.263.263,0,0,0-.153,0c-.08.037-.134.072.064.09,0,0,0,0,.006.005a5.539,5.539,0,0,0,.556.029s.02,0,.032-.005c.038,0,.073,0,.073.013,0,.053.128.043.213.036.109-.008.189.042.3.009.081-.058.329,0,.42-.055a.086.086,0,0,1,.061.016c.027.049.109.027.184.013-.038-.024-.005-.026.065-.023.166.007.18.066.314.083h0a1.827,1.827,0,0,0,.228-.013c.049-.012.077-.006.087.011.1.03.262.013.35.048l.195,0c-.027-.052-.175-.041-.267-.057-.063-.011.017-.064-.168-.041a1.819,1.819,0,0,0,.206-.039c-.011-.016-.037-.022-.088-.012a.816.816,0,0,0-.3.043c-.008-.028,0-.044-.041-.055-.065-.032-.026-.046.085-.044a.508.508,0,0,0,.106.008,1.939,1.939,0,0,1,.5.014,1.088,1.088,0,0,0,.2,0c.085,0,.153,0,.159.034h0c.075.014-.056.041.021.05a.242.242,0,0,1,.152.064.831.831,0,0,0,.431.069.27.27,0,0,1,.173.005.887.887,0,0,0,.124.027c.076.007.158.008.238.011-.008-.022-.007-.045-.028-.066s-.084-.016-.05-.032a.288.288,0,0,1,.108-.006c.055,0,.091.011.088.032s0,.047.115.027c.034-.006.045,0,.034.01-.031.028.025.026.08.021a1.511,1.511,0,0,1,.42.02c.086.016.2-.022.253.02a2.824,2.824,0,0,0,.384.026c.24.015.479.033.721.045.122.006.183.021.176.059l.818.059a.453.453,0,0,0,.074,0,.4.4,0,0,1,.3.015.606.606,0,0,0,.228.035c.055,0,.12,0,.129.022l.108.014a.529.529,0,0,1,.244.036c-.122-.024-.275,0-.392-.025l-.378-.014a1.232,1.232,0,0,1-.242-.022v.012c-.023.043.115.089.285.095a.837.837,0,0,1,.379.06c-.076,0-.159-.007-.236-.015-.18-.019-.379-.02-.543-.054a1.953,1.953,0,0,1-.233-.015c-.175-.008-.349-.018-.525-.024-.153-.006-.195.016-.132.058.094.008.19.019.276.029a1.882,1.882,0,0,1,.35.031,1.414,1.414,0,0,0,.145.014c.364,0,.688.055,1.04.073a2.433,2.433,0,0,1,.372.042l.247.012a1.686,1.686,0,0,1,.409.038c.031.01.1.018.062.036a.32.32,0,0,1-.14.008c-.171-.016-.348-.026-.512-.047-.217-.028-.468-.023-.663-.069-.31,0-.576-.06-.888-.056a.474.474,0,0,1-.081-.013c-.24-.033-.5-.037-.755-.06a4.2,4.2,0,0,0-.835-.028.338.338,0,0,1-.149-.021,6.809,6.809,0,0,1-.782-.033h0a2.369,2.369,0,0,1-.463-.025l-.382-.025a4.95,4.95,0,0,0-.826.036l.085.024c.266.01.529.02.792.04a5.437,5.437,0,0,0,.653.031c.125,0-.03.04.055.053.013,0,.049.009-.012.01a2.828,2.828,0,0,1-.332.006c-.142-.012-.295-.012-.434-.023-.281-.022-.578.02-.85-.025a.3.3,0,0,0-.141.013,4.5,4.5,0,0,0,.539.052,1.435,1.435,0,0,1,.389.043c.1-.005.195-.006.3,0,.241.006.479.013.711.033.321.028.656.03.977.054.172.013.183.018.249.06a5.916,5.916,0,0,0-.685-.041c-.474-.024-.934-.072-1.419-.073-.051,0-.116-.005-.17,0l-.039,0c-.038.005-.067.017-.072.042a7.182,7.182,0,0,1,.749.025c.147.022.381.016.576.023.476.019.944.051,1.418.071.19.027.417.012.61.045-.031.015-.172.009-.067.038a.969.969,0,0,0,.192.012.423.423,0,0,1,.363.019.075.075,0,0,0,.045.006c.083-.01.18,0,.258-.014a.479.479,0,0,1,.386.081,1.813,1.813,0,0,1,.363.026.173.173,0,0,0,.124-.009c.046-.042.043-.042.171-.018a2.824,2.824,0,0,1,.5.029c.05,0,.081.024.036.043-.01.014-.062.015-.088.024l.006,0a3,3,0,0,0,.431.034,1.32,1.32,0,0,1,.352.035c.194-.049.192-.049.336.016a.156.156,0,0,0,.107.009c.095-.058.153-.006.275,0-.119.007-.189.013-.172.042l.146.025a.82.82,0,0,1,.32.047,2.086,2.086,0,0,1-.35-.024l-.078,0c0,.021,0,.042.038.06h0c.172.007.26.061.427.071h0a.653.653,0,0,1,.274.057c.077.01.126-.036.179-.016.118.044.313.041.442.076h0a.52.52,0,0,1,.28.01,1.629,1.629,0,0,0,.413.031c.089,0,.157-.007.2.026s.075.031.093,0c.007-.012.032-.011.054,0a2.313,2.313,0,0,0,.451.056.75.75,0,0,1,.268.048.618.618,0,0,0,.166.024,3.021,3.021,0,0,1,.769.071c.1.006.224.036.352.044a.435.435,0,0,1,.173.028c.155.033.36.032.506.071.073.006.176.006.172.036s-.11.013-.167.019a2.194,2.194,0,0,1-.426-.027c-.432-.026-.824-.085-1.241-.124-.232-.021-.463-.05-.7-.051a.474.474,0,0,1-.231-.031c-.106-.018-.214-.031-.331-.043-.266-.027-.558-.027-.8-.073a4.738,4.738,0,0,1-.608-.049h-.325c-.065,0-.162-.025-.184,0s.107.03.174.04c.038.006.09,0,.13.007.077.01.182.01.2.044.153.019.317.029.474.044a1.389,1.389,0,0,1,.441.072c.119.09.426.125.568.206.084.048.283.059.376.1.347.1.665.2.971.307.08.007.117.032.126.048.055.1.331.172.361.274.006.021.024.043.094.056a.122.122,0,0,1,.067.018c.146.08,0,.15-.1.216a.786.786,0,0,1-.359.142,3.065,3.065,0,0,1-.713.142,4.244,4.244,0,0,0-.469.066c-.308.066-.661.1-1.008.138a7.845,7.845,0,0,0-.975.149c.419.019.784.074,1.189.061-.025-.014-.145,0-.1-.03a.51.51,0,0,1,.161,0c.089,0,.088.016.063.035.249,0,.5-.01.746.01a1.861,1.861,0,0,0,.285-.01c.076-.005.136-.014.117-.048-.006-.01-.035-.035.061-.056a3.557,3.557,0,0,1,.568-.035,9.745,9.745,0,0,1,1.8.092,1.848,1.848,0,0,0,.24.005,2.088,2.088,0,0,1,.547,0c-.189.011-.344.021-.5.028a.935.935,0,0,0-.182.02c.079.019-.032.045.013.058a.545.545,0,0,0,.2,0,.636.636,0,0,1,.264.017c-.176.012-.322.027-.471.03-.188,0-.168.044-.164.077S226.237,165.455,226.314,165.455Zm-2.6.884,0,0h-.006Zm-.925.716h0Zm-11.465,2.174h0Zm-124.67.244h.037l-.043,0Zm-19.06-1.73a2,2,0,0,1,.318.056c.1-.03.274-.008.383-.034C68.066,167.759,67.844,167.742,67.59,167.743Zm1.211.071h.017c.061-.027.206-.036.2-.08A2.078,2.078,0,0,0,68.8,167.814Zm2.779.249-.007,0h.012Zm1.311.485a.051.051,0,0,0,.02-.017l-.008,0-.027.012h-.027A.193.193,0,0,1,72.891,168.547Zm-.2-.024-.006.005a.818.818,0,0,0,.127.008c-.078-.008-.081-.031-.065-.056s.054-.033.12-.023c.017,0,.034-.013,0-.007C72.727,168.457,72.7,168.488,72.692,168.524ZM56.876,161.2l-.006,0h.008Zm1.367-1.058h0Zm7.382-2.536h.015l0,0Zm.411-2.845h0Zm79.074-.868h-.037l.043,0Zm58.361,2.882h0Zm-1.043-.008.061,0,.019,0-.08.005Zm-3.643.768h0l-.019.007Zm-10.9-1.689h0Zm-5.257.192-.006,0-.021,0Zm-.864-.947-.009,0h.012Zm0,2.8h0Zm-.466.065h0Zm-.436-2.3.013-.007-.041,0Zm-1.181-.6.015,0h0l-.005,0-.009,0Zm-1.2.68-.009,0,0,0Zm17.124,3.431h0Zm7.96,1.583h-.025l.029,0Zm-10.764-.426c-.038,0-.076.009-.114.01s0,.016.007.025a2.316,2.316,0,0,1,.311.005c-.035.007-.065.008-.1.012h.079l0,0c.021,0,.042-.006.063-.01a.166.166,0,0,1,.015-.043h0a.455.455,0,0,0-.046-.005C192.949,160.312,192.877,160.314,192.8,160.315Zm1.662.063h-.012l-.01,0Zm13.91.7c-.074.025-.2.021-.273.037a.471.471,0,0,1,.162,0v0a1.341,1.341,0,0,1,.136-.024A.059.059,0,0,1,208.375,161.075Zm1.658,5.415s.007-.006,0-.01h-.023Zm-.608.211.011,0h-.012Zm-.386.193h0Zm-.114-.059-.006,0-.014,0Zm-.9,1.549,0,0h0Zm-.192-.934a.01.01,0,0,1,0,0l-.017,0Zm-66.307,1.813-.015,0,.215,0A.489.489,0,0,0,141.529,169.263Zm14.864-.2a.068.068,0,0,0,.05.009ZM64.761,159.7l.005,0h-.007Zm75.573,9.39c.022.006.034.01.049.015,0,0,0-.005,0-.009a.05.05,0,0,1-.029-.012Zm-1.14.005a.2.2,0,0,1,.045-.009,2.4,2.4,0,0,1,.257-.018c-.085-.008-.171-.017-.259-.02H139.2c-.121.021-.184.044-.2.077l.213.006C139.192,169.123,139.179,169.111,139.193,169.1Zm37.914,1.1a.372.372,0,0,0,.144,0l-.185-.006Zm-1.822-.727,0,0h0Zm-.826.462h0l.006,0h0l-.01,0Zm-.771-.406-.019-.007-.009,0Zm-.631.373.006,0h-.008Zm-.581-.64.014,0h-.014Zm-3.559.13h0Zm-16.727-.132a2.108,2.108,0,0,0,.558-.017c.042,0,0-.024-.01-.037a3.42,3.42,0,0,1-.461-.008,1.716,1.716,0,0,1,.477-.027h0a.385.385,0,0,1,.115-.006l.029.007c.05-.019.068-.039.025-.056l-.05.006c-.206.025-.432.028-.641.05l-.023,0c.016.029-.011.058-.023.087Zm-2.049-.095.015-.007-.033.006Zm-7.885-.036a1.035,1.035,0,0,1-.137.009l.144.038a.14.14,0,0,1,.027.011c.019,0,.039-.008.055-.014C142.355,169.135,142.311,169.125,142.256,169.121Zm-6.82.022c-.069-.008-.138-.016-.21-.021a.273.273,0,0,0-.176.035s0,0,0,0l.075,0a1.113,1.113,0,0,0,.184.009C135.349,169.163,135.393,169.15,135.436,169.143Zm-22.462.811a.25.25,0,0,0,.047-.017l-.053,0A.04.04,0,0,0,112.974,169.954Zm-1.572.19.01,0H111.4Zm-.269-.228h0Zm-.034-.005h0Zm-4.675.015-.05-.009A.068.068,0,0,0,106.424,169.925Zm-4.253.179a2.1,2.1,0,0,0,.558-.017c.042,0,0-.024-.01-.037a3.415,3.415,0,0,1-.46-.008,1.724,1.724,0,0,1,.477-.027h0a.389.389,0,0,1,.116-.006l.028.007c.05-.019.068-.038.026-.056l-.05.006c-.206.025-.432.028-.641.05l-.023,0c.016.029-.011.058-.023.087Zm-2.049-.095.015-.006-.033.006Zm-18.28-1.024a.692.692,0,0,0-.1.008A.093.093,0,0,0,81.843,168.985Zm-1.662.034-.01.007h.005c.008-.015.08-.017.1-.031A.138.138,0,0,0,80.181,169.019Zm.027.167a.281.281,0,0,1,.059,0,.335.335,0,0,0-.3-.082C80.057,169.131,80.267,169.125,80.207,169.186Zm-.664-.208c.109-.036.292-.031.4-.054a.7.7,0,0,1-.239,0v.005a1.973,1.973,0,0,1-.2.036A.093.093,0,0,1,79.543,168.979Zm-5.766-.807.006,0h-.008Zm-7.046-10.55.038,0h0a3.019,3.019,0,0,1,.313.034h0a.494.494,0,0,1,.141.013c.054.01.113.014.169.02h.181c.289-.009.58-.013.87-.018,0-.012-.043-.019-.073-.025a1.086,1.086,0,0,1-.255-.058,1.421,1.421,0,0,0-.169.007,2.128,2.128,0,0,1-.625-.057.164.164,0,0,0-.069-.044c-.231.02-.462.039-.706.038-.109.017-.223.029-.34.04C66.392,157.583,66.563,157.6,66.731,157.622Zm7.479-2.939-.007,0,.01,0Zm16.726-.876a.2.2,0,0,0-.032.011h.036A.036.036,0,0,0,90.936,153.807ZM92,153.678l-.007,0H92Zm.182.155h0Zm.023,0h0Zm6.04-.131a1.422,1.422,0,0,0-.378.012c-.028,0,0,.016.007.025a2.311,2.311,0,0,1,.312.005,1.164,1.164,0,0,1-.322.019h0a.268.268,0,0,1-.078,0l-.019,0c-.034.013-.046.026-.017.038l.034,0c.139-.017.292-.019.433-.034h.015c-.011-.02.007-.039.015-.059Zm1.386.064-.01,0,.022,0Zm1.453-.054c.041,0,.085.009.132.012,0-.008.008-.013.02-.016a1.2,1.2,0,0,1-.146,0Zm1.556-.038c.04.008.078.016.081.027a.276.276,0,0,0,.146-.036Zm16.145-.266a.274.274,0,0,0-.048.017h.053A.049.049,0,0,0,118.786,153.411Zm1.572-.19-.01,0h.015Zm.269.228h0Zm.034.005h0Zm4.675-.015.05.009A.066.066,0,0,0,125.336,153.44Zm4.253-.179a2.109,2.109,0,0,0-.558.017c-.042,0,0,.024.01.037a3.419,3.419,0,0,1,.461.008,1.721,1.721,0,0,1-.477.027h0a.4.4,0,0,1-.116.006l-.029-.007c-.05.02-.068.038-.025.056l.05-.006c.206-.025.432-.028.641-.05l.023,0c-.016-.029.01-.058.023-.087Zm2.049.095-.014.006.033-.006Zm18.28,1.024a.675.675,0,0,0,.1-.008A.093.093,0,0,0,149.917,154.38Zm1.662-.034.009-.007h0c-.008.015-.08.017-.1.031A.139.139,0,0,0,151.579,154.346Zm-.027-.167a.3.3,0,0,1-.059,0,.336.336,0,0,0,.3.082C151.7,154.234,151.493,154.24,151.553,154.179Zm.664.208a4.042,4.042,0,0,1-.4.054.711.711,0,0,1,.24,0v-.005a1.929,1.929,0,0,1,.2-.036A.089.089,0,0,1,152.217,154.386Zm23.563.264a.552.552,0,0,0-.213,0c.092,0,.183.006.273.01Zm7.359,3.916h0a.076.076,0,0,0,.017.006h0Zm6.222,1.7c-.042.018-.049.035-.031.05.456,0,.91-.018,1.364-.034a.649.649,0,0,1,.077-.025c.094-.023.09-.036-.041-.036-.046,0-.107,0-.111-.015h0C190.2,160.228,189.784,160.253,189.361,160.264Zm2.148-.025a.217.217,0,0,0-.183.021l.236-.007C191.543,160.248,191.524,160.244,191.508,160.239Zm13.312.786,0,0h.008Zm2,.046a.5.5,0,0,0,.066-.005A.062.062,0,0,0,206.819,161.071Zm1.124-.023.007,0h0c-.005.01-.054.012-.068.021A.094.094,0,0,0,207.944,161.048Zm-.018-.113a.185.185,0,0,1-.04,0,.226.226,0,0,0,.2.056C208.027,160.973,207.886,160.977,207.925,160.935Zm3.079,6.44h0Zm.047.847h0Zm1.225-6.6h0Zm4.186.29a1.363,1.363,0,0,1-.215-.038c-.07.02-.185.005-.259.023C216.139,161.9,216.29,161.912,216.462,161.911Zm-.82-.048h-.011c-.042.019-.139.024-.138.054A1.321,1.321,0,0,0,215.642,161.863Zm-1.88-.168h0Zm-.887-.328a.037.037,0,0,0-.014.011l.005,0,.019-.008h.019A.129.129,0,0,1,212.876,161.367Zm.135.016,0,0a.566.566,0,0,0-.086-.006c.053.005.055.021.044.038s-.037.022-.081.016c-.011,0-.023.009,0,0C212.986,161.429,213,161.407,213.01,161.383Zm0,5.661h0Zm.122.019.006.006h.01Zm1.015.775h0Zm.7.041-.005,0h.008Zm.629-.646-.008,0h.011Zm.708.928-.012,0h.016Zm1.482-.213,0,0,.006,0Zm.712-.6h0Zm.239.27h0Z" transform="translate(-51.883 -152.888)"/><path class="a" d="M415.619,160.062c.124-.059.249,0,.373,0a2.083,2.083,0,0,1,.209-.009,4.777,4.777,0,0,0,.64-.072l.623-.1a.37.37,0,0,1,.05-.036,1.612,1.612,0,0,1,.723-.073,11.023,11.023,0,0,0,1.142-.179,3.493,3.493,0,0,1,.638-.086,3.618,3.618,0,0,1,.466-.106,1.288,1.288,0,0,1,.3-.061,2.233,2.233,0,0,1,.549-.1,1.908,1.908,0,0,1,.542-.112c.161-.021.307-.123.49-.048.015.006.047-.01.072-.014.168-.028.335-.06.505-.082.069-.009.179-.03.195.04s-.082.1-.161.109a1.471,1.471,0,0,1-.269.006.59.59,0,0,0-.541.2.257.257,0,0,1-.215.066,1.509,1.509,0,0,0-.457.03h0c-.054.162-.242.126-.4.127-.038,0-.077,0-.115-.007-.22-.018-.28.012-.318.16-.005.021-.022.031-.05.03a2.946,2.946,0,0,1-.3.024,3.1,3.1,0,0,0-.563-.05h-.115a.861.861,0,0,1-.388.082.788.788,0,0,0-.549.141.182.182,0,0,1-.1.034c-.3,0-.584.068-.881.051-.043,0-.089-.02-.11.02.025.053.138.019.161.088a3.534,3.534,0,0,0-.377.035c-.044.031-.108.064-.058.111s.1,0,.155,0a1.405,1.405,0,0,1,.629.058,2.1,2.1,0,0,1-.71.056c-.126-.018-.284-.036-.349.022-.122.11-.286.064-.426.1-.026.006-.068,0-.08-.022s.019-.045.048-.047c.146-.008.153-.086.184-.154a.161.161,0,0,0-.134-.007c-.132.118-.365.008-.5.109-.033.024-.054-.02-.081-.033-.125-.059-.174-.2-.393-.161-.047.009-.123.015-.137-.043S415.573,160.085,415.619,160.062Zm5.02-.661h-.011l0,0Zm-3.829.789a.275.275,0,0,1-.011-.088l0,0C416.711,160.173,416.749,160.187,416.81,160.191Z" transform="translate(-254.731 -148.22)"/><path class="a" d="M436.728,163.716h0a1.315,1.315,0,0,1,.708-.143.065.065,0,0,0,.066-.016c.055-.075.156-.078.261-.083.04,0,.1-.022.112-.041.049-.138.2-.1.318-.081a2.147,2.147,0,0,0,.322.023h0l.15-.056c.035-.062.267-.049.144-.174-.015-.015.01-.03.039-.035a1.31,1.31,0,0,1,.822-.009,1.166,1.166,0,0,0,.211.046.534.534,0,0,0-.084.03,1.178,1.178,0,0,1-.853.2h0a1.24,1.24,0,0,1-.9.087c.006.026,0,.04.011.042.072.027.125.059.1.122s-.1.042-.17.034-.067.013-.068.054c0,.1-.083.138-.227.131-.115-.007-.23.015-.343.019s-.176.1-.294.081a2.155,2.155,0,0,0-.486,0,.811.811,0,0,1-.264-.015C436.474,163.869,436.684,163.861,436.728,163.716Z" transform="translate(-266.324 -154.93)"/><path class="a" d="M440.515,172.246c-.1,0-.153-.008-.21-.009s-.1,0-.117-.033.026-.053.054-.074a.562.562,0,0,1,.569-.03c.039.019.1.037.089.078s-.083.048-.136.053C440.669,172.24,440.573,172.243,440.515,172.246Z" transform="translate(-268.485 -158.439)"/><path class="a" d="M425.741,193.509a.871.871,0,0,1,.507.088.414.414,0,0,0,.3.094c.138.009.275.158.417,0a.073.073,0,0,1,.034.008.112.112,0,0,0,.156-.014c.016-.015.06-.023.065-.009.044.152.223.065.336.092h.037a.345.345,0,0,1,.056-.006c.162.006.238.142.419.13.023,0-.009.046-.043.054a.352.352,0,0,1-.187-.015c-.089-.028-.093.008-.095.051.015.042.082.046.124.074a.314.314,0,0,1-.206.018c-.406-.121-.847-.156-1.268-.24a.7.7,0,0,1-.351-.146c-.058,0-.1.087-.111.053-.022-.113-.176-.055-.235-.105v-.049C425.711,193.561,425.713,193.521,425.741,193.509Zm1,.273.076,0a.8.8,0,0,0-.113-.012A.136.136,0,0,0,426.741,193.782Z" transform="translate(-260.405 -184.412)"/><path class="a" d="M390.88,203.878c-.02.058-.1.042-.159.038l-.573-.033c-.042,0-.105.011-.106-.031s.066-.062.111-.051a1.721,1.721,0,0,0,.467,0,.661.661,0,0,1,.132.012C390.8,203.823,390.9,203.808,390.88,203.878Z" transform="translate(-240.516 -196.401)"/><path class="a" d="M412.486,199.228c.039,0,.028-.066.067-.041a.278.278,0,0,1,.108.131c.012.031-.042.048-.1.035a4.146,4.146,0,0,1-.556-.062c-.189-.011-.132-.074-.064-.139h0c.212-.07.336-.047.441.08C412.419,199.268,412.453,199.228,412.486,199.228Z" transform="translate(-252.699 -190.877)"/><path class="a" d="M400.229,202.442c0,.036-.045.03-.085.032a2.5,2.5,0,0,1-.855-.071,6.279,6.279,0,0,1,.849-.005C400.186,202.4,400.233,202.4,400.229,202.442Z" transform="translate(-245.674 -194.69)"/><path class="a" d="M422.675,194.863a4.859,4.859,0,0,1-.683-.111c-.1-.076-.251-.058-.374-.094a4.88,4.88,0,0,0-.961-.132c-.058,0-.136.007-.13-.045s.008-.09.123-.1a2.4,2.4,0,0,1,.45.032.517.517,0,0,1,.352.052l.189.029a.481.481,0,0,1,.244.01c.048.015.118,0,.126.063.013.1.019.1.157.058a.416.416,0,0,1,.524.13c.034.023.057.057.117.053C422.8,194.863,422.743,194.871,422.675,194.863Z" transform="translate(-257.521 -185.387)"/><path class="a" d="M425.689,194.512l0,0h0v0h0Z" transform="translate(-260.4 -185.191)"/><path class="a" d="M398.41,203.963c-.1-.016-.064-.1-.1-.142-.012-.016.029-.04.043-.033a1.126,1.126,0,0,0,.461.033c-.048.046-.1.05-.121.087C398.641,204.016,398.512,203.98,398.41,203.963Z" transform="translate(-245.127 -196.438)"/><path class="a" d="M413.388,200.3c-.118.006-.247.042-.341-.036a.218.218,0,0,0-.234-.07c-.035.01-.074-.008-.064-.044.109.03.176-.108.3-.034a.4.4,0,0,0,.229-.027c.072-.029,0-.137.111-.122.1.012.023.1.054.145.062,0,.127,0,.187.013s.12.052.079.065C413.6,200.223,413.572,200.374,413.388,200.3Z" transform="translate(-253.181 -191.975)"/><path class="a" d="M393.956,202.6c0,.039-.061.045-.1.044a1.95,1.95,0,0,1-.431-.035,1.767,1.767,0,0,1,.429-.074C393.9,202.528,393.955,202.561,393.956,202.6Z" transform="translate(-242.403 -194.879)"/><path class="a" d="M388.6,204.2c.035-.035.049-.091.131-.079s.11.072.1.112.007.066,0,.1a.2.2,0,0,1-.151-.038C388.642,204.266,388.537,204.267,388.6,204.2Z" transform="translate(-239.701 -196.849)"/><path class="a" d="M397.679,201.779a.11.11,0,0,1-.114.106c-.1,0-.089-.06-.1-.1.009-.046-.008-.1.078-.1S397.689,201.721,397.679,201.779Z" transform="translate(-244.656 -193.93)"/><path class="a" d="M418.537,195.891l.633.076-.008.035a2.252,2.252,0,0,1-.634-.076Z" transform="translate(-256.406 -186.923)"/><path class="a" d="M410.6,202.662a.11.11,0,0,1-.13-.059c.028-.062.107-.071.184-.071.054,0,.128,0,.123.058C410.772,202.663,410.668,202.649,410.6,202.662Z" transform="translate(-251.913 -194.893)"/><path class="a" d="M410.485,200.981c0,.043-.041.067-.114.071-.185.008-.141-.087-.169-.161.067.015.1.061.178.039C410.424,200.917,410.49,200.933,410.485,200.981Z" transform="translate(-251.762 -192.947)"/><path class="a" d="M399.92,203.882c-.042,0-.1-.026-.085-.054a.207.207,0,0,1,.157-.111c.04.008.107.024.087.036C400.013,203.792,400.033,203.879,399.92,203.882Z" transform="translate(-245.976 -196.334)"/><path class="a" d="M308.6,156.9a.776.776,0,0,1-.476,0A1.115,1.115,0,0,1,308.6,156.9Z" transform="translate(-194.818 -145.834)"/><path class="a" d="M382.048,204.6c.055.008.145.009.132.05s-.094.083-.171.1c-.045.007-.069-.015-.054-.049C382.022,204.682,381.894,204.579,382.048,204.6Z" transform="translate(-236.002 -197.378)"/><path class="a" d="M430.519,195.161c.014-.031.055-.032.094-.031.1,0,.169.03.165.123-.087-.017-.139-.056-.218-.045C430.524,195.212,430.508,195.185,430.519,195.161Z" transform="translate(-263.093 -186.021)"/><path class="a" d="M418.891,198.682c-.06,0-.117-.012-.122-.065a.069.069,0,0,1,.078-.063c.068,0,.124.026.131.077S418.945,198.687,418.891,198.682Z" transform="translate(-256.541 -190.126)"/><path class="a" d="M420.757,198.42c-.059-.011-.085-.04-.083-.078s.058-.052.111-.051.091.017.086.054S420.819,198.412,420.757,198.42Z" transform="translate(-257.603 -189.81)"/><path class="a" d="M443.067,180.544c-.011-.062.073-.021.107-.035.063,0,.148-.01.15.05,0,.038-.076.045-.121.043S443.074,180.585,443.067,180.544Z" transform="translate(-270.094 -168.485)"/><path class="a" d="M412.8,200.83a.1.1,0,0,1-.107-.081c-.006-.029.01-.052.058-.057s.112.027.119.072A.061.061,0,0,1,412.8,200.83Z" transform="translate(-253.153 -192.693)"/><path class="a" d="M396.683,203.916a.053.053,0,0,1,.035-.029c.11-.021.226-.067.313.028.026.011.068.026.049.046-.049.051-.13.04-.2.034-.043-.006-.1-.026-.125-.014-.066.037-.132.094-.192.013S396.667,203.964,396.683,203.916Z" transform="translate(-244.146 -196.511)"/><path class="a" d="M432.1,195.025c-.061,0-.11-.025-.111-.071,0-.03.042-.04.084-.041.068,0,.115.027.125.066S432.15,195.022,432.1,195.025Z" transform="translate(-263.916 -185.754)"/><path class="a" d="M391.292,204.159a.241.241,0,0,1,.253.09c-.123-.02-.22.017-.284-.049C391.246,204.184,391.267,204.164,391.292,204.159Z" transform="translate(-241.193 -196.809)"/><path class="a" d="M376.415,154.577c.008.005.005.031,0,.035a.294.294,0,0,1-.258-.019C376.265,154.576,376.334,154.526,376.415,154.577Z" transform="translate(-232.768 -137.761)"/><path class="a" d="M411.451,199.521c-.052,0-.115,0-.143-.043.007-.039.051-.051.091-.058a.092.092,0,0,1,.109.054C411.524,199.505,411.5,199.525,411.451,199.521Z" transform="translate(-252.379 -191.143)"/><path class="a" d="M381.12,204.565c.006-.042.039-.062.1-.06.039,0,.08,0,.08.039s-.061.048-.108.057S381.122,204.6,381.12,204.565Z" transform="translate(-235.539 -197.234)"/><path class="a" d="M395.022,202.6a.6.6,0,0,1-.251-.037.364.364,0,0,1,.256-.008A.023.023,0,0,1,395.022,202.6Z" transform="translate(-243.154 -194.855)"/><path class="a" d="M404.04,202.863c-.047,0-.091,0-.112-.045a.093.093,0,0,1,.082-.038c.049,0,.093.012.1.049S404.071,202.861,404.04,202.863Z" transform="translate(-248.262 -195.157)"/><path class="a" d="M420.261,198.5c-.044,0-.07-.016-.076-.046a.071.071,0,0,1,.081-.045c.033,0,.063.015.065.04S420.3,198.5,420.261,198.5Z" transform="translate(-257.331 -189.924)"/><path class="a" d="M396.82,201.83c.009,0,.005.036-.008.047-.057.045-.11-.012-.17-.011C396.7,201.842,396.746,201.8,396.82,201.83Z" transform="translate(-244.198 -194)"/></g></g></svg>