<svg width="202" height="142" viewBox="0 0 202 142" fill="none" xmlns="http://www.w3.org/2000/svg">
<circle cx="180" cy="73" r="22" fill="#474C4F" fill-opacity="0.52"/>
<circle cx="22" cy="22" r="22" fill="#474C4F" fill-opacity="0.52"/>
<path d="M167.972 80L169.053 76.772H173.974L175.061 80H177.592L172.977 66.9091H170.05L165.441 80H167.972ZM169.692 74.8672L171.462 69.5938H171.565L173.335 74.8672H169.692ZM179.317 66.9091V80H181.592V70.9872H181.714L185.331 79.9616H187.032L190.65 71.0064H190.771V80H193.047V66.9091H190.145L186.258 76.3949H186.105L182.219 66.9091H179.317Z" fill="#6F5ADC"/>
<path d="M14.2912 29H16.6626V25.1009L18.1136 23.3878L22.0192 29H24.87L19.7628 21.7834L24.8253 15.9091H21.9297L16.8224 21.924H16.6626V15.9091H14.2912V29ZM28.8443 15.9091H26.4728V29H28.8443V15.9091Z" fill="#6F5ADC"/>
<path opacity="0.1" d="M93.8937 73.0024H39.4937C37.6118 73.0563 35.8076 73.765 34.392 75.0063C32.9765 76.2475 32.0381 77.9436 31.7387 79.8024L24.0927 134.202C23.9393 135.048 23.9766 135.917 24.2018 136.746C24.427 137.575 24.8345 138.343 25.3945 138.995C25.9545 139.646 26.6528 140.165 27.4387 140.512C28.2245 140.859 29.0779 141.027 29.9367 141.002H84.3367C86.2188 140.949 88.0232 140.24 89.439 138.999C90.8548 137.757 91.7932 136.061 92.0927 134.202L99.7377 79.8024C99.8911 78.957 99.8538 78.0881 99.6286 77.259C99.4034 76.4299 98.9959 75.6615 98.4359 75.0099C97.876 74.3583 97.1776 73.84 96.3918 73.4927C95.6059 73.1453 94.7525 72.9778 93.8937 73.0024Z" fill="#AE9AFF"/>
<path opacity="0.1" d="M119.116 51.0026H58.3164C56.2131 51.063 54.1966 51.8551 52.6144 53.2424C51.0322 54.6296 49.9833 56.5252 49.6484 58.6026L41.1034 119.403C40.9322 120.347 40.974 121.319 41.2258 122.245C41.4776 123.172 41.933 124.03 42.5589 124.759C43.1848 125.487 43.9653 126.066 44.8436 126.454C45.7218 126.843 46.6756 127.03 47.6354 127.003H108.435C110.539 126.942 112.555 126.15 114.137 124.763C115.72 123.376 116.769 121.48 117.103 119.403L125.648 58.6026C125.82 57.6578 125.778 56.6867 125.526 55.7601C125.274 54.8334 124.819 53.9747 124.193 53.2465C123.567 52.5183 122.787 51.939 121.908 51.5508C121.03 51.1626 120.076 50.9753 119.116 51.0026Z" fill="#CABDFF"/>
<g filter="url(#filter0_b_1948_12071)">
<path fill-rule="evenodd" clip-rule="evenodd" d="M74.8389 31.0771C74.8389 44.443 85.7763 55.1542 99.4246 55.1542C113.068 55.1542 124.01 44.443 124.01 31.0771C124.01 17.7112 113.068 7 99.4246 7C85.7763 7 74.8389 17.7112 74.8389 31.0771ZM136.581 82.4153C136.581 70.0425 119.465 66.9469 99.4256 66.9469C79.2772 66.9469 62.27 70.1491 62.27 82.5316C62.27 94.9044 79.386 98 99.4256 98C119.574 98 136.581 94.7978 136.581 82.4153Z" fill="url(#paint0_linear_1948_12071)"/>
</g>
<defs>
<filter id="filter0_b_1948_12071" x="49.27" y="-6" width="100.311" height="117" filterUnits="userSpaceOnUse" color-interpolation-filters="sRGB">
<feFlood flood-opacity="0" result="BackgroundImageFix"/>
<feGaussianBlur in="BackgroundImage" stdDeviation="6.5"/>
<feComposite in2="SourceAlpha" operator="in" result="effect1_backgroundBlur_1948_12071"/>
<feBlend mode="normal" in="SourceGraphic" in2="effect1_backgroundBlur_1948_12071" result="shape"/>
</filter>
<linearGradient id="paint0_linear_1948_12071" x1="99.4256" y1="7" x2="36.1758" y2="118.446" gradientUnits="userSpaceOnUse">
<stop stop-color="white"/>
<stop offset="1" stop-color="#6F5ADC"/>
</linearGradient>
</defs>
</svg>
