<svg width="615" height="228" viewBox="0 0 615 228" fill="none" xmlns="http://www.w3.org/2000/svg">
<path opacity="0.1" d="M71.9644 167.001H53.3123C52.667 167.019 52.0484 167.259 51.563 167.679C51.0777 168.098 50.7559 168.672 50.6531 169.301L48.0317 187.699C47.9792 187.985 47.992 188.279 48.0693 188.56C48.1465 188.84 48.2862 189.1 48.4782 189.32C48.6702 189.541 48.9097 189.716 49.1791 189.833C49.4485 189.951 49.7412 190.007 50.0356 189.999H68.6877C69.333 189.981 69.9516 189.741 70.437 189.321C70.9223 188.902 71.2441 188.328 71.3469 187.699L73.9683 169.301C74.0208 169.015 74.008 168.721 73.9307 168.44C73.8535 168.16 73.7138 167.9 73.5218 167.68C73.3298 167.459 73.0903 167.284 72.8209 167.167C72.5515 167.049 72.2588 166.993 71.9644 167.001Z" fill="#CABDFF"/>
<g filter="url(#filter0_b_1948_12080)">
<rect x="266" y="20" width="144" height="192" rx="14" fill="white" fill-opacity="0.03"/>
</g>
<g filter="url(#filter1_b_1948_12080)">
<rect x="105" y="20" width="144" height="192" rx="14" fill="white" fill-opacity="0.03"/>
</g>
<g filter="url(#filter2_b_1948_12080)">
<path d="M266 86.3192C266 84.8274 267.096 83.5623 268.573 83.3498L406.573 63.4931C408.381 63.233 410 64.6357 410 66.4626V171.524C410 173.356 408.373 174.76 406.561 174.492L268.561 154.099C267.09 153.881 266 152.618 266 151.131V86.3192Z" fill="white" fill-opacity="0.03"/>
<path d="M266.5 86.3192C266.5 85.0761 267.413 84.0218 268.644 83.8447L406.644 63.9881C408.151 63.7712 409.5 64.9402 409.5 66.4626V171.524C409.5 173.05 408.144 174.22 406.635 173.997L268.635 153.604C267.408 153.423 266.5 152.37 266.5 151.131V86.3192Z" stroke="#E5E5E5" stroke-opacity="0.19"/>
</g>
<g filter="url(#filter3_b_1948_12080)">
<path d="M105 99.2405C105 97.6761 106.202 96.3742 107.762 96.25L245.762 85.2579C247.507 85.1189 249 86.4977 249 88.2485V143.745C249 145.498 247.503 146.878 245.755 146.735L107.755 135.445C106.199 135.318 105 134.017 105 132.455V99.2405Z" fill="white" fill-opacity="0.03"/>
<path d="M105.5 99.2405C105.5 97.9368 106.502 96.852 107.801 96.7484L245.801 85.7564C247.256 85.6405 248.5 86.7895 248.5 88.2485V143.745C248.5 145.206 247.252 146.355 245.796 146.236L107.796 134.947C106.499 134.841 105.5 133.757 105.5 132.455V99.2405Z" stroke="#E5E5E5" stroke-opacity="0.19"/>
</g>
<g filter="url(#filter4_b_1948_12080)">
<rect y="38" width="32" height="189" rx="5" transform="rotate(-90 0 38)" fill="white" fill-opacity="0.03"/>
<rect x="0.5" y="37.5" width="31" height="188" rx="4.5" transform="rotate(-90 0.5 37.5)" stroke="#E5E5E5" stroke-opacity="0.19"/>
</g>
<g filter="url(#filter5_b_1948_12080)">
<rect x="426" y="228" width="32" height="189" rx="5" transform="rotate(-90 426 228)" fill="white" fill-opacity="0.03"/>
</g>
<circle cx="19" cy="22" r="11" fill="#474C4F" fill-opacity="0.52"/>
<path d="M11.4375 19.2148H13.9102V26H15.3477V19.2148H17.8203V18H11.4375V19.2148ZM19.0508 26H20.5V23.0703H21.9766L23.5469 26H25.1641L23.4336 22.8281C24.375 22.4492 24.8711 21.6445 24.8711 20.5586C24.8711 19.0312 23.8867 18 22.0508 18H19.0508V26ZM20.5 21.8672V19.2109H21.8281C22.9102 19.2109 23.3945 19.707 23.3945 20.5586C23.3945 21.4102 22.9102 21.8672 21.8359 21.8672H20.5Z" fill="#6F5ADC"/>
<path d="M102 22C102 20.3554 99.5841 19 96.5806 19H42.4194C39.4485 19 37 20.3373 37 22C37 23.6446 39.4159 25 42.4194 25H96.5806C99.5515 25 102 23.6446 102 22Z" fill="#C4C4C4" fill-opacity="0.1"/>
<g filter="url(#filter6_b_1948_12080)">
<rect x="427" y="20" width="144" height="192" rx="14" fill="white" fill-opacity="0.03"/>
</g>
<g filter="url(#filter7_b_1948_12080)">
<path d="M427 55.3266C427 53.9573 427.927 52.7618 429.253 52.421L567.253 16.9627C569.152 16.4749 571 17.9085 571 19.8683V212.106C571 214.074 569.137 215.508 567.235 215.006L429.235 178.59C427.918 178.242 427 177.051 427 175.689V55.3266Z" fill="white" fill-opacity="0.03"/>
<path d="M427.5 55.3266C427.5 54.1855 428.273 53.1892 429.378 52.9053L567.378 17.4469C568.96 17.0405 570.5 18.2351 570.5 19.8683V212.106C570.5 213.746 568.948 214.941 567.362 214.523L429.362 178.106C428.265 177.817 427.5 176.824 427.5 175.689V55.3266Z" stroke="#E5E5E5" stroke-opacity="0.19"/>
</g>
<path fill-rule="evenodd" clip-rule="evenodd" d="M570.625 21.0654C570.625 24.6903 568.757 27.223 565.189 28.1775V31.2864C565.189 31.6046 564.943 31.854 564.62 31.854H561.263C560.957 31.854 560.689 31.6089 560.689 31.2864V28.1775C556.517 27.5885 554.235 25.1031 554.144 24.9956C553.967 24.7806 553.95 24.4796 554.11 24.2646L555.948 21.8652C556.129 21.6158 556.573 21.5685 556.785 21.8136C556.819 21.8308 559.317 24.213 562.475 24.213C564.223 24.213 566.112 23.2885 566.112 21.2804C566.112 19.5734 564.007 18.7392 561.6 17.776C558.39 16.5161 554.394 14.9165 554.394 10.4532C554.394 7.18091 556.176 4.72564 559.524 3.77965V0.580493C559.524 0.257997 559.792 0.00859989 560.094 0.00859989L563.67 0C563.99 0 564.24 0.249397 564.24 0.571893V3.69795C567.86 4.10645 569.788 6.06292 569.857 6.13602C570.039 6.32952 570.073 6.59612 569.948 6.81112L568.503 9.40398C568.317 9.74368 567.907 9.78668 567.61 9.56738C567.592 9.55018 565.435 7.64531 562.76 7.64531C560.495 7.64531 558.925 8.76759 558.925 10.3844C558.925 12.2677 561.099 13.1062 563.632 14.0823C566.915 15.3422 570.625 16.7827 570.625 21.0697V21.0654Z" fill="url(#paint0_linear_1948_12080)"/>
<defs>
<filter id="filter0_b_1948_12080" x="210" y="-36" width="256" height="304" filterUnits="userSpaceOnUse" color-interpolation-filters="sRGB">
<feFlood flood-opacity="0" result="BackgroundImageFix"/>
<feGaussianBlur in="BackgroundImage" stdDeviation="28"/>
<feComposite in2="SourceAlpha" operator="in" result="effect1_backgroundBlur_1948_12080"/>
<feBlend mode="normal" in="SourceGraphic" in2="effect1_backgroundBlur_1948_12080" result="shape"/>
</filter>
<filter id="filter1_b_1948_12080" x="49" y="-36" width="256" height="304" filterUnits="userSpaceOnUse" color-interpolation-filters="sRGB">
<feFlood flood-opacity="0" result="BackgroundImageFix"/>
<feGaussianBlur in="BackgroundImage" stdDeviation="28"/>
<feComposite in2="SourceAlpha" operator="in" result="effect1_backgroundBlur_1948_12080"/>
<feBlend mode="normal" in="SourceGraphic" in2="effect1_backgroundBlur_1948_12080" result="shape"/>
</filter>
<filter id="filter2_b_1948_12080" x="210" y="7.46198" width="256" height="223.063" filterUnits="userSpaceOnUse" color-interpolation-filters="sRGB">
<feFlood flood-opacity="0" result="BackgroundImageFix"/>
<feGaussianBlur in="BackgroundImage" stdDeviation="28"/>
<feComposite in2="SourceAlpha" operator="in" result="effect1_backgroundBlur_1948_12080"/>
<feBlend mode="normal" in="SourceGraphic" in2="effect1_backgroundBlur_1948_12080" result="shape"/>
</filter>
<filter id="filter3_b_1948_12080" x="49" y="29.2483" width="256" height="173.496" filterUnits="userSpaceOnUse" color-interpolation-filters="sRGB">
<feFlood flood-opacity="0" result="BackgroundImageFix"/>
<feGaussianBlur in="BackgroundImage" stdDeviation="28"/>
<feComposite in2="SourceAlpha" operator="in" result="effect1_backgroundBlur_1948_12080"/>
<feBlend mode="normal" in="SourceGraphic" in2="effect1_backgroundBlur_1948_12080" result="shape"/>
</filter>
<filter id="filter4_b_1948_12080" x="-56" y="-50" width="301" height="144" filterUnits="userSpaceOnUse" color-interpolation-filters="sRGB">
<feFlood flood-opacity="0" result="BackgroundImageFix"/>
<feGaussianBlur in="BackgroundImage" stdDeviation="28"/>
<feComposite in2="SourceAlpha" operator="in" result="effect1_backgroundBlur_1948_12080"/>
<feBlend mode="normal" in="SourceGraphic" in2="effect1_backgroundBlur_1948_12080" result="shape"/>
</filter>
<filter id="filter5_b_1948_12080" x="370" y="140" width="301" height="144" filterUnits="userSpaceOnUse" color-interpolation-filters="sRGB">
<feFlood flood-opacity="0" result="BackgroundImageFix"/>
<feGaussianBlur in="BackgroundImage" stdDeviation="28"/>
<feComposite in2="SourceAlpha" operator="in" result="effect1_backgroundBlur_1948_12080"/>
<feBlend mode="normal" in="SourceGraphic" in2="effect1_backgroundBlur_1948_12080" result="shape"/>
</filter>
<filter id="filter6_b_1948_12080" x="371" y="-36" width="256" height="304" filterUnits="userSpaceOnUse" color-interpolation-filters="sRGB">
<feFlood flood-opacity="0" result="BackgroundImageFix"/>
<feGaussianBlur in="BackgroundImage" stdDeviation="28"/>
<feComposite in2="SourceAlpha" operator="in" result="effect1_backgroundBlur_1948_12080"/>
<feBlend mode="normal" in="SourceGraphic" in2="effect1_backgroundBlur_1948_12080" result="shape"/>
</filter>
<filter id="filter7_b_1948_12080" x="371" y="-39.1332" width="256" height="310.241" filterUnits="userSpaceOnUse" color-interpolation-filters="sRGB">
<feFlood flood-opacity="0" result="BackgroundImageFix"/>
<feGaussianBlur in="BackgroundImage" stdDeviation="28"/>
<feComposite in2="SourceAlpha" operator="in" result="effect1_backgroundBlur_1948_12080"/>
<feBlend mode="normal" in="SourceGraphic" in2="effect1_backgroundBlur_1948_12080" result="shape"/>
</filter>
<linearGradient id="paint0_linear_1948_12080" x1="562.313" y1="0" x2="562.313" y2="31.854" gradientUnits="userSpaceOnUse">
<stop stop-color="#502EFF"/>
<stop offset="1" stop-color="#6F5ADC"/>
</linearGradient>
</defs>
</svg>
