<svg width="230" height="126" viewBox="0 0 230 126" fill="none" xmlns="http://www.w3.org/2000/svg">
<path opacity="0.1" d="M228.747 0.000480409H217.269C216.872 0.0116128 216.491 0.157508 216.193 0.413037C215.894 0.668566 215.696 1.01773 215.633 1.40038L214.02 12.5996C213.987 12.7736 213.995 12.9525 214.043 13.1232C214.09 13.2939 214.176 13.4521 214.294 13.5862C214.412 13.7203 214.56 13.827 214.726 13.8985C214.891 13.97 215.071 14.0045 215.253 13.9995H226.731C227.128 13.9884 227.509 13.8425 227.807 13.587C228.106 13.3314 228.304 12.9823 228.367 12.5996L229.98 1.40038C230.013 1.22635 230.005 1.04747 229.957 0.876792C229.91 0.706113 229.824 0.547939 229.706 0.413805C229.588 0.279671 229.44 0.172959 229.274 0.101454C229.109 0.0299485 228.929 -0.00454782 228.747 0.000480409Z" fill="#CABDFF"/>
<g filter="url(#filter0_b_1948_12075)">
<rect y="30" width="201" height="28" rx="5" fill="white" fill-opacity="0.03"/>
<rect x="0.5" y="30.5" width="200" height="27" rx="4.5" stroke="#E5E5E5" stroke-opacity="0.19"/>
</g>
<g filter="url(#filter1_b_1948_12075)">
<rect x="19" y="64" width="195" height="28" rx="5" fill="white" fill-opacity="0.03"/>
<rect x="19.5" y="64.5" width="194" height="27" rx="4.5" stroke="#E5E5E5" stroke-opacity="0.19"/>
</g>
<g filter="url(#filter2_b_1948_12075)">
<rect x="30" y="98" width="195" height="28" rx="5" fill="white" fill-opacity="0.03"/>
<rect x="30.5" y="98.5" width="194" height="27" rx="4.5" stroke="#E5E5E5" stroke-opacity="0.19"/>
</g>
<circle cx="184" cy="44" r="5" fill="#FF0000"/>
<circle cx="196" cy="79" r="5" fill="#FFAC33"/>
<circle cx="206" cy="112" r="5" fill="#0AF48D"/>
<rect x="9" y="42" width="64" height="5" rx="2.5" fill="#C4C4C4" fill-opacity="0.07"/>
<rect x="33" y="77" width="64" height="5" rx="2.5" fill="#C4C4C4" fill-opacity="0.07"/>
<rect x="44" y="112" width="64" height="5" rx="2.5" fill="#C4C4C4" fill-opacity="0.07"/>
<defs>
<filter id="filter0_b_1948_12075" x="-56" y="-26" width="313" height="140" filterUnits="userSpaceOnUse" color-interpolation-filters="sRGB">
<feFlood flood-opacity="0" result="BackgroundImageFix"/>
<feGaussianBlur in="BackgroundImage" stdDeviation="28"/>
<feComposite in2="SourceAlpha" operator="in" result="effect1_backgroundBlur_1948_12075"/>
<feBlend mode="normal" in="SourceGraphic" in2="effect1_backgroundBlur_1948_12075" result="shape"/>
</filter>
<filter id="filter1_b_1948_12075" x="-37" y="8" width="307" height="140" filterUnits="userSpaceOnUse" color-interpolation-filters="sRGB">
<feFlood flood-opacity="0" result="BackgroundImageFix"/>
<feGaussianBlur in="BackgroundImage" stdDeviation="28"/>
<feComposite in2="SourceAlpha" operator="in" result="effect1_backgroundBlur_1948_12075"/>
<feBlend mode="normal" in="SourceGraphic" in2="effect1_backgroundBlur_1948_12075" result="shape"/>
</filter>
<filter id="filter2_b_1948_12075" x="-26" y="42" width="307" height="140" filterUnits="userSpaceOnUse" color-interpolation-filters="sRGB">
<feFlood flood-opacity="0" result="BackgroundImageFix"/>
<feGaussianBlur in="BackgroundImage" stdDeviation="28"/>
<feComposite in2="SourceAlpha" operator="in" result="effect1_backgroundBlur_1948_12075"/>
<feBlend mode="normal" in="SourceGraphic" in2="effect1_backgroundBlur_1948_12075" result="shape"/>
</filter>
</defs>
</svg>
