<svg width="347" height="211" viewBox="0 0 347 211" fill="none" xmlns="http://www.w3.org/2000/svg">
<g filter="url(#filter0_b_1948_12082)">
<rect y="13" width="69" height="63" rx="14" fill="white" fill-opacity="0.03"/>
<rect x="0.5" y="13.5" width="68" height="62" rx="13.5" stroke="#E5E5E5" stroke-opacity="0.19"/>
</g>
<g filter="url(#filter1_b_1948_12082)">
<rect x="44" y="148" width="69" height="63" rx="14" fill="white" fill-opacity="0.03"/>
</g>
<g filter="url(#filter2_b_1948_12082)">
<rect x="182" width="69" height="63" rx="14" fill="white" fill-opacity="0.03"/>
</g>
<path d="M132.007 53C127.006 53.0211 122.047 53.9177 117.355 55.649C117.864 57.0648 118.02 58.5834 117.808 60.073L116.953 66.158C121.22 64.1242 125.88 63.0465 130.607 63C147.175 63 158.719 76.431 156.39 93C154.061 109.569 138.743 123 122.175 123C105.607 123 94.0632 109.569 96.3912 93C97.0848 88.2965 98.7723 83.7946 101.341 79.794H95.3192C94.5776 79.788 93.8393 79.6954 93.1192 79.518C93.0792 79.508 93.0422 79.491 93.0022 79.481C92.3304 79.3101 91.6819 79.0579 91.0712 78.73C88.7074 83.1841 87.1268 88.0114 86.3982 93.001C83.2932 115.092 98.6852 133.001 120.775 133.001C142.865 133.001 163.291 115.093 166.396 93.001C169.501 70.909 154.107 53 132.007 53ZM123.575 113C134.621 113 144.833 104.046 146.385 93C147.937 81.954 140.242 73 129.197 73C126.46 73.0336 123.757 73.6008 121.237 74.67L128.455 83.07C129.658 83.1241 130.835 83.4346 131.907 83.9807C132.98 84.5268 133.923 85.2959 134.674 86.2365C135.425 87.177 135.967 88.2673 136.262 89.4341C136.557 90.6009 136.6 91.8174 136.386 93.002C135.945 95.7354 134.565 98.2296 132.483 100.055C130.401 101.88 127.748 102.922 124.98 103.002C123.778 103.036 122.582 102.812 121.473 102.346C120.364 101.88 119.367 101.181 118.551 100.298C117.734 99.4143 117.116 98.3663 116.738 97.2242C116.36 96.082 116.231 94.8722 116.359 93.676L109.069 85.193C107.694 87.6053 106.783 90.2546 106.386 93.003C104.839 104.045 112.534 112.999 123.58 112.999L123.575 113Z" fill="url(#paint0_linear_1948_12082)"/>
<g filter="url(#filter3_b_1948_12082)">
<rect x="186" y="117" width="161" height="56" rx="14" fill="white" fill-opacity="0.03"/>
<rect x="186.5" y="117.5" width="160" height="55" rx="13.5" stroke="#E5E5E5" stroke-opacity="0.19"/>
</g>
<rect x="204" y="130" width="125" height="11" rx="5.5" fill="#7E7E7E" fill-opacity="0.22"/>
<rect x="204" y="148" width="89" height="11" rx="5.5" fill="#C4C4C4" fill-opacity="0.07"/>
<g clip-path="url(#clip0_1948_12082)">
<path d="M125.894 88.735L108.728 68.758L110.3 57.572C110.401 56.9478 110.366 56.3093 110.2 55.6995C110.033 55.0897 109.737 54.5228 109.332 54.037L98.3252 41.231C97.9802 40.831 97.5792 40.963 97.4332 41.526L94.6202 52.345L93.0032 50.464C92.5344 49.9953 91.8986 49.732 91.2357 49.732C90.5728 49.732 89.937 49.9953 89.4682 50.464C88.9397 50.8712 88.5914 51.469 88.498 52.1296C88.4045 52.7902 88.5733 53.4612 88.9682 53.999L121.86 92.27C122.092 92.5022 122.368 92.6864 122.671 92.8121C122.975 92.9378 123.3 93.0025 123.628 93.0025C123.957 93.0025 124.282 92.9378 124.585 92.8121C124.888 92.6864 125.164 92.5022 125.396 92.27C125.923 91.8165 126.27 91.1899 126.376 90.503C126.428 90.191 126.411 89.8715 126.328 89.5664C126.245 89.2613 126.097 88.9777 125.894 88.735ZM79.5872 57.173C79.0152 57.24 78.8292 57.623 79.1732 58.023L90.1802 70.83C90.5958 71.3011 91.1089 71.6762 91.6839 71.9292C92.2589 72.1822 92.8821 72.307 93.5102 72.295H101.158L87.3742 56.258L79.5872 57.173Z" fill="url(#paint1_linear_1948_12082)"/>
</g>
<path fill-rule="evenodd" clip-rule="evenodd" d="M43.6253 50.0654C43.6253 53.6903 41.7571 56.223 38.1891 57.1775V60.2864C38.1891 60.6046 37.9432 60.854 37.6196 60.854H34.263C33.9567 60.854 33.6892 60.6089 33.6892 60.2864V57.1775C29.5171 56.5885 27.2348 54.1031 27.1442 53.9956C26.9673 53.7806 26.9501 53.4796 27.1097 53.2646L28.9476 50.8652C29.1288 50.6158 29.5732 50.5685 29.7846 50.8136C29.8191 50.8308 32.3172 53.213 35.4753 53.213C37.2227 53.213 39.1124 52.2885 39.1124 50.2804C39.1124 48.5734 37.007 47.7392 34.5995 46.776C31.3896 45.5161 27.3944 43.9165 27.3944 39.4532C27.3944 36.1809 29.1763 33.7256 32.5243 32.7797V29.5805C32.5243 29.258 32.7918 29.0086 33.0938 29.0086L36.6704 29C36.9897 29 37.2399 29.2494 37.2399 29.5719V32.698C40.8597 33.1064 42.7883 35.0629 42.8573 35.136C43.0385 35.3295 43.073 35.5961 42.9479 35.8111L41.5026 38.404C41.3171 38.7437 40.9072 38.7867 40.6095 38.5674C40.5923 38.5502 38.435 36.6453 35.7601 36.6453C33.495 36.6453 31.9246 37.7676 31.9246 39.3844C31.9246 41.2677 34.099 42.1062 36.6316 43.0823C39.9149 44.3422 43.6253 45.7827 43.6253 50.0697V50.0654Z" fill="url(#paint2_linear_1948_12082)"/>
<defs>
<filter id="filter0_b_1948_12082" x="-56" y="-43" width="181" height="175" filterUnits="userSpaceOnUse" color-interpolation-filters="sRGB">
<feFlood flood-opacity="0" result="BackgroundImageFix"/>
<feGaussianBlur in="BackgroundImage" stdDeviation="28"/>
<feComposite in2="SourceAlpha" operator="in" result="effect1_backgroundBlur_1948_12082"/>
<feBlend mode="normal" in="SourceGraphic" in2="effect1_backgroundBlur_1948_12082" result="shape"/>
</filter>
<filter id="filter1_b_1948_12082" x="-12" y="92" width="181" height="175" filterUnits="userSpaceOnUse" color-interpolation-filters="sRGB">
<feFlood flood-opacity="0" result="BackgroundImageFix"/>
<feGaussianBlur in="BackgroundImage" stdDeviation="28"/>
<feComposite in2="SourceAlpha" operator="in" result="effect1_backgroundBlur_1948_12082"/>
<feBlend mode="normal" in="SourceGraphic" in2="effect1_backgroundBlur_1948_12082" result="shape"/>
</filter>
<filter id="filter2_b_1948_12082" x="126" y="-56" width="181" height="175" filterUnits="userSpaceOnUse" color-interpolation-filters="sRGB">
<feFlood flood-opacity="0" result="BackgroundImageFix"/>
<feGaussianBlur in="BackgroundImage" stdDeviation="28"/>
<feComposite in2="SourceAlpha" operator="in" result="effect1_backgroundBlur_1948_12082"/>
<feBlend mode="normal" in="SourceGraphic" in2="effect1_backgroundBlur_1948_12082" result="shape"/>
</filter>
<filter id="filter3_b_1948_12082" x="130" y="61" width="273" height="168" filterUnits="userSpaceOnUse" color-interpolation-filters="sRGB">
<feFlood flood-opacity="0" result="BackgroundImageFix"/>
<feGaussianBlur in="BackgroundImage" stdDeviation="28"/>
<feComposite in2="SourceAlpha" operator="in" result="effect1_backgroundBlur_1948_12082"/>
<feBlend mode="normal" in="SourceGraphic" in2="effect1_backgroundBlur_1948_12082" result="shape"/>
</filter>
<linearGradient id="paint0_linear_1948_12082" x1="126.397" y1="53" x2="175.5" y2="160" gradientUnits="userSpaceOnUse">
<stop stop-color="white"/>
<stop offset="1" stop-color="#6F5ADC"/>
</linearGradient>
<linearGradient id="paint1_linear_1948_12082" x1="82.0818" y1="49.2162" x2="131.565" y2="85.3031" gradientUnits="userSpaceOnUse">
<stop stop-color="#502EFF"/>
<stop offset="0.401042" stop-color="#6F5ADC"/>
<stop offset="0.578125" stop-color="#AE9AFF"/>
<stop offset="0.663" stop-color="#D1C7FF"/>
<stop offset="1" stop-color="#C3B8FF"/>
</linearGradient>
<linearGradient id="paint2_linear_1948_12082" x1="35.3126" y1="29" x2="35.3126" y2="60.854" gradientUnits="userSpaceOnUse">
<stop stop-color="#502EFF"/>
<stop offset="1" stop-color="#6F5ADC"/>
</linearGradient>
<clipPath id="clip0_1948_12082">
<rect width="47.403" height="52.002" fill="white" transform="translate(79 41)"/>
</clipPath>
</defs>
</svg>
