<svg width="254" height="92" viewBox="0 0 254 92" fill="none" xmlns="http://www.w3.org/2000/svg">
<path opacity="0.1" d="M23.9644 37.0008H5.3123C4.66703 37.0191 4.04843 37.2588 3.56305 37.6786C3.07766 38.0984 2.75589 38.672 2.65315 39.3006L0.0317283 57.6994C-0.0208036 57.9853 -0.00797774 58.2792 0.0692693 58.5596C0.146516 58.84 0.286236 59.0998 0.478241 59.3202C0.670245 59.5405 0.909692 59.7159 1.17912 59.8333C1.44854 59.9508 1.74115 60.0075 2.0356 59.9992H20.6877C21.333 59.9809 21.9516 59.7412 22.437 59.3214C22.9223 58.9016 23.2441 58.328 23.3469 57.6994L25.9683 39.3006C26.0208 39.0147 26.008 38.7208 25.9307 38.4404C25.8535 38.16 25.7138 37.9002 25.5218 37.6798C25.3298 37.4595 25.0903 37.2841 24.8209 37.1667C24.5515 37.0492 24.2588 36.9925 23.9644 37.0008Z" fill="#CABDFF"/>
<path opacity="0.1" d="M138.964 50.0008H120.312C119.667 50.0191 119.048 50.2587 118.563 50.6785C118.078 51.0983 117.756 51.672 117.653 52.3006L115.032 70.6994C114.979 70.9853 114.992 71.2792 115.069 71.5596C115.146 71.84 115.286 72.0999 115.478 72.3202C115.67 72.5406 115.91 72.7159 116.179 72.8334C116.448 72.9508 116.741 73.0075 117.036 72.9992H135.688C136.333 72.981 136.952 72.7414 137.437 72.3216C137.923 71.9018 138.244 71.3281 138.347 70.6994L140.968 52.3006C141.021 52.0147 141.008 51.7208 140.931 51.4404C140.854 51.16 140.714 50.9001 140.522 50.6798C140.33 50.4594 140.09 50.2841 139.821 50.1666C139.552 50.0492 139.259 49.9925 138.964 50.0008Z" fill="#AE9AFF"/>
<g filter="url(#filter0_b_1948_12073)">
<rect x="38" y="38" width="201" height="47" rx="5" fill="white" fill-opacity="0.03"/>
</g>
<g filter="url(#filter1_b_1948_12073)">
<rect x="16" width="201" height="47" rx="5" fill="white" fill-opacity="0.03"/>
<rect x="16.5" y="0.5" width="200" height="46" rx="4.5" stroke="#E5E5E5" stroke-opacity="0.19"/>
</g>
<rect x="61" y="13" width="140" height="5" rx="2.5" fill="#C4C4C4" fill-opacity="0.07"/>
<rect x="61" y="25" width="64" height="5" rx="2.5" fill="#C4C4C4" fill-opacity="0.07"/>
<path d="M163.244 25.4545H162.116L160.489 26.4996V27.5863L162.02 26.6083H162.058V32H163.244V25.4545ZM164.906 32H169.393V31.0092H166.542V30.9645L167.67 29.8171C168.942 28.5962 169.294 28.0018 169.294 27.2635C169.294 26.1673 168.402 25.3651 167.086 25.3651C165.788 25.3651 164.868 26.1705 164.868 27.4137H165.996C165.996 26.7457 166.418 26.3271 167.07 26.3271C167.693 26.3271 168.156 26.7074 168.156 27.3242C168.156 27.8707 167.824 28.2607 167.178 28.9158L164.906 31.1435V32ZM171.221 31.2138C171.598 31.2138 171.921 30.9006 171.924 30.5107C171.921 30.1271 171.598 29.8139 171.221 29.8139C170.831 29.8139 170.515 30.1271 170.518 30.5107C170.515 30.9006 170.831 31.2138 171.221 31.2138ZM171.221 27.9666C171.598 27.9666 171.921 27.6534 171.924 27.2635C171.921 26.88 171.598 26.5668 171.221 26.5668C170.831 26.5668 170.515 26.88 170.518 27.2635C170.515 27.6534 170.831 27.9666 171.221 27.9666ZM175.525 32.1246C177.104 32.1278 178.047 30.8814 178.047 28.7337C178.047 26.5987 177.098 25.3651 175.525 25.3651C173.953 25.3651 173.007 26.5955 173.004 28.7337C173.004 30.8782 173.947 32.1246 175.525 32.1246ZM175.525 31.1243C174.71 31.1243 174.199 30.3061 174.202 28.7337C174.206 27.174 174.714 26.3526 175.525 26.3526C176.34 26.3526 176.849 27.174 176.852 28.7337C176.852 30.3061 176.344 31.1243 175.525 31.1243ZM181.528 32.1246C183.107 32.1278 184.05 30.8814 184.05 28.7337C184.05 26.5987 183.101 25.3651 181.528 25.3651C179.956 25.3651 179.01 26.5955 179.007 28.7337C179.007 30.8782 179.95 32.1246 181.528 32.1246ZM181.528 31.1243C180.713 31.1243 180.202 30.3061 180.205 28.7337C180.208 27.174 180.717 26.3526 181.528 26.3526C182.343 26.3526 182.852 27.174 182.855 28.7337C182.855 30.3061 182.347 31.1243 181.528 31.1243ZM187.408 32H188.594V29.7884H189.847C191.359 29.7884 192.17 28.8807 192.17 27.6214C192.17 26.3718 191.368 25.4545 189.863 25.4545H187.408V32ZM188.594 28.8136V26.4453H189.681C190.569 26.4453 190.962 26.9247 190.962 27.6214C190.962 28.3182 190.569 28.8136 189.687 28.8136H188.594ZM193.2 25.4545V32H194.338V27.4936H194.399L196.208 31.9808H197.058L198.867 27.5032H198.928V32H200.065V25.4545H198.614L196.671 30.1974H196.594L194.651 25.4545H193.2Z" fill="#6F5ADC"/>
<circle cx="38.5" cy="23.5" r="16.5" fill="#474C4F" fill-opacity="0.52"/>
<path d="M28.5568 20.3643H31.7038V29H33.5334V20.3643H36.6804V18.8182H28.5568V20.3643ZM38.2464 29H40.0909V25.2713H41.9702L43.9688 29H46.027L43.8246 24.9631C45.0227 24.4808 45.6541 23.4567 45.6541 22.0746C45.6541 20.1307 44.4013 18.8182 42.0646 18.8182H38.2464V29ZM40.0909 23.7401V20.3594H41.7812C43.1584 20.3594 43.7749 20.9908 43.7749 22.0746C43.7749 23.1584 43.1584 23.7401 41.7912 23.7401H40.0909Z" fill="#6F5ADC"/>
<path d="M235.208 91.4361C245.265 91.4361 253.417 83.2796 253.417 73.218C253.417 63.1565 245.265 55 235.208 55C225.152 55 217 63.1565 217 73.218C217 83.2796 225.152 91.4361 235.208 91.4361Z" fill="white" fill-opacity="0.28"/>
<path d="M229.683 81.0584C229.577 81.0584 229.474 81.0289 229.385 80.9732C229.295 80.9176 229.223 80.8381 229.176 80.7436C229.129 80.6492 229.11 80.5435 229.12 80.4385C229.13 80.3336 229.169 80.2335 229.233 80.1496L234.643 73.0273V58.3238C234.643 58.1736 234.702 58.0296 234.808 57.9234C234.914 57.8172 235.058 57.7576 235.209 57.7576C235.359 57.7576 235.503 57.8172 235.609 57.9234C235.715 58.0296 235.774 58.1736 235.774 58.3238V73.2181C235.774 73.3418 235.734 73.4622 235.659 73.5607L230.134 80.8349C230.081 80.9045 230.013 80.9609 229.934 80.9997C229.856 81.0384 229.77 81.0586 229.683 81.0584Z" fill="#252B2E" fill-opacity="0.7"/>
<path d="M235.209 75.4504C236.441 75.4504 237.44 74.451 237.44 73.2181C237.44 71.9851 236.441 70.9857 235.209 70.9857C233.976 70.9857 232.977 71.9851 232.977 73.2181C232.977 74.451 233.976 75.4504 235.209 75.4504Z" fill="#252B2E" fill-opacity="0.7"/>
<defs>
<filter id="filter0_b_1948_12073" x="-18" y="-18" width="313" height="159" filterUnits="userSpaceOnUse" color-interpolation-filters="sRGB">
<feFlood flood-opacity="0" result="BackgroundImageFix"/>
<feGaussianBlur in="BackgroundImage" stdDeviation="28"/>
<feComposite in2="SourceAlpha" operator="in" result="effect1_backgroundBlur_1948_12073"/>
<feBlend mode="normal" in="SourceGraphic" in2="effect1_backgroundBlur_1948_12073" result="shape"/>
</filter>
<filter id="filter1_b_1948_12073" x="-40" y="-56" width="313" height="159" filterUnits="userSpaceOnUse" color-interpolation-filters="sRGB">
<feFlood flood-opacity="0" result="BackgroundImageFix"/>
<feGaussianBlur in="BackgroundImage" stdDeviation="28"/>
<feComposite in2="SourceAlpha" operator="in" result="effect1_backgroundBlur_1948_12073"/>
<feBlend mode="normal" in="SourceGraphic" in2="effect1_backgroundBlur_1948_12073" result="shape"/>
</filter>
</defs>
</svg>
