<svg width="240" height="163" viewBox="0 0 240 163" fill="none" xmlns="http://www.w3.org/2000/svg">
<g filter="url(#filter0_b_1948_12077)">
<rect y="163" width="116" height="38" rx="5" transform="rotate(-90 0 163)" fill="white" fill-opacity="0.03"/>
<rect x="0.5" y="162.5" width="115" height="37" rx="4.5" transform="rotate(-90 0.5 162.5)" stroke="#E5E5E5" stroke-opacity="0.19"/>
</g>
<g filter="url(#filter1_b_1948_12077)">
<rect x="43" y="163" width="93" height="38" rx="5" transform="rotate(-90 43 163)" fill="white" fill-opacity="0.03"/>
<rect x="43.5" y="162.5" width="92" height="37" rx="4.5" transform="rotate(-90 43.5 162.5)" stroke="#E5E5E5" stroke-opacity="0.19"/>
</g>
<g filter="url(#filter2_b_1948_12077)">
<rect x="87" y="163" width="69" height="38" rx="5" transform="rotate(-90 87 163)" fill="white" fill-opacity="0.03"/>
<rect x="87.5" y="162.5" width="68" height="37" rx="4.5" transform="rotate(-90 87.5 162.5)" stroke="#E5E5E5" stroke-opacity="0.19"/>
</g>
<g filter="url(#filter3_b_1948_12077)">
<rect x="131" y="163" width="103" height="38" rx="5" transform="rotate(-90 131 163)" fill="white" fill-opacity="0.03"/>
<rect x="131.5" y="162.5" width="102" height="37" rx="4.5" transform="rotate(-90 131.5 162.5)" stroke="#E5E5E5" stroke-opacity="0.19"/>
</g>
<path d="M147.809 44.7761V51.4925C148.151 51.1803 148.436 50.7356 148.635 50.2016C148.834 49.6676 148.942 49.0623 148.947 48.4445V47.8242C148.942 47.2063 148.834 46.6011 148.635 46.0671C148.436 45.5331 148.151 45.0884 147.809 44.7761Z" fill="#6F5ADC"/>
<path d="M140.98 35.5104V36.1311C140.991 36.7489 141.206 37.3541 141.605 37.8881C142.004 38.4221 142.573 38.8668 143.257 39.1791V32.4627C142.573 32.7749 142.004 33.2195 141.605 33.7535C141.206 34.2874 140.991 34.8926 140.98 35.5104Z" fill="#6F5ADC"/>
<path opacity="0.7" d="M238.373 0.676151C238.129 0.449967 237.841 0.273868 237.527 0.158102C237.213 0.0423354 236.878 -0.0107909 236.543 0.00181618L212.664 0.802786C212.086 0.822473 211.539 1.06746 211.144 1.48384C210.75 1.90022 210.539 2.45391 210.559 3.02308C210.579 3.59224 210.828 4.13028 211.251 4.51882C211.674 4.90736 212.237 5.11458 212.815 5.0949L231.876 4.45563L188.922 54.1336L177.642 50.3449C179.708 42.3634 178.643 33.9087 174.66 26.6654C170.676 19.4221 164.066 13.922 156.146 11.2609C148.227 8.59992 139.58 8.97338 131.928 12.3069C124.275 15.6404 118.18 21.6892 114.856 29.2481L102.384 25.0565C101.976 24.9196 101.536 24.9046 101.12 25.0134C100.704 25.1222 100.329 25.3499 100.044 25.6679L67.5454 61.9233C67.1628 62.3503 66.9681 62.9094 67.0043 63.4776C67.0404 64.0458 67.3044 64.5766 67.7382 64.9532C68.172 65.3298 68.74 65.5214 69.3173 65.4858C69.8946 65.4502 70.4338 65.1904 70.8165 64.7634L102.353 29.5833L113.392 33.2923C111.061 41.3644 111.967 50.009 115.922 57.4429C119.878 64.8767 126.582 70.5326 134.65 73.2437C142.719 75.9547 151.537 75.5141 159.286 72.0128C167.034 68.5115 173.121 62.2165 176.292 54.4266L188.917 58.6672C189.331 58.8063 189.778 58.8195 190.2 58.7053C190.622 58.5912 190.999 58.3548 191.282 58.0269L234.993 7.46955L235.64 26.0779C235.659 26.6342 235.896 27.1616 236.303 27.5487C236.709 27.9358 237.252 28.1524 237.818 28.1527C237.843 28.1527 237.868 28.1527 237.894 28.1527C238.472 28.1333 239.018 27.8888 239.413 27.4728C239.808 27.0569 240.018 26.5037 239.999 25.9348L239.185 2.43156C239.174 2.10061 239.097 1.77497 238.958 1.47361C238.819 1.17224 238.62 0.901161 238.373 0.676151ZM153.863 47.7957C153.852 49.5685 153.237 51.2865 152.117 52.6748C150.997 54.0632 149.436 55.0416 147.684 55.4537V57.4527C147.684 58.022 147.454 58.5679 147.045 58.9705C146.636 59.373 146.081 59.5991 145.503 59.5991C144.925 59.5991 144.37 59.373 143.961 58.9705C143.552 58.5679 143.322 58.022 143.322 57.4527V55.4537C141.575 55.0397 140.019 54.0595 138.906 52.6706C137.793 51.2817 137.186 49.5648 137.184 47.7957C137.184 47.2264 137.413 46.6804 137.822 46.2779C138.231 45.8754 138.786 45.6492 139.364 45.6492C139.943 45.6492 140.497 45.8754 140.906 46.2779C141.315 46.6804 141.545 47.2264 141.545 47.7957C141.546 48.4154 141.71 49.0243 142.022 49.5629C142.333 50.1015 142.781 50.5512 143.322 50.8682V43.3694C141.57 42.9574 140.01 41.9789 138.889 40.5906C137.769 39.2022 137.155 37.4842 137.144 35.7113V35.0857C137.155 33.3128 137.769 31.5948 138.889 30.2065C140.01 28.8181 141.57 27.8397 143.322 27.4276V25.4289C143.322 24.8597 143.552 24.3137 143.961 23.9112C144.37 23.5087 144.925 23.2825 145.503 23.2825C146.081 23.2825 146.636 23.5087 147.045 23.9112C147.454 24.3137 147.684 24.8597 147.684 25.4289V27.4276C149.431 27.8416 150.987 28.8218 152.1 30.2107C153.213 31.5996 153.82 33.3165 153.823 35.0857C153.823 35.6549 153.593 36.2009 153.184 36.6034C152.775 37.0059 152.22 37.2321 151.642 37.2321C151.063 37.2321 150.509 37.0059 150.1 36.6034C149.691 36.2009 149.461 35.6549 149.461 35.0857C149.46 34.466 149.296 33.8571 148.985 33.3186C148.673 32.7801 148.225 32.3304 147.684 32.0134V39.5123C149.436 39.9243 150.997 40.9027 152.117 42.2911C153.237 43.6794 153.852 45.3975 153.863 47.1703V47.7957Z" fill="#6F5ADC"/>
<defs>
<filter id="filter0_b_1948_12077" x="-56" y="-9" width="150" height="228" filterUnits="userSpaceOnUse" color-interpolation-filters="sRGB">
<feFlood flood-opacity="0" result="BackgroundImageFix"/>
<feGaussianBlur in="BackgroundImage" stdDeviation="28"/>
<feComposite in2="SourceAlpha" operator="in" result="effect1_backgroundBlur_1948_12077"/>
<feBlend mode="normal" in="SourceGraphic" in2="effect1_backgroundBlur_1948_12077" result="shape"/>
</filter>
<filter id="filter1_b_1948_12077" x="-13" y="14" width="150" height="205" filterUnits="userSpaceOnUse" color-interpolation-filters="sRGB">
<feFlood flood-opacity="0" result="BackgroundImageFix"/>
<feGaussianBlur in="BackgroundImage" stdDeviation="28"/>
<feComposite in2="SourceAlpha" operator="in" result="effect1_backgroundBlur_1948_12077"/>
<feBlend mode="normal" in="SourceGraphic" in2="effect1_backgroundBlur_1948_12077" result="shape"/>
</filter>
<filter id="filter2_b_1948_12077" x="31" y="38" width="150" height="181" filterUnits="userSpaceOnUse" color-interpolation-filters="sRGB">
<feFlood flood-opacity="0" result="BackgroundImageFix"/>
<feGaussianBlur in="BackgroundImage" stdDeviation="28"/>
<feComposite in2="SourceAlpha" operator="in" result="effect1_backgroundBlur_1948_12077"/>
<feBlend mode="normal" in="SourceGraphic" in2="effect1_backgroundBlur_1948_12077" result="shape"/>
</filter>
<filter id="filter3_b_1948_12077" x="75" y="4" width="150" height="215" filterUnits="userSpaceOnUse" color-interpolation-filters="sRGB">
<feFlood flood-opacity="0" result="BackgroundImageFix"/>
<feGaussianBlur in="BackgroundImage" stdDeviation="28"/>
<feComposite in2="SourceAlpha" operator="in" result="effect1_backgroundBlur_1948_12077"/>
<feBlend mode="normal" in="SourceGraphic" in2="effect1_backgroundBlur_1948_12077" result="shape"/>
</filter>
</defs>
</svg>
