<svg width="250" height="194" viewBox="0 0 250 194" fill="none" xmlns="http://www.w3.org/2000/svg">
<path d="M72.049 176.909H69.6903V185.832H69.5753L63.4134 176.909H61.2912V190H63.6626V181.083H63.7713L69.9396 190H72.049V176.909ZM78.8134 190.192C81.6898 190.192 83.5179 188.165 83.5179 185.129C83.5179 182.087 81.6898 180.054 78.8134 180.054C75.937 180.054 74.1088 182.087 74.1088 185.129C74.1088 188.165 75.937 190.192 78.8134 190.192ZM78.8262 188.338C77.2346 188.338 76.4547 186.919 76.4547 185.123C76.4547 183.327 77.2346 181.888 78.8262 181.888C80.3922 181.888 81.1721 183.327 81.1721 185.123C81.1721 186.919 80.3922 188.338 78.8262 188.338ZM90.049 190H98.1861V188.012H92.4205V176.909H90.049V190ZM104.489 190.192C106.777 190.192 108.349 189.073 108.759 187.366L106.598 187.124C106.285 187.955 105.518 188.389 104.521 188.389C103.025 188.389 102.034 187.405 102.015 185.724H108.854V185.014C108.854 181.569 106.783 180.054 104.367 180.054C101.555 180.054 99.7202 182.119 99.7202 185.148C99.7202 188.229 101.529 190.192 104.489 190.192ZM102.021 184.164C102.092 182.911 103.018 181.857 104.399 181.857C105.729 181.857 106.624 182.828 106.636 184.164H102.021ZM113.637 190.198C115.178 190.198 116.098 189.476 116.52 188.651H116.597V190H118.821V183.429C118.821 180.834 116.705 180.054 114.833 180.054C112.768 180.054 111.183 180.974 110.671 182.764L112.832 183.071C113.062 182.4 113.714 181.825 114.845 181.825C115.919 181.825 116.507 182.374 116.507 183.339V183.378C116.507 184.043 115.811 184.075 114.078 184.26C112.173 184.464 110.352 185.033 110.352 187.245C110.352 189.175 111.764 190.198 113.637 190.198ZM114.238 188.498C113.273 188.498 112.583 188.057 112.583 187.207C112.583 186.318 113.356 185.947 114.392 185.8C114.999 185.717 116.213 185.564 116.514 185.321V186.478C116.514 187.571 115.632 188.498 114.238 188.498ZM124.791 190.173C126.479 190.173 127.24 189.169 127.604 188.453H127.744V190H130.02V176.909H127.7V181.805H127.604C127.252 181.096 126.53 180.054 124.798 180.054C122.529 180.054 120.745 181.831 120.745 185.104C120.745 188.338 122.477 190.173 124.791 190.173ZM125.437 188.274C123.909 188.274 123.104 186.932 123.104 185.091C123.104 183.263 123.896 181.952 125.437 181.952C126.926 181.952 127.744 183.186 127.744 185.091C127.744 186.996 126.914 188.274 125.437 188.274ZM140.246 182.777C139.926 181.115 138.597 180.054 136.295 180.054C133.93 180.054 132.32 181.217 132.326 183.033C132.32 184.464 133.202 185.411 135.087 185.8L136.762 186.152C137.663 186.35 138.085 186.714 138.085 187.271C138.085 187.942 137.357 188.447 136.257 188.447C135.196 188.447 134.506 187.987 134.308 187.104L132.051 187.322C132.339 189.124 133.854 190.192 136.263 190.192C138.718 190.192 140.45 188.92 140.457 187.06C140.45 185.66 139.549 184.803 137.695 184.401L136.021 184.043C135.023 183.819 134.627 183.474 134.634 182.905C134.627 182.24 135.362 181.78 136.327 181.78C137.395 181.78 137.957 182.362 138.136 183.007L140.246 182.777ZM146.037 176.909L150.799 185.116V190H153.164V185.116L157.926 176.909H155.248L152.045 182.7H151.918L148.715 176.909H146.037ZM162.022 190.192C164.31 190.192 165.883 189.073 166.292 187.366L164.131 187.124C163.818 187.955 163.051 188.389 162.054 188.389C160.558 188.389 159.567 187.405 159.548 185.724H166.388V185.014C166.388 181.569 164.317 180.054 161.9 180.054C159.088 180.054 157.253 182.119 157.253 185.148C157.253 188.229 159.062 190.192 162.022 190.192ZM159.555 184.164C159.625 182.911 160.552 181.857 161.932 181.857C163.262 181.857 164.157 182.828 164.17 184.164H159.555ZM173.248 180.182H171.311V177.83H168.997V180.182H167.604V181.972H168.997V187.43C168.984 189.278 170.327 190.185 172.065 190.134C172.724 190.115 173.178 189.987 173.427 189.904L173.037 188.095C172.909 188.127 172.647 188.185 172.359 188.185C171.778 188.185 171.311 187.98 171.311 187.047V181.972H173.248V180.182Z" fill="white" fill-opacity="0.79"/>
<path opacity="0.1" d="M144.894 66.0024H90.4937C88.6118 66.0563 86.8076 66.765 85.392 68.0063C83.9765 69.2475 83.0381 70.9436 82.7387 72.8024L75.0927 127.202C74.9393 128.048 74.9766 128.917 75.2018 129.746C75.427 130.575 75.8345 131.343 76.3945 131.995C76.9545 132.646 77.6528 133.165 78.4387 133.512C79.2245 133.859 80.0779 134.027 80.9367 134.002H135.337C137.219 133.949 139.023 133.24 140.439 131.999C141.855 130.757 142.793 129.061 143.093 127.202L150.738 72.8024C150.891 71.957 150.854 71.0881 150.629 70.259C150.403 69.4299 149.996 68.6615 149.436 68.0099C148.876 67.3583 148.178 66.84 147.392 66.4927C146.606 66.1453 145.753 65.9778 144.894 66.0024Z" fill="#AE9AFF"/>
<path opacity="0.1" d="M170.116 44.0026H109.316C107.213 44.063 105.197 44.8551 103.614 46.2424C102.032 47.6296 100.983 49.5252 100.648 51.6026L92.1034 112.403C91.9322 113.347 91.974 114.319 92.2258 115.245C92.4776 116.172 92.933 117.03 93.5589 117.759C94.1848 118.487 94.9653 119.066 95.8436 119.454C96.7218 119.843 97.6756 120.03 98.6354 120.003H159.435C161.539 119.942 163.555 119.15 165.137 117.763C166.72 116.376 167.769 114.48 168.103 112.403L176.648 51.6026C176.82 50.6578 176.778 49.6867 176.526 48.7601C176.274 47.8334 175.819 46.9747 175.193 46.2465C174.567 45.5183 173.787 44.939 172.908 44.5508C172.03 44.1626 171.076 43.9753 170.116 44.0026Z" fill="#CABDFF"/>
<g filter="url(#filter0_b_1914_11037)">
<path fill-rule="evenodd" clip-rule="evenodd" d="M136.106 14.0229C136.106 21.8075 142.476 28.0458 150.425 28.0458C158.371 28.0458 164.744 21.8075 164.744 14.0229C164.744 6.23836 158.371 0 150.425 0C142.476 0 136.106 6.23836 136.106 14.0229ZM172.066 43.9234C172.066 36.7173 162.097 34.9143 150.426 34.9143C138.691 34.9143 128.785 36.7794 128.785 43.9911C128.785 51.1973 138.754 53.0002 150.426 53.0002C162.16 53.0002 172.066 51.1352 172.066 43.9234Z" fill="url(#paint0_linear_1914_11037)"/>
</g>
<path opacity="0.1" d="M247.281 134.001H227.604C226.923 134.02 226.271 134.27 225.759 134.708C225.247 135.146 224.907 135.745 224.799 136.401L222.033 155.599C221.978 155.898 221.992 156.204 222.073 156.497C222.155 156.79 222.302 157.061 222.505 157.291C222.707 157.521 222.96 157.703 223.244 157.826C223.528 157.949 223.837 158.008 224.147 157.999H243.824C244.505 157.98 245.158 157.73 245.67 157.292C246.182 156.854 246.521 156.255 246.63 155.599L249.395 136.401C249.451 136.102 249.437 135.796 249.355 135.503C249.274 135.21 249.127 134.939 248.924 134.709C248.721 134.479 248.469 134.297 248.185 134.174C247.9 134.051 247.592 133.992 247.281 134.001Z" fill="#CABDFF"/>
<path opacity="0.1" d="M35.0249 10.0012H7.76413C6.82104 10.0282 5.91693 10.3825 5.20753 11.0031C4.49812 11.6237 4.02784 12.4716 3.87768 13.4009L0.0463722 40.5991C-0.0304053 41.0217 -0.0116598 41.4561 0.10124 41.8706C0.214139 42.2852 0.418345 42.6693 0.698967 42.995C0.979589 43.3208 1.32955 43.58 1.72332 43.7536C2.1171 43.9273 2.54476 44.011 2.97511 43.9988H30.2359C31.179 43.9718 32.0831 43.6175 32.7925 42.9969C33.5019 42.3763 33.9722 41.5284 34.1223 40.5991L37.9536 13.4009C38.0304 12.9783 38.0117 12.5439 37.8988 12.1294C37.7859 11.7148 37.5817 11.3307 37.301 11.005C37.0204 10.6792 36.6704 10.42 36.2767 10.2464C35.8829 10.0727 35.4552 9.98896 35.0249 10.0012Z" fill="#CABDFF"/>
<g filter="url(#filter1_b_1914_11037)">
<rect x="6" y="100" width="48" height="48" rx="5" fill="white" fill-opacity="0.03"/>
<rect x="6.5" y="100.5" width="47" height="47" rx="4.5" stroke="#E5E5E5" stroke-opacity="0.19"/>
</g>
<path d="M94.2102 113.842H79.894C78.906 113.842 78.105 114.643 78.105 115.631C78.105 116.62 78.9061 117.421 79.894 117.421H83.4734C83.4734 118.7 84.1552 119.881 85.2624 120.52C86.3697 121.16 87.7345 121.16 88.8418 120.52C89.9491 119.881 90.6308 118.7 90.6308 117.421H94.2102C95.1982 117.421 95.9992 116.62 95.9992 115.631C95.9992 114.643 95.1982 113.842 94.2102 113.842Z" fill="url(#paint1_linear_1914_11037)"/>
<path d="M87.0517 53C86.9103 53 86.7689 53.0012 86.627 53.0036C80.2399 53.1863 74.1574 55.7723 69.5953 60.245C65.0328 64.7182 62.3257 70.7482 62.0167 77.1293C61.8381 82.0203 63.0969 86.8566 65.6385 91.0387C68.1801 95.2215 71.8919 98.5671 76.3153 100.662V103.105C76.3153 105.003 77.0697 106.824 78.4118 108.166C79.7545 109.509 81.5747 110.263 83.4734 110.263H90.6315H90.6309C92.5296 110.263 94.3498 109.509 95.6925 108.166C97.0346 106.824 97.7889 105.003 97.7889 103.105V100.662C104.692 97.3903 109.725 91.1459 111.454 83.7052C113.184 76.2643 111.421 68.4405 106.668 62.4601C101.915 56.4797 94.692 52.9959 87.0523 53.0007L87.0517 53ZM85.4946 76.0212C85.9404 76.3807 86.482 76.6024 87.0517 76.6587L89.685 77.0338V77.0332C91.4508 77.1722 93.1271 77.8642 94.4764 79.0105C95.8802 80.4538 96.6124 82.4214 96.4937 84.4316C96.4925 86.192 95.8688 87.8959 94.7333 89.2416C93.5979 90.5872 92.024 91.4883 90.2883 91.7862L90.2841 93.1894H90.2847C90.2571 94.187 89.7077 95.0965 88.8377 95.5848C87.9678 96.073 86.9048 96.0677 86.0391 95.5716C85.1739 95.0755 84.6329 94.1606 84.6149 93.163L84.6119 91.9485H84.6113C82.2704 91.6681 80.0944 90.5992 78.4418 88.9174C77.9002 88.3608 77.6 87.613 77.606 86.836C77.6126 86.0595 77.9247 85.3165 78.476 84.7684C79.0266 84.2207 79.7713 83.9122 80.5479 83.9098C81.3387 83.9074 82.0961 84.2285 82.6443 84.7983C83.9283 85.9331 85.6161 86.5012 87.3243 86.3729C90.3309 86.3729 90.3309 85.0099 90.3309 84.5616C90.3741 84.1279 90.2333 83.6959 89.9433 83.3705C89.5311 83.0314 89.0152 82.8421 88.4814 82.8337L85.7768 82.4568C83.9714 82.2861 82.2681 81.5425 80.9159 80.3352C79.6253 78.9758 78.9465 77.1472 79.037 75.2748C79.0034 73.6103 79.5366 71.9843 80.5486 70.6632C81.5612 69.3415 82.992 68.4033 84.6079 68.0023L84.6049 66.3499L84.6043 66.3493C84.6678 65.6376 84.995 64.9755 85.5216 64.492C86.0477 64.0085 86.7355 63.7395 87.4502 63.7365C88.1812 63.7509 88.8804 64.0409 89.4071 64.5484C89.9338 65.0558 90.2489 65.7431 90.2909 66.4735V67.7736C92.2675 68.0636 94.105 68.9618 95.5484 70.3422C96.1517 70.882 96.4968 71.6531 96.4974 72.4632C96.4962 73.2289 96.1918 73.9634 95.6502 74.505C95.1086 75.0466 94.374 75.351 93.6084 75.3522C92.8427 75.357 92.1075 75.0526 91.5682 74.5086C90.4844 73.5715 89.0663 73.1144 87.6384 73.242C86.0728 73.242 85.1375 73.9418 85.1375 75.1143V75.1137C85.1279 75.4522 85.2567 75.78 85.4946 76.0214V76.0212Z" fill="url(#paint2_linear_1914_11037)"/>
<defs>
<filter id="filter0_b_1914_11037" x="115.785" y="-13" width="69.2803" height="79" filterUnits="userSpaceOnUse" color-interpolation-filters="sRGB">
<feFlood flood-opacity="0" result="BackgroundImageFix"/>
<feGaussianBlur in="BackgroundImage" stdDeviation="6.5"/>
<feComposite in2="SourceAlpha" operator="in" result="effect1_backgroundBlur_1914_11037"/>
<feBlend mode="normal" in="SourceGraphic" in2="effect1_backgroundBlur_1914_11037" result="shape"/>
</filter>
<filter id="filter1_b_1914_11037" x="-50" y="44" width="160" height="160" filterUnits="userSpaceOnUse" color-interpolation-filters="sRGB">
<feFlood flood-opacity="0" result="BackgroundImageFix"/>
<feGaussianBlur in="BackgroundImage" stdDeviation="28"/>
<feComposite in2="SourceAlpha" operator="in" result="effect1_backgroundBlur_1914_11037"/>
<feBlend mode="normal" in="SourceGraphic" in2="effect1_backgroundBlur_1914_11037" result="shape"/>
</filter>
<linearGradient id="paint0_linear_1914_11037" x1="150.426" y1="0" x2="150.426" y2="53.0002" gradientUnits="userSpaceOnUse">
<stop stop-color="#502EFF"/>
<stop offset="1" stop-color="#6F5ADC"/>
</linearGradient>
<linearGradient id="paint1_linear_1914_11037" x1="87.0521" y1="113.842" x2="89.1291" y2="125.046" gradientUnits="userSpaceOnUse">
<stop stop-color="white"/>
<stop offset="1" stop-color="#6F5ADC"/>
</linearGradient>
<linearGradient id="paint2_linear_1914_11037" x1="87.0524" y1="53" x2="125.402" y2="125.404" gradientUnits="userSpaceOnUse">
<stop stop-color="white"/>
<stop offset="1" stop-color="#6F5ADC"/>
</linearGradient>
</defs>
</svg>
