<svg width="441" height="342" viewBox="0 0 441 342" fill="none" xmlns="http://www.w3.org/2000/svg">
<g filter="url(#filter0_b_2008_12076)">
<rect x="31" y="105" width="344.571" height="48" rx="5" fill="white" fill-opacity="0.03"/>
<rect x="31.5" y="105.5" width="343.571" height="47" rx="4.5" stroke="#E5E5E5" stroke-opacity="0.19"/>
</g>
<g filter="url(#filter1_b_2008_12076)">
<rect x="63.5715" y="163.286" width="334.286" height="48" rx="5" fill="white" fill-opacity="0.03"/>
<rect x="64.0715" y="163.786" width="333.286" height="47" rx="4.5" stroke="#E5E5E5" stroke-opacity="0.19"/>
</g>
<g filter="url(#filter2_b_2008_12076)">
<rect x="82.4285" y="221.571" width="334.286" height="48" rx="5" fill="white" fill-opacity="0.03"/>
<rect x="82.9285" y="222.071" width="333.286" height="47" rx="4.5" stroke="#E5E5E5" stroke-opacity="0.19"/>
</g>
<rect x="46.4287" y="125.571" width="109.714" height="8.57143" rx="4.28571" fill="#C4C4C4" fill-opacity="0.07"/>
<rect x="197" y="126" width="110" height="8" rx="4" fill="#C4C4C4" fill-opacity="0.07"/>
<rect x="215" y="186" width="110" height="8" rx="4" fill="#C4C4C4" fill-opacity="0.07"/>
<rect x="235" y="246" width="110" height="8" rx="4" fill="#C4C4C4" fill-opacity="0.07"/>
<rect x="87.5715" y="185.571" width="109.714" height="8.57143" rx="4.28571" fill="#C4C4C4" fill-opacity="0.07"/>
<rect x="106.428" y="245.571" width="109.714" height="8.57143" rx="4.28571" fill="#C4C4C4" fill-opacity="0.07"/>
<path fill-rule="evenodd" clip-rule="evenodd" d="M35.5561 117.457C47.8558 129.753 50.6461 115.528 58.4773 123.353C66.0273 130.901 70.3666 132.413 60.8009 141.976C59.6027 142.939 51.9899 154.524 25.2358 127.777C-1.52164 101.027 10.0565 93.4069 11.0197 92.209C20.6085 82.6195 22.0947 86.9841 29.6446 94.5319C37.4759 102.361 23.2564 105.16 35.5561 117.457Z" fill="url(#paint0_linear_2008_12076)"/>
<circle cx="380.5" cy="107.5" r="17.5" fill="#474C4F" fill-opacity="0.52"/>
<circle cx="398.5" cy="168.5" r="17.5" fill="#474C4F" fill-opacity="0.52"/>
<circle cx="415.5" cy="228.5" r="17.5" fill="#474C4F" fill-opacity="0.52"/>
<path d="M372.437 105.215H374.91V112H376.348V105.215H378.82V104H372.437V105.215ZM380.051 112H381.5V109.07H382.977L384.547 112H386.164L384.434 108.828C385.375 108.449 385.871 107.645 385.871 106.559C385.871 105.031 384.887 104 383.051 104H380.051V112ZM381.5 107.867V105.211H382.828C383.91 105.211 384.395 105.707 384.395 106.559C384.395 107.41 383.91 107.867 382.836 107.867H381.5Z" fill="#6F5ADC"/>
<path d="M390.437 166.215H392.91V173H394.348V166.215H396.82V165H390.437V166.215ZM398.051 173H399.5V170.07H400.977L402.547 173H404.164L402.434 169.828C403.375 169.449 403.871 168.645 403.871 167.559C403.871 166.031 402.887 165 401.051 165H398.051V173ZM399.5 168.867V166.211H400.828C401.91 166.211 402.395 166.707 402.395 167.559C402.395 168.41 401.91 168.867 400.836 168.867H399.5Z" fill="#6F5ADC"/>
<path d="M407.437 226.215H409.91V233H411.348V226.215H413.82V225H407.437V226.215ZM415.051 233H416.5V230.07H417.977L419.547 233H421.164L419.434 229.828C420.375 229.449 420.871 228.645 420.871 227.559C420.871 226.031 419.887 225 418.051 225H415.051V233ZM416.5 228.867V226.211H417.828C418.91 226.211 419.395 226.707 419.395 227.559C419.395 228.41 418.91 228.867 417.836 228.867H416.5Z" fill="#6F5ADC"/>
<path opacity="0.1" d="M199.669 0.000549039H187.473C187.052 0.0132717 186.647 0.180009 186.33 0.472042C186.012 0.764075 185.802 1.16312 185.735 1.60044L184.021 14.3996C183.986 14.5985 183.995 14.8029 184.045 14.998C184.096 15.193 184.187 15.3738 184.313 15.5271C184.438 15.6804 184.595 15.8023 184.771 15.8841C184.947 15.9658 185.138 16.0052 185.331 15.9995H197.527C197.948 15.9867 198.353 15.82 198.67 15.528C198.988 15.2359 199.198 14.8369 199.265 14.3996L200.979 1.60044C201.014 1.40154 201.005 1.19711 200.955 1.00205C200.904 0.806986 200.813 0.626216 200.687 0.47292C200.562 0.319624 200.405 0.197668 200.229 0.115947C200.053 0.0342269 199.862 -0.00519751 199.669 0.000549039Z" fill="#CABDFF"/>
<path opacity="0.1" d="M438.025 306.001H410.764C409.821 306.03 408.917 306.405 408.208 307.062C407.498 307.719 407.028 308.617 406.878 309.601L403.046 338.399C402.97 338.847 402.988 339.307 403.101 339.745C403.214 340.184 403.418 340.591 403.699 340.936C403.98 341.281 404.33 341.555 404.723 341.739C405.117 341.923 405.545 342.012 405.975 341.999H433.236C434.179 341.97 435.083 341.595 435.792 340.938C436.502 340.281 436.972 339.383 437.122 338.399L440.954 309.601C441.03 309.153 441.012 308.693 440.899 308.255C440.786 307.816 440.582 307.409 440.301 307.064C440.02 306.719 439.67 306.445 439.277 306.261C438.883 306.077 438.455 305.988 438.025 306.001Z" fill="#CABDFF"/>
<path opacity="0.1" d="M37.0249 270.001H9.76413C8.82104 270.03 7.91693 270.405 7.20753 271.062C6.49812 271.719 6.02784 272.617 5.87768 273.601L2.04637 302.399C1.96959 302.847 1.98834 303.307 2.10124 303.745C2.21414 304.184 2.41835 304.591 2.69897 304.936C2.97959 305.281 3.32955 305.555 3.72332 305.739C4.1171 305.923 4.54476 306.012 4.97511 305.999H32.2359C33.179 305.97 34.0831 305.595 34.7925 304.938C35.5019 304.281 35.9722 303.383 36.1223 302.399L39.9536 273.601C40.0304 273.153 40.0117 272.693 39.8988 272.255C39.7859 271.816 39.5817 271.409 39.301 271.064C39.0204 270.719 38.6704 270.445 38.2767 270.261C37.8829 270.077 37.4552 269.988 37.0249 270.001Z" fill="#CABDFF"/>
<defs>
<filter id="filter0_b_2008_12076" x="-25" y="49" width="456.572" height="160" filterUnits="userSpaceOnUse" color-interpolation-filters="sRGB">
<feFlood flood-opacity="0" result="BackgroundImageFix"/>
<feGaussianBlur in="BackgroundImage" stdDeviation="28"/>
<feComposite in2="SourceAlpha" operator="in" result="effect1_backgroundBlur_2008_12076"/>
<feBlend mode="normal" in="SourceGraphic" in2="effect1_backgroundBlur_2008_12076" result="shape"/>
</filter>
<filter id="filter1_b_2008_12076" x="7.57153" y="107.286" width="446.286" height="160" filterUnits="userSpaceOnUse" color-interpolation-filters="sRGB">
<feFlood flood-opacity="0" result="BackgroundImageFix"/>
<feGaussianBlur in="BackgroundImage" stdDeviation="28"/>
<feComposite in2="SourceAlpha" operator="in" result="effect1_backgroundBlur_2008_12076"/>
<feBlend mode="normal" in="SourceGraphic" in2="effect1_backgroundBlur_2008_12076" result="shape"/>
</filter>
<filter id="filter2_b_2008_12076" x="26.4285" y="165.571" width="446.286" height="160" filterUnits="userSpaceOnUse" color-interpolation-filters="sRGB">
<feFlood flood-opacity="0" result="BackgroundImageFix"/>
<feGaussianBlur in="BackgroundImage" stdDeviation="28"/>
<feComposite in2="SourceAlpha" operator="in" result="effect1_backgroundBlur_2008_12076"/>
<feBlend mode="normal" in="SourceGraphic" in2="effect1_backgroundBlur_2008_12076" result="shape"/>
</filter>
<linearGradient id="paint0_linear_2008_12076" x1="36.9999" y1="86.7085" x2="73.1882" y2="164.792" gradientUnits="userSpaceOnUse">
<stop stop-color="white"/>
<stop offset="1" stop-color="#6F5ADC"/>
</linearGradient>
</defs>
</svg>
