<svg width="309" height="131" viewBox="0 0 309 131" fill="none" xmlns="http://www.w3.org/2000/svg">
<path opacity="0.1" d="M259.459 0.00178438H217.851C216.411 0.0431332 215.031 0.585031 213.948 1.53414C212.866 2.48324 212.148 3.78014 211.919 5.20143L206.071 46.7986C205.954 47.445 205.982 48.1094 206.155 48.7433C206.327 49.3773 206.639 49.9648 207.067 50.463C207.495 50.9612 208.029 51.3576 208.63 51.6232C209.231 51.8888 209.884 52.0169 210.541 51.9982H252.149C253.589 51.9569 254.969 51.415 256.052 50.4659C257.134 49.5168 257.852 48.2199 258.081 46.7986L263.929 5.20143C264.046 4.55502 264.018 3.89061 263.845 3.25666C263.673 2.62271 263.361 2.0352 262.933 1.53699C262.505 1.03878 261.971 0.64242 261.37 0.376829C260.769 0.111237 260.116 -0.0168919 259.459 0.00178438Z" fill="#CABDFF"/>
<path opacity="0.1" d="M13.0605 91.0004H4.45183C4.15401 91.0091 3.86851 91.1238 3.64448 91.3245C3.42046 91.5253 3.27195 91.7996 3.22453 92.1003L2.01464 100.9C1.9904 101.036 1.99632 101.177 2.03197 101.311C2.06762 101.445 2.13211 101.569 2.22073 101.675C2.30934 101.78 2.41986 101.864 2.54421 101.92C2.66856 101.976 2.80361 102.004 2.93951 102H11.5482C11.846 101.991 12.1315 101.876 12.3555 101.675C12.5795 101.475 12.7281 101.2 12.7755 100.9L13.9854 92.1003C14.0096 91.9636 14.0037 91.823 13.968 91.6889C13.9324 91.5548 13.8679 91.4305 13.7793 91.3251C13.6907 91.2197 13.5801 91.1359 13.4558 91.0797C13.3314 91.0235 13.1964 90.9964 13.0605 91.0004Z" fill="#CABDFF"/>
<path opacity="0.1" d="M306.964 80.0009H288.312C287.667 80.0207 287.048 80.2813 286.563 80.7376C286.078 81.1939 285.756 81.8174 285.653 82.5007L283.032 102.499C282.979 102.81 282.992 103.13 283.069 103.434C283.147 103.739 283.286 104.022 283.478 104.261C283.67 104.501 283.91 104.691 284.179 104.819C284.449 104.947 284.741 105.008 285.036 104.999H303.688C304.333 104.979 304.952 104.719 305.437 104.262C305.922 103.806 306.244 103.183 306.347 102.499L308.968 82.5007C309.021 82.1899 309.008 81.8705 308.931 81.5657C308.853 81.2609 308.714 80.9785 308.522 80.7389C308.33 80.4994 308.09 80.3089 307.821 80.1812C307.551 80.0535 307.259 79.9919 306.964 80.0009Z" fill="#CABDFF"/>
<g filter="url(#filter0_b_1937_12195)">
<rect x="7.90137" y="19.0469" width="234.402" height="32.653" rx="5" fill="white" fill-opacity="0.03"/>
<rect x="8.40137" y="19.5469" width="233.402" height="31.653" rx="4.5" stroke="#E5E5E5" stroke-opacity="0.19"/>
</g>
<g filter="url(#filter1_b_1937_12195)">
<rect x="30.0586" y="58.6963" width="227.405" height="32.653" rx="5" fill="white" fill-opacity="0.03"/>
<rect x="30.5586" y="59.1963" width="226.405" height="31.653" rx="4.5" stroke="#E5E5E5" stroke-opacity="0.19"/>
</g>
<g filter="url(#filter2_b_1937_12195)">
<rect x="42.8867" y="98.3467" width="227.405" height="32.653" rx="5" fill="white" fill-opacity="0.03"/>
<rect x="43.3867" y="98.8467" width="226.405" height="31.653" rx="4.5" stroke="#E5E5E5" stroke-opacity="0.19"/>
</g>
<rect x="18.397" y="33.04" width="74.6354" height="5.83089" rx="2.91545" fill="#C4C4C4" fill-opacity="0.07"/>
<rect x="46.3853" y="73.8564" width="74.6354" height="5.83089" rx="2.91545" fill="#C4C4C4" fill-opacity="0.07"/>
<rect x="59.2134" y="114.673" width="74.6354" height="5.83089" rx="2.91545" fill="#C4C4C4" fill-opacity="0.07"/>
<g filter="url(#filter3_b_1937_12195)">
<rect x="8" y="19" width="234" height="33" rx="5" fill="white" fill-opacity="0.03"/>
<rect x="8.5" y="19.5" width="233" height="32" rx="4.5" stroke="#E5E5E5" stroke-opacity="0.19"/>
</g>
<g filter="url(#filter4_b_1937_12195)">
<rect x="30" y="59" width="227" height="32" rx="5" fill="white" fill-opacity="0.03"/>
<rect x="30.5" y="59.5" width="226" height="31" rx="4.5" stroke="#E5E5E5" stroke-opacity="0.19"/>
</g>
<g filter="url(#filter5_b_1937_12195)">
<rect x="43" y="98" width="227" height="33" rx="5" fill="white" fill-opacity="0.03"/>
<rect x="43.5" y="98.5" width="226" height="32" rx="4.5" stroke="#E5E5E5" stroke-opacity="0.19"/>
</g>
<rect x="18" y="33" width="75" height="6" rx="3" fill="#C4C4C4" fill-opacity="0.07"/>
<rect x="46" y="74" width="75" height="6" rx="3" fill="#C4C4C4" fill-opacity="0.07"/>
<rect x="59" y="115" width="75" height="6" rx="3" fill="#C4C4C4" fill-opacity="0.07"/>
<path opacity="0.4" d="M10.794 29.333H5.20667C3.18 29.333 2 30.5197 2 32.553V39.4397C2 41.5063 3.18 42.6663 5.20667 42.6663H10.794C12.8533 42.6663 14 41.5063 14 39.4397V32.553C14 30.5197 12.8533 29.333 10.794 29.333Z" fill="url(#paint0_linear_1937_12195)"/>
<path fill-rule="evenodd" clip-rule="evenodd" d="M5.38664 32.4326V32.4393C5.09931 32.4393 4.86664 32.6726 4.86664 32.9593C4.86664 33.246 5.09931 33.4793 5.38664 33.4793H7.37931C7.66664 33.4793 7.89997 33.246 7.89997 32.952C7.89997 32.666 7.66664 32.4326 7.37931 32.4326H5.38664ZM10.6133 36.4926H5.38664C5.09931 36.4926 4.86664 36.2593 4.86664 35.9726C4.86664 35.686 5.09931 35.452 5.38664 35.452H10.6133C10.9 35.452 11.1333 35.686 11.1333 35.9726C11.1333 36.2593 10.9 36.4926 10.6133 36.4926ZM10.6133 39.5393H5.38664C5.18664 39.566 4.99331 39.466 4.88664 39.2993C4.77997 39.126 4.77997 38.906 4.88664 38.7393C4.99331 38.566 5.18664 38.4726 5.38664 38.4926H10.6133C10.8793 38.5193 11.08 38.746 11.08 39.0193C11.08 39.2853 10.8793 39.5126 10.6133 39.5393Z" fill="url(#paint1_linear_1937_12195)"/>
<path opacity="0.4" d="M33.4686 70.333H27.5321C25.3787 70.333 24.125 71.5197 24.125 73.553V80.4397C24.125 82.5063 25.3787 83.6663 27.5321 83.6663H33.4686C35.6567 83.6663 36.875 82.5063 36.875 80.4397V73.553C36.875 71.5197 35.6567 70.333 33.4686 70.333Z" fill="url(#paint2_linear_1937_12195)"/>
<path fill-rule="evenodd" clip-rule="evenodd" d="M27.7234 73.4326V73.4393C27.4181 73.4393 27.1709 73.6726 27.1709 73.9593C27.1709 74.246 27.4181 74.4793 27.7234 74.4793H29.8406C30.1459 74.4793 30.3938 74.246 30.3938 73.952C30.3938 73.666 30.1459 73.4326 29.8406 73.4326H27.7234ZM33.2768 77.4926H27.7234C27.4181 77.4926 27.1709 77.2593 27.1709 76.9726C27.1709 76.686 27.4181 76.452 27.7234 76.452H33.2768C33.5813 76.452 33.8293 76.686 33.8293 76.9726C33.8293 77.2593 33.5813 77.4926 33.2768 77.4926ZM33.2768 80.5393H27.7234C27.5109 80.566 27.3055 80.466 27.1922 80.2993C27.0788 80.126 27.0788 79.906 27.1922 79.7393C27.3055 79.566 27.5109 79.4726 27.7234 79.4926H33.2768C33.5594 79.5193 33.7726 79.746 33.7726 80.0193C33.7726 80.2853 33.5594 80.5126 33.2768 80.5393Z" fill="url(#paint3_linear_1937_12195)"/>
<path opacity="0.4" d="M45.4686 111.333H39.5321C37.3787 111.333 36.125 112.52 36.125 114.553V121.44C36.125 123.506 37.3787 124.666 39.5321 124.666H45.4686C47.6567 124.666 48.875 123.506 48.875 121.44V114.553C48.875 112.52 47.6567 111.333 45.4686 111.333Z" fill="url(#paint4_linear_1937_12195)"/>
<path fill-rule="evenodd" clip-rule="evenodd" d="M39.7234 114.433V114.439C39.4181 114.439 39.1709 114.673 39.1709 114.959C39.1709 115.246 39.4181 115.479 39.7234 115.479H41.8406C42.1459 115.479 42.3938 115.246 42.3938 114.952C42.3938 114.666 42.1459 114.433 41.8406 114.433H39.7234ZM45.2768 118.493H39.7234C39.4181 118.493 39.1709 118.259 39.1709 117.973C39.1709 117.686 39.4181 117.452 39.7234 117.452H45.2768C45.5813 117.452 45.8293 117.686 45.8293 117.973C45.8293 118.259 45.5813 118.493 45.2768 118.493ZM45.2768 121.539H39.7234C39.5109 121.566 39.3055 121.466 39.1922 121.299C39.0788 121.126 39.0788 120.906 39.1922 120.739C39.3055 120.566 39.5109 120.473 39.7234 120.493H45.2768C45.5594 120.519 45.7726 120.746 45.7726 121.019C45.7726 121.285 45.5594 121.513 45.2768 121.539Z" fill="url(#paint5_linear_1937_12195)"/>
<path d="M239.992 25.0947L236.821 21.286V21.2863C236.555 20.9663 236.165 20.7821 235.755 20.7821H233.804C233.133 20.7989 232.476 20.5822 231.941 20.167C231.406 19.7519 231.024 19.163 230.857 18.4965C230.712 17.8033 230.829 17.0795 231.186 16.4717H230.796L223.788 23.6553L224.967 27.5103V27.5105C225.114 27.8117 225.312 28.084 225.55 28.3151L229.517 32.1528H229.516C229.932 32.5793 230.469 32.8607 231.05 32.9574C231.63 33.0538 232.226 32.9607 232.752 32.6909L239.056 29.4597H239.056C239.813 29.0715 240.359 28.3535 240.54 27.5059C240.722 26.6582 240.52 25.7719 239.992 25.0943L239.992 25.0947ZM239.205 16.4714H233.599C233.098 16.4714 232.635 16.7452 232.385 17.1897C232.135 17.6342 232.135 18.1821 232.385 18.6266C232.635 19.0711 233.098 19.3449 233.599 19.3449H235.755H235.755C236.576 19.3449 237.355 19.7136 237.888 20.3534L241.086 24.1967C241.879 25.2132 242.182 26.5429 241.909 27.8141C241.637 29.0855 240.819 30.1627 239.683 30.745L236.567 32.3422L237.248 32.6912C237.637 32.8906 238.066 32.9946 238.501 32.9946C239.267 33.0415 240.021 32.7841 240.606 32.2761L244.059 29.9167C244.548 29.5823 244.922 29.0989 245.128 28.5348L246.213 23.6554L239.205 16.4714ZM227.996 16.4671L222.382 22.2229C222.011 22.6027 221.509 22.8163 220.985 22.8163C220.46 22.8163 219.958 22.6027 219.587 22.2229L219.579 22.2142C219.208 21.8344 219 21.319 219 20.7818C219 20.2445 219.208 19.7292 219.579 19.3492L225.193 13.5934C225.564 13.2136 226.067 13 226.591 13C227.115 13 227.617 13.2136 227.988 13.5934L227.996 13.6021C228.367 13.9819 228.575 14.4973 228.575 15.0345C228.575 15.5718 228.367 16.0871 227.996 16.4671ZM242.003 13.6021L242.012 13.5935H242.012C242.383 13.2137 242.885 13.0001 243.409 13.0001C243.933 13.0001 244.436 13.2137 244.807 13.5935L250.421 19.3492H250.421C250.792 19.7293 251 20.2445 251 20.7819C251 21.319 250.792 21.8345 250.421 22.2143L250.413 22.223C250.042 22.6028 249.54 22.8163 249.015 22.8163C248.491 22.8163 247.989 22.6028 247.618 22.223L242.004 16.4672C241.633 16.0871 241.425 15.5719 241.425 15.0345C241.425 14.4974 241.633 13.9819 242.004 13.6021H242.003Z" fill="url(#paint6_linear_1937_12195)"/>
<defs>
<filter id="filter0_b_1937_12195" x="-48.0986" y="-36.9531" width="346.402" height="144.653" filterUnits="userSpaceOnUse" color-interpolation-filters="sRGB">
<feFlood flood-opacity="0" result="BackgroundImageFix"/>
<feGaussianBlur in="BackgroundImage" stdDeviation="28"/>
<feComposite in2="SourceAlpha" operator="in" result="effect1_backgroundBlur_1937_12195"/>
<feBlend mode="normal" in="SourceGraphic" in2="effect1_backgroundBlur_1937_12195" result="shape"/>
</filter>
<filter id="filter1_b_1937_12195" x="-25.9414" y="2.69629" width="339.405" height="144.653" filterUnits="userSpaceOnUse" color-interpolation-filters="sRGB">
<feFlood flood-opacity="0" result="BackgroundImageFix"/>
<feGaussianBlur in="BackgroundImage" stdDeviation="28"/>
<feComposite in2="SourceAlpha" operator="in" result="effect1_backgroundBlur_1937_12195"/>
<feBlend mode="normal" in="SourceGraphic" in2="effect1_backgroundBlur_1937_12195" result="shape"/>
</filter>
<filter id="filter2_b_1937_12195" x="-13.1133" y="42.3467" width="339.405" height="144.653" filterUnits="userSpaceOnUse" color-interpolation-filters="sRGB">
<feFlood flood-opacity="0" result="BackgroundImageFix"/>
<feGaussianBlur in="BackgroundImage" stdDeviation="28"/>
<feComposite in2="SourceAlpha" operator="in" result="effect1_backgroundBlur_1937_12195"/>
<feBlend mode="normal" in="SourceGraphic" in2="effect1_backgroundBlur_1937_12195" result="shape"/>
</filter>
<filter id="filter3_b_1937_12195" x="-48" y="-37" width="346" height="145" filterUnits="userSpaceOnUse" color-interpolation-filters="sRGB">
<feFlood flood-opacity="0" result="BackgroundImageFix"/>
<feGaussianBlur in="BackgroundImage" stdDeviation="28"/>
<feComposite in2="SourceAlpha" operator="in" result="effect1_backgroundBlur_1937_12195"/>
<feBlend mode="normal" in="SourceGraphic" in2="effect1_backgroundBlur_1937_12195" result="shape"/>
</filter>
<filter id="filter4_b_1937_12195" x="-26" y="3" width="339" height="144" filterUnits="userSpaceOnUse" color-interpolation-filters="sRGB">
<feFlood flood-opacity="0" result="BackgroundImageFix"/>
<feGaussianBlur in="BackgroundImage" stdDeviation="28"/>
<feComposite in2="SourceAlpha" operator="in" result="effect1_backgroundBlur_1937_12195"/>
<feBlend mode="normal" in="SourceGraphic" in2="effect1_backgroundBlur_1937_12195" result="shape"/>
</filter>
<filter id="filter5_b_1937_12195" x="-13" y="42" width="339" height="145" filterUnits="userSpaceOnUse" color-interpolation-filters="sRGB">
<feFlood flood-opacity="0" result="BackgroundImageFix"/>
<feGaussianBlur in="BackgroundImage" stdDeviation="28"/>
<feComposite in2="SourceAlpha" operator="in" result="effect1_backgroundBlur_1937_12195"/>
<feBlend mode="normal" in="SourceGraphic" in2="effect1_backgroundBlur_1937_12195" result="shape"/>
</filter>
<linearGradient id="paint0_linear_1937_12195" x1="8" y1="29.333" x2="8" y2="42.6663" gradientUnits="userSpaceOnUse">
<stop stop-color="#502EFF"/>
<stop offset="1" stop-color="#6F5ADC"/>
</linearGradient>
<linearGradient id="paint1_linear_1937_12195" x1="7.96997" y1="32.4326" x2="7.96997" y2="39.5436" gradientUnits="userSpaceOnUse">
<stop stop-color="#502EFF"/>
<stop offset="1" stop-color="#6F5ADC"/>
</linearGradient>
<linearGradient id="paint2_linear_1937_12195" x1="30.5" y1="70.333" x2="30.5" y2="83.6663" gradientUnits="userSpaceOnUse">
<stop stop-color="#502EFF"/>
<stop offset="1" stop-color="#6F5ADC"/>
</linearGradient>
<linearGradient id="paint3_linear_1937_12195" x1="30.4682" y1="73.4326" x2="30.4682" y2="80.5436" gradientUnits="userSpaceOnUse">
<stop stop-color="#502EFF"/>
<stop offset="1" stop-color="#6F5ADC"/>
</linearGradient>
<linearGradient id="paint4_linear_1937_12195" x1="42.5" y1="111.333" x2="42.5" y2="124.666" gradientUnits="userSpaceOnUse">
<stop stop-color="#502EFF"/>
<stop offset="1" stop-color="#6F5ADC"/>
</linearGradient>
<linearGradient id="paint5_linear_1937_12195" x1="42.4682" y1="114.433" x2="42.4682" y2="121.544" gradientUnits="userSpaceOnUse">
<stop stop-color="#502EFF"/>
<stop offset="1" stop-color="#6F5ADC"/>
</linearGradient>
<linearGradient id="paint6_linear_1937_12195" x1="235" y1="13" x2="235" y2="33" gradientUnits="userSpaceOnUse">
<stop stop-color="#502EFF"/>
<stop offset="1" stop-color="#6F5ADC"/>
</linearGradient>
</defs>
</svg>
