<svg width="293" height="185" viewBox="0 0 293 185" fill="none" xmlns="http://www.w3.org/2000/svg">
<g filter="url(#filter0_b_1937_12196)">
<rect x="60.5244" y="26.2656" width="173.449" height="124.475" rx="14" fill="white" fill-opacity="0.03"/>
<rect x="61.0244" y="26.7656" width="172.449" height="123.475" rx="13.5" stroke="#E5E5E5" stroke-opacity="0.19"/>
</g>
<path d="M219.009 50.4124C219.009 48.7345 213.675 47.3516 207.043 47.3516H87.4548C80.8951 47.3516 75.4888 48.716 75.4888 50.4124C75.4888 52.0904 80.823 53.4733 87.4548 53.4733H207.043C213.603 53.4733 219.009 52.0904 219.009 50.4124Z" fill="#C4C4C4" fill-opacity="0.1"/>
<line x1="84.8313" y1="69.1191" x2="84.8313" y2="135.098" stroke="white" stroke-opacity="0.11"/>
<line x1="111.359" y1="69.1191" x2="111.359" y2="135.098" stroke="white" stroke-opacity="0.11"/>
<line x1="137.886" y1="69.1191" x2="137.886" y2="135.098" stroke="white" stroke-opacity="0.11"/>
<line x1="164.414" y1="69.1191" x2="164.414" y2="135.098" stroke="white" stroke-opacity="0.11"/>
<line x1="190.941" y1="69.1191" x2="190.941" y2="135.098" stroke="white" stroke-opacity="0.11"/>
<line x1="217.469" y1="69.1191" x2="217.469" y2="135.098" stroke="white" stroke-opacity="0.11"/>
<line x1="76.8489" y1="84.9434" x2="227.172" y2="84.9434" stroke="white" stroke-opacity="0.15"/>
<line x1="76.8489" y1="101.948" x2="227.172" y2="101.948" stroke="white" stroke-opacity="0.15"/>
<line x1="76.8489" y1="119.633" x2="227.172" y2="119.633" stroke="white" stroke-opacity="0.15"/>
<path d="M119.821 95.3357L119.039 96.1168C118.691 96.4479 118.672 96.9972 118.996 97.3524L119.021 97.3707C119.355 97.7041 119.891 97.7133 120.235 97.3912L121.013 96.6135C121.366 96.2846 121.385 95.7319 121.056 95.3779C120.726 95.0262 120.173 95.0056 119.821 95.3357Z" fill="url(#paint0_linear_1937_12196)"/>
<path d="M124.683 97.2415C125.027 97.5692 125.569 97.5624 125.905 97.2278C125.91 97.2209 125.917 97.2163 125.922 97.2095C126.258 96.8566 126.244 96.2982 125.89 95.9636L123.791 93.8635L125.721 91.9347C126.001 91.6538 126.058 91.2221 125.86 90.8784C125.82 90.8007 125.768 90.7311 125.706 90.6694C125.361 90.3325 124.812 90.3291 124.464 90.6614L122.526 92.6005L120.396 90.4695C120.392 90.4661 120.39 90.4638 120.387 90.4616C120.045 90.1281 119.499 90.1349 119.166 90.4764C118.84 90.8373 118.847 91.3877 119.181 91.7417L124.639 97.1992L124.683 97.2415Z" fill="url(#paint1_linear_1937_12196)"/>
<path d="M172.351 112.466L171.57 113.247C171.222 113.578 171.203 114.127 171.527 114.482L171.552 114.501C171.886 114.834 172.422 114.843 172.766 114.521L173.544 113.743C173.897 113.415 173.916 112.862 173.587 112.508C173.257 112.156 172.704 112.136 172.351 112.466Z" fill="url(#paint2_linear_1937_12196)"/>
<path d="M177.214 114.371C177.557 114.699 178.1 114.692 178.436 114.358C178.441 114.351 178.448 114.346 178.453 114.339C178.788 113.986 178.775 113.428 178.421 113.093L176.322 110.993L178.252 109.065C178.531 108.784 178.589 108.352 178.391 108.008C178.351 107.931 178.299 107.861 178.237 107.799C177.892 107.462 177.343 107.459 176.994 107.791L175.056 109.73L172.927 107.599C172.923 107.596 172.921 107.594 172.918 107.591C172.576 107.258 172.03 107.265 171.697 107.606C171.371 107.967 171.378 108.518 171.712 108.872L177.17 114.329L177.214 114.371Z" fill="url(#paint3_linear_1937_12196)"/>
<g filter="url(#filter1_b_1937_12196)">
<rect x="251.235" y="53.6729" width="31.9753" height="31.9753" rx="6" fill="white" fill-opacity="0.03"/>
<rect x="251.735" y="54.1729" width="30.9753" height="30.9753" rx="5.5" stroke="#E5E5E5" stroke-opacity="0.19"/>
</g>
<g filter="url(#filter2_b_1937_12196)">
<rect x="14.8457" y="97.0684" width="31.9753" height="31.9753" rx="6" fill="white" fill-opacity="0.03"/>
<rect x="15.3457" y="97.5684" width="30.9753" height="30.9753" rx="5.5" stroke="#E5E5E5" stroke-opacity="0.19"/>
</g>
<circle cx="267.222" cy="68.5186" r="9.1358" fill="#474C4F" fill-opacity="0.52"/>
<path d="M261.016 71.8086H263.665C265.164 71.8086 265.899 71.0447 265.899 70.0252C265.899 69.0344 265.196 68.4528 264.5 68.4176V68.3537C265.139 68.2035 265.644 67.756 265.644 66.9602C265.644 65.9854 264.941 65.2631 263.522 65.2631H261.016V71.8086ZM262.202 70.8178V68.9002H263.509C264.241 68.9002 264.695 69.3477 264.695 69.9325C264.695 70.4535 264.337 70.8178 263.477 70.8178H262.202ZM262.202 68.0469V66.2411H263.4C264.097 66.2411 264.458 66.6087 264.458 67.1136C264.458 67.6889 263.991 68.0469 263.375 68.0469H262.202ZM267.807 65.2631H266.506L268.81 71.8086H270.274L272.582 65.2631H271.278L269.577 70.4151H269.51L267.807 65.2631Z" fill="#6F5ADC"/>
<circle cx="30.8333" cy="111.913" r="9.1358" fill="#474C4F" fill-opacity="0.52"/>
<path d="M30.4758 111.931C30.4758 109.816 29.1846 108.569 27.4683 108.569C25.7488 108.569 24.4608 109.816 24.4608 111.931C24.4608 114.044 25.7488 115.294 27.4683 115.294C27.8838 115.294 28.2737 115.22 28.6285 115.079L29.1686 115.767H30.3192L29.4115 114.603C30.0699 114.028 30.4758 113.117 30.4758 111.931ZM27.0656 113.005L27.9509 114.169C27.7975 114.21 27.6377 114.229 27.4683 114.229C26.404 114.229 25.653 113.421 25.653 111.931C25.653 110.442 26.404 109.633 27.4683 109.633C28.5358 109.633 29.2836 110.442 29.2836 111.931C29.2836 112.737 29.0663 113.341 28.6956 113.728L28.1395 113.005H27.0656ZM31.6056 115.204H34.2551C35.754 115.204 36.4891 114.44 36.4891 113.421C36.4891 112.43 35.786 111.848 35.0892 111.813V111.749C35.7284 111.599 36.2334 111.152 36.2334 110.356C36.2334 109.381 35.5303 108.659 34.1112 108.659H31.6056V115.204ZM32.7913 114.213V112.296H34.0985C34.8303 112.296 35.2842 112.743 35.2842 113.328C35.2842 113.849 34.9262 114.213 34.0665 114.213H32.7913ZM32.7913 111.442V109.637H33.9898C34.6865 109.637 35.0477 110.004 35.0477 110.509C35.0477 111.084 34.5811 111.442 33.9642 111.442H32.7913Z" fill="#6F5ADC"/>
<path fill-rule="evenodd" clip-rule="evenodd" d="M75.0358 26.0327C75.0358 27.467 75.4149 28.3123 76.2491 29.2865C76.8812 30.0042 77.0833 30.9255 77.0833 31.925C77.0833 32.9233 76.7553 33.871 76.0981 34.6405C75.2378 35.5629 74.0245 36.1518 72.7863 36.2541C70.9919 36.4071 69.1964 36.5359 67.377 36.5359C65.5566 36.5359 63.7622 36.4589 61.9678 36.2541C60.7284 36.1518 59.5151 35.5629 58.656 34.6405C57.9988 33.871 57.6697 32.9233 57.6697 31.925C57.6697 30.9255 57.8728 30.0042 58.5039 29.2865C59.3642 28.3123 59.7183 27.467 59.7183 26.0327V25.5462C59.7183 23.6255 60.1972 22.3695 61.1835 21.14C62.6499 19.3469 65.0004 18.2715 67.326 18.2715H67.4281C69.8036 18.2715 72.2301 19.3986 73.6716 21.2688C74.6068 22.473 75.0358 23.6761 75.0358 25.5462V26.0327ZM64.0347 38.8965C64.0347 38.3214 64.5624 38.058 65.0505 37.9453C65.6214 37.8246 69.1 37.8246 69.6709 37.9453C70.1589 38.058 70.6867 38.3214 70.6867 38.8965C70.6583 39.444 70.3371 39.9293 69.8934 40.2376C69.3179 40.6862 68.6426 40.9702 67.9367 41.0726C67.5463 41.1232 67.1626 41.1244 66.7858 41.0726C66.0787 40.9702 65.4034 40.6862 64.8292 40.2364C64.3842 39.9293 64.0631 39.444 64.0347 38.8965Z" fill="url(#paint4_linear_1937_12196)"/>
<g filter="url(#filter3_b_1937_12196)">
<rect y="54.8145" width="20.5556" height="19.4136" rx="6" fill="white" fill-opacity="0.03"/>
</g>
<g filter="url(#filter4_b_1937_12196)">
<rect x="250.093" y="165.586" width="20.5556" height="19.4136" rx="6" fill="white" fill-opacity="0.03"/>
</g>
<g filter="url(#filter5_b_1937_12196)">
<rect x="270.648" width="21.6975" height="19.4136" rx="6" fill="white" fill-opacity="0.03"/>
</g>
<defs>
<filter id="filter0_b_1937_12196" x="4.52441" y="-29.7344" width="285.449" height="236.476" filterUnits="userSpaceOnUse" color-interpolation-filters="sRGB">
<feFlood flood-opacity="0" result="BackgroundImageFix"/>
<feGaussianBlur in="BackgroundImage" stdDeviation="28"/>
<feComposite in2="SourceAlpha" operator="in" result="effect1_backgroundBlur_1937_12196"/>
<feBlend mode="normal" in="SourceGraphic" in2="effect1_backgroundBlur_1937_12196" result="shape"/>
</filter>
<filter id="filter1_b_1937_12196" x="195.235" y="-2.32715" width="143.975" height="143.976" filterUnits="userSpaceOnUse" color-interpolation-filters="sRGB">
<feFlood flood-opacity="0" result="BackgroundImageFix"/>
<feGaussianBlur in="BackgroundImage" stdDeviation="28"/>
<feComposite in2="SourceAlpha" operator="in" result="effect1_backgroundBlur_1937_12196"/>
<feBlend mode="normal" in="SourceGraphic" in2="effect1_backgroundBlur_1937_12196" result="shape"/>
</filter>
<filter id="filter2_b_1937_12196" x="-41.1543" y="41.0684" width="143.975" height="143.976" filterUnits="userSpaceOnUse" color-interpolation-filters="sRGB">
<feFlood flood-opacity="0" result="BackgroundImageFix"/>
<feGaussianBlur in="BackgroundImage" stdDeviation="28"/>
<feComposite in2="SourceAlpha" operator="in" result="effect1_backgroundBlur_1937_12196"/>
<feBlend mode="normal" in="SourceGraphic" in2="effect1_backgroundBlur_1937_12196" result="shape"/>
</filter>
<filter id="filter3_b_1937_12196" x="-56" y="-1.18555" width="132.556" height="131.414" filterUnits="userSpaceOnUse" color-interpolation-filters="sRGB">
<feFlood flood-opacity="0" result="BackgroundImageFix"/>
<feGaussianBlur in="BackgroundImage" stdDeviation="28"/>
<feComposite in2="SourceAlpha" operator="in" result="effect1_backgroundBlur_1937_12196"/>
<feBlend mode="normal" in="SourceGraphic" in2="effect1_backgroundBlur_1937_12196" result="shape"/>
</filter>
<filter id="filter4_b_1937_12196" x="194.093" y="109.586" width="132.556" height="131.414" filterUnits="userSpaceOnUse" color-interpolation-filters="sRGB">
<feFlood flood-opacity="0" result="BackgroundImageFix"/>
<feGaussianBlur in="BackgroundImage" stdDeviation="28"/>
<feComposite in2="SourceAlpha" operator="in" result="effect1_backgroundBlur_1937_12196"/>
<feBlend mode="normal" in="SourceGraphic" in2="effect1_backgroundBlur_1937_12196" result="shape"/>
</filter>
<filter id="filter5_b_1937_12196" x="214.648" y="-56" width="133.698" height="131.414" filterUnits="userSpaceOnUse" color-interpolation-filters="sRGB">
<feFlood flood-opacity="0" result="BackgroundImageFix"/>
<feGaussianBlur in="BackgroundImage" stdDeviation="28"/>
<feComposite in2="SourceAlpha" operator="in" result="effect1_backgroundBlur_1937_12196"/>
<feBlend mode="normal" in="SourceGraphic" in2="effect1_backgroundBlur_1937_12196" result="shape"/>
</filter>
<linearGradient id="paint0_linear_1937_12196" x1="120.028" y1="95.1006" x2="120.028" y2="97.6269" gradientUnits="userSpaceOnUse">
<stop stop-color="#502EFF"/>
<stop offset="1" stop-color="#6F5ADC"/>
</linearGradient>
<linearGradient id="paint1_linear_1937_12196" x1="122.545" y1="90.2158" x2="122.545" y2="97.483" gradientUnits="userSpaceOnUse">
<stop stop-color="#502EFF"/>
<stop offset="1" stop-color="#6F5ADC"/>
</linearGradient>
<linearGradient id="paint2_linear_1937_12196" x1="172.559" y1="112.23" x2="172.559" y2="114.757" gradientUnits="userSpaceOnUse">
<stop stop-color="#502EFF"/>
<stop offset="1" stop-color="#6F5ADC"/>
</linearGradient>
<linearGradient id="paint3_linear_1937_12196" x1="175.076" y1="107.346" x2="175.076" y2="114.613" gradientUnits="userSpaceOnUse">
<stop stop-color="#502EFF"/>
<stop offset="1" stop-color="#6F5ADC"/>
</linearGradient>
<linearGradient id="paint4_linear_1937_12196" x1="67.3765" y1="18.2715" x2="82.9192" y2="46.7775" gradientUnits="userSpaceOnUse">
<stop stop-color="white"/>
<stop offset="1" stop-color="#6F5ADC"/>
</linearGradient>
</defs>
</svg>
