<svg width="264" height="133" viewBox="0 0 264 133" fill="none" xmlns="http://www.w3.org/2000/svg">
<path opacity="0.1" d="M241.121 0.00076049H223.904C223.308 0.0182288 222.737 0.247488 222.289 0.649041C221.841 1.05059 221.544 1.5993 221.449 2.20061L219.029 19.7994C218.981 20.0729 218.993 20.354 219.064 20.6222C219.135 20.8904 219.264 21.139 219.441 21.3498C219.619 21.5606 219.84 21.7283 220.088 21.8406C220.337 21.953 220.607 22.0072 220.879 21.9992H238.096C238.692 21.9818 239.263 21.7526 239.711 21.3511C240.159 20.9495 240.456 20.4008 240.551 19.7994L242.971 2.20061C243.019 1.92713 243.007 1.64603 242.936 1.37781C242.865 1.10959 242.736 0.861012 242.559 0.650221C242.381 0.439429 242.16 0.271735 241.912 0.159377C241.663 0.0470187 241.393 -0.00717072 241.121 0.00076049Z" fill="#AE9AFF"/>
<path opacity="0.1" d="M34.4342 89.0006H20.0864C19.59 89.0149 19.1142 89.2025 18.7408 89.531C18.3674 89.8596 18.1199 90.3085 18.0409 90.8005L16.0244 105.2C15.984 105.423 15.9939 105.653 16.0533 105.873C16.1127 106.092 16.2202 106.296 16.3679 106.468C16.5156 106.64 16.6998 106.778 16.907 106.87C17.1143 106.961 17.3393 107.006 17.5658 106.999H31.9136C32.41 106.985 32.8858 106.797 33.2592 106.469C33.6326 106.14 33.8801 105.691 33.9591 105.2L35.9756 90.8005C36.016 90.5767 36.0061 90.3467 35.9467 90.1273C35.8873 89.9079 35.7798 89.7045 35.6321 89.532C35.4844 89.3596 35.3002 89.2224 35.093 89.1304C34.8857 89.0385 34.6607 88.9942 34.4342 89.0006Z" fill="#CABDFF"/>
<g filter="url(#filter0_b_1926_13892)">
<rect x="4.73242" y="52.5488" width="30.169" height="178.648" rx="5" transform="rotate(-90 4.73242 52.5488)" fill="white" fill-opacity="0.03"/>
<rect x="5.23242" y="52.0488" width="29.169" height="177.648" rx="4.5" transform="rotate(-90 5.23242 52.0488)" stroke="#E5E5E5" stroke-opacity="0.19"/>
</g>
<g filter="url(#filter1_b_1926_13892)">
<rect x="41.4084" y="92.1836" width="28.9859" height="178.056" rx="5" transform="rotate(-90 41.4084 92.1836)" fill="white" fill-opacity="0.03"/>
<rect x="41.9084" y="91.6836" width="27.9859" height="177.056" rx="4.5" transform="rotate(-90 41.9084 91.6836)" stroke="#E5E5E5" stroke-opacity="0.19"/>
</g>
<g filter="url(#filter2_b_1926_13892)">
<rect x="85.1831" y="133" width="30.169" height="178.648" rx="5" transform="rotate(-90 85.1831 133)" fill="white" fill-opacity="0.03"/>
<rect x="85.6831" y="132.5" width="29.169" height="177.648" rx="4.5" transform="rotate(-90 85.6831 132.5)" stroke="#E5E5E5" stroke-opacity="0.19"/>
</g>
<circle cx="22" cy="37" r="9" fill="#474C4F" fill-opacity="0.52"/>
<circle cx="58" cy="78" r="9" fill="#474C4F" fill-opacity="0.52"/>
<circle cx="102.5" cy="117.5" r="8.5" fill="#474C4F" fill-opacity="0.52"/>
<path d="M137.831 78.2811C137.831 76.8218 135.566 75.6191 132.751 75.6191H81.9814C79.1966 75.6191 76.9014 76.8058 76.9014 78.2811C76.9014 79.7404 79.166 80.9431 81.9814 80.9431H132.751C135.536 80.9431 137.831 79.7404 137.831 78.2811Z" fill="#C4C4C4" fill-opacity="0.1"/>
<path d="M183.38 117.916C183.38 116.457 181.094 115.254 178.251 115.254H126.988C124.177 115.254 121.859 116.441 121.859 117.916C121.859 119.375 124.146 120.578 126.988 120.578H178.251C181.063 120.578 183.38 119.375 183.38 117.916Z" fill="#C4C4C4" fill-opacity="0.1"/>
<path d="M101.155 37.4647C101.155 36.0054 98.8683 34.8027 96.0256 34.8027H44.7631C41.9513 34.8027 39.6338 35.9894 39.6338 37.4647C39.6338 38.924 41.9204 40.1267 44.7631 40.1267H96.0256C98.8374 40.1267 101.155 38.924 101.155 37.4647Z" fill="#C4C4C4" fill-opacity="0.1"/>
<path d="M183 78.5C183 77.1295 181.699 76 180.082 76H150.918C149.318 76 148 77.1145 148 78.5C148 79.8705 149.301 81 150.918 81H180.082C181.682 81 183 79.8705 183 78.5Z" fill="#C4C4C4" fill-opacity="0.1"/>
<path d="M223 117.5C223 116.13 221.699 115 220.082 115H190.918C189.318 115 188 116.114 188 117.5C188 118.87 189.301 120 190.918 120H220.082C221.682 120 223 118.87 223 117.5Z" fill="#C4C4C4" fill-opacity="0.1"/>
<path d="M155 37.5C155 36.1295 153.216 35 150.998 35H111.002C108.808 35 107 36.1145 107 37.5C107 38.8705 108.784 40 111.002 40H150.998C153.192 40 155 38.8705 155 37.5Z" fill="#C4C4C4" fill-opacity="0.1"/>
<path fill-rule="evenodd" clip-rule="evenodd" d="M9.83468 57.3206C9.83468 59.4649 8.72958 60.9631 6.61892 61.5278V63.3668C6.61892 63.5551 6.47344 63.7026 6.28203 63.7026H4.29642C4.11521 63.7026 3.95698 63.5576 3.95698 63.3668V61.5278C1.48901 61.1793 0.138898 59.7091 0.0853016 59.6455C-0.0193383 59.5183 -0.0295471 59.3403 0.064884 59.2131L1.15212 57.7937C1.25931 57.6462 1.52219 57.6182 1.64724 57.7632C1.66766 57.7734 3.14538 59.1826 5.01359 59.1826C6.04722 59.1826 7.16508 58.6357 7.16508 57.4478C7.16508 56.438 5.91961 55.9445 4.49549 55.3747C2.59666 54.6295 0.233329 53.6832 0.233329 51.0429C0.233329 49.1072 1.28738 47.6548 3.26789 47.0952V45.2028C3.26789 45.012 3.42612 44.8645 3.60478 44.8645L5.72054 44.8594C5.90941 44.8594 6.05743 45.0069 6.05743 45.1977V47.0469C8.19872 47.2885 9.33955 48.4459 9.38039 48.4891C9.48758 48.6036 9.508 48.7613 9.43398 48.8885L8.579 50.4223C8.46926 50.6232 8.2268 50.6487 8.0507 50.519C8.04049 50.5088 6.76439 49.3819 5.18203 49.3819C3.84213 49.3819 2.91313 50.0458 2.91313 51.0022C2.91313 52.1164 4.19944 52.6124 5.69757 53.1898C7.63979 53.935 9.83468 54.7872 9.83468 57.3232V57.3206Z" fill="url(#paint0_linear_1926_13892)"/>
<path fill-rule="evenodd" clip-rule="evenodd" d="M89.8347 124.461C89.8347 126.606 88.7296 128.104 86.6189 128.668V130.507C86.6189 130.696 86.4734 130.843 86.282 130.843H84.2964C84.1152 130.843 83.957 130.698 83.957 130.507V128.668C81.489 128.32 80.1389 126.85 80.0853 126.786C79.9807 126.659 79.9705 126.481 80.0649 126.354L81.1521 124.934C81.2593 124.787 81.5222 124.759 81.6472 124.904C81.6677 124.914 83.1454 126.323 85.0136 126.323C86.0472 126.323 87.1651 125.776 87.1651 124.588C87.1651 123.579 85.9196 123.085 84.4955 122.515C82.5967 121.77 80.2333 120.824 80.2333 118.184C80.2333 116.248 81.2874 114.795 83.2679 114.236V112.343C83.2679 112.153 83.4261 112.005 83.6048 112.005L85.7205 112C85.9094 112 86.0574 112.148 86.0574 112.338V114.188C88.1987 114.429 89.3396 115.587 89.3804 115.63C89.4876 115.744 89.508 115.902 89.434 116.029L88.579 117.563C88.4693 117.764 88.2268 117.789 88.0507 117.66C88.0405 117.649 86.7644 116.523 85.182 116.523C83.8421 116.523 82.9131 117.186 82.9131 118.143C82.9131 119.257 84.1994 119.753 85.6976 120.33C87.6398 121.076 89.8347 121.928 89.8347 124.464V124.461Z" fill="url(#paint1_linear_1926_13892)"/>
<path d="M166.866 33.5C167.251 32.8333 168.214 32.8333 168.598 33.5L170.965 37.5986C171.35 38.2653 170.869 39.0986 170.099 39.0986H165.366C164.596 39.0986 164.115 38.2653 164.5 37.5986L166.866 33.5Z" fill="url(#paint2_linear_1926_13892)"/>
<path d="M199.866 74.5C200.251 73.8333 201.214 73.8333 201.598 74.5L203.965 78.5986C204.35 79.2653 203.869 80.0986 203.099 80.0986H198.366C197.596 80.0986 197.115 79.2653 197.5 78.5986L199.866 74.5Z" fill="url(#paint3_linear_1926_13892)"/>
<path d="M244.866 114.5C245.251 113.833 246.214 113.833 246.598 114.5L248.965 118.599C249.35 119.265 248.869 120.099 248.099 120.099H243.366C242.596 120.099 242.115 119.265 242.5 118.599L244.866 114.5Z" fill="url(#paint4_linear_1926_13892)"/>
<path fill-rule="evenodd" clip-rule="evenodd" d="M45.2725 75.6923C44.3787 75.6923 43.6183 76.3134 43.4049 77.1505H50.5818C50.3684 76.3134 49.608 75.6923 48.7142 75.6923H45.2725ZM52.6095 77.1505H55.2508C58.0522 77.1505 60.3333 79.4594 60.3333 82.2948C60.3333 82.2948 60.2533 83.4951 60.2266 85.1667C60.224 85.299 60.1599 85.4286 60.0545 85.5069C59.4129 85.9809 58.8259 86.3724 58.7726 86.3994C56.5581 87.8846 53.9848 88.9297 51.2435 89.4495C51.0647 89.4846 50.8886 89.3915 50.7979 89.2321C50.0295 87.9008 48.5941 87.034 46.9933 87.034C45.4032 87.034 43.9545 87.8914 43.1634 89.224C43.0714 89.3807 42.898 89.4711 42.7205 89.4374C40.0018 88.9162 37.4286 87.8725 35.2275 86.4129L33.9468 85.5218C33.8401 85.4543 33.7734 85.3328 33.7734 85.1977C33.7334 84.5091 33.6667 82.2948 33.6667 82.2948C33.6667 79.4594 35.9478 77.1505 38.7492 77.1505H41.3772C41.6307 75.1927 43.2715 73.667 45.2725 73.667H48.7142C50.7152 73.667 52.356 75.1927 52.6095 77.1505ZM59.8798 88.0873L59.8264 88.1143C57.1317 89.9236 53.8901 91.1253 50.4884 91.6248C50.0082 91.6924 49.5279 91.3818 49.3945 90.8957C49.1011 89.7886 48.1539 89.0595 47.02 89.0595H47.0067H46.98C45.8461 89.0595 44.899 89.7886 44.6055 90.8957C44.4721 91.3818 43.9918 91.6924 43.5116 91.6248C40.1099 91.1253 36.8683 89.9236 34.1736 88.1143C34.1603 88.1008 34.0269 88.0198 33.9201 88.0873C33.8001 88.1548 33.8001 88.3168 33.8001 88.3168L33.8935 95.2029C33.8935 98.0383 36.1613 100.334 38.9627 100.334H55.024C57.8254 100.334 60.0932 98.0383 60.0932 95.2029L60.1999 88.3168C60.1999 88.3168 60.1999 88.1548 60.0799 88.0873C60.0132 88.0468 59.9331 88.0603 59.8798 88.0873ZM47.9938 93.7447C47.9938 94.3117 47.5536 94.7573 46.9933 94.7573C46.4464 94.7573 45.9928 94.3117 45.9928 93.7447V92.0029C45.9928 91.4493 46.4464 90.9902 46.9933 90.9902C47.5536 90.9902 47.9938 91.4493 47.9938 92.0029V93.7447Z" fill="#6F5ADC"/>
<defs>
<filter id="filter0_b_1926_13892" x="-51.2676" y="-33.6201" width="290.648" height="142.169" filterUnits="userSpaceOnUse" color-interpolation-filters="sRGB">
<feFlood flood-opacity="0" result="BackgroundImageFix"/>
<feGaussianBlur in="BackgroundImage" stdDeviation="28"/>
<feComposite in2="SourceAlpha" operator="in" result="effect1_backgroundBlur_1926_13892"/>
<feBlend mode="normal" in="SourceGraphic" in2="effect1_backgroundBlur_1926_13892" result="shape"/>
</filter>
<filter id="filter1_b_1926_13892" x="-14.5916" y="7.19727" width="290.056" height="140.986" filterUnits="userSpaceOnUse" color-interpolation-filters="sRGB">
<feFlood flood-opacity="0" result="BackgroundImageFix"/>
<feGaussianBlur in="BackgroundImage" stdDeviation="28"/>
<feComposite in2="SourceAlpha" operator="in" result="effect1_backgroundBlur_1926_13892"/>
<feBlend mode="normal" in="SourceGraphic" in2="effect1_backgroundBlur_1926_13892" result="shape"/>
</filter>
<filter id="filter2_b_1926_13892" x="29.1831" y="46.8311" width="290.648" height="142.169" filterUnits="userSpaceOnUse" color-interpolation-filters="sRGB">
<feFlood flood-opacity="0" result="BackgroundImageFix"/>
<feGaussianBlur in="BackgroundImage" stdDeviation="28"/>
<feComposite in2="SourceAlpha" operator="in" result="effect1_backgroundBlur_1926_13892"/>
<feBlend mode="normal" in="SourceGraphic" in2="effect1_backgroundBlur_1926_13892" result="shape"/>
</filter>
<linearGradient id="paint0_linear_1926_13892" x1="4.91734" y1="44.8594" x2="20.0653" y2="61.9183" gradientUnits="userSpaceOnUse">
<stop stop-color="white"/>
<stop offset="1" stop-color="#6F5ADC"/>
</linearGradient>
<linearGradient id="paint1_linear_1926_13892" x1="84.9173" y1="112" x2="100.065" y2="129.059" gradientUnits="userSpaceOnUse">
<stop stop-color="white"/>
<stop offset="1" stop-color="#6F5ADC"/>
</linearGradient>
<linearGradient id="paint2_linear_1926_13892" x1="167.732" y1="32" x2="173.579" y2="44.6153" gradientUnits="userSpaceOnUse">
<stop stop-color="white"/>
<stop offset="1" stop-color="#6F5ADC"/>
</linearGradient>
<linearGradient id="paint3_linear_1926_13892" x1="200.732" y1="73" x2="206.579" y2="85.6153" gradientUnits="userSpaceOnUse">
<stop stop-color="white"/>
<stop offset="1" stop-color="#6F5ADC"/>
</linearGradient>
<linearGradient id="paint4_linear_1926_13892" x1="245.732" y1="113" x2="251.579" y2="125.615" gradientUnits="userSpaceOnUse">
<stop stop-color="white"/>
<stop offset="1" stop-color="#6F5ADC"/>
</linearGradient>
</defs>
</svg>
