<svg width="356" height="286" viewBox="0 0 356 286" fill="none" xmlns="http://www.w3.org/2000/svg">
<path d="M148.51 129.864C148.51 128.76 149.406 127.864 150.51 127.864H265.038C266.143 127.864 267.038 128.76 267.038 129.864V219.02C267.038 219.205 266.965 219.383 266.833 219.514C266.702 219.646 266.524 219.72 266.338 219.72H149.21C149.025 219.72 148.847 219.646 148.715 219.514C148.584 219.383 148.51 219.205 148.51 219.02V129.864Z" fill="white" fill-opacity="0.1"/>
<path d="M237.304 92.1436H182.19L148.51 127.865H267.038L237.304 92.1436Z" fill="white" fill-opacity="0.03"/>
<path d="M159.176 78.322C159.51 78.0435 159.986 78.013 160.353 78.2465L181.17 91.4937C181.699 91.8307 181.791 92.5666 181.36 93.0234L149.127 127.21C148.776 127.582 148.201 127.63 147.794 127.321L123.995 109.233C123.483 108.844 123.466 108.08 123.96 107.669L159.176 78.322Z" fill="white" fill-opacity="0.09"/>
<path d="M260.318 78.322C259.984 78.0435 259.508 78.013 259.141 78.2465L238.262 91.5331C237.753 91.8567 237.645 92.5533 238.03 93.0165L266.466 127.178C266.792 127.569 267.36 127.653 267.785 127.373L295.373 109.214C295.934 108.845 295.979 108.04 295.464 107.61L260.318 78.322Z" fill="white" fill-opacity="0.09"/>
<g filter="url(#filter0_b_1983_12076)">
<rect x="103" y="174" width="64" height="64" rx="6" fill="white" fill-opacity="0.03"/>
<rect x="103.5" y="174.5" width="63" height="63" rx="5.5" stroke="#E5E5E5" stroke-opacity="0.19"/>
</g>
<g filter="url(#filter1_b_1983_12076)">
<rect x="250" y="113" width="40" height="40" rx="6" fill="white" fill-opacity="0.03"/>
<rect x="250.5" y="113.5" width="39" height="39" rx="5.5" stroke="#E5E5E5" stroke-opacity="0.19"/>
</g>
<g filter="url(#filter2_b_1983_12076)">
<rect y="200" width="18" height="17" rx="6" fill="white" fill-opacity="0.03"/>
</g>
<g filter="url(#filter3_b_1983_12076)">
<rect x="318" y="189" width="18" height="17" rx="6" fill="white" fill-opacity="0.03"/>
</g>
<g filter="url(#filter4_b_1983_12076)">
<rect x="82" width="30" height="29" rx="6" fill="white" fill-opacity="0.03"/>
</g>
<path d="M142.891 209.093C142.546 209.428 142.387 209.912 142.466 210.386L143.651 216.946C143.751 217.502 143.517 218.065 143.051 218.386C142.595 218.72 141.989 218.76 141.491 218.493L135.586 215.413C135.381 215.304 135.153 215.245 134.919 215.238H134.558C134.433 215.257 134.31 215.297 134.198 215.358L128.291 218.453C127.999 218.6 127.669 218.652 127.345 218.6C126.555 218.45 126.029 217.698 126.158 216.905L127.345 210.345C127.423 209.866 127.265 209.38 126.919 209.04L122.105 204.373C121.702 203.982 121.562 203.396 121.746 202.866C121.925 202.338 122.381 201.953 122.931 201.866L129.558 200.905C130.062 200.853 130.505 200.546 130.731 200.093L133.651 194.106C133.721 193.973 133.81 193.85 133.918 193.746L134.038 193.653C134.101 193.584 134.173 193.526 134.253 193.48L134.398 193.426L134.625 193.333H135.186C135.687 193.385 136.129 193.685 136.359 194.133L139.318 200.093C139.531 200.529 139.946 200.832 140.425 200.905L147.051 201.866C147.611 201.946 148.079 202.333 148.265 202.866C148.439 203.401 148.289 203.988 147.878 204.373L142.891 209.093Z" fill="url(#paint0_linear_1983_12076)"/>
<path fill-rule="evenodd" clip-rule="evenodd" d="M278.806 128.624L278.184 127.544C277.657 126.63 276.49 126.315 275.575 126.839V126.839C275.14 127.096 274.62 127.168 274.13 127.041C273.641 126.914 273.222 126.598 272.967 126.162C272.802 125.884 272.714 125.569 272.71 125.246V125.246C272.725 124.729 272.53 124.229 272.17 123.858C271.809 123.487 271.314 123.278 270.797 123.278H269.543C269.037 123.278 268.551 123.48 268.194 123.839C267.836 124.198 267.637 124.685 267.639 125.191V125.191C267.624 126.237 266.772 127.077 265.726 127.077C265.404 127.074 265.088 126.985 264.811 126.821V126.821C263.896 126.296 262.729 126.612 262.202 127.525L261.534 128.624C261.008 129.537 261.319 130.703 262.23 131.233V131.233C262.822 131.574 263.186 132.206 263.186 132.889C263.186 133.573 262.822 134.204 262.23 134.546V134.546C261.32 135.072 261.009 136.236 261.534 137.146V137.146L262.166 138.235C262.412 138.68 262.826 139.009 263.316 139.148C263.806 139.287 264.33 139.225 264.774 138.976V138.976C265.211 138.722 265.731 138.652 266.219 138.782C266.707 138.913 267.123 139.233 267.374 139.672C267.538 139.949 267.627 140.265 267.63 140.587V140.587C267.63 141.644 268.487 142.5 269.543 142.5H270.797C271.85 142.5 272.705 141.649 272.71 140.596V140.596C272.708 140.088 272.909 139.6 273.268 139.241C273.627 138.882 274.115 138.681 274.623 138.683C274.945 138.692 275.259 138.78 275.539 138.94V138.94C276.451 139.466 277.618 139.155 278.147 138.244V138.244L278.806 137.146C279.062 136.708 279.132 136.186 279.001 135.697C278.87 135.207 278.55 134.79 278.111 134.537V134.537C277.672 134.284 277.351 133.867 277.221 133.377C277.09 132.888 277.16 132.366 277.415 131.928C277.581 131.639 277.821 131.398 278.111 131.233V131.233C279.016 130.703 279.326 129.544 278.806 128.633V128.633V128.624Z" stroke="#6F5ADC" stroke-width="1.5" stroke-linecap="round" stroke-linejoin="round"/>
<circle cx="270.175" cy="132.889" r="2.63616" stroke="#6F5ADC" stroke-width="1.5" stroke-linecap="round" stroke-linejoin="round"/>
<defs>
<filter id="filter0_b_1983_12076" x="47" y="118" width="176" height="176" filterUnits="userSpaceOnUse" color-interpolation-filters="sRGB">
<feFlood flood-opacity="0" result="BackgroundImageFix"/>
<feGaussianBlur in="BackgroundImage" stdDeviation="28"/>
<feComposite in2="SourceAlpha" operator="in" result="effect1_backgroundBlur_1983_12076"/>
<feBlend mode="normal" in="SourceGraphic" in2="effect1_backgroundBlur_1983_12076" result="shape"/>
</filter>
<filter id="filter1_b_1983_12076" x="194" y="57" width="152" height="152" filterUnits="userSpaceOnUse" color-interpolation-filters="sRGB">
<feFlood flood-opacity="0" result="BackgroundImageFix"/>
<feGaussianBlur in="BackgroundImage" stdDeviation="28"/>
<feComposite in2="SourceAlpha" operator="in" result="effect1_backgroundBlur_1983_12076"/>
<feBlend mode="normal" in="SourceGraphic" in2="effect1_backgroundBlur_1983_12076" result="shape"/>
</filter>
<filter id="filter2_b_1983_12076" x="-56" y="144" width="130" height="129" filterUnits="userSpaceOnUse" color-interpolation-filters="sRGB">
<feFlood flood-opacity="0" result="BackgroundImageFix"/>
<feGaussianBlur in="BackgroundImage" stdDeviation="28"/>
<feComposite in2="SourceAlpha" operator="in" result="effect1_backgroundBlur_1983_12076"/>
<feBlend mode="normal" in="SourceGraphic" in2="effect1_backgroundBlur_1983_12076" result="shape"/>
</filter>
<filter id="filter3_b_1983_12076" x="262" y="133" width="130" height="129" filterUnits="userSpaceOnUse" color-interpolation-filters="sRGB">
<feFlood flood-opacity="0" result="BackgroundImageFix"/>
<feGaussianBlur in="BackgroundImage" stdDeviation="28"/>
<feComposite in2="SourceAlpha" operator="in" result="effect1_backgroundBlur_1983_12076"/>
<feBlend mode="normal" in="SourceGraphic" in2="effect1_backgroundBlur_1983_12076" result="shape"/>
</filter>
<filter id="filter4_b_1983_12076" x="26" y="-56" width="142" height="141" filterUnits="userSpaceOnUse" color-interpolation-filters="sRGB">
<feFlood flood-opacity="0" result="BackgroundImageFix"/>
<feGaussianBlur in="BackgroundImage" stdDeviation="28"/>
<feComposite in2="SourceAlpha" operator="in" result="effect1_backgroundBlur_1983_12076"/>
<feBlend mode="normal" in="SourceGraphic" in2="effect1_backgroundBlur_1983_12076" result="shape"/>
</filter>
<linearGradient id="paint0_linear_1983_12076" x1="135.001" y1="193.333" x2="150.129" y2="227.694" gradientUnits="userSpaceOnUse">
<stop stop-color="white"/>
<stop offset="1" stop-color="#6F5ADC"/>
</linearGradient>
</defs>
</svg>
