<svg width="303" height="283" viewBox="0 0 303 283" fill="none" xmlns="http://www.w3.org/2000/svg">
<path opacity="0.1" d="M35.0249 47.0012H7.76413C6.82104 47.0282 5.91693 47.3825 5.20753 48.0031C4.49812 48.6237 4.02784 49.4716 3.87768 50.4009L0.0463722 77.5991C-0.0304053 78.0217 -0.0116598 78.4561 0.10124 78.8706C0.214139 79.2852 0.418345 79.6693 0.698967 79.995C0.979589 80.3208 1.32955 80.58 1.72332 80.7536C2.1171 80.9273 2.54476 81.011 2.97511 80.9988H30.2359C31.179 80.9718 32.0831 80.6175 32.7925 79.9969C33.5019 79.3763 33.9722 78.5284 34.1223 77.5991L37.9536 50.4009C38.0304 49.9783 38.0117 49.5439 37.8988 49.1294C37.7859 48.7148 37.5817 48.3307 37.301 48.005C37.0204 47.6792 36.6704 47.42 36.2767 47.2464C35.8829 47.0727 35.4552 46.989 35.0249 47.0012Z" fill="#CABDFF"/>
<path opacity="0.1" d="M248.025 0.00116671H220.764C219.821 0.0282025 218.917 0.38252 218.208 1.00309C217.498 1.62366 217.028 2.47163 216.878 3.40093L213.046 30.5991C212.97 31.0217 212.988 31.4561 213.101 31.8706C213.214 32.2852 213.418 32.6693 213.699 32.995C213.98 33.3208 214.33 33.58 214.723 33.7536C215.117 33.9273 215.545 34.011 215.975 33.9988H243.236C244.179 33.9718 245.083 33.6175 245.792 32.9969C246.502 32.3763 246.972 31.5284 247.122 30.5991L250.954 3.40093C251.03 2.97828 251.012 2.54386 250.899 2.12935C250.786 1.71485 250.582 1.33071 250.301 1.00495C250.02 0.679201 249.67 0.420044 249.277 0.246388C248.883 0.0727321 248.455 -0.0110447 248.025 0.00116671Z" fill="#CABDFF"/>
<g filter="url(#filter0_b_1948_12093)">
<rect x="34" y="283" width="176" height="82" rx="5" transform="rotate(-90 34 283)" fill="white" fill-opacity="0.03"/>
</g>
<g filter="url(#filter1_b_1948_12093)">
<rect x="191" y="283" width="176" height="82" rx="5" transform="rotate(-90 191 283)" fill="white" fill-opacity="0.03"/>
</g>
<line x1="156.75" y1="283" x2="156.75" y2="45" stroke="white" stroke-opacity="0.67" stroke-width="0.5"/>
<g filter="url(#filter2_b_1948_12093)">
<rect x="46" y="83" width="61" height="56" rx="14" fill="white" fill-opacity="0.03"/>
<rect x="46.5" y="83.5" width="60" height="55" rx="13.5" stroke="#E5E5E5" stroke-opacity="0.19"/>
</g>
<g filter="url(#filter3_b_1948_12093)">
<rect x="242" y="140" width="61" height="56" rx="14" fill="white" fill-opacity="0.03"/>
<rect x="242.5" y="140.5" width="60" height="55" rx="13.5" stroke="#E5E5E5" stroke-opacity="0.19"/>
</g>
<path fill-rule="evenodd" clip-rule="evenodd" d="M79.9395 100C81.2805 100 82.5705 100.53 83.5195 101.481C84.4695 102.43 85.0005 103.71 85.0005 105.05V112.95C85.0005 115.74 82.7305 118 79.9395 118H70.0605C67.2695 118 65.0005 115.74 65.0005 112.95V105.05C65.0005 102.26 67.2595 100 70.0605 100H79.9395ZM81.5305 106.54L81.6105 106.46C81.8495 106.17 81.8495 105.75 81.5995 105.46C81.4605 105.311 81.2695 105.22 81.0705 105.2C80.8605 105.189 80.6605 105.26 80.5095 105.4L76.0005 109C75.4205 109.481 74.5895 109.481 74.0005 109L69.5005 105.4C69.1895 105.17 68.7595 105.2 68.5005 105.47C68.2305 105.74 68.2005 106.17 68.4295 106.47L68.5605 106.6L73.1105 110.15C73.6705 110.59 74.3495 110.83 75.0605 110.83C75.7695 110.83 76.4605 110.59 77.0195 110.15L81.5305 106.54Z" fill="url(#paint0_linear_1948_12093)"/>
<circle cx="84" cy="100" r="3" fill="url(#paint1_linear_1948_12093)"/>
<path fill-rule="evenodd" clip-rule="evenodd" d="M277.939 159C279.28 159 280.57 159.53 281.519 160.481C282.469 161.43 283 162.71 283 164.05V171.95C283 174.74 280.73 177 277.939 177H268.06C265.269 177 263 174.74 263 171.95V164.05C263 161.26 265.259 159 268.06 159H277.939ZM279.53 165.54L279.61 165.46C279.849 165.17 279.849 164.75 279.599 164.46C279.46 164.311 279.269 164.22 279.07 164.2C278.86 164.189 278.66 164.26 278.509 164.4L274 168C273.42 168.481 272.589 168.481 272 168L267.5 164.4C267.189 164.17 266.759 164.2 266.5 164.47C266.23 164.74 266.2 165.17 266.429 165.47L266.56 165.6L271.11 169.15C271.67 169.59 272.349 169.83 273.06 169.83C273.769 169.83 274.46 169.59 275.019 169.15L279.53 165.54Z" fill="url(#paint2_linear_1948_12093)"/>
<defs>
<filter id="filter0_b_1948_12093" x="-22" y="51" width="194" height="288" filterUnits="userSpaceOnUse" color-interpolation-filters="sRGB">
<feFlood flood-opacity="0" result="BackgroundImageFix"/>
<feGaussianBlur in="BackgroundImage" stdDeviation="28"/>
<feComposite in2="SourceAlpha" operator="in" result="effect1_backgroundBlur_1948_12093"/>
<feBlend mode="normal" in="SourceGraphic" in2="effect1_backgroundBlur_1948_12093" result="shape"/>
</filter>
<filter id="filter1_b_1948_12093" x="135" y="51" width="194" height="288" filterUnits="userSpaceOnUse" color-interpolation-filters="sRGB">
<feFlood flood-opacity="0" result="BackgroundImageFix"/>
<feGaussianBlur in="BackgroundImage" stdDeviation="28"/>
<feComposite in2="SourceAlpha" operator="in" result="effect1_backgroundBlur_1948_12093"/>
<feBlend mode="normal" in="SourceGraphic" in2="effect1_backgroundBlur_1948_12093" result="shape"/>
</filter>
<filter id="filter2_b_1948_12093" x="-10" y="27" width="173" height="168" filterUnits="userSpaceOnUse" color-interpolation-filters="sRGB">
<feFlood flood-opacity="0" result="BackgroundImageFix"/>
<feGaussianBlur in="BackgroundImage" stdDeviation="28"/>
<feComposite in2="SourceAlpha" operator="in" result="effect1_backgroundBlur_1948_12093"/>
<feBlend mode="normal" in="SourceGraphic" in2="effect1_backgroundBlur_1948_12093" result="shape"/>
</filter>
<filter id="filter3_b_1948_12093" x="186" y="84" width="173" height="168" filterUnits="userSpaceOnUse" color-interpolation-filters="sRGB">
<feFlood flood-opacity="0" result="BackgroundImageFix"/>
<feGaussianBlur in="BackgroundImage" stdDeviation="28"/>
<feComposite in2="SourceAlpha" operator="in" result="effect1_backgroundBlur_1948_12093"/>
<feBlend mode="normal" in="SourceGraphic" in2="effect1_backgroundBlur_1948_12093" result="shape"/>
</filter>
<linearGradient id="paint0_linear_1948_12093" x1="75.0005" y1="100" x2="85.3555" y2="124.826" gradientUnits="userSpaceOnUse">
<stop stop-color="white"/>
<stop offset="1" stop-color="#6F5ADC"/>
</linearGradient>
<linearGradient id="paint1_linear_1948_12093" x1="84" y1="97" x2="84" y2="103" gradientUnits="userSpaceOnUse">
<stop stop-color="#502EFF"/>
<stop offset="1" stop-color="#6F5ADC"/>
</linearGradient>
<linearGradient id="paint2_linear_1948_12093" x1="273" y1="159" x2="283.355" y2="183.826" gradientUnits="userSpaceOnUse">
<stop stop-color="white"/>
<stop offset="1" stop-color="#6F5ADC"/>
</linearGradient>
</defs>
</svg>
