<svg width="302" height="240" viewBox="0 0 302 240" fill="none" xmlns="http://www.w3.org/2000/svg">
<g filter="url(#filter0_b_1948_12098)">
<rect x="13" y="144" width="126" height="158" rx="5" transform="rotate(-90 13 144)" fill="white" fill-opacity="0.03"/>
<rect x="13.5" y="143.5" width="125" height="157" rx="4.5" transform="rotate(-90 13.5 143.5)" stroke="#E5E5E5" stroke-opacity="0.19"/>
</g>
<g filter="url(#filter1_b_1948_12098)">
<rect x="144" y="240" width="123" height="158" rx="5" transform="rotate(-90 144 240)" fill="white" fill-opacity="0.03"/>
<rect x="144.5" y="239.5" width="122" height="157" rx="4.5" transform="rotate(-90 144.5 239.5)" stroke="#E5E5E5" stroke-opacity="0.19"/>
</g>
<path d="M98.268 54C99.0378 52.6667 100.962 52.6667 101.732 54L105.196 60C105.966 61.3333 105.004 63 103.464 63H96.5359C94.9963 63 94.034 61.3333 94.8038 60L98.268 54Z" fill="#6F5ADC"/>
<path d="M229.268 157C230.038 158.333 231.962 158.333 232.732 157L236.196 151C236.966 149.667 236.004 148 234.464 148H227.536C225.996 148 225.034 149.667 225.804 151L229.268 157Z" fill="#6F5ADC"/>
<rect x="23" y="41" width="138" height="6" rx="3" fill="#C4C4C4" fill-opacity="0.07"/>
<rect x="154" y="134" width="138" height="6" rx="3" fill="#C4C4C4" fill-opacity="0.07"/>
<rect x="154" y="149" width="64" height="9" rx="4.5" fill="#C4C4C4" fill-opacity="0.07"/>
<rect x="23" y="54" width="64" height="9" rx="4.5" fill="#C4C4C4" fill-opacity="0.07"/>
<path d="M28 129L43.9112 109.527C45.6812 107.361 48.884 107.069 51.0173 108.878L58.1783 114.952C60.114 116.594 62.9726 116.525 64.8269 114.792L86.566 94.4715C88.5339 92.632 91.6053 92.6822 93.5121 94.585L97.1428 98.208C99.1895 100.25 102.537 100.136 104.439 97.959L128 71" stroke="white" stroke-opacity="0.03" stroke-width="4" stroke-linecap="round" stroke-linejoin="round"/>
<path d="M259 229L244.634 211.466C241.803 208.011 236.69 207.543 233.279 210.429L230.179 213.051C227.085 215.669 222.522 215.559 219.557 212.795L201.077 195.567C198.055 192.751 193.347 192.828 190.419 195.741V195.741C187.276 198.869 182.145 198.694 179.223 195.359L157 170" stroke="white" stroke-opacity="0.03" stroke-width="4" stroke-linecap="round" stroke-linejoin="round"/>
<g filter="url(#filter2_b_1948_12098)">
<rect x="208" y="35" width="61" height="56" rx="14" fill="white" fill-opacity="0.03"/>
<rect x="208.5" y="35.5" width="60" height="55" rx="13.5" stroke="#E5E5E5" stroke-opacity="0.19"/>
</g>
<path fill-rule="evenodd" clip-rule="evenodd" d="M247.625 68.0654C247.625 71.6903 245.757 74.223 242.189 75.1775V78.2864C242.189 78.6046 241.943 78.854 241.62 78.854H238.263C237.957 78.854 237.689 78.6089 237.689 78.2864V75.1775C233.517 74.5885 231.235 72.1031 231.144 71.9956C230.967 71.7806 230.95 71.4796 231.11 71.2646L232.948 68.8652C233.129 68.6158 233.573 68.5685 233.785 68.8136C233.819 68.8308 236.317 71.213 239.475 71.213C241.223 71.213 243.112 70.2885 243.112 68.2804C243.112 66.5734 241.007 65.7392 238.6 64.776C235.39 63.5161 231.394 61.9165 231.394 57.4532C231.394 54.1809 233.176 51.7256 236.524 50.7797V47.5805C236.524 47.258 236.792 47.0086 237.094 47.0086L240.67 47C240.99 47 241.24 47.2494 241.24 47.5719V50.698C244.86 51.1064 246.788 53.0629 246.857 53.136C247.039 53.3295 247.073 53.5961 246.948 53.8111L245.503 56.404C245.317 56.7437 244.907 56.7867 244.61 56.5674C244.592 56.5502 242.435 54.6453 239.76 54.6453C237.495 54.6453 235.925 55.7676 235.925 57.3844C235.925 59.2677 238.099 60.1062 240.632 61.0823C243.915 62.3422 247.625 63.7827 247.625 68.0697V68.0654Z" fill="url(#paint0_linear_1948_12098)"/>
<path opacity="0.1" d="M215.964 0.000795058H197.312C196.667 0.0190574 196.048 0.258737 195.563 0.678543C195.078 1.09835 194.756 1.67199 194.653 2.30064L192.032 20.6994C191.979 20.9853 191.992 21.2792 192.069 21.5596C192.146 21.84 192.286 22.0999 192.478 22.3202C192.67 22.5406 192.91 22.7159 193.179 22.8334C193.448 22.9508 193.741 23.0075 194.036 22.9992H212.688C213.333 22.981 213.952 22.7414 214.437 22.3216C214.923 21.9018 215.244 21.3281 215.347 20.6994L217.968 2.30064C218.021 2.01473 218.008 1.72085 217.931 1.44044C217.854 1.16002 217.714 0.900149 217.522 0.679776C217.33 0.459403 217.09 0.284087 216.821 0.166621C216.552 0.0491559 216.259 -0.00749666 215.964 0.000795058Z" fill="#AE9AFF"/>
<path opacity="0.1" d="M75.0249 203.001H47.7641C46.821 203.028 45.9169 203.383 45.2075 204.003C44.4981 204.624 44.0278 205.472 43.8777 206.401L40.0464 233.599C39.9696 234.022 39.9883 234.456 40.1012 234.871C40.2141 235.285 40.4183 235.669 40.699 235.995C40.9796 236.321 41.3296 236.58 41.7233 236.754C42.1171 236.927 42.5448 237.011 42.9751 236.999H70.2359C71.179 236.972 72.0831 236.617 72.7925 235.997C73.5019 235.376 73.9722 234.528 74.1223 233.599L77.9536 206.401C78.0304 205.978 78.0117 205.544 77.8988 205.129C77.7859 204.715 77.5817 204.331 77.301 204.005C77.0204 203.679 76.6704 203.42 76.2767 203.246C75.8829 203.073 75.4552 202.989 75.0249 203.001Z" fill="#CABDFF"/>
<path d="M22.9878 175C35.6836 175 45.9756 164.703 45.9756 152C45.9756 139.297 35.6836 129 22.9878 129C10.292 129 0 139.297 0 152C0 164.703 10.292 175 22.9878 175Z" fill="url(#paint1_linear_1948_12098)"/>
<path d="M22.9879 170.613C33.2622 170.613 41.5911 162.28 41.5911 152C41.5911 141.72 33.2622 133.387 22.9879 133.387C12.7137 133.387 4.38477 141.72 4.38477 152C4.38477 162.28 12.7137 170.613 22.9879 170.613Z" fill="#252B2E" fill-opacity="0.7"/>
<path d="M17.342 160.01C17.2343 160.01 17.1288 159.98 17.0373 159.923C16.9459 159.867 16.8721 159.785 16.8243 159.689C16.7765 159.592 16.7566 159.484 16.7668 159.377C16.777 159.27 16.8169 159.168 16.8821 159.082L22.4094 151.805V136.783C22.4094 136.629 22.4703 136.482 22.5787 136.374C22.6871 136.265 22.8342 136.204 22.9875 136.204C23.1409 136.204 23.2879 136.265 23.3964 136.374C23.5048 136.482 23.5657 136.629 23.5657 136.783V152C23.5657 152.127 23.5243 152.249 23.4478 152.35L17.8027 159.782C17.7488 159.853 17.6791 159.911 17.5991 159.95C17.5192 159.99 17.4312 160.011 17.342 160.01Z" fill="url(#paint2_linear_1948_12098)"/>
<path d="M22.9876 154.281C24.2466 154.281 25.2672 153.26 25.2672 152C25.2672 150.74 24.2466 149.719 22.9876 149.719C21.7286 149.719 20.708 150.74 20.708 152C20.708 153.26 21.7286 154.281 22.9876 154.281Z" fill="url(#paint3_linear_1948_12098)"/>
<defs>
<filter id="filter0_b_1948_12098" x="-43" y="-38" width="270" height="238" filterUnits="userSpaceOnUse" color-interpolation-filters="sRGB">
<feFlood flood-opacity="0" result="BackgroundImageFix"/>
<feGaussianBlur in="BackgroundImage" stdDeviation="28"/>
<feComposite in2="SourceAlpha" operator="in" result="effect1_backgroundBlur_1948_12098"/>
<feBlend mode="normal" in="SourceGraphic" in2="effect1_backgroundBlur_1948_12098" result="shape"/>
</filter>
<filter id="filter1_b_1948_12098" x="88" y="61" width="270" height="235" filterUnits="userSpaceOnUse" color-interpolation-filters="sRGB">
<feFlood flood-opacity="0" result="BackgroundImageFix"/>
<feGaussianBlur in="BackgroundImage" stdDeviation="28"/>
<feComposite in2="SourceAlpha" operator="in" result="effect1_backgroundBlur_1948_12098"/>
<feBlend mode="normal" in="SourceGraphic" in2="effect1_backgroundBlur_1948_12098" result="shape"/>
</filter>
<filter id="filter2_b_1948_12098" x="152" y="-21" width="173" height="168" filterUnits="userSpaceOnUse" color-interpolation-filters="sRGB">
<feFlood flood-opacity="0" result="BackgroundImageFix"/>
<feGaussianBlur in="BackgroundImage" stdDeviation="28"/>
<feComposite in2="SourceAlpha" operator="in" result="effect1_backgroundBlur_1948_12098"/>
<feBlend mode="normal" in="SourceGraphic" in2="effect1_backgroundBlur_1948_12098" result="shape"/>
</filter>
<linearGradient id="paint0_linear_1948_12098" x1="239.313" y1="47" x2="264.92" y2="75.8377" gradientUnits="userSpaceOnUse">
<stop stop-color="white"/>
<stop offset="1" stop-color="#6F5ADC"/>
</linearGradient>
<linearGradient id="paint1_linear_1948_12098" x1="22.9878" y1="129" x2="51.4128" y2="190.3" gradientUnits="userSpaceOnUse">
<stop stop-color="white"/>
<stop offset="1" stop-color="#6F5ADC"/>
</linearGradient>
<linearGradient id="paint2_linear_1948_12098" x1="20.1649" y1="136.204" x2="37.3834" y2="146.819" gradientUnits="userSpaceOnUse">
<stop stop-color="white"/>
<stop offset="1" stop-color="#6F5ADC"/>
</linearGradient>
<linearGradient id="paint3_linear_1948_12098" x1="22.9876" y1="149.719" x2="25.8064" y2="155.798" gradientUnits="userSpaceOnUse">
<stop stop-color="white"/>
<stop offset="1" stop-color="#6F5ADC"/>
</linearGradient>
</defs>
</svg>
