<svg width="336" height="198" viewBox="0 0 336 198" fill="none" xmlns="http://www.w3.org/2000/svg">
<g filter="url(#filter0_b_1948_12095)">
<rect y="124" width="51" height="302" rx="5" transform="rotate(-90 0 124)" fill="white" fill-opacity="0.03"/>
<rect x="0.5" y="123.5" width="50" height="301" rx="4.5" transform="rotate(-90 0.5 123.5)" stroke="#E5E5E5" stroke-opacity="0.19"/>
</g>
<g filter="url(#filter1_b_1948_12095)">
<rect x="22" y="198" width="51" height="302" rx="5" transform="rotate(-90 22 198)" fill="white" fill-opacity="0.03"/>
<rect x="22.5" y="197.5" width="50" height="301" rx="4.5" transform="rotate(-90 22.5 197.5)" stroke="#E5E5E5" stroke-opacity="0.19"/>
</g>
<circle cx="30.5" cy="98.5" r="17.5" fill="#474C4F" fill-opacity="0.52"/>
<circle cx="52.5" cy="172.5" r="17.5" fill="#474C4F" fill-opacity="0.52"/>
<path d="M22.4375 96.2148H24.9102V103H26.3477V96.2148H28.8203V95H22.4375V96.2148ZM30.0508 103H31.5V100.07H32.9766L34.5469 103H36.1641L34.4336 99.8281C35.375 99.4492 35.8711 98.6445 35.8711 97.5586C35.8711 96.0312 34.8867 95 33.0508 95H30.0508V103ZM31.5 98.8672V96.2109H32.8281C33.9102 96.2109 34.3945 96.707 34.3945 97.5586C34.3945 98.4102 33.9102 98.8672 32.8359 98.8672H31.5Z" fill="#6F5ADC"/>
<path d="M46.4727 177H47.9023L49.5078 171.387H49.5703L51.1719 177H52.6016L54.8594 169H53.3008L51.8594 174.883H51.7891L50.2461 169H48.8281L47.2891 174.879H47.2148L45.7734 169H44.2148L46.4727 177ZM55.8643 177H61.0986V175.785H57.3135V173.602H60.7979V172.387H57.3135V170.215H61.0674V169H55.8643V177Z" fill="#6F5ADC"/>
<path d="M163 98.5C163 96.0331 159.135 94 154.329 94H67.671C62.9176 94 59 96.006 59 98.5C59 100.967 62.8654 103 67.671 103H154.329C159.082 103 163 100.967 163 98.5Z" fill="#C4C4C4" fill-opacity="0.1"/>
<path d="M185 172.5C185 170.033 181.135 168 176.329 168H89.671C84.9176 168 81 170.006 81 172.5C81 174.967 84.8654 177 89.671 177H176.329C181.082 177 185 174.967 185 172.5Z" fill="#C4C4C4" fill-opacity="0.1"/>
<g filter="url(#filter2_b_1948_12095)">
<path fill-rule="evenodd" clip-rule="evenodd" d="M114.569 24.0771C114.569 37.443 125.507 48.1542 139.155 48.1542C152.798 48.1542 163.741 37.443 163.741 24.0771C163.741 10.7112 152.798 0 139.155 0C125.507 0 114.569 10.7112 114.569 24.0771ZM176.312 75.4153C176.312 63.0425 159.195 59.9469 139.156 59.9469C119.007 59.9469 102 63.1491 102 75.5316C102 87.9044 119.116 91 139.156 91C159.304 91 176.312 87.7978 176.312 75.4153Z" fill="url(#paint0_linear_1948_12095)"/>
</g>
<path opacity="0.4" d="M306.34 62.9998H297.67C294.28 62.9998 292 65.3798 292 68.9198V77.0898C292 80.6198 294.28 82.9998 297.67 82.9998H306.34C309.73 82.9998 312 80.6198 312 77.0898V68.9198C312 65.3798 309.73 62.9998 306.34 62.9998Z" fill="url(#paint1_linear_1948_12095)"/>
<path d="M300.813 76.248C300.589 76.248 300.365 76.163 300.194 75.992L297.821 73.619C297.479 73.277 297.479 72.723 297.821 72.382C298.163 72.04 298.716 72.039 299.058 72.381L300.813 74.136L304.941 70.008C305.283 69.666 305.836 69.666 306.178 70.008C306.52 70.35 306.52 70.904 306.178 71.246L301.432 75.992C301.261 76.163 301.037 76.248 300.813 76.248Z" fill="url(#paint2_linear_1948_12095)"/>
<path opacity="0.4" d="M328.34 144H319.67C316.28 144 314 146.38 314 149.92V158.09C314 161.62 316.28 164 319.67 164H328.34C331.73 164 334 161.62 334 158.09V149.92C334 146.38 331.73 144 328.34 144Z" fill="url(#paint3_linear_1948_12095)"/>
<path d="M322.813 157.248C322.589 157.248 322.365 157.163 322.194 156.992L319.821 154.619C319.479 154.277 319.479 153.723 319.821 153.382C320.163 153.04 320.716 153.039 321.058 153.381L322.813 155.136L326.941 151.008C327.283 150.666 327.836 150.666 328.178 151.008C328.52 151.35 328.52 151.904 328.178 152.246L323.432 156.992C323.261 157.163 323.037 157.248 322.813 157.248Z" fill="url(#paint4_linear_1948_12095)"/>
<defs>
<filter id="filter0_b_1948_12095" x="-56" y="17" width="414" height="163" filterUnits="userSpaceOnUse" color-interpolation-filters="sRGB">
<feFlood flood-opacity="0" result="BackgroundImageFix"/>
<feGaussianBlur in="BackgroundImage" stdDeviation="28"/>
<feComposite in2="SourceAlpha" operator="in" result="effect1_backgroundBlur_1948_12095"/>
<feBlend mode="normal" in="SourceGraphic" in2="effect1_backgroundBlur_1948_12095" result="shape"/>
</filter>
<filter id="filter1_b_1948_12095" x="-34" y="91" width="414" height="163" filterUnits="userSpaceOnUse" color-interpolation-filters="sRGB">
<feFlood flood-opacity="0" result="BackgroundImageFix"/>
<feGaussianBlur in="BackgroundImage" stdDeviation="28"/>
<feComposite in2="SourceAlpha" operator="in" result="effect1_backgroundBlur_1948_12095"/>
<feBlend mode="normal" in="SourceGraphic" in2="effect1_backgroundBlur_1948_12095" result="shape"/>
</filter>
<filter id="filter2_b_1948_12095" x="89" y="-13" width="100.312" height="117" filterUnits="userSpaceOnUse" color-interpolation-filters="sRGB">
<feFlood flood-opacity="0" result="BackgroundImageFix"/>
<feGaussianBlur in="BackgroundImage" stdDeviation="6.5"/>
<feComposite in2="SourceAlpha" operator="in" result="effect1_backgroundBlur_1948_12095"/>
<feBlend mode="normal" in="SourceGraphic" in2="effect1_backgroundBlur_1948_12095" result="shape"/>
</filter>
<linearGradient id="paint0_linear_1948_12095" x1="139.156" y1="0" x2="75.9061" y2="111.446" gradientUnits="userSpaceOnUse">
<stop stop-color="white"/>
<stop offset="1" stop-color="#6F5ADC"/>
</linearGradient>
<linearGradient id="paint1_linear_1948_12095" x1="302" y1="62.9998" x2="302" y2="82.9998" gradientUnits="userSpaceOnUse">
<stop stop-color="#502EFF"/>
<stop offset="1" stop-color="#6F5ADC"/>
</linearGradient>
<linearGradient id="paint2_linear_1948_12095" x1="302" y1="69.7515" x2="302" y2="76.248" gradientUnits="userSpaceOnUse">
<stop stop-color="#502EFF"/>
<stop offset="1" stop-color="#6F5ADC"/>
</linearGradient>
<linearGradient id="paint3_linear_1948_12095" x1="324" y1="144" x2="324" y2="164" gradientUnits="userSpaceOnUse">
<stop stop-color="#502EFF"/>
<stop offset="1" stop-color="#6F5ADC"/>
</linearGradient>
<linearGradient id="paint4_linear_1948_12095" x1="324" y1="150.751" x2="324" y2="157.248" gradientUnits="userSpaceOnUse">
<stop stop-color="#502EFF"/>
<stop offset="1" stop-color="#6F5ADC"/>
</linearGradient>
</defs>
</svg>
