<svg width="293" height="183" viewBox="0 0 293 183" fill="none" xmlns="http://www.w3.org/2000/svg">
<g filter="url(#filter0_b_1925_13792)">
<rect x="21" y="183" width="176" height="246" rx="5" transform="rotate(-90 21 183)" fill="white" fill-opacity="0.03"/>
</g>
<path d="M258 42C258 40.9036 249.526 40 238.99 40H49.0095C38.5886 40 30 40.8916 30 42C30 43.0964 38.4741 44 49.0095 44H238.99C249.411 44 258 43.0964 258 42Z" fill="#C4C4C4" fill-opacity="0.1"/>
<circle cx="224.5" cy="22.5" r="2.5" fill="#C4C4C4"/>
<circle cx="234.5" cy="22.5" r="2.5" fill="#C4C4C4"/>
<circle cx="244.5" cy="22.5" r="2.5" fill="#C4C4C4"/>
<path fill-rule="evenodd" clip-rule="evenodd" d="M279.928 84.4524C279.928 81.9033 281.998 79.8333 284.547 79.8333C287.096 79.8333 289.166 81.9033 289.166 84.4524C289.166 87.0016 287.096 89.0716 284.547 89.0716C281.998 89.0716 279.928 87.0016 279.928 84.4524ZM272.548 104.289L278.088 97.1413L278.011 97.1797C278.318 96.758 278.375 96.2213 278.164 95.7422C277.955 95.263 277.493 94.9372 276.997 94.8988C276.478 94.8413 275.962 95.0713 275.653 95.493L271.017 101.492L265.706 97.3138C265.38 97.0647 264.997 96.9669 264.613 97.0072C264.232 97.0647 263.887 97.2736 263.655 97.5802L257.984 104.961L257.867 105.134C257.541 105.745 257.694 106.531 258.269 106.955C258.538 107.127 258.825 107.242 259.151 107.242C259.594 107.261 260.013 107.029 260.282 106.667L265.093 100.474L270.555 104.578L270.728 104.691C271.341 105.017 272.108 104.865 272.548 104.289ZM276.612 83.2455C276.535 83.7247 276.497 84.2038 276.497 84.683C276.497 88.9955 279.985 92.4819 284.278 92.4819C284.758 92.4819 285.218 92.4263 285.697 92.3497V107.815C285.697 114.315 281.863 118.167 275.347 118.167H261.184C254.666 118.167 250.833 114.315 250.833 107.815V93.6338C250.833 87.1172 254.666 83.2455 261.184 83.2455H276.612Z" fill="url(#paint0_linear_1925_13792)"/>
<g filter="url(#filter1_b_1925_13792)">
<rect x="43" y="62" width="61" height="56" rx="14" fill="white" fill-opacity="0.03"/>
</g>
<g filter="url(#filter2_b_1925_13792)">
<rect x="113" y="62" width="61" height="56" rx="14" fill="white" fill-opacity="0.03"/>
</g>
<g filter="url(#filter3_b_1925_13792)">
<rect x="43" y="127" width="199" height="31" rx="14" fill="white" fill-opacity="0.03"/>
</g>
<g filter="url(#filter4_b_1925_13792)">
<rect x="184" y="62" width="61" height="56" rx="14" fill="white" fill-opacity="0.03"/>
</g>
<g filter="url(#filter5_b_1925_13792)">
<path fill-rule="evenodd" clip-rule="evenodd" d="M12.5691 24.0771C12.5691 37.443 23.5066 48.1542 37.1549 48.1542C50.7982 48.1542 61.7406 37.443 61.7406 24.0771C61.7406 10.7112 50.7982 0 37.1549 0C23.5066 0 12.5691 10.7112 12.5691 24.0771ZM74.3115 75.4153C74.3115 63.0425 57.1955 59.9469 37.1559 59.9469C17.0074 59.9469 0.000205994 63.1491 0.000205994 75.5316C0.000205994 87.9044 17.1162 91 37.1559 91C57.3043 91 74.3115 87.7978 74.3115 75.4153Z" fill="url(#paint1_linear_1925_13792)"/>
</g>
<defs>
<filter id="filter0_b_1925_13792" x="-35" y="-49" width="358" height="288" filterUnits="userSpaceOnUse" color-interpolation-filters="sRGB">
<feFlood flood-opacity="0" result="BackgroundImageFix"/>
<feGaussianBlur in="BackgroundImage" stdDeviation="28"/>
<feComposite in2="SourceAlpha" operator="in" result="effect1_backgroundBlur_1925_13792"/>
<feBlend mode="normal" in="SourceGraphic" in2="effect1_backgroundBlur_1925_13792" result="shape"/>
</filter>
<filter id="filter1_b_1925_13792" x="-13" y="6" width="173" height="168" filterUnits="userSpaceOnUse" color-interpolation-filters="sRGB">
<feFlood flood-opacity="0" result="BackgroundImageFix"/>
<feGaussianBlur in="BackgroundImage" stdDeviation="28"/>
<feComposite in2="SourceAlpha" operator="in" result="effect1_backgroundBlur_1925_13792"/>
<feBlend mode="normal" in="SourceGraphic" in2="effect1_backgroundBlur_1925_13792" result="shape"/>
</filter>
<filter id="filter2_b_1925_13792" x="57" y="6" width="173" height="168" filterUnits="userSpaceOnUse" color-interpolation-filters="sRGB">
<feFlood flood-opacity="0" result="BackgroundImageFix"/>
<feGaussianBlur in="BackgroundImage" stdDeviation="28"/>
<feComposite in2="SourceAlpha" operator="in" result="effect1_backgroundBlur_1925_13792"/>
<feBlend mode="normal" in="SourceGraphic" in2="effect1_backgroundBlur_1925_13792" result="shape"/>
</filter>
<filter id="filter3_b_1925_13792" x="-13" y="71" width="311" height="143" filterUnits="userSpaceOnUse" color-interpolation-filters="sRGB">
<feFlood flood-opacity="0" result="BackgroundImageFix"/>
<feGaussianBlur in="BackgroundImage" stdDeviation="28"/>
<feComposite in2="SourceAlpha" operator="in" result="effect1_backgroundBlur_1925_13792"/>
<feBlend mode="normal" in="SourceGraphic" in2="effect1_backgroundBlur_1925_13792" result="shape"/>
</filter>
<filter id="filter4_b_1925_13792" x="128" y="6" width="173" height="168" filterUnits="userSpaceOnUse" color-interpolation-filters="sRGB">
<feFlood flood-opacity="0" result="BackgroundImageFix"/>
<feGaussianBlur in="BackgroundImage" stdDeviation="28"/>
<feComposite in2="SourceAlpha" operator="in" result="effect1_backgroundBlur_1925_13792"/>
<feBlend mode="normal" in="SourceGraphic" in2="effect1_backgroundBlur_1925_13792" result="shape"/>
</filter>
<filter id="filter5_b_1925_13792" x="-13" y="-13" width="100.312" height="117" filterUnits="userSpaceOnUse" color-interpolation-filters="sRGB">
<feFlood flood-opacity="0" result="BackgroundImageFix"/>
<feGaussianBlur in="BackgroundImage" stdDeviation="6.5"/>
<feComposite in2="SourceAlpha" operator="in" result="effect1_backgroundBlur_1925_13792"/>
<feBlend mode="normal" in="SourceGraphic" in2="effect1_backgroundBlur_1925_13792" result="shape"/>
</filter>
<linearGradient id="paint0_linear_1925_13792" x1="269.999" y1="79.8333" x2="269.999" y2="118.167" gradientUnits="userSpaceOnUse">
<stop stop-color="#502EFF"/>
<stop offset="1" stop-color="#6F5ADC"/>
</linearGradient>
<linearGradient id="paint1_linear_1925_13792" x1="37.1559" y1="0" x2="-26.0939" y2="111.446" gradientUnits="userSpaceOnUse">
<stop stop-color="white"/>
<stop offset="1" stop-color="#6F5ADC"/>
</linearGradient>
</defs>
</svg>
