<svg width="428" height="239" viewBox="0 0 428 239" fill="none" xmlns="http://www.w3.org/2000/svg">
<g filter="url(#filter0_b_1948_12097)">
<rect x="104" y="86" width="51" height="302" rx="5" transform="rotate(-90 104 86)" fill="white" fill-opacity="0.03"/>
<rect x="104.5" y="85.5" width="50" height="301" rx="4.5" transform="rotate(-90 104.5 85.5)" stroke="#E5E5E5" stroke-opacity="0.19"/>
</g>
<g filter="url(#filter1_b_1948_12097)">
<rect x="12" y="239" width="51" height="302" rx="5" transform="rotate(-90 12 239)" fill="white" fill-opacity="0.03"/>
<rect x="12.5" y="238.5" width="50" height="301" rx="4.5" transform="rotate(-90 12.5 238.5)" stroke="#E5E5E5" stroke-opacity="0.19"/>
</g>
<g filter="url(#filter2_b_1948_12097)">
<rect x="57" y="166" width="51" height="302" rx="5" transform="rotate(-90 57 166)" fill="white" fill-opacity="0.03"/>
<rect x="57.5" y="165.5" width="50" height="301" rx="4.5" transform="rotate(-90 57.5 165.5)" stroke="#E5E5E5" stroke-opacity="0.19"/>
</g>
<circle cx="134.5" cy="60.5" r="17.5" fill="#474C4F" fill-opacity="0.52"/>
<circle cx="42.5" cy="213.5" r="17.5" fill="#474C4F" fill-opacity="0.52"/>
<circle cx="87.5" cy="140.5" r="17.5" fill="#474C4F" fill-opacity="0.52"/>
<path d="M126.789 65H128.238V62.0703H129.715L131.285 65H132.902L131.172 61.8281C132.113 61.4492 132.609 60.6445 132.609 59.5586C132.609 58.0312 131.625 57 129.789 57H126.789V65ZM128.238 60.8672V58.2109H129.566C130.648 58.2109 131.133 58.707 131.133 59.5586C131.133 60.4102 130.648 60.8672 129.574 60.8672H128.238ZM133.943 65H135.393V62.0703H136.869L138.439 65H140.057L138.326 61.8281C139.268 61.4492 139.764 60.6445 139.764 59.5586C139.764 58.0312 138.779 57 136.943 57H133.943V65ZM135.393 60.8672V58.2109H136.721C137.803 58.2109 138.287 58.707 138.287 59.5586C138.287 60.4102 137.803 60.8672 136.729 60.8672H135.393Z" fill="#6F5ADC"/>
<path d="M34.7891 218H36.2383V215.07H37.7148L39.2852 218H40.9023L39.1719 214.828C40.1133 214.449 40.6094 213.645 40.6094 212.559C40.6094 211.031 39.625 210 37.7891 210H34.7891V218ZM36.2383 213.867V211.211H37.5664C38.6484 211.211 39.1328 211.707 39.1328 212.559C39.1328 213.41 38.6484 213.867 37.5742 213.867H36.2383ZM41.9434 218H43.3926V215.07H44.8691L46.4395 218H48.0566L46.3262 214.828C47.2676 214.449 47.7637 213.645 47.7637 212.559C47.7637 211.031 46.7793 210 44.9434 210H41.9434V218ZM43.3926 213.867V211.211H44.7207C45.8027 211.211 46.2871 211.707 46.2871 212.559C46.2871 213.41 45.8027 213.867 44.7285 213.867H43.3926Z" fill="#6F5ADC"/>
<path d="M79.7891 145H81.2383V142.07H82.7148L84.2852 145H85.9023L84.1719 141.828C85.1133 141.449 85.6094 140.645 85.6094 139.559C85.6094 138.031 84.625 137 82.7891 137H79.7891V145ZM81.2383 140.867V138.211H82.5664C83.6484 138.211 84.1328 138.707 84.1328 139.559C84.1328 140.41 83.6484 140.867 82.5742 140.867H81.2383ZM86.9434 145H88.3926V142.07H89.8691L91.4395 145H93.0566L91.3262 141.828C92.2676 141.449 92.7637 140.645 92.7637 139.559C92.7637 138.031 91.7793 137 89.9434 137H86.9434V145ZM88.3926 140.867V138.211H89.7207C90.8027 138.211 91.2871 138.707 91.2871 139.559C91.2871 140.41 90.8027 140.867 89.7285 140.867H88.3926Z" fill="#6F5ADC"/>
<path d="M267 60.5C267 58.0331 263.135 56 258.329 56H171.671C166.918 56 163 58.006 163 60.5C163 62.9669 166.865 65 171.671 65H258.329C263.082 65 267 62.9669 267 60.5Z" fill="#C4C4C4" fill-opacity="0.1"/>
<path d="M175 213.5C175 211.033 171.135 209 166.329 209H79.671C74.9176 209 71 211.006 71 213.5C71 215.967 74.8654 218 79.671 218H166.329C171.082 218 175 215.967 175 213.5Z" fill="#C4C4C4" fill-opacity="0.1"/>
<path d="M220 140.5C220 138.033 216.135 136 211.329 136H124.671C119.918 136 116 138.006 116 140.5C116 142.967 119.865 145 124.671 145H211.329C216.082 145 220 142.967 220 140.5Z" fill="#C4C4C4" fill-opacity="0.1"/>
<g filter="url(#filter3_b_1948_12097)">
<rect y="43" width="151.885" height="109" rx="14" fill="white" fill-opacity="0.03"/>
<rect x="0.5" y="43.5" width="150.885" height="108" rx="13.5" stroke="#E5E5E5" stroke-opacity="0.19"/>
</g>
<path d="M138.782 64.1449C138.782 62.6756 134.111 61.4646 128.303 61.4646H23.5824C17.8382 61.4646 13.104 62.6594 13.104 64.1449C13.104 65.6143 17.7751 66.8253 23.5824 66.8253H128.303C134.047 66.8253 138.782 65.6143 138.782 64.1449Z" fill="#C4C4C4" fill-opacity="0.1"/>
<line x1="21.3472" y1="80.5247" x2="21.3472" y2="138.301" stroke="white" stroke-opacity="0.11"/>
<line x1="44.5767" y1="80.5247" x2="44.5767" y2="138.301" stroke="white" stroke-opacity="0.11"/>
<line x1="67.8062" y1="80.5247" x2="67.8062" y2="138.301" stroke="white" stroke-opacity="0.11"/>
<line x1="91.0356" y1="80.5247" x2="91.0356" y2="138.301" stroke="white" stroke-opacity="0.11"/>
<line x1="114.265" y1="80.5247" x2="114.265" y2="138.301" stroke="white" stroke-opacity="0.11"/>
<line x1="137.495" y1="80.5247" x2="137.495" y2="138.301" stroke="white" stroke-opacity="0.11"/>
<line x1="14.2949" y1="94.3196" x2="145.929" y2="94.3196" stroke="white" stroke-opacity="0.15"/>
<line x1="14.2949" y1="109.21" x2="145.929" y2="109.21" stroke="white" stroke-opacity="0.15"/>
<line x1="14.2949" y1="124.697" x2="145.929" y2="124.697" stroke="white" stroke-opacity="0.15"/>
<path d="M51.9244 103.482L51.2404 104.166C50.9354 104.456 50.9184 104.937 51.2024 105.248L51.2244 105.264C51.5164 105.556 51.9864 105.564 52.2874 105.282L52.9684 104.601C53.2774 104.313 53.2944 103.829 53.0064 103.519C52.7174 103.211 52.2334 103.193 51.9244 103.482Z" fill="url(#paint0_linear_1948_12097)"/>
<path d="M56.182 105.152C56.483 105.439 56.958 105.433 57.252 105.14C57.257 105.134 57.263 105.13 57.267 105.124C57.561 104.815 57.549 104.326 57.239 104.033L55.401 102.194L57.091 100.505C57.336 100.259 57.386 99.8812 57.213 99.5802C57.178 99.5122 57.132 99.4512 57.078 99.3972C56.776 99.1022 56.295 99.0992 55.99 99.3902L54.293 101.088L52.428 99.2222C52.425 99.2192 52.423 99.2172 52.42 99.2152C52.121 98.9232 51.643 98.9292 51.351 99.2282C51.066 99.5442 51.072 100.026 51.364 100.336L56.144 105.115L56.182 105.152Z" fill="url(#paint1_linear_1948_12097)"/>
<path d="M97.9244 118.482L97.2404 119.166C96.9354 119.456 96.9184 119.937 97.2024 120.248L97.2244 120.264C97.5164 120.556 97.9864 120.564 98.2874 120.282L98.9684 119.601C99.2774 119.313 99.2944 118.829 99.0064 118.519C98.7174 118.211 98.2334 118.193 97.9244 118.482Z" fill="url(#paint2_linear_1948_12097)"/>
<path d="M102.182 120.152C102.483 120.439 102.958 120.433 103.252 120.14C103.257 120.134 103.263 120.13 103.267 120.124C103.561 119.815 103.549 119.326 103.239 119.033L101.401 117.194L103.091 115.505C103.336 115.259 103.386 114.881 103.213 114.58C103.178 114.512 103.132 114.451 103.078 114.397C102.776 114.102 102.295 114.099 101.99 114.39L100.293 116.088L98.428 114.222C98.425 114.219 98.423 114.217 98.42 114.215C98.121 113.923 97.643 113.929 97.351 114.228C97.066 114.544 97.072 115.026 97.364 115.336L102.144 120.115L102.182 120.152Z" fill="url(#paint3_linear_1948_12097)"/>
<g filter="url(#filter4_b_1948_12097)">
<rect x="367" width="61" height="56" rx="14" fill="white" fill-opacity="0.03"/>
<rect x="367.5" y="0.5" width="60" height="55" rx="13.5" stroke="#E5E5E5" stroke-opacity="0.19"/>
</g>
<path d="M402.992 30.0947L399.821 26.286V26.2863C399.555 25.9663 399.165 25.7821 398.755 25.7821H396.804C396.133 25.7989 395.476 25.5822 394.941 25.167C394.406 24.7519 394.024 24.163 393.857 23.4965C393.712 22.8033 393.829 22.0795 394.186 21.4717H393.796L386.788 28.6553L387.967 32.5103V32.5105C388.114 32.8117 388.312 33.084 388.55 33.3151L392.517 37.1528H392.516C392.932 37.5793 393.469 37.8607 394.05 37.9574C394.63 38.0538 395.226 37.9607 395.752 37.6909L402.056 34.4597H402.056C402.813 34.0715 403.359 33.3535 403.54 32.5059C403.722 31.6582 403.52 30.7719 402.992 30.0943L402.992 30.0947ZM402.205 21.4714H396.599C396.098 21.4714 395.635 21.7452 395.385 22.1897C395.135 22.6342 395.135 23.1821 395.385 23.6266C395.635 24.0711 396.098 24.3449 396.599 24.3449H398.755H398.755C399.576 24.3449 400.355 24.7136 400.888 25.3534L404.086 29.1967C404.879 30.2132 405.182 31.5429 404.909 32.8141C404.637 34.0855 403.819 35.1627 402.683 35.745L399.567 37.3422L400.248 37.6912C400.637 37.8906 401.066 37.9946 401.501 37.9946C402.267 38.0415 403.021 37.7841 403.606 37.2761L407.059 34.9167C407.548 34.5823 407.922 34.0989 408.128 33.5348L409.213 28.6554L402.205 21.4714ZM390.996 21.4671L385.382 27.2229C385.011 27.6027 384.509 27.8163 383.985 27.8163C383.46 27.8163 382.958 27.6027 382.587 27.2229L382.579 27.2142C382.208 26.8344 382 26.319 382 25.7818C382 25.2445 382.208 24.7292 382.579 24.3492L388.193 18.5934C388.564 18.2136 389.067 18 389.591 18C390.115 18 390.617 18.2136 390.988 18.5934L390.996 18.6021C391.367 18.9819 391.575 19.4973 391.575 20.0345C391.575 20.5718 391.367 21.0871 390.996 21.4671ZM405.003 18.6021L405.012 18.5935H405.012C405.383 18.2137 405.885 18.0001 406.409 18.0001C406.933 18.0001 407.436 18.2137 407.807 18.5935L413.421 24.3492H413.421C413.792 24.7293 414 25.2445 414 25.7819C414 26.319 413.792 26.8345 413.421 27.2143L413.413 27.223C413.042 27.6028 412.54 27.8163 412.015 27.8163C411.491 27.8163 410.989 27.6028 410.618 27.223L405.004 21.4672C404.633 21.0871 404.425 20.5719 404.425 20.0345C404.425 19.4974 404.633 18.9819 405.004 18.6021H405.003Z" fill="#6F5ADC"/>
<defs>
<filter id="filter0_b_1948_12097" x="48" y="-21" width="414" height="163" filterUnits="userSpaceOnUse" color-interpolation-filters="sRGB">
<feFlood flood-opacity="0" result="BackgroundImageFix"/>
<feGaussianBlur in="BackgroundImage" stdDeviation="28"/>
<feComposite in2="SourceAlpha" operator="in" result="effect1_backgroundBlur_1948_12097"/>
<feBlend mode="normal" in="SourceGraphic" in2="effect1_backgroundBlur_1948_12097" result="shape"/>
</filter>
<filter id="filter1_b_1948_12097" x="-44" y="132" width="414" height="163" filterUnits="userSpaceOnUse" color-interpolation-filters="sRGB">
<feFlood flood-opacity="0" result="BackgroundImageFix"/>
<feGaussianBlur in="BackgroundImage" stdDeviation="28"/>
<feComposite in2="SourceAlpha" operator="in" result="effect1_backgroundBlur_1948_12097"/>
<feBlend mode="normal" in="SourceGraphic" in2="effect1_backgroundBlur_1948_12097" result="shape"/>
</filter>
<filter id="filter2_b_1948_12097" x="1" y="59" width="414" height="163" filterUnits="userSpaceOnUse" color-interpolation-filters="sRGB">
<feFlood flood-opacity="0" result="BackgroundImageFix"/>
<feGaussianBlur in="BackgroundImage" stdDeviation="28"/>
<feComposite in2="SourceAlpha" operator="in" result="effect1_backgroundBlur_1948_12097"/>
<feBlend mode="normal" in="SourceGraphic" in2="effect1_backgroundBlur_1948_12097" result="shape"/>
</filter>
<filter id="filter3_b_1948_12097" x="-56" y="-13" width="263.885" height="221" filterUnits="userSpaceOnUse" color-interpolation-filters="sRGB">
<feFlood flood-opacity="0" result="BackgroundImageFix"/>
<feGaussianBlur in="BackgroundImage" stdDeviation="28"/>
<feComposite in2="SourceAlpha" operator="in" result="effect1_backgroundBlur_1948_12097"/>
<feBlend mode="normal" in="SourceGraphic" in2="effect1_backgroundBlur_1948_12097" result="shape"/>
</filter>
<filter id="filter4_b_1948_12097" x="311" y="-56" width="173" height="168" filterUnits="userSpaceOnUse" color-interpolation-filters="sRGB">
<feFlood flood-opacity="0" result="BackgroundImageFix"/>
<feGaussianBlur in="BackgroundImage" stdDeviation="28"/>
<feComposite in2="SourceAlpha" operator="in" result="effect1_backgroundBlur_1948_12097"/>
<feBlend mode="normal" in="SourceGraphic" in2="effect1_backgroundBlur_1948_12097" result="shape"/>
</filter>
<linearGradient id="paint0_linear_1948_12097" x1="52.1059" y1="103.276" x2="52.1059" y2="105.489" gradientUnits="userSpaceOnUse">
<stop stop-color="#502EFF"/>
<stop offset="1" stop-color="#6F5ADC"/>
</linearGradient>
<linearGradient id="paint1_linear_1948_12097" x1="54.3105" y1="99" x2="54.3105" y2="105.364" gradientUnits="userSpaceOnUse">
<stop stop-color="#502EFF"/>
<stop offset="1" stop-color="#6F5ADC"/>
</linearGradient>
<linearGradient id="paint2_linear_1948_12097" x1="98.1059" y1="118.276" x2="98.1059" y2="120.489" gradientUnits="userSpaceOnUse">
<stop stop-color="#502EFF"/>
<stop offset="1" stop-color="#6F5ADC"/>
</linearGradient>
<linearGradient id="paint3_linear_1948_12097" x1="100.31" y1="114" x2="100.31" y2="120.364" gradientUnits="userSpaceOnUse">
<stop stop-color="#502EFF"/>
<stop offset="1" stop-color="#6F5ADC"/>
</linearGradient>
</defs>
</svg>
