<svg width="371" height="240" viewBox="0 0 371 240" fill="none" xmlns="http://www.w3.org/2000/svg">
<g filter="url(#filter0_b_1948_12099)">
<rect y="144" width="126" height="158" rx="5" transform="rotate(-90 0 144)" fill="white" fill-opacity="0.03"/>
<rect x="0.5" y="143.5" width="125" height="157" rx="4.5" transform="rotate(-90 0.5 143.5)" stroke="#E5E5E5" stroke-opacity="0.19"/>
</g>
<g filter="url(#filter1_b_1948_12099)">
<rect x="131" y="240" width="123" height="158" rx="5" transform="rotate(-90 131 240)" fill="white" fill-opacity="0.03"/>
<rect x="131.5" y="239.5" width="122" height="157" rx="4.5" transform="rotate(-90 131.5 239.5)" stroke="#E5E5E5" stroke-opacity="0.19"/>
</g>
<path d="M85.268 54C86.0378 52.6667 87.9623 52.6667 88.7321 54L92.1962 60C92.966 61.3333 92.0037 63 90.4641 63H83.5359C81.9963 63 81.034 61.3333 81.8038 60L85.268 54Z" fill="#6F5ADC"/>
<path d="M216.268 147C217.038 145.667 218.962 145.667 219.732 147L223.196 153C223.966 154.333 223.004 156 221.464 156H214.536C212.996 156 212.034 154.333 212.804 153L216.268 147Z" fill="#6F5ADC"/>
<rect x="10" y="41" width="138" height="6" rx="3" fill="#C4C4C4" fill-opacity="0.07"/>
<rect x="141" y="134" width="138" height="6" rx="3" fill="#C4C4C4" fill-opacity="0.07"/>
<rect x="141" y="149" width="64" height="9" rx="4.5" fill="#C4C4C4" fill-opacity="0.07"/>
<rect x="10" y="54" width="64" height="9" rx="4.5" fill="#C4C4C4" fill-opacity="0.07"/>
<path d="M15 129L30.9112 109.527C32.6812 107.361 35.884 107.069 38.0173 108.878L45.1783 114.952C47.114 116.594 49.9726 116.525 51.8269 114.792L73.566 94.4715C75.5339 92.632 78.6053 92.6822 80.5121 94.585L84.1428 98.208C86.1895 100.25 89.5368 100.136 91.4395 97.959L115 71" stroke="white" stroke-opacity="0.03" stroke-width="4" stroke-linecap="round" stroke-linejoin="round"/>
<g filter="url(#filter2_b_1948_12099)">
<rect x="195" y="35" width="61" height="56" rx="14" fill="white" fill-opacity="0.03"/>
<rect x="195.5" y="35.5" width="60" height="55" rx="13.5" stroke="#E5E5E5" stroke-opacity="0.19"/>
</g>
<path opacity="0.1" d="M202.964 0.000795058H184.312C183.667 0.0190574 183.048 0.258737 182.563 0.678543C182.078 1.09835 181.756 1.67199 181.653 2.30064L179.032 20.6994C178.979 20.9853 178.992 21.2792 179.069 21.5596C179.146 21.84 179.286 22.0999 179.478 22.3202C179.67 22.5406 179.91 22.7159 180.179 22.8334C180.448 22.9508 180.741 23.0075 181.036 22.9992H199.688C200.333 22.981 200.952 22.7414 201.437 22.3216C201.923 21.9018 202.244 21.3281 202.347 20.6994L204.968 2.30064C205.021 2.01473 205.008 1.72085 204.931 1.44044C204.854 1.16002 204.714 0.900149 204.522 0.679776C204.33 0.459403 204.09 0.284087 203.821 0.166621C203.552 0.0491559 203.259 -0.00749666 202.964 0.000795058Z" fill="#AE9AFF"/>
<path opacity="0.1" d="M62.0249 203.001H34.7641C33.821 203.028 32.9169 203.383 32.2075 204.003C31.4981 204.624 31.0278 205.472 30.8777 206.401L27.0464 233.599C26.9696 234.022 26.9883 234.456 27.1012 234.871C27.2141 235.285 27.4183 235.669 27.699 235.995C27.9796 236.321 28.3296 236.58 28.7233 236.754C29.1171 236.927 29.5448 237.011 29.9751 236.999H57.2359C58.179 236.972 59.0831 236.617 59.7925 235.997C60.5019 235.376 60.9722 234.528 61.1223 233.599L64.9536 206.401C65.0304 205.978 65.0117 205.544 64.8988 205.129C64.7859 204.715 64.5817 204.331 64.301 204.005C64.0204 203.679 63.6704 203.42 63.2767 203.246C62.8829 203.073 62.4552 202.989 62.0249 203.001Z" fill="#CABDFF"/>
<path d="M182.988 104C195.684 104 205.976 93.7026 205.976 81C205.976 68.2975 195.684 58 182.988 58C170.292 58 160 68.2975 160 81C160 93.7026 170.292 104 182.988 104Z" fill="url(#paint0_linear_1948_12099)"/>
<path d="M182.988 99.613C193.262 99.613 201.591 91.2797 201.591 81C201.591 70.7203 193.262 62.387 182.988 62.387C172.714 62.387 164.385 70.7203 164.385 81C164.385 91.2797 172.714 99.613 182.988 99.613Z" fill="#252B2E" fill-opacity="0.7"/>
<path d="M177.342 89.0104C177.234 89.0103 177.129 88.9802 177.037 88.9234C176.946 88.8665 176.872 88.7853 176.824 88.6888C176.776 88.5922 176.757 88.4843 176.767 88.3771C176.777 88.2698 176.817 88.1676 176.882 88.0818L182.409 80.8051V65.7828C182.409 65.6294 182.47 65.4823 182.579 65.3738C182.687 65.2653 182.834 65.2043 182.988 65.2043C183.141 65.2043 183.288 65.2653 183.396 65.3738C183.505 65.4823 183.566 65.6294 183.566 65.7828V81.0001C183.566 81.1265 183.524 81.2495 183.448 81.3501L177.803 88.782C177.749 88.8531 177.679 88.9107 177.599 88.9503C177.519 88.99 177.431 89.0105 177.342 89.0104Z" fill="url(#paint1_linear_1948_12099)"/>
<path d="M182.988 83.2808C184.247 83.2808 185.267 82.2597 185.267 81C185.267 79.7404 184.247 78.7192 182.988 78.7192C181.729 78.7192 180.708 79.7404 180.708 81C180.708 82.2597 181.729 83.2808 182.988 83.2808Z" fill="url(#paint2_linear_1948_12099)"/>
<g filter="url(#filter3_b_1948_12099)">
<rect x="148" y="229" width="52" height="19" rx="5" transform="rotate(-90 148 229)" fill="white" fill-opacity="0.03"/>
</g>
<g filter="url(#filter4_b_1948_12099)">
<rect x="198" y="229" width="52" height="19" rx="5" transform="rotate(-90 198 229)" fill="white" fill-opacity="0.03"/>
</g>
<g filter="url(#filter5_b_1948_12099)">
<rect x="173" y="229" width="42" height="19" rx="5" transform="rotate(-90 173 229)" fill="white" fill-opacity="0.03"/>
</g>
<g filter="url(#filter6_b_1948_12099)">
<rect x="223" y="229" width="42" height="19" rx="5" transform="rotate(-90 223 229)" fill="white" fill-opacity="0.03"/>
</g>
<g filter="url(#filter7_b_1948_12099)">
<rect x="248" y="229" width="52" height="19" rx="5" transform="rotate(-90 248 229)" fill="white" fill-opacity="0.03"/>
</g>
<path d="M278.809 196.776V203.493C279.151 203.18 279.436 202.736 279.635 202.202C279.834 201.668 279.942 201.062 279.947 200.444V199.824C279.942 199.206 279.834 198.601 279.635 198.067C279.436 197.533 279.151 197.088 278.809 196.776Z" fill="#6F5ADC"/>
<path d="M271.98 187.51V188.131C271.991 188.749 272.206 189.354 272.605 189.888C273.004 190.422 273.573 190.867 274.257 191.179V184.463C273.573 184.775 273.004 185.219 272.605 185.753C272.206 186.287 271.991 186.893 271.98 187.51Z" fill="#6F5ADC"/>
<path opacity="0.7" d="M369.373 152.676C369.129 152.45 368.841 152.274 368.527 152.158C368.213 152.042 367.878 151.989 367.543 152.002L343.664 152.803C343.086 152.822 342.539 153.067 342.144 153.484C341.75 153.9 341.539 154.454 341.559 155.023C341.579 155.592 341.828 156.13 342.251 156.519C342.674 156.907 343.237 157.115 343.815 157.095L362.876 156.456L319.922 206.134L308.642 202.345C310.708 194.363 309.643 185.909 305.66 178.665C301.676 171.422 295.066 165.922 287.146 163.261C279.227 160.6 270.58 160.973 262.928 164.307C255.275 167.64 249.18 173.689 245.856 181.248L233.384 177.057C232.976 176.92 232.536 176.905 232.12 177.013C231.704 177.122 231.329 177.35 231.044 177.668L198.545 213.923C198.163 214.35 197.968 214.909 198.004 215.478C198.04 216.046 198.304 216.577 198.738 216.953C199.172 217.33 199.74 217.521 200.317 217.486C200.895 217.45 201.434 217.19 201.816 216.763L233.353 181.583L244.392 185.292C242.061 193.364 242.967 202.009 246.922 209.443C250.878 216.877 257.582 222.533 265.65 225.244C273.719 227.955 282.537 227.514 290.286 224.013C298.034 220.511 304.121 214.217 307.292 206.427L319.917 210.667C320.331 210.806 320.778 210.82 321.2 210.705C321.622 210.591 321.999 210.355 322.282 210.027L365.993 159.47L366.64 178.078C366.659 178.634 366.896 179.162 367.303 179.549C367.709 179.936 368.252 180.152 368.818 180.153C368.843 180.153 368.868 180.153 368.894 180.153C369.472 180.133 370.018 179.889 370.413 179.473C370.808 179.057 371.018 178.504 370.999 177.935L370.185 154.432C370.174 154.101 370.097 153.775 369.958 153.474C369.819 153.172 369.62 152.901 369.373 152.676ZM284.863 199.796C284.852 201.568 284.237 203.286 283.117 204.675C281.997 206.063 280.436 207.042 278.684 207.454V209.453C278.684 210.022 278.454 210.568 278.045 210.97C277.636 211.373 277.081 211.599 276.503 211.599C275.925 211.599 275.37 211.373 274.961 210.97C274.552 210.568 274.322 210.022 274.322 209.453V207.454C272.575 207.04 271.019 206.06 269.906 204.671C268.793 203.282 268.186 201.565 268.184 199.796C268.184 199.226 268.413 198.68 268.822 198.278C269.231 197.875 269.786 197.649 270.364 197.649C270.943 197.649 271.497 197.875 271.906 198.278C272.315 198.68 272.545 199.226 272.545 199.796C272.546 200.415 272.71 201.024 273.022 201.563C273.333 202.101 273.781 202.551 274.322 202.868V195.369C272.57 194.957 271.01 193.979 269.889 192.591C268.769 191.202 268.155 189.484 268.144 187.711V187.086C268.155 185.313 268.769 183.595 269.889 182.206C271.01 180.818 272.57 179.84 274.322 179.428V177.429C274.322 176.86 274.552 176.314 274.961 175.911C275.37 175.509 275.925 175.283 276.503 175.283C277.081 175.283 277.636 175.509 278.045 175.911C278.454 176.314 278.684 176.86 278.684 177.429V179.428C280.431 179.842 281.987 180.822 283.1 182.211C284.213 183.6 284.82 185.317 284.823 187.086C284.823 187.655 284.593 188.201 284.184 188.603C283.775 189.006 283.22 189.232 282.642 189.232C282.063 189.232 281.509 189.006 281.1 188.603C280.691 188.201 280.461 187.655 280.461 187.086C280.46 186.466 280.296 185.857 279.985 185.319C279.673 184.78 279.225 184.33 278.684 184.013V191.512C280.436 191.924 281.997 192.903 283.117 194.291C284.237 195.679 284.852 197.397 284.863 199.17V199.796Z" fill="#6F5ADC"/>
<defs>
<filter id="filter0_b_1948_12099" x="-56" y="-38" width="270" height="238" filterUnits="userSpaceOnUse" color-interpolation-filters="sRGB">
<feFlood flood-opacity="0" result="BackgroundImageFix"/>
<feGaussianBlur in="BackgroundImage" stdDeviation="28"/>
<feComposite in2="SourceAlpha" operator="in" result="effect1_backgroundBlur_1948_12099"/>
<feBlend mode="normal" in="SourceGraphic" in2="effect1_backgroundBlur_1948_12099" result="shape"/>
</filter>
<filter id="filter1_b_1948_12099" x="75" y="61" width="270" height="235" filterUnits="userSpaceOnUse" color-interpolation-filters="sRGB">
<feFlood flood-opacity="0" result="BackgroundImageFix"/>
<feGaussianBlur in="BackgroundImage" stdDeviation="28"/>
<feComposite in2="SourceAlpha" operator="in" result="effect1_backgroundBlur_1948_12099"/>
<feBlend mode="normal" in="SourceGraphic" in2="effect1_backgroundBlur_1948_12099" result="shape"/>
</filter>
<filter id="filter2_b_1948_12099" x="139" y="-21" width="173" height="168" filterUnits="userSpaceOnUse" color-interpolation-filters="sRGB">
<feFlood flood-opacity="0" result="BackgroundImageFix"/>
<feGaussianBlur in="BackgroundImage" stdDeviation="28"/>
<feComposite in2="SourceAlpha" operator="in" result="effect1_backgroundBlur_1948_12099"/>
<feBlend mode="normal" in="SourceGraphic" in2="effect1_backgroundBlur_1948_12099" result="shape"/>
</filter>
<filter id="filter3_b_1948_12099" x="92" y="121" width="131" height="164" filterUnits="userSpaceOnUse" color-interpolation-filters="sRGB">
<feFlood flood-opacity="0" result="BackgroundImageFix"/>
<feGaussianBlur in="BackgroundImage" stdDeviation="28"/>
<feComposite in2="SourceAlpha" operator="in" result="effect1_backgroundBlur_1948_12099"/>
<feBlend mode="normal" in="SourceGraphic" in2="effect1_backgroundBlur_1948_12099" result="shape"/>
</filter>
<filter id="filter4_b_1948_12099" x="142" y="121" width="131" height="164" filterUnits="userSpaceOnUse" color-interpolation-filters="sRGB">
<feFlood flood-opacity="0" result="BackgroundImageFix"/>
<feGaussianBlur in="BackgroundImage" stdDeviation="28"/>
<feComposite in2="SourceAlpha" operator="in" result="effect1_backgroundBlur_1948_12099"/>
<feBlend mode="normal" in="SourceGraphic" in2="effect1_backgroundBlur_1948_12099" result="shape"/>
</filter>
<filter id="filter5_b_1948_12099" x="117" y="131" width="131" height="154" filterUnits="userSpaceOnUse" color-interpolation-filters="sRGB">
<feFlood flood-opacity="0" result="BackgroundImageFix"/>
<feGaussianBlur in="BackgroundImage" stdDeviation="28"/>
<feComposite in2="SourceAlpha" operator="in" result="effect1_backgroundBlur_1948_12099"/>
<feBlend mode="normal" in="SourceGraphic" in2="effect1_backgroundBlur_1948_12099" result="shape"/>
</filter>
<filter id="filter6_b_1948_12099" x="167" y="131" width="131" height="154" filterUnits="userSpaceOnUse" color-interpolation-filters="sRGB">
<feFlood flood-opacity="0" result="BackgroundImageFix"/>
<feGaussianBlur in="BackgroundImage" stdDeviation="28"/>
<feComposite in2="SourceAlpha" operator="in" result="effect1_backgroundBlur_1948_12099"/>
<feBlend mode="normal" in="SourceGraphic" in2="effect1_backgroundBlur_1948_12099" result="shape"/>
</filter>
<filter id="filter7_b_1948_12099" x="192" y="121" width="131" height="164" filterUnits="userSpaceOnUse" color-interpolation-filters="sRGB">
<feFlood flood-opacity="0" result="BackgroundImageFix"/>
<feGaussianBlur in="BackgroundImage" stdDeviation="28"/>
<feComposite in2="SourceAlpha" operator="in" result="effect1_backgroundBlur_1948_12099"/>
<feBlend mode="normal" in="SourceGraphic" in2="effect1_backgroundBlur_1948_12099" result="shape"/>
</filter>
<linearGradient id="paint0_linear_1948_12099" x1="182.988" y1="58" x2="211.413" y2="119.3" gradientUnits="userSpaceOnUse">
<stop stop-color="white"/>
<stop offset="1" stop-color="#6F5ADC"/>
</linearGradient>
<linearGradient id="paint1_linear_1948_12099" x1="180.165" y1="65.2043" x2="197.383" y2="75.819" gradientUnits="userSpaceOnUse">
<stop stop-color="white"/>
<stop offset="1" stop-color="#6F5ADC"/>
</linearGradient>
<linearGradient id="paint2_linear_1948_12099" x1="182.988" y1="78.7192" x2="185.806" y2="84.7981" gradientUnits="userSpaceOnUse">
<stop stop-color="white"/>
<stop offset="1" stop-color="#6F5ADC"/>
</linearGradient>
</defs>
</svg>
