<svg width="354" height="232" viewBox="0 0 354 232" fill="none" xmlns="http://www.w3.org/2000/svg">
<path opacity="0.1" d="M279.964 0.000795058H261.312C260.667 0.0190574 260.048 0.258737 259.563 0.678543C259.078 1.09835 258.756 1.67199 258.653 2.30064L256.032 20.6994C255.979 20.9853 255.992 21.2792 256.069 21.5596C256.146 21.84 256.286 22.0999 256.478 22.3202C256.67 22.5406 256.91 22.7159 257.179 22.8334C257.448 22.9508 257.741 23.0075 258.036 22.9992H276.688C277.333 22.981 277.952 22.7414 278.437 22.3216C278.923 21.9018 279.244 21.3281 279.347 20.6994L281.968 2.30064C282.021 2.01473 282.008 1.72085 281.931 1.44044C281.854 1.16002 281.714 0.900149 281.522 0.679776C281.33 0.459403 281.09 0.284087 280.821 0.166621C280.552 0.0491559 280.259 -0.00749666 279.964 0.000795058Z" fill="#AE9AFF"/>
<g filter="url(#filter0_b_1959_12077)">
<path d="M132 161C129.239 161 127 158.761 127 156L127 28C127 25.2386 129.239 23 132 23H205.5H222C224.761 23 227 25.2386 227 28V47.5V156C227 158.761 224.761 161 222 161H132Z" fill="white" fill-opacity="0.03"/>
<path d="M132 160.5C129.515 160.5 127.5 158.485 127.5 156L127.5 28C127.5 25.5147 129.515 23.5 132 23.5H205.5H222C224.485 23.5 226.5 25.5147 226.5 28V47.5V156C226.5 158.485 224.485 160.5 222 160.5H132Z" stroke="#E5E5E5" stroke-opacity="0.19"/>
</g>
<rect x="147" y="58" width="65" height="6" rx="3" fill="#C4C4C4" fill-opacity="0.07"/>
<rect x="147" y="71" width="30" height="9" rx="4.5" fill="#C4C4C4" fill-opacity="0.07"/>
<path d="M147 138L153.023 130.158C154.624 128.074 157.661 127.797 159.612 129.558V129.558C161.389 131.161 164.108 131.095 165.805 129.408L173.685 121.572C175.054 120.211 177.277 120.247 178.601 121.653V121.653C180.019 123.158 182.437 123.076 183.749 121.478L194 109" stroke="white" stroke-opacity="0.03" stroke-width="4" stroke-linecap="round" stroke-linejoin="round"/>
<circle cx="226" cy="85" r="14" fill="#C4C4C4" fill-opacity="0.12"/>
<circle cx="37.9999" cy="147" r="14" transform="rotate(148.697 37.9999 147)" fill="#C4C4C4" fill-opacity="0.12"/>
<path d="M240 85C240 87.3023 239.432 89.5691 238.347 91.5996C237.262 93.63 235.692 95.3615 233.778 96.6406C231.864 97.9197 229.663 98.7069 227.372 98.9326C225.081 99.1583 222.769 98.8154 220.642 97.9343C218.515 97.0533 216.638 95.6612 215.178 93.8815C213.717 92.1018 212.718 89.9893 212.269 87.7313C211.82 85.4732 211.935 83.1392 212.603 80.936C213.271 78.7328 214.473 76.7285 216.101 75.1005L226 85H240Z" fill="#6F5ADC"/>
<path d="M26.0379 154.274C24.8417 152.307 24.1491 150.075 24.0214 147.776C23.8938 145.477 24.335 143.183 25.3061 141.095C26.2771 139.008 27.748 137.192 29.5885 135.809C31.4289 134.425 33.5821 133.517 35.8573 133.165C38.1325 132.813 40.4595 133.027 42.6321 133.789C44.8047 134.55 46.756 135.836 48.313 137.532C49.87 139.228 50.9847 141.282 51.5583 143.512C52.132 145.741 52.1469 148.078 51.6018 150.315L37.9999 147L26.0379 154.274Z" fill="url(#paint0_linear_1959_12077)"/>
<path opacity="0.1" d="M321.894 163.002H267.494C265.612 163.056 263.808 163.765 262.392 165.006C260.976 166.248 260.038 167.944 259.739 169.802L252.093 224.202C251.939 225.048 251.977 225.917 252.202 226.746C252.427 227.575 252.835 228.343 253.394 228.995C253.954 229.646 254.653 230.165 255.439 230.512C256.224 230.859 257.078 231.027 257.937 231.002H312.337C314.219 230.949 316.023 230.24 317.439 228.999C318.855 227.757 319.793 226.061 320.093 224.202L327.738 169.802C327.891 168.957 327.854 168.088 327.629 167.259C327.403 166.43 326.996 165.661 326.436 165.01C325.876 164.358 325.178 163.84 324.392 163.493C323.606 163.145 322.753 162.978 321.894 163.002Z" fill="#AE9AFF"/>
<path opacity="0.1" d="M69.8937 34.0024H15.4937C13.6118 34.0563 11.8076 34.765 10.392 36.0063C8.97647 37.2475 8.03814 38.9436 7.73871 40.8024L0.0927075 95.2023C-0.0606577 96.0477 -0.0233742 96.9166 0.201836 97.7457C0.427047 98.5748 0.834502 99.3432 1.39448 99.9948C1.95446 100.646 2.65283 101.165 3.43865 101.512C4.22447 101.859 5.07791 102.027 5.93671 102.002H60.3367C62.2188 101.949 64.0232 101.24 65.439 99.9987C66.8548 98.7575 67.7932 97.0612 68.0927 95.2023L75.7377 40.8024C75.8911 39.957 75.8538 39.0881 75.6286 38.259C75.4034 37.4299 74.9959 36.6615 74.4359 36.0099C73.876 35.3583 73.1776 34.84 72.3918 34.4927C71.6059 34.1453 70.7525 33.9778 69.8937 34.0024Z" fill="#AE9AFF"/>
<path opacity="0.1" d="M347.116 141.003H286.316C284.213 141.063 282.197 141.855 280.614 143.242C279.032 144.63 277.983 146.525 277.648 148.603L269.103 209.403C268.932 210.347 268.974 211.319 269.226 212.245C269.478 213.172 269.933 214.03 270.559 214.759C271.185 215.487 271.965 216.066 272.844 216.454C273.722 216.843 274.676 217.03 275.635 217.003H336.435C338.539 216.942 340.555 216.15 342.137 214.763C343.72 213.376 344.769 211.48 345.103 209.403L353.648 148.603C353.82 147.658 353.778 146.687 353.526 145.76C353.274 144.833 352.819 143.975 352.193 143.247C351.567 142.518 350.787 141.939 349.908 141.551C349.03 141.163 348.076 140.975 347.116 141.003Z" fill="#CABDFF"/>
<path opacity="0.1" d="M95.1164 12.0026H34.3164C32.2131 12.063 30.1966 12.8551 28.6144 14.2424C27.0322 15.6296 25.9833 17.5252 25.6484 19.6026L17.1034 80.4026C16.9322 81.3474 16.974 82.3186 17.2258 83.2452C17.4776 84.1718 17.933 85.0305 18.5589 85.7587C19.1848 86.4869 19.9653 87.0662 20.8436 87.4544C21.7218 87.8426 22.6756 88.0299 23.6354 88.0026H84.4354C86.5388 87.9422 88.5552 87.1501 90.1374 85.7629C91.7196 84.3756 92.7685 82.48 93.1034 80.4026L101.648 19.6026C101.82 18.6578 101.778 17.6867 101.526 16.7601C101.274 15.8334 100.819 14.9747 100.193 14.2465C99.5671 13.5183 98.7865 12.939 97.9083 12.5508C97.0301 12.1626 96.0762 11.9753 95.1164 12.0026Z" fill="#CABDFF"/>
<defs>
<filter id="filter0_b_1959_12077" x="71" y="-33" width="212" height="250" filterUnits="userSpaceOnUse" color-interpolation-filters="sRGB">
<feFlood flood-opacity="0" result="BackgroundImageFix"/>
<feGaussianBlur in="BackgroundImage" stdDeviation="28"/>
<feComposite in2="SourceAlpha" operator="in" result="effect1_backgroundBlur_1959_12077"/>
<feBlend mode="normal" in="SourceGraphic" in2="effect1_backgroundBlur_1959_12077" result="shape"/>
</filter>
<linearGradient id="paint0_linear_1959_12077" x1="45.2738" y1="158.962" x2="30.7259" y2="135.038" gradientUnits="userSpaceOnUse">
<stop stop-color="#502EFF"/>
<stop offset="1" stop-color="#6F5ADC"/>
</linearGradient>
</defs>
</svg>
