<svg width="485" height="213" viewBox="0 0 485 213" fill="none" xmlns="http://www.w3.org/2000/svg">
<g filter="url(#filter0_b_1926_13853)">
<rect x="8" y="77" width="51" height="302" rx="5" transform="rotate(-90 8 77)" fill="white" fill-opacity="0.03"/>
<rect x="8.5" y="76.5" width="50" height="301" rx="4.5" transform="rotate(-90 8.5 76.5)" stroke="#E5E5E5" stroke-opacity="0.19"/>
</g>
<g filter="url(#filter1_b_1926_13853)">
<rect x="70" y="144" width="49" height="301" rx="5" transform="rotate(-90 70 144)" fill="white" fill-opacity="0.03"/>
<rect x="70.5" y="143.5" width="48" height="300" rx="4.5" transform="rotate(-90 70.5 143.5)" stroke="#E5E5E5" stroke-opacity="0.19"/>
</g>
<g filter="url(#filter2_b_1926_13853)">
<rect x="144" y="213" width="51" height="302" rx="5" transform="rotate(-90 144 213)" fill="white" fill-opacity="0.03"/>
<rect x="144.5" y="212.5" width="50" height="301" rx="4.5" transform="rotate(-90 144.5 212.5)" stroke="#E5E5E5" stroke-opacity="0.19"/>
</g>
<circle cx="38.5" cy="51.5" r="17.5" fill="#474C4F" fill-opacity="0.52"/>
<circle cx="102.5" cy="120.5" r="17.5" fill="#474C4F" fill-opacity="0.52"/>
<circle cx="177.5" cy="187.5" r="17.5" fill="#474C4F" fill-opacity="0.52"/>
<path d="M30.4375 49.2148H32.9102V56H34.3477V49.2148H36.8203V48H30.4375V49.2148ZM38.0508 56H39.5V53.0703H40.9766L42.5469 56H44.1641L42.4336 52.8281C43.375 52.4492 43.8711 51.6445 43.8711 50.5586C43.8711 49.0312 42.8867 48 41.0508 48H38.0508V56ZM39.5 51.8672V49.2109H40.8281C41.9102 49.2109 42.3945 49.707 42.3945 50.5586C42.3945 51.4102 41.9102 51.8672 40.8359 51.8672H39.5Z" fill="#6F5ADC"/>
<path d="M98.9453 117V122.625C98.9414 123.469 98.5508 123.918 97.8555 123.918C97.207 123.918 96.7734 123.523 96.7617 122.875H95.3203C95.3203 124.352 96.3984 125.109 97.8008 125.109C99.3438 125.109 100.379 124.172 100.383 122.625V117H98.9453ZM104.666 125C107.104 125 108.549 123.492 108.549 120.992C108.549 118.5 107.104 117 104.721 117H101.955V125H104.666ZM103.404 123.746V118.254H104.639C106.264 118.254 107.111 119.16 107.111 120.992C107.111 122.832 106.264 123.746 104.596 123.746H103.404Z" fill="#6F5ADC"/>
<path d="M176.637 186.699C176.391 184.922 175.023 183.891 173.25 183.891C171.16 183.891 169.586 185.414 169.586 188C169.586 190.582 171.141 192.109 173.25 192.109C175.152 192.109 176.414 190.879 176.637 189.352L175.176 189.344C174.992 190.281 174.227 190.809 173.27 190.809C171.973 190.809 171.043 189.836 171.043 188C171.043 186.195 171.965 185.191 173.273 185.191C174.246 185.191 175.008 185.742 175.176 186.699H176.637ZM177.964 192H179.413V189.07H180.89L182.46 192H184.077L182.347 188.828C183.288 188.449 183.784 187.645 183.784 186.559C183.784 185.031 182.8 184 180.964 184H177.964V192ZM179.413 187.867V185.211H180.741C181.823 185.211 182.308 185.707 182.308 186.559C182.308 187.41 181.823 187.867 180.749 187.867H179.413Z" fill="#6F5ADC"/>
<path d="M233 120.5C233 118.033 229.172 116 224.412 116H138.588C133.88 116 130 118.006 130 120.5C130 122.967 133.828 125 138.588 125H224.412C229.12 125 233 122.967 233 120.5Z" fill="#C4C4C4" fill-opacity="0.1"/>
<path d="M310 187.5C310 185.033 306.135 183 301.329 183H214.671C209.918 183 206 185.006 206 187.5C206 189.967 209.865 192 214.671 192H301.329C306.082 192 310 189.967 310 187.5Z" fill="#C4C4C4" fill-opacity="0.1"/>
<path d="M171 51.5C171 49.0331 167.135 47 162.329 47H75.671C70.9176 47 67 49.006 67 51.5C67 53.9669 70.8654 56 75.671 56H162.329C167.082 56 171 53.9669 171 51.5Z" fill="#C4C4C4" fill-opacity="0.1"/>
<path d="M339 120.5C339 118.033 335.729 116 331.663 116H258.337C254.315 116 251 118.006 251 120.5C251 122.967 254.271 125 258.337 125H331.663C335.685 125 339 122.967 339 120.5Z" fill="#C4C4C4" fill-opacity="0.1"/>
<g filter="url(#filter3_b_1926_13853)">
<rect x="257" width="61" height="56" rx="14" fill="white" fill-opacity="0.03"/>
<rect x="257.5" y="0.5" width="60" height="55" rx="13.5" stroke="#E5E5E5" stroke-opacity="0.19"/>
</g>
<g filter="url(#filter4_b_1926_13853)">
<rect x="340" y="64" width="61" height="56" rx="14" fill="white" fill-opacity="0.03"/>
<rect x="340.5" y="64.5" width="60" height="55" rx="13.5" stroke="#E5E5E5" stroke-opacity="0.19"/>
</g>
<g filter="url(#filter5_b_1926_13853)">
<rect x="416" y="136" width="61" height="56" rx="14" fill="white" fill-opacity="0.03"/>
<rect x="416.5" y="136.5" width="60" height="55" rx="13.5" stroke="#E5E5E5" stroke-opacity="0.19"/>
</g>
<path d="M292.992 28.0947L289.821 24.286V24.2863C289.555 23.9663 289.165 23.7821 288.755 23.7821H286.804C286.133 23.7989 285.476 23.5822 284.941 23.167C284.406 22.7519 284.024 22.163 283.857 21.4965C283.712 20.8033 283.829 20.0795 284.186 19.4717H283.796L276.788 26.6553L277.967 30.5103V30.5105C278.114 30.8117 278.312 31.084 278.55 31.3151L282.517 35.1528H282.516C282.932 35.5793 283.469 35.8607 284.05 35.9574C284.63 36.0538 285.226 35.9607 285.752 35.6909L292.056 32.4597H292.056C292.813 32.0715 293.359 31.3535 293.54 30.5059C293.722 29.6582 293.52 28.7719 292.992 28.0943L292.992 28.0947ZM292.205 19.4714H286.599C286.098 19.4714 285.635 19.7452 285.385 20.1897C285.135 20.6342 285.135 21.1821 285.385 21.6266C285.635 22.0711 286.098 22.3449 286.599 22.3449H288.755H288.755C289.576 22.3449 290.355 22.7136 290.888 23.3534L294.086 27.1967C294.879 28.2132 295.182 29.5429 294.909 30.8141C294.637 32.0855 293.819 33.1627 292.683 33.745L289.567 35.3422L290.248 35.6912C290.637 35.8906 291.066 35.9946 291.501 35.9946C292.267 36.0415 293.021 35.7841 293.606 35.2761L297.059 32.9167C297.548 32.5823 297.922 32.0989 298.128 31.5348L299.213 26.6554L292.205 19.4714ZM280.996 19.4671L275.382 25.2229C275.011 25.6027 274.509 25.8163 273.985 25.8163C273.46 25.8163 272.958 25.6027 272.587 25.2229L272.579 25.2142C272.208 24.8344 272 24.319 272 23.7818C272 23.2445 272.208 22.7292 272.579 22.3492L278.193 16.5934C278.564 16.2136 279.067 16 279.591 16C280.115 16 280.617 16.2136 280.988 16.5934L280.996 16.6021C281.367 16.9819 281.575 17.4973 281.575 18.0345C281.575 18.5718 281.367 19.0871 280.996 19.4671ZM295.003 16.6021L295.012 16.5935H295.012C295.383 16.2137 295.885 16.0001 296.409 16.0001C296.933 16.0001 297.436 16.2137 297.807 16.5935L303.421 22.3492H303.421C303.792 22.7293 304 23.2445 304 23.7819C304 24.319 303.792 24.8345 303.421 25.2143L303.413 25.223C303.042 25.6028 302.54 25.8163 302.015 25.8163C301.491 25.8163 300.989 25.6028 300.618 25.223L295.004 19.4672C294.633 19.0871 294.425 18.5719 294.425 18.0345C294.425 17.4974 294.633 16.9819 295.004 16.6021H295.003Z" fill="url(#paint0_linear_1926_13853)"/>
<path d="M375.992 92.0947L372.821 88.286V88.2863C372.555 87.9663 372.165 87.7821 371.755 87.7821H369.804C369.133 87.7989 368.476 87.5822 367.941 87.167C367.406 86.7519 367.024 86.163 366.857 85.4965C366.712 84.8033 366.829 84.0795 367.186 83.4717H366.796L359.788 90.6553L360.967 94.5103V94.5105C361.114 94.8117 361.312 95.084 361.55 95.3151L365.517 99.1528H365.516C365.932 99.5793 366.469 99.8607 367.05 99.9574C367.63 100.054 368.226 99.9607 368.752 99.6909L375.056 96.4597H375.056C375.813 96.0715 376.359 95.3535 376.54 94.5059C376.722 93.6582 376.52 92.7719 375.992 92.0943L375.992 92.0947ZM375.205 83.4714H369.599C369.098 83.4714 368.635 83.7452 368.385 84.1897C368.135 84.6342 368.135 85.1821 368.385 85.6266C368.635 86.0711 369.098 86.3449 369.599 86.3449H371.755H371.755C372.576 86.3449 373.355 86.7136 373.888 87.3534L377.086 91.1967C377.879 92.2132 378.182 93.5429 377.909 94.8141C377.637 96.0855 376.819 97.1627 375.683 97.745L372.567 99.3422L373.248 99.6912C373.637 99.8906 374.066 99.9946 374.501 99.9946C375.267 100.041 376.021 99.7841 376.606 99.2761L380.059 96.9167C380.548 96.5823 380.922 96.0989 381.128 95.5348L382.213 90.6554L375.205 83.4714ZM363.996 83.4671L358.382 89.2229C358.011 89.6027 357.509 89.8163 356.985 89.8163C356.46 89.8163 355.958 89.6027 355.587 89.2229L355.579 89.2142C355.208 88.8344 355 88.319 355 87.7818C355 87.2445 355.208 86.7292 355.579 86.3492L361.193 80.5934C361.564 80.2136 362.067 80 362.591 80C363.115 80 363.617 80.2136 363.988 80.5934L363.996 80.6021C364.367 80.9819 364.575 81.4973 364.575 82.0345C364.575 82.5718 364.367 83.0871 363.996 83.4671ZM378.003 80.6021L378.012 80.5935H378.012C378.383 80.2137 378.885 80.0001 379.409 80.0001C379.933 80.0001 380.436 80.2137 380.807 80.5935L386.421 86.3492H386.421C386.792 86.7293 387 87.2445 387 87.7819C387 88.319 386.792 88.8345 386.421 89.2143L386.413 89.223C386.042 89.6028 385.54 89.8163 385.015 89.8163C384.491 89.8163 383.989 89.6028 383.618 89.223L378.004 83.4672C377.633 83.0871 377.425 82.5719 377.425 82.0345C377.425 81.4974 377.633 80.9819 378.004 80.6021H378.003Z" fill="#6F5ADC"/>
<path d="M451.992 164.095L448.821 160.286V160.286C448.555 159.966 448.165 159.782 447.755 159.782H445.804C445.133 159.799 444.476 159.582 443.941 159.167C443.406 158.752 443.024 158.163 442.857 157.497C442.712 156.803 442.829 156.08 443.186 155.472H442.796L435.788 162.655L436.967 166.51V166.511C437.114 166.812 437.312 167.084 437.55 167.315L441.517 171.153H441.516C441.932 171.579 442.469 171.861 443.05 171.957C443.63 172.054 444.226 171.961 444.752 171.691L451.056 168.46H451.056C451.813 168.072 452.359 167.354 452.54 166.506C452.722 165.658 452.52 164.772 451.992 164.094L451.992 164.095ZM451.205 155.471H445.599C445.098 155.471 444.635 155.745 444.385 156.19C444.135 156.634 444.135 157.182 444.385 157.627C444.635 158.071 445.098 158.345 445.599 158.345H447.755H447.755C448.576 158.345 449.355 158.714 449.888 159.353L453.086 163.197C453.879 164.213 454.182 165.543 453.909 166.814C453.637 168.086 452.819 169.163 451.683 169.745L448.567 171.342L449.248 171.691C449.637 171.891 450.066 171.995 450.501 171.995C451.267 172.041 452.021 171.784 452.606 171.276L456.059 168.917C456.548 168.582 456.922 168.099 457.128 167.535L458.213 162.655L451.205 155.471ZM439.996 155.467L434.382 161.223C434.011 161.603 433.509 161.816 432.985 161.816C432.46 161.816 431.958 161.603 431.587 161.223L431.579 161.214C431.208 160.834 431 160.319 431 159.782C431 159.244 431.208 158.729 431.579 158.349L437.193 152.593C437.564 152.214 438.067 152 438.591 152C439.115 152 439.617 152.214 439.988 152.593L439.996 152.602C440.367 152.982 440.575 153.497 440.575 154.034C440.575 154.572 440.367 155.087 439.996 155.467ZM454.003 152.602L454.012 152.593H454.012C454.383 152.214 454.885 152 455.409 152C455.933 152 456.436 152.214 456.807 152.593L462.421 158.349H462.421C462.792 158.729 463 159.245 463 159.782C463 160.319 462.792 160.834 462.421 161.214L462.413 161.223C462.042 161.603 461.54 161.816 461.015 161.816C460.491 161.816 459.989 161.603 459.618 161.223L454.004 155.467C453.633 155.087 453.425 154.572 453.425 154.035C453.425 153.497 453.633 152.982 454.004 152.602H454.003Z" fill="#6F5ADC"/>
<path fill-rule="evenodd" clip-rule="evenodd" d="M16.6253 85.0654C16.6253 88.6903 14.7571 91.223 11.1891 92.1775V95.2864C11.1891 95.6046 10.9432 95.854 10.6196 95.854H7.263C6.95667 95.854 6.68918 95.6089 6.68918 95.2864V92.1775C2.51713 91.5885 0.234803 89.1031 0.1442 88.9956C-0.032691 88.7806 -0.0499487 88.4796 0.109685 88.2646L1.94763 85.8652C2.12883 85.6158 2.57322 85.5685 2.78463 85.8136C2.81914 85.8308 5.31719 88.213 8.47535 88.213C10.2227 88.213 12.1124 87.2885 12.1124 85.2804C12.1124 83.5734 10.007 82.7392 7.59952 81.776C4.38959 80.5161 0.394437 78.9165 0.394437 74.4532C0.394437 71.1809 2.17629 68.7256 5.52428 67.7797V64.5805C5.52428 64.258 5.79178 64.0086 6.09379 64.0086L9.67044 64C9.98971 64 10.2399 64.2494 10.2399 64.5719V67.698C13.8597 68.1064 15.7883 70.0629 15.8573 70.136C16.0385 70.3295 16.073 70.5961 15.9479 70.8111L14.5026 73.404C14.3171 73.7437 13.9072 73.7867 13.6095 73.5674C13.5923 73.5502 11.435 71.6453 8.7601 71.6453C6.49503 71.6453 4.92458 72.7676 4.92458 74.3844C4.92458 76.2677 7.09905 77.1062 9.63161 78.0823C12.9149 79.3422 16.6253 80.7827 16.6253 85.0697V85.0654Z" fill="url(#paint1_linear_1926_13853)"/>
<path d="M316.268 39C317.038 37.6667 318.962 37.6667 319.732 39L323.196 45C323.966 46.3333 323.004 48 321.464 48H314.536C312.996 48 312.034 46.3333 312.804 45L316.268 39Z" fill="url(#paint2_linear_1926_13853)"/>
<path d="M399.268 108C400.038 106.667 401.962 106.667 402.732 108L406.196 114C406.966 115.333 406.004 117 404.464 117H397.536C395.996 117 395.034 115.333 395.804 114L399.268 108Z" fill="url(#paint3_linear_1926_13853)"/>
<path d="M475.268 183C476.038 181.667 477.962 181.667 478.732 183L482.196 189C482.966 190.333 482.004 192 480.464 192H473.536C471.996 192 471.034 190.333 471.804 189L475.268 183Z" fill="url(#paint4_linear_1926_13853)"/>
<defs>
<filter id="filter0_b_1926_13853" x="-48" y="-30" width="414" height="163" filterUnits="userSpaceOnUse" color-interpolation-filters="sRGB">
<feFlood flood-opacity="0" result="BackgroundImageFix"/>
<feGaussianBlur in="BackgroundImage" stdDeviation="28"/>
<feComposite in2="SourceAlpha" operator="in" result="effect1_backgroundBlur_1926_13853"/>
<feBlend mode="normal" in="SourceGraphic" in2="effect1_backgroundBlur_1926_13853" result="shape"/>
</filter>
<filter id="filter1_b_1926_13853" x="14" y="39" width="413" height="161" filterUnits="userSpaceOnUse" color-interpolation-filters="sRGB">
<feFlood flood-opacity="0" result="BackgroundImageFix"/>
<feGaussianBlur in="BackgroundImage" stdDeviation="28"/>
<feComposite in2="SourceAlpha" operator="in" result="effect1_backgroundBlur_1926_13853"/>
<feBlend mode="normal" in="SourceGraphic" in2="effect1_backgroundBlur_1926_13853" result="shape"/>
</filter>
<filter id="filter2_b_1926_13853" x="88" y="106" width="414" height="163" filterUnits="userSpaceOnUse" color-interpolation-filters="sRGB">
<feFlood flood-opacity="0" result="BackgroundImageFix"/>
<feGaussianBlur in="BackgroundImage" stdDeviation="28"/>
<feComposite in2="SourceAlpha" operator="in" result="effect1_backgroundBlur_1926_13853"/>
<feBlend mode="normal" in="SourceGraphic" in2="effect1_backgroundBlur_1926_13853" result="shape"/>
</filter>
<filter id="filter3_b_1926_13853" x="201" y="-56" width="173" height="168" filterUnits="userSpaceOnUse" color-interpolation-filters="sRGB">
<feFlood flood-opacity="0" result="BackgroundImageFix"/>
<feGaussianBlur in="BackgroundImage" stdDeviation="28"/>
<feComposite in2="SourceAlpha" operator="in" result="effect1_backgroundBlur_1926_13853"/>
<feBlend mode="normal" in="SourceGraphic" in2="effect1_backgroundBlur_1926_13853" result="shape"/>
</filter>
<filter id="filter4_b_1926_13853" x="284" y="8" width="173" height="168" filterUnits="userSpaceOnUse" color-interpolation-filters="sRGB">
<feFlood flood-opacity="0" result="BackgroundImageFix"/>
<feGaussianBlur in="BackgroundImage" stdDeviation="28"/>
<feComposite in2="SourceAlpha" operator="in" result="effect1_backgroundBlur_1926_13853"/>
<feBlend mode="normal" in="SourceGraphic" in2="effect1_backgroundBlur_1926_13853" result="shape"/>
</filter>
<filter id="filter5_b_1926_13853" x="360" y="80" width="173" height="168" filterUnits="userSpaceOnUse" color-interpolation-filters="sRGB">
<feFlood flood-opacity="0" result="BackgroundImageFix"/>
<feGaussianBlur in="BackgroundImage" stdDeviation="28"/>
<feComposite in2="SourceAlpha" operator="in" result="effect1_backgroundBlur_1926_13853"/>
<feBlend mode="normal" in="SourceGraphic" in2="effect1_backgroundBlur_1926_13853" result="shape"/>
</filter>
<linearGradient id="paint0_linear_1926_13853" x1="288" y1="16" x2="288" y2="36" gradientUnits="userSpaceOnUse">
<stop stop-color="#502EFF"/>
<stop offset="1" stop-color="#6F5ADC"/>
</linearGradient>
<linearGradient id="paint1_linear_1926_13853" x1="8.31264" y1="64" x2="33.9199" y2="92.8377" gradientUnits="userSpaceOnUse">
<stop stop-color="white"/>
<stop offset="1" stop-color="#6F5ADC"/>
</linearGradient>
<linearGradient id="paint2_linear_1926_13853" x1="318" y1="36" x2="327.884" y2="57.3258" gradientUnits="userSpaceOnUse">
<stop stop-color="white"/>
<stop offset="1" stop-color="#6F5ADC"/>
</linearGradient>
<linearGradient id="paint3_linear_1926_13853" x1="401" y1="105" x2="410.884" y2="126.326" gradientUnits="userSpaceOnUse">
<stop stop-color="white"/>
<stop offset="1" stop-color="#6F5ADC"/>
</linearGradient>
<linearGradient id="paint4_linear_1926_13853" x1="477" y1="180" x2="486.884" y2="201.326" gradientUnits="userSpaceOnUse">
<stop stop-color="white"/>
<stop offset="1" stop-color="#6F5ADC"/>
</linearGradient>
</defs>
</svg>
