<svg width="345" height="177" viewBox="0 0 345 177" fill="none" xmlns="http://www.w3.org/2000/svg">
<path d="M148.55 52C146.598 52 145 53.5975 145 55.55V133.65C145 135.603 146.598 137.2 148.55 137.2H240.85C242.803 137.2 244.4 135.603 244.4 133.65V69.75C244.4 67.7975 242.803 66.2 240.85 66.2H196.475L186.89 53.42C186.18 52.5325 185.293 52 184.05 52H148.55Z" fill="white" fill-opacity="0.1"/>
<path opacity="0.1" d="M92.0249 59.0012H64.7641C63.821 59.0299 62.9169 59.405 62.2075 60.0621C61.4981 60.7192 61.0278 61.617 60.8777 62.601L57.0464 91.399C56.9696 91.8465 56.9883 92.3065 57.1012 92.7454C57.2141 93.1843 57.4183 93.591 57.699 93.9359C57.9796 94.2808 58.3296 94.5552 58.7233 94.7391C59.1171 94.923 59.5448 95.0117 59.9751 94.9988H87.2359C88.179 94.9701 89.0831 94.595 89.7925 93.9379C90.5019 93.2808 90.9722 92.383 91.1223 91.399L94.9536 62.601C95.0304 62.1535 95.0117 61.6935 94.8988 61.2546C94.7859 60.8157 94.5817 60.409 94.301 60.0641C94.0204 59.7192 93.6704 59.4448 93.2767 59.2609C92.8829 59.077 92.4552 58.9883 92.0249 59.0012Z" fill="#CABDFF"/>
<path opacity="0.1" d="M69.8937 76.0024H15.4937C13.6118 76.0563 11.8076 76.765 10.392 78.0063C8.97647 79.2475 8.03814 80.9436 7.73871 82.8024L0.0927075 137.202C-0.0606577 138.048 -0.0233742 138.917 0.201836 139.746C0.427047 140.575 0.834502 141.343 1.39448 141.995C1.95446 142.646 2.65283 143.165 3.43865 143.512C4.22447 143.859 5.07791 144.027 5.93671 144.002H60.3367C62.2188 143.949 64.0232 143.24 65.439 141.999C66.8548 140.757 67.7932 139.061 68.0927 137.202L75.7377 82.8024C75.8911 81.957 75.8538 81.0881 75.6286 80.259C75.4034 79.4299 74.9959 78.6615 74.4359 78.0099C73.876 77.3583 73.1776 76.84 72.3918 76.4927C71.6059 76.1453 70.7525 75.9778 69.8937 76.0024Z" fill="#AE9AFF"/>
<path opacity="0.1" d="M328.555 10.7858H289.985C288.651 10.8242 287.372 11.3266 286.368 12.2067C285.364 13.0867 284.699 14.2892 284.486 15.6071L279.066 54.1769C278.957 54.7763 278.984 55.3924 279.143 55.9802C279.303 56.568 279.592 57.1128 279.989 57.5747C280.386 58.0367 280.881 58.4042 281.438 58.6504C281.995 58.8967 282.6 59.0155 283.209 58.9982H321.779C323.114 58.9598 324.393 58.4574 325.396 57.5774C326.4 56.6973 327.066 55.4948 327.278 54.1769L332.699 15.6071C332.807 15.0077 332.781 14.3916 332.621 13.8038C332.461 13.216 332.172 12.6713 331.775 12.2093C331.378 11.7474 330.883 11.3798 330.326 11.1336C329.769 10.8873 329.164 10.7685 328.555 10.7858Z" fill="#CABDFF"/>
<path opacity="0.1" d="M343.087 0.000740128H325.794C325.196 0.0178909 324.622 0.24266 324.172 0.636333C323.722 1.03001 323.424 1.56793 323.329 2.15746L320.898 19.4112C320.849 19.6793 320.861 19.9549 320.933 20.2179C321.004 20.4808 321.134 20.7245 321.312 20.9312C321.49 21.1378 321.712 21.3022 321.962 21.4124C322.212 21.5225 322.483 21.5757 322.756 21.5679H340.049C340.648 21.5508 341.221 21.326 341.671 20.9323C342.121 20.5387 342.42 20.0007 342.515 19.4112L344.945 2.15746C344.994 1.88934 344.982 1.61375 344.911 1.3508C344.839 1.08785 344.709 0.844166 344.531 0.637516C344.353 0.430866 344.131 0.266465 343.882 0.156302C343.632 0.0461393 343.36 -0.00700646 343.087 0.000740128Z" fill="#CABDFF"/>
<path opacity="0.4" d="M263.321 112H236.432C226.679 112 221 117.711 221 127.496V160.638C221 170.584 226.679 176.167 236.432 176.167H263.321C273.232 176.167 278.75 170.584 278.75 160.638V127.496C278.75 117.711 273.232 112 263.321 112Z" fill="url(#paint0_linear_1937_12305)"/>
<path fill-rule="evenodd" clip-rule="evenodd" d="M237.298 126.919V126.951C235.916 126.951 234.796 128.074 234.796 129.454C234.796 130.833 235.916 131.956 237.298 131.956H246.888C248.271 131.956 249.394 130.833 249.394 129.418C249.394 128.042 248.271 126.919 246.888 126.919H237.298ZM262.452 146.458H237.298C235.916 146.458 234.796 145.335 234.796 143.955C234.796 142.576 235.916 141.449 237.298 141.449H262.452C263.831 141.449 264.954 142.576 264.954 143.955C264.954 145.335 263.831 146.458 262.452 146.458ZM262.452 161.12H237.298C236.336 161.248 235.405 160.767 234.892 159.965C234.379 159.131 234.379 158.072 234.892 157.27C235.405 156.436 236.336 155.986 237.298 156.083H262.452C263.732 156.211 264.697 157.302 264.697 158.617C264.697 159.897 263.732 160.991 262.452 161.12Z" fill="url(#paint1_linear_1937_12305)"/>
<path d="M163.583 54.4682V57.5235C163.583 58.0305 163.561 58.5419 163.517 59.0489C162.897 66.0252 158.051 70.5838 151.059 70.5838H131.941C128.4 70.5838 125.413 69.4348 123.267 67.3514C122.426 66.5787 121.718 65.671 121.165 64.6304C121.895 63.7426 122.713 62.7707 123.51 61.7965C124.86 60.1803 126.165 58.584 126.984 57.5456C128.201 56.0401 131.41 52.0771 135.857 53.9368C136.764 54.3132 137.561 54.8446 138.291 55.3095C140.084 56.5051 140.836 56.8593 142.097 56.173C143.491 55.4202 144.398 53.9368 145.35 52.387C145.859 51.5656 146.368 50.7708 146.921 50.0402C149.333 46.8963 153.05 46.055 156.148 47.9148C157.697 48.8447 159.025 50.0181 160.264 51.2114C160.53 51.4771 160.795 51.7228 161.038 51.9664C161.37 52.2985 162.477 53.4055 163.583 54.4682Z" fill="url(#paint2_linear_1937_12305)"/>
<path opacity="0.4" d="M151.081 26.417H131.941C124.44 26.417 119.417 31.6641 119.417 39.4773V57.5236C119.417 60.2445 120.036 62.66 121.165 64.6305C121.895 63.7427 122.714 62.7707 123.51 61.7943C124.86 60.1803 126.166 58.5841 126.984 57.5457C128.201 56.0402 131.41 52.0771 135.857 53.9369C136.765 54.3133 137.561 54.8446 138.291 55.3096C140.084 56.5051 140.836 56.8594 142.097 56.1708C143.491 55.4203 144.399 53.9369 145.35 52.3849C145.859 51.5657 146.368 50.7709 146.921 50.0403C149.333 46.8964 153.051 46.0551 156.148 47.9148C157.697 48.8447 159.025 50.0181 160.264 51.2115C160.53 51.4771 160.795 51.7229 161.039 51.9664C161.371 52.2963 162.477 53.4033 163.583 54.4682V39.4773C163.583 31.6641 158.56 26.417 151.081 26.417Z" fill="url(#paint3_linear_1937_12305)"/>
<path d="M140.295 41.4266C140.295 44.5373 137.704 47.1276 134.595 47.1276C131.488 47.1276 128.897 44.5373 128.897 41.4266C128.897 38.3182 131.488 35.7256 134.595 35.7256C137.704 35.7256 140.295 38.3182 140.295 41.4266Z" fill="url(#paint4_linear_1937_12305)"/>
<defs>
<linearGradient id="paint0_linear_1937_12305" x1="249.875" y1="112" x2="292.162" y2="194.119" gradientUnits="userSpaceOnUse">
<stop stop-color="white"/>
<stop offset="1" stop-color="#6F5ADC"/>
</linearGradient>
<linearGradient id="paint1_linear_1937_12305" x1="249.731" y1="126.919" x2="272.434" y2="170.502" gradientUnits="userSpaceOnUse">
<stop stop-color="white"/>
<stop offset="1" stop-color="#6F5ADC"/>
</linearGradient>
<linearGradient id="paint2_linear_1937_12305" x1="142.374" y1="46.9375" x2="151.646" y2="82.8288" gradientUnits="userSpaceOnUse">
<stop stop-color="white"/>
<stop offset="1" stop-color="#6F5ADC"/>
</linearGradient>
<linearGradient id="paint3_linear_1937_12305" x1="141.5" y1="26.417" x2="162.874" y2="79.7197" gradientUnits="userSpaceOnUse">
<stop stop-color="white"/>
<stop offset="1" stop-color="#6F5ADC"/>
</linearGradient>
<linearGradient id="paint4_linear_1937_12305" x1="134.596" y1="35.7256" x2="141.641" y2="50.921" gradientUnits="userSpaceOnUse">
<stop stop-color="white"/>
<stop offset="1" stop-color="#6F5ADC"/>
</linearGradient>
</defs>
</svg>
