<svg xmlns="http://www.w3.org/2000/svg" width="40.28" height="40.28" viewBox="0 0 40.28 40.28">
  <g id="settings" transform="translate(0 -0.001)">
    <path id="Path_8012" data-name="Path 8012" d="M38.2,15.83l-2.19-.156a16.378,16.378,0,0,0-1.495-3.6l1.437-1.662a2.244,2.244,0,0,0-.111-3.055L32.915,4.434a2.244,2.244,0,0,0-3.057-.109L28.2,5.765a16.373,16.373,0,0,0-3.6-1.492l-.159-2.189A2.244,2.244,0,0,0,22.2,0H18.067a2.244,2.244,0,0,0-2.239,2.085l-.156,2.19a16.377,16.377,0,0,0-3.589,1.488l-1.662-1.44a2.244,2.244,0,0,0-3.057.109L4.443,7.355a2.244,2.244,0,0,0-.11,3.056l1.437,1.66a16.38,16.38,0,0,0-1.5,3.6l-2.191.157A2.245,2.245,0,0,0,0,18.068V22.2a2.244,2.244,0,0,0,2.083,2.239l2.188.158a16.377,16.377,0,0,0,1.492,3.6l-1.44,1.662a2.244,2.244,0,0,0,.109,3.057l2.922,2.922a2.244,2.244,0,0,0,3.056.11l1.66-1.437a16.376,16.376,0,0,0,3.6,1.5l.157,2.191a2.244,2.244,0,0,0,2.239,2.084H22.2A2.244,2.244,0,0,0,24.437,38.2l.158-2.188a16.378,16.378,0,0,0,3.614-1.5l1.662,1.437a2.244,2.244,0,0,0,3.055-.111l2.922-2.922a2.245,2.245,0,0,0,.109-3.057L34.516,28.2a16.373,16.373,0,0,0,1.492-3.6l2.189-.159A2.244,2.244,0,0,0,40.28,22.2V18.068A2.244,2.244,0,0,0,38.2,15.83ZM20.14,27.841a7.7,7.7,0,1,1,7.7-7.7A7.7,7.7,0,0,1,20.14,27.841Z" transform="translate(0)" fill="#3a4a59"/>
    <path id="Path_8013" data-name="Path 8013" d="M82.414,60.049l-2.19-.156a16.379,16.379,0,0,0-1.495-3.6l1.437-1.662a2.244,2.244,0,0,0-.111-3.055l-2.922-2.922a2.244,2.244,0,0,0-3.057-.109l-1.4,1.218a19.089,19.089,0,0,1-.615,14.478c0,.04,0,.08,0,.12a7.7,7.7,0,0,1-6.547,7.614,19.061,19.061,0,0,1-17.072,2.234,2.244,2.244,0,0,0,.213,2.927l2.922,2.922a2.244,2.244,0,0,0,3.056.11l1.66-1.437a16.377,16.377,0,0,0,3.6,1.5l.157,2.191A2.244,2.244,0,0,0,62.285,84.5h4.132a2.244,2.244,0,0,0,2.239-2.083l.158-2.188a16.379,16.379,0,0,0,3.614-1.5l1.662,1.437a2.244,2.244,0,0,0,3.055-.111l2.922-2.922a2.245,2.245,0,0,0,.109-3.057l-1.439-1.66a16.376,16.376,0,0,0,1.492-3.6l2.189-.159A2.244,2.244,0,0,0,84.5,66.419V62.287A2.244,2.244,0,0,0,82.414,60.049Z" transform="translate(-44.219 -44.219)" fill="#3a4a59"/>
    <g id="Group_2416" data-name="Group 2416" transform="translate(8.46 8.461)">
      <path id="Path_8014" data-name="Path 8014" d="M119.22,107.541a11.68,11.68,0,1,0,11.68,11.68A11.68,11.68,0,0,0,119.22,107.541Zm0,19.379a7.7,7.7,0,1,1,7.7-7.7A7.7,7.7,0,0,1,119.22,126.92Z" transform="translate(-107.54 -107.541)" fill="#3a4a59"/>
      <path id="Path_8015" data-name="Path 8015" d="M120.372,126.834a7.7,7.7,0,1,1,6.546-7.734,18.928,18.928,0,0,0,1.714-6.8,11.68,11.68,0,1,0-14.665,17.35,18.942,18.942,0,0,0,6.4-2.82Z" transform="translate(-107.54 -107.541)" fill="#3a4a59"/>
      <path id="Path_8016" data-name="Path 8016" d="M353.852,254.6c.036-.018,0-.08,0-.12,0,.04,0,.08,0,.12Z" transform="translate(-334.472 -242.918)" fill="#3a4a59"/>
    </g>
    <path id="Path_8017" data-name="Path 8017" d="M353.851,254.478Z" transform="translate(-326.013 -234.457)" fill="#3a4a59"/>
    <g id="Group_2417" data-name="Group 2417" transform="translate(10.935 10.936)">
      <path id="Path_8018" data-name="Path 8018" d="M148.2,139a9.2,9.2,0,1,0,9.2,9.2A9.2,9.2,0,0,0,148.2,139Zm0,16.9a7.7,7.7,0,1,1,7.7-7.7A7.7,7.7,0,0,1,148.2,155.905Z" transform="translate(-139 -139.001)" fill="#3a4a59" opacity="0.5"/>
      <path id="Path_8019" data-name="Path 8019" d="M206.171,175.014A11.626,11.626,0,0,0,203.9,168.1a18.93,18.93,0,0,1-1.714,6.8h0c0,.04.037.1,0,.12h0a7.7,7.7,0,0,1-6.547,7.614h0a18.944,18.944,0,0,1-6.4,2.82,11.683,11.683,0,0,0,16.932-10.434Z" transform="translate(-185.287 -165.81)" fill="#3a4a59" opacity="0.4"/>
    </g>
  </g>
</svg>
