<svg xmlns="http://www.w3.org/2000/svg" xmlns:xlink="http://www.w3.org/1999/xlink" width="102" height="100" viewBox="0 0 102 100">
  <defs>
    <linearGradient id="linear-gradient" x1="2.154" y1="-0.053" x2="-1.621" y2="1.53" gradientUnits="objectBoundingBox">
      <stop offset="0" stop-color="#fdf53f"/>
      <stop offset="1" stop-color="#d93c65"/>
    </linearGradient>
    <linearGradient id="linear-gradient-2" x1="1.566" y1="0.469" x2="-0.291" y2="0.539" gradientUnits="objectBoundingBox">
      <stop offset="0" stop-color="#53d8ff"/>
      <stop offset="1" stop-color="#3840f7"/>
    </linearGradient>
    <linearGradient id="linear-gradient-3" x1="1.165" y1="0.49" x2="-0.581" y2="0.529" xlink:href="#linear-gradient-2"/>
    <linearGradient id="linear-gradient-4" x1="1.133" y1="0.422" x2="-0.643" y2="0.683" xlink:href="#linear-gradient"/>
    <linearGradient id="linear-gradient-5" x1="0.731" y1="0.484" x2="-12.82" y2="1.425" xlink:href="#linear-gradient"/>
    <linearGradient id="linear-gradient-6" x1="0.969" y1="0.019" x2="-0.255" y2="1.281" gradientUnits="objectBoundingBox">
      <stop offset="0" stop-color="#2b3582"/>
      <stop offset="1" stop-color="#150e42"/>
    </linearGradient>
    <linearGradient id="linear-gradient-7" x1="1.099" y1="-0.392" x2="-2.674" y2="5.225" xlink:href="#linear-gradient"/>
    <linearGradient id="linear-gradient-8" x1="1.155" y1="-1.755" x2="-0.889" y2="6.276" xlink:href="#linear-gradient"/>
    <linearGradient id="linear-gradient-9" x1="1.064" y1="-0.324" x2="-2.149" y2="4.373" gradientUnits="objectBoundingBox">
      <stop offset="0" stop-color="#a737d5"/>
      <stop offset="1" stop-color="#ef497a"/>
    </linearGradient>
    <linearGradient id="linear-gradient-10" x1="0.767" y1="0.035" x2="-0.235" y2="1.925" xlink:href="#linear-gradient"/>
    <linearGradient id="linear-gradient-11" x1="1.318" y1="-6.479" x2="-1.677" y2="19.072" xlink:href="#linear-gradient-9"/>
    <linearGradient id="linear-gradient-12" x1="1.476" y1="-8.015" x2="-1.506" y2="17.618" xlink:href="#linear-gradient-9"/>
    <linearGradient id="linear-gradient-13" x1="1.037" y1="-0.34" x2="-2.355" y2="4.973" xlink:href="#linear-gradient-2"/>
    <linearGradient id="linear-gradient-14" x1="1.117" y1="-0.316" x2="-1.724" y2="3.447" xlink:href="#linear-gradient"/>
    <linearGradient id="linear-gradient-15" x1="0.766" y1="-0.503" x2="-0.259" y2="3.4" xlink:href="#linear-gradient-9"/>
    <linearGradient id="linear-gradient-16" x1="1.054" y1="-0.681" x2="-0.901" y2="3.537" xlink:href="#linear-gradient"/>
    <linearGradient id="linear-gradient-17" x1="0.959" y1="-0.689" x2="-0.402" y2="2.876" xlink:href="#linear-gradient"/>
    <linearGradient id="linear-gradient-18" x1="2.578" y1="-2.211" x2="-1.787" y2="3.403" xlink:href="#linear-gradient-9"/>
    <linearGradient id="linear-gradient-19" x1="3.377" y1="-3.239" x2="-0.988" y2="2.375" xlink:href="#linear-gradient-9"/>
    <linearGradient id="linear-gradient-20" x1="4.049" y1="-3.235" x2="-1.695" y2="2.799" xlink:href="#linear-gradient-9"/>
    <linearGradient id="linear-gradient-21" x1="4.975" y1="-5.294" x2="0.61" y2="0.32" xlink:href="#linear-gradient-9"/>
    <linearGradient id="linear-gradient-22" x1="1.519" y1="-0.775" x2="-1.484" y2="2.907" xlink:href="#linear-gradient-6"/>
    <linearGradient id="linear-gradient-23" x1="1.004" y1="-2.464" x2="-0.074" y2="4.125" xlink:href="#linear-gradient-6"/>
    <linearGradient id="linear-gradient-24" x1="0.727" y1="-2.87" x2="0.282" y2="3.71" xlink:href="#linear-gradient-2"/>
    <linearGradient id="linear-gradient-25" x1="-82.222" y1="-3.517" x2="-82.742" y2="-2.852" gradientUnits="objectBoundingBox">
      <stop offset="0" stop-color="#cb236d"/>
      <stop offset="1" stop-color="#4c246d"/>
    </linearGradient>
    <linearGradient id="linear-gradient-26" x1="-85.995" y1="-1.058" x2="-84.686" y2="-2.37" xlink:href="#linear-gradient-25"/>
  </defs>
  <g id="Group_9256" data-name="Group 9256" transform="translate(-135 -460)">
    <ellipse id="Ellipse_2413" data-name="Ellipse 2413" cx="51" cy="50" rx="51" ry="50" transform="translate(135 460)" fill="#dce0ec"/>
    <g id="Group_8871" data-name="Group 8871" transform="translate(-386.343 279.332)">
      <g id="Group_8854" data-name="Group 8854" transform="translate(568.831 206.454)">
        <path id="Path_44901" data-name="Path 44901" d="M711.007,237.514l2.028.127a1.884,1.884,0,0,1,1.766,1.908l-.708,48.156a1.977,1.977,0,0,1-2.019,1.947l-13.934-.3Z" transform="translate(-679.764 -234.561)" fill="url(#linear-gradient)"/>
        <path id="Path_44902" data-name="Path 44902" d="M668.752,235.672l25.725-1.244a.912.912,0,0,1,.956.941l-1.587,49.623a1.907,1.907,0,0,1-1.983,1.845l-18.081-.727Z" transform="translate(-661.846 -232.679)" fill="url(#linear-gradient-2)"/>
        <path id="Path_44903" data-name="Path 44903" d="M672.27,235.768l22.626-2.887a.959.959,0,0,1,1.08.973l-1.1,50.049a1.325,1.325,0,0,1-1.286,1.3l-16.646.487Z" transform="translate(-663.991 -231.731)" fill="url(#linear-gradient-3)"/>
        <path id="Path_44904" data-name="Path 44904" d="M653.391,231.5l24.806-1.544a2.148,2.148,0,0,1,2.281,2.144v51.109a1.877,1.877,0,0,1-1.877,1.877h-22.87a2.031,2.031,0,0,1-2.028-1.921l-2.641-49.048A2.486,2.486,0,0,1,653.391,231.5Z" transform="translate(-651.059 -229.948)" fill="url(#linear-gradient-4)"/>
        <path id="Rectangle_3856" data-name="Rectangle 3856" d="M1.928,0h0A1.928,1.928,0,0,1,3.856,1.928v11.4a1.928,1.928,0,0,1-1.928,1.928h0A1.928,1.928,0,0,1,0,13.324V1.928A1.928,1.928,0,0,1,1.928,0Z" transform="translate(27.491 4.881)" fill="url(#linear-gradient-5)"/>
      </g>
      <g id="Group_8857" data-name="Group 8857" transform="translate(542.72 191.414)">
        <path id="Path_44905" data-name="Path 44905" d="M588.777,213.509h39.274a4.069,4.069,0,0,1,4.064,3.862l2.9,56.94a3,3,0,0,1-2.942,3.152l-45.013.818a2.848,2.848,0,0,1-2.9-2.848V218.127A4.618,4.618,0,0,1,588.777,213.509Z" transform="translate(-584.159 -204.885)" fill="url(#linear-gradient-6)"/>
        <path id="Path_44906" data-name="Path 44906" d="M595.8,360h0l-5.037-.065a3.106,3.106,0,0,1-3.054-3.094v-7.6a.108.108,0,0,1,.215,0v7.6a2.89,2.89,0,0,0,2.842,2.879l5.036.065a.108.108,0,0,1,0,.215Z" transform="translate(-586.324 -287.574)" fill="#fff"/>
        <path id="Path_44907" data-name="Path 44907" d="M587.817,341.386a.107.107,0,0,1-.107-.107v-1.231a.108.108,0,1,1,.215,0v1.231A.107.107,0,0,1,587.817,341.386Z" transform="translate(-586.324 -281.97)" fill="#fff"/>
        <g id="Group_8856" data-name="Group 8856" transform="translate(3.217 8.15)">
          <path id="Path_44908" data-name="Path 44908" d="M593.924,212.307c5.363.728,23.806,2.977,39.054,1.806a1.24,1.24,0,0,1,1.336,1.17l3.04,57.194a1.428,1.428,0,0,1-1.341,1.5c-6.413.379-32.824,1.847-42.245.86a1.131,1.131,0,0,1-1.012-1.119l-.354-60.074A1.342,1.342,0,0,1,593.924,212.307Z" transform="translate(-592.402 -212.294)" fill="#54349f"/>
          <path id="Path_44909" data-name="Path 44909" d="M595.485,216.108c5.161.7,22.909,2.865,37.583,1.738a1.194,1.194,0,0,1,1.286,1.126l2.925,55.04a1.374,1.374,0,0,1-1.291,1.445c-6.172.365-31.588,1.777-40.654.827a1.089,1.089,0,0,1-.974-1.077l-.34-57.812A1.291,1.291,0,0,1,595.485,216.108Z" transform="translate(-593.389 -214.612)" fill="#fff" opacity="0"/>
          <path id="Path_44910" data-name="Path 44910" d="M606.262,229l.548,11.8a.75.75,0,0,0,.728.715c2.186.062,9,.228,12.84.027a.837.837,0,0,0,.794-.81c.073-2.213.234-8.654-.271-11.346a.945.945,0,0,0-.9-.769l-12.917-.452A.8.8,0,0,0,606.262,229Z" transform="translate(-600.852 -221.968)" fill="#fff" opacity="0.78"/>
          <circle id="Ellipse_3750" data-name="Ellipse 3750" cx="2.537" cy="2.537" r="2.537" transform="translate(10.306 8.709)" fill="url(#linear-gradient-7)"/>
          <path id="Path_44911" data-name="Path 44911" d="M614.411,254.647h8.082a.626.626,0,0,0,.526-.964,5.216,5.216,0,0,0-4.61-2.581,5.634,5.634,0,0,0-4.532,2.516A.654.654,0,0,0,614.411,254.647Z" transform="translate(-605.422 -235.953)" fill="url(#linear-gradient-8)"/>
          <path id="Path_44912" data-name="Path 44912" d="M666.64,231.274l-.023-.792-15.085-.269.374,1.061Z" transform="translate(-628.454 -223.219)" fill="#fff" opacity="0.6"/>
          <path id="Path_44913" data-name="Path 44913" d="M651.533,235.85l.374,1.061H666.64l-.023-.792Z" transform="translate(-628.454 -226.656)" fill="#fff" opacity="0.6"/>
          <path id="Path_44914" data-name="Path 44914" d="M651.533,241.568l.374,1.061H666.64l-.023-.792Z" transform="translate(-628.454 -230.142)" fill="#fff" opacity="0.6"/>
          <path id="Path_44915" data-name="Path 44915" d="M675.42,246.376c1.093-.083,3.138-.122,4.264-.138a1.021,1.021,0,0,1,1.008.781,16.631,16.631,0,0,1,.479,4.123.906.906,0,0,1-.915.888l-4.156-.045a1,1,0,0,1-.983-.9l-.365-3.91A.727.727,0,0,1,675.42,246.376Z" transform="translate(-642.609 -232.99)" fill="url(#linear-gradient-9)"/>
          <g id="Group_8855" data-name="Group 8855" transform="translate(33.017 13.944)">
            <path id="Path_44916" data-name="Path 44916" d="M680.649,252.331l-1.052-.455a.272.272,0,0,0-.251.019l-.971.609a.271.271,0,0,1-.414-.255l.107-1.141a.271.271,0,0,0-.1-.233l-.879-.735a.271.271,0,0,1,.114-.472l1.118-.251a.271.271,0,0,0,.192-.164l.428-1.063a.27.27,0,0,1,.484-.037l.584.986a.27.27,0,0,0,.215.132l1.144.078a.271.271,0,0,1,.185.449l-.757.86a.271.271,0,0,0-.06.245l.279,1.112A.271.271,0,0,1,680.649,252.331Z" transform="translate(-676.996 -248.022)" fill="url(#linear-gradient-10)"/>
            <path id="Path_44917" data-name="Path 44917" d="M679.031,251.6a.525.525,0,0,0-.116-.135l-.574-.48a.205.205,0,0,1,.087-.358l.73-.164a.533.533,0,0,0,.378-.321l.279-.695a.205.205,0,0,1,.367-.028l.2.329-.05.03-.195-.329a.147.147,0,0,0-.263.02l-.279.694a.591.591,0,0,1-.419.356l-.731.164a.147.147,0,0,0-.062.256l.575.48a.592.592,0,0,1,.128.15Z" transform="translate(-677.771 -248.815)" fill="#fff"/>
            <path id="Path_44918" data-name="Path 44918" d="M680.435,254.382a.206.206,0,0,1-.2-.224l.053-.57.058.005-.053.57a.147.147,0,0,0,.224.138l.634-.4a.6.6,0,0,1,.548-.042l.687.3a.147.147,0,0,0,.2-.171l-.182-.726a.591.591,0,0,1,.13-.534l.495-.562a.147.147,0,0,0-.1-.244l-.747-.051a.589.589,0,0,1-.221-.06l.025-.052a.532.532,0,0,0,.2.054l.747.051a.205.205,0,0,1,.14.34l-.494.562a.532.532,0,0,0-.117.482l.182.726a.205.205,0,0,1-.28.238l-.687-.3a.538.538,0,0,0-.494.038l-.634.4A.2.2,0,0,1,680.435,254.382Z" transform="translate(-678.967 -250.3)" fill="#fff"/>
            <rect id="Rectangle_3857" data-name="Rectangle 3857" width="0.058" height="0.227" transform="translate(2.556 0.967) rotate(-30.637)" fill="#fff"/>
          </g>
          <path id="Path_44919" data-name="Path 44919" d="M659.349,250.03l-.011-.792-7.456-.269.185,1.061Z" transform="translate(-628.667 -234.655)" fill="url(#linear-gradient-11)"/>
          <path id="Path_44920" data-name="Path 44920" d="M651.838,255.64l.223,1.053,7.278-.266-.04-.791Z" transform="translate(-628.64 -238.72)" fill="url(#linear-gradient-12)"/>
          <path id="Path_44921" data-name="Path 44921" d="M640.409,270.2l-.052-.792-34.1-.269.844,1.061Z" transform="translate(-600.847 -246.955)" fill="#fff" opacity="0.6"/>
          <path id="Path_44922" data-name="Path 44922" d="M606.253,274.78l.844,1.06h33.312l-.052-.792Z" transform="translate(-600.847 -250.391)" fill="#fff" opacity="0.6"/>
          <path id="Path_44923" data-name="Path 44923" d="M606.283,284.041c.8-.061,2.292-.089,3.115-.1a.746.746,0,0,1,.736.57,12.139,12.139,0,0,1,.35,3.012.662.662,0,0,1-.668.648l-3.035-.033a.729.729,0,0,1-.718-.661l-.267-2.855A.531.531,0,0,1,606.283,284.041Z" transform="translate(-600.567 -255.976)" fill="url(#linear-gradient-13)"/>
          <path id="Path_44924" data-name="Path 44924" d="M620.251,287.154l.21,1.4h8.292l-.013-1.045Z" transform="translate(-609.381 -257.936)" fill="#fff" opacity="0.6"/>
          <path id="Path_44925" data-name="Path 44925" d="M648.648,284.041c.8-.061,2.292-.089,3.114-.1a.746.746,0,0,1,.736.57,12.174,12.174,0,0,1,.35,3.012.662.662,0,0,1-.668.648l-3.035-.033a.729.729,0,0,1-.718-.661l-.267-2.855A.531.531,0,0,1,648.648,284.041Z" transform="translate(-626.396 -255.976)" fill="url(#linear-gradient-14)"/>
          <path id="Path_44926" data-name="Path 44926" d="M662.615,287.154l.21,1.4h8.292l-.013-1.045Z" transform="translate(-635.211 -257.936)" fill="#fff" opacity="0.6"/>
          <path id="Path_44927" data-name="Path 44927" d="M608.967,300.98c1.991-.084,6.318-.356,8.37-.372a2,2,0,0,1,1.836.785,12.463,12.463,0,0,1,.275,4.382c-.021.5-.761.9-1.667.893l-7.573-.045c-.931-.006-1.7-.4-1.791-.911l-.666-3.933C607.682,301.372,608.229,301.011,608.967,300.98Z" transform="translate(-601.757 -266.139)" fill="url(#linear-gradient-15)"/>
          <path id="Path_44928" data-name="Path 44928" d="M609.895,319.207l.28,2.779h11.052l-.017-2.075Z" transform="translate(-603.067 -277.479)" fill="#fff" opacity="0.6"/>
          <path id="Path_44929" data-name="Path 44929" d="M609.738,331.98c.736-.05,2.336-.213,3.1-.223a.679.679,0,0,1,.679.469,11.9,11.9,0,0,1,.1,2.618.583.583,0,0,1-.616.533l-2.8-.027a.647.647,0,0,1-.662-.544l-.246-2.35A.455.455,0,0,1,609.738,331.98Z" transform="translate(-602.696 -285.131)" fill="url(#linear-gradient-16)"/>
          <path id="Path_44930" data-name="Path 44930" d="M610.081,342.869l.1,5.4h4.087l-.006-4.978Z" transform="translate(-603.181 -291.905)" fill="#fff" opacity="0.6"/>
          <path id="Path_44931" data-name="Path 44931" d="M623.771,331.98c.736-.05,2.336-.213,3.1-.223a.679.679,0,0,1,.679.469,11.927,11.927,0,0,1,.1,2.618.583.583,0,0,1-.616.533l-2.8-.027a.647.647,0,0,1-.662-.544l-.246-2.35A.455.455,0,0,1,623.771,331.98Z" transform="translate(-611.252 -285.131)" fill="url(#linear-gradient-17)"/>
          <path id="Path_44932" data-name="Path 44932" d="M624.114,342.869l.1,5.4H628.3l-.006-4.978Z" transform="translate(-611.737 -291.905)" fill="#fff" opacity="0.6"/>
          <path id="Path_44933" data-name="Path 44933" d="M645.638,304.106h-.007l-2.8-.027a.754.754,0,0,1-.769-.64l-.246-2.35a.514.514,0,0,1,.121-.384.615.615,0,0,1,.429-.211h0c.236-.016.562-.044.92-.074.779-.066,1.663-.142,2.181-.148h.011a.781.781,0,0,1,.773.549,11.741,11.741,0,0,1,.1,2.648A.692.692,0,0,1,645.638,304.106Zm-3.259-3.4a.4.4,0,0,0-.278.135.3.3,0,0,0-.072.224l.246,2.35a.539.539,0,0,0,.557.447l2.8.027h0a.478.478,0,0,0,.5-.429,11.665,11.665,0,0,0-.1-2.586.575.575,0,0,0-.566-.39h-.008c-.511.007-1.428.085-2.166.148-.359.03-.687.059-.924.075Z" transform="translate(-622.527 -265.934)" fill="#fff"/>
          <path id="Path_44934" data-name="Path 44934" d="M643.473,301.736c.588-.04,1.867-.17,2.473-.178a.542.542,0,0,1,.543.375,9.522,9.522,0,0,1,.081,2.092.467.467,0,0,1-.493.427l-2.238-.022a.517.517,0,0,1-.53-.434l-.2-1.878A.364.364,0,0,1,643.473,301.736Z" transform="translate(-623.32 -266.718)" fill="#fff" opacity="0.6"/>
          <path id="Path_44935" data-name="Path 44935" d="M657.325,303.853l.369,1.4h14.562l-.023-1.045Z" transform="translate(-631.985 -268.117)" fill="#fff" opacity="0.6"/>
          <path id="Path_44936" data-name="Path 44936" d="M644,299.833h0a.43.43,0,0,1,.593.161l.553.99a.138.138,0,0,0,.246-.011l1.37-3.05a.153.153,0,0,1,.292.066,6.023,6.023,0,0,1-1.752,4.191,3.273,3.273,0,0,1-1.483-1.772A.451.451,0,0,1,644,299.833Z" transform="translate(-623.723 -264.447)" fill="url(#linear-gradient-18)"/>
          <path id="Path_44937" data-name="Path 44937" d="M645.638,319.485h-.007l-2.8-.027a.754.754,0,0,1-.769-.64l-.246-2.35a.514.514,0,0,1,.121-.384.616.616,0,0,1,.429-.211h0c.236-.016.562-.044.92-.075.779-.066,1.663-.142,2.181-.148h.011a.782.782,0,0,1,.773.549,11.738,11.738,0,0,1,.1,2.648A.692.692,0,0,1,645.638,319.485Zm-3.259-3.4a.4.4,0,0,0-.278.135.3.3,0,0,0-.072.224l.246,2.349a.539.539,0,0,0,.557.448l2.8.027h0a.478.478,0,0,0,.5-.429,11.669,11.669,0,0,0-.1-2.587.574.574,0,0,0-.566-.39h-.008c-.511.006-1.428.084-2.166.147-.359.031-.687.059-.924.075Z" transform="translate(-622.527 -275.31)" fill="#fff"/>
          <path id="Path_44938" data-name="Path 44938" d="M643.473,317.115c.588-.04,1.867-.17,2.473-.178a.543.543,0,0,1,.543.375,9.521,9.521,0,0,1,.081,2.092.466.466,0,0,1-.493.426l-2.238-.021a.518.518,0,0,1-.53-.435l-.2-1.878A.364.364,0,0,1,643.473,317.115Z" transform="translate(-623.32 -276.095)" fill="#fff" opacity="0.6"/>
          <path id="Path_44939" data-name="Path 44939" d="M657.325,319.232l.369,1.4h14.562l-.023-1.045Z" transform="translate(-631.985 -277.494)" fill="#fff" opacity="0.6"/>
          <path id="Path_44940" data-name="Path 44940" d="M644,315.212h0a.43.43,0,0,1,.593.161l.553.991a.138.138,0,0,0,.246-.011l1.37-3.05a.153.153,0,0,1,.292.066,6.022,6.022,0,0,1-1.752,4.191,3.274,3.274,0,0,1-1.483-1.772A.451.451,0,0,1,644,315.212Z" transform="translate(-623.723 -273.824)" fill="url(#linear-gradient-19)"/>
          <path id="Path_44941" data-name="Path 44941" d="M645.638,334.865h-.007l-2.8-.027a.754.754,0,0,1-.769-.64l-.246-2.35a.514.514,0,0,1,.121-.384.616.616,0,0,1,.429-.211h0c.236-.016.562-.044.92-.074.779-.066,1.663-.142,2.181-.148a.8.8,0,0,1,.785.549,11.742,11.742,0,0,1,.1,2.648A.692.692,0,0,1,645.638,334.865Zm-3.259-3.4a.4.4,0,0,0-.278.135.3.3,0,0,0-.072.224l.246,2.35a.539.539,0,0,0,.557.448l2.8.027h0a.478.478,0,0,0,.5-.429,11.666,11.666,0,0,0-.1-2.587.574.574,0,0,0-.566-.39h-.008c-.511.007-1.428.085-2.166.147-.359.031-.687.059-.924.075Z" transform="translate(-622.527 -284.687)" fill="#fff"/>
          <path id="Path_44942" data-name="Path 44942" d="M643.473,332.493c.588-.04,1.867-.17,2.473-.178a.543.543,0,0,1,.543.375,9.522,9.522,0,0,1,.081,2.092.466.466,0,0,1-.493.426l-2.238-.021a.518.518,0,0,1-.53-.435l-.2-1.878A.364.364,0,0,1,643.473,332.493Z" transform="translate(-623.32 -285.471)" fill="#fff" opacity="0.6"/>
          <path id="Path_44943" data-name="Path 44943" d="M657.325,334.612l.369,1.4h14.562l-.023-1.045Z" transform="translate(-631.985 -286.871)" fill="#fff" opacity="0.6"/>
          <path id="Path_44944" data-name="Path 44944" d="M644,330.591h0a.43.43,0,0,1,.593.161l.553.99a.138.138,0,0,0,.246-.011l1.37-3.051a.153.153,0,0,1,.292.066,6.023,6.023,0,0,1-1.752,4.191,3.273,3.273,0,0,1-1.483-1.772A.451.451,0,0,1,644,330.591Z" transform="translate(-623.723 -283.2)" fill="url(#linear-gradient-20)"/>
          <path id="Path_44945" data-name="Path 44945" d="M645.638,350.244h-.007l-2.8-.027a.755.755,0,0,1-.769-.641l-.246-2.35a.514.514,0,0,1,.121-.384.617.617,0,0,1,.429-.211h0c.236-.016.562-.044.92-.074.779-.066,1.663-.142,2.181-.148h.011a.781.781,0,0,1,.773.549,11.741,11.741,0,0,1,.1,2.648A.692.692,0,0,1,645.638,350.244Zm-3.259-3.4a.4.4,0,0,0-.278.135.3.3,0,0,0-.072.223l.246,2.35a.539.539,0,0,0,.557.448l2.8.027h0a.478.478,0,0,0,.5-.429,11.665,11.665,0,0,0-.1-2.586.575.575,0,0,0-.566-.39h-.008c-.511.007-1.428.085-2.166.148-.359.031-.687.059-.924.075Z" transform="translate(-622.527 -294.064)" fill="#fff"/>
          <path id="Path_44946" data-name="Path 44946" d="M643.473,347.873c.588-.04,1.867-.17,2.473-.178a.542.542,0,0,1,.543.375,9.522,9.522,0,0,1,.081,2.092.467.467,0,0,1-.493.427l-2.238-.022a.517.517,0,0,1-.53-.434l-.2-1.878A.364.364,0,0,1,643.473,347.873Z" transform="translate(-623.32 -294.848)" fill="#fff" opacity="0.6"/>
          <path id="Path_44947" data-name="Path 44947" d="M657.325,349.991l.369,1.4h14.562l-.023-1.045Z" transform="translate(-631.985 -296.248)" fill="#fff" opacity="0.6"/>
          <path id="Path_44948" data-name="Path 44948" d="M644,345.971h0a.43.43,0,0,1,.593.161l.553.99a.138.138,0,0,0,.246-.011l1.37-3.05a.153.153,0,0,1,.292.066,6.023,6.023,0,0,1-1.752,4.191,3.273,3.273,0,0,1-1.483-1.772A.451.451,0,0,1,644,345.971Z" transform="translate(-623.723 -292.577)" fill="url(#linear-gradient-21)"/>
        </g>
        <path id="Path_44949" data-name="Path 44949" d="M645.112,192.274a3.989,3.989,0,0,0-3.521-.711,1.732,1.732,0,0,0-1.23,1.821l.374,4.088,4.456.4S647.894,194.21,645.112,192.274Zm-1.96,3.3a1.111,1.111,0,1,1,1.111-1.111A1.111,1.111,0,0,1,643.153,195.571Z" transform="translate(-618.421 -191.414)" fill="url(#linear-gradient-22)"/>
        <path id="Path_44950" data-name="Path 44950" d="M642.042,196.687a.107.107,0,0,1-.107-.1l-.059-.651a.108.108,0,0,1,.1-.117.1.1,0,0,1,.117.1l.059.651a.107.107,0,0,1-.1.117Zm-.117-1.276a.108.108,0,0,1-.107-.1l-.045-.494a1.654,1.654,0,0,1,1.172-1.735,3.344,3.344,0,0,1,1.629-.067.108.108,0,0,1,.084.127.1.1,0,0,1-.127.084,3.125,3.125,0,0,0-1.525.063,1.437,1.437,0,0,0-1.019,1.509l.045.494a.107.107,0,0,1-.1.117Z" transform="translate(-619.281 -192.349)" fill="#fff"/>
        <path id="Path_44951" data-name="Path 44951" d="M625.75,208.532v-2.055a1.254,1.254,0,0,1,1.3-1.253l14.168.486a1.219,1.219,0,0,1,1.176,1.146l.119,1.975Z" transform="translate(-609.517 -199.833)" fill="url(#linear-gradient-23)"/>
        <path id="Path_44952" data-name="Path 44952" d="M638.166,206.873h-.609a.108.108,0,1,1,0-.215h.609a.108.108,0,1,1,0,.215Z" transform="translate(-616.65 -200.708)" fill="#fff"/>
        <path id="Path_44953" data-name="Path 44953" d="M627.547,208.762a.107.107,0,0,1-.107-.107v-.831a1.166,1.166,0,0,1,1.165-1.165h2.24a.108.108,0,1,1,0,.215H628.6a.951.951,0,0,0-.95.95v.831A.107.107,0,0,1,627.547,208.762Z" transform="translate(-610.547 -200.708)" fill="#fff"/>
        <path id="Path_44954" data-name="Path 44954" d="M612.2,211.773h24.776a1.831,1.831,0,0,1,1.8,1.519l.021.121a1.572,1.572,0,0,1-1.549,1.841H611.838a1.022,1.022,0,0,1-1.021-1.071l.055-1.138A1.335,1.335,0,0,1,612.2,211.773Z" transform="translate(-600.412 -203.827)" fill="url(#linear-gradient-24)"/>
      </g>
      <g id="Group_8860" data-name="Group 8860" transform="translate(586.826 246.122)">
        <g id="Group_8858" data-name="Group 8858" transform="translate(6.981 7.246)">
          <path id="Path_44955" data-name="Path 44955" d="M715.091,358.281s3.761,5.438,7.71,3.874c3.174-1.258-1.082-1.383-4.541-2.634a.226.226,0,0,1,.135-.431c2.738.738,6.951,1.6,7.882.248,1.406-2.046.23-1.478-3.206-1.61s-3.979-1.057-1.694-1.286,5.655,1.393,6.618.428,1.694-3.036,2.143-3.909-3.921-2.851-5.311-1.811-2.745,3.593-4.27,3.89.36-1.87,1.491-2.968,1.635-1.958-.338-1.922-3.309,2.263-3.746,4-1.25,2.631-1.1,1.763.817-3.5,1.542-4.223S714.583,351.362,715.091,358.281Z" transform="translate(-715.051 -350.148)" fill="url(#linear-gradient-25)"/>
          <path id="Path_44956" data-name="Path 44956" d="M716.008,364.191a.059.059,0,0,0,.06,0c4.218-2.806,10.876-4.37,10.943-4.385a.058.058,0,1,0-.027-.114c-.067.015-6.745,1.584-10.981,4.4a.058.058,0,0,0-.016.081A.061.061,0,0,0,716.008,364.191Z" transform="translate(-715.616 -355.964)" fill="#fff" opacity="0.53"/>
        </g>
        <g id="Group_8859" data-name="Group 8859" transform="translate(0 0)">
          <path id="Path_44957" data-name="Path 44957" d="M701.116,349.711s8.007,1.33,10-3.488c1.6-3.873-2.144-.227-6.2,1.754a.278.278,0,0,1-.264-.488c2.991-1.783,7.352-4.757,6.952-6.736-.6-2.987-1.106-1.465-4.158,1.45s-4.331,2.6-2.581.4,6.059-3.8,6.031-5.469-1.229-4.087-1.616-5.229-5.863,1.021-6.133,3.135.823,5.489-.219,7.087-1.341-1.915-1.343-3.85-.329-3.115-1.983-1.344-.833,4.85.324,6.719,1.252,3.35.612,2.479-2.388-3.711-2.405-4.967S694.583,344.248,701.116,349.711Z" transform="translate(-697.164 -331.584)" fill="url(#linear-gradient-26)"/>
          <path id="Path_44958" data-name="Path 44958" d="M708.126,356.259a.07.07,0,0,0,.049-.055c1.13-6.116,5.439-13.321,5.482-13.393a.072.072,0,0,0-.123-.074c-.043.072-4.366,7.3-5.5,13.442a.072.072,0,0,0,.057.084A.074.074,0,0,0,708.126,356.259Z" transform="translate(-703.791 -338.362)" fill="#fff" opacity="0.53"/>
        </g>
      </g>
    </g>
  </g>
</svg>
