<svg width="23" height="24" viewBox="0 0 23 24" fill="none" xmlns="http://www.w3.org/2000/svg">
<path d="M16.7143 0C13.4756 0 10.8119 2.51613 10.5893 5.69671L7.02683 4.58951C6.95457 4.56897 6.87823 4.56286 6.80362 4.57166C6.76445 4.57366 0.401834 6.53605 0.401834 6.53605C0.168422 6.60861 -0.00330721 6.84521 4.83327e-05 7.08963V23.4298C0.000734047 23.786 0.400914 24.0802 0.74112 23.9744L6.85719 22.0814L12.9733 23.9744C13.0829 24.0085 13.2029 24.0085 13.3125 23.9744L19.5983 22.0279C19.8288 21.9562 19.9996 21.7247 20 21.4832V12.0006C20.2493 11.7024 20.4979 11.3985 20.7322 11.0898C21.8858 9.57035 22.8265 7.92031 22.8572 6.14317C22.8573 6.13723 22.8573 6.13126 22.8572 6.12531C22.8572 2.74274 20.0981 2.85714e-06 16.7143 0ZM16.7143 1.14291C19.4784 1.14291 21.7094 3.35813 21.7143 6.11637C21.7143 6.11923 21.7144 6.12247 21.7143 6.1253C21.6875 7.49562 20.9091 8.96084 19.8215 10.3934C18.8652 11.6529 17.7189 12.8661 16.7143 14.0007C15.7095 12.865 14.5628 11.6634 13.6072 10.4023C12.5218 8.96985 11.7412 7.49617 11.7143 6.1253C11.7143 6.12224 11.7143 6.11939 11.7143 6.11639C11.7193 3.35706 13.9503 1.14293 16.7143 1.14293V1.14291ZM16.7143 3.14301C15.0642 3.14301 13.7143 4.493 13.7143 6.14317C13.7143 7.79334 15.0642 9.14331 16.7143 9.14331C18.3644 9.14331 19.7143 7.79334 19.7143 6.14317C19.7143 4.493 18.3644 3.14301 16.7143 3.14301ZM16.7143 4.28592C17.7468 4.28592 18.5715 5.11068 18.5715 6.14317C18.5715 7.17566 17.7468 8.0004 16.7143 8.0004C15.6819 8.0004 14.8572 7.17566 14.8572 6.14317C14.8572 5.11068 15.6819 4.28592 16.7143 4.28592ZM6.28576 5.91994V21.0546L1.14291 22.644V7.50929L6.28576 5.91994ZM7.42862 5.91994L10.6429 6.91106C10.8722 8.3313 11.6455 9.66264 12.5715 10.9113C12.5729 10.9133 12.57 10.9183 12.5715 10.9202V22.644L7.42862 21.0546V5.91992V5.91994ZM13.7143 12.3399C14.6045 13.3799 15.5291 14.3508 16.2768 15.224C16.4906 15.4722 16.9291 15.4722 17.1429 15.224C17.6533 14.628 18.2462 13.9907 18.8572 13.3132V21.0546L13.7143 22.644V12.3399Z" fill="white"/>
</svg>
