<svg width="29" height="26" viewBox="0 0 29 26" fill="none" xmlns="http://www.w3.org/2000/svg">
<path d="M11.4014 11.6491L11.4014 11.6491C10.5811 11.5649 9.65244 11.3964 8.79474 11.0999C8.06744 10.8485 7.38211 10.502 6.85833 10.0291V12.5415C6.85833 12.7025 6.88578 12.859 6.96298 13.015C8.58864 13.0022 10.3167 13.7511 11.4898 15.0644C12.7118 15.1763 14.041 15.0997 15.225 14.8005C15.2247 14.2442 15.2222 13.8222 15.2198 13.4971C15.219 13.3904 15.2182 13.294 15.2175 13.2066C15.2158 13.0099 15.2146 12.8589 15.2146 12.7394C15.2146 12.39 15.2253 12.2945 15.2699 12.0938C15.27 12.0933 15.2701 12.0928 15.2702 12.0923L15.4167 12.1248C15.4806 11.8052 15.6426 11.5101 15.8462 11.2583L11.4014 11.6491ZM11.4014 11.6491L11.4039 11.6493C12.718 11.7619 14.2686 11.6742 15.61 11.3235L11.4014 11.6491ZM28.4833 12.5415H28.4834L28.4833 12.5382C28.4607 11.5193 27.6822 10.6474 26.4956 10.0383C25.3032 9.42608 23.6639 9.05817 21.8333 9.05817C20.8564 9.05817 19.9508 9.16686 19.15 9.35124V8.24984C19.15 7.22887 18.3802 6.35584 17.1935 5.7466C16.0009 5.1343 14.3511 4.7665 12.5 4.7665C10.6489 4.7665 8.99914 5.1343 7.80649 5.7466C6.61981 6.35584 5.85 7.22887 5.85 8.24984V13.1217C3.00627 13.6034 0.85 16.0951 0.85 19.0832C0.85 22.416 3.58382 25.1498 6.91667 25.1498C7.96682 25.1498 8.97274 24.8612 9.85408 24.4081C12.2571 24.9341 15.1837 24.7338 17.1664 23.7109C18.356 24.328 20.0185 24.6915 21.8333 24.6915C23.6638 24.6915 25.3134 24.3236 26.511 23.7115C27.7019 23.1028 28.4833 22.23 28.4833 21.2082V12.5415ZM16.1057 12.3614L16.1057 12.3614L16.1065 12.3567C16.1714 11.9483 16.4256 11.5936 16.8209 11.2878C17.2168 10.9816 17.7438 10.7329 18.3287 10.538C19.4985 10.148 20.8675 9.98317 21.7917 9.98317C23.3783 9.98317 24.8248 10.2926 25.8692 10.7766C26.3916 11.0186 26.8071 11.3015 27.0901 11.6053C27.3726 11.9087 27.5167 12.2254 27.5167 12.5415C27.5167 12.8576 27.3726 13.1743 27.0901 13.4777C26.8071 13.7815 26.3916 14.0644 25.8692 14.3064C24.8248 14.7904 23.3783 15.0998 21.7917 15.0998C20.6617 15.0998 19.1288 14.8628 17.9304 14.3865C17.3306 14.1481 16.8268 13.8545 16.4976 13.5112C16.1723 13.1721 16.0232 12.7921 16.1057 12.3614ZM6.85408 8.50605L6.85008 8.48958L6.8425 8.47442C6.8195 8.42842 6.81667 8.38277 6.81667 8.24984C6.81667 7.59427 7.40624 6.95432 8.45861 6.4694C9.49758 5.99066 10.9337 5.6915 12.5 5.6915C14.0656 5.6915 15.5123 6.00082 16.5622 6.48501C17.0873 6.72719 17.5069 7.01019 17.7931 7.31424C18.079 7.6179 18.225 7.93448 18.225 8.24984C18.225 8.71856 17.9698 9.12182 17.5195 9.46669C17.0677 9.81266 16.434 10.0874 15.7189 10.2932C14.2895 10.7045 12.5797 10.8279 11.4731 10.7256C10.6891 10.643 9.61034 10.4471 8.68498 10.0842C7.74742 9.71638 7.02263 9.19895 6.85408 8.50605ZM6.79387 13.9415L6.79583 13.9414C9.71049 13.8605 12.0583 16.2084 12.0583 19.0415C12.0583 19.211 12.0576 19.3592 12.0211 19.5051L12.0167 19.523V19.5415V19.5417V19.542V19.5422V19.5425V19.5427V19.5429V19.5432V19.5434V19.5437V19.5439V19.5441V19.5444V19.5446V19.5448V19.5451V19.5453V19.5455V19.5457V19.546V19.5462V19.5464V19.5466V19.5469V19.5471V19.5473V19.5475V19.5478V19.548V19.5482V19.5484V19.5486V19.5488V19.5491V19.5493V19.5495V19.5497V19.5499V19.5501V19.5503V19.5505V19.5508V19.551V19.5512V19.5514V19.5516V19.5518V19.552V19.5522V19.5524V19.5526V19.5528V19.553V19.5532V19.5534V19.5536V19.5538V19.554V19.5542V19.5544V19.5546V19.5548V19.555V19.5551V19.5553V19.5555V19.5557V19.5559V19.5561V19.5563V19.5565V19.5567V19.5568V19.557V19.5572V19.5574V19.5576V19.5578V19.5579V19.5581V19.5583V19.5585V19.5587V19.5588V19.559V19.5592V19.5594V19.5595V19.5597V19.5599V19.5601V19.5602V19.5604V19.5606V19.5608V19.5609V19.5611V19.5613V19.5614V19.5616V19.5618V19.5619V19.5621V19.5623V19.5624V19.5626V19.5628V19.5629V19.5631V19.5633V19.5634V19.5636V19.5637V19.5639V19.5641V19.5642V19.5644V19.5645V19.5647V19.5648V19.565V19.5652V19.5653V19.5655V19.5656V19.5658V19.5659V19.5661V19.5662V19.5664V19.5665V19.5667V19.5668V19.567V19.5671V19.5673V19.5674V19.5676V19.5677V19.5679V19.568V19.5682V19.5683V19.5685V19.5686V19.5688V19.5689V19.5691V19.5692V19.5693V19.5695V19.5696V19.5698V19.5699V19.5701V19.5702V19.5703V19.5705V19.5706V19.5708V19.5709V19.571V19.5712V19.5713V19.5715V19.5716V19.5717V19.5719V19.572V19.5721V19.5723V19.5724V19.5725V19.5727V19.5728V19.573V19.5731V19.5732V19.5734V19.5735V19.5736V19.5738V19.5739V19.574V19.5741V19.5743V19.5744V19.5745V19.5747V19.5748V19.5749V19.5751V19.5752V19.5753V19.5755V19.5756V19.5757V19.5758V19.576V19.5761V19.5762V19.5764V19.5765V19.5766V19.5767V19.5769V19.577V19.5771V19.5772V19.5774V19.5775V19.5776V19.5777V19.5779V19.578V19.5781V19.5782V19.5784V19.5785V19.5786V19.5787V19.5789V19.579V19.5791V19.5792V19.5794V19.5795V19.5796V19.5797V19.5799V19.58V19.5801V19.5802V19.5804V19.5805V19.5806V19.5807V19.5808V19.581V19.5811V19.5812V19.5813V19.5815V19.5816V19.5817V19.5818V19.5819V19.5821V19.5822V19.5823V19.5824V19.5826V19.5827V19.5828V19.5829V19.583V19.5832V19.5833V19.5834V19.5835V19.5837V19.5838V19.5839V19.584V19.5841V19.5843V19.5844V19.5845V19.5846V19.5848V19.5849V19.585V19.5851V19.5852V19.5854V19.5855V19.5856V19.5857V19.5859V19.586V19.5861V19.5862V19.5864V19.5865V19.5866V19.5867V19.5868V19.587V19.5871V19.5872V19.5873V19.5875V19.5876V19.5877V19.5878V19.588V19.5881V19.5882V19.5883V19.5885V19.5886V19.5887V19.5888V19.589V19.5891V19.5892V19.5893V19.5895V19.5896V19.5897V19.5899V19.59V19.5901V19.5902V19.5904V19.5905V19.5906V19.5908V19.5909V19.591V19.5911V19.5913V19.5914V19.5915V19.5917V19.5918V19.5919V19.5921V19.5922V19.5923V19.5925V19.5926V19.5927V19.5929V19.593V19.5931V19.5933V19.5934V19.5935V19.5937V19.5938V19.5939V19.5941V19.5942V19.5943V19.5945V19.5946V19.5947V19.5949V19.595V19.5952V19.5953V19.5954V19.5956V19.5957V19.5959V19.596V19.5961V19.5963V19.5964V19.5966V19.5967V19.5968V19.597V19.5971V19.5973V19.5974V19.5976V19.5977V19.5979V19.598V19.5982V19.5983V19.5984V19.5986V19.5987V19.5989V19.599V19.5992V19.5993V19.5995V19.5996V19.5998V19.5999V19.6001V19.6002V19.6004V19.6006V19.6007V19.6009V19.601V19.6012V19.6013V19.6015V19.6016V19.6018V19.602V19.6021V19.6023V19.6024V19.6026V19.6028V19.6029V19.6031V19.6032V19.6034V19.6036V19.6037V19.6039V19.6041V19.6042V19.6044V19.6046V19.6047V19.6049V19.6051V19.6052V19.6054V19.6056V19.6058V19.6059V19.6061V19.6063V19.6064V19.6066V19.6068V19.607V19.6071V19.6073V19.6075V19.6077V19.6079V19.608V19.6082V19.6084V19.6086V19.6088V19.6089V19.6091V19.6093V19.6095V19.6097V19.6099V19.6101V19.6102V19.6104V19.6106V19.6108V19.611V19.6112V19.6114V19.6116V19.6118V19.612V19.6122V19.6124V19.6126V19.6127V19.6129V19.6131V19.6133V19.6135V19.6137V19.6139V19.6141V19.6144V19.6146V19.6148V19.615V19.6152V19.6154V19.6156V19.6158V19.616V19.6162V19.6164V19.6166C11.7296 22.2026 9.50496 24.1826 6.91774 24.1832C4.08233 24.1421 1.81667 21.8746 1.81667 19.0415C1.81667 16.2474 4.04357 13.9819 6.79387 13.9415ZM12.9833 19.0415C12.9833 18.0181 12.6941 16.9244 12.1483 15.9903C13.2292 16.0102 14.2509 15.9309 15.1833 15.695V19.0502C14.483 19.2256 13.721 19.3346 12.9556 19.3484C12.9568 19.3387 12.9582 19.3287 12.9595 19.3184L12.9612 19.3061C12.9716 19.2283 12.9833 19.136 12.9833 19.0415ZM12.8302 20.2741C13.6483 20.2644 14.4328 20.1572 15.1833 19.9821V21.1248C15.1833 21.8869 15.6748 22.5935 16.2368 23.0453C14.6479 23.6581 12.6259 23.8148 10.8887 23.5693C11.8087 22.7472 12.5368 21.5987 12.8302 20.2741ZM27.5583 21.1665C27.5583 21.4826 27.4143 21.7993 27.1318 22.1027C26.8488 22.4065 26.4333 22.6894 25.9109 22.9314C24.8665 23.4154 23.42 23.7248 21.8333 23.7248C20.8682 23.7248 19.4168 23.5393 18.2114 23.1136C17.6085 22.9007 17.0772 22.6311 16.6993 22.3026C16.3232 21.9758 16.1083 21.5999 16.1083 21.1665V18.6467C17.2684 19.6706 19.3863 20.3165 21.8333 20.3165C24.2803 20.3165 26.3982 19.6706 27.5583 18.6467V21.1665ZM27.5583 14.3171V16.8332C27.5583 17.1493 27.4143 17.466 27.1318 17.7694C26.8488 18.0732 26.4333 18.356 25.9109 18.5981C24.8665 19.0821 23.42 19.3915 21.8333 19.3915C20.2677 19.3915 18.8211 19.0822 17.7711 18.598C17.246 18.3558 16.8264 18.0728 16.5402 17.7688C16.2543 17.4651 16.1083 17.1485 16.1083 16.8332V14.3175C16.7701 14.9115 17.6731 15.3124 18.6219 15.5716C19.705 15.8675 20.8645 15.9832 21.8333 15.9832C22.7815 15.9832 23.9409 15.8674 25.0289 15.5717C25.9822 15.3125 26.8942 14.9115 27.5583 14.3171Z" fill="white" stroke="white" stroke-width="0.3"/>
<path d="M8.92895 4.41828L9.01615 4.54034L9.1382 4.45314L9.64677 4.08983L9.76882 4.00263L9.68163 3.88058L8.42214 2.11756L8.33495 1.99551L8.21289 2.0827L7.70433 2.44601L7.58227 2.53321L7.66947 2.65526L8.92895 4.41828Z" fill="white" stroke="white" stroke-width="0.3"/>
<path d="M12.9417 1V0.85H12.7917H12.1667H12.0167V1V3.16667V3.31667H12.1667H12.7917H12.9417V3.16667V1Z" fill="white" stroke="white" stroke-width="0.3"/>
<path d="M15.8027 4.46222L15.9248 4.54942L16.012 4.42736L17.2715 2.66434L17.3587 2.54229L17.2366 2.45509L16.728 2.09178L16.606 2.00459L16.5188 2.12664L15.2593 3.88966L15.1721 4.01171L15.2942 4.09891L15.8027 4.46222Z" fill="white" stroke="white" stroke-width="0.3"/>
<path d="M7.55833 17.9167V18.0667H7.70833H8.33333H8.48333V17.9167C8.48333 17.2265 8.03662 16.6107 7.4 16.4242V15.75V15.6H7.25H6.625H6.475V15.75V16.4241C5.83909 16.6092 5.35 17.2204 5.35 17.9167C5.35 18.7912 6.04216 19.4833 6.91667 19.4833C7.25049 19.4833 7.55833 19.7912 7.55833 20.125C7.55833 20.4588 7.25049 20.7667 6.91667 20.7667C6.58284 20.7667 6.275 20.4588 6.275 20.125V19.975H6.125H5.5H5.35V20.125C5.35 20.8193 5.80129 21.4356 6.475 21.6193V22.3333V22.4833H6.625H7.25H7.4V22.3333V21.6591C8.03662 21.4726 8.48333 20.8568 8.48333 20.1667C8.48333 19.2979 7.79677 18.5583 6.91667 18.5583C6.58284 18.5583 6.275 18.2505 6.275 17.9167C6.275 17.5828 6.58284 17.275 6.91667 17.275C7.25049 17.275 7.55833 17.5828 7.55833 17.9167Z" fill="white" stroke="white" stroke-width="0.3"/>
</svg>
