<svg width="38" height="38" viewBox="0 0 38 38" fill="none" xmlns="http://www.w3.org/2000/svg">
<path d="M19 0C15.2422 0 11.5687 1.11433 8.44417 3.20208C5.31964 5.28982 2.88436 8.25722 1.4463 11.729C0.00823231 15.2008 -0.368031 19.0211 0.365088 22.7067C1.09821 26.3923 2.90778 29.7778 5.56498 32.435C8.22217 35.0922 11.6076 36.9018 15.2933 37.6349C18.9789 38.368 22.7992 37.9918 26.271 36.5537C29.7428 35.1156 32.7102 32.6804 34.7979 29.5558C36.8857 26.4313 38 22.7578 38 19C37.9944 13.9626 35.9908 9.13312 32.4289 5.57114C28.8669 2.00916 24.0374 0.0055878 19 0ZM25.3333 21.1111H12.6667C12.1068 21.1111 11.5698 20.8887 11.1739 20.4928C10.778 20.0969 10.5556 19.5599 10.5556 19C10.5556 18.4401 10.778 17.9031 11.1739 17.5072C11.5698 17.1113 12.1068 16.8889 12.6667 16.8889H25.3333C25.8932 16.8889 26.4302 17.1113 26.8261 17.5072C27.222 17.9031 27.4444 18.4401 27.4444 19C27.4444 19.5599 27.222 20.0969 26.8261 20.4928C26.4302 20.8887 25.8932 21.1111 25.3333 21.1111Z" fill="#FFC0C0" fill-opacity="0.07"/>
<path d="M8.72196 3.61781C11.7642 1.58506 15.3409 0.500057 18.9997 0.5C23.9046 0.505512 28.607 2.45641 32.0753 5.9247C35.5437 9.39304 37.4946 14.0956 37.5 19.0005C37.4999 22.6593 36.4149 26.2359 34.3822 29.278C32.3494 32.3203 29.4601 34.6915 26.0796 36.0918C22.6992 37.492 18.9795 37.8583 15.3908 37.1445C11.8022 36.4307 8.5058 34.6687 5.91853 32.0815C3.33126 29.4942 1.56931 26.1978 0.855481 22.6092C0.141654 19.0205 0.508016 15.3008 1.90824 11.9204C3.30846 8.53992 5.67965 5.65062 8.72196 3.61781ZM12.6667 21.6111H25.3333C26.0258 21.6111 26.69 21.336 27.1797 20.8463C27.6694 20.3567 27.9444 19.6925 27.9444 19C27.9444 18.3075 27.6694 17.6433 27.1797 17.1537C26.69 16.664 26.0258 16.3889 25.3333 16.3889H12.6667C11.9742 16.3889 11.31 16.664 10.8203 17.1537C10.3307 17.6433 10.0556 18.3075 10.0556 19C10.0556 19.6925 10.3307 20.3567 10.8203 20.8463C11.31 21.336 11.9742 21.6111 12.6667 21.6111Z" stroke="#FF4B4B" stroke-opacity="0.99"/>
</svg>
