<svg width="30" height="27" viewBox="0 0 30 27" fill="none" xmlns="http://www.w3.org/2000/svg">
<path fill-rule="evenodd" clip-rule="evenodd" d="M6.87257 5.97085L2.70489 10.8428C1.25301 12.5401 2.15244 15.1538 4.71452 17.3455L11.628 23.2596C14.1901 25.4513 16.9068 25.9406 18.3635 24.2378L22.5311 19.3658C23.9878 17.663 23.0841 15.0543 20.522 12.8626L13.6085 6.94852C11.0464 4.75681 8.32927 4.26799 6.87257 5.97085Z" stroke="white" stroke-width="1.5" stroke-linecap="round" stroke-linejoin="round"/>
<path fill-rule="evenodd" clip-rule="evenodd" d="M11.5308 2.76278L7.3631 7.63475C5.91121 9.33199 6.81065 11.9457 9.37272 14.1374L16.2862 20.0515C18.8483 22.2432 21.565 22.7326 23.0217 21.0297L27.1893 16.1577C28.646 14.4549 27.7423 11.8462 25.1802 9.65451L18.2667 3.74045C15.7046 1.54874 12.9875 1.05993 11.5308 2.76278Z" stroke="white" stroke-width="1.5" stroke-linecap="round" stroke-linejoin="round"/>
</svg>
