<svg width="20" height="17" viewBox="0 0 20 17" fill="none" xmlns="http://www.w3.org/2000/svg">
<path fill-rule="evenodd" clip-rule="evenodd" d="M9.99962 5.64062C8.66962 5.64062 7.58862 6.72262 7.58862 8.05262C7.58862 9.38163 8.66962 10.4626 9.99962 10.4626C11.3296 10.4626 12.4116 9.38163 12.4116 8.05262C12.4116 6.72262 11.3296 5.64062 9.99962 5.64062ZM9.99962 11.9626C7.84262 11.9626 6.08862 10.2086 6.08862 8.05262C6.08862 5.89562 7.84262 4.14062 9.99962 4.14062C12.1566 4.14062 13.9116 5.89562 13.9116 8.05262C13.9116 10.2086 12.1566 11.9626 9.99962 11.9626Z" fill="white"/>
<mask id="mask0_1197:1612" style="mask-type:alpha" maskUnits="userSpaceOnUse" x="0" y="0" width="20" height="17">
<path fill-rule="evenodd" clip-rule="evenodd" d="M0.00012207 0H20V16.105H0.00012207V0Z" fill="white"/>
</mask>
<g mask="url(#mask0_1197:1612)">
<path fill-rule="evenodd" clip-rule="evenodd" d="M1.56987 8.05275C3.42987 12.1617 6.56287 14.6047 9.99987 14.6057C13.4369 14.6047 16.5699 12.1617 18.4299 8.05275C16.5699 3.94475 13.4369 1.50175 9.99987 1.50075C6.56387 1.50175 3.42987 3.94475 1.56987 8.05275ZM10.0019 16.1057H9.99787H9.99687C5.86087 16.1027 2.14687 13.2038 0.0608721 8.34875C-0.0201279 8.15975 -0.0201279 7.94575 0.0608721 7.75675C2.14687 2.90275 5.86187 0.00375 9.99687 0.00075C9.99887 -0.00025 9.99887 -0.00025 9.99987 0.00075C10.0019 -0.00025 10.0019 -0.00025 10.0029 0.00075C14.1389 0.00375 17.8529 2.90275 19.9389 7.75675C20.0209 7.94575 20.0209 8.15975 19.9389 8.34875C17.8539 13.2038 14.1389 16.1027 10.0029 16.1057H10.0019Z" fill="white"/>
</g>
</svg>
