<svg width="20" height="17" viewBox="0 0 20 17" fill="none" xmlns="http://www.w3.org/2000/svg">
<path fill-rule="evenodd" clip-rule="evenodd" d="M9.99962 5.64136C8.66962 5.64136 7.58862 6.72336 7.58862 8.05336C7.58862 9.38236 8.66962 10.4634 9.99962 10.4634C11.3296 10.4634 12.4116 9.38236 12.4116 8.05336C12.4116 6.72336 11.3296 5.64136 9.99962 5.64136ZM9.99962 11.9634C7.84262 11.9634 6.08862 10.2094 6.08862 8.05336C6.08862 5.89636 7.84262 4.14136 9.99962 4.14136C12.1566 4.14136 13.9116 5.89636 13.9116 8.05336C13.9116 10.2094 12.1566 11.9634 9.99962 11.9634Z" fill="white" fill-opacity="0.56"/>
<mask id="mask0_1203:3120" style="mask-type:alpha" maskUnits="userSpaceOnUse" x="0" y="0" width="20" height="17">
<path fill-rule="evenodd" clip-rule="evenodd" d="M0.000244141 0.000244141H20.0001V16.1052H0.000244141V0.000244141Z" fill="white"/>
</mask>
<g mask="url(#mask0_1203:3120)">
<path fill-rule="evenodd" clip-rule="evenodd" d="M1.56999 8.05251C3.42999 12.1615 6.56299 14.6045 9.99999 14.6055C13.437 14.6045 16.57 12.1615 18.43 8.05251C16.57 3.94451 13.437 1.50151 9.99999 1.50051C6.56399 1.50151 3.42999 3.94451 1.56999 8.05251ZM10.002 16.1055H9.99799H9.99699C5.86099 16.1025 2.14699 13.2035 0.0609941 8.34851C-0.0200059 8.15951 -0.0200059 7.94551 0.0609941 7.75651C2.14699 2.90251 5.86199 0.00350586 9.99699 0.000505859C9.99899 -0.000494141 9.99899 -0.000494141 9.99999 0.000505859C10.002 -0.000494141 10.002 -0.000494141 10.003 0.000505859C14.139 0.00350586 17.853 2.90251 19.939 7.75651C20.021 7.94551 20.021 8.15951 19.939 8.34851C17.854 13.2035 14.139 16.1025 10.003 16.1055H10.002Z" fill="white" fill-opacity="0.56"/>
</g>
</svg>
