<svg width="16" height="16" viewBox="0 0 16 16" fill="none" xmlns="http://www.w3.org/2000/svg">
<path d="M14.7589 6.54257L13.8501 6.40793L12.9918 7.2662L14.2035 7.45132V9.33615L12.9414 9.50444C12.7731 9.53809 12.6216 9.63907 12.5543 9.80736L12.0999 10.9181C12.0326 11.0695 12.0494 11.2546 12.1504 11.3893L12.9077 12.399L11.5782 13.7285L10.5685 12.9712C10.4339 12.8702 10.2488 12.8534 10.0973 12.9207L9.00342 13.3751C8.85196 13.4424 8.73416 13.577 8.7005 13.7453L8.51538 15.0075H6.64738L6.46227 13.7453C6.44544 13.577 6.32764 13.4424 6.15935 13.3751L5.04865 12.9207C4.89719 12.8534 4.71207 12.8702 4.57744 12.9712L3.56771 13.7285L2.23823 12.399L2.99553 11.3893C3.0965 11.2546 3.11333 11.0695 3.04602 10.9181L2.60847 9.80736C2.54115 9.6559 2.40652 9.53809 2.2214 9.50444L0.976072 9.33615V7.45132L2.2214 7.2662C2.38969 7.24938 2.54115 7.13157 2.60847 6.96329L3.06285 5.85258C3.13016 5.70112 3.11333 5.51601 3.01236 5.38138L2.25506 4.37165L3.58454 3.04217L4.59427 3.79947C4.7289 3.90044 4.91402 3.91727 5.06547 3.86678L6.17618 3.41241C6.32764 3.34509 6.44544 3.21046 6.46227 3.02534L6.64738 1.76318H8.53221L8.71733 2.97486L9.5756 2.11659L9.44097 1.20783C9.40731 0.972226 9.20537 0.787109 8.95293 0.787109H6.22666C5.99106 0.787109 5.77228 0.972226 5.73863 1.20783L5.53668 2.60462L4.93084 2.85705L3.80331 2.01561C3.6182 1.86415 3.34894 1.89781 3.16382 2.0661L1.26216 3.98458C1.09387 4.15287 1.07704 4.42213 1.21168 4.62408L2.05312 5.75161L1.80068 6.35745L0.420721 6.54257C0.185117 6.57622 0 6.77817 0 7.0306V9.75687C0 9.82418 0.0168288 9.90833 0.0504865 9.97564C0.0673153 10.0261 0.100973 10.0766 0.151459 10.1103C0.218775 10.1776 0.319748 10.2281 0.420721 10.2449L1.81751 10.4469L2.06994 11.0359L1.2285 12.1634C1.06022 12.3485 1.09387 12.6178 1.26216 12.8029L3.18065 14.7214C3.34894 14.8897 3.63503 14.9065 3.82014 14.7719L4.94767 13.9304L5.55351 14.1828L5.75546 15.5796C5.78911 15.8152 5.99106 16.0004 6.24349 16.0004H8.96976C9.20536 16.0004 9.42414 15.8152 9.4578 15.5796L9.65974 14.1828L10.2656 13.9304L11.3931 14.7719C11.5951 14.9233 11.8643 14.8897 12.0326 14.7214L13.9511 12.8029C14.1194 12.6346 14.1362 12.3653 14.0016 12.1634L13.1601 11.0359L13.4126 10.4469L14.8094 10.2449C15.045 10.2112 15.2301 10.0093 15.2301 9.7737V7.0306C15.1796 6.795 14.9945 6.57622 14.7589 6.54257Z" fill="white"/>
<path d="M15.5666 1.12332L14.8598 0.416513C14.3045 -0.138838 13.3452 -0.138838 12.7899 0.416513L6.59688 6.60952C6.54639 6.66001 6.51274 6.72732 6.47908 6.79464L5.57032 9.2853C5.45252 9.60505 5.53666 9.95845 5.77227 10.2109C5.94056 10.3792 6.15933 10.4633 6.39493 10.4633C6.49591 10.4633 6.59688 10.4465 6.69785 10.4128L9.18852 9.50408C9.25583 9.48725 9.32315 9.43676 9.37363 9.38627L15.5666 3.19327C15.8359 2.92401 15.9874 2.55377 15.9874 2.16671C15.9874 1.76282 15.8359 1.39258 15.5666 1.12332ZM6.56322 9.41993L7.32052 7.31633L8.65 8.64581L6.56322 9.41993ZM14.8767 2.50329L9.37363 8.00631L7.97684 6.60952L13.463 1.1065C13.6482 0.921378 13.9679 0.921378 14.153 1.1065L14.8598 1.81331C14.9608 1.91428 15.0113 2.03208 15.0113 2.16671C15.0113 2.28451 14.9608 2.41914 14.8767 2.50329Z" fill="white"/>
</svg>
