<svg width="105" height="33" viewBox="0 0 105 33" fill="none" xmlns="http://www.w3.org/2000/svg">
<path d="M42.5441 1.46484L37.2695 32.4182H45.7054L50.9844 1.46484H42.5441Z" fill="white"/>
<path d="M30.1964 1.50065L21.934 22.61L21.0531 19.4226C19.4236 15.5822 14.7978 10.0667 9.36694 6.59083L16.9219 32.4041L25.8482 32.3889L39.1335 1.49414L30.1964 1.50065Z" fill="white"/>
<path d="M17.8504 3.71589C17.3601 1.83039 15.9389 1.26843 14.1749 1.20117H1.09579L0.987305 1.81738C11.1655 4.28653 17.9004 10.2359 20.695 17.3895L17.8504 3.71589Z" fill="white"/>
<path d="M68.0819 7.39939C70.8417 7.35599 72.8422 7.95918 74.3958 8.58406L75.1573 8.94207L76.2986 2.23326C74.6279 1.60621 72.0091 0.933594 68.7414 0.933594C60.4053 0.933594 54.5297 5.13202 54.4842 11.1487C54.4299 15.5945 58.6696 18.0766 61.8721 19.5586C65.1592 21.0774 66.2614 22.0429 66.2463 23.399C66.2202 25.4711 63.6252 26.4214 61.2016 26.4214C57.8234 26.4214 56.029 25.9549 53.2583 24.8006L52.1712 24.3059L50.9844 31.2339C52.9588 32.0996 56.6018 32.8438 60.3836 32.8829C69.2513 32.8829 75.0141 28.7343 75.0749 22.3054C75.1118 18.7883 72.8618 16.1043 67.9864 13.9021C65.0356 12.4657 63.2303 11.511 63.2477 10.0616C63.2477 8.775 64.7795 7.39939 68.0819 7.39939Z" fill="white"/>
<path d="M97.9483 1.5H91.4305C89.4061 1.5 87.9003 2.05111 87.0107 4.06896L74.4849 32.436H83.3439C83.3439 32.436 84.7889 28.6216 85.1165 27.7863C86.0864 27.7863 94.6937 27.7993 95.9196 27.7993C96.1713 28.8798 96.9481 32.436 96.9481 32.436H104.774L97.9483 1.5ZM87.5445 21.4507C88.2388 19.6737 90.9054 12.8 90.9054 12.8C90.8598 12.8846 91.5932 11.0099 92.0293 9.84478L92.5978 12.5136C92.5978 12.5136 94.2142 19.9037 94.5527 21.4507H87.5445Z" fill="white"/>
</svg>
