<svg width="20" height="20" viewBox="0 0 20 20" fill="none" xmlns="http://www.w3.org/2000/svg">
<mask id="mask0_186:4827" style="mask-type:alpha" maskUnits="userSpaceOnUse" x="0" y="0" width="20" height="20">
<path fill-rule="evenodd" clip-rule="evenodd" d="M0 0H19.4996V19.5007H0V0Z" fill="white"/>
</mask>
<g mask="url(#mask0_186:4827)">
<path fill-rule="evenodd" clip-rule="evenodd" d="M6.773 9.599C6.791 9.615 6.808 9.63 6.825 9.648C7.904 10.754 8.499 12.219 8.499 13.774V17.758L10.735 16.54C10.911 16.444 11.02 16.256 11.02 16.049V13.762C11.02 12.213 11.609 10.753 12.678 9.653L17.515 4.508C17.828 4.175 18 3.738 18 3.277V2.341C18 1.877 17.634 1.5 17.186 1.5H2.315C1.866 1.5 1.5 1.877 1.5 2.341V3.277C1.5 3.738 1.672 4.175 1.985 4.507L6.773 9.599ZM8.146 19.501C7.944 19.501 7.744 19.447 7.562 19.339C7.21 19.129 6.999 18.758 6.999 18.346V13.774C6.999 12.639 6.576 11.57 5.805 10.751C5.782 10.732 5.759 10.711 5.739 10.689L0.893 5.536C0.317 4.924 0 4.121 0 3.277V2.341C0 1.05 1.039 0 2.315 0H17.186C18.461 0 19.5 1.05 19.5 2.341V3.277C19.5 4.12 19.183 4.922 18.609 5.535L13.762 10.689C12.959 11.517 12.52 12.606 12.52 13.762V16.049C12.52 16.805 12.111 17.497 11.453 17.857L8.692 19.361C8.52 19.454 8.333 19.501 8.146 19.501Z" fill="white"/>
</g>
</svg>
