<svg width="54" height="45" viewBox="0 0 54 45" fill="none" xmlns="http://www.w3.org/2000/svg">
<path d="M34.9238 16.002H44.1379V21.1209H34.9238V16.002Z" fill="white"/>
<path d="M10.1482 24.1934H19.3622V29.3123H10.1482V24.1934Z" fill="white"/>
<path d="M10.1482 16.002H19.3622V21.1209H10.1482V16.002Z" fill="white"/>
<path d="M22.4336 18.0508H31.8524V27.2648H22.4336V18.0508Z" fill="white"/>
<path d="M34.9238 24.1934H44.1379V29.3123H34.9238V24.1934Z" fill="white"/>
<path d="M20.8979 12.9327C21.746 12.9327 22.4336 13.6202 22.4336 14.4683V14.9802H25.6073V11.397C25.6073 10.9896 25.7691 10.5991 26.0572 10.3112L26.507 9.86133H10.1482V12.9327H20.8979Z" fill="white"/>
<path d="M28.6787 12.0331V14.9802H31.8524V14.4683C31.8524 13.6202 32.54 12.9327 33.3881 12.9327H44.1378V9.86133H30.8505L28.6787 12.0331Z" fill="white"/>
<path d="M33.388 32.3835C32.5399 32.3835 31.8524 31.6959 31.8524 30.8478V30.3359H28.6786V33.9192C28.6786 34.3265 28.5169 34.7171 28.2288 35.005L27.7791 35.4548H44.1378V32.3835H33.388Z" fill="white"/>
<path d="M25.6073 33.2831V30.3359H22.4336V30.8478C22.4336 31.6959 21.746 32.3835 20.8979 32.3835H10.1482V35.4548H23.4356L25.6073 33.2831Z" fill="white"/>
<path d="M45.6734 0.646484H8.61245C4.3786 0.646484 0.934082 4.091 0.934082 8.32485V36.9907C0.934082 41.2246 4.3786 44.6691 8.61245 44.6691H45.6734C49.9072 44.6691 53.3517 41.2246 53.3517 36.9907V8.32485C53.3517 4.091 49.9072 0.646484 45.6734 0.646484ZM47.209 36.9907C47.209 37.8388 46.5215 38.5264 45.6734 38.5264H8.61245C7.76435 38.5264 7.07677 37.8388 7.07677 36.9907V8.32485C7.07677 7.47675 7.76435 6.78918 8.61245 6.78918H45.6734C46.5215 6.78918 47.209 7.47675 47.209 8.32485V36.9907Z" fill="white"/>
</svg>
