<svg xmlns="http://www.w3.org/2000/svg" width="148.644" height="154.022" viewBox="0 0 148.644 154.022"><defs><style>.a{fill:#e6e7e8;}.b{fill:#453890;}.c{fill:#0089ef;}.d{fill:#6dc9f7;}.e{fill:#f6dd6f;}.f{fill:#ffd000;}.g{fill:#fff;}.h{fill:#54349f;}.i{fill:#fa759e;}.j{fill:#d4fbff;}.k{fill:#3a2c60;}</style></defs><g transform="translate(-6.78 -4.695)"><path class="a" d="M131.518,62.846a30.814,30.814,0,1,0-40.249,0,33.656,33.656,0,0,0-8.089,4.106A30.807,30.807,0,1,0,33.489,98.911a33.819,33.819,0,0,0-22.712,31.9v22.814a3.9,3.9,0,0,0,3.9,3.9H92.55a3.9,3.9,0,0,0,3.9-3.9V130.81a33.644,33.644,0,0,0-1.325-9.345l55.212-.007a3.9,3.9,0,0,0,3.9-3.9V94.745A33.822,33.822,0,0,0,131.518,62.846Z" transform="translate(1.194 1.196)"/><path class="b" d="M111.217,46.786a29.494,29.494,0,0,1-34.834,0,32.48,32.48,0,0,0-24.12,31.381v22.814a2.6,2.6,0,0,0,2.6,2.6h77.876a2.6,2.6,0,0,0,2.6-2.6V78.167a32.48,32.48,0,0,0-24.113-31.38Z" transform="translate(13.593 12.579)"/><path class="c" d="M85.706,51.021,79.346,56.1l3.6,7.564h5.516l3.6-7.563Z" transform="translate(21.686 13.844)"/><path class="c" d="M85.507,94.862,91,90.677,88.266,60.754H82.75L80.012,90.677Z" transform="translate(21.885 16.753)"/><path class="d" d="M84.421,52.11l11.612,9.269L99.225,48a29.38,29.38,0,0,1-14.8,4.11Z" transform="translate(23.203 12.942)"/><path class="d" d="M72.668,48l3.191,13.378L87.471,52.11A29.365,29.365,0,0,1,72.668,48Z" transform="translate(19.69 12.942)"/><circle class="e" cx="29.515" cy="29.515" r="29.515" transform="translate(77.878 6.028)"/><circle class="f" cx="23.612" cy="23.612" r="23.612" transform="translate(83.781 11.931)"/><path class="g" d="M95.45,44.754a10.686,10.686,0,0,1-6.142,2.833v2.586a2.131,2.131,0,0,1-.574,1.54,2.238,2.238,0,0,1-3.039,0,2.126,2.126,0,0,1-.574-1.54v-2.5a18.5,18.5,0,0,1-4.558-.986,13.023,13.023,0,0,1-3.819-2.052,2.078,2.078,0,0,1-.739-.821A2.685,2.685,0,0,1,75.8,42.7a2.39,2.39,0,0,1,.513-1.518,1.47,1.47,0,0,1,1.169-.657,1.978,1.978,0,0,1,.76.143,8.558,8.558,0,0,1,.923.473,15.125,15.125,0,0,0,3.716,1.805,12.674,12.674,0,0,0,3.839.575,7.263,7.263,0,0,0,4.25-1.066,3.554,3.554,0,0,0,1.5-3.081,2.478,2.478,0,0,0-.821-1.93,5.989,5.989,0,0,0-2.053-1.169q-1.231-.43-3.448-1.007a37.158,37.158,0,0,1-5.008-1.581,8.655,8.655,0,0,1-3.326-2.443,6.612,6.612,0,0,1-1.4-4.433A7.653,7.653,0,0,1,78.8,21.145a10.921,10.921,0,0,1,6.241-2.915V15.643a2.124,2.124,0,0,1,.575-1.54,2.238,2.238,0,0,1,3.039,0,2.134,2.134,0,0,1,.574,1.54v2.546a13.768,13.768,0,0,1,7.144,3,2.3,2.3,0,0,1,.986,1.93,2.4,2.4,0,0,1-.513,1.52,1.508,1.508,0,0,1-1.212.649,2.151,2.151,0,0,1-.718-.122,4.806,4.806,0,0,1-.923-.494,15.627,15.627,0,0,0-3.182-1.786,9.612,9.612,0,0,0-3.551-.595,6.666,6.666,0,0,0-4.065,1.129,3.652,3.652,0,0,0-1.518,3.1,2.933,2.933,0,0,0,.861,2.2,5.729,5.729,0,0,0,2.177,1.3q1.313.452,3.572,1.026a35.378,35.378,0,0,1,4.885,1.52A8.313,8.313,0,0,1,96.39,34.92a6.444,6.444,0,0,1,1.334,4.286,7.5,7.5,0,0,1-2.273,5.549Z" transform="translate(20.626 2.634)"/><path class="h" d="M66.73,74.553a29.494,29.494,0,0,1-34.834,0A32.482,32.482,0,0,0,7.778,105.934v22.814a2.6,2.6,0,0,0,2.6,2.6H88.252a2.6,2.6,0,0,0,2.6-2.6V105.934a32.481,32.481,0,0,0-24.113-31.38Z" transform="translate(0.298 20.877)"/><path class="g" d="M88.252,115.877H10.376a2.6,2.6,0,0,1-2.6-2.6v3.9a2.6,2.6,0,0,0,2.6,2.6H88.252a2.6,2.6,0,0,0,2.6-2.6v-3.9A2.6,2.6,0,0,1,88.252,115.877Z" transform="translate(0.298 32.45)"/><path class="i" d="M41.22,78.936h-.231l-6.129,4.89,3.6,7.563h5.516l3.6-7.563-6.129-4.893c-.078,0-.153,0-.231,0Z" transform="translate(8.392 22.186)"/><path class="i" d="M41.021,122.629l5.5-4.185L43.779,88.521H38.263l-2.737,29.923Z" transform="translate(8.591 25.051)"/><path class="j" d="M39.935,79.877l11.612,9.269,3.191-13.378A29.365,29.365,0,0,1,39.935,79.877Z" transform="translate(9.908 21.24)"/><path class="j" d="M28.181,75.765l3.193,13.378,11.612-9.269A29.371,29.371,0,0,1,28.181,75.765Z" transform="translate(6.396 21.239)"/><circle class="e" cx="29.515" cy="29.515" r="29.515" transform="translate(20.097 42.093)"/><path class="k" d="M127.495,58.863a30.814,30.814,0,1,0-40.181.018,33.615,33.615,0,0,0-8.126,4.1A30.807,30.807,0,1,0,29.51,94.931a33.8,33.8,0,0,0-22.73,31.88v22.814a3.9,3.9,0,0,0,3.9,3.9H88.549a3.9,3.9,0,0,0,3.9-3.9V126.811A33.609,33.609,0,0,0,91.1,117.46h21.01a1.3,1.3,0,1,0,0-2.6H90.232A33.9,33.9,0,0,0,69.71,94.934,30.735,30.735,0,0,0,79.841,65.677,31.053,31.053,0,0,1,89.77,60.8c.473.33.952.649,1.442.953l3.069,12.868a1.3,1.3,0,0,0,.842.926,1.276,1.276,0,0,0,.422.071,1.3,1.3,0,0,0,.81-.283l4.207-3.356,2.748,5.763L100.6,107.31a1.3,1.3,0,0,0,.507,1.151l5.5,4.186a1.3,1.3,0,0,0,1.573,0l5.494-4.186a1.3,1.3,0,0,0,.508-1.151l-2.7-29.566,2.743-5.763,4.2,3.355a1.3,1.3,0,0,0,2.074-.714l3.076-12.869c.49-.3.968-.622,1.438-.951a31.2,31.2,0,0,1,22.623,29.944V113.56a1.3,1.3,0,0,1-1.3,1.3H133.789a1.3,1.3,0,0,0,0,2.6h12.546a3.9,3.9,0,0,0,3.9-3.9V90.746a33.8,33.8,0,0,0-22.736-31.883ZM48.039,114.871h3.146L53.749,142.9l-4.137,3.15-4.138-3.15Zm3.507-2.6H47.674l-2.812-5.893,4.745-3.787,4.745,3.787Zm1.727-10.079a30.546,30.546,0,0,0,9.443-2.709l-2.05,8.6Zm-14.716,5.9L36.5,99.481a30.536,30.536,0,0,0,9.443,2.709Zm51.29,18.722v22.814a1.3,1.3,0,0,1-1.3,1.3H10.673a1.3,1.3,0,0,1-1.3-1.3V126.811A31.2,31.2,0,0,1,32,96.868q.705.495,1.438.951l3.064,12.869a1.3,1.3,0,0,0,2.078.714l4.2-3.356,2.743,5.759-2.706,29.567a1.3,1.3,0,0,0,.508,1.151l5.5,4.186a1.3,1.3,0,0,0,1.573,0l5.5-4.186a1.3,1.3,0,0,0,.508-1.151L53.694,113.8l2.744-5.762,4.2,3.356a1.3,1.3,0,0,0,2.078-.714l3.069-12.868q.733-.453,1.438-.951a31.2,31.2,0,0,1,22.621,29.945ZM49.612,99.822A28.216,28.216,0,1,1,77.828,71.607a28.537,28.537,0,0,1-4.388,15.1,28.02,28.02,0,0,1-23.829,13.12Zm29.566-64.28a28.216,28.216,0,1,1,28.215,28.215A28.216,28.216,0,0,1,79.178,35.543ZM96.339,72.028,94.286,63.42a30.536,30.536,0,0,0,9.443,2.709Zm11.053,37.954-4.136-3.15,2.563-28.026h3.146l2.564,28.026Zm1.938-33.77h-3.876l-2.807-5.9,4.745-3.789,4.75,3.789Zm9.117-4.18-7.389-5.9a30.536,30.536,0,0,0,9.443-2.709Z" transform="translate(0 0)"/><path class="k" d="M103.177,89.512H92.3a1.3,1.3,0,0,0,0,2.6h10.878a1.3,1.3,0,1,0,0-2.6Z" transform="translate(25.169 25.347)"/><circle class="f" cx="23.612" cy="23.612" r="23.612" transform="translate(26 47.996)"/><path class="g" d="M50.962,72.521a10.674,10.674,0,0,1-6.137,2.833v2.581a2.128,2.128,0,0,1-.575,1.54,2.237,2.237,0,0,1-3.038,0,2.121,2.121,0,0,1-.574-1.54v-2.5a18.558,18.558,0,0,1-4.558-.985A13.081,13.081,0,0,1,32.26,72.4a2.078,2.078,0,0,1-.738-.821,2.66,2.66,0,0,1-.205-1.109,2.39,2.39,0,0,1,.513-1.518A1.47,1.47,0,0,1,33,68.292a1.981,1.981,0,0,1,.761.143,8.682,8.682,0,0,1,.923.473A15.125,15.125,0,0,0,38.4,70.713a12.671,12.671,0,0,0,3.838.575,7.248,7.248,0,0,0,4.254-1.066,3.551,3.551,0,0,0,1.5-3.081,2.468,2.468,0,0,0-.822-1.929,5.951,5.951,0,0,0-2.052-1.169q-1.231-.431-3.448-1.007a37.057,37.057,0,0,1-5.01-1.581,8.662,8.662,0,0,1-3.325-2.443,6.612,6.612,0,0,1-1.4-4.433,7.653,7.653,0,0,1,2.381-5.667A10.921,10.921,0,0,1,40.559,46V43.41a2.124,2.124,0,0,1,.575-1.54,2.237,2.237,0,0,1,3.038,0,2.129,2.129,0,0,1,.575,1.54v2.546a13.768,13.768,0,0,1,7.144,3,2.3,2.3,0,0,1,.986,1.93,2.4,2.4,0,0,1-.52,1.52,1.507,1.507,0,0,1-1.211.657,2.16,2.16,0,0,1-.72-.123,4.806,4.806,0,0,1-.922-.494,15.633,15.633,0,0,0-3.182-1.783,9.612,9.612,0,0,0-3.551-.595,6.659,6.659,0,0,0-4.064,1.129,3.654,3.654,0,0,0-1.52,3.1,2.929,2.929,0,0,0,.862,2.2,5.707,5.707,0,0,0,2.176,1.3q1.313.452,3.572,1.027a35.244,35.244,0,0,1,4.886,1.518A8.341,8.341,0,0,1,51.908,62.7a6.444,6.444,0,0,1,1.334,4.286,7.5,7.5,0,0,1-2.279,5.54Z" transform="translate(7.332 10.932)"/></g></svg>