<svg xmlns="http://www.w3.org/2000/svg" width="108.4" height="149" viewBox="0 0 108.4 149"><defs><style>.a{fill:#e6e7e8;}.b{fill:#54349f;}.c{fill:#453890;}.d{fill:#8c6ed3;}.e{fill:#fff;}.f{fill:#ffd000;}.g{fill:#ffd7e5;}.h{fill:#3a2c60;}</style></defs><g transform="translate(-19.382 -2.668)"><path class="a" d="M126.852,24.234a1.215,1.215,0,0,0-1.011-.805l-9.09-1.014,3.158-3.158a3.94,3.94,0,0,0-5.572-5.572l-3.158,3.158-1.014-9.09a1.215,1.215,0,0,0-2.065-.729L98.018,17.106a9.75,9.75,0,0,0-7.531-3.564H33.15A9.773,9.773,0,0,0,23.388,23.3V141.049a9.771,9.771,0,0,0,9.762,9.761H90.486a9.771,9.771,0,0,0,9.762-9.761V38.922l.564-.564,11.02,1.229c.045,0,.09.006.136.006a1.215,1.215,0,0,0,.859-.356L126.569,25.5a1.215,1.215,0,0,0,.283-1.261Z" transform="translate(0.86 0.859)"/><rect class="b" width="74.434" height="134.838" rx="7.035" transform="translate(20.597 10.758)"/><g transform="translate(30.073 130.724)"><path class="c" d="M39.423,110.168h-8.3a2.936,2.936,0,1,0,0,5.872h8.3a2.936,2.936,0,1,0,0-5.872Z" transform="translate(-28.183 -107.638)"/><path class="c" d="M73.423,110.168h-8.3a2.936,2.936,0,1,0,0,5.872h8.3a2.936,2.936,0,1,0,0-5.872Z" transform="translate(-20.881 -107.638)"/><circle class="c" cx="5.466" cy="5.466" r="5.466" transform="translate(22.274)"/></g><path class="d" d="M20.382,19.757H94.816V122.594H20.382Z" transform="translate(0.215 3.67)"/><path class="e" d="M20.382,101.415H94.816v3.644H20.382Z" transform="translate(0.215 21.206)"/><rect class="c" width="23.236" height="2.757" rx="1.026" transform="translate(46.195 15.843)"/><path class="c" d="M65.39,13.4A1.514,1.514,0,1,0,66.9,14.914,1.514,1.514,0,0,0,65.39,13.4Z" transform="translate(9.555 2.305)"/><path class="f" d="M54.659,36.22A23.974,23.974,0,0,0,30.685,60.194c0,17.978,23.974,40.832,23.974,40.832S78.634,77.983,78.634,60.194A23.974,23.974,0,0,0,54.659,36.22Z" transform="translate(2.427 7.205)"/><circle class="g" cx="15.184" cy="15.184" r="15.184" transform="translate(41.902 52.261)"/><path class="e" d="M109.224,9.293a2.722,2.722,0,0,0-3.853,0L48.885,65.779,46.516,72l6.222-2.368,56.486-56.486A2.725,2.725,0,0,0,109.224,9.293Z" transform="translate(5.827 1.251)"/><path class="f" d="M92.26,3.671,78.516,17.415l1.294,11.6L93.553,15.273Z" transform="translate(12.699 0.215)"/><path class="f" d="M96.5,16.394,82.754,30.138l11.6,1.294L108.1,17.689Z" transform="translate(13.609 2.948)"/><path class="h" d="M20.6,93.212A1.215,1.215,0,0,0,21.812,92V82.832a1.215,1.215,0,1,0-2.43,0V92A1.215,1.215,0,0,0,20.6,93.212Z" transform="translate(0 16.955)"/><path class="h" d="M122.855,20.234a1.215,1.215,0,0,0-1.011-.805l-9.092-1.014,3.158-3.158a3.94,3.94,0,1,0-5.571-5.572l-3.158,3.158-1.014-9.091a1.215,1.215,0,0,0-2.065-.729L94.019,13.105a9.729,9.729,0,0,0-7.531-3.571H29.151a9.77,9.77,0,0,0-9.761,9.761V95.487a1.215,1.215,0,0,0,2.43,0V24.643H90.774l.463,4.144L72.489,47.531A25.126,25.126,0,0,0,31.9,67.4c0,18.289,23.355,40.762,24.35,41.711a1.215,1.215,0,0,0,1.68,0c.995-.955,24.347-23.6,24.347-41.707a24.957,24.957,0,0,0-4.393-14.117L93.816,37.35v87.705h-72V113.614a1.215,1.215,0,1,0-2.43,0v23.445a9.771,9.771,0,0,0,9.761,9.761H86.479a9.773,9.773,0,0,0,9.762-9.761V34.921l.564-.564,11.02,1.229a1.293,1.293,0,0,0,.136.007,1.215,1.215,0,0,0,.859-.356L122.562,21.5a1.215,1.215,0,0,0,.293-1.261ZM86.484,144.382H29.147a7.338,7.338,0,0,1-7.331-7.331v-9.57h72v9.57a7.34,7.34,0,0,1-7.332,7.33ZM112.057,11.4a1.51,1.51,0,0,1,2.136,2.137l-4.944,4.944L95.5,32.225,57.895,69.838,54.446,71.15,55.758,67.7l37.61-37.61,13.741-13.744Zm-41,56.051a13.97,13.97,0,1,1-13.97-13.97A13.823,13.823,0,0,1,64.431,55.6L53.863,66.173a1.215,1.215,0,0,0-.277.428l-2.368,6.222a1.215,1.215,0,0,0,1.567,1.567L59,72.016a1.215,1.215,0,0,0,.428-.277l10.249-10.25a13.758,13.758,0,0,1,1.375,5.964ZM21.812,22.213V19.3a7.338,7.338,0,0,1,7.331-7.331H86.479a7.308,7.308,0,0,1,5.8,2.873l-1.925,1.925a1.215,1.215,0,0,0-.349.994l.5,4.448Zm70.676-4.137,11.54-11.54.951,8.5-11.54,11.54ZM79.846,67.395c0,15.212-18.559,34.863-22.763,39.121-4.21-4.23-22.755-23.742-22.755-39.115A22.716,22.716,0,0,1,70.771,49.259l-4.576,4.576a16.443,16.443,0,1,0,5.311,5.831l4.627-4.637A22.546,22.546,0,0,1,79.846,67.4ZM107.52,33.1l-8.511-.95,11.54-11.54,8.5.95Z"/></g></svg>