<svg xmlns="http://www.w3.org/2000/svg" width="139.179" height="131.937" viewBox="0 0 139.179 131.937"><defs><style>.a{fill:#e6e7e8;}.b{fill:#f6dd6f;}.c{fill:#fff;}.d{fill:#ffd000;}.e{fill:#54349f;}.f{fill:#fa759e;}.g{fill:#d4fbff;}.h{fill:#3a2c60;}</style></defs><g transform="translate(-3.441 -6.62)"><path class="a" d="M125.647,94.345A22.834,22.834,0,0,0,113,54.741,53.129,53.129,0,1,0,78.82,113.7a24.084,24.084,0,0,0-.279,3.478v17.327a3.449,3.449,0,0,0,3.449,3.449H138.56a3.449,3.449,0,0,0,3.449-3.449V117.178a24.168,24.168,0,0,0-16.362-22.833Z" transform="translate(0.61 0.602)"/><circle class="b" cx="51.994" cy="51.994" r="51.994" transform="translate(4.659 7.77)"/><path class="c" d="M56.494,101.408A51.984,51.984,0,0,1,4.547,51.255c-.022.6-.047,1.214-.047,1.834a51.995,51.995,0,1,0,103.99,0c0-.615-.026-1.224-.048-1.839A51.985,51.985,0,0,1,56.494,101.408Z" transform="translate(0.159 6.68)"/><circle class="d" cx="41.595" cy="41.595" r="41.595" transform="translate(15.057 18.169)"/><path class="c" d="M67.537,78.167A18.794,18.794,0,0,1,56.73,83.158v4.552a3.747,3.747,0,0,1-1.014,2.713,3.943,3.943,0,0,1-5.353,0,3.741,3.741,0,0,1-1.012-2.713V83.3a32.652,32.652,0,0,1-8.028-1.736,22.963,22.963,0,0,1-6.728-3.616,3.658,3.658,0,0,1-1.3-1.446,4.707,4.707,0,0,1-.362-1.954,4.219,4.219,0,0,1,.9-2.676A2.6,2.6,0,0,1,35.9,70.711a3.511,3.511,0,0,1,1.339.252,15.687,15.687,0,0,1,1.628.834,26.672,26.672,0,0,0,6.545,3.181,22.371,22.371,0,0,0,6.764,1.013,12.78,12.78,0,0,0,7.487-1.879A6.254,6.254,0,0,0,62.3,68.685a4.358,4.358,0,0,0-1.457-3.4,10.529,10.529,0,0,0-3.617-2.069q-2.169-.756-6.075-1.772a65.341,65.341,0,0,1-8.824-2.786,15.268,15.268,0,0,1-5.863-4.3,11.654,11.654,0,0,1-2.456-7.81,13.48,13.48,0,0,1,4.2-9.979A19.235,19.235,0,0,1,49.2,31.437V26.88a3.743,3.743,0,0,1,1.013-2.713,3.942,3.942,0,0,1,5.354,0A3.753,3.753,0,0,1,56.58,26.88v4.484a24.267,24.267,0,0,1,12.584,5.279,4.057,4.057,0,0,1,1.737,3.4A4.222,4.222,0,0,1,70,42.719a2.652,2.652,0,0,1-2.133,1.157,3.806,3.806,0,0,1-1.265-.216,8.423,8.423,0,0,1-1.626-.868,27.5,27.5,0,0,0-5.607-3.146A16.931,16.931,0,0,0,53.109,38.6a11.734,11.734,0,0,0-7.161,1.989,6.438,6.438,0,0,0-2.675,5.461,5.164,5.164,0,0,0,1.519,3.87,10.042,10.042,0,0,0,3.833,2.278q2.312.8,6.292,1.81a62.29,62.29,0,0,1,8.606,2.676A14.673,14.673,0,0,1,69.2,60.839a11.359,11.359,0,0,1,2.349,7.556A13.212,13.212,0,0,1,67.537,78.167Z" transform="translate(4.414 2.469)"/><path class="e" d="M109.86,79.883a21.614,21.614,0,0,1-25.961,0,22.983,22.983,0,0,0-17.6,22.331v17.329a2.3,2.3,0,0,0,2.3,2.3h56.571a2.3,2.3,0,0,0,2.3-2.3V102.214a22.982,22.982,0,0,0-17.6-22.331Z" transform="translate(9.408 10.966)"/><path class="f" d="M93.507,83.529l-4.684,3.738,2.653,5.57h4.062l2.652-5.569Z" transform="translate(12.78 11.511)"/><path class="f" d="M93.424,116.741l4.047-3.082L95.455,91.625H91.393l-2.015,22.034Z" transform="translate(12.863 12.723)"/><path class="g" d="M93.041,84.04l8.555,6.829,2.357-9.88A21.592,21.592,0,0,1,93.041,84.04Z" transform="translate(13.411 11.131)"/><path class="g" d="M83.262,80.989l2.357,9.88,8.556-6.829a21.593,21.593,0,0,1-10.913-3.051Z" transform="translate(11.947 11.131)"/><circle class="c" cx="21.732" cy="21.732" r="21.732" transform="translate(84.554 51.715)"/><g transform="translate(3.441 6.62)"><path class="h" d="M34.33,12.025a1.15,1.15,0,0,0,.394-.07,50.625,50.625,0,0,1,11.34-2.717,1.15,1.15,0,1,0-.275-2.282A52.82,52.82,0,0,0,33.934,9.8a1.15,1.15,0,0,0,.4,2.229Z" transform="translate(1.011 -6.572)"/><path class="h" d="M121.643,90.362a22.834,22.834,0,0,0-12.631-39.618A53.216,53.216,0,0,0,56.654,6.62a1.15,1.15,0,0,0,0,2.3,50.915,50.915,0,0,1,49.994,41.664c-.122,0-.239-.018-.36-.018a22.848,22.848,0,0,0-15.356,39.8,24.224,24.224,0,0,0-15.576,16.66,50.84,50.84,0,0,1-41.7-92.615,1.15,1.15,0,1,0-1.042-2.051,53.132,53.132,0,0,0,42.213,97.32,24.122,24.122,0,0,0-.271,3.5v17.328A3.449,3.449,0,0,0,78,133.958h56.571a3.449,3.449,0,0,0,3.449-3.449V113.181a24.149,24.149,0,0,0-16.378-22.819Zm-9.949,7.519-2.248-1.794a22.7,22.7,0,0,0,6.221-1.788l-1.353,5.674Zm-2.149,1.227L107.6,103.2h-2.614l-1.948-4.091,3.254-2.6,2.8,2.238Zm-4.235,6.39h1.963l1.862,20.349-2.844,2.172-2.844-2.166Zm-7.044-5.525L96.911,94.3a22.677,22.677,0,0,0,6.222,1.788l-2.246,1.8ZM85.7,73.447a20.579,20.579,0,1,1,20.579,20.579A20.579,20.579,0,0,1,85.7,73.447Zm50.018,57.062a1.15,1.15,0,0,1-1.15,1.15H78a1.15,1.15,0,0,1-1.15-1.15V113.181A21.861,21.861,0,0,1,93.074,92.1c.367.261.743.5,1.126.744l2.249,9.427a1.15,1.15,0,0,0,.744.821,1.171,1.171,0,0,0,.375.062,1.15,1.15,0,0,0,.717-.251l2.9-2.319,1.894,3.976L101.1,126.278a1.15,1.15,0,0,0,.45,1.019l4.046,3.082a1.15,1.15,0,0,0,1.392,0l4.047-3.082a1.15,1.15,0,0,0,.448-1.019l-1.987-21.722,1.894-3.976,2.9,2.319a1.151,1.151,0,0,0,1.836-.632l2.248-9.427c.383-.239.76-.484,1.127-.745a21.863,21.863,0,0,1,16.222,21.085Z" transform="translate(-3.441 -6.62)"/></g></g></svg>