<svg xmlns="http://www.w3.org/2000/svg" width="97.906" height="154" viewBox="0 0 97.906 154"><defs><style>.a{fill:#e6e7e8;}.b{fill:#54349f;}.c{fill:#453890;}.d{fill:#fff;}.e{fill:#ffd000;}.f{fill:#3a2c60;}</style></defs><g transform="translate(-26 -4.211)"><path class="a" d="M111.159,114.922H96.969a16.765,16.765,0,0,0,.966-7.946c-.6-5.024-3.822-9.582-9.573-13.546a5.539,5.539,0,0,1-2.471-4.281,5.411,5.411,0,0,1,1.971-4.406c12.546-10.646,22.008-28.881,22.008-42.428q0-1.281-.054-2.515a33.494,33.494,0,0,0-66.88,0q-.054,1.233-.054,2.515c0,13.547,9.463,31.786,22.011,42.428a5.411,5.411,0,0,1,1.971,4.4,5.55,5.55,0,0,1-2.473,4.282c-5.749,3.964-8.97,8.52-9.572,13.546a16.747,16.747,0,0,0,.966,7.946H41.594A11.607,11.607,0,0,0,30,126.516v18.551a3.865,3.865,0,0,0,3.865,3.865h3.865v4.263a3.865,3.865,0,0,0,3.865,3.865h69.565a3.865,3.865,0,0,0,3.865-3.865v-4.263h3.865a3.865,3.865,0,0,0,3.865-3.865V126.516A11.607,11.607,0,0,0,111.159,114.922Z" transform="translate(1.153 1.152)"/><path class="b" d="M33,112.441v5.551a2.576,2.576,0,0,0,2.576,2.576h69.565a2.576,2.576,0,0,0,2.576-2.576v-5.551Z" transform="translate(2.018 31.196)"/><path class="c" d="M58.557,79.473A6.66,6.66,0,0,1,57.952,90.2c-4.259,2.935-8.366,7.143-9.024,12.638a15.315,15.315,0,0,0,1.675,9.081h37.2a15.33,15.33,0,0,0,1.679-9.076c-.658-5.494-4.766-9.7-9.025-12.638a6.659,6.659,0,0,1-.6-10.731c11.679-9.913,21.554-27.813,21.554-41.449q0-1.253-.053-2.459a32.206,32.206,0,0,0-64.306,0Q37,36.775,37,38.029C37,51.665,46.873,69.565,58.557,79.473Z" transform="translate(3.171 0.287)"/><path class="d" d="M69.206,9.127a32.019,32.019,0,0,1,32.148,30.23c.019-.443.058-.894.058-1.328q0-1.253-.053-2.459a32.206,32.206,0,0,0-64.306,0Q37,36.775,37,38.029c0,.434.039.885.058,1.328A32.019,32.019,0,0,1,69.206,9.127Z" transform="translate(3.171 0.287)"/><path class="e" d="M106.871,88.045H37.306A10.306,10.306,0,0,0,27,98.351V116.9a2.576,2.576,0,0,0,2.576,2.576H114.6a2.576,2.576,0,0,0,2.576-2.576V98.351A10.306,10.306,0,0,0,106.871,88.045Z" transform="translate(0.288 24.164)"/><path class="f" d="M107.159,110.921H92.965a16.653,16.653,0,0,0,.97-7.946c-.6-5.024-3.822-9.583-9.573-13.546a5.539,5.539,0,0,1-2.471-4.281,5.411,5.411,0,0,1,1.971-4.407c12.546-10.645,22.008-28.88,22.008-42.426q0-1.288-.054-2.513a33.494,33.494,0,0,0-66.88,0q-.054,1.23-.054,2.513c0,13.546,9.463,31.785,22.012,42.426a5.411,5.411,0,0,1,1.968,4.408,5.539,5.539,0,0,1-2.467,4.28c-5.749,3.963-8.969,8.52-9.572,13.546a16.653,16.653,0,0,0,.97,7.946h-14.2A11.607,11.607,0,0,0,26,122.515v18.551a3.865,3.865,0,0,0,3.865,3.865h3.865v4.262a3.865,3.865,0,0,0,3.865,3.865h69.565a3.865,3.865,0,0,0,3.865-3.865v-4.262h3.865a3.865,3.865,0,0,0,3.865-3.865V122.515a11.607,11.607,0,0,0-11.594-11.594Zm-53.782-7.639c.515-4.259,3.362-8.207,8.475-11.731a8.1,8.1,0,0,0,3.583-6.271,7.966,7.966,0,0,0-2.874-6.5h0c-11.827-10.041-21.1-27.809-21.1-40.462q0-1.226.052-2.4a30.918,30.918,0,0,1,61.733,0q.05,1.176.052,2.4c0,12.651-9.266,30.424-21.1,40.461a7.97,7.97,0,0,0-2.878,6.5A8.1,8.1,0,0,0,82.9,91.55c5.116,3.525,7.968,7.472,8.477,11.731a14.058,14.058,0,0,1-1.2,7.639H54.573a14.059,14.059,0,0,1-1.2-7.638Zm62.8,37.78a1.288,1.288,0,0,1-1.288,1.288H99.341a1.288,1.288,0,0,0,0,2.576h9.107v4.261a1.288,1.288,0,0,1-1.288,1.288H37.594a1.288,1.288,0,0,1-1.288-1.288v-4.261H78.992a1.288,1.288,0,0,0,0-2.576H29.865a1.288,1.288,0,0,1-1.288-1.288V122.511a9.029,9.029,0,0,1,9.018-9.018h69.565a9.029,9.029,0,0,1,9.018,9.018Z" transform="translate(0)"/><path class="f" d="M81.35,111.442H71.388a1.288,1.288,0,1,0,0,2.576h9.965a1.288,1.288,0,0,0,0-2.576Z" transform="translate(12.711 30.908)"/><path class="d" d="M54.325,96.585a1.491,1.491,0,0,1,.857-.277,1.867,1.867,0,0,1,1.255.478,1.5,1.5,0,0,1,.554,1.18,1.854,1.854,0,0,1-.151.679l-4.122,9.247a1.664,1.664,0,0,1-.727.841,2.088,2.088,0,0,1-1.056.29,2.053,2.053,0,0,1-1.067-.29,1.684,1.684,0,0,1-.718-.841l-2.687-6.256-2.589,6.256a1.7,1.7,0,0,1-.7.841,2.03,2.03,0,0,1-1.08.29,2.134,2.134,0,0,1-1.081-.29,1.667,1.667,0,0,1-.728-.841l-4.1-9.247a1.717,1.717,0,0,1-.151-.679,1.462,1.462,0,0,1,.591-1.18,2.078,2.078,0,0,1,1.344-.478,1.625,1.625,0,0,1,.919.277,1.777,1.777,0,0,1,.644.8l2.69,6.759,2.738-6.709a1.775,1.775,0,0,1,.667-.817,1.729,1.729,0,0,1,.969-.29,1.856,1.856,0,0,1,.978.277,1.685,1.685,0,0,1,.68.83l2.788,6.709L53.7,97.389a1.8,1.8,0,0,1,.621-.8Z" transform="translate(2.892 26.546)"/><path class="d" d="M72.159,96.585a1.485,1.485,0,0,1,.854-.277,1.873,1.873,0,0,1,1.257.478,1.5,1.5,0,0,1,.554,1.18,1.854,1.854,0,0,1-.151.679l-4.122,9.247a1.675,1.675,0,0,1-.729.841,2.089,2.089,0,0,1-2.123,0,1.675,1.675,0,0,1-.715-.841l-2.69-6.256L61.7,107.892a1.694,1.694,0,0,1-.7.841,2.046,2.046,0,0,1-1.082.29,2.119,2.119,0,0,1-1.078-.29,1.675,1.675,0,0,1-.73-.841l-4.1-9.247a1.757,1.757,0,0,1-.148-.679,1.467,1.467,0,0,1,.589-1.18,2.09,2.09,0,0,1,1.346-.478,1.617,1.617,0,0,1,.916.277,1.765,1.765,0,0,1,.644.8l2.687,6.759,2.74-6.709a1.775,1.775,0,0,1,.667-.817,1.72,1.72,0,0,1,.966-.29,1.843,1.843,0,0,1,.978.277,1.685,1.685,0,0,1,.68.83l2.79,6.709,2.662-6.759A1.793,1.793,0,0,1,72.159,96.585Z" transform="translate(8.032 26.546)"/><path class="d" d="M89.993,96.585a1.483,1.483,0,0,1,.855-.277,1.867,1.867,0,0,1,1.255.478,1.5,1.5,0,0,1,.554,1.18,1.854,1.854,0,0,1-.151.679l-4.122,9.247a1.664,1.664,0,0,1-.727.841,2.088,2.088,0,0,1-1.056.29,2.054,2.054,0,0,1-1.067-.29,1.684,1.684,0,0,1-.718-.841l-2.682-6.256-2.589,6.256a1.7,1.7,0,0,1-.7.841,2.03,2.03,0,0,1-1.08.29,2.135,2.135,0,0,1-1.081-.29,1.667,1.667,0,0,1-.729-.841l-4.1-9.247a1.717,1.717,0,0,1-.155-.672,1.462,1.462,0,0,1,.591-1.18,2.078,2.078,0,0,1,1.344-.478,1.624,1.624,0,0,1,.919.277,1.776,1.776,0,0,1,.644.8l2.69,6.759,2.738-6.709a1.775,1.775,0,0,1,.667-.817,1.729,1.729,0,0,1,.969-.29,1.856,1.856,0,0,1,.978.277,1.685,1.685,0,0,1,.68.83l2.788,6.709L89.371,97.4a1.8,1.8,0,0,1,.622-.81Z" transform="translate(13.173 26.546)"/></g></svg>