<svg xmlns="http://www.w3.org/2000/svg" width="152.932" height="150" viewBox="0 0 152.932 150"><defs><style>.a{fill:#e6e7e8;}.b{fill:#54349f;}.c{fill:#8b65e4;}.d{fill:#fff;}.e{fill:#453890;}.f{fill:#0089ef;}.g{fill:#fa759e;}.h{fill:#f6dd6f;}.i{fill:#3a2c60;}</style></defs><g transform="translate(-5.237 -6.353)"><path class="a" d="M156.918,33.2a10.5,10.5,0,0,0-10.5-10.5H113.947a44.657,44.657,0,0,0-61.656,0H19.736a10.5,10.5,0,0,0-10.5,10.5v86.961a10.5,10.5,0,0,0,10.5,10.5H68.09l-2.37,15.864H53.671a4.29,4.29,0,1,0,0,8.581h58.811a4.29,4.29,0,1,0,0-8.581H100.434l-2.369-15.864H146.42a10.5,10.5,0,0,0,10.5-10.5V33.2Z" transform="translate(1.25 1.25)"/><g transform="translate(5.237 6.353)"><path class="b" d="M15.424,122.094H142.106a9.187,9.187,0,0,0,9.187-9.187V25.947a9.187,9.187,0,0,0-9.187-9.187H15.424a9.187,9.187,0,0,0-9.187,9.187v86.961a9.187,9.187,0,0,0,9.187,9.187Z" transform="translate(-4.925 -3.101)"/><path class="c" d="M151.293,104.164V25.947a9.187,9.187,0,0,0-9.187-9.187H15.424a9.187,9.187,0,0,0-9.187,9.187v78.217Z" transform="translate(-4.925 -3.101)"/><path class="d" d="M142.106,16.76H15.424a9.187,9.187,0,0,0-9.187,9.187v3.937A9.187,9.187,0,0,1,15.424,20.7H142.106a9.187,9.187,0,0,1,9.187,9.187V25.947A9.187,9.187,0,0,0,142.106,16.76Z" transform="translate(-4.925 -3.101)"/><path class="e" d="M39.8,117.065H98.613a2.978,2.978,0,1,0,0-5.956H39.8a2.978,2.978,0,1,0,0,5.956Z" transform="translate(4.632 26.375)"/><path class="e" d="M51.9,97.02H78.827l2.763,18.489H49.136Z" transform="translate(8.478 21.973)"/><circle class="d" cx="2.763" cy="2.763" r="2.763" transform="translate(112.062 106.755)"/><circle class="f" cx="2.763" cy="2.763" r="2.763" transform="translate(121.733 106.755)"/><circle class="g" cx="2.763" cy="2.763" r="2.763" transform="translate(131.403 106.755)"/><g transform="translate(30.366 1.313)"><path class="h" d="M103.642,68.858a4.112,4.112,0,0,1-1.647-5.3A35.293,35.293,0,1,0,66.509,84.012V78.938a2.287,2.287,0,0,1,3.429-1.98L84.726,85.5a39.623,39.623,0,0,0,19.18-16.523c-.087-.041-.178-.066-.264-.114Z" transform="translate(-26.428 -5.407)"/><path class="i" d="M70.151,7.386a43.468,43.468,0,0,0-1.7,86.77v4.036a2.287,2.287,0,0,0,3.429,1.98l14.988-8.654a2.287,2.287,0,0,0,0-3.961L71.884,78.9a2.286,2.286,0,0,0-3.429,1.98v5.074A35.319,35.319,0,1,1,103.941,65.5a4.093,4.093,0,1,0,7.432,3.429A43.476,43.476,0,0,0,70.151,7.386Z" transform="translate(-28.375 -7.353)"/></g><path class="c" d="M83.155,30.436,61.5,40.8V66.505l21.655-10.36Z" transform="translate(12.34 1.171)"/><path class="e" d="M45,30.436,66.655,40.8V66.505L45,56.145Z" transform="translate(7.186 1.171)"/><g transform="translate(52.204 21.265)"><path class="b" d="M66.65,43.258,45.014,32.907,66.65,22.556,88.287,32.907Z" transform="translate(-45.014 -22.556)"/></g><path class="i" d="M142.418,18.7h-32.47a44.656,44.656,0,0,0-61.657,0H15.736a10.512,10.512,0,0,0-10.5,10.5v86.961a10.512,10.512,0,0,0,10.5,10.5H64.091l-2.372,15.863H49.671a4.291,4.291,0,1,0,0,8.582h58.811a4.291,4.291,0,1,0,0-8.582H96.434l-2.369-15.862H142.42a10.512,10.512,0,0,0,10.5-10.5V92.989a1.312,1.312,0,1,0-2.625,0V106.1H7.862V29.2a7.882,7.882,0,0,1,7.874-7.874h30A44.706,44.706,0,0,0,74.371,95.667V98.5a3.59,3.59,0,0,0,5.4,3.117l14.988-8.654a3.572,3.572,0,0,0,1.377-4.786A41.006,41.006,0,0,0,113.6,72.8a5.383,5.383,0,0,0,2.887-.076,5.481,5.481,0,0,0,3.3-2.928,44.765,44.765,0,0,0-7.311-48.469h29.935a7.882,7.882,0,0,1,7.874,7.874V67.865a1.312,1.312,0,1,0,2.625,0V29.2a10.51,10.51,0,0,0-10.5-10.5Zm-32.27,128.114a1.667,1.667,0,0,1-1.667,1.665H49.673a1.666,1.666,0,1,1,0-3.332h58.811A1.67,1.67,0,0,1,110.149,146.813Zm-16.368-4.29H64.373l2.372-15.863H91.41Zm56.513-33.795v7.432a7.882,7.882,0,0,1-7.874,7.874H15.736a7.882,7.882,0,0,1-7.874-7.874v-7.432ZM93.952,86.269,79.77,78.08a3.6,3.6,0,0,0-5.4,3.117v3.6a34.005,34.005,0,1,1,35.607-19.53,5.418,5.418,0,0,0,1.282,6.326A38.352,38.352,0,0,1,93.952,86.269ZM117.41,68.7A2.847,2.847,0,0,1,115.7,70.22a2.734,2.734,0,0,1-2.221-.241,2.8,2.8,0,0,1-1.11-3.616,36.206,36.206,0,0,0,3.324-15.228,36.61,36.61,0,1,0-40.13,36.443A1.313,1.313,0,0,0,77,86.273V81.2a.974.974,0,0,1,1.461-.844l14.988,8.654a.974.974,0,0,1,0,1.686L78.458,99.349A.974.974,0,0,1,77,98.506V94.47a1.312,1.312,0,0,0-1.211-1.308A42.149,42.149,0,1,1,117.41,68.7Z" transform="translate(-5.237 -6.353)"/><path class="i" d="M117.075,56.432a1.313,1.313,0,0,0-1.312,1.312V72.02a1.312,1.312,0,1,0,2.625,0V57.744A1.312,1.312,0,0,0,117.075,56.432Z" transform="translate(29.293 9.293)"/><path class="i" d="M89.169,32.036,67.533,21.685a1.308,1.308,0,0,0-1.133,0L44.764,32.036a1.31,1.31,0,0,0-.745,1.182L44,58.919a1.312,1.312,0,0,0,.745,1.184L66.4,70.463a1.314,1.314,0,0,0,1.134,0L89.189,60.1a1.312,1.312,0,0,0,.745-1.184l-.018-25.7A1.312,1.312,0,0,0,89.169,32.036Zm-22.2-7.713,18.6,8.9-18.6,8.9-18.6-8.9ZM46.642,35.3l19.013,9.1V67.2l-19.03-9.1ZM68.28,67.2V44.4l19.013-9.1.017,22.791Z" transform="translate(6.873 -1.603)"/></g></g></svg>