<svg xmlns="http://www.w3.org/2000/svg" width="148.375" height="147" viewBox="0 0 148.375 147">
  <g id="Group_8884" data-name="Group 8884" transform="translate(-1216 -410.732)">
    <path id="Path_45029" data-name="Path 45029" d="M133.5,15.557H19.209a9.482,9.482,0,0,0-9.472,9.472v78.453a9.483,9.483,0,0,0,9.472,9.472H62.832l-2.138,14.312h-11A3.74,3.74,0,0,0,45.954,131v.269a3.74,3.74,0,0,0,3.737,3.736h53.324a3.74,3.74,0,0,0,3.738-3.736V131a3.74,3.74,0,0,0-3.738-3.737h-11l-2.138-14.312H133.5a9.483,9.483,0,0,0,9.472-9.472V25.029a9.483,9.483,0,0,0-9.472-9.472Z" transform="translate(1210.999 422.725)" fill="#e6e7e8"/>
    <rect id="Rectangle_3860" data-name="Rectangle 3860" width="130.864" height="95.029" rx="7" transform="translate(1217.184 434.73)" fill="#8b65e4"/>
    <path id="Path_45030" data-name="Path 45030" d="M129.313,12.557H15.025a8.288,8.288,0,0,0-8.288,8.288V91.412H137.6V20.845a8.288,8.288,0,0,0-8.288-8.288Z" transform="translate(1210.447 422.173)" fill="#54349f"/>
    <path id="Path_45031" data-name="Path 45031" d="M129.313,12.557H15.025a8.288,8.288,0,0,0-8.288,8.288V24.4a8.288,8.288,0,0,1,8.288-8.288H129.313A8.288,8.288,0,0,1,137.6,24.4V20.845a8.288,8.288,0,0,0-8.288-8.288Z" transform="translate(1210.447 422.173)" fill="#8b65e4"/>
    <rect id="Rectangle_3861" data-name="Rectangle 3861" width="58.43" height="5.374" rx="2.156" transform="translate(1253.401 546.439)" fill="#54349f"/>
    <path id="Path_45032" data-name="Path 45032" d="M76.421,92.817H52.128L49.636,109.5H78.914Z" transform="translate(1218.341 436.942)" fill="#453890"/>
    <path id="Path_45033" data-name="Path 45033" d="M93.616,83.491a2.492,2.492,0,1,0,1.764.732,2.494,2.494,0,0,0-1.764-.732Z" transform="translate(1225.975 435.225)" fill="#fff"/>
    <path id="Path_45034" data-name="Path 45034" d="M100.989,83.491a2.494,2.494,0,1,0,2.486,2.5A2.494,2.494,0,0,0,100.989,83.491Z" transform="translate(1227.33 435.225)" fill="#0089ef"/>
    <path id="Path_45035" data-name="Path 45035" d="M108.354,83.491a2.494,2.494,0,1,0,2.486,2.494,2.494,2.494,0,0,0-2.486-2.494Z" transform="translate(1228.686 435.225)" fill="#fa759e"/>
    <path id="Path_45038" data-name="Path 45038" d="M37.578,62.777v.05a2.859,2.859,0,0,1-4,2.624L17.471,58.465A4.1,4.1,0,0,1,15,54.7v-.045a4.1,4.1,0,0,1,2.472-3.764l16.11-6.985a2.859,2.859,0,0,1,4,2.624v.078a2.857,2.857,0,0,1-1.83,2.668l-13.9,5.358,13.92,5.481a2.861,2.861,0,0,1,1.812,2.66Z" transform="translate(1211.967 427.898)" fill="#f6dd6f"/>
    <path id="Path_45039" data-name="Path 45039" d="M46.432,38.439A2.657,2.657,0,0,0,43.225,40.4L36.141,69.671A2.658,2.658,0,0,0,38.1,72.877a2.691,2.691,0,0,0,.628.076A2.647,2.647,0,0,0,41.3,70.92l7.085-29.274a2.66,2.66,0,0,0-1.957-3.207Z" transform="translate(1215.844 426.921)" fill="#f6dd6f"/>
    <path id="Path_45040" data-name="Path 45040" d="M68.647,58.407,52.534,65.422a2.859,2.859,0,0,1-4-2.621v-.037A2.859,2.859,0,0,1,50.348,60.1l13.964-5.484-13.951-5.4a2.86,2.86,0,1,1,2.164-5.293l16.109,6.95a4.105,4.105,0,0,1,.013,7.529Z" transform="translate(1218.138 427.902)" fill="#f6dd6f"/>
    <g id="Group_8880" data-name="Group 8880" transform="translate(1216 433.546)">
      <path id="Path_45041" data-name="Path 45041" d="M31.386,78.155H20.434a1.184,1.184,0,1,0,0,2.368H31.386a1.184,1.184,0,1,0,0-2.368Z" transform="translate(-3.25 0.698)" fill="#3a2c60"/>
      <path id="Path_45042" data-name="Path 45042" d="M129.5,11.557H15.209a9.483,9.483,0,0,0-9.472,9.472V99.482a9.483,9.483,0,0,0,9.472,9.472H58.832l-2.138,14.312h-11A3.74,3.74,0,0,0,41.954,127v.269a3.74,3.74,0,0,0,3.737,3.736H99.015a3.74,3.74,0,0,0,3.738-3.736V127a3.74,3.74,0,0,0-3.738-3.737h-11l-2.14-14.312H129.5a9.483,9.483,0,0,0,9.472-9.472V21.029a9.483,9.483,0,0,0-9.472-9.472ZM100.385,127v.269a1.37,1.37,0,0,1-1.37,1.368H45.69a1.37,1.37,0,0,1-1.369-1.368V127a1.37,1.37,0,0,1,1.369-1.369H99.015a1.37,1.37,0,0,1,1.37,1.373Zm-14.771-3.732H59.092l2.131-14.312H83.483Zm43.877-16.68H15.209a7.111,7.111,0,0,1-7.1-7.1v-6.7h8.6a1.184,1.184,0,0,0,0-2.368h-8.6V21.027a7.111,7.111,0,0,1,7.1-7.1H129.5a7.111,7.111,0,0,1,7.1,7.1V90.41H40.385a1.184,1.184,0,1,0,0,2.368H136.6v6.7a7.111,7.111,0,0,1-7.1,7.1Z" transform="translate(-5.737 -11.557)" fill="#3a2c60"/>
      <path id="Path_45047" data-name="Path 45047" d="M38.945,63.01v-.05A4.026,4.026,0,0,0,36.383,59.2L25.293,54.831l11.063-4.262a4.093,4.093,0,0,0,2.589-3.85,4.042,4.042,0,0,0-5.647-3.71L17.187,49.994a5.32,5.32,0,0,0,0,9.744L33.3,66.724a4.042,4.042,0,0,0,5.65-3.71Zm-2.368,0a1.675,1.675,0,0,1-2.341,1.539L18.125,57.564a2.954,2.954,0,0,1,0-5.4l16.112-6.986a1.685,1.685,0,0,1,.671-.142,1.665,1.665,0,0,1,.913.278,1.739,1.739,0,0,1-.316,3.042L21.6,53.716a1.184,1.184,0,0,0-.008,2.207L35.517,61.4a1.664,1.664,0,0,1,1.066,1.558Z" transform="translate(-4.216 -5.831)" fill="#3a2c60"/>
      <path id="Path_45048" data-name="Path 45048" d="M35.63,72.48a3.839,3.839,0,0,0,7.009-1.1l7.085-29.274A3.841,3.841,0,1,0,42.258,40.3L35.174,69.575a3.814,3.814,0,0,0,.456,2.9Zm1.845-2.346L44.56,40.859a1.472,1.472,0,1,1,2.862.69L40.337,70.826a1.472,1.472,0,1,1-2.862-.69Z" transform="translate(-0.34 -6.808)" fill="#3a2c60"/>
      <path id="Path_45049" data-name="Path 45049" d="M50.111,50.5l11.117,4.3L50.091,59.177a4.061,4.061,0,1,0,3.091,7.511L69.3,59.672a5.288,5.288,0,0,0-.017-9.7L53.17,43.02A4.043,4.043,0,1,0,50.11,50.5Zm.538-5.172a1.658,1.658,0,0,1,.915-.278,1.691,1.691,0,0,1,.669.14l16.109,6.95a2.919,2.919,0,0,1,.009,5.356L52.237,64.516a1.647,1.647,0,0,1-1.584-.134,1.707,1.707,0,0,1,.3-3L64.921,55.9a1.184,1.184,0,0,0-.006-2.206l-13.951-5.4a1.677,1.677,0,0,1-.315-2.96Z" transform="translate(1.962 -5.823)" fill="#3a2c60"/>
    </g>
    <g id="Group_8883" data-name="Group 8883" transform="translate(1296.821 410.732)">
      <path id="Path_44996" data-name="Path 44996" d="M121.267,109,102.855,92.987l-5.1,5.107,16.01,18.411a5.321,5.321,0,1,0,7.5-7.509Z" transform="translate(-55.543 -50.778)" fill="#0089ef"/>
      <path id="Path_44997" data-name="Path 44997" d="M104.016,88.764a3.5,3.5,0,0,0-2.031-.987,23.872,23.872,0,0,1-9.443,9.442,3.5,3.5,0,0,0,5.965,2.032l5.508-5.508a3.521,3.521,0,0,0,0-4.979Z" transform="translate(-56.502 -51.737)" fill="#f6dd6f"/>
      <circle id="Ellipse_3752" data-name="Ellipse 3752" cx="24.272" cy="24.272" r="24.272" transform="translate(0 0)" fill="#ffd000"/>
      <circle id="Ellipse_3753" data-name="Ellipse 3753" cx="18.188" cy="18.188" r="18.188" transform="translate(6.085 6.085)" fill="#d4fbff"/>
    </g>
  </g>
</svg>
