<svg xmlns="http://www.w3.org/2000/svg" width="132.517" height="144" viewBox="0 0 132.517 144">
  <g id="Group_8881" data-name="Group 8881" transform="translate(-1039 -630)">
    <path id="Path_45012" data-name="Path 45012" d="M121.3,99.581V48.19a1.3,1.3,0,0,0-.436-.97l-34.8-34.8a1.3,1.3,0,0,0-.918-.38H20.357a3.9,3.9,0,0,0-3.895,3.895V146.952a3.9,3.9,0,0,0,3.895,3.895h97.681A25.736,25.736,0,0,0,121.3,99.581Z" transform="translate(1027.731 623.154)" fill="#e6e7e8"/>
    <path id="Path_45013" data-name="Path 45013" d="M115.7,43.895,80.848,9.039H16.058a2.6,2.6,0,0,0-2.6,2.6V142.653a2.6,2.6,0,0,0,2.6,2.6H113.11a2.6,2.6,0,0,0,2.6-2.6V43.892Z" transform="translate(1026.836 622.259)" fill="#453890"/>
    <path id="Path_45015" data-name="Path 45015" d="M92.576,44.59H47.162a1.3,1.3,0,0,1,0-2.6H92.576a1.3,1.3,0,0,1,0,2.6Z" transform="translate(1036.499 632.087)" fill="#fff"/>
    <path id="Path_45016" data-name="Path 45016" d="M99.443,56.1H24.134a1.3,1.3,0,0,1,0-2.6H99.443a1.3,1.3,0,0,1,0,2.6Z" transform="translate(1029.632 635.52)" fill="#fff"/>
    <path id="Path_45017" data-name="Path 45017" d="M99.443,67.618H24.134a1.3,1.3,0,0,1,0-2.6H99.443a1.3,1.3,0,0,1,0,2.6Z" transform="translate(1029.632 638.954)" fill="#fff"/>
    <path id="Path_45018" data-name="Path 45018" d="M65.371,9.039V41.3a2.6,2.6,0,0,0,2.6,2.6h32.259Z" transform="translate(1042.316 622.259)" fill="#8b65e4"/>
    <path id="Path_45019" data-name="Path 45019" d="M82.034,83.993H79.687a2.605,2.605,0,0,1-2.156-1.168,9.1,9.1,0,0,0-15.111,0,2.606,2.606,0,0,1-2.156,1.168H57.916a24.325,24.325,0,0,1,3.8,26.11h2.672a2.678,2.678,0,0,0,1.955-.924,4.916,4.916,0,0,1,7.262,0,2.678,2.678,0,0,0,1.955.924h2.674A24.325,24.325,0,0,1,82.034,83.993Z" transform="translate(1040.093 643.063)" fill="#f6dd6f"/>
    <circle id="Ellipse_3756" data-name="Ellipse 3756" cx="3.246" cy="3.246" r="3.246" transform="translate(1106.822 727.734)" fill="#d4fbff"/>
    <circle id="Ellipse_3757" data-name="Ellipse 3757" cx="24.449" cy="24.449" r="24.449" transform="translate(1053.434 720.354) rotate(-4.073)" fill="#ffd000"/>
    <circle id="Ellipse_3758" data-name="Ellipse 3758" cx="17.526" cy="17.526" r="17.526" transform="translate(1062.034 725.534)" fill="#d4fbff"/>
    <path id="Path_45020" data-name="Path 45020" d="M38.677,83.365a17.608,17.608,0,0,0-6.9,7.073l14.831,25.688c.218.008.432.032.649.032a17.414,17.414,0,0,0,8.928-2.467Z" transform="translate(1032.298 644.424)" fill="#fff"/>
    <path id="Path_45021" data-name="Path 45021" d="M45.6,81.667c-.26-.012-.519-.039-.779-.039a17.5,17.5,0,0,0-4.886.7l17.007,29.46a17.566,17.566,0,0,0,3.417-4.552Z" transform="translate(1034.731 643.906)" fill="#fff"/>
    <circle id="Ellipse_3759" data-name="Ellipse 3759" cx="24.449" cy="24.449" r="24.449" transform="translate(1114.421 720.346) rotate(-4.073)" fill="#ffd000"/>
    <circle id="Ellipse_3760" data-name="Ellipse 3760" cx="17.526" cy="17.526" r="17.526" transform="translate(1123.05 725.534)" fill="#d4fbff"/>
    <path id="Path_45022" data-name="Path 45022" d="M94.755,115.715a17.491,17.491,0,0,0,5.427-1.07L82.915,84.74a17.6,17.6,0,0,0-3.635,4.172Z" transform="translate(1046.464 644.834)" fill="#fff"/>
    <path id="Path_45023" data-name="Path 45023" d="M93.095,81.667c-.26-.012-.513-.039-.779-.039a17.446,17.446,0,0,0-7.034,1.48L102.7,113.255a17.575,17.575,0,0,0,5.164-6.015Z" transform="translate(1048.254 643.906)" fill="#fff"/>
    <g id="Group_8879" data-name="Group 8879" transform="translate(1039 630)">
      <path id="Path_45024" data-name="Path 45024" d="M13.76,96.914a1.3,1.3,0,0,0,1.3-1.3V84.348a1.3,1.3,0,1,0-2.6,0V95.615A1.3,1.3,0,0,0,13.76,96.914Z" transform="translate(-12.462 14.33)" fill="#3a2c60"/>
      <path id="Path_45025" data-name="Path 45025" d="M68.249,91.41A4.544,4.544,0,1,0,63.7,86.867,4.544,4.544,0,0,0,68.249,91.41Zm0-6.491A1.947,1.947,0,1,1,66.3,86.867,1.947,1.947,0,0,1,68.249,84.919Z" transform="translate(2.819 14.113)" fill="#3a2c60"/>
      <path id="Path_45026" data-name="Path 45026" d="M66.853,99.452a18.824,18.824,0,1,0-18.824,18.824A18.824,18.824,0,0,0,66.853,99.452Zm-35.052,0A16.228,16.228,0,1,1,48.029,115.68,16.228,16.228,0,0,1,31.8,99.452Z" transform="translate(-7.469 13.608)" fill="#3a2c60"/>
      <path id="Path_45027" data-name="Path 45027" d="M117.3,95.581V44.19a1.3,1.3,0,0,0-.436-.968l-34.8-34.8a1.3,1.3,0,0,0-.918-.38H16.357a3.9,3.9,0,0,0-3.895,3.895v89.9a1.3,1.3,0,1,0,2.6,0v-89.9a1.3,1.3,0,0,1,1.3-1.3H79.848V41.6a3.9,3.9,0,0,0,3.895,3.895h30.964V95.385c-.225,0-.443-.035-.669-.035a25.655,25.655,0,0,0-19,8.438H93.242a1.31,1.31,0,0,1-1.08-.595,10.4,10.4,0,0,0-17.266,0,1.31,1.31,0,0,1-1.08.595H72.028a25.718,25.718,0,1,0-30.2,40.461H16.357a1.3,1.3,0,0,1-1.3-1.3V123.033a1.3,1.3,0,1,0-2.6,0v19.918a3.9,3.9,0,0,0,3.895,3.895h97.681A25.736,25.736,0,0,0,117.3,95.581ZM82.445,41.6V12.471l30.418,30.424H83.743A1.3,1.3,0,0,1,82.445,41.6Zm-5.394,63.05a7.8,7.8,0,0,1,12.959,0,3.9,3.9,0,0,0,2.956,1.7A25.477,25.477,0,0,0,89.873,129.9h-.756a1.44,1.44,0,0,1-1-.505,6.213,6.213,0,0,0-9.172,0,1.436,1.436,0,0,1-1,.505h-.756A25.477,25.477,0,0,0,74.1,106.35a3.9,3.9,0,0,0,2.955-1.7ZM29.871,121.1A23.152,23.152,0,1,1,53.022,144.25,23.153,23.153,0,0,1,29.871,121.1ZM64.215,144.25A25.866,25.866,0,0,0,76.076,132.5h1.866a3.957,3.957,0,0,0,2.911-1.342,3.7,3.7,0,0,1,5.353,0,3.957,3.957,0,0,0,2.911,1.342h1.868a25.868,25.868,0,0,0,11.859,11.754Zm49.823,0A23.152,23.152,0,1,1,137.189,121.1a23.153,23.153,0,0,1-23.151,23.151Z" transform="translate(-12.462 -8.039)" fill="#3a2c60"/>
      <path id="Path_45028" data-name="Path 45028" d="M95.029,80.628a18.824,18.824,0,1,0,18.824,18.824A18.824,18.824,0,0,0,95.029,80.628Zm0,35.052a16.228,16.228,0,1,1,16.228-16.228A16.228,16.228,0,0,1,95.029,115.68Z" transform="translate(6.547 13.608)" fill="#3a2c60"/>
    </g>
    <path id="Path_45050" data-name="Path 45050" d="M52.025,57.434a10.589,10.589,0,0,1-6.088,2.81V62.81a2.111,2.111,0,0,1-.57,1.528,2.221,2.221,0,0,1-3.015,0,2.107,2.107,0,0,1-.569-1.528V60.325a18.4,18.4,0,0,1-4.518-.977,12.951,12.951,0,0,1-3.789-2.036,2.055,2.055,0,0,1-.733-.814,2.657,2.657,0,0,1-.207-1.1,2.376,2.376,0,0,1,.508-1.507,1.459,1.459,0,0,1,1.161-.652,1.978,1.978,0,0,1,.754.138,8.68,8.68,0,0,1,.917.47,15.031,15.031,0,0,0,3.686,1.791,12.607,12.607,0,0,0,3.808.57,7.2,7.2,0,0,0,4.216-1.058,3.522,3.522,0,0,0,1.486-3.055,2.455,2.455,0,0,0-.814-1.914,5.918,5.918,0,0,0-2.037-1.155Q45,48.6,42.8,48.025a36.794,36.794,0,0,1-4.967-1.566,8.6,8.6,0,0,1-3.3-2.424,6.562,6.562,0,0,1-1.385-4.4,7.59,7.59,0,0,1,2.362-5.621,10.834,10.834,0,0,1,6.19-2.893V28.556a2.109,2.109,0,0,1,.57-1.527,2.22,2.22,0,0,1,3.015,0,2.111,2.111,0,0,1,.57,1.527v2.525a13.662,13.662,0,0,1,7.087,2.973,2.286,2.286,0,0,1,.978,1.914,2.376,2.376,0,0,1-.51,1.507,1.5,1.5,0,0,1-1.2.652,2.136,2.136,0,0,1-.714-.122,4.746,4.746,0,0,1-.916-.489,15.461,15.461,0,0,0-3.157-1.772,9.54,9.54,0,0,0-3.522-.59,6.6,6.6,0,0,0-4.032,1.119,3.623,3.623,0,0,0-1.507,3.075,2.906,2.906,0,0,0,.855,2.179,5.66,5.66,0,0,0,2.158,1.283q1.3.45,3.543,1.019a35.177,35.177,0,0,1,4.847,1.507,8.273,8.273,0,0,1,3.2,2.342,6.4,6.4,0,0,1,1.323,4.257,7.44,7.44,0,0,1-2.261,5.5Z" transform="translate(1021.67 615.979)" fill="#fff"/>
  </g>
</svg>
