<svg xmlns="http://www.w3.org/2000/svg" width="180.124" height="154" viewBox="0 0 180.124 154"><defs><style>.a{fill:#e6e7e8;}.b{fill:#453890;}.c{fill:#54349f;}.d{fill:#fff;}.e{fill:#d4fbff;}.f{fill:#0089ef;}.g{fill:#ffd7e5;}.h{fill:#f6dd6f;}.i{fill:#3a2c60;}</style></defs><g transform="translate(-1.857 -10.867)"><path class="a" d="M177.448,149.118,155.987,130.45a5.768,5.768,0,0,0-.754-7.207,5.684,5.684,0,0,0-1.449-1.026,31.184,31.184,0,0,0-5.742-35.326V66.663l.03-.033a10.116,10.116,0,0,0,2.717-6.91v-19.3a7.478,7.478,0,0,0-7.47-7.47H111.412V23.677a5.8,5.8,0,0,0-5.8-5.8h-4.9a7.139,7.139,0,0,0-5.81-3.013H63.195a7.139,7.139,0,0,0-5.817,3.019h-4.9a5.8,5.8,0,0,0-5.8,5.8v9.275H13.328a7.48,7.48,0,0,0-7.471,7.464V59.587a10.081,10.081,0,0,0,2.754,6.932v58.855a10.157,10.157,0,0,0,10.145,10.145h91.267a30.975,30.975,0,0,0,29.3,1.159,5.717,5.717,0,0,0,8.229,2.2l18.662,21.462a7.99,7.99,0,0,0,5.73,2.732h.272a7.961,7.961,0,0,0,5.228-13.967ZM55.374,26.581h2.351a7.1,7.1,0,0,0,5.47,2.6H94.9a7.113,7.113,0,0,0,5.47-2.6h2.342v6.377H55.374Z" transform="translate(1.797 1.797)"/><path class="b" d="M118.611,70.637a8.7,8.7,0,0,1-6.367,2.772H35.166A8.687,8.687,0,0,1,28.957,70.8L4.753,46.109v59.432a8.7,8.7,0,0,0,8.7,8.7H132.591a8.7,8.7,0,0,0,8.7-8.7V46.266Z" transform="translate(1.301 15.833)"/><path class="c" d="M138.861,24.348H8.877a6.02,6.02,0,0,0-6.02,6.017V49.531a8.7,8.7,0,0,0,2.486,6.087L29.809,80.577a8.687,8.687,0,0,0,6.209,2.609H113.1a8.7,8.7,0,0,0,6.367-2.773l23.094-24.83a8.7,8.7,0,0,0,2.329-5.922v-19.3A6.02,6.02,0,0,0,138.861,24.348Z" transform="translate(0.449 6.057)"/><path class="d" d="M138.861,24.348H8.877a6.02,6.02,0,0,0-6.02,6.017v4.348a6.02,6.02,0,0,1,6.02-6.02H138.861a6.021,6.021,0,0,1,6.022,6.022V30.365A6.02,6.02,0,0,0,138.861,24.348Z" transform="translate(0.449 6.057)"/><rect class="e" width="21.739" height="11.571" rx="2" transform="translate(64.176 83.457)"/><path class="f" d="M128.522,110.325l-22.536-19.6-6.245,6.245,19.6,22.536a6.512,6.512,0,0,0,9.517.332h0a6.51,6.51,0,0,0-.332-9.517Z" transform="translate(43.977 35.88)"/><path class="g" d="M108.574,86.728a4.269,4.269,0,0,0-2.487-1.209A29.245,29.245,0,0,1,94.529,97.077a4.288,4.288,0,0,0,7.3,2.485l6.742-6.741a4.31,4.31,0,0,0,0-6.094Z" transform="translate(41.635 33.539)"/><path class="h" d="M29.71,0A29.71,29.71,0,1,1,0,29.71,29.71,29.71,0,0,1,29.71,0Z" transform="translate(92.05 74.944)"/><path class="e" d="M107.231,66.739a22.261,22.261,0,1,0,0,31.483,22.261,22.261,0,0,0,0-31.483Z" transform="translate(30.269 22.173)"/><path class="e" d="M31.024,18.3V29.022h5.8V21.2a1.449,1.449,0,0,1,1.449-1.449H85.614A1.449,1.449,0,0,1,87.063,21.2v7.826h5.8V18.3a4.348,4.348,0,0,0-4.348-4.348H35.372A4.348,4.348,0,0,0,31.024,18.3Z" transform="translate(13.104 1.385)"/><path class="g" d="M74.9,11.867H43.189a5.707,5.707,0,1,0,0,11.414H74.9a5.707,5.707,0,1,0,0-11.414Z" transform="translate(16.005 0.449)"/><path class="i" d="M5.2,72.629A1.449,1.449,0,0,0,6.653,71.18V60.6a1.449,1.449,0,0,0-2.9,0V71.18A1.449,1.449,0,0,0,5.2,72.629Z" transform="translate(0.852 21.693)"/><path class="i" d="M173.448,145.118,151.987,126.45a5.768,5.768,0,0,0-.754-7.207,5.581,5.581,0,0,0-1.449-1.038,31.181,31.181,0,0,0-5.746-35.314V62.663l.03-.033a10.116,10.116,0,0,0,2.717-6.91v-19.3a7.478,7.478,0,0,0-7.475-7.467h-31.9V19.68a5.8,5.8,0,0,0-5.8-5.8h-4.9a7.136,7.136,0,0,0-5.81-3.016H59.195a7.138,7.138,0,0,0-5.819,3.02h-4.9a5.8,5.8,0,0,0-5.8,5.8V28.96H9.328a7.48,7.48,0,0,0-7.471,7.462V55.587a10.081,10.081,0,0,0,2.754,6.932V75.964a1.449,1.449,0,1,0,2.9,0V65.492L29.224,87.648a10.2,10.2,0,0,0,7.246,3.043H62.727v1.438a4.348,4.348,0,0,0,4.348,4.348H83.016a4.348,4.348,0,0,0,4.348-4.348V90.692h6.562a31.2,31.2,0,0,0,5.8,36c.683.683,1.4,1.323,2.132,1.933h-87.1a7.255,7.255,0,0,1-7.246-7.246V99.152a1.449,1.449,0,1,0-2.9,0v22.222a10.157,10.157,0,0,0,10.145,10.145h91.268a30.97,30.97,0,0,0,29.293,1.168,5.619,5.619,0,0,0,1.033,1.441,5.759,5.759,0,0,0,7.207.752l18.662,21.462a7.987,7.987,0,0,0,5.729,2.732h.274a7.961,7.961,0,0,0,5.228-13.967Zm-32.31-64.846a30.845,30.845,0,0,0-8.9-4.928l8.9-9.565ZM59.195,25.179H90.9a7.11,7.11,0,0,0,5.468-2.6h2.343V28.96H51.374V22.583h2.351a7.113,7.113,0,0,0,5.47,2.6Zm42.42-8.393a2.9,2.9,0,0,1,2.9,2.9V28.96h-2.9V22.583a2.9,2.9,0,0,0-2.9-2.9h-.878a6.393,6.393,0,0,0,.09-2.9Zm-42.42-3.02H90.9a4.258,4.258,0,1,1,0,8.515H59.195a4.258,4.258,0,1,1,0-8.515ZM45.571,19.684a2.9,2.9,0,0,1,2.9-2.9h3.688a6.361,6.361,0,0,0,.088,2.9h-.878a2.9,2.9,0,0,0-2.9,2.9V28.96h-2.9ZM84.466,92.129a1.449,1.449,0,0,1-1.449,1.449H67.074a1.449,1.449,0,0,1-1.449-1.449V86.357a1.449,1.449,0,0,1,1.449-1.449H83.016a1.449,1.449,0,0,1,1.449,1.449Zm2.9-4.336V86.357a4.348,4.348,0,0,0-4.348-4.348H67.074a4.348,4.348,0,0,0-4.348,4.348v1.436H36.467a7.281,7.281,0,0,1-5.174-2.174L6.827,60.66a7.209,7.209,0,0,1-2.071-5.072V36.422a4.577,4.577,0,0,1,4.572-4.571H139.311a4.577,4.577,0,0,1,4.575,4.571v19.3a7.212,7.212,0,0,1-1.942,4.935L129.137,74.422A31.014,31.014,0,0,0,95.569,87.79Zm14.41,36.845a28.261,28.261,0,1,1,19.986,8.277A28.261,28.261,0,0,1,101.774,124.638Zm36.623,7.436a2.754,2.754,0,0,1-.53-.78A30.167,30.167,0,0,0,148.4,120.748a2.792,2.792,0,0,1,.784.541,2.865,2.865,0,0,1,0,4.045l-6.743,6.741a2.862,2.862,0,0,1-4.043,0Zm33.406,22.62a5.061,5.061,0,0,1-7.4-.258l-18.71-21.516,4.341-4.325,21.514,18.71a5.064,5.064,0,0,1,.258,7.4Z"/><path class="i" d="M108.706,66.164a23.71,23.71,0,1,0,6.945,16.767,23.71,23.71,0,0,0-6.945-16.767Zm-2.049,31.483a20.813,20.813,0,1,1,6.1-14.716A20.813,20.813,0,0,1,106.657,97.646Z" transform="translate(29.819 21.723)"/></g></svg>