<svg xmlns="http://www.w3.org/2000/svg" width="104.144" height="154" viewBox="0 0 104.144 154"><defs><style>.a{fill:#e6e7e8;}.b{fill:#54349f;}.c{fill:#ffd000;}.d{fill:#fff;}.e{fill:#f6dd6f;}.f{fill:#0089ef;}.g{fill:#3a2c60;}</style></defs><g transform="translate(-23.335 -3.357)"><path class="a" d="M100.023,64.547a33.293,33.293,0,1,0-46.362,0A26.907,26.907,0,0,0,27.335,91.414v60.979a3.842,3.842,0,0,0,3.842,3.842h91.339a3.842,3.842,0,0,0,3.842-3.842V91.414A26.907,26.907,0,0,0,100.023,64.547Z" transform="translate(1.122 1.122)"/><path class="b" d="M95.186,49H92.4a31.974,31.974,0,0,1-39.673,0H49.945a25.61,25.61,0,0,0-25.61,25.61v60.981a2.561,2.561,0,0,0,2.561,2.561h91.339a2.561,2.561,0,0,0,2.561-2.561V74.61A25.61,25.61,0,0,0,95.186,49Z" transform="translate(0.281 12.804)"/><circle class="c" cx="32.013" cy="32.013" r="32.013" transform="translate(40.833 4.67)"/><path class="d" d="M69.013,8.224a32.012,32.012,0,0,1,31.95,30.087c.039-.635.063-1.275.063-1.916a32.013,32.013,0,0,0-64.026,0c0,.64.024,1.281.063,1.921A32.013,32.013,0,0,1,69.013,8.224Z" transform="translate(3.833 0.288)"/><circle class="c" cx="32.013" cy="32.013" r="32.013" transform="translate(40.833 77.947)"/><circle class="e" cx="19.208" cy="19.208" r="19.208" transform="translate(53.638 90.752)"/><g transform="translate(36.351 73.465)"><circle class="f" cx="6.403" cy="6.403" r="6.403" transform="translate(30.092 30.092)"/><rect class="f" width="13.361" height="5.705" rx="2.149" transform="translate(0 33.643)"/><rect class="f" width="13.36" height="5.705" rx="2.149" transform="translate(59.628 33.643)"/><rect class="f" width="5.705" height="13.36" rx="2.149" transform="translate(33.642)"/><rect class="f" width="5.705" height="13.36" rx="2.149" transform="translate(33.642 59.63)"/></g><path class="g" d="M99.946,91.75a1.281,1.281,0,0,0-1.281,1.281v12.485a1.281,1.281,0,1,0,2.561,0V93.031A1.281,1.281,0,0,0,99.946,91.75Z" transform="translate(21.131 24.795)"/><path class="g" d="M96.023,60.547a33.293,33.293,0,1,0-46.362,0A26.907,26.907,0,0,0,23.335,87.414v60.979a3.842,3.842,0,0,0,3.842,3.842h91.339a3.842,3.842,0,0,0,3.842-3.842V135.6a1.281,1.281,0,0,0-2.561,0v12.8a1.281,1.281,0,0,1-1.281,1.281H27.177a1.281,1.281,0,0,1-1.281-1.281V87.414a24.357,24.357,0,0,1,24.33-24.33h2.366a33.2,33.2,0,0,0,40.509,0h2.365a24.357,24.357,0,0,1,24.33,24.33v25.4a1.281,1.281,0,0,0,2.561,0v-25.4A26.907,26.907,0,0,0,96.023,60.547ZM42.114,36.682A30.732,30.732,0,1,1,72.846,67.415,30.732,30.732,0,0,1,42.114,36.682Z" transform="translate(0)"/><path class="g" d="M86.976,91.1a20.488,20.488,0,1,0-20.488,20.488A20.488,20.488,0,0,0,86.976,91.1Zm-38.415,0a17.927,17.927,0,1,1,17.927,17.927A17.927,17.927,0,0,1,48.561,91.1Z" transform="translate(6.358 18.865)"/><path class="g" d="M71.366,88.29a7.683,7.683,0,1,0-7.683,7.683A7.683,7.683,0,0,0,71.366,88.29Zm-12.805,0a5.122,5.122,0,1,1,5.122,5.122A5.122,5.122,0,0,1,58.561,88.29Z" transform="translate(9.163 21.67)"/><path class="g" d="M70.175,132.657h.2a4.037,4.037,0,0,0,4.034-4.032v-.747a33.306,33.306,0,0,0,28.864-28.863h.745a4.037,4.037,0,0,0,4.032-4.032v-.2a4.036,4.036,0,0,0-4.032-4.032h-.745A33.306,33.306,0,0,0,74.409,61.887v-.747a4.037,4.037,0,0,0-4.034-4.034h-.2a4.037,4.037,0,0,0-4.032,4.034v.747A33.306,33.306,0,0,0,37.278,90.75h-.745A4.036,4.036,0,0,0,32.5,94.782v.2a4.037,4.037,0,0,0,4.032,4.032h.745a33.306,33.306,0,0,0,28.865,28.863v.747a4.036,4.036,0,0,0,4.032,4.032Zm1.672-4.032a1.474,1.474,0,0,1-1.473,1.471h-.2a1.473,1.473,0,0,1-1.471-1.471v-7.856a1.473,1.473,0,0,1,1.471-1.471h.2a1.474,1.474,0,0,1,1.473,1.471Zm33.642-33.843v.2a1.474,1.474,0,0,1-1.471,1.471H96.162a1.474,1.474,0,0,1-1.473-1.471v-.2a1.474,1.474,0,0,1,1.473-1.471h7.856A1.474,1.474,0,0,1,105.489,94.782ZM68.7,61.141a1.474,1.474,0,0,1,1.471-1.473h.2a1.474,1.474,0,0,1,1.473,1.473V69a1.474,1.474,0,0,1-1.473,1.471h-.2A1.473,1.473,0,0,1,68.7,69ZM35.061,94.983v-.2a1.474,1.474,0,0,1,1.471-1.471h7.856a1.474,1.474,0,0,1,1.473,1.471v.2a1.474,1.474,0,0,1-1.473,1.471H36.532a1.474,1.474,0,0,1-1.471-1.471Zm4.794,4.032h4.533a4.037,4.037,0,0,0,4.034-4.032v-.2a4.037,4.037,0,0,0-4.034-4.032H39.855A30.752,30.752,0,0,1,66.143,64.464V69a4.036,4.036,0,0,0,4.032,4.032h.2A4.037,4.037,0,0,0,74.409,69V64.464A30.752,30.752,0,0,1,100.695,90.75H96.162a4.037,4.037,0,0,0-4.034,4.032v.2a4.039,4.039,0,0,0,4.034,4.032h4.533A30.749,30.749,0,0,1,74.409,125.3v-4.532a4.037,4.037,0,0,0-4.034-4.032h-.2a4.036,4.036,0,0,0-4.032,4.032V125.3A30.749,30.749,0,0,1,39.855,99.016Z" transform="translate(2.571 15.078)"/></g></svg>