<svg xmlns="http://www.w3.org/2000/svg" width="153.984" height="154.084" viewBox="0 0 153.984 154.084"><defs><style>.a{fill:#e6e7e8;}.b{fill:#54349f;}.c{fill:#fff;}.d{fill:#fa759e;}.e{fill:#d4fbff;}.f{fill:#f6dd6f;}.g{fill:#ffd000;}.h{fill:#0089ef;}.i{fill:#6dc9f7;}.j{fill:#453890;}.k{fill:#3a2c60;}</style></defs><g transform="translate(-3.551 -0.764)"><path class="a" d="M135.245,60.2a28.222,28.222,0,1,0-36.012,0,33.264,33.264,0,0,0-13.562,9.766l-.685-2.4a5.25,5.25,0,0,0-6.487-3.6l-1.611.46a5.247,5.247,0,0,0-3.634,6.321L35.544,81.519a3.584,3.584,0,0,0-2.457,4.431l.1.358-9.006,2.57a2.8,2.8,0,0,0-1.923,3.453l.694,2.428-8.168,2.333A3.733,3.733,0,0,0,7.7,99.411l3.37,11.8a3.733,3.733,0,0,0,7.247-1.778l8.167-2.333.694,2.426a2.777,2.777,0,0,0,3.446,1.918l9-2.571.1.358a3.593,3.593,0,0,0,3.459,2.6,3.553,3.553,0,0,0,.987-.127l2.894-.827a9.839,9.839,0,0,0,.681,1.234l-13.513,34.82a3.916,3.916,0,0,0,2.233,5.063,3.865,3.865,0,0,0,1.41.266,3.919,3.919,0,0,0,3.653-2.5l12.908-33.277a9.239,9.239,0,0,0,3.277,0L70.623,149.75a3.913,3.913,0,1,0,7.3-2.831L64.406,112.1a9.89,9.89,0,0,0,1.62-5.424,10.147,10.147,0,0,0-.08-1.2l12.1-3.45v7.527a3.821,3.821,0,0,0,3.821,3.821H152.62a3.821,3.821,0,0,0,3.821-3.821V91.086a33.163,33.163,0,0,0-21.2-30.886Z" transform="translate(1.094 2.595)"/><path class="b" d="M113.172,45.8a26.874,26.874,0,0,1-30.705,0A31.854,31.854,0,0,0,59.9,76.262V94.721a2.547,2.547,0,0,0,2.547,2.547H133.2a2.547,2.547,0,0,0,2.547-2.547V76.262A31.853,31.853,0,0,0,113.172,45.8Z" transform="translate(15.42 12.324)"/><path class="c" d="M133.371,83.926h-71.1A2.372,2.372,0,0,1,59.9,81.554v3.559a2.373,2.373,0,0,0,2.373,2.372h71.1a2.372,2.372,0,0,0,2.372-2.372V81.554a2.372,2.372,0,0,1-2.377,2.372Z" transform="translate(15.42 22.108)"/><path class="d" d="M90.92,49.441l-5.808,4.636L88.4,60.983h5.037l3.29-6.906Z" transform="translate(22.319 13.32)"/><path class="d" d="M93.268,58.5H88.231l-2.5,27.32,5.018,3.821,5.017-3.821Z" transform="translate(22.489 15.8)"/><path class="e" d="M89.833,50.382,100.44,58.85,103.369,46.6A26.768,26.768,0,0,1,89.833,50.382Z" transform="translate(23.611 12.543)"/><path class="e" d="M78.888,46.6,81.81,58.851l10.608-8.468A26.765,26.765,0,0,1,78.888,46.6Z" transform="translate(20.616 12.543)"/><circle class="f" cx="26.948" cy="26.948" r="26.948" transform="translate(78.058 50.564) rotate(-67.486)"/><circle class="g" cx="21.558" cy="21.558" r="21.558" transform="translate(85.103 47.648) rotate(-67.486)"/><path class="c" d="M99.754,43.04a9.743,9.743,0,0,1-5.6,2.585v2.366a1.946,1.946,0,0,1-.525,1.4,2.045,2.045,0,0,1-2.775,0,1.94,1.94,0,0,1-.523-1.4V45.7a16.939,16.939,0,0,1-4.162-.9,11.926,11.926,0,0,1-3.486-1.875A1.9,1.9,0,0,1,82,42.177a2.445,2.445,0,0,1-.187-1.019,2.184,2.184,0,0,1,.469-1.387,1.345,1.345,0,0,1,1.069-.6,1.8,1.8,0,0,1,.693.127,7.688,7.688,0,0,1,.844.432,13.823,13.823,0,0,0,3.393,1.648,11.591,11.591,0,0,0,3.5.525,6.623,6.623,0,0,0,3.881-.973,3.243,3.243,0,0,0,1.368-2.812,2.26,2.26,0,0,0-.75-1.763,5.438,5.438,0,0,0-1.874-1.067q-1.125-.394-3.15-.92a33.857,33.857,0,0,1-4.572-1.443,7.915,7.915,0,0,1-3.036-2.23,6.036,6.036,0,0,1-1.274-4.048,6.989,6.989,0,0,1,2.174-5.175,9.97,9.97,0,0,1,5.692-2.647V16.461a1.942,1.942,0,0,1,.525-1.4,2.046,2.046,0,0,1,2.775,0,1.947,1.947,0,0,1,.525,1.4v2.324a12.582,12.582,0,0,1,6.522,2.737,2.1,2.1,0,0,1,.9,1.761,2.183,2.183,0,0,1-.47,1.387,1.374,1.374,0,0,1-1.106.6,1.951,1.951,0,0,1-.656-.112,4.415,4.415,0,0,1-.843-.451,14.251,14.251,0,0,0-2.905-1.63,8.781,8.781,0,0,0-3.243-.543,6.077,6.077,0,0,0-3.711,1.03,3.334,3.334,0,0,0-1.387,2.83A2.675,2.675,0,0,0,87.96,28.4a5.241,5.241,0,0,0,1.987,1.181q1.2.413,3.262.937a32.29,32.29,0,0,1,4.458,1.387,7.605,7.605,0,0,1,2.943,2.155,5.887,5.887,0,0,1,1.218,3.918,6.856,6.856,0,0,1-2.073,5.061Z" transform="translate(21.417 3.763)"/><path class="e" d="M39.224,86.077,25.469,121.534a2.64,2.64,0,1,0,4.921,1.91l13.3-34.29a8.671,8.671,0,0,1-4.468-3.077Z" transform="translate(5.948 23.346)"/><path class="e" d="M61.782,121.534,48.027,86.077a8.681,8.681,0,0,1-4.468,3.077l13.3,34.289a2.639,2.639,0,0,0,4.92-1.91Z" transform="translate(10.948 23.346)"/><path class="h" d="M35.159,85.06A8.674,8.674,0,0,0,51.832,80.3Z" transform="translate(8.649 21.765)"/><path class="h" d="M27.346,66.652,17.121,69.574a1.519,1.519,0,0,0-1.043,1.877L20.99,88.645a1.519,1.519,0,0,0,1.879,1.043l10.224-2.922Z" transform="translate(3.412 18.03)"/><path class="i" d="M0,0H11.013V10.286H0Z" transform="translate(9.976 96.201) rotate(-15.953)"/><path class="h" d="M12.765,87.1,9.4,75.3A2.472,2.472,0,1,0,4.645,76.66l3.371,11.8A2.47,2.47,0,0,0,12.765,87.1Z" transform="translate(0.273 19.906)"/><path class="j" d="M65.084,54.436,26.16,65.556a2.312,2.312,0,0,0-1.587,2.857l6.651,23.28a2.31,2.31,0,0,0,2.857,1.586L73.005,82.156Z" transform="translate(5.728 14.687)"/><rect class="h" width="9.621" height="38.99" rx="3.12" transform="translate(69.471 64.248) rotate(-15.953)"/><g transform="translate(3.551 7.751)"><path class="k" d="M131.223,56.218a28.22,28.22,0,1,0-35.967,0,33.217,33.217,0,0,0-13.578,9.771l-.693-2.42a5.249,5.249,0,0,0-6.488-3.6l-1.609.46a5.222,5.222,0,0,0-3.634,6.321L57.082,70.224a1.274,1.274,0,0,0,.349,2.5,1.24,1.24,0,0,0,.35-.051L69.937,69.2l7.22,25.273-37.7,10.77a1.035,1.035,0,0,1-1.274-.712L31.53,81.25a1.039,1.039,0,0,1,.711-1.283l10.571-3.02a1.274,1.274,0,1,0-.7-2.449l-10.571,3.02a3.589,3.589,0,0,0-2.456,4.431l.1.358-9,2.57a2.793,2.793,0,0,0-1.928,3.453l.693,2.428-8.162,2.333A3.734,3.734,0,0,0,3.7,95.411l3.373,11.8a3.733,3.733,0,0,0,7.242-1.778L22.48,103.1l.693,2.42a2.784,2.784,0,0,0,3.457,1.924l9-2.572.1.358a3.632,3.632,0,0,0,4.435,2.468l2.905-.83a9.985,9.985,0,0,0,.68,1.213L30.225,142.918a3.913,3.913,0,1,0,7.3,2.831l12.907-33.261a9.588,9.588,0,0,0,3.281-.01l12.911,33.272a3.888,3.888,0,0,0,2.07,2.165,3.916,3.916,0,0,0,5.228-5L60.405,108.1a9.894,9.894,0,0,0,1.619-5.426,9.361,9.361,0,0,0-.082-1.2l12.1-3.45v7.527a3.821,3.821,0,0,0,3.821,3.821h70.75a3.821,3.821,0,0,0,3.821-3.821V87.084a33.14,33.14,0,0,0-21.215-30.866ZM11,107.33a1.2,1.2,0,0,1-1.477-.822l-3.375-11.8a1.195,1.195,0,0,1,.822-1.477,1.146,1.146,0,0,1,.329-.047,1.2,1.2,0,0,1,1.146.867l3.37,11.8A1.2,1.2,0,0,1,11,107.33Zm2.647-4.356-2.13-7.441,8.144-2.326,2.126,7.441Zm21.287-.553-9,2.571a.274.274,0,0,1-.3-.168L20.717,87.63a.279.279,0,0,1,.168-.3l9-2.57,4.658,16.3ZM116.8,62.482a28.02,28.02,0,0,0,8.279-2.38l-1.8,7.55Zm-4.919,11.59h2.709l2.332,25.46-3.686,2.8-3.686-2.8Zm3.07-2.547h-3.429l-2.508-5.268,4.222-3.37,4.222,3.37ZM103.2,67.641l-1.8-7.55a28.021,28.021,0,0,0,8.279,2.38ZM87.565,34.487a25.674,25.674,0,1,1,25.674,25.674A25.674,25.674,0,0,1,87.565,34.487ZM71.97,64.157a2.675,2.675,0,0,1,1.619-1.285l1.609-.46a2.7,2.7,0,0,1,3.337,1.853l8.533,29.849a2.7,2.7,0,0,1-1.853,3.338l-1.609.46a2.705,2.705,0,0,1-3.338-1.854L71.734,66.21a2.675,2.675,0,0,1,.236-2.053Zm-36.824,80.67a1.366,1.366,0,0,1-2.547-.987l13.045-33.614a9.912,9.912,0,0,0,2.349,1.491Zm35.616.779A1.363,1.363,0,0,1,69,144.827L56.156,111.738a10,10,0,0,0,2.351-1.488l13.036,33.589A1.368,1.368,0,0,1,70.763,145.607ZM59.477,102.671a7.4,7.4,0,0,1-13.927,3.48l13.9-3.97c.011.167.032.325.032.49Zm90.41,2.873a1.274,1.274,0,0,1-1.274,1.274H77.867a1.274,1.274,0,0,1-1.274-1.274V97.282l1.281-.366a5.238,5.238,0,0,0,6.429,3.446l1.61-.461a5.246,5.246,0,0,0,3.6-6.485L82.548,69.035a30.643,30.643,0,0,1,15.176-10.99c.222.145.444.289.67.429l2.793,11.718a1.274,1.274,0,0,0,.825.908,1.246,1.246,0,0,0,.414.07,1.274,1.274,0,0,0,.795-.281l3.751-2.994,2.448,5.14-2.467,26.972a1.274,1.274,0,0,0,.5,1.13l5.018,3.821a1.274,1.274,0,0,0,1.541,0l5.018-3.821a1.274,1.274,0,0,0,.5-1.13l-2.468-26.973,2.448-5.14,3.751,3a1.274,1.274,0,0,0,2.038-.7l2.794-11.718q.343-.214.679-.436a30.6,30.6,0,0,1,21.124,29.039Z" transform="translate(-3.551 -6.25)"/><path class="k" d="M38.044,61.652a1.285,1.285,0,0,0,.35-.05l4.911-1.4.909-.255a1.274,1.274,0,1,0-.7-2.449l-.911.255-4.911,1.4a1.274,1.274,0,0,0,.349,2.5Z" transform="translate(5.538 7.761)"/></g></g></svg>