<svg xmlns="http://www.w3.org/2000/svg" width="125.707" height="132" viewBox="0 0 125.707 132"><defs><style>.a{fill:#e6e7e8;}.b{fill:#453890;}.c{fill:#54349f;}.d{fill:#f6dd6f;}.e{fill:#ffd000;}.f{fill:#fff;}.g{fill:#edeef2;}.h{fill:#3a2c60;}</style></defs><g transform="translate(-6.534 -3.657)"><path class="a" d="M107.079,31.587a1.1,1.1,0,0,0-.283-.037H89.134V26.212h20.28a1.094,1.094,0,0,0,1.094-1.094V8.751a1.094,1.094,0,0,0-1.094-1.094h-27.7V31.551H38.4a.944.944,0,0,0-.226.051c-.521-.031-1.043-.051-1.572-.051A26.1,26.1,0,0,0,10.534,57.619v39.3a4.319,4.319,0,0,0,4.314,4.314H65.185v32.954a1.094,1.094,0,0,0,1.094,1.094H95.5a1.094,1.094,0,0,0,1.094-1.094V101.235h30.961a4.319,4.319,0,0,0,4.314-4.314v-39.3a25.982,25.982,0,0,0-24.787-26.032Z" transform="translate(0.375 0.375)"/><path class="b" d="M100.408,26.528V26.5h-68.4v.071a24.973,24.973,0,0,1,23.177,24.9V94h65.975a3.22,3.22,0,0,0,3.22-3.22v-39.3a24.971,24.971,0,0,0-23.976-24.949Z" transform="translate(2.389 2.142)"/><path class="c" d="M32.509,26.5A24.974,24.974,0,0,0,7.534,51.478v39.3A3.22,3.22,0,0,0,10.754,94h46.73V51.478A24.976,24.976,0,0,0,32.509,26.5Z" transform="translate(0.094 2.142)"/><path class="d" d="M57.5,88.214h20.43v34.047H57.5Z" transform="translate(4.778 7.927)"/><path class="e" d="M76.18,88.214h8.788v34.047H76.18Z" transform="translate(6.529 7.927)"/><path class="f" d="M77.4,4.657H98.771V21.025H77.4Z" transform="translate(6.643 0.094)"/><path class="e" d="M77.4,7.314H98.771V20.776H77.4Z" transform="translate(6.643 0.343)"/><path class="c" d="M75.229,50.27a6.632,6.632,0,0,1,2.615.534V4.657h-5.23V50.8A6.636,6.636,0,0,1,75.229,50.27Z" transform="translate(6.195 0.094)"/><circle class="f" cx="6.666" cy="6.666" r="6.666" transform="translate(73.398 52.041) rotate(-13.3)"/><path class="g" d="M45.134,53.119H17.675A1.285,1.285,0,0,0,16.39,54.4v4.1a1.285,1.285,0,0,0,1.285,1.285H45.134A1.285,1.285,0,0,0,46.419,58.5V54.4A1.286,1.286,0,0,0,45.134,53.119Z" transform="translate(0.924 4.637)"/><g transform="translate(6.534 3.657)"><path class="h" d="M103.079,27.587a1.1,1.1,0,0,0-.283-.037H85.134V22.212h20.28a1.094,1.094,0,0,0,1.094-1.094V4.751a1.094,1.094,0,0,0-1.094-1.094h-27.7V27.551H34.4a.944.944,0,0,0-.226.051c-.521-.031-1.043-.051-1.572-.051A26.1,26.1,0,0,0,6.534,53.619v39.3a4.319,4.319,0,0,0,4.314,4.314h4.916a1.094,1.094,0,0,0,0-2.187H10.848a2.129,2.129,0,0,1-2.126-2.126v-39.3A23.908,23.908,0,0,1,32.6,29.739c.579,0,1.152.028,1.72.069h0A23.967,23.967,0,0,1,56.04,49.046l0,.021q.213,1.093.325,2.218c0,.025,0,.051.005.078.071.744.109,1.5.109,2.256V95.047H31.619a1.094,1.094,0,0,0,0,2.188H61.184v32.954a1.094,1.094,0,0,0,1.094,1.094H91.5a1.094,1.094,0,0,0,1.094-1.094V97.235h30.961a4.319,4.319,0,0,0,4.314-4.314v-39.3a25.982,25.982,0,0,0-24.787-26.032ZM79.252,51.9a5.572,5.572,0,1,1-3.4,5.131A5.607,5.607,0,0,1,79.252,51.9ZM85.134,5.844H104.32v14.18H85.134Zm-5.231,0h3.044V49.418c-.143-.028-.291-.044-.436-.065-.1-.014-.207-.035-.313-.046s-.186-.009-.28-.014c-.164-.011-.327-.025-.493-.025s-.323.014-.483.024c-.1.005-.195.005-.291.014s-.2.03-.3.044c-.15.021-.3.036-.448.066V5.845Zm-16.53,91.39H81.615v31.86H63.373ZM90.4,129.095H83.8V97.235h6.6Zm35.276-36.174a2.129,2.129,0,0,1-2.126,2.126H58.672V53.619c0-.6-.027-1.186-.067-1.771-.009-.132-.02-.265-.031-.4a25.948,25.948,0,0,0-.547-3.572c-.007-.031-.014-.062-.022-.093A26.164,26.164,0,0,0,43.04,29.74H77.715V50.217a7.76,7.76,0,1,0,7.418,0V29.739h17.428a.936.936,0,0,0,.193.024,23.8,23.8,0,0,1,22.925,23.857v39.3Z" transform="translate(-6.534 -3.657)"/><path class="h" d="M26.538,87.214H19.052a1.094,1.094,0,1,0,0,2.187h7.487a1.094,1.094,0,1,0,0-2.187Z" transform="translate(-5.463 4.176)"/><path class="h" d="M47.605,58.594V54.5a2.382,2.382,0,0,0-2.379-2.379H17.769A2.382,2.382,0,0,0,15.39,54.5v4.1a2.382,2.382,0,0,0,2.379,2.379H45.227A2.381,2.381,0,0,0,47.605,58.594Zm-30.028,0V54.5a.192.192,0,0,1,.191-.191H45.227a.192.192,0,0,1,.191.191v4.1a.192.192,0,0,1-.191.191H17.769a.192.192,0,0,1-.191-.191Z" transform="translate(-5.704 0.886)"/></g></g></svg>