<svg width="74" height="76" viewBox="0 0 74 76" fill="none" xmlns="http://www.w3.org/2000/svg">
<path d="M53.3685 12.6224V73.1226C53.3685 74.5777 52.1874 75.7588 50.7323 75.7588H12.0683C10.6132 75.7588 9.43213 74.5777 9.43213 73.1226V12.6224C9.43213 11.1673 10.6132 9.98621 12.0683 9.98621H50.7321C52.1874 9.98621 53.3685 11.1671 53.3685 12.6224Z" fill="#B7C5FF"/>
<path d="M49.0681 53.3195V31.527C49.0681 31.2357 48.832 30.9998 48.5409 30.9998H14.2601C13.9688 30.9998 13.7329 31.2359 13.7329 31.527V53.3193C13.7329 53.6104 13.969 53.8465 14.2601 53.8465H48.5409C48.832 53.8466 49.0681 53.6106 49.0681 53.3195Z" fill="#8399FE"/>
<path d="M53.3685 37.0824V70.0468H22.0752C20.62 70.0468 19.439 68.8658 19.439 67.4106V37.0824H53.3685Z" fill="#B7C5FF"/>
<path d="M53.3688 18.4517V12.6219C53.3688 11.1659 52.1886 9.98572 50.7326 9.98572H12.0688C10.6128 9.98572 9.43262 11.1659 9.43262 12.6219V18.4517H53.3688Z" fill="#4369FD"/>
<path d="M63.3749 3.9919V64.4919C63.3749 65.9471 62.1938 67.1281 60.7387 67.1281H22.0749C20.6198 67.1281 19.4387 65.9471 19.4387 64.4919V3.9919C19.4387 2.53679 20.6198 1.35571 22.0749 1.35571H60.7387C62.194 1.35571 63.3749 2.53679 63.3749 3.9919Z" fill="white"/>
<path d="M19.4387 31.527V64.4918C19.4387 65.9469 20.6198 67.1279 22.0749 67.1279H60.7387C62.1938 67.1279 63.3749 65.9469 63.3749 64.4918V31.527H19.4387Z" fill="#DCFDEE"/>
<path d="M63.3749 9.82151V3.9919C63.3749 2.53591 62.1947 1.35571 60.7387 1.35571H22.0749C20.6189 1.35571 19.4387 2.53591 19.4387 3.9919V9.82168H63.3749V9.82151Z" fill="#6583FE"/>
<path d="M37.0052 35.3655H34.1932C33.9019 35.3655 33.666 35.1295 33.666 34.8384V24.1415C33.666 23.8503 33.9021 23.6144 34.1932 23.6144H37.0052C37.2963 23.6144 37.5323 23.8505 37.5323 24.1415V34.8384C37.5325 35.1296 37.2964 35.3655 37.0052 35.3655Z" fill="#FFDB7B"/>
<path d="M31.2561 35.3655H28.4442C28.1529 35.3655 27.917 35.1294 27.917 34.8383V28.2203C27.917 27.9291 28.1531 27.6932 28.4442 27.6932H31.2561C31.5474 27.6932 31.7833 27.9293 31.7833 28.2203V34.8383C31.7833 35.1296 31.5472 35.3655 31.2561 35.3655Z" fill="#FFDB7B"/>
<path d="M42.7542 35.3655H39.9422C39.6511 35.3655 39.415 35.1294 39.415 34.8383V21.0704C39.415 20.7792 39.6511 20.5433 39.9422 20.5433H42.7542C43.0453 20.5433 43.2813 20.7793 43.2813 21.0704V34.8383C43.2815 35.1296 43.0455 35.3655 42.7542 35.3655Z" fill="#FFA8CF"/>
<path d="M48.5032 35.3655H45.6912C45.4001 35.3655 45.1641 35.1294 45.1641 34.8383V17.8146C45.1641 17.5233 45.4001 17.2874 45.6912 17.2874H48.5032C48.7943 17.2874 49.0304 17.5235 49.0304 17.8146V34.8383C49.0305 35.1296 48.7945 35.3655 48.5032 35.3655Z" fill="#FF7EB8"/>
<path d="M54.2522 35.3655H51.4403C51.1492 35.3655 50.9131 35.1294 50.9131 34.8383V14.7439C50.9131 14.4526 51.1492 14.2167 51.4403 14.2167H54.2522C54.5433 14.2167 54.7794 14.4528 54.7794 14.7439V34.8385C54.7796 35.1296 54.5435 35.3655 54.2522 35.3655Z" fill="#FF5BA8"/>
<path d="M58.2196 46.0463H24.4766C24.1854 46.0463 23.9495 45.8103 23.9495 45.5192V40.3456C23.9495 40.0543 24.1855 39.8184 24.4766 39.8184H58.2196C58.5109 39.8184 58.7468 40.0545 58.7468 40.3456V45.5192C58.7469 45.8103 58.5109 46.0463 58.2196 46.0463Z" fill="#6583FE"/>
<path d="M33.0185 55.9066H24.8296C24.3434 55.9066 23.9495 55.5125 23.9495 55.0265C23.9495 54.5405 24.3434 54.1464 24.8296 54.1464H33.0185C33.5048 54.1464 33.8987 54.5405 33.8987 55.0265C33.8987 55.5125 33.5048 55.9066 33.0185 55.9066Z" fill="#B7C5FF"/>
<path d="M33.0185 51.1986H24.8296C24.3434 51.1986 23.9495 50.8045 23.9495 50.3185C23.9495 49.8325 24.3434 49.4384 24.8296 49.4384H33.0185C33.5048 49.4384 33.8987 49.8325 33.8987 50.3185C33.8987 50.8045 33.5048 51.1986 33.0185 51.1986Z" fill="#FF7EB8"/>
<path d="M33.0185 59.033H24.8296C24.3434 59.033 23.9495 58.6389 23.9495 58.1529C23.9495 57.6669 24.3434 57.2728 24.8296 57.2728H33.0185C33.5048 57.2728 33.8987 57.6669 33.8987 58.1529C33.8987 58.6389 33.5048 59.033 33.0185 59.033Z" fill="#B7C5FF"/>
<path d="M33.0185 62.1593H24.8296C24.3434 62.1593 23.9495 61.7652 23.9495 61.2792C23.9495 60.7932 24.3434 60.399 24.8296 60.399H33.0185C33.5048 60.399 33.8987 60.7932 33.8987 61.2792C33.8987 61.7652 33.5048 62.1593 33.0185 62.1593Z" fill="#B7C5FF"/>
<path d="M45.4426 55.9066H37.2537C36.7675 55.9066 36.3735 55.5125 36.3735 55.0265C36.3735 54.5405 36.7675 54.1464 37.2537 54.1464H45.4426C45.9288 54.1464 46.3228 54.5405 46.3228 55.0265C46.3228 55.5125 45.9288 55.9066 45.4426 55.9066Z" fill="#B7C5FF"/>
<path d="M45.4426 51.1986H37.2537C36.7675 51.1986 36.3735 50.8045 36.3735 50.3185C36.3735 49.8325 36.7675 49.4384 37.2537 49.4384H45.4426C45.9288 49.4384 46.3228 49.8325 46.3228 50.3185C46.3228 50.8045 45.9288 51.1986 45.4426 51.1986Z" fill="#FFDB7B"/>
<path d="M45.4426 59.033H37.2537C36.7675 59.033 36.3735 58.6389 36.3735 58.1529C36.3735 57.6669 36.7675 57.2728 37.2537 57.2728H45.4426C45.9288 57.2728 46.3228 57.6669 46.3228 58.1529C46.3228 58.6389 45.9288 59.033 45.4426 59.033Z" fill="#B7C5FF"/>
<path d="M45.4426 62.1593H37.2537C36.7675 62.1593 36.3735 61.7652 36.3735 61.2792C36.3735 60.7932 36.7675 60.399 37.2537 60.399H45.4426C45.9288 60.399 46.3228 60.7932 46.3228 61.2792C46.3228 61.7652 45.9288 62.1593 45.4426 62.1593Z" fill="#B7C5FF"/>
<path d="M57.8667 55.9066H49.6777C49.1915 55.9066 48.7976 55.5125 48.7976 55.0265C48.7976 54.5405 49.1915 54.1464 49.6777 54.1464H57.8667C58.3529 54.1464 58.7468 54.5405 58.7468 55.0265C58.7468 55.5125 58.3529 55.9066 57.8667 55.9066Z" fill="#B7C5FF"/>
<path d="M57.8667 51.1986H49.6777C49.1915 51.1986 48.7976 50.8045 48.7976 50.3185C48.7976 49.8325 49.1915 49.4384 49.6777 49.4384H57.8667C58.3529 49.4384 58.7468 49.8325 58.7468 50.3185C58.7468 50.8045 58.3529 51.1986 57.8667 51.1986Z" fill="#6583FE"/>
<path d="M57.8667 59.033H49.6777C49.1915 59.033 48.7976 58.6389 48.7976 58.1529C48.7976 57.6669 49.1915 57.2728 49.6777 57.2728H57.8667C58.3529 57.2728 58.7468 57.6669 58.7468 58.1529C58.7468 58.6389 58.3529 59.033 57.8667 59.033Z" fill="#B7C5FF"/>
<path d="M57.8667 62.1593H49.6777C49.1915 62.1593 48.7976 61.7652 48.7976 61.2792C48.7976 60.7932 49.1915 60.399 49.6777 60.399H57.8667C58.3529 60.399 58.7468 60.7932 58.7468 61.2792C58.7468 61.7652 58.3529 62.1593 57.8667 62.1593Z" fill="#B7C5FF"/>
<path d="M32.77 16.2673C32.77 14.6573 31.4601 13.3474 29.8501 13.3474C28.2401 13.3474 26.9302 14.6573 26.9302 16.2673C26.9302 17.0613 27.2497 17.7813 27.7657 18.3082C27.2496 18.8351 26.9302 19.5552 26.9302 20.3492C26.9302 20.8346 27.3238 21.2282 27.8091 21.2282C28.2944 21.2282 28.688 20.8346 28.688 20.3492C28.688 19.7085 29.2094 19.1872 29.8501 19.1872C30.4908 19.1872 31.0122 19.7085 31.0122 20.3492C31.0122 20.8346 31.4057 21.2282 31.8911 21.2282C32.3764 21.2282 32.77 20.8346 32.77 20.3492C32.77 19.5552 32.4504 18.8352 31.9345 18.3082C32.4504 17.7813 32.77 17.0613 32.77 16.2673ZM29.8501 15.1052C30.4908 15.1052 31.0122 15.6265 31.0122 16.2673C31.0122 16.908 30.4908 17.4293 29.8501 17.4293C29.2094 17.4293 28.688 16.908 28.688 16.2673C28.688 15.6265 29.2094 15.1052 29.8501 15.1052Z" fill="#FF7EB8"/>
<path d="M63.3749 3.9919V64.4919C63.3749 65.9471 62.1938 67.1281 60.7387 67.1281H22.0749C20.6198 67.1281 19.4387 65.9471 19.4387 64.4919V3.9919C19.4387 2.53679 20.6198 1.35571 22.0749 1.35571H60.7387C62.194 1.35571 63.3749 2.53679 63.3749 3.9919Z" fill="url(#paint0_linear)"/>
<path d="M16.1255 13.3271C15.6402 13.3271 15.2466 13.7207 15.2466 14.206V14.2317C15.2466 14.717 15.6402 15.1106 16.1255 15.1106C16.6108 15.1106 17.0044 14.717 17.0044 14.2317V14.206C17.0044 13.7205 16.6108 13.3271 16.1255 13.3271Z" fill="#2D58E0"/>
<path d="M26.1316 4.69696C25.6463 4.69696 25.2527 5.09053 25.2527 5.57587V5.60153C25.2527 6.08686 25.6463 6.48044 26.1316 6.48044C26.6169 6.48044 27.0105 6.08686 27.0105 5.60153V5.57587C27.0105 5.09053 26.6169 4.69696 26.1316 4.69696Z" fill="#2D58E0"/>
<path d="M29.5278 4.69696C29.0425 4.69696 28.6489 5.09053 28.6489 5.57587V5.60153C28.6489 6.08686 29.0425 6.48044 29.5278 6.48044C30.0132 6.48044 30.4067 6.08686 30.4067 5.60153V5.57587C30.4067 5.09053 30.0132 4.69696 29.5278 4.69696Z" fill="#2D58E0"/>
<path d="M32.9241 4.69696C32.4387 4.69696 32.0452 5.09053 32.0452 5.57587V5.60153C32.0452 6.08686 32.4387 6.48044 32.9241 6.48044C33.4094 6.48044 33.803 6.08686 33.803 5.60153V5.57587C33.803 5.09053 33.4094 4.69696 32.9241 4.69696Z" fill="#2D58E0"/>
<path d="M71.0989 22.1438C70.8739 22.1438 70.6491 22.058 70.4773 21.8864L68.5409 19.95C68.1976 19.6067 68.1976 19.0502 68.5409 18.7071L70.4773 16.7706C70.8206 16.4275 71.377 16.4275 71.7203 16.7706L73.6567 18.7071C74 19.0504 74 19.6069 73.6567 19.95L71.7203 21.8864C71.5487 22.058 71.3239 22.1438 71.0989 22.1438ZM70.4056 19.3286L71.0989 20.0219L71.7922 19.3286L71.0989 18.6353L70.4056 19.3286Z" fill="#FFDB7B"/>
<path d="M2.90114 50.3806C2.67614 50.3806 2.45131 50.2948 2.27957 50.1232L0.343169 48.1868C-0.000131816 47.8435 -0.000131816 47.287 0.343169 46.9439L2.27957 45.0075C2.62288 44.6643 3.17922 44.6643 3.52252 45.0075L5.45893 46.9439C5.80223 47.2872 5.80223 47.8437 5.45893 48.1868L3.52252 50.1232C3.35114 50.2948 3.12614 50.3806 2.90114 50.3806ZM2.20786 47.5653L2.90114 48.2585L3.59442 47.5653L2.90114 46.872L2.20786 47.5653Z" fill="#FF7EB8"/>
<path d="M69.1625 35.2734C68.6771 35.2734 68.2836 34.8798 68.2836 34.3945C68.2836 33.8114 67.8091 33.337 67.2261 33.337C66.7407 33.337 66.3472 32.9434 66.3472 32.4581C66.3472 31.9727 66.7407 31.5792 67.2261 31.5792C67.8091 31.5792 68.2836 31.1047 68.2836 30.5217C68.2836 30.0363 68.6771 29.6428 69.1625 29.6428C69.6478 29.6428 70.0414 30.0363 70.0414 30.5217C70.0414 31.1047 70.5158 31.5792 71.0989 31.5792C71.5842 31.5792 71.9778 31.9727 71.9778 32.4581C71.9778 32.9434 71.5842 33.337 71.0989 33.337C70.5158 33.337 70.0414 33.8114 70.0414 34.3945C70.0414 34.8798 69.6478 35.2734 69.1625 35.2734Z" fill="#6583FE"/>
<path d="M13.7325 5.8719C13.2472 5.8719 12.8536 5.47832 12.8536 4.99299C12.8536 4.40992 12.3792 3.93549 11.7961 3.93549C11.3108 3.93549 10.9172 3.54192 10.9172 3.05658C10.9172 2.57125 11.3108 2.17768 11.7961 2.17768C12.3792 2.17768 12.8536 1.70324 12.8536 1.12018C12.8536 0.634846 13.2472 0.241272 13.7325 0.241272C14.2179 0.241272 14.6115 0.634846 14.6115 1.12018C14.6115 1.70324 15.0859 2.17768 15.669 2.17768C16.1543 2.17768 16.5479 2.57125 16.5479 3.05658C16.5479 3.54192 16.1543 3.93549 15.669 3.93549C15.0859 3.93549 14.6115 4.40992 14.6115 4.99299C14.6115 5.47832 14.2179 5.8719 13.7325 5.8719Z" fill="#6583FE"/>
<defs>
<linearGradient id="paint0_linear" x1="41.4068" y1="1.35571" x2="41.4068" y2="67.1281" gradientUnits="userSpaceOnUse">
<stop offset="0.0028" stop-color="#FF7EB8" stop-opacity="0"/>
<stop offset="1" stop-color="#FF7EB8" stop-opacity="0.6"/>
</linearGradient>
</defs>
</svg>
