<svg width="84" height="84" viewBox="0 0 84 84" fill="none" xmlns="http://www.w3.org/2000/svg">
<path d="M41.9999 48.4723C55.1802 48.4723 65.865 37.7875 65.865 24.6072C65.865 11.4268 55.1802 0.742035 41.9999 0.742035C28.8195 0.742035 18.1348 11.4268 18.1348 24.6072C18.1348 37.7875 28.8195 48.4723 41.9999 48.4723Z" fill="#8399FE"/>
<path d="M64.5361 32.479C65.3976 30.0151 65.8659 27.3662 65.8659 24.607C65.8659 23.3185 65.764 22.0546 65.5671 20.8206H18.4331C18.2362 22.0546 18.1343 23.3185 18.1343 24.607C18.1343 27.3664 18.6026 30.0151 19.4641 32.479H64.5361Z" fill="#6583FE"/>
<path d="M42.0004 43.9155C48.6609 43.9155 54.7653 40.55 58.3299 34.9129C58.5896 34.5028 58.4671 33.9598 58.057 33.7005C57.646 33.4411 57.1037 33.5636 56.8444 33.9737C53.6037 39.0982 48.0545 42.1577 42.0004 42.1577C35.9463 42.1577 30.3971 39.0982 27.1564 33.9735C26.8971 33.5634 26.3546 33.4411 25.9438 33.7003C25.5337 33.9598 25.4114 34.5026 25.6708 34.9127C29.2355 40.5502 35.3399 43.9155 42.0004 43.9155Z" fill="#6583FE"/>
<path d="M58.3295 14.3011C54.7649 8.66398 48.6601 5.29865 42 5.29865C35.3398 5.29865 29.2351 8.66415 25.6704 14.3011C25.4108 14.7114 25.5333 15.2544 25.9434 15.5136C26.3537 15.7727 26.8967 15.6508 27.156 15.2407C30.3968 10.1159 35.9461 7.05628 42 7.05628C48.0539 7.05628 53.6033 10.1158 56.844 15.2407C57.0112 15.505 57.2961 15.6499 57.5875 15.6499C57.748 15.6499 57.9106 15.6058 58.0565 15.5136C58.4668 15.2542 58.5891 14.7114 58.3295 14.3011Z" fill="#6583FE"/>
<path d="M41.9999 48.4723C55.1802 48.4723 65.865 37.7875 65.865 24.6072C65.865 11.4268 55.1802 0.742035 41.9999 0.742035C28.8195 0.742035 18.1348 11.4268 18.1348 24.6072C18.1348 37.7875 28.8195 48.4723 41.9999 48.4723Z" fill="url(#paint0_linear)"/>
<path d="M83.5723 20.0799V28.6897C83.5723 29.6616 82.7849 30.4471 81.8148 30.4471H2.1852C1.21506 30.4471 0.427734 29.6616 0.427734 28.6897V20.0799C0.427734 19.1098 1.21506 18.3224 2.1852 18.3224H81.8148C82.7849 18.3224 83.5723 19.1098 83.5723 20.0799Z" fill="white"/>
<path d="M65.8642 24.6072C65.8642 26.6213 65.6146 28.5789 65.1437 30.4471H18.8563C18.3854 28.5789 18.1357 26.6213 18.1357 24.6072C18.1357 22.4315 18.4275 20.3242 18.9723 18.3226H65.0279C65.5724 20.3242 65.8642 22.4313 65.8642 24.6072Z" fill="#FFC4DF"/>
<path d="M83.5723 20.0799V28.6897C83.5723 29.6616 82.7849 30.4471 81.8148 30.4471H2.1852C1.21506 30.4471 0.427734 29.6616 0.427734 28.6897V20.0799C0.427734 19.1098 1.21506 18.3224 2.1852 18.3224H81.8148C82.7849 18.3224 83.5723 19.1098 83.5723 20.0799Z" fill="url(#paint1_linear)"/>
<path d="M12.4016 30.4478H2.18568C1.21502 30.4478 0.428223 29.661 0.428223 28.6904V20.0797C0.428223 19.1091 1.21502 18.3223 2.18568 18.3223H12.4016V30.4478Z" fill="#B7C5FF"/>
<path d="M45.8661 55.7083V81.5005C45.8661 82.4724 45.0788 83.258 44.1086 83.258H39.8908C38.9206 83.258 38.1333 82.4724 38.1333 81.5005V55.7083C38.1333 54.7382 38.9206 53.9509 39.8908 53.9509H44.1086C45.0788 53.9509 45.8661 54.7382 45.8661 55.7083Z" fill="#FF7EB8"/>
<path d="M38.1333 60.4287H45.8661V63.7064H38.1333V60.4287Z" fill="#FF5BA8"/>
<path d="M38.1333 77.2598H45.8661V80.5392H38.1333V77.2598Z" fill="#FF5BA8"/>
<path d="M46.042 61.8619H37.9578C37.4725 61.8619 37.0791 61.4685 37.0791 60.9832V59.4621C37.0791 58.9768 37.4725 58.5834 37.9578 58.5834H46.042C46.5274 58.5834 46.9208 58.9768 46.9208 59.4621V60.9832C46.9208 61.4685 46.5274 61.8619 46.042 61.8619Z" fill="#FFDB7B"/>
<path d="M46.042 78.6935H37.9578C37.4725 78.6935 37.0791 78.3001 37.0791 77.8147V76.2937C37.0791 75.8084 37.4725 75.415 37.9578 75.415H46.042C46.5274 75.415 46.9208 75.8084 46.9208 76.2937V77.8147C46.9208 78.2999 46.5274 78.6935 46.042 78.6935Z" fill="#FFDB7B"/>
<path d="M34.7362 27.6397C34.4164 27.6397 34.1193 27.4655 33.9645 27.1809L33.225 25.822L32.4855 27.1809C32.3179 27.4891 31.9833 27.6672 31.6334 27.636C31.284 27.6039 30.9871 27.3671 30.8783 27.0336L29.4719 22.7259C29.3212 22.2647 29.5731 21.7686 30.0345 21.618C30.4956 21.4679 30.992 21.7192 31.1425 22.1807L31.9161 24.5504L32.4531 23.5637C32.6069 23.2809 32.9031 23.1049 33.225 23.1049C33.5468 23.1049 33.843 23.2809 33.9968 23.5637L34.5338 24.5504L35.3075 22.1807C35.4581 21.7194 35.9545 21.4672 36.4154 21.618C36.8767 21.7686 37.1287 22.2647 36.9779 22.7259L35.5715 27.0336C35.4627 27.3671 35.1658 27.6039 34.8163 27.636C34.7894 27.6385 34.7627 27.6397 34.7362 27.6397Z" fill="#FF5BA8"/>
<path d="M43.511 27.6397C43.1913 27.6397 42.8942 27.4655 42.7394 27.1809L41.9999 25.8222L41.2604 27.1811C41.0928 27.4893 40.7588 27.6673 40.4083 27.6362C40.0589 27.6041 39.762 27.3673 39.6532 27.0338L38.2468 22.7261C38.0961 22.2649 38.348 21.7688 38.8094 21.6182C39.2709 21.4681 39.7667 21.7194 39.9174 22.1808L40.691 24.5506L41.228 23.5639C41.3818 23.2811 41.678 23.1051 41.9999 23.1051C42.3217 23.1051 42.6179 23.2811 42.7717 23.5639L43.3087 24.5506L44.0823 22.1808C44.233 21.7196 44.7296 21.4673 45.1903 21.6182C45.6515 21.7688 45.9036 22.2649 45.7528 22.7261L44.3464 27.0338C44.2375 27.3673 43.9407 27.6041 43.5912 27.6362C43.5643 27.6385 43.5376 27.6397 43.511 27.6397Z" fill="#FF5BA8"/>
<path d="M52.2865 27.6397C51.9667 27.6397 51.6696 27.4655 51.5148 27.1809L50.7753 25.822L50.0358 27.1809C49.8682 27.4891 49.5339 27.6672 49.1837 27.636C48.8343 27.6039 48.5374 27.3671 48.4286 27.0336L47.0222 22.7259C46.8715 22.2647 47.1234 21.7686 47.5848 21.618C48.0463 21.4679 48.5423 21.7192 48.6928 22.1807L49.4664 24.5504L50.0034 23.5637C50.1572 23.2809 50.4534 23.1049 50.7753 23.1049C51.0971 23.1049 51.3933 23.2809 51.5471 23.5637L52.0841 24.5504L52.8577 22.1807C53.0084 21.7194 53.5046 21.4672 53.9657 21.618C54.427 21.7686 54.679 22.2647 54.5284 22.7259L53.1219 27.0336C53.0131 27.3671 52.7162 27.6039 52.3668 27.636C52.3397 27.6385 52.313 27.6397 52.2865 27.6397Z" fill="#FF5BA8"/>
<path d="M42.8789 53.9509V48.457C43.0378 48.4487 40.9813 48.4494 41.1211 48.4566V53.9505L42.8789 53.9509Z" fill="#5127AC"/>
<path d="M9.09199 21.9093C8.03519 20.8521 6.31552 20.8521 5.25873 21.9093C4.41955 22.7483 4.24921 24.0044 4.74263 25.0157L3.49722 26.2611C3.15392 26.6042 3.15392 27.1607 3.49722 27.5038C3.66878 27.6756 3.89378 27.7614 4.11861 27.7614C4.34343 27.7614 4.56861 27.6756 4.73999 27.5038L5.9854 26.2584C6.35982 26.4411 6.7671 26.5351 7.17527 26.5351C7.86943 26.5351 8.56341 26.2709 9.09181 25.7423C10.149 24.6857 10.149 22.9661 9.09199 21.9093ZM7.84921 24.4996C7.47779 24.871 6.8731 24.871 6.50167 24.4996C6.13025 24.1281 6.13025 23.5235 6.50167 23.152C6.68747 22.9662 6.93146 22.8734 7.17544 22.8734C7.41943 22.8734 7.66341 22.9662 7.84921 23.152C8.22064 23.5235 8.22064 24.1281 7.84921 24.4996Z" fill="#6583FE"/>
<path d="M63.9317 54.2613C63.4462 54.2613 63.0528 53.8679 63.0528 53.3824C63.0528 52.8012 62.5802 52.3286 61.999 52.3286C61.5135 52.3286 61.1201 51.9352 61.1201 51.4497C61.1201 50.9641 61.5135 50.5707 61.999 50.5707C62.5802 50.5707 63.0528 50.0981 63.0528 49.5169C63.0528 49.0314 63.4462 48.638 63.9317 48.638C64.4172 48.638 64.8106 49.0314 64.8106 49.5169C64.8106 50.0981 65.2833 50.5707 65.8644 50.5707C66.3499 50.5707 66.7433 50.9641 66.7433 51.4497C66.7433 51.9352 66.3499 52.3286 65.8644 52.3286C65.2833 52.3286 64.8106 52.8012 64.8106 53.3824C64.8106 53.8677 64.4172 54.2613 63.9317 54.2613Z" fill="#FF7EB8"/>
<path d="M69.4855 13.2858C68.9999 13.2858 68.6065 12.8924 68.6065 12.4069C68.6065 11.8257 68.1339 11.3531 67.5527 11.3531C67.0672 11.3531 66.6738 10.9597 66.6738 10.4742C66.6738 9.98865 67.0672 9.59525 67.5527 9.59525C68.1339 9.59525 68.6065 9.12257 68.6065 8.54144C68.6065 8.05593 68.9999 7.66254 69.4855 7.66254C69.971 7.66254 70.3644 8.05593 70.3644 8.54144C70.3644 9.12257 70.837 9.59525 71.4182 9.59525C71.9037 9.59525 72.2971 9.98865 72.2971 10.4742C72.2971 10.9597 71.9037 11.3531 71.4182 11.3531C70.837 11.3531 70.3644 11.8257 70.3644 12.4069C70.3644 12.8924 69.971 13.2858 69.4855 13.2858Z" fill="#FFDB7B"/>
<path d="M12.402 41.5516C11.9164 41.5516 11.523 41.1582 11.523 40.6727C11.523 40.0916 11.0504 39.6189 10.4692 39.6189C9.98373 39.6189 9.59033 39.2255 9.59033 38.74C9.59033 38.2545 9.98373 37.8611 10.4692 37.8611C11.0504 37.8611 11.523 37.3884 11.523 36.8073C11.523 36.3218 11.9164 35.9284 12.402 35.9284C12.8875 35.9284 13.2809 36.3218 13.2809 36.8073C13.2809 37.3884 13.7535 37.8611 14.3347 37.8611C14.8202 37.8611 15.2136 38.2545 15.2136 38.74C15.2136 39.2255 14.8202 39.6189 14.3347 39.6189C13.7535 39.6189 13.2809 40.0916 13.2809 40.6727C13.2809 41.1582 12.8875 41.5516 12.402 41.5516Z" fill="#FF7EB8"/>
<path d="M18.1351 52.7209C17.9103 52.7209 17.6851 52.6351 17.5137 52.4634L15.5812 50.5308C15.2379 50.1877 15.2379 49.6312 15.5812 49.2881L17.5137 47.3555C17.8567 47.0122 18.4136 47.0122 18.7565 47.3555L20.6891 49.2881C21.0324 49.6312 21.0324 50.1877 20.6891 50.5308L18.7565 52.4634C18.5851 52.6351 18.3601 52.7209 18.1351 52.7209ZM17.4455 49.9095L18.1351 50.599L18.8247 49.9095L18.1351 49.2199L17.4455 49.9095Z" fill="#6583FE"/>
<defs>
<linearGradient id="paint0_linear" x1="41.9999" y1="0.742035" x2="41.9999" y2="48.4723" gradientUnits="userSpaceOnUse">
<stop offset="0.0028" stop-color="#FF7EB8" stop-opacity="0"/>
<stop offset="1" stop-color="#FF7EB8" stop-opacity="0.6"/>
</linearGradient>
<linearGradient id="paint1_linear" x1="42" y1="18.3224" x2="42" y2="30.4471" gradientUnits="userSpaceOnUse">
<stop offset="0.0028" stop-color="#FF7EB8" stop-opacity="0"/>
<stop offset="1" stop-color="#FF7EB8" stop-opacity="0.6"/>
</linearGradient>
</defs>
</svg>
