<svg width="77" height="64" viewBox="0 0 77 64" fill="none" xmlns="http://www.w3.org/2000/svg">
<path d="M76.3944 13.8118V34.7627C76.3944 35.0356 76.2764 35.2858 76.0899 35.4586C75.921 35.6189 75.6921 35.714 75.4423 35.714H43.2432C42.9933 35.714 42.7646 35.6189 42.5957 35.4586C42.4092 35.286 42.293 35.0358 42.293 34.7627V13.8118C42.293 13.5388 42.4092 13.2922 42.5957 13.1196C42.7646 12.9575 42.9935 12.8624 43.2432 12.8624H75.4423C75.6923 12.8624 75.921 12.9575 76.0899 13.1196C76.2766 13.292 76.3944 13.5387 76.3944 13.8118Z" fill="#9FB1FA"/>
<path d="M76.3945 13.8098V15.6115L61.3086 28.2186C60.7577 28.6791 60.0609 28.9322 59.3429 28.9322C58.6266 28.9322 57.9278 28.6791 57.3789 28.2186L42.293 15.6133V13.8098C42.293 13.5373 42.4092 13.2912 42.5957 13.1189C42.7646 12.9572 42.9935 12.8623 43.2432 12.8623H75.4423C75.6923 12.8623 75.921 12.9572 76.0899 13.1189C76.2768 13.2912 76.3945 13.5373 76.3945 13.8098Z" fill="#839AFA"/>
<path d="M76.1488 13.1167L60.0312 26.6007C59.6786 26.8956 59.1655 26.8956 58.8129 26.6007L42.6953 13.1167C42.8642 12.9581 43.0912 12.8623 43.3408 12.8623H75.5031C75.7529 12.8621 75.9798 12.9581 76.1488 13.1167Z" fill="#D1DEFD"/>
<path d="M36.8438 3.71342V22.8901C36.8438 23.1399 36.7363 23.3686 36.5655 23.5268C36.4087 23.6727 36.2009 23.7607 35.9701 23.7607H6.42656C6.19752 23.7607 5.98799 23.6729 5.83295 23.5268C5.66033 23.3686 5.55469 23.1399 5.55469 22.8901V3.71342C5.55469 3.46363 5.66033 3.2367 5.83295 3.0785C5.98799 2.93084 6.19752 2.84277 6.42656 2.84277H35.9701C36.2009 2.84277 36.4087 2.93066 36.5655 3.0785C36.7363 3.2367 36.8438 3.46363 36.8438 3.71342Z" fill="#9595F4"/>
<path d="M36.8438 3.71289V5.59199L23.1138 17.0564C22.5784 17.5047 21.8985 17.7508 21.1992 17.7508C20.5 17.7508 19.82 17.5047 19.2829 17.0564L5.55469 5.59375V3.71289C5.55469 3.46328 5.66033 3.23652 5.83295 3.07832C5.98799 2.93066 6.19752 2.84277 6.42656 2.84277H35.9701C36.2009 2.84277 36.4087 2.93066 36.5655 3.07832C36.7363 3.23652 36.8438 3.46328 36.8438 3.71289Z" fill="#F5E0A6"/>
<path d="M36.5208 3.07604L21.7446 15.4378C21.4214 15.7082 20.951 15.7082 20.6277 15.4378L5.85156 3.07604C6.00643 2.93066 6.21455 2.84277 6.44342 2.84277H35.929C36.1578 2.84277 36.366 2.93066 36.5208 3.07604Z" fill="#A4A4FB"/>
<path d="M53.3672 34.3272V61.884C53.3672 62.2431 53.2143 62.5706 52.9682 62.7977C52.7449 63.009 52.4461 63.1357 52.1174 63.1357H9.79277C9.46406 63.1357 9.16348 63.009 8.94199 62.7977C8.6959 62.5706 8.54297 62.2431 8.54297 61.884V34.3272C8.54297 33.9681 8.6959 33.6424 8.94199 33.4153C9.16348 33.2022 9.46406 33.0773 9.79277 33.0773H52.1174C52.4461 33.0773 52.7449 33.2022 52.9682 33.4153C53.2143 33.6422 53.3672 33.968 53.3672 34.3272Z" fill="#FCA8CE"/>
<path d="M53.3672 34.3252V35.8281L33.1102 52.7752C32.5072 53.2797 31.7408 53.5574 30.9551 53.5574C30.1693 53.5574 29.4029 53.2797 28.8 52.7752L8.54297 35.8281V34.3252C8.54297 33.9666 8.6959 33.6414 8.94199 33.4146C9.16348 33.202 9.46406 33.0771 9.79277 33.0771H52.1174C52.4461 33.0771 52.7449 33.202 52.9682 33.4146C53.2143 33.6414 53.3672 33.9666 53.3672 34.3252Z" fill="#FC80B7"/>
<path d="M52.9461 33.4111L31.7346 51.1563C31.2705 51.5447 30.5955 51.5447 30.1314 51.1563L8.91992 33.4111C9.14316 33.2037 9.44199 33.0771 9.7707 33.0771H52.0953C52.424 33.0771 52.7229 33.2037 52.9461 33.4111Z" fill="#FDDAEC"/>
<path d="M47.8836 33.2529C46.9291 36.7053 43.8846 39.335 40.2107 39.6479C38.1383 39.8236 36.2029 39.2734 34.6244 38.2275L31.8348 39.4563C31.2591 39.7099 30.6723 39.1231 30.926 38.5475L32.1547 35.7578C31.652 34.9967 31.2635 34.1547 31.0156 33.2529H47.8836Z" fill="#FDC4DE"/>
<path d="M48.1752 28.7492C48.5136 23.4652 44.1565 19.1079 38.8725 19.4465C34.594 19.7205 31.0984 23.1386 30.7356 27.4104C30.5596 29.4825 31.1086 31.4187 32.1545 32.9969L30.9265 35.7859C30.6728 36.3619 31.2598 36.9487 31.8358 36.6952L34.6247 35.4672C36.2029 36.5131 38.1391 37.062 40.2112 36.8861C44.4831 36.5233 47.9012 33.0277 48.1752 28.7492Z" fill="#F3DB9B"/>
<path d="M36.1037 29.0531C36.6464 29.0531 37.0863 28.6132 37.0863 28.0705C37.0863 27.5278 36.6464 27.0879 36.1037 27.0879C35.561 27.0879 35.1211 27.5278 35.1211 28.0705C35.1211 28.6132 35.561 29.0531 36.1037 29.0531Z" fill="white"/>
<path d="M39.6037 29.0531C40.1464 29.0531 40.5863 28.6132 40.5863 28.0705C40.5863 27.5278 40.1464 27.0879 39.6037 27.0879C39.061 27.0879 38.6211 27.5278 38.6211 28.0705C38.6211 28.6132 39.061 29.0531 39.6037 29.0531Z" fill="white"/>
<path d="M43.1037 29.0531C43.6464 29.0531 44.0863 28.6132 44.0863 28.0705C44.0863 27.5278 43.6464 27.0879 43.1037 27.0879C42.561 27.0879 42.1211 27.5278 42.1211 28.0705C42.1211 28.6132 42.561 29.0531 43.1037 29.0531Z" fill="white"/>
<path d="M12.3162 17.4326H10.0975C9.67506 17.4326 9.28676 17.1498 9.20379 16.7356C9.09059 16.1707 9.5195 15.6748 10.0644 15.6748H12.2831C12.7055 15.6748 13.0938 15.9576 13.1768 16.3718C13.29 16.9367 12.8611 17.4326 12.3162 17.4326Z" fill="white"/>
<path d="M15.0777 20.4209H10.0975C9.67506 20.4209 9.28676 20.1381 9.20379 19.7239C9.09059 19.159 9.5195 18.6631 10.0644 18.6631H15.0445C15.4669 18.6631 15.8552 18.9459 15.9383 19.3601C16.0515 19.925 15.6224 20.4209 15.0777 20.4209Z" fill="white"/>
<path d="M16.1541 55.5771H13.9354C13.513 55.5771 13.1247 55.2943 13.0417 54.8802C12.9285 54.3152 13.3574 53.8193 13.9023 53.8193H16.1208C16.5433 53.8193 16.9316 54.1022 17.0147 54.5163C17.1279 55.0813 16.6988 55.5771 16.1541 55.5771Z" fill="#FDDAEC"/>
<path d="M18.9156 58.5654H13.9354C13.513 58.5654 13.1247 58.2826 13.0417 57.8685C12.9285 57.3035 13.3574 56.8076 13.9023 56.8076H18.8824C19.3048 56.8076 19.6931 57.0904 19.7762 57.5046C19.8894 58.0696 19.4603 58.5654 18.9156 58.5654Z" fill="#FDDAEC"/>
<path d="M61.7467 44.9371C60.7699 44.9371 59.7932 44.3848 59.3311 43.2789C59.1006 42.7275 59.0822 42.1024 59.297 41.5447C59.8261 40.1716 61.1975 39.5137 62.5516 39.9262C62.657 39.9584 62.7601 39.9999 62.8583 40.0498C64.5242 40.8948 64.7587 42.9894 63.5618 44.1861V44.1863C63.0613 44.6868 62.4039 44.9371 61.7467 44.9371ZM62.9896 43.624H62.9914H62.9896ZM61.7961 41.5622C61.58 41.5622 61.3768 41.6464 61.2241 41.7994C60.9085 42.1149 60.9085 42.6282 61.2241 42.9437C61.5394 43.2589 62.0527 43.2591 62.3684 42.9435C62.6838 42.6282 62.6838 42.1149 62.3684 41.7994C62.2153 41.6464 62.0121 41.5622 61.7961 41.5622Z" fill="#9D6CDD"/>
<path d="M65.1752 52.5971C64.5177 52.5971 63.8605 52.3469 63.36 51.8465C62.3592 50.8456 62.3592 49.2172 63.36 48.2164C64.3609 47.2155 65.9894 47.2154 66.9903 48.2164C67.991 49.2172 67.991 50.8456 66.9903 51.8463C66.4898 52.3468 65.8324 52.5971 65.1752 52.5971ZM65.1752 49.2228C64.9679 49.2228 64.7609 49.3017 64.603 49.4596C64.2876 49.7749 64.2876 50.2882 64.603 50.6037C64.9185 50.9189 65.4318 50.9189 65.7472 50.6037C66.0625 50.2882 66.0625 49.7749 65.7472 49.4594C65.5895 49.3017 65.3822 49.2228 65.1752 49.2228Z" fill="#839AFA"/>
<path d="M3.21152 33.7224C2.29851 33.7224 1.38515 33.2394 0.892614 32.2736C0.841989 32.1743 0.799801 32.0701 0.767106 31.9634C0.353141 30.609 1.01127 29.2361 2.3857 28.7061C2.9257 28.498 3.52951 28.5049 4.0674 28.7184C5.14863 29.1477 5.77828 30.104 5.77828 31.1567C5.77828 31.8423 5.51127 32.4868 5.02629 32.9718V32.9716V32.9718C4.52619 33.4721 3.86877 33.7224 3.21152 33.7224ZM3.224 30.3481C3.01676 30.3481 2.80968 30.427 2.65201 30.5847C2.49908 30.7376 2.41488 30.9407 2.41488 31.1569C2.41488 31.3731 2.49908 31.5761 2.65183 31.7289C2.96736 32.0444 3.48064 32.0442 3.79599 31.7291V31.7289C3.94875 31.5761 4.03295 31.3731 4.03295 31.1569C4.03295 30.9407 3.94875 30.7376 3.79599 30.5849C3.63832 30.427 3.43125 30.3481 3.224 30.3481Z" fill="#839AFA"/>
<path d="M48.631 1.78805H48.0928V1.24981C48.0928 0.827409 47.81 0.439106 47.3958 0.356137C46.8309 0.242934 46.335 0.671841 46.335 1.21676V1.78805H45.7968C45.3742 1.78805 44.9859 2.07106 44.9029 2.48555C44.7901 3.05051 45.219 3.54587 45.7637 3.54587H46.335V4.08411C46.335 4.50651 46.6178 4.89481 47.032 4.97778C47.5969 5.09099 48.0928 4.66208 48.0928 4.11716V3.54587H48.6641C49.2087 3.54587 49.6377 3.05051 49.5249 2.48555C49.4421 2.07124 49.0536 1.78805 48.631 1.78805Z" fill="#FC80B7"/>
<path d="M60.76 59.7959H60.2217V59.2576C60.2217 58.8352 59.9389 58.4469 59.5247 58.3639C58.9598 58.2507 58.4639 58.6797 58.4639 59.2246V59.7959H57.9257C57.5031 59.7959 57.1148 60.0789 57.0318 60.4934C56.919 61.0583 57.3479 61.5537 57.8926 61.5537H58.4639V62.0919C58.4639 62.5143 58.7467 62.9026 59.1609 62.9856C59.7258 63.0988 60.2217 62.6699 60.2217 62.125V61.5537H60.793C61.3376 61.5537 61.7667 61.0583 61.6538 60.4934C61.571 60.0789 61.1825 59.7959 60.76 59.7959Z" fill="#FC80B7"/>
<path d="M49.2018 54.292C49.2018 52.6819 47.8917 51.3719 46.2816 51.3719C44.6714 51.3719 43.3613 52.6819 43.3613 54.292C43.3613 55.0862 43.6809 55.8064 44.1972 56.3334C43.6811 56.8604 43.3613 57.5805 43.3613 58.3747C43.3613 58.8602 43.7549 59.2536 44.2402 59.2536C44.7256 59.2536 45.1191 58.8602 45.1191 58.3747C45.1191 57.7338 45.6407 57.2123 46.2816 57.2123C46.9225 57.2123 47.444 57.7338 47.444 58.3747C47.444 58.8602 47.8376 59.2536 48.3229 59.2536C48.8083 59.2536 49.2018 58.8602 49.2018 58.3747C49.2018 57.5805 48.8823 56.8604 48.366 56.3334C48.8823 55.8066 49.2018 55.0862 49.2018 54.292ZM46.2816 53.1298C46.9225 53.1298 47.444 53.6511 47.444 54.292C47.444 54.9329 46.9225 55.4545 46.2816 55.4545C45.6407 55.4545 45.1191 54.9329 45.1191 54.292C45.1191 53.6511 45.6405 53.1298 46.2816 53.1298Z" fill="#FC80B7"/>
<path d="M73.0133 27.2725C73.0133 25.7945 71.8108 24.5922 70.3328 24.5922C68.8549 24.5922 67.6523 25.7945 67.6523 27.2725C67.6523 27.9665 67.9197 28.5975 68.3539 29.0741C67.9197 29.5506 67.6523 30.1817 67.6523 30.8756C67.6523 31.3611 68.0459 31.7545 68.5313 31.7545C69.0166 31.7545 69.4102 31.3611 69.4102 30.8756C69.4102 30.3668 69.8239 29.953 70.3328 29.953C70.8417 29.953 71.2555 30.3668 71.2555 30.8756C71.2555 31.3611 71.6491 31.7545 72.1344 31.7545C72.6197 31.7545 73.0133 31.3611 73.0133 30.8756C73.0133 30.1817 72.746 29.5506 72.3118 29.0741C72.746 28.5975 73.0133 27.9663 73.0133 27.2725ZM70.3328 26.3498C70.8417 26.3498 71.2555 26.7636 71.2555 27.2723C71.2555 27.7812 70.8417 28.195 70.3328 28.195C69.8241 28.195 69.4102 27.7812 69.4102 27.2723C69.4102 26.7638 69.8241 26.3498 70.3328 26.3498Z" fill="#6785F9"/>
<path d="M53.3672 34.3272V61.884C53.3672 62.2431 53.2143 62.5706 52.9682 62.7977C52.7449 63.009 52.4461 63.1357 52.1174 63.1357H9.79277C9.46406 63.1357 9.16348 63.009 8.94199 62.7977C8.6959 62.5706 8.54297 62.2431 8.54297 61.884V34.3272C8.54297 33.9681 8.6959 33.6424 8.94199 33.4153C9.16348 33.2022 9.46406 33.0773 9.79277 33.0773H52.1174C52.4461 33.0773 52.7449 33.2022 52.9682 33.4153C53.2143 33.6422 53.3672 33.968 53.3672 34.3272Z" fill="url(#paint0_linear)"/>
<defs>
<linearGradient id="paint0_linear" x1="30.9551" y1="33.0771" x2="30.9551" y2="63.1357" gradientUnits="userSpaceOnUse">
<stop offset="0.0028" stop-color="#FC80B7" stop-opacity="0"/>
<stop offset="1" stop-color="#FC80B7" stop-opacity="0.6"/>
</linearGradient>
</defs>
</svg>
