<svg width="90" height="90" viewBox="0 0 90 90" fill="none" xmlns="http://www.w3.org/2000/svg">
<path d="M80.8135 68.6482H9.18652C8.21568 68.6482 7.42871 67.8612 7.42871 66.8904V23.1096C7.42871 22.1387 8.21568 21.3517 9.18652 21.3517H80.8137C81.7845 21.3517 82.5715 22.1387 82.5715 23.1096V66.8904C82.5713 67.8612 81.7844 68.6482 80.8135 68.6482Z" fill="#6583FE"/>
<path d="M82.5713 62.5408V23.1096C82.5713 22.1387 81.7844 21.3517 80.8135 21.3517H9.18652C8.21568 21.3517 7.42871 22.1387 7.42871 23.1096V62.5408H82.5713Z" fill="#FFDB7B"/>
<path d="M7.42871 44.859H82.5715V62.5408H7.42871V44.859Z" fill="#FFC4DF"/>
<path d="M60.293 78.7127H29.707C28.7362 78.7127 27.9492 77.9257 27.9492 76.9549V68.648H62.0508V76.9549C62.0508 77.9257 61.2638 78.7127 60.293 78.7127Z" fill="#9FB0FE"/>
<path d="M27.9492 68.6482H62.0508V71.7695H27.9492V68.6482Z" fill="#8399FE"/>
<path d="M34.4363 73.8532C34.5736 73.0062 33.9983 72.2084 33.1513 72.0711C32.3044 71.9338 31.5065 72.509 31.3692 73.356C31.2319 74.2029 31.8072 75.0008 32.6541 75.1381C33.5011 75.2754 34.299 74.7001 34.4363 73.8532Z" fill="#6583FE"/>
<path d="M58.6018 73.8554C58.7391 73.0084 58.1638 72.2106 57.3169 72.0733C56.4699 71.936 55.672 72.5112 55.5347 73.3582C55.3974 74.2051 55.9727 75.003 56.8197 75.1403C57.6666 75.2776 58.4645 74.7023 58.6018 73.8554Z" fill="#6583FE"/>
<path d="M29.707 11.2872H60.293C61.2638 11.2872 62.0508 12.0742 62.0508 13.045V21.3519H27.9492V13.045C27.9492 12.0742 28.7362 11.2872 29.707 11.2872Z" fill="#9FB0FE"/>
<path d="M58.6067 16.6355C58.744 15.7886 58.1687 14.9907 57.3217 14.8534C56.4748 14.7161 55.6769 15.2914 55.5396 16.1383C55.4023 16.9853 55.9776 17.7832 56.8245 17.9205C57.6715 18.0578 58.4694 17.4825 58.6067 16.6355Z" fill="#6583FE"/>
<path d="M34.4411 16.6333C34.5784 15.7864 34.0032 14.9885 33.1562 14.8512C32.3093 14.7139 31.5114 15.2892 31.3741 16.1361C31.2368 16.9831 31.8121 17.781 32.659 17.9183C33.506 18.0556 34.3039 17.4803 34.4411 16.6333Z" fill="#6583FE"/>
<path d="M57.1219 54.871C63.8219 48.1709 63.8219 37.3081 57.1219 30.608C50.4219 23.908 39.559 23.908 32.859 30.608C26.159 37.3081 26.159 48.1709 32.859 54.871C39.559 61.571 50.4219 61.571 57.1219 54.871Z" fill="#FF7EB8"/>
<path d="M56.2102 41.0296V55.7302C53.2043 58.3265 49.2861 59.898 45.0006 59.898C43.9811 59.898 42.9826 59.8083 42.0123 59.6378V53.4274H37.2891C36.5877 53.4274 36.0533 52.7981 36.1676 52.1056L36.3275 51.1335L36.6176 49.3722L36.9357 47.4403H34.9266C34.299 47.4403 33.791 46.9306 33.791 46.303V41.0296C33.791 34.8386 38.8096 29.82 45.0006 29.82C51.1916 29.82 56.2102 34.8386 56.2102 41.0296Z" fill="white"/>
<path d="M43.663 49.9769C43.5751 50.0243 41.4569 51.1247 36.3276 51.1335L36.6177 49.3722C41.0192 49.3282 42.821 48.4317 42.8403 48.4229C43.2692 48.2032 43.8001 48.3684 44.0233 48.7956C44.2466 49.2228 44.0884 49.7483 43.663 49.9769Z" fill="#FF7EB8"/>
<path d="M42.4146 43.0326C41.929 43.0326 41.5356 42.639 41.5356 42.1537V41.7559C41.5356 41.2706 41.929 40.877 42.4146 40.877C42.9001 40.877 43.2935 41.2706 43.2935 41.7559V42.1537C43.2935 42.6392 42.9001 43.0326 42.4146 43.0326Z" fill="#FF7EB8"/>
<path d="M49.6825 47.8489C48.6422 47.8489 47.6021 47.453 46.8102 46.6611C46.4669 46.318 46.4669 45.7615 46.8101 45.4182C47.1534 45.0749 47.7097 45.0747 48.053 45.4182C48.9514 46.3164 50.4132 46.3164 51.3116 45.4182C52.2099 44.5198 52.2099 43.0581 51.3116 42.1597C50.413 41.2613 48.9512 41.2613 48.053 42.1597C47.7097 42.5028 47.1534 42.503 46.8101 42.1595C46.4669 41.8162 46.4669 41.2597 46.8102 40.9166C48.3944 39.3331 50.9711 39.333 52.5546 40.9166C54.1384 42.5002 54.1384 45.0772 52.5548 46.661C51.7629 47.4529 50.7226 47.8489 49.6825 47.8489Z" fill="#FF7EB8"/>
<path d="M76.8164 29.82H64.2983C63.8128 29.82 63.4194 29.4265 63.4194 28.9411V26.4591C63.4194 25.9738 63.8128 25.5802 64.2983 25.5802H76.8164C77.3018 25.5802 77.6953 25.9738 77.6953 26.4591V28.9411C77.6953 29.4266 77.3018 29.82 76.8164 29.82Z" fill="white"/>
<path d="M67.6593 29.82H64.2983C63.8128 29.82 63.4194 29.4265 63.4194 28.9411V26.4591C63.4194 25.9738 63.8128 25.5802 64.2983 25.5802H67.6593V29.82Z" fill="#9FB0FE"/>
<path d="M18.7305 28.3032C18.7305 26.6475 17.3835 25.3005 15.7278 25.3005C14.0721 25.3005 12.7251 26.6475 12.7251 28.3032C12.7251 29.1197 13.0536 29.8603 13.5845 30.4022C13.0538 30.944 12.7251 31.6846 12.7251 32.5012C12.7251 33.0003 13.1297 33.4049 13.6288 33.4049C14.1278 33.4049 14.5325 33.0003 14.5325 32.5012C14.5325 31.8422 15.0686 31.3059 15.7278 31.3059C16.3868 31.3059 16.9231 31.8422 16.9231 32.5012C16.9231 33.0003 17.3278 33.4049 17.8268 33.4049C18.3258 33.4049 18.7305 33.0003 18.7305 32.5012C18.7305 31.6847 18.402 30.9442 17.8711 30.4022C18.402 29.8605 18.7305 29.1199 18.7305 28.3032ZM15.7278 27.1079C16.3868 27.1079 16.9231 27.6441 16.9231 28.3032C16.9231 28.9622 16.387 29.4985 15.7278 29.4985C15.0688 29.4985 14.5325 28.9624 14.5325 28.3032C14.5325 27.6442 15.0688 27.1079 15.7278 27.1079Z" fill="white"/>
<path d="M17.8666 37.1703V56.0369C17.8666 56.5221 17.4729 56.9158 16.9877 56.9158H14.4687C13.9836 56.9158 13.5898 56.5221 13.5898 56.0369V37.1703C13.5898 36.6852 13.9836 36.2914 14.4687 36.2914H16.9877C17.4729 36.2914 17.8666 36.6852 17.8666 37.1703Z" fill="white"/>
<path d="M17.8666 44.859V56.0369C17.8666 56.5221 17.4729 56.9158 16.9877 56.9158H14.4687C13.9836 56.9158 13.5898 56.5221 13.5898 56.0369V44.859H17.8666Z" fill="#FFDBED"/>
<path d="M20.6641 13.0663C20.1786 13.0663 19.7852 12.6729 19.7852 12.1874C19.7852 11.6058 19.3121 11.1328 18.7305 11.1328C18.245 11.1328 17.8516 10.7394 17.8516 10.2538C17.8516 9.76834 18.245 9.37494 18.7305 9.37494C19.3121 9.37494 19.7852 8.90191 19.7852 8.32025C19.7852 7.83474 20.1786 7.44135 20.6641 7.44135C21.1496 7.44135 21.543 7.83474 21.543 8.32025C21.543 8.90191 22.016 9.37494 22.5977 9.37494C23.0832 9.37494 23.4766 9.76834 23.4766 10.2538C23.4766 10.7394 23.0832 11.1328 22.5977 11.1328C22.016 11.1328 21.543 11.6058 21.543 12.1874C21.543 12.6729 21.1494 13.0663 20.6641 13.0663Z" fill="#FF7EB8"/>
<path d="M70.1436 81.5253C69.658 81.5253 69.2646 81.1319 69.2646 80.6464C69.2646 80.0647 68.7916 79.5917 68.21 79.5917C67.7245 79.5917 67.3311 79.1983 67.3311 78.7128C67.3311 78.2273 67.7245 77.8339 68.21 77.8339C68.7916 77.8339 69.2646 77.3608 69.2646 76.7792C69.2646 76.2937 69.658 75.9003 70.1436 75.9003C70.6291 75.9003 71.0225 76.2937 71.0225 76.7792C71.0225 77.3608 71.4955 77.8339 72.0771 77.8339C72.5627 77.8339 72.9561 78.2273 72.9561 78.7128C72.9561 79.1983 72.5627 79.5917 72.0771 79.5917C71.4955 79.5917 71.0225 80.0647 71.0225 80.6464C71.0225 81.1319 70.6291 81.5253 70.1436 81.5253Z" fill="#6583FE"/>
<path d="M18.7304 81.5799C18.4974 81.5799 18.2738 81.4874 18.1091 81.3224L16.1208 79.3341C15.9559 79.1692 15.8633 78.9458 15.8633 78.7127C15.8633 78.4796 15.9559 78.256 16.1208 78.0912L18.1091 76.1031C18.452 75.7601 19.0089 75.76 19.3518 76.1033L21.3399 78.0913C21.6832 78.4345 21.6832 78.991 21.3401 79.3341L19.352 81.3224C19.187 81.4871 18.9635 81.5799 18.7304 81.5799ZM17.9851 78.7127L18.7303 79.4579L19.4752 78.7127L18.7303 77.9678L17.9851 78.7127Z" fill="#FF7EB8"/>
<path d="M78.0271 79.6463C77.8023 79.6463 77.5771 79.5605 77.4058 79.3887L75.4177 77.4005C75.2526 77.2356 75.1602 77.0122 75.1602 76.7791C75.1602 76.546 75.2528 76.3224 75.4177 76.1575L77.4058 74.1694C77.7487 73.8265 78.3056 73.8265 78.6485 74.1694L80.6368 76.1575C80.8017 76.3224 80.8943 76.546 80.8943 76.7791C80.8943 77.0122 80.8018 77.2358 80.6368 77.4005L78.6485 79.3887C78.477 79.5603 78.252 79.6463 78.0271 79.6463ZM77.2818 76.7791L78.027 77.5242L78.7721 76.7791L78.027 76.034L77.2818 76.7791Z" fill="#FFDB7B"/>
<path d="M12.7251 17.6982C12.5003 17.6982 12.2751 17.6124 12.1037 17.4408L10.1154 15.4527C9.95055 15.2879 9.85791 15.0643 9.85791 14.8312C9.85791 14.5981 9.95037 14.3745 10.1154 14.2098L12.1037 12.2215C12.4466 11.8782 13.0035 11.8782 13.3465 12.2215L15.3347 14.2098C15.4996 14.3747 15.5922 14.5981 15.5922 14.8312C15.5922 15.0643 15.4996 15.2879 15.3347 15.4527L13.3465 17.4408C13.1749 17.6122 12.9499 17.6982 12.7251 17.6982ZM11.9798 14.8312L12.7249 15.5763L13.47 14.8312L12.7249 14.086L11.9798 14.8312Z" fill="#FFDB7B"/>
<path d="M82.5713 62.5409V23.1096C82.5713 22.1388 81.7844 21.3518 80.8135 21.3518H9.18652C8.21568 21.3518 7.42871 22.1388 7.42871 23.1096V62.5409H82.5713Z" fill="url(#paint0_linear)"/>
<defs>
<linearGradient id="paint0_linear" x1="45" y1="21.3518" x2="45" y2="62.5409" gradientUnits="userSpaceOnUse">
<stop offset="0.0028" stop-color="#FF7EB8" stop-opacity="0"/>
<stop offset="1" stop-color="#FF7EB8" stop-opacity="0.6"/>
</linearGradient>
</defs>
</svg>
