<svg width="72" height="71" viewBox="0 0 72 71" fill="none" xmlns="http://www.w3.org/2000/svg">
<path d="M65.4265 27.3047V23.3585C65.4265 20.4461 63.0654 18.085 60.153 18.085H51.1072V28.1837H64.5476C65.0329 28.1837 65.4265 27.7901 65.4265 27.3047Z" fill="#F1D971"/>
<path d="M65.4268 23.3591V25.9694C65.4268 23.0585 63.0661 20.696 60.1534 20.696H51.1077V18.0856H60.1534C63.0661 18.0856 65.4268 20.4464 65.4268 23.3591Z" fill="#FF8B00"/>
<path d="M60.3475 18.0847C57.4348 18.0847 55.074 20.4454 55.074 23.3581V65.3786C55.074 68.2913 52.7115 70.652 49.8006 70.652H22.7549V23.3581C22.7549 20.4454 25.1156 18.0847 28.0283 18.0847H60.3475Z" fill="white"/>
<path d="M46.2577 31.1738H38.8413C38.356 31.1738 37.9624 30.7803 37.9624 30.2949V22.8785C37.9624 22.3932 38.356 21.9996 38.8413 21.9996H46.2577C46.743 21.9996 47.1366 22.3932 47.1366 22.8785V30.2949C47.1366 30.7803 46.743 31.1738 46.2577 31.1738Z" fill="#EBEBFF"/>
<path d="M43.8092 63.9355C47.3539 63.9355 50.2275 61.0619 50.2275 57.5172C50.2275 53.9724 47.3539 51.0989 43.8092 51.0989C40.2644 51.0989 37.3909 53.9724 37.3909 57.5172C37.3909 61.0619 40.2644 63.9355 43.8092 63.9355Z" fill="#EBEBFF"/>
<path d="M38.8494 18.0847V39.9448C38.8494 40.9169 38.0637 41.7026 37.0916 41.7026H22.7549V23.3581C22.7549 20.4454 25.1156 18.0847 28.0283 18.0847H38.8494Z" fill="#EBEBFF"/>
<path d="M44.5142 65.3789V57.5522C44.5142 57.0667 44.1206 56.6733 43.6353 56.6733H13.074C12.5886 56.6733 12.1951 57.0667 12.1951 57.5522V65.3789C12.1951 68.2914 14.5562 70.6524 17.4685 70.6524H49.7876C46.8749 70.6524 44.5142 68.2916 44.5142 65.3789Z" fill="#F1D971"/>
<path d="M42.9302 49.2848H28.0767C27.5912 49.2848 27.1978 48.8912 27.1978 48.4059C27.1978 47.9206 27.5912 47.527 28.0767 47.527H42.9302C43.4157 47.527 43.8091 47.9206 43.8091 48.4059C43.8091 48.8912 43.4157 49.2848 42.9302 49.2848Z" fill="#B3B3FF"/>
<path d="M31.3286 44.5262H28.0767C27.5912 44.5262 27.1978 44.1326 27.1978 43.6473C27.1978 43.1619 27.5912 42.7684 28.0767 42.7684H31.3286C31.8141 42.7684 32.2075 43.1619 32.2075 43.6473C32.2075 44.1326 31.8141 44.5262 31.3286 44.5262Z" fill="#F1D971"/>
<path d="M49.2583 52.8224H28.0767C27.5912 52.8224 27.1978 52.4288 27.1978 51.9435C27.1978 51.4581 27.5912 51.0646 28.0767 51.0646H49.2583C49.7438 51.0646 50.1372 51.4581 50.1372 51.9435C50.1372 52.4288 49.7438 52.8224 49.2583 52.8224Z" fill="#B3B3FF"/>
<path d="M46.9308 31.6504C45.3204 31.6504 44.0105 30.3403 44.0105 28.7301C44.0105 27.12 45.3206 25.8099 46.9308 25.8099C48.5411 25.8099 49.851 27.12 49.851 28.7301C49.851 30.3403 48.5409 31.6504 46.9308 31.6504ZM46.9308 27.5675C46.2899 27.5675 45.7683 28.0891 45.7683 28.73C45.7683 29.3709 46.2899 29.8924 46.9308 29.8924C47.5718 29.8924 48.0932 29.3709 48.0932 28.73C48.0932 28.0891 47.5716 27.5675 46.9308 27.5675Z" fill="#9D6CDD"/>
<path d="M48.9721 33.6917C48.4868 33.6917 48.0932 33.2983 48.0932 32.8128C48.0932 32.1719 47.5716 31.6504 46.9308 31.6504C46.2899 31.6504 45.7683 32.1719 45.7683 32.8128C45.7683 33.2983 45.3747 33.6917 44.8894 33.6917C44.4041 33.6917 44.0105 33.2983 44.0105 32.8128C44.0105 31.2027 45.3206 29.8926 46.9308 29.8926C48.5411 29.8926 49.851 31.2027 49.851 32.8128C49.851 33.2983 49.4574 33.6917 48.9721 33.6917Z" fill="#9D6CDD"/>
<path d="M49.9002 37.0434C50.1108 36.543 49.8759 35.9667 49.3755 35.7561C48.8752 35.5456 48.2988 35.7805 48.0883 36.2809C47.8777 36.7812 48.1127 37.3575 48.613 37.5681C49.1134 37.7786 49.6897 37.5437 49.9002 37.0434Z" fill="#F1D971"/>
<path d="M4.99434 15.1938C4.4517 15.1938 4.01172 14.7538 4.01172 14.2111C4.01172 13.6685 4.4517 13.2285 4.99434 13.2285C5.53697 13.2285 5.97695 13.6685 5.97695 14.2111C5.97695 14.7538 5.53697 15.1938 4.99434 15.1938Z" fill="white"/>
<path d="M48.9721 40.6251C48.4295 40.6251 47.9895 40.1851 47.9895 39.6425C47.9895 39.0998 48.4295 38.6599 48.9721 38.6599C49.5148 38.6599 49.9547 39.0998 49.9547 39.6425C49.9547 40.1853 49.5148 40.6251 48.9721 40.6251Z" fill="#F1D971"/>
<path d="M49.9547 42.6151C49.9547 43.1578 49.5148 43.5977 48.9721 43.5977C48.4295 43.5977 47.9895 43.1578 47.9895 42.6151C47.9895 42.0725 48.4295 41.6325 48.9721 41.6325C49.5148 41.6325 49.9547 42.0723 49.9547 42.6151Z" fill="#F1D971"/>
<path d="M26.6413 60.6458L24.8835 62.4037C24.5402 62.7468 24.5402 63.3033 24.8835 63.6464C25.2268 63.9897 25.7831 63.9897 26.1264 63.6464L27.2626 62.5102L28.3989 63.6464C28.5706 63.8182 28.7955 63.904 29.0205 63.904C29.2455 63.904 29.4703 63.8182 29.642 63.6464C29.9853 63.3033 29.9853 62.7468 29.642 62.4037L27.8842 60.6458C27.5409 60.3025 26.9846 60.3025 26.6413 60.6458Z" fill="#FFD000"/>
<path d="M28.0282 18.0847C25.1155 18.0847 22.7548 20.4454 22.7548 23.3581V56.6734H13.074C12.5886 56.6734 12.1951 57.0668 12.1951 57.5523V65.3789C12.1951 68.2913 14.5562 70.6524 17.4685 70.6524H49.7877C49.7841 70.6524 49.7806 70.6522 49.7771 70.652H49.8007C52.7116 70.652 55.0741 68.2913 55.0741 65.3786V23.3581C55.0741 20.4454 57.4348 18.0847 60.3475 18.0847H28.0282Z" fill="url(#paint0_linear)"/>
<path d="M37.0923 38.7129H2.07593C1.10509 38.7129 0.318115 37.926 0.318115 36.9551V11.4693C0.318115 10.4985 1.10509 9.71149 2.07593 9.71149H37.0923C38.0631 9.71149 38.8501 10.4985 38.8501 11.4693V36.9551C38.8501 37.926 38.0631 38.7129 37.0923 38.7129Z" fill="#D1C7FF"/>
<path d="M8.51609 33.9937H5.87305C5.38754 33.9937 4.99414 33.6002 4.99414 33.1148V26.5879C4.99414 26.1026 5.38754 25.709 5.87305 25.709H8.51609C9.00143 25.709 9.395 26.1026 9.395 26.5879V33.1148C9.395 33.6002 9.0016 33.9937 8.51609 33.9937Z" fill="#9D6CDD"/>
<path d="M16.7756 33.9937H14.1326C13.6472 33.9937 13.2537 33.6002 13.2537 33.1148V21.29C13.2537 20.8047 13.6472 20.4111 14.1326 20.4111H16.7756C17.2609 20.4111 17.6545 20.8047 17.6545 21.29V33.1148C17.6545 33.6002 17.2611 33.9937 16.7756 33.9937Z" fill="#9D6CDD"/>
<path d="M25.0351 33.9937H22.3921C21.9068 33.9937 21.5132 33.6001 21.5132 33.1148V8.56042C21.5132 8.07509 21.9068 7.68152 22.3921 7.68152H25.0351C25.5205 7.68152 25.914 8.07509 25.914 8.56042V33.1146C25.914 33.6001 25.5205 33.9937 25.0351 33.9937Z" fill="#9D6CDD"/>
<path d="M33.2949 33.9937H30.6519C30.1665 33.9937 29.7729 33.6001 29.7729 33.1148V3.41394C29.7729 2.92861 30.1665 2.53503 30.6519 2.53503H33.2949C33.7802 2.53503 34.1738 2.92861 34.1738 3.41394V33.1146C34.1738 33.6001 33.7802 33.9937 33.2949 33.9937Z" fill="#9D6CDD"/>
<path d="M62.1229 65.701C67.5288 63.5538 70.1705 57.4308 68.0232 52.0249C65.876 46.619 59.753 43.9773 54.3471 46.1245C48.9412 48.2718 46.2995 54.3948 48.4467 59.8007C50.594 65.2066 56.717 67.8483 62.1229 65.701Z" fill="#F1D971"/>
<path d="M65.6148 57.1022C66.2814 53.041 63.5295 49.2084 59.4683 48.5418C55.4071 47.8752 51.5745 50.6271 50.9079 54.6883C50.2413 58.7495 52.9932 62.5821 57.0544 63.2487C61.1156 63.9153 64.9482 61.1634 65.6148 57.1022Z" fill="white"/>
<path d="M59.2864 59.9703H56.4743C55.9889 59.9703 55.5954 59.5769 55.5954 59.0914C55.5954 58.6059 55.9889 58.2125 56.4743 58.2125H59.2864C59.6724 58.2125 59.9866 57.8984 59.9866 57.5123C59.9866 57.1263 59.6724 56.8124 59.2864 56.8124H57.247C55.8917 56.8124 54.7891 55.7099 54.7891 54.3546C54.7891 52.9992 55.8917 51.8967 57.247 51.8967H60.0592C60.5445 51.8967 60.9381 52.2901 60.9381 52.7756C60.9381 53.2611 60.5445 53.6545 60.0592 53.6545H57.247C56.861 53.6545 56.5469 53.9686 56.5469 54.3546C56.5469 54.7406 56.861 55.0546 57.247 55.0546H59.2864C60.6417 55.0546 61.7444 56.1571 61.7444 57.5123C61.7444 58.8678 60.6417 59.9703 59.2864 59.9703Z" fill="#FFD000"/>
<path d="M58.2666 61.1461C57.7813 61.1461 57.3877 60.7527 57.3877 60.2672V51.5994C57.3877 51.1139 57.7813 50.7205 58.2666 50.7205C58.7519 50.7205 59.1455 51.1139 59.1455 51.5994V60.2672C59.1455 60.7527 58.7519 61.1461 58.2666 61.1461Z" fill="#FFD000"/>
<path d="M4.99427 59.8026C4.76927 59.8026 4.54445 59.7169 4.37271 59.5451C4.02941 59.202 4.02941 58.6455 4.37271 58.3023L6.13052 56.5445C6.47382 56.2012 7.03017 56.2012 7.37347 56.5445C7.71677 56.8876 7.71677 57.4442 7.37347 57.7873L5.61566 59.5451C5.44409 59.7169 5.21927 59.8026 4.99427 59.8026Z" fill="#9D6CDD"/>
<path d="M67.9242 36.0499C67.6992 36.0499 67.4744 35.9641 67.3026 35.7924C66.9593 35.4492 66.9593 34.8927 67.3026 34.5496L69.0605 32.7918C69.4038 32.4485 69.9601 32.4485 70.3034 32.7918C70.6467 33.1349 70.6467 33.6914 70.3034 34.0345L68.5456 35.7924C68.374 35.9641 68.1492 36.0499 67.9242 36.0499Z" fill="#F1D971"/>
<path d="M8.51624 4.29286C8.29124 4.29286 8.06642 4.20708 7.89468 4.03534C7.55138 3.69222 7.55138 3.13569 7.89468 2.79257L9.65249 1.03476C9.99579 0.691458 10.5521 0.691458 10.8954 1.03476C11.2387 1.37788 11.2387 1.93441 10.8954 2.27753L9.13763 4.03534C8.96607 4.20708 8.74124 4.29286 8.51624 4.29286Z" fill="#F1D971"/>
<path d="M14.4697 49.9636C14.2447 49.9636 14.0199 49.8779 13.8481 49.7061L12.7119 48.5699L11.5756 49.7061C11.2323 50.0494 10.676 50.0494 10.3327 49.7061C9.98937 49.363 9.98937 48.8065 10.3327 48.4633L12.0905 46.7055C12.4338 46.3622 12.9901 46.3622 13.3334 46.7055L15.0912 48.4633C15.4345 48.8065 15.4345 49.363 15.0912 49.7061C14.9195 49.8779 14.6945 49.9636 14.4697 49.9636Z" fill="#FFE840"/>
<path d="M52.8657 10.6234C52.6407 10.6234 52.4158 10.5376 52.2441 10.3659L51.1079 9.22966L49.9716 10.3659C49.6283 10.7092 49.072 10.7092 48.7287 10.3659C48.3854 10.0228 48.3854 9.46626 48.7287 9.12314L50.4865 7.36532C50.8298 7.02202 51.3861 7.02202 51.7294 7.36532L53.4872 9.12314C53.8305 9.46626 53.8305 10.0228 53.4872 10.3659C53.3155 10.5375 53.0907 10.6234 52.8657 10.6234Z" fill="#9D6CDD"/>
<defs>
<linearGradient id="paint0_linear" x1="36.2713" y1="70.6524" x2="36.2713" y2="18.0847" gradientUnits="userSpaceOnUse">
<stop stop-color="#FF4D4D" stop-opacity="0.4"/>
<stop offset="1" stop-color="#FF4D4D" stop-opacity="0"/>
</linearGradient>
</defs>
</svg>
