<svg width="80" height="71" viewBox="0 0 80 71" fill="none" xmlns="http://www.w3.org/2000/svg">
<path d="M58.9258 61.043H58.3984V60.5156C58.3984 60.0303 58.005 59.6367 57.5195 59.6367C57.034 59.6367 56.6406 60.0303 56.6406 60.5156V61.043H56.1133C55.6278 61.043 55.2344 61.4365 55.2344 61.9219C55.2344 62.4072 55.6278 62.8008 56.1133 62.8008H56.6406V63.3281C56.6406 63.8134 57.034 64.207 57.5195 64.207C58.005 64.207 58.3984 63.8134 58.3984 63.3281V62.8008H58.9258C59.4113 62.8008 59.8047 62.4072 59.8047 61.9219C59.8047 61.4365 59.4113 61.043 58.9258 61.043Z" fill="#8383FF"/>
<path d="M66.7771 67.5701H66.2498V67.0427C66.2498 66.5574 65.8564 66.1638 65.3708 66.1638C64.8853 66.1638 64.4919 66.5574 64.4919 67.0427V67.5701H63.9646C63.4791 67.5701 63.0857 67.9636 63.0857 68.449C63.0857 68.9343 63.4791 69.3279 63.9646 69.3279H64.4919V69.8552C64.4919 70.3406 64.8853 70.7341 65.3708 70.7341C65.8564 70.7341 66.2498 70.3406 66.2498 69.8552V69.3279H66.7771C67.2626 69.3279 67.656 68.9343 67.656 68.449C67.656 67.9636 67.2626 67.5701 66.7771 67.5701Z" fill="#FFD000"/>
<path d="M41.4062 8.50122C41.1814 8.50122 40.9562 8.41544 40.7848 8.24388L40 7.45902L39.2153 8.2437C38.872 8.58683 38.3156 8.58683 37.9723 8.2437C37.629 7.9004 37.629 7.34388 37.9723 7.00075L39.3786 5.5945C39.7219 5.25138 40.2786 5.25138 40.6215 5.5945L42.0278 7.00075C42.3711 7.34405 42.3711 7.90058 42.0278 8.2437C41.8562 8.41527 41.631 8.50122 41.4062 8.50122Z" fill="#FFCC42"/>
<path d="M21.8945 65.2617C21.6695 65.2617 21.4447 65.1759 21.2729 65.0044L20.4882 64.2197L19.7035 65.0044C19.3602 65.3475 18.8039 65.3475 18.4606 65.0044C18.1173 64.6611 18.1173 64.1045 18.4606 63.7614L19.8668 62.3552C20.2101 62.012 20.7665 62.012 21.1098 62.3552L22.516 63.7614C22.8593 64.1047 22.8593 64.6612 22.516 65.0044C22.3443 65.1759 22.1195 65.2617 21.8945 65.2617Z" fill="#FFCC42"/>
<path d="M48.7304 3.56355C48.5056 3.56355 48.2804 3.47777 48.109 3.3062L47.3242 2.52152L46.5393 3.3062C46.1964 3.64933 45.6395 3.64933 45.2965 3.3062C44.9532 2.9629 44.9532 2.40638 45.2965 2.06325L46.7028 0.657002C47.0457 0.313877 47.6026 0.313877 47.9456 0.657002L49.3518 2.06325C49.6951 2.40655 49.6951 2.96308 49.3518 3.3062C49.1804 3.47759 48.9552 3.56355 48.7304 3.56355Z" fill="#8383FF"/>
<path d="M33.2007 52.2664H46.7991V69.6792H33.2007V52.2664Z" fill="#EBEBFF"/>
<path d="M33.2007 52.2664H46.7991V60.3611H33.2007V52.2664Z" fill="#D9D9FF"/>
<path d="M50.4699 57.4923H29.5298C28.5589 57.4923 27.772 56.7054 27.772 55.7345V51.7534H52.2275V55.7345C52.2277 56.7054 51.4406 57.4923 50.4699 57.4923Z" fill="#FFCC42"/>
<path d="M71.8241 53.7694H8.17578C6.71961 53.7694 5.53906 52.5889 5.53906 51.1327V14.2285C5.53906 12.7723 6.71961 11.5918 8.17578 11.5918H71.8241C73.2802 11.5918 74.4608 12.7723 74.4608 14.2285V51.1327C74.4608 52.5891 73.2802 53.7694 71.8241 53.7694Z" fill="#8383FF"/>
<path d="M74.4601 14.2282V46.6686H5.53979V14.2282C5.53979 12.7727 6.71929 11.5915 8.17651 11.5915H71.8234C73.2806 11.5915 74.4601 12.7727 74.4601 14.2282Z" fill="#EFEFA9"/>
<path d="M5.53979 22.6903H74.4601V37.3979H5.53979V22.6903Z" fill="#FFD000"/>
<path d="M53.7167 70.9208H26.2832C25.2934 70.9208 24.491 70.1184 24.491 69.1285C24.491 68.1387 25.2934 67.3363 26.2832 67.3363H53.7166C54.7064 67.3363 55.5088 68.1387 55.5088 69.1285C55.509 70.1184 54.7066 70.9208 53.7167 70.9208Z" fill="#9D6CDD"/>
<path d="M71.8241 53.7695H8.17578C6.71961 53.7695 5.53906 52.589 5.53906 51.1328V14.2286C5.53906 12.7724 6.71961 11.5918 8.17578 11.5918H71.8241C73.2802 11.5918 74.4608 12.7724 74.4608 14.2286V51.1328C74.4608 52.5891 73.2802 53.7695 71.8241 53.7695Z" fill="url(#paint0_linear)"/>
<path d="M78.485 33.8478H1.51465C1.02932 33.8478 0.635742 33.4543 0.635742 32.9689V20.0182C0.635742 19.5329 1.02932 19.1393 1.51465 19.1393H78.4849C78.9702 19.1393 79.3638 19.5329 79.3638 20.0182V32.9689C79.3639 33.4543 78.9704 33.8478 78.485 33.8478Z" fill="#EBEBFF"/>
<path d="M78.4851 33.8478H64.6555V19.1393H78.4851C78.9704 19.1393 79.364 19.5329 79.364 20.0182V32.9689C79.364 33.4543 78.9704 33.8478 78.4851 33.8478Z" fill="#8383FF"/>
<path d="M70.7658 23.4386C69.7969 24.4075 69.6213 25.873 70.2369 27.0231L68.488 28.7722C68.1449 29.1155 68.1449 29.672 68.4882 30.0151C68.6599 30.1867 68.8848 30.2725 69.1096 30.2725C69.3344 30.2725 69.5596 30.1867 69.7312 30.0151L71.4784 28.2677C71.9151 28.5025 72.4055 28.6275 72.9153 28.6275C73.7272 28.6275 74.4904 28.3113 75.0645 27.7372H75.0647C75.6388 27.1631 75.9549 26.3998 75.9549 25.5879C75.9549 24.776 75.6386 24.0127 75.0647 23.4386C74.4906 22.8643 73.7274 22.5483 72.9153 22.5483C72.1032 22.5483 71.3401 22.8645 70.7658 23.4386ZM74.1972 25.5879C74.1972 25.9303 74.0638 26.2522 73.8218 26.4942H73.8216C73.5795 26.7363 73.2577 26.8697 72.9154 26.8697C72.573 26.8697 72.2512 26.7363 72.0091 26.4942C71.5092 25.9945 71.5092 25.1811 72.0089 24.6814C72.2512 24.4393 72.573 24.3059 72.9154 24.3059C73.2577 24.3059 73.5795 24.4392 73.8218 24.6814C74.0638 24.9236 74.1972 25.2455 74.1972 25.5879Z" fill="#D1C7FF"/>
<path d="M8.90711 30.3245H8.61865C8.13332 30.3245 7.73975 29.9309 7.73975 29.4456V23.8624C7.73975 23.3771 8.13332 22.9835 8.61865 22.9835H8.90711C9.39244 22.9835 9.78602 23.3771 9.78602 23.8624V29.4456C9.78602 29.9309 9.39262 30.3245 8.90711 30.3245Z" fill="#B3B3FF"/>
<path d="M12.9857 30.3245H12.6973C12.2119 30.3245 11.8184 29.9309 11.8184 29.4456V23.8624C11.8184 23.3771 12.2119 22.9835 12.6973 22.9835H12.9857C13.4711 22.9835 13.8646 23.3771 13.8646 23.8624V29.4456C13.8646 29.9309 13.4712 30.3245 12.9857 30.3245Z" fill="#B3B3FF"/>
<path d="M17.0646 30.3245H16.7761C16.2908 30.3245 15.8972 29.9309 15.8972 29.4456V23.8624C15.8972 23.3771 16.2908 22.9835 16.7761 22.9835H17.0646C17.5499 22.9835 17.9435 23.3771 17.9435 23.8624V29.4456C17.9435 29.9309 17.5499 30.3245 17.0646 30.3245Z" fill="#B3B3FF"/>
<path d="M21.1432 30.3245H20.8547C20.3694 30.3245 19.9758 29.9309 19.9758 29.4456V23.8624C19.9758 23.3771 20.3694 22.9835 20.8547 22.9835H21.1432C21.6285 22.9835 22.0221 23.3771 22.0221 23.8624V29.4456C22.0221 29.9309 21.6285 30.3245 21.1432 30.3245Z" fill="#B3B3FF"/>
<path d="M25.2218 30.3245H24.9333C24.448 30.3245 24.0544 29.9309 24.0544 29.4456V23.8624C24.0544 23.3771 24.448 22.9835 24.9333 22.9835H25.2218C25.7071 22.9835 26.1007 23.3771 26.1007 23.8624V29.4456C26.1007 29.9309 25.7073 30.3245 25.2218 30.3245Z" fill="#B3B3FF"/>
<path d="M58.8319 30.3245H29.0122C28.5269 30.3245 28.1333 29.9309 28.1333 29.4456V23.8624C28.1333 23.3771 28.5269 22.9835 29.0122 22.9835H58.8319C59.3172 22.9835 59.7108 23.3771 59.7108 23.8624V29.4456C59.7108 29.9309 59.3172 30.3245 58.8319 30.3245Z" fill="#B3B3FF"/>
<path d="M42.9228 43.0542H12.0698C11.5843 43.0542 11.1909 42.6606 11.1909 42.1753C11.1909 41.69 11.5843 41.2964 12.0698 41.2964H42.9229C43.4085 41.2964 43.8019 41.69 43.8019 42.1753C43.8019 42.6606 43.4083 43.0542 42.9228 43.0542Z" fill="white"/>
<path d="M65.073 43.0542C65.5584 43.0542 65.9519 42.6607 65.9519 42.1753C65.9519 41.6899 65.5584 41.2964 65.073 41.2964C64.5876 41.2964 64.1941 41.6899 64.1941 42.1753C64.1941 42.6607 64.5876 43.0542 65.073 43.0542Z" fill="white"/>
<path d="M67.9294 43.0542C68.4148 43.0542 68.8083 42.6607 68.8083 42.1753C68.8083 41.6899 68.4148 41.2964 67.9294 41.2964C67.444 41.2964 67.0505 41.6899 67.0505 42.1753C67.0505 42.6607 67.444 43.0542 67.9294 43.0542Z" fill="white"/>
<defs>
<linearGradient id="paint0_linear" x1="40.0001" y1="53.7695" x2="40.0001" y2="11.5918" gradientUnits="userSpaceOnUse">
<stop stop-color="#FF4D4D" stop-opacity="0.4"/>
<stop offset="1" stop-color="#FF4D4D" stop-opacity="0"/>
</linearGradient>
</defs>
</svg>
