<svg width="80" height="81" viewBox="0 0 80 81" fill="none" xmlns="http://www.w3.org/2000/svg">
<path d="M53.9099 5.63104V76.3689C53.9099 78.408 52.2575 80.0603 50.2185 80.0603H14.0708C12.0317 80.0603 10.3794 78.408 10.3794 76.3689V5.63104C10.3794 3.59198 12.0317 1.93964 14.0708 1.93964H50.2185C52.2575 1.93964 53.9099 3.59198 53.9099 5.63104Z" fill="#FFDB7B"/>
<path d="M32.5312 35.7547H53.9098V39.5358H32.5312V35.7547Z" fill="#FFDB7B"/>
<path d="M53.9093 11.4688V5.63056C53.9093 3.59184 52.2566 1.93915 50.2179 1.93915H14.0708C12.0321 1.93915 10.3794 3.59184 10.3794 5.63056V11.4688H53.9093Z" fill="#6785F9"/>
<path d="M53.9101 5.63055V11.4682H50.064V5.63055C50.064 3.59149 48.4116 1.93915 46.3726 1.93915H50.2187C52.2577 1.93915 53.9101 3.59149 53.9101 5.63055Z" fill="#839AFA"/>
<path d="M16.4704 7.87808C17.0131 7.87808 17.453 7.43815 17.453 6.89546C17.453 6.35278 17.0131 5.91284 16.4704 5.91284C15.9277 5.91284 15.4878 6.35278 15.4878 6.89546C15.4878 7.43815 15.9277 7.87808 16.4704 7.87808Z" fill="white"/>
<path d="M19.9704 5.91284C20.513 5.91284 20.953 6.35282 20.953 6.89546C20.953 7.4381 20.513 7.87808 19.9704 7.87808C19.4278 7.87808 18.9878 7.4381 18.9878 6.89546C18.9878 6.35282 19.4276 5.91284 19.9704 5.91284Z" fill="white"/>
<path d="M23.4699 7.87808C24.0126 7.87808 24.4525 7.43815 24.4525 6.89546C24.4525 6.35278 24.0126 5.91284 23.4699 5.91284C22.9272 5.91284 22.4873 6.35278 22.4873 6.89546C22.4873 7.43815 22.9272 7.87808 23.4699 7.87808Z" fill="white"/>
<path d="M20.1627 58.4918H18.3135C17.828 58.4918 17.4346 58.0982 17.4346 57.6129C17.4346 57.1276 17.828 56.734 18.3135 56.734H20.1627C20.6482 56.734 21.0416 57.1276 21.0416 57.6129C21.0416 58.0982 20.6482 58.4918 20.1627 58.4918Z" fill="#6785F9"/>
<path d="M43.0285 69.8281H15.9795C15.4942 69.8281 15.1006 69.4346 15.1006 68.9492V60.9719C15.1006 60.4866 15.4942 60.093 15.9795 60.093H43.0285C43.5138 60.093 43.9074 60.4866 43.9074 60.9719V68.9492C43.9074 69.4346 43.5138 69.8281 43.0285 69.8281Z" fill="#FFDB7B"/>
<path d="M73.6069 34.4242H57.9888L65.9128 26.6047C66.2417 26.2801 66.6854 26.0981 67.1475 26.0981H77.7605C79.3321 26.0981 80.1138 28.0033 78.9952 29.1072L73.6069 34.4242Z" fill="#FFDB7B"/>
<path d="M63.9747 34.5969C63.7477 34.5969 63.521 34.5096 63.3491 34.3354C63.0081 33.99 63.0117 33.4334 63.3573 33.0924L67.4877 29.0166C67.8331 28.6759 68.3898 28.6793 68.7304 29.0249C69.0715 29.3703 69.0678 29.9268 68.7222 30.2678L64.5918 34.3436C64.4208 34.5126 64.1976 34.5969 63.9747 34.5969Z" fill="#FC80B7"/>
<path d="M68.7554 34.5969C68.5285 34.5969 68.3017 34.5096 68.1298 34.3354C67.7888 33.99 67.7925 33.4334 68.1381 33.0924L72.2684 29.0166C72.6137 28.6759 73.1705 28.6793 73.5112 29.0249C73.8522 29.3703 73.8485 29.9268 73.5029 30.2678L69.3726 34.3436C69.2016 34.5126 68.9785 34.5969 68.7554 34.5969Z" fill="#FC80B7"/>
<path d="M77.7602 45.4754H67.1482C66.6859 45.4754 66.2412 45.2943 65.9125 44.9691L60.4053 39.5357L57.9883 37.1504H73.6065L76.0235 39.5357L78.9959 42.4678C80.1139 43.5717 79.3317 45.4754 77.7602 45.4754Z" fill="#FFDB7B"/>
<path d="M76.0234 39.5357H60.4053L57.9883 37.1504H73.6064L76.0234 39.5357Z" fill="#FFDB7B"/>
<path d="M68.105 42.8109C67.8819 42.8109 67.6589 42.7267 67.4877 42.5576L63.3573 38.4818C63.0117 38.1409 63.0081 37.5844 63.3491 37.2388C63.6899 36.893 64.2468 36.8895 64.5918 37.2305L68.7222 41.3064C69.0678 41.6472 69.0715 42.2037 68.7304 42.5493C68.5587 42.7237 68.3318 42.8109 68.105 42.8109Z" fill="#FC80B7"/>
<path d="M72.8858 42.8109C72.6627 42.8109 72.4396 42.7267 72.2684 42.5576L68.1381 38.4818C67.7925 38.1409 67.7888 37.5844 68.1298 37.2388C68.4707 36.893 69.0274 36.8895 69.3726 37.2305L73.5029 41.3064C73.8485 41.6472 73.8522 42.2037 73.5112 42.5493C73.3395 42.7237 73.1125 42.8109 72.8858 42.8109Z" fill="#FC80B7"/>
<path d="M32.5311 53.5588C41.9569 53.5588 49.5979 45.6022 49.5979 35.7872C49.5979 25.9721 41.9569 18.0155 32.5311 18.0155C23.1054 18.0155 15.4644 25.9721 15.4644 35.7872C15.4644 45.6022 23.1054 53.5588 32.5311 53.5588Z" fill="#FCA8CE"/>
<path d="M49.5948 36.0677C49.5773 37.3668 49.4243 38.6324 49.1483 39.8488H32.5317V36.0677H49.5948Z" fill="#FC80B7"/>
<path d="M32.5311 47.2307C38.2428 47.2307 42.8732 42.1072 42.8732 35.7872C42.8732 29.4671 38.2428 24.3436 32.5311 24.3436C26.8193 24.3436 22.189 29.4671 22.189 35.7872C22.189 42.1072 26.8193 47.2307 32.5311 47.2307Z" fill="#FDDAEC"/>
<path d="M42.8694 36.0677C42.8413 37.3967 42.6058 38.6693 42.198 39.8488H32.5317V36.0677H42.8694Z" fill="#FDC4DE"/>
<path d="M32.531 40.9026C30.8234 40.9026 28.9136 38.715 28.9136 35.7872C28.9136 32.8594 30.8234 30.6718 32.531 30.6718C34.2385 30.6718 36.1482 32.8594 36.1482 35.7872C36.1482 38.715 34.2385 40.9026 32.531 40.9026Z" fill="#FC80B7"/>
<path d="M36.144 36.0677C36.0773 37.6428 35.4603 38.9822 34.6341 39.8488H32.5317V36.0677H36.144Z" fill="#FC5FA7"/>
<path d="M35.983 64.5396H18.3135C17.828 64.5396 17.4346 64.146 17.4346 63.6606C17.4346 63.1753 17.828 62.7817 18.3135 62.7817H35.983C36.4685 62.7817 36.8619 63.1753 36.8619 63.6606C36.8619 64.146 36.4685 64.5396 35.983 64.5396Z" fill="#FFDB7B"/>
<path d="M35.983 67.6667H18.3135C17.828 67.6667 17.4346 67.2731 17.4346 66.7878C17.4346 66.3024 17.828 65.9089 18.3135 65.9089H35.983C36.4685 65.9089 36.8619 66.3024 36.8619 66.7878C36.8619 67.2731 36.4685 67.6667 35.983 67.6667Z" fill="#FFDB7B"/>
<path d="M32.1445 74.985C31.9111 74.985 31.6873 74.8922 31.5224 74.7269L30.4976 73.7004C30.1547 73.3569 30.1552 72.8004 30.4987 72.4574C30.8421 72.1147 31.3988 72.115 31.7416 72.4585L32.1443 72.8619L32.5472 72.4585C32.8902 72.115 33.4467 72.1145 33.7902 72.4574C34.1336 72.8004 34.1342 73.3569 33.7912 73.7004L32.7664 74.7269C32.6017 74.8922 32.3779 74.985 32.1445 74.985Z" fill="#FFD053"/>
<path d="M42.7841 64.229H41.9023C40.7974 64.229 39.8984 63.33 39.8984 62.225V59.5034C39.8984 58.3985 40.7974 57.4995 41.9023 57.4995H42.7841C43.889 57.4995 44.788 58.3985 44.788 59.5034V62.225C44.7882 63.33 43.8892 64.229 42.7841 64.229ZM41.9025 59.2573C41.7668 59.2573 41.6564 59.3677 41.6564 59.5034V62.225C41.6564 62.3607 41.7668 62.4711 41.9025 62.4711H42.7842C42.9199 62.4711 43.0303 62.3607 43.0303 62.225V59.5034C43.0303 59.3677 42.9199 59.2573 42.7842 59.2573H41.9025Z" fill="#5127AC"/>
<path d="M47.5498 64.229C47.0643 64.229 46.6709 63.8354 46.6709 63.35V59.2573H46.6494C46.1639 59.2573 45.7705 58.8638 45.7705 58.3784C45.7705 57.8931 46.1639 57.4995 46.6494 57.4995H47.5498C48.0353 57.4995 48.4287 57.8931 48.4287 58.3784V63.35C48.4287 63.8354 48.0351 64.229 47.5498 64.229Z" fill="#5127AC"/>
<path d="M32.5312 29.7927C32.0459 29.7927 31.6523 30.1863 31.6523 30.6716V40.9024C31.6523 41.3878 32.0459 41.7813 32.5312 41.7813C33.0166 41.7813 33.4102 41.3878 33.4102 40.9024V30.6716C33.4102 30.1863 33.0166 29.7927 32.5312 29.7927Z" fill="#FA338E"/>
<path d="M32.5312 27.3617C32.0459 27.3617 31.6523 26.9681 31.6523 26.4828V16.7761C31.6523 16.2908 32.0459 15.8972 32.5312 15.8972C33.0166 15.8972 33.4102 16.2908 33.4102 16.7761V26.4828C33.4102 26.9681 33.0166 27.3617 32.5312 27.3617Z" fill="#FDC4DE"/>
<path d="M32.5312 55.677C32.0459 55.677 31.6523 55.2835 31.6523 54.7981V45.0915C31.6523 44.6062 32.0459 44.2126 32.5312 44.2126C33.0166 44.2126 33.4102 44.6062 33.4102 45.0915V54.7981C33.4102 55.2835 33.0166 55.677 32.5312 55.677Z" fill="#FDC4DE"/>
<path d="M44.5269 30.0931C44.0413 30.0931 43.6479 29.6996 43.6479 29.2142V28.599C43.6479 28.1137 44.0413 27.7201 44.5269 27.7201C45.0124 27.7201 45.4058 28.1137 45.4058 28.599V29.2142C45.4058 29.6996 45.0124 30.0931 44.5269 30.0931Z" fill="#839AFA"/>
<path d="M40.6855 25.3321C40.2002 25.3321 39.8066 24.9385 39.8066 24.4532V23.838C39.8066 23.3526 40.2002 22.959 40.6855 22.959C41.1711 22.959 41.5645 23.3526 41.5645 23.838V24.4532C41.5645 24.9385 41.1711 25.3321 40.6855 25.3321Z" fill="#FC5FA7"/>
<path d="M44.5269 43.7894C44.0413 43.7894 43.6479 43.3959 43.6479 42.9105V42.2953C43.6479 41.81 44.0413 41.4164 44.5269 41.4164C45.0124 41.4164 45.4058 41.81 45.4058 42.2953V42.9105C45.4058 43.3959 45.0124 43.7894 44.5269 43.7894Z" fill="#839AFA"/>
<path d="M40.6855 48.5504C40.2002 48.5504 39.8066 48.1568 39.8066 47.6714V47.0562C39.8066 46.5709 40.2002 46.1773 40.6855 46.1773C41.1711 46.1773 41.5645 46.5709 41.5645 47.0562V47.6714C41.5645 48.1568 41.1711 48.5504 40.6855 48.5504Z" fill="#FC5FA7"/>
<path d="M20.5356 30.0931C20.0503 30.0931 19.6567 29.6996 19.6567 29.2142V28.599C19.6567 28.1137 20.0503 27.7201 20.5356 27.7201C21.021 27.7201 21.4146 28.1137 21.4146 28.599V29.2142C21.4146 29.6996 21.021 30.0931 20.5356 30.0931Z" fill="#839AFA"/>
<path d="M24.377 25.3321C23.8916 25.3321 23.498 24.9385 23.498 24.4532V23.838C23.498 23.3526 23.8916 22.959 24.377 22.959C24.8623 22.959 25.2559 23.3526 25.2559 23.838V24.4532C25.2559 24.9385 24.8623 25.3321 24.377 25.3321Z" fill="#FC5FA7"/>
<path d="M20.5356 43.7894C20.0503 43.7894 19.6567 43.3959 19.6567 42.9105V42.2953C19.6567 41.81 20.0503 41.4164 20.5356 41.4164C21.021 41.4164 21.4146 41.81 21.4146 42.2953V42.9105C21.4146 43.3959 21.021 43.7894 20.5356 43.7894Z" fill="#839AFA"/>
<path d="M24.377 48.5504C23.8916 48.5504 23.498 48.1568 23.498 47.6714V47.0562C23.498 46.5709 23.8916 46.1773 24.377 46.1773C24.8623 46.1773 25.2559 46.5709 25.2559 47.0562V47.6714C25.2559 48.1568 24.8623 48.5504 24.377 48.5504Z" fill="#FC5FA7"/>
<path d="M53.9099 5.63104V76.3689C53.9099 78.408 52.2575 80.0603 50.2185 80.0603H14.0708C12.0317 80.0603 10.3794 78.408 10.3794 76.3689V5.63104C10.3794 3.59198 12.0317 1.93964 14.0708 1.93964H50.2185C52.2575 1.93964 53.9099 3.59198 53.9099 5.63104Z" fill="url(#paint0_linear)"/>
<path d="M74.2141 37.6774H32.5312V33.897H74.2141C75.258 33.897 76.1042 34.7432 76.1042 35.7872C76.1042 36.8312 75.258 37.6774 74.2141 37.6774Z" fill="#6785F9"/>
<path d="M73.5034 60.7434H72.9321V60.1721C72.9321 59.6868 72.5387 59.2932 72.0532 59.2932C71.5677 59.2932 71.1743 59.6868 71.1743 60.1721V60.7434H70.603C70.1175 60.7434 69.7241 61.137 69.7241 61.6223C69.7241 62.1076 70.1175 62.5012 70.603 62.5012H71.1743V63.0725C71.1743 63.5578 71.5677 63.9514 72.0532 63.9514C72.5387 63.9514 72.9321 63.5578 72.9321 63.0725V62.5012H73.5034C73.9889 62.5012 74.3823 62.1076 74.3823 61.6223C74.3823 61.137 73.9889 60.7434 73.5034 60.7434Z" fill="#FFDB7B"/>
<path d="M60.1997 2.05792H59.6284V1.48663C59.6284 1.0013 59.235 0.607727 58.7495 0.607727C58.264 0.607727 57.8706 1.0013 57.8706 1.48663V2.05792H57.2993C56.8138 2.05792 56.4204 2.4515 56.4204 2.93683C56.4204 3.42216 56.8138 3.81573 57.2993 3.81573H57.8706V4.38702C57.8706 4.87236 58.264 5.26593 58.7495 5.26593C59.235 5.26593 59.6284 4.87236 59.6284 4.38702V3.81573H60.1997C60.6852 3.81573 61.0786 3.42216 61.0786 2.93683C61.0786 2.4515 60.685 2.05792 60.1997 2.05792Z" fill="#FC80B7"/>
<path d="M4.25733 69.4542H3.68604V68.8829C3.68604 68.3976 3.29246 68.004 2.80713 68.004C2.3218 68.004 1.92822 68.3976 1.92822 68.8829V69.4542H1.35693C0.871602 69.4542 0.478027 69.8478 0.478027 70.3331C0.478027 70.8185 0.871602 71.212 1.35693 71.212H1.92822V71.7833C1.92822 72.2687 2.3218 72.6622 2.80713 72.6622C3.29246 72.6622 3.68604 72.2687 3.68604 71.7833V71.212H4.25733C4.74266 71.212 5.13623 70.8185 5.13623 70.3331C5.13623 69.8478 4.74266 69.4542 4.25733 69.4542Z" fill="#FC80B7"/>
<path d="M64.2016 58.1329C63.9453 58.1329 63.6878 58.094 63.4363 58.0158C62.7816 57.8122 62.2455 57.3659 61.9263 56.759C61.6074 56.152 61.5438 55.4571 61.7473 54.8025C62.1678 53.4511 63.6082 52.6935 64.9608 53.1138C65.6154 53.3173 66.1516 53.7636 66.4706 54.3706C66.7895 54.9776 66.8531 55.6725 66.6495 56.3271C66.446 56.9817 65.9997 57.518 65.3927 57.837C65.0192 58.0332 64.6121 58.1329 64.2016 58.1329ZM64.1992 54.7556C63.8541 54.7556 63.5338 54.9781 63.4261 55.3246C63.3619 55.5308 63.3819 55.7498 63.4823 55.941C63.5829 56.1323 63.752 56.2731 63.9583 56.3373C64.1645 56.4012 64.3835 56.3816 64.575 56.2808C64.7664 56.1803 64.907 56.0114 64.9712 55.805C65.0353 55.5986 65.0153 55.3796 64.9149 55.1883C64.8144 54.9971 64.6453 54.8565 64.4391 54.7923C64.3591 54.7674 64.2784 54.7556 64.1992 54.7556Z" fill="#839AFA"/>
<path d="M4.25545 65.7143C4.00356 65.7143 3.74762 65.6769 3.49485 65.5983C2.84006 65.3948 2.30393 64.9484 1.98489 64.3415C1.66602 63.7345 1.60239 63.0396 1.80594 62.385C2.0095 61.7304 2.4558 61.1941 3.06278 60.8752C3.66992 60.5564 4.36461 60.4925 5.01922 60.6963C5.67401 60.8998 6.21031 61.3461 6.52918 61.9531C6.84822 62.5601 6.91168 63.2548 6.70813 63.9096C6.36658 65.0082 5.34987 65.7143 4.25545 65.7143ZM4.25756 62.3381C3.9125 62.3381 3.59223 62.5606 3.48448 62.9069C3.42032 63.1133 3.44035 63.3323 3.5409 63.5236C3.64145 63.7148 3.81055 63.8556 4.01692 63.9198C4.44231 64.0516 4.89705 63.8134 5.02977 63.3873C5.09393 63.181 5.07389 62.9621 4.97334 62.7707C4.8728 62.5794 4.70369 62.4386 4.49733 62.3745C4.4177 62.3499 4.33701 62.3381 4.25756 62.3381ZM5.86895 63.6484H5.87071H5.86895Z" fill="#839AFA"/>
<defs>
<linearGradient id="paint0_linear" x1="32.1446" y1="1.93964" x2="32.1446" y2="80.0603" gradientUnits="userSpaceOnUse">
<stop offset="0.0028" stop-color="#FC80B7" stop-opacity="0"/>
<stop offset="1" stop-color="#FC80B7" stop-opacity="0.6"/>
</linearGradient>
</defs>
</svg>
