<svg width="64" height="75" viewBox="0 0 64 75" fill="none" xmlns="http://www.w3.org/2000/svg">
<path d="M61.0616 12.2671V16.1018C61.0616 17.1124 60.2423 17.9317 59.2318 17.9317H51.2179V12.2671C51.2179 10.2509 49.5645 8.6153 47.5249 8.6153H57.3704C57.7355 8.6153 58.0864 8.66785 58.4195 8.76612C59.947 9.21295 61.0616 10.612 61.0616 12.2671Z" fill="#6785F9"/>
<path d="M58.492 8.76593C56.9358 9.17972 55.7881 10.605 55.7881 12.2969V17.9315H51.3936V12.267C51.3936 10.2508 49.7639 8.61511 47.7537 8.61511H57.458C57.8177 8.61511 58.1636 8.66785 58.492 8.76593Z" fill="#466EF8"/>
<path d="M57.351 8.61511C55.3228 8.61511 53.6787 10.2534 53.6787 12.2707V44.8559C53.6787 46.8781 52.0394 48.5174 50.0172 48.5174H21.8623V12.2784C21.8623 10.2552 23.5023 8.61511 25.5256 8.61511H57.351Z" fill="#FFDB7B"/>
<path d="M33.1123 8.61511V16.643C33.1123 17.5488 32.3781 18.2831 31.4723 18.2831H21.8623V12.2784C21.8623 10.2552 23.5023 8.61511 25.5256 8.61511H33.1123Z" fill="#FFDB7B"/>
<path d="M47.2298 13.7128H33.0989C32.6767 13.7128 32.2884 13.4303 32.2049 13.0163C32.0912 12.4515 32.5206 11.955 33.0654 11.955H47.2632C47.8079 11.955 48.2376 12.4514 48.1236 13.0163C48.0403 13.4303 47.652 13.7128 47.2298 13.7128Z" fill="white"/>
<path d="M47.1898 17.0526H43.1456C42.7232 17.0526 42.3349 16.7698 42.2519 16.3556C42.1387 15.7907 42.5676 15.2948 43.1125 15.2948H47.1566C47.579 15.2948 47.9673 15.5776 48.0504 15.9918C48.1638 16.5567 47.7345 17.0526 47.1898 17.0526Z" fill="white"/>
<path d="M45.8447 44.6503H27.3115V23.7323C27.3115 23.1498 27.7837 22.6776 28.3662 22.6776H44.1927C46.8104 22.6776 48.9326 24.7998 48.9326 27.4176V41.5623C48.9326 43.2677 47.5501 44.6503 45.8447 44.6503Z" fill="#FDDAEC"/>
<path d="M39.4741 28.3009C40.0168 28.3009 40.4567 27.8609 40.4567 27.3182C40.4567 26.7756 40.0168 26.3356 39.4741 26.3356C38.9314 26.3356 38.4915 26.7756 38.4915 27.3182C38.4915 27.8609 38.9314 28.3009 39.4741 28.3009Z" fill="#FCA8CE"/>
<path d="M42.4467 28.3009C42.9894 28.3009 43.4293 27.8609 43.4293 27.3182C43.4293 26.7756 42.9894 26.3356 42.4467 26.3356C41.904 26.3356 41.4641 26.7756 41.4641 27.3182C41.4641 27.8609 41.904 28.3009 42.4467 28.3009Z" fill="#FCA8CE"/>
<path d="M45.4191 28.3009C45.9618 28.3009 46.4018 27.8609 46.4018 27.3182C46.4018 26.7756 45.9618 26.3356 45.4191 26.3356C44.8765 26.3356 44.4365 26.7756 44.4365 27.3182C44.4365 27.8609 44.8765 28.3009 45.4191 28.3009Z" fill="#FCA8CE"/>
<path d="M30.6423 21.0956H28.2144C27.792 21.0956 27.4037 20.8127 27.3207 20.3986C27.2075 19.8336 27.6364 19.3378 28.1814 19.3378H30.6092C31.0316 19.3378 31.42 19.6206 31.5029 20.0347C31.6163 20.5997 31.1874 21.0956 30.6423 21.0956Z" fill="#FDDAEC"/>
<path d="M33.6982 26.8963H26.4363C26.0139 26.8963 25.6256 26.6135 25.5427 26.1993C25.4295 25.6344 25.8584 25.1385 26.4033 25.1385H33.6982C33.9311 25.1385 34.1503 25.0476 34.3152 24.8829L36.6329 22.5656C37.127 22.0713 37.7844 21.7988 38.4835 21.7988H45.2203C45.4552 21.7988 45.6759 21.7074 45.8417 21.5415L48.6001 18.7833C48.943 18.4402 49.5001 18.4402 49.843 18.7833C50.1863 19.1266 50.1863 19.6833 49.843 20.0264L47.0848 22.7846C46.587 23.2826 45.9247 23.5568 45.2203 23.5568H38.4861C38.253 23.5568 38.0296 23.6494 37.8647 23.8141L35.549 26.1297C35.0547 26.6242 34.3973 26.8963 33.6982 26.8963Z" fill="#FC80B7"/>
<path d="M57.351 8.61511C55.3228 8.61511 53.6787 10.2534 53.6787 12.2707V44.8559C53.6787 46.8781 52.0394 48.5174 50.0172 48.5174H21.8623V12.2784C21.8623 10.2552 23.5023 8.61511 25.5256 8.61511H57.351Z" fill="url(#paint0_linear)"/>
<path d="M50.1623 48.6932H36.628V35.1312C36.628 33.1081 34.975 31.4667 32.9375 31.4667H42.7795C43.1817 31.4667 43.5679 31.53 43.931 31.6497C45.4069 32.1281 46.4718 33.5075 46.4718 35.1312V45.0287C46.4718 47.052 48.1248 48.6932 50.1623 48.6932Z" fill="#6785F9"/>
<path d="M43.9059 31.6497C42.4351 32.1281 41.3739 33.5075 41.3739 35.1312V48.6932H36.6278V35.1312C36.6278 33.1081 34.9804 31.4667 32.95 31.4667H42.7582C43.159 31.4667 43.5439 31.5301 43.9059 31.6497Z" fill="#466EF8"/>
<path d="M42.9369 31.2909C40.9087 31.2909 39.2646 32.9337 39.2646 34.9587V61.3794C39.2646 63.4015 37.6253 65.0409 35.6031 65.0409H7.44824V34.9542C7.44824 32.9309 9.08828 31.2909 11.1115 31.2909H42.9369Z" fill="#FFDB7B"/>
<path d="M15.0012 46.5839H30.4814C31.0608 46.5839 31.5303 46.1142 31.5303 45.535V40.0742C31.5303 39.4948 31.0606 39.0253 30.4814 39.0253H15.001C14.4217 39.0253 13.9521 39.495 13.9521 40.0742V45.5452C13.9521 46.1189 14.4218 46.5839 15.0012 46.5839Z" fill="#FDDAEC"/>
<path d="M16.5337 39.9042H13.6299C13.2075 39.9042 12.8192 39.6213 12.7363 39.2072C12.6231 38.6422 13.052 38.1464 13.5969 38.1464H16.5006C16.923 38.1464 17.3113 38.4292 17.3943 38.8433C17.5077 39.4083 17.0788 39.9042 16.5337 39.9042Z" fill="#FFDB7B"/>
<path d="M22.7041 45.3534H13.6299C13.2075 45.3534 12.8192 45.0706 12.7363 44.6564C12.6231 44.0915 13.052 43.5956 13.5969 43.5956H22.6709C23.0933 43.5956 23.4816 43.8784 23.5647 44.2926C23.6781 44.8575 23.2489 45.3534 22.7041 45.3534Z" fill="#FC80B7"/>
<path d="M27.0477 48.3417H13.6299C13.2075 48.3417 12.8192 48.0588 12.7363 47.6447C12.6231 47.0797 13.052 46.5839 13.5969 46.5839H27.0145C27.4369 46.5839 27.8252 46.8667 27.9083 47.2808C28.0217 47.8458 27.5924 48.3417 27.0477 48.3417Z" fill="#FC80B7"/>
<path d="M31.5303 53.0825V58.5423C31.5303 59.1218 31.0604 59.5917 30.4809 59.5917H15.0016C14.422 59.5917 13.9521 59.1218 13.9521 58.5423V53.0825C13.9521 52.5029 14.422 52.0331 15.0016 52.0331H30.4809C31.0604 52.0331 31.5303 52.5029 31.5303 53.0825Z" fill="#FDDAEC"/>
<path d="M34.3737 38.9818C34.3737 37.3717 33.0636 36.0616 31.4534 36.0616C29.8433 36.0616 28.5332 37.3717 28.5332 38.9818C28.5332 39.776 28.8528 40.4962 29.369 41.0232C28.8529 41.5502 28.5332 42.2703 28.5332 43.0645C28.5332 43.5499 28.9266 43.9434 29.4121 43.9434C29.8976 43.9434 30.291 43.5499 30.291 43.0645C30.291 42.4236 30.8126 41.9021 31.4534 41.9021C32.0943 41.9021 32.6159 42.4236 32.6159 43.0645C32.6159 43.5499 33.0093 43.9434 33.4948 43.9434C33.9803 43.9434 34.3737 43.5499 34.3737 43.0645C34.3737 42.2703 34.0541 41.5502 33.5379 41.0232C34.0541 40.4964 34.3737 39.776 34.3737 38.9818ZM31.4534 37.8196C32.0943 37.8196 32.6159 38.3409 32.6159 38.982C32.6159 39.6231 32.0943 40.1445 31.4534 40.1445C30.8126 40.1445 30.291 39.6229 30.291 38.982C30.291 38.3411 30.8124 37.8196 31.4534 37.8196Z" fill="#FC80B7"/>
<path d="M42.9369 31.2909C40.9087 31.2909 39.2646 32.9337 39.2646 34.9587V61.3794C39.2646 63.4015 37.6253 65.0409 35.6031 65.0409H7.44824V34.9542C7.44824 32.9309 9.08828 31.2909 11.1115 31.2909H42.9369Z" fill="url(#paint1_linear)"/>
<path d="M35.7281 65.0409H3.9117C1.88529 65.0409 0.241211 63.398 0.241211 61.3715V58.4363C0.241211 57.4238 1.06404 56.6034 2.07725 56.6034H30.2214C31.2346 56.6034 32.0574 57.4239 32.0574 58.4363V61.3715C32.0576 63.3982 33.7017 65.0409 35.7281 65.0409Z" fill="#6785F9"/>
<path d="M33.1123 1.99343V14.1821C33.1123 15.0879 32.3781 15.8221 31.4723 15.8221H16.4711C15.5653 15.8221 14.8311 15.0879 14.8311 14.1821V1.99343C14.8311 1.08763 15.5653 0.353394 16.4711 0.353394H31.4723C32.3781 0.353394 33.1123 1.08781 33.1123 1.99343Z" fill="#FCA8CE"/>
<path d="M22.1037 5.45105H19.2C18.7776 5.45105 18.3893 5.16822 18.3063 4.75408C18.1931 4.18912 18.622 3.69324 19.167 3.69324H22.0707C22.4931 3.69324 22.8814 3.97607 22.9644 4.39021C23.0777 4.95517 22.6488 5.45105 22.1037 5.45105Z" fill="#FC80B7"/>
<path d="M33.1123 1.99343V14.1821C33.1123 15.0879 32.3781 15.8221 31.4723 15.8221H28.6997C29.5828 15.8221 30.2998 15.0849 30.2998 14.1767V1.99888C30.2998 1.09062 29.583 0.353394 28.6997 0.353394H31.4723C32.3781 0.353394 33.1123 1.08781 33.1123 1.99343Z" fill="#FDC4DE"/>
<path d="M33.1123 5.26453V14.1823C33.1123 15.0881 32.3781 15.8223 31.4723 15.8223H16.4711C15.5653 15.8223 14.8311 15.0881 14.8311 14.1823V11.4278H17.9376C18.4054 11.4278 18.8556 11.2446 19.1855 10.9164L21.5296 8.5991C21.8614 8.27285 22.3097 8.08775 22.7792 8.08775H29.5255C29.7656 8.08775 30.0003 8.03888 30.2174 7.94818C30.4239 7.86099 30.6127 7.73707 30.7734 7.57658L33.1123 5.26453Z" fill="#839AFA"/>
<path d="M33.1123 5.22253V14.1821C33.1123 15.0879 32.3781 15.8221 31.4723 15.8221H28.6997C29.5828 15.8221 30.2998 15.0874 30.2998 14.1821V7.92605C30.5004 7.83816 30.6839 7.71335 30.84 7.55164L33.1123 5.22253Z" fill="#9FB1FA"/>
<path d="M37.939 69.6112C43.1579 69.6112 47.3354 65.1515 46.8681 59.835C46.4602 55.1931 42.4745 51.6815 37.8147 51.6815H33.4641V69.6112H37.939Z" fill="#466EF8"/>
<path d="M33.4947 69.6289C38.4388 69.6289 42.4467 65.621 42.4467 60.6769C42.4467 55.7329 38.4388 51.7249 33.4947 51.7249C28.5507 51.7249 24.5427 55.7329 24.5427 60.6769C24.5427 65.621 28.5507 69.6289 33.4947 69.6289Z" fill="#FFDB7B"/>
<path d="M61.053 46.3417C60.2277 46.3417 59.3875 45.9452 58.8313 45.0881C58.5187 44.6064 58.399 44.0177 58.4943 43.4516C58.8867 41.1195 61.6774 40.4408 63.0989 42.2086C63.1682 42.2947 63.2302 42.3872 63.2837 42.4841C63.7729 43.3719 63.7263 44.3818 63.2074 45.1775C63.2074 45.1775 63.2074 45.1775 63.2072 45.1775C62.7157 45.9316 61.8923 46.3417 61.053 46.3417ZM62.4712 44.6502H62.4729H62.4712ZM61.0583 42.9154C60.7937 42.9154 60.5343 43.0446 60.3792 43.2823C60.1356 43.6558 60.2416 44.1582 60.6153 44.402C60.9885 44.6453 61.4912 44.54 61.735 44.1661C61.9785 43.7924 61.8727 43.2902 61.4991 43.0466C61.3631 42.9578 61.2098 42.9154 61.0583 42.9154Z" fill="#839AFA"/>
<path d="M22.665 74.7642C21.2494 74.7642 20.0979 73.6127 20.0979 72.1973C20.0979 70.7819 21.2494 69.6303 22.665 69.6303C24.0804 69.6303 25.2319 70.7819 25.2319 72.1973C25.2319 73.6127 24.0804 74.7642 22.665 74.7642ZM22.665 71.3882C22.2189 71.3882 21.8557 71.751 21.8557 72.1973C21.8557 72.6436 22.2187 73.0064 22.665 73.0064C23.1113 73.0064 23.4741 72.6434 23.4741 72.1973C23.4741 71.7511 23.1111 71.3882 22.665 71.3882Z" fill="#839AFA"/>
<path d="M6.5802 24.9627H6.04196V24.4245C6.04196 24.0019 5.75877 23.6134 5.34446 23.5307C4.7795 23.4178 4.28414 23.8467 4.28414 24.3915V24.9627H3.7459C3.3235 24.9627 2.9352 25.2456 2.85223 25.6597C2.73903 26.2247 3.16793 26.7206 3.71286 26.7206H4.28414V27.2588C4.28414 27.6814 4.56715 28.0699 4.98164 28.1527C5.5466 28.2655 6.04196 27.8366 6.04196 27.2919V26.7206H6.61325C7.15817 26.7206 7.58707 26.2247 7.47387 25.6597C7.3909 25.2456 7.0026 24.9627 6.5802 24.9627Z" fill="#FFDB7B"/>
<path d="M48.4161 1.75962H47.8779V1.22137C47.8779 0.798796 47.5947 0.410495 47.1804 0.327526C46.6154 0.214674 46.1201 0.643756 46.1201 1.18833V1.75962H45.5818C45.1594 1.75962 44.7711 2.04245 44.6882 2.45659C44.575 3.02155 45.0039 3.51743 45.5488 3.51743H46.1201V4.05567C46.1201 4.47825 46.4031 4.86655 46.8176 4.94952C47.3825 5.06237 47.8779 4.63329 47.8779 4.08872V3.51743H48.4492C48.9941 3.51743 49.423 3.02155 49.3098 2.45659C49.2268 2.04245 48.8385 1.75962 48.4161 1.75962Z" fill="#FC80B7"/>
<path d="M59.6661 52.5604H59.1279V52.0222C59.1279 51.5996 58.8449 51.2113 58.4304 51.1283C57.8654 51.0155 57.3701 51.4444 57.3701 51.9891V52.5604H56.8318C56.4094 52.5604 56.0211 52.8432 55.9382 53.2574C55.825 53.8223 56.2539 54.3182 56.7988 54.3182H57.3701V54.8564C57.3701 55.279 57.6531 55.6673 58.0676 55.7503C58.6325 55.8631 59.1279 55.4342 59.1279 54.8895V54.3182H59.6992C60.2441 54.3182 60.673 53.8223 60.5598 53.2574C60.4768 52.8432 60.0885 52.5604 59.6661 52.5604Z" fill="#FC80B7"/>
<path d="M34.6581 65.0408H31.5045C31.0821 65.0408 30.6938 64.758 30.6108 64.3439C30.4976 63.7789 30.9265 63.283 31.4714 63.283H34.6121C35.0749 63.283 35.4922 62.9461 35.5337 62.485C35.5805 61.9641 35.1698 61.5252 34.6583 61.5252H32.4154C30.9933 61.5252 29.7642 60.4348 29.6978 59.0143C29.6271 57.5035 30.836 56.2518 32.3315 56.2518H35.4854C35.9078 56.2518 36.2961 56.5346 36.3791 56.9487C36.4923 57.5137 36.0633 58.0096 35.5184 58.0096H32.3777C31.9151 58.0096 31.4978 58.3466 31.4563 58.8073C31.4094 59.3281 31.8202 59.7674 32.3315 59.7674H34.5748C35.9969 59.7674 37.226 60.8578 37.2924 62.2783C37.3627 63.7891 36.1537 65.0408 34.6581 65.0408Z" fill="white"/>
<path d="M32.585 65.5359V55.8173C32.585 55.3947 32.868 55.0062 33.2825 54.9234C33.8474 54.8106 34.3428 55.2395 34.3428 55.7842V65.5689C34.3428 66.1135 33.8474 66.5424 33.2825 66.4295C32.8681 66.3469 32.585 65.9584 32.585 65.5359Z" fill="white"/>
<defs>
<linearGradient id="paint0_linear" x1="39.6067" y1="8.61511" x2="39.6067" y2="48.5174" gradientUnits="userSpaceOnUse">
<stop offset="0.0028" stop-color="#FC80B7" stop-opacity="0"/>
<stop offset="1" stop-color="#FC80B7" stop-opacity="0.6"/>
</linearGradient>
<linearGradient id="paint1_linear" x1="25.1927" y1="31.2909" x2="25.1927" y2="65.0409" gradientUnits="userSpaceOnUse">
<stop offset="0.0028" stop-color="#FC80B7" stop-opacity="0"/>
<stop offset="1" stop-color="#FC80B7" stop-opacity="0.6"/>
</linearGradient>
</defs>
</svg>
