<svg width="78" height="80" viewBox="0 0 78 80" fill="none" xmlns="http://www.w3.org/2000/svg">
<path d="M77.89 38.8399V67.6557C77.89 68.626 77.1043 69.4135 76.1322 69.4135H29.29C28.318 69.4135 27.5322 68.626 27.5322 67.6557V38.8399C27.5322 37.8696 28.318 37.0821 29.29 37.0821H76.1322C77.1043 37.0821 77.89 37.8696 77.89 38.8399Z" fill="#9FB0FE"/>
<path d="M41.4101 52.9499V61.0674C41.4101 62.0395 40.6244 62.8252 39.6523 62.8252H29.5484V65.2071C29.5484 66.3637 28.5166 67.0932 27.5322 66.9508V47.0665C28.5166 46.9241 29.5484 47.6536 29.5484 48.8102V51.192H39.6523C40.6244 51.192 41.4101 51.9795 41.4101 52.9499Z" fill="#8399FE"/>
<path d="M50.4687 37.0821V45.2911C50.4687 46.2614 49.6829 47.0489 48.7109 47.0489H27.5322V38.8399C27.5322 37.8696 28.318 37.0821 29.29 37.0821H50.4687Z" fill="#8399FE"/>
<path d="M77.89 38.8399L53.7096 55.5409C53.1084 55.9557 52.3139 55.9557 51.7127 55.5409L39.4168 47.0489L27.5322 38.8399C27.5322 37.8696 28.318 37.0821 29.29 37.0821H76.1322C76.6174 37.0821 77.0568 37.279 77.375 37.5971C77.6932 37.9153 77.89 38.3547 77.89 38.8399Z" fill="#B7C5FF"/>
<path d="M50.4687 37.0821V45.2911C50.4687 46.2614 49.6829 47.0489 48.7109 47.0489H39.4168L27.5322 38.8399C27.5322 37.8696 28.318 37.0821 29.29 37.0821H50.4687Z" fill="#9FB0FE"/>
<path d="M63.2155 62.0986C62.4384 62.0986 62.0015 61.7903 61.7124 61.5864C61.5046 61.4398 61.442 61.3955 61.2227 61.3955C61.0033 61.3955 60.9405 61.4398 60.7329 61.5864C60.4438 61.7905 60.0068 62.0986 59.2296 62.0986C58.4529 62.0986 58.0161 61.7903 57.7271 61.5862C57.5196 61.4398 57.4571 61.3955 57.2382 61.3955C57.0192 61.3955 56.9564 61.4398 56.749 61.5862C56.4599 61.7903 56.0232 62.0986 55.2461 62.0986C54.7608 62.0986 54.3672 61.7051 54.3672 61.2197C54.3672 60.7344 54.7608 60.3408 55.2461 60.3408C55.4651 60.3408 55.5277 60.2967 55.7353 60.1501C56.0244 59.946 56.4611 59.6377 57.2382 59.6377C58.0152 59.6377 58.452 59.946 58.741 60.1501C58.9482 60.2965 59.011 60.3408 59.2296 60.3408C59.449 60.3408 59.5116 60.2967 59.7194 60.1501C60.0085 59.946 60.4455 59.6377 61.2225 59.6377C61.9996 59.6377 62.4366 59.946 62.7258 60.1501C62.9334 60.2967 62.9961 60.3408 63.2155 60.3408C63.7008 60.3408 64.0944 60.7344 64.0944 61.2197C64.0944 61.7051 63.701 62.0986 63.2155 62.0986Z" fill="#6583FE"/>
<path d="M63.2155 65.2627C62.4384 65.2627 62.0015 64.9544 61.7124 64.7505C61.5046 64.6039 61.442 64.5596 61.2227 64.5596C61.0033 64.5596 60.9405 64.6039 60.7329 64.7505C60.4438 64.9546 60.0068 65.2627 59.2296 65.2627C58.4529 65.2627 58.0161 64.9544 57.7271 64.7503C57.5196 64.6039 57.4571 64.5596 57.2382 64.5596C57.0192 64.5596 56.9564 64.6039 56.749 64.7503C56.4599 64.9544 56.0232 65.2627 55.2461 65.2627C54.7608 65.2627 54.3672 64.8691 54.3672 64.3838C54.3672 63.8985 54.7608 63.5049 55.2461 63.5049C55.4651 63.5049 55.5277 63.4608 55.7353 63.3142C56.0244 63.1101 56.4611 62.8018 57.2382 62.8018C58.0152 62.8018 58.452 63.1101 58.741 63.3142C58.9482 63.4606 59.011 63.5049 59.2296 63.5049C59.449 63.5049 59.5116 63.4608 59.7194 63.3142C60.0085 63.1101 60.4455 62.8018 61.2225 62.8018C61.9996 62.8018 62.4366 63.1101 62.7258 63.3142C62.9334 63.4608 62.9961 63.5049 63.2155 63.5049C63.7008 63.5049 64.0944 63.8985 64.0944 64.3838C64.0944 64.8691 63.701 65.2627 63.2155 65.2627Z" fill="#6583FE"/>
<path d="M72.1353 65.504H66.9497C66.3672 65.504 65.895 65.0318 65.895 64.4493V59.2637C65.895 58.6812 66.3672 58.209 66.9497 58.209H72.1353C72.7178 58.209 73.1899 58.6812 73.1899 59.2637V64.4493C73.1899 65.0318 72.7178 65.504 72.1353 65.504Z" fill="#FF7EB8"/>
<path d="M77.89 38.8399V67.6557C77.89 68.626 77.1043 69.4135 76.1322 69.4135H29.29C28.318 69.4135 27.5322 68.626 27.5322 67.6557V38.8399C27.5322 37.8696 28.318 37.0821 29.29 37.0821H76.1322C77.1043 37.0821 77.89 37.8696 77.89 38.8399Z" fill="url(#paint0_linear)"/>
<path d="M18.3499 54.1211L26.5483 62.3196C27.6558 63.427 29.5491 62.6426 29.5491 61.0766V58.6949H39.6528C40.6237 58.6949 41.4106 57.908 41.4106 56.9371V48.819C41.4106 47.8482 40.6237 47.0612 39.6528 47.0612H29.5491V44.6796C29.5491 43.1135 27.6558 42.3292 26.5483 43.4366L18.3499 51.6351C17.6633 52.3217 17.6633 53.4347 18.3499 54.1211Z" fill="#FF7EB8"/>
<path d="M50.4677 12.3444V41.1954C50.4483 42.1498 49.6696 42.918 48.7099 42.918H1.86768C0.895605 42.918 0.109863 42.1305 0.109863 41.1602V12.3444C0.109863 11.374 0.895605 10.5865 1.86768 10.5865H48.7099C49.6819 10.5865 50.4677 11.374 50.4677 12.3444Z" fill="#FFDB7B"/>
<path d="M50.4678 21.311V41.1953C49.4834 41.3377 48.4515 40.6082 48.4515 39.4516V37.0698H38.3477C37.3756 37.0698 36.5898 36.2823 36.5898 35.3119V27.1944C36.5898 26.2223 37.3756 25.4365 38.3477 25.4365H48.4515V23.0547C48.4515 21.8981 49.4834 21.1686 50.4678 21.311Z" fill="#FFDB7B"/>
<path d="M0.109375 12.3444L24.2898 29.0448C24.891 29.46 25.6864 29.46 26.2878 29.0448L50.4682 12.3444C50.4682 11.3735 49.6813 10.5865 48.7104 10.5865H1.86719C0.896348 10.5865 0.109375 11.3735 0.109375 12.3444Z" fill="#FFDB7B"/>
<path d="M11.3335 37.5699C12.8961 36.0073 12.8961 33.4737 11.3335 31.9111C9.77084 30.3484 7.23728 30.3484 5.67464 31.9111C4.11199 33.4737 4.11199 36.0073 5.67464 37.5699C7.23728 39.1325 9.77083 39.1325 11.3335 37.5699Z" fill="#FF7EB8"/>
<path d="M17.3366 35.6031C16.5594 35.6031 16.1226 35.2948 15.8335 35.0907C15.6257 34.9441 15.5631 34.9 15.3437 34.9C15.1244 34.9 15.0618 34.9441 14.854 35.0907C14.5649 35.2948 14.1279 35.6031 13.3507 35.6031C12.5738 35.6031 12.1371 35.2948 11.8482 35.0907C11.6407 34.9443 11.5782 34.9 11.3593 34.9C11.1403 34.9 11.0775 34.9441 10.8701 35.0907C10.581 35.2948 10.1443 35.6031 9.36719 35.6031C8.88186 35.6031 8.48828 35.2096 8.48828 34.7242C8.48828 34.2389 8.88186 33.8453 9.36719 33.8453C9.58621 33.8453 9.64897 33.8012 9.85639 33.6546C10.1455 33.4505 10.5822 33.1422 11.3593 33.1422C12.1363 33.1422 12.5731 33.4505 12.8621 33.6546C13.0693 33.801 13.1321 33.8453 13.3507 33.8453C13.5701 33.8453 13.6327 33.8012 13.8405 33.6546C14.1296 33.4505 14.5666 33.1422 15.3436 33.1422C16.1207 33.1422 16.5577 33.4505 16.8469 33.6546C17.0544 33.8012 17.1172 33.8453 17.3366 33.8453C17.8219 33.8453 18.2155 34.2389 18.2155 34.7242C18.2155 35.2096 17.8219 35.6031 17.3366 35.6031Z" fill="#6583FE"/>
<path d="M17.3366 38.7672C16.5594 38.7672 16.1226 38.4589 15.8335 38.255C15.6257 38.1084 15.5631 38.0641 15.3437 38.0641C15.1244 38.0641 15.0618 38.1082 14.854 38.255C14.5649 38.4591 14.1279 38.7672 13.3507 38.7672C12.5738 38.7672 12.1371 38.4589 11.8482 38.2548C11.6407 38.1084 11.5782 38.0641 11.3593 38.0641C11.1403 38.0641 11.0775 38.1082 10.8701 38.2548C10.581 38.4589 10.1443 38.7672 9.36719 38.7672C8.88186 38.7672 8.48828 38.3736 8.48828 37.8883C8.48828 37.403 8.88186 37.0094 9.36719 37.0094C9.58621 37.0094 9.64897 36.9653 9.85639 36.8187C10.1455 36.6146 10.5822 36.3063 11.3593 36.3063C12.1363 36.3063 12.5731 36.6146 12.8621 36.8187C13.0693 36.9651 13.1321 37.0094 13.3507 37.0094C13.5701 37.0094 13.6327 36.9653 13.8405 36.8187C14.1296 36.6146 14.5666 36.3063 15.3436 36.3063C16.1207 36.3063 16.5577 36.6146 16.8469 36.8187C17.0544 36.9653 17.1172 37.0094 17.3366 37.0094C17.8219 37.0094 18.2155 37.403 18.2155 37.8883C18.2155 38.3736 17.8219 38.7672 17.3366 38.7672Z" fill="#6583FE"/>
<path d="M50.4677 12.3444V41.1954C50.4483 42.1498 49.6696 42.918 48.7099 42.918H1.86768C0.895605 42.918 0.109863 42.1305 0.109863 41.1602V12.3444C0.109863 11.374 0.895605 10.5865 1.86768 10.5865H48.7099C49.6819 10.5865 50.4677 11.374 50.4677 12.3444Z" fill="url(#paint1_linear)"/>
<path d="M59.6496 25.879L51.4512 17.6806C50.3438 16.5732 48.4504 17.3575 48.4504 18.9235V21.3052H38.3467C37.3758 21.3052 36.5889 22.0922 36.5889 23.063V31.1811C36.5889 32.1519 37.3758 32.9389 38.3467 32.9389H48.4504V35.3206C48.4504 36.8866 50.3438 37.6709 51.4512 36.5635L59.6496 28.3651C60.3362 27.6785 60.3362 26.5654 59.6496 25.879Z" fill="#6583FE"/>
<path d="M54.3667 79.4313C53.8814 79.4313 53.4878 79.0378 53.4878 78.5524C53.4878 77.9708 53.0148 77.4977 52.4331 77.4977C51.9478 77.4977 51.5542 77.1042 51.5542 76.6188C51.5542 76.1335 51.9478 75.7399 52.4331 75.7399C53.0148 75.7399 53.4878 75.2669 53.4878 74.6852C53.4878 74.1999 53.8814 73.8063 54.3667 73.8063C54.852 73.8063 55.2456 74.1999 55.2456 74.6852C55.2456 75.2669 55.7186 75.7399 56.3003 75.7399C56.7856 75.7399 57.1792 76.1335 57.1792 76.6188C57.1792 77.1042 56.7856 77.4977 56.3003 77.4977C55.7186 77.4977 55.2456 77.9708 55.2456 78.5524C55.2456 79.0378 54.852 79.4313 54.3667 79.4313Z" fill="#FFDB7B"/>
<path d="M25.2887 6.19379C25.0637 6.19379 24.8389 6.10801 24.6671 5.93645L22.7335 4.00286C22.3902 3.65956 22.3902 3.10303 22.7335 2.75991L24.6671 0.826313C25.0104 0.483188 25.5668 0.483188 25.9101 0.826313L27.8437 2.75991C28.187 3.10321 28.187 3.65973 27.8437 4.00286L25.9101 5.93645C25.7385 6.10784 25.5137 6.19379 25.2887 6.19379ZM24.5981 3.38129L25.2887 4.07176L25.9793 3.38112L25.2887 2.69065L24.5981 3.38129Z" fill="#FF7EB8"/>
<path d="M65.8942 20.4265C65.6692 20.4265 65.4444 20.3407 65.2726 20.1691L63.339 18.2355C62.9957 17.8922 62.9957 17.3357 63.339 16.9926L65.2726 15.059C65.6159 14.7159 66.1723 14.7159 66.5156 15.059L68.4492 16.9926C68.7925 17.3359 68.7925 17.8924 68.4492 18.2355L66.5156 20.1691C66.344 20.3407 66.1192 20.4265 65.8942 20.4265ZM65.2035 17.614L65.8942 18.3046L66.5848 17.614L65.8942 16.9233L65.2035 17.614Z" fill="#6583FE"/>
<path d="M15.8126 70.6853C15.5876 70.6853 15.3628 70.5996 15.1911 70.428L13.2575 68.4944C12.9142 68.1511 12.9142 67.5946 13.2575 67.2514L15.1911 65.3178C15.5344 64.9747 16.0907 64.9747 16.434 65.3178L18.3676 67.2514C18.7109 67.5947 18.7109 68.1513 18.3676 68.4944L16.434 70.428C16.2625 70.5996 16.0376 70.6853 15.8126 70.6853ZM15.122 67.8728L15.8126 68.5635L16.5033 67.8728L15.8126 67.1822L15.122 67.8728Z" fill="#6583FE"/>
<path d="M9.46875 62.942C8.98342 62.942 8.58984 62.5484 8.58984 62.063C8.58984 61.4814 8.11682 61.0084 7.53516 61.0084C7.04982 61.0084 6.65625 60.6148 6.65625 60.1295C6.65625 59.6441 7.04982 59.2505 7.53516 59.2505C8.11682 59.2505 8.58984 58.7775 8.58984 58.1959C8.58984 57.7105 8.98342 57.317 9.46875 57.317C9.95408 57.317 10.3477 57.7105 10.3477 58.1959C10.3477 58.7775 10.8207 59.2505 11.4023 59.2505C11.8877 59.2505 12.2812 59.6441 12.2812 60.1295C12.2812 60.6148 11.8877 61.0084 11.4023 61.0084C10.8207 61.0084 10.3477 61.4814 10.3477 62.063C10.3477 62.5484 9.95408 62.942 9.46875 62.942Z" fill="#FF7EB8"/>
<defs>
<linearGradient id="paint0_linear" x1="52.7111" y1="37.0821" x2="52.7111" y2="69.4135" gradientUnits="userSpaceOnUse">
<stop offset="0.0028" stop-color="#FF7EB8" stop-opacity="0"/>
<stop offset="1" stop-color="#FF7EB8" stop-opacity="0.6"/>
</linearGradient>
<linearGradient id="paint1_linear" x1="25.2888" y1="10.5865" x2="25.2888" y2="42.918" gradientUnits="userSpaceOnUse">
<stop offset="0.0028" stop-color="#FF7EB8" stop-opacity="0"/>
<stop offset="1" stop-color="#FF7EB8" stop-opacity="0.6"/>
</linearGradient>
</defs>
</svg>
