<svg width="86" height="90" viewBox="0 0 86 90" fill="none" xmlns="http://www.w3.org/2000/svg">
<path d="M48.3777 0.85552C31.7926 5.73275 35.1191 17.306 33.2641 30.13C30.9488 46.1352 20.9427 37.9285 9.4464 46.5722C-10.4264 61.5138 4.00931 94.4965 28.6888 89.4874C41.7937 86.8277 44.4715 77.166 49.8165 66.8426C56.7305 53.4879 68.1958 57.1289 78.4805 48.4107C99.3378 30.7303 71.9057 -6.06341 48.3777 0.85552Z" fill="url(#paint0_linear)"/>
<path d="M25.8833 41.0217L16.1874 51.6456C15.8613 52.0052 15.8884 52.5611 16.2478 52.887C16.4161 53.0397 16.6275 53.1149 16.8381 53.1149C17.0773 53.1149 17.3159 53.0177 17.4894 52.8265L27.3639 42.0057L25.8833 41.0217Z" fill="#9FB0FE"/>
<path d="M49.3206 64.1609L35.2919 79.5596C34.9658 79.9193 34.9929 80.4751 35.3523 80.801C35.5207 80.9538 35.732 81.029 35.9426 81.029C36.1818 81.029 36.4204 80.9318 36.5939 80.7405L50.4766 65.5029L49.3206 64.1609Z" fill="#9FB0FE"/>
<path d="M37.9874 70.2664C37.6277 69.94 37.0719 69.9673 36.7458 70.3269L27.131 80.927C26.8049 81.2867 26.832 81.8425 27.1914 82.1684C27.3598 82.3212 27.5711 82.3964 27.7817 82.3964C28.0209 82.3964 28.2595 82.2992 28.433 82.1079L38.0479 71.5078C38.3741 71.1483 38.347 70.5925 37.9874 70.2664Z" fill="#9FB0FE"/>
<path d="M28.0137 55.4186C27.6541 55.0921 27.0982 55.1194 26.7722 55.479L10.465 73.4572C10.1389 73.8169 10.1659 74.3727 10.5254 74.6986C10.6936 74.8513 10.9051 74.9266 11.1157 74.9266C11.3549 74.9266 11.5935 74.8294 11.767 74.6381L28.074 56.6601C28.4003 56.3004 28.3732 55.7446 28.0137 55.4186Z" fill="#9FB0FE"/>
<path d="M25.1881 63.1696L23.306 65.2445C22.9799 65.604 23.007 66.1598 23.3665 66.4859C23.5347 66.6387 23.7462 66.7139 23.9568 66.7139C24.196 66.7139 24.4345 66.6167 24.608 66.4254L26.4901 64.3505C26.8162 63.991 26.7891 63.4352 26.4297 63.1092C26.07 62.7827 25.5142 62.81 25.1881 63.1696Z" fill="#9FB0FE"/>
<path d="M13.2806 49.9456L15.1627 47.8705C15.4887 47.5109 15.4617 46.955 15.1022 46.6291C14.7425 46.3027 14.1867 46.33 13.8606 46.6896L11.9784 48.7645C11.6523 49.1242 11.6794 49.68 12.0389 50.0059C12.2072 50.1587 12.4185 50.2339 12.6291 50.2339C12.8685 50.2339 13.1071 50.1369 13.2806 49.9456Z" fill="#9FB0FE"/>
<path d="M76.8719 17.2482L32.1164 39.2769L31.002 44.5486L33.9531 65.06L76.8719 17.2482Z" fill="#4369FD"/>
<path d="M37.9408 51.0238L33.9534 65.06L42.1576 55.9206L37.9408 51.0238Z" fill="#6583FE"/>
<path d="M76.8725 17.248L53.4092 68.9841L37.9404 51.0245L76.8725 17.248Z" fill="#FF7EB8"/>
<path d="M50.2242 55.0833C49.8586 55.4015 49.3031 55.3646 48.9832 54.999L42.249 47.2874L43.5762 46.1361L50.3068 53.8423C50.6266 54.2079 50.5897 54.7634 50.2242 55.0833Z" fill="white"/>
<path d="M52.9609 52.1531C52.5953 52.473 52.0398 52.4343 51.7199 52.0687L45.2617 44.6736L46.5889 43.5204L53.0436 50.912C53.3633 51.2777 53.3264 51.833 52.9609 52.1531Z" fill="white"/>
<path d="M55.6977 49.2228C55.332 49.5427 54.7766 49.5058 54.4566 49.1402L48.2744 42.0597L49.6016 40.9066L55.782 47.9835C56.1002 48.3492 56.0633 48.9046 55.6977 49.2228Z" fill="white"/>
<path d="M58.4346 46.2943C58.069 46.6124 57.5135 46.5755 57.1936 46.2099L51.2874 39.4458L52.6145 38.2945L58.519 45.0533C58.8373 45.4189 58.8002 45.9744 58.4346 46.2943Z" fill="white"/>
<path d="M61.1716 43.364C60.806 43.6839 60.2505 43.6452 59.9323 43.2796L54.3003 36.832L55.6274 35.6788L61.256 42.123C61.5743 42.4886 61.5372 43.0439 61.1716 43.364Z" fill="white"/>
<path d="M62.7959 34.4044C62.4303 34.7244 61.8748 34.6857 61.5549 34.3201L59.6758 32.1685L61.0029 31.0154L62.8803 33.1652C63.1986 33.5308 63.1615 34.0845 62.7959 34.4044Z" fill="white"/>
<path d="M31.0021 44.4322L76.872 17.249L13.5706 32.8478L31.0021 44.4322Z" fill="#FF7EB8"/>
<path d="M42.0431 25.8316V33.0949C42.0431 33.8595 41.4226 34.48 40.6579 34.48H31.0022C27.6466 34.48 24.639 32.9824 22.6157 30.6181L42.0431 25.8316Z" fill="#FF5BA8"/>
<path d="M40.6583 31.2274H31.0021C24.9046 31.2274 19.9617 26.2844 19.9617 20.1871C19.9617 14.0896 24.9046 9.14677 31.0021 9.14677C37.0996 9.14677 42.0424 14.0897 42.0424 20.1871V29.8434C42.0424 30.6075 41.4226 31.2274 40.6583 31.2274Z" fill="#FFDB7B"/>
<path d="M36.0524 21.8269C36.9582 21.8269 37.6924 21.0927 37.6924 20.1869C37.6924 19.2811 36.9582 18.5468 36.0524 18.5468C35.1466 18.5468 34.4124 19.2811 34.4124 20.1869C34.4124 21.0927 35.1466 21.8269 36.0524 21.8269Z" fill="white"/>
<path d="M31.0019 21.8269C31.9076 21.8269 32.6419 21.0927 32.6419 20.1869C32.6419 19.2811 31.9076 18.5468 31.0019 18.5468C30.0961 18.5468 29.3618 19.2811 29.3618 20.1869C29.3618 21.0927 30.0961 21.8269 31.0019 21.8269Z" fill="white"/>
<path d="M25.9516 21.8269C26.8573 21.8269 27.5916 21.0927 27.5916 20.1869C27.5916 19.2811 26.8573 18.5468 25.9516 18.5468C25.0458 18.5468 24.3115 19.2811 24.3115 20.1869C24.3115 21.0927 25.0458 21.8269 25.9516 21.8269Z" fill="white"/>
<path d="M51.2874 15.7282C50.802 15.7282 50.4084 15.3348 50.4084 14.8493C50.4084 14.2676 49.9354 13.7946 49.3538 13.7946C48.8684 13.7946 48.4749 13.4012 48.4749 12.9157C48.4749 12.4302 48.8684 12.0368 49.3538 12.0368C49.9354 12.0368 50.4084 11.5638 50.4084 10.9821C50.4084 10.4966 50.802 10.1032 51.2874 10.1032C51.7727 10.1032 52.1663 10.4966 52.1663 10.9821C52.1663 11.5638 52.6393 12.0368 53.2209 12.0368C53.7063 12.0368 54.0999 12.4302 54.0999 12.9157C54.0999 13.4012 53.7063 13.7946 53.2209 13.7946C52.6393 13.7946 52.1663 14.2676 52.1663 14.8493C52.1663 15.3346 51.7729 15.7282 51.2874 15.7282Z" fill="#6583FE"/>
<path d="M68.8816 65.3305C68.3963 65.3305 68.0027 64.9371 68.0027 64.4516C68.0027 63.8699 67.5295 63.3969 66.948 63.3969C66.4627 63.3969 66.0691 63.0035 66.0691 62.518C66.0691 62.0325 66.4627 61.6391 66.948 61.6391C67.5297 61.6391 68.0027 61.1661 68.0027 60.5844C68.0027 60.0989 68.3963 59.7055 68.8816 59.7055C69.3669 59.7055 69.7605 60.0989 69.7605 60.5844C69.7605 61.1661 70.2335 61.6391 70.8152 61.6391C71.3005 61.6391 71.6941 62.0325 71.6941 62.518C71.6941 63.0035 71.3005 63.3969 70.8152 63.3969C70.2337 63.3969 69.7605 63.8699 69.7605 64.4516C69.7605 64.9371 69.3669 65.3305 68.8816 65.3305Z" fill="#FFDB7B"/>
<path d="M63.9053 71.7963C63.4199 71.7963 63.0264 71.4029 63.0264 70.9174C63.0264 70.3357 62.5533 69.8627 61.9717 69.8627C61.4863 69.8627 61.0928 69.4693 61.0928 68.9838C61.0928 68.4983 61.4863 68.1049 61.9717 68.1049C62.5533 68.1049 63.0264 67.6318 63.0264 67.0502C63.0264 66.5647 63.4199 66.1713 63.9053 66.1713C64.3906 66.1713 64.7842 66.5647 64.7842 67.0502C64.7842 67.6318 65.2572 68.1049 65.8389 68.1049C66.3242 68.1049 66.7178 68.4983 66.7178 68.9838C66.7178 69.4693 66.3242 69.8627 65.8389 69.8627C65.2572 69.8627 64.7842 70.3357 64.7842 70.9174C64.7842 71.4029 64.3906 71.7963 63.9053 71.7963Z" fill="#FF7EB8"/>
<path d="M11.116 61.6449C10.8829 61.6449 10.6593 61.5524 10.4945 61.3874L8.50637 59.3991C8.34148 59.2342 8.24902 59.0108 8.24902 58.7777C8.24902 58.5446 8.34166 58.321 8.50637 58.1563L10.4945 56.1682C10.8378 55.8249 11.3943 55.8251 11.7374 56.1681L13.7257 58.1561C13.8905 58.321 13.9832 58.5446 13.9832 58.7777C13.9832 59.0108 13.8905 59.2344 13.7258 59.3991L11.7374 61.3875C11.5725 61.5524 11.3491 61.6449 11.116 61.6449ZM10.3709 58.7779L11.116 59.523L11.8612 58.7779L11.116 58.0329L10.3709 58.7779Z" fill="#FFDB7B"/>
<path d="M40.8743 9.62894C40.6493 9.62894 40.4245 9.54315 40.2528 9.37142L38.2647 7.38333C38.0998 7.21845 38.0073 6.99503 38.0073 6.76194C38.0073 6.52886 38.1 6.30526 38.2647 6.14056L40.2528 4.15229C40.4176 3.98741 40.6412 3.89478 40.8743 3.89478C41.1074 3.89478 41.331 3.98724 41.4959 4.15229L43.4841 6.14056C43.649 6.30544 43.7415 6.52886 43.7415 6.76194C43.7415 6.99503 43.6489 7.21862 43.484 7.38351L41.4959 9.37159C41.3241 9.54315 41.0991 9.62894 40.8743 9.62894ZM40.1292 6.76212L40.8743 7.50708L41.6195 6.76212L40.8743 6.01698L40.1292 6.76212Z" fill="#FF7EB8"/>
<defs>
<linearGradient id="paint0_linear" x1="0.115407" y1="45" x2="85.8847" y2="45" gradientUnits="userSpaceOnUse">
<stop offset="0.0485" stop-color="#FFDBED"/>
<stop offset="0.9993" stop-color="#D2DEFF"/>
</linearGradient>
</defs>
</svg>
