<svg width="91" height="90" viewBox="0 0 91 90" fill="none" xmlns="http://www.w3.org/2000/svg">
<path d="M79.5768 26.2017V65.5263L62.6808 75.2805L45.5217 85.1867L11.4668 65.5263V26.2017L45.5217 6.54123L56.8773 13.0967L71.7006 21.6548L79.5768 26.2017Z" fill="#FFC4DF"/>
<path d="M79.5767 52.0336V65.5263L62.6806 75.2805H54.1576C53.0822 75.2805 52.2095 74.4078 52.2095 73.3324V53.9817C52.2095 52.9044 53.0822 52.0336 54.1576 52.0336H79.5767Z" fill="#FFA8CF"/>
<path d="M17.167 41.3579V50.6699C17.167 51.7453 16.2942 52.618 15.2189 52.618H11.4668V39.4097H15.2189C16.2942 39.4097 17.167 40.2825 17.167 41.3579Z" fill="#FFA8CF"/>
<path d="M71.7005 21.6548V22.3853C71.7005 23.4607 70.8277 24.3334 69.7523 24.3334H58.8253C57.75 24.3334 56.8772 23.4607 56.8772 22.3853V13.0967L71.7005 21.6548Z" fill="#FFA8CF"/>
<path d="M45.5316 66.8062L21.1421 59.9394L21.53 32.0125L45.5215 17.2267L69.4091 32.0725L62.0476 55.4054L45.5316 66.8062Z" fill="#9FB0FE"/>
<path d="M79.5768 26.2017V65.5263L62.6808 75.2805L45.5217 85.1867L11.4668 65.5263V26.2017L45.5217 6.54123L56.8773 13.0967L71.7006 21.6548L79.5768 26.2017Z" fill="url(#paint0_linear)"/>
<path d="M15.219 50.2797H4.2928C3.21685 50.2797 2.34448 49.4075 2.34448 48.3314V39.0201C2.34448 37.9442 3.21666 37.0718 4.2928 37.0718H15.219C16.295 37.0718 17.1673 37.944 17.1673 39.0201V48.3314C17.1673 49.4075 16.295 50.2797 15.219 50.2797Z" fill="#FF7EB8"/>
<path d="M8.43106 46.9948C8.26878 46.9948 8.10436 46.9543 7.95319 46.8687C7.48466 46.6042 7.31927 46.01 7.58382 45.5415L10.2319 40.852C10.4965 40.3836 11.0908 40.2182 11.559 40.4826C12.0275 40.7471 12.1929 41.3413 11.9283 41.8098L9.28025 46.4994C9.10121 46.8165 8.77101 46.9948 8.43106 46.9948Z" fill="white"/>
<path d="M69.7522 21.9957H58.826C57.75 21.9957 56.8777 21.1235 56.8777 20.0474V10.7361C56.8777 9.66017 57.75 8.7878 58.826 8.7878H69.7522C70.8282 8.7878 71.7005 9.65997 71.7005 10.7361V20.0474C71.7005 21.1233 70.8284 21.9957 69.7522 21.9957Z" fill="#6583FE"/>
<path d="M62.9643 18.7108C62.802 18.7108 62.6376 18.67 62.4864 18.5847C62.0179 18.3202 61.8525 17.726 62.117 17.2575L64.7651 12.5679C65.0297 12.0996 65.624 11.9342 66.0922 12.1986C66.5607 12.4631 66.7261 13.0573 66.4615 13.5258L63.8135 18.2154C63.6344 18.5325 63.3042 18.7108 62.9643 18.7108Z" fill="white"/>
<path d="M47.6503 46.3921C47.9282 45.2163 47.2003 44.0378 46.0245 43.7598C44.8487 43.4819 43.6701 44.2098 43.3922 45.3856C43.1142 46.5614 43.8421 47.74 45.018 48.0179C46.1938 48.2959 47.3723 47.568 47.6503 46.3921Z" fill="white"/>
<path d="M44.5476 32.9872C44.5476 33.5251 44.9836 33.9612 45.5217 33.9612C46.0597 33.9612 46.4957 33.5251 46.4957 32.9872V30.6459C46.4957 30.108 46.0597 29.6719 45.5217 29.6719C44.9836 29.6719 44.5476 30.108 44.5476 30.6459V32.9872Z" fill="#5127AC"/>
<path d="M45.5217 19.9139C46.0597 19.9139 46.4957 19.4777 46.4957 18.9399V16.5986C46.4957 16.0607 46.0597 15.6245 45.5217 15.6245C44.9836 15.6245 44.5476 16.0607 44.5476 16.5986V18.9399C44.5476 19.4777 44.9836 19.9139 45.5217 19.9139Z" fill="#5127AC"/>
<path d="M44.5476 25.9636C44.5476 26.5015 44.9836 26.9377 45.5217 26.9377C46.0597 26.9377 46.4957 26.5015 46.4957 25.9636V23.6224C46.4957 23.0845 46.0597 22.6483 45.5217 22.6483C44.9836 22.6483 44.5476 23.0845 44.5476 23.6224V25.9636Z" fill="#5127AC"/>
<path d="M45.5217 71.814C44.9836 71.814 44.5476 72.2502 44.5476 72.7881V75.1293C44.5476 75.6672 44.9836 76.1034 45.5217 76.1034C46.0597 76.1034 46.4957 75.6672 46.4957 75.1293V72.7881C46.4957 72.2502 46.0597 71.814 45.5217 71.814Z" fill="#5127AC"/>
<path d="M46.4957 58.7408C46.4957 58.2029 46.0597 57.7667 45.5217 57.7667C44.9836 57.7667 44.5476 58.2029 44.5476 58.7408V61.082C44.5476 61.6199 44.9836 62.0561 45.5217 62.0561C46.0597 62.0561 46.4957 61.6199 46.4957 61.082V58.7408Z" fill="#5127AC"/>
<path d="M46.4957 51.717C46.4957 51.1791 46.0597 50.743 45.5217 50.743C44.9836 50.743 44.5476 51.1791 44.5476 51.717V54.0583C44.5476 54.5961 44.9836 55.0323 45.5217 55.0323C46.0597 55.0323 46.4957 54.5961 46.4957 54.0583V51.717Z" fill="#5127AC"/>
<path d="M46.4957 65.7643C46.4957 65.2264 46.0597 64.7903 45.5217 64.7903C44.9836 64.7903 44.5476 65.2264 44.5476 65.7643V68.1056C44.5476 68.6434 44.9836 69.0796 45.5217 69.0796C46.0597 69.0796 46.4957 68.6434 46.4957 68.1056V65.7643Z" fill="#5127AC"/>
<path d="M44.5476 40.0109C44.5476 40.5488 44.9836 40.985 45.5217 40.985C46.0597 40.985 46.4957 40.5488 46.4957 40.0109V37.6697C46.4957 37.1318 46.0597 36.6956 45.5217 36.6956C44.9836 36.6956 44.5476 37.1318 44.5476 37.6697V40.0109Z" fill="#5127AC"/>
<path d="M19.4403 60.9221C19.6207 61.2346 19.948 61.4093 20.2848 61.4093C20.45 61.4093 20.6175 61.3672 20.7709 61.2786L22.7735 60.1222C23.2395 59.8531 23.3991 59.2574 23.13 58.7916C22.8612 58.3258 22.2653 58.1659 21.7995 58.4351L19.7968 59.5915C19.3308 59.8605 19.1713 60.4561 19.4403 60.9221Z" fill="#5127AC"/>
<path d="M62.3424 37.1273C62.5076 37.1273 62.6752 37.0852 62.8285 36.9966L64.8311 35.8402C65.2971 35.5712 65.4567 34.9756 65.1876 34.5096C64.9188 34.0438 64.3229 33.8839 63.8571 34.1531L61.8544 35.3095C61.3884 35.5786 61.2289 36.1741 61.4979 36.6401C61.6781 36.9526 62.0056 37.1273 62.3424 37.1273Z" fill="#5127AC"/>
<path d="M56.3341 40.5962C56.4993 40.5962 56.6669 40.5541 56.8202 40.4654L58.8228 39.3092C59.2888 39.0404 59.4484 38.4447 59.1793 37.9787C58.9105 37.5129 58.3148 37.3529 57.8488 37.6222L55.8461 38.7784C55.3801 39.0472 55.2206 39.6429 55.4896 40.1089C55.67 40.4214 55.9973 40.5962 56.3341 40.5962Z" fill="#5127AC"/>
<path d="M50.3256 44.065C50.4908 44.065 50.6583 44.0229 50.8116 43.9343L52.8143 42.7781C53.2803 42.5092 53.4398 41.9135 53.1708 41.4475C52.902 40.9817 52.306 40.8218 51.8402 41.091L49.8376 42.2472C49.3716 42.516 49.212 43.1118 49.4811 43.5778C49.6615 43.8902 49.9889 44.065 50.3256 44.065Z" fill="#5127AC"/>
<path d="M68.3502 33.6585C68.5154 33.6585 68.683 33.6164 68.8363 33.5278L70.839 32.3714C71.3049 32.1024 71.4645 31.5066 71.1955 31.0408C70.9266 30.575 70.3309 30.4151 69.8649 30.6843L67.8622 31.8407C67.3962 32.1098 67.2367 32.7053 67.5057 33.1713C67.6861 33.4838 68.0136 33.6585 68.3502 33.6585Z" fill="#5127AC"/>
<path d="M37.4646 50.5156C37.645 50.8281 37.9723 51.0028 38.3091 51.0028C38.4743 51.0028 38.6418 50.9607 38.7951 50.8721L40.798 49.7157C41.264 49.4469 41.4235 48.8511 41.1545 48.3851C40.8857 47.9193 40.2899 47.7594 39.8239 48.0286L37.8211 49.185C37.3553 49.4539 37.1957 50.0496 37.4646 50.5156Z" fill="#5127AC"/>
<path d="M25.4483 57.4532C25.6287 57.7657 25.956 57.9405 26.2929 57.9405C26.4581 57.9405 26.6256 57.8984 26.7789 57.8097L28.7816 56.6533C29.2476 56.3843 29.4071 55.7886 29.1381 55.3228C28.8692 54.857 28.2735 54.697 27.8075 54.9663L25.8048 56.1227C25.3389 56.3917 25.1793 56.9873 25.4483 57.4532Z" fill="#5127AC"/>
<path d="M31.4566 53.9844C31.637 54.2969 31.9643 54.4717 32.3012 54.4717C32.4664 54.4717 32.6339 54.4296 32.7872 54.3409L34.7899 53.1845C35.2559 52.9155 35.4154 52.3198 35.1464 51.854C34.8775 51.3882 34.2818 51.2282 33.8158 51.4975L31.8132 52.6539C31.3472 52.9227 31.1876 53.5184 31.4566 53.9844Z" fill="#5127AC"/>
<path d="M38.0082 42.6508L40.0187 43.8115C40.1722 43.9002 40.3395 43.9422 40.5047 43.9422C40.8416 43.9422 41.1688 43.7675 41.3492 43.455C41.6183 42.989 41.4587 42.3933 40.9927 42.1244L38.9823 40.9638C38.5155 40.6945 37.9204 40.8545 37.6517 41.3203C37.3827 41.7861 37.5422 42.382 38.0082 42.6508Z" fill="#5127AC"/>
<path d="M19.914 32.204L21.9244 33.3647C22.0778 33.4534 22.2453 33.4954 22.4105 33.4954C22.7473 33.4954 23.0746 33.3207 23.255 33.0082C23.524 32.5422 23.3645 31.9467 22.8985 31.6777L20.888 30.517C20.4219 30.2477 19.8263 30.4079 19.5575 30.8735C19.2884 31.3395 19.448 31.9352 19.914 32.204Z" fill="#5127AC"/>
<path d="M31.9767 39.1686L33.9872 40.3293C34.1405 40.4179 34.308 40.46 34.4732 40.46C34.8101 40.46 35.1374 40.2852 35.3178 39.9728C35.5868 39.5068 35.4272 38.9112 34.9612 38.6422L32.9508 37.4815C32.4846 37.2125 31.8891 37.3722 31.6202 37.838C31.3512 38.3038 31.5107 38.8995 31.9767 39.1686Z" fill="#5127AC"/>
<path d="M25.9455 35.6863L27.9559 36.847C28.1094 36.9356 28.2768 36.9777 28.442 36.9777C28.7788 36.9777 29.1061 36.803 29.2865 36.4905C29.5555 36.0245 29.396 35.4288 28.93 35.1599L26.9195 33.9992C26.4528 33.7302 25.8576 33.8899 25.589 34.3557C25.3199 34.8217 25.4795 35.4175 25.9455 35.6863Z" fill="#5127AC"/>
<path d="M51.045 47.9281C50.5783 47.6587 49.9831 47.8188 49.7145 48.2846C49.4454 48.7506 49.605 49.3463 50.071 49.6152L52.5961 51.1524L53.6826 49.53L51.045 47.9281Z" fill="#5127AC"/>
<path d="M75.6603 27.317L73.8705 28.3717C73.4045 28.6405 73.245 29.2363 73.514 29.7023C73.6944 30.0147 74.0217 30.1895 74.3585 30.1895C74.5237 30.1895 74.6913 30.1474 74.8446 30.0588L76.6877 28.9735L75.6603 27.317Z" fill="#5127AC"/>
<path d="M14.0645 28.865L15.893 29.8825C16.0463 29.9711 16.2136 30.0132 16.379 30.0132C16.7157 30.0132 17.0431 29.8384 17.2235 29.5261C17.4926 29.0602 17.333 28.4644 16.867 28.1954L15.041 27.1792L14.0645 28.865Z" fill="#5127AC"/>
<path d="M15.7911 61.9043L14.0935 62.7997L15.0699 64.4854L16.7652 63.5914C17.2311 63.3226 17.3907 62.7268 17.1217 62.2608C16.8526 61.795 16.2569 61.6351 15.7911 61.9043Z" fill="#5127AC"/>
<path d="M45.4257 78.8423C44.9192 78.8904 44.5471 79.3447 44.5471 79.8535V81.5149H46.4952V79.8116C46.4952 79.2424 46.0067 78.7871 45.4257 78.8423Z" fill="#5127AC"/>
<path d="M44.5476 10.3927V11.9159C44.5476 12.4538 44.9836 12.89 45.5217 12.89C46.0597 12.89 46.4957 12.4538 46.4957 11.9159V10.3927H44.5476Z" fill="#5127AC"/>
<path d="M42.3591 45.8641C42.3591 47.6076 43.7776 49.0263 45.5211 49.0263C47.2647 49.0263 48.6833 47.6076 48.6833 45.8641C48.6833 44.1203 47.2647 42.7019 45.5211 42.7019C43.7776 42.7019 42.3591 44.1203 42.3591 45.8641ZM45.5213 44.6498C46.1909 44.6498 46.7354 45.1945 46.7354 45.8639C46.7354 46.5333 46.1907 47.078 45.5213 47.078C44.8519 47.078 44.3074 46.5335 44.3074 45.8639C44.3074 45.1943 44.8519 44.6498 45.5213 44.6498Z" fill="#5127AC"/>
<path d="M88.055 72.3583H54.1578C53.0819 72.3583 52.2097 71.4862 52.2097 70.4102V51.0589C52.2097 49.983 53.0819 49.1108 54.1578 49.1108H88.055C89.1309 49.1108 90.0031 49.983 90.0031 51.0589V70.4102C90.0031 71.4862 89.1309 72.3583 88.055 72.3583Z" fill="white"/>
<path d="M67.6731 56.381H58.5672C58.0283 56.381 57.5916 55.9442 57.5916 55.4054C57.5916 54.8665 58.0283 54.4297 58.5672 54.4297H67.6731C68.2119 54.4297 68.6487 54.8665 68.6487 55.4054C68.6487 55.944 68.2121 56.381 67.6731 56.381Z" fill="#9FB0FE"/>
<path d="M79.3618 63.3679H58.5672C58.0283 63.3679 57.5916 62.9312 57.5916 62.3923C57.5916 61.8535 58.0283 61.4167 58.5672 61.4167H79.3618C79.9007 61.4167 80.3374 61.8535 80.3374 62.3923C80.3374 62.9312 79.9007 63.3679 79.3618 63.3679Z" fill="#B7C5FF"/>
<path d="M79.3618 67.3195H58.5672C58.0283 67.3195 57.5916 66.8827 57.5916 66.3439C57.5916 65.805 58.0283 65.3683 58.5672 65.3683H79.3618C79.9007 65.3683 80.3374 65.805 80.3374 66.3439C80.3374 66.8825 79.9007 67.3195 79.3618 67.3195Z" fill="#B7C5FF"/>
<path d="M76.0424 57.8945C75.7932 57.8945 75.5439 57.7994 75.3537 57.6093C74.8979 57.1536 74.1564 57.1536 73.7006 57.6093C73.3205 57.9896 72.7035 57.9898 72.323 57.6093C72.1329 57.4192 72.0378 57.1698 72.0378 56.9204C72.0378 56.6713 72.1329 56.4219 72.3232 56.2318C72.544 56.011 72.6655 55.7175 72.6655 55.4054C72.6655 55.0933 72.544 54.7997 72.3232 54.5788C72.1329 54.3885 72.0378 54.1393 72.0378 53.8899C72.0378 53.6406 72.1329 53.3914 72.3232 53.2011C72.7033 52.8208 73.3205 52.8208 73.7006 53.2011C74.1564 53.6569 74.8979 53.6569 75.3537 53.2011C75.7338 52.8208 76.351 52.8208 76.7311 53.2011C76.9214 53.3914 77.0165 53.6406 77.0165 53.8899C77.0165 54.1393 76.9214 54.3885 76.7311 54.5788C76.5103 54.7995 76.3888 55.0931 76.3888 55.4054C76.3888 55.7177 76.5103 56.011 76.7311 56.2318C76.9214 56.4219 77.0165 56.6713 77.0165 56.9204C77.0165 57.1698 76.9214 57.4192 76.7313 57.6093C76.5409 57.7994 76.2916 57.8945 76.0424 57.8945Z" fill="#FF7EB8"/>
<path d="M83.9645 57.8945C83.7154 57.8945 83.466 57.7994 83.2759 57.6093C82.82 57.1536 82.0785 57.1536 81.6227 57.6093C81.2426 57.9896 80.6256 57.9898 80.2452 57.6093C80.055 57.4192 79.96 57.1698 79.96 56.9204C79.96 56.6713 80.055 56.4219 80.2454 56.2318C80.4661 56.011 80.5876 55.7175 80.5876 55.4054C80.5876 55.0933 80.4661 54.7997 80.2454 54.5788C80.055 54.3885 79.96 54.1393 79.96 53.8899C79.96 53.6406 80.055 53.3914 80.2454 53.2011C80.6254 52.8208 81.2426 52.8208 81.6227 53.2011C82.0785 53.6569 82.82 53.6569 83.2759 53.2011C83.6559 52.8208 84.2731 52.8208 84.6532 53.2011C84.8435 53.3914 84.9386 53.6406 84.9386 53.8899C84.9386 54.1393 84.8435 54.3885 84.6532 54.5788C84.4325 54.7995 84.3109 55.0931 84.3109 55.4054C84.3109 55.7177 84.4325 56.011 84.6532 56.2318C84.8435 56.4219 84.9386 56.6713 84.9386 56.9204C84.9386 57.1698 84.8435 57.4192 84.6534 57.6093C84.4632 57.7994 84.2137 57.8945 83.9645 57.8945Z" fill="#FF7EB8"/>
<path d="M49.6629 7.21593C50.0346 4.9229 48.4771 2.7627 46.184 2.39098C43.891 2.01926 41.7308 3.5768 41.3591 5.86982C40.9874 8.16285 42.5449 10.323 44.8379 10.6948C47.131 11.0665 49.2912 9.50896 49.6629 7.21593Z" fill="#FFDB7B"/>
<path d="M49.6563 85.8481C50.028 83.5551 48.4705 81.3949 46.1774 81.0232C43.8844 80.6515 41.7242 82.209 41.3525 84.502C40.9808 86.795 42.5383 88.9552 44.8313 89.327C47.1244 89.6987 49.2846 88.1411 49.6563 85.8481Z" fill="#FFDB7B"/>
<path d="M83.6823 27.1985C84.2167 24.938 82.8173 22.6723 80.5568 22.138C78.2963 21.6036 76.0307 23.0029 75.4963 25.2634C74.962 27.5239 76.3613 29.7896 78.6218 30.324C80.8823 30.8583 83.148 29.459 83.6823 27.1985Z" fill="#FFDB7B"/>
<path d="M15.5556 27.1816C16.09 24.9211 14.6906 22.6554 12.4301 22.1211C10.1696 21.5867 7.90396 22.9861 7.36961 25.2466C6.83527 27.5071 8.2346 29.7727 10.4951 30.3071C12.7556 30.8414 15.0213 29.4421 15.5556 27.1816Z" fill="#FFDB7B"/>
<path d="M14.4312 68.494C16.0737 66.8515 16.0737 64.1884 14.4312 62.5459C12.7887 60.9034 10.1256 60.9034 8.48308 62.5459C6.84056 64.1884 6.84056 66.8515 8.48308 68.494C10.1256 70.1365 12.7887 70.1365 14.4312 68.494Z" fill="#FFDB7B"/>
<path d="M3.12026 59.5013C2.86194 59.5013 2.61414 59.3986 2.4316 59.2161L0.285351 57.0696C-0.095117 56.6892 -0.095117 56.0724 0.285351 55.6921L2.4316 53.5459C2.61433 53.3631 2.86194 53.2607 3.12026 53.2607C3.37858 53.2607 3.62638 53.3633 3.80892 53.5459L5.95536 55.6921C6.13809 55.8748 6.24076 56.1225 6.24076 56.381C6.24076 56.6395 6.13829 56.8871 5.95536 57.0698L3.80892 59.2161C3.62618 59.3986 3.37858 59.5013 3.12026 59.5013ZM2.35153 56.3808L3.12006 57.1495L3.88879 56.3808L3.12006 55.612L2.35153 56.3808Z" fill="#6583FE"/>
<path d="M73.8468 81.9766C73.5885 81.9766 73.3407 81.8739 73.1582 81.6914L71.0117 79.5451C70.829 79.3624 70.7263 79.1148 70.7263 78.8563C70.7263 78.5977 70.8288 78.3501 71.0117 78.1674L73.1582 76.0212C73.3409 75.8384 73.5885 75.736 73.8468 75.736C74.1051 75.736 74.3529 75.8386 74.5355 76.0212L76.6817 78.1674C77.0622 78.5479 77.0622 79.1646 76.6817 79.5449L74.5355 81.6912C74.3529 81.8739 74.1053 81.9766 73.8468 81.9766ZM73.0781 78.8563L73.8468 79.625L74.6154 78.8563L73.8468 78.0875L73.0781 78.8563Z" fill="#FF7EB8"/>
<path d="M80.7159 14.9752C80.5507 14.9752 80.3832 14.9331 80.2298 14.8445L77.6012 13.3269C77.1352 13.0581 76.9757 12.4623 77.2447 11.9963L78.7623 9.36773C79.0312 8.90193 79.6269 8.74199 80.0929 9.01122L82.7215 10.5288C83.1875 10.7977 83.347 11.3934 83.078 11.8594L81.5604 14.488C81.38 14.8005 81.0527 14.9752 80.7159 14.9752ZM79.4188 12.1269L80.3604 12.6704L80.9039 11.7289L79.9624 11.1853L79.4188 12.1269Z" fill="#FF7EB8"/>
<path d="M75.0156 6.24061C74.4775 6.24061 74.0415 5.80443 74.0415 5.26655C74.0415 4.62017 73.5157 4.09437 72.8693 4.09437C72.3313 4.09437 71.8953 3.65818 71.8953 3.12031C71.8953 2.58243 72.3313 2.14625 72.8693 2.14625C73.5155 2.14625 74.0415 1.62045 74.0415 0.974061C74.0415 0.436184 74.4775 0 75.0156 0C75.5536 0 75.9896 0.436184 75.9896 0.974061C75.9896 1.62045 76.5154 2.14625 77.162 2.14625C77.7001 2.14625 78.1361 2.58243 78.1361 3.12031C78.1361 3.65818 77.7001 4.09437 77.162 4.09437C76.5156 4.09437 75.9896 4.62017 75.9896 5.26655C75.9896 5.80443 75.5536 6.24061 75.0156 6.24061Z" fill="#FFDB7B"/>
<defs>
<linearGradient id="paint0_linear" x1="45.5217" y1="6.54123" x2="45.5217" y2="85.1867" gradientUnits="userSpaceOnUse">
<stop offset="0.0028" stop-color="#FF7EB8" stop-opacity="0"/>
<stop offset="1" stop-color="#FF7EB8" stop-opacity="0.6"/>
</linearGradient>
</defs>
</svg>
