<svg width="70" height="73" viewBox="0 0 70 73" fill="none" xmlns="http://www.w3.org/2000/svg">
<path d="M25.3882 70.419H8.58795C6.8776 70.419 5.49121 69.0324 5.49121 67.3223V44.004C5.49121 42.2936 6.87777 40.9073 8.58795 40.9073H25.3882C27.0986 40.9073 28.485 42.2938 28.485 44.004V67.3221C28.4852 69.0324 27.0986 70.419 25.3882 70.419Z" fill="white"/>
<path d="M20.2916 40.9073V41.8306C20.2916 43.6549 18.8128 45.1339 16.9883 45.1339C15.1639 45.1339 13.6851 43.6551 13.6851 41.8306V40.9073H20.2916Z" fill="#FFCC42"/>
<path d="M12.6787 61.4267V52.7765C12.6787 50.3965 14.607 48.4664 16.9871 48.4664C19.3672 48.4664 21.2973 50.3965 21.2973 52.7765V61.4267C21.2973 63.8086 19.3672 65.7369 16.9871 65.7369C15.7971 65.7369 14.7195 65.2553 13.9408 64.4748C13.1604 63.6943 12.6787 62.6185 12.6787 61.4267Z" fill="#9D6CDD"/>
<path d="M20.0249 64.47C21.7077 62.7872 21.7077 60.0588 20.0249 58.3759C18.3421 56.6931 15.6137 56.6931 13.9308 58.3759C12.248 60.0588 12.248 62.7872 13.9308 64.47C15.6137 66.1528 18.3421 66.1528 20.0249 64.47Z" fill="#FFCC42"/>
<path d="M46.7723 52.4158V59.1699C46.7723 60.1516 45.9764 60.9474 44.9948 60.9474C44.013 60.9474 43.2173 60.1514 43.2173 59.1699V52.4158H46.7723Z" fill="#FFAB66"/>
<path d="M54.1273 52.4158V59.1699C54.1273 60.1516 53.3313 60.9474 52.3498 60.9474C51.368 60.9474 50.5723 60.1514 50.5723 59.1699V52.4158H54.1273Z" fill="#FFAB66"/>
<path d="M43.2173 52.4158H46.7725V57.7169H44.0303C43.7501 57.7169 43.4774 57.6798 43.2173 57.6116V52.4158Z" fill="#FF9D33"/>
<path d="M54.1273 52.4158V57.6116C53.8671 57.6798 53.5947 57.7169 53.3145 57.7169H50.5723V52.4158H54.1273Z" fill="#FF9D33"/>
<path d="M36.7616 31.9466C40.2269 35.0572 42.3662 39.3584 42.6696 43.9702H54.6745C54.9778 39.359 57.1161 35.0576 60.5815 31.9477C64.2196 28.6827 66.5083 23.9444 66.5083 18.6711C66.5083 8.82048 58.5229 0.835091 48.6723 0.834915C38.8435 0.834739 30.8836 8.75439 30.8362 18.5832C30.8105 23.8913 33.1039 28.6636 36.7616 31.9466Z" fill="#D1C7FF"/>
<path d="M52.0006 41.9382H45.3438L45.9397 38.9939L47.1596 32.9575H50.1848L51.4047 38.9939L52.0006 41.9382Z" fill="#9D6CDD"/>
<path d="M51.405 38.9939C50.577 39.465 49.6349 39.7163 48.6733 39.7163C47.7118 39.7163 46.7679 39.465 45.9399 38.9939L47.1599 32.9575H50.185L51.405 38.9939Z" fill="#9D6CDD"/>
<path d="M53.0147 31.0922C53.0147 33.2258 52.05 35.1342 50.5332 36.4046C49.458 37.3051 47.8877 37.3053 46.8123 36.4048C45.2949 35.1344 44.3301 33.226 44.3301 31.0922C44.3301 28.9587 45.2944 27.0513 46.8114 25.7811C47.8872 24.8802 49.4585 24.8804 50.5341 25.7813C52.0506 27.0515 53.0147 28.9589 53.0147 31.0922Z" fill="#D9D9FF"/>
<path d="M52.3883 30.6606C51.1496 30.6606 50.4732 30.1164 49.9792 29.7191C49.5503 29.3741 49.2914 29.1658 48.6718 29.1658C48.0527 29.1658 47.7937 29.3741 47.3648 29.719C46.8709 30.1164 46.1947 30.6606 44.9559 30.6606C43.7172 30.6606 43.0408 30.1164 42.547 29.7191C42.1181 29.3741 41.8592 29.1658 41.2397 29.1658C40.7542 29.1658 40.3608 28.7722 40.3608 28.2869C40.3608 27.8015 40.7542 27.408 41.2397 27.408C42.4785 27.408 43.1549 27.9522 43.6487 28.3494C44.0777 28.6945 44.3365 28.9028 44.9559 28.9028C45.575 28.9028 45.834 28.6945 46.2629 28.3494C46.7568 27.952 47.433 27.408 48.6718 27.408C49.9105 27.408 50.5871 27.9522 51.0809 28.3494C51.5099 28.6945 51.7687 28.9028 52.3883 28.9028C53.0076 28.9028 53.2665 28.6945 53.6956 28.3494C54.1896 27.952 54.866 27.408 56.1047 27.408C56.5902 27.408 56.9836 27.8015 56.9836 28.2869C56.9836 28.7722 56.5902 29.1658 56.1047 29.1658C55.4852 29.1658 55.2263 29.3741 54.7972 29.7191C54.3035 30.1164 53.6271 30.6606 52.3883 30.6606Z" fill="#9494FF"/>
<path d="M36.7616 31.9466C40.2269 35.0572 42.3662 39.3584 42.6696 43.9702H54.6745C54.9778 39.359 57.1161 35.0576 60.5815 31.9477C64.2196 28.6827 66.5083 23.9444 66.5083 18.6711C66.5083 8.82048 58.5229 0.835091 48.6723 0.834915C38.8435 0.834739 30.8836 8.75439 30.8362 18.5832C30.8105 23.8913 33.1039 28.6636 36.7616 31.9466Z" fill="url(#paint0_linear)"/>
<path d="M53.315 54.6971H44.0299C42.2754 54.6971 40.853 53.2749 40.853 51.5202V44.6551C40.853 42.9006 42.2753 41.4782 44.0299 41.4782H53.315C55.0695 41.4782 56.4919 42.9004 56.4919 44.6551V51.5202C56.4918 53.2749 55.0695 54.6971 53.315 54.6971Z" fill="#9D6CDD"/>
<path d="M40.853 45.5765H56.4919V48.0877H40.853V45.5765Z" fill="#B3B3FF"/>
<path d="M20.7712 34.1771C21.0685 34.1771 21.3582 34.0265 21.5236 33.7538C21.7753 33.3388 21.6429 32.7983 21.2279 32.5466C19.9507 31.7717 18.4845 31.3623 16.9883 31.3623C15.492 31.3623 14.0256 31.7717 12.7484 32.5466C12.3334 32.7983 12.201 33.3388 12.4527 33.7538C12.7045 34.1687 13.245 34.3014 13.66 34.0495C14.6625 33.4415 15.8133 33.1201 16.9883 33.1201C18.1632 33.1201 19.3138 33.4415 20.3163 34.0495C20.4587 34.136 20.6159 34.1771 20.7712 34.1771Z" fill="#9D6CDD"/>
<path d="M16.9878 34.4839C16.2589 34.4839 15.5445 34.6834 14.9222 35.0609C14.5072 35.3127 14.3749 35.8532 14.6266 36.2682C14.8783 36.6831 15.419 36.8158 15.8338 36.5639C16.5287 36.1424 17.4468 36.1424 18.1418 36.5639C18.2844 36.6504 18.4415 36.6915 18.5968 36.6915C18.8938 36.6915 19.1837 36.5408 19.3491 36.2684C19.6008 35.8534 19.4685 35.3128 19.0534 35.0611C18.4312 34.6834 17.7168 34.4839 16.9878 34.4839Z" fill="#9D6CDD"/>
<path d="M11.6485 31.4043C13.2565 30.4288 15.1029 29.9132 16.988 29.9132C18.8731 29.9132 20.7195 30.4288 22.3275 31.4043C22.4701 31.4908 22.6272 31.532 22.7825 31.532C23.0795 31.532 23.3694 31.3813 23.5348 31.1088C23.7865 30.6938 23.6542 30.1533 23.2391 29.9016C21.3562 28.7594 19.1946 28.1555 16.988 28.1555C14.7812 28.1555 12.6197 28.7594 10.7367 29.9016C10.3217 30.1533 10.1893 30.6938 10.441 31.1088C10.6929 31.5239 11.2334 31.6562 11.6485 31.4043Z" fill="#9D6CDD"/>
<path d="M18.5978 21.186C18.3728 21.186 18.148 21.1002 17.9762 20.9286L16.0426 18.995C15.6993 18.6517 15.6993 18.0952 16.0426 17.7521L17.9762 15.8185C18.3195 15.4754 18.8759 15.4754 19.2192 15.8185L21.1528 17.7521C21.4961 18.0954 21.4961 18.6519 21.1528 18.995L19.2192 20.9286C19.0476 21.1002 18.8228 21.186 18.5978 21.186ZM17.9071 18.3735L18.5978 19.0641L19.2884 18.3735L18.5978 17.6828L17.9071 18.3735Z" fill="#FFCC42"/>
<path d="M66.5083 64.9775C66.2834 64.9775 66.0584 64.8917 65.8869 64.7202L63.9533 62.7866C63.61 62.4433 63.61 61.8868 63.9533 61.5436L65.8869 59.61C66.2298 59.2669 66.7867 59.2669 67.1296 59.61L69.0632 61.5436C69.4065 61.8869 69.4065 62.4434 69.0632 62.7866L67.1296 64.7202C66.9583 64.8916 66.7333 64.9775 66.5083 64.9775ZM65.8178 62.165L66.5084 62.8557L67.1991 62.165L66.5084 61.4744L65.8178 62.165Z" fill="#FFCC42"/>
<path d="M37.9336 72.3983C37.7087 72.3983 37.4836 72.3125 37.3122 72.141L35.3786 70.2074C35.0353 69.8641 35.0353 69.3075 35.3786 68.9644L37.3122 67.0308C37.6551 66.6877 38.212 66.6877 38.5549 67.0308L40.4885 68.9644C40.8318 69.3077 40.8318 69.8642 40.4885 70.2074L38.5549 72.141C38.3836 72.3125 38.1584 72.3983 37.9336 72.3983ZM37.2429 69.5858L37.9336 70.2764L38.6242 69.5858L37.9336 68.8951L37.2429 69.5858Z" fill="#FF9D33"/>
<path d="M2.50602 33.1236C1.24479 33.1236 0.21875 32.0976 0.21875 30.8364C0.21875 29.5752 1.24479 28.5491 2.50602 28.5491C3.76725 28.5491 4.79328 29.5752 4.79328 30.8364C4.79328 32.0976 3.76725 33.1236 2.50602 33.1236ZM2.50602 30.3069C2.21404 30.3069 1.97656 30.5444 1.97656 30.8364C1.97656 31.1284 2.21404 31.3658 2.50602 31.3658C2.79799 31.3658 3.03547 31.1284 3.03547 30.8364C3.03547 30.5444 2.79799 30.3069 2.50602 30.3069Z" fill="#9D6CDD"/>
<path d="M63.7711 45.0592C62.5099 45.0592 61.4839 44.0332 61.4839 42.7719C61.4839 41.5107 62.5099 40.4847 63.7711 40.4847C65.0324 40.4847 66.0584 41.5107 66.0584 42.7719C66.0584 44.0332 65.0324 45.0592 63.7711 45.0592ZM63.7711 42.2425C63.4792 42.2425 63.2417 42.48 63.2417 42.7719C63.2417 43.0639 63.479 43.3014 63.7711 43.3014C64.0631 43.3014 64.3006 43.0639 64.3006 42.7719C64.3006 42.48 64.0631 42.2425 63.7711 42.2425Z" fill="#FF9D33"/>
<defs>
<linearGradient id="paint0_linear" x1="48.6721" y1="43.9702" x2="48.6721" y2="0.834915" gradientUnits="userSpaceOnUse">
<stop stop-color="#FF4D4D" stop-opacity="0.4"/>
<stop offset="1" stop-color="#FF4D4D" stop-opacity="0"/>
</linearGradient>
</defs>
</svg>
