<svg width="76" height="84" viewBox="0 0 76 84" fill="none" xmlns="http://www.w3.org/2000/svg">
<path d="M73.0632 72.7246H2.93701C1.48084 72.7246 0.300293 71.5441 0.300293 70.0879V14.8458C0.300293 13.3897 1.48084 12.2091 2.93701 12.2091H73.0632C74.5194 12.2091 75.6999 13.3897 75.6999 14.8458V70.0879C75.6999 71.5442 74.5195 72.7246 73.0632 72.7246Z" fill="white"/>
<path d="M27.4531 72.7241H73.0631C74.5193 72.7241 75.6998 71.5435 75.6998 70.0874V62.5541H27.4531V72.7241Z" fill="#D2DEFF"/>
<path d="M27.4532 72.7246H2.93701C1.48084 72.7246 0.300293 71.5441 0.300293 70.0879V14.8458C0.300293 13.3897 1.48084 12.2091 2.93701 12.2091H27.4532V72.7246Z" fill="#8399FE"/>
<path d="M16.597 39.0979C18.9066 36.7882 18.9066 33.0435 16.597 30.7338C14.2873 28.4241 10.5425 28.4241 8.23284 30.7338C5.92315 33.0435 5.92315 36.7882 8.23284 39.0979C10.5425 41.4076 14.2873 41.4076 16.597 39.0979Z" fill="#FFDB7B"/>
<path d="M10.3364 37.1596C9.82139 37.687 9.50146 38.4077 9.50146 39.2005V40.0635C10.0411 40.3694 10.6317 40.5944 11.2593 40.7192V39.2005C11.2593 38.5606 11.7796 38.0385 12.4212 38.0385C13.0628 38.0385 13.5831 38.5606 13.5831 39.2005V40.7192C14.2106 40.5944 14.803 40.3694 15.3409 40.0635V39.2005C15.3409 38.4077 15.0228 37.687 14.506 37.1596C15.0228 36.6323 15.3409 35.9116 15.3409 35.1188C15.3409 33.5087 14.0313 32.1973 12.4212 32.1973C10.811 32.1973 9.50146 33.5087 9.50146 35.1188C9.50146 35.9116 9.82139 36.6323 10.3364 37.1596ZM11.2593 35.1188C11.2593 34.4772 11.7796 33.9551 12.4212 33.9551C13.0628 33.9551 13.5831 34.4772 13.5831 35.1188C13.5831 35.7587 13.0628 36.2807 12.4212 36.2807C11.7794 36.2807 11.2593 35.7587 11.2593 35.1188Z" fill="white"/>
<path d="M22.0064 44.0786H7.38477C6.89943 44.0786 6.50586 44.4722 6.50586 44.9575C6.50586 45.4429 6.89943 45.8364 7.38477 45.8364H22.0064C22.4918 45.8364 22.8853 45.4429 22.8853 44.9575C22.8853 44.4722 22.4918 44.0786 22.0064 44.0786Z" fill="#4369FD"/>
<path d="M18.315 47.68H7.38477C6.89943 47.68 6.50586 48.0736 6.50586 48.5589C6.50586 49.0442 6.89943 49.4378 7.38477 49.4378H18.315C18.8004 49.4378 19.1939 49.0442 19.1939 48.5589C19.1939 48.0736 18.8004 47.68 18.315 47.68Z" fill="#4369FD"/>
<path d="M18.315 51.2814H7.38477C6.89943 51.2814 6.50586 51.6749 6.50586 52.1603C6.50586 52.6456 6.89943 53.0392 7.38477 53.0392H18.315C18.8004 53.0392 19.1939 52.6456 19.1939 52.1603C19.1939 51.6749 18.8004 51.2814 18.315 51.2814Z" fill="#4369FD"/>
<path d="M22.0064 57.8087H7.38477C6.89943 57.8087 6.50586 58.2022 6.50586 58.6876C6.50586 59.1729 6.89943 59.5665 7.38477 59.5665H22.0064C22.4918 59.5665 22.8853 59.1729 22.8853 58.6876C22.8853 58.2022 22.4918 57.8087 22.0064 57.8087Z" fill="white"/>
<path d="M22.0064 61.4099H7.38477C6.89943 61.4099 6.50586 61.8035 6.50586 62.2888C6.50586 62.7742 6.89943 63.1677 7.38477 63.1677H22.0064C22.4918 63.1677 22.8853 62.7742 22.8853 62.2888C22.8853 61.8035 22.4918 61.4099 22.0064 61.4099Z" fill="white"/>
<path d="M22.0064 65.0113H7.38477C6.89943 65.0113 6.50586 65.4049 6.50586 65.8902C6.50586 66.3755 6.89943 66.7691 7.38477 66.7691H22.0064C22.4918 66.7691 22.8853 66.3755 22.8853 65.8902C22.8853 65.4049 22.4918 65.0113 22.0064 65.0113Z" fill="white"/>
<path d="M41.3404 65.0113H34.1016C33.6162 65.0113 33.2227 65.4049 33.2227 65.8902C33.2227 66.3755 33.6162 66.7691 34.1016 66.7691H41.3404C41.8257 66.7691 42.2193 66.3755 42.2193 65.8902C42.2193 65.4049 41.8257 65.0113 41.3404 65.0113Z" fill="#8399FE"/>
<path d="M54.6728 65.0113H47.4341C46.9487 65.0113 46.5552 65.4049 46.5552 65.8902C46.5552 66.3755 46.9487 66.7691 47.4341 66.7691H54.6729C55.1583 66.7691 55.5518 66.3755 55.5518 65.8902C55.5518 65.4049 55.1583 65.0113 54.6728 65.0113Z" fill="#FF7EB8"/>
<path d="M68.005 65.0113H60.7661C60.2808 65.0113 59.8872 65.4049 59.8872 65.8902C59.8872 66.3755 60.2808 66.7691 60.7661 66.7691H68.005C68.4903 66.7691 68.8839 66.3755 68.8839 65.8902C68.8839 65.4049 68.4903 65.0113 68.005 65.0113Z" fill="#F7C84A"/>
<path d="M22.8855 29.8818C22.8855 30.3673 22.4919 30.7611 22.0062 30.7611C21.5207 30.7611 21.127 30.3675 21.127 29.8818C21.127 29.3963 21.5205 29.0026 22.0062 29.0026C22.4919 29.0026 22.8855 29.3963 22.8855 29.8818Z" fill="white"/>
<path d="M75.6999 24.393V14.8458C75.6999 13.3897 74.5194 12.2091 73.0632 12.2091H2.93701C1.48084 12.2091 0.300293 13.3897 0.300293 14.8458V24.393H75.6999Z" fill="#FF7EB8"/>
<path d="M8.05096 20.6118C9.10924 20.6118 9.96715 19.7539 9.96715 18.6956C9.96715 17.6373 9.10924 16.7794 8.05096 16.7794C6.99267 16.7794 6.13477 17.6373 6.13477 18.6956C6.13477 19.7539 6.99267 20.6118 8.05096 20.6118Z" fill="#FF5BA8"/>
<path d="M14.1681 20.6118C15.2264 20.6118 16.0843 19.7539 16.0843 18.6956C16.0843 17.6373 15.2264 16.7794 14.1681 16.7794C13.1099 16.7794 12.252 17.6373 12.252 18.6956C12.252 19.7539 13.1099 20.6118 14.1681 20.6118Z" fill="white"/>
<path d="M20.2853 20.6118C21.3436 20.6118 22.2015 19.7539 22.2015 18.6956C22.2015 17.6373 21.3436 16.7794 20.2853 16.7794C19.227 16.7794 18.3691 17.6373 18.3691 18.6956C18.3691 19.7539 19.227 20.6118 20.2853 20.6118Z" fill="#FFDB7B"/>
<path d="M68.9863 20.8486H45.0522V16.5427H68.9865C69.4718 16.5427 69.8654 16.9362 69.8654 17.4216V19.9697C69.8652 20.455 69.4718 20.8486 68.9863 20.8486Z" fill="#FFDBED"/>
<path d="M45.1702 16.5975C44.241 15.6683 42.7291 15.6683 41.7999 16.5975C40.8707 17.5267 40.8707 19.0386 41.7999 19.9678C42.5095 20.6774 43.5582 20.8432 44.4284 20.4691L45.1927 21.2334C45.5358 21.5765 46.0925 21.5765 46.4356 21.2334C46.7789 20.8903 46.7789 20.3336 46.4356 19.9904L45.6713 19.2262C46.0456 18.3559 45.8798 17.307 45.1702 16.5975ZM43.0429 17.8405C43.2867 17.5967 43.6834 17.5967 43.9272 17.8405C44.171 18.0843 44.171 18.481 43.9272 18.7248C43.6834 18.9686 43.2867 18.9686 43.0429 18.7248C42.7991 18.4808 42.7991 18.0843 43.0429 17.8405Z" fill="white"/>
<path d="M39.3108 62.5541H33.2231V47.7737C33.2231 47.2882 33.6167 46.8948 34.1021 46.8948H38.4319C38.9172 46.8948 39.3108 47.2882 39.3108 47.7737V62.5541Z" fill="#FFDB7B"/>
<path d="M49.1511 62.5541H43.0635V37.2268C43.0635 36.7413 43.4571 36.3479 43.9424 36.3479H48.2722C48.7576 36.3479 49.1511 36.7413 49.1511 37.2268V62.5541Z" fill="#8399FE"/>
<path d="M58.9915 62.5541H52.9038V31.9534C52.9038 31.4679 53.2974 31.0745 53.7827 31.0745H58.1126C58.5979 31.0745 58.9915 31.4679 58.9915 31.9534V62.5541Z" fill="#8399FE"/>
<path d="M68.8318 62.5541H62.7441V37.2268C62.7441 36.7413 63.1377 36.3479 63.623 36.3479H67.9529C68.4382 36.3479 68.8318 36.7413 68.8318 37.2268V62.5541Z" fill="#FF7EB8"/>
<path d="M52.1552 5.46754C50.77 5.46754 49.6431 4.3406 49.6431 2.95527C49.6431 1.57011 50.77 0.443176 52.1552 0.443176C53.5405 0.443176 54.6674 1.57011 54.6674 2.95527C54.6674 4.3406 53.5405 5.46754 52.1552 5.46754ZM52.1552 2.20099C51.7393 2.20099 51.4009 2.53937 51.4009 2.95527C51.4009 3.37117 51.7393 3.70972 52.1552 3.70972C52.5711 3.70972 52.9096 3.37117 52.9096 2.95527C52.9096 2.53937 52.5712 2.20099 52.1552 2.20099Z" fill="#6583FE"/>
<path d="M12.252 83.5568C10.8669 83.5568 9.73975 82.4298 9.73975 81.0445C9.73975 79.6593 10.8667 78.5324 12.252 78.5324C13.6372 78.5324 14.7643 79.6593 14.7643 81.0445C14.7641 82.4298 13.6372 83.5568 12.252 83.5568ZM12.252 80.2902C11.8361 80.2902 11.4976 80.6286 11.4976 81.0445C11.4976 81.4604 11.8359 81.7989 12.252 81.7989C12.6679 81.7989 13.0065 81.4604 13.0065 81.0445C13.0063 80.6286 12.6679 80.2902 12.252 80.2902Z" fill="#6583FE"/>
<path d="M43.4849 7.40113C42.0996 7.40113 40.9727 6.27419 40.9727 4.88886C40.9727 3.5037 42.0996 2.37677 43.4849 2.37677C44.8701 2.37677 45.997 3.5037 45.997 4.88886C45.997 6.27419 44.8701 7.40113 43.4849 7.40113ZM43.4849 4.13458C43.069 4.13458 42.7305 4.47296 42.7305 4.88886C42.7305 5.30476 43.069 5.64331 43.4849 5.64331C43.9008 5.64331 44.2392 5.30476 44.2392 4.88886C44.2392 4.47296 43.9008 4.13458 43.4849 4.13458Z" fill="#FF5BA8"/>
<path d="M50.522 83.0806C49.1367 83.0806 48.0098 81.9536 48.0098 80.5685C48.0098 79.1831 49.1367 78.0562 50.522 78.0562C51.9072 78.0562 53.0341 79.1831 53.0341 80.5685C53.0341 81.9536 51.9072 83.0806 50.522 83.0806ZM50.522 79.814C50.1061 79.814 49.7676 80.1526 49.7676 80.5685C49.7676 80.9844 50.1061 81.3228 50.522 81.3228C50.9379 81.3228 51.2763 80.9844 51.2763 80.5685C51.2763 80.1526 50.9381 79.814 50.522 79.814Z" fill="#FFDB7B"/>
<path d="M42.3332 81.3961C41.8477 81.3961 41.4543 81.0027 41.4543 80.5172C41.4543 79.9355 40.9811 79.4625 40.3994 79.4625C39.9139 79.4625 39.5205 79.0691 39.5205 78.5836C39.5205 78.098 39.9139 77.7047 40.3994 77.7047C40.9811 77.7047 41.4543 77.2316 41.4543 76.65C41.4543 76.1645 41.8477 75.7711 42.3332 75.7711C42.8187 75.7711 43.2121 76.1645 43.2121 76.65C43.2121 77.2316 43.6851 77.7047 44.2666 77.7047C44.7521 77.7047 45.1455 78.098 45.1455 78.5836C45.1455 79.0691 44.7521 79.4625 44.2666 79.4625C43.6851 79.4625 43.2121 79.9355 43.2121 80.5172C43.2121 81.0027 42.8187 81.3961 42.3332 81.3961Z" fill="#FF5BA8"/>
<path d="M73.0632 72.7246H2.93701C1.48084 72.7246 0.300293 71.5441 0.300293 70.0879V14.8458C0.300293 13.3897 1.48084 12.2091 2.93701 12.2091H73.0632C74.5194 12.2091 75.6999 13.3897 75.6999 14.8458V70.0879C75.6999 71.5442 74.5195 72.7246 73.0632 72.7246Z" fill="url(#paint0_linear)"/>
<defs>
<linearGradient id="paint0_linear" x1="38.0001" y1="12.2091" x2="38.0001" y2="72.7246" gradientUnits="userSpaceOnUse">
<stop offset="0.0028" stop-color="#FF7EB8" stop-opacity="0"/>
<stop offset="1" stop-color="#FF7EB8" stop-opacity="0.6"/>
</linearGradient>
</defs>
</svg>
