<svg xmlns="http://www.w3.org/2000/svg" width="126.235" height="119" viewBox="0 0 126.235 119"><defs><style>.a{fill:#e6e7e8;}.b{fill:#453890;}.c{fill:#8b65e4;}.d{fill:#fff;}.e{fill:#54349f;}.f{fill:#0089ef;}.g{fill:#fa759e;}.h{fill:#f6dd6f;}.i{fill:#ffd000;}.j{fill:#ffd7e5;}.k{fill:#3a2c60;}</style></defs><g transform="translate(-2.784 -6.293)"><path class="a" d="M127.661,45.758,122.807,40.9V29.4a8.249,8.249,0,0,0-8.249-8.249H87.3L76.743,10.6a.825.825,0,0,0-.112-.075.978.978,0,0,0-.163-.109,1.486,1.486,0,0,0-.377-.1c-.026,0-.049-.014-.076-.014H31.28A2.784,2.784,0,0,0,28.5,13.077v8.07H15.033A8.249,8.249,0,0,0,6.784,29.4v68.32a8.249,8.249,0,0,0,8.249,8.249H53.021l-1.862,12.464H41.577a3.254,3.254,0,0,0-3.254,3.254v.233a3.253,3.253,0,0,0,3.253,3.254H88.014a3.254,3.254,0,0,0,3.254-3.254v-.234a3.253,3.253,0,0,0-3.254-3.253H78.432L76.57,105.964h37.989a8.249,8.249,0,0,0,8.249-8.249V56.291l4.949-4.949a3.877,3.877,0,0,0,1.07-3.464,4.061,4.061,0,0,0-1.166-2.12Z" transform="translate(0.124 0.124)"/><path class="b" d="M7.217,0h99.525a7.217,7.217,0,0,1,7.217,7.217V75.536a7.217,7.217,0,0,1-7.217,7.217H7.217A7.217,7.217,0,0,1,0,75.536V7.217A7.217,7.217,0,0,1,7.217,0Z" transform="translate(3.815 18.179)"/><path class="c" d="M110.527,17.821H11a7.218,7.218,0,0,0-7.217,7.218V86.49h113.96V25.038a7.217,7.217,0,0,0-7.217-7.217Z" transform="translate(0.031 0.358)"/><path class="d" d="M110.527,17.821H11a7.218,7.218,0,0,0-7.217,7.218v3.473a7.6,7.6,0,0,1,7.6-7.6h98.766a7.6,7.6,0,0,1,7.6,7.6V25.038a7.217,7.217,0,0,0-7.217-7.217Z" transform="translate(0.031 0.358)"/><rect class="e" width="50.882" height="4.68" rx="2.156" transform="translate(35.354 115.459)"/><path class="e" d="M70.009,98.081H48.854l-2.171,14.526h25.5Z" transform="translate(1.364 2.852)"/><path class="d" d="M90.341,88.755a2.171,2.171,0,1,0,2.17,2.171,2.171,2.171,0,0,0-2.17-2.171Z" transform="translate(2.653 2.562)"/><path class="f" d="M97.71,88.755a2.171,2.171,0,1,0,2.165,2.171A2.171,2.171,0,0,0,97.71,88.755Z" transform="translate(2.882 2.562)"/><path class="g" d="M105.079,88.755a2.171,2.171,0,1,0,2.165,2.171,2.171,2.171,0,0,0-2.165-2.171Z" transform="translate(3.111 2.562)"/><path class="h" d="M95.372,31.336,71.329,7.293H26.908a2.062,2.062,0,0,0-2.062,2.062v77.46H95.371V31.336Z" transform="translate(0.685 0.031)"/><g transform="translate(32.608 16.582)"><path class="d" d="M31.709,18.947v2.277a1.753,1.753,0,1,0,3.506,0V19.78h4.691v15.7a2.115,2.115,0,1,0,4.23,0v-15.7h4.69v1.444a1.753,1.753,0,1,0,3.506,0V18.947a2.675,2.675,0,0,0-2.675-2.675H34.381a2.675,2.675,0,0,0-2.672,2.675Z" transform="translate(-31.709 -16.272)"/><path class="d" d="M85.213,37.845H53.887a1.031,1.031,0,1,1,0-2.062H85.213a1.031,1.031,0,0,1,0,2.062Z" transform="translate(-31.052 -15.666)"/><path class="d" d="M85.834,47.845H33.887a1.031,1.031,0,0,1,0-2.062H85.834a1.031,1.031,0,0,1,0,2.062Z" transform="translate(-31.673 -15.355)"/><path class="d" d="M80.679,57.845H33.887a1.031,1.031,0,0,1,0-2.062H80.679a1.031,1.031,0,1,1,0,2.062Z" transform="translate(-31.673 -15.044)"/><path class="d" d="M75.524,67.845H33.887a1.031,1.031,0,0,1,0-2.062H75.524a1.031,1.031,0,1,1,0,2.062Z" transform="translate(-31.673 -14.734)"/><path class="d" d="M71.4,77.845H33.887a1.031,1.031,0,1,1,0-2.062H71.4a1.031,1.031,0,1,1,0,2.062Z" transform="translate(-31.673 -14.423)"/></g><path class="i" d="M69.93,7.293v21.98a2.062,2.062,0,0,0,2.062,2.062H93.975Z" transform="translate(2.086 0.031)"/><path class="j" d="M83.226,64.19,79.051,77.835,92.7,73.667,120.662,45.7a2.845,2.845,0,0,0,0-4.021l-5.455-5.458a2.844,2.844,0,0,0-4.021,0Z" transform="translate(2.37 0.904)"/><path class="b" d="M83.1,64.19l9.478,9.478L120.54,45.7a2.845,2.845,0,0,0,0-4.021l-5.46-5.458a2.844,2.844,0,0,0-4.021,0Z" transform="translate(2.495 0.904)"/><path class="i" d="M107.634,38.888l2.661-2.661a2.844,2.844,0,0,1,4.021,0l5.455,5.455a2.845,2.845,0,0,1,0,4.021l-2.661,2.661Z" transform="translate(3.258 0.904)"/><path class="k" d="M114.342,63.492a1.031,1.031,0,0,0-1.031,1.031V75.739a1.031,1.031,0,1,0,2.062,0V64.523A1.031,1.031,0,0,0,114.342,63.492Z" transform="translate(3.434 1.777)"/><path class="k" d="M123.761,41.858l-4.949-4.949V25.4a8.258,8.258,0,0,0-8.249-8.249H83.3L72.743,6.6a1.031,1.031,0,0,0-.729-.3H27.594A3.093,3.093,0,0,0,24.5,9.386v7.762H11.033A8.258,8.258,0,0,0,2.784,25.4V93.715a8.258,8.258,0,0,0,8.249,8.249H49.021l-1.862,12.463H37.577a3.258,3.258,0,0,0-3.254,3.255v.233a3.258,3.258,0,0,0,3.254,3.254H84.014a3.258,3.258,0,0,0,3.254-3.254v-.233a3.258,3.258,0,0,0-3.254-3.255H74.432L72.57,101.964h37.989a8.258,8.258,0,0,0,8.249-8.249V81.7a1.031,1.031,0,0,0-2.062,0v4.116H97.091V74.009l19.654-19.655v7.606a1.031,1.031,0,0,0,2.062,0V52.291l4.949-4.949a3.88,3.88,0,0,0,0-5.484Zm-13.2-22.647a6.194,6.194,0,0,1,6.186,6.186V35.469a3.865,3.865,0,0,0-3.918.928L97.091,52.136V31.365a1.031,1.031,0,0,0-.359-.781L85.358,19.21ZM84.96,76.58l-1.38-1.38,2.5-8.164,7.046,7.05Zm2.089-11.486,23.842-23.84,8.02,8.02L95.069,73.114Zm-14-55.281L93.569,30.331H74.082A1.031,1.031,0,0,1,73.05,29.3Zm-62.013,9.4H24.5V85.817H4.846V25.4a6.194,6.194,0,0,1,6.186-6.186Zm74.173,98.467v.233a1.193,1.193,0,0,1-1.192,1.192H37.577a1.193,1.193,0,0,1-1.192-1.192v-.233a1.193,1.193,0,0,1,1.192-1.193H84.014a1.193,1.193,0,0,1,1.192,1.2Zm-12.86-3.251h-23.1l1.862-12.463H70.484Zm44.4-20.711a6.194,6.194,0,0,1-6.186,6.186H11.033a6.194,6.194,0,0,1-6.186-6.186V87.878h111.9Zm-90.183-7.9V9.386a1.031,1.031,0,0,1,1.031-1.031h43.39V29.3A3.093,3.093,0,0,0,74.076,32.4H95.029V54.2L84.862,64.365a1.031,1.031,0,0,0-.258.427L80.434,78.438a1.031,1.031,0,0,0,.987,1.332,1.043,1.043,0,0,0,.3-.044l13.307-4.063V85.815ZM122.3,45.88l-1.933,1.932-8.02-8.02,1.932-1.932a1.816,1.816,0,0,1,2.565,0l5.455,5.455A1.814,1.814,0,0,1,122.3,45.88Z" transform="translate(0 0)"/></g></svg>