<svg xmlns="http://www.w3.org/2000/svg" width="132.206" height="119" viewBox="0 0 132.206 119"><defs><style>.a{fill:#e6e7e8;}.b{fill:#54349f;}.c{fill:#8b65e4;}.d{fill:#fff;}.e{fill:#453890;}.f{fill:#0089ef;}.g{fill:#fa759e;}.h{fill:#ffd000;}.i{fill:#ffd7e5;}.j{fill:#6dc9f7;}.k{fill:#3a2c60;}</style></defs><g transform="translate(-5.737 -11.557)"><path class="a" d="M129.463,15.557H18.814a9.077,9.077,0,0,0-9.077,9.077V99.81a9.077,9.077,0,0,0,9.077,9.077h41.8L58.565,122.6H48.023a3.581,3.581,0,0,0-3.582,3.581v.258a3.581,3.581,0,0,0,3.581,3.58h51.1a3.581,3.581,0,0,0,3.581-3.581v-.256A3.581,3.581,0,0,0,99.12,122.6H88.577l-2.049-13.715h42.935a7.942,7.942,0,0,0,7.942-7.942V23.5A7.942,7.942,0,0,0,129.463,15.557Z" transform="translate(0.538 0.538)"/><path class="b" d="M9.575,0h106.25A9.575,9.575,0,0,1,125.4,9.575V81.486a9.575,9.575,0,0,1-9.575,9.575H9.575A9.575,9.575,0,0,1,0,81.486V9.575A9.575,9.575,0,0,1,9.575,0Z" transform="translate(6.872 12.692)"/><path class="c" d="M124.194,12.557H14.679A7.942,7.942,0,0,0,6.737,20.5v67.62h125.4V20.5a7.942,7.942,0,0,0-7.942-7.942Z" transform="translate(0.135 0.135)"/><path class="d" d="M124.194,12.557H14.679A7.942,7.942,0,0,0,6.737,20.5V24.32A8.359,8.359,0,0,1,15.1,15.961H123.782a8.359,8.359,0,0,1,8.359,8.359V20.5a7.942,7.942,0,0,0-7.948-7.942Z" transform="translate(0.135 0.135)"/><rect class="e" width="55.99" height="5.15" rx="2.156" transform="translate(41.577 119.736)"/><path class="e" d="M75.3,92.817H52.024L49.636,108.8H77.692Z" transform="translate(5.907 10.935)"/><path class="d" d="M93.511,83.491a2.389,2.389,0,1,0,1.691.7,2.389,2.389,0,0,0-1.691-.7Z" transform="translate(11.49 9.68)"/><path class="f" d="M100.884,83.491a2.389,2.389,0,1,0,2.383,2.393,2.389,2.389,0,0,0-2.383-2.393Z" transform="translate(12.481 9.68)"/><path class="g" d="M108.248,83.491a2.389,2.389,0,1,0,2.389,2.389,2.389,2.389,0,0,0-2.389-2.389Z" transform="translate(13.473 9.68)"/><rect class="h" width="31.768" height="10.486" rx="4.284" transform="translate(53.687 56.459)"/><path class="i" d="M67.165,54.528a1.391,1.391,0,1,0,1.391,1.391A1.391,1.391,0,0,0,67.165,54.528Z" transform="translate(8.079 5.782)"/><path class="i" d="M71.55,54.528a1.391,1.391,0,1,0,1.39,1.391A1.391,1.391,0,0,0,71.55,54.528Z" transform="translate(8.669 5.782)"/><rect class="h" width="31.768" height="10.486" rx="4.284" transform="translate(53.687 45.973)"/><path class="i" d="M67.165,45.286a1.391,1.391,0,1,0,1.391,1.391A1.391,1.391,0,0,0,67.165,45.286Z" transform="translate(8.079 4.539)"/><path class="i" d="M71.55,45.286a1.391,1.391,0,1,0,1.39,1.391,1.391,1.391,0,0,0-1.39-1.391Z" transform="translate(8.669 4.539)"/><rect class="h" width="31.768" height="10.486" rx="4.284" transform="translate(53.687 35.487)"/><path class="i" d="M67.164,36.045a1.39,1.39,0,1,0,.986.405A1.391,1.391,0,0,0,67.164,36.045Z" transform="translate(8.08 3.295)"/><path class="i" d="M71.55,36.045a1.391,1.391,0,1,0,1.39,1.39A1.391,1.391,0,0,0,71.55,36.045Z" transform="translate(8.669 3.295)"/><path class="f" d="M86.229,20.91a4.041,4.041,0,1,0,4.041,4.041,4.041,4.041,0,0,0-4.041-4.041Z" transform="translate(10.288 1.259)"/><path class="i" d="M35.312,60.544a4.04,4.04,0,1,0,2.862,1.181,4.041,4.041,0,0,0-2.862-1.181Z" transform="translate(3.437 6.592)"/><path class="j" d="M86.229,66.494a4.041,4.041,0,1,0,4.041,4.041,4.041,4.041,0,0,0-4.041-4.041Z" transform="translate(10.288 7.393)"/><g transform="translate(5.737 11.557)"><path class="k" d="M124.33,11.557H14.814a9.087,9.087,0,0,0-9.077,9.077V95.81a9.087,9.087,0,0,0,9.077,9.077h41.8L54.565,118.6H44.022a3.584,3.584,0,0,0-3.581,3.581v.258a3.584,3.584,0,0,0,3.581,3.58h51.1a3.584,3.584,0,0,0,3.582-3.58v-.258a3.584,3.584,0,0,0-3.582-3.581H84.577l-2.049-13.715h41.8a9.087,9.087,0,0,0,9.077-9.077V75.78a1.135,1.135,0,0,0-2.269,0V87.117H8.006V20.631a6.815,6.815,0,0,1,6.807-6.807H124.33a6.815,6.815,0,0,1,6.807,6.807V54.059a1.135,1.135,0,1,0,2.269,0V20.634a9.087,9.087,0,0,0-9.077-9.077Zm-27.9,110.62v.258a1.313,1.313,0,0,1-1.313,1.31h-51.1a1.313,1.313,0,0,1-1.312-1.31v-.258a1.313,1.313,0,0,1,1.312-1.312h51.1a1.313,1.313,0,0,1,1.313,1.316ZM82.278,118.6H56.864l2.042-13.715h21.33Zm48.854-29.215V95.81a6.815,6.815,0,0,1-6.807,6.807H14.814A6.815,6.815,0,0,1,8.006,95.81V89.386Z" transform="translate(-5.737 -11.557)"/><path class="k" d="M117.4,52.229a1.135,1.135,0,0,0-1.135,1.135V65.7a1.135,1.135,0,0,0,2.269,0V53.364a1.135,1.135,0,0,0-1.135-1.135Z" transform="translate(9.136 -6.084)"/><path class="k" d="M75.042,31.649H53a6,6,0,0,0-6,6v.764a5.978,5.978,0,0,0,2.513,4.86A5.979,5.979,0,0,0,47,48.13v.765a5.979,5.979,0,0,0,2.513,4.86A5.978,5.978,0,0,0,47,58.615v.764a6,6,0,0,0,6,6H75.042a6,6,0,0,0,6-6v-.764a5.978,5.978,0,0,0-2.513-4.86,5.979,5.979,0,0,0,2.513-4.86V48.13a5.979,5.979,0,0,0-2.513-4.86,5.978,5.978,0,0,0,2.513-4.86v-.764a6,6,0,0,0-6-6Zm3.726,26.966v.764a3.732,3.732,0,0,1-3.726,3.727H53a3.732,3.732,0,0,1-3.726-3.727v-.764A3.73,3.73,0,0,1,53,54.889H75.042a3.73,3.73,0,0,1,3.726,3.726Zm0-10.486v.765a3.73,3.73,0,0,1-3.726,3.726H53a3.73,3.73,0,0,1-3.726-3.726V48.13A3.73,3.73,0,0,1,53,44.4H75.042a3.73,3.73,0,0,1,3.726,3.726Zm0-9.721a3.73,3.73,0,0,1-3.726,3.726H53a3.73,3.73,0,0,1-3.726-3.726v-.764A3.732,3.732,0,0,1,53,33.918H75.042a3.732,3.732,0,0,1,3.726,3.727Z" transform="translate(-0.184 -8.853)"/><path class="k" d="M95.588,50.114c3.244-7.8,3.876-15.457,1.559-21.421a5.14,5.14,0,0,0-6.327-7.888c-6.255-4.036-15.317-3.842-24.55,0-10.635-4.434-21.053-4.03-27.2,2.119S32.514,39.5,36.952,50.141A34.325,34.325,0,0,0,34.06,65.369a5.159,5.159,0,1,0,3.224,9.786,15.812,15.812,0,0,0,1.784,2.185c3.446,3.446,8.23,5.091,13.644,5.091a35.674,35.674,0,0,0,13.56-2.965,35.684,35.684,0,0,0,13.56,2.965,20.84,20.84,0,0,0,9.417-2.075,5.152,5.152,0,1,0,7.261-7.24c3.08-6.156,2.623-14.51-.922-23Zm.536-24.749a2.907,2.907,0,1,1-2.906-2.907A2.907,2.907,0,0,1,96.124,25.364ZM89.029,22.35A5.161,5.161,0,0,0,95.282,30.1c1.7,4.837,1.3,10.892-.981,17.192A57.89,57.89,0,0,0,69.089,22.1C76.644,19.36,83.858,19.312,89.029,22.35Zm4.132,27.78A53.438,53.438,0,0,1,82.093,65.957,53.575,53.575,0,0,1,66.283,77.029,53.512,53.512,0,0,1,50.456,65.951,53.561,53.561,0,0,1,39.383,50.145a55.685,55.685,0,0,1,26.876-26.9,53.518,53.518,0,0,1,15.828,11.08A53.5,53.5,0,0,1,93.161,50.13ZM40.672,24.535c3.037-3.036,7.269-4.483,12.092-4.483a31.711,31.711,0,0,1,10.691,2.042A57.821,57.821,0,0,0,38.236,47.322c-3.286-9.066-2.71-17.641,2.436-22.787Zm-8.128,45.8a2.907,2.907,0,1,1,2.906,2.906,2.907,2.907,0,0,1-2.906-2.906Zm8.128,5.4a14,14,0,0,1-1.5-1.821,5.15,5.15,0,0,0-2.908-8.677,30.293,30.293,0,0,1,1.975-12.281,56.161,56.161,0,0,0,10.615,14.6A56.189,56.189,0,0,0,63.463,78.172c-9.067,3.288-17.645,2.71-22.791-2.436ZM69.1,78.161A57.63,57.63,0,0,0,94.3,52.949c2.6,7.174,2.765,14.024.175,19.128a5.113,5.113,0,0,0-1.248-.17,5.18,5.18,0,0,0-5.176,5.175,5.123,5.123,0,0,0,.171,1.248c-5.1,2.59-11.949,2.427-19.119-.168Zm24.119,1.827a2.907,2.907,0,1,1,2.906-2.906A2.907,2.907,0,0,1,93.218,79.988Z" transform="translate(-2.438 -10.712)"/></g></g></svg>