<svg xmlns="http://www.w3.org/2000/svg" width="170.964" height="153.886" viewBox="0 0 170.964 153.886"><defs><style>.a{fill:#e6e7e8;}.b{fill:#453890;}.c{fill:#8b65e4;}.d{fill:#fff;}.e{fill:#54349f;}.f{fill:#0089ef;}.g{fill:#fa759e;}.h{fill:#ffd000;}.i{fill:#f6dd6f;}.j{fill:#d4fbff;}.k{fill:#3a2c60;}</style></defs><g transform="translate(-5.737 -11.557)"><path class="a" d="M164.562,15.557H21.474A11.737,11.737,0,0,0,9.737,27.294v97.215a11.737,11.737,0,0,0,11.737,11.737H75.529l-2.65,17.735H59.247a4.63,4.63,0,0,0-4.632,4.63v.333a4.63,4.63,0,0,0,4.63,4.629h66.079a4.63,4.63,0,0,0,4.63-4.63v-.332a4.63,4.63,0,0,0-4.63-4.63H111.689l-2.65-17.735h55.522a10.27,10.27,0,0,0,10.27-10.27V25.827a10.27,10.27,0,0,0-10.27-10.27Z" transform="translate(1.869 1.869)"/><rect class="b" width="162.161" height="117.755" rx="7" transform="translate(7.204 13.024)"/><path class="c" d="M158.628,12.557H17.007a10.27,10.27,0,0,0-10.27,10.27v87.444H168.9V22.827a10.27,10.27,0,0,0-10.27-10.27Z" transform="translate(0.467 0.467)"/><path class="d" d="M158.628,12.557H17.007a10.27,10.27,0,0,0-10.27,10.27v4.941a10.81,10.81,0,0,1,10.81-10.81H158.1a10.81,10.81,0,0,1,10.81,10.81V22.827a10.27,10.27,0,0,0-10.278-10.27Z" transform="translate(0.467 0.467)"/><rect class="b" width="72.404" height="6.66" rx="2.156" transform="translate(52.084 151.449)"/><path class="e" d="M82.828,92.817h-30.1l-3.088,20.67h36.28Z" transform="translate(20.508 37.963)"/><path class="d" d="M94.211,83.492a3.088,3.088,0,1,0,3.09,3.081,3.088,3.088,0,0,0-3.09-3.081Z" transform="translate(39.891 33.606)"/><path class="f" d="M101.583,83.492a3.081,3.081,0,1,0,2.183.9,3.088,3.088,0,0,0-2.183-.9Z" transform="translate(43.334 33.606)"/><path class="g" d="M108.948,83.492a3.088,3.088,0,1,0,3.09,3.081,3.088,3.088,0,0,0-3.09-3.081Z" transform="translate(46.775 33.606)"/><path class="f" d="M94.03,24.686V44.1h19.418A19.418,19.418,0,0,0,94.03,24.686Z" transform="translate(41.248 6.134)"/><path class="h" d="M96.7,47.635V28.215a19.42,19.42,0,1,0,8.2,37Z" transform="translate(33.402 7.782)"/><path class="i" d="M109.92,41.451H90.5l8.2,17.583a19.4,19.4,0,0,0,11.218-17.583Z" transform="translate(39.599 13.966)"/><path class="b" d="M53.759,30.369l-22.8,10.15V66.15l22.8,10.15Z" transform="translate(11.784 8.788)"/><path class="h" d="M59.965,48.2a7.054,7.054,0,0,1-7.827,7.022V41.189A7.054,7.054,0,0,1,59.965,48.2Z" transform="translate(21.677 13.823)"/><path class="b" d="M39.23,37.287H26.081a12.816,12.816,0,1,0,0,25.632h13.15Z" transform="translate(3.517 12.02)"/><rect class="j" width="8.269" height="57.337" rx="2.817" transform="translate(65.546 33.458)"/><path class="f" d="M23.375,54.757V70.9a3.521,3.521,0,1,0,7.042,0V54.757Z" transform="translate(8.24 20.182)"/><g transform="translate(5.737 11.557)"><path class="k" d="M159.1,11.557H17.474A11.751,11.751,0,0,0,5.737,23.294v97.215a11.751,11.751,0,0,0,11.737,11.737H71.529l-2.65,17.728H55.245a4.636,4.636,0,0,0-4.63,4.632v.332a4.636,4.636,0,0,0,4.63,4.63h66.077a4.636,4.636,0,0,0,4.632-4.63v-.332a4.636,4.636,0,0,0-4.632-4.632H107.689l-2.651-17.728H159.1a11.751,11.751,0,0,0,11.737-11.737V65.263a1.467,1.467,0,0,0-2.934,0v44H8.671V23.29a8.813,8.813,0,0,1,8.8-8.8H159.1a8.813,8.813,0,0,1,8.8,8.8V37.171a1.467,1.467,0,1,0,2.934,0V23.294A11.751,11.751,0,0,0,159.1,11.557ZM123.02,154.606v.332a1.7,1.7,0,0,1-1.7,1.7H55.245a1.7,1.7,0,0,1-1.7-1.7v-.332a1.7,1.7,0,0,1,1.7-1.7h66.077a1.7,1.7,0,0,1,1.7,1.7Zm-18.3-4.632H71.852l2.641-17.728h27.583Zm63.177-37.78V120.5a8.813,8.813,0,0,1-8.8,8.8H17.474a8.813,8.813,0,0,1-8.8-8.8v-8.3Z" transform="translate(-5.737 -11.557)"/><path class="k" d="M117.731,32.229a1.467,1.467,0,0,0-1.467,1.467V49.655a1.467,1.467,0,1,0,2.934,0V33.7A1.467,1.467,0,0,0,117.731,32.229Z" transform="translate(45.898 -1.9)"/><path class="k" d="M115.384,44.571A20.909,20.909,0,0,0,94.5,23.686a1.467,1.467,0,0,0-1.467,1.467V44.571A1.467,1.467,0,0,0,94.5,46.038h19.42A1.467,1.467,0,0,0,115.384,44.571ZM95.964,43.1V26.679a17.985,17.985,0,0,1,16.425,16.432Z" transform="translate(35.044 -5.891)"/><path class="k" d="M97.165,27.215A20.876,20.876,0,1,0,118.046,48.1a1.467,1.467,0,0,0-1.467-1.467H98.632V28.682A1.467,1.467,0,0,0,97.165,27.215ZM79.215,48.1A17.977,17.977,0,0,1,95.7,30.208v17.9a1.265,1.265,0,0,0,.138.621l7.556,16.2a17.691,17.691,0,0,1-6.227,1.13A17.971,17.971,0,0,1,79.215,48.1ZM106.05,63.677l-6.58-14.11h15.584A18.036,18.036,0,0,1,106.05,63.677Z" transform="translate(27.197 -4.242)"/><path class="k" d="M67.067,45.023H61.415a1.467,1.467,0,0,0,0,2.934h5.652a1.467,1.467,0,1,0,0-2.934Z" transform="translate(19.589 4.077)"/><path class="k" d="M62.243,51.4a1.468,1.468,0,0,0-1.654,2.425l5.646,3.851a1.468,1.468,0,1,0,1.654-2.425Z" transform="translate(19.589 6.939)"/><path class="k" d="M61.416,43.062a1.467,1.467,0,0,0,.826-.254l5.646-3.854a1.468,1.468,0,1,0-1.654-2.425L60.589,40.38a1.467,1.467,0,0,0,.827,2.679Z" transform="translate(19.589 -0.01)"/><path class="k" d="M32.087,89.558a4.988,4.988,0,0,0,4.988-4.988V69.9h2.312l21.647,9.638v.618a5.6,5.6,0,1,0,11.2,0V64.015a8.52,8.52,0,0,0,0-16.983V31.084a5.6,5.6,0,1,0-11.206,0V31.7L39.387,41.334H26.548a14.283,14.283,0,0,0,0,28.566H27.1V84.571a4.988,4.988,0,0,0,4.987,4.987Zm2.054-4.988a2.054,2.054,0,1,1-4.108,0V69.9h4.108ZM77.129,55.52a5.6,5.6,0,0,1-4.892,5.553v-11.1a5.6,5.6,0,0,1,4.889,5.546ZM64.744,29.2A2.67,2.67,0,0,1,69.3,31.084V80.157a2.666,2.666,0,1,1-5.332,0V31.084a2.641,2.641,0,0,1,.773-1.884ZM61.027,76.327,41.164,67.482V43.755l19.863-8.844ZM15.2,55.618A11.36,11.36,0,0,1,26.548,44.27H38.231v22.7H26.548A11.36,11.36,0,0,1,15.2,55.618Z" transform="translate(-2.687 -5.052)"/><path class="k" d="M119.271,60.764H76.032a1.467,1.467,0,0,0,0,2.934h43.239a1.467,1.467,0,0,0,0-2.934Z" transform="translate(26.418 11.431)"/><path class="k" d="M119.271,67.764H76.032a1.467,1.467,0,0,0,0,2.934h43.239a1.467,1.467,0,0,0,0-2.934Z" transform="translate(26.418 14.701)"/></g></g></svg>