<svg xmlns="http://www.w3.org/2000/svg" width="115" height="150.5" viewBox="0 0 115 150.5"><defs><style>.a{fill:#e6e7e8;}.b{fill:#8b65e4;}.c{fill:#fff;}.d{fill:#453890;}.e{fill:#54349f;}.f{fill:#d4fbff;}.g{fill:#f6dd6f;}.h{fill:#ffd000;}.i{fill:#3a2c60;}</style></defs><g transform="translate(-21.621 -8.539)"><path class="a" d="M134.722,49.294,98.359,12.931a1.357,1.357,0,0,0-.959-.4H29.691a4.07,4.07,0,0,0-4.07,4.07V153.542a4.07,4.07,0,0,0,4.07,4.07H131.123a4.07,4.07,0,0,0,4.07-4.07V50.323a1.357,1.357,0,0,0-.472-1.03Z" transform="translate(1.427 1.426)"/><path class="b" d="M129.478,45.968,93.049,9.539H25.335a2.714,2.714,0,0,0-2.714,2.714V149.184a2.714,2.714,0,0,0,2.714,2.714H126.767a2.714,2.714,0,0,0,2.714-2.714V45.965Z" transform="translate(0.357 0.357)"/><path class="c" d="M93.049,9.541H25.335a2.714,2.714,0,0,0-2.714,2.714v4.07a2.714,2.714,0,0,1,2.714-2.714H93.049Z" transform="translate(0.357 0.358)"/><path class="c" d="M101.378,36.387h0v0Z" transform="translate(28.458 9.936)"/><path class="d" d="M74.53,9.539V43.254a2.714,2.714,0,0,0,2.714,2.714h33.718Z" transform="translate(18.878 0.357)"/><rect class="e" width="52.526" height="17.337" rx="4.103" transform="translate(50.144 69.165)"/><circle class="f" cx="2.298" cy="2.298" r="2.298" transform="translate(83.497 75.535)"/><path class="f" d="M75.58,57.917a2.3,2.3,0,1,0,2.3,2.3,2.3,2.3,0,0,0-2.3-2.3Z" transform="translate(18.433 17.618)"/><path class="e" d="M4.1,0h44.32a4.1,4.1,0,0,1,4.1,4.1v9.131a4.1,4.1,0,0,1-4.1,4.1H4.1a4.1,4.1,0,0,1-4.1-4.1V4.1A4.1,4.1,0,0,1,4.1,0Z" transform="translate(50.144 51.828)"/><g transform="translate(38.926 58.198)"><circle class="f" cx="2.298" cy="2.298" r="2.298" transform="translate(44.571 0)"/><path class="f" d="M75.581,45.139a2.3,2.3,0,1,0,2.3,2.3A2.3,2.3,0,0,0,75.581,45.139Z" transform="translate(-20.494 -45.139)"/><rect class="g" width="13.568" height="13.568" rx="2" transform="translate(0 57.815)"/><rect class="h" width="13.568" height="13.568" rx="2" transform="translate(30.698 57.815)"/><rect class="h" width="13.568" height="13.568" rx="2" transform="translate(61.494 57.815)"/></g><path class="i" d="M86.694,113.461H75.357a1.357,1.357,0,1,0,0,2.714H86.694a1.357,1.357,0,1,0,0-2.714Z" transform="translate(18.689 37.437)"/><path class="i" d="M130.738,45.31,94.365,8.937a1.357,1.357,0,0,0-.959-.4H25.691a4.07,4.07,0,0,0-4.07,4.07V149.541a4.07,4.07,0,0,0,4.07,4.07H88.279a1.357,1.357,0,1,0,0-2.714H25.691a1.357,1.357,0,0,1-1.357-1.357V12.609a1.357,1.357,0,0,1,1.357-1.357H92.049V43.611a4.07,4.07,0,0,0,4.07,4.07H128.48V149.541a1.357,1.357,0,0,1-1.357,1.357H111.277a1.357,1.357,0,1,0,0,2.714h15.846a4.07,4.07,0,0,0,4.07-4.07V46.322a1.357,1.357,0,0,0-.456-1.012Zm-35.976-1.7V13.171l31.8,31.8H96.119A1.357,1.357,0,0,1,94.762,43.611Z"/><path class="i" d="M101.554,93.452v10.176H98.943a4.07,4.07,0,0,0-4.07,4.07v8.141a4.07,4.07,0,0,0,4.07,4.07h8.141a4.07,4.07,0,0,0,4.07-4.07V107.7a4.07,4.07,0,0,0-4.07-4.07h-2.815V92.1a1.357,1.357,0,0,0-1.357-1.357H73.57V76.831H92.91a6.931,6.931,0,0,0,6.92-6.92V63.7a6.889,6.889,0,0,0-2.849-5.563,6.9,6.9,0,0,0,2.849-5.563V46.367a6.931,6.931,0,0,0-6.92-6.92H51.517a6.931,6.931,0,0,0-6.92,6.92v6.2a6.9,6.9,0,0,0,2.849,5.563A6.888,6.888,0,0,0,44.6,63.7v6.214a6.931,6.931,0,0,0,6.92,6.92h19.34V90.738H41.516A1.357,1.357,0,0,0,40.159,92.1v11.533H37.445a4.07,4.07,0,0,0-4.07,4.07v8.141a4.07,4.07,0,0,0,4.07,4.07h8.141a4.07,4.07,0,0,0,4.07-4.07V107.7a4.07,4.07,0,0,0-4.07-4.07H42.873V93.452H70.857v10.176H68.143a4.07,4.07,0,0,0-4.07,4.07v8.141a4.07,4.07,0,0,0,4.07,4.07h8.141a4.07,4.07,0,0,0,4.07-4.07V107.7a4.07,4.07,0,0,0-4.07-4.07H73.57V93.452ZM108.44,107.7v8.141a1.357,1.357,0,0,1-1.357,1.357H98.943a1.357,1.357,0,0,1-1.357-1.357V107.7a1.357,1.357,0,0,1,1.357-1.357h8.141A1.357,1.357,0,0,1,108.44,107.7ZM47.311,46.371a4.214,4.214,0,0,1,4.206-4.206H92.91a4.214,4.214,0,0,1,4.206,4.206v6.2a4.206,4.206,0,0,1-4.206,4.206H51.517a4.206,4.206,0,0,1-4.206-4.206Zm0,23.541V63.7A4.214,4.214,0,0,1,51.517,59.5H92.91A4.214,4.214,0,0,1,97.116,63.7v6.207a4.214,4.214,0,0,1-4.206,4.206H51.517a4.214,4.214,0,0,1-4.209-4.206ZM46.943,107.7v8.141a1.357,1.357,0,0,1-1.357,1.357H37.445a1.357,1.357,0,0,1-1.357-1.357V107.7a1.357,1.357,0,0,1,1.357-1.357h8.141A1.357,1.357,0,0,1,46.943,107.7Zm30.7,0v8.141a1.357,1.357,0,0,1-1.357,1.357H68.143a1.357,1.357,0,0,1-1.357-1.357V107.7a1.357,1.357,0,0,1,1.357-1.357h8.141A1.357,1.357,0,0,1,77.641,107.7Z" transform="translate(4.194 11.028)"/></g></svg>