<svg width="26" height="26" viewBox="0 0 26 26" fill="none" xmlns="http://www.w3.org/2000/svg">
<path d="M13 26C20.1797 26 26 20.1797 26 13C26 5.8203 20.1797 0 13 0C5.8203 0 0 5.8203 0 13C0 20.1797 5.8203 26 13 26Z" fill="#99AAB5"/>
<path d="M12.9998 23.1111C18.584 23.1111 23.1109 18.5842 23.1109 13C23.1109 7.41581 18.584 2.88892 12.9998 2.88892C7.41557 2.88892 2.88867 7.41581 2.88867 13C2.88867 18.5842 7.41557 23.1111 12.9998 23.1111Z" fill="#E1E8ED"/>
<path d="M12.2778 13C12.2778 13.3994 12.6014 13.7223 13.0001 13.7223C13.3994 13.7223 13.7223 13.3994 13.7223 13V5.0556C13.7223 4.65693 13.3994 4.33337 13.0001 4.33337C12.6014 4.33337 12.2778 4.65693 12.2778 5.0556V13Z" fill="#66757F"/>
<path d="M5.77783 13.0001C5.77783 13.3987 6.10067 13.7223 6.50005 13.7223H13.0001C13.3994 13.7223 13.7223 13.3987 13.7223 13.0001C13.7223 12.6014 13.3994 12.2778 13.0001 12.2778H6.50005C6.10067 12.2778 5.77783 12.6014 5.77783 13.0001Z" fill="#66757F"/>
</svg>
