<svg xmlns="http://www.w3.org/2000/svg" xmlns:xlink="http://www.w3.org/1999/xlink" width="133" height="131" viewBox="0 0 133 131">
  <defs>
    <linearGradient id="linear-gradient" x1="0.94" y1="1" x2="-0.182" y2="-0.337" gradientUnits="objectBoundingBox">
      <stop offset="0" stop-color="#502eff"/>
      <stop offset="1" stop-color="#d1c7ff"/>
    </linearGradient>
  </defs>
  <g id="calender" transform="translate(-3031 10)">
    <g id="dashboard" transform="translate(660 140)">
      <g id="Group_1494" data-name="Group 1494" transform="translate(2422 -18914)" opacity="0.87">
        <rect id="Rectangle_2201" data-name="Rectangle 2201" width="133" height="131" rx="15" transform="translate(-51 18764)" fill="url(#linear-gradient)"/>
      </g>
    </g>
    <g id="Group_1531" data-name="Group 1531" transform="translate(3065 24)">
      <g id="Group_1514" data-name="Group 1514" transform="translate(0)">
        <path id="Path_7314" data-name="Path 7314" d="M61.344,3.235H59.192V1.076a1.076,1.076,0,0,0-2.152,0V3.235H50.582V1.076a1.076,1.076,0,0,0-2.152,0V3.235H41.972V1.076a1.076,1.076,0,1,0-2.152,0V3.235H33.368V1.076a1.076,1.076,0,1,0-2.152,0V3.235H24.753V1.076a1.076,1.076,0,1,0-2.152,0V3.235H16.142V1.076a1.076,1.076,0,1,0-2.152,0V3.235H7.533V1.076a1.076,1.076,0,0,0-2.152,0V3.235H3.235A3.235,3.235,0,0,0,0,6.457V61.344a3.235,3.235,0,0,0,3.235,3.235H61.344a3.235,3.235,0,0,0,3.235-3.235V6.457A3.235,3.235,0,0,0,61.344,3.235ZM62.419,61.35a1.076,1.076,0,0,1-1.076,1.076H3.235A1.076,1.076,0,0,1,2.159,61.35V15.066H53.81a1.076,1.076,0,1,0,0-2.152H2.152V6.457A1.076,1.076,0,0,1,3.235,5.381H61.344a1.076,1.076,0,0,1,1.076,1.076Z" transform="translate(0)" fill="#fff"/>
        <path id="Path_7315" data-name="Path 7315" d="M5.311,7.312a1.081,1.081,0,1,0,1.532,0A1.127,1.127,0,0,0,5.311,7.312Z" transform="translate(0.382 0.535)" fill="#fff"/>
        <path id="Path_7316" data-name="Path 7316" d="M13.311,7.312a1.076,1.076,0,1,0,1.532,0,1.132,1.132,0,0,0-1.532,0Z" transform="translate(0.991 0.534)" fill="#fff"/>
        <path id="Path_7317" data-name="Path 7317" d="M21.311,7.312a1.076,1.076,0,1,0,1.532,0,1.132,1.132,0,0,0-1.532,0Z" transform="translate(1.6 0.534)" fill="#fff"/>
        <path id="Path_7318" data-name="Path 7318" d="M29.311,7.312a1.076,1.076,0,1,0,1.532,0,1.132,1.132,0,0,0-1.532,0Z" transform="translate(2.211 0.534)" fill="#fff"/>
        <path id="Path_7319" data-name="Path 7319" d="M37.311,7.312a1.076,1.076,0,1,0,1.532,0,1.132,1.132,0,0,0-1.532,0Z" transform="translate(2.82 0.534)" fill="#fff"/>
        <path id="Path_7320" data-name="Path 7320" d="M45.311,7.312a1.076,1.076,0,1,0,1.532,0,1.132,1.132,0,0,0-1.532,0Z" transform="translate(3.43 0.534)" fill="#fff"/>
        <path id="Path_7321" data-name="Path 7321" d="M53.311,7.312a1.076,1.076,0,1,0,1.532,0,1.132,1.132,0,0,0-1.532,0Z" transform="translate(4.04 0.534)" fill="#fff"/>
        <path id="Path_7322" data-name="Path 7322" d="M55.507,19H8.152A2.152,2.152,0,0,0,6,21.152V53.438A2.152,2.152,0,0,0,8.152,55.59H55.507a2.152,2.152,0,0,0,2.152-2.152V21.152A2.152,2.152,0,0,0,55.507,19ZM42.592,36.22H32.9V29.763h9.685Zm2.152-6.457H55.507V36.22H44.744ZM32.9,27.609V21.152h9.685v6.457Zm-2.152,0h-9.68V21.152h9.687Zm0,2.152v6.457h-9.68V29.763ZM18.908,36.218H8.152V29.763H18.915ZM8.152,38.372H18.915v6.457H8.152Zm12.915,0h9.687v6.457H21.066Zm9.685,8.609v6.457H21.066V46.981Zm2.152,0h9.685v6.457H32.9Zm0-2.152V38.372h9.685v6.457Zm11.839-6.457H55.507v6.457H44.744ZM55.5,27.609H44.744V21.152H55.507Zm-36.59-6.457v6.457H8.152V21.152ZM8.152,46.981H18.915v6.457H8.152Zm36.592,6.457V46.981H55.507v6.457Z" transform="translate(0.457 1.448)" fill="#fff"/>
      </g>
    </g>
  </g>
</svg>
