<svg xmlns="http://www.w3.org/2000/svg" xmlns:xlink="http://www.w3.org/1999/xlink" width="133" height="131" viewBox="0 0 133 131">
  <defs>
    <linearGradient id="linear-gradient" x1="0.94" y1="1" x2="-0.182" y2="-0.337" gradientUnits="objectBoundingBox">
      <stop offset="0" stop-color="#502eff"/>
      <stop offset="1" stop-color="#d1c7ff"/>
    </linearGradient>
  </defs>
  <g id="integration_logo" data-name="integration logo" transform="translate(-91 2314)">
    <g id="Group_2340" data-name="Group 2340" transform="translate(-133 -301)">
      <g id="Group_1494" data-name="Group 1494" transform="translate(275 -20777)" opacity="0.87">
        <rect id="Rectangle_2201" data-name="Rectangle 2201" width="133" height="131" rx="15" transform="translate(-51 18764)" fill="url(#linear-gradient)"/>
      </g>
      <g id="noun_integration_427496" transform="translate(254.257 -1984.1)">
        <path id="Path_1161" data-name="Path 1161" d="M36.455,57.343l-3.028-1.875a15.2,15.2,0,0,0-.072-4.038l2.956-1.875a1.27,1.27,0,0,0,.5-1.658l-.649-1.586-.649-1.586A1.317,1.317,0,0,0,34,43.931l-3.461.793a15.2,15.2,0,0,0-2.884-2.812l.721-3.389a1.317,1.317,0,0,0-.793-1.514L26,36.36l-1.586-.649a1.337,1.337,0,0,0-1.586.5l-1.875,3.028a14.666,14.666,0,0,0-3.966.072L15.112,36.36a1.345,1.345,0,0,0-1.658-.433l-1.586.649-1.586.649a1.317,1.317,0,0,0-.793,1.514l.793,3.389a15.2,15.2,0,0,0-2.812,2.884L4.08,44.292a1.317,1.317,0,0,0-1.514.793l-.649,1.586-.649,1.586a1.337,1.337,0,0,0,.5,1.586l2.956,1.875a15.14,15.14,0,0,0,0,4.038L1.772,57.631A1.345,1.345,0,0,0,1.34,59.29l.649,1.586.649,1.586a1.355,1.355,0,0,0,1.514.721l3.389-.793A15.2,15.2,0,0,0,10.425,65.2L9.7,68.591a1.317,1.317,0,0,0,.793,1.514l1.586.649,1.586.649a1.337,1.337,0,0,0,1.586-.5l1.875-2.956a11.256,11.256,0,0,0,4.11-.072l1.875,2.956a1.27,1.27,0,0,0,1.658.5l1.586-.649,1.586-.649a1.317,1.317,0,0,0,.793-1.514l-.793-3.461a15.2,15.2,0,0,0,2.812-2.884l3.389.793a1.317,1.317,0,0,0,1.514-.793l.649-1.586L36.96,59A1.406,1.406,0,0,0,36.455,57.343Zm-14.349,3.75a8.029,8.029,0,1,1,4.254-10.527A8.057,8.057,0,0,1,22.106,61.092ZM45.324,40.037l.721,4.11a1.559,1.559,0,0,0,1.586,1.3h4.182a1.626,1.626,0,0,0,1.586-1.3l.721-4.182a16.184,16.184,0,0,0,4.326-1.8l3.389,2.452a1.621,1.621,0,0,0,2.019-.144L65.3,39.028l1.442-1.442a1.539,1.539,0,0,0,.144-2.019L64.36,32.033a20.249,20.249,0,0,0,1.875-4.471l4.11-.721a1.559,1.559,0,0,0,1.3-1.586V21.073a1.626,1.626,0,0,0-1.3-1.586l-4.11-.721A15.125,15.125,0,0,0,64.36,14.3l2.452-3.389a1.621,1.621,0,0,0-.144-2.019L65.226,7.445,63.784,6a1.635,1.635,0,0,0-2.019-.144L58.376,8.311a20.249,20.249,0,0,0-4.471-1.875l-.721-4.11A1.8,1.8,0,0,0,51.526,1.1H47.343a1.627,1.627,0,0,0-1.586,1.3l-.721,4.11a13.977,13.977,0,0,0-4.543,1.947L37.249,6.075a1.621,1.621,0,0,0-2.019.144L33.788,7.662,32.345,9.1a1.539,1.539,0,0,0-.144,2.019l2.452,3.461a15.732,15.732,0,0,0-1.8,4.471l-4.182.721a1.559,1.559,0,0,0-1.3,1.586v4.182a1.627,1.627,0,0,0,1.3,1.586l4.182.721a16.85,16.85,0,0,0,1.875,4.4l-2.379,3.389a1.621,1.621,0,0,0,.144,2.019L33.932,39.1l1.442,1.442a1.544,1.544,0,0,0,2.019.144l3.461-2.452A21.5,21.5,0,0,0,45.324,40.037Zm4.182-27.761A11.032,11.032,0,0,1,60.539,23.309,10.781,10.781,0,0,1,56.717,31.6,7.134,7.134,0,0,0,52.1,25.183,4.911,4.911,0,1,0,44.6,21a5,5,0,0,0,2.307,4.182A7.329,7.329,0,0,0,42.3,31.6a10.993,10.993,0,0,1,7.211-19.324Z" transform="translate(0)" fill="none" stroke="#fff" stroke-width="2"/>
      </g>
    </g>
  </g>
</svg>
