<svg xmlns="http://www.w3.org/2000/svg" xmlns:xlink="http://www.w3.org/1999/xlink" width="133" height="131" viewBox="0 0 133 131">
  <defs>
    <linearGradient id="linear-gradient" x1="0.94" y1="1" x2="-0.182" y2="-0.337" gradientUnits="objectBoundingBox">
      <stop offset="0" stop-color="#502eff"/>
      <stop offset="1" stop-color="#d1c7ff"/>
    </linearGradient>
  </defs>
  <g id="proposal" transform="translate(-3728 9)">
    <g id="proposal-2" data-name="proposal" transform="translate(1357 141)">
      <g id="Group_1494" data-name="Group 1494" transform="translate(2422 -18914)" opacity="0.87">
        <rect id="Rectangle_2201" data-name="Rectangle 2201" width="133" height="131" rx="15" transform="translate(-51 18764)" fill="url(#linear-gradient)"/>
      </g>
    </g>
    <g id="noun_Business_Proposal_1688326" data-name="noun_Business Proposal_1688326" transform="translate(3759 19.837)">
      <path id="Path_7354" data-name="Path 7354" d="M44.733,22.021h-10.3A3.372,3.372,0,0,1,31,18.588V6h2.289V18.588a1.081,1.081,0,0,0,1.144,1.144h10.3Z" transform="translate(3.754 0.578)" fill="#fff"/>
      <path id="Path_7355" data-name="Path 7355" d="M47.866,40.155H45.578a2.289,2.289,0,1,1,0-4.578h2.289a2.3,2.3,0,0,1,2.289,2.289h2.289a4.591,4.591,0,0,0-4.578-4.578V31H45.578v2.289a4.578,4.578,0,1,0,0,9.155h2.289a2.289,2.289,0,0,1,0,4.578H45.578a2.3,2.3,0,0,1-2.289-2.289H41a4.591,4.591,0,0,0,4.578,4.578V51.6h2.289V49.31a4.578,4.578,0,0,0,0-9.155Z" transform="translate(5.198 4.187)" fill="#fff"/>
      <path id="Path_7356" data-name="Path 7356" d="M62.754,41.877A14.877,14.877,0,1,0,39.866,54.351V66.824l8.011-5.379,8.011,5.379V54.351A14.764,14.764,0,0,0,62.754,41.877ZM53.6,62.59l-5.722-3.776L42.155,62.59V55.609a14.877,14.877,0,0,0,11.444,0Zm-5.722-8.125A12.588,12.588,0,1,1,60.465,41.877,12.552,12.552,0,0,1,47.877,54.465Z" transform="translate(4.043 3.609)" fill="#fff"/>
      <path id="Path_7357" data-name="Path 7357" d="M7.289,67.23V5.433A1.081,1.081,0,0,1,8.433,4.289H36.127a1.039,1.039,0,0,1,.8.343l13.5,16.136a1.039,1.039,0,0,1,.343.8v6.752c.343,0,.8-.114,1.144-.114a3.893,3.893,0,0,1,1.144.114V21.569a3.117,3.117,0,0,0-1.03-2.4L38.53,3.03A3.294,3.294,0,0,0,36.127,2H8.433A3.372,3.372,0,0,0,5,5.433v61.8a3.372,3.372,0,0,0,3.433,3.433H41.62V68.374H8.433A1.081,1.081,0,0,1,7.289,67.23Z" transform="translate(0 0)" fill="#fff"/>
      <rect id="Rectangle_2211" data-name="Rectangle 2211" width="16.22" height="2.163" transform="translate(9.325 6.866)" fill="#fff"/>
      <rect id="Rectangle_2212" data-name="Rectangle 2212" width="22.707" height="2.163" transform="translate(9.325 11.191)" fill="#fff"/>
      <rect id="Rectangle_2213" data-name="Rectangle 2213" width="22.707" height="2.163" transform="translate(9.325 15.516)" fill="#fff"/>
      <rect id="Rectangle_2214" data-name="Rectangle 2214" width="32.439" height="3.244" transform="translate(9.325 58.768)" fill="#fff"/>
      <rect id="Rectangle_2215" data-name="Rectangle 2215" width="32.439" height="2.163" transform="translate(9.325 64.175)" fill="#fff"/>
      <rect id="Rectangle_2216" data-name="Rectangle 2216" width="22.707" height="3.244" transform="translate(9.325 19.841)" fill="#fff"/>
      <path id="Path_7358" data-name="Path 7358" d="M36.465,51.182v.572H29.6v-20.6h6.866v2.861a16.506,16.506,0,0,1,4.578-5.15H38.754V24.289H45.62v2.174c.687-.229,1.488-.458,2.289-.687V22H9V54.043H38.525A16.446,16.446,0,0,1,36.465,51.182ZM29.6,24.289h6.866v4.578H29.6ZM18.155,51.754H11.289v-20.6h6.866Zm0-22.888H11.289V24.289h6.866ZM27.31,51.754H20.444v-20.6H27.31Zm0-22.888H20.444V24.289H27.31Z" transform="translate(0.578 2.888)" fill="#fff"/>
    </g>
  </g>
</svg>
