<svg xmlns="http://www.w3.org/2000/svg" xmlns:xlink="http://www.w3.org/1999/xlink" width="133" height="131" viewBox="0 0 133 131">
  <defs>
    <linearGradient id="linear-gradient" x1="0.94" y1="1" x2="-0.182" y2="-0.337" gradientUnits="objectBoundingBox">
      <stop offset="0" stop-color="#502eff"/>
      <stop offset="1" stop-color="#d1c7ff"/>
    </linearGradient>
  </defs>
  <g id="quotation" transform="translate(-3911 9)">
    <g id="quotation-2" data-name="quotation" transform="translate(1540 141)">
      <g id="Group_1494" data-name="Group 1494" transform="translate(2422 -18914)" opacity="0.87">
        <rect id="Rectangle_2201" data-name="Rectangle 2201" width="133" height="131" rx="15" transform="translate(-51 18764)" fill="url(#linear-gradient)"/>
      </g>
    </g>
    <g id="noun_project_idea_1978772" data-name="noun_project idea_1978772" transform="translate(3878.7 306)">
      <g id="Group_1537" data-name="Group 1537" transform="translate(66 -283)">
        <path id="Path_7359" data-name="Path 7359" d="M56.9,11.9H49.1V10.5a1.08,1.08,0,0,0-.3-.7L40.4,1.4a1.033,1.033,0,0,0-.8-.4H19.9A2.9,2.9,0,0,0,17,3.9v7.9H9.1a3.8,3.8,0,0,0-3.8,3.8V53.2A3.8,3.8,0,0,0,9.1,57H25.4l-1.8,6h-.7a1,1,0,0,0,0,2H43.1a1,1,0,1,0,0-2h-.7l-1.8-5.8H56.9a3.8,3.8,0,0,0,3.8-3.8V15.7A3.8,3.8,0,0,0,56.9,11.9ZM40.6,4.4l5,5H41.5a.9.9,0,0,1-.9-.9ZM18.9,3.9a.9.9,0,0,1,.9-.9H38.6V8.5a2.9,2.9,0,0,0,2.9,2.9H47V39.2a.9.9,0,0,1-.9.9H19.9a.9.9,0,0,1-.9-.9V3.9ZM25.7,63l1.8-5.8h11L40.3,63Zm33-9.7a1.793,1.793,0,0,1-1.8,1.8H9.1a1.793,1.793,0,0,1-1.8-1.8V51.4H58.7v1.9Zm0-3.8H7.3V15.7a1.793,1.793,0,0,1,1.8-1.8h7.8V39.2a2.9,2.9,0,0,0,2.9,2.9H46a2.9,2.9,0,0,0,2.9-2.9V13.9h7.8a1.793,1.793,0,0,1,1.8,1.8V49.5Z" fill="#fff"/>
        <path id="Path_7360" data-name="Path 7360" d="M32.1,16.2a8.278,8.278,0,0,0-5.6,13.3,12.286,12.286,0,0,1,2.2,6.9,1.075,1.075,0,0,0,1,1h6.5a1,1,0,0,0,1-1,13.564,13.564,0,0,1,2.3-7h0A8.236,8.236,0,0,0,32.1,16.2ZM38,28.3a15.263,15.263,0,0,0-2.7,7.2H34v-7l2.1-2.1L34.7,25,33,26.6l-1.7-1.7-1.4,1.4L32,28.4v7H30.7a13.945,13.945,0,0,0-2.6-7.1,6.25,6.25,0,0,1,4.2-10.1A6.34,6.34,0,0,1,38,28.3Z" fill="#fff"/>
        <path id="Path_7361" data-name="Path 7361" d="M22.8,7.8h12a.945.945,0,0,0,1-1,.945.945,0,0,0-1-1h-12a.945.945,0,0,0-1,1A.945.945,0,0,0,22.8,7.8Z" fill="#fff"/>
        <path id="Path_7362" data-name="Path 7362" d="M22.8,12.1h12a.945.945,0,0,0,1-1,.945.945,0,0,0-1-1h-12a.945.945,0,0,0-1,1A.945.945,0,0,0,22.8,12.1Z" fill="#fff"/>
      </g>
    </g>
  </g>
</svg>
