<svg xmlns="http://www.w3.org/2000/svg" xmlns:xlink="http://www.w3.org/1999/xlink" width="133" height="131" viewBox="0 0 133 131">
  <defs>
    <linearGradient id="linear-gradient" x1="0.94" y1="1" x2="-0.182" y2="-0.337" gradientUnits="objectBoundingBox">
      <stop offset="0" stop-color="#502eff"/>
      <stop offset="1" stop-color="#d1c7ff"/>
    </linearGradient>
  </defs>
  <g id="REPORTS" transform="translate(-4073 9)">
    <g id="calender" transform="translate(1042 1)">
      <g id="dashboard" transform="translate(660 140)">
        <g id="Group_1494" data-name="Group 1494" transform="translate(2422 -18914)" opacity="0.87">
          <rect id="Rectangle_2201" data-name="Rectangle 2201" width="133" height="131" rx="15" transform="translate(-51 18764)" fill="url(#linear-gradient)"/>
        </g>
      </g>
    </g>
    <g id="Group_1539" data-name="Group 1539" transform="translate(4232.29 54.879)">
      <g id="Group_1517" data-name="Group 1517" transform="translate(-116.29 -31.879)">
        <path id="Path_7330" data-name="Path 7330" d="M20.734,12.465a3,3,0,0,0-2.757,4.218l-8.057,8.4a2.937,2.937,0,0,0-1.406-.394A3.013,3.013,0,1,0,11.528,27.7a2.921,2.921,0,0,0-.179-.89l8.212-8.565a2.977,2.977,0,0,0,1.17.243,3.011,3.011,0,0,0,1.135-.229l4.553,4.581a2.984,2.984,0,0,0-.2,1.064,3.015,3.015,0,1,0,5.758-1.223l5.386-5.543a2.932,2.932,0,0,0,1.433.413,3.013,3.013,0,1,0-3.015-3.014,2.96,2.96,0,0,0,.17.843l-5.567,5.74a3,3,0,0,0-1.146-.232,2.961,2.961,0,0,0-1.3.311l-4.473-4.5a2.961,2.961,0,0,0,.274-1.226,3.011,3.011,0,0,0-3.013-3.013ZM8.514,28.475a.775.775,0,1,1,.776-.776.775.775,0,0,1-.776.776ZM20.185,16.03a.762.762,0,0,1-.229-.55.775.775,0,1,1,1.547,0,.8.8,0,0,1-1.318.55ZM38.8,13.77a.771.771,0,1,1-.549.225.775.775,0,0,1,.549-.225ZM30.017,23.908c0,.858-1.557.858-1.557,0a.778.778,0,1,1,1.557,0Z" transform="translate(-0.499 20.345)" fill="#fff"/>
        <path id="Path_7331" data-name="Path 7331" d="M5.9,66.493H47.842A2.191,2.191,0,0,0,50.03,64.3v-53a2.192,2.192,0,0,0-2.191-2.191H40.866a4.161,4.161,0,0,0-4.168-3H35.469A9.352,9.352,0,0,0,26.951.121a9.178,9.178,0,0,0-8.672,5.948l-1.2.048a4.147,4.147,0,0,0-4.218,3.04H5.9A2.191,2.191,0,0,0,3.71,11.341V64.309A2.191,2.191,0,0,0,5.9,66.493ZM17.129,8.348l2.014-.079a1.116,1.116,0,0,0,1.031-.813,6.958,6.958,0,0,1,6.749-5.1A7.056,7.056,0,0,1,33.576,7.51c.131.506.6.984,1.115.832h.676l1.313.008A1.949,1.949,0,0,1,38.816,10.3a1.012,1.012,0,0,0,.059.224v2.994H14.924V10.335a1.969,1.969,0,0,1,2.2-1.987Zm-4.443,3.043v3.247A1.125,1.125,0,0,0,13.8,15.756H39.986A1.125,1.125,0,0,0,41.1,14.638v-3.3l6.688-.039V64.258l-41.845.048L5.9,11.391Z" transform="translate(-3.71 -0.121)" fill="#fff"/>
        <path id="Path_7332" data-name="Path 7332" d="M6.423,9.873H22.131a1.118,1.118,0,0,0,0-2.234H6.423a1.118,1.118,0,0,0,0,2.234Z" transform="translate(-0.816 13.364)" fill="#fff"/>
        <path id="Path_7333" data-name="Path 7333" d="M6.446,11.788H19.481a1.118,1.118,0,1,0,0-2.234H6.446a1.118,1.118,0,1,0,0,2.234Z" transform="translate(-0.839 16.797)" fill="#fff"/>
        <path id="Path_7334" data-name="Path 7334" d="M30.074,21.666h-17.1a1.118,1.118,0,0,0,0,2.234h17.1a1.118,1.118,0,1,0,0-2.234Z" transform="translate(10.932 38.524)" fill="#fff"/>
        <path id="Path_7335" data-name="Path 7335" d="M18.594,20.29a1.118,1.118,0,0,0,0,2.234h1.4a1.118,1.118,0,0,0,0-2.234Z" transform="translate(21.014 36.056)" fill="#fff"/>
        <path id="Path_7336" data-name="Path 7336" d="M17.36,22.525a1.118,1.118,0,1,0,0-2.234H15.771a1.118,1.118,0,1,0,0,2.234Z" transform="translate(15.887 36.056)" fill="#fff"/>
        <path id="Path_7337" data-name="Path 7337" d="M12.973,22.524h1.4a1.118,1.118,0,0,0,0-2.234h-1.4a1.118,1.118,0,0,0,0,2.234Z" transform="translate(10.932 36.056)" fill="#fff"/>
      </g>
    </g>
  </g>
</svg>
