<svg xmlns="http://www.w3.org/2000/svg" xmlns:xlink="http://www.w3.org/1999/xlink" width="95.436" height="94" viewBox="0 0 95.436 94">
  <defs>
    <linearGradient id="linear-gradient" x1="0.94" y1="1" x2="-0.182" y2="-0.337" gradientUnits="objectBoundingBox">
      <stop offset="0" stop-color="#502eff"/>
      <stop offset="1" stop-color="#d1c7ff"/>
    </linearGradient>
  </defs>
  <g id="Group_9290" data-name="Group 9290" transform="translate(-10343.282 -104)">
    <g id="Group_1494" data-name="Group 1494" transform="translate(10379.878 -13360.244)" opacity="0.87">
      <rect id="Rectangle_2201" data-name="Rectangle 2201" width="95.435" height="94" rx="10.763" transform="translate(-36.595 13464.244)" fill="url(#linear-gradient)"/>
    </g>
    <g id="noun_vault_304439_1_" data-name="noun_vault_304439 (1)" transform="translate(10364.831 123.443)">
      <g id="Group_9286" data-name="Group 9286" transform="translate(0 0)">
        <path id="Path_46207" data-name="Path 46207" d="M54.727,38.3a5.327,5.327,0,1,0,5.327,5.327A5.327,5.327,0,0,0,54.727,38.3Zm0,9.911a4.584,4.584,0,1,1,4.584-4.584A4.574,4.574,0,0,1,54.727,48.211Z" transform="translate(-23.692 -17.672)" fill="#fff" stroke="#fff" stroke-width="0.4"/>
        <path id="Path_46208" data-name="Path 46208" d="M51.15,29A11.15,11.15,0,1,0,62.3,40.15,11.183,11.183,0,0,0,51.15,29Zm0,21.5A10.376,10.376,0,1,1,61.5,40.088,10.364,10.364,0,0,1,51.15,50.5Z" transform="translate(-20.115 -14.133)" fill="#fff" stroke="#fff" stroke-width="0.4"/>
        <path id="Path_46209" data-name="Path 46209" d="M26.1,30.3a4.415,4.415,0,0,0-4.4,4.4,4.61,4.61,0,0,0,2.292,3.9v9.292A2.25,2.25,0,0,0,26.1,50.309,2.289,2.289,0,0,0,28.2,47.893V38.6A4.407,4.407,0,0,0,30.5,34.7,4.337,4.337,0,0,0,26.1,30.3Zm0,19.265a1.5,1.5,0,0,1-1.3-1.673V35.442a1.3,1.3,0,0,1,2.6,0v2.911h0v9.54A1.5,1.5,0,0,1,26.1,49.565ZM28.2,37.672V35.5A2.076,2.076,0,0,0,26.16,33.4,2.128,2.128,0,0,0,24.054,35.5v2.168A3.755,3.755,0,0,1,22.505,34.7a3.593,3.593,0,0,1,7.186,0A3.456,3.456,0,0,1,28.2,37.672Z" transform="translate(-13.151 -14.627)" fill="#fff" stroke="#fff" stroke-width="0.4"/>
        <path id="Path_46210" data-name="Path 46210" d="M57.953,5H10.006A2.089,2.089,0,0,0,7.9,7.106V59.389a1.375,1.375,0,0,0,1.363,1.363h5.451a1.375,1.375,0,0,0,1.363-1.363v-2.23H51.944v2.23a1.375,1.375,0,0,0,1.363,1.363h5.451a1.375,1.375,0,0,0,1.363-1.363V7.106A2.183,2.183,0,0,0,57.953,5Zm1.363,54.389a.555.555,0,0,1-.558.558H53.307a.555.555,0,0,1-.558-.558v-2.6a.357.357,0,0,0-.372-.372H15.643a.357.357,0,0,0-.372.372v2.6a.555.555,0,0,1-.558.558H9.2a.555.555,0,0,1-.558-.558V7.106a1.308,1.308,0,0,1,1.3-1.3H57.953a1.308,1.308,0,0,1,1.3,1.3V59.389Z" transform="translate(-7.9 -5)" fill="#fff" stroke="#fff" stroke-width="0.4"/>
        <path id="Path_46211" data-name="Path 46211" d="M59.364,17.4h-.929V14.364A2.644,2.644,0,0,0,55.771,11.7H17.364A2.644,2.644,0,0,0,14.7,14.364V52.089a2.644,2.644,0,0,0,2.664,2.664H55.771a2.644,2.644,0,0,0,2.664-2.664v-2.6h.929a.847.847,0,0,0,.867-.867V41.806a.847.847,0,0,0-.867-.867h-.929V25.948h.929a.847.847,0,0,0,.867-.867V18.266A.813.813,0,0,0,59.364,17.4ZM55.771,53.948H17.364a1.864,1.864,0,0,1-1.858-1.858V14.364a1.864,1.864,0,0,1,1.858-1.858H55.771a1.864,1.864,0,0,1,1.858,1.858V17.4H56.7a.847.847,0,0,0-.867.867V25.08a.847.847,0,0,0,.867.867h.929V40.877H56.7a.847.847,0,0,0-.867.867v6.814a.847.847,0,0,0,.867.867h.929v2.6A1.878,1.878,0,0,1,55.771,53.948Zm3.593-12.265a.133.133,0,0,1,.124.124V48.62a.133.133,0,0,1-.124.124H56.638a.133.133,0,0,1-.124-.124V41.806a.133.133,0,0,1,.124-.124h2.726Zm.124-16.6a.133.133,0,0,1-.124.124H56.7a.133.133,0,0,1-.124-.124V18.266a.133.133,0,0,1,.124-.124h2.664a.133.133,0,0,1,.124.124Z" transform="translate(-10.488 -7.55)" fill="#fff" stroke="#fff" stroke-width="0.4"/>
        <path id="Path_46212" data-name="Path 46212" d="M52.178,31.5a9.478,9.478,0,1,0,9.478,9.478A9.518,9.518,0,0,0,52.178,31.5Zm4.77,16.726-.805-1.3a.4.4,0,0,0-.681.434l.805,1.3a7.569,7.569,0,0,1-3.717.991V48.04a.357.357,0,0,0-.372-.372.4.4,0,0,0-.372.372V49.65a9.169,9.169,0,0,1-3.655-.991l.805-1.363a.4.4,0,0,0-.681-.434l-.805,1.363a8.891,8.891,0,0,1-2.6-2.664l1.3-.805a.4.4,0,0,0-.434-.681l-1.3.805a8.259,8.259,0,0,1-.929-3.469h1.487a.372.372,0,1,0,0-.743H43.505a9.108,9.108,0,0,1,.929-3.655l1.3.805a.228.228,0,0,0,.186.062.341.341,0,0,0,.31-.186.4.4,0,0,0-.124-.558l-1.363-.805a8.891,8.891,0,0,1,2.6-2.664l.805,1.363a.341.341,0,0,0,.31.186.228.228,0,0,0,.186-.062.4.4,0,0,0,.124-.558l-.805-1.363a9.169,9.169,0,0,1,3.655-.991v1.611a.372.372,0,1,0,.743,0V32.243A8.347,8.347,0,0,1,56.08,33.3l-.805,1.363a.4.4,0,0,0,.124.558.228.228,0,0,0,.186.062.341.341,0,0,0,.31-.186L56.7,33.73a8.891,8.891,0,0,1,2.6,2.664L58,37.2a.4.4,0,0,0-.124.558.341.341,0,0,0,.31.186.228.228,0,0,0,.186-.062l1.3-.743A8.82,8.82,0,0,1,60.6,40.73H59.178a.372.372,0,0,0,0,.743H60.85a7.749,7.749,0,0,1-.929,3.407l-1.239-.743a.4.4,0,1,0-.434.681l1.3.743A8.891,8.891,0,0,1,56.948,48.226Z" transform="translate(-21.143 -15.084)" fill="#fff" stroke="#fff" stroke-width="0.4"/>
      </g>
    </g>
  </g>
</svg>
