<svg xmlns="http://www.w3.org/2000/svg" xmlns:xlink="http://www.w3.org/1999/xlink" width="1016.172" height="606.481" viewBox="0 0 1016.172 606.481"><defs><style>.a{fill:#efece5;}.b{fill:#a0bde0;}.c{fill:#cedced;}.d{fill:#221110;}.e{fill:#ebf2fc;}.f{fill:#dbebfc;}.g{fill:none;stroke:#bababa;stroke-linecap:round;stroke-linejoin:round;stroke-width:0.5px;stroke-dasharray:1 2;}.h{fill:#f47d7d;}.i{fill:#184290;}.j{fill:#131f40;}.k{fill:#101728;}.l{fill:#e2382f;}.m{fill:#d66f3d;}.n{fill:#b64f32;}.o{fill:#efeeee;}.p{fill:#d3d6db;}.q{fill:#9fbdfd;}.r{fill:url(#a);}.s{fill:#d9e0e2;}.t{fill:#486cd3;}.u{fill:url(#b);}.v{fill:#ebf0f2;}.w{fill:#24246b;}.x{fill:url(#c);}.y{fill:url(#d);}.z{fill:#ebeff7;}.aa{fill:#4561d8;}.ab{fill:#242528;}.ac{fill:#3c53a0;}.ad{fill:#ccd2db;}.ae{fill:#bfd7fa;}.af{fill:#1c3391;}.ag{fill:#192ead;}.ah{fill:#ffdecf;}.ai{fill:#faceb9;}.aj{fill:#5481db;}.ak{fill:#4864d8;}.al{fill:#5f80f6;}.am{fill:url(#e);}.an{fill:url(#f);}.ao{fill:url(#g);}.ap{fill:url(#h);}.aq{fill:#19337c;}.ar{fill:url(#i);}.as{fill:#d0d1d8;}.at{fill:#a7b3c6;}.au{fill:url(#j);}.av{fill:url(#k);}.aw{fill:url(#l);}.ax{fill:url(#m);}.ay{fill:url(#n);}</style><linearGradient id="a" x1="0.516" y1="0.148" x2="0.479" y2="1.44" gradientUnits="objectBoundingBox"><stop offset="0" stop-color="#546aea"/><stop offset="1" stop-color="#658bfd"/></linearGradient><linearGradient id="b" x1="0.517" y1="0.075" x2="0.482" y2="1.368" xlink:href="#a"/><linearGradient id="c" x1="0.502" y1="0.046" x2="0.432" y2="0.965" gradientUnits="objectBoundingBox"><stop offset="0" stop-color="#24247f"/><stop offset="1" stop-color="#2d2d96"/></linearGradient><linearGradient id="d" x1="-0.376" y1="0.027" x2="2.35" y2="1.162" gradientUnits="objectBoundingBox"><stop offset="0" stop-color="#242463"/><stop offset="1" stop-color="#242463" stop-opacity="0"/></linearGradient><linearGradient id="e" x1="0.511" y1="0.014" x2="0.371" y2="0.893" xlink:href="#c"/><linearGradient id="f" x1="0.125" y1="-0.051" x2="0.843" y2="0.736" xlink:href="#c"/><linearGradient id="g" x1="0.5" y1="0.089" x2="0.5" y2="1.939" xlink:href="#d"/><linearGradient id="h" x1="0.5" y1="0.092" x2="0.5" y2="1.941" xlink:href="#d"/><linearGradient id="i" x1="0.568" y1="2.185" x2="0.494" y2="-0.153" gradientUnits="objectBoundingBox"><stop offset="0" stop-color="#e1e1e1"/><stop offset="1" stop-color="#fff"/></linearGradient><linearGradient id="j" x1="0.9" y1="0.116" x2="0.19" y2="0.798" gradientUnits="objectBoundingBox"><stop offset="0" stop-color="#dfe1e5"/><stop offset="1" stop-color="#f3f3f3"/></linearGradient><linearGradient id="k" x1="0.491" y1="-1.017" x2="0.504" y2="1.085" gradientUnits="objectBoundingBox"><stop offset="0" stop-color="#b9bec6"/><stop offset="1" stop-color="#b9bec6" stop-opacity="0"/></linearGradient><linearGradient id="l" x1="0.598" y1="-0.509" x2="0.397" y2="1.099" xlink:href="#j"/><linearGradient id="m" x1="1.408" y1="0.54" x2="0.331" y2="0.492" xlink:href="#i"/><linearGradient id="n" x1="2.522" y1="0.698" x2="-0.985" y2="0.364" gradientUnits="objectBoundingBox"><stop offset="0" stop-color="#bccace"/><stop offset="1" stop-color="#bccace" stop-opacity="0"/></linearGradient></defs><g transform="translate(-641.905 -227.636)"><g transform="translate(755.525 228)"><path class="a" d="M231.461,580.994s-98.223-20.148-98.254-107.425c-.039-105.354,116.9-122.585,155.431-197.186s67.4-147.714,176.609-176.247C554.021,76.944,688.854,136.194,694.5,238.329s37.536,135.727,112.025,178.428,62.628,163.722-28.971,166.157Z" transform="translate(-133.207 -16.542)"/><path class="b" d="M556.731,445.6a1.253,1.253,0,0,1-.048-.557c2.45-17.081-2.779-33.963-13.68-45a.7.7,0,0,1-.234-.246c-.079-.078-.151-.163-.228-.239a1.014,1.014,0,0,1,.164-1.55c1.263-18.022-5.181-35.3-17.368-45.842a1.1,1.1,0,0,1-.367-.808,1.008,1.008,0,0,1-.3-.8c.164-25.132-15.121-37.675-15.179-38.563-1.886-28.48-19.109-40.1-19.076-41.049.44-12.495-5.187-23.8-14.43-29.185a.8.8,0,0,1-.673-.627,1.034,1.034,0,0,1-.049-.6c.206-8.789-4.576-16.622-11.554-18.908-6.977,2.286-11.76,10.119-11.554,18.908a1.022,1.022,0,0,1-.049.6.8.8,0,0,1-.672.627c-9.244,5.387-14.872,16.69-14.431,29.185.034.953-16.227,10.894-19.076,41.049-.084.885-15.757,12.8-15.179,38.563a.983.983,0,0,1-.3.8,1.109,1.109,0,0,1-.366.808c-12.188,10.539-18.633,27.82-17.37,45.842a1.015,1.015,0,0,1,.166,1.55c-.079.076-.151.161-.23.239a.7.7,0,0,1-.234.246c-10.9,11.036-16.13,27.917-13.68,45a1.253,1.253,0,0,1-.046.557Z" transform="translate(-16.369 45.842)"/><path class="c" d="M442.937,436.964a1.384,1.384,0,0,1-.051-.6c2.623-18.276-2.973-36.338-14.636-48.145a.759.759,0,0,1-.251-.263c-.084-.084-.16-.175-.245-.257a1.085,1.085,0,0,1,.176-1.657c1.351-19.282-5.542-37.772-18.582-49.046a1.182,1.182,0,0,1-.393-.864,1.079,1.079,0,0,1-.321-.856c.175-26.888-16.177-40.307-16.241-41.258-2.016-30.469-20.444-42.9-20.408-43.918.47-13.368-5.55-25.461-15.439-31.224a.848.848,0,0,1-.72-.67,1.088,1.088,0,0,1-.052-.641c.219-9.4-4.9-17.783-12.362-20.23-7.466,2.447-12.583,10.828-12.362,20.23a1.1,1.1,0,0,1-.054.641.848.848,0,0,1-.72.67c-9.889,5.764-15.909,17.856-15.438,31.224.036,1.018-17.362,11.655-20.41,43.918-.09.948-16.859,13.7-16.241,41.258a1.059,1.059,0,0,1-.321.856,1.176,1.176,0,0,1-.393.864c-13.04,11.275-19.933,29.764-18.582,49.046a1.084,1.084,0,0,1,.176,1.657c-.084.082-.161.173-.245.257a.758.758,0,0,1-.251.263c-11.663,11.806-17.258,29.869-14.636,48.145a1.384,1.384,0,0,1-.051.6Z" transform="translate(-78.915 33.862)"/><path class="d" d="M431.148,312.9c2.652-2.71,4.314-4.535,4.125-4.759s-2.181,1.224-5.183,3.663c-1.409,1.311-3.113,2.829-4.862,4.6-1.387,1.535-2.955,3.125-4.415,4.886a15.019,15.019,0,0,0-.208-2.582,15.975,15.975,0,0,0-1.7-4.39c-.915-1.639-2.1-2.847-2.6-2.568-.512.285-.145,1.829.154,3.494.334,1.66.6,3.452.72,4.129s.579,2.48.876,4.2c.064.321.122.635.182.941-1.513,1.944-2.928,3.958-4.248,5.982a8.588,8.588,0,0,0-.2-1.32,10.733,10.733,0,0,0-1.875-3.624c-1-1.292-2.252-2.07-2.68-1.7-.449.379.025,1.61.375,2.932.391,1.314.675,2.725.8,3.257s.591,1.935.863,3.318c.087.37.161.738.234,1.083-.293.481-.6.979-.884,1.447-.824,1.568-1.63,3.025-2.334,4.379l0-.013a11.1,11.1,0,0,0-2.1-3.734c-1.1-1.318-2.44-2.078-2.847-1.686-.428.4.16,1.651.6,3.019.487,1.353.845,2.825.993,3.377s.678,2.019.979,3.467c.036.142.067.281.1.421l-.535,1.18a108.09,108.09,0,0,0-3.592,10.276,7.87,7.87,0,0,0-.624-1.011c-.806-1.145-1.856-1.868-2.322-1.541s-.236,1.444-.069,2.594c.214,1.42.367,2.443.421,2.8.09.448.429,1.644.663,2.816.082.351.157.69.236,1.011-.176.739-.346,1.486-.476,2.247-.479,2.826-1.023,5.708-1.247,8.563a88.27,88.27,0,0,0-.318,15.087c.393,3.969.817,6.482,1.1,6.456.3-.027.381-2.574.426-6.486a126.6,126.6,0,0,1,1.389-14.722c.36-2.764,1.015-5.547,1.584-8.27.22-1.036.508-2.04.781-3.034a15.191,15.191,0,0,1,2.158-1.066,14.062,14.062,0,0,1,2.4-1.018c1.032-.363,2.143-.426,2.35-.977.212-.521-.882-1.418-2.431-1.636a7.075,7.075,0,0,0-3.206.246c.025-.076.045-.158.072-.233,1.486-4.791,3.1-8.659,3.934-10.749.158-.357.343-.782.544-1.236.224-.128.457-.258.7-.37a13.011,13.011,0,0,1,2.812-1.008,12.863,12.863,0,0,1,2.989-.638c1.266-.152,2.513.112,2.831-.387.32-.46-.736-1.68-2.443-2.2a7.943,7.943,0,0,0-4.347-.133,4.479,4.479,0,0,0-.494.179c.661-1.35,1.424-2.812,2.195-4.39.475-.851.984-1.742,1.5-2.637.13-.037.255-.078.39-.112a25.124,25.124,0,0,1,3.125-.675,24.509,24.509,0,0,1,3.222-.569c1.342-.17,2.661-.093,2.888-.636.227-.517-.95-1.5-2.589-1.959a9.572,9.572,0,0,0-4.2-.26c-.1.016-.261.067-.4.1,1.193-1.932,2.483-3.848,3.831-5.692,1.084-.209,2.2-.294,2.622-.345s1.605-.326,2.768-.406c1.156-.131,2.311-.075,2.561-.606.248-.508-.721-1.463-2.137-1.972a8.237,8.237,0,0,0-2.965-.512c.927-1.159,1.86-2.268,2.707-3.358C428.378,315.974,429.91,314.345,431.148,312.9Z" transform="translate(-2.645 88.491)"/><path class="d" d="M370.554,357.068c.4-1.632,1.014-3.267,1.224-3.885.2-.649.714-2.371,1.369-3.928.606-1.574,1.362-2.977.935-3.386-.4-.394-1.9.509-3.151,2a13.057,13.057,0,0,0-1.539,2.208c-.473-2.541-.944-4.769-1.33-6.51.5-.264.417-2.1.325-4.028a36.329,36.329,0,0,1,.043-4.811,16.807,16.807,0,0,1,.684-4.387c.487-1.72,1.52-3.086,1.183-3.552-.317-.484-2.241.415-3.515,2.373a11.136,11.136,0,0,0-1.593,3.754c-.081-.26-.16-.518-.245-.785a15.916,15.916,0,0,0-.2-3.451,27.286,27.286,0,0,1-.215-4.644,12.532,12.532,0,0,1,.661-4.157c.523-1.623,1.692-2.792,1.435-3.3-.134-.243-.675-.255-1.412.069a6.269,6.269,0,0,0-2.29,1.94,9.5,9.5,0,0,0-1.622,3.542q-.8-1.978-1.695-3.942a10.864,10.864,0,0,1-.154-1.55,17.787,17.787,0,0,1,1.15-5.926c.452-1.16,1.3-2.074,1.041-2.607-.222-.509-1.828-.243-3.11,1.011a7.606,7.606,0,0,0-1.946,2.98c-.82-1.513-1.656-2.977-2.428-4.358-1.3-2.155-2.62-4.048-3.7-5.669-2.368-3.11-3.993-5.005-4.221-4.836s.971,2.361,2.938,5.656c.879,1.714,2.008,3.675,3.125,5.874.859,1.846,1.841,3.8,2.735,5.849a5.235,5.235,0,0,0-.745-.227,7.34,7.34,0,0,0-3.888.4c-1.487.551-2.39,1.668-2.078,2.134.315.5,1.441.309,2.571.432a14.846,14.846,0,0,1,2.688.457,14.468,14.468,0,0,1,2.706.684c.169.055.327.124.49.19.7,1.71,1.36,3.433,1.971,5.154a8.331,8.331,0,0,0-3.607-.76,5.365,5.365,0,0,0-2.638.708c-.62.4-.873.824-.751,1.074.278.5,1.714.308,3.1.814a10.843,10.843,0,0,1,3.18,1.741,24.005,24.005,0,0,1,2.641,2.149c.17.529.351,1.076.514,1.589.612,2.046,1.138,3.948,1.59,5.644a9.985,9.985,0,0,0-2.734-.9c-1.819-.351-3.436.052-3.443.612-.024.593,1.329,1.074,2.589,1.859a21.543,21.543,0,0,1,2.959,2.095c.346.266,1.162.851,1.986,1.595l.037.148c.43,1.871,1.209,5.078,2.034,9a11.677,11.677,0,0,0-3.042-1.984c-1.805-.844-3.6-.882-3.742-.342-.167.569,1.162,1.4,2.338,2.546a23.476,23.476,0,0,1,2.7,2.976,23.13,23.13,0,0,1,2.438,3.313c.314.494.582,1,.827,1.444.639,3.569,1.262,7.316,1.786,10.981,1.681,11.258,2.81,21.465,3.418,21.416.545-.043.288-10.318-.824-21.733C371.721,365.558,371.163,361.156,370.554,357.068Z" transform="translate(-28.168 83.116)"/><path class="e" d="M702.82,481.524a47.186,47.186,0,0,0-31.514-70.491,42.3,42.3,0,0,0-29.316-35.92A118.415,118.415,0,0,0,621.09,339,33.954,33.954,0,0,0,580.1,307.74a118.608,118.608,0,0,0-162.859,72.253,63.931,63.931,0,0,0-20.069,101.532Z" transform="translate(-11.452 82.928)"/><g transform="translate(414.516 464.813)"><path class="f" d="M475.248,360.066l-16.88,34.824,9.868-37.8a59.815,59.815,0,0,0-17.836-3.3l-1.981,53.25,53.754-16.284A53.2,53.2,0,0,0,475.248,360.066Z" transform="translate(-392.282 -353.796)"/><path class="f" d="M467.279,406.344l-7.906-52.254a57.99,57.99,0,0,0-29.66,12.627L444.07,386.8l-20.021-14.7a52.247,52.247,0,0,0-5.556,7.285l42.15,22.6-47.285-11.869a48.662,48.662,0,0,0,3.893,39.674l40.324-15.529-34.248,24.077a57.791,57.791,0,0,0,43.634,19.3c19.152,0,36.055-8.895,46.186-22.463l-38.692-20.917,42.5,15.015a48.3,48.3,0,0,0,5.632-30.6Z" transform="translate(-410.822 -353.651)"/></g><path class="b" d="M168.577,488H504.02a75,75,0,0,0-45.75-111.168,49.319,49.319,0,0,0-16.5-22.122A55.218,55.218,0,0,0,367.448,292.9,132.913,132.913,0,0,0,208.995,341.82a49.2,49.2,0,0,0-26.063,61.247A80.511,80.511,0,0,0,168.577,488Z" transform="translate(-118.853 76.452)"/><path class="f" d="M353.142,406.455,401.5,415.7a55.507,55.507,0,0,0-1.178-28.761L343.32,400.01s33.494-18.563,51.128-25.991c-9.392-15.293-25.858-26.4-45.311-29.551l-7.045,36.207.953-36.924c-1.735-.127-3.485-.212-5.256-.212a69.986,69.986,0,0,0-21.4,3.334l15.882,53.136-28.087-47.862c-15.01,8.356-26.046,22.145-29.93,38.408L329.2,401.545l-56.387-1.283c-.061,1.069-.1,2.144-.1,3.225A56.747,56.747,0,0,0,286.4,440.234L327.669,412.9,289.9,444.061a67.523,67.523,0,0,0,47.892,19.375c28.278,0,52.334-16.625,61.307-39.84Z" transform="translate(-64.409 105.959)"/><path class="a" d="M831.66,428.193c-.251-1.371-1.645-6.086-9.119-7.621H693.625c-8.56-.087-17.322-.133-26.24-.133s-17.68.046-26.24.133H338.824c-8.56-.087-17.322-.133-26.24-.133s-17.68.046-26.24.133H180.9s-14.413-1.333-24.526,6.374h0c-12.174,1.622-19.042,3.458-19.042,5.4,0,6.579,78.464,11.912,175.254,11.912s175.254-5.333,175.254-11.912l0-.022,4.309-.033c0,.018-.01.037-.01.055,0,6.579,78.464,11.912,175.254,11.912s175.254-5.333,175.254-11.912C842.639,430.888,838.754,429.487,831.66,428.193Z" transform="translate(-131.174 143.881)"/><path class="g" d="M487.976,112.8c-13.58-1.883-31.074-6.906-37.958-23.178-3.512-8.3-6.925-19.769-2.3-31.763,2.78-7.215,11.394-11.266,18.645-10.358,16.551,2.071,20.465,17.953,14.04,29.692-9.7,17.719-46.681,17.55-78.049,3.912-28.108-12.22-27.39-30.842-56.163-37.748-2.219-.533-30.9-5.032-46.035,13.35-8.108,9.849-12.681,25.692-3.368,36.6,7.086,8.3,18.542,8.518,24.776,1.611,8.515-9.438,6.774-21.73-3.454-28.541-12.477-8.311-37.328,4.2-49.257,19.794-27.956,36.555-6.67,113.3,47.416,149.061,26.337,17.413,54.281,19.693,70.158,19.593" transform="translate(-72.387 -42.496)"/><path class="h" d="M457.891,131.146H345.1V234.758h149.49V168.913C494.588,148.056,478.157,131.146,457.891,131.146Z" transform="translate(-28.716 1.22)"/><path class="i" d="M356.273,131.146c-22.649,0-41.01,16.91-41.01,37.767v65.844h82.019V168.913C397.282,148.056,378.921,131.146,356.273,131.146Z" transform="translate(-43.429 1.22)"/><path class="j" d="M355.486,132.755c-21.334,0-38.627,16.124-38.627,36.016v62.791h77.253V168.771C394.112,148.879,376.819,132.755,355.486,132.755Z" transform="translate(-42.642 2.014)"/><path class="k" d="M355.486,132.755c-21.334,0-38.627,16.124-38.627,36.016h77.253C394.112,148.879,376.819,132.755,355.486,132.755Z" transform="translate(-42.642 2.014)"/><g transform="translate(366.896 113.583)"><circle class="j" cx="4.654" cy="4.654" r="4.654" transform="translate(0 51.907)"/><path class="l" d="M384.686,157.1a1.984,1.984,0,1,1-1.984-1.984A1.984,1.984,0,0,1,384.686,157.1Z" transform="translate(-378.048 -100.542)"/><rect class="j" width="2.812" height="54.091" transform="matrix(0.993, 0.117, -0.117, 0.993, 9.976, 0)"/><path class="l" d="M386.129,118.566l14.86,1.748-3.238,4.641,1.264,3.7L384.56,131.9Z" transform="translate(-376.153 -118.566)"/></g><rect class="m" width="114.401" height="3.536" transform="translate(351.47 235.978)"/><g transform="translate(371.349 235.978)"><rect class="m" width="11.64" height="328.475" transform="translate(6.973)"/><rect class="n" width="6.973" height="328.475"/><path class="n" d="M386.581,206.973l11.641,7.672V202.906H386.581Z" transform="translate(-379.608 -199.37)"/></g><path class="l" d="M357.256,132.839c-.591-.025-1.172-.084-1.769-.084-21.334,0-38.627,16.124-38.627,36.016v62.791H320.4V168.771C320.4,149.436,336.751,133.706,357.256,132.839Z" transform="translate(-42.642 2.014)"/><g transform="translate(274.217 230.691)"><path class="j" d="M355.486,294.254c-21.334,0-38.627-15.872-38.627-35.451V197h77.253V258.8C394.112,278.382,376.819,294.254,355.486,294.254Z" transform="translate(-316.859 -196.997)"/><path class="k" d="M316.859,258.8c0,11.394,5.881,21.5,14.982,27.99,2.7-72.3,62.271-89.8,62.271-89.8H316.859Z" transform="translate(-316.859 -196.997)"/><path class="l" d="M380.961,197V258.8c0,19.211-16.659,34.812-37.434,35.4.4.01.788.055,1.192.055,21.332,0,38.626-15.872,38.626-35.451V197Z" transform="translate(-303.708 -196.997)"/></g><g transform="translate(276.709 179.75)"><rect class="o" width="74.653" height="49.555" transform="translate(0 0.001)"/><rect class="p" width="47.116" height="0.84" transform="translate(0 47.565)"/><path class="p" d="M358.754,162.88s-1.227,40.918-8.671,47.565V162.88Z" transform="translate(-302.967 -162.88)"/><path class="p" d="M368.769,162.88l-3.99,49.555h5.594V162.88Z" transform="translate(-295.72 -162.88)"/></g><g transform="translate(353.853 136.823)"><rect class="l" width="105.42" height="3.376" transform="translate(3.184 90.492)"/><rect class="l" width="112.018" height="1.315" transform="translate(0 32.646)"/><path class="l" d="M464.664,179.475H372.326v19.948h105.42v-6.214C477.708,179.245,464.664,179.475,464.664,179.475Z" transform="translate(-369.142 -111.77)"/><path class="o" d="M415.856,134.137s29.357-.461,36.6,24.858C452.454,158.995,451.533,133.676,415.856,134.137Z" transform="translate(-347.676 -134.131)"/></g><g transform="translate(219.685 21.724)"><g transform="translate(0 15.549)"><rect class="o" width="67.551" height="44.841" transform="translate(0 28.215) rotate(-24.688)"/><path class="l" d="M307.8,87.565a1.575,1.575,0,1,1-2.089-.773A1.574,1.574,0,0,1,307.8,87.565Z" transform="translate(-268.275 -57.996)"/><path class="p" d="M280.337,86.356A75.971,75.971,0,0,0,320,91.766s-21.468,6.594-37.357-.4Z" transform="translate(-280.337 -58.14)"/><path class="p" d="M328.615,67.459A75.975,75.975,0,0,1,306.9,101.084s18.982-12,24.022-28.611Z" transform="translate(-267.238 -67.459)"/></g><g transform="translate(66.987)"><rect class="o" width="67.551" height="44.841" transform="translate(5.876 0) rotate(7.529)"/><path class="l" d="M352.086,72.514a1.575,1.575,0,1,1-1.354-1.768A1.575,1.575,0,0,1,352.086,72.514Z" transform="translate(-313.489 -50.295)"/><path class="p" d="M329.375,57.045a75.964,75.964,0,0,0,30.669,25.722S338.367,76.9,328.651,62.516Z" transform="translate(-323.499 -57.045)"/><path class="p" d="M385.976,62.974a75.987,75.987,0,0,1-36.3,16.869s22.458-.034,35.577-11.4Z" transform="translate(-313.131 -54.121)"/></g><path class="p" d="M332.808,95.371l-5.183-23.708-1.276,9.657Z" transform="translate(-257.647 -49.836)"/></g><g transform="translate(288.736 96.683)"><path class="l" d="M326.583,119.2l7.917-4.584,3.442,20.1Z" transform="translate(-326.583 -103.613)"/><path class="l" d="M342.878,137.029l-2.455-28.106,8.641-1.675Z" transform="translate(-319.758 -107.248)"/></g><g transform="translate(311.55 433.3)"><path class="q" d="M381.223,463.843s-13.016-99.916-4.2-131.152c0,0,19.152,59.186,16.775,131.145Z" transform="translate(-326.034 -332.691)"/><path class="q" d="M375.479,388.183a228.389,228.389,0,0,1,11.1,51.864h0c4.3-27.656-11.626-59.1-11.632-59.106Q375.2,384.6,375.479,388.183Z" transform="translate(-325.544 -308.897)"/><path class="q" d="M385.72,426.948H388c.218-6.6.252-13.1.139-19.45C388.1,407.637,385.605,418.5,385.72,426.948Z" transform="translate(-320.236 -295.802)"/><path class="q" d="M396.091,430.29s4.576-20.867,35.305-29.557c0,0-6.1,22.064-19.911,29.551Z" transform="translate(-315.12 -299.137)"/><path class="q" d="M386.976,430.284s-11.663-26.078-45.114-29.551c0,0,6.752,23.609,30.69,29.557Z" transform="translate(-341.862 -299.137)"/><path class="q" d="M396.091,427.414l3.292,0c7.672-5.018,12.911-20.763,12.941-20.853C398.631,416,396.1,427.372,396.091,427.414Z" transform="translate(-315.12 -296.265)"/><path class="q" d="M387.339,448.832s-5.023-48.857,40.5-85.7c0,0,.676,47.656-27.356,85.7Z" transform="translate(-319.517 -317.68)"/><path class="q" d="M351.542,402.891c.167.133,23.169,18.563,30.66,26.328C382.2,429.219,373.975,410.843,351.542,402.891Z" transform="translate(-337.088 -298.073)"/><path class="q" d="M376.406,453.436s-21.28-48.38-19.121-99.64c0,0,30.847,28.576,38.085,99.64Z" transform="translate(-334.332 -322.283)"/></g><g transform="translate(249.172 177.76)"><rect class="o" width="74.653" height="49.555"/><path class="p" d="M300.086,161.548s10.126,24.58,37.325,24.777c0,0-24.513,5.714-37.325-12.389Z" transform="translate(-300.086 -161.547)"/><path class="l" d="M327.4,175.251a1.74,1.74,0,1,1-1.741-1.74A1.741,1.741,0,0,1,327.4,175.251Z" transform="translate(-288.333 -155.648)"/><path class="p" d="M352.566,161.548s-1.841,11.01-7.519,15.308c0,0,5.986-2.989,7.519-8.553Z" transform="translate(-277.914 -161.547)"/><rect class="p" width="63.087" height="1.39" transform="translate(5.783 42.262)"/></g></g><g transform="translate(641.905 249.001)"><path class="r" d="M36.921,299.09s-1.973,9.548,0,14.545,15.309,2.737,15.309,2.737l-1.178-16.486Z" transform="translate(78.683 237.618)"/><path class="s" d="M89.451,321.418a2.164,2.164,0,0,1,0,.923c-.7,1.782-13.876,1.5-27.116,1.56s-27.53.414-27.116-1.56a16.092,16.092,0,0,0-.255-1.655,61.868,61.868,0,0,1,2.228-19.1h1.941c1.591,11.012,14.958,6.684,14.767,0h2.132c-.382,7.065,6.588,10.758,18.109,11.776S89.291,318.808,89.451,321.418Z" transform="translate(76.217 243.074)"/><path class="t" d="M89.417,308.334a2.165,2.165,0,0,1,0,.923c-.7,1.782-13.876,1.5-27.116,1.559s-27.53.414-27.116-1.559a16.078,16.078,0,0,0-.255-1.655C50.207,307.475,78.437,308.079,89.417,308.334Z" transform="translate(76.25 256.158)"/><path class="u" d="M21.231,299.09s-1.973,9.548,0,14.545,15.34,2.737,15.34,2.737l-1.178-16.486Z" transform="translate(44.437 237.618)"/><path class="v" d="M73.8,322.406c-.732,1.782-13.876,1.5-27.148,1.559s-27.53.414-27.116-1.559a29.659,29.659,0,0,1-.382-3.469,66.611,66.611,0,0,1,2.355-17.377h1.973c2.737,9.834,14.545,7.479,14.736,0h2.164c-.414,7.065,6.556,10.757,18.077,11.776,10.089.923,14.354,4.424,15.277,7.065a2.928,2.928,0,0,1,.064,2.005Z" transform="translate(41.808 243.009)"/><path class="w" d="M29.15,225.859C35.1,280.6,33,301.574,39.366,358.734c4.106,36.728.414,97.1,9.548,149.393H69.761c0-39.306,2.387-45.735,5.092-121.863,1.337-37.873.7-76.638,3.183-93.952A497.034,497.034,0,0,0,81.95,205.84Z" transform="translate(63.635 34.086)"/><path class="x" d="M71.4,286.734c-9.23,44.3-23.2,213.842-23.2,213.842H28.152c-5.506-49.936-.159-93.665-3.183-130.488C20.641,316.237,11.6,263.946,17.9,218.339l21.769-2.451L82.766,209.3A773.394,773.394,0,0,1,71.4,286.734Z" transform="translate(34.365 41.638)"/><path class="y" d="M34.836,399.337c-3.724,26.48-3.405,73.805,1.178,96.721H28.152c-5.506-49.936-.159-93.665-3.183-130.488C20.641,311.719,11.6,259.428,17.9,213.821l21.769-2.451c-1.878,10.344-12.731,73.965-9.2,116.453C34.454,374.194,39.164,368.688,34.836,399.337Z" transform="translate(34.365 46.157)"/><path class="z" d="M83.038,261.487a47.1,47.1,0,0,1-10.694,2.705c.8-2.928,1.5-5.824,2.1-8.657a24.031,24.031,0,0,0,7.988-2.642l.318.7-1.209-31.826-.286-7.447L56.113,165.18H21.74L48.729,306.808l2.9,15.213a50.923,50.923,0,0,0,33.418-3.533ZM56.144,298.278a82.162,82.162,0,0,0,5.315-8.084c12.731,0,18.459-3.533,18.459-3.533l3.183,7.479a54.581,54.581,0,0,1-26.957,4.137Z" transform="translate(47.461 -54.66)"/><path class="aa" d="M54.474,171.13s-8.625,5.506-28.644,2.737l3.183,8.657a55.6,55.6,0,0,0,28.644-3.946Z" transform="translate(56.388 -41.673)"/><path class="aa" d="M59.794,182s-8.657,5.506-28.644,2.737l3.183,8.657a55.6,55.6,0,0,0,28.644-3.946Z" transform="translate(68 -17.948)"/><path class="aa" d="M52.459,193.57c-.6,2.833-1.3,5.729-2.1,8.657a60.47,60.47,0,0,1-15.436,0L31.74,193.6A64.7,64.7,0,0,0,52.459,193.57Z" transform="translate(69.288 7.306)"/><path class="ab" d="M43.693,199.652c-.827.414-1.687.764-2.546,1.114L40.86,193Z" transform="translate(89.193 6.061)"/><path class="aa" d="M41.248,204.885a82.124,82.124,0,0,1-5.315,8.052h-1.75L31,204.28a78.193,78.193,0,0,0,10.248.6Z" transform="translate(67.672 30.682)"/><path class="ac" d="M59.465,210.839a54.582,54.582,0,0,1-26.925,4.137,82.15,82.15,0,0,0,5.315-8.084c12.731,0,18.459-3.533,18.459-3.533Z" transform="translate(71.034 28.674)"/><path class="ac" d="M48.334,201.333a47.1,47.1,0,0,1-10.694,2.705c.8-2.928,1.5-5.824,2.1-8.657a24.031,24.031,0,0,0,7.988-2.642l.318.7h0Z" transform="translate(82.165 5.494)"/><path class="ad" d="M38.25,221.791a164.1,164.1,0,0,0,3.183-41.151l3.819,7.447,1.209,31.826-.318-.7A24.029,24.029,0,0,1,38.25,221.791Z" transform="translate(83.497 -20.916)"/><path class="ad" d="M66.534,252.527a50.922,50.922,0,0,1-33.418,3.533l-2.9-15.213a78.069,78.069,0,0,0,7.416-8.593,54.585,54.585,0,0,0,26.925-4.138l-3.183-7.479s-5.665,3.628-18.459,3.533a110.019,110.019,0,0,0,10.725-26.034,47.1,47.1,0,0,0,10.694-2.705Z" transform="translate(65.97 11.365)"/><path class="ae" d="M81.623,311.054c-5.506,12.985-23.2,17.314-23.2,17.314s1.846-30.712,2.228-59.006c.223-18.873-.191-36.7-2.228-43.6a201.713,201.713,0,0,0-11.267-26.575c-7.893-16.168-16.645-32.017-16.645-32.017l1.846-3.6,26.066,11.871s.955,6.365,2.228,15.309c2.292,15.913,5.665,39.942,6.365,46.785.6,5.379,4.3,24.125,7.829,41.374S81.623,311.054,81.623,311.054Z" transform="translate(66.603 -58.174)"/><path class="af" d="M58.8,145.113c-14.163-23.965-35.391-12.731-39.306-6.684-20.846,32.622,20.433,74.315-2.355,82.94,0,0,24.888,12.285,32.113-16.868a227.587,227.587,0,0,1,17.791-48.758Z" transform="translate(29.276 -130.454)"/><path class="ag" d="M79.477,183.943s6.365-9.548,4.71-26.734S71.2,135.98,65.7,141.1c0,0-14.927-14.545-31.826-2.769-15.309,10.694-16.1,31.826-10.63,46.785s7.32,21.642,7.607,28.9L55.1,190.244Z" transform="translate(43.988 -123.294)"/><path class="ah" d="M77.564,163.225v.318c-.191,3.724-2.26,40.706-14.927,42.934a13.367,13.367,0,0,1-8.72-1.018,7.987,7.987,0,0,1-2.291-1.719,53.627,53.627,0,0,0-.35,10.216A36.313,36.313,0,0,0,52.8,223s-13.367,11.012-31.063-4.328a159.513,159.513,0,0,0,10.375-39.688s-6.684-2.769-5.506-12.189c1.3-10.248,11.808-2.769,10.63,5.888A49.14,49.14,0,0,0,63.178,139.26S63.942,149.476,77.564,163.225Z" transform="translate(47.461 -111.234)"/><path class="ai" d="M51.263,163.225v.318A39.688,39.688,0,0,1,33.79,148.33a48.118,48.118,0,0,0,2.928-9.07S37.641,149.476,51.263,163.225Z" transform="translate(73.762 -111.234)"/><path class="ai" d="M40.973,170.689a7.99,7.99,0,0,1-2.291-1.719,53.626,53.626,0,0,0-.35,10.216,41.024,41.024,0,0,1-10.662-24A51.335,51.335,0,0,0,40.973,170.689Z" transform="translate(60.404 -76.464)"/><path class="ae" d="M84.365,330.734a98.676,98.676,0,0,1-16.932,0,120.623,120.623,0,0,1-46.371-13.272s7.447-19.637,13.685-37.428c2.132-6.079,4.137-11.967,5.633-16.741a41.6,41.6,0,0,0,2.705-11.076c-.159-.477-.8-1.91-1.814-4.01l-.191-.414c-7.7-15.913-34.6-68.777-32.208-71.864,1.241-1.559,12.985-7.065,42.647-12.731,0,0,33.227,53.787,34.818,62.03S84.365,330.734,84.365,330.734Z" transform="translate(19.05 -58.981)"/><path class="aj" d="M18.67,204.966a41.6,41.6,0,0,0,2.705-11.076c-.159-.477-.8-1.91-1.814-4.01l14,28.357Z" transform="translate(40.76 -0.748)"/><path class="aj" d="M58.971,250.58A120.624,120.624,0,0,1,12.6,237.308s7.447-19.637,13.685-37.428C29.022,214.266,36.82,237.913,58.971,250.58Z" transform="translate(27.512 21.078)"/><path class="ai" d="M33.744,246.687c-3.946,1.973-6.938-4.328-8.179-10.216s-1.273-7.861,1.5-6.684a18.427,18.427,0,0,1,0-7.479l-7-4.9-3.628-2.578,11.808-10.6s.891.987,2.323,2.451l3.183,3.183c1.591,1.591,3.374,3.183,5.092,4.9,4.01,3.724,6.684,15.722,7.479,20.846S37.658,244.872,33.744,246.687Z" transform="translate(35.871 30.572)"/><path class="ae" d="M47.556,208.772s-19.637,26.671-19.637,28.962,41.693,44.557,41.693,44.557L51.12,301.164S-.852,241.713.007,237.734c4.742-20.846,28.326-69.6,28.326-69.6S45.965,186.016,47.556,208.772Z" transform="translate(0.003 -48.221)"/><path class="ae" d="M49.254,258.6c.223-18.873-.191-36.7-2.228-43.6A201.717,201.717,0,0,0,35.76,188.423,172.972,172.972,0,0,1,40.566,168.5s3.6,4.265,8.689,11.489c2.292,15.913,5.665,39.942,6.365,46.785.6,5.379,4.3,24.124,7.829,41.374A49.332,49.332,0,0,1,49.254,258.6Z" transform="translate(78.062 -47.413)"/><path class="ah" d="M62.7,195.835l-9.548,4.774L48.6,202.9l-4.71-19.669s-3.946-2.355-6.684-11.776c0,0-.987,1.464-2.1,1.559s-1.273-.318-1.814-1.559c-1.591-3.533-.414-5.506.764-9.548s2.355-6.684,7.1-6.365,7.479-2.291,9.325,0c5.22,6.365,7.161,26,7.161,26Z" transform="translate(70.984 -77.772)"/><path class="ai" d="M51.376,195.242l-4.551,2.292-4.71-19.669s-3.946-2.355-6.684-11.776c0,0-.987,1.464-2.1,1.559a16.165,16.165,0,0,1,.923-2.737l-.8-7.861a37.269,37.269,0,0,0,5.92,12.19,43.567,43.567,0,0,1,6.684,9.039C47.111,180.506,49.848,190.054,51.376,195.242Z" transform="translate(72.758 -72.405)"/><path class="ae" d="M35.21,170.292,60.671,165.2s14.958,68.013,16.9,76.383-.382,28.644-6.365,30.649-15.722-8.243-17.314-15.308S35.21,170.292,35.21,170.292Z" transform="translate(76.861 -54.616)"/><path class="ak" d="M31.255,208.226,17.57,215.706l10.5-10.726Z" transform="translate(38.36 32.209)"/><path class="al" d="M73.8,310.489c-.732,1.782-13.876,1.5-27.148,1.56s-27.53.414-27.116-1.56a29.663,29.663,0,0,1-.382-3.469c7.447,1.21,24.761,3.183,54.582,1.464a2.929,2.929,0,0,1,.064,2.005Z" transform="translate(41.808 254.926)"/></g><g transform="translate(1392.676 263.158)"><path class="w" d="M331.346,346.07s-26.384.382-30.012,0c-2.992-.35-.573-8.529,2.642-13.972h0a19.338,19.338,0,0,1,2.228-3.183,11.553,11.553,0,0,1,10.121-3.182s4.106-12.731,0-20.942l17.027-7.861a117.776,117.776,0,0,1,6.365,16.391,35.045,35.045,0,0,1,.923,4.3C341.912,325.8,331.346,346.07,331.346,346.07Z" transform="translate(-134.85 224.719)"/><path class="v" d="M331.346,334.808s-26.384.382-30.012,0c-2.992-.35-.573-8.529,2.642-13.972h0c12.412-16.8,25.747,5.028,25.747,5.028,5.156-6.365,8.5-17.632,10.025-23.774a35,35,0,0,1,.923,4.3C341.912,314.534,331.346,334.808,331.346,334.808Z" transform="translate(-134.85 235.981)"/><path class="am" d="M300.217,270.672c-.414,6.556-1.05,14.035-2.132,21.769-3.183,23.52-10.5,126.383-10.5,126.383a17.122,17.122,0,0,1-19.828,0l-6.365-144.46-.509-12.349,39.751-14.195S301.045,257.3,300.217,270.672Z" transform="translate(-220.175 117.529)"/><path class="an" d="M377.916,416.836c-2.037,7.32-16.741,8.179-16.741,8.179s-69.859-132.334-73.9-140.036a63.925,63.925,0,0,1-3.342-7.766c-2.514-6.938-4.392-14.163-4.392-14.163l2.451.827,44.557-21.928.255,31.381v9.357A209.853,209.853,0,0,1,345.134,327.6C351.786,351.942,377.916,416.836,377.916,416.836Z" transform="translate(-179.446 104.717)"/><path class="ao" d="M300.681,247.82s.255,9.548-.573,22.851l-38.669,3.692-.509-12.349Z" transform="translate(-220.065 117.529)"/><path class="ap" d="M326.9,273.4l-42.966,3.787c-2.514-6.938-4.392-14.163-4.392-14.163l2.451.827,44.557-21.928Z" transform="translate(-179.446 104.652)"/><path class="aq" d="M333.1,162.69s17.473,5.506,23.17,7.161c14.8,4.233,16.836,11.553,17.855,27.594s-26.8,101.845-26.8,101.845l-83.608-1.941s3.66-36.091,4.074-44.557-5.283-65.34-4.074-70.209,14.927-15.436,30.585-18.873Z" transform="translate(-214.354 -68.279)"/><path class="aj" d="M300.678,173.16s-1.209,44.239-4.042,51.941-14.227,44.557-14.227,44.557l25.27,1.91,16.55-46.562Z" transform="translate(-173.182 -45.427)"/><path class="ag" d="M323.928,179a38.194,38.194,0,0,0,3.66-21.1s8.943-9.357-7.288-18.682-36.123-6.365-42.616-2.419-4.074,12.571-4.074,12.571-9.739,17.441,4.488,30.84l39.751,5.665Z" transform="translate(-199.487 -133.026)"/><path class="ar" d="M281.727,162.581l-10.217,3.437L285.7,248.831,320.618,164.4l-9.325-2.005Z" transform="translate(-196.973 -68.934)"/><path class="as" d="M285.818,164.94l-9.9,77.338,12.349-77.338Z" transform="translate(-187.348 -63.368)"/><path class="ah" d="M318.2,175.09a3.183,3.183,0,0,1-4.87-1.623c-2.037,10.153-3.183,31.826-3.183,31.826s-7.734,12.571-14.226,12.19-11.744-9.357-11.744-9.357l.7-3.437,1.3-6.365a9.77,9.77,0,0,1-6.111.382,15.913,15.913,0,0,1-3.024-1.082h0a20.315,20.315,0,0,1-2.2-1.273c-5.028-3.469-2.037-35.582-.509-49.267.414-3.755.732-6.142.732-6.142,1.814,3.183,5.474,4.265,16.836,3.437a52.9,52.9,0,0,1,17.855,1.241V146a38.415,38.415,0,0,0,1.337,21.515s3.66-10.153,8.116-9.739S321.45,172.957,318.2,175.09Z" transform="translate(-195.769 -115.751)"/><path class="ak" d="M308.086,145.578v.382A161.407,161.407,0,0,0,284.662,148a20.72,20.72,0,0,1-11.872-.955c.414-3.756.732-6.143.732-6.143,1.814,3.183,5.474,4.265,16.836,3.437A52.9,52.9,0,0,1,308.086,145.578Z" transform="translate(-194.179 -115.839)"/><path class="ah" d="M294.484,156.14s-3.915,13.526-15.117,15.213l1.3-6.365a9.77,9.77,0,0,1-6.111.382C278.22,166.038,285.031,165.242,294.484,156.14Z" transform="translate(-190.316 -82.575)"/><path class="at" d="M279.5,161a14.352,14.352,0,0,0-4.87,5.7c-1.209,3.183,9.739,19.478,9.739,19.478l4.487-12.731A18.65,18.65,0,0,1,279.5,161Z" transform="translate(-190.358 -71.968)"/><path class="at" d="M293.189,161a12.538,12.538,0,0,1,3.183,6.111c.382,3.183-13.4,19.1-13.4,19.1l-3.183-12.571A47.737,47.737,0,0,0,293.189,161Z" transform="translate(-178.901 -71.968)"/><path class="au" d="M486.31,202.718l26.925,127.051A12.731,12.731,0,0,1,510.053,341a12.154,12.154,0,0,1-4.869,3.342,10.426,10.426,0,0,1-1.941.573L290.451,389.985a12.328,12.328,0,0,1-3.023.287,13.048,13.048,0,0,1-5.506-1.4,12.889,12.889,0,0,1-6.652-8.72L248.376,253.1a12.73,12.73,0,0,1,9.866-15.149l212.791-45.066a12.731,12.731,0,0,1,11.935,3.724A12.476,12.476,0,0,1,486.31,202.718Z" transform="translate(-248.09 -2.993)"/><path class="av" d="M486.223,202.7l6.174,29.153c-28.2,22.883-95.479,76.924-103.054,79.566-8.752,2.992-120.3-48.185-140.768-57.606l-.159-.7a12.731,12.731,0,0,1,9.866-15.149l212.791-45.066a12.731,12.731,0,0,1,11.935,3.724,12.478,12.478,0,0,1,3.214,6.079Z" transform="translate(-248.003 -2.971)"/><path class="aw" d="M482.442,196.607l-94.366,94.715a14.389,14.389,0,0,1-2.833,2.2,12.146,12.146,0,0,1-2.037,1.019,14.32,14.32,0,0,1-6.365.986,9.948,9.948,0,0,1-1.4-.159,13.5,13.5,0,0,1-2.9-.8l-25.461-9.993h0l-4.9-1.91L248.39,245.906a12.731,12.731,0,0,1,9.325-7.957l212.791-45.066A12.731,12.731,0,0,1,482.442,196.607Z" transform="translate(-247.436 -2.993)"/><path class="ah" d="M313.526,219.227s-2.037,2.323-4.3,5.06c-1.5,1.846-3.183,3.851-4.233,5.474-2.833,4.074-3.66,15.913-6.906,17.059s-12.572-.414-14.195.8-8.529,4.074-9.739,3.183,5.7-4.87,8.943-8.912,7.288-11.776,4.042-11.362-10.948,2.833-8.529.8,12.985-7.7,14.226-8.911c.6-.636,2.387-2.8,3.946-4.806s2.928-3.724,2.928-3.724Z" transform="translate(-191.504 43.451)"/><path class="ak" d="M297.911,219.183s-2.037,2.323-4.3,5.06l-12.444-6.62c1.559-1.941,2.928-3.724,2.928-3.724Z" transform="translate(-175.889 43.494)"/><path class="ax" d="M340.615,242.232c-1.209,7.7-8.116,24.347-20.305,45.034s-20.273,36.951-20.273,36.951l-9.548-4.265-9.548-4.265s7.925-16.391,14.608-30.426c7.7-16.232,15.4-38.574,15.4-47.9s-10.948-40.579-6.079-56.81a18.141,18.141,0,0,1,19.478-13.176,11.425,11.425,0,0,1,9.325,5.061C337.782,180.139,341.824,234.53,340.615,242.232Z" transform="translate(-176.391 -58.293)"/><path class="ay" d="M334.067,242.156c-1.209,7.7-8.116,24.347-20.305,45.034s-20.273,36.95-20.273,36.95l-9.548-4.265c32.208-28.644,37.969-72.723,42.616-91.31,4.869-19.478-8.721-61.266-8.721-61.266a11.426,11.426,0,0,1,9.325,5.06C331.234,180.062,335.276,234.454,334.067,242.156Z" transform="translate(-169.843 -58.217)"/></g><path class="w" d="M318.154,323.643a22.263,22.263,0,0,1-1.317,6.094s-43.246,1.251-58.793,0-7.115-17.226-1.252-20.586a6.785,6.785,0,0,1,2.339-.791c6.587-1.186,16.831,3.557,22.035,2.075a92.9,92.9,0,0,0,17.193-9.255l17.358,1.746A66.725,66.725,0,0,1,318.154,323.643Z" transform="translate(1143.974 494.167)"/><path class="v" d="M318.154,318.643a22.26,22.26,0,0,1-1.317,6.093s-43.246,1.252-58.793,0-7.115-17.226-1.252-20.586a6.78,6.78,0,0,1,2.339-.79c3.294.889,7.18,5.171,10.276,17.193C269.408,320.487,301.982,321.574,318.154,318.643Z" transform="translate(1143.974 499.167)"/></g></svg>