<svg xmlns="http://www.w3.org/2000/svg" width="39" height="39" viewBox="0 0 39 39"><defs><style>.a{fill:#167ee6;}.b{fill:#12b347;}.c{fill:#0f993e;}.d{fill:#ffd500;}.e{fill:#ff4b26;}.f{fill:#d93f21;}</style></defs><path class="a" d="M284.311,211.48H268.4a1.272,1.272,0,0,0-1.272,1.272v5.082A1.272,1.272,0,0,0,268.4,219.1h8.958a11.959,11.959,0,0,1-5.148,6.032l3.82,6.612a19.121,19.121,0,0,0,9.75-16.722,12.89,12.89,0,0,0-.219-2.5A1.277,1.277,0,0,0,284.311,211.48Z" transform="translate(-246.783 -195.37)"/><path class="b" d="M51.29,339.787a11.867,11.867,0,0,1-10.267-5.94l-6.612,3.811a19.485,19.485,0,0,0,26.629,7.147V344.8l-3.82-6.612A11.781,11.781,0,0,1,51.29,339.787Z" transform="translate(-31.79 -308.417)"/><path class="c" d="M265.75,397.4v-.009l-3.82-6.612a11.781,11.781,0,0,1-5.93,1.6v7.63A19.467,19.467,0,0,0,265.75,397.4Z" transform="translate(-236.5 -361.013)"/><path class="d" d="M7.63,137.86a11.781,11.781,0,0,1,1.6-5.93l-6.612-3.811a19.411,19.411,0,0,0,0,19.482l6.612-3.811A11.781,11.781,0,0,1,7.63,137.86Z" transform="translate(0 -118.36)"/><path class="e" d="M51.29,7.63a11.815,11.815,0,0,1,7.536,2.706,1.267,1.267,0,0,0,1.7-.077l3.6-3.6a1.281,1.281,0,0,0-.073-1.874A19.457,19.457,0,0,0,34.411,9.759l6.612,3.811A11.867,11.867,0,0,1,51.29,7.63Z" transform="translate(-31.79)"/><path class="f" d="M263.536,10.336a1.267,1.267,0,0,0,1.7-.077l3.6-3.6a1.281,1.281,0,0,0-.073-1.874A19.441,19.441,0,0,0,256,0V7.63A11.815,11.815,0,0,1,263.536,10.336Z" transform="translate(-236.5)"/></svg>