<svg xmlns="http://www.w3.org/2000/svg" width="40.126" height="37.62" viewBox="0 0 40.126 37.62"><defs><style>.a{fill:#fff;}</style></defs><g transform="translate(0 -15.989)"><g transform="translate(0 15.989)"><path class="a" d="M38.872,23.515h-16.3v-6.27a1.251,1.251,0,0,0-.454-.966,1.232,1.232,0,0,0-1.031-.266L1.023,19.776A1.25,1.25,0,0,0,0,21.007V48.594a1.252,1.252,0,0,0,1.023,1.231l20.063,3.762a1.18,1.18,0,0,0,.231.023,1.254,1.254,0,0,0,1.254-1.254v-6.27h16.3a1.254,1.254,0,0,0,1.254-1.254V24.769A1.254,1.254,0,0,0,38.872,23.515ZM11.286,43.578c-3.456,0-6.27-3.376-6.27-7.524s2.814-7.524,6.27-7.524,6.27,3.376,6.27,7.524S14.741,43.578,11.286,43.578ZM22.571,26.023H35.218l-7.7,5.991-4.943-3.142ZM37.618,43.578H22.571V31.844L26.912,34.6a1.259,1.259,0,0,0,1.445-.068l9.262-7.205Z" transform="translate(0 -15.989)"/></g><g transform="translate(7.524 31.038)"><ellipse class="a" cx="3.762" cy="5.016" rx="3.762" ry="5.016"/></g></g></svg>