<svg xmlns="http://www.w3.org/2000/svg" xmlns:xlink="http://www.w3.org/1999/xlink" width="64" height="64" viewBox="0 0 64 64">
  <defs>
    <linearGradient id="linear-gradient" x1="0.5" x2="0.5" y2="1" gradientUnits="objectBoundingBox">
      <stop offset="0" stop-color="#fa9472"/>
      <stop offset="1" stop-color="#fb6394"/>
    </linearGradient>
    <filter id="Ellipse_3221" x="0" y="0" width="64" height="64" filterUnits="userSpaceOnUse">
      <feOffset dy="3" input="SourceAlpha"/>
      <feGaussianBlur stdDeviation="3" result="blur"/>
      <feFlood flood-color="#666" flood-opacity="0.161"/>
      <feComposite operator="in" in2="blur"/>
      <feComposite in="SourceGraphic"/>
    </filter>
    <linearGradient id="linear-gradient-2" x1="0.5" x2="0.5" y2="1" gradientUnits="objectBoundingBox">
      <stop offset="0" stop-color="#f2f3f6"/>
      <stop offset="1" stop-color="#fff"/>
    </linearGradient>
  </defs>
  <g id="Group_8824" data-name="Group 8824" transform="translate(-1673.5 -549.822)">
    <g transform="matrix(1, 0, 0, 1, 1673.5, 549.82)" filter="url(#Ellipse_3221)">
      <circle id="Ellipse_3221-2" data-name="Ellipse 3221" cx="23" cy="23" r="23" transform="translate(9 6)" fill="url(#linear-gradient)"/>
    </g>
    <path id="Icon_ionic-ios-add" data-name="Icon ionic-ios-add" d="M25.91,16.875H19.125V10.09a1.125,1.125,0,0,0-2.25,0v6.785H10.09a1.125,1.125,0,0,0,0,2.25h6.785V25.91a1.125,1.125,0,0,0,2.25,0V19.125H25.91a1.125,1.125,0,0,0,0-2.25Z" transform="translate(1705.742 553.044) rotate(45)" fill="url(#linear-gradient-2)"/>
  </g>
</svg>
