<svg xmlns="http://www.w3.org/2000/svg" xmlns:xlink="http://www.w3.org/1999/xlink" width="48" height="48" viewBox="0 0 48 48"><defs><style>.a{fill:#fff;}.b,.d{fill:#d0dbff;}.b{stroke:#707070;}.c{clip-path:url(#a);}.e{clip-path:url(#b);}.f{fill:#2f78fa;}.g{fill:url(#c);}.h{fill:#031d7c;}.i{fill:url(#d);}.j{fill:none;stroke:#d0dbff;stroke-linecap:round;stroke-miterlimit:10;stroke-width:4px;}.k{fill:url(#e);}.l{fill:url(#f);}.m{fill:#820000;}.n{fill:url(#g);}.o{fill:url(#h);}.p{fill:url(#i);}.q{fill:url(#j);}.r{fill:url(#k);}.s{fill:url(#l);}.t{fill:url(#m);}.u{fill:url(#n);}.v{fill:url(#o);}.w{fill:url(#p);}.x{fill:#003de6;}.y{fill:url(#q);}.z{fill:url(#r);}.aa{fill:url(#s);}.ab{fill:url(#t);}.ac{fill:url(#u);}.ad{fill:url(#v);}.ae{fill:url(#w);}.af{fill:url(#x);}.ag{fill:url(#y);}.ah{fill:url(#z);}.ai{fill:url(#aa);}.aj{fill:url(#ab);}.ak{fill:url(#ac);}.al{fill:url(#ad);}.am{fill:url(#ae);}.an{fill:url(#af);}.ao{fill:url(#ag);}.ap{fill:url(#ah);}.aq{fill:url(#ai);}.ar{fill:url(#aj);}.as{fill:url(#ak);}.at{fill:url(#al);}.au{fill:#f47960;}.av{fill:url(#am);}.aw{fill:url(#an);}.ax{fill:url(#ao);}.ay{fill:url(#ar);}.az{fill:url(#as);}</style><clipPath id="a"><circle class="a" cx="24" cy="24" r="24" transform="translate(-0.372 -0.395)"/></clipPath><clipPath id="b"><rect class="b" width="47.616" height="48.708" transform="translate(0 0)"/></clipPath><linearGradient id="c" x1="0.5" x2="0.5" y2="1.347" gradientUnits="objectBoundingBox"><stop offset="0.09" stop-color="#001fa9"/><stop offset="1" stop-color="#150e42"/></linearGradient><linearGradient id="d" y1="0.5" x2="1" y2="0.5" gradientUnits="objectBoundingBox"><stop offset="0" stop-color="#f47960"/><stop offset="1" stop-color="#ff1d25"/></linearGradient><linearGradient id="e" x1="390.713" y1="312.255" x2="391.713" y2="312.255" gradientUnits="objectBoundingBox"><stop offset="0" stop-color="#fdf53f"/><stop offset="1" stop-color="#d93c65"/></linearGradient><linearGradient id="f" x1="78.215" y1="-14.213" x2="78.856" y2="-14.213" gradientUnits="objectBoundingBox"><stop offset="0" stop-color="#53d8ff"/><stop offset="1" stop-color="#3840f7"/></linearGradient><linearGradient id="g" x1="200.099" y1="33.795" x2="201.095" y2="33.795" gradientUnits="objectBoundingBox"><stop offset="0" stop-color="#f9b776"/><stop offset="1" stop-color="#f47960"/></linearGradient><linearGradient id="h" x1="36.479" y1="6.457" x2="37.475" y2="6.457" gradientUnits="objectBoundingBox"><stop offset="0.12" stop-color="#021e9e"/><stop offset="0.53" stop-color="#001fa9"/><stop offset="1" stop-color="#201600"/></linearGradient><linearGradient id="i" x1="82.979" y1="192.769" x2="83.411" y2="192.769" xlink:href="#f"/><linearGradient id="j" x1="83.23" y1="96.136" x2="83.65" y2="96.136" gradientUnits="objectBoundingBox"><stop offset="0" stop-color="#2b3582"/><stop offset="1" stop-color="#150e42"/></linearGradient><linearGradient id="k" x1="78.273" y1="-5.152" x2="79.048" y2="-5.152" xlink:href="#j"/><linearGradient id="l" x1="316.516" y1="-4.958" x2="318.021" y2="-4.958" xlink:href="#g"/><linearGradient id="m" x1="39.583" y1="5.981" x2="40.584" y2="5.981" xlink:href="#h"/><linearGradient id="n" x1="178.868" y1="25.767" x2="179.191" y2="24.996" xlink:href="#g"/><linearGradient id="o" x1="135.695" y1="3.438" x2="134.533" y2="4.163" xlink:href="#g"/><linearGradient id="p" x1="684.653" y1="10.105" x2="685.676" y2="10.105" xlink:href="#g"/><linearGradient id="q" x1="673.669" y1="9.875" x2="667.866" y2="12.176" xlink:href="#g"/><linearGradient id="r" x1="43.232" y1="7.219" x2="44.255" y2="6.499" gradientUnits="objectBoundingBox"><stop offset="0" stop-color="#001fa9"/><stop offset="1" stop-color="#2f78fa"/></linearGradient><linearGradient id="s" x1="-29.475" y1="-159.493" x2="-28.328" y2="-159.493" xlink:href="#g"/><linearGradient id="t" x1="121.643" y1="142.511" x2="122.748" y2="142.511" xlink:href="#g"/><linearGradient id="u" x1="46.682" y1="7.374" x2="47.682" y2="7.374" xlink:href="#r"/><linearGradient id="v" x1="64.301" y1="-2.855" x2="65.108" y2="-2.855" xlink:href="#d"/><linearGradient id="w" x1="-8.966" y1="0.916" x2="-8.226" y2="0.916" xlink:href="#f"/><linearGradient id="x" x1="-9.298" y1="0.907" x2="-8.579" y2="0.907" xlink:href="#j"/><linearGradient id="y" x1="-16.308" y1="1.48" x2="-15.252" y2="1.48" xlink:href="#g"/><linearGradient id="z" x1="-2.428" y1="0.69" x2="-1.254" y2="0.69" xlink:href="#h"/><linearGradient id="aa" x1="-10.028" y1="1.926" x2="-8.729" y2="1.926" xlink:href="#f"/><linearGradient id="ab" x1="-7.401" y1="1.929" x2="-6.235" y2="1.929" xlink:href="#j"/><linearGradient id="ac" x1="-12.893" y1="4.374" x2="-11.919" y2="4.374" xlink:href="#g"/><linearGradient id="ad" x1="-1.472" y1="1.264" x2="-0.518" y2="1.264" xlink:href="#h"/><linearGradient id="ae" x1="-8.716" y1="2.523" x2="-8.354" y2="1.737" xlink:href="#g"/><linearGradient id="af" x1="-4.892" y1="1.493" x2="-5.908" y2="2.246" xlink:href="#g"/><linearGradient id="ag" x1="6.463" y1="4.021" x2="7.248" y2="4.021" xlink:href="#g"/><linearGradient id="ah" x1="-20.952" y1="2.98" x2="-25.154" y2="5.663" xlink:href="#g"/><linearGradient id="ai" x1="-0.043" y1="0.501" x2="1" y2="0.501" xlink:href="#g"/><linearGradient id="aj" x1="0.294" y1="0.904" x2="1.409" y2="0.904" xlink:href="#r"/><linearGradient id="ak" x1="0.166" y1="0.105" x2="0.985" y2="0.995" gradientUnits="objectBoundingBox"><stop offset="0.06" stop-color="#001fa9"/><stop offset="1" stop-color="#2f78fa"/></linearGradient><linearGradient id="al" y1="0.502" y2="0.502" xlink:href="#d"/><linearGradient id="am" x1="0" y1="0.5" x2="3.02" y2="0.5" xlink:href="#e"/><linearGradient id="an" y1="0.5" x2="3.022" y2="0.5" gradientUnits="objectBoundingBox"><stop offset="0" stop-color="#f47960"/><stop offset="1" stop-color="#f9b776"/></linearGradient><linearGradient id="ao" y1="0.504" y2="0.504" xlink:href="#d"/><linearGradient id="ar" x1="0" y1="0.5" x2="1" y2="0.5" xlink:href="#h"/><linearGradient id="as" x1="-10.85" y1="-9.072" x2="-9.753" y2="-9.072" xlink:href="#g"/></defs><g class="c" transform="translate(0.372 0.395)"><g transform="translate(0)"><rect class="d" width="47.616" height="48.708" transform="translate(0 0)"/><g class="e" transform="translate(0 0)"><g transform="translate(-5.963 3.181)"><g transform="translate(0 0)"><path class="a" d="M12.48,240.049a.857.857,0,0,1,.857-.85.832.832,0,0,1,.3.056.651.651,0,0,1,1.079-.4.93.93,0,0,1,1.835.206v.061a.93.93,0,1,1,.516,1.764v.011H13.192v-.012A.857.857,0,0,1,12.48,240.049Z" transform="translate(-10.953 -209)"/><path class="a" d="M116.29,78.759A1.264,1.264,0,0,1,118,77.575a.97.97,0,0,1,1.616-.6,1.385,1.385,0,0,1,2.741.307v.091a1.369,1.369,0,0,1,.563-.122,1.385,1.385,0,0,1,.206,2.755v.016h-5.773v-.018a1.266,1.266,0,0,1-1.066-1.247Z" transform="translate(-102.06 -66.589)"/><path class="a" d="M337.29,3.365a1.5,1.5,0,0,1,1.5-1.5,1.474,1.474,0,0,1,.532.1,1.147,1.147,0,0,1,1.909-.7,1.635,1.635,0,0,1,3.229.367v.106a1.635,1.635,0,1,1,.909,3.111v.018h-6.823V4.844a1.5,1.5,0,0,1-1.252-1.479Z" transform="translate(-296.017 0.01)"/><path class="a" d="M24.29,152.365a1.5,1.5,0,0,1,1.5-1.5,1.474,1.474,0,0,1,.532.1,1.147,1.147,0,0,1,1.909-.7,1.635,1.635,0,0,1,3.229.367v.106a1.635,1.635,0,1,1,.909,3.111v.018H25.542v-.022A1.5,1.5,0,0,1,24.29,152.365Z" transform="translate(-21.318 -130.757)"/><path class="a" d="M20.714,309.924c-.184,0-18.355-.06-18.764,0l-.017-.122c.417-.062,18.032,0,18.782,0Z" transform="translate(-1.698 -271.867)"/><path class="a" d="M25.792,252.928c-.234,0-23.433-.06-23.842,0l-.017-.122c.417-.061,22.9,0,23.861,0Z" transform="translate(-1.698 -221.845)"/><path class="a" d="M27.75,178.924c-.253,0-25.391-.06-25.8,0l-.017-.122c.417-.062,24.78,0,25.819,0Z" transform="translate(-1.698 -156.897)"/><rect class="a" width="34.191" height="0.122" transform="translate(0 12.022)"/><path class="f" d="M6.229,267.673l-.011-.958a2.122,2.122,0,0,1,2.788-2.048l1.132.367a2.123,2.123,0,0,0,2.369-.759l2.6-3.536a2.125,2.125,0,0,1,3.32-.122l1.811,2.1a2.123,2.123,0,0,0,3.615-.686l2.595-7.456a2.124,2.124,0,0,1,4.13.7V267.55Z" transform="translate(-5.457 -222.172)"/><path class="g" d="M61.045,131.486h.032l-.04-.024-9.544-27.723C50.513,100.972,48.33,98,44.9,98l.05.023c-3.037,0-5.722,3.076-6.626,5.975l-6.035,19.369-1.429,4.422a1.4,1.4,0,0,1-1.958.822l-.857-.428a1.4,1.4,0,0,0-1.618.263l-.979.979a1.4,1.4,0,0,1-2.152-.207l-.9-1.331a1.4,1.4,0,0,0-2.24-.111l-1.884,2.272a1.4,1.4,0,0,1-1.43.463l-1.46-.378a1.4,1.4,0,0,0-1.08.159l-1.958,1.193H60.731l.329.042Z" transform="translate(-10.839 -86.007)"/><path class="f" d="M232.563,244.071l-1.494,7.945a2.123,2.123,0,0,1-3.612.684l-1.811-2.1a2.125,2.125,0,0,0-3.32.122l-2.6,3.536a2.123,2.123,0,0,1-2.369.759l-1.132-.367a2.123,2.123,0,0,0-2.783,2.048l.011.836,27.423.143-4.065-13.726C235.829,240.155,232.525,241.869,232.563,244.071Z" transform="translate(-187.321 -212.132)"/><path class="h" d="M289.367,6.08,286.2,17.391l.164.045,3.167-11.311Z" transform="translate(-251.179 -5.335)"/><path class="i" d="M302.986,8.79s2.515.418,1.794,1.007,3.065,1.61,3.065,1.61a12.741,12.741,0,0,0-1.6,1.446c-.592.789-2.881-.775-2.378-1.264.864-.838-1.69.078-1.69.078Z" transform="translate(-265.205 -7.713)"/><path class="h" d="M106.632,88.06l-.092-.081.538-.623a3.4,3.4,0,0,1,2.521-1.218,1.151,1.151,0,0,0,1.1-.8l8.443-25.978a2.824,2.824,0,0,1,2.57-1.942L132.4,57v.122l-10.682.415a2.7,2.7,0,0,0-2.455,1.858l-8.444,25.978a1.271,1.271,0,0,1-1.224.888,3.272,3.272,0,0,0-2.428,1.176Z" transform="translate(-93.503 -50.024)"/><path class="j" d="M273.331,53.184a1.154,1.154,0,0,1-.881-.064" transform="translate(-239.112 -46.619)"/><path class="k" d="M263.4,27.405l-.551-.115Z" transform="translate(-230.686 -23.949)"/><path class="l" d="M240.207,113.58a.224.224,0,0,1-.165.191,4.025,4.025,0,0,1-2.095.1.084.084,0,0,1-.056-.111,3.208,3.208,0,0,0,.979.092A2.9,2.9,0,0,0,240.207,113.58Z" transform="translate(-208.776 -99.68)"/><path class="j" d="M109.8,235.97a1.155,1.155,0,0,0,.857-.23" transform="translate(-96.364 -206.892)"/><path class="d" d="M179.2,253.423a.058.058,0,0,1-.043-.017,1.016,1.016,0,0,1-.268-.434.061.061,0,1,1,.116-.037.909.909,0,0,0,.236.383.061.061,0,0,1-.042.105Z" transform="translate(-156.999 -221.94)"/><path class="d" d="M181.17,251.827h-.015a.349.349,0,0,1-.245-.428.062.062,0,0,1,.118.037.21.21,0,0,0,.022.168.217.217,0,0,0,.133.105.062.062,0,1,1-.013.122Z" transform="translate(-158.763 -220.596)"/><path class="m" d="M84.643,253.965l-4.5-1.254.323-1.161,4.5,1.256Z" transform="translate(-70.334 -220.768)"/><path class="n" d="M304.211,101.9l.575.558a.175.175,0,0,0,.215.02.457.457,0,0,0,.165-.208.173.173,0,0,0-.033-.182l-.575-.6a.173.173,0,0,0-.277.029l-.1.175A.171.171,0,0,0,304.211,101.9Z" transform="translate(-266.939 -89.017)"/><path class="o" d="M263.16,57.12s.684,2.278,1.125,3.278a4.185,4.185,0,0,1,1.224.382A9.524,9.524,0,0,1,267,62.562s-.259.5-.578.581l-2.878-1.972-2.311-2.652.1-1.238Z" transform="translate(-229.265 -50.129)"/><path class="p" d="M298.819,111.68a.223.223,0,0,1-.15.2,4,4,0,0,1-2.08.245.084.084,0,0,1-.064-.106,3.2,3.2,0,0,0,.979.02A2.872,2.872,0,0,0,298.819,111.68Z" transform="translate(-260.237 -98.013)"/><path class="q" d="M298.534,106.54a.786.786,0,0,1,.367.625h0a2.944,2.944,0,0,1-1.313.367,3.2,3.2,0,0,1-.979-.02c0-.015.017-.024.023-.042.086-.262.751-.163,1.432-.629C298.189,106.748,298.421,106.841,298.534,106.54Z" transform="translate(-260.314 -93.502)"/><path class="d" d="M304.611,109.926a.061.061,0,0,1-.06-.055.1.1,0,0,0-.054-.071.1.1,0,0,0-.089-.008.061.061,0,0,1-.051-.11.229.229,0,0,1,.316.176.061.061,0,0,1-.054.067Z" transform="translate(-267.089 -96.243)"/><path class="d" d="M301.968,110.8a.061.061,0,0,1-.059-.04.122.122,0,0,0-.141-.069.061.061,0,1,1-.038-.116.245.245,0,0,1,.295.143.061.061,0,0,1-.037.078Z" transform="translate(-264.769 -97.039)"/><path class="r" d="M239.938,108.03a.789.789,0,0,1,.317.651h0a2.917,2.917,0,0,1-1.336.268,3.208,3.208,0,0,1-.979-.092.109.109,0,0,1,.026-.039c.2-.187,1.131-.367,1.456-.755C239.569,107.888,239.758,108.15,239.938,108.03Z" transform="translate(-208.824 -94.784)"/><path class="s" d="M249.705,103.059l.06.452a.173.173,0,0,0,.155.149.453.453,0,0,0,.259-.056.176.176,0,0,0,.089-.164l-.032-.489a.173.173,0,0,0-.234-.15l-.188.071a.173.173,0,0,0-.11.188Z" transform="translate(-219.148 -90.21)"/><path class="d" d="M246.079,110.557a.062.062,0,0,1-.058-.039.9.9,0,0,0-.26-.367.06.06,0,0,1-.008-.086.062.062,0,0,1,.087-.007,1.023,1.023,0,0,1,.3.416.06.06,0,0,1-.035.078.048.048,0,0,1-.022,0Z" transform="translate(-215.669 -96.577)"/><path class="d" d="M243.8,111.823h-.01a.061.061,0,0,1-.05-.071.219.219,0,0,0-.045-.164.213.213,0,0,0-.146-.086.062.062,0,0,1-.055-.067.064.064,0,0,1,.067-.055.347.347,0,0,1,.3.393A.06.06,0,0,1,243.8,111.823Z" transform="translate(-213.7 -97.75)"/><path class="t" d="M238.714,55.6l.2.624s-.168,1.64-2.24,1.383-2.325-.6-2.325-.6,3.368,3.859,1.117,5.132a1.267,1.267,0,0,1-.422-.551l-1.622-5.208c0-.489.428-.667.831-.612a21.791,21.791,0,0,0,2.807.259Z" transform="translate(-204.857 -48.795)"/><path class="a" d="M241.694,17.574a4.088,4.088,0,0,1,2.174.868,7.488,7.488,0,0,0-.69.888,2.43,2.43,0,0,0-.979-.489,15.616,15.616,0,0,0,1.359,3.645.131.131,0,0,1-.075.176,3.073,3.073,0,0,1-2.383-.044l-2-2.815a2.436,2.436,0,0,1-.415-1.019l.245-.514A4.8,4.8,0,0,1,241.694,17.574Z" transform="translate(-209.483 -15.406)"/><path class="u" d="M247.4,11.63l.524,1.008a.168.168,0,0,1-.023.188.838.838,0,0,1-.932.209.157.157,0,0,1-.108-.122L246.72,12Z" transform="translate(-216.53 -10.206)"/><path class="v" d="M240.59,5.137a4.592,4.592,0,0,0,.3,1.068c.177.319.245.56.637.4a.9.9,0,0,0,.547-.946s-.048-.635-.229-.793S240.59,5.137,240.59,5.137Z" transform="translate(-211.15 -4.235)"/><path class="w" d="M241.45,11.31a4.043,4.043,0,0,1,0,.558l.313-.05c-.087-.154-.174-.308-.262-.463" transform="translate(-211.905 -9.925)"/><path class="x" d="M235.834,1.09a.447.447,0,0,1,.061-.275.024.024,0,0,1,.012-.01.289.289,0,0,1,.034-.051A.553.553,0,0,1,236.616.6a.368.368,0,0,1,.094.07c.471-.182.857-.182,1.052.108a.029.029,0,0,0,.05,0c.02-.04.066-.083.173-.07.186.024.3.319.179.7a.028.028,0,0,0,.026.038c.069,0,.187.028.066.245a.734.734,0,0,1-.335.334.028.028,0,0,1-.038-.016l-.113-.3a.028.028,0,0,0-.043-.013l-.091.058h-.027a.058.058,0,0,1-.066-.053c-.012-.122-.056-.414-.217-.384-.206.038-.935.319-1.224.179a.449.449,0,0,1-.144-.11v.049a.546.546,0,0,1-.125-.344Z" transform="translate(-206.974 -0.476)"/><path class="y" d="M250.475,7.789s-.142-.437.093-.439.181.476.055.576Z" transform="translate(-219.789 -6.449)"/><path class="z" d="M253.344,17.251a.245.245,0,0,1,.2.258.4.4,0,0,1-.18.295c-.1.069-.321.193-.321.193s.367,3.8,3.181,4.849c.415.154,1.623-1.355,1.623-1.355s-1.516.179-2.135-.585a9.322,9.322,0,0,1-.75-2.04s2.92,1.591,2.8,2.937c-.01.114.489-.245.489-.245a4.489,4.489,0,0,0-1.713-3.3A4.44,4.44,0,0,0,253.344,17.251Z" transform="translate(-222.077 -15.128)"/><path class="aa" d="M291.07,53.777a.21.21,0,0,0,.176-.1.623.623,0,0,0,.081-.192l.088-.3a1.307,1.307,0,0,0,.338.436.772.772,0,0,0,.334.171.055.055,0,0,0,.053-.088,1.742,1.742,0,0,0-.355-.367c.133.173.377.392.465.267.048-.066-.17-.221-.329-.314l.275.161c.043.026.056-.008.088-.047-.008-.1-.245-.2-.393-.335l.344.245c.036-.043-.007-.1-.047-.142a3.419,3.419,0,0,1-.567-.7c-.22.21-.386.16-.411.469A5.173,5.173,0,0,1,291.07,53.777Z" transform="translate(-255.453 -46.047)"/><path class="a" d="M290.742,52.344a.061.061,0,0,1-.06-.056.06.06,0,0,1,.055-.066,1.346,1.346,0,0,0,.633-.33.061.061,0,0,1,.086.088,1.475,1.475,0,0,1-.707.367Z" transform="translate(-255.113 -45.527)"/><path class="ab" d="M206.389,60.516a.212.212,0,0,1-.111-.168.625.625,0,0,1,.02-.207q.031-.154.064-.308a1.29,1.29,0,0,1-.5.227.817.817,0,0,1-.538-.076,2.377,2.377,0,0,1,.644-.191.8.8,0,0,1-.635,0,1.681,1.681,0,0,1,.537-.11l-.319.013c-.049,0-.113-.006-.122-.054L206,59.5l-.418.054c-.011-.054.055-.088.108-.1a3.968,3.968,0,0,0,.887-.378c.1.289.209.343.087.626A4.944,4.944,0,0,0,206.389,60.516Z" transform="translate(-180.196 -51.846)"/><path class="ac" d="M216.96,20.845c-.168.283-1.1,3.426-2.814,4.283-.186.093.367.489.367.489a6.143,6.143,0,0,0,2.57-1.958,7.114,7.114,0,0,0,.573-1.058,6.993,6.993,0,0,1,.628,1.457,1.759,1.759,0,0,1,.062.963l.789.157s-.514-1.346-.8-2.413a2.638,2.638,0,0,1-.069-1.968l-.171-.393" transform="translate(-187.908 -17.907)"/><path class="a" d="M213.947,58.667a.066.066,0,0,1-.034-.01,1.015,1.015,0,0,1-.455-.518c-.016-.037-.034-.076-.055-.122a.061.061,0,1,1,.109-.054c.022.044.04.084.058.122a.893.893,0,0,0,.411.466.062.062,0,0,1,.017.086A.061.061,0,0,1,213.947,58.667Z" transform="translate(-187.281 -50.834)"/><path class="ad" d="M249.011,23.67l.193-.288-.5-.027.093.481a3.649,3.649,0,0,0,.979,1.8,13.327,13.327,0,0,0,1.555.945l.864-.043-.381-.674a15.531,15.531,0,0,1-1.393-.722,3.11,3.11,0,0,1-1.384-1.346A.881.881,0,0,1,249.011,23.67Z" transform="translate(-218.268 -20.496)"/><path class="a" d="M252.542,17.517a.064.064,0,0,1-.037-.122.929.929,0,0,0,.407-.288.383.383,0,0,0,.047-.31.184.184,0,0,0-.122-.115.061.061,0,0,1,.038-.116.307.307,0,0,1,.2.188.513.513,0,0,1-.058.417,1.023,1.023,0,0,1-.458.344Z" transform="translate(-221.57 -14.536)"/><path class="a" d="M246.436,20.624a.061.061,0,0,1-.04-.015.574.574,0,0,1-.2-.439.062.062,0,0,1,.061-.06h0a.061.061,0,0,1,.06.062.452.452,0,0,0,.153.344.06.06,0,0,1,.006.086.058.058,0,0,1-.044.022Z" transform="translate(-216.073 -17.648)"/><path class="ae" d="M86.517,295a.223.223,0,0,0-.05.245,3.994,3.994,0,0,0,1.2,1.713.084.084,0,0,0,.122-.022,3.263,3.263,0,0,1-.669-.722A2.8,2.8,0,0,1,86.517,295Z" transform="translate(-75.871 -258.901)"/><path class="af" d="M87.712,293.594a.788.788,0,0,0-.712.146h0a2.922,2.922,0,0,0,.6,1.224,3.262,3.262,0,0,0,.669.722.087.087,0,0,0,.016-.045C88.324,295.259,87.581,294.983,87.712,293.594Z" transform="translate(-76.354 -257.64)"/><path class="ag" d="M90.144,290.018l-.266.367a.171.171,0,0,1-.207.06.448.448,0,0,1-.2-.171.174.174,0,0,1,0-.186l.256-.416a.173.173,0,0,1,.277-.023l.133.152a.175.175,0,0,1,.008.218Z" transform="translate(-78.499 -254.153)"/><path class="d" d="M91.452,302.092a.048.048,0,0,1,.026-.026.351.351,0,0,1,.262-.036.048.048,0,0,1,.04.055.051.051,0,0,1-.055.043.264.264,0,0,0-.214.029.047.047,0,0,1-.059-.066Z" transform="translate(-80.257 -265.062)"/><path class="d" d="M92.271,303.715l.006-.01a.266.266,0,0,1,.188-.1c.075-.007.08.01.13.058a.051.051,0,0,1,0,.07.049.049,0,0,1-.069,0c-.031-.029-.008-.037-.056-.033a.17.17,0,0,0-.122.062.048.048,0,1,1-.081-.051Z" transform="translate(-80.97 -266.454)"/><path class="ah" d="M93.435,239.188s-.245,2.367-.48,3.426a4.184,4.184,0,0,0-1.133.612,9.409,9.409,0,0,0-1.122,2.032s.351.443.678.46l2.457-2.487,1.764-3.043L95.264,239Z" transform="translate(-79.602 -209.753)"/><path class="ai" d="M178.09,249.576a.223.223,0,0,0,.245-.078,4.026,4.026,0,0,0,.9-1.894.083.083,0,0,0-.08-.094,3.2,3.2,0,0,1-.3.939A2.961,2.961,0,0,1,178.09,249.576Z" transform="translate(-156.298 -217.221)"/><path class="aj" d="M174.17,249.02a.789.789,0,0,0,.477.545h0a2.914,2.914,0,0,0,.765-1.128,3.2,3.2,0,0,0,.3-.939.092.092,0,0,0-.047.008c-.245.113-.773.9-1.26,1.049C174.182,248.625,174.35,248.9,174.17,249.02Z" transform="translate(-152.858 -217.211)"/><path class="ak" d="M170.077,254.313l.393.23a.173.173,0,0,1,.077.2.442.442,0,0,1-.153.217.17.17,0,0,1-.185.02l-.436-.218a.173.173,0,0,1-.048-.274l.138-.146a.171.171,0,0,1,.213-.029Z" transform="translate(-148.915 -223.171)"/><path class="d" d="M179.2,253.423a.058.058,0,0,1-.043-.017,1.016,1.016,0,0,1-.268-.434.061.061,0,1,1,.116-.037.909.909,0,0,0,.236.383.061.061,0,0,1-.042.105Z" transform="translate(-156.999 -221.94)"/><path class="d" d="M181.17,251.827h-.015a.349.349,0,0,1-.245-.428.062.062,0,0,1,.118.037.21.21,0,0,0,.022.168.217.217,0,0,0,.133.105.062.062,0,1,1-.013.122Z" transform="translate(-158.763 -220.596)"/><path class="al" d="M112.547,233.627l-.077.651s.477,1.577,2.457.925,2.173-1.032,2.173-1.032.016,1.062,2.468,1.882a1.26,1.26,0,0,0,.31-.62l-2.036-2.274a.7.7,0,0,0-.881-.21,21.625,21.625,0,0,1-2.705.789Z" transform="translate(-98.708 -204.381)"/><path class="a" d="M104.939,198.423a3.791,3.791,0,0,0-1.969,1.268,7.31,7.31,0,0,1,.848.734,2.413,2.413,0,0,1,.865-.664,15.567,15.567,0,0,1-.64,3.836.132.132,0,0,0,.108.16,3.07,3.07,0,0,0,2.325-.5l1.422-3.148a2.424,2.424,0,0,0,.214-1.079l-.286-.489A6.988,6.988,0,0,0,104.939,198.423Z" transform="translate(-90.37 -174.044)"/><path class="am" d="M126.3,191.17l-.322,1.089a.166.166,0,0,0,.059.18.807.807,0,0,0,.945.056.217.217,0,0,0,.093-.173l-.038-.928Z" transform="translate(-110.559 -167.776)"/><path class="an" d="M125.9,180.44a4.472,4.472,0,0,1,.514.979c.087.351.208.574-.193.724a.9.9,0,0,1-1.047-.314s-.4-.5-.376-.734S125.9,180.44,125.9,180.44Z" transform="translate(-109.523 -158.359)"/><path class="ao" d="M135.89,183.9a4.009,4.009,0,0,0,.381.409l-.263.177c-.042-.171-.072-.412-.114-.584" transform="translate(-119.262 -161.396)"/><path class="x" d="M122.195,174.186a.438.438,0,0,0-.232-.158h-.016a.477.477,0,0,0-.06-.013.553.553,0,0,0-.591.355.367.367,0,0,0-.021.122c-.469.19-.75.454-.694.8a.028.028,0,0,1-.039.032c-.042-.016-.1-.016-.173.067-.122.144,0,.441.353.635a.029.029,0,0,1,.007.047c-.049.047-.122.148.122.224a.734.734,0,0,0,.474.013.029.029,0,0,0,.016-.038l-.122-.3a.028.028,0,0,1,.022-.039l.106-.021.022-.015a.058.058,0,0,0,.012-.083c-.08-.1-.245-.34-.106-.428.176-.114.9-.409,1.012-.706a.439.439,0,0,0,.029-.179A.708.708,0,0,0,122.195,174.186Z" transform="translate(-105.6 -152.716)"/><path class="ap" d="M125.883,187.9s-.195-.416-.367-.257.193.471.355.458Z" transform="translate(-110.118 -164.651)"/><path class="aq" d="M155.98,198.332l-.3.115a1.658,1.658,0,0,0,.474-.277.784.784,0,0,0-.327.044,2.319,2.319,0,0,0,.277-.223.811.811,0,0,0-.535.1,1.286,1.286,0,0,0-.4.376l-.038-.313a.634.634,0,0,0-.049-.2.213.213,0,0,0-.158-.122,5.126,5.126,0,0,1,0,.857.678.678,0,0,0,0,.153c-.69.663-1.174.857-1.757.675a2.227,2.227,0,0,0-.267,1.181c1.395.259,2.316-1.358,2.44-1.591a3.947,3.947,0,0,1,.582-.5c.045-.032.1-.084.07-.132l-.379.186.5-.316C156.089,198.3,156.025,198.314,155.98,198.332Z" transform="translate(-134.186 -173.622)"/><path class="ar" d="M135.866,198.884c.217.245.94,1.262,1.516,1.375a1.258,1.258,0,0,0,1.26-.294l.456.6a1.95,1.95,0,0,1-2.753.574,2.55,2.55,0,0,1-.47-.367,7.009,7.009,0,0,0-.339,1.548,1.764,1.764,0,0,0,.122.958l-.744.3s.245-1.416.328-2.522a2.621,2.621,0,0,0-.307-1.944l.094-.418" transform="translate(-118.406 -174.383)"/><path class="a" d="M165.506,209.18a.06.06,0,0,1-.05-.027,4.982,4.982,0,0,0-.418-.541c-.039-.045-.072-.083-.1-.122a.061.061,0,0,1,.1-.075c.028.037.06.072.1.115a5.1,5.1,0,0,1,.426.553.06.06,0,0,1-.016.084.058.058,0,0,1-.034.012Z" transform="translate(-144.744 -182.893)"/><path class="as" d="M100.023,199.071a1.656,1.656,0,0,1-.348-.078.4.4,0,0,1-.234-.255c-.028-.122-.016-.281.1-.318a4.058,4.058,0,0,0-2.948,1.468,3.159,3.159,0,0,0-.066,3.168h0c.023.047.042.083.055.108h0a.25.25,0,0,0,.015.024h0v.007l.1-.021a2.591,2.591,0,0,0,.442-.122l.037-.02a.086.086,0,0,0,.038-.039.02.02,0,0,0,0-.018c-.024-.044-.047-.087-.067-.13l-.015-.031c-.018-.042-.037-.083-.051-.122l-.006-.015c-.013-.038-.024-.075-.036-.111l-.007-.029c-.011-.039-.02-.078-.027-.116V202.4c0-.033-.01-.065-.012-.1v-.137a.236.236,0,0,1,0-.029v-.115a.568.568,0,0,1,.015-.1.314.314,0,0,1,0-.033q.007-.04.018-.081v-.024q.013-.045.029-.092a.1.1,0,0,1,.012-.036,2.923,2.923,0,0,1,1.224-1.313,9.323,9.323,0,0,1-.348,2.144c-.462.868-1.985.979-1.985.979s1.468,1.257,1.851,1.027C100.393,202.921,100.023,199.071,100.023,199.071Z" transform="translate(-84.218 -174.139)"/><path class="at" d="M80.864,255.67l-1.966-.958a.872.872,0,0,1-.163-.122l-.428,1.536a.406.406,0,0,0,.28.5l3.73,1.039a.4.4,0,0,0,.5-.28l.431-1.542a1.157,1.157,0,0,1-.2.023l-2.177-.2Z" transform="translate(-68.712 -223.436)"/><path class="au" d="M85.774,244.572l-4.085-1.138-.029-.008a.4.4,0,0,0-.5.28l-.177.634a.354.354,0,0,0,.122.379.871.871,0,0,0,.163.122l1.965.957,2.178.2a1.025,1.025,0,0,0,.2-.024l.278-1A.4.4,0,0,0,85.774,244.572Z" transform="translate(-71.063 -213.624)"/><path class="av" d="M96.085,259.771l-.726-.2.255-.914.726.2Z" transform="translate(-83.69 -227.004)"/><path class="aw" d="M97.324,261.124,96.88,261l.155-.559.444.124-.155.559Z" transform="translate(-85.025 -228.571)"/><path class="ax" d="M96.341,245.66l-.281-.08.022-.081.281.08Z" transform="translate(-84.306 -215.458)"/><path class="i" d="M108.943,249.178l-.283-.078.022-.081.283.078Z" transform="translate(-95.364 -218.546)"/><path class="ax" d="M97.533,242.628c-.489-.134-.947,0-1.033.313l.217.06c.065-.231.412-.336.777-.235s.612.367.543.6l.218.06c.086-.307-.237-.666-.722-.8Z" transform="translate(-84.692 -212.892)"/><path class="ay" d="M113.92,203.077l-.245-.245.489-.122v.489a3.633,3.633,0,0,1-.612,1.958,12.947,12.947,0,0,1-1.346,1.224l-.857.122.245-.734a15.537,15.537,0,0,0,1.224-.979,3.108,3.108,0,0,0,1.1-1.591A.98.98,0,0,0,113.92,203.077Z" transform="translate(-97.725 -177.904)"/><path class="az" d="M103.292,236.718a.211.211,0,0,1-.19.062.633.633,0,0,1-.2-.073l-.28-.143a1.277,1.277,0,0,1,.084.545.755.755,0,0,1-.1.361.055.055,0,0,1-.1-.022,1.74,1.74,0,0,1-.023-.512c.033.215.026.542-.122.522-.081-.011-.044-.278,0-.456-.023.1-.048.208-.071.312-.011.048-.045.034-.094.032-.066-.073.02-.319.026-.516l-.059.418c-.055,0-.07-.076-.071-.131a3.934,3.934,0,0,0-.122-.956c.3-.016.319-.171.5-.049A8.02,8.02,0,0,0,103.292,236.718Z" transform="translate(-89.491 -207.179)"/><path class="a" d="M100.586,235.193a.061.061,0,0,1,0-.122,1.346,1.346,0,0,0,.673-.236.06.06,0,0,1,.086,0,.061.061,0,0,1,0,.087,1.468,1.468,0,0,1-.749.266Z" transform="translate(-88.227 -206.082)"/><path class="a" d="M134.42,198.779a.065.065,0,0,1-.033-.01.062.062,0,0,1-.02-.084.45.45,0,0,0,.048-.367.061.061,0,0,1,.039-.077.062.062,0,0,1,.077.039.571.571,0,0,1-.06.476A.064.064,0,0,1,134.42,198.779Z" transform="translate(-117.918 -173.979)"/><path class="a" d="M125.272,198.18h-.007a1.014,1.014,0,0,1-.515-.252.46.46,0,0,1-.122-.333.406.406,0,0,1,.146-.286.059.059,0,1,1,.081.087.283.283,0,0,0-.1.2.341.341,0,0,0,.093.245.919.919,0,0,0,.456.215.062.062,0,0,1,.043.076.059.059,0,0,1-.07.047Z" transform="translate(-109.377 -173.148)"/></g></g></g></g></g></svg>