<svg xmlns="http://www.w3.org/2000/svg" width="174" height="44.599" viewBox="0 0 174 44.599"><defs><style>.a{fill:none;stroke:#fff;stroke-linecap:round;stroke-width:3px;}</style></defs><g transform="translate(-428 -831.401)"><line class="a" y2="15" transform="translate(429.5 859.5)"/><line class="a" y2="23" transform="translate(438.5 851.5)"/><line class="a" y2="41.599" transform="translate(447.5 832.901)"/><line class="a" y2="30.786" transform="translate(456.5 843.714)"/><line class="a" y2="23.388" transform="translate(465.5 851.112)"/><line class="a" y2="41.599" transform="translate(474.5 832.901)"/><line class="a" y2="23.388" transform="translate(483.5 851.112)"/><line class="a" y2="30.786" transform="translate(492.5 843.714)"/><line class="a" y2="15" transform="translate(501.5 859.5)"/><line class="a" y2="41.599" transform="translate(510.5 832.901)"/><line class="a" y2="25" transform="translate(519.5 849.5)"/><line class="a" y2="30.786" transform="translate(528.5 843.714)"/><line class="a" y2="20.8" transform="translate(537.5 853.7)"/><line class="a" y2="41.599" transform="translate(546.5 832.901)"/><line class="a" y2="20.8" transform="translate(555.5 853.7)"/><line class="a" y2="28.225" transform="translate(564.5 846.275)"/><line class="a" y2="15" transform="translate(573.5 859.5)"/><line class="a" y2="41.599" transform="translate(582.5 832.901)"/><line class="a" y2="28.225" transform="translate(591.5 846.275)"/><line class="a" y2="15" transform="translate(600.5 859.5)"/></g></svg>