<svg width="629" height="526" viewBox="0 0 629 526" fill="none" xmlns="http://www.w3.org/2000/svg">
<path d="M191.722 374.002C165.847 215.423 -108.214 108.927 55.8333 82.1595C219.881 55.3922 555.023 -13.8965 580.898 144.683C606.773 303.262 540.907 445.734 376.859 472.501C212.812 499.269 217.597 532.581 191.722 374.002Z" fill="#FFF8D8" fill-opacity="0.67"/>
<g clip-path="url(#clip0)">
<path d="M569 400.4H68.9999V400.65H569V400.4Z" fill="#EBEBEB"/>
<path d="M518.9 416.49H485.78V416.74H518.9V416.49Z" fill="#EBEBEB"/>
<path d="M400.22 419.21H391.53V419.46H400.22V419.21Z" fill="#EBEBEB"/>
<path d="M484.78 407.21H465.59V407.46H484.78V407.21Z" fill="#EBEBEB"/>
<path d="M164.65 408.89H121.46V409.14H164.65V408.89Z" fill="#EBEBEB"/>
<path d="M179.89 408.89H173.56V409.14H179.89V408.89Z" fill="#EBEBEB"/>
<path d="M294.15 413.11H200.47V413.36H294.15V413.11Z" fill="#EBEBEB"/>
<path d="M306 355.8H112.91C111.397 355.797 109.947 355.195 108.879 354.124C107.81 353.053 107.21 351.603 107.21 350.09V78.66C107.223 77.156 107.829 75.718 108.896 74.6582C109.964 73.5985 111.406 73.0026 112.91 73H306C307.514 73 308.967 73.6016 310.037 74.6724C311.108 75.7433 311.71 77.1956 311.71 78.71V350.09C311.71 351.604 311.108 353.057 310.037 354.128C308.967 355.198 307.514 355.8 306 355.8ZM112.91 73.2C111.463 73.2026 110.077 73.7791 109.056 74.8027C108.034 75.8264 107.46 77.2136 107.46 78.66V350.09C107.46 351.536 108.034 352.924 109.056 353.947C110.077 354.971 111.463 355.547 112.91 355.55H306C307.447 355.547 308.834 354.971 309.858 353.948C310.881 352.924 311.457 351.537 311.46 350.09V78.66C311.457 77.2127 310.881 75.8255 309.858 74.8021C308.834 73.7787 307.447 73.2026 306 73.2H112.91Z" fill="#EBEBEB"/>
<path d="M522.31 355.8H329.21C327.696 355.797 326.245 355.195 325.175 354.125C324.105 353.054 323.503 351.604 323.5 350.09V78.66C323.516 77.1551 324.124 75.7171 325.193 74.6576C326.262 73.5981 327.705 73.0025 329.21 73H522.31C523.812 73.0052 525.252 73.6022 526.317 74.6617C527.382 75.7212 527.987 77.1578 528 78.66V350.09C528 351.601 527.401 353.05 526.335 354.121C525.268 355.191 523.821 355.795 522.31 355.8ZM329.21 73.2C327.763 73.2026 326.375 73.7787 325.352 74.8021C324.329 75.8255 323.753 77.2127 323.75 78.66V350.09C323.753 351.537 324.329 352.924 325.352 353.948C326.375 354.971 327.763 355.547 329.21 355.55H522.31C523.757 355.547 525.144 354.971 526.168 353.948C527.191 352.924 527.767 351.537 527.77 350.09V78.66C527.767 77.2127 527.191 75.8255 526.168 74.8021C525.144 73.7787 523.757 73.2026 522.31 73.2H329.21Z" fill="#EBEBEB"/>
<path d="M491.94 97.78H297.15V268.88H491.94V97.78Z" fill="#E6E6E6"/>
<path d="M497.03 97.78H299.53V268.88H497.03V97.78Z" fill="#F0F0F0"/>
<path d="M491.94 268.87H297.15V273.59H491.94V268.87Z" fill="#E6E6E6"/>
<path d="M505.49 268.87H307.99V273.59H505.49V268.87Z" fill="#F0F0F0"/>
<path d="M489.91 261.77V104.89L306.64 104.89V261.77H489.91Z" fill="#FAFAFA"/>
<path d="M331.17 261.76L351.38 104.89H386.37L366.15 261.76H331.17Z" fill="white"/>
<path d="M373.66 261.76L393.88 104.89H407.52L387.3 261.76H373.66Z" fill="white"/>
<path d="M489.92 261.76V104.88H489.02V261.76H489.92Z" fill="#E6E6E6"/>
<path opacity="0.5" d="M498.7 119.84H303.91L303.26 107.65H498.05L498.7 119.84Z" fill="#E0E0E0"/>
<path opacity="0.5" d="M498.7 139.87H303.91L303.26 127.69H498.05L498.7 139.87Z" fill="#E0E0E0"/>
<path opacity="0.5" d="M498.7 159.9H303.91L303.26 147.72H498.05L498.7 159.9Z" fill="#E0E0E0"/>
<path opacity="0.5" d="M498.7 179.94H303.91L303.26 167.75H498.05L498.7 179.94Z" fill="#E0E0E0"/>
<path opacity="0.5" d="M498.7 199.97H303.91L303.26 187.78H498.05L498.7 199.97Z" fill="#E0E0E0"/>
<path opacity="0.5" d="M498.7 220H303.91L303.26 207.81H498.05L498.7 220Z" fill="#E0E0E0"/>
<path d="M188.5 133.72H127.65V254.03H188.5V133.72Z" fill="#E0E0E0"/>
<path d="M192.11 133.72H130.06V254.03H192.11V133.72Z" fill="#F5F5F5"/>
<path d="M135.25 140.68V247.07H186.9V140.68H135.25Z" fill="white"/>
<path d="M269.74 115.36H208.89V235.67H269.74V115.36Z" fill="#E0E0E0"/>
<path d="M273.35 115.36H211.3V235.67H273.35V115.36Z" fill="#F5F5F5"/>
<path d="M216.5 122.32V228.71H268.16V122.32H216.5Z" fill="white"/>
<path d="M258.93 289.52H233.32V400.4H258.93V289.52Z" fill="#E6E6E6"/>
<path d="M254.07 400.4H258.93V389.11H248.97L254.07 400.4Z" fill="#F0F0F0"/>
<path d="M163.2 289.52H137.59V400.4H163.2V289.52Z" fill="#E6E6E6"/>
<path d="M258.93 289.52H158.95V393.47H258.93V289.52Z" fill="#F0F0F0"/>
<path d="M210.57 296.43V379.35H255.15V296.43H210.57Z" fill="#E6E6E6"/>
<path d="M162.72 296.43V379.35H207.3V296.43H162.72Z" fill="#E6E6E6"/>
<path d="M189.43 299.6H180.61C176.914 299.636 173.324 298.361 170.48 296H199.56C196.716 298.361 193.126 299.636 189.43 299.6Z" fill="#F0F0F0"/>
<path d="M237.73 299.6H228.91C225.213 299.638 221.623 298.362 218.78 296H247.86C245.016 298.361 241.426 299.636 237.73 299.6Z" fill="#F0F0F0"/>
<path d="M163.82 400.4H158.95V389.11H168.92L163.82 400.4Z" fill="#F0F0F0"/>
<path d="M182.42 278.94C182.42 278.94 183.18 289.52 212.33 289.52C241.48 289.52 242.24 278.94 242.24 278.94H182.42Z" fill="#E6E6E6"/>
<path d="M297.32 326.37H516.14V308.05H297.32V326.37Z" fill="#EBEBEB"/>
<path d="M297.33 326.37H359.44V308.05H297.33V326.37Z" fill="#E0E0E0"/>
<path d="M503.05 400.4H516.15V326.37H503.05V400.4Z" fill="#EBEBEB"/>
<path d="M503.05 331.5L516.15 328.94V326.37H503.05V331.5Z" fill="#E0E0E0"/>
<path d="M297.32 400.4H310.42V326.37H297.32V400.4Z" fill="#E0E0E0"/>
<path d="M346.34 400.4H359.44V326.37H346.34V400.4Z" fill="#EBEBEB"/>
<path d="M346.34 331.5L359.44 328.94V326.37H346.34V331.5Z" fill="#E0E0E0"/>
<path d="M462.04 400.4H475.14V326.37H462.04V400.4Z" fill="#E0E0E0"/>
<path d="M319 445.56C426.082 445.56 512.89 440.492 512.89 434.24C512.89 427.988 426.082 422.92 319 422.92C211.917 422.92 125.11 427.988 125.11 434.24C125.11 440.492 211.917 445.56 319 445.56Z" fill="#F5F5F5"/>
<path d="M301.51 147.33H182.22C180.331 147.31 178.459 147.684 176.722 148.427C174.985 149.17 173.422 150.266 172.132 151.646C170.842 153.026 169.852 154.658 169.227 156.441C168.602 158.224 168.354 160.117 168.5 162L185.6 416.4C185.923 420.363 187.709 424.064 190.612 426.781C193.514 429.499 197.324 431.039 201.3 431.1H320.59C322.482 431.121 324.357 430.748 326.096 430.004C327.835 429.259 329.4 428.16 330.69 426.777C331.981 425.393 332.968 423.756 333.59 421.969C334.211 420.182 334.453 418.285 334.3 416.4L317.2 162C316.87 158.044 315.082 154.352 312.183 151.641C309.283 148.93 305.479 147.393 301.51 147.33Z" fill="#9AA9E2"/>
<path opacity="0.3" d="M301.51 147.33H182.22C180.331 147.31 178.459 147.684 176.722 148.427C174.985 149.17 173.422 150.266 172.132 151.646C170.842 153.026 169.852 154.658 169.227 156.441C168.602 158.224 168.354 160.117 168.5 162L185.6 416.4C185.923 420.363 187.709 424.064 190.612 426.781C193.514 429.499 197.324 431.039 201.3 431.1H320.59C322.482 431.121 324.357 430.748 326.096 430.004C327.835 429.259 329.4 428.16 330.69 426.777C331.981 425.393 332.968 423.756 333.59 421.969C334.211 420.182 334.453 418.285 334.3 416.4L317.2 162C316.87 158.044 315.082 154.352 312.183 151.641C309.283 148.93 305.479 147.393 301.51 147.33Z" fill="white"/>
<path d="M168.646 201.839L167.648 201.906L169.259 225.902L170.257 225.835L168.646 201.839Z" fill="#9AA9E2"/>
<path d="M171.143 238.451L170.145 238.518L170.869 249.274L171.866 249.206L171.143 238.451Z" fill="#9AA9E2"/>
<path d="M194.26 419C194.341 419.97 194.066 420.936 193.487 421.717C192.907 422.499 192.062 423.043 191.111 423.246C190.159 423.45 189.166 423.299 188.317 422.823C187.468 422.347 186.822 421.578 186.5 420.66C186.003 419.306 185.7 417.889 185.6 416.45L168.5 162C168.399 160.568 168.513 159.128 168.84 157.73C169.041 156.777 169.583 155.93 170.364 155.348C171.144 154.766 172.111 154.489 173.081 154.569C174.052 154.649 174.96 155.08 175.635 155.782C176.311 156.483 176.707 157.407 176.75 158.38L194.26 419Z" fill="#9AA9E2"/>
<path d="M320.59 426.33H209.76C207.008 426.255 204.379 425.174 202.372 423.29C200.365 421.406 199.119 418.851 198.87 416.11L181.77 161.72C181.66 160.492 181.81 159.254 182.21 158.087C182.61 156.921 183.251 155.851 184.092 154.949C184.932 154.046 185.953 153.331 187.088 152.848C188.223 152.366 189.447 152.128 190.68 152.15H301.51C304.26 152.224 306.888 153.304 308.895 155.186C310.902 157.068 312.149 159.62 312.4 162.36L329.5 416.76C329.606 417.988 329.454 419.224 329.053 420.389C328.652 421.554 328.011 422.622 327.171 423.524C326.331 424.426 325.312 425.142 324.178 425.625C323.044 426.108 321.822 426.349 320.59 426.33ZM190.68 153.22C189.594 153.2 188.516 153.409 187.516 153.834C186.516 154.258 185.617 154.889 184.878 155.684C184.138 156.48 183.574 157.422 183.223 158.45C182.872 159.478 182.741 160.568 182.84 161.65L199.94 416C200.162 418.473 201.285 420.779 203.095 422.479C204.906 424.178 207.277 425.154 209.76 425.22H320.59C321.676 425.24 322.754 425.031 323.754 424.606C324.753 424.181 325.652 423.551 326.392 422.755C327.132 421.96 327.696 421.018 328.047 419.99C328.398 418.962 328.528 417.872 328.43 416.79L311.33 162.4C311.108 159.927 309.985 157.621 308.174 155.921C306.364 154.222 303.992 153.246 301.51 153.18L190.68 153.22Z" fill="white"/>
<g opacity="0.5">
<path opacity="0.5" d="M292.987 267.604C309.888 249.732 307.393 219.926 287.413 201.033C267.434 182.139 237.536 181.311 220.634 199.184C203.733 217.057 206.228 246.862 226.208 265.756C246.187 284.65 276.085 285.477 292.987 267.604Z" fill="#9AA9E2"/>
<path opacity="0.5" d="M285.75 260.771C299.27 246.474 297.274 222.631 281.291 207.517C265.309 192.402 241.392 191.74 227.871 206.038C214.351 220.335 216.347 244.178 232.33 259.292C248.312 274.406 272.23 275.069 285.75 260.771Z" fill="white"/>
<path opacity="0.5" d="M278.508 253.971C288.649 243.251 287.155 225.37 275.171 214.033C263.187 202.697 245.251 202.197 235.109 212.917C224.968 223.637 226.462 241.518 238.446 252.855C250.43 264.192 268.366 264.692 278.508 253.971Z" fill="#9AA9E2"/>
<path opacity="0.5" d="M271.284 247.091C278.046 239.94 277.048 228.016 269.054 220.457C261.061 212.898 249.099 212.567 242.337 219.718C235.575 226.868 236.573 238.793 244.567 246.352C252.56 253.911 264.522 254.242 271.284 247.091Z" fill="white"/>
<path opacity="0.5" d="M264.044 240.279C267.426 236.704 266.928 230.742 262.932 226.961C258.936 223.181 252.955 223.015 249.573 226.59C246.191 230.164 246.689 236.127 250.685 239.907C254.681 243.687 260.662 243.854 264.044 240.279Z" fill="#9AA9E2"/>
</g>
<path d="M265.89 297.51C265.71 297.51 265.54 297.51 265.36 297.51C263.987 294.86 261.921 292.632 259.381 291.065C256.842 289.497 253.924 288.649 250.94 288.61C249.409 288.609 247.888 288.845 246.43 289.31C244.992 286.674 242.877 284.468 240.304 282.92C237.731 281.372 234.793 280.536 231.79 280.5C229.903 280.472 228.028 280.817 226.275 281.516C224.521 282.214 222.922 283.251 221.571 284.569C220.219 285.886 219.14 287.458 218.397 289.193C217.654 290.928 217.261 292.793 217.24 294.68C215.747 294.768 214.287 295.154 212.946 295.815C211.605 296.477 210.41 297.4 209.431 298.53C208.453 299.661 207.711 300.976 207.248 302.398C206.786 303.82 206.613 305.32 206.74 306.81C206.999 310.094 208.476 313.163 210.881 315.415C213.286 317.666 216.446 318.938 219.74 318.98H267.36C268.742 318.996 270.113 318.723 271.383 318.178C272.654 317.634 273.796 316.829 274.738 315.817C275.68 314.805 276.399 313.607 276.851 312.301C277.302 310.994 277.476 309.608 277.36 308.23C277.124 305.337 275.818 302.635 273.697 300.653C271.576 298.671 268.793 297.55 265.89 297.51Z" fill="white"/>
<path d="M296.22 181.16H295.81C294.74 179.095 293.129 177.36 291.149 176.139C289.169 174.919 286.895 174.259 284.57 174.23C283.376 174.227 282.188 174.41 281.05 174.77C279.927 172.717 278.279 171 276.274 169.795C274.269 168.589 271.979 167.939 269.64 167.91C266.678 167.867 263.82 169.002 261.694 171.064C259.568 173.126 258.347 175.948 258.3 178.91C257.136 178.979 255.998 179.281 254.952 179.797C253.906 180.312 252.974 181.032 252.211 181.914C251.448 182.795 250.869 183.821 250.508 184.93C250.147 186.038 250.012 187.208 250.11 188.37C250.314 190.928 251.466 193.318 253.339 195.071C255.213 196.825 257.674 197.816 260.24 197.85H297.36C298.439 197.865 299.509 197.654 300.501 197.23C301.494 196.807 302.387 196.18 303.122 195.391C303.858 194.602 304.42 193.667 304.773 192.647C305.125 191.627 305.261 190.545 305.17 189.47C304.972 187.222 303.947 185.128 302.294 183.593C300.64 182.058 298.476 181.191 296.22 181.16Z" fill="white"/>
<path opacity="0.3" d="M311 336.86H242.44C241.944 336.854 241.453 336.952 240.998 337.147C240.542 337.342 240.132 337.629 239.794 337.992C239.456 338.354 239.198 338.783 239.035 339.251C238.873 339.719 238.809 340.216 238.85 340.71L241.63 381.6C241.71 382.639 242.176 383.611 242.937 384.324C243.698 385.036 244.698 385.438 245.74 385.45H254.94L255.71 396.76L266.24 385.45H314.24C314.736 385.457 315.228 385.361 315.684 385.166C316.14 384.972 316.551 384.684 316.889 384.321C317.227 383.959 317.486 383.529 317.648 383.06C317.81 382.592 317.872 382.094 317.83 381.6L315.06 340.71C314.976 339.681 314.516 338.719 313.767 338.008C313.017 337.297 312.032 336.889 311 336.86Z" fill="white"/>
<path d="M310.47 363.74H246.61L246.26 358.57H310.13L310.47 363.74Z" fill="white"/>
<path d="M291 374.48H247.34L246.99 369.31H290.65L291 374.48Z" fill="white"/>
<path d="M309.75 353H245.88L245.53 347.83H309.4L309.75 353Z" fill="white"/>
<path d="M364.64 164L367.27 165.89C368.183 166.557 369.103 167.187 370.03 167.78C371.88 169.01 373.74 170.24 375.62 171.36C377.5 172.48 379.4 173.54 381.28 174.48C383.042 175.369 384.867 176.127 386.74 176.75C386.325 176.647 385.893 176.627 385.47 176.69C385.217 176.721 384.971 176.792 384.74 176.9C384.45 177.05 384.54 177.06 384.69 176.97C385.269 176.569 385.79 176.091 386.24 175.55C387.556 173.979 388.746 172.308 389.8 170.55C390.97 168.71 392.09 166.76 393.16 164.76C394.23 162.76 395.3 160.71 396.29 158.76L396.36 158.63C396.867 157.633 397.726 156.86 398.772 156.463C399.817 156.065 400.973 156.071 402.014 156.479C403.056 156.887 403.908 157.669 404.404 158.671C404.901 159.673 405.006 160.824 404.7 161.9C403.341 166.665 401.619 171.318 399.55 175.82C398.429 178.242 397.107 180.567 395.6 182.77C394.657 184.135 393.552 185.381 392.31 186.48C391.401 187.272 390.371 187.913 389.26 188.38C388.478 188.701 387.658 188.919 386.82 189.03C385.818 189.144 384.803 189.087 383.82 188.86C381.149 188.24 378.533 187.401 376 186.35C373.63 185.385 371.313 184.294 369.06 183.08C366.84 181.9 364.677 180.657 362.57 179.35C361.52 178.69 360.48 178.02 359.45 177.35C358.42 176.68 357.45 175.98 356.32 175.16C355.057 173.996 354.267 172.408 354.099 170.699C353.93 168.99 354.396 167.279 355.407 165.891C356.419 164.503 357.905 163.536 359.583 163.172C361.262 162.809 363.015 163.075 364.51 163.92L364.64 164Z" fill="#453890"/>
<path d="M398.81 156.89L401.52 152.31L406.72 157.92C405.969 159.549 404.613 160.822 402.94 161.47C402.564 161.598 402.164 161.638 401.77 161.586C401.376 161.534 401 161.391 400.67 161.17L399.67 160.53C399.086 160.15 398.671 159.56 398.511 158.882C398.351 158.204 398.458 157.491 398.81 156.89Z" fill="#FFB573"/>
<path d="M408.89 149.58L410.04 150.29C410.401 150.513 410.704 150.818 410.926 151.179C411.148 151.541 411.282 151.949 411.318 152.372C411.354 152.795 411.291 153.22 411.133 153.614C410.975 154.008 410.728 154.359 410.41 154.64L406.72 157.92L401.52 152.31L406.05 149.57C406.478 149.309 406.97 149.171 407.471 149.173C407.973 149.175 408.464 149.316 408.89 149.58Z" fill="#FFB573"/>
<path d="M301.02 426.12L308.94 426.35L311.92 408.01L304.01 407.78L301.02 426.12Z" fill="#FFB573"/>
<path d="M310.19 424.12L301.34 423C301.191 422.977 301.04 423.013 300.918 423.101C300.797 423.189 300.714 423.322 300.69 423.47L299.38 430.41C299.332 430.777 299.431 431.149 299.656 431.443C299.881 431.737 300.213 431.93 300.58 431.98C303.67 432.32 305.16 432.32 309.05 432.81C311.44 433.12 317.67 434.62 320.98 434.21C324.29 433.8 323.79 430.55 322.35 430.43C315.9 429.87 313.48 426.8 311.48 424.77C311.133 424.417 310.68 424.189 310.19 424.12Z" fill="#263238"/>
<path opacity="0.2" d="M304 407.79L311.92 408.02L310.38 417.47L302.46 417.24L304 407.79Z" fill="black"/>
<path d="M347.29 232C347.29 232 340.38 297.59 335.78 319.87C330.78 344.27 314.61 415.65 314.61 415.65L300.12 414.58C300.12 414.58 308.06 340.74 314.56 316.84C314.56 292.02 320.56 222.46 320.56 222.46L347.29 232Z" fill="#263238"/>
<path opacity="0.3" d="M324.2 254.17C324.07 249.04 321.29 247.39 318.55 247.45C317.55 259.79 316.48 274.92 315.67 288.57C320.53 280.69 324.56 268.42 324.2 254.17Z" fill="black"/>
<path d="M299.69 414.68L315.21 415.83L316.99 409.98L299.12 409.8L299.69 414.68Z" fill="white"/>
<path d="M220.71 364.65L225.7 370.82L240.63 360.05L235.63 353.89L220.71 364.65Z" fill="#FFB573"/>
<path d="M226.78 370.83L222.34 363.1C222.27 362.969 222.151 362.87 222.009 362.825C221.867 362.78 221.713 362.793 221.58 362.86L215.25 366C214.929 366.183 214.693 366.485 214.593 366.841C214.494 367.197 214.54 367.577 214.72 367.9C216.31 370.57 217.21 371.76 219.16 375.16C220.36 377.25 223.52 383.26 225.16 386.16C226.8 389.06 229.63 387.33 229.16 385.96C227.16 379.8 226.59 375.09 227 372.28C227.091 371.786 227.014 371.275 226.78 370.83Z" fill="#263238"/>
<path opacity="0.2" d="M235.63 353.89L240.63 360.06L232.93 365.6L227.93 359.44L235.63 353.89Z" fill="black"/>
<path d="M332.84 226.36C332.84 226.36 313.35 282.14 304.49 303.1C294.8 326.05 236.85 366.81 236.85 366.81L227.7 355.52C227.7 355.52 267.08 316.05 281.7 297.33C289.8 271.84 307.09 217.15 307.09 217.15L332.84 226.36Z" fill="#263238"/>
<path d="M227.33 355.06L237.22 367.26L242.05 364.47L230.47 351.55L227.33 355.06Z" fill="white"/>
<path d="M347.21 232.38L307.05 217.15C308.05 213.48 313.3 202.7 317.97 187.69C321.502 176.598 324.071 165.223 325.65 153.69C325.691 153.354 325.8 153.03 325.971 152.737C326.141 152.444 326.37 152.19 326.642 151.988C326.914 151.787 327.225 151.644 327.555 151.566C327.885 151.489 328.227 151.48 328.56 151.54C329.31 151.67 330.2 151.84 331.18 152.03C333.71 152.54 336.87 153.26 339.88 154.18C345.658 155.874 351.334 157.897 356.88 160.24C358.737 161.076 360.544 162.021 362.29 163.07C363.329 163.662 364.293 164.377 365.16 165.2C365.474 165.451 365.733 165.763 365.924 166.117C366.115 166.471 366.232 166.86 366.27 167.26C366.27 173 360.52 195.24 347.21 232.38Z" fill="#F0F0F0"/>
<path d="M356.08 159.87C351.56 156.93 351.78 153.57 353.31 150.33C353.694 149.529 354.125 148.751 354.6 148L350.25 140.65L347.05 135.26C346.35 141.18 344.21 151.66 339.21 153.98C341.942 157.838 345.845 160.714 350.34 162.18C357.72 164.48 356.08 159.87 356.08 159.87Z" fill="#FFB573"/>
<path d="M350.06 162.06L349.99 160.18L344.99 161.16L350.06 162.06Z" fill="#E0E0E0"/>
<path d="M350.06 162.06L350.99 160.53L354.22 164.46L350.06 162.06Z" fill="#E0E0E0"/>
<path d="M339.89 153.08C342.931 155.878 346.327 158.266 349.99 160.18C347.99 161.41 346.09 164.65 345.37 167.33C343.75 166.2 337.27 155.54 336.37 152.61L339.89 153.08Z" fill="white"/>
<path d="M355.14 158.73C353.956 159.718 352.511 160.344 350.98 160.53C352.05 162.1 352.98 166.17 352.98 168.53C354.85 167.31 357.74 163.05 358.2 161.12L355.14 158.73Z" fill="white"/>
<path opacity="0.3" d="M355.3 158.59C355.3 158.59 359.67 160.69 363.53 163.07C365.111 164.045 366.333 165.507 367.011 167.237C367.69 168.967 367.787 170.87 367.29 172.66C362.52 189.52 356.08 205.89 353.41 215C350.58 224.71 346.64 236.89 346.64 236.89L339.83 238.5C339.83 238.5 356.9 173.21 355.3 158.59Z" fill="black"/>
<path opacity="0.3" d="M339.79 152.32C339.79 152.32 333.92 151.55 328.79 151.32C326.991 151.239 325.219 151.781 323.773 152.854C322.327 153.926 321.294 155.465 320.85 157.21C318.25 167.49 316.33 187.15 313.7 194.8C310.43 204.36 306 223 306 223L329.26 236.44C329.26 236.44 352.76 164.25 339.79 152.32Z" fill="black"/>
<path d="M339.79 152.32C339.79 152.32 333.92 151.55 328.79 151.32C326.991 151.239 325.219 151.781 323.773 152.854C322.327 153.926 321.294 155.465 320.85 157.21C318.25 167.49 314.71 186.69 312.07 194.35C308.78 203.91 301.8 220.16 301.8 220.16L331.14 233.92C331.14 233.92 352.76 164.25 339.79 152.32Z" fill="#453890"/>
<path d="M355.3 158.59C355.3 158.59 359.67 160.69 363.53 163.07C365.111 164.045 366.333 165.507 367.011 167.237C367.69 168.967 367.787 170.87 367.29 172.66C362.52 189.52 358.75 207.19 356.85 216.49C354.85 226.39 352.76 235.4 352.76 235.4L341.76 236.89C341.76 236.89 356.9 173.21 355.3 158.59Z" fill="#453890"/>
<path opacity="0.2" d="M354.6 148C354.124 148.761 353.693 149.549 353.31 150.36C351.17 149.07 348.97 145.51 349.49 143.04C349.653 142.218 349.908 141.416 350.25 140.65L354.6 148Z" fill="black"/>
<path d="M360.77 117.68C366.09 118.37 368.04 125.55 365.1 130.29C360.28 123.3 360.77 117.68 360.77 117.68Z" fill="#263238"/>
<path d="M344.21 130.92C346.01 138.61 346.66 143.19 351.27 146.64C352.755 147.779 354.524 148.49 356.385 148.695C358.246 148.901 360.127 148.594 361.825 147.807C363.524 147.02 364.975 145.783 366.021 144.231C367.067 142.679 367.668 140.87 367.76 139C368.26 131.81 365.24 120.44 357.09 118.38C355.337 117.885 353.484 117.861 351.718 118.309C349.953 118.757 348.336 119.662 347.031 120.933C345.726 122.204 344.778 123.795 344.283 125.549C343.788 127.302 343.762 129.154 344.21 130.92Z" fill="#FFB573"/>
<path d="M346.58 137.77C351.21 137.9 350.49 130.23 348.47 127.33C354.89 128.33 365.53 122.66 366.6 116.72C368.15 108.11 355.02 108.11 350.77 110.85C352.6 110.98 353.53 112.53 353.09 113.33C353.09 113.33 346.75 111.41 342.65 113.64C344.44 114.3 346.34 116.88 339.53 117.7C333.05 118.48 335.01 125 338.28 124.88C336.54 127.55 334.45 133.62 338.37 136.2C342.29 138.78 344.97 142.14 344.12 143.52C345.49 143.47 348.4 141.82 346.58 137.77Z" fill="#263238"/>
<path d="M339.21 124.28C336.11 124.58 334.33 127 334.21 130.28C335.538 128.02 337.227 125.994 339.21 124.28Z" fill="#263238"/>
<path d="M342.36 137.87C343.15 139.448 344.507 140.67 346.16 141.29C348.33 142.08 349.47 140.16 348.91 138.02C348.4 136.08 346.66 133.35 344.46 133.49C342.26 133.63 341.4 135.91 342.36 137.87Z" fill="#FFB573"/>
<path d="M356.4 131.51C356.5 132.14 356.93 132.6 357.34 132.51C357.75 132.42 358 131.9 357.9 131.27C357.8 130.64 357.37 130.17 356.95 130.27C356.53 130.37 356.29 130.88 356.4 131.51Z" fill="#263238"/>
<path d="M363.57 130.55C363.67 131.18 364.09 131.64 364.51 131.55C364.93 131.46 365.17 130.94 365.07 130.3C364.97 129.66 364.54 129.21 364.12 129.3C363.7 129.39 363.46 129.91 363.57 130.55Z" fill="#263238"/>
<path d="M361.34 131.17C362.427 133.003 363.752 134.684 365.28 136.17C364.34 137.36 362.35 137.17 362.35 137.17L361.34 131.17Z" fill="#ED893E"/>
<path d="M360.05 139.18C359.31 139.2 358.574 139.069 357.887 138.796C357.199 138.522 356.574 138.112 356.05 137.59C356.017 137.555 355.999 137.508 355.999 137.46C355.999 137.412 356.017 137.365 356.05 137.33C356.068 137.312 356.089 137.298 356.112 137.288C356.135 137.279 356.16 137.274 356.185 137.274C356.21 137.274 356.235 137.279 356.258 137.288C356.281 137.298 356.302 137.312 356.32 137.33C356.899 137.891 357.601 138.311 358.369 138.555C359.138 138.8 359.953 138.863 360.75 138.74C360.776 138.731 360.805 138.728 360.832 138.732C360.86 138.735 360.887 138.744 360.911 138.759C360.934 138.774 360.954 138.794 360.97 138.817C360.985 138.841 360.995 138.867 360.998 138.895C361.002 138.923 361 138.951 360.991 138.977C360.983 139.004 360.969 139.028 360.95 139.049C360.931 139.07 360.908 139.086 360.882 139.096C360.856 139.107 360.828 139.111 360.8 139.11C360.552 139.153 360.301 139.176 360.05 139.18Z" fill="#263238"/>
<path d="M358.05 141.26C357.452 140.819 356.95 140.261 356.575 139.62C356.2 138.978 355.96 138.267 355.87 137.53C355.867 137.481 355.883 137.433 355.915 137.396C355.947 137.359 355.991 137.335 356.04 137.33C356.064 137.327 356.089 137.33 356.113 137.337C356.136 137.344 356.158 137.356 356.177 137.372C356.195 137.388 356.211 137.407 356.222 137.429C356.233 137.451 356.239 137.475 356.24 137.5C356.357 138.298 356.653 139.059 357.107 139.726C357.561 140.393 358.16 140.948 358.86 141.35C358.881 141.361 358.9 141.377 358.915 141.396C358.93 141.415 358.942 141.437 358.948 141.46C358.955 141.483 358.956 141.508 358.953 141.532C358.95 141.556 358.942 141.579 358.93 141.6C358.918 141.622 358.901 141.641 358.881 141.656C358.861 141.671 358.839 141.682 358.814 141.689C358.79 141.696 358.765 141.697 358.74 141.694C358.716 141.691 358.692 141.683 358.67 141.67C358.457 141.544 358.25 141.407 358.05 141.26Z" fill="#263238"/>
<path d="M353.79 129.5C353.731 129.515 353.669 129.515 353.61 129.5C353.565 129.478 353.525 129.447 353.493 129.409C353.46 129.371 353.436 129.327 353.421 129.279C353.406 129.232 353.401 129.181 353.406 129.132C353.411 129.082 353.426 129.034 353.45 128.99C353.714 128.454 354.105 127.991 354.59 127.643C355.075 127.294 355.638 127.07 356.23 126.99C356.279 126.986 356.329 126.992 356.376 127.007C356.423 127.023 356.467 127.048 356.504 127.08C356.541 127.113 356.572 127.153 356.593 127.197C356.615 127.242 356.627 127.291 356.63 127.34C356.634 127.389 356.628 127.439 356.613 127.486C356.597 127.533 356.572 127.577 356.54 127.614C356.507 127.651 356.467 127.682 356.423 127.703C356.378 127.725 356.329 127.738 356.28 127.74C355.821 127.806 355.384 127.981 355.006 128.251C354.629 128.521 354.321 128.877 354.11 129.29C354.083 129.352 354.038 129.405 353.981 129.443C353.924 129.48 353.858 129.5 353.79 129.5Z" fill="#263238"/>
<path d="M366.23 127.68C366.169 127.682 366.109 127.668 366.054 127.64C366 127.612 365.954 127.571 365.92 127.52C365.654 127.118 365.299 126.783 364.883 126.54C364.467 126.297 364.001 126.154 363.52 126.12C363.431 126.105 363.35 126.06 363.292 125.991C363.233 125.922 363.201 125.835 363.201 125.745C363.201 125.655 363.233 125.568 363.292 125.499C363.35 125.43 363.431 125.385 363.52 125.37C364.119 125.404 364.703 125.577 365.223 125.875C365.744 126.174 366.188 126.59 366.52 127.09C366.549 127.13 366.569 127.175 366.58 127.223C366.591 127.271 366.592 127.32 366.584 127.369C366.576 127.417 366.558 127.464 366.531 127.505C366.505 127.546 366.47 127.582 366.43 127.61C366.373 127.655 366.303 127.679 366.23 127.68Z" fill="#263238"/>
<path d="M330.94 164.26C328.94 165.89 326.83 167.7 324.82 169.47C322.81 171.24 320.76 173.06 318.82 174.92C314.96 178.493 311.345 182.321 308 186.38L306.86 187.86L306.72 188.05C306.75 188.005 306.777 187.959 306.8 187.91C306.86 187.798 306.91 187.681 306.95 187.56C307.026 187.358 307.067 187.145 307.07 186.93C307.07 186.59 307.01 186.59 307.07 186.75C307.114 187.058 307.201 187.357 307.33 187.64C307.733 188.584 308.236 189.483 308.83 190.32C309.519 191.331 310.26 192.306 311.05 193.24C312.66 195.24 314.46 197.15 316.35 199.04C318.24 200.93 320.24 202.84 322.15 204.59L322.28 204.7C323.122 205.457 323.648 206.504 323.75 207.632C323.853 208.761 323.526 209.886 322.834 210.782C322.142 211.679 321.137 212.281 320.02 212.468C318.902 212.655 317.756 212.413 316.81 211.79C311.794 208.61 307.104 204.942 302.81 200.84C301.72 199.75 300.65 198.61 299.6 197.35C298.464 195.984 297.46 194.514 296.6 192.96C296.079 192.004 295.653 190.999 295.33 189.96C294.895 188.561 294.739 187.089 294.87 185.63C294.952 184.716 295.16 183.817 295.49 182.96C295.663 182.516 295.867 182.085 296.1 181.67L296.46 181.08L296.62 180.84L297.92 178.91C301.385 174.072 305.241 169.527 309.45 165.32C311.45 163.24 313.55 161.21 315.68 159.25C317.81 157.29 319.92 155.4 322.27 153.48C323.714 152.625 325.417 152.317 327.07 152.612C328.722 152.908 330.213 153.787 331.271 155.09C332.329 156.393 332.884 158.033 332.834 159.71C332.784 161.388 332.133 162.992 331 164.23L330.94 164.26Z" fill="#2A1C7C"/>
<path d="M323.67 206.24L330.47 210.4L321.78 215.35C321.78 215.35 316 211.03 318.47 208.24L321.37 206.24C321.712 206.017 322.112 205.899 322.52 205.899C322.928 205.899 323.328 206.017 323.67 206.24Z" fill="#FFB573"/>
<path d="M330.84 218L327.1 220.2C326.841 220.354 326.554 220.455 326.255 220.497C325.957 220.538 325.653 220.519 325.362 220.44C325.071 220.362 324.799 220.226 324.561 220.041C324.324 219.855 324.126 219.624 323.98 219.36L321.78 215.36L330.47 210.41L331.87 215.41C332.009 215.895 331.983 216.412 331.797 216.881C331.61 217.349 331.274 217.743 330.84 218Z" fill="#FFB573"/>
<path d="M395.89 147.38L405.1 145.57C402.57 150.03 406.29 154.3 409.63 156.98C411.22 158.26 410.1 160.55 407.63 160.98L401.63 162.16C394.39 163.62 395.89 147.38 395.89 147.38Z" fill="#9AA9E2"/>
<path d="M392.23 148.09L413.35 144C416.648 143.343 419.551 141.406 421.425 138.614C423.299 135.822 423.991 132.401 423.35 129.1C422.688 125.805 420.75 122.905 417.959 121.032C415.168 119.159 411.75 118.464 408.45 119.1L387.34 123.24C384.044 123.905 381.144 125.844 379.271 128.637C377.398 131.429 376.704 134.848 377.34 138.15C378.013 141.433 379.955 144.319 382.742 146.18C385.53 148.041 388.939 148.727 392.23 148.09Z" fill="#9AA9E2"/>
<path opacity="0.3" d="M392.23 148.09L413.35 144C416.648 143.343 419.551 141.406 421.425 138.614C423.299 135.822 423.991 132.401 423.35 129.1C422.688 125.805 420.75 122.905 417.959 121.032C415.168 119.159 411.75 118.464 408.45 119.1L387.34 123.24C384.044 123.905 381.144 125.844 379.271 128.637C377.398 131.429 376.704 134.848 377.34 138.15C378.013 141.433 379.955 144.319 382.742 146.18C385.53 148.041 388.939 148.727 392.23 148.09Z" fill="white"/>
<path d="M449.71 152.4L413.71 151.92C410.59 152.53 402.71 112.13 405.79 111.52L438.93 97.52L449.71 152.4Z" fill="#9AA9E2"/>
<path d="M441.45 125.51C444.45 140.67 448.12 152.71 449.71 152.4C451.3 152.09 450.18 139.54 447.2 124.4C444.22 109.26 440.53 97.2 438.94 97.51C437.35 97.82 438.48 110.34 441.45 125.51Z" fill="#9AA9E2"/>
<path opacity="0.3" d="M441.45 125.51C444.45 140.67 448.12 152.71 449.71 152.4C451.3 152.09 450.18 139.54 447.2 124.4C444.22 109.26 440.53 97.2 438.94 97.51C437.35 97.82 438.48 110.34 441.45 125.51Z" fill="black"/>
<path d="M455 123.64C454.27 119.93 446 118.42 444.25 118.77C442.5 119.12 441.65 122.4 442.37 126.11C443.09 129.82 445.12 132.54 446.88 132.2C448.64 131.86 455.7 127.34 455 123.64Z" fill="#9AA9E2"/>
<path d="M510.686 114.015L463.845 121.593L464.016 122.649L510.857 115.071L510.686 114.015Z" fill="#9AA9E2"/>
<path d="M478.636 93.7908L459.429 110.166L460.123 110.98L479.33 94.6051L478.636 93.7908Z" fill="#9AA9E2"/>
<path d="M488.145 144.432L487.789 145.441L494.833 147.927L495.189 146.918L488.145 144.432Z" fill="#9AA9E2"/>
<path d="M462.622 135.737L462.281 136.752L480.106 142.73L480.446 141.715L462.622 135.737Z" fill="#9AA9E2"/>
</g>
<defs>
<clipPath id="clip0">
<rect width="500" height="500" fill="white" transform="translate(68.9999 18)"/>
</clipPath>
</defs>
</svg>
