<svg xmlns="http://www.w3.org/2000/svg" width="170.685" height="125.757" viewBox="0 0 170.685 125.757"><defs><style>.a{fill:#e6e6e6;}.b{fill:#ccc;}.c,.j,.p{fill:#efc692;}.c{opacity:0.21;}.d,.e,.h{fill:#3f59b8;}.d,.q{opacity:0.2;}.f{fill:#2f2e41;}.g{fill:#f3c8b6;}.h{opacity:0.88;}.i{fill:#31211f;opacity:0.62;}.j{opacity:0.92;}.k{fill:#3f3d56;}.l{fill:#fff;}.m{fill:#b3b3b3;}.n{fill:#d0cde1;}.o{fill:#4aa292;}</style></defs><g transform="translate(0 -0.001)"><rect class="a" width="71.745" height="2.105" transform="translate(98.94 46.567)"/><rect class="a" width="18.175" height="18.175" transform="translate(104.871 28.965)"/><rect class="b" width="10.905" height="10.905" transform="translate(108.506 32.6)"/><rect class="a" width="4.592" height="18.175" transform="translate(145.622 28.965)"/><rect class="b" width="4.592" height="2.105" transform="translate(145.622 31.835)"/><rect class="b" width="4.592" height="2.105" transform="translate(145.622 41.018)"/><rect class="a" width="4.592" height="18.175" transform="translate(138.543 28.965)"/><rect class="b" width="4.592" height="2.105" transform="translate(138.543 31.835)"/><rect class="b" width="4.592" height="2.105" transform="translate(138.543 41.018)"/><rect class="a" width="4.592" height="18.175" transform="matrix(0.896, -0.444, 0.444, 0.896, 150.055, 30.928)"/><rect class="b" width="4.592" height="2.105" transform="matrix(0.896, -0.444, 0.444, 0.896, 151.328, 33.499)"/><rect class="b" width="4.592" height="2.105" transform="matrix(0.896, -0.444, 0.444, 0.896, 155.403, 41.729)"/><path class="a" d="M507.582,170.382l2.313,4,2.312,4.005h-9.249l2.312-4.005Z" transform="translate(-395.92 -134.121)"/><path class="a" d="M526.461,173.978l2.312,4.005,2.312,4.005h-9.249l2.312-4.005Z" transform="translate(-410.781 -136.952)"/><circle class="a" cx="1.339" cy="1.339" r="1.339" transform="translate(115.967 33.174)"/><rect class="a" width="71.745" height="2.105" transform="translate(170.685 19.782) rotate(180)"/><rect class="a" width="18.175" height="18.175" transform="translate(164.754 18.251) rotate(180)"/><rect class="b" width="10.905" height="10.905" transform="translate(161.119 14.616) rotate(180)"/><rect class="a" width="4.592" height="18.175" transform="translate(124.003 18.251) rotate(180)"/><rect class="b" width="4.592" height="2.105" transform="translate(124.003 5.05) rotate(180)"/><rect class="b" width="4.592" height="2.105" transform="translate(124.003 14.234) rotate(180)"/><rect class="a" width="4.592" height="18.175" transform="translate(131.082 18.251) rotate(180)"/><rect class="b" width="4.592" height="2.105" transform="translate(131.082 5.05) rotate(180)"/><rect class="b" width="4.592" height="2.105" transform="translate(131.082 14.234) rotate(180)"/><rect class="a" width="4.592" height="18.175" transform="matrix(-0.896, -0.444, 0.444, -0.896, 111.506, 18.326)"/><rect class="b" width="4.592" height="2.105" transform="matrix(-0.896, -0.444, 0.444, -0.896, 117.363, 6.496)"/><rect class="b" width="4.592" height="2.105" transform="matrix(-0.896, -0.444, 0.444, -0.896, 113.288, 14.726)"/><path class="a" d="M725.138,34.634l-2.312,4.005-2.312,4.005h9.249l-2.312-4.005Z" transform="translate(-567.176 -27.263)"/><path class="a" d="M706.259,38.23l-2.312,4.005-2.312,4.005h9.249l-2.312-4.005Z" transform="translate(-552.315 -30.093)"/><circle class="a" cx="1.339" cy="1.339" r="1.339" transform="translate(150.979 4.285)"/><rect class="a" width="71.745" height="2.105" transform="translate(170.685 77.561) rotate(180)"/><rect class="a" width="18.175" height="18.175" transform="translate(164.754 76.03) rotate(180)"/><rect class="b" width="10.905" height="10.905" transform="translate(161.119 72.395) rotate(180)"/><rect class="a" width="4.592" height="18.175" transform="translate(124.003 76.03) rotate(180)"/><rect class="b" width="4.592" height="2.105" transform="translate(124.003 62.829) rotate(180)"/><rect class="b" width="4.592" height="2.105" transform="translate(124.003 72.012) rotate(180)"/><rect class="a" width="4.592" height="18.175" transform="translate(131.082 76.03) rotate(180)"/><rect class="b" width="4.592" height="2.105" transform="translate(131.082 62.829) rotate(180)"/><rect class="b" width="4.592" height="2.105" transform="translate(131.082 72.012) rotate(180)"/><rect class="a" width="4.592" height="18.175" transform="matrix(-0.896, -0.444, 0.444, -0.896, 111.506, 76.105)"/><rect class="b" width="4.592" height="2.105" transform="matrix(-0.896, -0.444, 0.444, -0.896, 117.363, 64.275)"/><rect class="b" width="4.592" height="2.105" transform="matrix(-0.896, -0.444, 0.444, -0.896, 113.288, 72.505)"/><path class="a" d="M725.138,306.129l-2.312,4.005-2.312,4.005h9.249l-2.312-4.005Z" transform="translate(-567.176 -240.979)"/><path class="a" d="M706.259,309.725l-2.312,4.005-2.312,4.005h9.249l-2.312-4.005Z" transform="translate(-552.315 -243.81)"/><circle class="a" cx="1.339" cy="1.339" r="1.339" transform="translate(150.979 62.064)"/><ellipse class="c" cx="84.516" cy="6.003" rx="84.516" ry="6.003" transform="translate(0 113.753)"/><path class="d" d="M741.185,665.552c-13.781-2.453-28.851-2.045-44.659,0,7.2-6.083,13.423-12.165,6.218-18.248,14.054,2.9,16.023,2.606,31.657,0C730.775,653.387,737.559,659.469,741.185,665.552Z" transform="translate(-591.641 -543.435)"/><path class="e" d="M750.257,666.978c-11.706-1.958-24.508-1.632-37.936,0,6.12-4.855,11.4-9.71,5.282-14.566,11.939,2.314,13.611,2.08,26.891,0C741.414,657.267,747.177,662.122,750.257,666.978Z" transform="translate(-603.075 -546.456)"/><circle class="f" cx="6.237" cy="6.237" r="6.237" transform="translate(136.486 100.224)"/><path class="g" d="M511.836,466.249l4.322.72,2.161,6.243-6.243,3.842-7.2-10.8h6.963Z" transform="translate(-397.427 -367.023)"/><circle class="g" cx="10.084" cy="10.084" r="10.084" transform="translate(116.57 88.662)"/><path class="h" d="M395.888,445.919s-24.49,2.641-28.812,2.161a53.514,53.514,0,0,1-6.243-.96s-2.881,3.842-1.441,5.522a10.39,10.39,0,0,0,2.881,2.4,8.835,8.835,0,0,1,4.562,0c1.921.72,21.369,3.842,24.73.96S395.888,445.919,395.888,445.919Z" transform="translate(-324.938 -383.908)"/><path class="h" d="M407.053,532.42s-16.087-4.562-18.968-24.73v-1.921s-3.183,5.584-4.322,6.723c-1.321,1.321-6,13.206-5.762,14.406a2.877,2.877,0,0,1,0,1.681l-6.963-.72V525.7s3.722-11.165,3.962-13.806,9.244-21.009,9.244-21.009,3.361-6.963,9.124,0,6.243,11.765,6.243,11.765l7.443,14.406Z" transform="translate(-334.423 -416.867)"/><path class="i" d="M321.252,429.722l-7.683-2.641s-7.2-5.282-5.522,0,9.364,16.807,11.525,15.607,4.76-4.18,4.181-4.611S319.331,434.524,321.252,429.722Z" transform="translate(-284.636 -367.231)"/><path class="i" d="M335.5,659.259l-6.2,3.029s-7.5,1.154-3.317,3.317,15.722,4.471,16.3,2.452.348-5.371-.259-5.282S337.228,663.3,335.5,659.259Z" transform="translate(-297.953 -551.846)"/><path class="j" d="M522.216,599.069s-3.121,13.446,2.161,16.327,42.258,3.361,45.139-1.921,1.441-5.282,1.441-5.282l-7.683-8.644,6.243-.48a2.241,2.241,0,0,0-2.161-2.161c-2.161-.24-8.884-2.641-14.646-.96s-9.124-3.361-9.124-3.361Z" transform="translate(-452.706 -499.362)"/><path class="k" d="M292.339,266.629l-4.082,22.33,28.092-3.361,5.042-20.169Z" transform="translate(-226.911 -208.94)"/><path class="l" d="M298.952,270.578l-3.361,19.928,25.571-3,4.922-18.128Z" transform="translate(-232.684 -212.048)"/><path class="m" d="M287.442,376.233l-.96-.24-.48.96,7.683,21.369.722-.276.238-1.4Z" transform="translate(-225.135 -295.975)"/><path class="n" d="M288.257,363.319l7.683,22.33,29.052-4.322L316.349,360.2Z" transform="translate(-226.911 -283.541)"/><path class="k" d="M306.309,362.6v1.2l21.369-2.4-.24-1.2Z" transform="translate(-241.121 -283.541)"/><path class="o" d="M308.565,374.769l3.361,9.364,21.849-2.641-3.842-8.884Z" transform="translate(-242.897 -293.31)"/><path class="g" d="M600.292,562.891l-.72-1.921s-5.522-9.6-8.4-7.683,6,11.285,6,11.285h2.881Z" transform="translate(-507.253 -468.227)"/><path class="g" d="M545.739,564.313l-.72-2.881s-1.921-8.884,1.441-8.4,4.322,8.884,4.322,8.884l-.24,1.921Z" transform="translate(-470.947 -468.208)"/><path class="j" d="M552.566,599.323s-6.243-.96-6.483.48-1.441,23.05,4.562,23.77,35.775,3.842,32.654-3.6-7.923-6.483-7.923-6.483l-20.408,2.161Z" transform="translate(-472.012 -504.419)"/><path class="p" d="M428,442.486l-6.363-4.442-4.2,3.241,5.282,5.762Z" transform="translate(-328.599 -344.82)"/><path class="q" d="M386.976,479.224l.96,9.124,16.567-.96-14.406-.24Z" transform="translate(-304.621 -377.236)"/><circle class="f" cx="12.005" cy="12.005" r="12.005" transform="translate(119.627 88.573)"/><path class="o" d="M328.309,285.534l14.886-.518,1.441-5.484-15.366.464Z" transform="translate(-258.439 -220.041)"/><path class="a" d="M310.258,316.186l22.569-.72.24-.96L310.5,315.3Z" transform="translate(-244.23 -247.572)"/><path class="a" d="M308,327.468l22.57-.72.24-.96-22.57.795Z" transform="translate(-242.453 -256.453)"/><path class="a" d="M306.873,336.494l22.569-.72.24-.96-22.57.794Z" transform="translate(-241.565 -263.558)"/></g></svg>