<svg xmlns="http://www.w3.org/2000/svg" width="524.866" height="318" viewBox="0 0 524.866 318"><defs><style>.a{fill:#ffb8b8;}.b,.o{fill:#f2dcc5;}.c{fill:#f3c8b6;opacity:0.35;}.d,.n{fill:#efc692;}.e,.j{fill:#3f3d56;}.e{opacity:0.28;}.f{fill:#c9c9d0;}.g,.i{fill:#31211f;}.g{opacity:0.22;}.h{fill:#fff;}.i,.j{opacity:0.75;}.k{fill:#3f59b8;}.l,.m{fill:#2f2e41;}.l{opacity:0.73;}.n{opacity:0.53;}.o{opacity:0.42;}</style></defs><g transform="translate(-368 -420)"><path class="a" d="M811.751,607.522l1.639,10.656v3.279h9.427v-4.1s.41-7.378-1.23-9.427S811.751,607.522,811.751,607.522Z" transform="translate(-56.806 64.36)"/><path class="a" d="M783.173,607.522l1.64,10.656v3.279h9.427v-4.1s.41-7.378-1.23-9.427S783.173,607.522,783.173,607.522Z" transform="translate(-45.032 64.36)"/><circle class="b" cx="27.048" cy="27.048" r="27.048" transform="translate(384.403 434.897)"/><ellipse class="c" cx="261.078" cy="10.584" rx="261.078" ry="10.584" transform="translate(368 716.832)"/><circle class="d" cx="66.445" cy="66.445" r="66.445" transform="translate(368 461.88)"/><path class="e" d="M114.356,377.344H100.747l6.2-210.143Z" transform="translate(326.493 351.118)"/><path class="e" d="M817.97,377.72H804.361l6.2-210.143Z" transform="translate(36.612 350.963)"/><path class="f" d="M815.692,221.146l14.61-20.213-14.81,25.217-1.6-2.8Z" transform="translate(32.685 337.221)"/><path class="f" d="M803.995,255.863l-14.61-20.213,14.81,25.217,1.6-2.8Z" transform="translate(42.782 322.917)"/><path class="g" d="M-2770,5326.939a123.8,123.8,0,0,1,107.793-122.756v-21.7c-12.366-1.654-20.9-5.168-20.9-9.236,0-5.659,16.515-10.248,36.887-10.248s36.888,4.588,36.888,10.248c0,4.068-8.535,7.583-20.9,9.237v21.7a123.8,123.8,0,0,1,107.795,122.756,123.778,123.778,0,0,1-123.779,123.779A123.778,123.778,0,0,1-2770,5326.939Z" transform="translate(3284.151 -4722.07)"/><circle class="h" cx="113.532" cy="113.532" r="113.532" transform="translate(524.398 491.337)"/><path class="i" d="M-4325.938,5534.655a15.1,15.1,0,0,1-9.9,3.675A15.166,15.166,0,0,1-4351,5523.166,15.165,15.165,0,0,1-4335.834,5508a15.164,15.164,0,0,1,15.164,15.165q0,.732-.068,1.447l56.36,31.214Z" transform="translate(4973.355 -4917.886)"/><rect class="j" width="6.558" height="12.296" transform="translate(634.241 497.076)"/><rect class="j" width="6.558" height="12.296" transform="translate(634.241 701.187)"/><rect class="j" width="6.558" height="12.296" transform="translate(541.612 602) rotate(90)"/><path class="a" d="M721.859,529.273l-2.049,2.869s-9.427,11.066-9.837,5.738,6.968-9.017,6.968-9.017l4.1-2.459Z" transform="translate(-14.868 97.524)"/><path class="d" d="M792.549,462.384s-3.626,1.911-1.149,6.258,17.007,49.32,17.007,49.32l8.383-2.38L809.4,487.14l-4.233-17.876Z" transform="translate(-48.065 123.899)"/><circle class="a" cx="9.427" cy="9.427" r="9.427" transform="translate(745.313 563.473)"/><path class="a" d="M811.83,442.063l-1.23,19.264-8.607-6.148s2.869-11.476,2.049-12.3Z" transform="translate(-52.786 132.271)"/><path class="d" d="M804.845,466.742l-9.272-6.866s-4.253-1.741-5.483.308-7.378,32.379-4.1,38.117c0,0,17.624,3.689,21.313,1.639l1.639-10.656s2.049-6.558-1.23-10.656Z" transform="translate(-45.801 125.217)"/><path class="d" d="M767.371,461.067s-3.279-2.459-6.148,1.639-37.3,36.478-37.3,36.478l5.738,6.558,22.542-18.854,14.345-11.476Z" transform="translate(-20.623 124.743)"/><path class="k" d="M805.364,526.69s-20.288-3.894-22.337-1.025l-.41,4.508s-4.509,8.607-2.049,22.542.82,22.542.82,22.542,11.066-1.23,19.264,0,9.427,0,9.427,0Z" transform="translate(-43.656 98.263)"/><path class="l" d="M823.637,628.868l-11.886.41,4.1,30.74s-3.279,13.116.41,13.935a41.57,41.57,0,0,0,7.787.82s3.689,3.689,7.787,3.279a22.954,22.954,0,0,0,7.787-2.459,2.547,2.547,0,0,0-2.049-3.279c-2.869-.82-10.656-3.279-12.3-11.886Z" transform="translate(-56.806 55.31)"/><path class="l" d="M795.059,628.868l-11.886.41,4.1,30.74s-3.279,13.116.41,13.935a41.571,41.571,0,0,0,7.787.82s3.689,3.689,7.787,3.279a22.955,22.955,0,0,0,7.787-2.459,2.547,2.547,0,0,0-2.049-3.279c-2.869-.82-10.657-3.279-12.3-11.886Z" transform="translate(-45.032 55.31)"/><circle class="m" cx="5.164" cy="5.164" r="5.164" transform="translate(755.308 551.083)"/><path class="m" d="M829.62,402.928a5.165,5.165,0,0,0-4.626-5.136,5.222,5.222,0,0,1,.538-.028,5.164,5.164,0,0,1,0,10.328,5.218,5.218,0,0,1-.538-.028,5.165,5.165,0,0,0,4.626-5.136Z" transform="translate(-62.262 150.522)"/><ellipse class="m" cx="8.607" cy="5.164" rx="8.607" ry="5.164" transform="translate(746.048 561.572)"/><path class="n" d="M971.93,204.382a26.27,26.27,0,0,0-51.543-5.539c-.318-.011-.636-.024-.957-.024a26.275,26.275,0,0,0-25.2,18.864,18.566,18.566,0,0,0-22.031,5.484H954.14a17.769,17.769,0,0,0,17.809-18.4Q971.941,204.576,971.93,204.382Z" transform="translate(-81.708 240.406)"/><circle class="o" cx="7.056" cy="7.056" r="7.056" transform="translate(814.661 485.965)"/><circle class="o" cx="5.875" cy="5.875" r="5.875" transform="translate(837.147 470.509)"/><circle class="o" cx="7.056" cy="7.056" r="7.056" transform="translate(864.642 501.253)"/><circle class="o" cx="7.056" cy="7.056" r="7.056" transform="translate(811.133 533.594)"/><circle class="o" cx="7.056" cy="7.056" r="7.056" transform="translate(864.642 574.166)"/><circle class="o" cx="2.94" cy="2.94" r="2.94" transform="translate(875.226 550.058)"/><circle class="o" cx="2.94" cy="2.94" r="2.94" transform="translate(856.41 479.497)"/><circle class="o" cx="2.94" cy="2.94" r="2.94" transform="translate(846.414 552.41)"/><circle class="o" cx="2.94" cy="2.94" r="2.94" transform="translate(848.766 549.47)"/><circle class="o" cx="2.94" cy="2.94" r="2.94" transform="translate(850.53 546.53)"/><circle class="o" cx="2.94" cy="2.94" r="2.94" transform="translate(843.473 571.226)"/><circle class="o" cx="2.94" cy="2.94" r="2.94" transform="translate(886.986 604.155)"/><circle class="o" cx="2.94" cy="2.94" r="2.94" transform="translate(824.069 605.919)"/><circle class="o" cx="2.94" cy="2.94" r="2.94" transform="translate(827.597 515.365)"/><circle class="o" cx="2.94" cy="2.94" r="2.94" transform="translate(841.121 568.286)"/><circle class="o" cx="2.94" cy="2.94" r="2.94" transform="translate(838.181 563.582)"/></g></svg>