<svg xmlns="http://www.w3.org/2000/svg" width="248.471" height="139.274" viewBox="0 0 248.471 139.274"><defs><style>.a{fill:#f79574;}.b,.d{fill:#efc692;}.c{opacity:0.2;}.d{opacity:0.47;}.e{fill:#3f3d56;}.f{fill:#31211f;opacity:0.17;}.g{fill:#fff;}.h{fill:none;}.i{fill:#e6e6e6;}.j{fill:#e7e8f2;}.k{fill:#3f59b8;}.l{fill:#ccc;}.m{fill:#f2f2f2;}</style></defs><g transform="translate(-9.25 0.005)"><circle class="a" cx="14.38" cy="14.38" r="14.38" transform="translate(58.084 14.864)"/><path class="b" d="M369.259,314.594H298.713a1.44,1.44,0,0,1-.264-.021l33.365-57.793a2.336,2.336,0,0,1,4.067,0l22.392,38.784,1.073,1.856Z" transform="translate(-251.7 -241.034)"/><path class="c" d="M330.644,211.532H306.558l11.824-17.175.851-1.237.426-.618,1.073,1.856Z" transform="translate(-213.085 -137.973)"/><path class="b" d="M532.691,357.687H471.675L483.5,340.512l.851-1.237,15.407-22.382a3.118,3.118,0,0,1,4.628-.277,2.79,2.79,0,0,1,.222.277Z" transform="translate(-375.853 -284.128)"/><circle class="d" cx="4.333" cy="4.333" r="4.333" transform="translate(170.416 55.385)"/><path class="e" d="M592.693,222.221H591.8l.4-13.7Z" transform="translate(-417.525 -149.45)"/><path class="e" d="M593.212,214.349l.953-1.318-.966,1.645-.1-.183Z" transform="translate(-418.45 -152.686)"/><path class="e" d="M590.73,219.049l-.953-1.318.966,1.644.1-.183Z" transform="translate(-416.072 -156.055)"/><circle class="d" cx="4.333" cy="4.333" r="4.333" transform="translate(210.166 55.385)"/><path class="e" d="M733.009,222.221h-.888l.4-13.7Z" transform="translate(-518.092 -149.45)"/><path class="e" d="M733.529,214.349l.953-1.318-.966,1.645-.1-.183Z" transform="translate(-519.016 -152.686)"/><path class="e" d="M731.047,219.049l-.953-1.318.966,1.644.1-.183Z" transform="translate(-516.639 -156.055)"/><circle class="d" cx="6.4" cy="6.4" r="6.4" transform="translate(180.902 47.094)"/><path class="e" d="M636.636,205.685h-1.311l.6-20.241Z" transform="translate(-448.717 -132.914)"/><path class="e" d="M637.4,194.06l1.407-1.947-1.426,2.429-.154-.27Z" transform="translate(-450.082 -137.694)"/><path class="e" d="M633.738,201l-1.407-1.947,1.426,2.429.154-.27Z" transform="translate(-446.571 -142.669)"/><circle class="d" cx="6.4" cy="6.4" r="6.4" transform="translate(196.509 47.094)"/><path class="e" d="M691.73,205.685h-1.311l.6-20.241Z" transform="translate(-488.203 -132.914)"/><path class="e" d="M692.5,194.06l1.407-1.947-1.427,2.429-.154-.27Z" transform="translate(-489.569 -137.694)"/><path class="e" d="M688.831,201l-1.407-1.947,1.427,2.429.154-.27Z" transform="translate(-486.057 -142.669)"/><circle class="d" cx="6.4" cy="6.4" r="6.4" transform="translate(156.028 47.094)"/><path class="e" d="M548.83,205.685h-1.311l.6-20.241Z" transform="translate(-385.785 -132.914)"/><path class="e" d="M549.6,194.06l1.407-1.947-1.426,2.429-.154-.27Z" transform="translate(-387.151 -137.694)"/><path class="e" d="M545.932,201l-1.407-1.947,1.427,2.429.154-.27Z" transform="translate(-383.639 -142.669)"/><path class="f" d="M394.969,524.229H186.112a20.038,20.038,0,1,1,0-40.076h208.4a7.707,7.707,0,0,0,0-15.414H179.176V456.409H394.507a20.038,20.038,0,0,1,0,40.076h-208.4a7.707,7.707,0,1,0,0,15.414H394.969Z" transform="translate(-156.824 -384.961)"/><rect class="g" width="9.557" height="0.617" transform="translate(30.058 77.305)"/><rect class="g" width="9.557" height="0.617" transform="translate(57.187 77.305)"/><rect class="g" width="9.557" height="0.617" transform="translate(84.315 77.305)"/><rect class="g" width="9.557" height="0.617" transform="translate(111.443 77.305)"/><rect class="g" width="9.557" height="0.617" transform="translate(138.572 77.305)"/><rect class="g" width="9.557" height="0.617" transform="translate(165.7 77.305)"/><rect class="g" width="9.557" height="0.617" transform="translate(192.828 77.305)"/><rect class="g" width="9.557" height="0.617" transform="translate(219.957 77.305)"/><rect class="g" width="9.557" height="0.617" transform="translate(30.058 105.05)"/><rect class="g" width="9.557" height="0.617" transform="translate(57.187 105.05)"/><rect class="g" width="9.557" height="0.617" transform="translate(84.315 105.05)"/><rect class="g" width="9.557" height="0.617" transform="translate(111.443 105.05)"/><rect class="g" width="9.557" height="0.617" transform="translate(138.572 105.05)"/><rect class="g" width="9.557" height="0.617" transform="translate(165.7 105.05)"/><rect class="g" width="9.557" height="0.617" transform="translate(192.828 105.05)"/><rect class="g" width="9.557" height="0.617" transform="translate(219.957 105.05)"/><rect class="g" width="9.557" height="0.617" transform="translate(30.058 132.795)"/><rect class="g" width="9.557" height="0.617" transform="translate(57.187 132.795)"/><rect class="g" width="9.557" height="0.617" transform="translate(84.315 132.795)"/><rect class="g" width="9.557" height="0.617" transform="translate(111.443 132.795)"/><rect class="g" width="9.557" height="0.617" transform="translate(138.572 132.795)"/><rect class="g" width="9.557" height="0.617" transform="translate(165.7 132.795)"/><rect class="g" width="9.557" height="0.617" transform="translate(192.828 132.795)"/><rect class="g" width="9.557" height="0.617" transform="translate(219.957 132.795)"/><path class="h" d="M727.677,294.791a8.212,8.212,0,0,0-1.712-1.616h3.576A5.982,5.982,0,0,0,727.677,294.791Z" transform="translate(-558.106 -267.969)"/><path class="h" d="M690.743,293.176h.616c-.132.093-.265.186-.392.286C690.9,293.365,690.818,293.271,690.743,293.176Z" transform="translate(-532.862 -267.97)"/><path class="i" d="M741.451,290.559a5.9,5.9,0,0,1,2.87.741h-5.732A5.876,5.876,0,0,1,741.451,290.559Z" transform="translate(-567.154 -266.094)"/><path class="i" d="M697.6,287.941a8.109,8.109,0,0,1,4.684,1.483h-9.361A8.107,8.107,0,0,1,697.6,287.941Z" transform="translate(-534.421 -264.218)"/><path class="j" d="M486.992,218.521a15.2,15.2,0,0,1,29.823-3.2c.184-.007.368-.014.554-.014a15.2,15.2,0,0,1,14.583,10.915,10.742,10.742,0,0,1,12.747,3.173H497.286a10.281,10.281,0,0,1-10.3-10.645Q486.986,218.634,486.992,218.521Z" transform="translate(-386.819 -204.184)"/><path class="h" d="M772.872,333.967a8.211,8.211,0,0,1,1.712-1.616h-3.576A5.981,5.981,0,0,1,772.872,333.967Z" transform="translate(-590.389 -296.047)"/><path class="h" d="M817.294,332.352h-.617c.133.093.265.186.392.286C817.142,332.541,817.219,332.447,817.294,332.352Z" transform="translate(-623.121 -296.048)"/><path class="i" d="M753.645,329.734a5.9,5.9,0,0,0-2.869.741h5.732a5.876,5.876,0,0,0-2.862-.741Z" transform="translate(-575.888 -294.171)"/><path class="i" d="M788.316,327.117a8.109,8.109,0,0,0-4.684,1.483h9.361A8.107,8.107,0,0,0,788.316,327.117Z" transform="translate(-599.437 -292.296)"/><path class="j" d="M876.561,257.7a15.2,15.2,0,0,0-29.823-3.2c-.184-.007-.368-.014-.554-.014A15.2,15.2,0,0,0,831.6,265.393a10.742,10.742,0,0,0-12.747,3.173h47.414a10.281,10.281,0,0,0,10.3-10.645Q876.567,257.81,876.561,257.7Z" transform="translate(-624.681 -232.263)"/><rect class="e" width="5.511" height="0.875" transform="matrix(-1, -0.001, 0.001, -1, 225.78, 130.655)"/><path class="k" d="M770.332,608.846l1.137.263,43.211.023.388-.905a9.138,9.138,0,0,0,.672-4.941,3.844,3.844,0,0,0-1.712-3.032l-1.918-12.772-23.906-.043-9.249,7.46s-4.363-.078-6.733,2.872a6.926,6.926,0,0,0-1.449,3.815l-.094,1.535Z" transform="translate(-589.904 -478.872)"/><circle class="e" cx="5.336" cy="5.336" r="5.336" transform="translate(184.582 124.425)"/><circle class="l" cx="2.808" cy="2.808" r="2.808" transform="translate(187.11 126.952)"/><circle class="e" cx="5.336" cy="5.336" r="5.336" transform="translate(210.911 124.439)"/><circle class="l" cx="2.808" cy="2.808" r="2.808" transform="translate(213.439 126.966)"/><path class="g" d="M656.92,393.46l12.907.005H671.4l2.66,0v-.194l0-2.339,0-2.627H672.3l-1.576,0-2.791,0h-1.576l-3.222,0Z" transform="translate(-464.194 -278.305)"/><path class="g" d="M724.849,393.489l6.822,0,0-1.339v-2.339l0-1.482h-1l-1.576,0-4.249,0Z" transform="translate(-512.88 -278.325)"/><rect class="e" width="0.875" height="1.662" transform="matrix(-1, -0.001, 0.001, -1, 209.866, 120.675)"/><rect class="e" width="0.875" height="1.662" transform="matrix(-0.001, 1, -1, -0.001, 196.224, 116.644)"/><path class="e" d="M0,0H.1A1.828,1.828,0,0,1,1.924,1.828h0A1.828,1.828,0,0,1,.1,3.656H0Z" transform="matrix(-1, -0.001, 0.001, -1, 195.61, 117.029)"/><path class="e" d="M771.559,629.262a2.826,2.826,0,0,0,1.542-5.35,6.926,6.926,0,0,0-1.449,3.815Z" transform="translate(-590.784 -505.013)"/><path class="m" d="M705.639,388.316l3.342,4.968,0-2.339-1.768-2.627Z" transform="translate(-499.112 -278.315)"/><path class="m" d="M739.854,388.335l2.573,3.824v-2.339l-1-1.482Z" transform="translate(-523.634 -278.329)"/><path class="m" d="M690.225,388.309l3.473,5.162h1.576l-3.472-5.162Z" transform="translate(-488.064 -278.31)"/></g></svg>