<svg xmlns="http://www.w3.org/2000/svg" width="146.301" height="107.808" viewBox="0 0 146.301 107.808"><defs><style>.a{fill:#ecb5a2;}.b{fill:#f2f2f2;}.c{fill:#3f3d56;}.d{fill:#2f2e41;}.e{fill:#3f59b8;}.f{fill:#ffb8b8;}.g{fill:#efc692;}.h{opacity:0.1;}.i{fill:#e6bd8a;}.j{fill:#00e8d3;}.k{fill:#e1f1ff;opacity:0.23;}.l{fill:#fff;}</style></defs><g transform="translate(0 0)"><path class="a" d="M627.6,605.734H584.84s-.867-12.714,4.262-12.858,4.551,5.635,10.98-2.312,14.231-7.513,15.242-2.817-1.95,8.452,3.467,7.3S632.011,596.921,627.6,605.734Z" transform="translate(-514.072 -508.935)"/><path class="b" d="M713.3,605.346l-.144-.006c.337-8.371,2.09-13.749,3.5-16.787a15.239,15.239,0,0,1,3.024-4.647l.1.108a15.135,15.135,0,0,0-2.994,4.611C715.382,591.65,713.638,597.007,713.3,605.346Z" transform="translate(-621.874 -508.544)"/><path class="b" d="M809.917,668.4l-.139-.04a22.413,22.413,0,0,1,5.642-9.387l.1.107A22.262,22.262,0,0,0,809.917,668.4Z" transform="translate(-703.011 -571.579)"/><path class="b" d="M607.291,651.812l-.143-.02a15.736,15.736,0,0,0-1.415-9.2,12.666,12.666,0,0,0-2.234-3.259l.1-.1a12.82,12.82,0,0,1,2.263,3.3A15.88,15.88,0,0,1,607.291,651.812Z" transform="translate(-529.788 -555.003)"/><path class="c" d="M186.13,644.836l-.2-.076c-.045-.017-4.486-1.718-6.566-5.576s-1.062-8.5-1.051-8.55l.048-.212.2.076c.045.017,4.486,1.718,6.566,5.576s1.062,8.5,1.051,8.55ZM179.694,639a13.271,13.271,0,0,0,6.158,5.316,11.422,11.422,0,0,0-7.216-13.382A13.286,13.286,0,0,0,179.694,639Z" transform="translate(-172.517 -547.605)"/><path class="a" d="M152.334,668.4a13.538,13.538,0,0,1,5.179,6.717,11.655,11.655,0,0,1-13.539-8.146A13.536,13.536,0,0,1,152.334,668.4Z" transform="translate(-143.899 -578.176)"/><rect class="c" width="120.982" height="0.378" transform="translate(0 96.829)"/><path class="d" d="M360.608,114.24s-2.526-.9-4.15,2.707a71.175,71.175,0,0,1-4.15,7.579l1.444.361s.361-2.526,1.263-2.887l-.361,3.248s10.827,3.79,15.7-.361l-.18-1.263s.722.18.722,1.263l.541-.541a9.7,9.7,0,0,0-2.165-2.526,6.367,6.367,0,0,1-1.558-3.877,4.814,4.814,0,0,0-7.1-3.7Z" transform="translate(-318.849 -113.619)"/><path class="e" d="M314.822,310.675l-.206,3.715a32.786,32.786,0,0,0-3.921,17.956c.826,10.113-9.907,35.5-1.651,36.737s11.351,3.715,12.177.826,1.651-38.388,1.651-38.388,0,39.833,10.526,39.007,11.145-1.857,10.938-3.1-14.034-53.867-14.241-54.28a48.6,48.6,0,0,0-4.334-3.3Z" transform="translate(-279.881 -278.404)"/><path class="d" d="M316.293,676.908l-.413,7.43s-5.985,10.113-1.858,10.113,6.6-4.334,6.6-5.779V677.321Z" transform="translate(-285.48 -586.642)"/><path class="d" d="M480.516,676.908l.413,7.43s5.985,10.113,1.857,10.113-6.6-4.334-6.6-5.779V677.321Z" transform="translate(-422.872 -586.642)"/><circle class="f" cx="4.644" cy="4.644" r="4.644" transform="translate(38.243 3.17)"/><path class="f" d="M388.477,168.821s0,6.811-.494,7.224,6.58.206,6.58.206a61.87,61.87,0,0,1-.987-6.4C393.741,169.44,388.477,168.821,388.477,168.821Z" transform="translate(-348.787 -159.975)"/><path class="g" d="M15.2,21.737a15.683,15.683,0,0,1-8.462.207l-.074-.786A17.76,17.76,0,0,1,3.639,19.88C1.162,18.641-.489,14.1.131,10.179.567,7.417,3.562,6.6,5.3,6.359c0-.052-.005-.086-.005-.1,0-.114.352-.373.859-.687l.792-1.583s0-1.444.413-1.857A2.039,2.039,0,0,0,7.767.892h3.65A2.8,2.8,0,0,1,12,.17a16.076,16.076,0,0,1,5.779.206c1.857.412,3.405,3.2,3.405,3.2l4.541,2.064h0s6.4,6.4,6.4,9.287c0,2.648-6.413,6.682-8.6,7.021l-.278,2.06S19.325,20.292,15.2,21.737Z" transform="translate(27.587 11.979)"/><path class="d" d="M376.977,135.421s1.444-1.985,2.707-2.346,1.444-2.165,1.444-2.165,3.248,3.609,5.233,3.79.18-4.331.18-4.331l-3.609-.9-3.429.361-2.707,1.8Z" transform="translate(-339.414 -126.927)"/><path class="h" d="M191.541,114.093l-2.477,6.4,3.162-6.465Z" transform="translate(-158.767 -95.754)"/><path class="h" d="M327.452,112.321l5.273,7.771-4.489-7.771Z" transform="translate(-274.979 -94.322)"/><path class="f" d="M432.007,189.142s-2.167-4.473.248-4.52,2.6,3.865,2.6,3.865Z" transform="translate(-385.027 -173.244)"/><path class="i" d="M444.37,212.346l-5.067-9.907-.874-2.064-2.893,1.449.622,4.949s-.175,3.3.524,4.334,3.32,8.255,3.32,8.255Z" transform="translate(-388.74 -186.473)"/><path class="f" d="M367.2,176.326s-.413-4.953,1.857-4.128,1.032,4.541,1.032,4.541Z" transform="translate(-331.329 -162.733)"/><path class="h" d="M235.792,79.673l-1.651,20.02,2.477.413Z" transform="translate(-196.621 -66.906)"/><rect class="e" width="4.954" height="4.782" transform="matrix(0.933, -0.361, 0.361, 0.933, 7.999, 53.946)"/><path class="j" d="M192.814,440.143l-4.863,1.881-1.816-4.695L191,435.448ZM188.1,441.7,192.48,440l-1.634-4.225-4.377,1.693Z" transform="translate(-179.305 -383.876)"/><rect class="k" width="46.846" height="39.794" transform="translate(146.301 51.475) rotate(180)"/><rect class="l" width="28.705" height="0.323" transform="translate(105.28 35.431)"/><rect class="l" width="28.705" height="0.323" transform="translate(105.28 37.689)"/><rect class="l" width="28.705" height="0.323" transform="translate(105.28 39.947)"/><rect class="l" width="28.705" height="0.323" transform="translate(105.28 25.074)"/><rect class="l" width="28.705" height="0.323" transform="translate(105.28 27.332)"/><rect class="l" width="28.705" height="0.323" transform="translate(105.28 29.59)"/><rect class="e" width="6.456" height="5.246" transform="translate(105.864 16.973)"/><path class="l" d="M803.312,218.336h-6.725v-5.515h6.725Zm-6.456-.269h6.187V213.09h-6.187Z" transform="translate(-691.933 -196.924)"/></g></svg>