<svg width="260" height="225" viewBox="0 0 260 225" fill="none" xmlns="http://www.w3.org/2000/svg">
<path d="M86.8573 160.69C70.5047 99.6613 -40.9069 68.759 22.2265 51.8424C85.3599 34.9259 213.765 -5.34801 230.118 55.6809C246.47 116.71 226.296 175.04 163.163 191.957C100.029 208.873 103.21 221.719 86.8573 160.69Z" fill="#FFF8D8" fill-opacity="0.67"/>
<path d="M146.132 62H99.7234V184.124H146.132V62Z" fill="#EAEAFA"/>
<path opacity="0.5" d="M146.28 62H111.673V184.124H146.28V62Z" fill="#C8C8EE"/>
<path d="M206.762 103.636H160.353V184.117H206.762V103.636Z" fill="#EAEAFA"/>
<path opacity="0.3" d="M206.762 103.446H172.155V184.124H206.762V103.446Z" fill="#C8C8EE"/>
<path d="M85.2074 83.7773H38.7986V184.116H85.2074V83.7773Z" fill="#EAEAFA"/>
<path opacity="0.4" d="M85.2076 83.5314H50.6013V184.117H85.2076V83.5314Z" fill="#C8C8EE"/>
<path d="M56.8646 184.25C56.8014 185.747 61.5322 187.16 67.4089 187.413C73.2856 187.666 78.1429 186.654 78.2062 185.157C78.2695 183.66 73.5386 182.254 67.662 182.001C61.7853 181.748 56.9279 182.76 56.8646 184.25Z" fill="#EAEAFA"/>
<path d="M56.9792 181.537L56.8645 184.241L78.229 185.148L78.3438 182.444L56.9792 181.537Z" fill="#EAEAFA"/>
<path d="M56.9769 181.544C56.9137 183.041 61.6445 184.454 67.5212 184.707C73.3979 184.96 78.2552 183.948 78.3185 182.451C78.3818 180.953 73.6509 179.547 67.7743 179.294C61.8976 179.041 57.0402 180.053 56.9769 181.544Z" fill="#EAEAFA"/>
<path opacity="0.4" d="M56.9769 181.544C56.9137 183.041 61.6445 184.454 67.5212 184.707C73.3979 184.96 78.2552 183.948 78.3185 182.451C78.3818 180.953 73.6509 179.547 67.7743 179.294C61.8976 179.041 57.0402 180.053 56.9769 181.544Z" fill="white"/>
<path d="M58.3408 181.502C58.3408 181.598 58.373 181.692 58.4322 181.769C59.1352 180.89 63.0506 180.363 67.7182 180.567C72.3858 180.771 76.245 181.614 76.8565 182.549C76.9262 182.48 76.9665 182.387 76.969 182.289C77.0112 181.277 72.8778 180.264 67.7252 180.046C62.5726 179.829 58.383 180.489 58.3408 181.502Z" fill="#EAEAFA"/>
<path opacity="0.4" d="M58.3408 181.502C58.3408 181.598 58.373 181.692 58.4322 181.769C59.1352 180.89 63.0506 180.363 67.7182 180.567C72.3858 180.771 76.245 181.614 76.8565 182.549C76.9262 182.48 76.9665 182.387 76.969 182.289C77.0112 181.277 72.8778 180.264 67.7252 180.046C62.5726 179.829 58.383 180.489 58.3408 181.502Z" fill="#EAEAFA"/>
<path opacity="0.4" d="M58.4321 181.769C59.0718 182.704 62.917 183.547 67.5705 183.744C72.224 183.941 76.1535 183.428 76.8564 182.549C76.2308 181.614 72.3857 180.771 67.7181 180.567C63.0505 180.363 59.1491 180.89 58.4321 181.769Z" fill="#EAEAFA"/>
<path d="M54.5941 180.152C54.5309 181.649 59.2617 183.062 65.1384 183.315C71.015 183.568 75.8724 182.556 75.9357 181.066C75.999 179.576 71.2681 178.156 65.3914 177.902C59.5148 177.649 54.6855 178.662 54.5941 180.152Z" fill="#EAEAFA"/>
<path d="M54.7371 177.453L54.6223 180.157L75.9868 181.064L76.1016 178.36L54.7371 177.453Z" fill="#EAEAFA"/>
<path d="M54.7345 177.453C54.6712 178.943 59.4021 180.356 65.2788 180.609C71.1554 180.862 76.0128 179.85 76.0761 178.359C76.1393 176.869 71.4085 175.449 65.5318 175.196C59.6552 174.943 54.7978 175.955 54.7345 177.453Z" fill="#EAEAFA"/>
<path opacity="0.4" d="M54.7345 177.453C54.6712 178.943 59.4021 180.356 65.2788 180.609C71.1554 180.862 76.0128 179.85 76.0761 178.359C76.1393 176.869 71.4085 175.449 65.5318 175.196C59.6552 174.943 54.7978 175.955 54.7345 177.453Z" fill="white"/>
<path d="M56.0983 177.403C56.0954 177.501 56.1279 177.596 56.1897 177.671C56.8927 176.792 60.8081 176.265 65.4757 176.475C70.1433 176.686 74.0025 177.516 74.614 178.451C74.678 178.381 74.7175 178.292 74.7265 178.198C74.7687 177.185 70.6353 176.166 65.4827 175.948C60.3301 175.73 56.1405 176.391 56.0983 177.403Z" fill="#EAEAFA"/>
<path opacity="0.4" d="M56.0983 177.403C56.0954 177.501 56.1279 177.596 56.1897 177.671C56.8927 176.792 60.8081 176.265 65.4757 176.475C70.1433 176.686 74.0025 177.516 74.614 178.451C74.678 178.381 74.7175 178.292 74.7265 178.198C74.7687 177.185 70.6353 176.166 65.4827 175.948C60.3301 175.73 56.1405 176.391 56.0983 177.403Z" fill="#EAEAFA"/>
<path opacity="0.4" d="M56.1897 177.671C56.8224 178.605 60.6745 179.449 65.328 179.646C69.9816 179.843 73.9111 179.329 74.614 178.451C73.9884 177.516 70.1433 176.672 65.4757 176.475C60.8081 176.279 56.8997 176.792 56.1897 177.671Z" fill="#EAEAFA"/>
<path d="M54.9103 175.217C54.847 176.714 59.5779 178.127 65.4545 178.38C71.3312 178.634 76.1886 177.621 76.2519 176.124C76.3151 174.627 71.5843 173.221 65.7076 172.968C59.8309 172.715 54.9736 173.727 54.9103 175.217Z" fill="#EAEAFA"/>
<path d="M55.0278 172.513L54.9131 175.217L76.2776 176.124L76.3924 173.42L55.0278 172.513Z" fill="#EAEAFA"/>
<path d="M55.0228 172.511C54.9596 174.008 59.6904 175.421 65.5671 175.674C71.4438 175.927 76.2941 174.915 76.3574 173.425C76.4207 171.934 71.6898 170.515 65.8131 170.261C59.9365 170.008 55.0861 171.021 55.0228 172.511Z" fill="#EAEAFA"/>
<path opacity="0.4" d="M55.0228 172.511C54.9596 174.008 59.6904 175.421 65.5671 175.674C71.4438 175.927 76.2941 174.915 76.3574 173.425C76.4207 171.934 71.6898 170.515 65.8131 170.261C59.9365 170.008 55.0861 171.021 55.0228 172.511Z" fill="white"/>
<path d="M56.3865 172.469C56.3865 172.565 56.4186 172.659 56.4779 172.736C57.1808 171.857 61.0962 171.33 65.7638 171.541C70.4314 171.752 74.2906 172.581 74.9022 173.516C74.9714 173.45 75.0118 173.359 75.0147 173.263C75.0568 172.251 70.9235 171.231 65.7709 171.014C60.6182 170.796 56.4287 171.456 56.3865 172.469Z" fill="#EAEAFA"/>
<path opacity="0.4" d="M56.3865 172.469C56.3865 172.565 56.4186 172.659 56.4779 172.736C57.1808 171.857 61.0962 171.33 65.7638 171.541C70.4314 171.752 74.2906 172.581 74.9022 173.516C74.9714 173.45 75.0118 173.359 75.0147 173.263C75.0568 172.251 70.9235 171.231 65.7709 171.014C60.6182 170.796 56.4287 171.456 56.3865 172.469Z" fill="#EAEAFA"/>
<path opacity="0.4" d="M56.4778 172.736C57.1175 173.671 60.9626 174.514 65.6161 174.711C70.2697 174.908 74.1992 174.395 74.9021 173.516C74.2765 172.581 70.4313 171.738 65.7638 171.541C61.0962 171.344 57.1948 171.871 56.4778 172.736Z" fill="#EAEAFA"/>
<path d="M52.6679 171.126C52.6046 172.616 57.3355 174.029 63.2121 174.282C69.0888 174.535 73.9462 173.523 74.0094 172.033C74.0727 170.543 69.3418 169.123 63.4652 168.87C57.5885 168.617 52.7311 169.629 52.6679 171.126Z" fill="#EAEAFA"/>
<path d="M52.7783 168.401L52.6636 171.105L74.0281 172.012L74.1428 169.308L52.7783 168.401Z" fill="#EAEAFA"/>
<path d="M52.7804 168.42C52.7171 169.91 57.448 171.323 63.3247 171.576C69.2013 171.829 74.0587 170.817 74.122 169.327C74.1852 167.836 69.4544 166.416 63.5777 166.163C57.7011 165.91 52.8437 166.951 52.7804 168.42Z" fill="#EAEAFA"/>
<path opacity="0.4" d="M52.7804 168.42C52.7171 169.91 57.448 171.323 63.3247 171.576C69.2013 171.829 74.0587 170.817 74.122 169.327C74.1852 167.836 69.4544 166.416 63.5777 166.163C57.7011 165.91 52.8437 166.951 52.7804 168.42Z" fill="white"/>
<path d="M54.1442 168.356C54.1399 168.454 54.1725 168.549 54.2356 168.624C54.9385 167.745 58.8539 167.218 63.5215 167.428C68.1891 167.639 72.0483 168.469 72.6599 169.404C72.7239 169.334 72.7634 169.245 72.7724 169.151C72.8145 168.138 68.6812 167.119 63.5286 166.901C58.3759 166.683 54.1864 167.358 54.1442 168.356Z" fill="#EAEAFA"/>
<path opacity="0.4" d="M54.1442 168.356C54.1399 168.454 54.1725 168.549 54.2356 168.624C54.9385 167.745 58.8539 167.218 63.5215 167.428C68.1891 167.639 72.0483 168.469 72.6599 169.404C72.7239 169.334 72.7634 169.245 72.7724 169.151C72.8145 168.138 68.6812 167.119 63.5286 166.901C58.3759 166.683 54.1864 167.358 54.1442 168.356Z" fill="#EAEAFA"/>
<path opacity="0.4" d="M54.2354 168.638C54.868 169.573 58.7202 170.416 63.3737 170.613C68.0272 170.81 71.9567 170.297 72.6597 169.418C72.034 168.483 68.1889 167.639 63.5213 167.443C58.8537 167.246 54.9453 167.759 54.2354 168.638Z" fill="#EAEAFA"/>
<path d="M56.0912 167.653C56.0279 169.144 60.7588 170.557 66.6355 170.81C72.5121 171.063 77.3695 170.051 77.4328 168.56C77.496 167.07 72.7652 165.65 66.8885 165.397C61.0119 165.144 56.1545 166.156 56.0912 167.653Z" fill="#EAEAFA"/>
<path d="M56.2092 164.946L56.0945 167.65L77.459 168.557L77.5737 165.853L56.2092 164.946Z" fill="#EAEAFA"/>
<path d="M56.2106 164.947C56.1473 166.437 60.8782 167.85 66.7548 168.103C72.6315 168.356 77.4889 167.344 77.5522 165.854C77.6154 164.364 72.8846 162.944 67.0079 162.691C61.1312 162.438 56.2739 163.436 56.2106 164.947Z" fill="#EAEAFA"/>
<path opacity="0.4" d="M56.2106 164.947C56.1473 166.437 60.8782 167.85 66.7548 168.103C72.6315 168.356 77.4889 167.344 77.5522 165.854C77.6154 164.364 72.8846 162.944 67.0079 162.691C61.1312 162.438 56.2739 163.436 56.2106 164.947Z" fill="white"/>
<path d="M57.5674 164.898C57.5698 164.994 57.6017 165.087 57.6588 165.165C58.3617 164.286 62.2842 163.759 66.9447 163.97C71.6053 164.181 75.4786 165.01 76.0831 165.945C76.1515 165.878 76.1939 165.788 76.2026 165.692C76.2448 164.68 72.1114 163.661 66.9588 163.443C61.8062 163.225 57.6166 163.886 57.5674 164.898Z" fill="#EAEAFA"/>
<path opacity="0.4" d="M57.5674 164.898C57.5698 164.994 57.6017 165.087 57.6588 165.165C58.3617 164.286 62.2842 163.759 66.9447 163.97C71.6053 164.181 75.4786 165.01 76.0831 165.945C76.1515 165.878 76.1939 165.788 76.2026 165.692C76.2448 164.68 72.1114 163.661 66.9588 163.443C61.8062 163.225 57.6166 163.886 57.5674 164.898Z" fill="#EAEAFA"/>
<path opacity="0.4" d="M57.6589 165.165C58.2986 166.1 62.1438 166.943 66.7973 167.14C71.4508 167.337 75.3873 166.824 76.0833 165.945C75.4647 165.01 71.6125 164.167 66.9449 163.97C62.2773 163.773 58.3759 164.286 57.6589 165.165Z" fill="#EAEAFA"/>
<path d="M53.8488 163.555C53.7855 165.046 58.5164 166.466 64.393 166.712C70.2697 166.958 75.1271 165.952 75.1903 164.462C75.2536 162.972 70.5228 161.552 64.6461 161.299C58.7694 161.046 53.8909 162.03 53.8488 163.555Z" fill="#EAEAFA"/>
<path d="M53.96 160.841L53.8452 163.545L75.2097 164.451L75.3245 161.747L53.96 160.841Z" fill="#EAEAFA"/>
<path d="M53.9613 160.849C53.8981 162.339 58.6289 163.759 64.5056 164.005C70.3822 164.251 75.2396 163.253 75.3029 161.756C75.3662 160.258 70.6353 158.845 64.7586 158.592C58.882 158.339 54.0246 159.352 53.9613 160.849Z" fill="#EAEAFA"/>
<path opacity="0.4" d="M53.9613 160.849C53.8981 162.339 58.6289 163.759 64.5056 164.005C70.3822 164.251 75.2396 163.253 75.3029 161.756C75.3662 160.258 70.6353 158.845 64.7586 158.592C58.882 158.339 54.0246 159.352 53.9613 160.849Z" fill="white"/>
<path d="M55.2967 160.8C55.2944 160.897 55.3268 160.991 55.3881 161.067C56.0911 160.188 60.0065 159.661 64.6741 159.872C69.3417 160.083 73.2009 160.912 73.8125 161.854C73.8809 161.784 73.921 161.692 73.9249 161.594C73.9671 160.582 69.8338 159.57 64.6811 159.345C59.5285 159.12 55.367 159.787 55.2967 160.8Z" fill="#EAEAFA"/>
<path opacity="0.4" d="M55.2967 160.8C55.2944 160.897 55.3268 160.991 55.3881 161.067C56.0911 160.188 60.0065 159.661 64.6741 159.872C69.3417 160.083 73.2009 160.912 73.8125 161.854C73.8809 161.784 73.921 161.692 73.9249 161.594C73.9671 160.582 69.8338 159.57 64.6811 159.345C59.5285 159.12 55.367 159.787 55.2967 160.8Z" fill="#EAEAFA"/>
<path opacity="0.4" d="M55.4163 161.067C56.0559 162.002 59.9011 162.845 64.5546 163.049C69.2081 163.253 73.1376 162.733 73.8406 161.854C73.215 160.912 69.3698 160.069 64.7022 159.872C60.0346 159.675 56.1333 160.188 55.4163 161.067Z" fill="#EAEAFA"/>
<path d="M25.0069 182.943C24.9366 184.44 29.6674 185.853 35.5511 186.099C41.4348 186.345 46.2781 185.347 46.3414 183.849C46.4047 182.352 41.6809 180.939 35.7972 180.693C29.9135 180.447 25.0701 181.445 25.0069 182.943Z" fill="#EAEAFA"/>
<path d="M25.1147 180.223L25 182.927L46.3645 183.833L46.4793 181.129L25.1147 180.223Z" fill="#EAEAFA"/>
<path d="M25.1193 180.236C25.056 181.734 29.7869 183.146 35.6635 183.4C41.5402 183.653 46.3976 182.64 46.4608 181.143C46.5241 179.646 41.7933 178.233 35.9166 177.987C30.0399 177.741 25.1825 178.739 25.1193 180.236Z" fill="#EAEAFA"/>
<path opacity="0.4" d="M25.1193 180.236C25.056 181.734 29.7869 183.146 35.6635 183.4C41.5402 183.653 46.3976 182.64 46.4608 181.143C46.5241 179.646 41.7933 178.233 35.9166 177.987C30.0399 177.741 25.1825 178.739 25.1193 180.236Z" fill="white"/>
<path d="M26.476 180.187C26.4702 180.285 26.503 180.381 26.5674 180.454C27.2703 179.576 31.1858 179.048 35.8533 179.259C40.5209 179.47 44.3801 180.307 44.9917 181.242C45.0558 181.169 45.0952 181.078 45.1042 180.981C45.1463 179.969 41.013 178.957 35.8604 178.739C30.7077 178.521 26.5252 179.175 26.476 180.187Z" fill="#EAEAFA"/>
<path opacity="0.4" d="M26.476 180.187C26.4702 180.285 26.503 180.381 26.5674 180.454C27.2703 179.576 31.1858 179.048 35.8533 179.259C40.5209 179.47 44.3801 180.307 44.9917 181.242C45.0558 181.169 45.0952 181.078 45.1042 180.981C45.1463 179.969 41.013 178.957 35.8604 178.739C30.7077 178.521 26.5252 179.175 26.476 180.187Z" fill="#EAEAFA"/>
<path opacity="0.4" d="M26.5745 180.454C27.2071 181.389 31.0593 182.24 35.7128 182.437C40.3663 182.633 44.2958 182.12 44.9988 181.241C44.3732 180.307 40.528 179.456 35.8604 179.259C31.1928 179.062 27.2844 179.604 26.5745 180.454Z" fill="#EAEAFA"/>
<path d="M34.2998 180.307C33.9483 181.762 38.3277 184.046 44.0708 185.41C49.8139 186.774 54.7556 186.703 55.1001 185.248C55.4445 183.793 51.0652 181.509 45.322 180.145C39.5789 178.781 34.6442 178.851 34.2998 180.307Z" fill="#EAEAFA"/>
<path d="M34.9241 177.687L34.2979 180.32L55.1012 185.268L55.7275 182.636L34.9241 177.687Z" fill="#EAEAFA"/>
<path d="M34.9114 177.67C34.5599 179.126 38.9393 181.41 44.6824 182.781C50.4255 184.152 55.3672 184.074 55.7117 182.619C56.0561 181.164 51.6978 178.901 45.9477 177.495C40.1975 176.089 35.2699 176.215 34.9114 177.67Z" fill="#EAEAFA"/>
<path opacity="0.4" d="M34.9114 177.67C34.5599 179.126 38.9393 181.41 44.6824 182.781C50.4255 184.152 55.3672 184.074 55.7117 182.619C56.0561 181.164 51.6978 178.901 45.9477 177.495C40.1975 176.089 35.2699 176.215 34.9114 177.67Z" fill="white"/>
<path d="M36.2679 177.881C36.2471 177.977 36.2621 178.077 36.3101 178.163C37.1747 177.46 41.1112 177.67 45.6523 178.753C50.1934 179.836 53.8276 181.396 54.2634 182.429C54.3428 182.373 54.4001 182.291 54.4251 182.197C54.6571 181.213 50.7909 179.435 45.7718 178.24C40.7527 177.045 36.5069 176.897 36.2679 177.881Z" fill="#EAEAFA"/>
<path opacity="0.4" d="M36.2679 177.881C36.2471 177.977 36.2621 178.077 36.3101 178.163C37.1747 177.46 41.1112 177.67 45.6523 178.753C50.1934 179.836 53.8276 181.396 54.2634 182.429C54.3428 182.373 54.4001 182.291 54.4251 182.197C54.6571 181.213 50.7909 179.435 45.7718 178.24C40.7527 177.045 36.5069 176.897 36.2679 177.881Z" fill="#EAEAFA"/>
<path opacity="0.4" d="M36.3171 178.198C36.767 179.238 40.3802 180.799 44.9283 181.874C49.4764 182.95 53.4129 183.196 54.2705 182.465C53.8347 181.431 50.2145 179.871 45.6593 178.788C41.1042 177.706 37.1747 177.432 36.3171 178.198Z" fill="#EAEAFA"/>
<path d="M61.4126 162.662C66.7314 162.662 71.0431 158.351 71.0431 153.032C71.0431 147.713 66.7314 143.402 61.4126 143.402C56.0939 143.402 51.7822 147.713 51.7822 153.032C51.7822 158.351 56.0939 162.662 61.4126 162.662Z" fill="#EAEAFA"/>
<path d="M62.5655 162.662C67.8842 162.662 72.1959 158.351 72.1959 153.032C72.1959 147.713 67.8842 143.402 62.5655 143.402C57.2467 143.402 52.9351 147.713 52.9351 153.032C52.9351 158.351 57.2467 162.662 62.5655 162.662Z" fill="#EAEAFA"/>
<path opacity="0.5" d="M62.5655 162.662C67.8842 162.662 72.1959 158.351 72.1959 153.032C72.1959 147.713 67.8842 143.402 62.5655 143.402C57.2467 143.402 52.9351 147.713 52.9351 153.032C52.9351 158.351 57.2467 162.662 62.5655 162.662Z" fill="white"/>
<path d="M67.666 158.131C70.4825 155.315 70.4826 150.748 67.666 147.932C64.8494 145.115 60.2829 145.115 57.4663 147.932C54.6497 150.748 54.6497 155.315 57.4663 158.131C60.2829 160.948 64.8494 160.948 67.666 158.131Z" fill="#EAEAFA"/>
<path opacity="0.3" d="M65.4828 155.415C65.1913 155.717 64.84 155.954 64.4513 156.111C64.0627 156.268 63.6454 156.343 63.2263 156.329C62.5843 156.35 61.9514 156.173 61.4133 155.822C60.8752 155.471 60.4578 154.963 60.2177 154.368H64.0979V153.538H60.0068C59.9998 153.412 59.9998 153.285 60.0068 153.159C59.9996 153.032 59.9996 152.905 60.0068 152.779H64.0909V151.95H60.2177C60.4583 151.353 60.8767 150.844 61.4162 150.493C61.9557 150.142 62.5901 149.966 63.2333 149.988C63.6519 149.974 64.0689 150.047 64.4575 150.203C64.8461 150.359 65.1977 150.595 65.4898 150.895L65.6023 151.008L66.3825 150.241L66.2771 150.129C65.8773 149.72 65.3959 149.4 64.8642 149.189C64.3326 148.978 63.7625 148.882 63.1911 148.906C62.2491 148.869 61.3217 149.148 60.5572 149.7C59.7927 150.252 59.2351 151.044 58.9734 151.95H57.6027V152.779H58.8118C58.8118 152.906 58.8118 153.032 58.8118 153.159C58.8118 153.285 58.8118 153.412 58.8118 153.538H57.5886V154.368H58.9594C59.2211 155.273 59.7787 156.065 60.5432 156.617C61.3077 157.169 62.235 157.448 63.1771 157.411C63.7495 157.433 64.32 157.334 64.8516 157.121C65.3833 156.908 65.8642 156.585 66.263 156.174L66.3685 156.062L65.5882 155.296L65.4828 155.415Z" fill="white"/>
<path d="M197.483 185.572C197.426 187.062 192.604 188.102 186.699 187.891C180.795 187.681 176.064 186.296 176.113 184.805C176.162 183.315 180.998 182.268 186.896 182.479C192.794 182.69 197.539 184.074 197.483 185.572Z" fill="#EAEAFA"/>
<path d="M176.201 182.076L176.104 184.781L197.475 185.546L197.571 182.841L176.201 182.076Z" fill="#EAEAFA"/>
<path d="M197.581 182.865C197.525 184.356 192.703 185.396 186.798 185.185C180.893 184.974 176.162 183.589 176.211 182.099C176.261 180.609 181.09 179.561 186.995 179.772C192.899 179.983 197.637 181.368 197.581 182.865Z" fill="#EAEAFA"/>
<path opacity="0.4" d="M197.581 182.865C197.525 184.356 192.703 185.396 186.798 185.185C180.893 184.974 176.162 183.589 176.211 182.099C176.261 180.609 181.09 179.561 186.995 179.772C192.899 179.983 197.637 181.368 197.581 182.865Z" fill="white"/>
<path d="M196.224 182.711C196.22 182.808 196.18 182.901 196.112 182.971C195.472 182.036 191.62 181.213 186.974 181.052C182.327 180.89 178.391 181.424 177.695 182.303C177.633 182.23 177.598 182.138 177.596 182.043C177.638 181.031 181.814 180.342 186.988 180.524C192.161 180.707 196.26 181.712 196.224 182.711Z" fill="#EAEAFA"/>
<path opacity="0.4" d="M196.224 182.711C196.22 182.808 196.18 182.901 196.112 182.971C195.472 182.036 191.62 181.213 186.974 181.052C182.327 180.89 178.391 181.424 177.695 182.303C177.633 182.23 177.598 182.138 177.596 182.043C177.638 181.031 181.814 180.342 186.988 180.524C192.161 180.707 196.26 181.712 196.224 182.711Z" fill="#EAEAFA"/>
<path opacity="0.4" d="M196.112 182.971C195.409 183.849 191.501 184.377 186.833 184.222C182.165 184.067 178.299 183.238 177.695 182.303C178.398 181.424 182.292 180.897 186.974 181.052C191.655 181.206 195.472 182.036 196.112 182.971Z" fill="#EAEAFA"/>
<path d="M200.041 181.663C199.985 183.154 195.163 184.194 189.258 183.983C183.353 183.772 178.623 182.387 178.672 180.89C178.721 179.393 183.557 178.359 189.455 178.57C195.353 178.781 200.105 180.166 200.041 181.663Z" fill="#EAEAFA"/>
<path d="M178.782 178.206L178.685 180.911L200.055 181.679L200.152 178.975L178.782 178.206Z" fill="#EAEAFA"/>
<path d="M200.14 178.957C200.084 180.447 195.261 181.488 189.357 181.277C183.452 181.066 178.714 179.681 178.77 178.184C178.827 176.686 183.649 175.653 189.554 175.864C195.458 176.075 200.189 177.495 200.14 178.957Z" fill="#EAEAFA"/>
<path opacity="0.4" d="M200.14 178.957C200.084 180.447 195.261 181.488 189.357 181.277C183.452 181.066 178.714 179.681 178.77 178.184C178.827 176.686 183.649 175.653 189.554 175.864C195.458 176.075 200.189 177.495 200.14 178.957Z" fill="white"/>
<path d="M198.783 178.802C198.78 178.898 198.74 178.989 198.671 179.055C198.031 178.127 194.179 177.305 189.532 177.143C184.886 176.982 180.942 177.516 180.253 178.395C180.192 178.322 180.157 178.23 180.155 178.134C180.197 177.122 184.373 176.433 189.546 176.616C194.72 176.799 198.818 177.79 198.783 178.802Z" fill="#EAEAFA"/>
<path opacity="0.4" d="M198.783 178.802C198.78 178.898 198.74 178.989 198.671 179.055C198.031 178.127 194.179 177.305 189.532 177.143C184.886 176.982 180.942 177.516 180.253 178.395C180.192 178.322 180.157 178.23 180.155 178.134C180.197 177.122 184.373 176.433 189.546 176.616C194.72 176.799 198.818 177.79 198.783 178.802Z" fill="#EAEAFA"/>
<path opacity="0.4" d="M198.699 179.055C197.996 179.941 194.087 180.461 189.42 180.314C184.752 180.166 180.886 179.329 180.281 178.395C180.984 177.516 184.879 176.989 189.56 177.143C194.242 177.298 198.031 178.127 198.699 179.055Z" fill="#EAEAFA"/>
<path d="M200.14 176.715C200.084 178.212 195.254 179.252 189.357 179.041C183.459 178.83 178.714 177.446 178.77 175.948C178.827 174.451 183.649 173.418 189.554 173.629C195.458 173.839 200.189 175.224 200.14 176.715Z" fill="#EAEAFA"/>
<path d="M178.873 173.262L178.776 175.967L200.146 176.735L200.243 174.031L178.873 173.262Z" fill="#EAEAFA"/>
<path d="M200.238 173.98C200.182 175.477 195.353 176.518 189.455 176.307C183.557 176.096 178.812 174.711 178.868 173.214C178.925 171.717 183.747 170.683 189.645 170.894C195.542 171.105 200.287 172.518 200.238 173.98Z" fill="#EAEAFA"/>
<path opacity="0.4" d="M200.238 173.98C200.182 175.477 195.353 176.518 189.455 176.307C183.557 176.096 178.812 174.711 178.868 173.214C178.925 171.717 183.747 170.683 189.645 170.894C195.542 171.105 200.287 172.518 200.238 173.98Z" fill="white"/>
<path d="M198.882 173.861C198.873 173.955 198.833 174.044 198.769 174.114C198.122 173.186 194.27 172.363 189.631 172.195C184.991 172.026 181.048 172.567 180.352 173.453C180.29 173.378 180.258 173.283 180.26 173.186C180.26 172.173 184.478 171.492 189.652 171.674C194.826 171.857 198.917 172.848 198.882 173.861Z" fill="#EAEAFA"/>
<path opacity="0.4" d="M198.882 173.861C198.873 173.955 198.833 174.044 198.769 174.114C198.122 173.186 194.27 172.363 189.631 172.195C184.991 172.026 181.048 172.567 180.352 173.453C180.29 173.378 180.258 173.283 180.26 173.186C180.26 172.173 184.478 171.492 189.652 171.674C194.826 171.857 198.917 172.848 198.882 173.861Z" fill="#EAEAFA"/>
<path opacity="0.4" d="M198.769 174.114C198.066 174.999 194.158 175.519 189.49 175.372C184.822 175.224 180.956 174.388 180.352 173.453C181.055 172.567 184.949 172.047 189.631 172.195C194.312 172.342 198.122 173.186 198.769 174.114Z" fill="#EAEAFA"/>
<path d="M202.699 172.806C202.642 174.303 197.813 175.344 191.915 175.133C186.018 174.922 181.273 173.537 181.329 172.04C181.385 170.543 186.207 169.509 192.112 169.72C198.017 169.931 202.748 171.316 202.699 172.806Z" fill="#EAEAFA"/>
<path d="M181.408 169.321L181.311 172.026L202.681 172.791L202.778 170.086L181.408 169.321Z" fill="#EAEAFA"/>
<path d="M202.79 170.1C202.741 171.597 197.911 172.637 192.014 172.426C186.116 172.216 181.371 170.831 181.427 169.334C181.483 167.836 186.306 166.803 192.203 167.014C198.101 167.225 202.846 168.609 202.79 170.1Z" fill="#EAEAFA"/>
<path opacity="0.4" d="M202.79 170.1C202.741 171.597 197.911 172.637 192.014 172.426C186.116 172.216 181.371 170.831 181.427 169.334C181.483 167.836 186.306 166.803 192.203 167.014C198.101 167.225 202.846 168.609 202.79 170.1Z" fill="white"/>
<path d="M201.44 169.952C201.431 170.046 201.392 170.135 201.328 170.205C200.681 169.277 196.829 168.455 192.19 168.286C187.55 168.117 183.607 168.659 182.911 169.544C182.849 169.469 182.817 169.374 182.819 169.277C182.854 168.265 187.037 167.583 192.211 167.766C197.384 167.949 201.511 168.94 201.44 169.952Z" fill="#EAEAFA"/>
<path opacity="0.4" d="M201.44 169.952C201.431 170.046 201.392 170.135 201.328 170.205C200.681 169.277 196.829 168.455 192.19 168.286C187.55 168.117 183.607 168.659 182.911 169.544C182.849 169.469 182.817 169.374 182.819 169.277C182.854 168.265 187.037 167.583 192.211 167.766C197.384 167.949 201.511 168.94 201.44 169.952Z" fill="#EAEAFA"/>
<path opacity="0.4" d="M201.328 170.205C200.625 171.091 196.716 171.611 192.049 171.463C187.381 171.316 183.515 170.479 182.91 169.544C183.613 168.659 187.508 168.138 192.189 168.286C196.871 168.434 200.681 169.277 201.328 170.205Z" fill="#EAEAFA"/>
<path d="M117.86 182.563C117.796 184.06 122.52 185.473 128.404 185.726C134.287 185.979 139.131 184.967 139.194 183.47C139.257 181.973 134.533 180.56 128.65 180.314C122.766 180.068 117.902 181.073 117.86 182.563Z" fill="#EAEAFA"/>
<path d="M117.939 179.847L117.824 182.551L139.189 183.458L139.303 180.754L117.939 179.847Z" fill="#EAEAFA"/>
<path d="M117.951 179.857C117.888 181.354 122.618 182.767 128.495 183.02C134.372 183.273 139.229 182.261 139.292 180.763C139.356 179.266 134.625 177.853 128.748 177.607C122.871 177.361 118.014 178.366 117.951 179.857Z" fill="#EAEAFA"/>
<path opacity="0.4" d="M117.951 179.857C117.888 181.354 122.618 182.767 128.495 183.02C134.372 183.273 139.229 182.261 139.292 180.763C139.356 179.266 134.625 177.853 128.748 177.607C122.871 177.361 118.014 178.366 117.951 179.857Z" fill="white"/>
<path d="M119.315 179.814C119.311 179.91 119.343 180.003 119.406 180.075C120.109 179.196 124.024 178.669 128.692 178.88C133.359 179.09 137.219 179.927 137.83 180.862C137.894 180.789 137.934 180.698 137.943 180.602C137.985 179.59 133.852 178.577 128.699 178.359C123.546 178.141 119.357 178.802 119.315 179.814Z" fill="#EAEAFA"/>
<path opacity="0.4" d="M119.315 179.814C119.311 179.91 119.343 180.003 119.406 180.075C120.109 179.196 124.024 178.669 128.692 178.88C133.359 179.09 137.219 179.927 137.83 180.862C137.894 180.789 137.934 180.698 137.943 180.602C137.985 179.59 133.852 178.577 128.699 178.359C123.546 178.141 119.357 178.802 119.315 179.814Z" fill="#EAEAFA"/>
<path opacity="0.4" d="M119.406 180.075C120.039 181.017 123.891 181.86 128.544 182.057C133.198 182.254 137.127 181.741 137.83 180.862C137.205 179.927 133.36 179.083 128.692 178.88C124.024 178.676 120.116 179.196 119.406 180.075Z" fill="#EAEAFA"/>
<path d="M115.589 178.465C115.525 179.962 120.256 181.375 126.133 181.628C132.01 181.881 136.867 180.869 136.93 179.372C136.994 177.874 132.263 176.461 126.386 176.215C120.509 175.969 115.652 176.975 115.589 178.465Z" fill="#EAEAFA"/>
<path d="M115.703 175.77L115.589 178.474L136.953 179.381L137.068 176.677L115.703 175.77Z" fill="#EAEAFA"/>
<path d="M115.708 175.759C115.645 177.256 120.376 178.669 126.253 178.922C132.129 179.175 136.987 178.163 137.05 176.665C137.113 175.168 132.382 173.762 126.506 173.509C120.629 173.256 115.751 174.268 115.708 175.759Z" fill="#EAEAFA"/>
<path opacity="0.4" d="M115.708 175.759C115.645 177.256 120.376 178.669 126.253 178.922C132.129 179.175 136.987 178.163 137.05 176.665C137.113 175.168 132.382 173.762 126.506 173.509C120.629 173.256 115.751 174.268 115.708 175.759Z" fill="white"/>
<path d="M117.065 175.716C117.069 175.812 117.101 175.905 117.157 175.983C117.86 175.105 121.782 174.578 126.443 174.781C131.103 174.985 134.976 175.829 135.581 176.764C135.65 176.694 135.692 176.602 135.7 176.504C135.743 175.491 131.609 174.479 126.457 174.261C121.304 174.043 117.114 174.683 117.065 175.716Z" fill="#EAEAFA"/>
<path opacity="0.4" d="M117.065 175.716C117.069 175.812 117.101 175.905 117.157 175.983C117.86 175.105 121.782 174.578 126.443 174.781C131.103 174.985 134.976 175.829 135.581 176.764C135.65 176.694 135.692 176.602 135.7 176.504C135.743 175.491 131.609 174.479 126.457 174.261C121.304 174.043 117.114 174.683 117.065 175.716Z" fill="#EAEAFA"/>
<path opacity="0.4" d="M117.156 175.983C117.796 176.918 121.641 177.762 126.295 177.959C130.948 178.156 134.885 177.642 135.581 176.764C134.962 175.829 131.11 174.985 126.442 174.781C121.775 174.578 117.859 175.105 117.156 175.983Z" fill="#EAEAFA"/>
<path d="M115.884 173.53C115.821 175.027 120.552 176.44 126.428 176.693C132.305 176.946 137.162 175.934 137.226 174.437C137.289 172.94 132.558 171.527 126.681 171.281C120.805 171.035 115.947 172.04 115.884 173.53Z" fill="#EAEAFA"/>
<path d="M115.995 170.823L115.88 173.527L137.244 174.434L137.359 171.73L115.995 170.823Z" fill="#EAEAFA"/>
<path d="M115.997 170.824C115.933 172.321 120.664 173.734 126.541 173.987C132.418 174.24 137.275 173.228 137.338 171.731C137.402 170.233 132.671 168.82 126.794 168.574C120.917 168.328 116.06 169.334 115.997 170.824Z" fill="#EAEAFA"/>
<path opacity="0.4" d="M115.997 170.824C115.933 172.321 120.664 173.734 126.541 173.987C132.418 174.24 137.275 173.228 137.338 171.731C137.402 170.233 132.671 168.82 126.794 168.574C120.917 168.328 116.06 169.334 115.997 170.824Z" fill="white"/>
<path d="M117.36 170.782C117.357 170.877 117.389 170.97 117.452 171.042C118.155 170.17 122.07 169.636 126.738 169.847C131.405 170.058 135.265 170.894 135.876 171.829C135.94 171.756 135.98 171.665 135.989 171.569C136.031 170.557 131.897 169.544 126.745 169.327C121.592 169.109 117.403 169.762 117.36 170.782Z" fill="#EAEAFA"/>
<path opacity="0.4" d="M117.36 170.782C117.357 170.877 117.389 170.97 117.452 171.042C118.155 170.17 122.07 169.636 126.738 169.847C131.405 170.058 135.265 170.894 135.876 171.829C135.94 171.756 135.98 171.665 135.989 171.569C136.031 170.557 131.897 169.544 126.745 169.327C121.592 169.109 117.403 169.762 117.36 170.782Z" fill="#EAEAFA"/>
<path opacity="0.4" d="M117.452 171.042C118.084 171.984 121.936 172.827 126.59 173.024C131.244 173.221 135.173 172.708 135.876 171.829C135.25 170.894 131.405 170.051 126.738 169.847C122.07 169.643 118.162 170.17 117.452 171.042Z" fill="#EAEAFA"/>
<path d="M113.642 169.432C113.578 170.929 118.309 172.342 124.186 172.595C130.063 172.848 134.92 171.836 134.983 170.339C135.047 168.841 130.316 167.436 124.439 167.182C118.562 166.929 113.698 167.942 113.642 169.432Z" fill="#EAEAFA"/>
<path d="M113.745 166.718L113.63 169.422L134.995 170.329L135.109 167.625L113.745 166.718Z" fill="#EAEAFA"/>
<path d="M113.754 166.726C113.691 168.223 118.422 169.636 124.299 169.889C130.175 170.142 135.033 169.13 135.096 167.632C135.159 166.135 130.428 164.729 124.552 164.476C118.675 164.223 113.818 165.235 113.754 166.726Z" fill="#EAEAFA"/>
<path opacity="0.4" d="M113.754 166.726C113.691 168.223 118.422 169.636 124.299 169.889C130.175 170.142 135.033 169.13 135.096 167.632C135.159 166.135 130.428 164.729 124.552 164.476C118.675 164.223 113.818 165.235 113.754 166.726Z" fill="white"/>
<path d="M115.118 166.683C115.115 166.779 115.145 166.873 115.202 166.951C115.905 166.072 119.828 165.545 124.495 165.756C129.163 165.966 133.022 166.796 133.634 167.731C133.699 167.659 133.739 167.568 133.746 167.471C133.788 166.465 129.655 165.446 124.502 165.228C119.35 165.01 115.16 165.671 115.118 166.683Z" fill="#EAEAFA"/>
<path opacity="0.4" d="M115.118 166.683C115.115 166.779 115.145 166.873 115.202 166.951C115.905 166.072 119.828 165.545 124.495 165.756C129.163 165.966 133.022 166.796 133.634 167.731C133.699 167.659 133.739 167.568 133.746 167.471C133.788 166.465 129.655 165.446 124.502 165.228C119.35 165.01 115.16 165.671 115.118 166.683Z" fill="#EAEAFA"/>
<path opacity="0.4" d="M115.202 166.951C115.842 167.885 119.687 168.729 124.341 168.926C128.994 169.123 132.931 168.609 133.634 167.731C133.008 166.796 129.156 165.952 124.495 165.756C119.835 165.559 115.919 166.072 115.202 166.951Z" fill="#EAEAFA"/>
<path d="M117.065 165.959C117.002 167.457 121.733 168.87 127.609 169.123C133.486 169.376 138.343 168.363 138.407 166.866C138.47 165.369 133.739 163.963 127.862 163.71C121.986 163.457 117.156 164.469 117.065 165.959Z" fill="#EAEAFA"/>
<path d="M117.183 163.256L117.068 165.96L138.433 166.867L138.548 164.163L117.183 163.256Z" fill="#EAEAFA"/>
<path d="M117.156 163.253C117.093 164.75 121.824 166.163 127.701 166.416C133.577 166.669 138.435 165.657 138.498 164.16C138.561 162.663 133.83 161.257 127.954 161.004C122.077 160.751 117.241 161.763 117.156 163.253Z" fill="#EAEAFA"/>
<path opacity="0.4" d="M117.156 163.253C117.093 164.75 121.824 166.163 127.701 166.416C133.577 166.669 138.435 165.657 138.498 164.16C138.561 162.663 133.83 161.257 127.954 161.004C122.077 160.751 117.241 161.763 117.156 163.253Z" fill="white"/>
<path d="M118.563 163.211C118.562 163.308 118.595 163.402 118.654 163.478C119.357 162.599 123.272 162.072 127.94 162.283C132.607 162.494 136.467 163.323 137.078 164.258C137.113 164.225 137.141 164.184 137.161 164.14C137.18 164.095 137.19 164.047 137.191 163.998C137.233 162.993 133.1 161.974 127.947 161.756C122.794 161.538 118.563 162.199 118.563 163.211Z" fill="#EAEAFA"/>
<path opacity="0.4" d="M118.563 163.211C118.562 163.308 118.595 163.402 118.654 163.478C119.357 162.599 123.272 162.072 127.94 162.283C132.607 162.494 136.467 163.323 137.078 164.258C137.113 164.225 137.141 164.184 137.161 164.14C137.18 164.095 137.19 164.047 137.191 163.998C137.233 162.993 133.1 161.974 127.947 161.756C122.794 161.538 118.563 162.199 118.563 163.211Z" fill="#EAEAFA"/>
<path opacity="0.4" d="M118.633 163.478C119.272 164.413 123.118 165.256 127.771 165.453C132.425 165.65 136.354 165.137 137.057 164.258C136.432 163.323 132.586 162.48 127.919 162.283C123.251 162.086 119.35 162.599 118.633 163.478Z" fill="#EAEAFA"/>
<path d="M114.823 161.868C114.76 163.358 119.49 164.771 125.367 165.024C131.244 165.278 136.094 164.265 136.164 162.775C136.235 161.285 131.497 159.865 125.62 159.612C119.744 159.359 114.886 160.371 114.823 161.868Z" fill="#EAEAFA"/>
<path d="M114.927 159.151L114.812 161.855L136.176 162.762L136.291 160.058L114.927 159.151Z" fill="#EAEAFA"/>
<path d="M114.935 159.162C114.872 160.652 119.603 162.065 125.479 162.318C131.356 162.571 136.214 161.559 136.277 160.069C136.34 158.578 131.609 157.158 125.733 156.905C119.856 156.652 114.998 157.665 114.935 159.162Z" fill="#EAEAFA"/>
<path opacity="0.4" d="M114.935 159.162C114.872 160.652 119.603 162.065 125.479 162.318C131.356 162.571 136.214 161.559 136.277 160.069C136.34 158.578 131.609 157.158 125.733 156.905C119.856 156.652 114.998 157.665 114.935 159.162Z" fill="white"/>
<path d="M116.299 159.113C116.295 159.21 116.327 159.305 116.39 159.38C117.093 158.501 121.009 157.974 125.676 158.185C130.344 158.396 134.203 159.225 134.815 160.16C134.879 160.09 134.918 160.001 134.927 159.907C134.969 158.895 130.836 157.875 125.683 157.658C120.531 157.44 116.341 158.1 116.299 159.113Z" fill="#EAEAFA"/>
<path opacity="0.4" d="M116.299 159.113C116.295 159.21 116.327 159.305 116.39 159.38C117.093 158.501 121.009 157.974 125.676 158.185C130.344 158.396 134.203 159.225 134.815 160.16C134.879 160.09 134.918 160.001 134.927 159.907C134.969 158.895 130.836 157.875 125.683 157.658C120.531 157.44 116.341 158.1 116.299 159.113Z" fill="#EAEAFA"/>
<path opacity="0.4" d="M116.39 159.38C117.023 160.315 120.875 161.158 125.529 161.355C130.182 161.552 134.112 161.039 134.815 160.16C134.189 159.225 130.344 158.382 125.676 158.185C121.009 157.988 117.1 158.515 116.39 159.38Z" fill="#EAEAFA"/>
<path d="M138.421 158.958C138.484 160.448 133.753 161.868 127.877 162.114C122 162.36 117.157 161.327 117.058 159.865C116.96 158.403 121.719 156.955 127.602 156.701C133.486 156.448 138.351 157.461 138.421 158.958Z" fill="#EAEAFA"/>
<path d="M137.828 156.957L116.444 157.812L116.553 160.518L137.936 159.663L137.828 156.957Z" fill="#EAEAFA"/>
<path d="M138.301 156.252C138.365 157.742 133.634 159.162 127.757 159.408C121.88 159.654 117.023 158.656 116.96 157.158C116.897 155.661 121.627 154.248 127.504 153.995C133.381 153.742 138.245 154.754 138.301 156.252Z" fill="#EAEAFA"/>
<path opacity="0.4" d="M138.301 156.252C138.365 157.742 133.634 159.162 127.757 159.408C121.88 159.654 117.023 158.656 116.96 157.158C116.897 155.661 121.627 154.248 127.504 153.995C133.381 153.742 138.245 154.754 138.301 156.252Z" fill="white"/>
<path d="M136.938 156.202C136.943 156.3 136.911 156.396 136.846 156.47C136.143 155.591 132.228 155.064 127.56 155.275C122.893 155.485 119.033 156.315 118.422 157.257C118.359 157.183 118.32 157.093 118.309 156.997C118.267 155.984 122.401 154.972 127.553 154.754C132.706 154.536 136.895 155.19 136.938 156.202Z" fill="#EAEAFA"/>
<path opacity="0.4" d="M136.938 156.202C136.943 156.3 136.911 156.396 136.846 156.47C136.143 155.591 132.228 155.064 127.56 155.275C122.893 155.485 119.033 156.315 118.422 157.257C118.359 157.183 118.32 157.093 118.309 156.997C118.267 155.984 122.401 154.972 127.553 154.754C132.706 154.536 136.895 155.19 136.938 156.202Z" fill="#EAEAFA"/>
<path opacity="0.4" d="M136.839 156.47C136.206 157.404 132.354 158.248 127.701 158.452C123.047 158.656 119.118 158.136 118.415 157.257C119.04 156.315 122.886 155.471 127.553 155.275C132.221 155.078 136.136 155.591 136.839 156.47Z" fill="#EAEAFA"/>
<path d="M140.663 154.86C140.727 156.357 135.996 157.77 130.119 158.016C124.242 158.262 119.385 157.264 119.322 155.767C119.258 154.269 123.989 152.856 129.866 152.61C135.743 152.364 140.6 153.363 140.663 154.86Z" fill="#EAEAFA"/>
<path d="M140.549 152.147L119.184 153.053L119.299 155.757L140.664 154.851L140.549 152.147Z" fill="#EAEAFA"/>
<path d="M140.544 152.189C140.607 153.686 135.883 155.099 129.999 155.352C124.116 155.605 119.272 154.593 119.209 153.095C119.146 151.598 123.87 150.185 129.753 149.939C135.637 149.693 140.48 150.656 140.544 152.189Z" fill="#EAEAFA"/>
<path opacity="0.4" d="M140.544 152.189C140.607 153.686 135.883 155.099 129.999 155.352C124.116 155.605 119.272 154.593 119.209 153.095C119.146 151.598 123.87 150.185 129.753 149.939C135.637 149.693 140.48 150.656 140.544 152.189Z" fill="white"/>
<path d="M139.187 152.104C139.185 152.201 139.153 152.294 139.096 152.371C138.393 151.493 134.47 150.965 129.81 151.176C125.149 151.387 121.276 152.224 120.671 153.159C120.602 153.09 120.561 152.996 120.559 152.899C120.51 151.886 124.65 150.874 129.796 150.656C134.941 150.438 139.138 151.092 139.187 152.104Z" fill="#EAEAFA"/>
<path opacity="0.4" d="M139.187 152.104C139.185 152.201 139.153 152.294 139.096 152.371C138.393 151.493 134.47 150.965 129.81 151.176C125.149 151.387 121.276 152.224 120.671 153.159C120.602 153.09 120.561 152.996 120.559 152.899C120.51 151.886 124.65 150.874 129.796 150.656C134.941 150.438 139.138 151.092 139.187 152.104Z" fill="#EAEAFA"/>
<path opacity="0.4" d="M139.095 152.371C138.456 153.306 134.611 154.157 129.957 154.354C125.304 154.55 121.367 154.037 120.671 153.159C121.29 152.224 125.142 151.373 129.809 151.176C134.477 150.979 138.378 151.486 139.095 152.371Z" fill="#EAEAFA"/>
<path d="M140.354 149.925C140.417 151.415 135.693 152.835 129.81 153.081C123.926 153.327 119.083 152.329 119.019 150.832C118.956 149.335 123.68 147.922 129.564 147.669C135.447 147.416 140.305 148.428 140.354 149.925Z" fill="#EAEAFA"/>
<path d="M140.256 147.222L118.891 148.128L119.006 150.832L140.37 149.926L140.256 147.222Z" fill="#EAEAFA"/>
<path d="M140.255 147.219C140.319 148.716 135.588 150.129 129.711 150.375C123.834 150.621 118.977 149.623 118.914 148.125C118.85 146.628 123.581 145.215 129.458 144.969C135.335 144.723 140.192 145.721 140.255 147.219Z" fill="#EAEAFA"/>
<path opacity="0.4" d="M140.255 147.219C140.319 148.716 135.588 150.129 129.711 150.375C123.834 150.621 118.977 149.623 118.914 148.125C118.85 146.628 123.581 145.215 129.458 144.969C135.335 144.723 140.192 145.721 140.255 147.219Z" fill="white"/>
<path d="M138.892 147.17C138.898 147.267 138.865 147.363 138.801 147.437C138.098 146.558 134.182 146.031 129.515 146.242C124.847 146.453 120.988 147.289 120.376 148.224C120.313 148.151 120.274 148.06 120.264 147.964C120.222 146.952 124.355 145.939 129.508 145.721C134.66 145.504 138.85 146.157 138.892 147.17Z" fill="#EAEAFA"/>
<path opacity="0.4" d="M138.892 147.17C138.898 147.267 138.865 147.363 138.801 147.437C138.098 146.558 134.182 146.031 129.515 146.242C124.847 146.453 120.988 147.289 120.376 148.224C120.313 148.151 120.274 148.06 120.264 147.964C120.222 146.952 124.355 145.939 129.508 145.721C134.66 145.504 138.85 146.157 138.892 147.17Z" fill="#EAEAFA"/>
<path opacity="0.4" d="M138.8 147.437C138.168 148.372 134.315 149.222 129.662 149.419C125.008 149.616 121.079 149.103 120.376 148.224C121.002 147.289 124.847 146.438 129.514 146.242C134.182 146.045 138.09 146.565 138.8 147.437Z" fill="#EAEAFA"/>
<path d="M142.617 145.862C142.681 147.359 137.95 148.772 132.073 149.025C126.196 149.278 121.339 148.266 121.276 146.769C121.213 145.272 125.943 143.859 131.82 143.613C137.697 143.367 142.554 144.33 142.617 145.862Z" fill="#EAEAFA"/>
<path d="M142.484 143.13L121.119 144.037L121.234 146.741L142.599 145.834L142.484 143.13Z" fill="#EAEAFA"/>
<path d="M142.498 143.12C142.561 144.618 137.83 146.031 131.954 146.284C126.077 146.537 121.22 145.525 121.156 144.027C121.093 142.53 125.824 141.117 131.701 140.871C137.577 140.625 142.463 141.644 142.498 143.12Z" fill="#EAEAFA"/>
<path opacity="0.4" d="M142.498 143.12C142.561 144.618 137.83 146.031 131.954 146.284C126.077 146.537 121.22 145.525 121.156 144.027C121.093 142.53 125.824 141.117 131.701 140.871C137.577 140.625 142.463 141.644 142.498 143.12Z" fill="white"/>
<path d="M141.141 143.05C141.139 143.144 141.107 143.235 141.05 143.31C140.347 142.432 136.424 141.904 131.764 142.115C127.103 142.326 123.23 143.163 122.625 144.098C122.557 144.027 122.514 143.935 122.506 143.838C122.464 142.825 126.597 141.813 131.75 141.595C136.902 141.377 141.092 142.066 141.141 143.05Z" fill="#EAEAFA"/>
<path opacity="0.4" d="M141.141 143.05C141.139 143.144 141.107 143.235 141.05 143.31C140.347 142.432 136.424 141.904 131.764 142.115C127.103 142.326 123.23 143.163 122.625 144.098C122.557 144.027 122.514 143.935 122.506 143.838C122.464 142.825 126.597 141.813 131.75 141.595C136.902 141.377 141.092 142.066 141.141 143.05Z" fill="#EAEAFA"/>
<path opacity="0.4" d="M141.057 143.338C140.417 144.28 136.572 145.124 131.919 145.321C127.265 145.518 123.328 145.004 122.633 144.126C123.251 143.191 127.103 142.34 131.771 142.143C136.439 141.947 140.354 142.46 141.057 143.338Z" fill="#EAEAFA"/>
<path d="M139.187 142.347C139.25 143.844 134.519 145.257 128.643 145.51C122.766 145.764 117.859 144.758 117.859 143.261C117.859 141.764 122.527 140.351 128.404 140.105C134.28 139.859 139.124 140.864 139.187 142.347Z" fill="#EAEAFA"/>
<path d="M139.078 139.645L117.713 140.551L117.828 143.255L139.193 142.348L139.078 139.645Z" fill="#EAEAFA"/>
<path d="M139.074 139.648C139.138 141.145 134.407 142.558 128.53 142.811C122.653 143.064 117.796 142.052 117.733 140.555C117.67 139.057 122.4 137.644 128.277 137.398C134.154 137.152 139.011 138.13 139.074 139.648Z" fill="#EAEAFA"/>
<path opacity="0.4" d="M139.074 139.648C139.138 141.145 134.407 142.558 128.53 142.811C122.653 143.064 117.796 142.052 117.733 140.555C117.67 139.057 122.4 137.644 128.277 137.398C134.154 137.152 139.011 138.13 139.074 139.648Z" fill="white"/>
<path d="M137.711 139.606C137.715 139.701 137.682 139.794 137.619 139.866C136.916 138.987 133.001 138.46 128.333 138.671C123.666 138.882 119.807 139.718 119.195 140.653C119.128 140.582 119.088 140.49 119.083 140.393C119.04 139.381 123.174 138.369 128.326 138.151C133.479 137.933 137.669 138.593 137.711 139.606Z" fill="#EAEAFA"/>
<path opacity="0.4" d="M137.711 139.606C137.715 139.701 137.682 139.794 137.619 139.866C136.916 138.987 133.001 138.46 128.333 138.671C123.666 138.882 119.807 139.718 119.195 140.653C119.128 140.582 119.088 140.49 119.083 140.393C119.04 139.381 123.174 138.369 128.326 138.151C133.479 137.933 137.669 138.593 137.711 139.606Z" fill="#EAEAFA"/>
<path opacity="0.4" d="M137.619 139.866C136.98 140.808 133.135 141.651 128.481 141.848C123.828 142.045 119.898 141.532 119.195 140.653C119.821 139.718 123.666 138.875 128.333 138.671C133.001 138.467 136.902 138.987 137.619 139.866Z" fill="#EAEAFA"/>
<path d="M141.436 138.256C141.5 139.753 136.769 141.166 130.892 141.419C125.016 141.672 120.165 140.66 120.102 139.163C120.039 137.666 124.763 136.253 130.646 136.007C136.53 135.761 141.366 136.766 141.436 138.256Z" fill="#EAEAFA"/>
<path d="M141.313 135.56L119.949 136.467L120.064 139.171L141.428 138.264L141.313 135.56Z" fill="#EAEAFA"/>
<path d="M141.317 135.55C141.38 137.047 136.649 138.46 130.773 138.713C124.896 138.966 120.039 137.954 119.975 136.457C119.912 134.959 124.643 133.553 130.52 133.3C136.396 133.047 141.254 134.059 141.317 135.55Z" fill="#EAEAFA"/>
<path opacity="0.4" d="M141.317 135.55C141.38 137.047 136.649 138.46 130.773 138.713C124.896 138.966 120.039 137.954 119.975 136.457C119.912 134.959 124.643 133.553 130.52 133.3C136.396 133.047 141.254 134.059 141.317 135.55Z" fill="white"/>
<path d="M139.953 135.508C139.956 135.605 139.924 135.7 139.862 135.775C139.159 134.896 135.243 134.369 130.576 134.573C125.908 134.776 122.049 135.62 121.438 136.555C121.373 136.482 121.334 136.391 121.325 136.295C121.283 135.283 125.416 134.27 130.569 134.052C135.721 133.835 139.911 134.495 139.953 135.508Z" fill="#EAEAFA"/>
<path opacity="0.4" d="M139.953 135.508C139.956 135.605 139.924 135.7 139.862 135.775C139.159 134.896 135.243 134.369 130.576 134.573C125.908 134.776 122.049 135.62 121.438 136.555C121.373 136.482 121.334 136.391 121.325 136.295C121.283 135.283 125.416 134.27 130.569 134.052C135.721 133.835 139.911 134.495 139.953 135.508Z" fill="#EAEAFA"/>
<path opacity="0.4" d="M139.862 135.775C139.229 136.71 135.377 137.553 130.723 137.75C126.07 137.947 122.14 137.434 121.438 136.555C122.063 135.62 125.908 134.777 130.576 134.573C135.243 134.369 139.152 134.896 139.862 135.775Z" fill="#EAEAFA"/>
<path d="M132.533 135.193C137.514 133.326 140.037 127.775 138.17 122.795C136.303 117.815 130.753 115.291 125.772 117.158C120.792 119.025 118.268 124.576 120.135 129.556C122.002 134.536 127.553 137.06 132.533 135.193Z" fill="#EAEAFA"/>
<path d="M137.548 132.893C140.996 128.843 140.507 122.765 136.456 119.318C132.406 115.87 126.328 116.359 122.881 120.41C119.433 124.46 119.922 130.538 123.973 133.985C128.023 137.433 134.101 136.944 137.548 132.893Z" fill="#EAEAFA"/>
<path opacity="0.4" d="M137.548 132.893C140.996 128.843 140.507 122.765 136.456 119.318C132.406 115.87 126.328 116.359 122.881 120.41C119.433 124.46 119.922 130.538 123.973 133.985C128.023 137.433 134.101 136.944 137.548 132.893Z" fill="white"/>
<path d="M136.776 129.617C136.186 130.914 135.224 132.006 134.013 132.756C132.802 133.507 131.395 133.881 129.971 133.832C128.547 133.783 127.17 133.313 126.013 132.482C124.856 131.65 123.972 130.494 123.472 129.16C122.971 127.826 122.878 126.373 123.203 124.986C123.529 123.599 124.258 122.34 125.299 121.367C126.34 120.394 127.646 119.752 129.052 119.521C130.458 119.29 131.901 119.482 133.198 120.071C134.938 120.863 136.292 122.313 136.963 124.103C137.633 125.893 137.566 127.876 136.776 129.617Z" fill="#EAEAFA"/>
<path opacity="0.3" d="M133.556 128.773C133.445 128.334 133.199 127.941 132.853 127.649C133.221 127.633 133.577 127.514 133.88 127.304C134.187 127.093 134.43 126.801 134.583 126.461C134.715 126.186 134.777 125.883 134.762 125.578C134.747 125.274 134.657 124.978 134.498 124.717C134.196 124.242 133.778 123.853 133.282 123.586L133.528 123.044L132.699 122.672L132.474 123.171L131.644 122.791L131.869 122.292L131.04 121.913L130.815 122.419L129.015 121.596L125.641 129.026L127.434 129.849L127.195 130.376L128.024 130.749L128.263 130.221L129.093 130.601L128.854 131.128L129.683 131.501L129.936 130.952C130.562 131.233 131.252 131.338 131.933 131.255C132.245 131.197 132.538 131.061 132.784 130.859C133.03 130.658 133.22 130.397 133.338 130.102C133.559 129.696 133.636 129.228 133.556 128.773ZM130.154 123.67L131.862 124.45C132.207 124.58 132.508 124.807 132.727 125.104C132.798 125.225 132.835 125.364 132.835 125.505C132.835 125.645 132.798 125.784 132.727 125.905C132.678 126.039 132.595 126.156 132.484 126.245C132.374 126.334 132.242 126.392 132.101 126.411C131.732 126.45 131.36 126.376 131.033 126.201L129.325 125.42L130.154 123.67ZM131.082 129.666C130.691 129.692 130.301 129.607 129.957 129.42L127.954 128.513L128.783 126.671L130.794 127.585C131.701 128 132.017 128.52 131.743 129.132C131.694 129.277 131.607 129.405 131.49 129.504C131.374 129.604 131.233 129.669 131.082 129.694V129.666Z" fill="white"/>
<path d="M220.982 181.164C220.764 182.043 217.784 182.05 214.325 181.164C210.867 180.278 208.238 178.88 208.456 178.008C208.674 177.136 211.661 177.122 215.12 178.008C218.578 178.894 221.193 180.307 220.982 181.164Z" fill="#EAEAFA"/>
<path d="M208.861 176.446L208.463 178.035L220.99 181.172L221.388 179.583L208.861 176.446Z" fill="#EAEAFA"/>
<path d="M221.383 179.604C221.158 180.482 218.178 180.489 214.719 179.604C211.26 178.718 208.638 177.326 208.856 176.447C209.074 175.569 212.055 175.562 215.513 176.447C218.972 177.333 221.601 178.704 221.383 179.604Z" fill="#EAEAFA"/>
<path opacity="0.4" d="M221.383 179.604C221.158 180.482 218.178 180.489 214.719 179.604C211.26 178.718 208.638 177.326 208.856 176.447C209.074 175.569 212.055 175.562 215.513 176.447C218.972 177.333 221.601 178.704 221.383 179.604Z" fill="white"/>
<path d="M220.596 179.315C220.59 179.344 220.578 179.372 220.561 179.396C220.544 179.42 220.522 179.44 220.497 179.456C220.237 178.823 218.065 177.853 215.331 177.171C212.596 176.49 210.213 176.314 209.707 176.75C209.693 176.694 209.693 176.636 209.707 176.581C209.862 175.983 212.427 176.11 215.45 176.862C218.473 177.614 220.75 178.725 220.596 179.315Z" fill="#EAEAFA"/>
<path opacity="0.4" d="M220.596 179.315C220.59 179.344 220.578 179.372 220.561 179.396C220.544 179.42 220.522 179.44 220.497 179.456C220.237 178.823 218.065 177.853 215.331 177.171C212.596 176.49 210.213 176.314 209.707 176.75C209.693 176.694 209.693 176.636 209.707 176.581C209.862 175.983 212.427 176.11 215.45 176.862C218.473 177.614 220.75 178.725 220.596 179.315Z" fill="#EAEAFA"/>
<path opacity="0.4" d="M220.49 179.456C219.963 179.885 217.594 179.716 214.867 179.034C212.139 178.352 209.946 177.375 209.693 176.75C210.22 176.314 212.589 176.483 215.316 177.171C218.044 177.86 220.237 178.823 220.49 179.456Z" fill="#EAEAFA"/>
<path d="M227 184.046C227.042 184.946 224.188 185.804 220.617 185.951C217.046 186.099 214.136 185.494 214.1 184.595C214.065 183.695 216.912 182.837 220.483 182.683C224.054 182.528 226.964 183.118 227 184.046Z" fill="#EAEAFA"/>
<path d="M226.916 182.425L214.014 182.972L214.084 184.609L226.985 184.061L226.916 182.425Z" fill="#EAEAFA"/>
<path d="M226.929 182.415C226.971 183.322 224.117 184.173 220.553 184.327C216.989 184.482 214.072 183.871 214.03 182.964C213.988 182.057 216.842 181.206 220.413 181.059C223.984 180.911 226.894 181.509 226.929 182.415Z" fill="#EAEAFA"/>
<path opacity="0.4" d="M226.929 182.415C226.971 183.322 224.117 184.173 220.553 184.327C216.989 184.482 214.072 183.871 214.03 182.964C213.988 182.057 216.842 181.206 220.413 181.059C223.984 180.911 226.894 181.509 226.929 182.415Z" fill="white"/>
<path d="M226.114 182.415C226.117 182.445 226.113 182.475 226.103 182.502C226.094 182.53 226.078 182.556 226.057 182.577C225.629 182.05 223.246 181.734 220.434 181.874C217.622 182.015 215.281 182.507 214.902 183.069C214.863 183.027 214.84 182.972 214.838 182.915C214.838 182.303 217.306 181.691 220.42 181.558C223.534 181.424 226.114 181.769 226.114 182.415Z" fill="#EAEAFA"/>
<path opacity="0.4" d="M226.114 182.415C226.117 182.445 226.113 182.475 226.103 182.502C226.094 182.53 226.078 182.556 226.057 182.577C225.629 182.05 223.246 181.734 220.434 181.874C217.622 182.015 215.281 182.507 214.902 183.069C214.863 183.027 214.84 182.972 214.838 182.915C214.838 182.303 217.306 181.691 220.42 181.558C223.534 181.424 226.114 181.769 226.114 182.415Z" fill="#EAEAFA"/>
<path opacity="0.4" d="M226.051 182.542C225.671 183.104 223.344 183.617 220.525 183.737C217.707 183.856 215.345 183.547 214.902 183.034C215.281 182.472 217.608 181.959 220.434 181.839C223.26 181.72 225.622 182.015 226.051 182.542Z" fill="#EAEAFA"/>
<path d="M220.21 180.825C223.129 176.379 221.89 170.408 217.444 167.49C212.997 164.571 207.027 165.81 204.108 170.256C201.19 174.703 202.428 180.673 206.875 183.592C211.321 186.51 217.292 185.272 220.21 180.825Z" fill="#EAEAFA"/>
<path d="M220.223 182.753C218.956 184.175 217.295 185.189 215.451 185.667C213.608 186.146 211.663 186.066 209.865 185.44C208.066 184.813 206.493 183.667 205.346 182.146C204.199 180.626 203.528 178.799 203.419 176.897C203.31 174.996 203.767 173.104 204.733 171.463C205.699 169.821 207.13 168.502 208.845 167.674C210.56 166.845 212.483 166.544 214.369 166.808C216.255 167.072 218.021 167.89 219.443 169.158C221.349 170.857 222.502 173.244 222.648 175.794C222.794 178.343 221.922 180.846 220.223 182.753Z" fill="#EAEAFA"/>
<path opacity="0.4" d="M220.223 182.753C218.956 184.175 217.295 185.189 215.451 185.667C213.608 186.146 211.663 186.066 209.865 185.44C208.066 184.813 206.493 183.667 205.346 182.146C204.199 180.626 203.528 178.799 203.419 176.897C203.31 174.996 203.767 173.104 204.733 171.463C205.699 169.821 207.13 168.502 208.845 167.674C210.56 166.845 212.483 166.544 214.369 166.808C216.255 167.072 218.021 167.89 219.443 169.158C221.349 170.857 222.502 173.244 222.648 175.794C222.794 178.343 221.922 180.846 220.223 182.753Z" fill="white"/>
<path d="M218.382 181.143C217.433 182.208 216.189 182.968 214.808 183.327C213.427 183.685 211.971 183.626 210.623 183.156C209.276 182.687 208.098 181.829 207.239 180.69C206.38 179.551 205.877 178.183 205.796 176.758C205.714 175.334 206.057 173.917 206.78 172.688C207.504 171.458 208.576 170.471 209.861 169.851C211.146 169.23 212.586 169.005 213.998 169.203C215.411 169.402 216.734 170.014 217.798 170.964C218.505 171.594 219.081 172.357 219.493 173.21C219.905 174.062 220.145 174.987 220.2 175.933C220.254 176.878 220.121 177.825 219.809 178.719C219.497 179.613 219.012 180.437 218.382 181.143Z" fill="#EAEAFA"/>
<g opacity="0.3">
<path opacity="0.3" d="M214.375 179.604C213.517 181.01 211.992 181.045 210.41 179.857L209.51 180.82L208.61 180.025L209.517 179.062C208.796 178.321 208.259 177.42 207.95 176.433L209.356 175.681C209.586 176.516 210.01 177.284 210.593 177.924L211.999 176.447C211.345 175.421 210.67 174.219 211.443 172.968C212.294 171.597 213.847 171.562 215.443 172.764L216.35 171.801L217.243 172.602L216.336 173.572C216.898 174.165 217.333 174.866 217.615 175.632L216.273 176.419C216.068 175.778 215.727 175.188 215.274 174.69L213.833 176.237C214.452 177.249 215.106 178.409 214.375 179.604ZM213.137 175.196L214.318 173.938C213.735 173.593 213.25 173.657 212.997 174.043C212.918 174.23 212.89 174.434 212.915 174.635C212.939 174.836 213.016 175.027 213.137 175.189V175.196ZM212.758 178.584C212.834 178.408 212.862 178.215 212.839 178.025C212.815 177.835 212.741 177.654 212.624 177.502L211.5 178.697C212.055 179.006 212.512 178.964 212.758 178.577V178.584Z" fill="white"/>
</g>
<path d="M93.8045 184.939C93.7694 185.839 96.6163 186.696 100.187 186.844C103.758 186.992 106.669 186.387 106.704 185.487C106.739 184.587 103.892 183.73 100.328 183.575C96.7639 183.421 93.8467 184.032 93.8045 184.939Z" fill="#EAEAFA"/>
<path d="M93.879 183.308L93.8096 184.945L106.711 185.492L106.781 183.856L93.879 183.308Z" fill="#EAEAFA"/>
<path d="M93.8747 183.301C93.8326 184.208 96.6865 185.059 100.258 185.213C103.829 185.368 106.739 184.756 106.774 183.849C106.809 182.943 103.962 182.092 100.391 181.944C96.8201 181.797 93.9099 182.415 93.8747 183.301Z" fill="#EAEAFA"/>
<path opacity="0.4" d="M93.8747 183.301C93.8326 184.208 96.6865 185.059 100.258 185.213C103.829 185.368 106.739 184.756 106.774 183.849C106.809 182.943 103.962 182.092 100.391 181.944C96.8201 181.797 93.9099 182.415 93.8747 183.301Z" fill="white"/>
<path d="M94.6973 183.273C94.6978 183.332 94.7175 183.388 94.7535 183.435C95.1823 182.908 97.5653 182.591 100.377 182.732C103.189 182.872 105.523 183.364 105.902 183.934C105.942 183.889 105.967 183.832 105.973 183.772C105.973 183.161 103.498 182.549 100.391 182.422C97.2841 182.296 94.7254 182.661 94.6973 183.273Z" fill="#EAEAFA"/>
<path opacity="0.4" d="M94.6973 183.273C94.6978 183.332 94.7175 183.388 94.7535 183.435C95.1823 182.908 97.5653 182.591 100.377 182.732C103.189 182.872 105.523 183.364 105.902 183.934C105.942 183.889 105.967 183.832 105.973 183.772C105.973 183.161 103.498 182.549 100.391 182.422C97.2841 182.296 94.7254 182.661 94.6973 183.273Z" fill="#EAEAFA"/>
<path opacity="0.4" d="M94.7537 183.435C95.1403 184.004 97.46 184.51 100.279 184.63C103.098 184.749 105.467 184.44 105.902 183.927C105.523 183.357 103.203 182.851 100.377 182.725C97.5514 182.598 95.1825 182.908 94.7537 183.435Z" fill="#EAEAFA"/>
<path d="M92.4478 182.465C92.4478 183.364 95.2595 184.222 98.8305 184.37C102.402 184.517 105.312 183.913 105.347 183.013C105.382 182.113 102.535 181.256 98.9711 181.101C95.4072 180.946 92.4899 181.565 92.4478 182.465Z" fill="#EAEAFA"/>
<path d="M92.5091 180.812L92.4397 182.448L105.341 182.996L105.411 181.36L92.5091 180.812Z" fill="#EAEAFA"/>
<path d="M92.5532 180.827C92.5532 181.734 95.365 182.584 98.936 182.739C102.507 182.893 105.417 182.282 105.452 181.375C105.488 180.468 102.641 179.618 99.0766 179.47C95.5126 179.322 92.5532 179.927 92.5532 180.827Z" fill="#EAEAFA"/>
<path opacity="0.4" d="M92.5532 180.827C92.5532 181.734 95.365 182.584 98.936 182.739C102.507 182.893 105.417 182.282 105.452 181.375C105.488 180.468 102.641 179.618 99.0766 179.47C95.5126 179.322 92.5532 179.927 92.5532 180.827Z" fill="white"/>
<path d="M93.3406 180.799C93.3411 180.857 93.3608 180.914 93.3968 180.96C93.8256 180.433 96.2086 180.124 99.0204 180.257C101.832 180.391 104.166 180.883 104.546 181.452C104.586 181.407 104.61 181.351 104.616 181.291C104.616 180.686 102.142 180.068 99.0345 179.941C95.9274 179.815 93.3687 180.187 93.3406 180.799Z" fill="#EAEAFA"/>
<path opacity="0.4" d="M93.3406 180.799C93.3411 180.857 93.3608 180.914 93.3968 180.96C93.8256 180.433 96.2086 180.124 99.0204 180.257C101.832 180.391 104.166 180.883 104.546 181.452C104.586 181.407 104.61 181.351 104.616 181.291C104.616 180.686 102.142 180.068 99.0345 179.941C95.9274 179.815 93.3687 180.187 93.3406 180.799Z" fill="#EAEAFA"/>
<path opacity="0.4" d="M93.3967 180.96C93.7834 181.53 96.1031 182.036 98.9219 182.155C101.741 182.275 104.11 181.966 104.546 181.452C104.166 180.883 101.846 180.377 99.0203 180.257C96.1945 180.138 93.8255 180.433 93.3967 180.96Z" fill="#EAEAFA"/>
<path d="M92.6235 179.484C92.6235 180.384 95.4353 181.241 99.0063 181.389C102.577 181.537 105.488 180.932 105.523 180.032C105.558 179.133 102.711 178.275 99.1469 178.12C95.583 177.966 92.6657 178.584 92.6235 179.484Z" fill="#EAEAFA"/>
<path d="M92.681 177.832L92.6116 179.468L105.513 180.016L105.583 178.379L92.681 177.832Z" fill="#EAEAFA"/>
<path d="M92.6938 177.846C92.6938 178.753 95.5057 179.604 99.0766 179.758C102.648 179.913 105.558 179.301 105.593 178.395C105.628 177.488 102.781 176.637 99.2172 176.49C95.6533 176.342 92.736 176.946 92.6938 177.846Z" fill="#EAEAFA"/>
<path opacity="0.4" d="M92.6938 177.846C92.6938 178.753 95.5057 179.604 99.0766 179.758C102.648 179.913 105.558 179.301 105.593 178.395C105.628 177.488 102.781 176.637 99.2172 176.49C95.6533 176.342 92.736 176.946 92.6938 177.846Z" fill="white"/>
<path d="M93.5164 177.818C93.5169 177.877 93.5366 177.934 93.5726 177.98C94.0014 177.453 96.3844 177.143 99.1962 177.277C102.008 177.41 104.342 177.902 104.721 178.472C104.762 178.427 104.786 178.37 104.792 178.31C104.792 177.706 102.317 177.087 99.2103 176.961C96.1032 176.834 93.5445 177.214 93.5164 177.818Z" fill="#EAEAFA"/>
<path opacity="0.4" d="M93.5164 177.818C93.5169 177.877 93.5366 177.934 93.5726 177.98C94.0014 177.453 96.3844 177.143 99.1962 177.277C102.008 177.41 104.342 177.902 104.721 178.472C104.762 178.427 104.786 178.37 104.792 178.31C104.792 177.706 102.317 177.087 99.2103 176.961C96.1032 176.834 93.5445 177.214 93.5164 177.818Z" fill="#EAEAFA"/>
<path opacity="0.4" d="M93.5725 177.98C93.9591 178.549 96.2789 179.055 99.0977 179.175C101.917 179.294 104.285 178.985 104.721 178.472C104.342 177.903 102.022 177.396 99.1961 177.277C96.3703 177.157 94.0013 177.453 93.5725 177.98Z" fill="#EAEAFA"/>
<path d="M91.2668 177.01C91.2668 177.909 94.0786 178.767 97.6496 178.915C101.221 179.062 104.131 178.458 104.173 177.558C104.215 176.658 101.361 175.801 97.7902 175.646C94.2192 175.491 91.309 176.089 91.2668 177.01Z" fill="#EAEAFA"/>
<path d="M91.3326 175.364L91.2632 177L104.165 177.548L104.234 175.911L91.3326 175.364Z" fill="#EAEAFA"/>
<path d="M91.3372 175.386C91.3021 176.293 94.149 177.143 97.72 177.298C101.291 177.453 104.201 176.841 104.236 175.934C104.272 175.027 101.425 174.184 97.8606 174.029C94.2967 173.875 91.3794 174.472 91.3372 175.386Z" fill="#EAEAFA"/>
<path opacity="0.4" d="M91.3372 175.386C91.3021 176.293 94.149 177.143 97.72 177.298C101.291 177.453 104.201 176.841 104.236 175.934C104.272 175.027 101.425 174.184 97.8606 174.029C94.2967 173.875 91.3794 174.472 91.3372 175.386Z" fill="white"/>
<path d="M92.1597 175.344C92.1602 175.402 92.1799 175.459 92.2159 175.505C92.6517 174.978 95.0277 174.669 97.8395 174.802C100.651 174.936 102.992 175.428 103.365 175.997C103.406 175.956 103.431 175.901 103.435 175.843C103.435 175.231 100.961 174.613 97.8536 174.486C94.7465 174.36 92.1878 174.739 92.1597 175.344Z" fill="#EAEAFA"/>
<path opacity="0.4" d="M92.1597 175.344C92.1602 175.402 92.1799 175.459 92.2159 175.505C92.6517 174.978 95.0277 174.669 97.8395 174.802C100.651 174.936 102.992 175.428 103.365 175.997C103.406 175.956 103.431 175.901 103.435 175.843C103.435 175.231 100.961 174.613 97.8536 174.486C94.7465 174.36 92.1878 174.739 92.1597 175.344Z" fill="#EAEAFA"/>
<path opacity="0.4" d="M92.2158 175.505C92.6024 176.075 94.9222 176.581 97.741 176.7C100.56 176.82 102.929 176.511 103.365 175.997C102.992 175.428 100.665 174.922 97.8394 174.802C95.0136 174.683 92.6516 174.978 92.2158 175.505Z" fill="#EAEAFA"/>
<path d="M93.3405 174.915C93.2984 175.815 96.1524 176.672 99.7233 176.82C103.294 176.968 106.205 176.363 106.24 175.463C106.275 174.563 103.428 173.706 99.8569 173.551C96.2859 173.397 93.3757 173.98 93.3405 174.915Z" fill="#EAEAFA"/>
<path d="M93.3973 173.259L93.3279 174.896L106.229 175.443L106.299 173.807L93.3973 173.259Z" fill="#EAEAFA"/>
<path d="M93.4109 173.277C93.3687 174.184 96.2227 175.034 99.7866 175.189C103.351 175.344 106.268 174.732 106.31 173.825C106.352 172.919 103.498 172.068 99.9272 171.92C96.3562 171.773 93.446 172.377 93.4109 173.277Z" fill="#EAEAFA"/>
<path opacity="0.4" d="M93.4109 173.277C93.3687 174.184 96.2227 175.034 99.7866 175.189C103.351 175.344 106.268 174.732 106.31 173.825C106.352 172.919 103.498 172.068 99.9272 171.92C96.3562 171.773 93.446 172.377 93.4109 173.277Z" fill="white"/>
<path d="M94.2334 173.277C94.2305 173.306 94.234 173.336 94.2437 173.364C94.2535 173.392 94.2691 173.418 94.2896 173.439C94.7184 172.912 97.1014 172.595 99.9132 172.736C102.725 172.876 105.066 173.368 105.445 173.931C105.484 173.889 105.507 173.834 105.509 173.776C105.509 173.165 103.041 172.553 99.9273 172.419C96.8132 172.286 94.2545 172.637 94.2334 173.277Z" fill="#EAEAFA"/>
<path opacity="0.4" d="M94.2334 173.277C94.2305 173.306 94.234 173.336 94.2437 173.364C94.2535 173.392 94.2691 173.418 94.2896 173.439C94.7184 172.912 97.1014 172.595 99.9132 172.736C102.725 172.876 105.066 173.368 105.445 173.931C105.484 173.889 105.507 173.834 105.509 173.776C105.509 173.165 103.041 172.553 99.9273 172.419C96.8132 172.286 94.2545 172.637 94.2334 173.277Z" fill="#EAEAFA"/>
<path opacity="0.4" d="M94.2896 173.411C94.6691 173.973 96.9959 174.486 99.8147 174.606C102.634 174.725 104.995 174.416 105.438 173.903C105.059 173.34 102.732 172.827 99.9061 172.708C97.0803 172.588 94.7184 172.883 94.2896 173.411Z" fill="#EAEAFA"/>
<path d="M84.2443 184.791C84.4622 185.67 87.4498 185.677 90.9083 184.791C94.3668 183.906 96.9888 182.514 96.7709 181.635C96.553 180.756 93.5725 180.749 90.114 181.635C86.6554 182.521 84.0264 183.92 84.2443 184.791Z" fill="#EAEAFA"/>
<path d="M96.3762 180.066L83.8499 183.203L84.2478 184.792L96.7741 181.655L96.3762 180.066Z" fill="#EAEAFA"/>
<path d="M83.8506 183.21C84.0685 184.081 87.049 184.096 90.5075 183.21C93.966 182.324 96.5951 180.932 96.3701 180.061C96.1452 179.189 93.1717 179.175 89.7132 180.061C86.2547 180.946 83.6256 182.331 83.8506 183.21Z" fill="#EAEAFA"/>
<path opacity="0.4" d="M83.8506 183.21C84.0685 184.081 87.049 184.096 90.5075 183.21C93.966 182.324 96.5951 180.932 96.3701 180.061C96.1452 179.189 93.1717 179.175 89.7132 180.061C86.2547 180.946 83.6256 182.331 83.8506 183.21Z" fill="white"/>
<path d="M84.631 182.95C84.6462 183.005 84.6813 183.052 84.7294 183.083C84.9895 182.458 87.1616 181.488 89.9031 180.799C92.6446 180.11 95.0136 179.941 95.5267 180.377C95.5479 180.323 95.5479 180.262 95.5267 180.208C95.3791 179.618 92.8063 179.737 89.7907 180.496C86.775 181.256 84.4834 182.352 84.631 182.95Z" fill="#EAEAFA"/>
<path opacity="0.4" d="M84.631 182.95C84.6462 183.005 84.6813 183.052 84.7294 183.083C84.9895 182.458 87.1616 181.488 89.9031 180.799C92.6446 180.11 95.0136 179.941 95.5267 180.377C95.5479 180.323 95.5479 180.262 95.5267 180.208C95.3791 179.618 92.8063 179.737 89.7907 180.496C86.775 181.256 84.4834 182.352 84.631 182.95Z" fill="#EAEAFA"/>
<path opacity="0.4" d="M84.7295 183.118C85.2567 183.554 87.6327 183.385 90.3531 182.697C93.0735 182.008 95.2737 181.045 95.5268 180.412C94.9996 179.976 92.6307 180.152 89.9032 180.834C87.1758 181.516 84.9896 182.458 84.7295 183.118Z" fill="#EAEAFA"/>
<path d="M78.2622 184.939C78.2622 185.839 81.074 186.696 84.645 186.844C88.216 186.992 91.1262 186.387 91.1613 185.487C91.1965 184.587 88.3495 183.73 84.7856 183.575C81.2216 183.421 78.3044 184.032 78.2622 184.939Z" fill="#EAEAFA"/>
<path d="M78.3246 183.287L78.2551 184.924L91.1567 185.471L91.2262 183.835L78.3246 183.287Z" fill="#EAEAFA"/>
<path d="M78.3326 183.301C78.2974 184.208 81.1444 185.059 84.7154 185.213C88.2864 185.368 91.1966 184.756 91.2317 183.849C91.2669 182.943 88.4199 182.092 84.856 181.944C81.292 181.797 78.3748 182.415 78.3326 183.301Z" fill="#EAEAFA"/>
<path opacity="0.4" d="M78.3326 183.301C78.2974 184.208 81.1444 185.059 84.7154 185.213C88.2864 185.368 91.1966 184.756 91.2317 183.849C91.2669 182.943 88.4199 182.092 84.856 181.944C81.292 181.797 78.3748 182.415 78.3326 183.301Z" fill="white"/>
<path d="M79.155 183.273C79.1555 183.332 79.1753 183.388 79.2113 183.435C79.6401 182.908 82.0231 182.591 84.8349 182.732C87.6467 182.872 89.9805 183.364 90.3601 183.934C90.4002 183.889 90.4249 183.832 90.4303 183.772C90.4303 183.161 87.956 182.549 84.8489 182.422C81.7419 182.296 79.1972 182.661 79.155 183.273Z" fill="#EAEAFA"/>
<path opacity="0.4" d="M79.155 183.273C79.1555 183.332 79.1753 183.388 79.2113 183.435C79.6401 182.908 82.0231 182.591 84.8349 182.732C87.6467 182.872 89.9805 183.364 90.3601 183.934C90.4002 183.889 90.4249 183.832 90.4303 183.772C90.4303 183.161 87.956 182.549 84.8489 182.422C81.7419 182.296 79.1972 182.661 79.155 183.273Z" fill="#EAEAFA"/>
<path opacity="0.4" d="M79.1973 183.435C79.5839 184.004 81.9036 184.51 84.7225 184.63C87.5413 184.749 89.9102 184.44 90.3461 183.927C89.9665 183.357 87.6467 182.851 84.8209 182.725C81.995 182.598 79.6401 182.908 79.1973 183.435Z" fill="#EAEAFA"/>
<path d="M144.895 184.862C144.853 185.79 147.791 186.668 151.454 186.823C155.116 186.978 158.117 186.352 158.16 185.417C158.202 184.482 155.256 183.617 151.594 183.456C147.932 183.294 144.93 183.934 144.895 184.862Z" fill="#EAEAFA"/>
<path d="M144.951 183.16L144.88 184.839L158.147 185.402L158.218 183.723L144.951 183.16Z" fill="#EAEAFA"/>
<path d="M144.965 183.182C144.923 184.11 147.861 184.988 151.524 185.143C155.186 185.298 158.188 184.672 158.23 183.737C158.272 182.802 155.334 181.937 151.664 181.776C147.995 181.614 145 182.254 144.965 183.182Z" fill="#EAEAFA"/>
<path opacity="0.4" d="M144.965 183.182C144.923 184.11 147.861 184.988 151.524 185.143C155.186 185.298 158.188 184.672 158.23 183.737C158.272 182.802 155.334 181.937 151.664 181.776C147.995 181.614 145 182.254 144.965 183.182Z" fill="white"/>
<path d="M145.809 183.154C145.81 183.214 145.83 183.273 145.865 183.322C146.308 182.774 148.733 182.458 151.636 182.577C154.539 182.697 156.93 183.224 157.316 183.807C157.359 183.764 157.384 183.706 157.386 183.646C157.386 183.02 154.849 182.387 151.65 182.24C148.452 182.092 145.837 182.528 145.809 183.154Z" fill="#EAEAFA"/>
<path opacity="0.4" d="M145.809 183.154C145.81 183.214 145.83 183.273 145.865 183.322C146.308 182.774 148.733 182.458 151.636 182.577C154.539 182.697 156.93 183.224 157.316 183.807C157.359 183.764 157.384 183.706 157.386 183.646C157.386 183.02 154.849 182.387 151.65 182.24C148.452 182.092 145.837 182.528 145.809 183.154Z" fill="#EAEAFA"/>
<path opacity="0.4" d="M145.865 183.322C146.266 183.899 148.677 184.426 151.552 184.552C154.427 184.679 156.88 184.356 157.316 183.807C156.929 183.224 154.539 182.704 151.636 182.577C148.733 182.451 146.308 182.774 145.865 183.322Z" fill="#EAEAFA"/>
<path d="M143.496 182.317C143.461 183.245 146.399 184.124 150.061 184.285C153.724 184.447 156.725 183.814 156.761 182.879C156.796 181.944 153.864 181.073 150.202 180.911C146.54 180.749 143.538 181.389 143.496 182.317Z" fill="#EAEAFA"/>
<path d="M143.566 180.633L143.494 182.312L156.761 182.875L156.832 181.196L143.566 180.633Z" fill="#EAEAFA"/>
<path d="M143.573 180.637C143.531 181.565 146.47 182.444 150.132 182.605C153.794 182.767 156.796 182.134 156.838 181.199C156.88 180.264 153.935 179.393 150.273 179.231C146.61 179.069 143.609 179.709 143.573 180.637Z" fill="#EAEAFA"/>
<path opacity="0.4" d="M143.573 180.637C143.531 181.565 146.47 182.444 150.132 182.605C153.794 182.767 156.796 182.134 156.838 181.199C156.88 180.264 153.935 179.393 150.273 179.231C146.61 179.069 143.609 179.709 143.573 180.637Z" fill="white"/>
<path d="M144.417 180.609C144.418 180.669 144.438 180.728 144.473 180.778C144.916 180.229 147.341 179.913 150.237 180.032C153.134 180.152 155.538 180.679 155.924 181.263C155.964 181.218 155.989 181.161 155.995 181.101C155.995 180.475 153.45 179.843 150.251 179.695C147.053 179.547 144.445 179.983 144.417 180.609Z" fill="#EAEAFA"/>
<path opacity="0.4" d="M144.417 180.609C144.418 180.669 144.438 180.728 144.473 180.778C144.916 180.229 147.341 179.913 150.237 180.032C153.134 180.152 155.538 180.679 155.924 181.263C155.964 181.218 155.989 181.161 155.995 181.101C155.995 180.475 153.45 179.843 150.251 179.695C147.053 179.547 144.445 179.983 144.417 180.609Z" fill="#EAEAFA"/>
<path opacity="0.4" d="M144.473 180.778C144.867 181.354 147.285 181.881 150.153 182.008C153.021 182.134 155.488 181.811 155.924 181.263C155.538 180.679 153.148 180.159 150.237 180.032C147.327 179.906 144.916 180.229 144.473 180.778Z" fill="#EAEAFA"/>
<path d="M146.491 180.44C146.449 181.361 149.387 182.24 153.049 182.401C156.712 182.563 159.713 181.93 159.755 180.995C159.798 180.061 156.852 179.189 153.19 179.034C149.527 178.88 146.526 179.512 146.491 180.44Z" fill="#EAEAFA"/>
<path d="M146.548 178.742L146.477 180.421L159.744 180.984L159.815 179.305L146.548 178.742Z" fill="#EAEAFA"/>
<path d="M146.561 178.753C146.519 179.681 149.457 180.56 153.12 180.721C156.782 180.883 159.784 180.25 159.826 179.315C159.868 178.381 156.922 177.509 153.26 177.354C149.598 177.2 146.596 177.832 146.561 178.753Z" fill="#EAEAFA"/>
<path opacity="0.4" d="M146.561 178.753C146.519 179.681 149.457 180.56 153.12 180.721C156.782 180.883 159.784 180.25 159.826 179.315C159.868 178.381 156.922 177.509 153.26 177.354C149.598 177.2 146.596 177.832 146.561 178.753Z" fill="white"/>
<path d="M147.383 178.725C147.385 178.786 147.404 178.844 147.44 178.894C147.882 178.345 150.308 178.029 153.204 178.148C156.1 178.268 158.504 178.795 158.891 179.379C158.931 179.334 158.955 179.277 158.961 179.217C158.961 178.591 156.416 177.959 153.218 177.811C150.019 177.663 147.433 178.099 147.383 178.725Z" fill="#EAEAFA"/>
<path opacity="0.4" d="M147.383 178.725C147.385 178.786 147.404 178.844 147.44 178.894C147.882 178.345 150.308 178.029 153.204 178.148C156.1 178.268 158.504 178.795 158.891 179.379C158.931 179.334 158.955 179.277 158.961 179.217C158.961 178.591 156.416 177.959 153.218 177.811C150.019 177.663 147.433 178.099 147.383 178.725Z" fill="#EAEAFA"/>
<path opacity="0.4" d="M147.461 178.901C147.854 179.484 150.273 180.004 153.141 180.131C156.009 180.257 158.476 179.934 158.912 179.386C158.525 178.802 156.135 178.282 153.225 178.156C150.315 178.029 147.904 178.345 147.461 178.901Z" fill="#EAEAFA"/>
<path d="M146.526 177.895C146.483 178.823 149.422 179.702 153.084 179.857C156.746 180.011 159.748 179.386 159.79 178.451C159.832 177.516 156.887 176.644 153.225 176.49C149.562 176.335 146.561 176.968 146.526 177.895Z" fill="#EAEAFA"/>
<path d="M146.342 175.346L146.275 177.026L159.553 177.557L159.621 175.877L146.342 175.346Z" fill="#EAEAFA"/>
<path d="M146.596 176.215C146.554 177.143 149.492 178.022 153.155 178.177C156.817 178.331 159.819 177.706 159.861 176.771C159.903 175.836 156.958 174.964 153.295 174.81C149.633 174.655 146.631 175.288 146.596 176.215Z" fill="#EAEAFA"/>
<path opacity="0.4" d="M146.596 176.215C146.554 177.143 149.492 178.022 153.155 178.177C156.817 178.331 159.819 177.706 159.861 176.771C159.903 175.836 156.958 174.964 153.295 174.81C149.633 174.655 146.631 175.288 146.596 176.215Z" fill="white"/>
<path d="M147.44 176.187C147.441 176.246 147.461 176.302 147.496 176.349C147.939 175.801 150.364 175.484 153.26 175.604C156.156 175.723 158.56 176.258 158.947 176.834C158.99 176.791 159.015 176.733 159.017 176.672C159.017 176.047 156.48 175.414 153.274 175.266C150.069 175.119 147.468 175.555 147.44 176.187Z" fill="#EAEAFA"/>
<path opacity="0.4" d="M147.44 176.187C147.441 176.246 147.461 176.302 147.496 176.349C147.939 175.801 150.364 175.484 153.26 175.604C156.156 175.723 158.56 176.258 158.947 176.834C158.99 176.791 159.015 176.733 159.017 176.672C159.017 176.047 156.48 175.414 153.274 175.266C150.069 175.119 147.468 175.555 147.44 176.187Z" fill="#EAEAFA"/>
<path opacity="0.4" d="M147.496 176.349C147.89 176.932 150.308 177.453 153.183 177.579C156.058 177.706 158.511 177.382 158.947 176.834C158.56 176.258 156.17 175.73 153.26 175.604C150.35 175.477 147.939 175.801 147.496 176.349Z" fill="#EAEAFA"/>
<path d="M143.798 175.815C143.756 176.743 146.694 177.621 150.357 177.776C154.019 177.931 157.021 177.305 157.063 176.37C157.105 175.435 154.167 174.563 150.504 174.409C146.842 174.254 143.869 174.887 143.798 175.815Z" fill="#EAEAFA"/>
<path d="M143.878 174.151L143.806 175.829L157.073 176.395L157.145 174.716L143.878 174.151Z" fill="#EAEAFA"/>
<path d="M143.869 174.135C143.826 175.063 146.765 175.941 150.427 176.096C154.089 176.251 157.091 175.625 157.133 174.69C157.175 173.755 154.237 172.883 150.575 172.729C146.912 172.574 143.911 173.207 143.869 174.135Z" fill="#EAEAFA"/>
<path opacity="0.4" d="M143.869 174.135C143.826 175.063 146.765 175.941 150.427 176.096C154.089 176.251 157.091 175.625 157.133 174.69C157.175 173.755 154.237 172.883 150.575 172.729C146.912 172.574 143.911 173.207 143.869 174.135Z" fill="white"/>
<path d="M144.712 174.107C144.714 174.165 144.733 174.221 144.768 174.268C145.218 173.727 147.643 173.404 150.54 173.53C153.436 173.657 155.833 174.177 156.219 174.753C156.262 174.713 156.287 174.657 156.29 174.599C156.29 173.966 153.752 173.34 150.554 173.193C147.355 173.045 144.74 173.474 144.712 174.107Z" fill="#EAEAFA"/>
<path opacity="0.4" d="M144.712 174.107C144.714 174.165 144.733 174.221 144.768 174.268C145.218 173.727 147.643 173.404 150.54 173.53C153.436 173.657 155.833 174.177 156.219 174.753C156.262 174.713 156.287 174.657 156.29 174.599C156.29 173.966 153.752 173.34 150.554 173.193C147.355 173.045 144.74 173.474 144.712 174.107Z" fill="#EAEAFA"/>
<path opacity="0.4" d="M144.768 174.268C145.169 174.852 147.58 175.379 150.455 175.498C153.33 175.618 155.784 175.302 156.219 174.753C155.833 174.177 153.443 173.65 150.54 173.53C147.636 173.411 145.218 173.727 144.768 174.268Z" fill="#EAEAFA"/>
<path d="M160.922 180.876C160.536 181.698 162.841 183.589 166.068 185.094C169.294 186.598 172.226 187.203 172.605 186.359C172.985 185.515 170.686 183.653 167.46 182.141C164.233 180.63 161.302 180.061 160.922 180.876Z" fill="#EAEAFA"/>
<path d="M161.62 179.42L160.924 180.903L172.611 186.395L173.308 184.912L161.62 179.42Z" fill="#EAEAFA"/>
<path d="M161.618 179.4C161.232 180.215 163.537 182.106 166.764 183.617C169.99 185.129 172.922 185.726 173.301 184.883C173.681 184.039 171.382 182.169 168.156 180.665C164.929 179.161 161.998 178.577 161.618 179.4Z" fill="#EAEAFA"/>
<path opacity="0.4" d="M161.618 179.4C161.232 180.215 163.537 182.106 166.764 183.617C169.99 185.129 172.922 185.726 173.301 184.883C173.681 184.039 171.382 182.169 168.156 180.665C164.929 179.161 161.998 178.577 161.618 179.4Z" fill="white"/>
<path d="M162.384 179.688C162.363 179.742 162.363 179.802 162.384 179.857C162.982 179.54 165.28 180.159 167.832 181.361C170.384 182.563 172.338 183.934 172.472 184.602C172.524 184.577 172.567 184.535 172.591 184.482C172.851 183.927 170.785 182.373 167.966 181.073C165.147 179.772 162.644 179.14 162.384 179.688Z" fill="#EAEAFA"/>
<path opacity="0.4" d="M162.384 179.688C162.363 179.742 162.363 179.802 162.384 179.857C162.982 179.54 165.28 180.159 167.832 181.361C170.384 182.563 172.338 183.934 172.472 184.602C172.524 184.577 172.567 184.535 172.591 184.482C172.851 183.927 170.785 182.373 167.966 181.073C165.147 179.772 162.644 179.14 162.384 179.688Z" fill="#EAEAFA"/>
<path opacity="0.4" d="M162.377 179.857C162.511 180.56 164.486 181.895 167.01 183.097C169.533 184.299 171.867 184.925 172.465 184.602C172.331 183.934 170.356 182.563 167.825 181.361C165.295 180.159 162.975 179.54 162.377 179.857Z" fill="#EAEAFA"/>
<path d="M154.139 183.779C154.104 184.679 156.951 185.529 160.522 185.684C164.093 185.839 167.003 185.227 167.045 184.327C167.087 183.428 164.233 182.57 160.662 182.415C157.091 182.261 154.181 182.872 154.139 183.779Z" fill="#EAEAFA"/>
<path d="M154.2 182.118L154.13 183.755L167.032 184.302L167.101 182.666L154.2 182.118Z" fill="#EAEAFA"/>
<path d="M154.209 182.141C154.209 183.041 157.021 183.899 160.592 184.053C164.163 184.208 167.073 183.589 167.108 182.69C167.143 181.79 164.296 180.932 160.732 180.785C157.168 180.637 154.251 181.241 154.209 182.141Z" fill="#EAEAFA"/>
<path opacity="0.4" d="M154.209 182.141C154.209 183.041 157.021 183.899 160.592 184.053C164.163 184.208 167.073 183.589 167.108 182.69C167.143 181.79 164.296 180.932 160.732 180.785C157.168 180.637 154.251 181.241 154.209 182.141Z" fill="white"/>
<path d="M155.031 182.113C155.032 182.172 155.052 182.229 155.088 182.275C155.524 181.741 157.9 181.431 160.711 181.572C163.523 181.712 165.864 182.205 166.237 182.767C166.279 182.727 166.305 182.671 166.307 182.612C166.307 182.001 163.832 181.389 160.725 181.256C157.618 181.122 155.06 181.502 155.031 182.113Z" fill="#EAEAFA"/>
<path opacity="0.4" d="M155.031 182.113C155.032 182.172 155.052 182.229 155.088 182.275C155.524 181.741 157.9 181.431 160.711 181.572C163.523 181.712 165.864 182.205 166.237 182.767C166.279 182.727 166.305 182.671 166.307 182.612C166.307 182.001 163.832 181.389 160.725 181.256C157.618 181.122 155.06 181.502 155.031 182.113Z" fill="#EAEAFA"/>
<path opacity="0.4" d="M155.116 182.275C155.502 182.837 157.822 183.35 160.641 183.47C163.46 183.589 165.829 183.28 166.265 182.767C165.892 182.205 163.565 181.691 160.739 181.572C157.913 181.452 155.523 181.712 155.116 182.275Z" fill="#EAEAFA"/>
</svg>
