<svg xmlns="http://www.w3.org/2000/svg" width="122.742" height="133.68" viewBox="0 0 122.742 133.68"><defs><style>.a,.c{fill:#efc692;}.a,.b{opacity:0.1;}.b{fill:#f2dcc5;}.d{fill:#cfcce0;}.e{fill:#f3c8b6;}.f{fill:#f2f2f2;}.g{fill:#2f2e41;}.h{fill:#ecb5a2;}.i{fill:#3f59b8;}</style></defs><path class="a" d="M347.734,763.733c0,3.981-26.953,13.053-60.2,13.053s-60.2-9.072-60.2-13.053,26.953-1.364,60.2-1.364S347.734,759.752,347.734,763.733Z" transform="translate(-227.331 -645.615)"/><path class="b" d="M7.426,10.68C2.692,9.651,0,8.468,0,7.209c0-.575.562-1.134,1.624-1.67a4.663,4.663,0,0,1,1.793-.73C11.675,2.008,33.981,0,60.2,0c24.532,0,45.636,1.757,55.016,4.277,4.088.266,6.388.866,6.388,2.03,0,3.981-26.953,13.054-60.2,13.054C37.74,19.362,17.264,14.765,7.426,10.68Z" transform="translate(1.136 114.318)"/><circle class="c" cx="2.533" cy="2.533" r="2.533" transform="translate(14.612 60.06)"/><circle class="c" cx="2.533" cy="2.533" r="2.533" transform="translate(25.717 80.906)"/><circle class="c" cx="2.533" cy="2.533" r="2.533" transform="translate(17.145 75.646)"/><path class="d" d="M345.928,492.612a13.873,13.873,0,0,1-1.464-5.489c-.335-3.354-.12-9.006,2.812-16.891a34.063,34.063,0,0,0-1.35-27.11l.337-.2a29.92,29.92,0,0,1,2.823,8,34.886,34.886,0,0,1-1.445,19.445c-5.544,14.912-1.422,21.971-1.38,22.041Z" transform="translate(-325.443 -378.483)"/><path class="d" d="M326.543,411.6a2.728,2.728,0,1,1,2.728-2.728A2.728,2.728,0,0,1,326.543,411.6Zm0-5.066a2.338,2.338,0,1,0,2.338,2.338,2.338,2.338,0,0,0-2.338-2.338Z" transform="translate(-308.229 -347.642)"/><circle class="d" cx="2.533" cy="2.533" r="2.533" transform="translate(23.769 68.048)"/><path class="d" d="M342.221,508.083a2.728,2.728,0,1,1,2.728-2.728,2.728,2.728,0,0,1-2.728,2.728Zm0-5.065a2.338,2.338,0,1,0,2.338,2.338,2.338,2.338,0,0,0-2.338-2.338Z" transform="translate(-321.375 -428.54)"/><path class="d" d="M383.227,540.647a2.728,2.728,0,1,1,2.728-2.728A2.728,2.728,0,0,1,383.227,540.647Zm0-5.065a2.338,2.338,0,1,0,2.338,2.338,2.338,2.338,0,0,0-2.338-2.338Z" transform="translate(-355.756 -455.844)"/><circle class="d" cx="2.533" cy="2.533" r="2.533" transform="translate(16.365 87.725)"/><path class="d" d="M361.512,694.446s-2.533-6.234,5.065-10.91Z" transform="translate(-339.496 -580.224)"/><path class="d" d="M292.043,716.256s-1.153-6.63-10.074-6.573Z" transform="translate(-273.143 -602.147)"/><path class="e" d="M686.316,653.776h-43.11s-.874-12.817,4.3-12.962,4.588,5.68,11.069-2.33,14.346-7.573,15.365-2.84-1.966,8.52,3.5,7.355S690.758,644.891,686.316,653.776Z" transform="translate(-575.978 -537.216)"/><path class="f" d="M771.668,653.388l-.146-.006c.339-8.438,2.107-13.86,3.529-16.922a15.364,15.364,0,0,1,3.048-4.684l.1.109a15.257,15.257,0,0,0-3.018,4.648C773.763,639.582,772.006,644.981,771.668,653.388Z" transform="translate(-683.613 -536.825)"/><path class="f" d="M868.283,716.343l-.14-.041a22.592,22.592,0,0,1,5.688-9.463l.1.108A22.44,22.44,0,0,0,868.283,716.343Z" transform="translate(-764.626 -599.763)"/><path class="f" d="M665.686,699.782l-.144-.02a15.862,15.862,0,0,0-1.427-9.271,12.767,12.767,0,0,0-2.252-3.286l.1-.105a12.928,12.928,0,0,1,2.281,3.326A16.006,16.006,0,0,1,665.686,699.782Z" transform="translate(-591.668 -583.213)"/><path class="d" d="M667.869,626.561H614.259l-.012-.182c-.031-.452-.715-11.108,2.738-14.91a3.782,3.782,0,0,1,2.764-1.326,8.225,8.225,0,0,1,4.806,1.456c2.15,1.276,3.571,2.118,8.735-4.265,5.595-6.915,11.632-8.4,15.1-7.576a5.387,5.387,0,0,1,4.24,4.146,18.4,18.4,0,0,1,.182,5.358c-.117,1.606-.21,2.875.45,3.45.551.48,1.65.523,3.459.137,3.68-.785,8.815-.113,11.392,3.217,1.387,1.792,2.479,5.048-.191,10.388Zm-53.245-.39h53c1.99-4.037,2.052-7.447.178-9.868-2.364-3.055-7.324-3.859-11-3.074-1.966.419-3.137.35-3.8-.225-.807-.7-.708-2.057-.583-3.772a18.066,18.066,0,0,0-.174-5.248,5.01,5.01,0,0,0-3.949-3.848c-3.36-.8-9.228.667-14.709,7.442-5.376,6.645-7,5.685-9.237,4.355a7.812,7.812,0,0,0-4.6-1.4,3.406,3.406,0,0,0-2.486,1.2C614.169,615.149,614.548,624.731,614.624,626.172Z" transform="translate(-551.681 -509.807)"/><path class="g" d="M556.868,187.6s-3.01-1.075-4.944,3.225a84.794,84.794,0,0,1-4.944,9.029l1.72.43s.43-3.01,1.5-3.44l-.43,3.87s12.9,4.515,18.7-.43l-.215-1.5s.86.215.86,1.5l.645-.645a11.553,11.553,0,0,0-2.58-3.01c-1.27-1.129-1.706-3.276-1.856-4.619a5.735,5.735,0,0,0-8.463-4.41Z" transform="translate(-495.343 -163.779)"/><path class="h" d="M537.982,148.076l-3.117-3.9-2.338-7.988,8.962-9.547s1.948-7.4.195-7.014-2.143,5.845-2.143,5.845l-11.3,8.767s1.169,12.274,4.481,16.56l2.533,7.988Z" transform="translate(-479.631 -107.401)"/><path class="h" d="M618.6,148.076l3.117-3.9,2.338-7.988-8.962-9.547s-1.948-7.4-.195-7.014,2.143,5.845,2.143,5.845l11.3,8.767s-1.169,12.274-4.481,16.56l-2.533,7.988Z" transform="translate(-551.675 -107.401)"/><circle class="h" cx="5.066" cy="5.066" r="5.066" transform="translate(57.571 27.232)"/><path class="h" d="M590.523,260.815s.195,4.091-.974,5.455-2.338,8.378,3.312,8.572S597.926,269,597.926,269l-1.169-3.312s-1.753-2.533-1.169-4.871Z" transform="translate(-530.224 -225.79)"/><path class="h" d="M565.006,541.824l4.189,1.266s3.41-2.046,3.41-.1-1.169,4.481-.779,6.234,1.169,6.04,0,6.04-3.507-7.6-3.507-7.6l-3.9-2.143Z" transform="translate(-509.968 -461.405)"/><path class="h" d="M589.367,710.671l-1.559,6.04s-1.364,1.753,0,2.533a3.957,3.957,0,0,1,1.425,1.812,3.333,3.333,0,0,0,3.272,1.98,1.315,1.315,0,0,0,1.361-1,1.568,1.568,0,0,0-.3-1.228,10.525,10.525,0,0,1-1.763-3.219l.585-6.819Z" transform="translate(-529.068 -602.976)"/><path class="g" d="M576.134,212.678s1.72-2.365,3.225-2.795,1.72-2.58,1.72-2.58,3.87,4.3,6.234,4.515.215-5.159.215-5.159l-4.3-1.075-4.084.43-3.225,2.15Z" transform="translate(-519.608 -179.481)"/><path class="g" d="M462.667,439.4l-.779,1.559s-18.9,6.04-17.34,11.69,10.326,4.091,10.326,4.091l9.741,1.753.974-4.286-6.819-1.754,11.69-4.286.39,19.872-1.559,14.222,3.9.39s4.286-13.053,3.7-18.509c0,0,7.209-22.21,3.117-25.522S462.667,439.4,462.667,439.4Z" transform="translate(-409.382 -373.791)"/><path class="i" d="M562.721,291.149l-3.04-3.674-2.059.944-2.143,6.819a7.24,7.24,0,0,0,.39,6.819s.39,2.338-.195,2.922-.779,4.286-.779,4.286l-2.533,4.871s14.417,2.533,18.7-.974c0,0-2.249-8.292-.885-10.825s1.559-6.415,0-8.169-3.206-6.334-3.206-6.334l-.944-.6Z" transform="translate(-499.855 -247.939)"/><path class="d" d="M439.237,77.722h-1.868V75.853h-.17v1.869H435.33v.17H437.2V79.76h.17V77.891h1.868Z" transform="translate(-365.006 -63.6)"/><path class="d" d="M329.3,53.537h-1.869V51.668h-.17v1.869H325.4v.17h1.869v1.869h.17V53.706H329.3Z" transform="translate(-272.833 -43.321)"/><path class="d" d="M382.072,1.869H380.2V0h-.17V1.869h-1.869v.17h1.869V3.907h.17V2.038h1.868Z" transform="translate(-317.076)"/></svg>