<svg xmlns="http://www.w3.org/2000/svg" width="141.196" height="123.949" viewBox="0 0 141.196 123.949"><defs><style>.a,.i{fill:#f3c8b6;}.b{fill:#3f3d56;}.c{fill:#a0616a;}.d{fill:#d0cde1;}.e{fill:#ecb5a2;}.f{fill:#133eb4;}.g{fill:#efc692;opacity:0.84;}.h{fill:#31211f;}.i,.j{opacity:0.1;}.k{fill:#2f2e41;}.l,.m{fill:#f2dcc5;}.l{opacity:0.7;}.n{fill:#fff;}.o{fill:#6c63ff;}</style></defs><g transform="translate(0)"><path class="a" d="M271.774,648.256q-7.114-1.205-13.684-2.07l1.731-3.357c-.584-.2-3.149,1.72-3.149,1.72l2.272-9.744c-2.936.354-4.429,10.3-4.429,10.3l-3.281-3.364,1.588,3.782a302.9,302.9,0,0,0-34.718-2.185l1.482-2.873c-.584-.2-3.149,1.719-3.149,1.719l2.272-9.744c-2.936.354-4.429,10.3-4.429,10.3L211,639.383l1.682,4.006a195.009,195.009,0,0,0-19.958,1.356c1.5-4.476,6.591-8.733,6.591-8.733-3.889,1.156-5.928,3.094-6.994,4.9a78.48,78.48,0,0,1,4.536-27.116s-8.037,17.49-7.012,29.23l.123,2.085a80.093,80.093,0,0,0-10.24,1.991Z" transform="translate(-179.73 -524.307)"/><path class="b" d="M274.692,181.855v-.336c.668,0,1.346-.014,2.016-.041l.013.336C276.048,181.841,275.365,181.854,274.692,181.855Zm-2.028-.039c-.672-.026-1.353-.066-2.025-.119l.026-.335c.668.053,1.345.093,2.012.119Zm6.083-.124-.027-.335c.667-.053,1.341-.121,2.005-.2l.04.334c-.668.081-1.348.149-2.019.2Zm-10.127-.2c-.67-.08-1.346-.175-2.009-.281l.053-.332c.659.106,1.331.2,2,.279Zm14.155-.29-.054-.332c.659-.106,1.326-.228,1.983-.362l.067.329c-.661.135-1.333.257-2,.365Zm-18.161-.353c-.661-.134-1.327-.283-1.98-.443l.08-.326c.649.159,1.31.307,1.967.44Zm22.137-.456-.08-.326c.65-.16,1.306-.335,1.947-.521l.094.323c-.646.187-1.305.363-1.96.525Zm-26.078-.509c-.648-.187-1.3-.389-1.938-.6l.106-.319c.634.211,1.281.412,1.925.6Zm29.975-.62-.107-.319c.634-.212,1.273-.44,1.9-.678l.119.314c-.63.239-1.273.469-1.911.682Zm-33.83-.664c-.63-.239-1.265-.494-1.887-.759l.132-.309c.618.263,1.248.517,1.874.754Zm37.618-.775-.132-.309c.614-.262,1.231-.54,1.833-.827l.144.3c-.606.288-1.227.568-1.845.832Zm-41.359-.819c-.61-.29-1.222-.6-1.818-.909l.156-.3c.592.311,1.2.615,1.806.9Zm45.015-.92-.157-.3c.592-.311,1.184-.639,1.762-.972l.168.291c-.581.336-1.178.665-1.773.979Zm-48.613-.971c-.586-.338-1.17-.692-1.738-1.052l.18-.284c.564.357,1.145.709,1.726,1.045Zm52.12-1.058-.18-.284c.563-.357,1.128-.731,1.679-1.111l.191.276c-.554.383-1.123.76-1.69,1.119Zm-55.552-1.115c-.556-.384-1.11-.783-1.647-1.188l.2-.268c.534.4,1.084.8,1.636,1.18Zm58.886-1.19-.2-.268c.533-.4,1.066-.819,1.585-1.243l.213.26C306.005,170.932,305.468,171.353,304.932,171.756Zm-62.13-1.251c-.522-.426-1.042-.869-1.546-1.316l.223-.251c.5.444,1.018.884,1.536,1.307Zm65.271-1.315-.223-.251c.5-.444,1-.9,1.481-1.366l.233.242c-.485.466-.987.929-1.491,1.375Zm-68.308-1.377c-.485-.466-.967-.948-1.435-1.434l.242-.233c.465.483.944.963,1.426,1.425ZM311,166.38l-.242-.233c.463-.482.923-.98,1.368-1.481l.251.223c-.448.5-.911,1.006-1.377,1.491Zm-74.046-1.491c-.448-.5-.89-1.024-1.315-1.544l.26-.213c.422.516.862,1.032,1.307,1.534Zm76.74-1.544-.26-.213c.425-.519.843-1.053,1.245-1.586l.268.2c-.4.537-.827,1.074-1.254,1.6Zm-79.307-1.595c-.4-.538-.8-1.09-1.187-1.643l.276-.191c.38.549.777,1.1,1.179,1.633Zm81.749-1.649-.276-.191c.382-.552.757-1.118,1.114-1.682l.284.18c-.36.568-.738,1.138-1.122,1.693Zm-84.056-1.684c-.36-.568-.714-1.15-1.051-1.732l.291-.168c.335.578.686,1.157,1.044,1.721Zm86.232-1.747-.291-.168c.336-.581.665-1.176.976-1.767l.3.156C318.979,155.487,318.648,156.085,318.31,156.67Zm-88.262-1.759c-.313-.594-.618-1.2-.907-1.81l.3-.144c.287.6.59,1.208.9,1.8Zm90.154-1.838-.3-.144c.288-.605.567-1.224.83-1.841l.309.132C320.773,151.841,320.492,152.464,320.2,153.073Zm-91.895-1.817c-.265-.619-.52-1.25-.758-1.876l.314-.119c.237.622.49,1.249.753,1.864Zm93.491-1.924-.314-.119c.238-.628.467-1.269.678-1.9l.319.106C322.268,148.056,322.038,148.7,321.8,149.333Zm-94.932-1.863c-.214-.639-.418-1.29-.605-1.937l.323-.093c.186.642.389,1.289.6,1.924Zm96.217-1.991-.323-.093c.185-.641.36-1.3.52-1.947l.326.08c-.161.656-.337,1.315-.524,1.96Zm-97.349-1.906c-.161-.654-.311-1.32-.446-1.979l.329-.067c.134.655.283,1.316.443,1.966Zm98.316-2.034-.329-.067c.133-.654.254-1.322.361-1.983l.332.053C324.307,140.208,324.185,140.88,324.051,141.539ZM224.924,139.6c-.108-.663-.2-1.339-.285-2.009l.333-.04c.081.665.176,1.337.283,2Zm99.773-2.065-.334-.04c.08-.665.147-1.34.2-2.005l.335.027C324.845,136.184,324.777,136.863,324.7,137.532ZM224.435,135.57c-.054-.671-.1-1.352-.123-2.025l.336-.014c.027.668.068,1.345.122,2.012Zm100.584-2.081-.336-.013c.026-.669.04-1.347.04-2.015v-.111h.336v.111C325.059,132.132,325.046,132.815,325.019,133.489Zm-100.413-1.973h-.336v-.056c0-.655.013-1.319.038-1.972l.336.013c-.025.649-.038,1.308-.038,1.96Zm100.073-2.182c-.028-.667-.069-1.344-.124-2.012l.335-.027c.055.672.1,1.354.125,2.025Zm-99.918-1.846-.335-.026c.053-.673.12-1.352.2-2.019l.334.04c-.079.663-.146,1.338-.2,2.006Zm99.589-2.171c-.081-.663-.177-1.334-.285-2l.332-.054c.109.666.205,1.341.287,2.009Zm-99.113-1.831-.332-.053c.106-.665.228-1.337.361-2l.329.066C225.464,122.158,225.343,122.826,225.238,123.486ZM323.7,121.34c-.135-.656-.285-1.318-.445-1.966l.326-.081c.162.652.313,1.318.448,1.979Zm-97.665-1.8-.326-.08c.16-.654.335-1.314.522-1.961l.323.093C226.368,118.231,226.194,118.886,226.035,119.536Zm96.7-2.108c-.187-.642-.39-1.289-.6-1.923l.319-.107c.215.639.419,1.29.607,1.936Zm-95.58-1.765-.319-.106c.213-.64.442-1.285.681-1.917l.314.119C227.588,114.387,227.361,115.027,227.15,115.663Zm94.3-2.055c-.239-.625-.493-1.252-.755-1.863l.309-.132c.264.615.52,1.246.76,1.875Zm-92.867-1.724-.309-.132c.264-.621.545-1.245.834-1.855l.3.144c-.287.606-.566,1.226-.828,1.842Zm91.283-1.97c-.288-.6-.591-1.207-.9-1.8l.3-.157c.314.594.62,1.2.909,1.809Zm-89.553-1.679-.3-.156c.313-.6.643-1.2.98-1.78l.291.168c-.335.581-.663,1.176-.974,1.768Zm87.674-1.878c-.336-.578-.688-1.157-1.046-1.72l.283-.18c.36.567.714,1.149,1.053,1.731Zm-85.657-1.617-.284-.18c.36-.57.737-1.14,1.12-1.695l.276.191c-.38.551-.754,1.117-1.112,1.683Zm83.5-1.78c-.381-.549-.778-1.1-1.181-1.631l.268-.2c.405.537.805,1.089,1.189,1.642Zm-81.2-1.54-.269-.2c.4-.539.826-1.077,1.252-1.6l.26.212C235.439,100.35,235.021,100.884,234.618,101.419ZM313.4,99.745c-.424-.517-.864-1.033-1.308-1.532l.251-.223c.447.5.89,1.022,1.317,1.542Zm-76.229-1.45-.251-.223c.446-.5.909-1.006,1.375-1.492l.242.233c-.463.483-.923.982-1.366,1.482Zm73.552-1.561c-.465-.482-.945-.961-1.427-1.423l.232-.243c.485.465.969.947,1.437,1.433Zm-70.761-1.348-.233-.242c.485-.466.986-.93,1.49-1.377l.223.251c-.5.444-1,.9-1.48,1.368Zm67.851-1.441c-.5-.444-1.019-.883-1.537-1.305l.212-.26c.521.425,1.042.867,1.547,1.314ZM242.971,92.71l-.213-.26c.521-.427,1.058-.848,1.594-1.253l.2.268C244.022,91.868,243.489,92.286,242.971,92.71ZM304.683,91.4c-.536-.4-1.087-.8-1.637-1.178l.191-.277c.554.382,1.109.781,1.648,1.186Zm-58.5-1.112L246,90.009c.554-.384,1.122-.761,1.689-1.121l.18.284c-.563.357-1.127.732-1.677,1.113Zm55.175-1.178c-.566-.358-1.148-.709-1.728-1.043l.168-.291c.584.337,1.169.69,1.739,1.05Zm-51.777-.979-.169-.291c.581-.337,1.177-.667,1.772-.981l.157.3c-.591.312-1.183.64-1.76.974Zm48.281-1.037c-.593-.311-1.2-.614-1.807-.9l.144-.3c.61.289,1.222.594,1.819.907Zm-44.723-.84-.145-.3c.606-.289,1.226-.569,1.844-.834l.132.309C254.361,85.685,253.744,85.964,253.143,86.251Zm41.073-.888c-.617-.262-1.248-.515-1.875-.752l.119-.314c.631.238,1.266.493,1.888.757Zm-37.378-.695-.12-.314c.629-.24,1.271-.47,1.91-.684l.107.319c-.635.213-1.273.442-1.9.68Zm33.6-.732c-.635-.211-1.283-.411-1.926-.6l.093-.323c.647.186,1.3.388,1.938.6Zm-29.776-.549-.094-.323c.646-.188,1.305-.365,1.96-.527l.081.326C261.956,83.024,261.3,83.2,260.659,83.387Zm25.9-.563c-.649-.158-1.311-.305-1.967-.438l.066-.329c.661.133,1.328.281,1.981.441Zm-21.991-.4-.067-.329c.659-.135,1.33-.258,2-.367l.054.332C265.892,82.163,265.225,82.286,264.571,82.419Zm18.04-.391c-.661-.105-1.332-.2-2-.277l.04-.334c.668.079,1.345.173,2.01.279Zm-14.062-.257-.041-.333c.668-.081,1.347-.15,2.019-.2l.027.335C269.887,81.622,269.213,81.69,268.549,81.771Zm10.06-.217c-.666-.052-1.343-.091-2.012-.116l.013-.336c.674.026,1.355.065,2.026.117Zm-6.043-.11-.014-.336c.672-.028,1.354-.042,2.029-.043V81.4c-.67,0-1.348.016-2.015.043Z" transform="translate(-216.788 -81.065)"/><path class="c" d="M427.107,494.719s-1.366,5.856-.2,5.856,3.514-2.733,3.514-2.733v-1.562Z" transform="translate(-384.995 -425.233)"/><path class="d" d="M250.141,382.858l-3.514,5.466h2.538Z" transform="translate(-205.198 -318.545)"/><rect class="e" width="4.685" height="3.904" transform="translate(42.795 111.944)"/><path class="e" d="M344.242,660.02l.976,4.49,4.88-1.171-1.171-3.9Z" transform="translate(-286.416 -548.661)"/><path class="f" d="M427.958,500.855s-1.562.781-1.757,4.295.586,12.689.586,12.689a22.913,22.913,0,0,0,0,7.808c.781,3.709-.781,17.178.2,17.178s6.051.586,6.247,0,.39-9.37.39-9.37,1.562-4.49,0-7.223c0,0,3.514,2.928,3.514,3.709s3.709,12.884,5.466,13.079,6.637-.2,5.661-1.952-3.319-9.76-3.319-9.76-1.757-5.856-4.88-8.394l1.562-12.493s3.318-8.394,1.366-9.565S427.958,500.855,427.958,500.855Z" transform="translate(-384.772 -429.905)"/><circle class="e" cx="5.075" cy="5.075" r="5.075" transform="translate(43.966 28.98)"/><path class="e" d="M456.57,295.626s1.952,6.442,1.367,7.223,6.247-4.295,6.247-4.295-2.538-1.757-1.562-4.295Z" transform="translate(-410.066 -258.447)"/><path class="g" d="M11.582,32.4c-1.3-.087-2.988-.02-4.7.047a36.9,36.9,0,0,1-5.84-.047c-2.733-.39.781-3.709.781-3.709l.976-8.98s0-3.9-.781-5.465a11.286,11.286,0,0,1,0-6.833A8.3,8.3,0,0,1,5.336,3.709s2.733-.2,3.9-1.562A9.316,9.316,0,0,1,12.753,0l2.054,1.232a3.881,3.881,0,0,1,1.125,1.021l.042-.008A9.523,9.523,0,0,1,19,11.908a35.972,35.972,0,0,1-2.514,7.029,25.713,25.713,0,0,1-.609,4.879c-1.172,3.9,0,5.271.976,7.223.62,1.24-.493,1.535-2.138,1.535C13.77,32.573,12.65,32.476,11.582,32.4Z" transform="translate(41.95 39.522)"/><path class="e" d="M454.9,494.137a12.629,12.629,0,0,0-.976,3.123c-.683,9.077,4.295,0,4.295,0V495.7Z" transform="translate(-407.814 -424.748)"/><path class="h" d="M496.859,752.715s-2.928-2.147-2.928-.976-3.319,5.856-3.319,5.856-5.466,3.9-.976,3.9a19.258,19.258,0,0,0,6.442-.781l4.685-3.123a3.634,3.634,0,0,0,.781-2.928,16.374,16.374,0,0,0-1.757-3.709S498.225,753.106,496.859,752.715Z" transform="translate(-436.104 -638.428)"/><path class="h" d="M385.707,758.715s-.39-1.952-1.757-.976-5.075,3.9-5.075,3.9-6.832,1.562-2.538,3.514,14.055-.781,14.055-.781.39-6.247,0-6.051S385.9,759.105,385.707,758.715Z" transform="translate(-342.131 -643.843)"/><path class="i" d="M278.825,271.879l.586,11.908-5.675,11.493-.963-.366,5.856-10.737Z" transform="translate(-226.952 -226.208)"/><path class="j" d="M314.273,351.1v-1.367l-6.637,10.932Z" transform="translate(-255.959 -290.988)"/><path class="k" d="M442.183,241.047l-.839-.336a5.724,5.724,0,0,1,4.2-1.764l-.687-.756a2.918,2.918,0,0,1,3.2,1.092,14.891,14.891,0,0,1,2.308,3.244h.9l-.375.826,1.313.826-1.347-.148a4.57,4.57,0,0,1-.127,2.139l.036.653a20.069,20.069,0,0,1-1.562-2.752v.84s-.839-.756-.839-1.26l-.458.588-.229-.924-2.822.924.458-.756-1.754.252.687-.924s-1.983,1.092-2.06,2.016a4.953,4.953,0,0,1-1.068,2.1l-.458-.84S439.971,242.306,442.183,241.047Z" transform="translate(-396.743 -211.693)"/><rect class="l" width="72.379" height="14.29" transform="translate(68.816 27.518)"/><rect class="m" width="72.379" height="14.29" transform="translate(68.816 44.221)"/><circle class="n" cx="4.269" cy="4.269" r="4.269" transform="translate(72.157 30.302)"/><rect class="n" width="42.129" height="0.928" transform="translate(86.633 32.9)"/><rect class="n" width="42.129" height="0.928" transform="translate(86.633 35.313)"/><circle class="n" cx="4.269" cy="4.269" r="4.269" transform="translate(72.157 47.19)"/><rect class="n" width="42.129" height="0.928" transform="translate(86.633 49.789)"/><rect class="n" width="42.129" height="0.928" transform="translate(86.633 52.201)"/><rect class="n" width="42.129" height="0.928" transform="translate(86.633 49.789)"/><rect class="n" width="42.129" height="0.928" transform="translate(86.633 52.201)"/><rect class="m" width="72.379" height="14.29" transform="translate(68.816 60.629)"/><circle class="n" cx="4.269" cy="4.269" r="4.269" transform="translate(72.157 63.599)"/><rect class="n" width="42.129" height="0.928" transform="translate(86.633 66.197)"/><rect class="n" width="42.129" height="0.928" transform="translate(86.633 68.61)"/><rect class="n" width="42.129" height="0.928" transform="translate(86.633 66.197)"/><rect class="n" width="42.129" height="0.928" transform="translate(86.633 68.61)"/><path class="o" d="M445.074,192.318l-1.529-2.038.362-.272,1.245,1.661,4.9-4.012.287.35Z" transform="translate(-369.037 -156.134)"/></g></svg>