<svg xmlns="http://www.w3.org/2000/svg" width="56.624" height="110.63" viewBox="0 0 56.624 110.63"><defs><style>.a,.e{fill:#ecb5a2;}.a{opacity:0.25;}.b{fill:#31211f;}.c{fill:#262665;}.d{fill:#212265;}.f{fill:#efc692;}.g{fill:#f4b393;}.h{fill:#2f2e41;}.i{opacity:0.1;}.j{fill:#f2f2f2;}.k{fill:#f2dcc5;}</style></defs><g transform="translate(-12483.66 -7829.855)"><ellipse class="a" cx="25.555" cy="3.316" rx="25.555" ry="3.316" transform="translate(12486.786 7933.853)"/><path class="b" d="M893.386,679.34s1.373,4.73,2.289,5.951,1.678,3.2,1.221,3.509-1.373,3.967-.153,4.12,3.967-3.967,4.12-5.34.763-6.256.763-6.256,1.068-4.272-.61-4.577-4.272-.458-4.272-.458Z" transform="translate(11620.365 7246.282)"/><path class="b" d="M841.979,721.989s-1.984,5.188-2.441,5.493-2.136,3.051,1.221,3.051a12.517,12.517,0,0,0,5.188-.915l1.068-1.221a16.807,16.807,0,0,0-.305-3.662c-.305-.458,0-2.746,0-2.746Z" transform="translate(11665.364 7208.669)"/><path class="c" d="M774.935,443.546s-2.441,16.478-.305,21.819,4.272,6.866,4.272,6.866l16.173,15.105s5.035-2.594,4.577-4.272c0,0-1.068-.61-1.221-1.068s-2.136-.61-2.136-.61-.915-1.068-.915-1.678-7.934-11.443-10.528-12.206c0,0-1.373-1.678-1.221-1.984s-.458-1.373-.458-1.373l1.526-5.951,9.612-1.526s3.967-14.037.61-15.105S774.935,443.546,774.935,443.546Z" transform="translate(11718.828 7439.66)"/><path class="d" d="M845.574,514.184l.305,2.441s0,6.408-.305,7.019a2.136,2.136,0,0,0,0,2.136c.458.61,1.221,2.136.915,2.746s.61,17.852-.61,19.072a2.569,2.569,0,0,0-.61,2.9c.153.153-.153.763-.153.763s-6.256,1.068-5.8,0,.458-1.678.763-1.984,0-.763,0-.763.458-4.883,0-5.188-1.831-14.953-1.831-15.105-.458-.458-.458-1.068,0-2.594-.763-2.9-.61-7.781-.61-7.781Z" transform="translate(11667.262 7379.702)"/><path class="e" d="M792.218,206.358s.61,4.577,2.441,5.493,3.052,1.373,3.052,1.373l-1.526,5.34-.61,4.577h-7.019l-3.814-3.051,1.221-5.035.61-.915s.763-3.357.153-4.425S792.218,206.358,792.218,206.358Z" transform="translate(11709.784 7633.058)"/><path class="f" d="M765.747,245.174l1.068,1.984s.763-2.746,1.831-3.2,3.662-1.221,3.662-1.831-.153-2.136.458-2.136a42.477,42.477,0,0,1,7.476,2.441,2.4,2.4,0,0,1,1.068,1.221l-1.678,17.546s2.441,8.239,1.678,11.443-1.373,3.662-3.2,4.12-.763-1.068-6.1.458a27.912,27.912,0,0,1-9.918,1.068,4.269,4.269,0,0,0-2.289.763c-.305.153-.153-.763.915-2.136s.61-3.662.61-3.662-1.221-3.967-.458-5.493,1.831-3.509.915-4.12-2.136-5.188-2.136-5.188l-3.357-11.9,6.866-4.73s-.305,2.136.763,2.594S765.747,245.174,765.747,245.174Z" transform="translate(11733.204 7605.38)"/><path class="f" d="M750.106,276.2h-.916a11.423,11.423,0,0,0-1.526,4.425c0,1.831.763,12.206.763,12.206l4.425,4.577,1.068-3.509.305-7.781Z" transform="translate(11740.302 7575.574)"/><path class="f" d="M752.531,365.579s-5.035-1.373-4.883.763.915,4.73,3.357,5.34,3.2-2.746,3.2-2.746S754.515,365.884,752.531,365.579Z" transform="translate(11740.316 7502.369)"/><path class="g" d="M872.242,407.264s-.305,7.019-2.136,7.781l4.425,1.068s2.136-7.324,1.831-7.629A29.791,29.791,0,0,0,872.242,407.264Z" transform="translate(11639.525 7467.702)"/><path class="h" d="M.4,0H3.262a.4.4,0,0,1,.4.4V7.68a.492.492,0,0,1-.492.492H.492A.492.492,0,0,1,0,7.68V.4A.4.4,0,0,1,.4,0Z" transform="translate(12485.229 7860.841) rotate(-23.598)"/><path class="i" d="M.4,0H3.262a.4.4,0,0,1,.4.4V7.68a.492.492,0,0,1-.492.492H.492A.492.492,0,0,1,0,7.68V.4A.4.4,0,0,1,.4,0Z" transform="translate(12485.229 7860.841) rotate(-23.598)"/><path class="h" d="M.4,0H2.9a.4.4,0,0,1,.4.4V7.308a.492.492,0,0,1-.492.492H.492A.492.492,0,0,1,0,7.308V.4A.4.4,0,0,1,.4,0Z" transform="translate(12485.378 7861.181) rotate(-23.598)"/><ellipse class="j" cx="0.733" cy="0.743" rx="0.733" ry="0.743" transform="translate(12486.581 7862.651) rotate(-23.598)"/><path class="i" d="M869.128,265.578l.992-1.449s3.662,5.645,3.357,9.46a42.743,42.743,0,0,1-.61,4.577c0,.61-.763.61,0,1.373s1.831,1.831,1.221,2.441-1.068.61-.915,1.373a10.088,10.088,0,0,1,.152,1.678s-1.3,2.518-1.755,2.518-4.806,4.043-4.806,3.586.458-3.662.458-4.12a6.91,6.91,0,0,1,.458-2.441c.305-.458.305-.305,0-.763s-.305,0-.305-.458.153-1.068-.305-1.221-.916,0-.61-.763,0-1.373-.152-1.373-.916-.153-.458-.61-.916-9.307-.916-9.307S865.161,267.867,869.128,265.578Z" transform="translate(11643.784 7585.51)"/><path class="f" d="M870.768,253.782,873.362,255s3.662,5.645,3.357,9.46a42.748,42.748,0,0,1-.61,4.577c0,.61-.763.61,0,1.373s1.831,1.831,1.221,2.441-1.068.61-.915,1.373a10.094,10.094,0,0,1,.153,1.678s-1.373,7.324-1.831,7.324-4.73-.763-4.73-1.221.458-3.662.458-4.12a6.91,6.91,0,0,1,.458-2.441c.305-.458.305-.305,0-.763s-.305,0-.305-.458.153-1.068-.305-1.221-.915,0-.61-.763,0-1.373-.153-1.373-.915-.153-.458-.61-.915-9.307-.915-9.307S866.8,256.071,870.768,253.782Z" transform="translate(11641.305 7594.025)"/><path class="g" d="M742.365,345.965a.64.64,0,0,1-.736-.332c-.7-1.4-2.6-5.514-.83-5.64,1.634-.117,3.089,3.069,3.683,4.574a.727.727,0,0,1-.491.97Z" transform="translate(11746.556 7523.072)"/><circle class="e" cx="5.645" cy="5.645" r="5.645" transform="translate(12492.085 7832.397)"/><path class="h" d="M772.337,157.261a11.123,11.123,0,0,1-2.17.512,1.8,1.8,0,0,1-1.6-.274,1.353,1.353,0,0,1-.06-1.547,14.8,14.8,0,0,1,.995-1.322c.494-.714.786-1.661,1.577-2.021a2.9,2.9,0,0,1,1.026-.192,13.617,13.617,0,0,1,6.086.536,4.479,4.479,0,0,1,1.837,1.307,4.877,4.877,0,0,1,.734,1.424,9.292,9.292,0,0,1-1.672,8.923c-.692-.624-.391-2.065-1.267-2.383-.287-.1-.612-.032-.907-.114-.925-.259-.879-1.689-1.649-2.264a1.47,1.47,0,0,1-.439-.36.9.9,0,0,1-.085-.455c-.006-.536.246-1.9-.265-2.263S772.837,157.08,772.337,157.261Z" transform="translate(11723.318 7677.531)"/><path class="k" d="M732.256,665.667s-.415-8.926-8.923-7.888" transform="translate(11760.326 7261.586)"/><path class="k" d="M976.485,547.536s.415-8.926,8.923-7.888" transform="translate(11551.971 7358.813)"/><path class="f" d="M974.942,664.378c-.011-.094-1.021-9.454,3.071-14.408a8.328,8.328,0,0,1,6.014-3.043l.027.353a7.987,7.987,0,0,0-5.768,2.915c-4,4.837-3,14.051-2.992,14.143Z" transform="translate(11553.338 7270.448)"/><rect class="f" width="0.354" height="19.465" transform="translate(12492.268 7916.865)"/><rect class="f" width="0.354" height="39.106" transform="translate(12528.012 7897.223)"/><circle class="k" cx="2.905" cy="2.905" r="2.905" transform="translate(12489.678 7911.687)"/><circle class="k" cx="2.905" cy="2.905" r="2.905" transform="translate(12525.551 7891.614)"/><circle class="k" cx="2.905" cy="2.905" r="2.905" transform="translate(12534.474 7914.646)"/></g></svg>