<svg width="333" height="231" viewBox="0 0 333 231" fill="none" xmlns="http://www.w3.org/2000/svg">
<path d="M123.931 81.3096C175.148 67.4855 200.923 -26.1074 215.224 26.8757C229.525 79.8589 263.538 187.611 212.321 201.435C161.104 215.259 112.096 198.41 97.7953 145.426C83.4945 92.4433 72.7135 95.1338 123.931 81.3096Z" fill="#FFF8D8" fill-opacity="0.67"/>
<path d="M299.633 228.764H277.575V228.931H299.633V228.764Z" fill="#DCDCF5"/>
<path d="M220.592 230.576H214.805V230.742H220.592V230.576Z" fill="#DCDCF5"/>
<path d="M276.909 222.584H264.129V222.75H276.909V222.584Z" fill="#DCDCF5"/>
<path d="M63.7029 223.703H34.9384V223.869H63.7029V223.703Z" fill="#DCDCF5"/>
<path d="M73.8527 223.703H69.637V223.869H73.8527V223.703Z" fill="#DCDCF5"/>
<path d="M149.95 226.513H87.559V226.68H149.95V226.513Z" fill="#DCDCF5"/>
<path d="M157.842 188.345H29.2441C28.2366 188.343 27.2711 187.942 26.5594 187.229C25.8476 186.516 25.4479 185.549 25.4479 184.542V3.76956C25.4566 2.76791 25.8603 1.81017 26.571 1.10437C27.2818 0.398573 28.2424 0.00171587 29.2441 0H157.842C158.851 0 159.818 0.400657 160.531 1.11383C161.244 1.82701 161.645 2.79428 161.645 3.80286V184.542C161.645 185.551 161.244 186.518 160.531 187.231C159.818 187.944 158.851 188.345 157.842 188.345ZM29.2441 0.133201C28.2808 0.134965 27.3576 0.518857 26.6771 1.20062C25.9966 1.88237 25.6144 2.80629 25.6144 3.76956V184.542C25.6144 185.505 25.9966 186.429 26.6771 187.111C27.3576 187.793 28.2808 188.177 29.2441 188.178H157.842C158.806 188.177 159.73 187.793 160.411 187.111C161.093 186.43 161.477 185.506 161.478 184.542V3.76956C161.477 2.80568 161.093 1.88178 160.411 1.20021C159.73 0.518641 158.806 0.134961 157.842 0.133201H29.2441Z" fill="#DCDCF5"/>
<path d="M301.904 188.345H173.3C172.292 188.343 171.326 187.942 170.613 187.229C169.9 186.516 169.499 185.55 169.497 184.542V3.76956C169.507 2.76731 169.913 1.80957 170.624 1.10396C171.336 0.39834 172.297 0.00169716 173.3 0H301.904C302.905 0.00346619 303.864 0.401098 304.573 1.10671C305.283 1.81232 305.685 2.76906 305.694 3.76956V184.542C305.694 185.548 305.295 186.513 304.585 187.226C303.875 187.939 302.911 188.341 301.904 188.345ZM173.3 0.133201C172.336 0.134961 171.412 0.518641 170.73 1.20021C170.049 1.88178 169.665 2.80568 169.663 3.76956V184.542C169.665 185.506 170.049 186.43 170.73 187.111C171.412 187.793 172.336 188.177 173.3 188.178H301.904C302.868 188.177 303.792 187.793 304.474 187.111C305.155 186.43 305.539 185.506 305.541 184.542V3.76956C305.539 2.80568 305.155 1.88178 304.474 1.20021C303.792 0.518641 302.868 0.134961 301.904 0.133201H173.3Z" fill="#DCDCF5"/>
<path d="M333 218.048H0V218.215H333V218.048Z" fill="#DCDCF5"/>
<path d="M99.3539 124.955H84.4355V188.198H99.3539V124.955Z" fill="#E6E6E6"/>
<path d="M124.222 103.39H109.304V188.198H124.222V103.39Z" fill="#DCDCF5"/>
<path d="M149.091 124.955H134.172V188.198H149.091V124.955Z" fill="#DCDCF5"/>
<path d="M49.617 146.513H34.6986V188.192H49.617V146.513Z" fill="#F0F0F0"/>
<path d="M74.4854 136.104H59.567V188.192H74.4854V136.104Z" fill="#DCDCF5"/>
<path d="M173.959 146.513H159.041V188.192H173.959V146.513Z" fill="#F5F5F5"/>
<path d="M298.295 81.8247H283.376V188.198H298.295V81.8247Z" fill="#DCDCF5"/>
<path d="M198.828 124.955H183.909V188.198H198.828V124.955Z" fill="#F0F0F0"/>
<path d="M273.426 103.39H258.508V188.198H273.426V103.39Z" fill="#E6E6E6"/>
<path d="M248.565 114.539H233.646V188.192H248.565V114.539Z" fill="#DCDCF5"/>
<path d="M223.696 136.104H208.778V188.192H223.696V136.104Z" fill="#F0F0F0"/>
<path d="M55.3592 107.217C56.6798 101.622 53.2145 96.0154 47.6191 94.6948C42.0238 93.3742 36.4174 96.8395 35.0968 102.435C33.7761 108.03 37.2415 113.637 42.8368 114.957C48.4321 116.278 54.0386 112.813 55.3592 107.217Z" fill="#DCDCF5"/>
<path d="M53.8399 112.189C57.9051 108.124 57.9051 101.533 53.8399 97.468C49.7747 93.4029 43.1837 93.4029 39.1185 97.4681C35.0533 101.533 35.0533 108.124 39.1185 112.189C43.1837 116.255 49.7747 116.255 53.8399 112.189Z" fill="#E6E6E6"/>
<path d="M46.4801 112.621C50.7836 112.621 54.2723 109.132 54.2723 104.828C54.2723 100.525 50.7836 97.0361 46.4801 97.0361C42.1766 97.0361 38.6879 100.525 38.6879 104.828C38.6879 109.132 42.1766 112.621 46.4801 112.621Z" fill="#F0F0F0"/>
<path d="M49.9034 106.487C50.2031 108.212 49.0176 109.364 46.8864 109.544L46.8531 110.969H45.5544L45.5943 109.544C44.479 109.459 43.3984 109.117 42.4375 108.545L43.0236 106.94C43.8054 107.461 44.7005 107.787 45.6343 107.892L45.6942 105.708C44.4222 105.341 43.0302 104.862 42.7439 103.297C42.4442 101.572 43.6496 100.406 45.8274 100.253V98.8278H47.1528V100.266C48.033 100.342 48.889 100.593 49.6703 101.006L49.1241 102.564C48.4992 102.196 47.8014 101.969 47.0795 101.898L47.0262 104.176C48.2783 104.562 49.637 105.002 49.9034 106.487ZM45.7275 103.823L45.7808 101.958C45.0682 102.098 44.7219 102.497 44.7951 102.99C44.8684 103.483 45.228 103.623 45.7275 103.823ZM47.8587 106.826C47.7988 106.447 47.4591 106.214 46.973 106.047L46.933 107.819C47.6123 107.679 47.952 107.319 47.8587 106.826Z" fill="white"/>
<path d="M293.073 16.9697H238.868C236.113 16.9697 233.879 19.2031 233.879 21.9581V42.4442C233.879 45.1992 236.113 47.4326 238.868 47.4326H293.073C295.828 47.4326 298.062 45.1992 298.062 42.4442V21.9581C298.062 19.2031 295.828 16.9697 293.073 16.9697Z" fill="#F0F0F0"/>
<path d="M250.542 21.1188H246.027C245.762 21.1188 245.547 21.3335 245.547 21.5983V43.23C245.547 43.4948 245.762 43.7095 246.027 43.7095H250.542C250.807 43.7095 251.022 43.4948 251.022 43.23V21.5983C251.022 21.3335 250.807 21.1188 250.542 21.1188Z" fill="white"/>
<path d="M287.505 21.1188H282.99C282.725 21.1188 282.51 21.3335 282.51 21.5983V43.23C282.51 43.4948 282.725 43.7095 282.99 43.7095H287.505C287.77 43.7095 287.985 43.4948 287.985 43.23V21.5983C287.985 21.3335 287.77 21.1188 287.505 21.1188Z" fill="white"/>
<path d="M269.663 28.5714H265.148C264.883 28.5714 264.668 28.7861 264.668 29.0509V43.2367C264.668 43.5016 264.883 43.7162 265.148 43.7162H269.663C269.928 43.7162 270.143 43.5016 270.143 43.2367V29.0509C270.143 28.7861 269.928 28.5714 269.663 28.5714Z" fill="white"/>
<path d="M260.186 32.201H255.671C255.406 32.201 255.191 32.4157 255.191 32.6806V43.23C255.191 43.4948 255.406 43.7095 255.671 43.7095H260.186C260.451 43.7095 260.666 43.4948 260.666 43.23V32.6806C260.666 32.4157 260.451 32.201 260.186 32.201Z" fill="white"/>
<path d="M278.588 41.0455H274.072C273.807 41.0455 273.593 41.2602 273.593 41.5251V43.23C273.593 43.4948 273.807 43.7095 274.072 43.7095H278.588C278.853 43.7095 279.067 43.4948 279.067 43.23V41.5251C279.067 41.2602 278.853 41.0455 278.588 41.0455Z" fill="white"/>
<path d="M285.328 20.9856C285.268 20.9559 285.202 20.939 285.136 20.9358C285.069 20.9326 285.002 20.9432 284.94 20.9669C284.877 20.9907 284.82 21.0271 284.772 21.0738C284.725 21.1206 284.687 21.1767 284.662 21.2387L276.67 38.5547C276.636 38.6379 276.579 38.7101 276.506 38.763C276.433 38.816 276.347 38.8477 276.257 38.8546C276.168 38.8615 276.078 38.8433 275.998 38.8021C275.918 38.7609 275.851 38.6983 275.804 38.6213L268.398 27.3525C268.33 27.2445 268.221 27.1679 268.097 27.1392C267.972 27.1105 267.841 27.1321 267.732 27.1994L258.408 30.929C258.333 30.9749 258.246 30.9991 258.158 30.9991C258.07 30.9991 257.984 30.9749 257.909 30.929L247.752 20.6992C247.694 20.6678 247.63 20.6487 247.564 20.6432C247.498 20.6376 247.432 20.6457 247.37 20.667C247.307 20.6883 247.25 20.7222 247.201 20.7667C247.152 20.8112 247.113 20.8653 247.086 20.9256V20.9789C247.037 21.0894 247.032 21.2139 247.07 21.3284C247.108 21.4429 247.187 21.5391 247.293 21.5983L257.995 32.1411C258.07 32.1885 258.156 32.2136 258.245 32.2136C258.333 32.2136 258.42 32.1885 258.495 32.1411L267.406 28.6379C267.459 28.6038 267.519 28.5806 267.582 28.5698C267.645 28.559 267.709 28.5608 267.771 28.5751C267.833 28.5893 267.891 28.6158 267.943 28.6528C267.995 28.6899 268.038 28.7369 268.072 28.7911L275.951 40.8257C275.997 40.903 276.063 40.966 276.143 41.0077C276.222 41.0495 276.312 41.0683 276.402 41.062C276.492 41.0558 276.578 41.0248 276.651 40.9725C276.724 40.9202 276.781 40.8487 276.816 40.7658L285.541 21.6183C285.591 21.5053 285.597 21.3775 285.558 21.2603C285.518 21.1431 285.436 21.0451 285.328 20.9856Z" fill="#DCDCF5"/>
<path d="M147.319 46.6799C153.318 46.6799 158.182 41.8166 158.182 35.8174C158.182 29.8182 153.318 24.955 147.319 24.955C141.32 24.955 136.457 29.8182 136.457 35.8174C136.457 41.8166 141.32 46.6799 147.319 46.6799Z" fill="#DCDCF5"/>
<path opacity="0.8" d="M147.193 44.5354C152.007 44.5354 155.911 40.6322 155.911 35.8174C155.911 31.0026 152.007 27.0995 147.193 27.0995C142.378 27.0995 138.475 31.0026 138.475 35.8174C138.475 40.6322 142.378 44.5354 147.193 44.5354Z" fill="white"/>
<path d="M147.166 37.4293C147.655 37.4293 148.052 37.0327 148.052 36.5435C148.052 36.0543 147.655 35.6577 147.166 35.6577C146.677 35.6577 146.28 36.0543 146.28 36.5435C146.28 37.0327 146.677 37.4293 147.166 37.4293Z" fill="#DCDCF5"/>
<path d="M147.066 36.8697L143.317 33.3399L143.683 32.9536L147.079 36.1504L153.167 30.7692L153.52 31.1688L147.066 36.8697Z" fill="#DCDCF5"/>
</svg>
