<svg width="260" height="240" viewBox="0 0 260 240" fill="none" xmlns="http://www.w3.org/2000/svg">
<path d="M86.1315 175.69C69.7788 114.661 -41.6328 83.7589 21.5006 66.8424C84.634 49.9258 213.039 9.65192 229.392 70.6809C245.745 131.71 225.57 190.04 162.437 206.957C99.3034 223.873 102.484 236.719 86.1315 175.69Z" fill="#FFF8D8" fill-opacity="0.67"/>
<path d="M106.805 203.191L43 0H227.002L178.557 203.191H106.805Z" fill="#F5F5F5"/>
<path d="M106.181 203.191C106.181 203.191 141.651 181.627 177.932 203.191H106.181Z" fill="#E0E0E0"/>
<path d="M112.752 190.77C112.752 190.394 108.473 176.868 108.473 176.868L104.762 178.409L106.77 166.08L115.734 174.467L112.193 175.755L116.969 189.844L112.752 190.77Z" fill="white"/>
<path d="M183.228 109.959C183.412 109.636 186.285 95.7428 186.285 95.7428L182.294 95.2757L190.07 85.5001L193.79 97.1967L190.074 96.5899L187.359 111.212L183.228 109.959Z" fill="white"/>
<path d="M75.8108 74.8339C75.7628 74.4671 69.7333 61.6222 69.7333 61.6222L66.2405 63.6437L66.5985 51.1569L76.5924 58.2822L73.2567 60.0286L79.8669 73.3494L75.8108 74.8339Z" fill="white"/>
<path d="M218.032 146.11C231.044 141.587 237.925 127.371 233.401 114.359C228.878 101.348 214.662 94.4665 201.651 98.9901C188.639 103.514 181.758 117.729 186.281 130.741C190.805 143.753 205.02 150.634 218.032 146.11Z" fill="#E0E0E0"/>
<path d="M225.363 138.018C235.104 128.277 235.104 112.484 225.363 102.743C215.622 93.0018 199.829 93.0018 190.088 102.743C180.347 112.484 180.347 128.277 190.088 138.018C199.829 147.759 215.622 147.759 225.363 138.018Z" fill="#EBEBEB"/>
<path d="M213.801 137.631C223.678 134.079 228.877 123.391 225.413 113.759C221.949 104.127 211.134 99.1979 201.257 102.75C191.38 106.302 186.181 116.99 189.645 126.622C193.109 136.254 203.924 141.183 213.801 137.631Z" fill="#F5F5F5"/>
<path d="M213.782 137.53C209.132 139.205 204.013 139.001 199.511 136.964C195.009 134.926 191.478 131.214 189.668 126.615C189.725 126.785 189.777 126.956 189.838 127.13C190.658 129.511 191.942 131.705 193.616 133.586C195.291 135.466 197.322 136.995 199.592 138.083C201.863 139.172 204.327 139.798 206.841 139.926C209.356 140.054 211.871 139.68 214.24 138.828C216.609 137.975 218.785 136.66 220.642 134.959C222.498 133.259 223.998 131.206 225.054 128.92C226.11 126.635 226.702 124.162 226.794 121.646C226.887 119.13 226.478 116.62 225.592 114.264C225.531 114.093 225.465 113.927 225.4 113.761C226.932 118.456 226.576 123.563 224.407 128C222.238 132.437 218.427 135.855 213.782 137.53Z" fill="#FAFAFA"/>
<path d="M201.286 102.807C205.939 101.134 211.061 101.341 215.564 103.384C220.066 105.427 223.595 109.145 225.4 113.748C225.343 113.578 225.291 113.403 225.225 113.233C223.52 108.492 220 104.622 215.442 102.476C210.883 100.33 205.658 100.082 200.917 101.788C196.176 103.493 192.307 107.012 190.16 111.571C188.014 116.13 187.766 121.354 189.472 126.095C189.533 126.266 189.603 126.432 189.668 126.602C188.127 121.904 188.479 116.79 190.648 112.347C192.818 107.904 196.634 104.481 201.286 102.807Z" fill="#E0E0E0"/>
<path d="M218.685 121.908C217.781 119.398 215.995 118.202 213.996 118.175C214.978 116.918 215.306 115.15 214.581 113.163C213.708 110.696 211.691 109.439 208.874 109.788L207.779 106.732L204.967 107.745L205.984 110.579L204.386 111.155L203.369 108.321L200.553 109.334L201.574 112.163L199.012 113.08L197.226 113.722L198.239 116.534L200.024 115.892L204.945 129.575L202.972 130.287L203.984 133.099L205.958 132.391L208.521 131.47L209.704 134.762L212.52 133.749L211.337 130.457L212.93 129.881L214.118 133.177L216.93 132.164L215.707 128.763C218.72 127.191 219.698 124.768 218.685 121.908ZM203.592 114.626L207.399 113.255C209.512 112.495 211.031 112.949 211.673 114.739C212.315 116.529 211.429 117.822 209.315 118.582L204.993 120.136L203.076 114.827L203.592 114.626ZM212.93 126.72L208.346 128.361L208.023 128.479L206.015 122.904L210.948 121.131C213.254 120.302 214.803 120.695 215.498 122.642C216.192 124.589 215.236 125.895 212.93 126.72Z" fill="#E0E0E0"/>
<path d="M217.318 122.402C216.415 119.891 214.629 118.695 212.629 118.664C213.612 117.411 213.939 115.643 213.214 113.657C212.341 111.185 210.324 109.932 207.508 110.282L206.412 107.225L203.6 108.238L204.618 111.072L203.02 111.644L202.002 108.815L199.178 109.832L200.199 112.666L197.636 113.587L195.851 114.229L196.859 117.045L198.645 116.403L203.578 130.108L201.605 130.82L202.618 133.631L204.591 132.924L207.154 131.998L208.337 135.295L211.154 134.282L209.966 130.981L211.564 130.409L212.752 133.701L215.563 132.693L214.341 129.287C217.353 127.685 218.344 125.262 217.318 122.402ZM202.234 115.119L206.045 113.748C208.158 112.989 209.673 113.438 210.32 115.233C210.966 117.027 210.075 118.311 207.962 119.075L203.64 120.629L201.723 115.303L202.234 115.119ZM211.577 127.213L206.971 128.872L206.643 128.986L204.639 123.415L209.573 121.638C211.878 120.813 213.428 121.201 214.122 123.148C214.817 125.096 213.869 126.384 211.564 127.213H211.577Z" fill="#EBEBEB"/>
<path d="M202.002 108.823C202.042 108.933 200.968 109.426 199.282 110.098L199.453 109.74C199.776 110.544 200.143 111.487 200.527 112.552L200.64 112.866L200.322 112.984L199.566 113.259C198.235 113.74 196.99 114.163 195.955 114.495L196.126 114.137C196.676 115.853 196.999 117.005 196.868 117.045C196.737 117.084 196.261 116.006 195.593 114.325L195.493 114.071L195.763 113.967C196.772 113.561 198.003 113.093 199.335 112.618L200.09 112.347L199.889 112.783C199.518 111.736 199.186 110.758 198.924 109.932L198.833 109.657L199.09 109.574C200.819 109.011 201.963 108.714 202.002 108.823Z" fill="#FAFAFA"/>
<path d="M207.036 107.073C207.097 107.247 206.39 107.666 205.451 108.003C204.513 108.339 203.705 108.474 203.631 108.295C203.557 108.116 204.277 107.701 205.22 107.361C206.163 107.02 206.958 106.894 207.036 107.073Z" fill="#FAFAFA"/>
<path d="M203.36 129.942C203.181 130.003 201.959 127.052 200.627 123.349C199.295 119.647 198.357 116.591 198.536 116.525C198.715 116.46 199.937 119.411 201.269 123.118C202.601 126.825 203.544 129.877 203.36 129.942Z" fill="#FAFAFA"/>
<path d="M209.381 118.586C209.446 118.761 208.281 119.346 206.783 119.896C205.286 120.446 204.015 120.73 203.954 120.551C203.893 120.372 205.05 119.795 206.552 119.241C208.054 118.686 209.315 118.407 209.381 118.586Z" fill="#FAFAFA"/>
<path d="M212.494 126.903C212.555 127.082 211.394 127.663 209.874 128.213C208.355 128.763 207.111 129.047 207.045 128.868C206.98 128.689 208.145 128.113 209.643 127.558C211.14 127.004 212.428 126.724 212.494 126.903Z" fill="#FAFAFA"/>
<path d="M77.8146 175.999C87.5297 175.999 95.4054 168.124 95.4054 158.409C95.4054 148.693 87.5297 140.818 77.8146 140.818C68.0995 140.818 60.2239 148.693 60.2239 158.409C60.2239 168.124 68.0995 175.999 77.8146 175.999Z" fill="#E0E0E0"/>
<path d="M81.5155 173.577C91.0528 171.727 97.2842 162.495 95.4338 152.958C93.5834 143.421 84.3519 137.189 74.8146 139.04C65.2774 140.89 59.0459 150.122 60.8963 159.659C62.7467 169.196 71.9783 175.428 81.5155 173.577Z" fill="#EBEBEB"/>
<path d="M89.2981 163.641C93.362 157.677 91.6971 149.463 85.5796 145.294C79.4621 141.126 71.2085 142.581 67.1446 148.545C63.0808 154.51 64.7456 162.724 70.8631 166.892C76.9806 171.06 85.2343 169.605 89.2981 163.641Z" fill="#F5F5F5"/>
<path d="M70.8858 166.861C68.0053 164.897 66.004 161.888 65.3069 158.472C64.6099 155.056 65.2721 151.503 67.1529 148.568L66.9302 148.877C65.9394 150.331 65.2447 151.966 64.8857 153.688C64.5267 155.41 64.5104 157.186 64.8378 158.915C65.1651 160.643 65.8298 162.291 66.7937 163.762C67.7576 165.234 69.002 166.501 70.4558 167.492C71.9095 168.483 73.5442 169.178 75.2664 169.537C76.9886 169.896 78.7647 169.912 80.4932 169.585C82.2217 169.257 83.8689 168.593 85.3405 167.629C86.8122 166.665 88.0796 165.42 89.0704 163.967C89.1446 163.862 89.2101 163.753 89.2799 163.643C87.2359 166.468 84.1708 168.385 80.736 168.986C77.3012 169.587 73.7675 168.824 70.8858 166.861Z" fill="#FAFAFA"/>
<path d="M85.5469 145.35C88.4274 147.314 90.4288 150.323 91.1258 153.739C91.8228 157.155 91.1606 160.708 89.2799 163.643C89.3541 163.543 89.4284 163.443 89.5026 163.333C91.5035 160.397 92.2562 156.787 91.595 153.296C90.9338 149.805 88.913 146.72 85.977 144.719C84.5233 143.728 82.8886 143.033 81.1664 142.674C79.4441 142.315 77.6681 142.299 75.9395 142.626C72.4486 143.288 69.3633 145.308 67.3624 148.244C67.2882 148.354 67.2227 148.458 67.1528 148.567C69.1969 145.742 72.262 143.826 75.6968 143.225C79.1315 142.624 82.6652 143.386 85.5469 145.35Z" fill="#E0E0E0"/>
<path d="M81.8404 163.189C82.9014 161.635 82.8446 160.133 82.0325 158.967C82.6571 158.971 83.2719 158.812 83.8163 158.506C84.3606 158.2 84.8157 157.757 85.1368 157.221C86.1802 155.693 86.0667 154.025 84.7002 152.567L85.9881 150.681L84.2417 149.493L83.0454 151.239L82.0543 150.567L83.2506 148.821L81.5042 147.633L80.3079 149.38L78.7231 148.297L77.6228 147.572L76.4353 149.318L77.5442 150.069L71.768 158.526L70.5455 157.692L69.3579 159.439L70.5804 160.268L72.1653 161.351L70.7769 163.39L72.5233 164.578L73.916 162.539L74.9028 163.211L73.5144 165.254L75.2608 166.442L76.6972 164.333C78.8409 165.399 80.6354 164.962 81.8404 163.189ZM79.7534 151.558L82.1111 153.165C83.4209 154.06 83.7877 155.112 83.0323 156.221C82.277 157.33 81.1724 157.356 79.8626 156.466L77.1862 154.641L79.4347 151.34L79.7534 151.558ZM76.6972 161.897L73.8724 159.954L73.6716 159.814L76.0248 156.365L79.0811 158.448C80.5088 159.417 80.9192 160.474 80.1027 161.67C79.2863 162.866 78.138 162.853 76.7147 161.897H76.6972Z" fill="#E0E0E0"/>
<path d="M80.9932 162.613C82.0542 161.059 81.9974 159.557 81.1853 158.391C81.8099 158.395 82.4247 158.236 82.9691 157.93C83.5134 157.623 83.9686 157.18 84.2896 156.645C85.3331 155.117 85.2196 153.449 83.853 151.99L85.1628 150.1L83.4164 148.912L82.2201 150.659L81.229 149.986L82.4253 148.24L80.6789 147.052L79.4826 148.799L77.8977 147.716L76.7887 146.961L75.6012 148.707L76.7102 149.458L70.9208 157.95L69.6983 157.116L68.5107 158.863L69.7332 159.697L71.3225 160.779L69.9428 162.814L71.6892 164.001L73.082 161.962L74.0687 162.635L72.6803 164.678L74.4267 165.866L75.8631 163.757C77.9938 164.822 79.7882 164.386 80.9932 162.613ZM78.9063 150.982L81.2639 152.589C82.5737 153.484 82.9405 154.536 82.1852 155.645C81.4298 156.754 80.3252 156.78 79.0154 155.885L76.339 154.064L78.5876 150.764L78.9063 150.982ZM75.85 161.321L72.999 159.36L72.7982 159.221L75.1515 155.771L78.2077 157.854C79.631 158.823 80.0414 159.88 79.225 161.076C78.4085 162.272 77.2908 162.294 75.8675 161.321H75.85Z" fill="#EBEBEB"/>
<path d="M82.4078 148.249C82.3423 148.345 81.5957 147.965 80.5085 147.293L80.8971 147.218C80.5784 147.742 80.1854 148.354 79.7488 149.004L79.5611 149.288L79.2817 149.096L78.8101 148.777C77.985 148.214 77.2296 147.677 76.6271 147.214L77.0201 147.14C76.2516 148.157 75.7103 148.79 75.5967 148.725C75.4832 148.659 75.8849 147.908 76.5529 146.821L76.6926 146.594L76.9458 146.747C77.6008 147.149 78.3779 147.651 79.2031 148.214L79.6703 148.537L79.1987 148.624C79.6353 147.978 80.0719 147.389 80.443 146.904L80.6177 146.668L80.8316 146.83C81.8445 147.598 82.4733 148.153 82.4078 148.249Z" fill="#FAFAFA"/>
<path d="M85.4859 150.393C85.3811 150.545 84.8222 150.353 84.2415 149.956C83.6609 149.559 83.2723 149.109 83.3683 148.956C83.4644 148.803 84.032 148.995 84.617 149.393C85.2021 149.79 85.5907 150.235 85.4859 150.393Z" fill="#FAFAFA"/>
<path d="M70.9119 157.767C70.7591 157.658 71.8987 155.715 73.4617 153.401C75.0247 151.087 76.4175 149.336 76.5747 149.441C76.7319 149.545 75.588 151.493 74.0249 153.785C72.4619 156.077 71.0691 157.872 70.9119 157.767Z" fill="#FAFAFA"/>
<path d="M79.8886 156.505C79.7838 156.658 78.9455 156.274 78.0156 155.632C77.0856 154.99 76.422 154.357 76.5268 154.204C76.6315 154.051 77.4698 154.435 78.3998 155.077C79.3297 155.719 79.9846 156.348 79.8886 156.505Z" fill="#FAFAFA"/>
<path d="M76.4264 161.722C76.3217 161.88 75.4834 161.491 74.5534 160.849C73.6234 160.207 72.9598 159.579 73.0646 159.421C73.1694 159.264 74.012 159.653 74.9376 160.295C75.8632 160.936 76.5356 161.565 76.4264 161.722Z" fill="#FAFAFA"/>
<path d="M164.202 30.8467C167.307 23.9702 164.249 15.8787 157.373 12.7739C150.496 9.66903 142.405 12.7265 139.3 19.603C136.195 26.4795 139.253 34.571 146.129 37.6758C153.006 40.7807 161.097 37.7232 164.202 30.8467Z" fill="#E0E0E0"/>
<path d="M162.212 32.2804C167.021 26.467 166.207 17.8555 160.394 13.0461C154.58 8.23682 145.969 9.05085 141.159 14.8643C136.35 20.6778 137.164 29.2893 142.977 34.0986C148.791 38.908 157.402 38.0939 162.212 32.2804Z" fill="#EBEBEB"/>
<path d="M161.328 27.3201C163.432 22.1236 160.818 16.1622 155.489 14.005C150.161 11.8479 144.136 14.3118 142.032 19.5084C139.928 24.705 142.542 30.6663 147.871 32.8235C153.199 34.9806 159.224 32.5167 161.328 27.3201Z" fill="#F5F5F5"/>
<path d="M147.885 32.7846C145.375 31.7683 143.361 29.8129 142.27 27.3343C141.179 24.8557 141.098 22.0493 142.044 19.5118C142 19.6035 141.961 19.6952 141.921 19.7869C140.951 22.3322 141.017 25.1566 142.106 27.6537C143.194 30.1509 145.218 32.1218 147.743 33.1435C150.268 34.1652 153.093 34.1563 155.612 33.1187C158.131 32.081 160.142 30.0973 161.215 27.5934C161.25 27.5017 161.285 27.41 161.315 27.3139C160.23 29.7949 158.219 31.7545 155.711 32.7761C153.203 33.7977 150.396 33.8007 147.885 32.7846Z" fill="#FAFAFA"/>
<path d="M155.473 14.0455C157.983 15.0609 159.998 17.0155 161.089 19.4934C162.18 21.9713 162.261 24.7771 161.315 27.3139C161.359 27.2266 161.398 27.1349 161.437 27.0432C162.408 24.4979 162.342 21.6735 161.253 19.1764C160.165 16.6793 158.141 14.7083 155.616 13.6866C153.09 12.6649 150.265 12.6738 147.747 13.7114C145.228 14.7491 143.217 16.7328 142.144 19.2367C142.109 19.3284 142.074 19.4201 142.043 19.5118C143.13 17.0317 145.141 15.0731 147.649 14.0523C150.157 13.0315 152.964 13.0291 155.473 14.0455Z" fill="#E0E0E0"/>
<path d="M155.596 28.1958C156.146 26.8424 155.853 25.7028 155.046 24.9606C155.52 24.8607 155.96 24.6392 156.323 24.3177C156.686 23.9962 156.959 23.5858 157.115 23.1269C157.657 21.8171 157.294 20.5509 156.019 19.6646L156.687 18.023L155.168 17.4074L154.548 18.9355L153.675 18.5862L154.29 17.0581L152.775 16.4468L152.155 17.975L150.771 17.4117L149.841 17.0275L149.226 18.5469L150.191 18.9355L147.2 26.3184L146.135 25.8818L145.519 27.4012L146.584 27.8378L147.951 28.3792L147.222 30.1693L148.741 30.7849L149.462 29.0079L150.335 29.3572L149.614 31.1342L151.134 31.7454L151.876 29.9117C153.684 30.3658 154.972 29.7371 155.596 28.1958ZM152.103 19.7083L154.159 20.5422C155.299 21.005 155.753 21.7428 155.36 22.7252C154.967 23.7076 154.138 23.8953 152.998 23.4325L150.667 22.4894L151.828 19.6166L152.103 19.7083ZM151.501 28.0561L149.008 27.0694L148.828 26.9995L150.047 23.9914L152.71 25.0698C153.95 25.5719 154.434 26.3053 154.02 27.3488C153.605 28.3923 152.736 28.5626 151.492 28.0561H151.501Z" fill="#E0E0E0"/>
<path d="M154.858 27.8946C155.408 26.5412 155.116 25.4016 154.312 24.6594C154.788 24.5617 155.23 24.3415 155.594 24.0207C155.959 23.6999 156.233 23.2894 156.39 22.83C156.932 21.5202 156.569 20.2541 155.295 19.3678L155.954 17.7261L154.434 17.1105L153.814 18.6386L152.941 18.2893L153.557 16.7612L152.051 16.1544L151.431 17.6825L150.047 17.1236L149.086 16.735L148.47 18.2501L149.435 18.643L146.445 26.026L145.379 25.5894L144.768 27.1087L145.829 27.5453L147.222 28.0911L146.501 29.8724L148.021 30.4837L148.741 28.7067L149.614 29.056L148.894 30.833L150.392 31.4355L151.134 29.6018C152.946 30.0646 154.234 29.4402 154.858 27.8946ZM151.365 19.4114L153.422 20.2453C154.561 20.7038 155.015 21.4416 154.627 22.4284C154.238 23.4151 153.391 23.5766 152.251 23.14L149.92 22.1926L151.081 19.3197L151.365 19.4114ZM150.763 27.7593L148.278 26.7551L148.104 26.6809L149.317 23.677L151.981 24.7511C153.221 25.2575 153.705 25.991 153.291 27.0302C152.876 28.0693 151.998 28.2614 150.754 27.7593H150.763Z" fill="#EBEBEB"/>
<path d="M153.566 16.7612C153.522 16.8704 152.889 16.7219 151.946 16.4076L152.313 16.2504C152.16 16.687 151.968 17.2328 151.745 17.8003L151.623 18.1147L151.304 17.9881L150.894 17.8265C150.178 17.534 149.518 17.2459 148.977 16.9883L149.348 16.8311C148.911 17.7261 148.58 18.285 148.475 18.2413C148.37 18.1977 148.514 17.5602 148.828 16.6172L148.911 16.3683L149.195 16.4643C149.763 16.6521 150.435 16.9009 151.156 17.1935L151.562 17.3594L151.125 17.5471C151.361 16.9839 151.592 16.4687 151.797 16.0408L151.928 15.7701L152.164 15.8837C153.05 16.3159 153.614 16.6521 153.566 16.7612Z" fill="#FAFAFA"/>
<path d="M156.255 17.9008C156.185 18.0754 155.718 18.0536 155.211 17.8484C154.705 17.6432 154.338 17.3332 154.421 17.1585C154.504 16.9839 154.958 17.0101 155.465 17.2153C155.971 17.4205 156.325 17.7043 156.255 17.9008Z" fill="#FAFAFA"/>
<path d="M146.41 25.8775C146.235 25.8076 146.75 24.1311 147.558 22.1314C148.365 20.1318 149.164 18.5687 149.339 18.6386C149.514 18.7085 148.999 20.385 148.191 22.3847C147.383 24.3843 146.584 25.9474 146.41 25.8775Z" fill="#FAFAFA"/>
<path d="M153.015 23.4412C152.941 23.6159 152.23 23.4893 151.422 23.1662C150.614 22.8431 150.016 22.4283 150.086 22.2537C150.156 22.079 150.867 22.2057 151.675 22.5331C152.483 22.8606 153.085 23.2666 153.015 23.4412Z" fill="#FAFAFA"/>
<path d="M151.247 27.9732C151.173 28.1478 150.461 28.0212 149.654 27.6937C148.846 27.3663 148.248 26.9603 148.318 26.7856C148.387 26.611 149.099 26.7332 149.911 27.0607C150.723 27.3881 151.317 27.7985 151.247 27.9732Z" fill="#FAFAFA"/>
<path d="M223.23 203.191C223.23 203.256 185.682 203.309 139.376 203.309C93.0697 203.309 55.5349 203.256 55.5349 203.191C55.5349 203.125 93.0828 203.077 139.398 203.077C185.713 203.077 223.23 203.13 223.23 203.191Z" fill="#263238"/>
<path d="M222.457 18.1321C222.457 18.1321 210.486 13.3688 183.896 39.9667C183.896 39.9667 156.216 63.7659 171.012 73.7642C183.604 82.2736 200.221 70.088 208.997 62.1112C214.013 57.4153 218.463 52.149 222.256 46.4197C228.316 37.0502 231.923 24.6724 222.457 18.1321Z" fill="#E0D9FF" fill-opacity="0.61"/>
<path opacity="0.4" d="M222.457 18.1321C222.457 18.1321 210.486 13.3688 183.896 39.9667C183.896 39.9667 156.216 63.7659 171.012 73.7642C183.604 82.2736 200.221 70.088 208.997 62.1112C214.013 57.4153 218.463 52.149 222.256 46.4197C228.316 37.0502 231.923 24.6724 222.457 18.1321Z" fill="black"/>
<path d="M221.549 17.7916C221.549 17.7916 206.705 9.57473 180.072 36.1726C180.072 36.1726 154.356 63.587 170.03 72.175C180.766 78.0604 196.409 66.2939 205.185 58.3172C209.796 54.1389 215.995 47.5898 219.383 42.3506C225.457 32.9767 228.81 22.4152 221.549 17.7916Z" fill="#E0D9FF" fill-opacity="0.61"/>
<path opacity="0.2" d="M203.606 53.2187C215.226 41.5988 220.97 28.5037 216.436 23.97C211.903 19.4363 198.808 25.1808 187.188 36.8006C175.568 48.4205 169.823 61.5156 174.357 66.0493C178.891 70.583 191.986 64.8385 203.606 53.2187Z" fill="white"/>
<path d="M210.717 31.9027L206.98 35.6444L206.015 34.6795L209.656 31.0513L207.765 29.1652L203.88 33.0509L202.395 31.5708L182.661 51.3053L183.661 52.3052L179.648 56.0643L181.831 58.2473L185.761 54.3179L186.372 54.9291L182.556 58.7451L184.647 60.8364L189.136 56.3787C189.136 56.3787 190.768 58.0814 196.396 53.2657C200.684 49.5982 199.802 46.0486 199.802 46.0486C199.802 46.0486 201.95 46.3062 205.133 43.787C207.083 42.1688 208.427 39.937 208.944 37.4563L212.612 33.7932L210.717 31.9027ZM194.445 50.7727C191.266 53.4927 188.616 49.8995 188.616 49.8995L193.502 45.0095C193.502 45.0095 197.628 48.057 194.445 50.7727ZM202.203 42.4772C199.147 44.9964 197.4 41.4163 197.4 41.4163L201.614 37.1987C201.614 37.1987 205.727 39.5913 202.203 42.4903V42.4772Z" fill="#E0D9FF" fill-opacity="0.61"/>
<path opacity="0.4" d="M210.717 31.9027L206.98 35.6444L206.015 34.6795L209.656 31.0513L207.765 29.1652L203.88 33.0509L202.395 31.5708L182.661 51.3053L183.661 52.3052L179.648 56.0643L181.831 58.2473L185.761 54.3179L186.372 54.9291L182.556 58.7451L184.647 60.8364L189.136 56.3787C189.136 56.3787 190.768 58.0814 196.396 53.2657C200.684 49.5982 199.802 46.0486 199.802 46.0486C199.802 46.0486 201.95 46.3062 205.133 43.787C207.083 42.1688 208.427 39.937 208.944 37.4563L212.612 33.7932L210.717 31.9027ZM194.445 50.7727C191.266 53.4927 188.616 49.8995 188.616 49.8995L193.502 45.0095C193.502 45.0095 197.628 48.057 194.445 50.7727ZM202.203 42.4772C199.147 44.9964 197.4 41.4163 197.4 41.4163L201.614 37.1987C201.614 37.1987 205.727 39.5913 202.203 42.4903V42.4772Z" fill="black"/>
<path d="M208.7 30.8635L204.958 34.6008L203.997 33.6403L207.626 30.0121L205.726 28.1216L201.841 32.0118L200.361 30.5317L180.626 50.2618L181.626 51.2616L177.609 55.0252L179.792 57.2082L183.722 53.2787L184.333 53.89L180.517 57.7015L182.613 59.7929L187.092 55.3133C187.092 55.3133 188.721 57.0161 194.349 52.2047C198.636 48.5372 197.754 44.9876 197.754 44.9876C197.754 44.9876 199.902 45.2452 203.085 42.726C205.035 41.1067 206.379 38.8756 206.901 36.3953L210.564 32.7278L208.7 30.8635ZM192.427 49.7335C189.245 52.4492 186.594 48.8603 186.594 48.8603L191.497 43.9573C191.497 43.9573 195.606 47.0178 192.427 49.7335ZM200.182 41.4381C197.125 43.9573 195.379 40.3771 195.379 40.3771L199.614 36.1726C199.614 36.1726 203.687 38.5521 200.182 41.4512V41.4381Z" fill="#E0D9FF" fill-opacity="0.61"/>
<path d="M219.837 17.176C219.837 17.2458 218.68 17.0101 216.589 16.914C213.637 16.8013 210.685 17.122 207.826 17.8658C205.854 18.3722 203.925 19.0365 202.059 19.8524C199.92 20.7963 197.856 21.9026 195.885 23.1618C191.698 25.7814 187.516 29.3179 183.32 33.2037C174.872 40.9141 169.091 49.8252 166.576 56.8502C165.336 60.3692 165.083 63.4516 165.428 65.5036L165.537 66.2284L165.694 66.8571C165.742 67.0536 165.79 67.2326 165.83 67.3985C165.869 67.5644 165.939 67.6998 165.982 67.8351C166.096 68.0943 166.181 68.3651 166.236 68.6428C166.083 68.4035 165.955 68.1489 165.856 67.8831C165.799 67.7565 165.729 67.6168 165.668 67.4465C165.607 67.2762 165.563 67.1016 165.502 66.9095C165.441 66.7174 165.371 66.5035 165.31 66.2764C165.249 66.0494 165.214 65.8005 165.166 65.5386C164.729 63.456 164.917 60.2993 166.122 56.6886C168.554 49.5196 174.335 40.4819 182.857 32.6972C187.066 28.794 191.297 25.275 195.554 22.6204C197.557 21.3556 199.658 20.2519 201.836 19.3197C203.738 18.512 205.703 17.865 207.713 17.3856C210.62 16.6719 213.621 16.4185 216.607 16.6346C217.135 16.6652 217.598 16.7306 218.004 16.7874C218.344 16.8269 218.682 16.8837 219.017 16.9577C219.297 17.0025 219.572 17.0756 219.837 17.176Z" fill="#FAFAFA"/>
<path opacity="0.4" d="M173.758 65.3116C173.758 65.3116 165.86 55.7063 185.691 35.3824C205.521 15.0585 216.436 23.9696 216.436 23.9696C216.436 23.9696 207.39 16.6302 186.594 37.3165C168.488 55.3308 173.758 65.3116 173.758 65.3116Z" fill="black"/>
<path d="M206.163 28.1216C205.855 28.5482 205.496 28.9353 205.093 29.2743C204.373 29.9772 203.316 30.977 202.007 32.1995L201.819 32.3742L201.644 32.169L200.487 30.7587H200.924C198.915 32.802 196.453 35.2819 193.777 37.9365C190.284 41.3944 187.105 44.4855 184.778 46.721C183.612 47.8343 182.661 48.725 181.997 49.3406C181.674 49.6778 181.309 49.9713 180.91 50.2138C181.163 49.818 181.465 49.4557 181.809 49.1354C182.421 48.4717 183.316 47.5287 184.429 46.376C186.669 44.0664 189.799 40.9054 193.288 37.4475C195.964 34.7929 198.457 32.348 200.518 30.3571L200.745 30.1387L200.933 30.3789L202.042 31.8721L201.679 31.8459C203.033 30.6714 204.137 29.7283 204.914 29.0865C205.292 28.7177 205.711 28.3939 206.163 28.1216Z" fill="#FAFAFA"/>
<path d="M200.706 41.2372C200.771 41.2984 200.706 41.5167 200.444 41.7743C200.11 42.1037 199.698 42.3439 199.247 42.4728C198.798 42.6078 198.323 42.6288 197.863 42.5339C197.514 42.451 197.331 42.3113 197.348 42.224C197.396 42.0362 198.178 42.0886 199.055 41.8179C199.933 41.5472 200.566 41.1019 200.706 41.2372Z" fill="#FAFAFA"/>
<path d="M191.454 50.4408C191.506 50.515 191.428 50.6809 191.214 50.8774C190.925 51.0942 190.586 51.2341 190.229 51.2837C189.871 51.3334 189.507 51.2912 189.17 51.1612C188.917 51.052 188.795 50.9123 188.825 50.825C188.895 50.646 189.472 50.7071 190.135 50.6067C190.799 50.5063 191.318 50.288 191.454 50.4408Z" fill="#FAFAFA"/>
<path d="M208.477 48.6901C208.617 48.8036 207.119 50.8076 204.827 52.8553C202.535 54.9029 200.387 56.1778 200.286 56.0294C200.186 55.8809 202.125 54.3659 204.373 52.3488C206.622 50.3317 208.346 48.5634 208.477 48.6901Z" fill="#FAFAFA"/>
<path d="M183.848 76.4056C183.807 76.3726 183.77 76.3344 183.739 76.2921L183.46 75.969C183.228 75.6809 182.91 75.2792 182.586 74.8295C182.142 74.3054 181.755 73.7361 181.429 73.1311C181.934 73.5967 182.382 74.1199 182.765 74.6898C183.425 75.5761 183.94 76.3576 183.848 76.4056Z" fill="#263238"/>
<path d="M177.413 76.4056C177.378 76.3795 177.347 76.3486 177.321 76.3139L177.09 76.0476C176.902 75.8206 176.653 75.4975 176.369 75.1395C176.006 74.722 175.698 74.2598 175.452 73.7642C175.876 74.1204 176.245 74.5367 176.548 74.9997C177.098 75.7201 177.509 76.3576 177.413 76.4056Z" fill="#263238"/>
<path d="M189.136 75.0347C188.599 74.5023 188.118 73.9172 187.699 73.2883C187.221 72.7061 186.802 72.0771 186.45 71.4109C186.983 71.9454 187.463 72.5303 187.882 73.1573C188.361 73.7401 188.781 74.369 189.136 75.0347Z" fill="#263238"/>
<path d="M194.012 72.8823C193.443 72.3107 192.932 71.6848 192.484 71.0136C191.973 70.3891 191.522 69.7181 191.135 69.0096C191.703 69.5824 192.215 70.2081 192.663 70.8782C193.173 71.5041 193.624 72.1749 194.012 72.8823Z" fill="#263238"/>
<path d="M199.055 69.6907C198.487 69.1175 197.974 68.4918 197.523 67.822C197.011 67.197 196.561 66.5245 196.178 65.8137C196.743 66.39 197.255 67.017 197.706 67.6867C198.217 68.3117 198.668 68.9826 199.055 69.6907Z" fill="#263238"/>
<path d="M203.583 66.307C203.013 65.7349 202.5 65.1091 202.05 64.4383C201.54 63.8144 201.089 63.1434 200.706 62.4343C201.272 63.0085 201.783 63.6341 202.234 64.303C202.744 64.928 203.196 65.5989 203.583 66.307Z" fill="#263238"/>
<path d="M208.11 62.9233C207.541 62.3513 207.027 61.7255 206.578 61.0547C206.067 60.4308 205.617 59.7598 205.233 59.0507C205.799 59.6248 206.311 60.2504 206.761 60.9193C207.271 61.5452 207.722 62.2159 208.11 62.9233Z" fill="#263238"/>
<path d="M212.057 58.7581C211.489 58.1859 210.977 57.5601 210.529 56.8894C210.017 56.2664 209.567 55.5952 209.184 54.8854C209.751 55.4596 210.262 56.0852 210.712 56.7541C211.22 57.3802 211.67 58.0509 212.057 58.7581Z" fill="#263238"/>
<path d="M215.921 54.4881C215.356 53.9128 214.845 53.2873 214.393 52.6195C213.881 51.9953 213.43 51.3227 213.048 50.6111C213.614 51.1874 214.125 51.8144 214.576 52.4841C215.088 53.1072 215.539 53.7783 215.921 54.4881Z" fill="#263238"/>
<path d="M219.698 50.1003C219.132 49.5261 218.62 48.9005 218.17 48.2316C217.659 47.6077 217.209 46.9367 216.825 46.2276C217.391 46.8018 217.903 47.4274 218.353 48.0963C218.864 48.7202 219.314 49.3912 219.698 50.1003Z" fill="#263238"/>
<path d="M222.99 45.4374C222.416 44.8659 221.898 44.2401 221.444 43.5687C220.946 42.9433 220.507 42.2724 220.135 41.5647C220.701 42.1389 221.212 42.7645 221.663 43.4334C222.164 44.0601 222.609 44.7308 222.99 45.4374Z" fill="#263238"/>
<path d="M225.867 40.0496C225.298 39.4754 224.785 38.8482 224.334 38.1766C223.823 37.5535 223.372 36.8824 222.99 36.1726C223.555 36.748 224.066 37.3734 224.518 38.0413C225.029 38.6674 225.481 39.3398 225.867 40.0496Z" fill="#263238"/>
<path d="M227.509 34.2385C226.995 33.7338 226.534 33.1778 226.133 32.5794C225.671 32.0247 225.27 31.4216 224.937 30.7806C225.449 31.2871 225.909 31.8444 226.308 32.444C226.771 32.9975 227.174 33.5991 227.509 34.2385Z" fill="#263238"/>
<path d="M228.242 28.4797C227.727 27.9763 227.266 27.4202 226.867 26.8206C226.41 26.2637 226.011 25.6626 225.675 25.0261C226.193 25.5271 226.654 26.0835 227.05 26.6852C227.509 27.2404 227.908 27.8418 228.242 28.4797Z" fill="#263238"/>
<path d="M106.504 49.7054C115.47 40.7403 115.47 26.2049 106.504 17.2398C97.5394 8.2747 83.004 8.2747 74.0389 17.2398C65.0738 26.2049 65.0738 40.7403 74.0389 49.7054C83.004 58.6705 97.5394 58.6705 106.504 49.7054Z" fill="#E0D9FF" fill-opacity="0.61"/>
<path opacity="0.2" d="M106.504 49.7054C115.47 40.7403 115.47 26.2049 106.504 17.2398C97.5394 8.2747 83.004 8.2747 74.0389 17.2398C65.0738 26.2049 65.0738 40.7403 74.0389 49.7054C83.004 58.6705 97.5394 58.6705 106.504 49.7054Z" fill="white"/>
<path d="M95.209 11.0548C95.5264 11.401 95.7859 11.7961 95.9774 12.2249C96.2365 12.6126 96.4297 13.0404 96.5494 13.4911C96.2335 13.1502 95.9741 12.7611 95.7809 12.3384C95.5201 11.9454 95.3268 11.5115 95.209 11.0548Z" fill="#263238"/>
<path d="M98.9727 12.3035C99.2789 12.6286 99.5296 13.0018 99.7149 13.4081C99.963 13.779 100.146 14.1895 100.256 14.6219C99.95 14.2968 99.6993 13.9236 99.514 13.5173C99.2651 13.1468 99.082 12.7362 98.9727 12.3035Z" fill="#263238"/>
<path d="M102.413 14.0019C102.722 14.3243 102.973 14.6981 103.155 15.1065C103.406 15.4766 103.59 15.8873 103.701 16.3203C103.391 15.9978 103.14 15.6241 102.959 15.2156C102.71 14.8447 102.525 14.4344 102.413 14.0019Z" fill="#263238"/>
<path d="M91.2229 10.5222C91.5388 10.863 91.7982 11.2521 91.9913 11.6748C92.2504 12.0625 92.4436 12.4903 92.5633 12.9409C92.2474 12.6001 91.988 12.211 91.7949 11.7883C91.5351 11.401 91.3418 10.9731 91.2229 10.5222Z" fill="#263238"/>
<path d="M87.5161 10.6837C87.8325 11.0233 88.0906 11.4127 88.2802 11.8363C88.5372 12.2252 88.7303 12.6526 88.8521 13.1025C88.5326 12.7636 88.2715 12.3741 88.0793 11.9499C87.8254 11.5605 87.6352 11.1331 87.5161 10.6837Z" fill="#263238"/>
<path d="M83.8748 11.4914C84.1889 11.8238 84.4483 12.204 84.6432 12.6178C84.8997 12.9953 85.0915 13.4129 85.2108 13.8534C84.896 13.5231 84.6365 13.1442 84.4423 12.7313C84.1862 12.3521 83.9944 11.9331 83.8748 11.4914Z" fill="#263238"/>
<path d="M80.5261 12.6179C80.844 12.9571 81.1037 13.3466 81.2945 13.7705C81.5516 14.1593 81.7446 14.5868 81.8665 15.0366C81.5476 14.6957 81.2865 14.3049 81.0937 13.8796C80.8387 13.4919 80.6471 13.0659 80.5261 12.6179Z" fill="#263238"/>
<path d="M77.3257 14.4472C77.6446 14.7857 77.9043 15.1753 78.0941 15.5998C78.3532 15.9875 78.5464 16.4153 78.6661 16.866C78.3518 16.5255 78.0925 16.1381 77.8976 15.7177C77.6391 15.3282 77.4459 14.899 77.3257 14.4472Z" fill="#263238"/>
<path d="M74.5356 16.6957C74.8507 17.0389 75.11 17.4293 75.3041 17.8527C75.5626 18.2391 75.7558 18.6654 75.876 19.1145C75.5602 18.7737 75.3008 18.3845 75.1076 17.9619C74.8485 17.5742 74.6553 17.1464 74.5356 16.6957Z" fill="#263238"/>
<path d="M72.3267 19.0621C72.6417 19.4053 72.901 19.7957 73.0951 20.2191C73.3536 20.6055 73.5469 21.0318 73.667 21.4809C73.3512 21.14 73.0918 20.7509 72.8986 20.3283C72.6396 19.9406 72.4463 19.5128 72.3267 19.0621Z" fill="#263238"/>
<path d="M70.4492 22.079C70.7767 22.4343 71.0477 22.8378 71.2526 23.2753C71.519 23.6775 71.7195 24.1197 71.8463 24.5851C71.5219 24.2293 71.254 23.8259 71.0517 23.3889C70.7822 22.9872 70.5788 22.545 70.4492 22.079Z" fill="#263238"/>
<path d="M68.8599 25.323C69.1849 25.6767 69.453 26.0789 69.6545 26.5149C69.9166 26.9195 70.1167 27.361 70.2483 27.8247C69.9216 27.4723 69.6534 27.0699 69.4536 26.6328C69.1864 26.2311 68.9859 25.7888 68.8599 25.323Z" fill="#263238"/>
<path d="M67.7903 28.8159C68.1138 29.1639 68.3965 29.5476 68.6329 29.9598C68.9403 30.333 69.177 30.7591 69.3315 31.2172C68.9928 30.8795 68.6993 30.4994 68.4583 30.0864C68.1501 29.7137 67.9226 29.281 67.7903 28.8159Z" fill="#263238"/>
<path d="M67.3232 32.6929C67.6786 33.1024 67.9727 33.5612 68.1964 34.0551C68.4878 34.5047 68.7156 34.9925 68.8732 35.5046C68.5187 35.1025 68.2245 34.651 68 34.1642C67.7075 33.7074 67.4798 33.2122 67.3232 32.6929Z" fill="#263238"/>
<path d="M67.7598 37.9191C68.1364 38.3501 68.4549 38.8286 68.7072 39.3424C69.0266 39.8186 69.2807 40.3355 69.4625 40.8792C69.0854 40.4476 68.7655 39.9693 68.5107 39.4559C68.1936 38.979 67.9411 38.4623 67.7598 37.9191Z" fill="#263238"/>
<path d="M98.0549 57.9383C110.262 54.5139 117.382 41.8418 113.958 29.6344C110.533 17.427 97.8613 10.3071 85.6539 13.7315C73.4466 17.156 66.3266 29.828 69.751 42.0354C73.1755 54.2428 85.8476 61.3627 98.0549 57.9383Z" fill="#E0D9FF" fill-opacity="0.61"/>
<path opacity="0.2" d="M93.1769 52.6108C102.801 51.7874 109.953 43.5105 109.149 34.1238C108.346 24.7372 99.8932 17.7953 90.2687 18.6188C80.6442 19.4422 73.4931 27.7191 74.2961 37.1057C75.0992 46.4923 83.5524 53.4342 93.1769 52.6108Z" fill="white"/>
<path d="M93.1745 52.5321C88.6405 52.9266 84.1317 51.5357 80.608 48.6554C77.0843 45.7751 74.8242 41.6331 74.3088 37.1113C74.3088 37.2772 74.3088 37.4431 74.3394 37.609C74.7348 42.2292 76.9494 46.5031 80.496 49.4905C82.2521 50.9697 84.2824 52.0885 86.4709 52.783C88.6593 53.4776 90.9632 53.7343 93.2509 53.5385C95.5386 53.3427 97.7653 52.6982 99.8039 51.6419C101.843 50.5855 103.653 49.138 105.132 47.3819C106.612 45.6258 107.73 43.5955 108.425 41.4071C109.119 39.2186 109.376 36.9147 109.18 34.627C109.18 34.4611 109.145 34.2952 109.128 34.1337C109.388 38.6739 107.866 43.1363 104.887 46.5721C101.908 50.008 97.7057 52.1462 93.1745 52.5321Z" fill="#FAFAFA"/>
<path opacity="0.3" d="M90.2798 18.6866C94.8143 18.2948 99.3227 19.6886 102.845 22.5714C106.367 25.4542 108.624 29.5981 109.137 34.1206C109.137 33.9547 109.137 33.7888 109.106 33.6229C108.711 29.0027 106.496 24.7288 102.949 21.7414C99.4029 18.7541 94.8148 17.2979 90.1946 17.6934C85.5744 18.0888 81.3006 20.3034 78.3132 23.85C75.3258 27.3966 73.8697 31.9847 74.2652 36.6049C74.2652 36.7708 74.3001 36.9367 74.3175 37.0982C74.0544 32.5544 75.5755 28.0875 78.557 24.6485C81.5384 21.2096 85.7446 19.0705 90.2798 18.6866Z" fill="black"/>
<path d="M99.7759 38.6133C99.5664 36.1683 98.2609 34.6838 96.4883 34.1817C97.6584 33.3085 98.3613 31.8022 98.1954 29.8681C97.9902 27.458 96.5014 25.8688 93.9167 25.502L93.6635 22.5331L90.9216 22.7689L91.1574 25.5282L89.6031 25.6592L89.3629 22.8999L86.6211 23.14L86.8612 25.8994L84.3595 26.1133L82.613 26.2617L82.8488 29.0036L84.5952 28.8552L85.7391 42.189L83.8137 42.3549L84.0495 45.0968L85.9705 44.9309L88.4723 44.717L88.7473 47.9304L91.4892 47.6946L91.2141 44.4856L92.7684 44.3502L93.0435 47.5593L95.7854 47.3279L95.5016 44.0097C98.5578 43.3198 100.012 41.3988 99.7759 38.6133ZM88.0706 28.5714L91.773 28.2483C93.8294 28.0736 95.0737 28.8333 95.2221 30.5797C95.3706 32.3262 94.2747 33.2605 92.214 33.4351L88.0051 33.7975L87.5685 28.6107L88.0706 28.5714ZM93.5194 41.5341L89.0311 41.914L88.7124 41.9402L88.2496 36.5088L93.0522 36.0984C95.2964 35.9063 96.58 36.6354 96.7415 38.5172C96.9031 40.399 95.7635 41.342 93.5194 41.5341Z" fill="#E0D9FF" fill-opacity="0.61"/>
<path opacity="0.3" d="M99.7759 38.6133C99.5664 36.1683 98.2609 34.6838 96.4883 34.1817C97.6584 33.3085 98.3613 31.8022 98.1954 29.8681C97.9902 27.458 96.5014 25.8688 93.9167 25.502L93.6635 22.5331L90.9216 22.7689L91.1574 25.5282L89.6031 25.6592L89.3629 22.8999L86.6211 23.14L86.8612 25.8994L84.3595 26.1133L82.613 26.2617L82.8488 29.0036L84.5952 28.8552L85.7391 42.189L83.8137 42.3549L84.0495 45.0968L85.9705 44.9309L88.4723 44.717L88.7473 47.9304L91.4892 47.6946L91.2141 44.4856L92.7684 44.3502L93.0435 47.5593L95.7854 47.3279L95.5016 44.0097C98.5578 43.3198 100.012 41.3988 99.7759 38.6133ZM88.0706 28.5714L91.773 28.2483C93.8294 28.0736 95.0737 28.8333 95.2221 30.5797C95.3706 32.3262 94.2747 33.2605 92.214 33.4351L88.0051 33.7975L87.5685 28.6107L88.0706 28.5714ZM93.5194 41.5341L89.0311 41.914L88.7124 41.9402L88.2496 36.5088L93.0522 36.0984C95.2964 35.9063 96.58 36.6354 96.7415 38.5172C96.9031 40.399 95.7635 41.342 93.5194 41.5341Z" fill="black"/>
<path d="M99.9025 39.9056C99.6929 37.4563 98.3875 35.9762 96.6149 35.4741C97.785 34.6009 98.4879 33.0946 98.322 31.1561C98.1168 28.7504 96.628 27.1612 94.0433 26.79L93.7901 23.8168L91.0482 24.0525L91.284 26.8119L89.7297 26.9472L89.4939 24.1879L86.7477 24.4237L86.9703 27.2005L84.4686 27.4144L82.7222 27.5628L82.9579 30.3047L84.7043 30.1563L85.8482 43.4901L83.9228 43.656L84.1586 46.3979L86.0797 46.232L88.577 46.0181L88.8521 49.2271L91.594 48.9913L91.3189 45.7823L92.8732 45.6513L93.1483 48.8604L95.8901 48.6246L95.6063 45.3108C98.6844 44.6122 100.138 42.6911 99.9025 39.9056ZM88.1972 29.8637L91.9127 29.545C93.9734 29.366 95.2134 30.1257 95.3618 31.8765C95.5103 33.6273 94.4144 34.5572 92.3536 34.7319L88.1448 35.0942L87.7082 29.903L88.1972 29.8637ZM93.646 42.8265L89.1533 43.2238L88.8346 43.25L88.3718 37.823L93.1745 37.3864C95.4186 37.1943 96.7022 37.9234 96.8638 39.8096C97.0253 41.6957 95.8901 42.63 93.646 42.8221V42.8265Z" fill="#E0D9FF" fill-opacity="0.61"/>
<path d="M85.704 43.3067C85.5163 43.3067 85.1146 40.412 84.8046 36.8013C84.4946 33.1906 84.3986 30.2523 84.5863 30.2523C84.7741 30.2523 85.1757 33.1513 85.4857 36.762C85.7957 40.3727 85.8918 43.2936 85.704 43.3067Z" fill="#FAFAFA"/>
<path d="M93.7464 34.6314C93.7464 34.8192 92.5894 35.068 91.1268 35.199C89.6641 35.33 88.4679 35.2732 88.4504 35.0855C88.4329 34.8977 89.6074 34.6489 91.07 34.5223C92.5326 34.3957 93.7289 34.4437 93.7464 34.6314Z" fill="#FAFAFA"/>
<path d="M94.5455 42.7872C94.5455 42.9749 93.3885 43.2238 91.9258 43.3547C90.4632 43.4857 89.2669 43.429 89.2495 43.2412C89.232 43.0535 90.4065 42.8046 91.8691 42.6736C93.3317 42.5427 94.528 42.5776 94.5455 42.7872Z" fill="#FAFAFA"/>
<path d="M171.322 173.207C186.165 158.365 186.165 134.3 171.322 119.458C156.48 104.616 132.416 104.616 117.573 119.458C102.731 134.3 102.731 158.365 117.573 173.207C132.416 188.049 156.48 188.049 171.322 173.207Z" fill="#E0D9FF" fill-opacity="0.61"/>
<path opacity="0.4" d="M171.322 173.207C186.165 158.365 186.165 134.3 171.322 119.458C156.48 104.616 132.416 104.616 117.573 119.458C102.731 134.3 102.731 158.365 117.573 173.207C132.416 188.049 156.48 188.049 171.322 173.207Z" fill="black"/>
<path d="M169.009 169.211C183.852 154.369 183.852 130.304 169.009 115.462C154.167 100.62 130.103 100.62 115.26 115.462C100.418 130.304 100.418 154.369 115.26 169.211C130.103 184.053 154.167 184.053 169.009 169.211Z" fill="#E0D9FF" fill-opacity="0.61"/>
<path opacity="0.2" d="M144.656 170.07C160.575 168.523 172.257 154.685 170.749 139.162C169.24 123.638 155.112 112.308 139.193 113.855C123.274 115.402 111.592 129.24 113.1 144.763C114.609 160.286 128.736 171.616 144.656 170.07Z" fill="white"/>
<path d="M144.65 169.948C137.152 170.676 129.666 168.452 123.782 163.748C117.898 159.044 114.08 152.23 113.14 144.756C113.14 145.031 113.171 145.306 113.197 145.581C113.94 153.224 117.688 160.258 123.618 165.137C129.547 170.015 137.171 172.339 144.814 171.596C152.456 170.853 159.491 167.105 164.369 161.176C169.248 155.246 171.572 147.622 170.829 139.979C170.798 139.704 170.759 139.434 170.728 139.159C171.244 146.676 168.809 154.097 163.939 159.847C159.069 165.596 152.149 169.22 144.65 169.948Z" fill="#FAFAFA"/>
<path opacity="0.3" d="M139.206 113.954C146.704 113.226 154.19 115.451 160.074 120.155C165.959 124.859 169.778 131.671 170.72 139.146C170.698 138.871 170.685 138.6 170.658 138.32C169.916 130.678 166.167 123.644 160.238 118.765C154.309 113.886 146.684 111.563 139.042 112.305C131.399 113.048 124.365 116.797 119.486 122.726C114.607 128.655 112.284 136.28 113.027 143.922C113.057 144.201 113.097 144.472 113.132 144.743C112.615 137.227 115.051 129.805 119.919 124.056C124.788 118.307 131.707 114.683 139.206 113.954Z" fill="black"/>
<path d="M157.744 148.698C157.351 144.651 155.168 142.219 152.221 141.425C154.142 139.936 155.277 137.447 154.963 134.247C154.578 130.269 152.085 127.663 147.802 127.126L147.322 122.214L142.79 122.651L143.227 127.218L140.672 127.488L140.236 122.921L135.7 123.358L136.136 127.925L132.006 128.327L129.129 128.606L129.565 133.142L132.442 132.858L134.56 154.898L131.377 155.208L131.814 159.745L134.997 159.435L139.127 159.033L139.642 164.342L144.178 163.905L143.663 158.596L146.235 158.347L146.785 163.652L151.321 163.216L150.789 157.732C155.823 156.514 158.193 153.309 157.744 148.698ZM138.179 132.291L144.322 131.697C147.728 131.365 149.797 132.601 150.077 135.491C150.356 138.382 148.562 139.945 145.156 140.294L138.171 140.971L137.337 132.391L138.179 132.291ZM147.449 153.654L140.026 154.374L139.502 154.427L138.629 145.446L146.58 144.673C150.291 144.311 152.43 145.494 152.731 148.602C153.033 151.711 151.151 153.287 147.449 153.65V153.654Z" fill="#E0D9FF" fill-opacity="0.61"/>
<path opacity="0.3" d="M157.744 148.698C157.351 144.651 155.168 142.219 152.221 141.425C154.142 139.936 155.277 137.447 154.963 134.247C154.578 130.269 152.085 127.663 147.802 127.126L147.322 122.214L142.79 122.651L143.227 127.218L140.672 127.488L140.236 122.921L135.7 123.358L136.136 127.925L132.006 128.327L129.129 128.606L129.565 133.142L132.442 132.858L134.56 154.898L131.377 155.208L131.814 159.745L134.997 159.435L139.127 159.033L139.642 164.342L144.178 163.905L143.663 158.596L146.235 158.347L146.785 163.652L151.321 163.216L150.789 157.732C155.823 156.514 158.193 153.309 157.744 148.698ZM138.179 132.291L144.322 131.697C147.728 131.365 149.797 132.601 150.077 135.491C150.356 138.382 148.562 139.945 145.156 140.294L138.171 140.971L137.337 132.391L138.179 132.291ZM147.449 153.654L140.026 154.374L139.502 154.427L138.629 145.446L146.58 144.673C150.291 144.311 152.43 145.494 152.731 148.602C153.033 151.711 151.151 153.287 147.449 153.65V153.654Z" fill="black"/>
<path d="M155.543 148.912C155.15 144.865 152.963 142.433 150.02 141.639C151.937 140.15 153.077 137.661 152.762 134.461C152.374 130.483 149.885 127.877 145.597 127.34L145.122 122.428L140.585 122.865L141.022 127.432L138.446 127.68L138.009 123.114L133.477 123.55L133.914 128.117L129.784 128.519L126.906 128.798L127.343 133.334L130.22 133.055L132.377 155.117L129.199 155.422L129.635 159.958L132.814 159.648L136.944 159.247L137.464 164.556L141.996 164.119L141.48 158.81L144.056 158.561L144.571 163.87L149.108 163.434L148.571 157.95C153.618 156.741 155.989 153.523 155.543 148.912ZM135.979 132.505L142.118 131.907C145.523 131.575 147.593 132.81 147.877 135.701C148.16 138.591 146.362 140.154 142.952 140.503L135.966 141.18L135.128 132.601L135.979 132.505ZM145.244 153.864L137.822 154.584L137.298 154.636L136.424 145.655L144.379 144.883C148.086 144.52 150.23 145.703 150.531 148.812C150.832 151.921 148.968 153.501 145.244 153.864Z" fill="#E0D9FF" fill-opacity="0.61"/>
<path d="M176.474 125.982C176.407 125.903 176.35 125.817 176.304 125.724L175.867 124.934C175.684 124.58 175.431 124.153 175.142 123.659C174.854 123.166 174.514 122.581 174.086 121.961C171.765 118.399 168.865 115.25 165.507 112.644C163.19 110.853 160.678 109.332 158.019 108.107C154.959 106.714 151.73 105.731 148.413 105.182C146.626 104.875 144.817 104.705 143.004 104.676C141.107 104.628 139.209 104.73 137.328 104.981C135.386 105.236 133.467 105.64 131.587 106.191C127.707 107.327 124.035 109.078 120.711 111.378C119.098 112.49 117.575 113.728 116.157 115.08C113.471 117.641 111.176 120.583 109.346 123.812C107.689 126.734 106.424 129.86 105.583 133.112C104.875 135.948 104.49 138.855 104.434 141.778C104.377 144.196 104.555 146.613 104.967 148.995C105.275 150.797 105.713 152.574 106.277 154.313C106.491 155.034 106.713 155.658 106.932 156.204C107.15 156.749 107.312 157.204 107.469 157.57L107.805 158.409C107.85 158.502 107.881 158.602 107.897 158.705C107.834 158.623 107.782 158.534 107.739 158.439L107.342 157.627C107.163 157.269 106.954 156.819 106.744 156.278C106.534 155.737 106.259 155.117 106.028 154.396C105.414 152.658 104.937 150.874 104.6 149.061C104.145 146.658 103.93 144.215 103.959 141.77C104.02 135.363 105.7 129.076 108.844 123.493C110.692 120.203 113.017 117.205 115.742 114.595C117.186 113.218 118.735 111.956 120.375 110.819C123.756 108.475 127.493 106.692 131.443 105.54C133.358 104.981 135.314 104.572 137.293 104.318C139.201 104.069 141.125 103.972 143.048 104.025C144.892 104.062 146.732 104.242 148.549 104.562C154.865 105.627 160.808 108.277 165.821 112.264C167.741 113.779 169.505 115.483 171.086 117.35C172.276 118.752 173.357 120.244 174.317 121.812C174.732 122.446 175.046 123.044 175.326 123.559C175.605 124.074 175.832 124.506 175.998 124.869L176.378 125.694C176.474 125.882 176.5 125.978 176.474 125.982Z" fill="#FAFAFA"/>
<path d="M138.009 123.122C138.009 123.24 136.263 123.515 133.504 123.847L133.757 123.537C133.914 124.847 134.084 126.41 134.259 128.095L134.289 128.431L133.953 128.466L132.731 128.588C130.587 128.798 128.592 128.968 126.937 129.091L127.195 128.785C127.4 131.527 127.47 133.334 127.352 133.347C127.234 133.361 126.959 131.571 126.631 128.837L126.596 128.562L126.885 128.532C128.531 128.331 130.522 128.117 132.665 127.907L133.888 127.794L133.582 128.161C133.425 126.475 133.294 124.908 133.194 123.594V123.306L133.464 123.284C136.202 123.074 138.001 123.004 138.009 123.122Z" fill="#FAFAFA"/>
<path d="M146.082 122.415C146.082 122.603 144.886 122.873 143.371 123.022C141.856 123.17 140.616 123.135 140.598 122.948C140.581 122.76 141.79 122.489 143.305 122.345C144.82 122.201 146.065 122.249 146.082 122.415Z" fill="#FAFAFA"/>
<path d="M132.106 154.82C131.919 154.82 131.294 150.017 130.718 144.04C130.142 138.063 129.819 133.216 130.006 133.199C130.194 133.182 130.814 138.002 131.395 143.974C131.975 149.947 132.294 154.802 132.106 154.82Z" fill="#FAFAFA"/>
<path d="M145.253 140.303C145.253 140.49 143.327 140.835 140.908 141.067C138.49 141.298 136.521 141.342 136.503 141.154C136.486 140.966 138.428 140.626 140.843 140.39C143.257 140.154 145.235 140.115 145.253 140.303Z" fill="#FAFAFA"/>
<path d="M146.728 153.754C146.75 153.942 144.803 154.283 142.388 154.518C139.974 154.754 138.001 154.789 137.979 154.606C137.957 154.422 139.904 154.073 142.323 153.837C144.742 153.602 146.711 153.567 146.728 153.754Z" fill="#FAFAFA"/>
<path d="M136.704 183.544C135.817 182.297 135.056 180.964 134.434 179.566C135.319 180.815 136.079 182.147 136.704 183.544Z" fill="#263238"/>
<path d="M130.447 181.549C129.989 180.974 129.591 180.353 129.26 179.697C128.864 179.078 128.533 178.42 128.273 177.733C129.132 178.925 129.864 180.204 130.456 181.549H130.447Z" fill="#263238"/>
<path d="M124.715 178.802C124.259 178.227 123.862 177.607 123.532 176.951C123.134 176.332 122.802 175.674 122.541 174.986C122.999 175.561 123.397 176.181 123.728 176.838C124.124 177.456 124.455 178.115 124.715 178.802Z" fill="#263238"/>
<path d="M143.292 184.352C142.819 183.749 142.407 183.101 142.061 182.417C141.648 181.773 141.301 181.088 141.026 180.374C141.5 180.975 141.912 181.621 142.257 182.304C142.671 182.949 143.018 183.636 143.292 184.352Z" fill="#263238"/>
<path d="M149.44 184.011C148.554 182.763 147.794 181.431 147.169 180.034C148.056 181.28 148.817 182.613 149.44 184.011Z" fill="#263238"/>
<path d="M155.465 182.697C154.99 182.096 154.576 181.449 154.229 180.767C153.82 180.119 153.473 179.433 153.194 178.719C153.669 179.321 154.083 179.969 154.43 180.654C154.84 181.3 155.186 181.984 155.465 182.697Z" fill="#263238"/>
<path d="M160.974 180.68C160.499 180.078 160.085 179.43 159.739 178.746C159.33 178.099 158.984 177.415 158.704 176.702C159.18 177.302 159.594 177.949 159.94 178.632C160.349 179.28 160.696 179.966 160.974 180.68Z" fill="#263238"/>
<path d="M166.24 177.593C165.766 176.99 165.352 176.342 165.004 175.659C164.595 175.011 164.249 174.325 163.97 173.611C164.445 174.213 164.859 174.861 165.205 175.545C165.616 176.193 165.962 176.878 166.24 177.593Z" fill="#263238"/>
<path d="M170.798 173.812C170.324 173.209 169.91 172.561 169.563 171.878C169.153 171.23 168.807 170.544 168.528 169.83C169.003 170.432 169.417 171.08 169.763 171.764C170.174 172.412 170.52 173.097 170.798 173.812Z" fill="#263238"/>
<path d="M174.426 169.839C173.955 169.235 173.542 168.587 173.195 167.905C172.782 167.259 172.435 166.573 172.16 165.857C172.633 166.46 173.046 167.108 173.392 167.791C173.806 168.436 174.153 169.122 174.426 169.839Z" fill="#263238"/>
<path d="M177.718 165.246C176.834 163.995 176.074 162.662 175.448 161.264C175.922 161.867 176.336 162.515 176.684 163.198C177.095 163.845 177.442 164.531 177.718 165.246Z" fill="#263238"/>
<path d="M180.403 160.033C179.928 159.431 179.514 158.783 179.168 158.099C178.757 157.451 178.411 156.765 178.133 156.051C178.607 156.654 179.021 157.302 179.369 157.985C179.778 158.633 180.125 159.319 180.403 160.033Z" fill="#263238"/>
<path d="M182.106 154.182C181.631 153.58 181.217 152.932 180.871 152.248C180.46 151.598 180.113 150.909 179.836 150.192C180.31 150.795 180.724 151.442 181.072 152.126C181.481 152.777 181.828 153.465 182.106 154.182Z" fill="#263238"/>
<path d="M182.897 147.974C182.34 147.228 181.845 146.438 181.416 145.612C180.922 144.823 180.494 143.995 180.137 143.136C181.185 144.672 182.107 146.29 182.897 147.974Z" fill="#263238"/>
<path d="M182.041 139.229C181.486 138.482 180.993 137.692 180.565 136.867C180.072 136.078 179.643 135.252 179.281 134.395C179.84 135.14 180.335 135.93 180.762 136.757C181.253 137.546 181.681 138.372 182.041 139.229Z" fill="#263238"/>
<g opacity="0.2">
<path opacity="0.2" d="M117.602 129.92L148.457 126.894L153.028 131.667L153.055 131.697H153.098L162.45 130.728L164.961 130.457L165.607 130.379H165.729C165.736 130.418 165.748 130.456 165.764 130.492C165.828 130.633 165.935 130.75 166.069 130.827C166.202 130.904 166.357 130.938 166.511 130.923C166.665 130.908 166.81 130.845 166.927 130.744C167.043 130.642 167.125 130.507 167.161 130.357C167.189 130.237 167.186 130.111 167.151 129.993C167.117 129.874 167.053 129.767 166.965 129.68C166.848 129.567 166.691 129.503 166.528 129.501C166.419 129.501 166.367 129.532 166.367 129.545C166.367 129.558 166.616 129.545 166.803 129.807C166.858 129.874 166.895 129.954 166.911 130.039C166.928 130.124 166.924 130.212 166.899 130.296C166.871 130.393 166.813 130.48 166.735 130.545C166.656 130.61 166.56 130.65 166.459 130.66C166.357 130.67 166.255 130.649 166.166 130.6C166.076 130.552 166.003 130.478 165.956 130.387C165.916 130.31 165.896 130.225 165.896 130.138C165.896 130.052 165.916 129.966 165.956 129.89C166.109 129.61 166.362 129.588 166.349 129.545C166.336 129.501 166.292 129.514 166.183 129.545C166.027 129.58 165.889 129.674 165.799 129.807C165.743 129.89 165.705 129.983 165.688 130.082C165.671 130.18 165.674 130.282 165.699 130.379H165.576L164.93 130.431L162.415 130.658L153.098 131.531L148.544 126.729L148.51 126.689H148.462L117.576 129.671L105.919 130.811C105.888 130.898 105.862 130.985 105.832 131.073L117.602 129.92Z" fill="white"/>
<path opacity="0.2" d="M166.026 122.659L170.899 127.632L170.934 127.667H170.986L176.937 127.052C176.937 127.008 176.898 126.964 176.88 126.916L171.021 127.445L166.166 122.446L166.122 122.402H166.061L162.18 122.777L147.815 124.214L143.449 124.677L142.271 124.816C142.132 124.827 141.995 124.849 141.86 124.882C141.998 124.893 142.137 124.893 142.275 124.882L143.462 124.79L147.828 124.41L162.201 123.052L166.026 122.659Z" fill="white"/>
<path opacity="0.2" d="M134.874 139.857L137.896 141.115H137.918L143.004 140.648L144.353 140.512H144.445C144.458 140.609 144.508 140.697 144.584 140.758C144.661 140.819 144.758 140.848 144.855 140.84C144.956 140.83 145.049 140.78 145.113 140.702C145.177 140.624 145.208 140.523 145.198 140.423C145.188 140.322 145.139 140.229 145.06 140.165C144.982 140.101 144.882 140.07 144.781 140.08C144.685 140.091 144.597 140.137 144.534 140.21C144.471 140.283 144.438 140.377 144.44 140.473H144.349L142.995 140.565L137.926 140.958L134.909 139.674H134.888H134.861L113.193 141.743L105.6 142.486L104.116 141.765C104.116 141.857 104.116 141.949 104.116 142.04L105.526 142.73H105.557H105.596L113.219 141.992L134.874 139.857Z" fill="white"/>
<path opacity="0.2" d="M137.651 137.923L134.8 137.05H134.774H134.748L132.923 137.238C132.822 136.068 132.726 134.95 132.635 133.893V133.78H132.521L124.16 134.705L121.824 134.98L121.567 135.015C121.551 134.923 121.501 134.84 121.426 134.782C121.352 134.725 121.259 134.697 121.165 134.705C121.065 134.715 120.973 134.765 120.909 134.842C120.845 134.92 120.815 135.02 120.825 135.12C120.831 135.22 120.877 135.313 120.951 135.379C121.026 135.444 121.124 135.478 121.224 135.472C121.324 135.465 121.417 135.42 121.483 135.345C121.548 135.27 121.582 135.172 121.575 135.072L121.833 135.05L124.178 134.836L132.421 134.037C132.502 135.1 132.591 136.217 132.687 137.39V137.513H132.814L134.739 137.321L137.59 138.194H137.616H137.643L141.192 137.849L157.189 136.255L160.154 137.884H160.176H160.197L163.201 137.556L163.996 137.46H164.035C164.099 137.603 164.206 137.721 164.34 137.799C164.475 137.877 164.631 137.911 164.786 137.896C164.941 137.88 165.088 137.816 165.204 137.713C165.321 137.61 165.402 137.473 165.437 137.321C165.465 137.201 165.461 137.076 165.427 136.959C165.392 136.841 165.328 136.734 165.24 136.648C165.124 136.533 164.967 136.467 164.804 136.465C164.694 136.465 164.642 136.495 164.642 136.513C164.642 136.53 164.891 136.513 165.079 136.775C165.134 136.842 165.172 136.922 165.189 137.007C165.207 137.092 165.203 137.18 165.179 137.264C165.151 137.363 165.094 137.451 165.015 137.517C164.936 137.583 164.839 137.624 164.737 137.633C164.634 137.643 164.531 137.622 164.441 137.573C164.351 137.523 164.278 137.447 164.232 137.356C164.193 137.278 164.172 137.193 164.172 137.107C164.172 137.02 164.193 136.935 164.232 136.858C164.384 136.578 164.638 136.552 164.625 136.513C164.612 136.474 164.563 136.478 164.459 136.513C164.302 136.546 164.165 136.639 164.075 136.77C164.01 136.865 163.969 136.974 163.955 137.088C163.942 137.202 163.956 137.318 163.996 137.425H163.965L163.166 137.482L160.18 137.74L157.263 136.068H157.237H157.207L141.175 137.591L137.651 137.923Z" fill="white"/>
<path opacity="0.2" d="M120.89 166.591C120.774 166.475 120.617 166.409 120.454 166.407C120.344 166.407 120.292 166.438 120.292 166.455C120.292 166.473 120.541 166.455 120.729 166.717C120.783 166.785 120.82 166.865 120.837 166.95C120.854 167.035 120.849 167.123 120.825 167.206C120.796 167.304 120.739 167.391 120.66 167.456C120.582 167.52 120.485 167.56 120.384 167.57C120.283 167.58 120.181 167.559 120.091 167.511C120.002 167.462 119.929 167.388 119.882 167.298C119.842 167.221 119.821 167.136 119.821 167.049C119.821 166.962 119.842 166.877 119.882 166.8C120.034 166.521 120.288 166.494 120.275 166.455C120.261 166.416 120.213 166.42 120.109 166.455C119.952 166.489 119.815 166.581 119.724 166.713C119.655 166.815 119.613 166.933 119.603 167.056C119.592 167.179 119.613 167.303 119.663 167.416C119.727 167.557 119.833 167.676 119.966 167.754C120.1 167.832 120.255 167.867 120.41 167.852C120.564 167.836 120.709 167.772 120.826 167.67C120.942 167.567 121.024 167.431 121.06 167.28C121.06 167.28 121.06 167.28 121.06 167.254H121.174L121.737 167.215L123.868 167.045L131.334 166.368H131.399L131.43 166.307L133.578 161.753V161.722V161.683C133.512 160.993 133.443 160.286 133.373 159.57C133.067 156.492 132.779 153.597 132.534 151.122V151.065L132.486 151.039L128.915 148.694H128.884L125.392 149.074L124.453 149.187H124.326C124.312 149.022 124.239 148.867 124.121 148.751C124.005 148.636 123.848 148.57 123.684 148.568C123.575 148.568 123.523 148.598 123.523 148.616C123.523 148.633 123.772 148.616 123.96 148.877C124.013 148.945 124.049 149.024 124.066 149.108C124.083 149.192 124.079 149.28 124.056 149.362C124.029 149.462 123.973 149.551 123.895 149.618C123.817 149.685 123.72 149.726 123.617 149.736C123.515 149.747 123.412 149.726 123.321 149.676C123.231 149.626 123.158 149.55 123.113 149.458C123.073 149.381 123.052 149.296 123.052 149.209C123.052 149.123 123.073 149.037 123.113 148.96C123.265 148.681 123.519 148.655 123.505 148.616C123.492 148.576 123.444 148.581 123.34 148.616C123.182 148.647 123.044 148.74 122.955 148.873C122.884 148.974 122.841 149.091 122.829 149.214C122.818 149.336 122.839 149.46 122.89 149.572C122.953 149.714 123.06 149.833 123.194 149.911C123.329 149.99 123.484 150.024 123.639 150.009C123.794 149.994 123.941 149.93 124.058 149.828C124.175 149.725 124.256 149.588 124.291 149.436C124.302 149.368 124.302 149.299 124.291 149.231H124.414L125.361 149.161L128.828 148.864C129.827 149.537 131.011 150.331 132.32 151.2C132.556 153.667 132.827 156.544 133.119 159.6C133.189 160.303 133.255 160.998 133.325 161.679L131.238 166.145L123.846 166.914L121.724 167.154L121.165 167.228H121.056C121.082 167.116 121.081 167 121.052 166.889C121.023 166.778 120.967 166.675 120.89 166.591Z" fill="white"/>
<path opacity="0.2" d="M160.756 155.645C160.851 155.635 160.939 155.589 161.001 155.517C161.064 155.445 161.096 155.352 161.093 155.256L162.197 155.173L166.284 154.82H166.31H166.332L170.611 151.288L179.26 150.458C179.26 150.366 179.299 150.279 179.321 150.187L170.549 151.06H170.515L170.484 151.087L166.236 154.667L162.189 155.103L161.084 155.239C161.071 155.14 161.02 155.05 160.941 154.989C160.862 154.928 160.762 154.901 160.663 154.914C160.564 154.926 160.474 154.978 160.413 155.057C160.352 155.136 160.325 155.236 160.337 155.335C160.353 155.431 160.406 155.517 160.484 155.574C160.562 155.632 160.66 155.657 160.756 155.645Z" fill="white"/>
<path opacity="0.2" d="M141.026 180.182C141.026 180.051 141.026 179.881 140.996 179.68C140.952 179.09 140.886 178.313 140.817 177.37C140.651 175.427 140.402 172.738 140.114 169.773C140.022 168.848 139.935 167.944 139.847 167.088V167.036L139.808 167.005L135.442 163.456C135.359 162.748 135.289 162.146 135.237 161.709C135.198 161.412 135.167 161.216 135.15 161.129C135.197 161.14 135.246 161.14 135.294 161.129C135.368 161.121 135.439 161.092 135.497 161.044C135.556 160.997 135.598 160.933 135.62 160.861C135.642 160.789 135.642 160.712 135.62 160.64C135.599 160.568 135.556 160.505 135.498 160.457C135.44 160.409 135.369 160.38 135.294 160.372C135.219 160.365 135.144 160.38 135.078 160.416C135.011 160.451 134.957 160.505 134.922 160.572C134.886 160.638 134.871 160.713 134.879 160.788C134.885 160.858 134.912 160.925 134.955 160.981C134.999 161.036 135.057 161.079 135.123 161.102C135.123 161.185 135.123 161.386 135.15 161.701C135.184 162.137 135.228 162.753 135.285 163.482V163.512L135.311 163.539L139.625 167.141C139.703 167.983 139.786 168.865 139.874 169.76C140.162 172.725 140.437 175.41 140.651 177.353C140.76 178.287 140.847 179.06 140.917 179.649L140.983 180.151C140.894 180.166 140.813 180.213 140.755 180.282H141.354C141.311 180.241 141.259 180.211 141.202 180.194C141.145 180.176 141.085 180.172 141.026 180.182Z" fill="white"/>
<path opacity="0.2" d="M123.374 124.14C123.379 124.191 123.393 124.242 123.418 124.288C123.443 124.334 123.477 124.374 123.518 124.406C123.559 124.438 123.606 124.461 123.657 124.474C123.707 124.487 123.76 124.489 123.811 124.48C123.884 124.469 123.953 124.436 124.007 124.386C124.062 124.337 124.102 124.272 124.12 124.2C124.139 124.129 124.136 124.053 124.112 123.983C124.089 123.913 124.045 123.851 123.986 123.805C123.928 123.76 123.857 123.732 123.783 123.726C123.71 123.72 123.636 123.736 123.571 123.771C123.505 123.807 123.452 123.861 123.417 123.926C123.383 123.992 123.368 124.066 123.374 124.14Z" fill="white"/>
<path opacity="0.2" d="M153.539 158.64L154.295 158.561H154.426C154.424 158.586 154.424 158.611 154.426 158.636C154.43 158.685 154.444 158.734 154.468 158.778C154.491 158.822 154.523 158.861 154.562 158.893C154.6 158.925 154.645 158.948 154.693 158.963C154.741 158.977 154.791 158.982 154.841 158.976C154.94 158.965 155.032 158.916 155.095 158.838C155.159 158.761 155.19 158.661 155.181 158.561C155.176 158.468 155.137 158.38 155.071 158.314C155.005 158.248 154.917 158.21 154.824 158.205C154.73 158.201 154.639 158.231 154.567 158.291C154.495 158.35 154.448 158.434 154.434 158.526H154.295L153.535 158.561L150.702 158.74L141.205 159.417C141.074 158.358 140.941 157.266 140.804 156.143C140.764 155.833 140.725 155.523 140.69 155.234L144.096 151.493L144.135 151.453V151.397C144.008 150.179 143.891 149.026 143.786 147.987V147.943L143.751 147.913L142.616 146.987L142.581 146.961H142.541L138.228 147.424L137.049 147.568H136.905C136.891 147.401 136.816 147.246 136.695 147.131C136.579 147.015 136.423 146.95 136.259 146.948C136.15 146.948 136.097 146.978 136.097 146.996C136.097 147.013 136.346 146.996 136.534 147.258C136.615 147.359 136.657 147.486 136.652 147.616H136.612H136.647C136.654 147.652 136.654 147.689 136.647 147.725C136.62 147.824 136.564 147.913 136.485 147.979C136.407 148.046 136.31 148.087 136.207 148.097C136.105 148.107 136.002 148.085 135.912 148.035C135.822 147.985 135.75 147.909 135.704 147.817C135.664 147.74 135.644 147.654 135.644 147.568C135.644 147.481 135.664 147.396 135.704 147.319C135.857 147.044 136.11 147.018 136.097 146.978C136.084 146.939 136.04 146.943 135.931 146.978C135.774 147.01 135.636 147.103 135.547 147.236C135.478 147.337 135.436 147.455 135.425 147.577C135.414 147.699 135.435 147.823 135.486 147.934C135.548 148.077 135.654 148.197 135.788 148.276C135.923 148.355 136.079 148.39 136.234 148.374C136.389 148.359 136.535 148.296 136.652 148.192C136.769 148.089 136.849 147.951 136.883 147.799C136.889 147.74 136.889 147.68 136.883 147.62H137.027L138.21 147.533L142.493 147.157L143.554 148.03C143.646 149.043 143.751 150.161 143.86 151.344L140.437 155.082L140.398 155.125V155.186C140.433 155.492 140.476 155.819 140.516 156.151L140.952 159.548V159.675H141.074L150.68 158.898L153.539 158.64Z" fill="white"/>
<path opacity="0.2" d="M147.864 157.435C147.658 154.955 147.427 152.344 147.222 149.694C147.191 149.327 147.161 148.965 147.134 148.598V148.546L147.091 148.511L143.436 145.363L143.393 145.328H143.336L120.746 147.537H120.715H120.694L106.976 156.745L107.041 156.911L120.798 147.742L143.305 145.559L146.881 148.616C146.907 148.96 146.938 149.305 146.964 149.655C147.191 152.353 147.401 155.007 147.619 157.513V157.644H147.75L177.941 155.025L178.011 154.828L147.864 157.435Z" fill="white"/>
<path opacity="0.2" d="M147.322 143.407C147.405 144.153 147.527 145.21 147.676 146.533V146.563L147.706 146.585L154.133 151.567L154.168 151.593H154.207L162.738 150.777L177.496 149.318L179.548 149.1L179.574 148.947L177.478 149.131L162.721 150.528L154.242 151.362L147.824 146.498C147.649 145.188 147.51 144.153 147.387 143.411C147.339 143.071 147.296 142.796 147.265 142.586C147.257 142.491 147.238 142.397 147.208 142.307C147.2 142.401 147.2 142.496 147.208 142.59C147.261 142.769 147.287 143.058 147.322 143.407Z" fill="white"/>
<path opacity="0.2" d="M154.574 133.57H154.539L154.508 133.592L152.295 135.151L145.331 135.875L143.336 136.102L142.856 136.168C142.836 136.016 142.765 135.876 142.655 135.771C142.539 135.655 142.382 135.589 142.218 135.587C142.109 135.587 142.052 135.618 142.057 135.635C142.061 135.653 142.305 135.635 142.493 135.897C142.564 135.985 142.604 136.094 142.607 136.207C142.615 136.265 142.615 136.324 142.607 136.382C142.576 136.478 142.519 136.564 142.442 136.629C142.364 136.694 142.27 136.735 142.17 136.749C142.069 136.758 141.967 136.736 141.877 136.687C141.788 136.638 141.715 136.564 141.668 136.474C141.628 136.397 141.607 136.311 141.607 136.225C141.607 136.138 141.628 136.053 141.668 135.976C141.816 135.696 142.074 135.67 142.061 135.631C142.048 135.592 142 135.596 141.891 135.631C141.735 135.665 141.597 135.757 141.506 135.889C141.437 135.991 141.395 136.109 141.385 136.232C141.374 136.355 141.395 136.479 141.445 136.591C141.51 136.732 141.617 136.849 141.751 136.926C141.885 137.003 142.04 137.036 142.194 137.02C142.348 137.005 142.493 136.942 142.609 136.84C142.726 136.738 142.807 136.602 142.842 136.452C142.858 136.374 142.858 136.294 142.842 136.216L143.323 136.19L145.322 136.028L152.308 135.395H152.343H152.369L154.587 133.85L158.289 133.561L169.737 132.618L173.204 132.3L174.103 132.208C174.111 132.304 174.155 132.393 174.226 132.457C174.298 132.52 174.392 132.554 174.487 132.55C174.583 132.547 174.674 132.506 174.741 132.437C174.807 132.368 174.844 132.276 174.844 132.18C174.844 132.084 174.807 131.991 174.741 131.922C174.674 131.853 174.583 131.812 174.487 131.809C174.392 131.805 174.298 131.839 174.226 131.903C174.155 131.966 174.111 132.056 174.103 132.151L173.204 132.199L169.711 132.431L158.263 133.304L154.574 133.57Z" fill="white"/>
<path opacity="0.2" d="M135.656 171.629C135.556 170.572 135.451 169.551 135.355 168.573V168.529L135.302 168.494L132.932 167.018L132.897 166.992H132.857L127.413 167.573L125.872 167.756L125.693 167.778C125.677 167.685 125.626 167.601 125.551 167.543C125.475 167.486 125.381 167.459 125.287 167.468C125.19 167.482 125.102 167.533 125.042 167.61C124.981 167.687 124.953 167.784 124.962 167.881C124.972 167.979 125.019 168.069 125.093 168.132C125.167 168.196 125.263 168.229 125.361 168.223C125.455 168.214 125.542 168.168 125.604 168.097C125.667 168.026 125.7 167.934 125.697 167.839H125.876L127.426 167.721L132.84 167.241L135.11 168.682C135.206 169.642 135.302 170.647 135.398 171.677L136.228 179.881L136.429 179.911C136.215 177.619 135.948 174.751 135.656 171.629Z" fill="white"/>
<path opacity="0.2" d="M139.323 177.986L139.358 177.942V177.89C138.961 173.825 138.581 170 138.254 166.652V166.604L138.214 166.573L134.883 163.853C134.586 160.984 134.342 158.64 134.171 156.985C134.084 156.186 134.01 155.553 133.962 155.099C133.936 154.903 133.918 154.745 133.901 154.619H133.979C134.054 154.612 134.125 154.582 134.183 154.535C134.241 154.487 134.284 154.423 134.306 154.351C134.328 154.279 134.328 154.203 134.306 154.131C134.284 154.059 134.242 153.995 134.184 153.947C134.126 153.899 134.055 153.87 133.98 153.863C133.905 153.855 133.83 153.87 133.763 153.906C133.697 153.941 133.643 153.996 133.608 154.062C133.572 154.128 133.557 154.203 133.565 154.278C133.573 154.359 133.607 154.434 133.662 154.493C133.718 154.552 133.791 154.592 133.87 154.606C133.87 154.732 133.87 154.894 133.901 155.095C133.94 155.531 133.992 156.186 134.058 156.99C134.211 158.653 134.425 161.015 134.687 163.905V163.945L134.717 163.975L138.027 166.713C138.345 170.04 138.708 173.825 139.092 177.85L138.725 178.287L137.298 180.034L137.608 180.068C138.044 179.553 138.481 179.012 138.917 178.462L139.323 177.986Z" fill="white"/>
<path opacity="0.2" d="M174.164 161.194L155.19 163.002L151.029 163.408H150.937L150.915 163.495L149.605 168.411V168.455C150.042 172.694 150.413 176.427 150.71 179.37L150.872 179.331C150.597 176.401 150.252 172.681 149.854 168.459C150.291 166.931 150.728 165.32 151.164 163.657L155.233 163.264L174.204 161.382L175.107 161.286L175.212 161.102L174.164 161.194Z" fill="white"/>
<path opacity="0.2" d="M150.278 145.939V146L150.33 146.035L151.675 146.991L155.443 149.659L155.482 149.685H155.517L165.197 148.698L168.013 148.388L168.655 148.306C168.667 148.405 168.719 148.494 168.798 148.555C168.877 148.616 168.977 148.644 169.076 148.631C169.175 148.618 169.265 148.567 169.326 148.488C169.387 148.409 169.414 148.308 169.401 148.209C169.397 148.16 169.383 148.112 169.36 148.068C169.337 148.024 169.305 147.985 169.267 147.954C169.229 147.922 169.185 147.898 169.137 147.884C169.09 147.869 169.04 147.864 168.991 147.869C168.895 147.879 168.807 147.924 168.744 147.996C168.681 148.068 168.647 148.162 168.65 148.258L168.004 148.301L165.179 148.537L155.539 149.41L151.815 146.76L150.505 145.843C150.212 142.918 149.942 140.202 149.706 137.862V137.753H149.597L143.484 138.395L141.777 138.591L141.546 138.622C141.515 138.573 141.479 138.529 141.437 138.491C141.379 138.434 141.311 138.388 141.236 138.358C141.161 138.327 141.081 138.311 141 138.312C140.891 138.312 140.834 138.342 140.839 138.355C140.843 138.368 141.087 138.355 141.275 138.617C141.284 138.628 141.291 138.64 141.297 138.652L141.149 138.683C141.149 138.683 141.201 138.683 141.306 138.683C141.345 138.748 141.37 138.82 141.38 138.895C141.39 138.97 141.384 139.047 141.362 139.119C141.335 139.218 141.277 139.307 141.198 139.373C141.119 139.438 141.022 139.479 140.92 139.489C140.818 139.499 140.715 139.478 140.625 139.428C140.535 139.379 140.461 139.303 140.415 139.211C140.375 139.134 140.354 139.049 140.354 138.962C140.354 138.876 140.375 138.79 140.415 138.713C140.568 138.434 140.821 138.412 140.808 138.368C140.795 138.325 140.747 138.334 140.638 138.368C140.483 138.405 140.346 138.496 140.254 138.626C140.184 138.728 140.142 138.847 140.132 138.97C140.121 139.093 140.142 139.216 140.192 139.329C140.257 139.47 140.363 139.587 140.497 139.664C140.631 139.741 140.785 139.775 140.939 139.76C141.093 139.745 141.238 139.682 141.355 139.581C141.472 139.479 141.554 139.344 141.59 139.194C141.63 139.027 141.606 138.851 141.524 138.7H141.738L143.449 138.565L149.47 138.024C149.741 140.342 149.994 143.04 150.278 145.939Z" fill="white"/>
<path opacity="0.2" d="M179.364 140.7L175.767 137.735L175.723 137.7H175.671L175.352 137.735L159.805 139.277L157.325 137.875H157.294H157.264L154.054 138.198H154.015L153.993 138.229L150.771 142.193V142.215C150.885 143.258 150.976 144.066 151.038 144.634C151.068 144.891 151.094 145.096 151.112 145.254C151.117 145.323 151.129 145.392 151.147 145.459C151.154 145.389 151.154 145.319 151.147 145.249C151.147 145.092 151.121 144.887 151.103 144.625C151.055 144.066 150.985 143.263 150.898 142.228L154.124 138.355L157.268 138.063L159.739 139.482H159.77H159.809L175.396 137.989L175.658 137.962L179.26 140.923L179.299 140.953H179.356L180.128 140.875C180.128 140.792 180.128 140.704 180.128 140.621L179.364 140.7Z" fill="white"/>
<path opacity="0.2" d="M129.871 108.736L129.915 108.767L133.718 111.893C134.089 115.6 134.425 118.922 134.691 121.585V121.638L134.739 121.664L138.271 123.41H138.306L140.489 123.17L141.048 123.096C141.113 123.091 141.178 123.079 141.24 123.061C141.177 123.052 141.112 123.052 141.048 123.061L140.481 123.1L138.324 123.279L134.883 121.533C134.63 118.865 134.32 115.538 133.971 111.832V111.771L133.927 111.736L130.12 108.596C130.041 107.837 129.967 107.086 129.893 106.344L129.648 106.431C129.718 107.169 129.788 107.915 129.862 108.675L129.871 108.736Z" fill="white"/>
<path opacity="0.2" d="M136.162 111.557L136.132 111.596V111.644C136.407 114.264 136.638 116.499 136.809 118.123C136.896 118.892 136.97 119.512 137.023 119.974C137.041 120.196 137.076 120.417 137.127 120.634C137.136 120.412 137.127 120.19 137.101 119.97C137.066 119.503 137.018 118.878 136.957 118.11C136.813 116.495 136.612 114.272 136.376 111.67L139.917 107.387L141.812 105.073L141.847 105.034V104.981L141.781 104.335H141.546L141.602 104.951L139.734 107.221L136.162 111.557Z" fill="white"/>
<path opacity="0.2" d="M140.515 111.399C140.559 111.331 140.581 111.25 140.576 111.168C140.566 111.068 140.517 110.976 140.439 110.912C140.362 110.848 140.262 110.818 140.162 110.827C140.112 110.832 140.064 110.846 140.02 110.869C139.976 110.892 139.938 110.924 139.906 110.962C139.874 111 139.85 111.044 139.836 111.091C139.821 111.139 139.816 111.189 139.821 111.238C139.824 111.309 139.848 111.378 139.89 111.436C139.932 111.494 139.99 111.539 140.057 111.564C140.123 111.59 140.196 111.595 140.266 111.58C140.336 111.565 140.4 111.529 140.45 111.478L140.838 111.827C141.253 112.198 141.847 112.701 142.541 113.29C142.594 113.844 142.65 114.438 142.707 115.036C142.838 116.412 142.973 117.656 143.087 118.56C143.12 119.049 143.199 119.534 143.323 120.009C143.349 119.52 143.331 119.029 143.27 118.542C143.209 117.634 143.1 116.385 142.969 115.01C142.904 114.373 142.838 113.761 142.781 113.198V113.146L142.742 113.115C142.013 112.526 141.389 112.033 140.939 111.692L140.515 111.399Z" fill="white"/>
<path opacity="0.2" d="M144.991 121.21V121.254L145.017 121.284L146.995 123.341L147.034 123.384H147.095L158.652 122.249L164.612 121.668H164.668L164.703 121.625L169.222 115.7L169.052 115.521L164.529 121.446L158.626 122.018L147.139 123.122L145.226 121.144C144.545 114.342 143.965 108.544 143.554 104.431V104.357H143.406V104.449C143.799 108.57 144.344 114.39 144.991 121.21Z" fill="white"/>
<path opacity="0.2" d="M149.841 125.305L147.099 125.532L138.053 126.388C138.018 125.995 137.979 125.585 137.935 125.17V125.074V125.004L137.874 124.973L134.342 122.974L134.307 122.952H134.268L127.011 123.707L124.911 123.947L124.352 124.022C124.287 124.027 124.222 124.04 124.16 124.061C124.225 124.072 124.292 124.072 124.357 124.061L124.92 124.026L127.024 123.86L134.254 123.201L137.686 125.157V125.187C137.734 125.646 137.778 126.104 137.821 126.536V126.667H137.948L147.117 125.733L149.85 125.428L150.588 125.331C150.674 125.325 150.759 125.308 150.841 125.279C150.756 125.268 150.669 125.268 150.583 125.279L149.841 125.305Z" fill="white"/>
<path opacity="0.2" d="M116.659 114.124L119.074 116.534L119.118 116.573H119.174L125.723 115.905C125.876 117.311 126.003 118.468 126.094 119.306C126.134 119.621 126.169 119.887 126.195 120.105C126.195 120.105 126.164 120.105 126.164 120.132C126.164 120.158 126.164 120.132 126.204 120.153V120.258C126.21 120.371 126.229 120.482 126.26 120.59C126.273 120.478 126.273 120.365 126.26 120.254V120.171C126.398 120.206 126.52 120.284 126.61 120.393C126.664 120.461 126.702 120.541 126.719 120.626C126.736 120.711 126.733 120.799 126.71 120.882C126.682 120.981 126.625 121.07 126.546 121.136C126.467 121.202 126.37 121.242 126.268 121.252C126.165 121.262 126.062 121.241 125.972 121.191C125.882 121.142 125.809 121.066 125.763 120.974C125.722 120.897 125.701 120.812 125.701 120.725C125.701 120.639 125.722 120.553 125.763 120.476C125.915 120.197 126.169 120.171 126.156 120.132C126.142 120.092 126.094 120.097 125.985 120.132C125.908 120.147 125.835 120.178 125.77 120.222C125.704 120.267 125.649 120.323 125.605 120.389C125.534 120.49 125.491 120.609 125.479 120.732C125.468 120.855 125.489 120.979 125.54 121.092C125.604 121.233 125.711 121.35 125.845 121.426C125.98 121.503 126.134 121.536 126.288 121.521C126.442 121.506 126.588 121.443 126.704 121.341C126.82 121.239 126.902 121.103 126.937 120.952C126.966 120.833 126.963 120.708 126.929 120.59C126.894 120.472 126.829 120.365 126.741 120.28C126.625 120.164 126.468 120.098 126.304 120.097C126.282 120.093 126.26 120.093 126.239 120.097C126.239 119.874 126.204 119.612 126.182 119.298C126.108 118.424 126.007 117.246 125.88 115.805V115.7H125.78L119.231 116.311L116.873 113.949L116.659 114.124Z" fill="white"/>
</g>
<path d="M50.7323 89.8967C50.7323 89.8967 56.6395 85.1377 76.2561 95.4852C76.2561 95.4852 95.9906 104.078 89.3935 112.286C83.7832 119.271 72.3005 115.298 65.9697 112.329C62.3253 110.551 58.901 108.353 55.7663 105.78C50.7323 101.576 46.5234 95.232 50.7323 89.8967Z" fill="#E0D9FF" fill-opacity="0.61"/>
<path opacity="0.4" d="M50.7323 89.8967C50.7323 89.8967 56.6395 85.1377 76.2561 95.4852C76.2561 95.4852 95.9906 104.078 89.3935 112.286C83.7832 119.271 72.3005 115.298 65.9697 112.329C62.3253 110.551 58.901 108.353 55.7663 105.78C50.7323 101.576 46.5234 95.232 50.7323 89.8967Z" fill="black"/>
<path d="M51.1687 89.5474C51.1687 89.5474 58.1107 82.3304 77.7229 92.6866C77.7229 92.6866 96.9815 103.658 89.6553 111.22C84.63 116.403 73.7673 112.5 67.4366 109.531C64.114 107.972 59.4773 105.361 56.6612 102.982C51.6053 98.7816 47.8898 93.4332 51.1687 89.5474Z" fill="#E0D9FF" fill-opacity="0.61"/>
<path opacity="0.2" d="M86.164 108.529C87.9297 105.185 82.416 98.8073 73.8488 94.2827C65.2816 89.7581 56.9052 88.8004 55.1395 92.1437C53.3738 95.487 58.8875 101.865 67.4546 106.39C76.0218 110.914 84.3983 111.872 86.164 108.529Z" fill="white"/>
<path d="M81.3644 104.457L78.7142 102.934C78.0376 101.6 76.9296 100.536 75.5706 99.9124C73.3876 98.9693 72.1869 99.4452 72.1869 99.4452C72.1869 99.4452 72.1433 97.2884 69.1307 95.8607C65.2013 93.9877 64.5202 95.2058 64.5202 95.2058L61.2806 93.3459L60.4074 94.8565L63.1667 96.4414L62.9135 96.878L60.0756 95.2495L59.1587 96.8387L62.0228 98.3625L61.5862 99.0872L75.8544 107.287L76.47 106.217L79.2774 107.832L80.0633 106.466L77.4437 104.96L77.8453 104.261L80.4649 105.767L81.3644 104.457ZM68.7727 101.004L65.2275 98.965C65.2275 98.965 66.188 96.52 68.4147 97.5809C70.6414 98.6419 68.7727 101.004 68.7727 101.004ZM74.5883 104.195L71.532 102.449C71.532 102.449 71.9686 100.144 74.0949 101.113C76.5442 102.213 74.5883 104.195 74.5883 104.195Z" fill="#E0D9FF" fill-opacity="0.61"/>
<path opacity="0.4" d="M81.3644 104.457L78.7142 102.934C78.0376 101.6 76.9296 100.536 75.5706 99.9124C73.3876 98.9693 72.1869 99.4452 72.1869 99.4452C72.1869 99.4452 72.1433 97.2884 69.1307 95.8607C65.2013 93.9877 64.5202 95.2058 64.5202 95.2058L61.2806 93.3459L60.4074 94.8565L63.1667 96.4414L62.9135 96.878L60.0756 95.2495L59.1587 96.8387L62.0228 98.3625L61.5862 99.0872L75.8544 107.287L76.47 106.217L79.2774 107.832L80.0633 106.466L77.4437 104.96L77.8453 104.261L80.4649 105.767L81.3644 104.457ZM68.7727 101.004L65.2275 98.965C65.2275 98.965 66.188 96.52 68.4147 97.5809C70.6414 98.6419 68.7727 101.004 68.7727 101.004ZM74.5883 104.195L71.532 102.449C71.532 102.449 71.9686 100.144 74.0949 101.113C76.5442 102.213 74.5883 104.195 74.5883 104.195Z" fill="black"/>
<path d="M82.0149 103.3L79.3647 101.777C78.6885 100.444 77.5802 99.3806 76.2211 98.7597C74.0381 97.8167 72.8418 98.2926 72.8418 98.2926C72.8418 98.2926 72.7982 96.1357 69.7856 94.708C65.8562 92.8307 65.1794 94.0531 65.1794 94.0531L61.9398 92.1888L61.0666 93.7039L63.8303 95.2887L63.5771 95.7253L60.7392 94.0924L59.8267 95.686L62.6908 97.2098L62.2542 97.9302L76.518 106.134L77.1336 105.06L79.9454 106.675L80.7312 105.313L78.1116 103.803L78.5089 103.108L81.2159 104.663L82.0149 103.3ZM69.4276 99.8469L65.8824 97.7992C65.8824 97.7992 66.8385 95.3542 69.0696 96.4108C71.3006 97.4674 69.4276 99.8469 69.4276 99.8469ZM75.2431 103.038L72.1869 101.292C72.1869 101.292 72.6235 98.9868 74.7454 99.9517C77.1991 101.061 75.2431 103.038 75.2431 103.038Z" fill="#E0D9FF" fill-opacity="0.61"/>
<path d="M52.042 88.9012C52.042 88.9012 52.173 88.7834 52.4786 88.6175C52.6227 88.5345 52.7973 88.4341 53.0156 88.3337C53.2339 88.2332 53.4828 88.1066 53.7753 87.9931C55.4182 87.3269 57.1579 86.9303 58.9272 86.8187C60.1489 86.7331 61.3756 86.7492 62.5947 86.8667C63.9906 87.0116 65.3731 87.2656 66.7293 87.6264C69.7956 88.4975 72.7721 89.6583 75.6186 91.093C81.7922 94.0051 86.6297 98.1136 89.2406 101.764C90.5504 103.597 91.1922 105.374 91.2927 106.636C91.2927 106.793 91.3232 106.937 91.3363 107.073V107.461C91.3411 107.666 91.325 107.871 91.2883 108.073C91.2823 108.241 91.2453 108.407 91.1791 108.562C91.1093 108.562 91.2359 107.867 91.0351 106.662C90.6837 104.97 89.9355 103.385 88.852 102.039C86.2062 98.5458 81.4298 94.564 75.3173 91.6999C72.4942 90.2736 69.5483 89.1046 66.5154 88.207C65.2045 87.8507 63.8693 87.5909 62.5205 87.4299C61.3337 87.2936 60.1382 87.2498 58.9447 87.2989C57.212 87.3702 55.4981 87.6862 53.8539 88.2376C52.6751 88.6306 52.0638 88.958 52.042 88.9012Z" fill="#FAFAFA"/>
<path opacity="0.4" d="M86.372 108.003C86.372 108.003 89.1532 101.205 74.4397 93.2149C59.7261 85.225 55.1331 92.1233 55.1331 92.1233C55.1331 92.1233 58.949 86.4169 74.265 94.4504C87.6033 101.462 86.372 108.003 86.372 108.003Z" fill="black"/>
<path d="M82.6042 116.006C82.5168 116.006 82.6522 115.451 82.8792 114.827C82.9841 114.431 83.1634 114.059 83.4075 113.731C83.3713 114.138 83.265 114.535 83.0932 114.905C82.9766 115.291 82.8123 115.661 82.6042 116.006Z" fill="#263238"/>
<path d="M86.2411 114.888C86.1538 114.888 86.2411 114.429 86.4376 113.932C86.6341 113.434 86.8262 113.037 86.8742 113.059C86.8666 113.389 86.7861 113.714 86.6384 114.01C86.5521 114.322 86.418 114.618 86.2411 114.888Z" fill="#263238"/>
<path d="M79.3997 116.137C79.4375 115.684 79.5511 115.241 79.7358 114.827C79.8493 114.393 80.0353 113.981 80.286 113.609C80.2475 114.061 80.1339 114.504 79.9498 114.918C79.8373 115.353 79.6512 115.765 79.3997 116.137Z" fill="#263238"/>
<path d="M76.2778 115.792C76.3255 115.315 76.4494 114.849 76.6446 114.412C76.7658 113.947 76.9619 113.504 77.2253 113.102C77.0547 114.041 76.7349 114.946 76.2778 115.783V115.792Z" fill="#263238"/>
<path d="M72.8811 114.87C72.9288 114.394 73.0526 113.928 73.2478 113.491C73.3712 113.026 73.5672 112.584 73.8285 112.181C73.7788 112.657 73.6551 113.123 73.4618 113.561C73.3395 114.025 73.1435 114.468 72.8811 114.87Z" fill="#263238"/>
<path d="M69.7419 113.753C69.7897 113.276 69.9135 112.81 70.1087 112.373C70.2321 111.909 70.428 111.467 70.6894 111.063C70.6396 111.539 70.5159 112.005 70.3226 112.443C70.2004 112.908 70.0043 113.35 69.7419 113.753Z" fill="#263238"/>
<path d="M66.6028 112.644C66.6505 112.167 66.7743 111.701 66.9695 111.264C67.0929 110.8 67.2889 110.358 67.5502 109.954C67.3792 110.895 67.0594 111.803 66.6028 112.644Z" fill="#263238"/>
<path d="M63.6555 110.976C63.7029 110.5 63.8252 110.034 64.0179 109.596C64.1424 109.132 64.3383 108.69 64.5986 108.286C64.5512 108.763 64.4289 109.228 64.2362 109.666C64.1117 110.13 63.9158 110.572 63.6555 110.976Z" fill="#263238"/>
<path d="M60.7305 109.243C60.9019 108.303 61.2217 107.397 61.6779 106.557C61.6302 107.034 61.5064 107.5 61.3112 107.937C61.1873 108.4 60.9914 108.841 60.7305 109.243Z" fill="#263238"/>
<path d="M57.8313 107.431C57.8815 106.955 58.0052 106.489 58.198 106.051C58.3214 105.587 58.5174 105.145 58.7787 104.741C58.729 105.217 58.6053 105.683 58.412 106.121C58.2897 106.586 58.0937 107.028 57.8313 107.431Z" fill="#263238"/>
<path d="M55.1768 105.374C55.3482 104.435 55.668 103.528 56.1242 102.689C56.074 103.165 55.9502 103.631 55.7574 104.069C55.6348 104.532 55.4387 104.973 55.1768 105.374Z" fill="#263238"/>
<path d="M52.6182 102.838C52.7896 101.898 53.1094 100.992 53.5656 100.153C53.5154 100.629 53.3917 101.094 53.1988 101.532C53.0762 101.996 52.8801 102.436 52.6182 102.838Z" fill="#263238"/>
<path d="M50.6797 99.8469C50.7138 99.4216 50.8201 99.0052 50.994 98.6156C51.1022 98.2003 51.2825 97.8072 51.5267 97.4543C51.4914 97.8752 51.3851 98.287 51.2123 98.6724C51.1068 99.0927 50.9264 99.4906 50.6797 99.8469Z" fill="#263238"/>
<path d="M49.2651 96.7295C49.2992 96.3042 49.4055 95.8879 49.5795 95.4983C49.687 95.0841 49.8674 94.6923 50.1121 94.3413C50.0786 94.7667 49.9723 95.1831 49.7978 95.5725C49.6915 95.9872 49.511 96.3791 49.2651 96.7295Z" fill="#263238"/>
<path d="M68.4366 96.389C68.3536 96.5637 68.0261 96.5855 67.6769 96.6204C67.3276 96.6553 66.9958 96.6772 66.8866 96.52C66.8386 96.4414 66.8866 96.3148 67.0045 96.1925C67.1781 96.0467 67.3927 95.9583 67.6187 95.9395C67.8447 95.9207 68.071 95.9725 68.2663 96.0878C68.4147 96.1838 68.4715 96.3061 68.4366 96.389Z" fill="#FAFAFA"/>
<path d="M74.6756 99.9822C74.562 100.135 74.204 100.074 73.8023 100.048C73.4007 100.022 73.0514 100.017 72.9684 99.8425C72.9291 99.7596 72.9684 99.6329 73.1518 99.5282C73.3663 99.4054 73.613 99.3506 73.8593 99.3708C74.1056 99.3911 74.3399 99.4855 74.5315 99.6417C74.6843 99.7814 74.7454 99.9124 74.6756 99.9822Z" fill="#FAFAFA"/>
<path d="M70.1611 94.8958C70.1611 94.9351 70.0039 94.8958 69.7856 94.8391L68.9124 94.5072C68.4861 94.3441 68.0483 94.2128 67.6026 94.1143C67.0818 93.9882 66.5403 93.9733 66.0134 94.0706C65.9043 94.0921 65.7975 94.1243 65.6947 94.1667C65.612 94.2009 65.533 94.2433 65.4589 94.2933L65.2493 94.4548L65.0572 94.3457C63.2322 93.2586 61.9049 92.3373 62.001 92.1889C62.097 92.0404 63.5509 92.7259 65.4065 93.7607L65.0092 93.8087C65.1386 93.6969 65.2863 93.6083 65.4458 93.5467C65.5852 93.4818 65.7317 93.4334 65.8824 93.4026C66.5114 93.2831 67.1601 93.3176 67.7729 93.5031C68.2241 93.6437 68.6588 93.8326 69.0696 94.0663C69.3629 94.2197 69.6407 94.401 69.8992 94.6077C70.0956 94.743 70.1873 94.8565 70.1611 94.8958Z" fill="#FAFAFA"/>
<path d="M202.535 187.905C201.828 188.918 200.448 188.582 199.811 187.967C199.173 187.351 198.898 186.452 198.654 185.596C198.09 183.64 197.523 181.592 197.942 179.601C198.044 178.999 198.308 178.436 198.706 177.973C198.909 177.746 199.169 177.576 199.458 177.48C199.748 177.384 200.057 177.366 200.356 177.427C201.05 177.61 201.483 178.3 201.797 178.938C202.713 180.846 203.195 182.933 203.207 185.05C203.274 186.042 203.04 187.031 202.535 187.888" fill="#E0D9FF" fill-opacity="0.61"/>
<path opacity="0.2" d="M202.535 187.905C201.828 188.918 200.448 188.582 199.811 187.967C199.173 187.351 198.898 186.452 198.654 185.596C198.09 183.64 197.523 181.592 197.942 179.601C198.044 178.999 198.308 178.436 198.706 177.973C198.909 177.746 199.169 177.576 199.458 177.48C199.748 177.384 200.057 177.366 200.356 177.427C201.05 177.61 201.483 178.3 201.797 178.938C202.713 180.846 203.195 182.933 203.207 185.05C203.274 186.042 203.04 187.031 202.535 187.888" fill="black"/>
<path d="M199.876 193.04C198.689 192.479 197.352 192.315 196.064 192.573C195.36 192.637 194.696 192.933 194.178 193.415C193.707 193.935 193.619 194.852 194.178 195.297C194.527 195.534 194.947 195.64 195.366 195.598C196.374 195.598 197.492 195.411 198.3 196.035C198.758 196.38 199.064 196.956 199.61 197.127C199.885 197.188 200.172 197.159 200.429 197.044C200.686 196.929 200.9 196.735 201.037 196.489C201.303 195.985 201.361 195.398 201.199 194.852C201.135 194.468 200.982 194.104 200.752 193.789C200.523 193.474 200.223 193.218 199.876 193.04Z" fill="#E0D9FF" fill-opacity="0.61"/>
<path d="M204.487 189.359C204.122 188.883 203.879 188.326 203.778 187.735C203.678 187.143 203.723 186.537 203.91 185.967C204.3 184.828 204.997 183.819 205.923 183.05C206.971 182.114 208.194 181.393 209.521 180.929C210.034 180.721 210.587 180.627 211.14 180.653C211.416 180.67 211.684 180.753 211.921 180.896C212.157 181.039 212.356 181.238 212.498 181.474C212.878 182.195 212.498 183.072 212.118 183.788C211.427 185.048 210.638 186.251 209.756 187.386C209.049 188.303 208.237 189.202 207.137 189.613C206.037 190.023 204.954 189.979 204.364 189.228" fill="#E0D9FF" fill-opacity="0.61"/>
<path d="M202.583 203.191C202.545 203.041 202.525 202.887 202.522 202.733C202.487 202.396 202.448 201.977 202.399 201.475C202.336 200.857 202.241 200.242 202.116 199.633C201.951 198.888 201.726 198.158 201.443 197.45C201.171 196.743 200.797 196.08 200.334 195.481C199.958 194.991 199.478 194.591 198.928 194.31C198.556 194.127 198.156 194.003 197.745 193.944C197.591 193.937 197.437 193.915 197.287 193.878C197.442 193.86 197.599 193.86 197.754 193.878C198.182 193.912 198.6 194.021 198.99 194.201C199.567 194.473 200.074 194.875 200.47 195.376C200.952 195.984 201.341 196.661 201.622 197.384C201.906 198.102 202.128 198.842 202.286 199.598C202.406 200.213 202.488 200.836 202.53 201.462C202.574 201.999 202.587 202.431 202.596 202.728C202.608 202.882 202.604 203.038 202.583 203.191Z" fill="#263238"/>
<path d="M202.5 202.226C202.489 202.155 202.489 202.083 202.5 202.012V201.401C202.5 200.873 202.5 200.091 202.474 199.157C202.426 197.262 202.264 194.647 201.95 191.769C201.636 188.892 201.208 186.303 200.828 184.448C200.736 183.985 200.645 183.574 200.557 183.199C200.47 182.823 200.404 182.513 200.339 182.256C200.273 181.998 200.234 181.819 200.195 181.662C200.173 181.594 200.161 181.524 200.16 181.452C200.191 181.517 200.216 181.584 200.234 181.653C200.278 181.806 200.339 182.003 200.409 182.238C200.479 182.474 200.57 182.806 200.662 183.173C200.754 183.539 200.858 183.954 200.959 184.421C201.483 186.841 201.876 189.286 202.138 191.748C202.452 194.629 202.596 197.253 202.609 199.17C202.609 200.122 202.609 200.89 202.574 201.423C202.574 201.667 202.548 201.859 202.539 202.03C202.531 202.096 202.518 202.162 202.5 202.226Z" fill="#263238"/>
<path d="M202.487 197.166C202.469 196.954 202.469 196.74 202.487 196.528C202.509 196.118 202.566 195.524 202.679 194.782C202.822 193.933 203.01 193.092 203.242 192.263C203.523 191.245 203.876 190.248 204.299 189.281C205.032 187.507 206.079 185.88 207.39 184.478C207.619 184.238 207.863 184.012 208.119 183.801C208.233 183.71 208.329 183.614 208.429 183.539L208.713 183.343C208.882 183.214 209.061 183.1 209.25 183.002C208.636 183.488 208.053 184.012 207.504 184.57C206.231 185.986 205.21 187.611 204.487 189.372C204.067 190.333 203.712 191.32 203.426 192.328C203.151 193.254 202.989 194.105 202.828 194.821C202.666 195.537 202.618 196.131 202.574 196.533C202.561 196.746 202.531 196.957 202.487 197.166Z" fill="#263238"/>
</svg>
