<svg width="173" height="246" viewBox="0 0 173 246" fill="none" xmlns="http://www.w3.org/2000/svg">
<path d="M150.763 226.713C102.914 233.531 19.8248 236.64 12.7714 187.141C5.71791 137.642 38.7892 91.9876 86.6381 85.1692C134.487 78.3509 130.938 87.5884 137.991 137.087C145.045 186.586 198.612 219.895 150.763 226.713Z" fill="#FFF8D8" fill-opacity="0.67"/>
<path d="M112.104 28.5275C112.154 27.826 112.411 27.1553 112.843 26.6001C113.275 26.045 113.861 25.6304 114.529 25.4088C115.196 25.1871 115.914 25.1685 116.592 25.3552C117.27 25.5419 117.877 25.9255 118.337 26.4575C118.797 26.9896 119.089 27.6461 119.176 28.3439C119.262 29.0418 119.14 29.7497 118.824 30.378C118.508 31.0063 118.013 31.5268 117.401 31.8735C116.789 32.2203 116.088 32.3778 115.387 32.326C114.922 32.2924 114.468 32.1675 114.051 31.9583C113.635 31.7492 113.263 31.46 112.958 31.1072C112.653 30.7544 112.421 30.345 112.274 29.9024C112.128 29.4597 112.07 28.9925 112.104 28.5275Z" fill="#FFDCE6"/>
<g opacity="0.3">
<path opacity="0.3" d="M115.444 27.1537L115.47 26.6854H115.892L115.866 27.1433C116.243 27.173 116.605 27.3103 116.907 27.5388L116.646 28.0592C116.413 27.878 116.137 27.7598 115.845 27.7157L115.803 28.413C116.267 28.5587 116.776 28.746 116.74 29.3444C116.74 29.7919 116.365 30.151 115.699 30.1874V30.6557L115.278 30.6297V30.1718C114.978 30.138 114.691 30.0327 114.44 29.8648L114.679 29.3444C114.871 29.4704 115.085 29.5587 115.309 29.6046L115.356 28.8865C114.893 28.7512 114.388 28.5639 114.424 27.9707C114.435 27.5544 114.778 27.1954 115.444 27.1537ZM115.746 29.0218L115.71 29.6202C115.939 29.5838 116.032 29.4641 116.043 29.3288C116.053 29.1935 115.933 29.1103 115.746 29.0218ZM115.085 27.9811C115.085 28.1268 115.195 28.2153 115.372 28.2881L115.403 27.7105C115.195 27.7417 115.096 27.8458 115.091 27.9811H115.085Z" fill="black"/>
</g>
<g opacity="0.3">
<path opacity="0.3" d="M112.931 28.8917C112.959 29.0006 112.975 29.1123 112.978 29.2247C113.018 29.5185 113.102 29.8045 113.228 30.0729C113.317 30.2569 113.425 30.4312 113.55 30.5933C113.702 30.7763 113.877 30.9389 114.071 31.0772C114.17 31.152 114.274 31.2198 114.383 31.2801C114.498 31.3444 114.618 31.3984 114.742 31.4414C114.869 31.4905 114.999 31.5288 115.132 31.5559C115.269 31.5824 115.409 31.598 115.548 31.6028C115.687 31.6132 115.826 31.6132 115.965 31.6028C116.098 31.5895 116.231 31.5651 116.36 31.5299C116.487 31.4942 116.61 31.449 116.73 31.3946C116.846 31.3472 116.958 31.2879 117.063 31.2177C117.254 31.0946 117.429 30.9477 117.583 30.7806C117.719 30.6291 117.841 30.4654 117.947 30.2915C118.095 30.0338 118.202 29.7547 118.265 29.4641C118.279 29.3541 118.305 29.246 118.343 29.1415C118.365 29.2531 118.365 29.3681 118.343 29.4797C118.304 29.7869 118.21 30.0847 118.067 30.3591C117.968 30.5473 117.846 30.7222 117.703 30.8795C117.538 31.0657 117.349 31.2285 117.141 31.3634C117.028 31.4384 116.91 31.5045 116.787 31.5611C116.66 31.6213 116.527 31.6701 116.391 31.7068C116.251 31.7498 116.106 31.7794 115.96 31.7953C115.811 31.8058 115.661 31.8058 115.512 31.7953C115.361 31.7894 115.212 31.7702 115.064 31.738C114.921 31.7092 114.78 31.6692 114.643 31.6184C114.512 31.5671 114.385 31.5063 114.263 31.4362C114.146 31.3689 114.033 31.2942 113.925 31.2125C113.73 31.0615 113.556 30.8867 113.405 30.6921C113.28 30.5163 113.173 30.3279 113.087 30.1302C112.967 29.8429 112.9 29.5361 112.889 29.2247C112.882 29.1121 112.896 28.9991 112.931 28.8917Z" fill="black"/>
</g>
<path d="M112.926 28.6367C112.928 28.8614 112.945 29.0857 112.978 29.308C113.086 29.9105 113.392 30.4598 113.847 30.869C114.18 31.1688 114.585 31.3787 115.022 31.4788C115.459 31.579 115.914 31.5661 116.345 31.4414C116.871 31.2836 117.337 30.9699 117.681 30.5417C118.025 30.1135 118.232 29.591 118.273 29.0431C118.314 28.4952 118.188 27.9477 117.912 27.4729C117.635 26.9981 117.221 26.6183 116.724 26.3836C116.316 26.1958 115.867 26.1154 115.419 26.15C114.971 26.1846 114.539 26.3331 114.164 26.5813C113.655 26.9176 113.273 27.4137 113.077 27.9915C113.012 28.2047 112.962 28.422 112.926 28.6419C112.926 28.4172 112.963 28.194 113.035 27.9811C113.222 27.3832 113.605 26.866 114.123 26.5137C114.508 26.2544 114.953 26.0978 115.415 26.0587C115.878 26.0195 116.343 26.0991 116.766 26.2899C117.282 26.5323 117.712 26.9257 118 27.418C118.288 27.9103 118.419 28.4783 118.377 29.0469C118.334 29.6154 118.12 30.1578 117.763 30.6021C117.406 31.0464 116.922 31.3717 116.376 31.5351C115.927 31.6685 115.45 31.6825 114.994 31.5758C114.538 31.469 114.117 31.2451 113.774 30.9263C113.314 30.5031 113.011 29.9362 112.915 29.3184C112.882 29.0921 112.886 28.8619 112.926 28.6367Z" fill="#C8C8EE"/>
<path d="M116.787 25.6135C116.924 25.6247 117.057 25.6656 117.177 25.7332C117.479 25.8682 117.756 26.0549 117.994 26.2848C118.237 26.5107 118.439 26.7764 118.592 27.0705C118.662 27.1878 118.712 27.3163 118.738 27.4504C118.514 27.0539 118.24 26.6883 117.921 26.3628C117.579 26.0628 117.197 25.8107 116.787 25.6135Z" fill="white"/>
<path d="M116.215 25.421C116.215 25.421 116.298 25.3898 116.381 25.421C116.464 25.4522 116.522 25.4834 116.516 25.5146C116.511 25.5459 116.433 25.5459 116.35 25.5146C116.267 25.4834 116.204 25.4522 116.215 25.421Z" fill="white"/>
<path d="M152.691 121.124V115.359H154.164C154.619 115.359 155.056 115.178 155.378 114.856C155.7 114.534 155.881 114.097 155.881 113.641C155.881 113.186 155.7 112.749 155.378 112.427C155.056 112.105 154.619 111.924 154.164 111.924H152.691V109.942H154.164C154.604 109.918 155.017 109.726 155.32 109.406C155.623 109.086 155.792 108.662 155.792 108.222C155.792 107.782 155.623 107.358 155.32 107.038C155.017 106.718 154.604 106.526 154.164 106.502H152.691V103.625H69.029V106.502H67.5564C67.1167 106.526 66.7029 106.718 66.4002 107.038C66.0974 107.358 65.9287 107.782 65.9287 108.222C65.9287 108.662 66.0974 109.086 66.4002 109.406C66.7029 109.726 67.1167 109.918 67.5564 109.942H69.029V111.924H67.5564C67.101 111.924 66.6642 112.105 66.3422 112.427C66.0202 112.749 65.8393 113.186 65.8393 113.641C65.8393 114.097 66.0202 114.534 66.3422 114.856C66.6642 115.178 67.101 115.359 67.5564 115.359H69.029V120.312C67.5988 120.312 66.1826 120.594 64.8612 121.141C63.5399 121.689 62.3393 122.491 61.328 123.502C60.3166 124.514 59.5144 125.714 58.9671 127.036C58.4198 128.357 58.1381 129.773 58.1381 131.203V205.941C58.1449 209.9 59.7216 213.694 62.5222 216.492C65.3229 219.29 69.1188 220.862 73.0774 220.865H148.627C152.589 220.867 156.388 219.296 159.192 216.498C161.996 213.699 163.575 209.903 163.582 205.941V132.052C163.587 130.618 163.309 129.198 162.764 127.873C162.218 126.547 161.417 125.342 160.405 124.327C159.393 123.312 158.191 122.506 156.867 121.957C155.544 121.407 154.125 121.124 152.691 121.124Z" fill="#FAFAFA"/>
<path d="M152.691 121.124C152.691 121.124 153.087 121.124 153.836 121.171C154.95 121.295 156.041 121.58 157.073 122.019C157.831 122.35 158.548 122.767 159.211 123.263C160.017 123.851 160.733 124.552 161.339 125.344C162.873 127.336 163.678 129.793 163.619 132.306C163.619 143.515 163.645 159.724 163.66 179.752C163.66 184.761 163.66 190.003 163.66 195.477C163.66 198.211 163.66 200.998 163.66 203.839C163.66 204.547 163.66 205.265 163.66 205.978C163.648 206.704 163.589 207.429 163.483 208.148C163.378 208.873 163.222 209.589 163.015 210.292C162.911 210.64 162.77 210.984 162.646 211.332C162.526 211.681 162.38 212.02 162.208 212.347C161.89 213.021 161.527 213.673 161.121 214.298C160.694 214.915 160.226 215.503 159.721 216.057C158.703 217.192 157.51 218.158 156.188 218.919C154.853 219.703 153.405 220.275 151.895 220.615C150.354 220.922 148.782 221.046 147.212 220.985H127.902H86.3463H75.4449C73.6237 220.985 71.7504 221.053 69.924 220.647C68.0889 220.259 66.3442 219.526 64.7829 218.487C61.5938 216.374 59.3235 213.132 58.4294 209.412C57.9611 207.56 57.9975 205.624 58.0027 203.735V198.011C58.0027 183.108 58.0027 168.544 58.0027 154.499V131.339C58.0027 130.917 58.0444 130.496 58.06 130.074C58.0756 129.653 58.1744 129.231 58.2681 128.825C58.6392 127.182 59.3755 125.644 60.4224 124.324C61.4581 123.038 62.7677 122 64.2557 121.284C65.7437 120.568 67.3726 120.194 69.0238 120.187L68.8989 120.312C68.8989 118.626 68.8989 116.987 68.8989 115.359L69.0186 115.483H67.9779C67.612 115.517 67.2431 115.473 66.8955 115.353C66.5459 115.217 66.2462 114.977 66.037 114.666C65.8278 114.354 65.7189 113.986 65.7252 113.611C65.7314 113.236 65.8524 112.872 66.0719 112.567C66.2913 112.263 66.5988 112.033 66.9528 111.909C67.2906 111.812 67.6429 111.775 67.9935 111.799H69.0342L68.9145 111.924V109.942L69.0342 110.061H67.9935C67.6255 110.094 67.2547 110.048 66.906 109.926C66.5584 109.788 66.2612 109.547 66.0542 109.236C65.8472 108.924 65.7402 108.557 65.7476 108.183C65.7549 107.809 65.8763 107.446 66.0953 107.143C66.3144 106.84 66.6208 106.611 66.9736 106.487C67.3117 106.391 67.664 106.356 68.0143 106.383H69.055L68.9405 106.502V103.51H69.055L152.717 103.562H152.78V106.502L152.717 106.44H153.956C154.358 106.404 154.762 106.495 155.111 106.7C155.415 106.886 155.655 107.16 155.802 107.485C155.948 107.81 155.993 108.172 155.93 108.523C155.868 108.874 155.701 109.198 155.452 109.453C155.203 109.708 154.883 109.882 154.533 109.952C154.226 109.988 153.916 109.999 153.607 109.983H152.691L152.743 109.937C152.743 110.806 152.743 111.368 152.743 111.919L152.696 111.872H154.034C154.461 111.848 154.883 111.975 155.225 112.231C155.508 112.444 155.72 112.736 155.834 113.071C155.947 113.406 155.957 113.768 155.861 114.108C155.765 114.449 155.569 114.752 155.298 114.979C155.026 115.206 154.693 115.346 154.341 115.379C153.747 115.379 153.206 115.379 152.696 115.379L152.728 115.348C152.728 119.204 152.696 120.906 152.696 121.108C152.696 120.906 152.696 119.204 152.665 115.348V115.322H152.691C153.212 115.322 153.732 115.322 154.33 115.322C154.666 115.287 154.983 115.152 155.24 114.934C155.498 114.716 155.684 114.426 155.774 114.101C155.865 113.776 155.855 113.431 155.747 113.112C155.639 112.792 155.437 112.513 155.168 112.309C154.841 112.064 154.437 111.944 154.028 111.971H152.644V109.89H153.581C153.883 109.901 154.186 109.889 154.486 109.853C154.814 109.786 155.113 109.622 155.346 109.381C155.578 109.141 155.733 108.836 155.789 108.507C155.845 108.177 155.8 107.838 155.661 107.534C155.521 107.231 155.293 106.976 155.007 106.804C154.677 106.611 154.295 106.526 153.914 106.559H152.618V106.502C152.618 105.659 152.618 104.795 152.618 103.625L152.681 103.687L69.0186 103.744L69.1383 103.625V106.622H67.9987C67.6699 106.595 67.3389 106.625 67.0204 106.71C66.7154 106.82 66.4502 107.018 66.2591 107.279C66.0679 107.541 65.9598 107.854 65.9485 108.178C65.9397 108.505 66.0319 108.827 66.2126 109.099C66.3932 109.372 66.6535 109.583 66.958 109.702C67.2792 109.811 67.6197 109.85 67.9571 109.817H69.1435V112.044H67.9935C67.6644 112.016 67.333 112.047 67.0152 112.138C66.708 112.245 66.4411 112.444 66.2504 112.708C66.0597 112.972 65.9545 113.287 65.9488 113.613C65.9431 113.938 66.0373 114.258 66.2187 114.528C66.4001 114.798 66.6599 115.006 66.9632 115.124C67.2833 115.23 67.6214 115.269 67.9571 115.239H69.1435V115.364C69.1435 116.993 69.1435 118.632 69.1435 120.318V120.448H69.0134C66.5651 120.45 64.1907 121.287 62.2811 122.819C60.3716 124.351 59.0406 126.488 58.5075 128.877C58.4138 129.278 58.3722 129.689 58.3045 130.1C58.2369 130.511 58.2525 130.922 58.2473 131.339V133.862C58.2473 140.606 58.2473 147.494 58.2473 154.526V203.751C58.1538 205.633 58.2954 207.519 58.6688 209.365C59.548 213.018 61.7794 216.201 64.913 218.274C66.4461 219.298 68.1612 220.019 69.9656 220.397C71.7556 220.798 73.6081 220.725 75.4293 220.735H127.902H147.253C148.801 220.794 150.35 220.67 151.869 220.366C153.357 220.036 154.784 219.475 156.099 218.706C157.399 217.956 158.572 217.006 159.575 215.891C160.076 215.345 160.538 214.766 160.96 214.158C161.359 213.542 161.717 212.901 162.032 212.238C162.201 211.915 162.345 211.579 162.463 211.233C162.583 210.89 162.724 210.557 162.828 210.193C163.033 209.501 163.188 208.795 163.291 208.08C163.466 206.663 163.527 205.235 163.473 203.808C163.473 200.967 163.473 198.18 163.473 195.446C163.473 189.979 163.473 184.737 163.473 179.721C163.473 159.693 163.504 143.484 163.514 132.275C163.575 129.78 162.78 127.34 161.261 125.36C160.661 124.57 159.952 123.869 159.154 123.278C158.497 122.784 157.787 122.365 157.036 122.03C156.009 121.588 154.925 121.295 153.815 121.161L152.691 121.124Z" fill="#C8C8EE"/>
<path d="M142.617 182.063C140.027 183.111 137.183 183.367 134.447 182.799C131.711 182.231 129.205 180.863 127.246 178.87C125.288 176.877 123.964 174.347 123.444 171.602C122.923 168.856 123.229 166.018 124.323 163.446C125.416 160.874 127.248 158.685 129.586 157.154C131.925 155.624 134.664 154.822 137.459 154.85C140.253 154.878 142.977 155.734 145.284 157.31C147.592 158.886 149.38 161.112 150.422 163.705C151.821 167.174 151.785 171.057 150.321 174.5C148.858 177.943 146.086 180.663 142.617 182.063Z" fill="#FFDCE6"/>
<g opacity="0.3">
<path opacity="0.3" d="M131.841 172.493L130.113 173.217L129.468 171.655L131.149 170.948C130.614 169.559 130.483 168.048 130.769 166.587L133.006 166.644C132.76 167.791 132.815 168.981 133.168 170.1L135.769 169.017C135.462 167.128 135.249 164.979 137.44 164.053C139.074 163.366 140.978 163.965 142.279 166.285L143.991 165.567L144.636 167.128L142.955 167.836C143.358 168.966 143.487 170.175 143.33 171.364L141.108 171.39C141.223 170.486 141.16 169.569 140.921 168.689L138.319 169.793C138.637 171.671 138.839 173.794 136.68 174.71C135.03 175.381 133.152 174.793 131.841 172.493ZM138.012 168.086L140.203 167.165C139.682 166.426 139.094 166.291 138.584 166.504C138.075 166.717 137.944 167.316 138.012 168.086ZM135.41 172.301C135.931 172.077 136.056 171.505 136.009 170.74L133.88 171.635C134.37 172.337 134.916 172.509 135.41 172.301Z" fill="black"/>
</g>
<g opacity="0.3">
<path opacity="0.3" d="M142.44 178.404C142.414 178.342 142.836 178.123 143.538 177.655C144.525 177.002 145.403 176.198 146.14 175.272C146.643 174.638 147.074 173.95 147.425 173.222C147.821 172.386 148.108 171.503 148.279 170.594C148.467 169.591 148.509 168.565 148.403 167.55C148.348 167.023 148.252 166.501 148.117 165.989C147.974 165.456 147.792 164.934 147.571 164.428C147.343 163.923 147.081 163.434 146.785 162.966C146.495 162.513 146.169 162.083 145.812 161.68C145.136 160.918 144.352 160.257 143.486 159.719C142.699 159.231 141.853 158.846 140.968 158.574C139.053 157.995 137.017 157.947 135.077 158.433C134.661 158.579 134.23 158.68 133.792 158.735C134.143 158.449 134.551 158.241 134.989 158.126C136.156 157.707 137.392 157.511 138.631 157.549C140.467 157.595 142.261 158.107 143.845 159.037C144.308 159.308 144.749 159.616 145.162 159.958C145.599 160.307 146.006 160.692 146.379 161.108C146.763 161.541 147.111 162.004 147.42 162.492C147.743 162.991 148.028 163.512 148.273 164.053C148.51 164.601 148.705 165.167 148.856 165.744C149.002 166.306 149.103 166.879 149.158 167.456C149.202 168.016 149.202 168.578 149.158 169.137C149.13 169.673 149.059 170.205 148.945 170.729C148.571 172.546 147.731 174.235 146.509 175.631C145.702 176.566 144.726 177.341 143.632 177.915C143.271 178.156 142.866 178.323 142.44 178.404Z" fill="black"/>
</g>
<path d="M141.545 178.883L141.701 178.8L142.165 178.571C142.42 178.458 142.665 178.324 142.898 178.17C143.23 177.985 143.548 177.776 143.85 177.546C144.696 176.935 145.447 176.202 146.078 175.371C146.919 174.285 147.544 173.049 147.92 171.728C148.424 169.998 148.473 168.167 148.062 166.412C147.651 164.657 146.794 163.038 145.573 161.712C145.231 161.34 144.864 160.993 144.475 160.671C144.067 160.348 143.637 160.052 143.19 159.786C142.268 159.226 141.263 158.815 140.213 158.569C139.13 158.302 138.011 158.207 136.899 158.288C135.754 158.377 134.629 158.633 133.558 159.047C132.498 159.49 131.509 160.086 130.623 160.817C129.765 161.531 129.024 162.375 128.427 163.319C127.841 164.223 127.402 165.213 127.126 166.254C126.987 166.756 126.883 167.268 126.814 167.784C126.762 168.292 126.742 168.803 126.752 169.314C126.792 171.106 127.292 172.857 128.203 174.4C129.114 175.944 130.406 177.227 131.955 178.129C134.062 179.355 136.517 179.844 138.933 179.518C139.31 179.471 139.683 179.401 140.052 179.31C140.326 179.255 140.595 179.18 140.858 179.086L141.353 178.93L141.519 178.883C141.47 178.916 141.415 178.94 141.358 178.956L140.874 179.138C140.614 179.243 140.346 179.327 140.073 179.388C139.704 179.492 139.328 179.57 138.949 179.622C137.905 179.781 136.844 179.781 135.801 179.622C134.413 179.433 133.075 178.975 131.862 178.274C130.389 177.428 129.14 176.242 128.219 174.814C127.155 173.166 126.561 171.259 126.502 169.298C126.487 168.777 126.508 168.256 126.564 167.737C126.633 167.211 126.738 166.689 126.877 166.176C127.156 165.108 127.604 164.091 128.203 163.163C128.814 162.197 129.57 161.332 130.446 160.598C132.259 159.067 134.515 158.155 136.883 157.996C138.022 157.916 139.167 158.016 140.276 158.293C141.35 158.546 142.377 158.968 143.32 159.542C143.778 159.818 144.218 160.124 144.636 160.458C145.035 160.793 145.41 161.154 145.76 161.54C147.466 163.431 148.446 165.866 148.526 168.412C148.606 170.957 147.781 173.449 146.197 175.444C145.549 176.276 144.779 177.006 143.913 177.608C143.603 177.835 143.278 178.04 142.94 178.222C142.699 178.368 142.447 178.493 142.185 178.597L141.712 178.805C141.66 178.839 141.604 178.865 141.545 178.883Z" fill="#C8C8EE"/>
<path d="M123.983 170.412C123.983 170.412 123.931 170.266 123.884 169.99C123.826 169.599 123.793 169.205 123.786 168.809C123.737 166.173 124.534 163.591 126.059 161.441C126.287 161.118 126.536 160.81 126.804 160.52C126.895 160.407 127.002 160.307 127.121 160.223C127.157 160.255 126.757 160.744 126.216 161.545C124.807 163.718 124.033 166.241 123.978 168.83C123.957 169.793 124.03 170.407 123.983 170.412Z" fill="white"/>
<path d="M124.311 172.779C124.233 172.779 124.124 172.535 124.056 172.197C123.989 171.858 123.999 171.577 124.056 171.567C124.113 171.557 124.244 171.812 124.306 172.145C124.368 172.478 124.384 172.764 124.311 172.779Z" fill="white"/>
<path d="M133.589 172.405C127.262 175.282 121.179 179.112 114.289 180.085C104.725 181.438 95.3432 177.483 86.5961 173.076C73.6705 166.603 61.6972 165.921 58.1484 168.476V205.806C58.1471 209.768 59.7186 213.569 62.5179 216.373C65.3172 219.177 69.1151 220.756 73.0773 220.761H148.632C150.596 220.761 152.541 220.374 154.355 219.623C156.17 218.871 157.818 217.77 159.207 216.381C160.596 214.992 161.697 213.344 162.449 211.529C163.201 209.715 163.587 207.77 163.587 205.806V165.921C153.93 166.426 141.878 168.632 133.589 172.405Z" fill="#DCDCFF"/>
<path d="M152.462 120.276C152.462 120.349 133.397 120.411 109.887 120.411C86.3775 120.411 67.3066 120.349 67.3066 120.276C67.3066 120.203 86.3671 120.141 109.887 120.141C133.407 120.141 152.462 120.198 152.462 120.276Z" fill="#C8C8EE"/>
<path d="M162.76 165.921H162.479L161.652 165.958C160.928 165.984 159.862 166.046 158.488 166.155C148.841 166.944 139.439 169.595 130.8 173.961C127.876 175.392 124.842 176.994 121.538 178.306C119.858 178.98 118.129 179.523 116.365 179.929C115.913 180.028 115.465 180.127 115.002 180.194L114.32 180.309L113.623 180.387C113.16 180.423 112.697 180.501 112.223 180.512L110.813 180.564C108.949 180.553 107.088 180.387 105.251 180.07C103.472 179.737 101.714 179.303 99.9847 178.769C96.7374 177.717 93.5544 176.476 90.4519 175.053C87.4703 173.727 84.676 172.4 82.0014 171.291C79.5327 170.239 77.0047 169.332 74.4302 168.575C70.7101 167.43 66.8179 166.945 62.9305 167.144C62.3223 167.175 61.7161 167.237 61.1144 167.331C60.8543 167.368 60.5941 167.389 60.3911 167.43L59.7927 167.555L58.9862 167.716C58.8041 167.753 58.7052 167.763 58.7052 167.763C58.7052 167.763 58.7989 167.732 58.981 167.69L59.7823 167.503L60.3755 167.363C60.5941 167.321 60.8386 167.295 61.104 167.253C61.7064 167.147 62.3145 167.076 62.9253 167.04C66.8275 166.797 70.7417 167.255 74.4823 168.393C77.0687 169.132 79.6075 170.029 82.0846 171.078C84.7696 172.176 87.5743 173.503 90.5507 174.819C93.6478 176.231 96.8238 177.463 100.063 178.509C101.781 179.039 103.529 179.47 105.298 179.799C107.12 180.112 108.964 180.276 110.813 180.288L112.208 180.236C112.676 180.236 113.134 180.153 113.592 180.111L114.279 180.038L114.96 179.924C115.413 179.856 115.861 179.763 116.303 179.659C118.055 179.259 119.772 178.721 121.439 178.051C124.727 176.755 127.756 175.157 130.685 173.732C135.865 171.141 141.329 169.162 146.967 167.836C150.759 166.937 154.617 166.347 158.504 166.072C159.882 165.978 160.949 165.932 161.678 165.926H162.505C162.59 165.92 162.675 165.918 162.76 165.921Z" fill="#C8C8EE"/>
<path d="M82.2979 185.976C84.1452 186.402 85.8936 187.172 87.7096 187.703C87.9921 187.279 88.2409 186.834 88.4537 186.371C89.1114 184.906 89.3802 183.296 89.2343 181.697C89.0883 180.098 88.5325 178.563 87.6205 177.241C86.7084 175.919 85.471 174.855 84.0277 174.151C82.5844 173.447 80.9839 173.127 79.3808 173.222C77.7778 173.317 76.2262 173.823 74.876 174.693C73.5258 175.562 72.4226 176.765 71.6728 178.185C70.923 179.605 70.5521 181.195 70.5957 182.8C70.6394 184.405 71.0962 185.972 71.9221 187.349C75.1143 185.694 78.785 185.208 82.2979 185.976Z" fill="#FFDCE6"/>
<path d="M71.0843 183.499C70.967 183.165 70.9123 182.812 70.923 182.458C70.8944 181.586 71.0123 180.715 71.2716 179.882C71.5275 179.048 71.9196 178.262 72.432 177.556C72.628 177.251 72.8764 176.984 73.1657 176.765C71.7002 178.706 70.9634 181.101 71.0843 183.53V183.499Z" fill="white"/>
<path d="M71.2978 185.07C71.2249 185.07 71.1313 184.914 71.0896 184.69C71.048 184.467 71.0896 184.279 71.1417 184.264C71.1937 184.248 71.3082 184.42 71.355 184.638C71.4018 184.857 71.3758 185.055 71.2978 185.07Z" fill="white"/>
<path d="M73.9619 186.48L74.1129 186.433C73.6585 185.741 73.3275 184.975 73.1346 184.17C72.8792 183.099 72.8792 181.983 73.1346 180.913C73.4331 179.682 74.063 178.558 74.9558 177.66C75.4293 177.171 75.9772 176.76 76.5793 176.443C77.1996 176.099 77.8706 175.857 78.5671 175.725C80.0388 175.426 81.567 175.597 82.9365 176.213C84.3059 176.83 85.4476 177.86 86.2006 179.159C86.8982 180.368 87.2206 181.757 87.1268 183.15C87.0448 184.411 86.6202 185.625 85.8988 186.662C85.8156 186.793 85.7115 186.902 85.6178 187.021L85.8416 187.094C85.9196 186.995 86.0081 186.902 86.0861 186.793C86.8415 185.719 87.2879 184.459 87.3766 183.15C87.4298 182.452 87.3754 181.75 87.2153 181.069C87.057 180.348 86.7848 179.658 86.4088 179.024C85.6288 177.676 84.4452 176.607 83.025 175.969C81.6049 175.33 80.02 175.154 78.4942 175.464C77.7641 175.601 77.0611 175.856 76.4128 176.219C75.791 176.549 75.2255 176.976 74.7373 177.483C73.8805 178.355 73.2625 179.432 72.9426 180.611C72.6227 181.79 72.6118 183.032 72.9108 184.217C73.1267 185.027 73.4824 185.793 73.9619 186.48Z" fill="#C8C8EE"/>
<g opacity="0.3">
<path opacity="0.3" d="M83.9475 176.604C84.6088 177.031 85.2003 177.558 85.7011 178.165C86.0428 178.579 86.3377 179.029 86.5805 179.508C86.8592 180.054 87.0639 180.635 87.1893 181.235C87.2612 181.559 87.3065 181.888 87.3246 182.219C87.3537 182.565 87.3537 182.913 87.3246 183.259C87.2959 183.61 87.2402 183.958 87.1581 184.3C86.9872 185.016 86.7044 185.701 86.3203 186.329C86.1645 186.593 85.9907 186.845 85.8 187.084L86.3203 187.271C86.4898 187.061 86.6462 186.84 86.7886 186.61C86.9869 186.276 87.1608 185.929 87.309 185.57C87.4583 185.203 87.5784 184.826 87.668 184.441C87.757 184.066 87.8162 183.685 87.8449 183.301C87.8737 182.93 87.8737 182.558 87.8449 182.187C87.8189 181.836 87.7632 181.488 87.6784 181.147C87.531 180.507 87.2964 179.891 86.9812 179.315C86.7057 178.817 86.374 178.353 85.9925 177.931C85.4418 177.326 84.7837 176.828 84.0516 176.464C83.7933 176.309 83.5066 176.208 83.2086 176.167C83.193 176.167 83.4844 176.307 83.9475 176.604Z" fill="black"/>
</g>
<g opacity="0.3">
<path opacity="0.3" d="M76.8707 184.841C78.3017 185.46 79.2175 184.383 79.9928 183.369L81.7256 184.118C81.4147 184.636 81.0044 185.087 80.5184 185.445L80.789 185.721C81.2542 185.771 81.7163 185.848 82.1731 185.95C82.524 185.574 82.8249 185.154 83.0681 184.701L84.1764 185.179L84.6187 184.139L83.4844 183.67C84.0047 181.984 83.4063 180.798 82.3292 180.33C80.8722 179.7 79.9512 180.803 79.2071 181.813L77.5055 181.079C77.8761 180.4 78.4133 179.827 79.0666 179.414L78.0675 178.316C77.2395 178.852 76.578 179.609 76.1578 180.501L75.0495 180.018L74.6072 181.058L75.7467 181.553C75.2264 183.212 75.8092 184.383 76.8707 184.841ZM81.684 182.005C82.0222 182.151 82.2043 182.494 82.1107 183.088L80.6693 182.458C81.0023 182.073 81.3301 181.854 81.684 182.005ZM77.0684 182.115L78.4734 182.718C78.1352 183.093 77.8125 183.301 77.4327 183.15C77.0528 182.999 76.9644 182.671 77.0684 182.115Z" fill="black"/>
</g>
<path d="M93.4438 188.921C93.3608 188.929 93.2771 188.929 93.1941 188.921C93.0276 188.921 92.783 188.921 92.4708 188.921C91.5821 188.898 90.6965 188.806 89.8222 188.645C88.5286 188.391 87.2529 188.054 86.0028 187.635C84.5874 187.188 83.0576 186.595 81.4081 186.21C79.8526 185.86 78.2376 185.875 76.6885 186.251C75.4116 186.533 74.1615 186.924 72.9524 187.422C71.9117 187.833 71.0895 188.213 70.5223 188.463C70.2327 188.613 69.9337 188.746 69.6273 188.858C69.6924 188.803 69.7641 188.756 69.8407 188.718C69.9864 188.635 70.1945 188.515 70.4755 188.369C71.0323 188.078 71.844 187.672 72.8795 187.23C74.0922 186.706 75.3496 186.294 76.6365 185.996C78.2206 185.596 79.8766 185.575 81.4705 185.934C83.1461 186.345 84.6707 186.933 86.0809 187.391C87.3184 187.812 88.5799 188.16 89.8586 188.432C90.7168 188.611 91.586 188.732 92.4604 188.796C92.7907 188.814 93.1194 188.856 93.4438 188.921Z" fill="#C8C8EE"/>
<path d="M105.859 20.7482L105.49 20.972C105.251 21.1177 104.892 21.3362 104.449 21.6484C103.534 22.2625 102.222 23.2095 100.599 24.552C99.7922 25.2181 98.8764 25.957 97.9449 26.8103C97.0609 27.8684 96.4769 29.1442 96.2538 30.5048C95.6658 33.424 96.2538 36.8687 97.4454 40.3915C98.068 42.246 98.7924 44.0648 99.6153 45.8396C100.474 47.6921 101.489 49.5705 102.384 51.5895C102.852 52.5886 103.268 53.6345 103.716 54.6804C104.163 55.7263 104.564 56.819 104.949 57.9326C105.745 60.1493 106.463 62.4648 107.077 64.8689C108.388 69.9012 109.19 75.0525 109.471 80.2453C109.627 82.9459 109.596 85.6986 109.538 88.4825C109.481 91.2663 109.372 94.097 109.231 96.959C108.956 102.683 108.591 108.256 108.383 113.647C108.175 119.038 108.071 124.246 108.066 129.205C108.066 139.123 108.461 148.047 108.982 155.53C109.502 163.012 110.126 169.059 110.6 173.222C110.834 175.303 111.037 176.927 111.172 178.019C111.235 178.566 111.287 178.977 111.318 179.268C111.349 179.56 111.36 179.695 111.36 179.695C111.36 179.695 111.36 179.554 111.292 179.273C111.224 178.992 111.193 178.571 111.12 178.03C110.969 176.932 110.746 175.319 110.496 173.237C109.975 169.075 109.335 163.033 108.789 155.545C108.243 148.058 107.842 139.128 107.816 129.205C107.816 124.241 107.904 119.032 108.118 113.636C108.331 108.24 108.685 102.662 108.961 96.9434C109.101 94.0866 109.211 91.2611 109.273 88.4772C109.335 85.6934 109.361 82.9511 109.205 80.2609C108.936 75.0835 108.148 69.9463 106.853 64.9261C106.245 62.5273 105.526 60.2429 104.741 58.0106C104.361 56.8971 103.924 55.8252 103.518 54.7636C103.112 53.7021 102.659 52.6822 102.191 51.6779C101.306 49.6642 100.302 47.7857 99.4435 45.9229C98.6047 44.148 97.8664 42.3274 97.2321 40.4696C96.0457 36.9208 95.4629 33.4448 96.0717 30.484C96.3087 29.0996 96.9124 27.8041 97.8201 26.7323C98.7723 25.8685 99.6829 25.1712 100.5 24.4792C102.139 23.1679 103.461 22.2156 104.387 21.612C104.859 21.2938 105.351 21.0053 105.859 20.7482Z" fill="#C8C8EE"/>
<path d="M62.0927 145.024C62.1655 145.024 62.228 157.112 62.228 172.015C62.228 186.917 62.1655 199.005 62.0927 199.005C62.0198 199.005 61.9574 186.923 61.9574 172.015C61.9574 157.106 62.0146 145.024 62.0927 145.024Z" fill="#C8C8EE"/>
<path d="M158.732 201.851C158.654 201.851 158.597 196.56 158.597 190.034C158.597 183.509 158.654 178.217 158.732 178.217C158.811 178.217 158.868 183.509 158.868 190.034C158.868 196.56 158.805 201.851 158.732 201.851Z" fill="white"/>
<path d="M158.732 169.423C158.913 170.22 158.913 171.046 158.732 171.843C158.552 171.046 158.552 170.22 158.732 169.423Z" fill="white"/>
<path d="M123.656 131.578C129.546 128.732 136.144 127.795 142.638 126.942C142.171 130.483 140.919 133.875 138.973 136.87C137.027 139.865 134.437 142.388 131.391 144.254C128.346 146.12 124.922 147.282 121.37 147.656C117.818 148.029 114.227 147.605 110.86 146.413C112.14 139.992 117.76 134.419 123.656 131.578Z" fill="#F6F6FE"/>
<path d="M108.17 148.182C108.17 148.182 108.238 148.11 108.383 147.99C108.591 147.815 108.81 147.653 109.039 147.506C109.616 147.095 110.491 146.564 111.578 145.914C113.753 144.623 116.782 142.927 120.18 141.069L128.823 136.292L131.424 134.825L132.137 134.43C132.217 134.379 132.303 134.339 132.392 134.31C132.324 134.375 132.247 134.432 132.163 134.476L131.476 134.913C130.878 135.293 129.999 135.819 128.911 136.474C126.731 137.755 123.682 139.461 120.305 141.319C116.927 143.177 113.863 144.847 111.667 146.096C110.569 146.72 109.684 147.23 109.091 147.61C108.498 147.99 108.186 148.182 108.17 148.182Z" fill="#C8C8EE"/>
<path d="M123.484 64.7336C128.948 62.1006 135.067 61.2316 141.082 60.4407C140.648 63.7225 139.486 66.8659 137.682 69.6415C135.878 72.4172 133.477 74.755 130.655 76.4843C127.832 78.2135 124.658 79.2907 121.366 79.6371C118.074 79.9835 114.746 79.5904 111.625 78.4865C112.811 72.5389 118.02 67.3718 123.484 64.7336Z" fill="#F6F6FE"/>
<path d="M109.46 79.9383C109.516 79.8706 109.581 79.811 109.653 79.7614C109.842 79.6031 110.04 79.4555 110.246 79.3191C110.766 78.9444 111.573 78.4553 112.567 77.8569C114.549 76.6809 117.338 75.1302 120.424 73.4287L128.318 69.0889L130.701 67.7516L131.352 67.3926C131.427 67.3473 131.507 67.3107 131.591 67.2833C131.527 67.3449 131.456 67.3975 131.378 67.4394L130.753 67.8453C130.233 68.1887 129.405 68.6675 128.412 69.2555C126.424 70.4263 123.64 71.9873 120.554 73.6837C117.469 75.38 114.669 76.9046 112.66 78.039C111.661 78.6114 110.85 79.0797 110.309 79.4231C109.767 79.7666 109.502 79.9591 109.46 79.9383Z" fill="#C8C8EE"/>
<path d="M97.5755 92.1717C93.1993 89.929 88.256 89.1016 83.3959 88.3419C83.6829 91.009 84.5616 93.5784 85.9679 95.8627C87.3742 98.1471 89.2726 100.089 91.5247 101.546C93.7768 103.003 96.3258 103.94 98.9857 104.287C101.646 104.634 104.35 104.383 106.9 103.552C106.073 98.7073 101.952 94.4144 97.5755 92.1717Z" fill="#F6F6FE"/>
<path d="M108.643 104.769C108.409 104.634 108.181 104.486 107.962 104.327C107.53 104.041 106.879 103.651 106.078 103.172L99.7609 99.4931C97.2944 98.0517 95.0777 96.73 93.4803 95.7413C92.6893 95.221 92.0493 94.8359 91.6174 94.5445C91.3826 94.406 91.1614 94.2457 90.9565 94.0658C91.2045 94.174 91.443 94.3028 91.6694 94.4509L93.5791 95.5748L99.9014 99.2693C102.368 100.705 104.585 102.017 106.177 103.016C106.968 103.536 107.603 103.932 108.024 104.249C108.189 104.366 108.348 104.493 108.498 104.629C108.602 104.712 108.654 104.764 108.643 104.769Z" fill="#C8C8EE"/>
<path d="M92.2783 47.6504C86.4555 44.6688 79.8783 43.5657 73.4155 42.5614C73.7966 46.1124 74.9662 49.5333 76.8387 52.5744C78.7112 55.6155 81.2393 58.1999 84.2385 60.1389C87.2377 62.0778 90.6321 63.3223 94.1738 63.7814C97.7155 64.2406 101.315 63.9028 104.709 62.7927C103.586 56.3455 98.101 50.6373 92.2783 47.6504Z" fill="#F6F6FE"/>
<path d="M107.009 64.4057C107.009 64.4057 106.697 64.1768 106.109 63.8021C105.521 63.4275 104.673 62.8915 103.611 62.2411C101.473 60.961 98.4964 59.2438 95.213 57.3341C91.9296 55.4245 88.9688 53.6917 86.851 52.3544C85.8103 51.6987 84.9413 51.1576 84.3585 50.7933L83.6924 50.3562C83.6122 50.309 83.5387 50.2513 83.4739 50.1845C83.5624 50.2147 83.6464 50.2567 83.7237 50.3094L84.4157 50.7153L86.9498 52.2191L95.3483 57.1208C98.6317 59.0305 101.593 60.7633 103.71 62.0954C104.751 62.7614 105.61 63.3078 106.172 63.7241C106.393 63.8856 106.605 64.0594 106.806 64.2444C106.947 64.3433 107.015 64.4057 107.009 64.4057Z" fill="#C8C8EE"/>
<path d="M93.829 145.445C87.9386 142.604 81.3405 141.662 74.8466 140.809C75.3138 144.35 76.5661 147.742 78.5118 150.737C80.4576 153.732 83.0478 156.255 86.0933 158.121C89.1387 159.987 92.5625 161.149 96.1146 161.523C99.6667 161.897 103.257 161.472 106.624 160.281C105.339 153.865 99.7246 148.286 93.829 145.445Z" fill="#F6F6FE"/>
<path d="M109.419 162.107C109.419 162.133 109.096 161.888 108.487 161.519C107.878 161.15 106.999 160.629 105.886 160C103.679 158.746 100.599 157.07 97.2112 155.202C93.8237 153.334 90.7589 151.622 88.5682 150.337C87.4755 149.691 86.5909 149.166 85.9664 148.776L85.2744 148.339C85.1183 148.234 85.0402 148.177 85.0454 148.167C85.1361 148.2 85.2232 148.242 85.3056 148.292L86.0861 148.703L88.6879 150.175L97.3569 154.947C100.744 156.815 103.809 158.517 105.995 159.812C107.088 160.463 107.962 160.999 108.545 161.41C108.773 161.562 108.993 161.725 109.205 161.899C109.283 161.961 109.355 162.031 109.419 162.107Z" fill="#C8C8EE"/>
<path d="M153.44 106.513C153.44 106.585 134.38 106.648 110.87 106.648C87.3609 106.648 68.29 106.585 68.29 106.513C68.29 106.44 87.3505 106.377 110.87 106.377C134.39 106.377 153.44 106.435 153.44 106.513Z" fill="#C8C8EE"/>
<path d="M153.264 109.999C153.264 110.072 134.203 110.134 110.688 110.134C87.1736 110.134 68.1132 110.072 68.1132 109.999C68.1132 109.926 87.1736 109.858 110.688 109.858C134.203 109.858 153.264 109.921 153.264 109.999Z" fill="#C8C8EE"/>
<path d="M153.264 111.872C153.264 111.95 134.203 112.008 110.688 112.008C87.1736 112.008 68.1132 111.95 68.1132 111.872C68.1132 111.794 87.1736 111.737 110.688 111.737C134.203 111.737 153.264 111.799 153.264 111.872Z" fill="#C8C8EE"/>
<path d="M153.175 115.359C153.175 115.431 134.109 115.494 110.6 115.494C87.0904 115.494 68.0247 115.431 68.0247 115.359C68.0247 115.286 87.0852 115.223 110.6 115.223C134.115 115.223 153.175 115.286 153.175 115.359Z" fill="#C8C8EE"/>
<path d="M106.546 126.848C106.448 126.457 106.249 126.098 105.969 125.807C104.395 124.231 102.493 123.02 100.399 122.263C98.3038 121.506 96.0677 121.22 93.8498 121.426C93.7537 121.422 93.6578 121.438 93.5682 121.473C93.4786 121.507 93.3973 121.561 93.3294 121.629C93.1473 121.873 93.3294 122.217 93.5584 122.446C95.1772 124.214 97.2166 125.545 99.4872 126.314C101.758 127.084 104.186 127.268 106.546 126.848Z" fill="#DCDCFF"/>
<path d="M107.941 127.805C107.941 127.837 107.421 127.483 106.546 126.962C105.433 126.29 104.267 125.708 103.06 125.224C101.849 124.75 100.603 124.367 99.3344 124.08C98.807 123.988 98.2857 123.865 97.7733 123.71C97.918 123.686 98.0657 123.686 98.2104 123.71C98.4914 123.71 98.8973 123.788 99.3916 123.877C100.687 124.113 101.955 124.476 103.18 124.959C104.404 125.444 105.575 126.056 106.671 126.786C107.093 127.067 107.421 127.306 107.639 127.488C107.858 127.67 107.972 127.79 107.941 127.805Z" fill="#C8C8EE"/>
<path d="M106.604 57.6412C106.625 57.2387 106.748 56.8482 106.963 56.5068C108.187 54.6461 109.807 53.0784 111.706 51.9154C113.606 50.7524 115.739 50.0228 117.953 49.7787C118.041 49.7599 118.133 49.759 118.223 49.7759C118.312 49.7929 118.397 49.8274 118.473 49.8775C118.702 50.0805 118.572 50.4551 118.416 50.7205C117.187 52.7734 115.46 54.4836 113.396 55.6932C111.331 56.9028 108.995 57.5727 106.604 57.6412Z" fill="#F6F6FE"/>
<path d="M105.188 59.1346C105.261 59.0023 105.35 58.8799 105.454 58.7704C105.636 58.5414 105.922 58.25 106.286 57.8597C107.239 56.8924 108.285 56.0209 109.408 55.258C110.533 54.5013 111.731 53.8581 112.983 53.3379C113.462 53.1401 113.857 52.9945 114.133 52.9112C114.274 52.8526 114.423 52.8174 114.575 52.8071C114.575 52.8488 113.993 53.0777 113.061 53.5148C111.845 54.0792 110.674 54.7368 109.559 55.4817C108.457 56.2343 107.413 57.0692 106.437 57.9794C106.042 58.3872 105.626 58.7729 105.188 59.1346Z" fill="#C8C8EE"/>
<path d="M121.652 212.134C121.558 211.924 121.483 211.706 121.428 211.483C121.293 211.015 121.116 210.406 120.908 209.662C120.466 208.059 119.867 205.884 119.17 203.418L119.134 203.288L119.259 203.256L122.032 202.502L124.811 201.758L124.941 201.721L124.972 201.846L126.622 208.137C126.809 208.892 126.965 209.511 127.079 209.979C127.137 210.191 127.175 210.407 127.194 210.625C127.1 210.415 127.025 210.197 126.97 209.974C126.835 209.506 126.658 208.897 126.45 208.153C126.002 206.55 125.409 204.375 124.707 201.909L124.868 201.997L122.094 202.752L119.321 203.501L119.389 203.34L121.038 209.626C121.225 210.38 121.382 210.999 121.496 211.468C121.568 211.684 121.621 211.907 121.652 212.134Z" fill="#C8C8EE"/>
<path d="M153.961 208.444C151.806 206.337 149.107 204.871 146.167 204.208C143.227 203.546 140.16 203.713 137.31 204.693C133.35 206.118 129.723 209.152 125.529 208.798C123.224 208.6 121.147 207.383 118.941 206.717C116.521 206 113.957 205.918 111.497 206.479C109.036 207.04 106.761 208.226 104.892 209.922L102.93 216.229C102.93 216.229 156.443 218.232 156.443 216.229C156.443 214.225 153.961 208.444 153.961 208.444Z" fill="#9D6CDD" fill-opacity="0.11"/>
<path d="M151.552 206.233C151.412 206.175 151.276 206.107 151.146 206.03C150.885 205.889 150.5 205.681 149.99 205.452C148.55 204.793 147.027 204.331 145.463 204.079C143.146 203.687 140.769 203.842 138.522 204.531C135.977 205.27 133.381 206.644 130.571 207.888C129.176 208.512 127.73 209.095 126.236 209.116C124.743 209.136 123.4 208.517 122.198 207.986C120.076 206.989 117.777 206.421 115.434 206.316C113.853 206.246 112.27 206.385 110.725 206.727C110.204 206.857 109.757 206.967 109.471 207.055C109.329 207.107 109.183 207.143 109.034 207.164C109.171 207.103 109.312 207.049 109.455 207.003C109.736 206.899 110.152 206.769 110.699 206.628C112.249 206.235 113.846 206.06 115.444 206.108C117.82 206.187 120.156 206.743 122.313 207.742C123.525 208.262 124.821 208.866 126.252 208.835C127.683 208.803 129.088 208.247 130.477 207.622C133.277 206.389 135.884 205.02 138.47 204.276C140.752 203.585 143.165 203.448 145.51 203.876C147.084 204.148 148.612 204.642 150.048 205.343C150.439 205.53 150.819 205.738 151.187 205.968C151.315 206.046 151.437 206.135 151.552 206.233Z" fill="#C8C8EE"/>
<path d="M73.5404 205.66C76.4439 205.229 79.4984 204.807 82.2511 205.837C83.9266 206.467 85.4252 207.622 87.1944 207.919C89.2758 208.267 91.4301 207.346 93.5635 207.508C94.4948 207.588 95.397 207.872 96.2063 208.339C97.0156 208.807 97.7122 209.447 98.2467 210.214C98.076 210.567 97.8254 210.876 97.5148 211.117C97.2041 211.357 96.8419 211.521 96.4567 211.598C95.686 211.741 94.8976 211.762 94.1203 211.66C89.3903 211.296 84.6551 210.932 79.9823 210.141C78.572 209.966 77.2004 209.558 75.9236 208.934C75.2878 208.616 74.7304 208.162 74.2913 207.603C73.8522 207.044 73.5424 206.395 73.3843 205.702" fill="#9D6CDD" fill-opacity="0.11"/>
<path d="M71.9065 204.901C71.9065 204.901 72.073 204.729 72.3228 204.38C72.5725 204.032 72.9108 203.485 73.3114 202.819C74.1076 201.482 75.1327 199.51 76.9071 197.829C77.7461 197.035 78.7922 196.494 79.9251 196.268C80.8639 196.074 81.8413 196.242 82.6622 196.736C83.2167 197.059 83.6568 197.547 83.9214 198.131C83.9947 198.286 84.0472 198.451 84.0775 198.62C84.0775 198.735 84.1035 198.797 84.0775 198.797C84.0515 198.797 84.0099 198.558 83.8121 198.173C83.5217 197.637 83.085 197.195 82.5529 196.898C81.7618 196.456 80.8363 196.319 79.9511 196.513C78.865 196.758 77.8675 197.298 77.0684 198.074C76.2644 198.852 75.5457 199.714 74.9245 200.644C74.3417 201.487 73.8838 202.309 73.4519 202.97C73.1357 203.502 72.7881 204.015 72.4112 204.505C72.2735 204.672 72.1013 204.807 71.9065 204.901Z" fill="#C8C8EE"/>
<path d="M101.499 209.979C101.07 210.045 100.634 210.036 100.208 209.953C99.0585 209.703 97.9496 209.291 96.9146 208.731C96.1991 208.371 95.454 208.073 94.6875 207.841C94.2631 207.72 93.827 207.645 93.3866 207.617C92.9177 207.603 92.4486 207.638 91.9869 207.721C91.0346 207.872 90.0512 208.189 88.9845 208.356C88.4379 208.45 87.8807 208.466 87.3297 208.403C86.7608 208.324 86.2119 208.138 85.7114 207.856C84.6967 207.31 83.8538 206.566 82.9275 206.092C82.0163 205.657 81.0315 205.395 80.024 205.322C78.0883 205.156 76.3243 205.395 74.8205 205.322C73.6416 205.311 72.4699 205.136 71.3393 204.802C71.035 204.708 70.7362 204.597 70.4443 204.469C70.3401 204.428 70.2407 204.375 70.1477 204.313C70.1477 204.287 70.5744 204.484 71.3705 204.703C72.5002 204.985 73.6613 205.122 74.8257 205.109C76.2931 205.145 78.0519 204.88 80.0292 205.041C81.071 205.105 82.0906 205.37 83.0316 205.822C84.0047 206.342 84.8424 207.055 85.8207 207.581C86.295 207.845 86.8133 208.022 87.3505 208.101C87.8706 208.157 88.3958 208.141 88.9116 208.054C89.9523 207.898 90.941 207.586 91.9192 207.435C92.3973 207.358 92.8817 207.326 93.3658 207.341C93.8241 207.375 94.2776 207.457 94.7187 207.586C95.511 207.835 96.2791 208.155 97.0135 208.543C98.0304 209.111 99.1166 209.545 100.245 209.834C100.659 209.909 101.078 209.957 101.499 209.979Z" fill="#C8C8EE"/>
<path d="M112.343 30.2707C112.125 30.4644 111.89 30.6385 111.641 30.791C111.406 30.9524 111.12 31.1449 110.808 31.3894C110.496 31.634 110.111 31.9098 109.736 32.2272C109.362 32.5446 108.919 32.8933 108.493 33.3043C108.066 33.7154 107.613 34.1473 107.15 34.626C106.168 35.6792 105.275 36.8122 104.481 38.0135C103.702 39.2237 103.029 40.498 102.467 41.8225C102.222 42.4417 101.988 43.0297 101.822 43.5969C101.655 44.1641 101.494 44.6844 101.369 45.158C101.244 45.6315 101.161 46.0946 101.078 46.4849C100.994 46.8751 100.942 47.2134 100.901 47.4943C100.873 47.7861 100.82 48.075 100.744 48.3581C100.74 48.0641 100.757 47.7701 100.797 47.4787C100.797 47.1977 100.854 46.8543 100.927 46.438C100.999 46.0217 101.051 45.5846 101.182 45.0955C101.312 44.6064 101.416 44.0548 101.603 43.4928C101.79 42.9309 101.999 42.322 102.238 41.6924C102.789 40.3448 103.463 39.0506 104.252 37.8262C105.056 36.613 105.965 35.4726 106.968 34.4179C107.441 33.9392 107.889 33.4865 108.342 33.1014C108.794 32.7163 109.216 32.3521 109.616 32.0607C110.017 31.7693 110.392 31.4883 110.72 31.2542C111.047 31.02 111.339 30.8327 111.578 30.687C111.822 30.529 112.078 30.3898 112.343 30.2707Z" fill="#C8C8EE"/>
<path d="M92.8507 79.6156C91.6324 80.1154 90.2932 80.2422 89.0027 79.9799C87.7123 79.7177 86.5288 79.0783 85.6022 78.1427C84.6755 77.2072 84.0475 76.0176 83.7977 74.7247C83.5478 73.4318 83.6875 72.0939 84.1988 70.8804C84.7102 69.667 85.5704 68.6327 86.6702 67.9086C87.77 67.1845 89.0601 66.8032 90.3768 66.8131C91.6936 66.823 92.9778 67.2236 94.0666 67.964C95.1555 68.7045 96 69.7516 96.4931 70.9726C97.1527 72.6021 97.1398 74.4265 96.4571 76.0464C95.7744 77.6664 94.4776 78.9498 92.8507 79.6156Z" fill="#FFDCE6"/>
<g opacity="0.3">
<path opacity="0.3" d="M87.7824 75.1094L86.9707 75.4528L86.6637 74.7243L87.4546 74.3913C87.2055 73.7378 87.1442 73.0276 87.2777 72.3411L88.3184 72.3671C88.2052 72.9061 88.2321 73.465 88.3965 73.9906L89.6089 73.4703C89.4684 72.5857 89.3591 71.571 90.3946 71.1339C91.1647 70.8113 92.0597 71.0923 92.6738 72.1746L93.4803 71.8364L93.7873 72.5649L92.9912 72.8979C93.1831 73.4289 93.2438 73.9983 93.1681 74.5578H92.1274C92.1839 74.133 92.1538 73.7011 92.0389 73.2882L90.8057 73.8085C90.9566 74.6931 91.0555 75.6922 90.0356 76.1189C89.2863 76.4675 88.3965 76.1917 87.7824 75.1094ZM90.686 73.028L91.7267 72.5961C91.4822 72.2475 91.2064 72.185 90.967 72.2839C90.7276 72.3827 90.6548 72.6741 90.686 73.0332V73.028ZM89.4632 75.0157C89.7182 74.9065 89.765 74.6411 89.7442 74.282L88.7399 74.7035C88.9741 75.0365 89.2082 75.1146 89.4632 75.0209V75.0157Z" fill="black"/>
</g>
<g opacity="0.3">
<path opacity="0.3" d="M92.7726 77.8933C92.7726 77.862 92.96 77.758 93.293 77.5394C93.7559 77.2298 94.1684 76.8507 94.5158 76.4155C94.7501 76.1176 94.9507 75.7947 95.1142 75.4528C95.3036 75.0597 95.4401 74.6433 95.5201 74.2144C95.6124 73.7432 95.6317 73.2605 95.5773 72.7834C95.5525 72.5304 95.5072 72.2798 95.442 72.0341C95.3742 71.7839 95.289 71.5387 95.1871 71.3004C95.0796 71.0617 94.9562 70.8305 94.8176 70.6083C94.6793 70.3967 94.5263 70.195 94.3597 70.0047C94.1997 69.8183 94.0258 69.6444 93.8394 69.4844C93.6602 69.3319 93.4687 69.1944 93.267 69.0733C92.8975 68.8493 92.5004 68.6744 92.0858 68.553C91.7199 68.4425 91.343 68.3727 90.9618 68.3448C90.408 68.3069 89.8517 68.3542 89.3123 68.4853C89.1143 68.5526 88.9105 68.6014 88.7035 68.631C88.8695 68.4955 89.063 68.3978 89.2707 68.3448C89.8175 68.1478 90.3963 68.0542 90.9774 68.069C91.8502 68.0968 92.702 68.3437 93.4543 68.7871C93.6719 68.9144 93.8789 69.0588 94.0735 69.219C94.2773 69.3776 94.4686 69.5516 94.6459 69.7394C94.8351 69.9431 95.009 70.1605 95.1663 70.3898C95.3192 70.6269 95.4531 70.8757 95.5669 71.1339C95.6789 71.3919 95.7711 71.658 95.8427 71.93C95.9084 72.193 95.9519 72.4611 95.9728 72.7314C95.991 72.9947 95.991 73.259 95.9728 73.5223C95.9567 73.7743 95.922 74.0248 95.8687 74.2716C95.7729 74.7272 95.6172 75.1682 95.4056 75.5829C95.2189 75.9402 94.9901 76.2739 94.724 76.5768C94.3429 77.0158 93.8843 77.381 93.371 77.6539C93.1913 77.7762 92.9871 77.8578 92.7726 77.8933Z" fill="black"/>
</g>
<path d="M92.3304 78.1118C92.6968 77.9114 93.0528 77.6926 93.3971 77.4562C94.3103 76.7772 94.9728 75.8147 95.2808 74.7191C95.5085 73.9165 95.5266 73.0689 95.3335 72.2572C95.1404 71.4455 94.7424 70.6969 94.1776 70.0828C93.8564 69.7264 93.4826 69.421 93.0693 69.1774C92.6394 68.9204 92.1725 68.7308 91.6851 68.6154C90.6573 68.3651 89.5769 68.4433 88.5959 68.839C87.6148 69.2348 86.7826 69.9282 86.2162 70.8217C85.9429 71.2413 85.7375 71.7014 85.6074 72.185C85.4748 72.6447 85.4151 73.1222 85.4305 73.6004C85.4509 74.4348 85.6838 75.2503 86.1072 75.9696C86.5306 76.6889 87.1305 77.2883 87.8501 77.7112C88.8333 78.2852 89.9775 78.521 91.1075 78.3824C91.5195 78.3129 91.9276 78.2226 92.3304 78.1118C91.9496 78.2981 91.5424 78.4244 91.1232 78.4865C89.9643 78.6739 88.7763 78.459 87.7565 77.8777C87.0508 77.4793 86.4512 76.9171 86.0081 76.2386C85.4972 75.4548 85.211 74.5459 85.1807 73.6108C85.1624 73.1068 85.2221 72.6031 85.3577 72.1174C85.4899 71.6066 85.7024 71.1201 85.9873 70.676C86.5872 69.7389 87.4637 69.0115 88.4954 68.5946C89.5286 68.179 90.6663 68.0989 91.7476 68.3656C92.2609 68.4846 92.7513 68.6867 93.1994 68.964C93.6345 69.2175 94.0263 69.5389 94.3597 69.9163C94.9467 70.5627 95.3567 71.3499 95.55 72.2014C95.7432 73.0529 95.7132 73.9399 95.4629 74.7764C95.1317 75.9027 94.4247 76.8815 93.4595 77.5499C93.1154 77.796 92.7342 77.9857 92.3304 78.1118Z" fill="#C8C8EE"/>
<path d="M84.0828 74.1311C83.8848 73.2721 83.9173 72.3761 84.1768 71.5337C84.4363 70.6912 84.9136 69.9323 85.5606 69.3335C85.1074 70.0519 84.7307 70.8158 84.4366 71.6126C84.2278 72.4369 84.1092 73.2813 84.0828 74.1311Z" fill="white"/>
<path d="M84.2389 75.2447C84.1609 75.2447 84.0776 75.1406 84.0464 74.9845C84.0152 74.8284 84.0464 74.6879 84.1244 74.6723C84.2025 74.6567 84.2805 74.7763 84.3118 74.9324C84.343 75.0886 84.3118 75.229 84.2389 75.2447Z" fill="white"/>
<path d="M85.8156 79.4335C89.9784 81.1038 95.1819 80.8801 98.8244 78.3095C96.9147 76.7745 94.3597 75.4008 91.9297 75.7338C90.7143 75.9081 89.5464 76.3255 88.4959 76.9611C87.4454 77.5968 86.5338 78.4377 85.8156 79.4335Z" fill="#F6F6FE"/>
<path d="M92.8507 66.7473C94.7076 67.9976 96.2297 69.6839 97.2838 71.6588C98.3379 73.6337 98.8919 75.8368 98.8972 78.0754L98.7931 78.4604C97.613 78.1132 96.5164 77.5284 95.5706 76.7419C94.6248 75.9553 93.8499 74.9837 93.2933 73.8867C92.7368 72.7897 92.4104 71.5905 92.3343 70.3627C92.2582 69.135 92.4339 67.9047 92.8507 66.7473Z" fill="#F6F6FE"/>
<path d="M109.351 87.6187C109.2 87.4154 109.069 87.1975 108.961 86.9682C108.616 86.3809 108.239 85.8129 107.832 85.2667C107.22 84.463 106.539 83.7143 105.797 83.0292C104.964 82.2486 103.981 81.4681 102.946 80.6407C101.221 79.1903 99.3187 77.9662 97.2841 76.9983C96.4984 76.6444 95.8427 76.3947 95.3848 76.2386C95.1429 76.1691 94.9064 76.0821 94.6771 75.9784C94.9282 76.0047 95.1758 76.057 95.416 76.1345C96.0775 76.3222 96.7259 76.5534 97.3569 76.8266C99.437 77.7467 101.375 78.9592 103.112 80.4274C104.153 81.2548 105.136 82.0509 105.969 82.847C106.711 83.5514 107.387 84.3231 107.988 85.1522C108.376 85.7168 108.723 86.308 109.028 86.9214C109.158 87.1429 109.266 87.3764 109.351 87.6187Z" fill="#C8C8EE"/>
<path d="M119.727 103.994C119.777 103.293 120.034 102.622 120.466 102.067C120.898 101.512 121.484 101.097 122.152 100.875C122.819 100.654 123.537 100.635 124.215 100.822C124.893 101.009 125.501 101.392 125.961 101.924C126.42 102.456 126.712 103.113 126.799 103.811C126.885 104.508 126.763 105.216 126.447 105.845C126.131 106.473 125.636 106.993 125.024 107.34C124.413 107.687 123.712 107.844 123.01 107.793C122.545 107.759 122.091 107.634 121.675 107.425C121.258 107.216 120.886 106.927 120.581 106.574C120.276 106.221 120.044 105.812 119.897 105.369C119.751 104.926 119.693 104.459 119.727 103.994Z" fill="#FFDCE6"/>
<g opacity="0.3">
<path opacity="0.3" d="M123.083 102.626L123.114 102.152L123.531 102.178L123.505 102.636C123.882 102.669 124.243 102.808 124.545 103.037L124.28 103.557C124.051 103.371 123.776 103.251 123.484 103.208L123.442 103.911C123.9 104.051 124.415 104.239 124.379 104.837C124.379 105.285 124.004 105.649 123.338 105.685L123.307 106.148H122.885L122.917 105.69C122.617 105.654 122.329 105.547 122.079 105.378L122.318 104.858C122.508 104.986 122.723 105.075 122.948 105.118L122.989 104.405C122.532 104.265 122.027 104.077 122.063 103.484C122.079 103.021 122.422 102.662 123.083 102.626ZM123.395 104.509L123.359 105.103C123.583 105.066 123.682 104.952 123.687 104.811C123.692 104.671 123.577 104.577 123.395 104.509ZM122.729 103.469C122.729 103.614 122.839 103.703 123.016 103.776L123.052 103.193C122.839 103.214 122.74 103.318 122.729 103.432V103.469Z" fill="black"/>
</g>
<g opacity="0.3">
<path opacity="0.3" d="M120.57 104.364C120.57 104.364 120.57 104.483 120.622 104.691C120.66 104.987 120.744 105.275 120.872 105.545C120.957 105.73 121.064 105.904 121.189 106.065C121.341 106.248 121.516 106.411 121.709 106.549C121.809 106.626 121.915 106.694 122.027 106.752C122.141 106.816 122.259 106.871 122.381 106.919C122.508 106.963 122.639 107 122.771 107.028C122.909 107.053 123.048 107.07 123.187 107.08C123.326 107.09 123.465 107.09 123.603 107.08C123.739 107.065 123.873 107.039 124.004 107.002C124.13 106.967 124.254 106.924 124.374 106.872C124.702 106.726 124.998 106.515 125.243 106.252C125.382 106.104 125.504 105.94 125.607 105.763C125.758 105.507 125.867 105.227 125.929 104.936C125.945 104.827 125.969 104.719 126.002 104.613C126.002 104.613 126.033 104.733 126.002 104.952C125.968 105.261 125.876 105.561 125.732 105.836C125.628 106.022 125.506 106.196 125.367 106.357C125.202 106.543 125.013 106.708 124.805 106.846C124.691 106.916 124.573 106.98 124.452 107.038C124.324 107.098 124.192 107.146 124.056 107.184C123.915 107.226 123.771 107.256 123.624 107.272C123.474 107.283 123.322 107.283 123.172 107.272C123.021 107.266 122.872 107.248 122.724 107.22C122.582 107.19 122.443 107.148 122.308 107.095C122.173 107.049 122.044 106.988 121.923 106.913C121.805 106.85 121.693 106.775 121.59 106.69C121.394 106.54 121.219 106.365 121.069 106.169C120.943 105.994 120.837 105.806 120.752 105.607C120.631 105.32 120.564 105.013 120.554 104.702C120.535 104.589 120.54 104.474 120.57 104.364Z" fill="black"/>
</g>
<path d="M120.565 104.109C120.57 104.332 120.59 104.554 120.622 104.775C120.73 105.377 121.035 105.927 121.491 106.336C121.825 106.635 122.229 106.844 122.666 106.943C123.103 107.043 123.558 107.029 123.989 106.903C124.515 106.744 124.98 106.43 125.324 106.002C125.668 105.573 125.873 105.051 125.914 104.503C125.955 103.955 125.828 103.408 125.551 102.933C125.274 102.459 124.86 102.079 124.363 101.845C123.956 101.657 123.507 101.577 123.06 101.611C122.613 101.646 122.182 101.795 121.808 102.043C121.298 102.378 120.915 102.874 120.721 103.453C120.655 103.668 120.603 103.887 120.565 104.109C120.569 103.882 120.608 103.658 120.679 103.443C120.864 102.845 121.248 102.329 121.767 101.98C122.15 101.719 122.594 101.561 123.056 101.521C123.519 101.482 123.983 101.563 124.405 101.757C124.923 101.997 125.356 102.39 125.646 102.882C125.935 103.375 126.067 103.944 126.025 104.514C125.982 105.084 125.767 105.627 125.408 106.072C125.049 106.516 124.563 106.841 124.015 107.002C123.642 107.106 123.252 107.129 122.87 107.071C122.487 107.013 122.122 106.874 121.797 106.664C121.473 106.454 121.196 106.177 120.987 105.853C120.777 105.528 120.638 105.162 120.58 104.78C120.541 104.558 120.536 104.332 120.565 104.109Z" fill="#C8C8EE"/>
<path d="M124.426 101.08C124.562 101.096 124.694 101.137 124.816 101.2C125.424 101.476 125.924 101.946 126.236 102.537C126.307 102.656 126.356 102.786 126.382 102.922C126.161 102.523 125.886 102.155 125.565 101.829C125.221 101.53 124.837 101.278 124.426 101.08Z" fill="white"/>
<path d="M123.859 100.893C123.859 100.862 123.937 100.856 124.02 100.893C124.103 100.929 124.166 100.96 124.155 100.987C124.145 101.013 124.077 101.023 123.994 100.987C123.911 100.95 123.848 100.919 123.859 100.893Z" fill="white"/>
<path d="M122.334 99.8365C121.16 100.565 120.183 101.57 119.489 102.764C118.794 103.958 118.402 105.304 118.348 106.684L118.405 106.924C119.141 106.736 119.83 106.4 120.431 105.937C121.032 105.473 121.533 104.892 121.901 104.229C122.27 103.565 122.5 102.833 122.576 102.078C122.652 101.323 122.573 100.56 122.344 99.8365H122.334Z" fill="#F6F6FE"/>
<path d="M126.366 107.371C125.113 107.954 123.735 108.221 122.355 108.148C120.974 108.076 119.632 107.666 118.447 106.955L118.275 106.773C118.836 106.26 119.495 105.868 120.213 105.619C120.931 105.371 121.692 105.271 122.45 105.327C123.207 105.383 123.946 105.593 124.619 105.945C125.293 106.296 125.887 106.782 126.366 107.371Z" fill="#F6F6FE"/>
<path d="M119.987 105.742C119.757 105.933 119.514 106.107 119.259 106.263C119.014 106.429 118.738 106.632 118.4 106.892C118.062 107.153 117.692 107.413 117.302 107.767C116.912 108.121 116.475 108.469 116.038 108.901C115.601 109.333 115.148 109.796 114.674 110.29C112.664 112.499 111.047 115.035 109.892 117.789C109.648 118.429 109.372 119.032 109.216 119.615C109.122 119.906 109.023 120.187 108.945 120.458L108.737 121.249C108.591 121.769 108.519 122.212 108.43 122.618C108.342 123.023 108.284 123.372 108.243 123.658C108.215 123.961 108.161 124.26 108.081 124.553C108.08 124.25 108.1 123.948 108.139 123.648C108.168 123.299 108.215 122.951 108.279 122.607C108.352 122.196 108.414 121.722 108.55 121.218C108.612 120.963 108.68 120.697 108.748 120.416C108.815 120.135 108.914 119.86 109.002 119.563C109.169 118.97 109.419 118.361 109.663 117.711C110.244 116.319 110.941 114.979 111.745 113.704C112.564 112.442 113.487 111.25 114.503 110.139C114.981 109.619 115.429 109.156 115.897 108.75C116.365 108.344 116.782 107.959 117.193 107.631C117.604 107.304 117.984 107.028 118.322 106.783C118.607 106.569 118.905 106.371 119.212 106.19C119.457 106.019 119.716 105.869 119.987 105.742Z" fill="#C8C8EE"/>
<path d="M100.656 27.8874C97.9312 28.5029 95.085 28.2961 92.4777 27.2932C89.8705 26.2903 87.6194 24.5365 86.0093 22.2536C84.3993 19.9708 83.5027 17.2616 83.4331 14.469C83.3635 11.6764 84.1239 8.9259 85.6182 6.56568C87.1125 4.20545 89.2734 2.3416 91.8274 1.21005C94.3815 0.0784945 97.2138 -0.269891 99.9659 0.20899C102.718 0.687871 105.266 1.97249 107.288 3.90024C109.31 5.82799 110.714 8.31221 111.323 11.0385C112.143 14.6873 111.479 18.5123 109.479 21.6721C107.479 24.8319 104.305 27.0676 100.656 27.8874Z" fill="#FFDCE6"/>
<g opacity="0.3">
<path opacity="0.3" d="M91.5759 16.6947L89.7546 17.1266L89.3644 15.4927L91.1388 15.0712C90.8389 13.6148 90.9561 12.1034 91.477 10.7107L93.6729 11.1322C93.245 12.2213 93.1069 13.4028 93.2722 14.5613L95.9728 13.9316C95.9728 12.0168 96.1029 9.85729 98.4341 9.30051C100.156 8.88944 101.936 9.78965 102.841 12.2925L104.652 11.8606L105.037 13.4893L103.263 13.9108C103.475 15.0915 103.406 16.3057 103.06 17.4544L100.864 17.1162C101.125 16.2449 101.21 15.3304 101.114 14.426L98.3665 15.0764C98.3665 16.9809 98.2416 19.1091 95.9468 19.6607C94.2557 20.0614 92.4969 19.1768 91.5759 16.6947ZM98.3821 13.3489L100.692 12.7973C100.292 11.9803 99.7402 11.7566 99.2042 11.8815C98.6683 12.0063 98.4393 12.5787 98.3821 13.3489ZM95.1299 17.085C95.6971 16.9497 95.8948 16.4033 95.9728 15.6436L93.7249 16.164C94.0996 16.9497 94.6095 17.2099 95.1299 17.085Z" fill="black"/>
</g>
<g opacity="0.3">
<path opacity="0.3" d="M101.077 24.2502C101.077 24.1825 101.509 24.0368 102.274 23.6882C103.354 23.1973 104.35 22.5387 105.225 21.7369C105.822 21.1916 106.357 20.5826 106.822 19.9209C107.35 19.1623 107.776 18.3385 108.092 17.47C108.267 17.0009 108.406 16.519 108.508 16.0286C108.614 15.5137 108.683 14.9921 108.716 14.4676C108.747 13.9299 108.737 13.3906 108.685 12.8545C108.632 12.3036 108.538 11.7575 108.404 11.2206C108.268 10.6886 108.094 10.1669 107.884 9.65952C107.67 9.16591 107.42 8.68927 107.134 8.23376C106.859 7.79201 106.549 7.37269 106.208 6.97971C105.887 6.60805 105.539 6.26023 105.167 5.939C104.471 5.3215 103.698 4.79678 102.867 4.37795C102.142 4.02171 101.379 3.74602 100.593 3.55579C99.4437 3.28442 98.2588 3.19314 97.0811 3.28521C96.6446 3.35917 96.2018 3.38881 95.7594 3.37367C96.1467 3.1634 96.574 3.03749 97.0134 3.00422C98.2271 2.7726 99.4735 2.7726 100.687 3.00422C102.511 3.34485 104.215 4.15555 105.63 5.35621C106.042 5.70073 106.428 6.07463 106.786 6.47497C107.541 7.3319 108.159 8.30088 108.617 9.34731C109.103 10.4488 109.402 11.6235 109.502 12.8233C109.549 13.4016 109.549 13.9829 109.502 14.5612C109.425 15.6559 109.185 16.7329 108.789 17.7562C108.121 19.4872 107.019 21.0174 105.589 22.2C104.638 22.9893 103.55 23.5962 102.378 23.99C101.968 24.1679 101.525 24.2565 101.077 24.2502Z" fill="black"/>
</g>
<path d="M100.136 24.5624C100.189 24.5367 100.244 24.5175 100.302 24.5051L100.796 24.3542C101.067 24.2821 101.331 24.19 101.587 24.0785C101.945 23.9487 102.292 23.794 102.628 23.6153C103.562 23.1502 104.421 22.5487 105.178 21.8305C106.295 20.7928 107.178 19.5288 107.769 18.1227C108.359 16.7167 108.643 15.201 108.602 13.6766C108.533 11.7604 107.945 9.89893 106.9 8.29098C106.623 7.86325 106.317 7.45471 105.984 7.06816C105.621 6.68126 105.231 6.31964 104.819 5.98582C104.002 5.28169 103.078 4.71254 102.082 4.29988C101.057 3.86098 99.9705 3.58532 98.8607 3.48293C96.5572 3.25629 94.2416 3.77229 92.2522 4.95553C91.3069 5.52514 90.4556 6.23781 89.7285 7.06816C88.9921 7.86751 88.3879 8.77916 87.9385 9.76878C87.4916 10.7004 87.1999 11.6987 87.0747 12.7244C86.829 14.4993 87.0424 16.3076 87.6947 17.9766C88.347 19.6455 89.4163 21.1193 90.8005 22.2572C91.8658 23.1425 93.092 23.8139 94.4117 24.2346C95.4017 24.5596 96.4347 24.735 97.4766 24.7549C97.856 24.7793 98.2367 24.7793 98.6161 24.7549C98.8953 24.744 99.1735 24.7144 99.4487 24.6665L99.9691 24.5884C100.026 24.5815 100.084 24.5815 100.141 24.5884C100.088 24.6121 100.032 24.6279 99.9743 24.6352L99.4539 24.7341C99.18 24.7951 98.9015 24.8334 98.6213 24.8486C98.2397 24.8925 97.8553 24.9081 97.4714 24.8954C96.4118 24.8923 95.359 24.7273 94.3493 24.4063C91.9079 23.6702 89.8093 22.0872 88.431 19.9419C87.0526 17.7967 86.485 15.23 86.8302 12.7036C86.8999 12.1876 87.0024 11.6766 87.1372 11.1737C87.2939 10.6625 87.4833 10.162 87.7044 9.67512C88.1549 8.66639 88.7626 7.73553 89.5048 6.91725C90.263 6.0616 91.1516 5.33105 92.1378 4.75259C93.1547 4.1606 94.2544 3.72389 95.4004 3.45691C96.5508 3.21391 97.7306 3.14028 98.9023 3.23837C100.043 3.33065 101.162 3.60287 102.217 4.04491C103.237 4.46719 104.182 5.05048 105.016 5.77248C105.425 6.11683 105.809 6.4889 106.166 6.88603C107.555 8.46839 108.446 10.4257 108.726 12.5123C109.007 14.5989 108.665 16.7218 107.743 18.6148C107.14 19.8799 106.297 21.0161 105.261 21.9606C104.488 22.6774 103.611 23.2722 102.659 23.7246C102.323 23.8975 101.975 24.047 101.619 24.1721C101.357 24.2762 101.087 24.3597 100.812 24.4219L100.292 24.5468C100.24 24.5577 100.188 24.5629 100.136 24.5624Z" fill="#C8C8EE"/>
<path d="M84.1608 13.3644C84.128 13.2212 84.1192 13.0735 84.1348 12.9273C84.1379 12.5336 84.1692 12.1406 84.2285 11.7513C84.5995 9.14303 85.7979 6.72267 87.6472 4.84626C87.9249 4.56565 88.2204 4.3032 88.5318 4.06053C88.7555 3.89401 88.8804 3.80555 88.896 3.82116C88.9116 3.83677 88.4485 4.25306 87.7825 4.98155C86.919 5.93276 86.189 6.99712 85.6126 8.14529C85.0453 9.29938 84.6358 10.5245 84.395 11.7878C84.2389 12.7504 84.2077 13.3644 84.1608 13.3644Z" fill="white"/>
<path d="M84.0983 15.7529C84.0255 15.7529 83.9526 15.4823 83.9422 15.1388C83.9318 14.7954 83.9839 14.5196 84.0619 14.5144C84.14 14.5092 84.2024 14.7902 84.2128 15.1284C84.2232 15.4667 84.1712 15.7476 84.0983 15.7529Z" fill="white"/>
</svg>
