<svg width="308" height="208" viewBox="0 0 308 208" fill="none" xmlns="http://www.w3.org/2000/svg">
<path d="M282.058 32.159C296.026 95.5168 245.599 160.493 169.425 177.286C93.2511 194.08 20.1765 156.333 6.20816 92.9749C-7.76018 29.6172 67.9591 79.3607 144.133 62.5668C220.307 45.773 268.089 -31.1987 282.058 32.159Z" fill="#FFF8D8" fill-opacity="0.61"/>
<path d="M248.859 3.80467L235.44 45.6681C235.286 46.1481 235.011 46.5801 234.641 46.9218C234.271 47.2635 233.818 47.5032 233.328 47.6175C232.837 47.7317 232.325 47.7166 231.842 47.5736C231.359 47.4306 230.921 47.1646 230.572 46.8016L223.595 39.5788C223.067 39.0358 222.35 38.7186 221.594 38.6939C220.837 38.6693 220.101 38.9391 219.539 39.4465L161.272 92.3426C160.751 92.8144 160.078 93.0824 159.376 93.0975C158.674 93.1125 157.99 92.8735 157.449 92.4244L120.454 61.6629C119.919 61.223 119.245 60.9879 118.553 60.9994C117.861 61.0109 117.195 61.2684 116.675 61.7258L44 126.133L46.7582 100.315C46.829 99.5859 47.1732 98.9109 47.7216 98.4256L116.304 37.6455C116.825 37.1902 117.491 36.9346 118.183 36.9242C118.875 36.9139 119.548 37.1494 120.082 37.5889L156.927 68.2938C157.467 68.7429 158.151 68.9818 158.853 68.9668C159.555 68.9518 160.229 68.6837 160.749 68.2119L206.718 26.4555C207.007 26.1932 207.241 25.8754 207.404 25.5211C207.568 25.1667 207.659 24.783 207.671 24.3929C207.684 24.0028 207.617 23.6141 207.476 23.2501C207.335 22.8861 207.122 22.5542 206.851 22.2742L199.987 15.1332C199.628 14.7624 199.374 14.3029 199.25 13.8018C199.127 13.3006 199.139 12.7758 199.285 12.2808C199.431 11.7858 199.706 11.3384 200.081 10.9843C200.457 10.6303 200.92 10.3823 201.422 10.2655L245.427 0.0767588C245.929 -0.0408719 246.453 -0.0230386 246.946 0.128434C247.438 0.279907 247.882 0.559582 248.231 0.938831C248.58 1.31808 248.822 1.78328 248.933 2.28683C249.043 2.79039 249.017 3.3142 248.859 3.80467Z" fill="#DCDCFF"/>
<path d="M172.915 160.887H119.194V173.078H172.915V160.887Z" fill="#C8C8EE"/>
<path opacity="0.2" d="M125.995 160.887H124.541V173.078H125.995V160.887Z" fill="black"/>
<path opacity="0.2" d="M133.47 160.887H132.015V173.078H133.47V160.887Z" fill="black"/>
<path opacity="0.2" d="M140.938 173.078H139.484V160.887L140.938 161.101V173.078Z" fill="black"/>
<path opacity="0.2" d="M148.413 160.887H146.958V173.078H148.413V160.887Z" fill="black"/>
<path opacity="0.2" d="M155.888 160.887H154.433V173.078H155.888V160.887Z" fill="black"/>
<path opacity="0.2" d="M163.356 160.887H161.901V173.078H163.356V160.887Z" fill="black"/>
<path opacity="0.2" d="M170.831 160.887H169.376V173.078H170.831V160.887Z" fill="black"/>
<path opacity="0.09" d="M172.915 160.887H119.194V163.4H172.915V160.887Z" fill="black"/>
<path d="M181.29 148.689H127.569V160.881H181.29V148.689Z" fill="#C8C8EE"/>
<path opacity="0.2" d="M134.37 148.689H132.916V160.881H134.37V148.689Z" fill="black"/>
<path opacity="0.2" d="M141.845 148.689H140.391V160.881H141.845V148.689Z" fill="black"/>
<path opacity="0.2" d="M149.32 148.689H147.865V160.881H149.32V148.689Z" fill="black"/>
<path opacity="0.2" d="M156.788 148.689H155.334V160.881H156.788V148.689Z" fill="black"/>
<path opacity="0.2" d="M164.263 148.689H162.808V160.881H164.263V148.689Z" fill="black"/>
<path opacity="0.2" d="M171.731 148.689H170.277V160.881H171.731V148.689Z" fill="black"/>
<path opacity="0.2" d="M179.206 148.689H177.751V160.881H179.206V148.689Z" fill="black"/>
<path opacity="0.09" d="M181.29 148.689H127.569V151.202H181.29V148.689Z" fill="black"/>
<path d="M173.822 136.498H120.101V148.689H173.822V136.498Z" fill="#C8C8EE"/>
<path opacity="0.2" d="M126.902 136.498H125.447V148.689H126.902V136.498Z" fill="black"/>
<path opacity="0.2" d="M134.37 148.696H132.916V136.511L134.37 136.498V148.696Z" fill="black"/>
<path opacity="0.2" d="M141.845 136.498H140.391V148.689H141.845V136.498Z" fill="black"/>
<path opacity="0.2" d="M149.32 136.498H147.865V148.689H149.32V136.498Z" fill="black"/>
<path opacity="0.2" d="M156.788 148.696H155.334V136.498L156.788 136.511V148.696Z" fill="black"/>
<path opacity="0.2" d="M164.263 136.498H162.808V148.689H164.263V136.498Z" fill="black"/>
<path opacity="0.2" d="M171.731 136.498H170.277V148.689H171.731V136.498Z" fill="black"/>
<path opacity="0.09" d="M173.822 136.498H120.101V139.502H173.822V136.498Z" fill="black"/>
<path d="M181.29 124.313H127.569V136.504H181.29V124.313Z" fill="#C8C8EE"/>
<path opacity="0.2" d="M134.37 124.313H132.916V136.504H134.37V124.313Z" fill="black"/>
<path opacity="0.2" d="M141.845 124.313H140.391V136.504H141.845V124.313Z" fill="black"/>
<path opacity="0.2" d="M149.32 124.313H147.865V136.504H149.32V124.313Z" fill="black"/>
<path opacity="0.2" d="M156.788 124.313H155.334V136.504H156.788V124.313Z" fill="black"/>
<path opacity="0.2" d="M164.263 124.313H162.808V136.504H164.263V124.313Z" fill="black"/>
<path opacity="0.2" d="M171.731 136.498L170.277 136.511V124.313L171.731 124.534V136.498Z" fill="black"/>
<path opacity="0.2" d="M179.206 124.313H177.751V136.504H179.206V124.313Z" fill="black"/>
<path opacity="0.09" d="M181.29 124.313H127.569V126.826H181.29V124.313Z" fill="black"/>
<path d="M183.652 112.122H129.931V124.313H183.652V112.122Z" fill="#C8C8EE"/>
<path opacity="0.2" d="M136.732 112.122H135.277V124.313H136.732V112.122Z" fill="black"/>
<path opacity="0.2" d="M144.2 112.122H142.746V124.313H144.2V112.122Z" fill="black"/>
<path opacity="0.2" d="M151.675 112.122H150.22V124.313H151.675V112.122Z" fill="black"/>
<path opacity="0.2" d="M159.15 112.122H157.695V124.313H159.15V112.122Z" fill="black"/>
<path opacity="0.2" d="M166.618 112.122H165.163V124.313H166.618V112.122Z" fill="black"/>
<path opacity="0.2" d="M174.093 112.122H172.638V124.313H174.093V112.122Z" fill="black"/>
<path opacity="0.2" d="M181.561 112.122H180.107V124.313H181.561V112.122Z" fill="black"/>
<path opacity="0.09" d="M183.652 112.122H129.931V114.634H183.652V112.122Z" fill="black"/>
<path d="M177.26 99.9306H123.539V112.122H177.26V99.9306Z" fill="#C8C8EE"/>
<path opacity="0.2" d="M130.34 99.9306H128.886V112.122H130.34V99.9306Z" fill="black"/>
<path opacity="0.2" d="M137.815 99.9306H136.36V112.122H137.815V99.9306Z" fill="black"/>
<path opacity="0.2" d="M145.283 99.9306H143.829V112.122H145.283V99.9306Z" fill="black"/>
<path opacity="0.2" d="M152.758 99.9306H151.303V112.122H152.758V99.9306Z" fill="black"/>
<path opacity="0.2" d="M160.226 99.9306H158.772V112.122H160.226V99.9306Z" fill="black"/>
<path opacity="0.2" d="M167.701 99.9306H166.247V112.122H167.701V99.9306Z" fill="black"/>
<path opacity="0.2" d="M175.176 99.9306H173.721V112.122H175.176V99.9306Z" fill="black"/>
<path opacity="0.09" d="M177.26 99.9306H123.539V102.443H177.26V99.9306Z" fill="black"/>
<path d="M105.744 161.07H52.0226V173.261H105.744V161.07Z" fill="#C8C8EE"/>
<path opacity="0.2" d="M58.8234 161.07H57.3688V173.261H58.8234V161.07Z" fill="black"/>
<path opacity="0.2" d="M66.2981 161.07H64.8435V173.261H66.2981V161.07Z" fill="black"/>
<path opacity="0.2" d="M73.7729 161.07H72.3182V173.261H73.7729V161.07Z" fill="black"/>
<path opacity="0.2" d="M81.2413 161.07H79.7866V173.261H81.2413V161.07Z" fill="black"/>
<path opacity="0.2" d="M88.716 161.07H87.2614V173.261H88.716V161.07Z" fill="black"/>
<path opacity="0.2" d="M96.1845 161.07H94.7299V173.261H96.1845V161.07Z" fill="black"/>
<path opacity="0.2" d="M103.659 161.07H102.205V173.261H103.659V161.07Z" fill="black"/>
<path opacity="0.09" d="M105.744 161.07H52.0226V163.582H105.744V161.07Z" fill="black"/>
<path d="M108.281 148.878H54.5603V161.07H108.281V148.878Z" fill="#C8C8EE"/>
<path opacity="0.2" d="M61.3613 148.878H59.9066V161.07H61.3613V148.878Z" fill="black"/>
<path opacity="0.2" d="M68.836 148.878H67.3813V161.07H68.836V148.878Z" fill="black"/>
<path opacity="0.2" d="M76.3044 148.878H74.8497V161.07H76.3044V148.878Z" fill="black"/>
<path opacity="0.2" d="M83.7791 148.878H82.3245V161.07H83.7791V148.878Z" fill="black"/>
<path opacity="0.2" d="M91.2475 148.878H89.7928V161.07H91.2475V148.878Z" fill="black"/>
<path opacity="0.2" d="M98.7222 148.878H97.2676V161.07H98.7222V148.878Z" fill="black"/>
<path opacity="0.2" d="M106.197 148.878H104.742V161.07H106.197V148.878Z" fill="black"/>
<path opacity="0.09" d="M108.281 148.878H54.5603V151.177H108.281V148.878Z" fill="black"/>
<path d="M104.988 136.681H51.267V148.872H104.988V136.681Z" fill="#C8C8EE"/>
<path opacity="0.2" d="M58.0678 136.681H56.6132V148.872H58.0678V136.681Z" fill="black"/>
<path opacity="0.2" d="M65.5425 136.681H64.0879V148.872H65.5425V136.681Z" fill="black"/>
<path opacity="0.2" d="M73.0109 136.681H71.5563V148.872H73.0109V136.681Z" fill="black"/>
<path opacity="0.2" d="M80.4856 136.681H79.031V148.872H80.4856V136.681Z" fill="black"/>
<path opacity="0.2" d="M87.9604 136.681H86.5057V148.872H87.9604V136.681Z" fill="black"/>
<path opacity="0.2" d="M95.4288 136.681H93.9741V148.872H95.4288V136.681Z" fill="black"/>
<path opacity="0.2" d="M102.903 136.681H101.449V148.872H102.903V136.681Z" fill="black"/>
<path opacity="0.09" d="M104.988 136.681H51.267V138.979H104.988V136.681Z" fill="black"/>
<path d="M222.996 130.566H211.227V173.588H222.996V130.566Z" fill="#FF547D"/>
<g opacity="0.4">
<path opacity="0.4" d="M222.996 142.014V150.761L211.227 162.531V153.123L222.996 142.014Z" fill="white"/>
<path opacity="0.4" d="M222.996 135.617V137.103L211.227 148.878V147.392L222.996 135.617Z" fill="white"/>
</g>
<path d="M237.486 144.426H225.717V173.588H237.486V144.426Z" fill="#FF547D"/>
<g opacity="0.4">
<path opacity="0.4" d="M237.486 153.022V161.68L225.717 173.444V164.136L237.486 153.022Z" fill="white"/>
<path opacity="0.4" d="M237.486 148.941V150.604L225.717 162.379V160.704L237.486 148.941Z" fill="white"/>
</g>
<path d="M208.5 109.893H196.731V173.588H208.5V109.893Z" fill="#FF547D"/>
<g opacity="0.4">
<path opacity="0.4" d="M208.507 121.851V130.554L196.731 142.323V132.965L208.507 121.851Z" fill="white"/>
<path opacity="0.4" d="M208.507 117.065V118.69L196.731 130.472V128.835L208.507 117.065Z" fill="white"/>
</g>
<path d="M204.048 115.22C203.871 115.503 203.615 115.728 203.31 115.865C203.006 116.002 202.667 116.046 202.338 115.991C202.009 115.936 201.703 115.784 201.46 115.555C201.217 115.326 201.047 115.031 200.972 114.705C200.897 114.38 200.92 114.04 201.039 113.727C201.158 113.415 201.366 113.145 201.638 112.952C201.91 112.758 202.233 112.649 202.567 112.639C202.901 112.63 203.23 112.719 203.513 112.896C203.891 113.135 204.159 113.513 204.259 113.948C204.359 114.383 204.283 114.84 204.048 115.22Z" fill="#263238"/>
<path d="M218.538 135.673C218.361 135.954 218.105 136.177 217.802 136.312C217.499 136.448 217.162 136.491 216.835 136.435C216.507 136.38 216.203 136.229 215.962 136.001C215.72 135.773 215.551 135.479 215.477 135.155C215.402 134.831 215.425 134.493 215.543 134.182C215.66 133.872 215.867 133.603 216.138 133.41C216.408 133.216 216.729 133.108 217.061 133.097C217.393 133.086 217.721 133.174 218.003 133.35C218.191 133.467 218.354 133.62 218.483 133.8C218.612 133.98 218.704 134.184 218.754 134.4C218.803 134.616 218.81 134.84 218.773 135.058C218.736 135.277 218.656 135.486 218.538 135.673Z" fill="#263238"/>
<path d="M233.028 149.527C232.851 149.809 232.596 150.032 232.292 150.169C231.989 150.305 231.652 150.349 231.324 150.294C230.997 150.239 230.692 150.088 230.45 149.86C230.208 149.633 230.039 149.338 229.964 149.014C229.889 148.69 229.912 148.351 230.03 148.04C230.147 147.729 230.355 147.46 230.625 147.267C230.896 147.074 231.218 146.965 231.55 146.955C231.883 146.945 232.21 147.033 232.492 147.21C232.68 147.326 232.844 147.478 232.972 147.658C233.101 147.838 233.193 148.041 233.243 148.257C233.293 148.472 233.299 148.695 233.262 148.913C233.225 149.131 233.146 149.34 233.028 149.527Z" fill="#263238"/>
<path d="M231.605 148.62L216.668 162.531L217.109 134.779L202.619 143.74V114.326" stroke="#263238" stroke-miterlimit="10"/>
</svg>
