<svg width="270" height="196" viewBox="0 0 270 196" fill="none" xmlns="http://www.w3.org/2000/svg">
<path d="M244.052 28.6605C258.021 92.0182 216.212 155.094 150.669 169.544C85.1267 183.994 20.6704 144.346 6.70205 80.9885C-7.26629 17.6308 59.8347 69.2743 125.377 54.8243C190.92 40.3743 230.084 -34.6973 244.052 28.6605Z" fill="#FFF8D8" fill-opacity="0.31"/>
<path d="M107 82.3491V76.8192L110.415 75.8425C110.622 73.985 110.987 72.1485 111.506 70.3531L108.724 68.1303L110.833 63.0315L114.362 63.4357C115.278 61.8034 116.323 60.247 117.487 58.7814L115.763 55.6696L119.656 51.7629L122.781 53.4872C124.241 52.3214 125.795 51.2805 127.429 50.3754L127.025 46.846L132.13 44.7243L134.34 47.5061C136.143 46.9998 137.983 46.6349 139.843 46.4149L140.819 43H146.336L147.332 46.4149C149.188 46.6363 151.023 47.0011 152.822 47.5061L155.038 44.7243L160.137 46.846L159.733 50.3754C161.37 51.2788 162.927 52.3198 164.387 53.4872L167.499 51.7629L171.412 55.6696L169.681 58.7747C170.843 60.2388 171.884 61.7954 172.793 63.4289L176.322 63.0248L178.444 68.1236L175.649 70.3463C176.171 72.141 176.536 73.9778 176.74 75.8358L180.175 76.8125V82.3491L176.74 83.3257C176.538 85.1863 176.173 87.0255 175.649 88.822L178.444 91.038L176.322 96.1368L172.793 95.7461C171.884 97.3753 170.843 98.9274 169.681 100.387L171.412 103.512L167.485 107.385L164.373 105.654C162.912 106.824 161.355 107.869 159.719 108.779L160.123 112.309L155.024 114.417L152.808 111.635C151.013 112.153 149.176 112.518 147.319 112.726L146.322 116.148H140.806L139.869 112.726C138.008 112.52 136.167 112.155 134.367 111.635L132.157 114.417L127.052 112.309L127.456 108.779C125.823 107.867 124.269 106.822 122.808 105.654L119.663 107.385L115.77 103.485L117.494 100.36C116.33 98.899 115.285 97.3471 114.369 95.7192L110.839 96.1098L108.731 91.011L111.513 88.795C110.992 86.9977 110.627 85.1588 110.422 83.2988L107 82.3491ZM143.581 105.068C148.621 105.068 153.547 103.574 157.738 100.773C161.928 97.9733 165.194 93.9933 167.122 89.337C169.051 84.6806 169.555 79.557 168.571 74.614C167.588 69.6711 165.16 65.1309 161.596 61.5676C158.032 58.0044 153.491 55.5781 148.548 54.5957C143.604 53.6133 138.481 54.1189 133.825 56.0485C129.169 57.9781 125.19 61.245 122.391 65.4362C119.592 69.6273 118.099 74.5544 118.1 79.5943C118.107 86.3468 120.795 92.8203 125.573 97.592C130.351 102.364 136.828 105.043 143.581 105.041V105.068Z" fill="#8F8FFF"/>
<path d="M55.3288 100.037C55.5873 99.2094 55.9283 98.4099 56.3468 97.6504L55.8354 95.3288L59.3031 91.8649L61.6272 92.3756C62.3875 91.9576 63.1879 91.617 64.0164 91.3588L65.5271 89H70.4403L71.9464 91.3588C72.7763 91.617 73.5783 91.9577 74.3403 92.3756L76.6644 91.8649L80.1367 95.3288L79.6253 97.6504C80.0419 98.4108 80.3828 99.2101 80.6433 100.037L83 101.546V106.449L80.6433 107.958C80.3812 108.786 80.0403 109.587 79.6253 110.35L80.1367 112.671L76.6644 116.14L74.3403 115.629C73.5774 116.045 72.7756 116.386 71.9464 116.646L70.4403 119H65.5364L64.0443 116.651C63.2166 116.39 62.4163 116.05 61.6551 115.634L59.331 116.144L55.8633 112.676L56.3746 110.354C55.9578 109.592 55.6168 108.791 55.3567 107.963L53 106.454V101.546L55.3288 100.037ZM67.9907 110.791C69.3359 110.792 70.6511 110.394 71.7701 109.648C72.889 108.902 73.7614 107.842 74.2768 106.6C74.7922 105.359 74.9276 103.993 74.6657 102.675C74.4038 101.357 73.7565 100.146 72.8056 99.1959C71.8548 98.2454 70.643 97.598 69.3238 97.3355C68.0045 97.073 66.6369 97.2073 65.394 97.7213C64.1511 98.2353 63.0888 99.106 62.3413 100.223C61.5939 101.34 61.1949 102.654 61.1949 103.998C61.1949 105.799 61.9107 107.526 63.1851 108.799C64.4594 110.073 66.1879 110.79 67.9907 110.791Z" fill="#8F8FFF" fill-opacity="0.49"/>
<path d="M244.692 54.0404V142.182C257.227 142.182 269.122 126.367 269.122 98.0909C269.122 69.8151 257.227 54.0404 244.692 54.0404Z" fill="#94D6F7"/>
<path d="M234.4 57.2802L234.111 56.9569C234.703 56.4231 235.323 55.9217 235.97 55.4549L236.226 55.8119C235.588 56.2636 234.978 56.754 234.4 57.2802Z" fill="#FF547D"/>
<path d="M227.678 66.4204L227.294 66.225C228.514 63.802 230.001 61.5225 231.726 59.4289L232.063 59.7117C230.353 61.7758 228.883 64.0262 227.678 66.4204Z" fill="#FF547D"/>
<path d="M244.692 142.182C257.225 142.182 267.384 122.442 267.384 98.0909C267.384 73.7402 257.225 54 244.692 54C232.16 54 222 73.7402 222 98.0909C222 122.442 232.16 142.182 244.692 142.182Z" fill="#FF547D"/>
<path d="M244.692 133.365C254.721 133.365 262.851 117.572 262.851 98.0909C262.851 78.6096 254.721 62.8168 244.692 62.8168C234.663 62.8168 226.533 78.6096 226.533 98.0909C226.533 117.572 234.663 133.365 244.692 133.365Z" fill="white"/>
<path d="M244.692 124.548C252.214 124.548 258.311 112.703 258.311 98.0909C258.311 83.479 252.214 71.6337 244.692 71.6337C237.17 71.6337 231.073 83.479 231.073 98.0909C231.073 112.703 237.17 124.548 244.692 124.548Z" fill="#FF547D"/>
<path d="M244.692 115.725C249.707 115.725 253.772 107.83 253.772 98.0909C253.772 88.3521 249.707 80.4572 244.692 80.4572C239.678 80.4572 235.613 88.3521 235.613 98.0909C235.613 107.83 239.678 115.725 244.692 115.725Z" fill="white"/>
<path d="M244.692 106.908C247.199 106.908 249.232 102.96 249.232 98.0909C249.232 93.2215 247.199 89.2741 244.692 89.2741C242.185 89.2741 240.152 93.2215 240.152 98.0909C240.152 102.96 242.185 106.908 244.692 106.908Z" fill="#FF547D"/>
<path d="M224.739 108.228L196.986 114.136L205.541 119.503L174.337 141.074L150.803 124.966C150.518 124.77 150.187 124.651 149.843 124.623C149.498 124.594 149.152 124.655 148.839 124.801L116.441 139.764L89.0693 121.754C88.7797 121.564 88.4511 121.441 88.1077 121.395C87.7643 121.349 87.4149 121.381 87.0854 121.488L54.4915 132.165C53.8675 132.376 53.3528 132.826 53.0609 133.417C52.7689 134.008 52.7235 134.69 52.9346 135.314C53.1457 135.938 53.5962 136.453 54.1867 136.745C54.7773 137.037 55.4597 137.082 56.0838 136.871L87.4571 126.241L115.041 144.059C115.351 144.263 115.708 144.384 116.078 144.41C116.448 144.437 116.819 144.367 117.154 144.209L149.472 128.893L173.233 144.919C173.549 145.132 173.921 145.244 174.302 145.24C174.682 145.236 175.053 145.117 175.364 144.898L207.47 122.334L209.538 132.211L224.739 108.228Z" fill="#263238" fill-opacity="0.16"/>
</svg>
