<svg width="261" height="255" viewBox="0 0 261 255" fill="none" xmlns="http://www.w3.org/2000/svg">
<path d="M17.956 205.298C17.956 207.551 19.7991 209.385 22.0517 209.385H243.426C245.678 209.385 247.521 207.542 247.521 205.298L249.364 78.0795C249.364 75.8269 246.712 71.4426 241.862 71.7684L25.5052 66.1647C22.6847 66.0902 19.948 67.1793 17.9467 69.1713C15.9454 71.1633 14.847 73.8907 14.9215 76.7112L17.956 205.298Z" fill="url(#paint0_linear)"/>
<path d="M21.9959 201.37C21.9959 203.502 23.7366 205.242 25.8682 205.242H238.083C240.214 205.242 241.955 203.502 241.955 201.37L243.696 85.88C243.491 78.9266 237.394 76.4319 233.708 76.5809L26.3523 71.0144C24.3696 70.9585 22.452 71.7218 21.0464 73.1274C19.6409 74.533 18.8683 76.4505 18.9148 78.4332L21.9959 201.37Z" fill="#F2F4FF"/>
<path d="M239.665 146.506C239.339 146.506 239.088 146.245 239.097 145.929L239.237 136.565C239.237 136.257 239.497 136.006 239.805 136.006H239.814C240.13 136.006 240.382 136.267 240.372 136.583L240.233 145.948C240.233 146.255 239.972 146.506 239.665 146.506Z" fill="#BDD0FB"/>
<path d="M240 123.551C239.674 123.551 239.423 123.291 239.432 122.974L239.963 87.0994C239.954 84.9678 239.302 83.2643 238.036 82.0542C235.672 79.7923 231.92 79.904 231.762 79.9133L165.486 78.1354C165.169 78.1261 164.927 77.8654 164.937 77.5489C164.946 77.2324 165.188 76.9718 165.523 76.9997L231.762 78.7776C232.172 78.7497 236.165 78.6846 238.827 81.2351C240.326 82.6686 241.089 84.642 241.099 87.1087L240.568 122.993C240.568 123.309 240.317 123.551 240 123.551Z" fill="#BDD0FB"/>
<path d="M0.530582 219.941H260.469C260.758 219.941 261 219.708 261 219.41V209.282C261 208.994 260.767 208.752 260.469 208.752H0.530582C0.24202 208.752 0 208.984 0 209.282V219.41C0 219.708 0.232712 219.941 0.530582 219.941Z" fill="url(#paint1_linear)"/>
<path d="M204.367 0.856531L65.3175 0.000152285C60.747 -0.0277731 57.0888 3.7887 57.3215 8.34984L66.8906 205.913H221.635L230.226 29.4056L204.367 0.856531Z" fill="#C8C8EE"/>
<path d="M210.157 28.5585C205.624 28.4003 202.143 24.4907 202.506 19.9761L203.995 1.10788L230.254 29.2846L210.157 28.5585Z" fill="#7D97F4"/>
<path d="M144.486 50.6847C155.563 50.843 198.075 51.3922 208.817 51.5318C210.167 51.5504 211.256 52.444 211.219 53.5052C211.181 54.5198 210.129 55.311 208.836 55.2924L144.542 54.6874C143.304 54.6781 142.261 53.9241 142.14 52.956L142.113 52.714C141.964 51.6063 143.071 50.6661 144.486 50.6847Z" fill="#453890"/>
<path d="M143.341 62.4878C143.518 62.7392 143.853 62.9067 144.225 62.916L188.357 63.8655C188.915 63.8748 189.372 63.5397 189.381 63.1022L189.465 60.8216C189.483 60.3655 189.018 59.9838 188.441 59.9838L145.519 59.5929C143.611 59.5557 142.41 61.1567 143.341 62.4878Z" fill="#453890"/>
<path d="M143.62 71.3402C154.698 71.4984 197.209 72.0476 207.951 72.1873C209.301 72.2059 210.39 73.0995 210.353 74.1607C210.316 75.1753 209.264 75.9665 207.97 75.9479L143.676 75.3428C142.438 75.3335 141.396 74.5795 141.275 73.6115L141.247 73.3694C141.098 72.271 142.196 71.3216 143.62 71.3402Z" fill="#453890"/>
<path d="M142.466 83.1434C142.643 83.3947 142.978 83.5623 143.351 83.5716L187.482 84.521C188.041 84.5303 188.497 84.1952 188.506 83.7577L188.59 81.4772C188.608 81.021 188.143 80.6394 187.566 80.6394L144.645 80.2484C142.736 80.2205 141.535 81.8123 142.466 83.1434Z" fill="#453890"/>
<g opacity="0.3">
<path opacity="0.3" d="M108.788 35.911C108.602 36.3392 108.099 36.5347 107.671 36.3392C106.843 35.9669 105.977 35.6318 105.111 35.3339C104.674 35.185 104.441 34.7102 104.581 34.2727C104.581 34.2634 104.581 34.2634 104.59 34.2541C104.739 33.8073 105.223 33.5746 105.67 33.7328C106.582 34.0493 107.485 34.4031 108.36 34.794C108.76 34.9709 108.956 35.4177 108.825 35.8272C108.816 35.8552 108.807 35.8831 108.788 35.911ZM100.811 34.161C99.9172 33.9842 99.0049 33.8445 98.0927 33.7421C97.6273 33.6863 97.2922 33.2674 97.348 32.802C97.4039 32.3366 97.8228 32.0015 98.2882 32.0573C99.2377 32.1597 100.196 32.3086 101.146 32.5041C101.602 32.5972 101.9 33.044 101.816 33.5001C101.807 33.5374 101.797 33.5653 101.788 33.5932C101.649 33.9935 101.239 34.2448 100.811 34.161ZM93.6433 33.556C92.731 33.5839 91.8095 33.6491 90.9066 33.7515C90.4412 33.8073 90.0223 33.4722 89.9664 33.0068C89.9106 32.5414 90.2457 32.1225 90.7111 32.0666C91.6699 31.9549 92.638 31.8898 93.5967 31.8618C94.0622 31.8525 94.4531 32.2156 94.4717 32.6903C94.4717 32.7927 94.4624 32.8858 94.4345 32.9789C94.3135 33.2953 94.0063 33.5374 93.6433 33.556ZM86.513 34.5613C85.6287 34.794 84.7444 35.0639 83.888 35.3618C83.4505 35.5201 82.9665 35.2874 82.8082 34.8405C82.65 34.4031 82.8827 33.919 83.3295 33.7608C84.2324 33.4443 85.1633 33.1557 86.0941 32.9137C86.5502 32.7927 87.0063 33.0719 87.1274 33.5187C87.1739 33.677 87.1646 33.8445 87.1087 33.9935C87.025 34.2727 86.8016 34.4868 86.513 34.5613ZM79.7923 37.1304C78.9824 37.5493 78.1819 38.0054 77.4093 38.4988C77.0091 38.7501 76.4878 38.6291 76.2364 38.2288C75.9851 37.8286 76.1061 37.3073 76.5064 37.056C77.3162 36.544 78.1633 36.06 79.0197 35.6225C79.4386 35.4084 79.9505 35.5666 80.1646 35.9855C80.2763 36.1996 80.2856 36.4323 80.2205 36.6371C80.146 36.8512 79.9971 37.028 79.7923 37.1304ZM73.8069 41.1331C73.1088 41.7195 72.4293 42.3432 71.787 42.9948C71.4519 43.3299 70.9213 43.3299 70.5862 42.9948C70.2511 42.6597 70.2511 42.1291 70.5862 41.794C71.2657 41.1145 71.9825 40.4536 72.7178 39.8392C73.0716 39.5413 73.6115 39.5879 73.9093 39.9416C74.1048 40.1743 74.1514 40.4815 74.0676 40.7514C74.021 40.8911 73.9279 41.0214 73.8069 41.1331ZM61.8269 70.2499C61.3615 70.3058 60.9426 69.9707 60.8868 69.5053C60.7751 68.5558 60.7099 67.5784 60.6913 66.6196C60.682 66.1542 61.045 65.7633 61.5198 65.754C61.9852 65.7446 62.3761 66.1077 62.3855 66.5824C62.4134 67.4946 62.4692 68.4162 62.5716 69.3191C62.5902 69.4401 62.5716 69.5611 62.5344 69.6728C62.4413 69.9707 62.1714 70.2127 61.8269 70.2499ZM68.8548 46.3458C68.3056 47.0719 67.7844 47.8352 67.3003 48.6078C67.049 49.008 66.5277 49.1197 66.1275 48.8777C65.7272 48.6264 65.6155 48.1051 65.8575 47.7048C66.3695 46.895 66.9187 46.0945 67.4958 45.3219C67.7751 44.9495 68.3056 44.8751 68.6873 45.1543C68.9852 45.3777 69.0875 45.7594 68.9852 46.0945C68.9572 46.1876 68.9107 46.2713 68.8548 46.3458ZM61.6408 62.859C61.1754 62.8032 60.8402 62.3843 60.8961 61.9189C61.0078 60.9694 61.1567 60.0013 61.3429 59.0612C61.436 58.6051 61.8828 58.3072 62.3389 58.4003C62.795 58.4934 63.0929 58.9402 62.9998 59.3963C62.823 60.2899 62.674 61.2021 62.5716 62.1143C62.5623 62.1702 62.553 62.226 62.5344 62.2819C62.4227 62.6542 62.0503 62.9056 61.6408 62.859ZM65.1966 52.5452C64.8243 53.3737 64.4799 54.2394 64.182 55.0958C64.0237 55.5426 63.549 55.7753 63.1022 55.617C62.6647 55.4681 62.432 54.9934 62.5716 54.5559C62.5716 54.5466 62.5716 54.5466 62.5809 54.5373C62.8974 53.625 63.2605 52.7221 63.6514 51.8471C63.8469 51.4189 64.3402 51.2328 64.7684 51.4189C65.1687 51.5958 65.3642 52.0426 65.2245 52.4522C65.2245 52.4894 65.2152 52.5173 65.1966 52.5452Z" fill="#453890"/>
<path opacity="0.3" d="M63.7351 75.4999C63.791 75.3417 63.791 75.1648 63.7444 74.9972C63.6141 74.5784 63.5024 74.1502 63.3907 73.722C63.2697 73.2659 62.8136 72.9959 62.3575 73.1169C61.9014 73.238 61.6314 73.6941 61.7524 74.1502C61.8641 74.597 61.9944 75.0438 62.1248 75.4906C62.2644 75.9374 62.7298 76.1887 63.1859 76.0584C63.4559 75.9653 63.6514 75.7512 63.7351 75.4999Z" fill="#453890"/>
</g>
<g opacity="0.3">
<path opacity="0.3" d="M80.2855 95.3642C80.4158 94.9732 80.239 94.545 79.8666 94.3496C79.4757 94.1541 79.0847 93.94 78.7031 93.7259C78.2935 93.4932 77.7816 93.6421 77.5488 94.0424C77.3161 94.4519 77.4651 94.9639 77.8653 95.1966C78.2656 95.42 78.6845 95.6434 79.094 95.8575C79.5129 96.0716 80.0249 95.9041 80.239 95.4852C80.2483 95.448 80.2669 95.4107 80.2855 95.3642Z" fill="#453890"/>
<path opacity="0.3" d="M126.195 77.7991C126.027 78.2366 125.543 78.46 125.096 78.2925C124.659 78.1249 124.436 77.6409 124.603 77.1941C124.92 76.3563 125.208 75.4999 125.459 74.6249C125.59 74.1781 126.055 73.9175 126.511 74.0478C126.958 74.1781 127.219 74.6436 127.088 75.0997C126.977 75.4813 126.865 75.8537 126.744 76.226C126.577 76.7473 126.39 77.2778 126.195 77.7991ZM127.107 71.3018C126.642 71.2367 126.325 70.7992 126.39 70.343C126.521 69.4494 126.614 68.5465 126.67 67.6529C126.698 67.1875 127.098 66.8338 127.563 66.8617C128.029 66.8896 128.382 67.2899 128.354 67.7553C128.299 68.6954 128.196 69.6542 128.066 70.5851C128.057 70.6316 128.047 70.6781 128.029 70.7247C127.917 71.1063 127.526 71.3577 127.107 71.3018ZM124.259 81.9972C123.803 82.8257 123.309 83.6448 122.788 84.4361C122.527 84.827 122.006 84.9294 121.615 84.6781C121.224 84.4174 121.122 83.8962 121.373 83.5052C121.866 82.7605 122.341 81.9786 122.769 81.1874C122.993 80.7778 123.505 80.6289 123.924 80.8523C124.287 81.0478 124.445 81.476 124.324 81.8576C124.305 81.8948 124.287 81.9414 124.259 81.9972ZM127.554 64.0412C127.088 64.0784 126.679 63.7247 126.642 63.2593C126.577 62.3657 126.465 61.4628 126.325 60.5785C126.251 60.113 126.567 59.6849 127.023 59.6011C127.489 59.5266 127.917 59.8431 127.991 60.2992C128.14 61.2301 128.252 62.1795 128.326 63.129C128.336 63.2407 128.317 63.3524 128.289 63.4548C128.187 63.7713 127.898 64.0133 127.554 64.0412ZM119.986 88.0943C119.362 88.8017 118.702 89.4906 118.022 90.1515C117.687 90.4773 117.147 90.4679 116.821 90.1235C116.495 89.7884 116.505 89.2485 116.849 88.9227C117.501 88.2991 118.124 87.6475 118.72 86.9773C119.027 86.6235 119.567 86.5956 119.921 86.9028C120.182 87.1355 120.265 87.4892 120.163 87.8057C120.116 87.8988 120.061 88.0012 119.986 88.0943ZM114.476 93.1115C113.712 93.6701 112.912 94.2006 112.111 94.6847C111.711 94.9267 111.19 94.7964 110.948 94.3961C110.706 93.9958 110.836 93.4746 111.236 93.2326C111.999 92.7671 112.763 92.2645 113.489 91.7339C113.87 91.4546 114.401 91.5384 114.671 91.9201C114.839 92.1528 114.876 92.432 114.792 92.6834C114.727 92.8509 114.624 92.9998 114.476 93.1115ZM107.997 96.807C107.131 97.1793 106.238 97.5238 105.344 97.8309C104.897 97.9799 104.422 97.7379 104.273 97.3004C104.124 96.8535 104.367 96.3788 104.804 96.2299C105.651 95.9413 106.498 95.6155 107.327 95.2618C107.755 95.0756 108.257 95.2711 108.444 95.6993C108.527 95.8948 108.537 96.1089 108.472 96.295C108.397 96.5091 108.23 96.7046 107.997 96.807ZM100.876 99.0038C99.945 99.1807 98.9955 99.3203 98.0647 99.4134C97.5993 99.4599 97.1804 99.1248 97.1338 98.6594C97.0873 98.194 97.4224 97.7751 97.8878 97.7285C98.7814 97.6355 99.675 97.5051 100.559 97.3376C101.015 97.2538 101.462 97.5517 101.555 98.0078C101.583 98.1567 101.574 98.2964 101.527 98.4267C101.425 98.7152 101.183 98.9386 100.876 99.0038ZM93.4384 99.5716C92.4982 99.5437 91.5395 99.4692 90.5993 99.3575C90.1339 99.3017 89.7988 98.8828 89.8546 98.4174C89.9105 97.9519 90.3294 97.6168 90.7948 97.6727C91.6884 97.7751 92.5913 97.8496 93.4849 97.8775C93.9503 97.8961 94.3227 98.287 94.3041 98.7525C94.3041 98.8363 94.2854 98.9107 94.2668 98.9852C94.1551 99.3389 93.82 99.5902 93.4384 99.5716ZM86.0568 98.5011C85.3866 98.3243 84.707 98.1288 84.0461 97.9147C83.8041 97.8402 83.5714 97.7565 83.3294 97.6727C82.8919 97.5145 82.6406 97.0397 82.8081 96.5929C82.9664 96.1461 83.4504 95.9134 83.8879 96.0716C84.1113 96.1461 84.3347 96.2299 84.5674 96.3043C85.1911 96.5091 85.8334 96.6953 86.4756 96.8629C86.9318 96.9839 87.2017 97.44 87.0807 97.8961C87.0807 97.9147 87.0714 97.9333 87.0621 97.9426C86.9411 98.3708 86.4943 98.6128 86.0568 98.5011Z" fill="#453890"/>
<path opacity="0.3" d="M126.93 56.2966C126.986 56.1383 126.986 55.9615 126.93 55.7846C126.8 55.3471 126.651 54.9003 126.493 54.4628C126.334 54.0253 125.85 53.7926 125.413 53.9415C124.975 54.0998 124.743 54.5838 124.892 55.0213C125.041 55.4402 125.18 55.8591 125.311 56.2779C125.45 56.7247 125.925 56.9761 126.372 56.8365C126.651 56.7527 126.846 56.5479 126.93 56.2966Z" fill="#453890"/>
</g>
<path d="M114.094 49.4734C114.001 49.3338 113.833 49.2593 113.666 49.3059L108.984 50.4508C107.364 48.887 105.484 47.5652 103.389 46.5692L102.821 41.7846C102.803 41.6171 102.672 41.4775 102.514 41.4402L96.8639 40.2115C96.6964 40.1743 96.5288 40.2487 96.4451 40.3977L93.9411 44.5213C91.6233 44.5586 89.3613 44.9868 87.239 45.7407L83.4504 42.762C83.3201 42.6596 83.134 42.6503 82.9943 42.7434L78.126 45.8711C77.9864 45.9641 77.9119 46.1317 77.9584 46.2992L79.1034 50.9814C77.5396 52.6011 76.2178 54.4814 75.2218 56.5758L70.4372 57.1436C70.2697 57.1622 70.13 57.2925 70.0928 57.4508L68.8641 63.101C68.8268 63.2686 68.9013 63.4361 69.0502 63.5199L73.1739 66.0239C73.2111 68.3417 73.6393 70.6036 74.3933 72.726L71.4146 76.5145C71.3122 76.6448 71.3029 76.831 71.396 76.9706L74.5236 81.839C74.6167 81.9786 74.7843 82.0531 74.9518 82.0065L79.634 80.8616C81.2536 82.4254 83.134 83.7472 85.2284 84.7432L85.7962 89.5278C85.8148 89.6953 85.9451 89.8349 86.1034 89.8722L91.7536 91.1009C91.9211 91.1381 92.0887 91.0637 92.1725 90.9147L94.6764 86.7911C96.9943 86.7538 99.2562 86.3256 101.379 85.5717L105.167 88.5504C105.297 88.6528 105.484 88.6621 105.623 88.569L110.492 85.4413C110.631 85.3483 110.706 85.1807 110.659 85.0131L109.514 80.331C111.078 78.7113 112.4 76.831 113.396 74.7366L118.18 74.1688C118.348 74.1502 118.487 74.0199 118.525 73.8616L119.753 68.2114C119.791 68.0438 119.716 67.8763 119.567 67.7925L115.444 65.2885C115.406 62.9707 114.978 60.7087 114.224 58.5864L117.203 54.7979C117.305 54.6676 117.315 54.4814 117.222 54.3418L114.094 49.4734Z" fill="#453890"/>
<path d="M99.5076 68.2486C98.0834 71.1249 94.5834 72.2978 91.7164 70.8736C90.3295 70.1847 89.2869 68.9933 88.7936 67.5225C88.3002 66.0518 88.4026 64.4693 89.0915 63.0824C90.5156 60.2061 94.0156 59.0332 96.8826 60.4574C99.4983 61.7513 100.708 64.7672 99.8334 67.4574C99.7403 67.718 99.6379 67.9879 99.5076 68.2486ZM90.0688 67.085C90.4505 68.2113 91.2417 69.1236 92.3122 69.6542C94.5183 70.7432 97.1991 69.8403 98.2882 67.6435C99.3866 65.4374 98.4744 62.7566 96.2776 61.6675C94.0715 60.5784 91.3906 61.4813 90.3016 63.6781C90.1992 63.8736 90.1154 64.0784 90.0502 64.2925C89.7617 65.1954 89.7617 66.1635 90.0688 67.085Z" fill="url(#paint2_linear)"/>
<path d="M107.783 70.1661C107.932 69.7007 108.062 69.226 108.165 68.7512C108.202 68.6023 108.23 68.4441 108.258 68.2951C108.397 67.5411 108.472 66.7778 108.49 66.0146C108.49 66.0052 108.49 65.9959 108.49 65.9866C108.49 65.9587 108.49 65.9308 108.49 65.9029C108.49 65.847 108.49 65.7912 108.49 65.7353C108.49 65.5864 108.388 65.456 108.258 65.4095C108.22 65.4002 108.192 65.3909 108.155 65.3909C107.969 65.3909 107.82 65.5398 107.82 65.726C107.82 66.6941 107.718 67.6622 107.504 68.6116C106.48 73.331 103.119 76.9427 98.8933 78.5065C96.5475 79.3722 93.9319 79.6049 91.3069 79.0371C90.8508 78.9347 90.3947 78.8137 89.9572 78.6741C86.9878 77.706 84.4559 75.7605 82.7431 73.0983C80.7697 70.0358 80.1088 66.3962 80.8814 62.8404C82.4732 55.496 89.7338 50.8231 97.0781 52.4149C97.5342 52.5173 97.9811 52.629 98.4185 52.7779C100.317 53.3923 102.058 54.4162 103.51 55.7846C103.548 55.8218 103.594 55.8404 103.641 55.859C103.762 55.8963 103.901 55.8683 103.994 55.7659C104.125 55.6263 104.115 55.4122 103.976 55.2819C102.449 53.8484 100.625 52.7686 98.6326 52.1263C98.1765 51.9774 97.7018 51.8471 97.2271 51.7447C89.5197 50.0785 81.896 54.984 80.2205 62.6914C79.4107 66.4241 80.1088 70.2499 82.1753 73.4613C83.9718 76.2539 86.634 78.3017 89.7524 79.3164C90.2178 79.4653 90.6925 79.5956 91.1766 79.698C94.9093 80.5078 98.735 79.8097 101.946 77.7432C104.73 75.9374 106.768 73.2845 107.783 70.1661Z" fill="url(#paint3_linear)"/>
<g opacity="0.3">
<path opacity="0.3" d="M139.022 15.2183C139.097 15.0042 139.013 14.7622 138.817 14.6226C138.454 14.3713 138.073 14.1292 137.691 13.8965C137.44 13.7476 137.123 13.8314 136.974 14.0734C136.825 14.3247 136.909 14.6412 137.151 14.7901C137.514 15.0042 137.877 15.2369 138.231 15.479C138.473 15.6465 138.799 15.5814 138.957 15.3393C138.985 15.3021 139.003 15.2649 139.022 15.2183Z" fill="#453890"/>
<path opacity="0.3" d="M135.485 13.3101C135.364 13.5707 135.057 13.6917 134.796 13.58C134.126 13.2822 133.437 13.0215 132.739 12.7981C132.59 12.7516 132.441 12.705 132.292 12.6585C132.013 12.5747 131.855 12.2862 131.938 12.0069C132.031 11.7463 132.311 11.5694 132.59 11.6532C132.748 11.6997 132.897 11.7463 133.055 11.8021C133.781 12.0348 134.507 12.3141 135.206 12.6213C135.457 12.733 135.578 13.0122 135.494 13.2635C135.494 13.2729 135.485 13.2915 135.485 13.3101ZM129.704 12.0348C128.829 11.8859 127.945 11.7835 127.061 11.7463C126.772 11.7277 126.549 11.4856 126.567 11.1971C126.586 10.9085 126.828 10.6851 127.117 10.7037C128.038 10.7503 128.969 10.8527 129.89 11.0109C130.179 11.0574 130.365 11.3274 130.319 11.616C130.319 11.6439 130.309 11.6625 130.3 11.6904C130.216 11.9231 129.965 12.0814 129.704 12.0348ZM124.408 11.7835C123.523 11.8487 122.639 11.9697 121.773 12.1465C121.494 12.2024 121.215 12.0162 121.159 11.737C121.103 11.4484 121.28 11.1785 121.569 11.1226C122.481 10.9364 123.412 10.8061 124.333 10.741C124.622 10.7223 124.873 10.9364 124.892 11.225C124.901 11.2995 124.892 11.3646 124.864 11.4298C124.799 11.616 124.622 11.7649 124.408 11.7835ZM119.204 12.8354C118.367 13.1146 117.538 13.4497 116.738 13.8314C116.477 13.9524 116.16 13.85 116.039 13.5893C115.918 13.3287 116.021 13.0122 116.281 12.8912C117.119 12.4909 117.985 12.1372 118.869 11.8394C119.139 11.7463 119.437 11.8952 119.53 12.1651C119.567 12.2769 119.567 12.3886 119.53 12.4909C119.484 12.6585 119.363 12.7795 119.204 12.8354ZM114.41 15.1345C113.666 15.6093 112.94 16.1399 112.26 16.6984C112.037 16.8845 111.711 16.8473 111.525 16.6332C111.339 16.4098 111.367 16.084 111.59 15.8978C112.307 15.3114 113.061 14.7529 113.843 14.2502C114.085 14.092 114.41 14.1665 114.569 14.4085C114.652 14.5481 114.671 14.7064 114.625 14.8553C114.597 14.967 114.522 15.0601 114.41 15.1345ZM110.324 18.5228C109.719 19.1651 109.151 19.8539 108.63 20.5614C108.462 20.7941 108.127 20.8499 107.895 20.6731C107.662 20.5055 107.606 20.1797 107.783 19.9377C108.332 19.193 108.928 18.467 109.561 17.7968C109.756 17.5827 110.091 17.5734 110.305 17.7782C110.454 17.9178 110.501 18.1319 110.445 18.318C110.426 18.3925 110.38 18.4577 110.324 18.5228ZM107.196 22.7954C106.768 23.568 106.387 24.3685 106.051 25.197C105.94 25.4669 105.642 25.5973 105.372 25.4856C105.102 25.3739 104.981 25.076 105.083 24.806C105.428 23.9404 105.837 23.1026 106.284 22.2928C106.424 22.0414 106.74 21.9483 107.001 22.088C107.224 22.209 107.317 22.4696 107.243 22.7116C107.224 22.7396 107.215 22.7675 107.196 22.7954ZM104.087 30.7728C103.799 30.7355 103.603 30.4656 103.641 30.1863C103.752 29.3951 103.911 28.5946 104.106 27.8127C104.134 27.6917 104.162 27.5707 104.199 27.459C104.264 27.1797 104.562 27.0121 104.841 27.0866C105.121 27.1611 105.288 27.4496 105.214 27.7289C105.186 27.8406 105.158 27.9523 105.13 28.064C104.944 28.818 104.795 29.5813 104.683 30.3353C104.683 30.3632 104.674 30.4004 104.664 30.4284C104.581 30.6518 104.348 30.81 104.087 30.7728Z" fill="#453890"/>
</g>
<g opacity="0.3">
<path opacity="0.3" d="M147.465 40.5932C147.167 41.4588 146.823 42.3152 146.432 43.1344C146.311 43.395 145.994 43.5067 145.733 43.3764C145.473 43.2554 145.37 42.9389 145.491 42.6782C145.864 41.8963 146.199 41.0865 146.478 40.258C146.571 39.9881 146.869 39.8392 147.139 39.9323C147.409 40.016 147.549 40.3139 147.465 40.5932ZM147.567 38.3498C147.288 38.294 147.102 38.0147 147.167 37.7261C147.344 36.8791 147.474 36.0041 147.549 35.1384C147.577 34.8498 147.828 34.6357 148.116 34.6637C148.405 34.6916 148.619 34.9429 148.591 35.2315C148.507 36.1437 148.377 37.0559 148.191 37.9402C148.191 37.9589 148.182 37.9775 148.172 37.9961C148.089 38.2474 147.828 38.4057 147.567 38.3498ZM145.082 45.5266C144.589 46.2992 144.039 47.0439 143.462 47.7421C143.276 47.9655 142.95 47.9934 142.727 47.8072C142.503 47.621 142.476 47.2952 142.662 47.0718C143.22 46.4016 143.732 45.6942 144.207 44.9588C144.365 44.7168 144.691 44.6423 144.933 44.8006C145.138 44.9309 145.222 45.1822 145.147 45.4056C145.128 45.4429 145.11 45.4801 145.082 45.5266ZM148.154 33.0254C147.865 33.0347 147.623 32.8113 147.614 32.5227C147.586 31.657 147.502 30.7727 147.362 29.9163C147.316 29.6278 147.511 29.3671 147.8 29.3206C148.089 29.2741 148.358 29.4695 148.396 29.7581C148.535 30.661 148.628 31.5733 148.656 32.4855C148.656 32.5506 148.647 32.6065 148.628 32.6623C148.563 32.8671 148.377 33.0254 148.154 33.0254ZM141.591 49.7341C140.93 50.3577 140.223 50.9535 139.488 51.4934C139.255 51.6609 138.929 51.6144 138.752 51.3817C138.585 51.1489 138.631 50.8232 138.864 50.6463C139.562 50.1343 140.241 49.5665 140.874 48.9708C141.089 48.7753 141.414 48.7846 141.619 48.9894C141.759 49.129 141.796 49.3338 141.74 49.5107C141.703 49.5944 141.656 49.6689 141.591 49.7341ZM137.188 52.9827C136.397 53.4295 135.569 53.8391 134.722 54.1835C134.452 54.2952 134.144 54.1649 134.033 53.9043C133.921 53.6343 134.051 53.3271 134.312 53.2154C135.113 52.8803 135.904 52.4987 136.667 52.0705C136.918 51.9309 137.235 52.0146 137.384 52.266C137.458 52.3963 137.468 52.5545 137.43 52.6848C137.384 52.8152 137.3 52.9176 137.188 52.9827ZM132.134 55.0864C131.25 55.3285 130.356 55.5239 129.453 55.6636C129.164 55.7101 128.904 55.5146 128.857 55.2261C128.811 54.9375 129.006 54.6769 129.295 54.6303C130.151 54.5 131.017 54.3138 131.855 54.0811C132.134 54.0066 132.422 54.1649 132.497 54.4441C132.525 54.5465 132.525 54.6489 132.488 54.7513C132.432 54.9003 132.301 55.0399 132.134 55.0864Z" fill="#453890"/>
<path opacity="0.3" d="M147.791 27.3565C147.819 27.2634 147.828 27.1517 147.8 27.0493C147.679 26.6211 147.539 26.1929 147.39 25.7741C147.297 25.5041 146.99 25.3552 146.72 25.4576C146.45 25.5507 146.301 25.8485 146.404 26.1278C146.543 26.528 146.674 26.9376 146.795 27.3472C146.878 27.6264 147.167 27.7847 147.446 27.7009C147.604 27.6544 147.735 27.524 147.791 27.3565Z" fill="#453890"/>
</g>
<path d="M139.124 22.423C139.059 22.33 138.948 22.2834 138.836 22.3113L135.699 23.0746C134.619 22.0228 133.353 21.1478 131.957 20.4776L131.575 17.2755C131.566 17.1638 131.482 17.0707 131.371 17.0521L127.591 16.2329C127.48 16.205 127.368 16.2608 127.312 16.3539L125.637 19.1092C124.082 19.1372 122.574 19.4164 121.159 19.9191L118.609 17.9271C118.516 17.8526 118.395 17.8526 118.301 17.9084L115.043 20.0028C114.95 20.068 114.904 20.1797 114.932 20.2914L115.695 23.4284C114.643 24.5081 113.768 25.7741 113.098 27.1704L109.896 27.552C109.784 27.5613 109.691 27.6451 109.673 27.7568L108.853 31.536C108.825 31.6477 108.881 31.7594 108.974 31.8153L111.73 33.4908C111.758 35.0453 112.037 36.5533 112.54 37.9682L110.547 40.5001C110.473 40.5932 110.473 40.7142 110.529 40.8073L112.623 44.0652C112.688 44.1583 112.8 44.2049 112.912 44.1769L116.058 43.4323C117.138 44.4841 118.404 45.3591 119.8 46.0293L120.182 49.2314C120.191 49.3431 120.275 49.4362 120.387 49.4548L124.166 50.274C124.277 50.3019 124.389 50.246 124.445 50.153L126.121 47.3977C127.675 47.3697 129.183 47.0905 130.598 46.5878L133.13 48.5798C133.223 48.6543 133.344 48.6543 133.437 48.5984L136.695 46.504C136.788 46.4389 136.835 46.3272 136.807 46.2155L136.043 43.0785C137.095 41.9987 137.97 40.7328 138.64 39.3365L141.843 38.9549C141.954 38.9456 142.047 38.8618 142.066 38.7501L142.885 34.9709C142.913 34.8592 142.857 34.7475 142.764 34.6916L140.009 33.0161C139.981 31.4616 139.702 29.9536 139.199 28.5387L141.191 26.0068C141.265 25.9137 141.265 25.7927 141.21 25.6996L139.124 22.423Z" fill="#453890"/>
<path d="M129.425 35.0174C128.95 35.9669 128.14 36.6743 127.144 37.0094C126.139 37.3445 125.069 37.2701 124.119 36.8047C122.164 35.8366 121.364 33.4536 122.332 31.4988C123.3 29.5441 125.683 28.7435 127.638 29.7116C128.587 30.1863 129.295 30.9962 129.63 31.9922C129.9 32.8113 129.909 33.6677 129.648 34.4775C129.592 34.6544 129.518 34.8406 129.425 35.0174ZM124.585 35.8645C125.283 36.2089 126.074 36.2648 126.809 36.0134C127.545 35.7621 128.14 35.2408 128.494 34.5427C128.839 33.8446 128.894 33.0533 128.643 32.318C128.392 31.5826 127.87 30.9869 127.172 30.6331C125.729 29.9164 123.979 30.5121 123.263 31.9456C123.198 32.076 123.142 32.2063 123.104 32.3459C122.667 33.7049 123.272 35.2222 124.585 35.8645Z" fill="url(#paint4_linear)"/>
<path d="M135.187 36.3579C135.289 36.0414 135.373 35.7156 135.447 35.3898C135.587 34.7289 135.662 34.0587 135.671 33.3885C135.671 33.3606 135.671 33.3326 135.671 33.2954C135.671 33.0627 135.522 32.8672 135.308 32.7927C135.261 32.7741 135.205 32.7648 135.15 32.7648C134.861 32.7648 134.628 32.9975 134.628 33.2861C134.628 33.9098 134.563 34.5427 134.424 35.1571C134.414 35.1943 134.405 35.2223 134.405 35.2595C134.079 36.7116 133.4 38.0241 132.441 39.1039C131.92 39.6903 131.324 40.2209 130.644 40.6584C130.635 40.6584 130.635 40.6677 130.626 40.6677C130.607 40.677 130.588 40.6863 130.579 40.6956C128.596 41.9709 126.241 42.3991 123.942 41.8964C123.644 41.8313 123.356 41.7568 123.067 41.6637C121.14 41.04 119.502 39.7834 118.394 38.052C117.119 36.0693 116.691 33.7143 117.194 31.4151C117.696 29.1159 119.055 27.1425 121.038 25.8672C123.021 24.592 125.376 24.1638 127.675 24.6665C127.963 24.7316 128.252 24.8061 128.541 24.8992C129.769 25.2994 130.896 25.9603 131.836 26.8446C131.892 26.9005 131.957 26.9377 132.031 26.9563C132.217 27.0215 132.432 26.9656 132.571 26.8167C132.767 26.6026 132.757 26.2768 132.543 26.072C131.491 25.0853 130.225 24.3407 128.857 23.8939C128.541 23.7915 128.215 23.7077 127.889 23.6332C125.311 23.0747 122.676 23.5494 120.461 24.9829C118.245 26.4071 116.719 28.6132 116.16 31.1917C115.602 33.7701 116.077 36.4044 117.51 38.6198C118.748 40.5467 120.582 41.9523 122.732 42.6597C123.049 42.7621 123.374 42.8552 123.71 42.9204C128.699 44.0188 133.642 41.1052 135.187 36.3579Z" fill="url(#paint5_linear)"/>
<path d="M114.578 168.791C134.021 168.791 149.783 153.029 149.783 133.586C149.783 114.143 134.021 98.3813 114.578 98.3813C95.1349 98.3813 79.3733 114.143 79.3733 133.586C79.3733 153.029 95.1349 168.791 114.578 168.791Z" fill="url(#paint6_linear)"/>
<path d="M114.522 167.841C133.358 167.841 148.628 152.571 148.628 133.735C148.628 114.899 133.358 99.6287 114.522 99.6287C95.6856 99.6287 80.4157 114.899 80.4157 133.735C80.4157 152.571 95.6856 167.841 114.522 167.841Z" fill="url(#paint7_linear)"/>
<path d="M130.197 156.345C128.969 156.345 127.749 155.824 126.893 154.809L96.4542 118.506C94.9276 116.682 95.1603 113.964 96.9848 112.437C98.8092 110.911 101.527 111.143 103.054 112.968L133.493 149.271C135.019 151.095 134.786 153.813 132.962 155.34C132.152 156.01 131.175 156.345 130.197 156.345Z" fill="white"/>
<path d="M95.9608 156.075C94.8345 156.075 93.6989 155.628 92.8518 154.753C91.2042 153.041 91.26 150.313 92.9728 148.666L128.885 114.141C130.598 112.493 133.325 112.549 134.973 114.262C136.62 115.974 136.564 118.702 134.852 120.349L98.9395 154.874C98.1111 155.684 97.0313 156.075 95.9608 156.075Z" fill="white"/>
<path d="M134.191 236.174C134.237 236.156 160.906 189.465 164.508 185.071C165.113 184.336 166.054 183.954 167.003 184.066L174.441 184.95L183.181 203.865L168.613 195.385C170.056 205.354 151.346 220.164 144.923 225.572C144.272 226.121 144.216 227.099 144.802 227.722L147.362 230.403C143.155 234.666 138.305 237.403 132.822 238.669L134.191 236.174Z" fill="url(#paint8_linear)"/>
<path d="M145.891 228.951C145.891 228.951 147.53 229.482 148.079 230.934C148.34 231.632 148.06 232.423 147.455 232.851C144.765 234.778 135.885 241.006 131.78 242.225C131.445 242.327 131.128 242.02 131.203 241.676C131.417 240.726 132.096 238.818 134.284 236.044L134.088 236.444C133.837 236.947 134.386 237.468 134.88 237.198C137.616 235.644 143.201 232.265 145.891 228.951Z" fill="url(#paint9_linear)"/>
<path d="M144.57 247.633C144.616 247.605 148.619 237.971 148.656 237.934C152.324 215.603 161.269 196.483 163.913 191.447C164.359 190.6 165.197 190.042 166.156 189.958L173.621 189.325L186.011 206.08L170.028 200.719C173.454 210.185 158.132 228.476 152.938 235.076C152.407 235.746 152.556 236.714 153.254 237.198L156.308 239.302C153.05 244.329 148.852 247.987 143.741 250.342L144.57 247.633Z" fill="url(#paint10_linear)"/>
<path d="M154.576 238.185C154.576 238.185 156.28 238.371 157.117 239.684C157.518 240.317 157.397 241.145 156.894 241.694C154.651 244.124 147.213 252.027 143.443 254.047C143.136 254.214 142.764 253.982 142.764 253.628C142.773 252.65 143.062 250.649 144.644 247.484L144.532 247.912C144.393 248.452 145.035 248.862 145.454 248.49C147.828 246.423 152.612 241.974 154.576 238.185Z" fill="url(#paint11_linear)"/>
<path d="M208.575 185.797C208.575 185.797 215.333 195.841 215.882 200.43C216.44 205.01 214.011 206.601 206.946 207.179C185.909 208.919 175.53 202.608 175.53 202.608C174.087 193.43 173.063 191.094 161.046 186.104C161.046 186.104 176.246 187.314 179.309 186.123C182.381 184.941 208.575 185.797 208.575 185.797Z" fill="url(#paint12_linear)"/>
<path d="M181.636 129.509C181.636 129.509 186.337 123.942 191.345 130.775C192.248 132.013 195.729 130.989 197.004 133.577C197.665 134.917 199.089 135.671 200.551 135.401C204.2 134.731 210.166 134.675 213.108 140.39C215.361 144.756 213.62 147.316 211.377 148.768C209.729 149.838 209.133 152.007 210.139 153.701C211.097 155.33 211.274 157.527 208.807 160.18C203.269 166.119 192.304 156.41 192.304 156.41L183.6 135.839L181.636 129.509Z" fill="url(#paint13_linear)"/>
<path d="M190.312 184.466C190.312 184.466 182.446 176.973 178.574 172.011C176.479 169.33 175.828 165.803 176.796 162.535C178.564 156.578 181.701 150.406 181.99 149.448C182.427 147.977 191.252 148.033 191.252 148.033C191.252 148.033 208.612 159.296 215.426 178.378L207.765 180.761C207.765 180.761 203.232 173.156 198.754 168.325C198.754 168.325 206.499 178.564 206.778 182.753L190.312 184.466Z" fill="url(#paint14_linear)"/>
<path d="M175.325 187.426L181.236 180.994L188.059 182.828C188.059 182.828 196.018 184.056 200.569 182.828C205.121 181.599 205.121 181.599 205.121 181.599L215.416 178.397L217.036 182.967C217.446 184.131 217.036 185.415 216.031 186.132C215.137 186.765 214.095 187.463 213.434 187.752C212.075 188.348 182.204 187.938 182.204 187.938L175.325 187.426Z" fill="url(#paint15_linear)"/>
<path d="M185.183 137.44L191.112 148.461C190.721 150.872 184.661 150.937 183.721 149.494C183.628 149.345 183.572 149.178 183.535 149.01L179.988 141.647C179.84 140.93 181.804 138.51 182.455 138.166L184.81 136.909C185.713 136.434 181.934 136.397 185.183 137.44Z" fill="url(#paint16_linear)"/>
<path d="M173.184 134.852C173.184 134.852 172.514 138.575 175.446 143.313C178.369 148.051 181.292 147.837 182.772 146.143C184.252 144.458 186.03 141.638 185.22 136.918C184.41 132.199 174.199 130.105 173.184 134.852Z" fill="url(#paint17_linear)"/>
<path d="M181.673 137.44C181.673 137.44 176.935 131.212 173.296 136.639L173.361 138.51C173.361 138.51 168.632 138.287 169.144 133.93C169.656 129.565 173.519 126.586 178.881 128.075C184.242 129.565 187.37 131.259 187.975 134.982C188.58 138.696 185.546 138.091 185.546 138.091C185.546 138.091 184.382 135.522 182.986 135.354C181.59 135.178 182.092 137.207 182.092 137.207L181.673 137.44Z" fill="url(#paint18_linear)"/>
<path d="M182.753 137.272C182.753 137.272 180.296 134.089 182.53 133.428C184.764 132.767 184.68 136.546 184.531 137.961L182.753 137.272Z" fill="url(#paint19_linear)"/>
<path d="M194.882 189.967C194.863 189.967 194.845 189.967 194.817 189.967L167.627 189.939C166.956 189.939 166.407 189.39 166.407 188.72C166.407 188.05 166.956 187.491 167.627 187.501L194.817 187.528C195.487 187.528 196.036 188.078 196.036 188.748C196.045 189.409 195.533 189.939 194.882 189.967Z" fill="url(#paint20_linear)"/>
<path d="M143.192 165.281H165.83C167.496 165.281 169.023 166.249 169.73 167.757L180.193 189.949H152.054C150.974 189.949 150.006 189.288 149.615 188.292L141.498 167.757C141.042 166.575 141.917 165.281 143.192 165.281Z" fill="url(#paint21_linear)"/>
<path d="M159.147 176.665C159.64 178.192 159.277 179.672 158.337 179.97C157.397 180.268 156.242 179.281 155.749 177.755C155.256 176.228 155.619 174.748 156.559 174.45C157.499 174.152 158.653 175.139 159.147 176.665Z" fill="url(#paint22_linear)"/>
<defs>
<linearGradient id="paint0_linear" x1="134.297" y1="225.713" x2="131.763" y2="51.4641" gradientUnits="userSpaceOnUse">
<stop stop-color="#09005D"/>
<stop offset="1" stop-color="#1A0F91"/>
</linearGradient>
<linearGradient id="paint1_linear" x1="140.501" y1="73.0198" x2="130.304" y2="217.062" gradientUnits="userSpaceOnUse">
<stop stop-color="#FFD000"/>
<stop offset="1" stop-color="#453890"/>
</linearGradient>
<linearGradient id="paint2_linear" x1="88.4799" y1="65.6593" x2="100.114" y2="65.6593" gradientUnits="userSpaceOnUse">
<stop stop-color="#DAE3FE"/>
<stop offset="1" stop-color="#E9EFFD"/>
</linearGradient>
<linearGradient id="paint3_linear" x1="79.8852" y1="65.7188" x2="108.493" y2="65.7188" gradientUnits="userSpaceOnUse">
<stop stop-color="#DAE3FE"/>
<stop offset="1" stop-color="#E9EFFD"/>
</linearGradient>
<linearGradient id="paint4_linear" x1="121.918" y1="33.2585" x2="129.841" y2="33.2585" gradientUnits="userSpaceOnUse">
<stop stop-color="#DAE3FE"/>
<stop offset="1" stop-color="#E9EFFD"/>
</linearGradient>
<linearGradient id="paint5_linear" x1="115.936" y1="33.2947" x2="135.672" y2="33.2947" gradientUnits="userSpaceOnUse">
<stop stop-color="#DAE3FE"/>
<stop offset="1" stop-color="#E9EFFD"/>
</linearGradient>
<linearGradient id="paint6_linear" x1="135.2" y1="92.6334" x2="73.4672" y2="215.237" gradientUnits="userSpaceOnUse">
<stop stop-color="#E1473D"/>
<stop offset="1" stop-color="#E9605A"/>
</linearGradient>
<linearGradient id="paint7_linear" x1="160.777" y1="19.0489" x2="113.619" y2="135.976" gradientUnits="userSpaceOnUse">
<stop stop-color="#FF928E"/>
<stop offset="1" stop-color="#FE7062"/>
</linearGradient>
<linearGradient id="paint8_linear" x1="127.797" y1="197.058" x2="169.832" y2="221.051" gradientUnits="userSpaceOnUse">
<stop stop-color="#FEBBBA"/>
<stop offset="1" stop-color="#FF928E"/>
</linearGradient>
<linearGradient id="paint9_linear" x1="133.292" y1="221.048" x2="152.226" y2="266.873" gradientUnits="userSpaceOnUse">
<stop stop-color="#4F52FF"/>
<stop offset="1" stop-color="#4042E2"/>
</linearGradient>
<linearGradient id="paint10_linear" x1="131.864" y1="203.042" x2="-11.957" y2="113.008" gradientUnits="userSpaceOnUse">
<stop stop-color="#FEBBBA"/>
<stop offset="1" stop-color="#FF928E"/>
</linearGradient>
<linearGradient id="paint11_linear" x1="140.635" y1="233.003" x2="168.45" y2="274.043" gradientUnits="userSpaceOnUse">
<stop stop-color="#4F52FF"/>
<stop offset="1" stop-color="#4042E2"/>
</linearGradient>
<linearGradient id="paint12_linear" x1="167.17" y1="166.933" x2="201.742" y2="204.82" gradientUnits="userSpaceOnUse">
<stop stop-color="#5127AC"/>
<stop offset="1" stop-color="#9D6CDD"/>
</linearGradient>
<linearGradient id="paint13_linear" x1="174.437" y1="115.536" x2="192.713" y2="136.634" gradientUnits="userSpaceOnUse">
<stop stop-color="#09005D"/>
<stop offset="1" stop-color="#1A0F91"/>
</linearGradient>
<linearGradient id="paint14_linear" x1="266.71" y1="107.648" x2="219.188" y2="146.933" gradientUnits="userSpaceOnUse">
<stop stop-color="#9D6CDD"/>
<stop offset="1" stop-color="#D5DBFE"/>
</linearGradient>
<linearGradient id="paint15_linear" x1="201.419" y1="183.229" x2="243.291" y2="183.229" gradientUnits="userSpaceOnUse">
<stop stop-color="#FEBBBA"/>
<stop offset="1" stop-color="#FF928E"/>
</linearGradient>
<linearGradient id="paint16_linear" x1="184.376" y1="163.216" x2="185.344" y2="148.133" gradientUnits="userSpaceOnUse">
<stop stop-color="#FEBBBA"/>
<stop offset="1" stop-color="#FF928E"/>
</linearGradient>
<linearGradient id="paint17_linear" x1="185.802" y1="150.455" x2="167.582" y2="115.586" gradientUnits="userSpaceOnUse">
<stop stop-color="#FEBBBA"/>
<stop offset="1" stop-color="#FF928E"/>
</linearGradient>
<linearGradient id="paint18_linear" x1="163.037" y1="130.679" x2="188.55" y2="135.798" gradientUnits="userSpaceOnUse">
<stop stop-color="#09005D"/>
<stop offset="1" stop-color="#1A0F91"/>
</linearGradient>
<linearGradient id="paint19_linear" x1="189.972" y1="148.275" x2="171.752" y2="113.406" gradientUnits="userSpaceOnUse">
<stop stop-color="#FEBBBA"/>
<stop offset="1" stop-color="#FF928E"/>
</linearGradient>
<linearGradient id="paint20_linear" x1="199.499" y1="182.745" x2="177.917" y2="189.824" gradientUnits="userSpaceOnUse">
<stop stop-color="#09005D"/>
<stop offset="1" stop-color="#1A0F91"/>
</linearGradient>
<linearGradient id="paint21_linear" x1="148.774" y1="168.003" x2="183.258" y2="199.559" gradientUnits="userSpaceOnUse">
<stop stop-color="#09005D"/>
<stop offset="1" stop-color="#1A0F91"/>
</linearGradient>
<linearGradient id="paint22_linear" x1="160.456" y1="172.685" x2="153.403" y2="183.305" gradientUnits="userSpaceOnUse">
<stop stop-color="#4F52FF"/>
<stop offset="1" stop-color="#4042E2"/>
</linearGradient>
</defs>
</svg>
