<svg width="241" height="253" viewBox="0 0 241 253" fill="none" xmlns="http://www.w3.org/2000/svg">
<path d="M217.501 36.7691C220.199 36.7691 222.386 34.5852 222.386 31.8913C222.386 29.1973 220.199 27.0134 217.501 27.0134C214.803 27.0134 212.615 29.1973 212.615 31.8913C212.615 34.5852 214.803 36.7691 217.501 36.7691Z" fill="#D8EAFF"/>
<path d="M16.8526 217.342C51.3916 262.046 126.221 262.632 172.696 230.772C224.241 195.423 224.891 131.115 224.767 120.094C224.365 81.812 207.791 18.6469 159.214 3.24156C105.256 -13.8618 51.6081 40.659 29.7158 74.804C23.9645 83.757 -25.2002 162.914 16.8526 217.342Z" fill="#FDF8E3"/>
<path opacity="0.2" d="M184.6 201.906L167.717 51.3718C166.696 42.1409 158.255 35.4416 149.009 36.4604L74.8293 44.7651C65.5839 45.7839 58.874 54.2121 59.8944 63.4429L60.3273 67.3329L59.5233 67.4255C58.07 67.5798 57.0187 68.9074 57.1733 70.3584L58.472 82.0899C58.6266 83.5409 59.9562 84.5906 61.4095 84.4362L62.2134 84.3436L62.5845 87.5544L61.7806 87.647C60.3273 87.8013 59.2759 89.1288 59.4305 90.5798L60.7292 102.311C60.8838 103.762 62.2134 104.812 63.6667 104.658L64.4707 104.565L76.7464 214.07C77.7668 223.301 86.2083 230 95.4538 228.981L169.634 220.676C178.91 219.534 185.651 211.137 184.6 201.906Z" fill="#D5DBFE"/>
<path d="M67.2856 79.7127L62.2145 80.2684C61.7197 80.3302 61.2868 79.9597 61.225 79.4657L59.5243 64.2765C59.4625 63.7825 59.8335 63.3503 60.3283 63.2886L65.3994 62.7329C65.8941 62.6711 66.327 63.0416 66.3888 63.5355L68.0895 78.7248C68.1204 79.2188 67.7803 79.651 67.2856 79.7127Z" fill="#EAEAFA"/>
<path d="M69.5414 99.9034L64.4703 100.459C63.9756 100.521 63.5427 100.15 63.4808 99.6564L61.7802 84.4671C61.7183 83.9732 62.0894 83.541 62.5841 83.4792L67.6552 82.9235C68.1499 82.8618 68.5828 83.2322 68.6447 83.7262L70.3454 98.9155C70.3763 99.4094 70.0361 99.8416 69.5414 99.9034Z" fill="#EAEAFA"/>
<path d="M182.188 215.181L87.9709 225.709C84.2294 226.141 80.8281 223.424 80.4261 219.689L61.3168 49.149C60.8839 45.4135 63.6049 42.0175 67.3464 41.6162L161.563 31.0886C165.305 30.6564 168.706 33.3732 169.108 37.1088L188.217 207.648C188.619 211.353 185.929 214.749 182.188 215.181Z" fill="#D2DFF4"/>
<path d="M82.8994 218.114L64.0684 50.1369C63.7283 47.1423 65.8927 44.4564 68.8921 44.1168L160.574 33.8671C163.573 33.5275 166.263 35.6886 166.603 38.6832L185.434 206.66C185.774 209.655 183.61 212.341 180.61 212.681L88.9291 222.93C85.9297 223.239 83.2395 221.109 82.8994 218.114Z" fill="white"/>
<path d="M153.321 126.018C171.265 108.102 171.265 79.055 153.321 61.1392C135.377 43.2235 106.284 43.2235 88.3401 61.1392C70.3961 79.055 70.3961 108.102 88.3401 126.018C106.284 143.934 135.377 143.934 153.321 126.018Z" fill="#F5F5F5"/>
<path d="M151.824 80.2376L155.596 113.765C155.596 113.796 155.596 113.858 155.596 113.889C155.596 113.919 155.596 113.919 155.596 113.95C155.596 113.981 155.596 113.981 155.596 114.012V114.043V114.074C155.596 114.105 155.596 114.136 155.596 114.166C155.596 114.197 155.596 114.228 155.596 114.259V114.29V114.321V114.352C155.596 114.383 155.596 114.413 155.596 114.413C155.596 114.444 155.565 114.506 155.565 114.537C155.565 114.568 155.565 114.568 155.534 114.599C155.534 114.63 155.534 114.63 155.534 114.66C155.534 114.66 155.534 114.66 155.534 114.691C155.503 114.753 155.503 114.815 155.472 114.846C155.472 114.877 155.472 114.877 155.442 114.907C155.442 114.938 155.411 114.938 155.411 114.969C155.411 115 155.411 115 155.38 115.031C155.349 115.062 155.349 115.093 155.318 115.123C155.318 115.154 155.287 115.154 155.287 115.185C155.256 115.247 155.225 115.278 155.194 115.309C155.163 115.34 155.163 115.37 155.132 115.401C155.101 115.432 155.101 115.463 155.07 115.494L155.04 115.525L155.009 115.556L154.978 115.587C154.947 115.617 154.916 115.648 154.885 115.679C154.854 115.71 154.823 115.741 154.792 115.741L154.761 115.772C154.73 115.772 154.73 115.803 154.699 115.803L154.668 115.834L154.638 115.864C154.545 115.926 154.421 116.019 154.297 116.05C154.297 116.05 154.297 116.05 154.267 116.05H154.236C154.205 116.05 154.174 116.081 154.143 116.081C154.081 116.111 154.05 116.111 153.988 116.142C153.957 116.142 153.926 116.173 153.926 116.173C153.926 116.173 153.895 116.173 153.865 116.173C153.834 116.173 153.834 116.173 153.803 116.204C153.803 116.204 153.772 116.204 153.741 116.204C153.741 116.204 153.741 116.204 153.71 116.204H153.679C153.679 116.204 153.679 116.204 153.648 116.204C153.617 116.204 153.586 116.204 153.555 116.235C153.524 116.235 153.463 116.235 153.432 116.266L94.0938 122.903C94.0629 122.903 94.001 122.903 93.9701 122.903C93.9392 122.903 93.9083 122.903 93.8774 122.903C93.8464 122.903 93.8155 122.903 93.7846 122.903C93.7537 122.903 93.7537 122.903 93.7228 122.903C93.6609 122.903 93.63 122.903 93.5682 122.903H93.5372C93.4754 122.903 93.4445 122.903 93.3826 122.872C93.3517 122.872 93.3208 122.872 93.2899 122.842C93.1662 122.811 93.0116 122.78 92.8879 122.718C92.857 122.718 92.826 122.687 92.7951 122.687C92.7642 122.656 92.7333 122.656 92.7023 122.626C92.4859 122.502 92.3004 122.379 92.1458 122.224C92.1149 122.193 92.053 122.162 92.0221 122.101C91.8984 121.977 91.8056 121.823 91.7129 121.638C91.682 121.607 91.682 121.545 91.651 121.514C91.6201 121.483 91.6201 121.421 91.5892 121.391C91.5583 121.36 91.5583 121.298 91.5273 121.267C91.5273 121.236 91.4964 121.174 91.4964 121.144C91.4964 121.144 91.4964 121.144 91.4964 121.113C91.4964 121.082 91.4655 121.02 91.4655 120.989C91.4655 120.958 91.4655 120.928 91.4346 120.897C91.4346 120.835 91.4037 120.773 91.4037 120.711L87.6313 87.1839C87.6003 86.906 87.6313 86.6282 87.6931 86.3503C87.7859 85.9181 88.0023 85.5477 88.3115 85.2389L88.4352 85.1154C88.8063 84.8067 89.2701 84.5906 89.7648 84.5289L149.134 78.1074C149.195 78.1074 149.257 78.1074 149.319 78.1074H149.35C149.412 78.1074 149.474 78.1074 149.505 78.1074H149.536C149.597 78.1074 149.628 78.1074 149.69 78.1074H149.721C149.783 78.1074 149.845 78.1383 149.907 78.1383C149.968 78.1383 149.999 78.1691 150.061 78.1691C150.123 78.2 150.216 78.2 150.278 78.2309C150.309 78.2309 150.37 78.2618 150.401 78.2618C150.463 78.2926 150.525 78.3235 150.587 78.3544L150.711 78.447C150.711 78.447 150.711 78.447 150.741 78.447C150.772 78.4779 150.803 78.4779 150.834 78.5087C150.865 78.5396 150.896 78.5396 150.896 78.5705C150.958 78.6322 151.051 78.694 151.113 78.7557C151.143 78.7866 151.174 78.8175 151.205 78.8483C151.329 78.9718 151.422 79.1262 151.515 79.2805C151.545 79.3114 151.576 79.3732 151.576 79.404C151.607 79.4658 151.638 79.5584 151.669 79.6201C151.669 79.651 151.7 79.6819 151.7 79.7128C151.7 79.7436 151.731 79.7745 151.731 79.8054C151.731 79.8363 151.762 79.8671 151.762 79.898C151.762 79.9289 151.793 79.9597 151.793 79.9906C151.793 80.0215 151.793 80.0524 151.824 80.0832C151.793 80.145 151.824 80.1758 151.824 80.2376Z" fill="#DFE5EA"/>
<path d="M151.577 79.435L87.7246 86.5665C87.8174 86.1343 88.0338 85.7638 88.343 85.4551L88.4667 85.3316L115.523 59.6148C116.327 58.843 117.533 58.7195 118.46 59.2752L150.587 78.3853L150.711 78.4779C150.711 78.4779 150.711 78.4779 150.742 78.4779C150.773 78.5088 150.804 78.5088 150.835 78.5397C150.866 78.5705 150.897 78.5705 150.897 78.6014C150.959 78.6632 151.051 78.7249 151.113 78.7866C151.144 78.8175 151.175 78.8484 151.206 78.8793C151.33 79.0028 151.422 79.1571 151.515 79.3115C151.515 79.3423 151.546 79.3732 151.577 79.435C151.577 79.4041 151.577 79.435 151.577 79.435Z" fill="#B3CEF6"/>
<path d="M151.051 114.938L95.3311 121.175L89.3324 67.7343C89.2396 66.9933 89.7962 66.345 90.5074 66.2524L143.537 60.3249C144.279 60.2323 144.929 60.788 145.022 61.498L151.051 114.938Z" fill="white"/>
<path d="M139.579 73.0134L97.2165 77.7369C97.031 77.7678 96.8764 77.6134 96.8454 77.459L96.629 75.5758C96.5981 75.3906 96.7527 75.2362 96.9073 75.2054L139.269 70.4819C139.455 70.451 139.61 70.6054 139.64 70.7597L139.857 72.6429C139.888 72.8282 139.764 73.0134 139.579 73.0134Z" fill="#E4ECF9"/>
<path d="M140.198 78.4161L97.8356 83.1396C97.6501 83.1705 97.4955 83.0161 97.4646 82.8618L97.2481 80.9785C97.2172 80.7933 97.3718 80.6389 97.5264 80.6081L139.889 75.8846C140.074 75.8537 140.229 76.008 140.26 76.1624L140.476 78.0456C140.507 78.2309 140.383 78.3852 140.198 78.4161Z" fill="#E4ECF9"/>
<path d="M140.786 83.8188L98.4235 88.5423C98.238 88.5731 98.0834 88.4188 98.0525 88.2644L97.836 86.3812C97.8051 86.196 97.9597 86.0416 98.1143 86.0107L140.476 81.2872C140.662 81.2564 140.817 81.4107 140.847 81.5651L141.064 83.4483C141.095 83.6335 140.971 83.7879 140.786 83.8188Z" fill="#E4ECF9"/>
<path d="M141.403 89.1907L99.0407 93.9142C98.8552 93.945 98.7006 93.7907 98.6697 93.6363L98.4532 91.7531C98.4223 91.5679 98.5769 91.4135 98.7315 91.3826L141.094 86.6591C141.279 86.6283 141.434 86.7826 141.465 86.937L141.681 88.8202C141.712 89.0054 141.588 89.1907 141.403 89.1907Z" fill="#E4ECF9"/>
<path d="M141.991 94.5934L99.6286 99.3169C99.4431 99.3477 99.2885 99.1934 99.2575 99.039L99.0411 97.1558C99.0102 96.9706 99.1648 96.8162 99.3194 96.7853L141.681 92.0618C141.867 92.031 142.022 92.1853 142.053 92.3397L142.269 94.2229C142.331 94.4081 142.176 94.5625 141.991 94.5934Z" fill="#E4ECF9"/>
<path d="M121.738 101.478C121.645 101.601 121.553 101.694 121.429 101.787L94.2491 123.027H94.1254C93.878 123.058 93.6306 123.058 93.4142 122.996C93.3833 122.996 93.3524 122.996 93.3214 122.965C92.9195 122.873 92.5484 122.687 92.2701 122.41C92.2392 122.379 92.2083 122.348 92.1774 122.317C92.0846 122.224 92.0227 122.163 91.93 122.07C91.8991 122.039 91.8991 122.008 91.8681 121.977C91.8372 121.946 91.8372 121.916 91.8063 121.885C91.6208 121.576 91.4971 121.236 91.4662 120.866L87.6938 87.3384C87.6629 87.0605 87.6938 86.7827 87.7556 86.5048C87.8484 86.0726 88.0648 85.7021 88.374 85.3934L88.4977 85.2699C88.8688 84.9612 89.3326 84.7451 89.8273 84.6833L90.3839 84.6216L93.1359 85.9182L118.399 97.835L119.357 98.2981L121.181 99.1625C121.305 99.2243 121.429 99.3169 121.553 99.4095C122.078 99.9343 122.202 100.83 121.738 101.478Z" fill="#9EC3EF"/>
<path d="M151.824 80.2376L155.596 113.765C155.596 113.796 155.596 113.858 155.596 113.889C155.596 113.92 155.596 113.92 155.596 113.95C155.596 113.981 155.596 113.981 155.596 114.012V114.043V114.074C155.596 114.105 155.596 114.136 155.596 114.166C155.596 114.197 155.596 114.228 155.596 114.259V114.29V114.321V114.352C155.596 114.383 155.596 114.413 155.596 114.413C155.596 114.444 155.565 114.506 155.565 114.537C155.565 114.568 155.565 114.568 155.534 114.599C155.534 114.63 155.534 114.63 155.534 114.66C155.534 114.66 155.534 114.66 155.534 114.691C155.503 114.753 155.503 114.815 155.472 114.846C155.472 114.877 155.472 114.877 155.441 114.907C155.441 114.938 155.41 114.938 155.41 114.969C155.41 115 155.41 115 155.379 115.031C155.349 115.062 155.349 115.093 155.318 115.124C155.318 115.154 155.287 115.154 155.287 115.185C155.256 115.247 155.225 115.278 155.194 115.309C155.163 115.34 155.163 115.371 155.132 115.401C155.101 115.432 155.101 115.463 155.07 115.494L155.039 115.525L155.008 115.556L154.978 115.587C154.947 115.618 154.916 115.648 154.885 115.679C154.854 115.71 154.823 115.741 154.792 115.741L154.761 115.772C154.73 115.772 154.73 115.803 154.699 115.803L154.668 115.834L154.637 115.864C154.545 115.926 154.421 116.019 154.297 116.05C154.297 116.05 154.297 116.05 154.266 116.05H154.235C154.204 116.05 154.174 116.081 154.143 116.081C154.081 116.111 154.05 116.111 153.988 116.142C153.957 116.142 153.926 116.173 153.926 116.173C153.926 116.173 153.895 116.173 153.864 116.173C153.833 116.173 153.833 116.173 153.803 116.204C153.772 116.204 153.772 116.204 153.741 116.204C153.741 116.204 153.741 116.204 153.71 116.204H153.679C153.679 116.204 153.679 116.204 153.648 116.204C153.617 116.204 153.586 116.204 153.555 116.235C153.524 116.235 153.462 116.235 153.431 116.266H153.308L122.077 101.54C121.954 101.478 121.83 101.385 121.706 101.293C121.119 100.768 121.026 99.8725 121.49 99.2242C121.583 99.1007 121.675 99.0081 121.799 98.9155L123.376 97.6806L124.211 97.0323L146.227 79.8363L148.608 77.984L149.164 77.9222C149.226 77.9222 149.288 77.9222 149.35 77.9222H149.381C149.443 77.9222 149.504 77.9222 149.535 77.9222H149.566C149.628 77.9222 149.659 77.9222 149.721 77.9222H149.752C149.814 77.9222 149.876 77.9531 149.937 77.9531C149.999 77.9531 150.03 77.984 150.092 77.984C150.154 78.0148 150.247 78.0148 150.308 78.0457C150.339 78.0457 150.401 78.0766 150.432 78.0766C150.494 78.1074 150.556 78.1383 150.618 78.1692L150.741 78.2618C150.741 78.2618 150.741 78.2618 150.772 78.2618C150.803 78.2927 150.834 78.2927 150.865 78.3236C150.896 78.3544 150.927 78.3544 150.927 78.3853C150.989 78.447 151.081 78.5088 151.143 78.5705C151.174 78.6014 151.205 78.6323 151.236 78.6632C151.36 78.7866 151.453 78.941 151.545 79.0954C151.576 79.1262 151.607 79.188 151.607 79.2189C151.638 79.2806 151.669 79.3732 151.7 79.435C151.7 79.4658 151.731 79.4967 151.731 79.5276C151.731 79.5585 151.762 79.5893 151.762 79.6202C151.762 79.6511 151.793 79.6819 151.793 79.7128C151.793 79.7437 151.824 79.7746 151.824 79.8054C151.824 79.8363 151.824 79.8672 151.854 79.898C151.793 80.145 151.824 80.1759 151.824 80.2376Z" fill="#9EC3EF"/>
<path opacity="0.29" d="M155.535 113.302L155.566 113.642C155.72 115.031 154.762 116.266 153.432 116.42L94.0941 123.058C92.7645 123.212 91.5586 122.193 91.404 120.835L91.373 120.495L119.635 97.0322C120.501 96.2913 121.707 96.1678 122.727 96.6926L155.535 113.302Z" fill="#474747"/>
<path d="M155.535 113.426L155.566 113.765C155.72 115.093 154.762 116.297 153.432 116.42L94.0944 123.058C92.7648 123.212 91.5589 122.255 91.4352 120.928L91.4043 120.588L119.759 97.9585C120.625 97.2484 121.831 97.1249 122.851 97.6189L155.535 113.426Z" fill="#B3CEF6"/>
<path d="M115.894 70.2041L96.5993 72.3652C96.4138 72.3961 96.2592 72.2417 96.2282 72.0873L96.0118 70.2041C95.9809 70.0189 96.1355 69.8645 96.2901 69.8337L115.585 67.6726C115.77 67.6417 115.925 67.7961 115.956 67.9504L116.172 69.8337C116.203 70.0189 116.08 70.1733 115.894 70.2041Z" fill="#D2DFF4"/>
<path d="M165.242 153.529L90.0111 161.926C89.5164 161.988 89.0526 161.617 88.9907 161.124L88.4032 155.906C88.3414 155.412 88.7124 154.949 89.2072 154.887L164.439 146.49C164.933 146.428 165.397 146.799 165.459 147.293L166.046 152.51C166.108 153.035 165.768 153.498 165.242 153.529Z" fill="#FFCACA"/>
<path d="M167.252 171.311L92.0209 179.709C91.5262 179.77 91.0623 179.4 91.0005 178.906L90.413 173.689C90.3512 173.195 90.7222 172.732 91.2169 172.67L166.448 164.273C166.943 164.211 167.407 164.581 167.469 165.075L168.056 170.293C168.118 170.787 167.747 171.25 167.252 171.311Z" fill="#FDF8E3"/>
<path d="M168.551 182.919L93.3197 191.317C92.825 191.378 92.3612 191.008 92.2993 190.514L91.7118 185.297C91.65 184.803 92.021 184.34 92.5158 184.278L167.747 175.881C168.242 175.819 168.706 176.189 168.768 176.683L169.355 181.901C169.417 182.395 169.046 182.858 168.551 182.919Z" fill="#FDF8E3"/>
<path d="M169.85 194.528L94.6186 202.925C94.1238 202.987 93.66 202.616 93.5982 202.122L93.0106 196.905C92.9488 196.411 93.3199 195.948 93.8146 195.886L169.046 187.489C169.541 187.427 170.004 187.797 170.066 188.291L170.654 193.509C170.716 194.003 170.345 194.466 169.85 194.528Z" fill="#FDF8E3"/>
<path opacity="0.2" d="M109.956 190.514L68.7377 140.007C67.5009 138.494 65.2436 138.247 63.6976 139.482L23.2526 172.423C21.7375 173.658 21.4901 175.911 22.7269 177.455L63.9449 227.962C65.1818 229.475 67.439 229.722 68.9851 228.487L109.461 195.546C110.976 194.311 111.193 192.058 109.956 190.514Z" fill="#D5DBFE"/>
<path d="M111.131 191.255L68.0266 226.357C67.2536 227.005 66.0786 226.882 65.4292 226.079L22.0158 172.886C21.3665 172.114 21.4902 170.941 22.2941 170.293L65.3983 135.222C66.1713 134.573 67.3464 134.697 67.9957 135.499L111.409 188.693C112.058 189.434 111.935 190.607 111.131 191.255Z" fill="white"/>
<path d="M66.4868 141.427L28.082 172.96L32.8352 178.731L71.2399 147.197L66.4868 141.427Z" fill="#D2DFF4"/>
<path d="M75.1416 213.879L44.5996 176.798L36.6225 183.348L67.1645 220.428L75.1416 213.879Z" fill="#D2DFF4"/>
<path d="M46.5366 181.654L41.0326 186.161C40.9708 186.223 40.878 186.192 40.8162 186.13L40.0122 185.142C39.9504 185.081 39.9813 184.988 40.0431 184.926L45.5471 180.419C45.609 180.357 45.7017 180.388 45.7636 180.45L46.5675 181.438C46.5985 181.499 46.5985 181.592 46.5366 181.654Z" fill="#FDF8E3"/>
<path d="M49.2886 185.019L43.7846 189.526C43.7227 189.588 43.63 189.557 43.5681 189.495L42.7642 188.507C42.7023 188.446 42.7333 188.353 42.7951 188.291L48.2991 183.784C48.3609 183.722 48.4537 183.753 48.5155 183.815L49.3195 184.803C49.3813 184.864 49.3504 184.957 49.2886 185.019Z" fill="#FDF8E3"/>
<path d="M52.0718 188.384L46.5678 192.891C46.5059 192.953 46.4132 192.922 46.3513 192.86L45.5474 191.873C45.4855 191.811 45.5165 191.718 45.5783 191.656L51.0823 187.149C51.1441 187.087 51.2369 187.118 51.2987 187.18L52.1027 188.168C52.1336 188.23 52.1336 188.322 52.0718 188.384Z" fill="#FDF8E3"/>
<path d="M54.8237 191.749L49.3197 196.256C49.2579 196.318 49.1651 196.287 49.1033 196.226L48.2993 195.238C48.2375 195.176 48.2684 195.083 48.3303 195.022L53.8342 190.514C53.8961 190.452 53.9888 190.483 54.0507 190.545L54.8546 191.533C54.9165 191.595 54.9165 191.687 54.8237 191.749Z" fill="#FDF8E3"/>
<path d="M57.6069 195.114L52.1029 199.622C52.0411 199.683 51.9483 199.652 51.8865 199.591L51.0825 198.603C51.0207 198.541 51.0516 198.448 51.1135 198.387L56.6174 193.879C56.6793 193.818 56.772 193.848 56.8339 193.91L57.6378 194.898C57.6687 194.96 57.6688 195.052 57.6069 195.114Z" fill="#FDF8E3"/>
<path d="M60.3882 198.479L54.8842 202.987C54.8223 203.048 54.7296 203.018 54.6677 202.956L53.8638 201.968C53.8019 201.906 53.8329 201.814 53.8947 201.752L59.3987 197.244C59.4605 197.183 59.5533 197.213 59.6151 197.275L60.4191 198.263C60.45 198.325 60.45 198.418 60.3882 198.479Z" fill="#FDF8E3"/>
<path d="M63.1421 201.844L57.6381 206.352C57.5762 206.413 57.4835 206.383 57.4216 206.321L56.6177 205.333C56.5559 205.271 56.5868 205.179 56.6486 205.117L62.1526 200.609C62.2144 200.548 62.3072 200.579 62.369 200.64L63.173 201.628C63.2348 201.69 63.2039 201.783 63.1421 201.844Z" fill="#FDF8E3"/>
<path d="M64.3477 165.477L73.0674 176.066L86.2399 165.26L77.5201 154.671L64.3477 165.477ZM85.7451 165.199L73.1293 175.572L64.8733 165.538L77.4892 155.165L85.7451 165.199Z" fill="#D2DFF4"/>
<path d="M81.571 169.089L73.0677 176.066L69.5117 171.744C69.5426 171.62 69.6045 171.466 69.6354 171.342C70.0374 170.169 70.7795 169.089 71.7999 168.255C72.7584 167.452 73.9025 166.959 75.0466 166.773C77.3039 166.372 79.6539 167.113 81.3236 168.842C81.4164 168.903 81.4782 168.996 81.571 169.089Z" fill="#D2DFF4"/>
<path d="M80.4581 158.252L86.2403 165.26L78.7883 171.404C78.6646 171.342 78.5719 171.281 78.4482 171.219C77.7061 170.818 77.0258 170.262 76.4692 169.552C75.789 168.718 75.3252 167.761 75.0778 166.773C74.4594 164.242 75.2942 161.494 77.4278 159.734C78.2317 159.055 79.1594 158.623 80.087 158.376C80.2107 158.283 80.3344 158.252 80.4581 158.252Z" fill="#D2DFF4"/>
<path d="M76.4374 154.054L48.5774 176.93C48.4228 177.054 48.2064 177.023 48.0827 176.868L46.8459 175.356C46.7222 175.201 46.7531 174.985 46.9077 174.862L74.7677 151.985C74.9223 151.862 75.1388 151.893 75.2624 152.047L76.4993 153.56C76.5921 153.714 76.5921 153.93 76.4374 154.054Z" fill="#FDF8E3"/>
<path d="M64.4712 169.089L51.0513 180.11C50.9586 180.203 50.804 180.172 50.7112 180.079L49.8763 179.06C49.7836 178.968 49.8145 178.813 49.9072 178.721L63.3271 167.699C63.4198 167.607 63.5744 167.638 63.6672 167.73L64.5021 168.749C64.5639 168.842 64.5639 168.996 64.4712 169.089Z" fill="#FDF8E3"/>
<path d="M66.3559 171.342L52.9361 182.364C52.8433 182.456 52.6887 182.426 52.596 182.333L51.7611 181.314C51.6683 181.222 51.6992 181.067 51.792 180.975L65.2118 169.953C65.3046 169.86 65.4592 169.891 65.5519 169.984L66.3868 171.003C66.4487 171.126 66.4487 171.281 66.3559 171.342Z" fill="#FDF8E3"/>
<path d="M68.2114 173.627L54.7916 184.648C54.6988 184.741 54.5442 184.71 54.4514 184.618L53.6166 183.599C53.5238 183.506 53.5547 183.352 53.6475 183.259L67.0982 172.269C67.191 172.176 67.3456 172.207 67.4383 172.299L68.2732 173.318C68.3351 173.411 68.3351 173.565 68.2114 173.627Z" fill="#FDF8E3"/>
<path d="M88.8359 169.12L60.9759 191.996C60.8213 192.12 60.6048 192.089 60.4811 191.934L59.2443 190.422C59.1206 190.267 59.1515 190.051 59.3061 189.928L87.1662 167.051C87.3208 166.928 87.5372 166.958 87.6609 167.113L88.8977 168.626C89.0214 168.78 88.9905 168.996 88.8359 169.12Z" fill="#FDF8E3"/>
<path d="M92.1132 173.102L64.2532 195.979C64.0986 196.102 63.8822 196.071 63.7585 195.917L62.5216 194.404C62.3979 194.25 62.4289 194.034 62.5835 193.91L90.4435 171.034C90.5981 170.91 90.8145 170.941 90.9382 171.095L92.1751 172.608C92.2988 172.762 92.2678 172.979 92.1132 173.102Z" fill="#FDF8E3"/>
<path d="M95.3925 177.054L67.5325 199.93C67.3779 200.054 67.1615 200.023 67.0378 199.868L65.8009 198.356C65.6772 198.201 65.7082 197.985 65.8628 197.862L93.7228 174.985C93.8774 174.862 94.0939 174.893 94.2175 175.047L95.4544 176.56C95.5471 176.714 95.5471 176.93 95.3925 177.054Z" fill="#FDF8E3"/>
<path d="M98.6699 181.036L70.8099 203.913C70.6553 204.036 70.4388 204.005 70.3151 203.851L69.0783 202.338C68.9546 202.184 68.9855 201.968 69.1401 201.844L97.0001 178.968C97.1547 178.844 97.3712 178.875 97.4949 179.03L98.7317 180.542C98.8245 180.697 98.8245 180.913 98.6699 181.036Z" fill="#FDF8E3"/>
<path d="M101.947 185.019L74.0872 207.895C73.9326 208.019 73.7161 207.988 73.5925 207.834L72.3556 206.321C72.2319 206.166 72.2629 205.95 72.4175 205.827L100.277 182.95C100.432 182.827 100.649 182.858 100.772 183.012L102.009 184.525C102.102 184.679 102.071 184.895 101.947 185.019Z" fill="#FDF8E3"/>
<path d="M105.193 188.971L77.3333 211.847C77.1787 211.971 76.9622 211.94 76.8386 211.785L75.6017 210.273C75.478 210.118 75.5089 209.902 75.6636 209.779L103.524 186.902C103.678 186.779 103.895 186.809 104.018 186.964L105.255 188.477C105.379 188.631 105.348 188.847 105.193 188.971Z" fill="#FDF8E3"/>
<path opacity="0.2" d="M114.409 179.709L86.0848 121.02C85.219 119.26 83.0855 118.489 81.3229 119.353L34.3227 141.983C32.5602 142.847 31.7872 144.977 32.6529 146.737L60.9768 205.426C61.8426 207.185 63.9761 207.957 65.7387 207.093L112.739 184.463C114.501 183.63 115.244 181.499 114.409 179.709Z" fill="#D5DBFE"/>
<path d="M115.552 180.573L65.4285 204.685C64.5009 205.117 63.4186 204.746 62.9548 203.82L33.1468 142.013C32.7139 141.087 33.0849 140.007 34.0126 139.544L84.1359 115.432C85.0635 115 86.1457 115.37 86.6096 116.297L116.449 178.103C116.851 179.03 116.479 180.141 115.552 180.573Z" fill="#FEDADA"/>
<path d="M83.714 121.732L39.0195 143.481L42.2978 150.197L86.9923 128.448L83.714 121.732Z" fill="white"/>
<path d="M75.2798 194.204L54.2148 151.051L44.9313 155.568L65.9962 198.721L75.2798 194.204Z" fill="white"/>
<path d="M54.9456 156.246L48.5449 159.333C48.4831 159.364 48.3594 159.333 48.3285 159.271L47.7719 158.129C47.741 158.067 47.7719 157.944 47.8337 157.913L54.2344 154.795C54.2963 154.764 54.42 154.795 54.4509 154.856L55.0075 155.999C55.0384 156.091 55.0075 156.184 54.9456 156.246Z" fill="#DADAF5"/>
<path d="M56.8636 160.167L50.4629 163.285C50.4011 163.316 50.2774 163.285 50.2464 163.223L49.6899 162.081C49.6589 162.019 49.6899 161.895 49.7517 161.865L56.1524 158.746C56.2142 158.716 56.3379 158.746 56.3688 158.808L56.9254 159.95C56.9563 160.012 56.9254 160.105 56.8636 160.167Z" fill="#DADAF5"/>
<path d="M58.7796 164.056L52.3789 167.175C52.3171 167.205 52.1934 167.174 52.1625 167.113L51.6059 165.97C51.575 165.909 51.6059 165.785 51.6677 165.754L58.0684 162.636C58.1303 162.605 58.2539 162.636 58.2849 162.698L58.8414 163.84C58.8724 163.933 58.8414 164.026 58.7796 164.056Z" fill="#DADAF5"/>
<path d="M60.6663 167.977L54.2656 171.095C54.2038 171.126 54.0801 171.095 54.0492 171.034L53.4926 169.891C53.4617 169.83 53.4926 169.706 53.5544 169.675L59.9551 166.557C60.017 166.526 60.1407 166.557 60.1716 166.619L60.7282 167.761C60.79 167.854 60.7591 167.946 60.6663 167.977Z" fill="#DADAF5"/>
<path d="M62.5843 171.898L56.1836 175.016C56.1218 175.047 55.9981 175.016 55.9672 174.954L55.4106 173.812C55.3796 173.75 55.4106 173.627 55.4724 173.596L61.8731 170.478C61.9349 170.447 62.0586 170.478 62.0896 170.54L62.6461 171.682C62.708 171.775 62.6771 171.867 62.5843 171.898Z" fill="#DADAF5"/>
<path d="M64.5003 175.819L58.0996 178.937C58.0378 178.968 57.9141 178.937 57.8832 178.875L57.3266 177.733C57.2957 177.671 57.3266 177.548 57.3884 177.517L63.7891 174.399C63.851 174.368 63.9747 174.399 64.0056 174.46L64.5622 175.603C64.624 175.695 64.5931 175.788 64.5003 175.819Z" fill="#DADAF5"/>
<path d="M66.4183 179.74L60.0176 182.858C59.9557 182.889 59.8321 182.858 59.8011 182.796L59.2446 181.654C59.2136 181.592 59.2446 181.468 59.3064 181.438L65.7071 178.319C65.7689 178.289 65.8926 178.319 65.9235 178.381L66.4801 179.524C66.511 179.585 66.4801 179.678 66.4183 179.74Z" fill="#DADAF5"/>
<path d="M76.0664 144.638L82.0651 156.956L97.4021 149.485L91.4033 137.167L76.0664 144.638ZM96.9073 149.33L82.2197 156.493L76.5302 144.823L91.2178 137.661L96.9073 149.33Z" fill="white"/>
<path d="M91.9606 152.14L82.0658 156.956L79.623 151.924C79.6849 151.8 79.7777 151.677 79.8395 151.553C80.5198 150.503 81.4783 149.639 82.6533 149.052C83.7974 148.497 85.0033 148.281 86.1783 148.373C88.4665 148.528 90.6001 149.763 91.806 151.831C91.8369 151.924 91.8988 152.047 91.9606 152.14Z" fill="white"/>
<path d="M93.4133 141.334L97.4021 149.485L88.7133 153.714C88.6205 153.622 88.5277 153.56 88.435 153.467C87.8166 152.881 87.2909 152.201 86.8889 151.399C86.4251 150.411 86.1777 149.392 86.1777 148.373C86.1777 145.78 87.631 143.279 90.1047 142.075C91.0324 141.612 92.0528 141.396 93.0113 141.365C93.1659 141.334 93.2896 141.334 93.4133 141.334Z" fill="white"/>
<path d="M90.4749 136.333L58.0385 152.109C57.8839 152.201 57.6674 152.109 57.5747 151.954L56.7089 150.195C56.6161 150.04 56.7089 149.824 56.8635 149.732L89.3308 133.987C89.4854 133.894 89.7018 133.987 89.7946 134.141L90.6604 135.901C90.7222 136.055 90.6295 136.24 90.4749 136.333Z" fill="#FFF4E3"/>
<path d="M75.3239 148.157L59.7087 155.752C59.585 155.813 59.4614 155.752 59.3995 155.659L58.812 154.486C58.7502 154.362 58.812 154.239 58.9048 154.177L74.52 146.583C74.6437 146.521 74.7674 146.583 74.8292 146.675L75.4167 147.848C75.4785 147.972 75.4476 148.126 75.3239 148.157Z" fill="#FFF4E3"/>
<path d="M76.6228 150.812L61.0075 158.407C60.8839 158.468 60.7602 158.407 60.6983 158.314L60.1108 157.141C60.049 157.017 60.1108 156.894 60.2036 156.832L75.8188 149.238C75.9425 149.176 76.0662 149.238 76.128 149.33L76.7155 150.503C76.7774 150.627 76.7465 150.781 76.6228 150.812Z" fill="#FFF4E3"/>
<path d="M77.9216 153.467L62.3064 161.062C62.1827 161.124 62.059 161.062 61.9972 160.969L61.4097 159.796C61.3478 159.673 61.4097 159.549 61.5024 159.487L77.1176 151.893C77.2413 151.831 77.365 151.893 77.4268 151.985L78.0144 153.158C78.0762 153.282 78.0453 153.436 77.9216 153.467Z" fill="#FFF4E3"/>
<path d="M99.0393 153.868L66.6029 169.644C66.4483 169.737 66.2319 169.644 66.1391 169.49L65.2733 167.73C65.1806 167.576 65.2733 167.36 65.4279 167.267L97.8643 151.491C98.0189 151.399 98.2354 151.491 98.3281 151.646L99.1939 153.405C99.2557 153.591 99.1939 153.807 99.0393 153.868Z" fill="#FFF4E3"/>
<path d="M101.297 158.499L68.8608 174.275C68.7062 174.368 68.4897 174.275 68.3969 174.121L67.5312 172.361C67.4384 172.207 67.5312 171.991 67.6858 171.898L100.122 156.122C100.277 156.03 100.493 156.122 100.586 156.276L101.452 158.036C101.514 158.221 101.452 158.407 101.297 158.499Z" fill="#FFF4E3"/>
<path d="M103.555 163.13L71.1186 178.906C70.964 178.999 70.7475 178.906 70.6548 178.752L69.789 176.992C69.6962 176.838 69.789 176.621 69.9436 176.529L102.38 160.753C102.535 160.66 102.751 160.753 102.844 160.907L103.71 162.667C103.771 162.821 103.71 163.038 103.555 163.13Z" fill="#FFF4E3"/>
<path d="M105.811 167.73L73.3744 183.506C73.2198 183.599 73.0034 183.506 72.9106 183.352L72.0448 181.592C71.9521 181.438 72.0448 181.222 72.1994 181.129L104.636 165.353C104.79 165.26 105.007 165.353 105.1 165.507L105.965 167.267C106.027 167.452 105.965 167.668 105.811 167.73Z" fill="#FFF4E3"/>
<path d="M108.069 172.361L75.6322 188.137C75.4776 188.23 75.2612 188.137 75.1684 187.983L74.3026 186.223C74.2099 186.069 74.3026 185.852 74.4572 185.76L106.894 169.984C107.048 169.891 107.265 169.984 107.357 170.138L108.223 171.898C108.285 172.083 108.223 172.299 108.069 172.361Z" fill="#FFF4E3"/>
<path d="M110.326 176.992L77.8901 192.768C77.7355 192.86 77.519 192.768 77.4262 192.613L76.5604 190.854C76.4677 190.699 76.5604 190.483 76.7151 190.391L109.151 174.615C109.306 174.522 109.522 174.615 109.615 174.769L110.481 176.529C110.543 176.714 110.481 176.899 110.326 176.992Z" fill="#FFF4E3"/>
<path d="M224.425 103.052C227.796 117.346 222.044 130.961 211.686 136.055C204.296 139.667 191.618 140.439 185.372 131.949C179.806 124.416 181.074 111.974 188.093 107.282C195.73 102.188 207.821 107.838 213.015 114.938C222.694 128.213 215.242 156.184 196.07 164.272C179.373 171.311 162.305 159.734 160.82 158.685" stroke="#FEDADA" stroke-width="3" stroke-miterlimit="10" stroke-linecap="round" stroke-linejoin="round" stroke-dasharray="8 8"/>
<path opacity="0.2" d="M226.359 105.613C236.564 101.567 241.552 90.0263 237.499 79.8369C233.446 69.6475 221.887 64.6678 211.682 68.7144C201.476 72.761 196.489 84.3015 200.542 94.4909C204.595 104.68 216.153 109.66 226.359 105.613Z" fill="#D5DBFE"/>
<path d="M225.366 104.14C236.093 101.797 242.887 91.2155 240.54 80.5054C238.194 69.7952 227.595 63.0122 216.868 65.3551C206.141 67.698 199.348 78.2795 201.694 88.9897C204.041 99.6998 214.639 106.483 225.366 104.14Z" fill="#FFCACA"/>
<path d="M216.51 74.0322C217.159 73.0134 218.18 72.1799 219.509 71.5315C220.839 70.9141 222.385 70.6362 224.086 70.7597C225.786 70.8832 227.487 71.4698 229.188 72.5503C230.765 73.5691 231.971 74.7423 232.806 76.0698C233.64 77.4282 234.073 78.7866 234.073 80.2067C234.104 81.6268 233.733 82.9235 232.96 84.0967C232.373 85.0228 231.661 85.702 230.857 86.1651C230.054 86.6282 229.219 86.9369 228.384 87.0913C227.549 87.2765 226.065 87.5235 223.993 87.8631C223.405 87.9557 222.911 88.0792 222.54 88.1718C222.169 88.2953 221.828 88.4188 221.581 88.5423C221.334 88.6967 221.117 88.851 220.932 89.0054C220.746 89.1906 220.406 89.4993 219.942 89.9316C219.015 90.9195 217.994 91.0738 216.912 90.3946C216.355 90.0242 215.984 89.5611 215.83 88.9436C215.675 88.3262 215.83 87.647 216.294 86.9369C216.881 86.0416 217.53 85.3315 218.242 84.8376C218.953 84.3436 219.695 84.004 220.499 83.7879C221.303 83.5718 222.292 83.3866 223.529 83.2014C224.611 83.047 225.415 82.8926 225.91 82.8C226.405 82.6765 226.9 82.5222 227.363 82.2752C227.827 82.0282 228.198 81.6886 228.477 81.2564C229.033 80.392 229.188 79.4658 228.909 78.447C228.631 77.4282 228.013 76.5946 226.992 75.9463C225.786 75.1745 224.735 74.9275 223.777 75.1745C222.818 75.4215 221.767 76.0081 220.653 76.9034C219.509 77.8913 218.396 78.0456 217.376 77.3973C216.757 76.996 216.386 76.4711 216.263 75.7611C216.108 75.1128 216.201 74.5262 216.51 74.0322ZM213.016 96.9087C212.367 96.4765 211.903 95.89 211.686 95.149C211.47 94.4081 211.594 93.6363 212.088 92.8953C212.521 92.2161 213.14 91.7839 213.913 91.6295C214.686 91.4752 215.428 91.5987 216.108 92.0618C216.788 92.494 217.221 93.1114 217.376 93.8524C217.53 94.6242 217.407 95.3342 216.974 96.0134C216.479 96.7853 215.861 97.2175 215.088 97.341C214.376 97.4644 213.665 97.3101 213.016 96.9087Z" fill="white"/>
<path d="M101.454 5.03218L105.195 3.05634C106.03 2.62413 107.019 3.3342 106.865 4.26037L106.154 8.42815C106.092 8.79862 106.215 9.19997 106.494 9.44695L109.524 12.3798C110.204 13.059 109.833 14.2013 108.875 14.3557L104.7 14.9731C104.329 15.0349 103.989 15.251 103.835 15.5906L101.948 19.3879C101.515 20.2523 100.31 20.2523 99.8766 19.3879L97.9904 15.5906C97.8358 15.251 97.4957 15.004 97.1246 14.9731L92.9503 14.3557C91.9917 14.2322 91.6207 13.059 92.3009 12.3798L95.3312 9.44695C95.6095 9.1691 95.7332 8.79862 95.6713 8.42815L94.9602 4.26037C94.8056 3.30332 95.795 2.59326 96.6299 3.05634L100.371 5.03218C100.712 5.21742 101.113 5.21742 101.454 5.03218Z" fill="#D8EAFF"/>
<path d="M153.71 249.882C149.134 249.882 145.393 246.146 145.393 241.577C145.393 237.008 149.134 233.272 153.71 233.272C158.287 233.272 162.028 237.008 162.028 241.577C162.028 246.146 158.287 249.882 153.71 249.882ZM153.71 235.557C150.402 235.557 147.681 238.243 147.681 241.577C147.681 244.911 150.371 247.597 153.71 247.597C157.019 247.597 159.74 244.911 159.74 241.577C159.74 238.243 157.019 235.557 153.71 235.557Z" fill="#D8EAFF"/>
<path d="M153.711 245.807C156.05 245.807 157.947 243.913 157.947 241.577C157.947 239.241 156.05 237.348 153.711 237.348C151.371 237.348 149.475 239.241 149.475 241.577C149.475 243.913 151.371 245.807 153.711 245.807Z" fill="#D8EAFF"/>
<path d="M25.8507 214.564C27.2168 214.564 28.3244 213.458 28.3244 212.094C28.3244 210.73 27.2168 209.624 25.8507 209.624C24.4845 209.624 23.377 210.73 23.377 212.094C23.377 213.458 24.4845 214.564 25.8507 214.564Z" fill="#D8EAFF"/>
</svg>
