<svg width="138" height="136" viewBox="0 0 138 136" fill="none" xmlns="http://www.w3.org/2000/svg">
<path d="M119.618 12.8235C94.006 -7.46532 48.0171 -2.07376 22.6542 17.7672C-5.48429 39.7813 0.482469 72.7777 1.62928 78.4015C5.65144 97.977 22.0725 129.082 53.4021 133.279C88.2221 137.941 115.762 105.94 125.818 86.7957C128.46 81.7691 150.815 37.5086 119.618 12.8235Z" fill="#FDF8E3"/>
<path opacity="0.2" d="M100.056 94.4434L71.6511 30.5742C70.604 28.2185 67.7951 27.1402 65.435 28.1853L14.1109 50.946C11.7508 51.9911 10.6705 54.7947 11.7176 57.1504L40.122 121.02C41.1691 123.375 43.978 124.454 46.3381 123.409L97.6788 100.664C100.039 99.6027 101.119 96.8157 100.056 94.4434Z" fill="#D5DBFE"/>
<path d="M101.651 95.555L45.1913 120.572C44.2273 121.003 43.0971 120.555 42.6816 119.61L11.9835 50.6308C11.5514 49.6687 12.0001 48.5406 12.9475 48.1258L69.4073 23.109C70.3713 22.6777 71.5015 23.1256 71.917 24.0712L102.598 93.05C103.047 94.0122 102.615 95.1402 101.651 95.555Z" fill="white"/>
<path d="M41.7348 45.7701L21.9232 54.5459C21.6905 54.6455 21.4246 54.5459 21.3249 54.3137L20.2612 51.9414C20.1614 51.7092 20.2612 51.4437 20.4938 51.3442L40.3055 42.5684C40.5382 42.4688 40.8041 42.5684 40.9038 42.8006L41.9675 45.1729C42.0673 45.4052 41.9509 45.6706 41.7348 45.7701Z" fill="#FFE0B0"/>
<path d="M71.7843 42.1371L30.8148 60.2859C30.5821 60.3854 30.3162 60.2859 30.2165 60.0536L29.1528 57.6813C29.053 57.4491 29.1528 57.1837 29.3855 57.0841L70.355 38.9353C70.5877 38.8358 70.8536 38.9353 70.9533 39.1676L72.017 41.5398C72.1168 41.7555 72.017 42.0375 71.7843 42.1371Z" fill="#E4ECF9"/>
<path d="M75.1576 49.7184L28.8861 70.2229C28.6534 70.3224 28.3875 70.2229 28.2878 69.9906L27.2241 67.6184C27.1243 67.3861 27.2241 67.1207 27.4567 67.0211L73.7282 46.5166C73.9609 46.4171 74.2268 46.5166 74.3265 46.7489L75.3903 49.1212C75.49 49.3368 75.3903 49.6023 75.1576 49.7184Z" fill="#E4ECF9"/>
<path d="M78.5316 57.2832L32.2601 77.7877C32.0274 77.8872 31.7615 77.7877 31.6618 77.5554L30.5981 75.1832C30.4984 74.9509 30.5981 74.6855 30.8308 74.5859L77.1022 54.0814C77.3349 53.9819 77.6008 54.0814 77.7006 54.3137L78.7643 56.686C78.864 56.9182 78.7643 57.1837 78.5316 57.2832Z" fill="#E4ECF9"/>
<path d="M81.9066 64.8646L35.6351 85.3691C35.4024 85.4686 35.1365 85.3691 35.0368 85.1368L33.9731 82.7645C33.8734 82.5323 33.9731 82.2669 34.2058 82.1673L80.4773 61.6628C80.7099 61.5633 80.9759 61.6628 81.0756 61.8951L82.1393 64.2674C82.239 64.4996 82.1393 64.765 81.9066 64.8646Z" fill="#E4ECF9"/>
<path d="M85.2796 72.4459L39.0082 92.9505C38.7755 93.05 38.5096 92.9505 38.4098 92.7182L37.3461 90.3459C37.2464 90.1137 37.3461 89.8482 37.5788 89.7487L83.8503 69.2442C84.0829 69.1446 84.3489 69.2442 84.4486 69.4764L85.5123 71.8487C85.612 72.081 85.4957 72.3464 85.2796 72.4459Z" fill="#E4ECF9"/>
<path d="M88.6371 80.0273L42.3656 100.532C42.1329 100.631 41.867 100.532 41.7673 100.3L40.7035 97.9272C40.6038 97.695 40.7035 97.4296 40.9362 97.33L87.2077 76.8255C87.4404 76.726 87.7063 76.8255 87.806 77.0578L88.8698 79.4301C88.9695 79.6623 88.8697 79.9277 88.6371 80.0273Z" fill="#E4ECF9"/>
<path d="M92.0111 87.6087L45.7396 108.113C45.5069 108.213 45.241 108.113 45.1413 107.881L44.0776 105.509C43.9778 105.276 44.0776 105.011 44.3103 104.911L90.5817 84.3903C90.8144 84.2908 91.0803 84.3903 91.1801 84.6226L92.2438 86.9949C92.3435 87.2271 92.2438 87.5091 92.0111 87.6087Z" fill="#E4ECF9"/>
<path opacity="0.2" d="M125.169 97.4462V53.3515C125.169 53.3018 125.169 53.2354 125.169 53.1856C125.169 53.1524 125.169 53.1027 125.169 53.0695C125.169 53.0197 125.169 52.97 125.152 52.9368C125.152 52.9036 125.136 52.8538 125.136 52.8207C125.136 52.7875 125.119 52.7377 125.119 52.7045C125.102 52.6548 125.102 52.605 125.086 52.5552C125.052 52.4557 125.036 52.3562 125.003 52.2566C124.986 52.1903 124.953 52.1405 124.936 52.0741C124.853 51.8585 124.737 51.6594 124.604 51.4769C124.57 51.4271 124.537 51.394 124.504 51.3442C124.421 51.2447 124.338 51.1617 124.255 51.0622C124.221 51.029 124.205 51.0124 124.172 50.9792C124.138 50.9461 124.088 50.9129 124.055 50.8797L124.039 50.8631L123.872 50.7304L119.169 47.1803V39.9805L114.1 34.9207L111.324 32.1503L103.994 24.8343H89.684L84.4153 20.8363C83.2519 19.957 81.6563 19.957 80.4929 20.8363L75.2242 24.8343H50.1106C47.0857 24.8343 44.6092 27.3061 44.6092 30.3254V47.9766L40.9693 50.7304L40.8031 50.8631L40.7865 50.8797C40.3544 51.2447 40.0053 51.7092 39.8059 52.2566C39.6895 52.605 39.6064 52.97 39.6064 53.3515V97.4462V97.6121V98.06C39.6064 98.1429 39.6064 98.2259 39.6231 98.3088C39.6231 98.3254 39.6231 98.342 39.6231 98.3586C39.6231 98.3752 39.6231 98.3918 39.6231 98.4084V98.4249V98.4415C39.6231 98.4913 39.6397 98.5411 39.6397 98.5908C39.6397 98.5908 39.6397 98.6074 39.6397 98.624C39.6397 98.6406 39.6397 98.6572 39.6563 98.6738C39.6563 98.6904 39.6563 98.707 39.6729 98.7402C39.6729 98.7567 39.6729 98.7567 39.6729 98.7733C39.6729 98.7899 39.6729 98.7899 39.6729 98.8065C39.6895 98.8563 39.7062 98.906 39.7062 98.9558C39.7062 98.9724 39.7062 98.9724 39.7228 98.989C39.7228 99.0056 39.7394 99.0388 39.7394 99.0553C39.7394 99.0719 39.756 99.1051 39.756 99.1217C39.7726 99.1715 39.7893 99.2378 39.8225 99.2876C39.8391 99.3208 39.8558 99.354 39.8724 99.3871C39.8724 99.4037 39.889 99.4203 39.889 99.4369C39.9056 99.4867 39.9389 99.5364 39.9555 99.5696C39.9555 99.5696 39.9555 99.5862 39.9721 99.5862C39.9721 99.6028 39.9887 99.6028 39.9887 99.6194C40.0053 99.6526 40.022 99.6692 40.0386 99.7023C40.0386 99.7189 40.0552 99.7189 40.0552 99.7355C40.0884 99.7853 40.1217 99.835 40.1549 99.8848C40.1549 99.9014 40.1715 99.9014 40.1715 99.918C40.2048 99.9678 40.238 100.001 40.2713 100.051C40.2879 100.067 40.3045 100.1 40.3211 100.117C40.3544 100.15 40.371 100.183 40.4042 100.2C40.4209 100.217 40.4208 100.217 40.4375 100.233C40.4873 100.283 40.5372 100.333 40.5871 100.382C40.6037 100.399 40.6203 100.416 40.6369 100.432C40.6535 100.449 40.6868 100.465 40.7034 100.499C40.7865 100.582 40.8862 100.648 40.9859 100.714C41.0026 100.731 41.0192 100.731 41.0358 100.747C41.0524 100.764 41.0857 100.781 41.1023 100.797C41.1355 100.814 41.1854 100.847 41.2186 100.864C41.2519 100.88 41.2685 100.897 41.3017 100.897C41.335 100.913 41.3682 100.93 41.4015 100.947C41.4347 100.963 41.4679 100.98 41.4846 100.996C41.5344 101.013 41.5843 101.029 41.6341 101.063C41.6341 101.063 41.6508 101.063 41.6508 101.079C41.6674 101.079 41.684 101.096 41.7006 101.096C41.7172 101.096 41.7505 101.112 41.7837 101.112C41.8003 101.112 41.817 101.129 41.817 101.129C41.8835 101.146 41.9499 101.162 42.0164 101.179C42.033 101.179 42.0497 101.195 42.0663 101.195C42.0829 101.195 42.0829 101.195 42.0995 101.195C42.1161 101.195 42.1161 101.195 42.1328 101.195C42.166 101.195 42.2159 101.212 42.2491 101.212C42.2491 101.212 42.2491 101.212 42.2657 101.212C42.2823 101.212 42.2823 101.212 42.299 101.212C42.3156 101.212 42.3156 101.212 42.3322 101.212C42.3488 101.212 42.3821 101.212 42.3987 101.229C42.4153 101.229 42.4153 101.229 42.4319 101.229C42.4486 101.229 42.4486 101.229 42.4652 101.229C42.4984 101.229 42.5483 101.229 42.5815 101.229C42.6314 101.229 42.6979 101.229 42.7477 101.229H42.9305H121.895C121.944 101.229 122.011 101.229 122.061 101.229C122.094 101.229 122.144 101.229 122.177 101.229C122.194 101.229 122.194 101.229 122.21 101.229C122.227 101.229 122.244 101.229 122.26 101.229C122.277 101.229 122.277 101.229 122.293 101.229C122.31 101.229 122.343 101.229 122.36 101.229C122.36 101.229 122.36 101.229 122.377 101.229C122.41 101.229 122.426 101.212 122.46 101.212C122.476 101.212 122.51 101.212 122.526 101.195C122.526 101.195 122.526 101.195 122.543 101.195C122.576 101.195 122.609 101.179 122.626 101.179C122.692 101.162 122.759 101.146 122.825 101.129C122.842 101.129 122.859 101.112 122.875 101.112C122.892 101.112 122.908 101.096 122.942 101.096C122.958 101.096 122.958 101.096 122.975 101.079C122.992 101.079 122.991 101.079 123.008 101.063C123.025 101.063 123.041 101.046 123.058 101.046C123.191 100.996 123.324 100.93 123.457 100.864C123.457 100.864 123.457 100.864 123.473 100.864C123.49 100.847 123.507 100.847 123.54 100.83C123.557 100.814 123.573 100.814 123.59 100.797C123.606 100.781 123.64 100.764 123.656 100.747C123.673 100.747 123.673 100.731 123.69 100.731C123.706 100.731 123.706 100.714 123.723 100.714C123.756 100.698 123.789 100.665 123.823 100.648L123.839 100.631C123.856 100.615 123.889 100.598 123.906 100.582C123.922 100.565 123.955 100.548 123.972 100.532L123.989 100.515L124.005 100.499C124.022 100.482 124.039 100.465 124.072 100.449C124.088 100.432 124.105 100.416 124.122 100.399C124.138 100.383 124.155 100.366 124.155 100.366C124.172 100.349 124.188 100.333 124.188 100.316C124.221 100.283 124.238 100.266 124.271 100.233C124.305 100.2 124.321 100.167 124.354 100.15C124.371 100.134 124.388 100.117 124.404 100.1C124.437 100.051 124.487 100.001 124.521 99.9512C124.537 99.9346 124.554 99.9014 124.57 99.8848C124.587 99.8682 124.587 99.8516 124.604 99.8516C124.62 99.8185 124.654 99.7853 124.67 99.7521C124.687 99.7355 124.703 99.7023 124.703 99.6858C124.72 99.6692 124.737 99.636 124.737 99.6194C124.753 99.6028 124.77 99.5696 124.77 99.553C124.803 99.4867 124.836 99.4203 124.87 99.3374V99.3208C124.87 99.3042 124.886 99.271 124.903 99.2544C124.919 99.2212 124.919 99.2047 124.936 99.1715C124.953 99.1549 124.953 99.1217 124.953 99.1051C124.953 99.0885 124.969 99.0554 124.969 99.0388C124.969 99.0222 124.969 99.0222 124.986 99.0056V98.989C124.986 98.9558 125.003 98.9226 125.019 98.8895C125.019 98.8729 125.036 98.8563 125.036 98.8397C125.036 98.8231 125.036 98.8231 125.036 98.8065C125.036 98.7899 125.036 98.7899 125.052 98.7733C125.052 98.7733 125.052 98.7733 125.052 98.7567V98.7402C125.052 98.707 125.069 98.6572 125.069 98.624C125.069 98.5908 125.086 98.5411 125.086 98.5079C125.086 98.4913 125.086 98.4747 125.086 98.4581C125.086 98.4415 125.086 98.4415 125.086 98.4249C125.086 98.3918 125.086 98.3752 125.086 98.342C125.086 98.3088 125.086 98.2922 125.086 98.2591C125.086 98.2093 125.086 98.1429 125.086 98.0932V97.9604V97.6618V97.4462H125.169Z" fill="#D5DBFE"/>
<path d="M128.294 50.1166V94.8251C128.294 94.8748 128.294 94.9412 128.294 94.991C128.294 95.0241 128.294 95.0407 128.294 95.0739C128.294 95.0905 128.294 95.1237 128.294 95.1568C128.294 95.1734 128.294 95.1734 128.294 95.19C128.294 95.2066 128.294 95.2232 128.294 95.2398C128.294 95.273 128.277 95.3227 128.277 95.3559C128.277 95.3891 128.26 95.4389 128.26 95.472C128.26 95.4886 128.26 95.5052 128.244 95.5218C128.244 95.5384 128.244 95.555 128.244 95.555C128.244 95.5716 128.244 95.5882 128.227 95.6048C128.227 95.6379 128.211 95.6711 128.194 95.7043V95.7209C128.177 95.7707 128.161 95.837 128.144 95.8868C128.128 95.92 128.128 95.9366 128.111 95.9697C128.094 96.0029 128.094 96.0195 128.078 96.0361V96.0527C128.044 96.119 128.011 96.202 127.978 96.2683C127.961 96.2849 127.961 96.3181 127.945 96.3347C127.928 96.3513 127.911 96.3845 127.911 96.4011C127.895 96.4176 127.895 96.4508 127.878 96.4674C127.845 96.5172 127.828 96.5504 127.795 96.6001C127.778 96.6333 127.762 96.6499 127.745 96.6831C127.695 96.7328 127.662 96.7992 127.612 96.849C127.579 96.8987 127.546 96.9319 127.513 96.9651C127.479 96.9983 127.446 97.048 127.413 97.0812C127.396 97.0978 127.38 97.1144 127.363 97.131C127.346 97.1476 127.33 97.1642 127.313 97.1808C127.296 97.1973 127.28 97.2139 127.247 97.2305L127.23 97.2471C127.18 97.2969 127.13 97.3301 127.08 97.3632C127.08 97.3632 127.064 97.3632 127.064 97.3798C127.014 97.413 126.981 97.4462 126.931 97.4628C126.914 97.4794 126.898 97.4794 126.881 97.496C126.864 97.5125 126.831 97.5291 126.814 97.5457C126.798 97.5623 126.781 97.5623 126.765 97.5789C126.748 97.5955 126.731 97.6121 126.698 97.6121C126.549 97.695 126.399 97.7614 126.249 97.8277C126.233 97.8277 126.233 97.8277 126.216 97.8443C126.2 97.8443 126.2 97.8443 126.183 97.8609C126.15 97.8775 126.116 97.8941 126.067 97.8941C126 97.9107 125.934 97.9273 125.867 97.9439C125.834 97.9439 125.801 97.9605 125.767 97.9605C125.751 97.9605 125.718 97.9605 125.701 97.977C125.668 97.977 125.651 97.9936 125.618 97.9936C125.618 97.9936 125.618 97.9936 125.601 97.9936C125.585 97.9936 125.551 97.9936 125.535 97.9936C125.518 97.9936 125.518 97.9936 125.501 97.9936C125.485 97.9936 125.468 97.9936 125.452 97.9936C125.435 97.9936 125.435 97.9936 125.418 97.9936C125.385 97.9936 125.335 97.9936 125.302 97.9936C125.252 97.9936 125.186 97.9936 125.136 97.9936H46.0056C45.9557 97.9936 45.8893 97.9936 45.8394 97.9936C45.8062 97.9936 45.7563 97.9936 45.7231 97.9936C45.6732 97.9936 45.64 97.9936 45.5901 97.977C45.5569 97.977 45.5402 97.9771 45.507 97.9605C45.4405 97.9605 45.3907 97.9439 45.3242 97.9273C45.3075 97.9273 45.2909 97.9273 45.2743 97.9107C45.2078 97.8941 45.1413 97.8775 45.0749 97.8609C45.0416 97.8443 44.9918 97.8443 44.9585 97.8277C44.7923 97.7614 44.6095 97.695 44.4599 97.6121C44.4267 97.5955 44.3768 97.5623 44.3436 97.5457C44.2937 97.5125 44.2605 97.496 44.2106 97.4628C43.9613 97.2969 43.7286 97.0812 43.5292 96.849C43.4793 96.7992 43.4461 96.7328 43.3962 96.6831C43.2466 96.484 43.1303 96.2683 43.0472 96.0527C43.0305 96.0029 43.0139 95.9366 42.9807 95.8868C42.9641 95.837 42.9474 95.7707 42.9308 95.7209C42.9142 95.6711 42.8976 95.6048 42.881 95.555C42.8643 95.5052 42.8643 95.4555 42.8477 95.3891C42.8477 95.3891 42.8477 95.3725 42.8477 95.3559C42.8477 95.3062 42.8311 95.2564 42.8311 95.19C42.8311 95.19 42.8311 95.19 42.8311 95.1734C42.8311 95.1403 42.8311 95.0905 42.8145 95.0573C42.8145 94.9744 42.7979 94.8914 42.7979 94.8085V50.1C42.7979 49.7184 42.8643 49.3535 42.9973 49.0051C43.1967 48.4576 43.5292 47.9931 43.9779 47.6282L43.9945 47.6116L44.1607 47.4789C44.676 47.1139 45.3242 46.8982 46.0056 46.8982H125.136C125.219 46.8982 125.285 46.8982 125.368 46.9148C125.385 46.9148 125.402 46.9148 125.402 46.9148C125.468 46.9148 125.551 46.9314 125.618 46.9314C125.634 46.9314 125.651 46.9314 125.668 46.9314C125.734 46.948 125.784 46.948 125.851 46.9646C125.867 46.9646 125.884 46.9646 125.9 46.9812C125.983 46.9978 126.05 47.0144 126.116 47.0476C126.183 47.0641 126.249 47.0973 126.316 47.1139C126.416 47.1471 126.499 47.1969 126.582 47.2466C126.632 47.2632 126.682 47.2964 126.731 47.3296C126.814 47.3793 126.898 47.4291 126.964 47.4789L127.13 47.6116L127.147 47.6282C127.197 47.6614 127.23 47.6945 127.263 47.7277C127.296 47.7609 127.33 47.7775 127.346 47.8107C127.429 47.8936 127.513 47.9931 127.596 48.0927C127.629 48.1424 127.662 48.1756 127.695 48.2254C127.828 48.4079 127.945 48.607 128.028 48.8226C128.061 48.8724 128.078 48.9387 128.094 49.0051C128.128 49.1046 128.161 49.2042 128.177 49.3037C128.194 49.3535 128.194 49.4032 128.211 49.453C128.211 49.4862 128.227 49.536 128.227 49.5691C128.227 49.6023 128.244 49.6521 128.244 49.6853C128.244 49.735 128.26 49.7848 128.26 49.818C128.26 49.8512 128.26 49.9009 128.26 49.9341C128.294 50.0005 128.294 50.0668 128.294 50.1166Z" fill="#BCD7FF"/>
<path d="M128.094 49.0217H42.9307C43.1301 48.4742 43.4625 48.0097 43.9113 47.6448L43.9279 47.6282L44.0941 47.4954L83.5512 17.6013C84.7146 16.7221 86.3102 16.7221 87.4736 17.6013L126.931 47.4954L127.097 47.6282L127.114 47.6448C127.163 47.6779 127.197 47.7111 127.23 47.7443C127.263 47.7775 127.296 47.7941 127.313 47.8272C127.396 47.9102 127.479 48.0097 127.562 48.1093C127.596 48.159 127.629 48.1922 127.662 48.242C127.795 48.4244 127.911 48.6235 127.994 48.8392C128.044 48.889 128.078 48.9553 128.094 49.0217Z" fill="#FFE0B0"/>
<path d="M122.244 36.7455V80.6245C122.244 82.2669 120.898 83.6106 119.252 83.6106H50.7261C49.0806 83.6106 47.7344 82.2669 47.7344 80.6245V27.0905C47.7344 24.0712 50.2108 21.5994 53.2358 21.5994H107.053L111.939 26.4767L117.158 31.6858L122.244 36.7455Z" fill="white"/>
<path d="M107.817 35.717C108.083 35.9824 108.515 37.7741 122.244 38.6865V36.7455L107.817 35.717Z" fill="#C7D5EA"/>
<path d="M107.069 33.776C107.069 35.4183 108.416 36.7621 110.061 36.7621H122.244L107.069 21.616V33.776Z" fill="#E7EEF7"/>
<path d="M115.28 43.5804H60.4487C60.216 43.5804 60.0166 43.3813 60.0166 43.149V40.6938C60.0166 40.4616 60.216 40.2625 60.4487 40.2625H115.28C115.512 40.2625 115.712 40.4616 115.712 40.6938V43.149C115.712 43.3813 115.529 43.5804 115.28 43.5804Z" fill="#E4ECF9"/>
<path d="M115.279 51.1451H53.9663C53.7336 51.1451 53.5342 50.946 53.5342 50.7137V48.2585C53.5342 48.0263 53.7336 47.8272 53.9663 47.8272H115.279C115.512 47.8272 115.711 48.0263 115.711 48.2585V50.7137C115.711 50.946 115.529 51.1451 115.279 51.1451Z" fill="#E4ECF9"/>
<path d="M115.279 58.7099H53.9663C53.7336 58.7099 53.5342 58.5108 53.5342 58.2785V55.8233C53.5342 55.5911 53.7336 55.392 53.9663 55.392H115.279C115.512 55.392 115.711 55.5911 115.711 55.8233V58.2785C115.711 58.5108 115.529 58.7099 115.279 58.7099Z" fill="#E4ECF9"/>
<path d="M115.279 66.2746H53.9663C53.7336 66.2746 53.5342 66.0756 53.5342 65.8433V63.3881C53.5342 63.1558 53.7336 62.9568 53.9663 62.9568H115.279C115.512 62.9568 115.711 63.1558 115.711 63.3881V65.8433C115.711 66.0756 115.529 66.2746 115.279 66.2746Z" fill="#E4ECF9"/>
<path d="M85.5292 73.6735C85.4129 73.8062 85.2633 73.9389 85.0805 74.0385L46.1386 98.0268H45.9558C45.6234 98.0268 45.3242 97.977 45.025 97.894C44.9752 97.8775 44.9419 97.8609 44.9087 97.8609C44.3935 97.6784 43.9447 97.3798 43.5957 96.9816C43.5624 96.9484 43.5292 96.8987 43.496 96.8655C43.3962 96.7494 43.3131 96.6167 43.23 96.4839C43.1968 96.4342 43.1802 96.401 43.1469 96.3512C43.1303 96.3015 43.0971 96.2517 43.0804 96.2185C42.881 95.8038 42.7646 95.3227 42.7646 94.825V50.1165C42.7646 49.735 42.8311 49.37 42.9641 49.0216C43.1635 48.4742 43.496 48.0097 43.9447 47.6447L43.9613 47.6281L44.1275 47.4954C44.6428 47.1304 45.291 46.9148 45.9724 46.9148H46.7037L50.1275 49.0216L81.6566 68.4313L82.8367 69.1612L85.0971 70.5547C85.2633 70.6542 85.4129 70.7869 85.5458 70.9197C86.2273 71.6994 86.2273 72.8938 85.5292 73.6735Z" fill="#DCE0EC"/>
<path d="M128.294 50.1166V94.825C128.294 94.8748 128.294 94.9412 128.294 94.9909C128.294 95.0241 128.294 95.0407 128.294 95.0739C128.294 95.0905 128.294 95.1236 128.294 95.1568C128.294 95.1734 128.294 95.1734 128.294 95.19C128.294 95.2066 128.294 95.2232 128.294 95.2398C128.294 95.2729 128.277 95.3227 128.277 95.3559C128.277 95.3891 128.261 95.4388 128.261 95.472V95.4886C128.261 95.5052 128.261 95.5052 128.244 95.5218C128.244 95.5384 128.244 95.555 128.244 95.555C128.244 95.5716 128.244 95.5882 128.227 95.6047C128.227 95.6379 128.211 95.6711 128.194 95.7043V95.7209C128.178 95.7706 128.161 95.837 128.144 95.8868C128.128 95.9199 128.128 95.9365 128.111 95.9697C128.111 95.9863 128.095 96.0195 128.078 96.0361V96.0527C128.045 96.119 128.011 96.202 127.978 96.2683C127.962 96.2849 127.962 96.3181 127.945 96.3347C127.928 96.3513 127.912 96.3844 127.912 96.401C127.895 96.4176 127.895 96.4508 127.878 96.4674C127.845 96.5172 127.829 96.5503 127.795 96.6001C127.779 96.6333 127.762 96.6499 127.745 96.6831C127.696 96.7494 127.662 96.7992 127.613 96.8489C127.579 96.8987 127.546 96.9319 127.513 96.9651C127.48 96.9983 127.446 97.048 127.413 97.0812C127.396 97.0978 127.38 97.1144 127.363 97.131C127.347 97.1476 127.33 97.1641 127.313 97.1807C127.297 97.1973 127.28 97.2139 127.247 97.2305L127.23 97.2471C127.18 97.2969 127.131 97.33 127.081 97.3632C127.081 97.3632 127.064 97.3632 127.064 97.3798C127.014 97.413 126.981 97.4462 126.931 97.4628C126.914 97.4793 126.898 97.4793 126.881 97.4959C126.865 97.5125 126.831 97.5291 126.815 97.5457C126.798 97.5623 126.782 97.5623 126.765 97.5789C126.748 97.5955 126.732 97.6121 126.698 97.6121C126.549 97.695 126.399 97.7614 126.25 97.8277C126.233 97.8277 126.233 97.8277 126.216 97.8443C126.2 97.8443 126.2 97.8443 126.183 97.8609C126.15 97.8775 126.117 97.8941 126.067 97.8941C126 97.9107 125.934 97.9273 125.867 97.9439C125.834 97.9439 125.801 97.9604 125.768 97.9604C125.751 97.9604 125.718 97.9604 125.701 97.977C125.668 97.977 125.651 97.9936 125.618 97.9936C125.601 97.9936 125.568 97.9936 125.552 98.0102C125.535 98.0102 125.535 98.0102 125.518 98.0102C125.502 98.0102 125.485 98.0102 125.468 98.0102C125.452 98.0102 125.452 98.0102 125.435 98.0102C125.402 98.0102 125.352 98.0102 125.319 98.0102C125.269 98.0102 125.203 98.0102 125.153 98.0102H124.97L85.9615 74.0385C85.7953 73.939 85.6457 73.8062 85.5294 73.6735C84.8313 72.9104 84.8313 71.6994 85.5294 70.9363C85.6457 70.8036 85.7953 70.6708 85.9615 70.5713L88.2219 69.1778L89.402 68.4479L120.931 49.0382L124.355 46.9314H125.086C125.169 46.9314 125.236 46.9314 125.319 46.948C125.336 46.948 125.352 46.948 125.352 46.948C125.419 46.948 125.502 46.9646 125.568 46.9646C125.585 46.9646 125.601 46.9646 125.618 46.9646C125.685 46.9812 125.734 46.9812 125.801 46.9977C125.818 46.9977 125.834 46.9977 125.851 47.0143C125.934 47.0309 126 47.0475 126.067 47.0807C126.133 47.0973 126.2 47.1305 126.266 47.1471C126.366 47.1802 126.449 47.23 126.532 47.2798C126.582 47.2964 126.632 47.3295 126.682 47.3627C126.765 47.4125 126.848 47.4623 126.914 47.512L127.081 47.6447L127.097 47.6613C127.147 47.6945 127.18 47.7277 127.214 47.7609C127.247 47.794 127.28 47.8106 127.297 47.8438C127.38 47.9268 127.463 48.0263 127.546 48.1258C127.579 48.1756 127.613 48.2088 127.646 48.2585C127.779 48.441 127.895 48.6401 127.978 48.8558C128.011 48.9055 128.028 48.9719 128.045 49.0382C128.078 49.1378 128.111 49.2373 128.128 49.3369C128.144 49.3866 128.144 49.4364 128.161 49.4862C128.161 49.5193 128.178 49.5691 128.178 49.6023C128.178 49.6355 128.194 49.6852 128.194 49.7184C128.194 49.7682 128.211 49.8179 128.211 49.8511C128.211 49.8843 128.211 49.9341 128.211 49.9673C128.294 50.0004 128.294 50.0668 128.294 50.1166Z" fill="#DCE0EC"/>
<path opacity="0.29" d="M128.294 94.2112V94.6757C128.294 96.5171 126.864 98.0102 125.086 98.0102H45.9558C44.194 98.0102 42.748 96.5171 42.748 94.6757V94.2112L83.4517 67.4856C84.7148 66.6562 86.327 66.6562 87.5902 67.4856L128.294 94.2112Z" fill="#474747"/>
<path d="M128.294 94.3771V94.825C128.294 96.5835 126.864 98.0268 125.086 98.0268H45.9558C44.194 98.0268 42.748 96.6001 42.748 94.825V94.3771L83.4517 68.763C84.7148 67.9667 86.327 67.9667 87.5902 68.763L128.294 94.3771Z" fill="#DCE0EC"/>
<path d="M72.2322 33.1125H53.9663C53.7336 33.1125 53.5342 32.9134 53.5342 32.6811V30.2259C53.5342 29.9936 53.7336 29.7946 53.9663 29.7946H72.2322C72.4649 29.7946 72.6644 29.9936 72.6644 30.2259V32.6811C72.6644 32.9134 72.4649 33.1125 72.2322 33.1125Z" fill="#D1C7FF"/>
<path d="M22.3711 67.8175C12.6481 66.7557 5.28525 61.6794 3.95561 55.2925C3.34065 52.3561 3.58996 47.1471 7.08027 44.4596C8.65921 43.2485 11.6343 41.9878 14.0775 43.3149C16.8365 44.8245 17.6343 48.9055 16.3213 51.7091C14.8753 54.7948 10.9861 56.0722 8.39329 55.5413C2.75894 54.38 -0.714747 44.1941 0.448688 36.6791C1.86143 27.5716 10.4542 20.0068 22.0387 16.9709" stroke="#D1C7FF" stroke-width="2.8519" stroke-miterlimit="10" stroke-linecap="round" stroke-linejoin="round" stroke-dasharray="7.61 7.61"/>
<path opacity="0.2" d="M39.018 16.763C39.4539 11.3016 35.3717 6.52147 29.9001 6.08632C24.4285 5.65117 19.6394 9.72574 19.2035 15.1871C18.7675 20.6485 22.8497 25.4286 28.3213 25.8638C33.7929 26.2989 38.582 22.2243 39.018 16.763Z" fill="#D5DBFE"/>
<path d="M34.6984 23.5137C39.7518 21.3741 42.1107 15.5508 39.9671 10.5069C37.8236 5.46304 31.9894 3.10858 26.936 5.2481C21.8827 7.38762 19.5238 13.2109 21.6673 18.2548C23.8109 23.2987 29.6451 25.6532 34.6984 23.5137Z" fill="#D1C7FF"/>
<path d="M30.282 18.0659L32.3762 19.9073C32.8582 20.322 33.5895 20.0234 33.6394 19.393L33.8222 16.6226C33.8388 16.3737 33.9718 16.1415 34.1878 16.0254L36.5812 14.6153C37.1297 14.3001 37.0632 13.4872 36.4815 13.2549L33.9053 12.1932C33.6726 12.0937 33.5064 11.8946 33.4399 11.6457L32.825 8.92509C32.692 8.31128 31.8942 8.11221 31.4953 8.60989L29.7003 10.7499C29.5341 10.949 29.3014 11.0485 29.0521 11.0154L26.2765 10.7499C25.6449 10.6836 25.2294 11.3803 25.5618 11.9112L27.041 14.2669C27.174 14.4825 27.1906 14.748 27.0909 14.9802L25.9773 17.535C25.728 18.1156 26.2432 18.7294 26.8582 18.5801L29.5673 17.9C29.8333 17.8336 30.0992 17.9 30.282 18.0659Z" fill="white"/>
<path d="M13.2635 79.6623L15.258 78.6171C15.7067 78.3849 16.2386 78.7664 16.1555 79.2641L15.7732 81.4705C15.74 81.6696 15.8064 81.8686 15.956 82.0179L17.5682 83.5774C17.9339 83.9257 17.7344 84.5561 17.2358 84.6225L15.0087 84.9377C14.8092 84.9709 14.643 85.087 14.5433 85.2695L13.546 87.2768C13.3134 87.7247 12.6652 87.7247 12.4491 87.2768L11.4519 85.2695C11.3688 85.087 11.1859 84.9709 10.9865 84.9377L8.75934 84.6225C8.26073 84.5561 8.06128 83.9257 8.42693 83.5774L10.0391 82.0179C10.1887 81.8852 10.2552 81.6696 10.2219 81.4705L9.83967 79.2641C9.75657 78.7664 10.2718 78.3849 10.7372 78.6171L12.7316 79.6623C12.8812 79.7618 13.0807 79.7618 13.2635 79.6623Z" fill="#D5DBFE"/>
<path d="M23.1682 135.128C24.3171 133.981 24.3171 132.122 23.1682 130.975C22.0194 129.829 20.1567 129.829 19.0079 130.975C17.8591 132.122 17.8591 133.981 19.0079 135.128C20.1567 136.275 22.0194 136.275 23.1682 135.128Z" fill="#D5DBFE"/>
<path d="M136.038 88.2058C137.122 88.2058 138 87.3294 138 86.2483C138 85.1671 137.122 84.2907 136.038 84.2907C134.955 84.2907 134.077 85.1671 134.077 86.2483C134.077 87.3294 134.955 88.2058 136.038 88.2058Z" fill="#D5DBFE"/>
<path d="M128.294 26.8748C125.452 26.8748 123.142 24.5689 123.142 21.7321C123.142 18.8953 125.452 16.5894 128.294 16.5894C131.136 16.5894 133.446 18.8953 133.446 21.7321C133.446 24.5689 131.136 26.8748 128.294 26.8748ZM128.294 18.0161C126.233 18.0161 124.571 19.6916 124.571 21.7321C124.571 23.7892 126.25 25.4481 128.294 25.4481C130.338 25.4481 132.017 23.7726 132.017 21.7321C132.017 19.6916 130.355 18.0161 128.294 18.0161Z" fill="#D5DBFE"/>
<path d="M130.146 23.5883C131.171 22.5647 131.171 20.9051 130.146 19.8815C129.12 18.8579 127.458 18.8579 126.432 19.8815C125.407 20.9051 125.407 22.5647 126.432 23.5883C127.458 24.6119 129.12 24.6119 130.146 23.5883Z" fill="#D5DBFE"/>
</svg>
