<svg width="523" height="403" viewBox="0 0 523 403" fill="none" xmlns="http://www.w3.org/2000/svg">
<path d="M174.251 76.5508C178.608 67.2407 184.121 58.2567 191.057 49.7768C245.506 -16.8615 352.491 -11.2428 415.239 42.4681C484.819 102.035 478.387 202.282 476.964 219.419C472.015 279.016 441.085 376.001 369.949 395.763C336.901 404.939 305.364 394.621 277.858 375.467C256.132 360.346 227.485 361.754 206.751 379.485C198.912 386.186 190.168 391.864 180.446 395.866C158.468 404.954 138.891 402.523 130.414 401.352C64.3312 392.294 -0.209931 317.042 0.397689 246.668C1.07941 165.931 87.4652 103.992 174.251 76.5508Z" fill="#ECF3FE"/>
<path d="M418.885 183.098V341.859C418.885 342.052 418.87 342.244 418.87 342.452C418.87 342.541 418.855 342.63 418.855 342.733C418.855 342.822 418.84 342.911 418.84 343C418.84 343.03 418.826 343.074 418.826 343.104C418.811 343.163 418.811 343.223 418.796 343.282C418.781 343.415 418.766 343.564 418.737 343.697C418.722 343.831 418.692 343.964 418.662 344.097C418.648 344.157 418.633 344.231 418.618 344.29C418.618 344.335 418.603 344.394 418.588 344.438C418.574 344.498 418.559 344.572 418.544 344.631C418.514 344.75 418.485 344.868 418.455 344.987C418.455 345.002 418.44 345.031 418.44 345.046C418.381 345.254 418.322 345.446 418.247 345.639C418.247 345.654 418.248 345.654 418.233 345.669C418.203 345.773 418.159 345.876 418.129 345.965C418.099 346.054 418.055 346.143 418.025 346.217C418.01 346.247 417.996 346.277 417.996 346.291C417.892 346.544 417.773 346.796 417.64 347.033C417.61 347.107 417.551 347.196 417.507 347.285C417.462 347.374 417.418 347.448 417.373 347.522C417.329 347.596 417.284 347.685 417.24 347.759C417.151 347.922 417.047 348.07 416.943 348.219C416.884 348.323 416.81 348.397 416.766 348.5C416.602 348.708 416.469 348.901 416.291 349.093C416.173 349.242 416.054 349.375 415.936 349.509C415.817 349.642 415.684 349.775 415.565 349.909C415.506 349.968 415.447 350.027 415.387 350.087C415.328 350.146 415.284 350.191 415.209 350.25C415.15 350.309 415.076 350.383 415.002 350.442C414.987 350.457 414.957 350.472 414.943 350.502C414.765 350.665 414.587 350.798 414.394 350.947C414.379 350.961 414.365 350.976 414.335 350.991C414.187 351.095 414.039 351.199 413.89 351.302C413.831 351.332 413.787 351.376 413.742 351.406C413.653 351.465 413.579 351.51 413.49 351.569C413.431 351.614 413.357 351.658 413.283 351.688C413.209 351.732 413.135 351.777 413.06 351.821C412.542 352.118 412.008 352.37 411.445 352.562C411.415 352.577 411.386 352.592 411.341 352.592C411.312 352.607 411.252 352.622 411.223 352.622C411.089 352.666 410.971 352.711 410.823 352.755C410.586 352.829 410.363 352.889 410.126 352.933C410.008 352.963 409.889 352.992 409.77 353.022C409.696 353.037 409.607 353.052 409.533 353.052C409.444 353.067 409.341 353.081 409.252 353.111C409.237 353.111 409.222 353.111 409.222 353.126C409.148 353.141 409.074 353.141 408.985 353.155C408.955 353.155 408.911 353.17 408.881 353.17C408.822 353.185 408.748 353.185 408.674 353.2C408.644 353.2 408.6 353.215 408.555 353.215C408.422 353.23 408.274 353.23 408.125 353.244C407.918 353.259 407.725 353.259 407.518 353.259H127.138C126.931 353.259 126.738 353.244 126.531 353.244C126.397 353.23 126.249 353.23 126.101 353.215C125.938 353.2 125.79 353.185 125.627 353.155C125.538 353.141 125.449 353.141 125.36 353.126C125.138 353.096 124.915 353.052 124.708 353.007C124.649 352.992 124.589 352.978 124.53 352.963C124.293 352.903 124.071 352.859 123.833 352.785C123.7 352.74 123.567 352.696 123.433 352.651C122.811 352.444 122.218 352.177 121.655 351.866C121.522 351.777 121.373 351.703 121.24 351.614C121.077 351.525 120.929 351.421 120.781 351.317C119.876 350.695 119.061 349.968 118.365 349.123C118.202 348.93 118.039 348.723 117.891 348.515C117.387 347.818 116.957 347.062 116.631 346.247C116.557 346.069 116.483 345.862 116.409 345.669C116.335 345.476 116.275 345.269 116.216 345.076C116.157 344.868 116.112 344.676 116.053 344.468C116.008 344.275 115.964 344.097 115.934 343.905C115.92 343.875 115.92 343.845 115.92 343.816C115.89 343.638 115.86 343.445 115.845 343.252C115.831 343.238 115.831 343.223 115.831 343.208C115.816 343.06 115.801 342.926 115.801 342.778C115.771 342.496 115.771 342.215 115.771 341.918V183.098C115.771 181.734 116.008 180.429 116.453 179.214C117.15 177.286 118.35 175.611 119.906 174.336C119.921 174.321 119.951 174.307 119.98 174.277L120.573 173.832C122.426 172.513 124.678 171.742 127.123 171.742H407.503C407.785 171.742 408.051 171.757 408.318 171.772C408.363 171.757 408.422 171.772 408.466 171.786C408.718 171.801 408.985 171.831 409.237 171.875C409.296 171.89 409.356 171.89 409.415 171.905C409.637 171.935 409.859 171.994 410.067 172.038C410.126 172.053 410.171 172.053 410.23 172.068C410.497 172.127 410.749 172.202 411.015 172.29C411.252 172.365 411.504 172.454 411.727 172.542C412.053 172.676 412.379 172.824 412.69 172.987C412.868 173.076 413.046 173.165 413.209 173.269C413.505 173.432 413.787 173.625 414.053 173.817C414.068 173.803 414.068 173.817 414.068 173.817L414.661 174.262C414.691 174.277 414.72 174.292 414.735 174.321C414.898 174.44 415.032 174.574 415.165 174.692C415.269 174.781 415.372 174.885 415.476 174.989C415.787 175.285 416.084 175.611 416.365 175.967C416.499 176.13 416.617 176.278 416.721 176.441C417.195 177.094 417.61 177.805 417.921 178.561C418.01 178.769 418.099 178.977 418.173 179.184C418.173 179.199 418.188 179.199 418.188 179.214C418.322 179.555 418.425 179.911 418.514 180.251C418.559 180.429 418.603 180.592 418.633 180.77C418.662 180.904 418.692 181.037 418.707 181.171C418.737 181.304 418.751 181.452 418.766 181.586C418.796 181.749 418.811 181.912 418.826 182.075C418.84 182.208 418.855 182.357 418.855 182.505C418.87 182.698 418.885 182.905 418.885 183.098Z" fill="#DFE5EA"/>
<path d="M418.203 179.214H116.468C117.164 177.287 118.365 175.611 119.921 174.337C119.936 174.322 119.965 174.307 119.995 174.277L120.588 173.832L260.385 67.6854C264.49 64.5573 270.181 64.5573 274.301 67.6854L414.083 173.832C414.098 173.818 414.098 173.832 414.098 173.832L414.691 174.277C414.72 174.292 414.75 174.307 414.765 174.337C414.928 174.455 415.061 174.589 415.195 174.707C415.298 174.796 415.402 174.9 415.506 175.004C415.817 175.3 416.113 175.626 416.395 175.982C416.528 176.145 416.647 176.293 416.751 176.457C417.225 177.109 417.64 177.82 417.951 178.576C418.04 178.784 418.129 178.992 418.203 179.199C418.188 179.199 418.203 179.199 418.203 179.214Z" fill="#5B97EF"/>
<path d="M397.114 344.943H133.807V105.949C133.807 94.7263 142.907 85.6238 154.126 85.6238H376.781C388 85.6238 397.099 94.7263 397.099 105.949V344.943H397.114Z" fill="white"/>
<path d="M362.198 142.996H168.723C166.011 142.996 163.788 140.773 163.788 138.06V135.969C163.788 133.256 166.011 131.033 168.723 131.033H362.198C364.91 131.033 367.133 133.256 367.133 135.969V138.06C367.133 140.773 364.91 142.996 362.198 142.996Z" fill="#E4ECF9"/>
<path d="M362.198 168.54H168.723C166.011 168.54 163.788 166.316 163.788 163.603V161.513C163.788 158.8 166.011 156.576 168.723 156.576H362.198C364.91 156.576 367.133 158.8 367.133 161.513V163.603C367.133 166.316 364.91 168.54 362.198 168.54Z" fill="#E4ECF9"/>
<path d="M362.198 194.083H168.723C166.011 194.083 163.788 191.86 163.788 189.147V187.056C163.788 184.343 166.011 182.12 168.723 182.12H362.198C364.91 182.12 367.133 184.343 367.133 187.056V189.147C367.133 191.86 364.91 194.083 362.198 194.083Z" fill="#E4ECF9"/>
<path d="M362.198 219.627H168.723C166.011 219.627 163.788 217.403 163.788 214.69V212.6C163.788 209.887 166.011 207.663 168.723 207.663H362.198C364.91 207.663 367.133 209.887 367.133 212.6V214.69C367.133 217.403 364.91 219.627 362.198 219.627Z" fill="#E4ECF9"/>
<path d="M362.198 245.17H168.723C166.011 245.17 163.788 242.947 163.788 240.234V238.143C163.788 235.43 166.011 233.207 168.723 233.207H362.198C364.91 233.207 367.133 235.43 367.133 238.143V240.234C367.133 242.947 364.91 245.17 362.198 245.17Z" fill="#E4ECF9"/>
<path d="M267.336 266.726C266.891 267.215 266.372 267.66 265.779 268.015L127.776 353.2H127.153C125.997 353.2 124.9 353.037 123.863 352.711C123.715 352.666 123.567 352.622 123.433 352.577C121.625 351.955 120.01 350.872 118.75 349.479C118.632 349.345 118.513 349.212 118.394 349.064C118.039 348.649 117.728 348.204 117.446 347.73C117.342 347.566 117.268 347.418 117.164 347.255C117.075 347.092 116.987 346.929 116.912 346.751C116.201 345.254 115.786 343.593 115.786 341.829V183.098C115.786 181.734 116.023 180.429 116.468 179.214C117.164 177.286 118.365 175.611 119.921 174.336C119.936 174.321 119.965 174.307 119.995 174.277L120.588 173.832C122.44 172.513 124.693 171.742 127.138 171.742H129.732L141.855 179.214L253.553 248.165L257.762 250.759L265.779 255.711C266.372 256.081 266.906 256.526 267.336 257.001V257.015C269.825 259.728 269.825 264.013 267.336 266.726Z" fill="#3B82F4"/>
<path d="M418.885 183.098V341.859C418.885 342.052 418.87 342.245 418.87 342.452C418.87 342.541 418.855 342.63 418.855 342.734C418.855 342.823 418.84 342.912 418.84 343.001C418.84 343.03 418.825 343.075 418.825 343.104C418.811 343.164 418.811 343.223 418.796 343.282C418.781 343.416 418.766 343.564 418.737 343.697C418.722 343.831 418.692 343.964 418.662 344.098C418.662 344.113 418.648 344.142 418.648 344.157C418.633 344.187 418.633 344.246 418.618 344.29C418.618 344.335 418.603 344.394 418.588 344.439C418.574 344.498 418.559 344.572 418.544 344.631C418.514 344.75 418.485 344.869 418.455 344.987C418.455 345.002 418.44 345.032 418.44 345.047C418.381 345.254 418.322 345.447 418.247 345.64C418.247 345.654 418.247 345.654 418.233 345.669C418.203 345.773 418.173 345.862 418.129 345.966C418.099 346.055 418.07 346.129 418.025 346.218C418.01 346.233 418.01 346.262 417.996 346.292C417.892 346.544 417.773 346.796 417.64 347.033C417.61 347.107 417.551 347.196 417.506 347.285C417.462 347.374 417.418 347.448 417.373 347.522C417.329 347.596 417.284 347.685 417.24 347.76C417.151 347.923 417.047 348.071 416.943 348.219C416.884 348.323 416.81 348.397 416.765 348.501C416.602 348.708 416.454 348.901 416.291 349.094C416.173 349.242 416.054 349.375 415.936 349.509C415.817 349.642 415.684 349.776 415.565 349.909C415.506 349.968 415.447 350.028 415.387 350.087C415.328 350.146 415.283 350.191 415.209 350.25C415.15 350.309 415.076 350.384 415.002 350.443C414.987 350.458 414.957 350.473 414.943 350.502C414.765 350.665 414.587 350.799 414.394 350.947C414.379 350.962 414.365 350.977 414.335 350.991C414.187 351.095 414.039 351.199 413.89 351.303C413.831 351.332 413.787 351.377 413.742 351.406C413.653 351.466 413.579 351.51 413.49 351.57C413.431 351.614 413.357 351.658 413.283 351.688C413.209 351.733 413.135 351.777 413.06 351.822C412.542 352.118 412.008 352.37 411.445 352.563C411.415 352.578 411.371 352.592 411.341 352.592C411.312 352.607 411.252 352.622 411.223 352.622C411.089 352.667 410.971 352.711 410.823 352.756C410.586 352.83 410.363 352.889 410.126 352.933C410.008 352.963 409.889 352.993 409.77 353.022C409.696 353.037 409.607 353.052 409.533 353.052C409.444 353.067 409.341 353.082 409.252 353.111H409.222C409.133 353.126 409.059 353.141 408.985 353.141C408.955 353.141 408.911 353.156 408.881 353.156C408.822 353.171 408.748 353.171 408.674 353.185C408.644 353.185 408.6 353.2 408.555 353.2C408.422 353.215 408.274 353.215 408.125 353.23C407.918 353.245 407.725 353.245 407.518 353.245H406.895L268.892 268.06C268.299 267.69 267.765 267.245 267.335 266.771V266.756C264.831 264.028 264.831 259.773 267.335 257.031V257.016C267.765 256.541 268.299 256.097 268.892 255.726L276.894 250.774L281.103 248.18L392.816 179.229L404.939 171.757H407.533C407.814 171.757 408.081 171.772 408.348 171.787C408.392 171.772 408.451 171.787 408.496 171.802C408.748 171.816 409.015 171.846 409.267 171.891C409.326 171.905 409.385 171.905 409.444 171.92C409.667 171.95 409.889 172.009 410.096 172.054C410.156 172.068 410.2 172.068 410.259 172.083C410.526 172.143 410.778 172.217 411.045 172.306C411.282 172.38 411.534 172.469 411.756 172.558C412.082 172.691 412.408 172.839 412.72 173.002C412.897 173.091 413.075 173.18 413.238 173.284C413.535 173.447 413.816 173.64 414.083 173.833C414.098 173.818 414.098 173.833 414.098 173.833L414.691 174.277C414.72 174.292 414.75 174.307 414.765 174.337C414.928 174.455 415.061 174.589 415.195 174.707C415.298 174.796 415.402 174.9 415.506 175.004C415.817 175.3 416.113 175.626 416.395 175.982C416.528 176.145 416.647 176.294 416.751 176.457C417.225 177.109 417.64 177.821 417.951 178.577C418.04 178.784 418.129 178.992 418.203 179.199C418.203 179.214 418.218 179.214 418.218 179.229C418.351 179.57 418.455 179.926 418.544 180.267C418.588 180.445 418.633 180.608 418.662 180.786C418.692 180.919 418.722 181.052 418.737 181.186C418.766 181.319 418.781 181.467 418.796 181.601C418.825 181.764 418.84 181.927 418.855 182.09C418.87 182.224 418.885 182.372 418.885 182.52C418.87 182.698 418.885 182.905 418.885 183.098Z" fill="#3B82F4"/>
<path opacity="0.29" d="M418.885 339.694V341.34C418.885 347.893 413.802 353.2 407.533 353.2H127.138C120.869 353.2 115.786 347.893 115.786 341.34V339.694L260 244.785C264.475 241.834 270.181 241.834 274.657 244.785L418.885 339.694Z" fill="#474747"/>
<path d="M418.885 340.273V341.859C418.885 348.13 413.802 353.215 407.533 353.215H127.138C120.869 353.215 115.786 348.13 115.786 341.859V340.273L260 249.336C264.475 246.519 270.181 246.519 274.657 249.336L418.885 340.273Z" fill="#5B97EF"/>
<path d="M253.108 117.453H168.723C166.011 117.453 163.788 115.229 163.788 112.516V110.426C163.788 107.713 166.011 105.489 168.723 105.489H253.108C255.82 105.489 258.043 107.713 258.043 110.426V112.516C258.028 115.244 255.806 117.453 253.108 117.453Z" fill="#3B82F4"/>
<path d="M154.896 331.363C154.867 331.363 154.852 331.363 154.822 331.363C151.458 331.23 148.079 330.933 144.759 330.503C143.737 330.37 143.025 329.436 143.159 328.413C143.292 327.39 144.226 326.663 145.248 326.812C148.449 327.242 151.71 327.523 154.97 327.642C155.993 327.686 156.793 328.546 156.749 329.569C156.719 330.577 155.889 331.363 154.896 331.363ZM164.811 331.304C163.818 331.304 163.003 330.533 162.958 329.525C162.914 328.502 163.699 327.627 164.722 327.568C167.938 327.42 171.198 327.108 174.444 326.678C175.466 326.545 176.4 327.256 176.533 328.279C176.667 329.302 175.955 330.236 174.933 330.37C171.583 330.814 168.205 331.126 164.9 331.289C164.885 331.304 164.84 331.304 164.811 331.304ZM135.245 328.739C135.111 328.739 134.963 328.724 134.83 328.694C131.569 327.938 128.294 327.034 125.108 325.967C124.13 325.641 123.611 324.588 123.922 323.609C124.248 322.631 125.301 322.097 126.279 322.423C129.361 323.446 132.518 324.336 135.66 325.048C136.668 325.285 137.29 326.278 137.053 327.286C136.86 328.161 136.09 328.739 135.245 328.739ZM184.477 328.709C183.617 328.709 182.847 328.116 182.654 327.242C182.432 326.233 183.084 325.24 184.077 325.033C187.233 324.351 190.42 323.535 193.562 322.616C194.554 322.335 195.577 322.883 195.873 323.876C196.17 324.87 195.607 325.893 194.614 326.189C191.383 327.138 188.108 327.983 184.862 328.68C184.729 328.694 184.61 328.709 184.477 328.709ZM203.506 323.12C202.75 323.12 202.039 322.661 201.757 321.905C201.401 320.941 201.89 319.874 202.854 319.518C205.892 318.391 208.945 317.131 211.909 315.782C212.842 315.352 213.954 315.767 214.369 316.716C214.799 317.65 214.384 318.762 213.435 319.177C210.382 320.556 207.255 321.845 204.143 323.016C203.95 323.076 203.728 323.12 203.506 323.12ZM116.409 322.527C116.171 322.527 115.92 322.483 115.682 322.379C112.674 321.089 109.606 319.636 106.583 318.08C105.664 317.605 105.308 316.479 105.783 315.574C106.257 314.655 107.383 314.299 108.287 314.774C111.236 316.301 114.215 317.709 117.15 318.969C118.098 319.37 118.528 320.467 118.128 321.415C117.817 322.097 117.135 322.527 116.409 322.527ZM221.586 314.922C220.919 314.922 220.282 314.566 219.941 313.944C219.452 313.039 219.793 311.913 220.697 311.423C223.32 310.015 225.81 308.547 228.092 307.08C228.952 306.531 230.108 306.783 230.656 307.643C231.204 308.503 230.952 309.659 230.093 310.208C227.722 311.72 225.158 313.232 222.461 314.685C222.194 314.848 221.883 314.922 221.586 314.922ZM98.7728 313.425C98.4468 313.425 98.1059 313.336 97.8095 313.158C94.9344 311.408 92.1038 309.555 89.3918 307.643C88.547 307.05 88.3544 305.894 88.9472 305.049C89.54 304.204 90.6959 304.011 91.5407 304.604C94.1786 306.457 96.9351 308.266 99.7361 309.97C100.61 310.504 100.892 311.646 100.359 312.52C100.018 313.099 99.4101 313.425 98.7728 313.425ZM82.5597 301.95C82.1448 301.95 81.7298 301.817 81.3741 301.52C78.8548 299.445 76.4391 297.28 74.1865 295.101C74.0086 294.968 73.8456 294.805 73.727 294.627C73.1342 293.9 73.1787 292.833 73.8456 292.151C74.468 291.513 75.4165 291.424 76.1427 291.854C79.1511 292.536 82.2189 293.04 85.2422 293.381C86.2647 293.5 87.0057 294.419 86.8872 295.442C86.7686 296.465 85.8646 297.206 84.8272 297.088C83.6712 296.954 82.5301 296.806 81.3741 296.628C82.1596 297.31 82.9451 297.977 83.7453 298.644C84.5456 299.296 84.6494 300.468 83.9973 301.268C83.6416 301.728 83.1081 301.95 82.5597 301.95ZM94.9344 297.621C93.9119 297.621 93.0819 296.806 93.0671 295.768C93.0523 294.745 93.8822 293.9 94.9048 293.885C97.4983 293.856 100.121 293.707 102.685 293.441C103.219 293.381 103.841 293.322 104.612 293.233C105.62 293.1 106.553 293.841 106.687 294.864C106.805 295.887 106.079 296.806 105.056 296.939C104.271 297.028 103.634 297.102 103.16 297.147C100.388 297.443 97.6465 297.592 94.9344 297.621C94.9493 297.621 94.9493 297.621 94.9344 297.621ZM114.66 295.309C113.8 295.309 113.03 294.701 112.837 293.826C112.63 292.818 113.267 291.84 114.275 291.617C117.52 290.935 120.692 290.12 123.73 289.171C124.723 288.875 125.76 289.423 126.056 290.401C126.353 291.38 125.804 292.433 124.826 292.729C121.685 293.693 118.394 294.553 115.045 295.249C114.912 295.309 114.793 295.309 114.66 295.309ZM65.7391 292.685C65.5316 292.685 65.3241 292.655 65.1166 292.581C61.9599 291.469 58.8181 290.164 55.7652 288.697C54.8315 288.252 54.4462 287.14 54.8908 286.206C55.3354 285.272 56.4469 284.887 57.3806 285.331C60.3149 286.74 63.3234 287.985 66.3615 289.052C67.3248 289.393 67.8435 290.461 67.5026 291.424C67.221 292.21 66.5097 292.685 65.7391 292.685ZM133.615 289.423C132.888 289.423 132.207 289.008 131.91 288.296C131.51 287.348 131.94 286.25 132.888 285.85C135.956 284.531 138.861 283.063 141.529 281.477C142.418 280.958 143.559 281.24 144.078 282.129C144.596 283.019 144.315 284.16 143.425 284.679C140.624 286.354 137.572 287.896 134.356 289.275C134.104 289.379 133.852 289.423 133.615 289.423ZM68.4215 288.059C67.888 288.059 67.3693 287.837 66.9988 287.392C64.7609 284.724 62.7158 281.996 60.9374 279.268C60.3742 278.408 60.6113 277.252 61.4709 276.688C62.3304 276.125 63.4864 276.362 64.0496 277.222C65.7539 279.831 67.7101 282.44 69.8442 284.99C70.5111 285.776 70.4073 286.947 69.6219 287.614C69.2662 287.926 68.8364 288.059 68.4215 288.059ZM47.8661 284.116C47.5253 284.116 47.1992 284.027 46.888 283.834C44.0277 282.07 41.2416 280.128 38.574 278.067C37.7589 277.444 37.6107 276.273 38.248 275.458C38.8852 274.643 40.0412 274.494 40.8563 275.132C43.4053 277.118 46.1026 278.986 48.8443 280.676C49.7186 281.21 49.9854 282.366 49.4519 283.241C49.0962 283.804 48.4886 284.116 47.8661 284.116ZM150.569 279.223C150.035 279.223 149.516 279.001 149.146 278.556C148.479 277.771 148.583 276.599 149.368 275.932C151.873 273.827 154.126 271.544 156.067 269.128C156.704 268.327 157.89 268.194 158.69 268.846C159.49 269.483 159.624 270.655 158.972 271.47C156.882 274.064 154.466 276.525 151.769 278.794C151.413 279.075 150.984 279.223 150.569 279.223ZM32.2162 271.959C31.7568 271.959 31.2826 271.781 30.9269 271.44C28.4964 269.098 26.1697 266.607 24.0208 264.043C23.3687 263.257 23.4724 262.086 24.2579 261.419C25.0433 260.766 26.2141 260.87 26.881 261.656C28.941 264.117 31.1788 266.518 33.5056 268.757C34.2466 269.469 34.2762 270.655 33.55 271.381C33.1943 271.781 32.7053 271.959 32.2162 271.959ZM57.6473 271.455C56.9508 271.455 56.2691 271.055 55.9579 270.373C54.4759 267.2 53.3051 263.969 52.4455 260.766C52.1787 259.773 52.7715 258.75 53.7645 258.483C54.7574 258.216 55.78 258.809 56.0468 259.803C56.8471 262.797 57.9585 265.822 59.3516 268.801C59.7814 269.735 59.3813 270.847 58.4476 271.277C58.1808 271.396 57.9141 271.455 57.6473 271.455ZM162.84 263.82C162.558 263.82 162.277 263.761 162.01 263.628C161.091 263.168 160.706 262.056 161.165 261.137C162.469 258.498 163.521 255.667 164.277 252.731L164.411 252.212C164.663 251.219 165.67 250.611 166.663 250.863C167.656 251.115 168.264 252.123 168.012 253.117L167.864 253.68C167.034 256.853 165.893 259.921 164.485 262.783C164.188 263.435 163.521 263.82 162.84 263.82ZM19.5303 256.764C18.9227 256.764 18.3299 256.467 17.9742 255.933C16.1069 253.117 14.3878 250.181 12.8761 247.187C12.4167 246.267 12.7724 245.156 13.6912 244.681C14.6101 244.207 15.7216 244.577 16.1958 245.497C17.663 248.373 19.308 251.189 21.0864 253.888C21.6496 254.747 21.4124 255.904 20.5677 256.467C20.2417 256.66 19.8712 256.764 19.5303 256.764ZM52.6085 252.39C51.6304 252.39 50.8153 251.634 50.756 250.656C50.6819 249.603 50.6523 248.521 50.6523 247.453C50.6523 245.096 50.8153 242.709 51.1562 240.367C51.3044 239.344 52.238 238.647 53.2606 238.796C54.2832 238.944 54.9797 239.878 54.8315 240.901C54.5203 243.065 54.3573 245.274 54.3573 247.453C54.3573 248.432 54.3869 249.44 54.4462 250.418C54.5055 251.441 53.7349 252.331 52.7123 252.39C52.6826 252.39 52.653 252.39 52.6085 252.39ZM167.641 244.711C167.612 244.711 167.582 244.711 167.552 244.711C166.53 244.666 165.73 243.792 165.774 242.769C165.804 242.057 165.818 241.331 165.818 240.604C165.818 238.158 165.641 235.682 165.285 233.207C165.137 232.184 165.848 231.25 166.871 231.101C167.893 230.953 168.827 231.665 168.975 232.688C169.346 235.327 169.538 237.995 169.538 240.604C169.538 241.375 169.523 242.146 169.494 242.917C169.449 243.925 168.619 244.711 167.641 244.711ZM10.5346 239.107C9.77873 239.107 9.06738 238.647 8.7858 237.891C7.61502 234.763 6.60726 231.502 5.77734 228.225C5.5254 227.232 6.13301 226.209 7.12595 225.972C8.11889 225.72 9.12666 226.328 9.3786 227.321C10.1641 230.479 11.1422 233.592 12.2685 236.602C12.6242 237.565 12.1351 238.633 11.1718 239.003C10.9792 239.063 10.7569 239.107 10.5346 239.107ZM55.3354 232.866C55.1427 232.866 54.9353 232.836 54.7426 232.762C53.7645 232.436 53.2458 231.368 53.5867 230.405C54.6537 227.277 56.0023 224.119 57.6177 221.035C58.0919 220.131 59.2183 219.775 60.1223 220.25C61.0411 220.724 61.382 221.851 60.9077 222.755C59.3813 225.676 58.1068 228.655 57.099 231.606C56.8322 232.376 56.1209 232.866 55.3354 232.866ZM164.9 225.157C164.114 225.157 163.388 224.653 163.136 223.867C162.158 220.843 160.928 217.848 159.461 214.987C158.986 214.068 159.357 212.956 160.276 212.481C161.195 212.007 162.306 212.378 162.78 213.297C164.336 216.336 165.655 219.523 166.693 222.74C167.004 223.719 166.471 224.771 165.492 225.083C165.27 225.127 165.077 225.157 164.9 225.157ZM5.68841 219.894C4.76957 219.894 3.98412 219.227 3.85074 218.293C3.39132 215.002 3.08009 211.607 2.94671 208.227C2.90225 207.204 3.70253 206.329 4.72511 206.299C5.77733 206.27 6.62208 207.055 6.66654 208.078C6.79992 211.34 7.09631 214.601 7.54091 217.774C7.68911 218.797 6.97776 219.731 5.95518 219.879C5.86626 219.894 5.77733 219.894 5.68841 219.894ZM64.4201 215.268C64.0496 215.268 63.6791 215.165 63.353 214.927C62.5083 214.334 62.3156 213.178 62.9084 212.333C64.8498 209.59 66.9839 206.922 69.2662 204.416C69.9627 203.66 71.1335 203.601 71.8894 204.298C72.6452 204.995 72.7044 206.166 72.0079 206.922C69.8294 209.309 67.7842 211.859 65.9465 214.468C65.576 215.002 64.9981 215.268 64.4201 215.268ZM155.904 207.545C155.326 207.545 154.763 207.278 154.407 206.788C152.495 204.179 150.376 201.733 148.123 199.524C147.382 198.813 147.382 197.627 148.094 196.885C148.82 196.144 149.991 196.144 150.732 196.856C153.147 199.213 155.4 201.822 157.416 204.594C158.023 205.425 157.845 206.596 157.015 207.189C156.66 207.426 156.274 207.545 155.904 207.545ZM77.7729 200.651C77.2394 200.651 76.7207 200.429 76.3502 199.999C75.6833 199.213 75.787 198.042 76.5725 197.375C79.1956 195.151 81.9373 193.12 84.7531 191.326C85.6275 190.777 86.7686 191.03 87.317 191.889C87.8653 192.764 87.6134 193.906 86.7538 194.454C84.0862 196.159 81.4631 198.086 78.9733 200.191C78.6324 200.503 78.2027 200.651 77.7729 200.651ZM4.88814 200.088C4.8585 200.088 4.81404 200.088 4.7844 200.088C3.76182 200.028 2.97636 199.154 3.03564 198.116C3.2283 194.706 3.5988 191.311 4.1175 188.065C4.28052 187.056 5.229 186.36 6.25158 186.523C7.25934 186.686 7.95587 187.635 7.79285 188.658C7.28897 191.786 6.94811 195.047 6.75545 198.338C6.68135 199.317 5.86626 200.088 4.88814 200.088ZM141.736 193.757C141.38 193.757 141.01 193.654 140.699 193.431C138.016 191.608 135.2 190.081 132.325 188.865C131.377 188.465 130.932 187.383 131.332 186.434C131.732 185.485 132.829 185.04 133.763 185.441C136.86 186.745 139.898 188.406 142.788 190.362C143.633 190.941 143.855 192.097 143.277 192.942C142.922 193.476 142.329 193.757 141.736 193.757ZM94.4898 190.066C93.7785 190.066 93.0968 189.651 92.7855 188.954C92.3706 188.02 92.8004 186.908 93.734 186.508C96.9203 185.1 100.181 183.988 103.426 183.202C104.419 182.965 105.427 183.573 105.679 184.566C105.916 185.559 105.308 186.567 104.315 186.819C101.292 187.56 98.2393 188.598 95.2457 189.918C94.9937 190.021 94.7418 190.066 94.4898 190.066ZM123.552 186.182C123.448 186.182 123.33 186.167 123.211 186.152C120.662 185.693 118.054 185.455 115.445 185.455C114.912 185.441 114.304 185.47 113.726 185.485C112.689 185.544 111.829 184.729 111.8 183.691C111.755 182.668 112.555 181.794 113.593 181.764C114.215 181.734 114.867 181.749 115.445 181.734C118.276 181.734 121.107 181.986 123.878 182.49C124.886 182.668 125.553 183.647 125.375 184.655C125.212 185.559 124.441 186.182 123.552 186.182ZM8.07444 180.519C7.91142 180.519 7.73357 180.504 7.57055 180.444C6.57761 180.163 5.99963 179.14 6.28121 178.147C7.18523 174.915 8.28191 171.698 9.54161 168.57C9.92693 167.621 11.0088 167.146 11.9573 167.532C12.9058 167.917 13.38 169 12.9947 169.948C11.7943 172.943 10.742 176.041 9.86765 179.14C9.64535 179.985 8.88954 180.519 8.07444 180.519ZM15.4548 162.15C15.1584 162.15 14.862 162.076 14.5804 161.928C13.6764 161.454 13.3207 160.327 13.8098 159.408C15.3807 156.458 17.1295 153.537 19.0116 150.735C19.5896 149.875 20.7455 149.653 21.5903 150.231C22.4498 150.809 22.6721 151.966 22.0942 152.811C20.2861 155.509 18.5966 158.326 17.0998 161.157C16.7738 161.78 16.1217 162.15 15.4548 162.15ZM26.4809 145.68C26.0659 145.68 25.6361 145.546 25.2953 145.25C24.5098 144.598 24.3913 143.426 25.0433 142.626C27.1774 140.046 29.4597 137.541 31.8457 135.154C32.5719 134.428 33.7575 134.428 34.4837 135.154C35.2099 135.881 35.2099 137.067 34.4837 137.793C32.1866 140.091 29.9784 142.507 27.9184 144.998C27.5479 145.443 27.0144 145.68 26.4809 145.68ZM40.5302 131.67C39.9967 131.67 39.4632 131.433 39.0927 130.988C38.4406 130.203 38.5443 129.017 39.3446 128.364C41.9233 126.244 44.6354 124.198 47.4067 122.301C48.2514 121.723 49.4074 121.945 50.0002 122.79C50.5782 123.635 50.3559 124.791 49.5112 125.384C46.8287 127.223 44.1908 129.194 41.7158 131.255C41.3601 131.522 40.9452 131.67 40.5302 131.67ZM56.8915 120.463C56.2394 120.463 55.6022 120.122 55.2613 119.514C54.7574 118.624 55.0835 117.483 55.9727 116.979C58.8774 115.348 61.9155 113.821 64.9832 112.427C65.9169 111.997 67.0284 112.427 67.4434 113.361C67.8731 114.295 67.4433 115.407 66.5097 115.822C63.5457 117.171 60.6113 118.639 57.7955 120.225C57.5139 120.388 57.2027 120.463 56.8915 120.463ZM74.9719 112.294C74.2013 112.294 73.4899 111.82 73.2232 111.049C72.8823 110.085 73.3862 109.018 74.3643 108.677C77.5061 107.565 80.7517 106.572 83.9973 105.726C84.9902 105.46 86.0128 106.067 86.2647 107.061C86.5315 108.054 85.9239 109.077 84.9309 109.329C81.7891 110.159 78.6473 111.123 75.5944 112.19C75.3869 112.25 75.1794 112.294 74.9719 112.294Z" fill="#F4B545"/>
<path opacity="0.1" d="M167.775 60.8958L27.3849 79.6345L61.4116 105.46L61.9451 152.989L91.2887 128.068L107.769 140.506L167.775 60.8958Z" fill="#232323"/>
<path d="M65.0129 150.113L64.2274 80.6723L170.842 58.0049L65.0129 150.113Z" fill="#9D6CDD"/>
<path d="M64.7165 102.747C65.25 102.48 170.842 58.0049 170.842 58.0049L30.4378 76.7437L64.7165 102.747Z" fill="#5127AC"/>
<path d="M76.3501 111.612L65.0128 150.112L113.637 108.795L76.3501 111.612Z" fill="#5127AC"/>
<path d="M76.3501 111.612L110.821 137.615L170.842 58.0049L76.3501 111.612Z" fill="#5127AC"/>
<path opacity="0.1" d="M445.353 188.865C445.235 187.071 443.679 185.707 441.9 185.826L316.434 193.802C314.641 193.92 313.278 195.477 313.396 197.256L316.642 248.239C316.76 250.033 318.316 251.397 320.095 251.278L445.561 243.302C447.354 243.184 448.718 241.627 448.599 239.848L445.353 188.865Z" fill="#232323"/>
<path d="M448.718 238.618L323.252 246.594C321.458 246.712 319.917 245.333 319.798 243.554L316.553 192.571C316.434 190.777 317.813 189.236 319.591 189.117L445.057 181.141C446.85 181.023 448.391 182.401 448.51 184.18L451.756 235.164C451.874 236.943 450.511 238.499 448.718 238.618Z" fill="white"/>
<path d="M435.439 196.455L380.694 199.939C379.286 200.028 378.056 198.946 377.967 197.537L377.952 197.404C377.863 195.996 378.945 194.765 380.353 194.676L435.098 191.192C436.506 191.103 437.736 192.186 437.825 193.594L437.84 193.727C437.943 195.136 436.861 196.366 435.439 196.455Z" fill="#3B82F4"/>
<path d="M436.18 207.945L381.435 211.429C380.027 211.518 378.797 210.435 378.708 209.027L378.693 208.894C378.604 207.485 379.686 206.255 381.094 206.166L435.839 202.682C437.247 202.593 438.477 203.675 438.566 205.084L438.581 205.217C438.67 206.625 437.588 207.856 436.18 207.945Z" fill="#ECF3FE"/>
<path d="M436.906 219.449L382.161 222.933C380.753 223.022 379.523 221.939 379.434 220.531L379.419 220.398C379.33 218.989 380.412 217.759 381.82 217.67L436.565 214.186C437.973 214.097 439.203 215.179 439.292 216.588L439.307 216.721C439.396 218.129 438.314 219.345 436.906 219.449Z" fill="#ECF3FE"/>
<path d="M437.632 230.938L382.887 234.422C381.479 234.511 380.249 233.429 380.16 232.021L380.145 231.887C380.056 230.479 381.138 229.248 382.546 229.159L437.291 225.676C438.699 225.587 439.929 226.669 440.018 228.077L440.033 228.211C440.137 229.619 439.055 230.85 437.632 230.938Z" fill="#ECF3FE"/>
<path d="M364.923 233.267C374.362 223.824 374.362 208.515 364.923 199.072C355.483 189.629 340.179 189.629 330.739 199.072C321.3 208.515 321.3 223.824 330.739 233.267C340.179 242.709 355.483 242.709 364.923 233.267Z" fill="#ECF3FE"/>
<path d="M360.553 231.057C359.308 232.154 357.93 233.088 356.418 233.829C355.663 234.215 354.862 234.541 354.047 234.808C353.188 235.104 352.284 235.341 351.365 235.504C350.624 235.638 349.853 235.742 349.083 235.786C348.312 235.831 347.541 235.831 346.771 235.801C343.229 235.608 339.909 234.437 337.108 232.539C338.353 229.856 340.635 227.721 343.481 226.713C343.97 226.535 344.474 226.402 344.992 226.298C345.007 226.298 345.037 226.283 345.051 226.283C345.511 226.194 345.97 226.135 346.445 226.105L350.461 225.853C350.935 225.824 351.409 225.824 351.869 225.853C351.884 225.853 351.913 225.853 351.928 225.853C352.461 225.883 352.965 225.957 353.484 226.076C356.433 226.713 358.982 228.551 360.553 231.057Z" fill="#727272"/>
<path d="M358.538 207.174L359.353 220.101C359.531 222.947 357.382 225.408 354.522 225.586L342.369 226.357C339.524 226.535 337.063 224.371 336.886 221.524L336.071 208.597C335.344 197.108 346.608 196.915 346.608 196.915C346.608 196.915 349.527 196.589 352.476 197.804C355.114 198.886 357.797 201.199 358.434 206.077C358.478 206.432 358.508 206.803 358.538 207.174Z" fill="#302F2F"/>
<path d="M351.809 223.866L352.047 227.677C352.15 229.292 350.668 230.701 348.756 230.834C346.845 230.953 345.2 229.737 345.096 228.121L344.859 224.311C344.814 223.644 345.036 223.007 345.466 222.488C345.555 222.369 345.674 222.25 345.792 222.147C346.015 221.939 346.267 221.761 346.548 221.613C347.022 221.361 347.571 221.198 348.149 221.168C348.742 221.124 349.29 221.213 349.794 221.405C350.09 221.524 350.372 221.672 350.609 221.85C350.624 221.865 350.639 221.865 350.653 221.88C350.772 221.969 350.876 222.058 350.979 222.162C351.454 222.591 351.765 223.199 351.809 223.866Z" fill="#F4B698"/>
<path opacity="0.28" d="M356.908 210.213L357.263 215.757C357.515 219.656 355.233 223.14 351.854 224.637L351.943 226.105C350.994 226.52 349.972 226.787 348.875 226.846L348.134 226.891C347.052 226.965 345.985 226.832 345.007 226.535L344.918 225.067C341.376 224.015 338.679 220.827 338.427 216.943L338.071 211.399C337.923 208.804 338.886 206.373 340.561 204.624C342.088 203.023 344.177 201.97 346.548 201.822L347.289 201.777C349.409 201.644 351.409 202.252 353.04 203.393C355.218 204.92 356.715 207.381 356.908 210.213Z" fill="black"/>
<path d="M356.819 208.804L357.263 215.757C357.382 217.655 356.907 219.464 355.989 220.99C355.781 221.346 355.544 221.687 355.277 221.999C354.773 222.621 354.195 223.185 353.543 223.659C353.025 224.044 352.461 224.371 351.854 224.637C350.905 225.053 349.868 225.319 348.786 225.379L348.045 225.423C346.963 225.497 345.896 225.364 344.918 225.067C341.376 224.015 338.679 220.842 338.427 216.943L337.982 210.02C337.982 209.931 337.968 209.827 337.968 209.724C337.879 207.085 338.931 204.639 340.709 202.904C340.991 202.637 341.287 202.37 341.599 202.133C342.962 201.11 344.622 200.458 346.445 200.339L347.186 200.295C349.231 200.161 351.172 200.74 352.773 201.807C353.617 202.37 354.373 203.082 354.996 203.897C355.248 204.223 355.485 204.579 355.692 204.95C356.33 206.106 356.73 207.411 356.819 208.804Z" fill="#F4B698"/>
<path d="M360.672 212.229C360.805 214.23 359.279 215.965 357.278 216.083L356.819 208.834C357.322 208.804 357.812 208.879 358.256 209.027C359.59 209.516 360.583 210.732 360.672 212.229Z" fill="#F4B698"/>
<path d="M359.294 212.318C359.368 213.563 358.434 214.63 357.189 214.705L356.907 210.213C358.152 210.138 359.22 211.087 359.294 212.318Z" fill="#E29586"/>
<path d="M353.484 226.076L351.365 235.504C350.624 235.638 349.853 235.742 349.083 235.786C348.312 235.83 347.541 235.83 346.771 235.801L343.466 226.713L345.378 226.595L345.452 226.654L348.668 229.589L351.498 226.268L351.557 226.194L353.484 226.076Z" fill="#565656"/>
<path d="M337.982 210.035L338.442 217.284C336.441 217.418 334.722 215.891 334.589 213.889C334.485 212.17 335.582 210.643 337.167 210.183C337.227 210.168 337.271 210.154 337.33 210.139C337.36 210.139 337.39 210.124 337.419 210.124C337.612 210.079 337.79 210.05 337.982 210.035Z" fill="#F4B698"/>
<path d="M335.967 213.801C336.041 215.046 337.108 215.98 338.353 215.906L338.071 211.414C336.826 211.503 335.893 212.57 335.967 213.801Z" fill="#E29586"/>
<path d="M356.418 233.829C355.663 234.215 354.862 234.541 354.047 234.807L353.988 233.977L356.418 233.829Z" fill="#565656"/>
<path opacity="0.2" d="M348.682 229.604L351.498 231.339L353.484 226.076L348.682 229.604Z" fill="#363636"/>
<path d="M353.484 226.075L351.439 231.16L348.682 229.604L351.572 226.209L351.958 225.764L353.484 226.075Z" fill="#EEEEEE"/>
<path opacity="0.2" d="M343.481 226.713L346.089 231.68L348.682 229.604L343.481 226.713Z" fill="#363636"/>
<path d="M348.682 229.604L346.148 231.502L343.481 226.713L344.963 226.209L345.392 226.594L348.682 229.604Z" fill="#EEEEEE"/>
<path d="M358.523 206.936C351.795 207.856 352.061 201.703 352.565 198.664C355.203 199.746 357.885 202.059 358.523 206.936Z" fill="#302F2F"/>
<path d="M354.729 201.837C354.522 202.222 352.462 206.566 348.267 206.833C344.073 207.1 337.582 210.035 337.642 214.231C337.701 218.411 331.58 201.822 344.222 199.687C356.878 197.567 354.729 201.837 354.729 201.837Z" fill="#302F2F"/>
<path opacity="0.1" d="M456.602 179.08L444.553 129.432C444.138 127.697 442.36 126.615 440.626 127.03L318.45 156.68C316.716 157.095 315.634 158.874 316.049 160.608L328.098 210.257C328.513 211.992 330.291 213.074 332.025 212.659L454.201 183.009C455.95 182.594 457.017 180.815 456.602 179.08Z" fill="#232323"/>
<path d="M456.957 178.517L334.781 208.167C333.047 208.582 331.269 207.515 330.854 205.766L318.805 156.117C318.39 154.382 319.457 152.603 321.206 152.188L443.382 122.538C445.116 122.123 446.895 123.19 447.309 124.94L459.358 174.589C459.773 176.323 458.691 178.087 456.957 178.517Z" fill="#F4B545"/>
<path d="M370.403 190.928C379.75 181.578 379.75 166.419 370.403 157.069C361.057 147.719 345.902 147.719 336.556 157.069C327.209 166.419 327.209 181.578 336.556 190.928C345.902 200.278 361.057 200.278 370.403 190.928Z" fill="#FFDCA4"/>
<path d="M358.301 195.107C358.167 195.136 358.034 195.166 357.915 195.181C353.884 196.026 349.868 195.626 346.267 194.217C346.963 191.193 348.92 188.51 351.661 186.953C352.121 186.686 352.595 186.464 353.084 186.271C353.529 186.093 354.003 185.945 354.492 185.826L358.434 184.863C358.908 184.744 359.412 184.67 359.886 184.611C360.405 184.551 360.939 184.536 361.457 184.551C363.68 184.64 365.814 185.396 367.578 186.671C368.245 187.146 368.867 187.724 369.416 188.346C366.956 191.237 363.68 193.476 359.827 194.662C359.649 194.721 359.471 194.766 359.294 194.81C359.264 194.825 359.234 194.825 359.205 194.84C359.175 194.855 359.131 194.869 359.086 194.869C359.057 194.884 359.027 194.899 358.982 194.899C358.849 194.944 358.716 194.973 358.567 195.018L358.464 195.047L358.345 195.077L358.316 195.092L358.301 195.107Z" fill="#F4B545"/>
<path d="M342.384 172.483C342.384 172.483 337.908 159.452 345.141 157.421C352.373 155.39 354.892 152.826 356.789 153.018C358.686 153.211 362.954 164.997 363.073 167.473C363.176 169.934 342.384 172.483 342.384 172.483Z" fill="#E09F36"/>
<path d="M359.412 182.668L360.316 186.404C360.702 187.991 359.486 189.651 357.604 190.111C355.737 190.57 353.884 189.636 353.499 188.065L352.595 184.329C352.432 183.677 352.551 183.009 352.877 182.416C352.951 182.283 353.04 182.15 353.129 182.016C353.306 181.764 353.529 181.542 353.795 181.349C354.225 181.023 354.729 180.771 355.307 180.623C355.885 180.489 356.448 180.474 356.982 180.578C357.293 180.637 357.604 180.741 357.871 180.875C357.886 180.875 357.901 180.889 357.915 180.889C358.049 180.949 358.167 181.023 358.286 181.112C358.849 181.482 359.249 182.016 359.412 182.668Z" fill="#F4CB95"/>
<path d="M362.094 168.244L363.413 173.669C364.332 177.494 362.687 181.349 359.605 183.424L359.946 184.862C359.086 185.441 358.108 185.885 357.041 186.137L356.315 186.315C355.248 186.567 354.181 186.627 353.143 186.508L352.802 185.07C349.097 184.64 345.867 181.957 344.948 178.147L343.629 172.721C343.021 170.171 343.57 167.591 344.918 165.56C346.148 163.707 348.045 162.299 350.357 161.735L351.083 161.557C353.158 161.053 355.263 161.305 357.071 162.15C359.486 163.292 361.413 165.471 362.094 168.244Z" fill="#D8A471"/>
<path d="M361.754 166.865L363.414 173.684C363.829 175.389 363.725 177.109 363.221 178.666C363.147 178.918 363.043 179.155 362.939 179.392C362.821 179.689 362.687 179.955 362.539 180.237C361.843 181.512 360.835 182.609 359.62 183.439C358.745 184.017 357.767 184.462 356.7 184.714L355.974 184.892C354.907 185.144 353.825 185.203 352.802 185.085C349.097 184.655 345.867 181.972 344.948 178.162L343.229 171.075C342.68 168.481 343.303 165.872 344.755 163.841C344.992 163.515 345.244 163.203 345.511 162.922C346.682 161.661 348.223 160.727 350.016 160.283L350.742 160.105C352.136 159.764 353.529 159.764 354.848 160.075C355.114 160.134 355.366 160.194 355.633 160.283C355.944 160.386 356.256 160.49 356.552 160.624C359.057 161.765 361.057 163.989 361.754 166.865Z" fill="#F4CB95"/>
<path d="M366.185 169.593C366.659 171.564 365.459 173.536 363.488 174.011L361.769 166.895C362.258 166.776 362.762 166.761 363.221 166.835C364.629 167.073 365.829 168.125 366.185 169.593Z" fill="#EDC28E"/>
<path d="M364.836 169.919C365.133 171.135 364.392 172.365 363.162 172.662L362.095 168.259C363.31 167.962 364.54 168.703 364.836 169.919Z" fill="#D8A471"/>
<path d="M343.288 171.386L345.007 178.503C343.051 178.977 341.065 177.776 340.591 175.804C340.176 174.114 341.021 172.409 342.503 171.668C342.547 171.639 342.606 171.624 342.666 171.594C342.695 171.579 342.725 171.564 342.755 171.564C342.918 171.49 343.095 171.431 343.288 171.386Z" fill="#EDC28E"/>
<path d="M341.954 175.478C342.251 176.694 343.481 177.435 344.696 177.153L343.629 172.75C342.399 173.032 341.658 174.262 341.954 175.478Z" fill="#D8A471"/>
<path d="M361.754 166.865L363.414 173.684C363.829 175.389 363.725 177.109 363.221 178.666C363.147 178.918 363.043 179.155 362.939 179.392C361.576 166.094 358.968 164.745 355.93 165.516C352.654 166.331 350.92 162.477 350.92 162.477L355.618 160.312C355.93 160.416 356.241 160.52 356.537 160.653C359.057 161.765 361.057 163.989 361.754 166.865Z" fill="#E5B67F"/>
<path d="M360.939 188.924L362.154 190.199L359.842 194.706C359.664 194.765 359.486 194.81 359.309 194.854C359.279 194.869 359.249 194.869 359.22 194.884C359.19 194.899 359.146 194.914 359.101 194.914L360.183 188.005V187.99L360.361 186.849V186.834L360.376 186.715L359.931 184.877L362.599 187.62L360.998 188.865L360.939 188.924Z" fill="#CC8E2B"/>
<path d="M358.493 195.062L358.597 195.032C358.745 195.003 358.879 194.958 359.012 194.914C359.056 194.914 359.086 194.899 359.116 194.884C359.16 194.884 359.19 194.869 359.234 194.855L359.501 194.039L360.909 189.651L360.627 188.509L361.25 187.516L360.464 186.078C360.464 186.078 360.435 186.212 360.331 186.449L360.316 186.464V186.478C360.079 187.146 359.471 188.539 358.375 189.503C358.138 189.71 357.886 189.903 357.574 190.051C357.115 190.036 356.67 189.947 356.27 189.814C354.996 189.414 353.988 188.569 353.514 188.109L353.499 188.094C353.306 187.916 353.217 187.813 353.217 187.813L353.188 189.458L354.196 190.051L354.477 191.193L357.278 193.995L358.33 195.062H358.345H358.493Z" fill="white"/>
<path d="M361.028 188.85L362.154 190.185L359.309 194.84C359.279 194.854 359.249 194.854 359.22 194.869C359.19 194.884 359.146 194.899 359.101 194.899C359.071 194.914 359.042 194.928 358.997 194.928L360.05 188.302L360.331 186.523V186.508L360.346 186.493L359.901 184.655L362.628 187.635L360.894 188.702L361.028 188.85Z" fill="#E09F36"/>
<path d="M358.301 195.107C358.167 195.136 358.034 195.166 357.915 195.181L353.632 192.26L354.136 190.57L354.033 190.555L352.047 190.185L353.158 186.523L353.543 188.124L353.603 188.361L353.618 188.376L353.647 188.421L353.662 188.435L354.373 189.399L358.523 195.062L358.405 195.092L358.375 195.107H358.301Z" fill="#CC8E2B"/>
<path d="M358.301 195.107L353.618 192.26L354.003 190.555L354.062 190.333L352.017 190.185L353.084 186.286L353.143 186.523L353.529 188.124L353.544 188.139L354.611 189.606L358.582 195.047L358.493 195.062L358.375 195.092L358.33 195.107H358.301Z" fill="#E09F36"/>
<path d="M355.929 158.874C355.929 158.874 351.172 158.607 350.313 158.815C349.453 159.022 348.371 159.393 346.771 160.223C345.17 161.053 343.051 163.514 343.051 163.514L342.784 164.552C342.592 164.893 342.384 165.279 342.399 165.367C342.414 165.456 342.414 165.753 342.414 166.02L342.206 166.88C342.251 166.85 342.384 166.776 342.532 166.672L342.932 167.339C342.962 167.324 343.496 165.842 344.844 164.641C346.608 163.47 349.186 162.669 351.365 163.574C355.322 165.219 361.235 162.269 361.235 162.269L355.929 158.874Z" fill="#E09F36"/>
<path d="M436.432 138.801L383.124 151.743C381.746 152.084 380.353 151.224 380.012 149.845L379.982 149.727C379.641 148.348 380.501 146.955 381.879 146.614L435.187 133.671C436.565 133.33 437.958 134.19 438.299 135.569L438.328 135.688C438.669 137.066 437.81 138.475 436.432 138.801Z" fill="#E29D2D"/>
<path d="M439.144 149.994L385.836 162.936C384.458 163.277 383.065 162.417 382.724 161.038L382.694 160.92C382.353 159.541 383.213 158.147 384.591 157.806L437.899 144.864C439.277 144.523 440.67 145.383 441.011 146.762L441.041 146.88C441.381 148.259 440.522 149.668 439.144 149.994Z" fill="#FFDCA4"/>
<path d="M441.87 161.187L388.563 174.129C387.185 174.47 385.792 173.61 385.451 172.231L385.421 172.113C385.08 170.734 385.94 169.34 387.318 168.999L440.626 156.057C442.004 155.716 443.397 156.576 443.738 157.955L443.767 158.073C444.093 159.452 443.234 160.846 441.87 161.187Z" fill="#FFDCA4"/>
<path d="M444.583 172.379L391.275 185.322C389.897 185.663 388.504 184.803 388.163 183.424L388.133 183.305C387.792 181.927 388.652 180.533 390.03 180.192L443.338 167.25C444.716 166.909 446.109 167.769 446.45 169.148L446.48 169.266C446.806 170.645 445.961 172.038 444.583 172.379Z" fill="#FFDCA4"/>
<path d="M358.73 336.136C357.841 336.136 356.967 336.122 356.078 336.077C355.055 336.033 354.255 335.173 354.299 334.135C354.344 333.112 355.218 332.312 356.241 332.356C359.427 332.49 362.643 332.371 365.859 332C366.881 331.882 367.8 332.623 367.919 333.631C368.037 334.654 367.296 335.573 366.289 335.692C363.754 335.988 361.22 336.136 358.73 336.136ZM346.311 334.862C346.178 334.862 346.059 334.847 345.926 334.817C342.606 334.12 339.316 333.127 336.145 331.867C335.196 331.481 334.722 330.414 335.093 329.45C335.478 328.487 336.545 328.027 337.508 328.398C340.487 329.569 343.57 330.503 346.697 331.17C347.704 331.378 348.342 332.371 348.134 333.379C347.956 334.254 347.186 334.862 346.311 334.862ZM375.803 333.883C374.973 333.883 374.217 333.335 374.01 332.49C373.743 331.496 374.351 330.473 375.344 330.221C378.411 329.421 381.494 328.383 384.517 327.153C385.466 326.767 386.562 327.227 386.948 328.175C387.333 329.124 386.874 330.221 385.925 330.607C382.754 331.897 379.508 332.979 376.292 333.824C376.114 333.853 375.951 333.883 375.803 333.883ZM327.934 327.627C327.608 327.627 327.282 327.538 326.986 327.36C324.141 325.67 321.325 323.698 318.642 321.519C317.842 320.867 317.723 319.696 318.361 318.895C319.013 318.094 320.184 317.976 320.984 318.613C323.533 320.674 326.201 322.542 328.898 324.143C329.787 324.662 330.069 325.818 329.55 326.693C329.194 327.301 328.572 327.627 327.934 327.627ZM394.165 326.441C393.513 326.441 392.876 326.1 392.535 325.477C392.031 324.573 392.357 323.446 393.261 322.942C396.062 321.386 398.833 319.636 401.471 317.753C402.301 317.16 403.472 317.353 404.065 318.183C404.658 319.014 404.465 320.185 403.635 320.778C400.878 322.75 398.003 324.573 395.069 326.189C394.773 326.367 394.461 326.441 394.165 326.441ZM312.522 315.204C312.033 315.204 311.544 315.011 311.173 314.625C308.891 312.253 306.668 309.659 304.578 306.931C303.956 306.116 304.104 304.945 304.919 304.322C305.734 303.699 306.905 303.848 307.527 304.663C309.543 307.287 311.662 309.763 313.855 312.046C314.567 312.787 314.537 313.973 313.796 314.685C313.455 315.041 312.981 315.204 312.522 315.204ZM410.274 314.937C409.771 314.937 409.252 314.729 408.896 314.329C408.214 313.558 408.274 312.387 409.029 311.705C411.445 309.526 413.742 307.198 415.847 304.796C416.528 304.026 417.699 303.951 418.47 304.619C419.24 305.301 419.315 306.472 418.648 307.243C416.454 309.748 414.053 312.179 411.519 314.462C411.164 314.774 410.719 314.937 410.274 314.937ZM416.677 303.877C415.728 303.877 414.913 303.166 414.824 302.202C414.72 301.179 415.476 300.275 416.499 300.171C418.277 299.993 420.07 299.712 421.864 299.311C421.375 298.689 421.315 297.814 421.79 297.117C423.627 294.375 425.243 291.573 426.591 288.756C427.036 287.822 428.147 287.436 429.066 287.881C430 288.326 430.385 289.438 429.941 290.357C428.651 293.055 427.125 295.753 425.406 298.377C425.539 298.333 425.687 298.288 425.821 298.244C426.813 297.947 427.851 298.481 428.147 299.459C428.458 300.438 427.91 301.49 426.932 301.787C423.612 302.825 420.219 303.522 416.854 303.848C416.795 303.863 416.736 303.877 416.677 303.877ZM406.777 303.729C406.703 303.729 406.614 303.729 406.54 303.714C403.279 303.299 399.915 302.513 396.536 301.372C395.558 301.046 395.039 299.993 395.365 299.015C395.691 298.036 396.744 297.517 397.722 297.844C400.878 298.896 404.006 299.637 407.029 300.023C408.051 300.156 408.763 301.09 408.644 302.113C408.496 303.047 407.696 303.729 406.777 303.729ZM300.399 299.504C299.776 299.504 299.169 299.193 298.813 298.629C297.005 295.738 295.345 292.759 293.878 289.794C293.419 288.874 293.789 287.763 294.723 287.303C295.642 286.843 296.753 287.229 297.213 288.148C298.635 291.009 300.236 293.87 301.985 296.672C302.533 297.547 302.266 298.689 301.392 299.237C301.081 299.415 300.74 299.504 300.399 299.504ZM435.513 298.051C434.846 298.051 434.209 297.695 433.868 297.058C433.379 296.154 433.734 295.027 434.638 294.538C437.425 293.055 440.137 291.306 442.701 289.319C443.516 288.697 444.686 288.845 445.309 289.66C445.931 290.476 445.783 291.647 444.968 292.269C442.226 294.375 439.351 296.242 436.387 297.829C436.106 297.977 435.809 298.051 435.513 298.051ZM388.015 297.517C387.718 297.517 387.407 297.443 387.126 297.295C384.043 295.62 381.168 293.693 378.589 291.587C377.789 290.935 377.685 289.764 378.337 288.963C378.989 288.163 380.16 288.059 380.96 288.711C383.346 290.683 386.029 292.462 388.904 294.034C389.808 294.523 390.149 295.649 389.66 296.554C389.319 297.162 388.682 297.517 388.015 297.517ZM451.192 286.013C450.733 286.013 450.274 285.85 449.918 285.494C449.177 284.783 449.147 283.612 449.844 282.87C452.037 280.572 454.082 278.052 455.95 275.413C456.542 274.568 457.698 274.376 458.543 274.969C459.388 275.562 459.581 276.718 458.988 277.563C457.017 280.365 454.838 283.004 452.526 285.45C452.185 285.82 451.681 286.013 451.192 286.013ZM372.884 284.901C372.32 284.901 371.772 284.649 371.402 284.16C369.238 281.299 367.519 278.245 366.318 275.058C365.948 274.094 366.437 273.027 367.4 272.656C368.363 272.3 369.43 272.775 369.801 273.738C370.883 276.585 372.409 279.327 374.366 281.907C374.988 282.722 374.825 283.893 374.01 284.516C373.669 284.768 373.269 284.901 372.884 284.901ZM431.749 282.144C431.586 282.144 431.423 282.129 431.259 282.085C430.267 281.818 429.689 280.795 429.955 279.802C430.83 276.629 431.334 273.471 431.482 270.432C431.526 269.409 432.371 268.624 433.423 268.653C434.446 268.698 435.246 269.572 435.202 270.595C435.053 273.916 434.49 277.341 433.542 280.78C433.319 281.595 432.564 282.144 431.749 282.144ZM462.619 269.869C462.337 269.869 462.041 269.81 461.759 269.661C460.84 269.187 460.485 268.06 460.959 267.156C462.426 264.324 463.715 261.33 464.827 258.291C465.182 257.327 466.235 256.823 467.213 257.164C468.176 257.52 468.68 258.572 468.339 259.551C467.183 262.753 465.82 265.881 464.278 268.861C463.938 269.498 463.286 269.869 462.619 269.869ZM366.051 266.592C365.059 266.592 364.243 265.822 364.199 264.813C364.169 264.235 364.155 263.672 364.155 263.094C364.155 260.247 364.495 257.342 365.177 254.451C365.414 253.443 366.422 252.82 367.415 253.057C368.423 253.294 369.045 254.288 368.808 255.296C368.2 257.905 367.889 260.529 367.889 263.094C367.889 263.613 367.904 264.117 367.934 264.636C367.978 265.659 367.193 266.533 366.17 266.592C366.111 266.592 366.081 266.592 366.051 266.592ZM432.549 262.501C431.674 262.501 430.904 261.893 430.726 261.003C430.118 257.964 429.185 254.881 427.94 251.856C427.554 250.908 427.999 249.811 428.962 249.425C429.911 249.04 431.008 249.484 431.393 250.448C432.727 253.695 433.734 257.001 434.387 260.277C434.594 261.285 433.927 262.264 432.919 262.471C432.801 262.486 432.667 262.501 432.549 262.501ZM370.394 247.439C370.112 247.439 369.816 247.379 369.549 247.231C368.63 246.771 368.274 245.645 368.734 244.726C370.305 241.627 372.231 238.736 374.44 236.112C375.107 235.327 376.277 235.223 377.063 235.89C377.848 236.557 377.952 237.728 377.285 238.514C375.255 240.916 373.491 243.584 372.054 246.416C371.728 247.068 371.075 247.439 370.394 247.439ZM425.109 244.192C424.502 244.192 423.894 243.895 423.538 243.332C421.76 240.545 419.774 238.04 417.625 235.86C416.899 235.134 416.914 233.948 417.64 233.221C418.366 232.495 419.552 232.51 420.278 233.236C422.605 235.593 424.753 238.306 426.665 241.316C427.214 242.176 426.962 243.332 426.102 243.881C425.791 244.103 425.45 244.192 425.109 244.192ZM383.139 232.465C382.561 232.465 381.983 232.184 381.612 231.68C381.02 230.835 381.227 229.678 382.057 229.085C385.066 226.965 388.222 225.394 391.453 224.445C392.431 224.149 393.468 224.712 393.765 225.69C394.061 226.669 393.498 227.707 392.52 228.003C389.675 228.848 386.874 230.242 384.206 232.124C383.895 232.347 383.509 232.465 383.139 232.465ZM411.134 230.36C410.823 230.36 410.511 230.286 410.23 230.123C407.414 228.537 404.495 227.558 401.575 227.188C400.552 227.054 399.826 226.135 399.96 225.112C400.093 224.089 401.012 223.363 402.034 223.496C405.443 223.926 408.807 225.053 412.053 226.876C412.957 227.38 413.268 228.507 412.764 229.411C412.423 230.019 411.786 230.36 411.134 230.36Z" fill="#5127AC"/>
<path opacity="0.1" d="M497.058 261.887C511.22 247.72 511.22 224.751 497.058 210.585C482.896 196.418 459.935 196.418 445.773 210.585C431.611 224.751 431.611 247.72 445.773 261.887C459.935 276.054 482.896 276.054 497.058 261.887Z" fill="#232323"/>
<path d="M479.128 268.179C499.156 268.179 515.393 251.937 515.393 231.902C515.393 211.867 499.156 195.625 479.128 195.625C459.1 195.625 442.864 211.867 442.864 231.902C442.864 251.937 459.1 268.179 479.128 268.179Z" fill="#F4B545"/>
<path d="M485.59 221.391L486.449 218.545L493.326 219.034L488.035 237.447C487.709 238.618 487.531 239.389 487.501 239.774C487.472 240.175 487.546 240.501 487.738 240.738C487.916 240.975 488.153 241.108 488.435 241.123C489.369 241.197 490.628 240.664 492.199 239.537C493.77 238.41 495.193 236.839 496.438 234.808C497.698 232.777 498.409 230.509 498.587 228.003C498.735 225.913 498.483 223.926 497.816 222.029C497.149 220.131 496.127 218.456 494.734 216.988C493.34 215.521 491.562 214.335 489.428 213.415C487.279 212.496 484.819 211.933 482.048 211.74C479.217 211.533 476.594 211.725 474.178 212.289C471.763 212.867 469.614 213.771 467.717 215.031C465.835 216.291 464.219 217.893 462.871 219.835C461.685 221.539 460.736 223.437 460.025 225.557C459.314 227.677 458.884 229.856 458.721 232.095C458.513 235.09 458.914 237.862 459.921 240.427C460.929 242.991 462.515 245.185 464.664 247.024C466.813 248.862 469.465 250.256 472.637 251.175C475.808 252.109 479.424 252.509 483.5 252.375C486.746 252.227 489.517 251.679 491.829 250.76C494.141 249.84 496.141 248.462 497.816 246.623L503.374 247.024C502.336 248.818 501.047 250.389 499.491 251.753C497.935 253.117 496.156 254.214 494.126 255.074C492.11 255.934 489.873 256.541 487.412 256.897C484.952 257.253 482.314 257.327 479.454 257.119C475.186 256.808 471.362 255.978 468.028 254.614C464.679 253.25 461.922 251.427 459.729 249.144C457.535 246.861 455.95 244.222 454.957 241.197C453.964 238.188 453.593 234.897 453.845 231.354C454.112 227.647 454.971 224.238 456.439 221.11C457.906 217.981 459.877 215.313 462.367 213.104C464.856 210.895 467.82 209.25 471.259 208.138C474.697 207.041 478.432 206.626 482.463 206.922C485.767 207.159 488.761 207.856 491.443 209.012C494.126 210.169 496.393 211.725 498.231 213.682C500.069 215.624 501.417 217.878 502.277 220.428C503.136 222.977 503.462 225.75 503.24 228.744C503.077 231.072 502.499 233.325 501.506 235.505C500.513 237.684 499.18 239.596 497.49 241.272C495.801 242.947 493.874 244.222 491.695 245.111C489.517 246.001 487.22 246.357 484.774 246.179C483.367 246.075 482.285 245.764 481.544 245.23C480.803 244.696 480.328 243.896 480.136 242.843C478.52 244.237 476.712 245.052 474.727 245.304C472.741 245.556 470.844 245.23 469.05 244.355C467.257 243.481 465.864 242.087 464.856 240.219C463.849 238.351 463.434 236.098 463.626 233.474C463.819 230.746 464.604 228.107 465.953 225.542C467.317 222.977 469.139 220.932 471.422 219.405C473.704 217.878 476.208 217.196 478.935 217.403C482.092 217.596 484.3 218.945 485.59 221.391ZM470.369 233.889C470.221 235.979 470.547 237.61 471.333 238.781C472.118 239.952 473.215 240.59 474.623 240.693C476.253 240.812 477.735 240.263 479.069 239.048C480.403 237.832 481.47 236.246 482.255 234.304C483.041 232.362 483.5 230.449 483.633 228.596C483.693 227.677 483.648 226.832 483.485 226.076C483.322 225.32 483.041 224.653 482.655 224.06C482.27 223.467 481.781 223.022 481.203 222.681C480.625 222.355 479.958 222.162 479.187 222.103C477.661 221.999 476.238 222.488 474.934 223.6C473.63 224.697 472.578 226.18 471.777 228.033C470.992 229.901 470.518 231.843 470.369 233.889Z" fill="white"/>
<path d="M372.558 30.8156L376.47 28.7549C377.359 28.2953 378.397 29.0366 378.219 30.0298L377.463 34.3884C377.389 34.7739 377.522 35.189 377.804 35.4558L380.975 38.5542C381.687 39.251 381.301 40.4815 380.308 40.6149L375.922 41.2524C375.522 41.3117 375.181 41.5637 375.018 41.9195L373.061 45.8926C372.617 46.7969 371.328 46.7969 370.898 45.8926L368.941 41.9195C368.764 41.5637 368.423 41.3117 368.037 41.2524L363.651 40.6149C362.658 40.4667 362.258 39.251 362.984 38.5542L366.155 35.4558C366.437 35.1741 366.57 34.7739 366.496 34.3884L365.74 30.0298C365.577 29.0366 366.615 28.2805 367.489 28.7549L371.402 30.8156C371.787 31.0083 372.202 31.0083 372.558 30.8156Z" fill="#4786D1"/>
<path d="M53.809 346.099C48.0588 346.099 43.3905 341.429 43.3905 335.677C43.3905 329.925 48.0588 325.255 53.809 325.255C59.5591 325.255 64.2274 329.925 64.2274 335.677C64.2274 341.429 59.5591 346.099 53.809 346.099ZM53.809 328.131C49.6445 328.131 46.2508 331.526 46.2508 335.692C46.2508 339.857 49.6445 343.252 53.809 343.252C57.9734 343.252 61.3672 339.857 61.3672 335.692C61.3672 331.511 57.9734 328.131 53.809 328.131Z" fill="#4786D1"/>
<path d="M57.5573 339.433C59.6293 337.361 59.6293 334 57.5573 331.928C55.4854 329.855 52.1261 329.855 50.0542 331.928C47.9823 334 47.9823 337.361 50.0542 339.433C52.1261 341.506 55.4854 341.506 57.5573 339.433Z" fill="#4786D1"/>
<path d="M269.203 397.942C271.847 397.942 273.99 395.798 273.99 393.153C273.99 390.509 271.847 388.365 269.203 388.365C266.559 388.365 264.416 390.509 264.416 393.153C264.416 395.798 266.559 397.942 269.203 397.942Z" fill="#4786D1"/>
<path d="M189.723 17.4583C192.367 17.4583 194.51 15.3144 194.51 12.6698C194.51 10.0252 192.367 7.88135 189.723 7.88135C187.079 7.88135 184.936 10.0252 184.936 12.6698C184.936 15.3144 187.079 17.4583 189.723 17.4583Z" fill="#4786D1"/>
</svg>
