<svg width="78" height="68" viewBox="0 0 78 68" fill="none" xmlns="http://www.w3.org/2000/svg">
<path d="M38.7118 67.9909C57.3595 67.9909 72.4764 52.7706 72.4764 33.9955C72.4764 15.2203 57.3595 0 38.7118 0C20.0642 0 4.94727 15.2203 4.94727 33.9955C4.94727 52.7706 20.0642 67.9909 38.7118 67.9909Z" fill="#FDF8E3"/>
<path opacity="0.2" d="M0.00901109 29.0962L0.117144 29.6768L7.34404 61.0231C7.35305 61.0503 7.36206 61.0684 7.36206 61.0956C7.38008 61.1501 7.38909 61.2045 7.40712 61.259C7.41613 61.2862 7.43415 61.3134 7.44316 61.3497C7.46118 61.4041 7.47921 61.4495 7.50624 61.4948C7.51525 61.5221 7.53327 61.5402 7.54228 61.5674C7.56932 61.6219 7.59635 61.6763 7.63239 61.7217C7.6414 61.7398 7.65042 61.758 7.66844 61.7761C7.70448 61.8305 7.74053 61.885 7.78558 61.9394C7.79459 61.9485 7.79459 61.9485 7.79459 61.9576C7.81262 61.9757 7.83064 62.0029 7.84866 62.0211C7.85767 62.0301 7.86668 62.0483 7.87569 62.0574C7.89372 62.0846 7.92075 62.1027 7.93877 62.1299C7.94778 62.139 7.95679 62.139 7.95679 62.1481C8.03789 62.2297 8.11899 62.3023 8.20009 62.3658C8.22713 62.384 8.24515 62.4021 8.27218 62.4203C8.28119 62.4293 8.29921 62.4384 8.30823 62.4475C8.36229 62.4838 8.41636 62.511 8.47042 62.5473C8.48845 62.5564 8.51548 62.5745 8.5335 62.5836C8.60559 62.6199 8.68669 62.6562 8.76779 62.6924C8.78581 62.7015 8.80384 62.7015 8.82186 62.7106C8.88494 62.7287 8.94801 62.756 9.01109 62.765C9.03812 62.7741 9.06516 62.7741 9.1012 62.7832C9.16428 62.8013 9.22736 62.8104 9.29945 62.8195C9.31747 62.8195 9.32648 62.8285 9.3445 62.8285C9.35351 62.8285 9.37153 62.8285 9.38054 62.8285C9.49769 62.8376 9.61483 62.8376 9.73198 62.8285C9.75901 62.8285 9.78604 62.8285 9.81308 62.8195C9.90319 62.8104 9.9933 62.8013 10.0834 62.7741C10.0924 62.7741 10.1014 62.7741 10.1104 62.7741L10.2366 62.7469L65.4385 49.8455L65.5647 49.8183C65.6007 49.8092 65.6458 49.8001 65.6818 49.782C65.7089 49.7729 65.7359 49.7638 65.7629 49.7548C65.7719 49.7548 65.781 49.7457 65.781 49.7457H65.79C65.799 49.7457 65.808 49.7366 65.817 49.7366C65.826 49.7366 65.835 49.7275 65.835 49.7275C65.8531 49.7275 65.8621 49.7185 65.8801 49.7094H65.8891C65.9071 49.7003 65.9251 49.6912 65.9432 49.6822C65.9612 49.6731 65.9702 49.6731 65.9882 49.664C66.0062 49.655 66.0333 49.6459 66.0513 49.6277C66.0693 49.6187 66.0964 49.6096 66.1144 49.5914C66.1504 49.5733 66.1955 49.5461 66.2315 49.5279C66.2405 49.5279 66.2495 49.5189 66.2495 49.5189C66.2586 49.5189 66.2676 49.5098 66.2766 49.5098C66.2766 49.5098 66.2856 49.5007 66.2946 49.5007C66.3036 49.4916 66.3126 49.4826 66.3216 49.4826C66.4117 49.4191 66.5019 49.3556 66.5829 49.283C66.592 49.2739 66.61 49.2558 66.619 49.2467C66.628 49.2376 66.646 49.2285 66.655 49.2104C66.6731 49.1922 66.6821 49.1832 66.7001 49.165C66.7001 49.156 66.7091 49.156 66.7091 49.1469C66.7181 49.1287 66.7361 49.1197 66.7451 49.1015C66.7632 49.0834 66.7812 49.0652 66.7902 49.0471L66.7992 49.038C66.8082 49.0289 66.8172 49.0108 66.8262 49.0017C66.8443 48.9836 66.8533 48.9654 66.8713 48.9473C66.8803 48.9382 66.8803 48.9382 66.8893 48.9291C66.8893 48.9201 66.8983 48.9201 66.8983 48.911C66.9073 48.8928 66.9254 48.8838 66.9344 48.8656C66.9434 48.8566 66.9524 48.8384 66.9614 48.8293C66.9614 48.8203 66.9704 48.8203 66.9704 48.8112C66.9884 48.793 66.9975 48.7658 67.0065 48.7477C67.0155 48.7295 67.0335 48.7114 67.0425 48.6932C67.0515 48.6751 67.0605 48.657 67.0695 48.6388C67.0876 48.6116 67.0966 48.5753 67.1146 48.5481C67.1326 48.5209 67.1416 48.4846 67.1597 48.4574C67.1687 48.4392 67.1777 48.4211 67.1867 48.3938C67.1957 48.3576 67.2137 48.3213 67.2227 48.294C67.2317 48.2759 67.2318 48.2578 67.2408 48.2396C67.2408 48.2215 67.2498 48.2033 67.2588 48.1852C67.2678 48.167 67.2678 48.1489 67.2678 48.1307C67.2768 48.0854 67.2858 48.04 67.2948 48.0037C67.2948 47.9946 67.3038 47.9765 67.3038 47.9674V47.9584C67.3038 47.9402 67.3128 47.9221 67.3128 47.9039C67.3128 47.8858 67.3219 47.8676 67.3219 47.8404V47.8313C67.3219 47.8223 67.3219 47.8132 67.3219 47.8041C67.3219 47.7769 67.3309 47.7497 67.3309 47.7315C67.3309 47.7225 67.3309 47.7134 67.3309 47.7134V47.7043C67.3309 47.6771 67.3309 47.6499 67.3309 47.6317C67.3309 47.6227 67.3309 47.6045 67.3309 47.5864C67.3309 47.5773 67.3309 47.5682 67.3309 47.5592C67.3309 47.5592 67.3309 47.5592 67.3309 47.5501C67.3309 47.541 67.3309 47.5319 67.3309 47.5319V47.5229C67.3309 47.5138 67.3309 47.4956 67.3309 47.4866C67.3309 47.4684 67.3309 47.4503 67.3309 47.4321C67.3309 47.4049 67.3309 47.3777 67.3219 47.3505C67.3219 47.3414 67.3219 47.3233 67.3219 47.3142C67.3219 47.3051 67.3219 47.296 67.3219 47.287C67.3219 47.2688 67.3128 47.2507 67.3128 47.2325C67.3128 47.2144 67.3129 47.1962 67.3038 47.1781C67.2948 47.1418 67.2948 47.1146 67.2858 47.0783C67.2858 47.0692 67.2858 47.0602 67.2858 47.0602L67.2588 46.9604L67.2317 46.8515L67.2047 46.7426L67.1777 46.6337L60.0499 15.7139L60.14 15.6051C60.131 15.5778 60.113 15.5506 60.104 15.5234C60.086 15.4871 60.0769 15.4599 60.0499 15.4236C60.0139 15.351 59.9778 15.2875 59.9328 15.224V15.2149C59.9147 15.1877 59.8967 15.1605 59.8787 15.1423C59.8697 15.1242 59.8697 15.1151 59.8607 15.097C59.8517 15.0698 59.8427 15.0425 59.8246 15.0153C59.8066 14.979 59.7976 14.9518 59.7796 14.9155C59.7435 14.852 59.7075 14.7885 59.6714 14.725V14.7159C59.6444 14.6796 59.6174 14.6343 59.5903 14.598C59.4912 14.4619 59.3741 14.3439 59.2569 14.2351C59.2299 14.2079 59.1939 14.1806 59.1668 14.1534C59.0947 14.099 59.0226 14.0445 58.9506 13.9992C58.9235 13.981 58.8965 13.972 58.8785 13.9538C58.8424 13.9357 58.8064 13.9175 58.7793 13.8994C58.7703 13.8994 58.7703 13.8903 58.7613 13.8903L58.6262 13.8268C58.5631 13.7996 58.5 13.7724 58.4279 13.7542C58.3919 13.7451 58.3558 13.727 58.3108 13.727C58.2387 13.7089 58.1666 13.6907 58.0945 13.6816C58.0494 13.6726 57.9954 13.6726 57.9413 13.6635C57.8872 13.6544 57.8332 13.6544 57.7791 13.6544C57.7701 13.6544 57.7521 13.6544 57.7431 13.6544C57.698 13.6544 57.653 13.6544 57.6079 13.6544C57.5989 13.6544 57.5809 13.6544 57.5719 13.6544C57.5178 13.6544 57.4637 13.6635 57.4187 13.6726C57.4097 13.6726 57.4007 13.6726 57.3916 13.6726C57.3376 13.6816 57.2835 13.6907 57.2294 13.6998L56.7158 13.8177L1.7842 26.6375C1.2976 26.7463 0.892098 27.0095 0.585721 27.3542L0.49561 27.4722C0.486599 27.4722 0.486599 27.4812 0.486599 27.4812C0.234288 27.8079 0.0720887 28.198 0.0270333 28.6153C0 28.7514 0 28.8966 0 29.0327C0.00901109 29.0508 0.00901109 29.078 0.00901109 29.0962Z" fill="#DADAF5"/>
<path d="M35.2883 37.0167C35.2252 37.1347 35.1351 37.2435 35.036 37.3524L32.558 39.8293L31.5667 40.8272L11.6612 60.6874L11.5351 60.7146C11.3098 60.7691 11.0845 60.7872 10.8593 60.7691C10.8232 60.7691 10.7962 60.7691 10.7691 60.76C10.3817 60.7237 10.0122 60.5785 9.70583 60.3608C9.6788 60.3427 9.64276 60.3154 9.61572 60.2973C9.52561 60.2338 9.44451 60.1521 9.36341 60.0796C9.33638 60.0523 9.31836 60.0251 9.29132 59.9979C9.26429 59.9707 9.24627 59.9344 9.21924 59.9072C9.01198 59.6441 8.84978 59.3356 8.76868 58.9818L1.54179 27.6265L1.48772 27.3815C1.46069 27.2635 1.44266 27.1547 1.43365 27.0458C1.43365 27.0277 1.43365 27.0095 1.43365 26.9914C1.42464 26.8553 1.42464 26.7101 1.44266 26.574C1.48772 26.1567 1.64992 25.7665 1.90223 25.4399C1.90223 25.4399 1.91124 25.4309 1.92025 25.4218L2.01036 25.3038C2.31674 24.9591 2.73125 24.696 3.20884 24.5871L3.72247 24.4691L4.54248 24.7504L6.46184 25.3946L31.7199 33.9592L32.6661 34.2858L34.4773 34.9028C34.6125 34.9481 34.7386 35.0116 34.8468 35.0842C35.4595 35.5106 35.6578 36.3635 35.2883 37.0167Z" fill="#DADAF5"/>
<path d="M68.7638 45.4634C68.7638 45.4725 68.7638 45.4816 68.7638 45.4906C68.7638 45.5088 68.7638 45.5179 68.7638 45.536C68.7638 45.5632 68.7638 45.5814 68.7638 45.6086C68.7638 45.6086 68.7638 45.6177 68.7638 45.6267C68.7638 45.6721 68.7548 45.7175 68.7548 45.7538V45.7628C68.7548 45.781 68.7458 45.7991 68.7458 45.8263C68.7458 45.8445 68.7458 45.8626 68.7367 45.8808C68.7367 45.8898 68.7367 45.8898 68.7367 45.8989C68.7277 45.9534 68.7187 46.0078 68.7007 46.0622C68.7007 46.0804 68.6917 46.0985 68.6827 46.1167C68.6737 46.1348 68.6737 46.153 68.6646 46.1711C68.6556 46.1892 68.6556 46.2074 68.6466 46.2255C68.6286 46.2618 68.6196 46.2981 68.6106 46.3344C68.6016 46.3616 68.5926 46.3798 68.5835 46.3979C68.5655 46.4433 68.5385 46.4977 68.5205 46.534C68.5025 46.5703 68.4844 46.6066 68.4664 46.6338C68.4484 46.661 68.4304 46.6973 68.4123 46.7245C68.4033 46.7427 68.3943 46.7608 68.3853 46.7699C68.3763 46.788 68.3673 46.7971 68.3583 46.8062C68.3493 46.8243 68.3403 46.8425 68.3222 46.8516C68.3222 46.8606 68.3132 46.8606 68.3132 46.8697C68.2862 46.906 68.2592 46.9423 68.2231 46.9786L68.2141 46.9876C68.1871 47.0149 68.169 47.0421 68.142 47.0693C68.133 47.0784 68.124 47.0874 68.115 47.0965C68.106 47.1147 68.0879 47.1237 68.0699 47.1419C68.0609 47.151 68.0519 47.16 68.0339 47.1782C68.0159 47.1872 68.0068 47.2054 67.9978 47.2145C67.9077 47.2961 67.8176 47.3778 67.7095 47.4413C67.7005 47.4504 67.7005 47.4504 67.6915 47.4504C67.6824 47.4594 67.6734 47.4594 67.6734 47.4685C67.6554 47.4866 67.6284 47.5048 67.6013 47.5139C67.5563 47.5411 67.5202 47.5592 67.4752 47.5774C67.4482 47.5955 67.4301 47.6046 67.4121 47.6137C67.3941 47.6227 67.3851 47.6227 67.3671 47.6318C67.349 47.6409 67.331 47.65 67.313 47.659H67.304C67.286 47.6681 67.2769 47.6772 67.2589 47.6772C67.2499 47.6772 67.2409 47.6862 67.2409 47.6862C67.2319 47.6862 67.2139 47.6953 67.2049 47.7044C67.1958 47.7044 67.1868 47.7135 67.1778 47.7135C67.1508 47.7225 67.1238 47.7316 67.0967 47.7407C67.0607 47.7498 67.0156 47.7679 66.9796 47.777L66.8534 47.8042L40.2887 38.8041L38.9641 38.3504L35.657 37.2254C35.5218 37.18 35.3957 37.1165 35.2876 37.0439C34.6658 36.6175 34.4675 35.7647 34.837 35.1115C34.9001 35.0026 34.9812 34.8846 35.0893 34.7848L36.441 33.4239L37.1528 32.7163L56.0761 13.8269L57.5179 12.3934L58.1307 11.7764L58.6443 11.6585C58.6984 11.6494 58.7524 11.6403 58.8065 11.6313C58.8155 11.6313 58.8245 11.6313 58.8335 11.6313C58.8876 11.6222 58.9417 11.6131 58.9867 11.6131C58.9957 11.6131 59.0138 11.6131 59.0228 11.6131C59.0678 11.6131 59.1129 11.6131 59.1579 11.6131C59.167 11.6131 59.176 11.6131 59.194 11.6131C59.2481 11.6131 59.3111 11.6131 59.3562 11.6222C59.4103 11.6222 59.4643 11.6313 59.5094 11.6403C59.5815 11.6494 59.6536 11.6676 59.7256 11.6857C59.7617 11.6948 59.8067 11.7039 59.8428 11.722C59.9059 11.7401 59.9689 11.7674 60.032 11.7946L60.1762 11.8581C60.1762 11.8581 60.1852 11.8581 60.1942 11.8672C60.2303 11.8853 60.2663 11.9035 60.3024 11.9216C60.3294 11.9397 60.3474 11.9488 60.3744 11.967C60.4555 12.0123 60.5276 12.0668 60.5907 12.1212C60.6268 12.1484 60.6538 12.1756 60.6808 12.2029C60.807 12.3117 60.9151 12.4297 61.0142 12.5658C61.0413 12.6021 61.0683 12.6383 61.0953 12.6837C61.1404 12.7472 61.1764 12.8107 61.2035 12.8742C61.2215 12.9105 61.2395 12.9377 61.2485 12.974C61.2575 13.0013 61.2665 13.0194 61.2846 13.0557C61.2936 13.0738 61.2936 13.0829 61.3026 13.092C61.3116 13.1011 61.3116 13.1101 61.3206 13.1283C61.3296 13.1555 61.3476 13.1918 61.3567 13.2281C61.3657 13.2553 61.3747 13.2825 61.3837 13.3097C61.3927 13.346 61.4017 13.3914 61.4107 13.4277L61.4648 13.6726L68.6917 45.0189C68.7007 45.0552 68.7097 45.0914 68.7187 45.1368C68.7187 45.155 68.7277 45.1731 68.7277 45.1912C68.7277 45.2094 68.7367 45.2275 68.7367 45.2457C68.7367 45.2548 68.7367 45.2638 68.7367 45.2638C68.7367 45.282 68.7367 45.291 68.7367 45.3001C68.7367 45.3273 68.7458 45.3546 68.7458 45.3818C68.7458 45.409 68.7548 45.4362 68.7458 45.4634V45.4725C68.7638 45.4453 68.7638 45.4544 68.7638 45.4634Z" fill="#DADAF5"/>
<path opacity="0.6" d="M68.6107 44.538L68.6828 44.8646C68.9802 46.1711 68.2232 47.4594 66.9797 47.7497L11.5345 60.7147C10.2909 61.005 9.04741 60.1794 8.74103 58.882L8.66895 58.5553L32.8277 32.9975C33.5756 32.2082 34.702 31.936 35.7292 32.3171L68.6107 44.538Z" fill="#C8C8EE"/>
<path d="M68.6291 44.656L68.7011 44.9736C68.9895 46.2256 68.2145 47.4686 66.98 47.7589L11.5348 60.7147C10.2913 61.005 9.05673 60.2248 8.76838 58.9818L8.69629 58.6643L33.0443 33.8958C33.8012 33.1246 34.9276 32.8615 35.9458 33.2153L68.6291 44.656Z" fill="#DADAF5"/>
<path opacity="0.6" d="M61.4735 13.6182L61.3474 13.7725L40.2975 38.7769L39.3513 39.9019L37.9095 41.6167C37.1886 42.4695 35.9811 42.7598 34.9539 42.3062L32.9174 41.408L31.5747 40.8183L1.72998 27.7082L1.54075 27.6265L1.48668 27.3816C1.45965 27.2636 1.44163 27.1547 1.43262 27.0459C1.48668 26.6467 1.63987 26.2656 1.87416 25.9481L1.88317 25.939L1.97328 25.812C2.27966 25.4491 2.69417 25.186 3.18077 25.068L4.54144 24.7505L57.5267 12.3662L58.8873 12.0487C58.9414 12.0305 58.9955 12.0215 59.0495 12.0215C59.0585 12.0124 59.0676 12.0124 59.0766 12.0124C59.1306 12.0033 59.1847 11.9942 59.2388 11.9942C59.2478 11.9942 59.2658 11.9942 59.2748 11.9942C59.3199 11.9942 59.3649 11.9942 59.41 11.9942C59.419 11.9942 59.428 11.9942 59.446 11.9942C59.5001 11.9942 59.5542 11.9942 59.6082 12.0033C59.6623 12.0033 59.7164 12.0124 59.7704 12.0215C59.8425 12.0396 59.9146 12.0487 59.9867 12.0759C60.0227 12.085 60.0678 12.094 60.0948 12.1122C60.1579 12.1303 60.23 12.1575 60.2931 12.1848L60.4372 12.2573C60.4463 12.2573 60.4463 12.2573 60.4553 12.2664C60.4913 12.2846 60.5274 12.3027 60.5634 12.3299C60.5904 12.339 60.6175 12.3571 60.6355 12.3753C60.7166 12.4206 60.7887 12.4751 60.8608 12.5386C60.8968 12.5658 60.9238 12.593 60.9599 12.6203C61.086 12.7382 61.2032 12.8652 61.3023 13.0104L61.3293 13.0557C61.3383 13.0648 61.3383 13.0739 61.3474 13.092C61.3564 13.1192 61.3744 13.1555 61.3834 13.1918C61.3924 13.219 61.4014 13.2463 61.4104 13.2735C61.4194 13.3098 61.4285 13.3551 61.4375 13.3914L61.4735 13.6182Z" fill="#C8C8EE"/>
<path d="M61.3026 12.9922L38.9641 38.3323L37.5133 39.9745C36.7924 40.8001 35.5849 41.0813 34.5667 40.664L32.5482 39.8293L1.42389 26.9914C1.41488 26.8553 1.41488 26.7102 1.4329 26.5741C1.47795 26.1567 1.64015 25.7666 1.89246 25.44L1.90148 25.4309L1.99159 25.313C2.29796 24.9682 2.70346 24.7051 3.19006 24.5962L58.6353 11.6313C58.6894 11.6222 58.7434 11.6041 58.7975 11.6041C58.8065 11.595 58.8155 11.595 58.8245 11.6041C58.8786 11.595 58.9327 11.5859 58.9777 11.5859C58.9867 11.5859 59.0048 11.5859 59.0138 11.5859C59.0588 11.5859 59.1039 11.5859 59.1489 11.5859C59.1579 11.5859 59.176 11.5859 59.185 11.5859C59.239 11.5859 59.2931 11.5859 59.3472 11.595C59.4012 11.595 59.4553 11.6041 59.5004 11.6132C59.5725 11.6222 59.6445 11.6404 59.7166 11.6585C59.7527 11.6676 59.7977 11.6767 59.8338 11.6857C59.8969 11.7039 59.9689 11.7311 60.032 11.7583L60.1672 11.8218C60.1762 11.8218 60.1762 11.8309 60.1852 11.8309C60.2213 11.849 60.2573 11.8672 60.2843 11.8853C60.3114 11.8944 60.3384 11.9126 60.3564 11.9307C60.4285 11.9761 60.5096 12.0305 60.5727 12.0849C60.5997 12.1122 60.6358 12.1394 60.6628 12.1666C60.789 12.2755 60.8971 12.3934 60.9962 12.5295C61.0232 12.5658 61.0503 12.6021 61.0773 12.6474C61.0773 12.6474 61.0773 12.6474 61.0773 12.6565C61.1224 12.72 61.1584 12.7835 61.1854 12.847C61.2035 12.8833 61.2215 12.9106 61.2305 12.9468C61.2756 12.9468 61.2846 12.965 61.3026 12.9922Z" fill="#DADAF5"/>
<path opacity="0.2" d="M69.358 25.3945L69.2318 25.3401C69.5832 24.3149 69.1057 23.1626 68.1054 22.709C67.1052 22.2644 65.9338 22.6727 65.4111 23.6163L65.285 23.5618C65.0326 23.453 64.7263 23.5709 64.6091 23.8249L64.0414 25.1042C63.9333 25.3582 64.0504 25.6667 64.3027 25.7846L64.4199 25.8391L63.8432 27.1456C63.4827 27.0548 63.1043 27.2363 62.9421 27.5901L48.2089 60.8416C48.0648 61.1682 48.1639 61.5493 48.4252 61.767L48.9208 63.9173C49.083 64.6159 49.858 64.9606 50.4797 64.6159L52.3901 63.5453C52.7325 63.5906 53.0839 63.4183 53.2281 63.0826L54.3545 60.5331L67.3125 31.2918L67.9432 29.8492C68.1054 29.4954 67.9793 29.078 67.6729 28.8694L68.2496 27.5629L68.3667 27.6173C68.6281 27.7353 68.9254 27.6083 69.0426 27.3542L69.0696 27.3089L69.6103 26.084C69.6463 26.0024 69.6553 25.9207 69.6553 25.8482C69.6373 25.6395 69.5382 25.4762 69.358 25.3945Z" fill="#DADAF5"/>
<path d="M47.7046 63.0734L50.8945 61.522L46.416 59.1994L47.0107 62.7105C47.0738 63.0372 47.4162 63.2186 47.7046 63.0734Z" fill="#636466"/>
<path d="M67.0687 28.4792L63.7255 26.7463C63.6174 26.6919 63.5724 26.5558 63.6264 26.4378L64.7528 24.2423C64.8069 24.1334 64.942 24.088 65.0592 24.1425L68.4023 25.8753C68.5104 25.9298 68.5555 26.0659 68.5014 26.1838L67.375 28.3794C67.312 28.4974 67.1768 28.5336 67.0687 28.4792Z" fill="#636466"/>
<path d="M67.51 26.9096L64.7436 25.4761C64.4733 25.34 64.3741 25.0043 64.5093 24.7322L66.2124 21.4115C66.3476 21.1394 66.681 21.0396 66.9513 21.1756L69.7177 22.6091C69.9881 22.7452 70.0872 23.0809 69.952 23.3531L68.2399 26.6737C68.1047 26.9459 67.7713 27.0548 67.51 26.9096Z" fill="#636466"/>
<path d="M50.1642 61.7125L46.686 59.907C46.2985 59.6984 46.1453 59.2266 46.3435 58.8365L62.8969 26.4741C63.0952 26.084 63.5637 25.9388 63.9512 26.1293L67.4385 27.9257C67.826 28.1253 67.9792 28.6062 67.7719 28.9963L67.06 30.4026L52.4981 58.8818L51.2366 61.3587C51.0293 61.7488 50.5517 61.9121 50.1642 61.7125Z" fill="#FCB3B3"/>
<path d="M52.4982 58.8818L50.4077 57.8022C50.0562 57.6207 49.912 57.1852 50.1013 56.8223L63.9964 29.6405C64.1766 29.2867 64.6091 29.1415 64.9786 29.3229L67.0601 30.4117L52.4982 58.8818Z" fill="#FC8E8E"/>
<path d="M64.5553 31.3643L58.9775 42.2697C58.8243 42.56 58.4638 42.687 58.1755 42.5328L57.5357 42.1971C57.2473 42.0429 57.1302 41.68 57.2834 41.3806L62.8522 30.4842C63.0054 30.1939 63.3659 30.076 63.6542 30.2211L64.294 30.5568C64.5914 30.711 64.7085 31.074 64.5553 31.3643Z" fill="#636466"/>
<path d="M62.4216 31.3296L62.0215 32.112L63.728 32.9965L64.1281 32.2141L62.4216 31.3296Z" fill="#474747"/>
<path d="M68.321 26.8008L64.3561 24.7504C64.1038 24.6234 64.0047 24.3058 64.1309 24.0609L64.7706 22.8179C64.8968 22.5639 65.2122 22.4641 65.4555 22.5911L69.4204 24.6506C69.5916 24.7413 69.6907 24.9137 69.6907 25.1042C69.6907 25.1768 69.6817 25.2584 69.6366 25.3401L69.0329 26.5286L69.0059 26.574C68.8797 26.828 68.5733 26.9369 68.321 26.8008Z" fill="#FCB3B3"/>
<path d="M69.0336 26.5286L66.5105 25.2221C66.2852 25.1042 66.1861 24.832 66.3122 24.5961L66.6006 24.0154C66.7267 23.7886 67.0061 23.6979 67.2314 23.8158L69.6914 25.086C69.6914 25.1586 69.6824 25.2403 69.6373 25.3219L69.0336 26.5286Z" fill="#FC8E8E"/>
<path d="M77.548 43.7238C78.1497 43.118 78.1497 42.1357 77.548 41.5298C76.9462 40.9239 75.9706 40.9239 75.3689 41.5298C74.7671 42.1357 74.7671 43.118 75.3689 43.7238C75.9706 44.3297 76.9462 44.3297 77.548 43.7238Z" fill="#D1C7FF"/>
<path d="M35.4766 63.1915C36.243 63.1915 36.8643 62.5659 36.8643 61.7943C36.8643 61.0226 36.243 60.3971 35.4766 60.3971C34.7102 60.3971 34.0889 61.0226 34.0889 61.7943C34.0889 62.5659 34.7102 63.1915 35.4766 63.1915Z" fill="#D1C7FF"/>
<path d="M47.7048 9.62618C48.8146 9.62618 49.7143 8.72035 49.7143 7.60296C49.7143 6.48557 48.8146 5.57974 47.7048 5.57974C46.595 5.57974 45.6953 6.48557 45.6953 7.60296C45.6953 8.72035 46.595 9.62618 47.7048 9.62618Z" fill="#D1C7FF"/>
<path d="M16.2111 11.6857C14.6522 11.6857 13.3906 10.4155 13.3906 8.84596C13.3906 7.27638 14.6522 6.0062 16.2111 6.0062C17.77 6.0062 19.0316 7.28545 19.0316 8.84596C19.0316 10.4155 17.77 11.6857 16.2111 11.6857ZM16.2111 6.78645C15.0847 6.78645 14.1656 7.71187 14.1656 8.84596C14.1656 9.98004 15.0847 10.9055 16.2111 10.9055C17.3375 10.9055 18.2566 9.98004 18.2566 8.84596C18.2566 7.71187 17.3375 6.78645 16.2111 6.78645Z" fill="#D1C7FF"/>
<path d="M16.2111 10.2886C17.0024 10.2886 17.6438 9.64277 17.6438 8.84607C17.6438 8.04936 17.0024 7.4035 16.2111 7.4035C15.4198 7.4035 14.7783 8.04936 14.7783 8.84607C14.7783 9.64277 15.4198 10.2886 16.2111 10.2886Z" fill="#D1C7FF"/>
</svg>
