<svg width="192" height="220" viewBox="0 0 192 220" fill="none" xmlns="http://www.w3.org/2000/svg">
<path d="M4.72864 56.7172C4.78363 56.7172 4.82029 56.6804 4.83862 56.6435C6.67174 52.5371 11.0345 48.7252 15.9473 46.9574C16.0206 46.939 16.0573 46.8653 16.0206 46.7917C16.0023 46.718 15.9289 46.6812 15.8556 46.718C10.8879 48.5227 6.47009 52.3713 4.60032 56.5515C4.56366 56.6251 4.60032 56.6988 4.67364 56.7172C4.69198 56.6988 4.71031 56.7172 4.72864 56.7172Z" fill="#502A59"/>
<path d="M4.76578 50.6403C4.80244 50.6403 4.85743 50.6219 4.87577 50.5851C6.17727 48.4306 8.08371 46.9022 10.7417 45.9078C10.815 45.8894 10.8334 45.8157 10.815 45.742C10.7967 45.6684 10.7234 45.65 10.6501 45.6684C7.93706 46.6812 5.99396 48.2464 4.65579 50.4562C4.61913 50.5114 4.63746 50.6035 4.69245 50.6403C4.71079 50.6403 4.72912 50.6403 4.76578 50.6403Z" fill="#502A59"/>
<path d="M117.96 3.16732V56.3489C117.96 58.0983 119.371 59.5162 121.113 59.5162H188.846C190.588 59.5162 191.999 58.0983 191.999 56.3489V3.16732C191.999 1.41793 190.588 0 188.846 0H121.113C120.966 0 120.838 0 120.691 0.0368293H120.673C120.581 0.055244 120.471 0.0736587 120.38 0.0920733C119.005 0.423537 117.96 1.67573 117.96 3.16732Z" fill="#9C78E8"/>
<path d="M178.911 49.0383H131.049C128.775 49.0383 126.942 47.1968 126.942 44.9134C126.942 42.6299 128.775 40.7885 131.049 40.7885H178.911C181.184 40.7885 183.017 42.6299 183.017 44.9134C183.017 47.1968 181.184 49.0383 178.911 49.0383Z" fill="#CBB3FF"/>
<path d="M154.989 34.8958C162.39 34.8958 168.389 28.869 168.389 21.4347C168.389 14.0003 162.39 7.97354 154.989 7.97354C147.588 7.97354 141.589 14.0003 141.589 21.4347C141.589 28.869 147.588 34.8958 154.989 34.8958Z" fill="#CBB3FF"/>
<path d="M153.485 29.0031C153.485 29.8317 154.164 30.5131 154.989 30.5131C155.813 30.5131 156.492 29.8317 156.492 29.0031C156.492 28.1744 155.813 27.4931 154.989 27.4931C154.164 27.5115 153.485 28.1744 153.485 29.0031Z" fill="#7A54CC"/>
<path d="M153.87 25.6516H156.107L156.968 12.5772H152.99L153.87 25.6516Z" fill="#7A54CC"/>
<g opacity="0.2">
<g opacity="0.2">
<path opacity="0.2" d="M117.96 3.16815V53.919V54.0295C117.96 57.0679 120.416 59.5354 123.441 59.5354H168.022C154.641 50.3281 131.287 30.5323 120.691 0.0376587H120.673C120.581 0.0560734 120.49 0.074488 120.38 0.0929027C119.005 0.424367 117.96 1.67656 117.96 3.16815Z" fill="#47068C"/>
</g>
</g>
<path d="M147.472 132.475C147.619 132.475 147.729 132.365 147.729 132.217V126.564C147.729 126.417 147.619 126.306 147.472 126.306C147.326 126.306 147.216 126.417 147.216 126.564V132.217C147.216 132.365 147.326 132.475 147.472 132.475Z" fill="#EBB821"/>
<path d="M144.668 129.639H150.295C150.442 129.639 150.552 129.529 150.552 129.381C150.552 129.234 150.442 129.124 150.295 129.124H144.668C144.521 129.124 144.411 129.234 144.411 129.381C144.393 129.529 144.521 129.639 144.668 129.639Z" fill="#EBB821"/>
<path d="M129.82 150.356C130.762 150.356 131.525 149.589 131.525 148.643C131.525 147.697 130.762 146.931 129.82 146.931C128.878 146.931 128.115 147.697 128.115 148.643C128.115 149.589 128.878 150.356 129.82 150.356Z" fill="#9C78E8"/>
<path d="M139.554 165.75C139.554 164.425 140.635 163.338 141.955 163.338C143.275 163.338 144.356 164.425 144.356 165.75C144.356 167.076 143.275 168.163 141.955 168.163C140.617 168.144 139.554 167.076 139.554 165.75ZM140.067 165.75C140.067 166.782 140.91 167.629 141.937 167.629C142.963 167.629 143.807 166.782 143.807 165.75C143.807 164.719 142.963 163.872 141.937 163.872C140.91 163.854 140.067 164.701 140.067 165.75Z" fill="#56BA85"/>
<path d="M27.6973 137.576C27.6973 135.145 29.677 133.156 32.0967 133.156C34.5164 133.156 36.4962 135.145 36.4962 137.576C36.4962 140.007 34.5164 141.995 32.0967 141.995C29.677 141.995 27.6973 140.007 27.6973 137.576ZM28.2105 137.576C28.2105 139.73 29.952 141.48 32.0967 141.48C34.2415 141.48 35.9829 139.73 35.9829 137.576C35.9829 135.421 34.2415 133.672 32.0967 133.672C29.952 133.672 28.2105 135.421 28.2105 137.576Z" fill="#502A59"/>
<path d="M20.585 165.99C20.585 164.443 21.8315 163.191 23.3713 163.191C24.9111 163.191 26.1576 164.443 26.1576 165.99C26.1576 167.537 24.9111 168.789 23.3713 168.789C21.8315 168.77 20.585 167.518 20.585 165.99ZM21.0982 165.99C21.0982 167.242 22.1064 168.255 23.353 168.255C24.5995 168.255 25.6077 167.242 25.6077 165.99C25.6077 164.738 24.5995 163.725 23.353 163.725C22.1064 163.706 21.0982 164.738 21.0982 165.99Z" fill="#9C78E8"/>
<path d="M37.5049 173.742C37.5049 172.858 38.2198 172.122 39.118 172.122C39.9979 172.122 40.7312 172.84 40.7312 173.742C40.7312 174.645 40.0162 175.363 39.118 175.363C38.2198 175.363 37.5049 174.626 37.5049 173.742ZM38.0182 173.742C38.0182 174.35 38.5131 174.847 39.118 174.847C39.7229 174.847 40.2179 174.35 40.2179 173.742C40.2179 173.135 39.7229 172.637 39.118 172.637C38.5131 172.637 38.0182 173.135 38.0182 173.742Z" fill="#9C78E8"/>
<path d="M28.8709 194.551C29.0175 194.551 29.1275 194.44 29.1275 194.293V189.966C29.1275 189.818 29.0175 189.708 28.8709 189.708C28.7242 189.708 28.6143 189.818 28.6143 189.966V194.293C28.6143 194.44 28.7426 194.551 28.8709 194.551Z" fill="#502A59"/>
<path d="M26.7264 192.396H31.0342C31.1808 192.396 31.2908 192.286 31.2908 192.139C31.2908 191.991 31.1808 191.881 31.0342 191.881H26.7264C26.5797 191.881 26.4697 191.991 26.4697 192.139C26.4697 192.267 26.5797 192.396 26.7264 192.396Z" fill="#502A59"/>
<path d="M33.9307 24.4915C33.9307 23.2945 34.9022 22.3369 36.0754 22.3369C37.2669 22.3369 38.2201 23.3129 38.2201 24.4915C38.2201 25.6884 37.2486 26.646 36.0754 26.646C34.8839 26.646 33.9307 25.6884 33.9307 24.4915ZM34.4439 24.4915C34.4439 25.3938 35.1772 26.1304 36.0754 26.1304C36.9736 26.1304 37.7069 25.3938 37.7069 24.4915C37.7069 23.5891 36.9736 22.8526 36.0754 22.8526C35.1772 22.8526 34.4439 23.5891 34.4439 24.4915Z" fill="#56BA85"/>
<path d="M53.6916 33.5309C55.4553 33.1126 56.5474 31.3372 56.1309 29.5656C55.7145 27.7939 53.9472 26.6968 52.1836 27.1151C50.4199 27.5335 49.3278 29.3088 49.7443 31.0805C50.1607 32.8522 51.928 33.9493 53.6916 33.5309Z" fill="#9C78E8"/>
<path d="M55.1951 14.566C55.3418 14.566 55.4517 14.4555 55.4517 14.3082V9.96233C55.4517 9.81502 55.3418 9.70453 55.1951 9.70453C55.0485 9.70453 54.9385 9.81502 54.9385 9.96233V14.2898C54.9385 14.4371 55.0485 14.566 55.1951 14.566Z" fill="#56BA85"/>
<path d="M53.032 12.3931H57.3398C57.4865 12.3931 57.5965 12.2826 57.5965 12.1352C57.5965 11.9879 57.4865 11.8774 57.3398 11.8774H53.032C52.8854 11.8774 52.7754 11.9879 52.7754 12.1352C52.7754 12.2826 52.9037 12.3931 53.032 12.3931Z" fill="#56BA85"/>
<path d="M79.4285 6.35304C79.5752 6.35304 79.6852 6.24255 79.6852 6.09523V3.01998C79.6852 2.87266 79.5752 2.76218 79.4285 2.76218C79.2819 2.76218 79.1719 2.87266 79.1719 3.01998V6.09523C79.1719 6.24255 79.2819 6.35304 79.4285 6.35304Z" fill="#9C78E8"/>
<path d="M77.907 4.8062H80.9683C81.115 4.8062 81.225 4.69571 81.225 4.54839C81.225 4.40108 81.115 4.29059 80.9683 4.29059H77.907C77.7604 4.29059 77.6504 4.40108 77.6504 4.54839C77.6504 4.69571 77.7604 4.8062 77.907 4.8062Z" fill="#9C78E8"/>
<path d="M137.319 89.2927C137.245 89.2927 137.19 89.2375 137.19 89.1638C137.19 89.0902 137.264 89.0349 137.319 89.0349C143.405 89.2559 148.134 88.3352 151.47 83.087C152.039 82.2031 152.46 81.3376 152.79 80.4721C151.452 79.1831 150.664 77.1759 150.444 75.2608C150.242 73.3641 150.627 71.9829 151.434 71.7988C151.965 71.6883 152.497 71.9645 152.937 72.5722C153.872 73.9349 154.33 76.9733 153.084 80.38C153.89 81.0982 154.898 81.5586 156.108 81.5586C161.589 81.5586 164.046 76.1447 164.064 76.0894C164.101 76.0158 164.174 75.9973 164.229 76.0158C164.302 76.0526 164.32 76.1263 164.302 76.1815C164.284 76.2367 161.772 81.8164 156.108 81.8164C154.862 81.8164 153.835 81.356 152.992 80.6378C152.662 81.4849 152.24 82.332 151.69 83.1975C148.574 88.0774 144.303 89.2927 138.877 89.2927C138.382 89.3296 137.85 89.3296 137.319 89.2927ZM151.507 72.075C150.865 72.2223 150.535 73.5482 150.719 75.2608C150.92 77.0838 151.654 78.9805 152.9 80.2327C154.073 76.9549 153.633 74.0638 152.735 72.7564C152.424 72.296 152.057 72.0566 151.69 72.0566C151.635 72.0566 151.562 72.0566 151.507 72.075Z" fill="#502A59"/>
<path d="M58.4945 213.205H132.021C132.094 213.205 132.149 213.15 132.149 213.076C132.149 213.002 132.094 212.947 132.021 212.947H58.4945C58.4212 212.947 58.3662 213.002 58.3662 213.076C58.3662 213.15 58.4212 213.205 58.4945 213.205Z" fill="#502A59"/>
<path d="M141.829 213.205H154.66C154.734 213.205 154.789 213.15 154.789 213.076C154.789 213.002 154.734 212.947 154.66 212.947H141.829C141.755 212.947 141.7 213.002 141.7 213.076C141.7 213.15 141.755 213.205 141.829 213.205Z" fill="#502A59"/>
<path d="M119.316 29.3161L116.438 34.8774L123.918 39.0575L127.217 35.7244C127.217 35.7244 126.869 33.9382 125.292 31.5075C123.716 29.0583 121.498 27.5483 120.288 26.4066C119.06 25.2649 117.007 23.4971 116.548 23.9759C116.035 24.5099 119.316 29.3161 119.316 29.3161Z" fill="#E8747A"/>
<path d="M116.438 34.8774C116.438 34.8774 112.717 32.3177 112.002 31.7837C111.067 31.0655 107.914 28.4691 108.208 27.6956C108.593 26.7381 112.021 28.3402 113.23 28.8742C114.44 29.4082 118.455 31.6732 118.455 31.6732L116.438 34.8774Z" fill="#E8747A"/>
<path d="M118.143 33.9014C118.143 33.9014 114.477 31.1024 113.817 30.5315C113.157 29.9607 109.748 27.4931 110.059 26.7013C110.444 25.7437 113.835 27.0327 115.009 27.7693C116.127 28.4875 120.178 30.6973 120.178 30.6973L118.143 33.9014Z" fill="#E8747A"/>
<path d="M120.178 32.6676C120.178 32.6676 116.512 29.8686 115.852 29.2978C115.192 28.7269 111.618 26.4067 111.929 25.6332C112.314 24.6757 115.779 26.1489 116.989 26.6829C118.199 27.2169 122.213 29.4819 122.213 29.4819L120.178 32.6676Z" fill="#E8747A"/>
<path d="M120.875 40.3281C120.875 40.3281 117.649 40.2913 116.164 39.2601C114.697 38.2288 111.141 35.3377 111.453 34.3433C111.764 33.3305 114.789 34.0487 116.439 34.8774C116.439 34.8774 118.474 33.7541 120.838 35.1352C123.203 36.5347 123.918 39.0575 123.918 39.0575L120.875 40.3281Z" fill="#E8747A"/>
<path d="M121.15 35.8349C121.187 35.8349 121.205 35.8165 121.242 35.7981C121.297 35.7429 121.297 35.6692 121.242 35.614C119.94 34.1776 118.345 33.883 116.402 34.7485C116.329 34.7853 116.311 34.859 116.329 34.9142C116.366 34.9879 116.439 35.0063 116.494 34.9879C118.327 34.1776 119.83 34.4354 121.04 35.7981C121.077 35.8165 121.113 35.8349 121.15 35.8349Z" fill="#502A59"/>
<path d="M116.31 31.71C116.346 31.71 116.383 31.6916 116.42 31.6548C116.456 31.5996 116.456 31.5075 116.383 31.4707C114.495 30.1264 112.314 28.8005 110.224 27.5483C110.169 27.5115 110.077 27.5299 110.041 27.5852C110.004 27.6404 110.022 27.7325 110.077 27.7693C112.149 29.0031 114.348 30.3289 116.218 31.6732C116.273 31.6916 116.291 31.71 116.31 31.71Z" fill="#502A59"/>
<path d="M118.528 30.6051C118.565 30.6051 118.601 30.5867 118.638 30.5499C118.675 30.4946 118.675 30.4026 118.62 30.3657C117.172 29.2793 114.642 27.622 112.552 26.5171C112.497 26.4802 112.406 26.4987 112.369 26.5723C112.332 26.6276 112.351 26.7196 112.424 26.7565C114.495 27.8613 117.007 29.5187 118.455 30.5867C118.473 30.5867 118.491 30.6051 118.528 30.6051Z" fill="#502A59"/>
<path d="M120.417 29.1688C120.453 29.1688 120.49 29.1504 120.508 29.132C120.563 29.0767 120.545 29.0031 120.49 28.9478C119.078 27.714 117.465 26.6828 115.687 25.9094C115.614 25.8726 115.541 25.9094 115.522 25.9831C115.486 26.0567 115.522 26.1304 115.596 26.1488C117.355 26.9222 118.95 27.935 120.343 29.1504C120.362 29.1688 120.398 29.1688 120.417 29.1688Z" fill="#502A59"/>
<path d="M119.06 34.5643C119.133 34.5643 119.188 34.5091 119.188 34.4354C119.28 32.5571 120.068 30.863 121.535 29.3714C121.59 29.3161 121.59 29.2425 121.535 29.1872C121.48 29.132 121.406 29.132 121.351 29.1872C119.848 30.734 119.023 32.4834 118.932 34.417C118.932 34.5091 118.987 34.5643 119.06 34.5643Z" fill="#502A59"/>
<path d="M129.141 56.4962L134.457 57.0486L120.874 40.3281L127.235 35.7244C127.235 35.7244 143.788 49.8485 148.041 58.2824C149.746 61.6523 150.332 69.7731 140.342 71.3936C137.115 71.9092 127.565 69.8468 127.565 69.8468L129.141 56.4962Z" fill="#E8747A"/>
<path d="M129.562 70.2519C129.581 70.2519 129.599 70.2519 129.617 70.2703C131.579 70.657 134.585 71.1726 137.078 71.3936C132.111 64.2303 135.282 58.0982 135.282 58.0982L134.457 57.0486L133.632 56.9565C133.284 57.0118 130.626 57.6194 130.186 63.7884C130.002 66.4769 129.837 68.5762 129.562 70.2519Z" fill="#CC5768"/>
<path d="M147.051 65.3537C147.088 65.3537 147.143 65.3353 147.161 65.2985C148.078 63.8253 147.821 61.6524 147.821 61.5603C147.821 61.4866 147.748 61.4314 147.674 61.4498C147.601 61.4498 147.546 61.5235 147.564 61.5971C147.564 61.6155 147.821 63.7516 146.941 65.1696C146.904 65.2248 146.923 65.3169 146.978 65.3537C147.014 65.3537 147.033 65.3537 147.051 65.3537Z" fill="#502A59"/>
<path d="M136.108 59.1479C136.144 59.1479 136.163 59.1295 136.181 59.1111C136.236 59.0743 136.254 58.9822 136.199 58.9269L132.478 54.2865C132.441 54.2312 132.35 54.2312 132.295 54.268C132.24 54.3049 132.221 54.3969 132.276 54.4522L136.016 59.1111C136.034 59.1479 136.071 59.1479 136.108 59.1479Z" fill="#502A59"/>
<path d="M69.9883 76.6602C69.9883 76.6602 59.6312 86.2543 57.3398 86.954C55.0668 87.6538 50.6123 84.2471 50.6123 84.2471L55.2501 73.9164L60.7677 68.2816C65.8638 68.6683 68.6868 71.7619 69.9883 76.6602Z" fill="#E8747A"/>
<path d="M56.2217 74.5793L37.7989 64.0093L32.2812 69.3127C32.2812 69.3127 37.5423 74.6162 42.8216 78.8331C46.2679 81.5953 51.5473 84.8915 51.5473 84.8915L56.2217 74.5793Z" fill="#E8747A"/>
<path d="M57.7613 75.6105C57.7979 75.6105 57.8529 75.5921 57.8713 75.5553C57.9079 75.5 57.8896 75.408 57.8346 75.3711L52.9036 72.4248C52.8486 72.388 52.7569 72.4064 52.7202 72.4616C52.6836 72.5169 52.7019 72.6089 52.7569 72.6458L57.688 75.5921C57.7063 75.5921 57.7246 75.6105 57.7613 75.6105Z" fill="#502A59"/>
<path d="M36.4971 73.3639C38.3302 75.058 40.5666 77.0468 42.8213 78.833C46.2492 81.5768 51.4919 84.8731 51.5469 84.8915C52.9767 85.849 55.7264 87.4695 57.3579 86.9539C59.2093 86.3831 66.4318 79.9195 69.0531 77.5256C68.6132 76.9179 68.1182 76.1813 67.5316 75.2606C66.4868 76.6785 62.9489 80.564 55.9647 80.1957C49.4572 79.8827 40.4383 75.4447 36.4971 73.3639Z" fill="#CC5768"/>
<path d="M29.0908 60.529C28.5959 60.1239 26.7628 61.284 26.8361 61.6523C26.0112 61.7259 25.3513 62.1495 24.8747 62.9966C24.3247 62.8308 23.1516 64.0462 23.3165 64.9117C23.6098 66.4953 25.223 68.5394 27.936 69.8284C29.1641 70.4177 34.1685 71.2832 35.2317 72.1118L37.7614 68.3921C36.7349 64.083 33.5453 63.1807 29.0908 60.529Z" fill="#E8747A"/>
<path d="M25.4434 66.9188C25.4434 66.9188 27.0015 68.5762 27.6614 68.1158C28.3213 67.6554 27.8081 67.0477 27.8081 67.0477C27.8081 67.0477 28.3947 67.6923 28.9996 67.0846C29.6045 66.4585 28.9813 65.5193 28.9813 65.5193C28.9813 65.5193 30.3011 67.5265 31.236 67.2503C32.1709 66.9741 31.4926 65.4641 31.3643 65.2799C31.236 65.0958 30.8694 64.3776 30.8694 64.3776C30.8694 64.3776 31.6209 65.7035 32.1159 65.7955C32.6108 65.8876 32.9591 65.6482 32.9958 65.2063C33.0508 64.7827 32.5192 61.5602 32.5192 61.5602L25.4434 66.9188Z" fill="#E8747A"/>
<path d="M32.5555 61.6891C32.4271 60.9709 32.2622 59.866 30.869 59.7187C29.7875 59.6082 29.0359 60.2527 28.9259 60.8788C28.8159 61.5049 33.1054 66.9004 33.1054 66.9004C33.1054 66.9004 32.6838 62.4073 32.5555 61.6891Z" fill="#E8747A"/>
<path d="M32.5191 66.1086C32.5924 66.1086 32.6657 66.0902 32.7391 66.0718C33.1423 65.9245 33.234 65.372 33.234 65.3536C33.2523 65.28 33.1973 65.2247 33.124 65.2063C33.0507 65.1879 32.9957 65.2431 32.9774 65.3168C32.959 65.4273 32.849 65.7587 32.6291 65.8508C32.4274 65.9245 32.1525 65.7772 31.9692 65.6298C31.4009 65.1879 30.0077 62.5362 29.9894 62.5178C29.9527 62.4625 29.8794 62.4257 29.8061 62.4625C29.7511 62.4993 29.7144 62.573 29.7511 62.6467C29.8061 62.7572 31.1992 65.3536 31.8042 65.8508C32.0608 65.9981 32.2991 66.1086 32.5191 66.1086Z" fill="#502A59"/>
<path d="M30.9975 67.3056C31.1991 67.3056 31.3824 67.2503 31.5474 67.1214C32.189 66.6058 31.4558 65.0406 31.3824 64.8748C31.3458 64.8196 31.2725 64.7828 31.2175 64.8196C31.1625 64.8564 31.1258 64.9301 31.1625 64.9853C31.3641 65.4089 31.8224 66.5874 31.4008 66.9189C31.2725 67.0293 31.1075 67.0662 30.9242 67.0478C30.4842 66.9925 29.9893 66.6058 29.7143 66.2559C28.9077 65.2063 27.6246 63.0334 27.6062 63.015C27.5696 62.9597 27.4962 62.9413 27.4229 62.9781C27.3679 63.015 27.3496 63.0886 27.3863 63.1623C27.4046 63.1807 28.6878 65.372 29.5127 66.4217C29.806 66.8084 30.3742 67.2503 30.9058 67.3056C30.9058 67.3056 30.9608 67.3056 30.9975 67.3056Z" fill="#502A59"/>
<path d="M28.6331 67.6002C28.963 67.6002 29.2013 67.4529 29.2196 67.4345C29.6596 67.0478 29.5863 66.2375 29.2746 65.6851C29.238 65.6298 29.1647 65.593 29.0913 65.6298C29.0363 65.6667 28.9997 65.7403 29.0363 65.814C29.293 66.2743 29.3663 66.9373 29.0547 67.2319C29.0547 67.2319 28.6147 67.5081 28.0831 67.1582C27.6615 66.8636 26.4333 65.1879 25.9201 64.2671C25.8834 64.2119 25.8101 64.1751 25.7367 64.2119C25.6817 64.2487 25.6451 64.3224 25.6818 64.3961C26.1767 65.2615 27.4415 67.0293 27.9365 67.3608C28.1931 67.5449 28.4314 67.6002 28.6331 67.6002Z" fill="#502A59"/>
<path d="M27.4782 68.4104C27.6065 68.4104 27.7348 68.3736 27.8448 68.3183C28.3398 68.0053 28.2481 67.4713 28.1381 67.2319C28.1015 67.1766 28.0281 67.1398 27.9731 67.1766C27.9182 67.2134 27.8815 67.2871 27.9182 67.3423C27.9365 67.3608 28.1565 67.8395 27.7348 68.0973C27.4232 68.2815 26.8366 68.0237 26.14 67.416C25.6084 66.9372 24.8385 66.0533 24.8385 66.0533C24.7835 65.9981 24.7102 65.9981 24.6552 66.0349C24.6002 66.0902 24.6002 66.1638 24.6369 66.2191C24.6735 66.2559 25.4068 67.1214 25.9567 67.6186C26.3233 67.9316 26.9466 68.4104 27.4782 68.4104Z" fill="#502A59"/>
<path d="M38.6602 64.5249C38.6602 64.5249 36.3505 61.4681 35.3606 60.8604C34.2974 60.1975 30.0262 57.9509 29.073 58.6691C28.1198 59.3872 32.2993 63.1622 32.2993 63.1622C32.2993 63.1622 33.2892 66.9556 35.5989 67.8948C37.9086 68.8339 38.6602 64.5249 38.6602 64.5249Z" fill="#E8747A"/>
<path d="M34.4444 67.1582C34.4811 67.1582 34.5178 67.1398 34.5361 67.103C34.5727 67.0477 34.5727 66.9741 34.5178 66.9188C34.4994 66.9004 33.1979 65.814 32.373 63.0886C32.373 63.0702 32.3547 63.0518 32.3547 63.0334L29.275 59.5162C29.2201 59.4609 29.1467 59.4609 29.0917 59.4977C29.0367 59.553 29.0367 59.6266 29.0734 59.6819L32.1347 63.1807C32.9779 65.9613 34.2978 67.0662 34.3528 67.103C34.3894 67.1582 34.4261 67.1582 34.4444 67.1582Z" fill="#502A59"/>
<path d="M98.9518 198.585C98.9702 200.021 99.0068 201.255 99.0252 202.268C99.0802 204.44 99.0985 205.637 99.0985 205.637L103.608 206.816L110.739 204.956C110.739 204.956 110.904 204.072 111.16 202.544C112.535 194.589 116.88 169.453 117.265 164.702C117.723 159.03 117.705 135.017 117.705 135.017L96.6055 138.958C96.7888 147.392 99.3185 160.963 99.5201 163.818C99.7401 167.372 98.8052 189.359 98.9518 198.585Z" fill="#E8747A"/>
<path d="M99.2623 178.825C105.147 174.424 101.682 151.184 104.138 146.341C106.815 141.075 113.451 141.259 117.667 141.94C117.685 137.907 117.685 134.998 117.685 134.998L96.5859 138.939C96.7692 147.373 99.2989 160.944 99.5006 163.798C99.6106 165.566 99.4456 171.827 99.2623 178.825Z" fill="#CC5768"/>
<path d="M113.781 167.592C113.818 167.592 113.854 167.573 113.891 167.537C113.928 167.481 113.928 167.408 113.873 167.352C113.854 167.334 111.985 165.806 112.351 162.988C112.809 159.6 116.109 159.563 116.146 159.563C116.219 159.563 116.274 159.508 116.274 159.434C116.274 159.361 116.219 159.305 116.146 159.305C116.109 159.305 112.571 159.342 112.095 162.951C111.71 165.916 113.689 167.537 113.708 167.555C113.708 167.592 113.744 167.592 113.781 167.592Z" fill="#502A59"/>
<path d="M99.0234 202.267C99.0784 204.44 99.0968 205.637 99.0968 205.637L103.606 206.815L110.737 204.955C110.737 204.955 110.902 204.071 111.159 202.543C109.381 202.69 104.358 203.003 99.0234 202.267Z" fill="white"/>
<path d="M123.624 217.035C123.221 218.011 122.817 219.356 121.956 219.558C120.911 219.816 117.538 219.503 109.051 216.98C100.655 214.494 98.1071 213.408 97.9421 213.168C97.7771 212.929 97.7588 209.669 97.7588 209.669L111.525 213.592L123.624 217.035Z" fill="#502A59"/>
<path d="M111.819 204.882C111.819 204.882 115.815 208.454 117.959 210.553C119.133 211.713 122.231 213.095 123.33 214.752C124.284 216.188 123.385 217.956 122.854 218.214C121.699 218.766 112.167 216.004 108.189 214.752C104.211 213.481 98.4001 211.677 97.9052 210.682C97.4103 209.688 97.7769 204.292 99.0234 204.2C100.6 204.09 103.57 207.515 103.899 205.968C104.009 205.471 104.431 203.445 108.317 203.39C112.222 203.316 111.819 204.882 111.819 204.882Z" fill="#56BA85"/>
<path d="M108.61 210.056C108.629 210.056 108.647 210.056 108.647 210.056L114.971 207.865C115.045 207.846 115.081 207.773 115.045 207.699C115.026 207.625 114.953 207.589 114.88 207.625L108.555 209.817C108.482 209.835 108.445 209.909 108.482 209.982C108.5 210.019 108.555 210.056 108.61 210.056Z" fill="white"/>
<path d="M110.37 211.308C110.389 211.308 110.407 211.308 110.407 211.308L116.493 209.154C116.566 209.135 116.603 209.062 116.566 208.988C116.548 208.914 116.474 208.878 116.401 208.914L110.315 211.069C110.242 211.087 110.205 211.161 110.242 211.235C110.26 211.29 110.315 211.308 110.37 211.308Z" fill="white"/>
<path d="M114.184 216.63C114.239 216.63 114.294 216.593 114.312 216.538C116.035 211.99 121.095 212.892 121.15 212.892C121.223 212.91 121.278 212.855 121.296 212.781C121.315 212.708 121.26 212.634 121.186 212.634C121.131 212.616 115.852 211.695 114.055 216.446C114.037 216.52 114.055 216.593 114.129 216.612C114.165 216.63 114.165 216.63 114.184 216.63Z" fill="white"/>
<path d="M56.7529 205.048L64.287 206.834L68.7781 205.564C71.5645 192.268 78.7319 178.494 83.4613 166.617C87.1642 157.115 92.187 137.687 92.187 137.687L71.2895 133.028L56.7529 205.048Z" fill="#E8747A"/>
<path d="M61.4463 181.753C65.5341 184.055 72.445 175.878 73.9664 168.77C75.4879 161.662 73.1599 158.053 69.1454 157.169C68.2105 156.967 67.2756 157.077 66.3407 157.464L61.4463 181.753Z" fill="#CC5768"/>
<path d="M68.7783 145.365C78.1088 147.262 86.9078 145.881 90.134 145.236C90.904 142.419 91.5272 140.117 91.8755 138.828L83.5715 135.753L71.2897 133.009L68.7783 145.365Z" fill="#CC5768"/>
<path d="M67.0551 164.83C67.0551 164.83 67.0734 164.83 67.0551 164.83C70.8863 164.646 71.9128 160.539 71.9128 160.502C71.9311 160.429 71.8945 160.355 71.8212 160.355C71.7478 160.337 71.6745 160.373 71.6745 160.447C71.6562 160.484 70.6846 164.406 67.0551 164.572C66.9817 164.572 66.9268 164.627 66.9268 164.701C66.9268 164.774 67.0001 164.83 67.0551 164.83Z" fill="#502A59"/>
<path d="M56.7529 205.047L64.287 206.834L68.7781 205.563C69.0164 204.458 69.2731 203.372 69.548 202.267C67.4033 202.524 62.5639 202.966 57.4495 201.622L56.7529 205.047Z" fill="white"/>
<path d="M44.4707 217.44C44.8923 218.416 45.3323 219.742 46.1938 219.926C47.2387 220.166 50.6116 219.779 59.0439 217.091C67.3846 214.439 69.9143 213.297 70.0609 213.058C70.2076 212.818 70.1892 209.559 70.1892 209.559L56.4959 213.757L44.4707 217.44Z" fill="#502A59"/>
<path d="M56.0377 205.066C56.0377 205.066 52.0966 208.712 50.0068 210.866C48.8703 212.045 45.7907 213.5 44.7091 215.175C43.7742 216.63 44.7091 218.38 45.2591 218.619C46.4139 219.153 55.8911 216.207 59.8506 214.862C63.7918 213.518 69.5844 211.603 70.061 210.59C70.5376 209.577 70.061 204.2 68.8145 204.127C67.238 204.034 64.3417 207.515 63.9751 205.986C63.8651 205.489 63.3885 203.482 59.5023 203.482C55.5978 203.5 56.0377 205.066 56.0377 205.066Z" fill="#56BA85"/>
<path d="M59.356 210.167C59.411 210.167 59.4659 210.13 59.4843 210.075C59.5026 210.001 59.4659 209.927 59.3926 209.909L53.0134 207.846C52.9401 207.828 52.8668 207.865 52.8484 207.938C52.8301 208.012 52.8668 208.086 52.9401 208.104L59.3193 210.167C59.3193 210.167 59.3376 210.167 59.356 210.167Z" fill="white"/>
<path d="M57.6143 211.474C57.6693 211.474 57.7243 211.437 57.7426 211.382C57.761 211.308 57.7243 211.235 57.6693 211.216L51.5467 209.191C51.4734 209.172 51.4001 209.209 51.3817 209.264C51.3634 209.338 51.4001 209.412 51.4551 209.43L57.5777 211.456C57.596 211.456 57.596 211.474 57.6143 211.474Z" fill="white"/>
<path d="M46.0841 218.766C47.294 218.766 49.0171 218.306 50.7952 217.845C51.1252 217.753 51.4551 217.68 51.7851 217.588C54.8097 216.814 59.8325 214.991 59.8875 214.973C59.9608 214.954 59.9974 214.881 59.9608 214.807C59.9425 214.733 59.8691 214.697 59.7958 214.733C59.7408 214.752 54.7364 216.556 51.7301 217.33C51.4002 217.422 51.0702 217.496 50.7402 217.588C48.1739 218.269 45.5159 218.969 44.8559 218.122C44.8193 218.066 44.7276 218.048 44.6726 218.103C44.6176 218.14 44.5993 218.232 44.6543 218.287C44.9293 218.637 45.4242 218.766 46.0841 218.766Z" fill="white"/>
<path d="M54.3704 216.759C54.3887 216.759 54.4254 216.759 54.4437 216.741C54.4987 216.704 54.517 216.612 54.462 216.556C54.4254 216.52 51.2908 212.45 47.0746 212.745C47.0013 212.745 46.9463 212.818 46.9463 212.892C46.9463 212.966 47.0196 213.021 47.0746 213.021C51.1624 212.745 54.2054 216.685 54.2421 216.741C54.2971 216.741 54.3337 216.759 54.3704 216.759Z" fill="white"/>
<path d="M74.5153 100.397C74.0754 101.851 74.9003 104.337 76.6051 105.148C78.3098 105.958 79.6114 97.3399 79.6114 97.3399C79.6114 97.3399 75.2852 97.8739 74.5153 100.397Z" fill="#502A59"/>
<path d="M118.473 101.078C118.473 101.078 120.196 113.14 120.398 122.881C120.6 132.622 119.39 139.104 119.39 139.104C119.39 139.104 112.827 137.981 105.861 139.62C98.8956 141.24 90.8116 142.971 81.6277 140.946C72.4438 138.92 68.7959 135.477 68.7959 135.477C71.3989 123.36 74.9368 110.967 79.1896 98.3527L118.473 101.078Z" fill="#EBB821"/>
<path d="M99.2814 118.535C99.6297 118.535 99.9597 118.48 100.161 118.351C100.931 117.854 101.023 104.245 101.041 101.52C101.041 101.446 100.986 101.391 100.913 101.391C100.84 101.391 100.785 101.446 100.785 101.52C100.766 107.689 100.528 117.67 100.015 118.13C99.4464 118.498 97.7599 118.093 97.155 117.909C97.0817 117.891 97.0084 117.927 96.99 118.001C96.9717 118.075 97.0084 118.148 97.0817 118.167C97.155 118.167 98.3282 118.535 99.2814 118.535Z" fill="#502A59"/>
<path d="M119.409 110.856C119.464 110.856 119.519 110.819 119.537 110.764C119.555 110.691 119.519 110.617 119.445 110.598C114.624 109.236 111.031 106.161 108.777 101.446C108.74 101.391 108.667 101.354 108.612 101.391C108.557 101.428 108.52 101.502 108.557 101.557C110.848 106.326 114.496 109.457 119.39 110.838C119.39 110.856 119.39 110.856 119.409 110.856Z" fill="#502A59"/>
<path d="M79.355 107.468C84.3961 107.468 87.9523 104.853 89.4738 99.9179C89.4921 99.8443 89.4555 99.7706 89.3822 99.7522C89.3088 99.7338 89.2355 99.7706 89.2172 99.8443C87.4391 105.608 83.0579 108.076 76.532 106.971C76.4587 106.952 76.4037 107.008 76.3854 107.081C76.3671 107.155 76.422 107.21 76.4954 107.229C77.4853 107.376 78.4385 107.468 79.355 107.468Z" fill="#502A59"/>
<path d="M72.957 118.554C82.7458 108.978 99.8304 103.951 107.878 102.017C104.706 102.054 101.022 101.962 96.9891 101.686C88.3368 101.097 82.7642 98.8868 79.0979 98.5553C76.8432 105.295 74.7901 111.961 72.957 118.554Z" fill="#CF940A"/>
<path d="M86.5586 141.701C92.3146 142.217 97.5939 141.425 102.378 140.393C101.352 135.514 98.3638 122.715 95.3758 122.531C92.3879 122.384 88.0984 136.361 86.5586 141.701Z" fill="#CF940A"/>
<path d="M118.877 64.0277C118.877 64.0277 118.235 85.3887 120.068 101.299C120.068 101.299 110.518 102.625 97.0079 101.704C83.4795 100.765 77.4853 95.9403 74.5156 100.415C74.5156 100.415 77.9985 85.3519 79.1167 76.4392C80.4549 65.8508 81.4631 50.8797 81.4631 50.8797C84.1395 50.2167 87.2374 49.7011 90.537 49.2408C98.0894 48.5778 105.624 48.8172 113.158 49.8669L118.877 64.0277Z" fill="#CBB3FF"/>
<path d="M113.066 49.8669C115.211 50.0326 118.126 50.9902 120.216 52.0766C122.067 53.0526 123.753 54.0286 127.071 55.2071C130.371 56.3857 133.689 56.9381 133.689 56.9381C133.689 56.9381 130.664 57.1775 130.206 63.7884C129.748 70.3992 129.399 73.4929 127.456 75.5369L118.841 72.2591C118.841 72.2591 113.8 63.9357 113.653 60.2896C113.47 56.6435 113.066 49.8669 113.066 49.8669Z" fill="#CBB3FF"/>
<path d="M84.2314 50.3272C84.2314 50.3272 77.4305 51.1743 73.2327 54.6363C68.5216 58.5034 60.3643 68.6498 60.3643 68.6498C60.3643 68.6498 64.2138 70.0678 66.5602 73.7875C68.9066 77.5073 69.9331 79.1462 71.4362 79.6434L84.4513 68.8892L84.2314 50.3272Z" fill="#CBB3FF"/>
<g opacity="0.2">
<g opacity="0.2">
<path opacity="0.2" d="M63.9941 70.878C64.8924 71.633 65.8089 72.5906 66.5788 73.7875C68.9252 77.4889 69.9517 79.1462 71.4549 79.6434L79.4839 73.0141L79.9605 67.6186C79.9605 67.6186 73.5996 72.388 63.9941 70.878Z" fill="#7B90C0"/>
</g>
</g>
<g opacity="0.2">
<g opacity="0.2">
<path opacity="0.2" d="M75.8359 94.4119C78.5306 92.239 82.2885 90.0108 86.248 88.8875C92.059 87.2486 99.1348 85.7939 99.3364 84.91C99.5381 84.026 92.8105 85.7386 86.9813 81.227C81.6836 77.1205 80.1804 70.9516 79.8871 69.4785C79.6488 71.8724 79.3922 74.2479 79.1172 76.4208C78.4573 81.7426 76.9541 89.2374 75.8359 94.4119Z" fill="#7B90C0"/>
</g>
</g>
<path d="M93.3054 60.1607C93.3604 60.1607 93.3971 60.1423 93.4154 60.087C95.2852 56.7356 98.7681 56.2384 98.8047 56.2384C98.8781 56.2384 98.9331 56.1647 98.9147 56.0911C98.9147 56.0174 98.8414 55.9621 98.7681 55.9806C98.7314 55.9806 95.3035 56.4593 93.3421 59.6819C93.0854 58.577 92.2422 54.7652 91.7289 50.5482C91.7289 50.4746 91.6556 50.4193 91.5823 50.4377C91.509 50.4377 91.454 50.5114 91.4723 50.5851C92.0956 55.5754 93.1588 60.0134 93.1588 60.0686C93.1954 60.1055 93.2504 60.1423 93.3054 60.1607Z" fill="#502A59"/>
<path d="M110.739 60.087C110.757 60.087 110.775 60.087 110.794 60.0686C110.849 60.0502 110.867 59.9949 110.867 59.9397L109.29 49.4065C109.29 49.3513 109.235 49.296 109.18 49.296L106.907 49.1303C106.834 49.1303 106.779 49.1855 106.761 49.2408C106.761 49.3144 106.816 49.3697 106.871 49.3881L109.052 49.5538L110.555 59.6266C109.602 58.7611 106.321 56.091 102.398 56.2199C102.325 56.2199 102.27 56.2752 102.27 56.3488C102.27 56.4225 102.343 56.4777 102.398 56.4777C106.926 56.312 110.592 60.0133 110.629 60.0686C110.665 60.087 110.702 60.087 110.739 60.087Z" fill="#502A59"/>
<path d="M97.7783 67.2135C97.7783 67.5818 98.0716 67.8948 98.4566 67.8948C98.8415 67.8948 99.1348 67.6002 99.1348 67.2135C99.1348 66.8452 98.8415 66.5321 98.4566 66.5321C98.0716 66.5321 97.7783 66.8452 97.7783 67.2135Z" fill="#502A59"/>
<path d="M97.6133 73.364C97.6133 73.7323 97.9066 74.0454 98.2915 74.0454C98.6765 74.0454 98.9698 73.7508 98.9698 73.364C98.9698 72.9958 98.6765 72.6827 98.2915 72.6827C97.9066 72.6827 97.6133 72.9958 97.6133 73.364Z" fill="#502A59"/>
<path d="M100.234 75.2791C100.307 75.2791 100.362 75.2239 100.362 75.1502C100.362 75.0766 100.472 67.6002 100.399 65.5194C100.326 63.4201 99.5926 60.2159 99.5926 60.1975C99.5743 60.1239 99.5009 60.087 99.4459 60.1055C99.3726 60.1239 99.3359 60.1975 99.3543 60.2528C99.3543 60.2896 100.088 63.4569 100.161 65.5378C100.234 67.6186 100.124 75.0766 100.124 75.1687C100.106 75.2239 100.161 75.2791 100.234 75.2791Z" fill="#502A59"/>
<path d="M119.171 90.1397C119.19 90.1397 119.19 90.1397 119.171 90.1397C119.245 90.1397 119.3 90.0661 119.3 90.0108C118.823 81.135 118.695 72.609 118.896 64.7091C118.896 64.6354 118.841 64.5802 118.768 64.5802C118.695 64.5802 118.64 64.6354 118.64 64.7091C118.438 72.6274 118.566 81.1534 119.043 90.0292C119.061 90.0845 119.116 90.1397 119.171 90.1397Z" fill="#502A59"/>
<path d="M77.5225 86.42C77.5775 86.42 77.6325 86.3831 77.6508 86.3095C78.8973 79.3303 79.7039 73.1062 80.0889 67.2687C80.0889 67.195 80.0339 67.1398 79.9605 67.1398C79.8872 67.1398 79.8322 67.195 79.8322 67.2687C79.4473 73.0877 78.6407 79.3119 77.3942 86.2727C77.3758 86.3463 77.4308 86.4016 77.5042 86.42H77.5225Z" fill="#502A59"/>
<path d="M110.518 45.1343C110.518 45.1343 118.272 38.9286 117.96 30.1448C117.63 21.361 111.105 17.052 108.41 15.9655C105.33 14.7501 102.397 14.9527 101.572 16.5732C101.572 16.5732 100.253 14.5292 96.7513 15.5972C92.4618 16.9047 89.1256 23.5708 89.2722 30.642C89.4006 37.6212 93.1218 42.6852 93.1218 42.6852C98.6211 39.2417 105.569 39.9046 110.518 45.1343Z" fill="#502A59"/>
<path d="M93.1033 42.6852C98.621 39.2417 105.568 39.9046 110.518 45.1344C110.518 45.1344 113.194 30.5499 109.821 26.646L95.5963 26.3146C95.6147 26.2962 91.8935 29.3898 93.1033 42.6852Z" fill="#3A2045"/>
<path d="M106.87 49.2592L95.541 48.9646L96.6775 34.951H106.87V49.2592Z" fill="#E8747A"/>
<path d="M106.869 36.2585V43.2192C102.671 45.7605 97.9052 44.3057 95.9805 43.5323L96.6771 34.951C96.6771 34.951 106.429 35.7981 106.869 36.2585Z" fill="#CC5768"/>
<path d="M106.87 49.2592L102.397 56.3489L100.27 65.5194L98.804 56.1095L95.541 48.9646L102.47 46.9758L106.87 49.2592Z" fill="#E8747A"/>
<path d="M110.354 29.4635C110.794 35.5403 107.439 41.5435 103.04 41.875C98.6218 42.188 94.8272 36.7189 94.3873 30.642C93.9473 24.5652 97.0453 20.1825 101.445 19.851C105.863 19.5196 109.914 23.3866 110.354 29.4635Z" fill="#E8747A"/>
<path d="M102.655 42.0222C102.783 42.0222 102.912 42.0222 103.04 42.0038C104.983 41.8565 106.834 40.7332 108.154 38.9286C108.191 38.8733 108.191 38.7813 108.118 38.7444C108.063 38.7076 107.971 38.7076 107.934 38.7813C106.669 40.5307 104.873 41.6171 103.022 41.746C101.408 41.8565 99.8136 41.1936 98.3837 39.7941C98.3287 39.7388 98.2554 39.7388 98.2004 39.7941C98.1454 39.8493 98.1454 39.923 98.2004 39.9782C99.5753 41.3225 101.097 42.0222 102.655 42.0222Z" fill="#3A2045"/>
<path d="M101.097 19.1144C101.097 19.1144 102.087 24.3258 111.857 27.4195C111.857 27.4195 111.6 22.0792 107.311 20.2377C103.04 18.3779 101.097 19.1144 101.097 19.1144Z" fill="#502A59"/>
<path d="M102.747 33.4778C103.242 33.4778 104.012 33.4226 104.36 33.1095C104.47 32.999 104.543 32.8701 104.543 32.7228C104.543 32.1704 103.498 31.5443 103.223 31.397L102.857 29.6844C102.838 29.6108 102.765 29.5739 102.71 29.5923C102.637 29.6108 102.6 29.6844 102.618 29.7397L103.003 31.5075C103.003 31.5443 103.04 31.5811 103.077 31.5995C103.553 31.8573 104.323 32.3914 104.323 32.7228C104.323 32.7965 104.286 32.8701 104.231 32.9254C103.883 33.2569 102.765 33.2384 102.38 33.22C102.307 33.22 102.252 33.2753 102.233 33.3305C102.233 33.4042 102.288 33.4594 102.343 33.4778C102.343 33.4594 102.508 33.4778 102.747 33.4778Z" fill="#502A59"/>
<path d="M97.5771 25.7069C97.5771 25.7069 98.3837 24.1048 99.8319 23.9759C101.262 23.847 102.252 24.5283 102.16 24.9887C102.068 25.4491 100.583 24.9151 99.8319 24.9703C98.9703 24.9887 97.5771 25.7069 97.5771 25.7069Z" fill="#502A59"/>
<path d="M109.657 27.8982C109.657 27.8982 108.832 26.2961 107.402 26.1672C105.972 26.0383 104.983 26.7197 105.074 27.18C105.166 27.6404 106.651 27.1064 107.402 27.1432C108.264 27.1984 109.657 27.8982 109.657 27.8982Z" fill="#502A59"/>
<path d="M101.555 35.8165C101.94 36.2953 102.471 36.5163 102.728 36.2953C103.003 36.0743 102.911 35.5219 102.526 35.0431C102.141 34.5643 101.61 34.3433 101.353 34.5643C101.078 34.7669 101.17 35.3377 101.555 35.8165Z" fill="white"/>
<path d="M107.604 29.1873C107.64 29.6845 107.42 30.0896 107.072 30.1264C106.742 30.1633 106.43 29.7766 106.394 29.2978C106.357 28.8006 106.577 28.3954 106.925 28.3586C107.255 28.3218 107.567 28.6901 107.604 29.1873Z" fill="#502A59"/>
<path d="M100.675 29.132C100.711 29.6292 100.491 30.0344 100.143 30.0712C99.8132 30.108 99.5016 29.7213 99.4649 29.2425C99.4283 28.7453 99.6482 28.3402 99.9965 28.3034C100.326 28.2666 100.638 28.6348 100.675 29.132Z" fill="#502A59"/>
<path d="M96.66 30.7709C97.0083 32.594 96.8983 34.3249 95.6885 34.5643C94.4786 34.8037 92.5722 33.349 92.2239 31.5443C91.8756 29.7213 92.4989 27.7877 93.7087 27.5483C94.9003 27.3089 96.3117 28.9479 96.66 30.7709Z" fill="#E8747A"/>
<path d="M94.8455 32.2441C94.9371 32.2441 94.9738 32.1704 94.9738 32.0967C94.8272 30.8445 94.2956 29.8317 93.3973 29.0583C93.3423 29.0215 93.269 29.0215 93.214 29.0767C93.1774 29.132 93.1774 29.2056 93.2324 29.2609C94.0939 29.9791 94.5889 30.9366 94.7172 32.1336C94.7172 32.2072 94.7722 32.2441 94.8455 32.2441Z" fill="#502A59"/>
<path d="M93.1955 30.955C93.2138 30.955 93.2138 30.955 93.2322 30.955C93.6538 30.8445 94.0021 30.8445 94.4237 30.9366C94.497 30.955 94.5703 30.8998 94.5703 30.8445C94.5887 30.7709 94.5337 30.6972 94.4787 30.6972C94.0204 30.6051 93.6354 30.6051 93.1588 30.7156C93.0855 30.734 93.0488 30.8077 93.0672 30.8814C93.0855 30.9182 93.1405 30.955 93.1955 30.955Z" fill="#502A59"/>
</svg>
