<svg width="236" height="299" viewBox="0 0 236 299" fill="none" xmlns="http://www.w3.org/2000/svg">
<g clip-path="url(#clip0)">
<path d="M152.929 150.162C175.983 127.091 175.983 89.6854 152.929 66.6143C129.875 43.5432 92.4979 43.5432 69.4442 66.6143C46.3904 89.6854 46.3904 127.091 69.4442 150.162C92.4979 173.233 129.875 173.233 152.929 150.162Z" fill="#D8DAFF"/>
<g opacity="0.5">
<g opacity="0.5">
<g opacity="0.5">
<path opacity="0.5" d="M170.227 108.392C170.227 141.027 143.803 167.47 111.194 167.47C85.9346 167.47 64.3794 151.593 55.9597 129.257C61.4201 130.938 67.2242 131.836 73.2383 131.836C105.848 131.836 132.272 105.393 132.272 72.7585C132.272 65.4216 130.935 58.3903 128.491 51.894C152.643 59.2883 170.227 81.796 170.227 108.392Z" fill="#CC3B1E"/>
</g>
</g>
</g>
<path d="M44.9773 157.559C45.3785 155.865 44.3313 154.166 42.6382 153.764C40.9452 153.363 39.2475 154.411 38.8463 156.105C38.4451 157.799 39.4923 159.498 41.1854 159.9C42.8784 160.301 44.5761 159.253 44.9773 157.559Z" fill="#D8DAFF"/>
<path d="M41.5065 129.945C41.3156 129.945 41.1628 129.792 41.1628 129.601V124.232C41.1628 124.041 41.3156 123.888 41.5065 123.888C41.6974 123.888 41.8502 124.041 41.8502 124.232V129.601C41.8502 129.792 41.6974 129.945 41.5065 129.945Z" fill="#9CB8E2"/>
<path d="M44.1986 127.25H38.8336C38.6427 127.25 38.49 127.097 38.49 126.906C38.49 126.715 38.6427 126.562 38.8336 126.562H44.1986C44.3895 126.562 44.5422 126.715 44.5422 126.906C44.5422 127.117 44.3895 127.25 44.1986 127.25Z" fill="#9CB8E2"/>
<path d="M140.405 43.4491C140.214 43.4491 140.061 43.2962 140.061 43.1052V36.0739C140.061 35.8828 140.214 35.73 140.405 35.73C140.596 35.73 140.748 35.8828 140.748 36.0739V43.1052C140.748 43.2962 140.596 43.4491 140.405 43.4491Z" fill="#9CB8E2"/>
<path d="M143.918 39.9335H136.892C136.701 39.9335 136.548 39.7806 136.548 39.5895C136.548 39.3985 136.701 39.2456 136.892 39.2456H143.918C144.109 39.2456 144.261 39.3985 144.261 39.5895C144.261 39.7806 144.109 39.9335 143.918 39.9335Z" fill="#9CB8E2"/>
<path d="M131.259 29.845C130.152 29.845 129.236 28.947 129.236 27.8197C129.236 26.7116 130.133 25.7944 131.259 25.7944C132.367 25.7944 133.283 26.6924 133.283 27.8197C133.264 28.947 132.367 29.845 131.259 29.845ZM131.259 26.4823C130.515 26.4823 129.904 27.0937 129.904 27.8388C129.904 28.584 130.515 29.1954 131.259 29.1954C132.004 29.1954 132.615 28.584 132.615 27.8388C132.596 27.0746 131.985 26.4823 131.259 26.4823Z" fill="#00101E"/>
<path d="M150.714 19.0114C149.206 19.0114 147.984 17.7885 147.984 16.2791C147.984 14.7697 149.206 13.5469 150.714 13.5469C152.223 13.5469 153.445 14.7697 153.445 16.2791C153.445 17.7885 152.204 19.0114 150.714 19.0114ZM150.714 14.2156C149.569 14.2156 148.652 15.1518 148.652 16.2791C148.652 17.4255 149.569 18.3426 150.714 18.3426C151.86 18.3426 152.776 17.4064 152.776 16.2791C152.776 15.1327 151.841 14.2156 150.714 14.2156Z" fill="#CC3B1E"/>
<path d="M209.652 88.3875C208.545 88.3875 207.629 87.4895 207.629 86.3622C207.629 85.254 208.526 84.3369 209.652 84.3369C210.76 84.3369 211.676 85.2349 211.676 86.3622C211.676 87.4895 210.779 88.3875 209.652 88.3875ZM209.652 85.0248C208.908 85.0248 208.297 85.6362 208.297 86.3813C208.297 87.1265 208.908 87.7379 209.652 87.7379C210.397 87.7379 211.008 87.1265 211.008 86.3813C211.008 85.6362 210.397 85.0248 209.652 85.0248Z" fill="#00101E"/>
<path d="M211.638 112.233C211.447 112.233 211.294 112.08 211.294 111.889V106.52C211.294 106.329 211.447 106.176 211.638 106.176C211.829 106.176 211.982 106.329 211.982 106.52V111.889C211.982 112.099 211.829 112.233 211.638 112.233Z" fill="#D8DAFF"/>
<path d="M214.33 109.557H208.965C208.774 109.557 208.622 109.405 208.622 109.214C208.622 109.022 208.774 108.87 208.965 108.87H214.33C214.521 108.87 214.674 109.022 214.674 109.214C214.655 109.405 214.521 109.557 214.33 109.557Z" fill="#D8DAFF"/>
<path d="M232.506 94.7499C231.78 94.7499 231.093 94.5206 230.501 94.1003C229.738 93.5653 229.241 92.7628 229.088 91.8457C228.764 89.9541 230.043 88.1581 231.933 87.8333C232.85 87.6804 233.766 87.8906 234.53 88.4256C235.293 88.9606 235.79 89.7631 235.943 90.6802C236.095 91.5973 235.885 92.5144 235.351 93.2787C234.816 94.043 234.014 94.5397 233.098 94.6926C232.888 94.7308 232.697 94.7499 232.506 94.7499ZM232.525 88.4638C232.372 88.4638 232.2 88.4829 232.048 88.502C230.52 88.7504 229.489 90.2216 229.757 91.731C229.89 92.4762 230.291 93.1258 230.902 93.5462C231.513 93.9856 232.258 94.1576 233.002 94.0238C233.747 93.8901 234.396 93.4889 234.816 92.8774C235.255 92.266 235.427 91.5209 235.293 90.7757C235.16 90.0306 234.759 89.3809 234.148 88.9606C233.652 88.6358 233.098 88.4638 232.525 88.4638Z" fill="#FF5E47"/>
<path d="M196.593 216.899C196.04 216.899 195.505 216.727 195.047 216.402C194.455 215.982 194.073 215.371 193.959 214.645C193.71 213.173 194.703 211.779 196.173 211.53C197.643 211.282 199.037 212.275 199.285 213.747C199.4 214.454 199.247 215.18 198.827 215.753C198.407 216.345 197.796 216.727 197.09 216.842C196.899 216.88 196.746 216.899 196.593 216.899ZM196.613 212.18C196.498 212.18 196.383 212.18 196.269 212.199C195.161 212.39 194.436 213.422 194.608 214.53C194.703 215.065 194.99 215.524 195.429 215.848C195.868 216.154 196.402 216.288 196.937 216.192C197.472 216.097 197.93 215.81 198.254 215.371C198.56 214.931 198.694 214.396 198.598 213.861C198.503 213.326 198.216 212.868 197.777 212.543C197.433 212.314 197.033 212.18 196.613 212.18Z" fill="#5127AC"/>
<path d="M171.811 234.248C174.669 234.248 176.985 231.93 176.985 229.07C176.985 226.21 174.669 223.892 171.811 223.892C168.954 223.892 166.637 226.21 166.637 229.07C166.637 231.93 168.954 234.248 171.811 234.248Z" fill="#9CB8E2"/>
<path d="M209.061 284.517H44.5615C44.466 284.517 44.3896 284.441 44.3896 284.345C44.3896 284.25 44.466 284.173 44.5615 284.173H209.061C209.156 284.173 209.233 284.25 209.233 284.345C209.233 284.441 209.156 284.517 209.061 284.517Z" fill="#00101E"/>
<path d="M182.159 185.85C182.159 185.85 182.14 188.239 183.63 188.659C185.119 189.06 191.286 188.697 191.286 188.697L193.424 184.933L190.102 182.01L182.159 185.85Z" fill="#F99173"/>
<path d="M182.159 166.132L189.701 163.61L196.975 165.922C196.784 169.304 195.677 176.393 194.627 183.233L182.159 185.85V166.132Z" fill="#F99173"/>
<path d="M187.181 178.093C185.768 186.538 190.426 188.602 190.426 188.602L190.293 188.755C188.479 188.85 184.756 188.965 183.649 188.678C182.159 188.277 182.178 185.87 182.178 185.87V166.132L185.023 165.177L193.042 164.661L193.252 164.642C193.252 164.642 193.233 164.661 193.195 164.699C192.66 165.33 188.498 170.202 187.181 178.093Z" fill="#F47B5A"/>
<path d="M183.992 96.2022C183.992 96.2022 190.617 96.1639 193.195 101.667C195.772 107.15 196.001 123.716 196.326 132.237C196.67 140.74 196.67 142.65 197.452 146.567C198.235 150.484 199.247 154.86 198.464 157.324C197.682 159.789 197.376 161.337 197.376 161.337L196.975 166.381C196.975 166.381 189.224 164.107 182.236 168.177L180.327 118.691L183.992 96.2022Z" fill="#5127AC"/>
<path d="M181.931 164.757C181.892 164.757 181.854 164.738 181.816 164.719C181.74 164.661 181.74 164.547 181.797 164.489C184.565 161.47 189.644 160.381 197.338 161.165C197.434 161.165 197.491 161.26 197.491 161.356C197.491 161.451 197.395 161.509 197.3 161.509C189.739 160.744 184.737 161.795 182.045 164.738C182.026 164.738 181.969 164.757 181.931 164.757Z" fill="#00101E"/>
<g opacity="0.5">
<path opacity="0.5" d="M198.617 153.235C195.429 153.14 196.46 149.777 194.57 145.421C192.546 140.778 188.651 139.67 189.396 133.861C189.949 129.562 193.997 128.378 196.192 128.97C196.231 130.136 196.269 131.244 196.307 132.237C196.651 140.759 196.651 142.65 197.433 146.567C197.892 148.784 198.407 151.153 198.617 153.235Z" fill="#632A44"/>
</g>
<path d="M194.627 138.848C194.016 138.848 193.348 138.676 192.775 138.332C191.515 137.587 191.057 136.269 191.515 134.74C192.469 131.53 195.963 132.294 196.001 132.313C196.097 132.333 196.154 132.428 196.135 132.524C196.116 132.619 196.021 132.676 195.925 132.657C195.791 132.619 192.698 131.95 191.839 134.855C191.438 136.23 191.839 137.396 192.947 138.065C194.035 138.714 195.524 138.657 196.25 137.95C196.307 137.893 196.422 137.893 196.479 137.95C196.536 138.007 196.536 138.122 196.479 138.179C196.04 138.619 195.352 138.848 194.627 138.848Z" fill="#00101E"/>
<path d="M213.127 188.946H41.373C41.2775 188.946 41.2012 188.87 41.2012 188.774C41.2012 188.678 41.2775 188.602 41.373 188.602H213.127C213.223 188.602 213.299 188.678 213.299 188.774C213.299 188.87 213.223 188.946 213.127 188.946Z" fill="#00101E"/>
<path d="M198.674 190.627L189.472 183.71L193.577 182.736C193.577 182.736 201.175 184.818 201.653 185.908C202.13 186.997 201.347 195.48 199.438 196.569C198.083 197.372 198.674 190.627 198.674 190.627Z" fill="#F99173"/>
<path d="M190.656 184.245C190.656 184.245 190.484 190.283 190.522 191.429C190.56 192.576 190.14 198.193 191.171 198.518C192.45 198.919 193.653 194.104 194.111 192.423C194.569 190.741 195.562 184.78 195.562 184.78C193.634 182.659 191.954 182.22 190.656 184.245Z" fill="#F99173"/>
<path d="M194.818 184.149C194.818 184.149 195.524 190.149 195.715 191.276C195.906 192.403 196.135 197.983 197.223 198.136C198.56 198.346 199.228 193.454 199.419 191.735C199.629 190.015 199.686 186.461 199.686 186.461L194.818 184.149Z" fill="#F99173"/>
<path d="M194.703 185.353C194.703 185.353 194.016 191.353 193.959 192.499C193.901 193.645 192.851 199.11 193.863 199.53C195.104 200.027 196.689 195.25 197.281 193.626C197.873 192.002 199.553 186.327 199.553 186.327L194.703 185.353Z" fill="#F99173"/>
<path d="M193.577 194.849C193.577 194.849 193.558 194.849 193.577 194.849C193.462 194.83 193.405 194.754 193.405 194.658L194.016 189.117C194.035 189.022 194.111 188.964 194.207 188.964C194.302 188.983 194.359 189.06 194.359 189.155L193.748 194.696C193.729 194.792 193.672 194.849 193.577 194.849Z" fill="#00101E"/>
<path d="M196.231 196.836H196.212C196.116 196.817 196.059 196.741 196.059 196.645L197.09 189.022C197.109 188.926 197.185 188.869 197.281 188.869C197.376 188.888 197.433 188.964 197.433 189.06L196.402 196.683C196.383 196.779 196.326 196.836 196.231 196.836Z" fill="#00101E"/>
<path d="M198.675 196.091C198.655 196.091 198.655 196.091 198.636 196.091C198.541 196.072 198.484 195.977 198.503 195.9C198.98 193.474 199.515 189.729 199.515 189.691C199.534 189.595 199.61 189.538 199.706 189.557C199.801 189.576 199.858 189.652 199.858 189.748C199.858 189.786 199.324 193.55 198.846 195.977C198.827 196.034 198.751 196.091 198.675 196.091Z" fill="#00101E"/>
<path d="M87.3662 260.118L91.6047 277.81L107.031 281.498H107.146C107.108 281.326 107.069 281.154 107.05 280.982C107.012 280.81 106.993 280.638 106.955 280.485C106.191 276.167 107.929 268.792 108.1 262.869C103.404 263.614 93.8385 264.398 87.3662 260.118Z" fill="#F99173"/>
<path d="M107.432 270.034C107.394 270.378 107.337 270.741 107.299 271.085C107.26 271.41 107.222 271.735 107.184 272.059C107.165 272.231 107.146 272.384 107.127 272.537C107.069 273.015 107.012 273.492 106.974 273.951C106.955 274.104 106.936 274.257 106.936 274.41C106.917 274.562 106.917 274.715 106.898 274.868C106.879 275.021 106.879 275.174 106.859 275.327C106.84 275.48 106.84 275.613 106.821 275.766C106.802 275.919 106.802 276.072 106.802 276.206C106.802 276.358 106.783 276.492 106.783 276.645C106.726 278.078 106.745 279.377 106.936 280.485C106.955 280.657 106.993 280.81 107.031 280.982C107.05 281.135 107.089 281.269 107.127 281.422L106.859 281.441L91.6047 277.791L90.001 271.104C96.3969 272.862 104.416 270.569 107.432 270.034Z" fill="#222654"/>
<path d="M90.8036 275.078C91.93 274.734 94.3166 275.804 96.0539 275.995C97.7913 276.167 102.125 276.167 103.08 275.384C104.035 274.6 104.875 273.091 105.867 272.46C106.536 272.04 107.166 271.811 107.662 272.69C108.178 273.569 110.85 279.95 110.564 281.899C110.278 283.867 103.118 297.07 101.591 298.025C99.5669 299.305 81.6011 299.057 79.8637 298.847C78.9854 298.732 78.9472 296.115 79.4627 295.637C79.9782 295.178 85.3241 291.261 85.3241 291.261C85.3241 291.261 89.1616 282.912 89.6771 280.886C90.1735 278.842 89.7344 275.403 90.8036 275.078Z" fill="#7ABBBF"/>
<path d="M110.563 281.517C110.563 281.593 110.563 281.651 110.563 281.708C110.563 281.784 110.563 281.842 110.544 281.88C110.258 283.848 103.098 297.051 101.571 298.006C99.5281 299.286 81.5813 299.038 79.8439 298.828C79.8057 298.828 79.7866 298.808 79.7484 298.808C79.042 298.56 78.9657 296.592 79.2902 295.847C82.6505 295.847 98.5925 295.79 99.9672 295.197C101.418 294.567 108.387 283.389 110.048 278.918C110.048 278.938 110.067 278.976 110.067 279.014C110.086 279.09 110.105 279.186 110.143 279.262C110.182 279.396 110.22 279.549 110.258 279.683C110.296 279.797 110.315 279.931 110.353 280.027C110.392 280.16 110.411 280.294 110.449 280.428C110.468 280.504 110.487 280.581 110.487 280.657C110.506 280.772 110.525 280.867 110.525 280.982C110.525 281.001 110.525 281.039 110.544 281.077C110.544 281.154 110.563 281.211 110.563 281.288C110.563 281.345 110.563 281.421 110.563 281.479C110.563 281.479 110.563 281.498 110.563 281.517Z" fill="#B2E99E"/>
<path d="M99.2226 281.039H89.6765C89.581 281.039 89.5046 280.963 89.5046 280.867C89.5046 280.772 89.581 280.695 89.6765 280.695H99.2226C99.3181 280.695 99.3944 280.772 99.3944 280.867C99.3754 280.963 99.299 281.039 99.2226 281.039Z" fill="white"/>
<path d="M97.3133 284.039H88.3781C88.2827 284.039 88.2063 283.962 88.2063 283.867C88.2063 283.771 88.2827 283.695 88.3781 283.695H97.3133C97.4088 283.695 97.4852 283.771 97.4852 283.867C97.4852 283.962 97.4088 284.039 97.3133 284.039Z" fill="white"/>
<path d="M96.0914 286.905H87.1562C87.0607 286.905 86.9844 286.829 86.9844 286.733C86.9844 286.637 87.0607 286.561 87.1562 286.561H96.0914C96.1869 286.561 96.2632 286.637 96.2632 286.733C96.2632 286.829 96.1869 286.905 96.0914 286.905Z" fill="white"/>
<path d="M89.6001 295.847C89.5046 295.847 89.4282 295.77 89.4282 295.694C89.4282 295.598 89.5046 295.522 89.581 295.522L99.9481 295.025C100.044 295.006 100.12 295.101 100.12 295.178C100.12 295.273 100.044 295.35 99.9672 295.35L89.6001 295.847C89.6191 295.847 89.6191 295.847 89.6001 295.847Z" fill="#00101E"/>
<path d="M132.882 155.566C132.882 155.566 101.934 175.552 92.3112 184.417C82.6886 193.302 81.9249 204.193 81.6767 212.313C81.4285 220.434 82.765 267.283 82.765 267.283C82.765 267.283 98.2107 270.264 116.826 264.36L110.621 216.727L161.139 158.375L132.882 155.566Z" fill="#FFED9F"/>
<path d="M86.7362 213.555C86.6789 213.555 86.6216 213.536 86.6026 213.479L84.0824 209.791C84.0251 209.714 84.0442 209.619 84.1206 209.562C84.1969 209.504 84.2924 209.523 84.3497 209.6L86.8698 213.287C86.9271 213.364 86.908 213.459 86.8317 213.517C86.7935 213.536 86.7553 213.555 86.7362 213.555Z" fill="#00101E"/>
<path d="M140.576 264.379L155.182 277.887L170.532 272.289L170.628 272.232C170.494 272.098 170.36 271.964 170.227 271.83C170.093 271.697 169.959 271.563 169.845 271.429C166.504 267.971 163.392 260.328 159.841 254.883C156.328 258.246 148.729 264.474 140.576 264.379Z" fill="#F99173"/>
<path d="M148.137 271.372L155.182 277.887L170.36 272.365L170.57 272.194C170.456 272.079 170.341 271.964 170.227 271.85C170.093 271.716 169.959 271.582 169.845 271.448C167.783 269.308 165.797 265.564 163.735 261.742C161.387 263.863 154.877 269.442 148.137 271.372Z" fill="#222654"/>
<path d="M146.018 294.147C146.934 295.083 148.042 296.421 149.149 296.249C150.466 296.057 154.228 294.07 162.819 287.154C171.334 280.314 173.683 278.556 173.816 277.505C173.893 276.893 172.27 273.416 172.27 273.416L158.351 284.441L146.018 294.147Z" fill="#B2E99E"/>
<path d="M153.044 276.626C153.044 276.626 150.963 280.562 149.493 284.02C148.691 285.893 145.77 288.969 145.273 291.396C144.853 293.497 146.724 295.102 147.45 295.14C149.034 295.236 158.733 287.536 162.723 284.192C166.714 280.849 172.575 276.015 172.671 274.62C172.766 273.244 168.298 267.302 166.79 267.78C164.919 268.391 166.007 271.162 161.387 273.263C160.146 273.817 160.051 271.028 155.545 272.786C151.039 274.582 153.044 276.626 153.044 276.626Z" fill="#7ABBBF"/>
<path d="M152.624 277.295C152.528 277.295 152.452 277.218 152.452 277.142C152.452 277.046 152.509 276.97 152.605 276.97L160.948 276.473C161.043 276.473 161.12 276.53 161.12 276.626C161.12 276.722 161.063 276.798 160.967 276.798L152.624 277.295Z" fill="white"/>
<path d="M151.65 279.492C151.554 279.492 151.478 279.416 151.478 279.339C151.478 279.244 151.535 279.167 151.631 279.167L159.974 278.67C160.07 278.67 160.146 278.728 160.146 278.823C160.146 278.919 160.089 278.995 159.993 278.995L151.65 279.492C151.669 279.492 151.65 279.492 151.65 279.492Z" fill="white"/>
<path d="M150.524 281.708C150.428 281.708 150.352 281.632 150.352 281.555C150.352 281.46 150.409 281.383 150.505 281.383L158.542 280.963C158.638 280.944 158.714 281.02 158.714 281.116C158.714 281.211 158.657 281.288 158.561 281.288L150.524 281.708Z" fill="white"/>
<path d="M143.23 159.464C143.23 159.464 123.393 174.176 114.42 183.73C104.091 194.716 102.774 207.479 106.019 217.759C109.284 228.019 131.565 267.264 131.565 267.264C145.292 266.748 154.552 261.513 161.406 253.736L134.276 213.708C134.276 213.708 151.364 204.957 163.258 198.671C175.153 192.366 180.976 188.697 182.293 183.882C185.367 172.724 182.14 158.069 182.14 158.069L143.23 159.464Z" fill="#FFE575"/>
<path d="M161.406 253.717C156.366 259.43 150.046 263.767 141.588 265.888C142.39 242.826 127.708 216.937 127.708 216.937L134.314 213.746L161.406 253.717Z" fill="#FFED9F"/>
<path d="M182.312 183.863C181.491 186.844 178.971 189.385 174.351 192.366C181.854 175.705 167.382 166.4 160.738 163.19C174.351 162.846 182.389 159.388 182.389 159.388C182.389 159.388 182.389 159.349 182.389 159.254C183.076 162.961 184.871 174.616 182.312 183.863Z" fill="#FFED9F"/>
<path d="M125.78 218.293C125.723 218.293 125.665 218.255 125.627 218.198C125.589 218.121 125.627 218.007 125.704 217.968L143.86 208.682C143.937 208.644 144.051 208.682 144.09 208.759C144.128 208.835 144.09 208.95 144.013 208.988L125.856 218.274C125.818 218.274 125.799 218.293 125.78 218.293Z" fill="#00101E"/>
<path d="M139.66 221.77C139.603 221.77 139.546 221.751 139.526 221.694L134.238 213.879C134.181 213.803 134.2 213.688 134.276 213.65C134.352 213.593 134.448 213.612 134.505 213.688L139.794 221.503C139.851 221.579 139.832 221.694 139.756 221.732C139.736 221.751 139.698 221.77 139.66 221.77Z" fill="#00101E"/>
<path d="M121.828 139.02L91.5285 131.415L88.3974 130.479L86.6218 141.16C86.6218 141.16 96.6262 146.968 105.409 150.675C111.194 153.12 118.048 154.573 118.048 154.573L121.828 139.02Z" fill="#F99173"/>
<path d="M111.346 136.383L108.673 144.484L104.511 150.254C97.1225 147.044 89.1801 142.593 87.1373 141.427C87.08 141.083 87.0418 140.72 87.0227 140.376L88.7601 136.937C91.6812 138.179 100.044 140.968 104.874 134.759L111.346 136.383Z" fill="#F47B5A"/>
<path d="M137.904 97.4438C137.904 97.4438 130.095 97.9597 127.804 106.156C125.494 114.353 124.73 124.728 123.966 134.702C123.966 134.702 121.733 135.543 119.384 135.523C116.425 135.504 113.16 134.759 112.836 136.116L108.292 135.6C107.814 141.16 106.096 145.879 102.736 149.471L105.905 151.286C105.905 151.286 104.97 153.465 107.471 154.821C110.22 156.311 114.248 154.974 119.136 155.834C124.272 156.732 131.661 157.897 135.097 153.541C138.553 149.185 139.832 113.837 139.832 113.837L137.904 97.4438Z" fill="#5127AC"/>
<g opacity="0.5">
<path opacity="0.5" d="M139.66 117.678C139.221 126.945 137.847 150.064 135.097 153.541C131.642 157.897 124.272 156.732 119.136 155.834C114.382 154.993 110.43 156.235 107.7 154.936C109.17 154.859 111.137 154.363 113.351 152.777C118.105 149.395 127.594 152.356 130.439 146.968C133.284 141.58 134.028 116.474 138.343 116.149C138.916 116.111 139.355 116.684 139.66 117.678Z" fill="#632A44"/>
</g>
<path d="M123.737 138.351C123.642 138.351 123.566 138.256 123.566 138.179L124.138 129.982C124.138 129.887 124.234 129.83 124.31 129.83C124.406 129.83 124.482 129.925 124.463 130.002L123.89 138.198C123.909 138.294 123.833 138.351 123.737 138.351Z" fill="#00101E"/>
<path d="M105.905 151.42C105.867 151.42 105.81 151.401 105.772 151.363C105.714 151.286 105.714 151.191 105.791 151.134C105.829 151.095 109.208 147.981 110.793 143.777C112.358 139.631 112.492 136.173 112.492 136.135C112.492 136.039 112.587 135.963 112.664 135.982C112.759 135.982 112.836 136.058 112.817 136.154C112.817 136.192 112.664 139.708 111.079 143.911C109.456 148.191 106.02 151.363 105.982 151.382C105.982 151.42 105.943 151.42 105.905 151.42Z" fill="#00101E"/>
<path d="M88.7793 144.083L76.9038 142.689C76.0829 142.593 75.4719 141.905 75.4719 141.065V120.735C75.4719 119.761 76.312 118.996 77.2857 119.111L89.1611 120.506C89.9821 120.601 90.593 121.289 90.593 122.13V142.459C90.593 143.434 89.7339 144.198 88.7793 144.083Z" fill="#222654"/>
<path d="M90.593 131.397V142.479C90.593 143.454 89.753 144.218 88.7793 144.103L76.9038 142.708C76.0829 142.613 75.4719 141.925 75.4719 141.084V120.736C75.4719 119.761 76.312 119.016 77.2857 119.112L79.0422 119.322C79.7295 122.723 82.2115 128.302 90.593 131.397Z" fill="#191B45"/>
<path d="M77.2476 126.907C76.2739 126.563 74.7656 126.009 73.6201 127.652C72.7418 128.913 73.0091 130.308 73.7156 130.862C74.0592 131.129 76.083 130.995 78.0686 130.881C80.226 130.766 82.4025 130.938 82.4407 129.562C82.4598 128.416 78.2213 127.25 77.2476 126.907Z" fill="#F99173"/>
<path d="M78.7942 139.402C78.7942 139.402 81.9444 138.619 81.8298 137.472C81.7153 136.326 80.6079 136.555 80.6079 136.555C80.6079 136.555 81.8298 136.269 81.4862 135.084C81.1425 133.899 79.5197 134.014 79.5197 134.014C79.5197 134.014 82.9181 133.766 83.2427 132.39C83.5672 131.033 81.2189 130.842 80.8943 130.862C80.5889 130.881 79.4242 130.842 79.4242 130.842C79.4242 130.842 74.9566 129.39 74.6702 131.435C74.1166 135.199 75.1475 139.88 75.1475 139.88C75.1475 139.88 77.4768 139.918 78.7942 139.402Z" fill="#F99173"/>
<path d="M75.7586 131.053C75.5867 131.053 75.4722 131.053 75.4531 131.053C75.3576 131.053 75.2812 130.976 75.2812 130.881C75.2812 130.785 75.3385 130.709 75.4531 130.709C77.2859 130.728 80.9326 130.651 81.6963 130.346C81.7917 130.307 81.8872 130.346 81.9254 130.441C81.9636 130.518 81.9254 130.632 81.8299 130.671C80.9326 131.034 76.9232 131.053 75.7586 131.053Z" fill="#00101E"/>
<path d="M75.4338 134.377C75.3383 134.377 75.262 134.301 75.262 134.205C75.262 134.11 75.3383 134.033 75.4338 134.033C75.472 134.033 79.0422 133.938 80.9133 133.651C81.467 133.575 82.4979 133.212 82.9371 132.62C83.0898 132.409 83.1471 132.199 83.1089 131.989C82.9943 131.244 81.0851 130.957 80.3596 130.919C80.2641 130.919 80.1878 130.843 80.2069 130.747C80.2069 130.652 80.2832 130.594 80.3787 130.594C80.6651 130.613 83.2425 130.785 83.4335 131.951C83.4907 132.257 83.4144 132.562 83.2044 132.83C82.708 133.498 81.6006 133.9 80.9706 133.995C79.0804 134.282 75.4911 134.377 75.4338 134.377C75.4529 134.377 75.4338 134.377 75.4338 134.377Z" fill="#00101E"/>
<path d="M75.854 137.319C75.7585 137.319 75.6821 137.243 75.6821 137.147C75.6821 137.052 75.7585 136.976 75.854 136.976C77.4386 136.956 80.3407 136.651 80.9325 136.269C81.4862 135.925 81.3144 135.103 81.3144 135.084C81.1807 134.473 80.6461 134.11 79.9397 134.11C79.8443 134.11 79.7679 134.033 79.7679 133.938C79.7679 133.842 79.8443 133.766 79.9397 133.766C80.8371 133.766 81.4862 134.224 81.658 135.008C81.658 135.046 81.868 136.078 81.1234 136.536C80.3788 137.014 77.2859 137.319 75.854 137.319Z" fill="#00101E"/>
<path d="M77.2858 139.899C77.2095 139.899 77.1331 139.842 77.114 139.765C77.0949 139.67 77.1522 139.593 77.2477 139.574C77.2668 139.574 78.8896 139.23 79.8442 138.905C81.0661 138.485 81.658 138.007 81.6389 137.492C81.6007 136.746 80.9898 136.613 80.9516 136.613C80.8561 136.594 80.7988 136.498 80.8179 136.422C80.837 136.326 80.9325 136.269 81.0088 136.288C81.3143 136.345 81.9253 136.67 81.9635 137.492C81.9826 138.179 81.3334 138.753 79.9397 139.249C78.9469 139.593 77.3622 139.918 77.2858 139.937C77.324 139.899 77.3049 139.899 77.2858 139.899Z" fill="#00101E"/>
<path d="M71.7681 118.404C71.7299 118.404 71.7108 118.404 71.6726 118.385L63.9975 113.723C63.9211 113.665 63.902 113.57 63.9402 113.493C63.9975 113.417 64.093 113.398 64.1693 113.436L71.8444 118.098C71.9208 118.155 71.9399 118.251 71.9017 118.327C71.8826 118.385 71.8253 118.404 71.7681 118.404Z" fill="#00101E"/>
<path d="M75.3955 113.876C75.3382 113.876 75.2809 113.837 75.2427 113.78L71.9589 107.742C71.9207 107.666 71.9398 107.551 72.0352 107.513C72.1116 107.475 72.2262 107.494 72.2643 107.59L75.5482 113.627C75.5864 113.704 75.5673 113.818 75.4718 113.856C75.4528 113.856 75.4337 113.876 75.3955 113.876Z" fill="#00101E"/>
<path d="M75.3955 113.876C75.3382 113.876 75.2809 113.837 75.2427 113.78L71.9589 107.742C71.9207 107.666 71.9398 107.551 72.0352 107.513C72.1116 107.475 72.2262 107.494 72.2643 107.59L75.5482 113.627C75.5864 113.704 75.5673 113.818 75.4718 113.856C75.4528 113.856 75.4337 113.876 75.3955 113.876Z" fill="#00101E"/>
<path d="M67.1668 123.429C67.0905 123.429 67.0332 123.391 67.0141 123.314C66.9759 123.219 67.0332 123.123 67.1096 123.104L70.9853 121.767C71.0808 121.728 71.1762 121.786 71.1953 121.862C71.2335 121.958 71.1762 122.053 71.0999 122.072L67.2241 123.41C67.205 123.429 67.1859 123.429 67.1668 123.429Z" fill="#00101E"/>
<path d="M143.536 97.2912C143.536 97.2912 139.736 94.6163 142.81 91.4637C145.884 88.3111 158.084 86.3622 166.504 86.6106C174.904 86.859 181.778 88.6359 182.35 91.7121C182.923 94.7883 180.327 97.788 180.327 97.788L143.536 97.2912Z" fill="#5127AC"/>
<g opacity="0.5">
<path opacity="0.5" d="M149.493 95.3044C149.493 95.3044 148.347 90.6806 160.872 89.5342C173.415 88.3878 174.217 89.7252 174.637 91.0245C175.057 92.3429 173.778 94.2153 170.742 95.4381C167.707 96.661 162.666 98.4761 162.666 98.4761L151.574 97.6736L149.493 95.3044Z" fill="#632A44"/>
</g>
<path d="M172.652 94.54C172.594 94.54 172.537 94.5017 172.499 94.4444C172.461 94.368 172.48 94.2534 172.556 94.2152C172.575 94.196 174.885 92.8968 174.465 91.0626C174.179 89.8015 171.983 89.3621 170.208 89.2283C168.222 89.0755 166.294 89.2283 166.275 89.2283C166.179 89.2283 166.103 89.171 166.084 89.0755C166.084 88.9799 166.141 88.9035 166.236 88.8844C166.561 88.8653 174.179 88.2348 174.79 90.9861C175.267 93.0879 172.823 94.4635 172.709 94.5209C172.709 94.5209 172.671 94.54 172.652 94.54Z" fill="#00101E"/>
<path d="M138.248 118.576C138.668 110.513 134.448 98.1703 137.923 97.4442C141.398 96.7182 156.175 94.8457 159.841 94.4063C163.869 93.9286 184.012 96.1832 184.012 96.1832C184.012 96.1832 183.554 118.309 183.554 131.798C183.554 140.74 182.408 159.369 182.408 159.369C182.408 159.369 169.062 165.101 147.603 162.541C135.345 161.069 132.787 155.586 132.787 155.586C133.303 152.032 133.494 148.65 134.143 144.848C135.785 135.142 137.847 126.219 138.248 118.576Z" fill="#5127AC"/>
<g opacity="0.5">
<path opacity="0.5" d="M182.809 132.027C182.809 137.683 183.076 147.007 182.732 153.236V153.255L182.427 156.025C172.613 158.242 161.807 158.758 150.294 158.051C150.294 158.051 170.36 157.191 175.477 143.625C180.594 130.059 180.594 119.494 182.522 119.169C182.942 119.111 182.809 128.646 182.809 132.027Z" fill="#632A44"/>
</g>
<path d="M132.825 155.796C132.73 155.796 132.653 155.72 132.653 155.624C132.653 151.497 134.563 141.581 135.956 134.339C136.357 132.314 136.682 130.556 136.949 129.123C138.133 122.608 138.056 113.819 138.056 113.742C138.056 113.647 138.133 113.57 138.228 113.57C138.324 113.57 138.4 113.647 138.4 113.742C138.4 113.838 138.496 122.646 137.293 129.2C137.025 130.633 136.701 132.39 136.3 134.416C134.906 141.638 132.997 151.535 132.997 155.624C132.997 155.72 132.921 155.796 132.825 155.796Z" fill="#00101E"/>
<path d="M159.058 158.509C154.609 158.509 150.447 158.318 147.373 157.917C136.873 156.541 133.073 153.102 132.921 152.968C132.844 152.911 132.844 152.796 132.921 152.739C132.978 152.663 133.092 152.663 133.15 152.739C133.188 152.777 137.025 156.235 147.412 157.611C156.557 158.815 175.535 158.184 182.37 155.911C182.465 155.872 182.561 155.93 182.58 156.025C182.618 156.121 182.561 156.216 182.465 156.235C177.902 157.726 167.917 158.509 159.058 158.509Z" fill="#00101E"/>
<path d="M182.389 159.56C182.293 159.56 182.217 159.484 182.217 159.388C182.733 146.166 182.79 132.142 182.37 117.659C182.37 117.564 182.446 117.487 182.542 117.487C182.637 117.487 182.713 117.564 182.713 117.659C183.133 132.142 183.076 146.185 182.561 159.407C182.561 159.484 182.484 159.56 182.389 159.56Z" fill="#00101E"/>
<path d="M160.719 140.052C160.681 140.052 160.662 140.052 160.624 140.033C157.798 138.142 155.736 135.39 154.285 131.626C154.247 131.531 154.304 131.435 154.381 131.416C154.476 131.378 154.571 131.435 154.591 131.512C156.003 135.199 158.046 137.912 160.815 139.766C160.891 139.823 160.91 139.918 160.853 139.995C160.815 140.014 160.777 140.052 160.719 140.052Z" fill="#00101E"/>
<path d="M155.793 140.128C155.736 140.128 155.679 140.09 155.641 140.033C154.896 138.6 153.884 137.434 152.605 136.613C152.529 136.556 152.509 136.46 152.548 136.384C152.605 136.307 152.7 136.288 152.777 136.326C154.094 137.186 155.163 138.39 155.927 139.88C155.965 139.956 155.946 140.071 155.851 140.109C155.851 140.128 155.832 140.128 155.793 140.128Z" fill="#00101E"/>
<path d="M141.684 68.7266C141.684 68.7266 141.379 72.1084 142.658 76.0062C144.166 80.5918 146.934 80.993 146.934 80.993L148.71 71.134L147.412 70.4844C147.412 70.5035 144.605 70.0449 141.684 68.7266Z" fill="#191B45"/>
<path d="M168.967 96.5651L164.041 79.6748L150.677 82.4071L153.674 97.0618C159.173 97.7497 164.366 97.7497 168.967 96.5651Z" fill="#F99173"/>
<path d="M152.318 96.145C153.33 97.6544 157.626 105.393 160.394 104.533C163.067 103.711 168.146 97.8837 169.349 96.4507C169.196 96.4316 169.062 96.4125 168.929 96.4125C165.607 96.145 154.552 96.145 152.318 96.145Z" fill="#F99173"/>
<path d="M151.02 84.0884L152.834 92.9539C159.001 95.0556 164.862 91.9412 167.191 90.4318L164.06 79.6938C164.041 79.6938 151.478 83.3814 151.02 84.0884Z" fill="#F47B5A"/>
<path d="M144.701 78.3178C146.247 85.7312 152.3 91.7689 157.684 90.6416C163.087 89.5143 165.779 81.6805 164.251 74.2481C162.705 66.8347 157.512 62.6503 152.128 63.7585C146.725 64.9049 143.173 70.9044 144.701 78.3178Z" fill="#F99173"/>
<path d="M156.347 90.9472C155.182 90.9472 153.98 90.6606 152.796 90.1065C152.72 90.0683 152.681 89.9728 152.72 89.8773C152.758 89.8008 152.853 89.7626 152.949 89.8008C154.552 90.546 156.194 90.7753 157.684 90.4696C159.65 90.0683 161.349 88.7118 162.59 86.5527C163.449 84.8522 164.003 83.1517 164.347 81.2028C164.366 81.1073 164.442 81.05 164.538 81.0691C164.633 81.0882 164.69 81.1646 164.671 81.2602C164.328 83.2472 163.755 84.986 162.877 86.7056C161.578 88.941 159.822 90.3549 157.741 90.7753C157.283 90.909 156.805 90.9472 156.347 90.9472Z" fill="#00101E"/>
<path d="M143.593 70.236C143.593 70.236 146.209 71.0385 150.333 70.1787C155.259 69.1278 158.275 66.2045 160.07 66.5866C161.865 66.9687 161.158 71.6881 163.717 72.395L165.741 72.1275C165.741 72.1275 165.97 66.4147 164.041 65.0199C162.113 63.6251 154.113 61.1985 150.314 62.9181C146.495 64.6568 141.417 68.7457 143.593 70.236Z" fill="#222654"/>
<path d="M161.712 75.7577C161.521 78.0505 161.903 80.1713 163.43 80.305C164.958 80.4388 167.134 78.3944 167.325 76.1016C167.516 73.8088 166.485 71.4969 164.958 71.3631C163.43 71.2294 161.903 73.4649 161.712 75.7577Z" fill="#F99173"/>
<path d="M163.717 78.3754C163.621 78.3754 163.545 78.2989 163.545 78.2034C163.564 76.2354 164.213 74.5349 165.492 73.1975C165.549 73.121 165.664 73.121 165.721 73.1975C165.798 73.2548 165.798 73.3694 165.721 73.4267C164.499 74.7069 163.869 76.3118 163.869 78.2034C163.888 78.2989 163.812 78.3754 163.717 78.3754Z" fill="#00101E"/>
<path d="M164.098 76.2354C164.022 76.2354 163.965 76.1972 163.946 76.1208C163.927 76.0252 163.965 75.9297 164.06 75.9106C164.767 75.6813 165.378 75.624 166.103 75.7195C166.199 75.7386 166.256 75.815 166.256 75.9106C166.237 76.0061 166.16 76.0634 166.065 76.0634C165.378 75.9679 164.824 76.0252 164.156 76.2354C164.137 76.2354 164.118 76.2354 164.098 76.2354Z" fill="#00101E"/>
<path d="M159.096 72.0319C159.096 72.0319 157.817 70.1976 156.023 70.2932C154.724 70.3505 153.407 70.981 153.044 71.4969C152.911 71.6879 153.063 72.0128 153.159 72.1656C153.483 72.6433 155.24 71.5924 156.175 71.516C157.264 71.4013 159.096 72.0319 159.096 72.0319Z" fill="#222654"/>
<path d="M144.529 75.968C144.529 75.968 144.758 73.7516 146.381 72.9491C147.545 72.3759 149.016 72.2995 149.569 72.567C149.779 72.6625 149.798 73.0256 149.798 73.1975C149.741 73.7707 147.698 73.6943 146.839 74.0764C145.827 74.535 144.529 75.968 144.529 75.968Z" fill="#222654"/>
<path d="M157.034 75.0508C157.111 75.6622 156.862 76.1972 156.442 76.2545C156.022 76.3119 155.621 75.8724 155.545 75.261C155.469 74.6496 155.717 74.1146 156.137 74.0573C156.538 74 156.939 74.4394 157.034 75.0508Z" fill="#000204"/>
<path d="M148.882 77.4585C148.958 78.0699 148.71 78.6049 148.29 78.6622C147.87 78.7196 147.469 78.2801 147.393 77.6687C147.316 77.0573 147.564 76.5223 147.985 76.465C148.385 76.4077 148.786 76.8471 148.882 77.4585Z" fill="#000204"/>
<path d="M152.528 80.2667C152.089 80.2667 151.746 80.1903 151.631 79.9228C151.516 79.6553 151.898 76.8275 152.147 75.1652C152.166 75.0697 152.242 75.0124 152.337 75.0315C152.433 75.0506 152.49 75.127 152.471 75.2226C152.242 76.8466 151.879 79.5407 151.937 79.8082C152.051 80.0566 153.292 79.9228 154.342 79.6362C154.438 79.6171 154.533 79.6553 154.552 79.7508C154.571 79.8464 154.533 79.9419 154.438 79.961C154.075 80.0565 153.197 80.2667 152.528 80.2667Z" fill="#00101E"/>
<path d="M154.342 83.4767C154.247 83.4767 154.17 83.4003 154.17 83.3238C154.17 83.2283 154.228 83.1519 154.323 83.1519C155.774 83.0754 156.786 82.464 157.397 81.2794C157.435 81.203 157.55 81.1648 157.626 81.203C157.702 81.2412 157.741 81.3558 157.702 81.4323C157.034 82.6933 155.908 83.3811 154.342 83.4767Z" fill="#00101E"/>
<path d="M141.34 67.714C141.34 67.5038 140.71 63.0137 144.567 60.0522C148.423 57.1098 153.502 55.4666 154.819 54.0909C156.328 52.5051 156.996 50.9383 158.122 50.9957C159.249 51.0721 158.829 54.0909 160.795 56.3264C162.762 58.581 165.492 63.5678 165.358 66.9306L152.796 65.6696L141.34 67.714Z" fill="#FF5E47"/>
<path d="M163.354 60.2052C160.242 60.4154 157.55 57.836 158.084 55.4859C158.409 54.0338 159.134 53.2313 158.886 51.9512C159.23 53.0402 159.497 54.8554 160.795 56.3457C161.597 57.2628 162.533 58.6576 163.354 60.2052Z" fill="#EF271D"/>
<path d="M165.358 66.9496L152.796 65.6886L141.359 67.733C141.359 67.6566 141.264 66.9878 141.359 66.0134C143.039 64.4657 149.054 60.2241 163.965 61.4469C164.824 63.3194 165.416 65.3255 165.358 66.9496Z" fill="#EF271D"/>
<path d="M141.55 72.4907C142.009 72.6626 142.486 69.3381 151.039 68.0006C159.593 66.6631 165.511 70.1405 165.721 70.0259C165.931 69.9113 165.874 66.6822 165.683 66.3192C165.473 65.9562 160.261 62.7654 151.822 63.4341C145.082 63.9691 141.169 66.644 140.863 67.179C140.558 67.714 141.092 72.2996 141.55 72.4907Z" fill="#FF5E47"/>
<path d="M165.683 66.4722C165.645 66.4722 165.626 66.4722 165.588 66.4531C161.922 64.1794 157.416 63.2432 151.822 63.6062C151.746 63.6062 151.65 63.5489 151.65 63.4534C151.65 63.3578 151.707 63.2814 151.803 63.2814C157.454 62.9184 162.017 63.8737 165.759 66.1856C165.836 66.2429 165.855 66.3385 165.817 66.4149C165.778 66.4531 165.74 66.4722 165.683 66.4722Z" fill="#00101E"/>
<path d="M146.743 66.1666C146.667 66.1666 146.61 66.1284 146.591 66.052C146.572 65.9564 146.61 65.8609 146.705 65.8418C149.722 64.9629 152.777 64.6572 155.812 64.9056C155.908 64.9056 155.965 65.0011 155.965 65.0966C155.965 65.1922 155.87 65.2686 155.774 65.2495C152.777 65.0011 149.76 65.3068 146.782 66.1666C146.763 66.1666 146.743 66.1666 146.743 66.1666Z" fill="#00101E"/>
<path d="M159.784 105.144C159.784 105.144 160.929 97.463 167.802 92.5335C171.086 91.4253 174.886 95.3231 174.447 97.0427C174.447 97.0427 169.215 104.017 159.784 105.144Z" fill="#5127AC"/>
<path d="M159.784 105.144C159.784 105.144 159.631 98.1125 153.082 94.7116C149.607 93.3359 147.717 94.253 146.61 96.3356C146.61 96.3165 152.509 104.399 159.784 105.144Z" fill="#5127AC"/>
<path d="M158.504 104.781C147.965 104.781 142.486 96.737 142.429 96.6606C142.371 96.5841 142.39 96.4695 142.467 96.4313C142.543 96.374 142.639 96.3931 142.696 96.4695C142.753 96.565 148.595 105.125 159.841 104.399C161.177 104.533 168.929 103.768 174.179 97.2529C174.236 97.1764 174.351 97.1764 174.408 97.2338C174.485 97.2911 174.485 97.4057 174.427 97.463C169.081 104.112 161.158 104.857 159.822 104.743C159.402 104.762 158.943 104.781 158.504 104.781Z" fill="#00101E"/>
<path d="M156.519 97.6158C156.481 97.6158 156.423 97.5966 156.404 97.5584C154.762 95.7815 153.006 94.7498 150.696 94.2148C150.6 94.1957 150.543 94.1001 150.562 94.0046C150.581 93.9091 150.677 93.8517 150.772 93.8708C153.12 94.4249 154.991 95.514 156.652 97.31C156.71 97.3865 156.71 97.482 156.633 97.5393C156.595 97.5966 156.557 97.6158 156.519 97.6158Z" fill="#00101E"/>
<path d="M196.25 93.5841C196.231 93.5841 196.212 93.5841 196.192 93.565C178.093 86.8013 173.835 68.0577 173.778 67.8666C173.759 67.7711 173.816 67.6946 173.912 67.6755C174.007 67.6564 174.084 67.7137 174.103 67.8093C174.141 68.0003 178.379 86.572 196.307 93.2784C196.402 93.3167 196.441 93.4122 196.402 93.4886C196.364 93.5459 196.307 93.5841 196.25 93.5841Z" fill="#00101E"/>
<path d="M189.682 82.2921C189.644 82.2921 189.625 82.2921 189.587 82.273C182.981 78.3561 179.869 71.6879 179.849 71.6115C179.811 71.535 179.849 71.4204 179.926 71.3822C180.002 71.344 180.117 71.3822 180.155 71.4586C180.193 71.5159 183.267 78.0886 189.758 81.9673C189.835 82.0055 189.873 82.1201 189.816 82.1965C189.797 82.273 189.739 82.2921 189.682 82.2921Z" fill="#00101E"/>
<path d="M74.8991 216.822C74.8037 216.822 74.7464 216.765 74.7273 216.669C73.9827 208.128 75.0519 200.524 77.6866 195.805C77.7248 195.728 77.8394 195.69 77.9157 195.747C77.9921 195.786 78.0303 195.9 77.973 195.977C75.3764 200.639 74.3264 208.167 75.071 216.65C75.071 216.726 75.0137 216.803 74.8991 216.822Z" fill="#00101E"/>
<path d="M71.0998 210.402C71.0043 210.402 70.9279 210.326 70.9279 210.23C70.8516 207.555 71.1189 205.052 71.7871 202.129C71.8062 202.034 71.9016 201.976 71.9971 201.995C72.0926 202.014 72.1498 202.11 72.1307 202.206C71.4625 205.091 71.2143 207.574 71.2907 210.211C71.2716 210.326 71.1952 210.402 71.0998 210.402C71.1189 210.402 71.0998 210.402 71.0998 210.402Z" fill="#00101E"/>
<path d="M3.62754 95.5144H95.9961C98.0008 95.5144 99.6237 93.8903 99.6237 91.8841V17.1771C99.6237 15.1709 98.0008 13.5469 95.9961 13.5469H3.62754C1.62285 13.5469 0 15.1709 0 17.1771V91.865C0 93.8712 1.62285 95.5144 3.62754 95.5144Z" fill="#9CB8E2"/>
<path d="M87.5574 92.5337L82.5552 108.717L72.8181 93.2406L87.5574 92.5337Z" fill="#9CB8E2"/>
<path d="M3.62754 95.5144H95.9961C98.0008 95.5144 99.6237 93.8903 99.6237 91.8841V17.1771C99.6237 15.1709 98.0008 13.5469 95.9961 13.5469H3.62754C1.62285 13.5469 0 15.1709 0 17.1771V91.865C0 93.8712 1.62285 95.5144 3.62754 95.5144Z" fill="#9CB8E2"/>
<path d="M87.5574 92.5337L82.5552 108.717L72.8181 93.2406L87.5574 92.5337Z" fill="#9CB8E2"/>
<path d="M66.9322 51.3529C70.5108 41.888 65.7448 31.3119 56.287 27.7306C46.8292 24.1492 36.261 28.9188 32.6824 38.3837C29.1037 47.8486 33.8697 58.4247 43.3275 62.0061C52.7854 65.5874 63.3535 60.8179 66.9322 51.3529Z" fill="#B2E99E"/>
<path d="M49.5634 53.8235C49.3725 53.8235 49.2007 53.747 49.0861 53.6133L40.1318 44.2892C39.8836 44.0217 39.8836 43.6014 40.1509 43.3339C40.4182 43.0855 40.8382 43.0855 41.1055 43.353L49.4298 52.0274L58.4414 36.2644C58.6323 35.9396 59.0332 35.825 59.3578 36.0161C59.6824 36.2071 59.7969 36.6084 59.606 36.9332L50.1553 53.4795C50.0407 53.6706 49.8689 53.7852 49.6589 53.8044C49.6207 53.8235 49.5825 53.8235 49.5634 53.8235Z" fill="#5127AC"/>
<path d="M49.812 68.2113C43.0151 68.2113 36.5619 65.2497 32.1134 60.0718C31.8652 59.7852 31.9034 59.3649 32.1898 59.1165C32.4762 58.8681 32.8962 58.9063 33.1444 59.1929C37.3256 64.0651 43.397 66.8547 49.812 66.8547C61.9356 66.8547 71.7872 56.9956 71.7872 44.8629C71.7872 32.7302 61.9356 22.8712 49.812 22.8712C40.6859 22.8712 32.4189 28.6223 29.2305 37.1629C29.0968 37.5069 28.715 37.6788 28.3713 37.5642C28.0277 37.4304 27.8558 37.0483 27.9704 36.7044C31.3497 27.6287 40.1322 21.5337 49.812 21.5337C62.6611 21.5337 73.1237 32.0041 73.1237 44.8629C73.1237 57.7217 62.6802 68.2113 49.812 68.2113Z" fill="#B2E99E"/>
<path d="M28.2757 38.1563C28.1803 38.1563 28.0848 38.1372 27.9893 38.099C27.7602 37.9843 27.6075 37.7742 27.6075 37.5258L27.3593 31.7938C27.3402 31.4308 27.6266 31.1059 28.0084 31.0868C28.3712 31.0677 28.6958 31.3543 28.7149 31.7365L28.9058 36.1692L32.3233 33.5325C32.6097 33.3032 33.0488 33.3605 33.2588 33.6471C33.4879 33.9337 33.4307 34.3732 33.1443 34.5834L28.6958 38.0226C28.5621 38.099 28.4285 38.1563 28.2757 38.1563Z" fill="#B2E99E"/>
<path d="M23.5409 81.7767H76.0829C77.3621 81.7767 78.3931 80.7449 78.3931 79.4648V75.9491C78.3931 74.669 77.3621 73.6372 76.0829 73.6372H23.5409C22.2617 73.6372 21.2307 74.669 21.2307 75.9491V79.4648C21.2307 80.7449 22.2617 81.7767 23.5409 81.7767Z" fill="#B2E99E"/>
<path d="M73.6772 78.0506H25.9464C25.7555 78.0506 25.6028 77.8978 25.6028 77.7067C25.6028 77.5157 25.7555 77.3628 25.9464 77.3628H73.6772C73.8681 77.3628 74.0209 77.5157 74.0209 77.7067C74.0209 77.8978 73.8681 78.0506 73.6772 78.0506Z" fill="#5127AC"/>
<g opacity="0.2">
<path opacity="0.2" d="M99.6237 38.1943V91.9031C99.6237 93.8902 98.0009 95.5143 96.0153 95.5143H86.6219L82.5552 108.717L74.231 95.5143H26.4238C57.8498 84.2031 81.1424 63.8546 99.6237 38.1943Z" fill="#632A44"/>
</g>
<path d="M93.2277 13.4894H29.0776C28.9821 13.4894 28.9058 13.413 28.9058 13.3175C28.9058 13.2219 28.9821 13.1455 29.0776 13.1455H93.2277C93.3232 13.1455 93.3996 13.2219 93.3996 13.3175C93.3996 13.413 93.3232 13.4894 93.2277 13.4894Z" fill="#00101E"/>
<path d="M24.4573 13.4894H10.3671C10.2717 13.4894 10.1953 13.413 10.1953 13.3175C10.1953 13.2219 10.2717 13.1455 10.3671 13.1455H24.4573C24.5527 13.1455 24.6291 13.2219 24.6291 13.3175C24.6291 13.413 24.5527 13.4894 24.4573 13.4894Z" fill="#00101E"/>
<path d="M79.0994 28.7555H114.897C116.902 28.7555 118.525 27.1314 118.525 25.1252V3.63026C118.525 1.62407 116.902 0 114.897 0H79.0994C77.0947 0 75.4718 1.62407 75.4718 3.63026V25.1252C75.4528 27.1314 77.0756 28.7555 79.0994 28.7555Z" fill="#D8DAFF"/>
<path d="M118.525 5.34961H75.4526V11.3682H118.525V5.34961Z" fill="#000204"/>
<path d="M112.912 14.3872H80.6458V17.5398H112.912V14.3872Z" fill="white"/>
<path d="M86.2207 20.9219H80.6458V24.0745H86.2207V20.9219Z" fill="white"/>
<path d="M96.3206 20.9219H90.7456V24.0745H96.3206V20.9219Z" fill="white"/>
</g>
<defs>
<clipPath id="clip0">
<rect width="236" height="299" fill="white"/>
</clipPath>
</defs>
</svg>
