<svg width="216" height="204" viewBox="0 0 216 204" fill="none" xmlns="http://www.w3.org/2000/svg">
<g clip-path="url(#clip0)">
<path d="M106.033 157.412H54.8481V195.176H106.033V157.412Z" fill="#803A57"/>
<path d="M106.033 157.412V175.748C91.3371 167.207 62.6894 162.728 54.8481 161.635V157.412H106.033Z" fill="#632A44"/>
<path d="M185.446 195.298H32.5143C32.4467 195.298 32.3926 195.244 32.3926 195.176C32.3926 195.109 32.4467 195.055 32.5143 195.055H185.446C185.514 195.055 185.568 195.109 185.568 195.176C185.568 195.244 185.514 195.298 185.446 195.298Z" fill="#00101E"/>
<path d="M143.661 90.9307C164.505 70.129 164.505 36.4027 143.661 15.601C122.817 -5.20073 89.0227 -5.20072 68.1788 15.601C47.3348 36.4027 47.3348 70.129 68.1788 90.9307C89.0227 111.732 122.817 111.732 143.661 90.9307Z" fill="#E3E7FF"/>
<g opacity="0.5">
<path opacity="0.5" d="M159.3 53.2666C159.3 82.6928 135.397 106.533 105.925 106.533C95.7179 106.533 86.1732 103.673 78.0615 98.7078C81.9822 99.6253 86.065 100.111 90.256 100.111C119.742 100.111 143.631 76.257 143.631 46.8443C143.631 27.6182 133.424 10.7666 118.12 1.40308C141.725 6.89435 159.3 28.0364 159.3 53.2666Z" fill="#E2BD9C"/>
</g>
<path d="M79.3726 26.3357H0V120.24H79.3726V26.3357Z" fill="#E3E7FF"/>
<g opacity="0.3">
<path opacity="0.3" d="M79.3726 26.323V120.228H0V103.174C13.2896 90.7881 38.2059 63.9524 52.0769 26.323H79.3726Z" fill="#E2BD9C"/>
</g>
<path d="M79.3726 26.3357H0V36.4952H79.3726V26.3357Z" fill="#24419C"/>
<path d="M63.8118 104.658H15.5609C14.1278 104.658 12.9517 103.498 12.9517 102.054V98.1142C12.9517 96.6841 14.1143 95.5103 15.5609 95.5103H63.8118C65.2448 95.5103 66.421 96.6706 66.421 98.1142V102.054C66.4075 103.498 65.2448 104.658 63.8118 104.658Z" fill="#222654"/>
<path d="M66.7185 57.6381H12.6408C11.7214 57.6381 10.9644 56.896 10.9644 55.965V51.0944C10.9644 50.1769 11.7079 49.4214 12.6408 49.4214H66.7185C67.6378 49.4214 68.3949 50.1635 68.3949 51.0944V55.965C68.3949 56.8825 67.6378 57.6381 66.7185 57.6381Z" fill="#D7B8FF"/>
<path d="M66.7185 75.5016H12.6408C11.7214 75.5016 10.9644 74.7595 10.9644 73.8286V68.9579C10.9644 68.0405 11.7079 67.2849 12.6408 67.2849H66.7185C67.6378 67.2849 68.3949 68.027 68.3949 68.9579V73.8286C68.3949 74.746 67.6378 75.5016 66.7185 75.5016Z" fill="#D7B8FF"/>
<path d="M4.24493 33.4737C4.19085 33.4737 4.12325 33.4468 4.0827 33.4063C3.98806 33.3118 3.98806 33.1634 4.0827 33.069L7.74647 29.4126C7.8411 29.3182 7.98982 29.3182 8.08445 29.4126C8.17909 29.5071 8.17909 29.6555 8.08445 29.7499L4.42068 33.4063C4.3666 33.4603 4.29901 33.4737 4.24493 33.4737Z" fill="#00101E"/>
<path d="M7.9087 33.4737C7.85462 33.4737 7.78702 33.4468 7.74647 33.4063L4.0827 29.7499C3.98806 29.6555 3.98806 29.5071 4.0827 29.4126C4.17733 29.3182 4.32605 29.3182 4.42068 29.4126L8.08445 33.069C8.17909 33.1634 8.17909 33.3118 8.08445 33.4063C8.03037 33.4603 7.9763 33.4737 7.9087 33.4737Z" fill="#00101E"/>
<path d="M79.3728 60.4309C79.3052 60.4309 79.2511 60.3769 79.2511 60.3094V26.4444L36.3404 26.3769C36.2728 26.3769 36.2188 26.3229 36.2188 26.2555C36.2188 26.188 36.2728 26.134 36.3404 26.134L79.3728 26.2015C79.4404 26.2015 79.4945 26.2555 79.4945 26.3229V60.3094C79.4809 60.3769 79.4268 60.4309 79.3728 60.4309Z" fill="#00101E"/>
<path d="M79.3725 36.6039H46.4933C46.4257 36.6039 46.3716 36.55 46.3716 36.4825C46.3716 36.4151 46.4257 36.3611 46.4933 36.3611H79.3725C79.4401 36.3611 79.4942 36.4151 79.4942 36.4825C79.4807 36.55 79.4266 36.6039 79.3725 36.6039Z" fill="#00101E"/>
<path d="M43.3163 36.6039H26.9308C26.8632 36.6039 26.8091 36.55 26.8091 36.4825C26.8091 36.4151 26.8632 36.3611 26.9308 36.3611H43.3163C43.3839 36.3611 43.438 36.4151 43.438 36.4825C43.438 36.55 43.3839 36.6039 43.3163 36.6039Z" fill="#00101E"/>
<path d="M39.666 162.35C38.26 162.35 37.1108 161.203 37.1108 159.8C37.1108 158.397 38.26 157.25 39.666 157.25C41.072 157.25 42.2212 158.397 42.2212 159.8C42.2212 161.203 41.072 162.35 39.666 162.35ZM39.666 157.722C38.5169 157.722 37.584 158.653 37.584 159.8C37.584 160.947 38.5169 161.878 39.666 161.878C40.8152 161.878 41.748 160.947 41.748 159.8C41.748 158.653 40.8152 157.722 39.666 157.722Z" fill="#FF5E47"/>
<path d="M51.036 146.551C50.2248 146.551 49.5488 145.89 49.5488 145.067C49.5488 144.257 50.2113 143.583 51.036 143.583C51.8471 143.583 52.5231 144.244 52.5231 145.067C52.5096 145.89 51.8471 146.551 51.036 146.551ZM51.036 144.082C50.4817 144.082 50.0355 144.527 50.0355 145.08C50.0355 145.633 50.4817 146.079 51.036 146.079C51.5903 146.079 52.0364 145.633 52.0364 145.08C52.0364 144.527 51.5903 144.082 51.036 144.082Z" fill="#00101E"/>
<path d="M36.6647 133.801C36.5295 133.801 36.4214 133.693 36.4214 133.558V129.605C36.4214 129.47 36.5295 129.362 36.6647 129.362C36.7999 129.362 36.9081 129.47 36.9081 129.605V133.558C36.9081 133.693 36.7999 133.801 36.6647 133.801Z" fill="#EED7C3"/>
<path d="M38.6523 131.817H34.6911C34.5559 131.817 34.4478 131.709 34.4478 131.574C34.4478 131.439 34.5559 131.332 34.6911 131.332H38.6523C38.7875 131.332 38.8957 131.439 38.8957 131.574C38.8821 131.709 38.7875 131.817 38.6523 131.817Z" fill="#EED7C3"/>
<path d="M175.55 23.0578C175.415 23.0578 175.307 22.9498 175.307 22.8149V17.634C175.307 17.4991 175.415 17.3911 175.55 17.3911C175.685 17.3911 175.793 17.4991 175.793 17.634V22.8149C175.78 22.9498 175.685 23.0578 175.55 23.0578Z" fill="#7ABBBF"/>
<path d="M178.146 20.4674H172.954C172.819 20.4674 172.711 20.3595 172.711 20.2245C172.711 20.0896 172.819 19.9817 172.954 19.9817H178.146C178.281 19.9817 178.389 20.0896 178.389 20.2245C178.376 20.3595 178.267 20.4674 178.146 20.4674Z" fill="#7ABBBF"/>
<path d="M160.259 13.5864C160.259 14.5444 159.475 15.3269 158.515 15.3269C157.556 15.3269 156.771 14.5444 156.771 13.5864C156.771 12.6285 157.556 11.8459 158.515 11.8459C159.475 11.8594 160.259 12.6285 160.259 13.5864Z" fill="#E2BD9C"/>
<path d="M168.831 37.7374C167.925 37.7374 167.181 36.9953 167.181 36.0913C167.181 35.1874 167.925 34.4453 168.831 34.4453C169.736 34.4453 170.48 35.1874 170.48 36.0913C170.48 37.0088 169.736 37.7374 168.831 37.7374ZM168.831 34.931C168.182 34.931 167.654 35.4572 167.654 36.1048C167.654 36.7525 168.182 37.2786 168.831 37.2786C169.479 37.2786 170.007 36.7525 170.007 36.1048C170.007 35.4572 169.479 34.931 168.831 34.931Z" fill="#FF7847"/>
<path d="M117.379 155.89C118.868 154.404 118.868 151.995 117.379 150.509C115.891 149.023 113.477 149.023 111.988 150.509C110.499 151.995 110.499 154.404 111.988 155.89C113.477 157.375 115.891 157.375 117.379 155.89Z" fill="#803A57"/>
<path d="M123.514 169.163C122.703 169.163 122.027 168.502 122.027 167.679C122.027 166.87 122.689 166.195 123.514 166.195C124.339 166.195 125.001 166.856 125.001 167.679C124.988 168.502 124.325 169.163 123.514 169.163ZM123.514 166.681C122.96 166.681 122.514 167.126 122.514 167.679C122.514 168.232 122.96 168.678 123.514 168.678C124.068 168.678 124.514 168.232 124.514 167.679C124.514 167.14 124.068 166.681 123.514 166.681Z" fill="#00101E"/>
<path d="M184.189 164.414C184.053 164.414 183.945 164.306 183.945 164.171V158.99C183.945 158.856 184.053 158.748 184.189 158.748C184.324 158.748 184.432 158.856 184.432 158.99V164.171C184.419 164.306 184.31 164.414 184.189 164.414Z" fill="#FC4532"/>
<path d="M186.784 161.824H181.593C181.458 161.824 181.35 161.716 181.35 161.581C181.35 161.446 181.458 161.338 181.593 161.338H186.784C186.92 161.338 187.028 161.446 187.028 161.581C187.014 161.716 186.906 161.824 186.784 161.824Z" fill="#FC4532"/>
<path d="M203.062 155.86C201.967 155.86 201.088 154.97 201.088 153.89C201.088 152.797 201.98 151.92 203.062 151.92C204.157 151.92 205.036 152.811 205.036 153.89C205.036 154.97 204.157 155.86 203.062 155.86ZM203.062 152.379C202.237 152.379 201.561 153.054 201.561 153.877C201.561 154.7 202.237 155.374 203.062 155.374C203.886 155.374 204.562 154.7 204.562 153.877C204.562 153.054 203.886 152.379 203.062 152.379Z" fill="#00101E"/>
<path d="M197.306 133.635C197.412 132.358 196.46 131.237 195.18 131.131C193.9 131.025 192.777 131.975 192.671 133.252C192.565 134.53 193.517 135.651 194.796 135.757C196.076 135.862 197.2 134.913 197.306 133.635Z" fill="#EED7C3"/>
<path d="M177.402 65.6254C177.348 65.6254 177.307 65.5985 177.294 65.5445C175.915 60.9032 173.035 57.6651 168.75 55.9381C168.695 55.9111 168.655 55.8437 168.682 55.7897C168.709 55.7223 168.777 55.6953 168.831 55.7223C173.184 57.4762 176.104 60.7683 177.51 65.4905C177.524 65.558 177.497 65.6254 177.429 65.6389C177.416 65.6119 177.416 65.6254 177.402 65.6254Z" fill="#00101E"/>
<path d="M177.7 59.3517C177.659 59.3517 177.619 59.3247 177.592 59.2843C176.497 57.247 175.063 55.8843 173.198 55.1017C173.144 55.0747 173.103 55.0073 173.13 54.9398C173.157 54.8859 173.225 54.8454 173.292 54.8724C175.212 55.6819 176.686 57.0851 177.808 59.1628C177.835 59.2168 177.821 59.2977 177.754 59.3247C177.74 59.3382 177.727 59.3517 177.7 59.3517Z" fill="#00101E"/>
<path d="M103.681 29.6421C103.627 29.6421 103.586 29.6016 103.572 29.5611C103.559 29.5206 103.261 28.4278 103.343 27.146C103.451 25.4325 104.181 24.2048 105.465 23.6246C105.519 23.5976 105.6 23.6246 105.627 23.6786C105.654 23.7325 105.627 23.8135 105.573 23.8405C102.667 25.1627 103.802 29.4667 103.816 29.5071C103.829 29.5746 103.802 29.6421 103.735 29.6556C103.708 29.6421 103.694 29.6421 103.681 29.6421Z" fill="#00101E"/>
<path d="M180.39 180.254C180.376 180.254 180.363 180.254 180.336 180.24C171.886 176.355 167.073 168.691 167.033 168.624C166.992 168.57 167.019 168.489 167.073 168.462C167.127 168.421 167.208 168.448 167.236 168.502C167.276 168.583 172.062 176.179 180.444 180.038C180.498 180.065 180.525 180.132 180.498 180.2C180.485 180.227 180.444 180.254 180.39 180.254Z" fill="#00101E"/>
<path d="M187.42 180.74C187.393 180.74 187.379 180.74 187.352 180.726C175.928 173.468 167.222 162.121 160.733 146.038C160.705 145.984 160.733 145.903 160.8 145.89C160.854 145.863 160.935 145.89 160.949 145.957C167.425 161.999 176.091 173.306 187.474 180.537C187.528 180.578 187.542 180.645 187.515 180.699C187.501 180.726 187.46 180.74 187.42 180.74Z" fill="#00101E"/>
<path d="M142.008 90.9905L142.995 103.619C142.995 103.619 150.336 102.945 150.282 98.1683C150.215 93.3921 144.604 90.4509 142.008 90.9905Z" fill="#000204"/>
<path d="M140.859 169.838L148.714 188.767L155.934 190.454L160.828 189.415C158.354 183.465 157.38 174.317 154.906 165.467L140.859 169.838Z" fill="#F99173"/>
<path d="M160.828 189.428L158.502 189.914L151.932 189.523L148.701 188.767L143.996 177.434C145.727 177.407 150.688 177.002 156.813 173.481C158.11 179.566 159.111 185.273 160.828 189.428Z" fill="#D1C7FF"/>
<path d="M150.242 189.185C150.188 189.185 150.147 189.158 150.134 189.104L146.646 179.606C146.619 179.539 146.659 179.471 146.713 179.458C146.781 179.431 146.849 179.471 146.862 179.525L150.35 189.023C150.377 189.091 150.337 189.158 150.283 189.172C150.269 189.185 150.256 189.185 150.242 189.185Z" fill="white"/>
<path d="M153.257 189.28C153.203 189.28 153.162 189.253 153.149 189.199L149.877 178.985C149.863 178.918 149.89 178.851 149.958 178.837C150.026 178.81 150.093 178.851 150.107 178.918L153.378 189.132C153.392 189.199 153.365 189.266 153.297 189.28C153.284 189.266 153.27 189.28 153.257 189.28Z" fill="white"/>
<path d="M156.15 188.983C156.096 188.983 156.056 188.956 156.042 188.902L152.757 178.109C152.743 178.041 152.77 177.974 152.838 177.96C152.906 177.947 152.973 177.974 152.987 178.041L156.272 188.835C156.285 188.902 156.258 188.97 156.191 188.983C156.177 188.983 156.164 188.983 156.15 188.983Z" fill="white"/>
<path d="M145.01 179.93C144.956 179.93 144.902 179.889 144.888 179.822C144.875 179.754 144.929 179.701 144.983 179.687C148.89 179.147 152.067 178.311 154.717 177.15C154.771 177.123 154.852 177.15 154.879 177.204C154.906 177.258 154.879 177.339 154.825 177.366C152.162 178.54 148.958 179.377 145.024 179.93C145.024 179.93 145.024 179.93 145.01 179.93Z" fill="white"/>
<path d="M158.462 187.108C158.408 187.108 158.367 187.067 158.34 187.013L155.717 176.867C155.704 176.8 155.744 176.746 155.799 176.719C155.866 176.705 155.92 176.746 155.947 176.8L158.57 186.946C158.584 187.013 158.543 187.067 158.489 187.094C158.475 187.108 158.462 187.108 158.462 187.108Z" fill="white"/>
<path d="M140.17 202.124C140.738 202.907 141.4 204.013 142.211 204.013C143.198 204.013 146.159 203.001 153.216 198.94C160.192 194.92 162.247 193.409 162.328 193.152C162.423 192.909 161.747 190.009 161.747 190.009L150.255 196.458L140.17 202.124Z" fill="#000204"/>
<path d="M148.485 188.227C147.984 188.335 145.307 192.815 143.847 195.149C143.05 196.431 140.576 198.333 139.94 200.047C139.386 201.531 140.576 202.907 141.103 203.015C142.252 203.258 150.188 198.751 153.473 196.768C156.758 194.785 161.585 191.924 161.801 190.926C162.018 189.927 160.544 185.219 159.395 185.408C157.948 185.65 156.61 187.782 155.204 188.147C150.512 189.374 148.985 188.12 148.485 188.227Z" fill="#E2BD9C"/>
<path d="M152.081 192.68L145.929 192.1C145.862 192.1 145.821 192.032 145.821 191.965C145.821 191.897 145.889 191.857 145.956 191.857L152.094 192.437C152.162 192.437 152.202 192.505 152.202 192.572C152.202 192.639 152.148 192.68 152.081 192.68Z" fill="#00101E"/>
<path d="M150.783 194.191C150.783 194.191 150.769 194.178 150.783 194.191L144.861 193.584C144.793 193.584 144.753 193.516 144.753 193.449C144.753 193.382 144.821 193.341 144.888 193.341L150.796 193.948C150.864 193.948 150.904 194.016 150.904 194.083C150.891 194.137 150.837 194.191 150.783 194.191Z" fill="#00101E"/>
<path d="M158.299 193.84C158.245 193.84 158.205 193.813 158.191 193.759C157.623 192.181 157.637 190.562 158.259 189.307C158.773 188.268 159.678 187.526 160.882 187.135C160.949 187.121 161.017 187.148 161.03 187.216C161.044 187.283 161.017 187.351 160.949 187.364C159.786 187.742 158.962 188.43 158.475 189.415C157.88 190.616 157.867 192.167 158.421 193.692C158.448 193.759 158.408 193.827 158.353 193.84C158.326 193.84 158.313 193.84 158.299 193.84Z" fill="#00101E"/>
<path d="M144.01 89.5063C144.01 89.5063 143.496 97.3452 145.362 109.272C147.227 121.199 151.175 135.487 152.946 141.518C154.852 148.035 160.179 166.344 160.179 166.344C154.109 169.622 146.038 171.079 136.777 171.484C136.777 171.484 130.179 146.578 129.165 140.641C128.151 134.705 120.405 104.442 120.405 104.442L114.132 97.3587L113.861 89.1016L144.01 89.5063Z" fill="#FFD000"/>
<path d="M145.132 107.64C140.427 117.651 129.923 123.183 125.596 125.112C124.677 121.361 123.717 117.489 122.866 114.129L122.284 105.832L132.194 101.231L144.159 98.573C144.348 101.15 144.632 104.199 145.132 107.64Z" fill="#F9C435"/>
<path d="M143.564 126.879C143.55 126.879 143.523 126.879 143.51 126.866C143.455 126.839 143.428 126.758 143.455 126.704L145.024 123.722C145.051 123.668 145.132 123.641 145.186 123.668C145.24 123.695 145.267 123.776 145.24 123.83L143.672 126.812C143.645 126.852 143.604 126.879 143.564 126.879Z" fill="#00101E"/>
<path d="M72.0859 140.897C72.4374 138.833 75.966 136.27 83.6585 135.878C91.3511 135.487 96.529 138.239 96.6372 141.019C96.7588 143.812 89.7152 145.431 85.1592 145.633C80.6031 145.836 71.6397 143.609 72.0859 140.897Z" fill="#000204"/>
<path d="M74.6685 130.293L79.0352 150.315L85.8355 153.256L90.8377 153.108C89.4587 146.821 90.1347 137.646 89.2694 128.498L74.6685 130.293Z" fill="#F99173"/>
<path d="M90.8377 153.094H90.7566L88.4718 153.162L82.0771 151.61L80.9955 151.152L79.0352 150.302L76.8315 140.21C79.8869 138.901 84.5106 138.307 89.7967 139.13C89.9184 144.041 89.9995 148.602 90.6755 152.271C90.7025 152.406 90.7295 152.541 90.7566 152.676C90.7836 152.825 90.8106 152.959 90.8377 153.094Z" fill="#D1C7FF"/>
<path d="M80.2654 149.681C80.2114 149.681 80.1573 149.641 80.1438 149.587L78.5485 141.262C78.535 141.195 78.5755 141.141 78.6431 141.127C78.7107 141.114 78.7648 141.154 78.7783 141.222L80.3736 149.546C80.3871 149.614 80.3466 149.668 80.279 149.681C80.2925 149.681 80.279 149.681 80.2654 149.681Z" fill="white"/>
<path d="M82.8611 150.153C82.8071 150.153 82.753 150.113 82.7394 150.045L81.6173 140.709C81.6038 140.641 81.6579 140.587 81.7255 140.574C81.7931 140.56 81.8472 140.614 81.8607 140.682L82.9828 150.018C82.9963 150.086 82.9422 150.14 82.8746 150.153H82.8611Z" fill="white"/>
<path d="M86.0248 151.813C85.9707 151.813 85.9166 151.772 85.9031 151.705L84.8892 140.506C84.8892 140.439 84.9297 140.385 84.9973 140.371C85.0649 140.358 85.119 140.412 85.1325 140.479L86.1465 151.678C86.1465 151.745 86.0924 151.813 86.0248 151.813Z" fill="white"/>
<path d="M88.6744 150.544C88.6068 150.544 88.5663 150.49 88.5527 150.437L87.9038 140.628C87.9038 140.56 87.9444 140.506 88.012 140.506C88.0796 140.506 88.1336 140.547 88.1336 140.614L88.7826 150.423C88.7961 150.49 88.742 150.544 88.6744 150.544Z" fill="white"/>
<path d="M79.6433 141.14C79.5892 141.14 79.5352 141.1 79.5216 141.046C79.5081 140.979 79.5487 140.925 79.6163 140.911C83.4152 140.237 86.2408 140.169 88.7824 140.668C88.85 140.682 88.8906 140.749 88.8771 140.803C88.8636 140.871 88.796 140.911 88.7419 140.898C86.2273 140.398 83.4287 140.479 79.6703 141.14C79.6568 141.127 79.6568 141.14 79.6433 141.14Z" fill="white"/>
<path d="M66.7729 156.589C66.9622 157.533 67.0974 158.815 67.841 159.152C68.7333 159.571 71.8427 159.881 79.9679 159.112C87.9849 158.356 90.486 157.83 90.6753 157.641C90.8646 157.452 91.3783 154.498 91.3783 154.498L78.3185 155.631L66.7729 156.589Z" fill="#000204"/>
<path d="M78.589 148.412C78.2645 148.426 75.3308 150.247 73.0325 151.772C71.7752 152.608 68.7198 153.31 67.4355 154.605C66.3134 155.725 66.8136 157.466 67.2597 157.789C68.2061 158.491 77.3047 157.695 81.1171 157.263C84.9296 156.831 90.5131 156.224 91.135 155.415C91.7569 154.605 91.4189 149.141 90.2968 148.831C88.8908 148.453 88.4852 150.18 84.7403 150.005C80.5358 149.816 78.8999 148.399 78.589 148.412Z" fill="#E2BD9C"/>
<path d="M81.6037 152.973C81.5767 152.973 81.5632 152.973 81.5497 152.959L76.2095 149.87C76.1554 149.843 76.1284 149.762 76.1689 149.708C76.196 149.654 76.2771 149.627 76.3312 149.667L81.6713 152.757C81.7254 152.784 81.7525 152.865 81.7119 152.919C81.6849 152.946 81.6443 152.973 81.6037 152.973Z" fill="#00101E"/>
<path d="M79.7922 153.796C79.7652 153.796 79.7517 153.796 79.7382 153.782L74.6143 150.774C74.5602 150.747 74.5332 150.666 74.5737 150.612C74.6008 150.558 74.6819 150.531 74.736 150.571L79.8598 153.58C79.9139 153.607 79.9409 153.688 79.9004 153.742C79.8733 153.769 79.8328 153.796 79.7922 153.796Z" fill="#00101E"/>
<path d="M87.4441 155.253C86.4302 155.253 85.6055 154.43 85.6055 153.418C85.6055 152.406 86.4302 151.583 87.4441 151.583C88.4581 151.583 89.2828 152.406 89.2828 153.418C89.2692 154.43 88.4581 155.253 87.4441 155.253ZM87.4441 151.826C86.5653 151.826 85.8488 152.541 85.8488 153.418C85.8488 154.295 86.5653 155.01 87.4441 155.01C88.3229 155.01 89.0394 154.295 89.0394 153.418C89.0394 152.541 88.3229 151.826 87.4441 151.826Z" fill="white"/>
<path d="M113.536 93.3919C113.536 93.3919 101.288 91.8403 91.5403 91.7189C81.7117 91.5975 77.5748 93.4054 75.3035 96.4006C72.1264 100.583 71.0179 110.257 71.0314 121.577C71.0449 133.774 72.0859 141.019 72.0859 141.019C72.0859 141.019 74.5059 137.025 85.051 137.16C95.5962 137.295 96.6642 141.019 96.6642 141.019C96.6642 141.019 94.7985 128.633 93.3249 121.307C91.8513 113.981 90.3912 110.257 90.3912 110.257C90.3912 110.257 95.8531 113.333 110.792 114.399C125.745 115.465 135.695 113.482 140.562 109.731C145.185 106.169 145.185 97.1427 144.036 91.7459C144.036 91.7459 121.554 88.9665 113.455 89.9514L113.536 93.3919Z" fill="#FFCC42"/>
<path d="M125.163 95.9284C125.123 95.9284 125.082 95.9014 125.055 95.8609C124.704 95.2403 120.986 94.2959 117.079 93.8236C113.023 93.3379 107.642 92.9467 107.588 92.9467C107.521 92.9467 107.48 92.8792 107.48 92.8252C107.48 92.7578 107.548 92.7173 107.602 92.7173C107.656 92.7173 113.036 93.122 117.092 93.5943C120.756 94.026 124.812 94.957 125.245 95.753C125.272 95.807 125.258 95.8879 125.204 95.9149C125.204 95.9149 125.19 95.9284 125.163 95.9284Z" fill="#00101E"/>
<path d="M96.651 141.019C96.5834 140.803 95.2585 137.295 85.0378 137.174C82.4015 137.147 80.279 137.363 78.562 137.727C86.0788 125.908 87.0252 107.815 87.0252 107.815C87.8634 109.002 89.0666 109.825 90.4456 110.459C90.7565 111.296 92.0274 114.952 93.3117 121.321C94.7583 128.525 96.5834 140.614 96.651 141.019Z" fill="#FFD000"/>
<path d="M110.684 114.17C110.63 114.17 105.277 113.994 96.9216 112.308C88.526 110.621 86.5522 107.289 86.471 107.14C86.444 107.086 86.4575 107.005 86.5116 106.978C86.5657 106.951 86.6468 106.965 86.6738 107.019C86.6873 107.046 88.6882 110.405 96.9621 112.065C105.304 113.738 110.63 113.913 110.684 113.913C110.752 113.913 110.806 113.967 110.806 114.035C110.792 114.116 110.752 114.17 110.684 114.17Z" fill="#00101E"/>
<path d="M172.062 89.0882C172.062 89.0882 171.94 92.2184 171.926 94.6604C171.913 96.5628 171.845 100.3 172.859 100.152C173.873 100.003 174.82 98.1009 175.049 94.539C175.049 94.539 178.267 92.785 177.28 90.3295C176.293 87.8739 173.995 86.8215 173.995 86.8215L172.062 89.0882Z" fill="#F99173"/>
<path d="M174.806 96.6033C174.198 97.3319 172.711 97.3454 171.954 97.3049C171.913 96.374 171.926 95.389 171.926 94.6605C171.926 93.8509 171.954 92.9605 171.967 92.1375C172.94 92.6367 174.536 93.689 174.982 95.3081C174.995 95.3351 174.995 95.3621 175.009 95.389C175.144 95.9152 175.036 96.32 174.806 96.6033Z" fill="#F47B5A"/>
<path d="M203.436 84.3274L154.661 103.26L167.237 135.526L216.012 116.594L203.436 84.3274Z" fill="#A5BFF4"/>
<g opacity="0.3">
<path opacity="0.3" d="M216 116.572L189.218 126.974C193.964 121.307 202.224 109.745 206.929 93.3113L216 116.572Z" fill="#D7B8FF"/>
</g>
<path d="M203.434 84.3201L154.659 103.253L157.065 109.427L205.84 90.4942L203.434 84.3201Z" fill="#D1C7FF"/>
<path d="M183.256 106.871C183.161 106.871 183.066 106.817 183.039 106.722C182.985 106.601 183.053 106.466 183.175 106.412L203.386 98.5733C203.508 98.5193 203.643 98.5867 203.697 98.7082C203.751 98.8296 203.684 98.9645 203.562 99.0185L183.337 106.857C183.31 106.871 183.283 106.871 183.256 106.871Z" fill="#00101E"/>
<path d="M185.649 113.037C185.554 113.037 185.459 112.983 185.432 112.888C185.378 112.767 185.446 112.632 185.568 112.578L205.779 104.739C205.901 104.699 206.036 104.753 206.09 104.874C206.144 104.995 206.077 105.13 205.955 105.184L185.743 113.023C185.716 113.023 185.676 113.037 185.649 113.037Z" fill="#00101E"/>
<path d="M188.055 119.189C187.96 119.189 187.866 119.135 187.839 119.041C187.785 118.919 187.852 118.784 187.974 118.731L208.185 110.892C208.307 110.838 208.442 110.905 208.496 111.027C208.55 111.148 208.483 111.283 208.361 111.337L188.15 119.176C188.109 119.189 188.082 119.189 188.055 119.189Z" fill="#00101E"/>
<path d="M177.956 105.972L162.282 112.056L168.927 129.107L184.602 123.023L177.956 105.972Z" fill="#D7B8FF"/>
<path d="M177.983 123.236C177.97 123.236 177.942 123.236 177.929 123.223C177.875 123.196 177.848 123.115 177.875 123.061L180.917 117.3C180.944 117.246 181.025 117.219 181.079 117.246C181.133 117.273 181.16 117.354 181.133 117.408L178.091 123.169C178.064 123.209 178.024 123.236 177.983 123.236Z" fill="#00101E"/>
<path d="M180.566 121.469C180.552 121.469 180.525 121.469 180.511 121.456C180.457 121.429 180.43 121.348 180.457 121.294L181.39 119.54C181.417 119.486 181.498 119.459 181.552 119.486C181.607 119.513 181.634 119.594 181.607 119.648L180.674 121.402C180.647 121.442 180.606 121.469 180.566 121.469Z" fill="#00101E"/>
<path d="M162.774 80.939C163.464 82.5041 167.236 81.5596 167.939 81.2223C168.642 80.885 165.6 75.812 165.6 75.812C165.6 75.812 161.503 78.0382 162.774 80.939Z" fill="#000204"/>
<path d="M179.674 88.6159L172.265 90.235L163.842 77.7009C164.451 77.0667 165.37 76.3651 166.708 75.6501C171.859 72.9112 175.158 74.3548 175.266 74.3953C176.591 77.512 179.674 88.6159 179.674 88.6159Z" fill="#F99173"/>
<path d="M181.607 97.1968L173.996 93.0278L174.699 88.8992L179.174 87.8604C179.174 87.8604 180.891 90.154 182.08 92.6905C183.27 95.227 184.392 100.179 183.243 101.298C182.405 102.121 181.607 97.1968 181.607 97.1968Z" fill="#F99173"/>
<path d="M174.712 94.0937C174.712 94.0937 175.686 98.4382 175.916 99.2477C176.145 100.057 177.092 103.795 177.903 103.835C178.89 103.889 178.836 100.732 178.674 99.3151C178.525 98.0469 178.336 93.608 178.336 93.608C176.551 92.4207 175.267 92.4072 174.712 94.0937Z" fill="#F99173"/>
<path d="M177.808 94.1611C177.808 94.1611 178.403 98.573 178.565 99.396C178.727 100.232 178.836 104.321 179.755 104.429C180.742 104.55 180.999 100.867 181.134 99.5984C181.269 98.3301 181.445 93.9722 181.445 93.9722L177.808 94.1611Z" fill="#F99173"/>
<path d="M177.673 93.2841C177.673 93.2841 179.255 97.4397 179.606 98.2087C179.958 98.9778 181.12 102.917 181.918 102.837C182.905 102.742 182.499 99.1397 182.337 97.8714C182.175 96.6032 181.174 92.2722 181.174 92.2722L177.673 93.2841Z" fill="#F99173"/>
<path d="M178.687 101.136C178.619 101.136 178.565 101.082 178.565 101.015C178.538 99.2611 178.308 97.5071 177.862 95.7936C177.848 95.7261 177.889 95.6722 177.943 95.6452C178.011 95.6317 178.065 95.6722 178.092 95.7261C178.538 97.4531 178.781 99.2206 178.808 101.002C178.808 101.082 178.754 101.136 178.687 101.136Z" fill="#00101E"/>
<path d="M180.945 102.067C180.877 102.067 180.823 102.013 180.823 101.946C180.796 99.5714 180.526 97.3452 180.026 95.3349C180.012 95.2674 180.053 95.2134 180.107 95.1865C180.174 95.173 180.228 95.2134 180.255 95.2674C180.769 97.2912 181.04 99.5309 181.067 101.932C181.067 102.013 181.012 102.067 180.945 102.067Z" fill="#00101E"/>
<path d="M182.553 101.109C182.486 101.109 182.432 101.055 182.432 101.001C182.337 99.1935 182.134 97.4261 181.823 95.7396C181.81 95.6721 181.85 95.6181 181.918 95.6046C181.986 95.5911 182.04 95.6316 182.053 95.6991C182.364 97.3991 182.567 99.18 182.662 100.988C182.675 101.042 182.635 101.109 182.553 101.109C182.567 101.109 182.567 101.109 182.553 101.109Z" fill="#00101E"/>
<path d="M179.106 89.25C179.052 89.25 178.998 89.2096 178.984 89.1421C178.89 88.508 178.606 87.4556 178.606 87.4421C178.592 87.3746 178.619 87.3071 178.687 87.2937C178.755 87.2802 178.822 87.3071 178.836 87.3746C178.849 87.4151 179.133 88.454 179.228 89.1016C179.241 89.1691 179.187 89.2231 179.133 89.2365C179.12 89.25 179.12 89.25 179.106 89.25Z" fill="#00101E"/>
<path d="M73.5596 78.4431C73.5596 78.4431 72.7349 84.3122 75.1954 84.3931C77.6695 84.4741 78.7375 80.2106 78.7375 80.2106L73.5596 78.4431Z" fill="#000204"/>
<path d="M53.9564 63.3994C53.9564 63.3994 51.0227 61.2541 49.6978 60.4851C48.2647 59.6486 43.8979 56.6668 42.911 57.4763C41.8159 58.3668 46.3855 62.347 47.3589 63.2644C48.2512 64.101 51.6851 66.543 51.6851 66.543L53.9564 63.3994Z" fill="#F99173"/>
<path d="M48.4 63.9795C48.3189 63.9525 46.291 63.7501 45.8719 65.1667C45.5474 66.2596 46.3721 67.2445 47.0075 67.4739C47.6294 67.7033 52.5234 66.7993 52.5234 66.7993L48.4 63.9795Z" fill="#F99173"/>
<path d="M46.8586 66.8669C46.8586 66.8669 46.0609 67.474 46.142 68.5804C46.2096 69.6328 46.8721 70.105 47.4534 70.2534C47.4534 70.2534 46.5746 71.4677 48.0212 72.2368C49.4678 72.9923 51.658 73.3566 53.1316 73.532C54.5511 73.7074 57.5524 73.8153 58.9314 73.4645L61.4596 65.8145C57.1874 63.9256 51.9283 64.8836 46.8586 66.8669Z" fill="#F99173"/>
<path d="M61.2298 65.7065C61.2298 65.7065 60.0266 64.7891 58.5935 63.4399C57.8364 62.7248 56.9036 61.2542 55.6598 61.2542C54.443 61.2542 51.4147 63.9526 50.4818 64.7891C49.549 65.6256 48.7514 66.5565 48.9406 67.0287C49.1299 67.4875 51.0361 67.6764 52.8072 66.8938C54.5782 66.0978 55.1325 65.5041 55.1325 65.5041C55.1325 65.5041 55.5516 69.228 58.0662 69.97C60.5944 70.7121 61.2298 65.7065 61.2298 65.7065Z" fill="#F99173"/>
<path d="M55.5651 71.0359C55.5381 71.0359 55.511 71.0224 55.484 71.0089C53.7805 69.6193 53.8346 67.2851 53.9022 66.57C53.2668 66.8669 51.2119 67.7573 49.914 67.8248C49.0352 67.8653 48.6972 67.582 48.5756 67.3256C48.4268 67.0288 48.508 66.6105 48.7784 66.2597C49.6301 65.2073 52.7396 62.6978 52.8612 62.5899C52.9153 62.5494 52.9829 62.5494 53.0235 62.6034C53.064 62.6573 53.0505 62.7248 53.0099 62.7653C52.9829 62.7923 49.7923 65.3693 48.9541 66.4081C48.7919 66.6105 48.6432 66.9478 48.7784 67.2177C48.9135 67.474 49.3056 67.6089 49.8869 67.582C51.347 67.5145 53.9428 66.2732 53.9698 66.2597C54.0104 66.2462 54.0509 66.2462 54.0915 66.2732C54.1321 66.3002 54.1456 66.3407 54.1321 66.3812C54.1321 66.4081 53.7129 69.282 55.6057 70.8201C55.6597 70.8605 55.6597 70.9415 55.6192 70.9819C55.6327 71.0224 55.5922 71.0359 55.5651 71.0359Z" fill="#00101E"/>
<path d="M50.9008 72.1018C50.6439 72.1018 50.4411 72.0883 50.3735 72.0748C50.3059 72.0748 50.2654 72.0074 50.2654 71.9534C50.2654 71.8859 50.333 71.832 50.387 71.8455C51.1171 71.9129 52.3068 71.8455 52.3744 71.4137C52.4014 71.2518 52.3203 71.0899 52.1446 70.955C51.1982 70.2129 47.9941 70.1724 47.4804 70.3748C47.4263 70.4018 47.3452 70.3748 47.3317 70.3074C47.3046 70.2534 47.3317 70.1724 47.3992 70.159C47.9535 69.9296 51.2523 69.9431 52.2933 70.7661C52.5366 70.9685 52.6448 71.1844 52.6042 71.4407C52.5231 72.0074 51.5362 72.1018 50.9008 72.1018Z" fill="#00101E"/>
<path d="M48.6835 67.4334C47.8994 67.3525 47.1829 67.3525 46.561 67.4064C46.4934 67.4064 46.4393 67.3659 46.4258 67.2985C46.4258 67.231 46.4663 67.177 46.5339 67.1636C47.1829 67.0961 47.8994 67.1096 48.6971 67.1905C48.7646 67.1905 48.8052 67.258 48.8052 67.3255C48.8052 67.3794 48.7511 67.4334 48.6835 67.4334Z" fill="#00101E"/>
<path d="M50.4415 70.3612C50.3739 70.3612 50.3063 70.3612 50.2387 70.3612C50.1711 70.3612 50.117 70.3072 50.117 70.2398C50.117 70.1723 50.1711 70.1319 50.2387 70.1184C51.5501 70.1588 52.199 69.862 52.2531 69.2144C52.2936 68.6208 50.7795 67.9731 50.1846 67.7842C50.117 67.7573 50.09 67.7033 50.1035 67.6358C50.1305 67.5684 50.1981 67.5414 50.2522 67.5549C50.482 67.6358 52.5505 68.3374 52.4829 69.2279C52.4288 69.9969 51.7664 70.3612 50.4415 70.3612Z" fill="#00101E"/>
<path d="M49.8602 65.3287C49.8332 65.3287 49.8061 65.3152 49.7791 65.3017L46.3452 62.4818C46.2911 62.4414 46.2911 62.3604 46.3316 62.3199C46.3722 62.266 46.4533 62.266 46.4939 62.3064L49.9278 65.1263C49.9819 65.1668 49.9819 65.2477 49.9413 65.2882C49.9413 65.3152 49.9008 65.3287 49.8602 65.3287Z" fill="#00101E"/>
<path d="M86.6054 70.294L61.3917 65.7876L58.7148 73.3567C58.7148 73.3567 67.8405 77.917 73.8025 79.8464C77.0202 80.8852 87.3085 82.3424 87.3085 82.3424L86.6054 70.294Z" fill="#F99173"/>
<path d="M60.1887 74.3146C60.1752 74.3146 60.1482 74.3146 60.1346 74.3011L58.2419 73.2892C58.1879 73.2622 58.1608 73.1813 58.1879 73.1273C58.2149 73.0733 58.296 73.0463 58.3501 73.0733L60.2428 74.0852C60.2969 74.1122 60.3239 74.1932 60.2969 74.2471C60.2698 74.2876 60.2293 74.3146 60.1887 74.3146Z" fill="#00101E"/>
<path d="M77.8314 77.2153C77.7232 78.632 77.561 79.7788 77.3582 80.6828C75.9116 80.3995 74.6273 80.1026 73.8026 79.8328C71.1393 78.9693 67.8405 77.5796 65.0015 76.3114C67.6242 76.8106 71.0717 77.0804 73.2483 75.6907C75.7224 74.1122 75.2627 70.5503 74.6002 68.1487L75.4655 68.2971C75.4655 68.2971 78.3722 69.7272 77.8314 77.2153Z" fill="#F47B5A"/>
<path d="M162.774 80.9387C162.774 80.9387 161.463 78.4427 166.708 75.6498C171.954 72.8704 175.28 74.3951 175.28 74.3951C175.28 74.3951 173.157 69.5109 171.44 66.2054C169.737 62.9133 167.912 61.6585 166.6 60.8085C165.289 59.9585 146.916 50.0284 143.428 49.5292C141.414 49.2459 145.118 67.2578 145.118 67.2578C145.118 67.2578 151.648 70.8871 159.002 71.5482C160.381 75.407 161.814 79.6165 162.774 80.9387Z" fill="#9D6CDD"/>
<path d="M143.428 49.5428C143.428 49.5428 141.819 49.1785 138.223 49.1785C134.627 49.1785 130.422 48.6658 130.422 48.6658L115.727 51.5126C115.727 51.5126 110.549 52.8888 106.953 55.1015C106.953 55.1015 109.724 64.1412 110.549 69.0253C111.373 73.9094 112.455 81.8832 109.684 92.0293C111.968 92.3666 115.294 92.1777 122.094 91.3412C131.396 90.2078 141.035 91.2467 145.28 93.2705C149.525 95.2943 149.985 96.8594 150.269 98.1547C150.539 97.2912 150.377 94.4848 147.998 89.2904C147.038 87.1991 146.429 84.2443 146.159 80.9388C145.753 75.9332 145.97 70.1856 145.469 65.8007C144.645 58.515 143.428 49.5428 143.428 49.5428Z" fill="#9D6CDD"/>
<path d="M106.952 55.115C106.952 55.115 101.491 58.3396 95.6232 63.0213L86.6057 70.2936C86.6057 70.2936 82.1173 69.0523 75.4657 68.2967C75.4657 68.2967 78.3724 69.7269 77.8316 77.215C77.3179 84.3253 75.1953 84.3928 75.1953 84.3928C75.1953 84.3928 82.6175 85.0809 89.9721 83.0031C97.3266 80.9118 112.266 71.0626 112.266 71.0626L106.952 55.115Z" fill="#9D6CDD"/>
<path d="M120.107 23.0849C121.216 22.8151 121.743 21.3175 123.027 21.2365C124.758 21.1286 126.164 22.9365 126.732 26.1341C127.002 27.6317 127.07 29.9254 127.083 32.327C127.097 35.0524 126.988 37.8722 126.015 39.2619L112.198 37.4944C112.198 37.4944 111.103 38.4794 108.832 35.727C106.561 32.9746 105.479 29.6286 106.736 27.0516C107.804 24.8524 110.873 23.0984 114.01 22.8016C117.511 22.4643 118.904 23.3817 120.107 23.0849Z" fill="#222654"/>
<path d="M111.468 37.6564C110.914 37.5889 110.035 37.1842 108.832 35.727C107.426 34.027 106.479 32.0842 106.25 30.2493C106.831 30.5191 108.264 31.0723 110.4 31.0318V31.0453C110.143 32.7048 110.305 34.5667 110.995 36.5096C111.144 36.8874 111.292 37.2786 111.468 37.6564Z" fill="#191B45"/>
<path d="M117.376 51.2158C121.959 52.619 125.731 52.2547 128.421 49.4753L125.555 36.3206L115.564 37.6428L117.376 51.2158Z" fill="#F99173"/>
<path d="M115.74 38.8975L116.619 45.5086C121.053 47.3705 125.542 45.3872 127.326 44.3887L125.569 36.334C125.569 36.334 116.119 38.3983 115.74 38.8975Z" fill="#F47B5A"/>
<path d="M110.995 36.4962C112.86 41.7581 117.89 45.5493 121.729 44.2001C125.569 42.8374 126.758 36.847 124.893 31.5851C123.027 26.3232 118.809 23.7866 114.97 25.1493C111.143 26.4986 109.129 31.2343 110.995 36.4962Z" fill="#F99173"/>
<path d="M121.729 44.3082C121.675 44.3082 121.634 44.2812 121.621 44.2272C121.594 44.1598 121.634 44.0923 121.689 44.0788C123.095 43.5796 124.203 42.4328 124.893 40.7328C124.92 40.6788 124.987 40.6383 125.041 40.6653C125.095 40.6923 125.136 40.7598 125.109 40.8137C124.392 42.5677 123.243 43.7685 121.77 44.2947C121.756 44.3082 121.743 44.3082 121.729 44.3082Z" fill="#00101E"/>
<path d="M109.589 31.0319C109.589 31.0319 110.697 31.4231 113.996 29.6827C117.281 27.9422 119.701 26.2961 121.067 26.4041C122.419 26.4985 122.378 30.02 124.325 30.2763L125.433 29.7366C125.433 29.7366 123.406 25.635 121.851 24.812C120.296 23.989 116.186 23.0715 113.577 24.7176C110.941 26.3501 107.845 30.1684 109.589 31.0319Z" fill="#222654"/>
<path d="M116.93 37.7239C116.768 37.7239 116.646 37.6969 116.565 37.616C116.43 37.481 116.389 37.1033 116.335 36.4422C116.322 36.2938 116.308 36.1318 116.295 35.9699C116.2 34.9985 116.078 33.9866 116.078 33.9866C116.065 33.9192 116.119 33.8652 116.186 33.8517C116.254 33.8382 116.308 33.8922 116.322 33.9596C116.322 33.9596 116.443 34.9715 116.538 35.943C116.551 36.1049 116.565 36.2668 116.578 36.4152C116.619 36.8334 116.66 37.3596 116.741 37.4406C116.903 37.6025 117.863 37.3057 118.66 36.9279C118.715 36.9009 118.796 36.9279 118.823 36.9818C118.85 37.0358 118.823 37.1168 118.769 37.1437C118.431 37.3057 117.498 37.7239 116.93 37.7239Z" fill="#00101E"/>
<path d="M116.768 40.1391C116.7 40.1391 116.66 40.0986 116.646 40.0311C116.646 39.9637 116.687 39.9097 116.754 39.9097C116.768 39.9097 118.62 39.7343 120.161 38.2772C121.459 37.0359 121.297 35.4708 121.283 35.4573C121.27 35.3899 121.324 35.3359 121.391 35.3224C121.459 35.3089 121.513 35.3629 121.527 35.4303C121.54 35.4978 121.716 37.1303 120.323 38.4526C118.728 39.9502 116.862 40.1256 116.768 40.1391C116.781 40.1391 116.781 40.1391 116.768 40.1391Z" fill="#00101E"/>
<path d="M120.161 39.8151C120.121 39.8151 120.067 39.7881 120.053 39.7476C120.026 39.6937 120.053 39.6127 120.107 39.5857C120.689 39.3294 121.094 38.9111 121.297 38.3849C121.324 38.3175 121.392 38.2905 121.446 38.3175C121.513 38.3445 121.54 38.4119 121.513 38.4659C121.283 39.0595 120.837 39.5183 120.202 39.8016C120.188 39.8151 120.175 39.8151 120.161 39.8151Z" fill="#00101E"/>
<path d="M121.324 30.5058C121.324 30.5058 120.242 29.2645 118.931 29.4534C117.984 29.5883 116.943 30.209 116.727 30.6002C116.646 30.7486 116.781 30.978 116.862 31.0725C117.133 31.3963 118.458 30.4518 119.147 30.3169C119.931 30.1955 121.324 30.5058 121.324 30.5058Z" fill="#222654"/>
<path d="M110.711 34.6209C110.711 34.6209 110.697 32.9748 111.806 32.2598C112.604 31.7471 113.672 31.5582 114.104 31.7066C114.267 31.7606 114.321 32.0304 114.321 32.1518C114.334 32.5701 112.82 32.6915 112.225 33.0558C111.549 33.4606 110.711 34.6209 110.711 34.6209Z" fill="#222654"/>
<path d="M119.688 32.8804C119.809 33.3121 119.674 33.7304 119.377 33.8113C119.079 33.8923 118.741 33.6089 118.62 33.1772C118.498 32.7454 118.633 32.3272 118.931 32.2462C119.228 32.1653 119.566 32.4486 119.688 32.8804Z" fill="#000204"/>
<path d="M113.969 35.4438C114.091 35.8756 113.956 36.2938 113.658 36.3748C113.361 36.4557 113.023 36.1724 112.901 35.7407C112.779 35.3089 112.915 34.8907 113.212 34.8097C113.509 34.7287 113.847 35.0121 113.969 35.4438Z" fill="#000204"/>
<path d="M123.176 32.9208C123.257 34.6073 123.757 36.1319 124.893 36.0644C126.029 36.0105 127.408 34.297 127.326 32.6105C127.245 30.924 126.245 29.3319 125.123 29.3859C123.987 29.4533 123.095 31.2343 123.176 32.9208Z" fill="#F99173"/>
<path d="M124.893 34.6343C124.839 34.6343 124.785 34.5938 124.771 34.5264C124.582 33.0827 124.893 31.7875 125.704 30.6811C125.744 30.6272 125.812 30.6137 125.866 30.6542C125.92 30.6946 125.934 30.7621 125.893 30.8161C125.123 31.8684 124.825 33.1097 125.001 34.4859C125.014 34.5534 124.96 34.6073 124.893 34.6208C124.906 34.6343 124.893 34.6343 124.893 34.6343Z" fill="#00101E"/>
<path d="M124.96 33.0422C124.92 33.0422 124.879 33.0153 124.852 32.9748C124.825 32.9208 124.852 32.8399 124.906 32.8129C125.393 32.5835 125.839 32.4756 126.38 32.4756C126.447 32.4756 126.501 32.5296 126.501 32.597C126.501 32.6645 126.447 32.7184 126.38 32.7184C125.866 32.7184 125.46 32.8129 125.001 33.0288C124.987 33.0288 124.974 33.0422 124.96 33.0422Z" fill="#00101E"/>
<g opacity="0.5">
<path opacity="0.5" d="M111.144 71.7911C107.534 74.1117 96.11 81.2625 89.9857 83.003C86.8762 83.88 83.7533 84.2713 81.1846 84.4197C82.3743 83.4482 85.5243 81.2895 91.581 79.576C99.6251 77.2959 104.857 70.8871 106.155 68.7689C107.534 66.5157 108.656 65.0451 109.629 65.207C110.535 65.3554 110.873 69.376 111.049 70.5228C111.076 70.8602 111.117 71.3324 111.144 71.7911Z" fill="#CC3B1E"/>
</g>
<g opacity="0.5">
<path opacity="0.5" d="M148.16 89.6549C143.59 88.0628 133.194 86.7001 131.99 84.258C131.274 82.8009 133.329 79.5358 138.885 76.7699C143.198 74.6112 145.158 72.466 145.807 71.616C145.902 74.6922 145.915 77.9572 146.159 80.9525C146.429 84.258 147.038 87.2128 147.997 89.3041C148.052 89.4255 148.106 89.5334 148.16 89.6549Z" fill="#CC3B1E"/>
</g>
<g opacity="0.5">
<path opacity="0.5" d="M172.197 67.7301C163.761 66.7317 163.112 61.3214 163.247 58.9468C165.032 59.9182 166.276 60.6198 166.587 60.8087C167.898 61.6587 169.723 62.9134 171.427 66.2055C171.684 66.6912 171.94 67.2039 172.197 67.7301Z" fill="#CC3B1E"/>
</g>
<path d="M162.842 80.9794C162.801 80.9794 162.761 80.9524 162.734 80.9119C161.382 78.4159 159.76 74.4492 157.596 68.4588C157.569 68.3913 157.61 68.3238 157.664 68.3103C157.732 68.2834 157.799 68.3238 157.813 68.3778C159.976 74.3548 161.598 78.308 162.937 80.7905C162.964 80.8445 162.95 80.9254 162.883 80.9524C162.883 80.9794 162.856 80.9794 162.842 80.9794Z" fill="#00101E"/>
<path d="M83.794 72.9111C83.7534 72.9111 83.7264 72.8976 83.6993 72.8706C83.6588 72.8167 83.6588 72.7492 83.7128 72.7088L92.5275 65.396C92.5816 65.3556 92.6492 65.3556 92.6897 65.4095C92.7303 65.4635 92.7303 65.531 92.6762 65.5714L83.8616 72.8841C83.8345 72.9111 83.8075 72.9111 83.794 72.9111Z" fill="#00101E"/>
<path d="M111.036 72.0343C111.009 72.0343 110.982 72.0208 110.954 72.0073C109.535 70.847 108.359 68.6478 108.318 68.5534C108.291 68.4994 108.305 68.4184 108.372 68.3914C108.426 68.3645 108.507 68.378 108.535 68.4454C108.548 68.4724 109.738 70.6986 111.117 71.8319C111.171 71.8724 111.171 71.9533 111.13 71.9938C111.117 72.0208 111.076 72.0343 111.036 72.0343Z" fill="#00101E"/>
<path d="M109.792 92.0296C109.778 92.0296 109.778 92.0296 109.765 92.0296C109.697 92.0161 109.657 91.9487 109.67 91.8812C109.684 91.8138 111.238 84.8923 111.157 75.9066C111.117 71.6431 110.725 69.5384 110.008 66.1653C109.995 66.0979 110.035 66.0439 110.103 66.0304C110.17 66.0169 110.224 66.0574 110.238 66.1249C110.954 69.4979 111.346 71.6161 111.387 75.9066C111.468 84.9193 109.9 91.8677 109.886 91.9352C109.9 91.9892 109.846 92.0296 109.792 92.0296Z" fill="#00101E"/>
<path d="M145.916 76.2573C145.848 76.2573 145.794 76.2033 145.794 76.1358C145.632 70.6311 145.132 63.8716 145.132 63.7906C145.132 63.7232 145.172 63.6692 145.24 63.6692C145.308 63.6692 145.362 63.7097 145.362 63.7771C145.362 63.8446 145.862 70.6176 146.024 76.1223C146.038 76.2033 145.984 76.2573 145.916 76.2573Z" fill="#00101E"/>
<path d="M124.704 62.455C124.677 62.455 124.65 62.4415 124.623 62.428C124.596 62.4145 124.582 62.3741 124.582 62.3471L123.676 51.8772C123.676 51.8098 123.717 51.7558 123.784 51.7423C123.852 51.7288 123.906 51.7828 123.92 51.8503L124.812 62.1987L127.286 61.9288C127.354 61.9153 127.408 61.9693 127.421 62.0368C127.435 62.1042 127.381 62.1582 127.313 62.1717L124.704 62.455C124.717 62.455 124.717 62.455 124.704 62.455Z" fill="#00101E"/>
<path d="M114.591 51.9986L117.011 48.5042L122.946 51.7153L122.757 55.6819L114.591 51.9986Z" fill="#FF7847"/>
<path d="M122.757 55.7627C122.744 55.7627 122.73 55.7627 122.703 55.7492L114.537 52.1064C114.483 52.0794 114.456 52.0119 114.483 51.9445C114.51 51.8905 114.578 51.8635 114.645 51.8905L122.649 55.4659L122.757 51.7286C122.757 51.6611 122.811 51.6207 122.879 51.6072C122.946 51.6072 123.001 51.6611 123.001 51.7286L122.879 55.6413C122.879 55.6818 122.852 55.7222 122.825 55.7357C122.798 55.7627 122.771 55.7627 122.757 55.7627Z" fill="#00101E"/>
<path d="M124.569 51.7287L127.895 46.8311L131.41 48.666L127.124 55.2096L124.569 51.7287Z" fill="#FF7847"/>
<path d="M127.259 55.2637C127.219 55.2637 127.192 55.2502 127.165 55.2232L124.461 51.7827C124.434 51.7422 124.42 51.6883 124.461 51.6478L126.367 48.8549C126.407 48.801 126.475 48.7875 126.529 48.8279C126.583 48.8684 126.597 48.9359 126.556 48.9899L124.704 51.7153L127.259 54.9534L131.315 48.6121C131.356 48.5581 131.423 48.5446 131.477 48.5716C131.531 48.6121 131.545 48.6795 131.518 48.7335L127.367 55.2097C127.34 55.2502 127.3 55.2637 127.259 55.2637Z" fill="#00101E"/>
</g>
<defs>
<clipPath id="clip0">
<rect width="216" height="204" fill="white"/>
</clipPath>
</defs>
</svg>
