<svg width="202" height="261" viewBox="0 0 202 261" fill="none" xmlns="http://www.w3.org/2000/svg">
<path d="M59.3068 116.853C92.0611 116.853 118.614 90.6947 118.614 58.4266C118.614 26.1585 92.0611 0 59.3068 0C26.5526 0 0 26.1585 0 58.4266C0 90.6947 26.5526 116.853 59.3068 116.853Z" fill="#F2E8FF"/>
<g opacity="0.2">
<path opacity="0.2" d="M54.7585 30.4486C54.7585 51.3726 37.5461 68.3381 16.3205 68.3381C10.6425 68.3381 5.23208 67.1177 0.356733 64.945C0.118911 62.802 0 60.6292 0 58.4267C0 31.9963 17.8069 9.67333 42.2134 2.47046C49.9129 9.37569 54.7585 19.3764 54.7585 30.4486Z" fill="white"/>
</g>
<path d="M145.755 159.565C147.135 159.565 148.253 158.445 148.253 157.065C148.253 155.684 147.135 154.564 145.755 154.564C144.376 154.564 143.258 155.684 143.258 157.065C143.258 158.445 144.376 159.565 145.755 159.565Z" fill="#E2BD9C"/>
<path d="M167.516 167.601C166.357 167.601 165.435 166.678 165.435 165.518C165.435 164.357 166.357 163.434 167.516 163.434C168.675 163.434 169.597 164.357 169.597 165.518C169.597 166.649 168.646 167.601 167.516 167.601ZM167.516 164.029C166.713 164.029 166.03 164.684 166.03 165.518C166.03 166.351 166.684 167.006 167.516 167.006C168.319 167.006 169.002 166.351 169.002 165.518C169.002 164.684 168.319 164.029 167.516 164.029Z" fill="#E2BD9C"/>
<path d="M165.435 136.319C163.651 136.319 162.195 134.861 162.195 133.075C162.195 131.289 163.651 129.831 165.435 129.831C167.219 129.831 168.675 131.289 168.675 133.075C168.675 134.861 167.219 136.319 165.435 136.319ZM165.435 130.456C163.978 130.456 162.819 131.646 162.819 133.075C162.819 134.533 164.008 135.694 165.435 135.694C166.862 135.694 168.051 134.504 168.051 133.075C168.081 131.616 166.892 130.456 165.435 130.456Z" fill="#FFCC7F"/>
<path d="M148.223 193.615C148.045 193.615 147.926 193.466 147.926 193.317V188.317C147.926 188.138 148.074 188.019 148.223 188.019C148.401 188.019 148.52 188.168 148.52 188.317V193.317C148.52 193.496 148.372 193.615 148.223 193.615Z" fill="#00101E"/>
<path d="M150.72 191.115H145.726C145.548 191.115 145.429 190.966 145.429 190.817C145.429 190.638 145.577 190.519 145.726 190.519H150.72C150.899 190.519 151.018 190.668 151.018 190.817C151.018 190.995 150.869 191.115 150.72 191.115Z" fill="#00101E"/>
<path d="M38.9735 159.505C36.1494 159.505 33.8604 157.213 33.8604 154.386C33.8604 151.558 36.1494 149.266 38.9735 149.266C41.7977 149.266 44.0867 151.558 44.0867 154.386C44.0867 157.184 41.7679 159.505 38.9735 159.505ZM38.9735 149.862C36.4764 149.862 34.4549 151.886 34.4549 154.386C34.4549 156.886 36.4764 158.91 38.9735 158.91C41.4707 158.91 43.4921 156.886 43.4921 154.386C43.4624 151.886 41.4409 149.862 38.9735 149.862Z" fill="#B25833"/>
<path d="M49.0213 138.819C47.9808 138.819 47.1484 137.986 47.1484 136.944C47.1484 135.902 47.9808 135.069 49.0213 135.069C50.0618 135.069 50.8941 135.902 50.8941 136.944C50.8941 137.986 50.032 138.819 49.0213 138.819ZM49.0213 135.664C48.3078 135.664 47.743 136.23 47.743 136.944C47.743 137.658 48.3078 138.224 49.0213 138.224C49.7347 138.224 50.2996 137.658 50.2996 136.944C50.2996 136.23 49.705 135.664 49.0213 135.664Z" fill="#B1B196"/>
<path d="M29.9657 133.819C29.7874 133.819 29.6685 133.67 29.6685 133.521V128.521C29.6685 128.342 29.8171 128.223 29.9657 128.223C30.1441 128.223 30.263 128.372 30.263 128.521V133.521C30.263 133.67 30.1441 133.819 29.9657 133.819Z" fill="#B1B196"/>
<path d="M32.4629 131.289H27.4687C27.2903 131.289 27.1714 131.14 27.1714 130.991C27.1714 130.813 27.32 130.694 27.4687 130.694H32.4629C32.6413 130.694 32.7602 130.842 32.7602 130.991C32.7602 131.17 32.6413 131.289 32.4629 131.289Z" fill="#B1B196"/>
<path d="M161.838 64.8558C160.47 64.8558 159.341 63.7248 159.341 62.3556C159.341 60.9865 160.47 59.8555 161.838 59.8555C163.205 59.8555 164.335 60.9865 164.335 62.3556C164.335 63.7545 163.205 64.8558 161.838 64.8558ZM161.838 60.4507C160.797 60.4507 159.935 61.3139 159.935 62.3556C159.935 63.3974 160.797 64.2605 161.838 64.2605C162.878 64.2605 163.741 63.3974 163.741 62.3556C163.711 61.3139 162.878 60.4507 161.838 60.4507Z" fill="#00101E"/>
<path d="M180.507 46.5212C180.329 46.5212 180.21 46.3723 180.21 46.2235V41.2232C180.21 41.0446 180.359 40.9255 180.507 40.9255C180.686 40.9255 180.805 41.0744 180.805 41.2232V46.2235C180.805 46.4021 180.686 46.5212 180.507 46.5212Z" fill="#00101E"/>
<path d="M183.004 44.0211H178.01C177.832 44.0211 177.713 43.8722 177.713 43.7234C177.713 43.5448 177.862 43.4258 178.01 43.4258H183.004C183.183 43.4258 183.302 43.5746 183.302 43.7234C183.302 43.902 183.183 44.0211 183.004 44.0211Z" fill="#00101E"/>
<path d="M198.433 64.2903C198.254 64.2903 198.135 64.1415 198.135 63.9927V57.4446C198.135 57.266 198.284 57.147 198.433 57.147C198.611 57.147 198.73 57.2958 198.73 57.4446V63.9927C198.73 64.1713 198.581 64.2903 198.433 64.2903Z" fill="#FC4532"/>
<path d="M201.703 61.0164H195.163C194.984 61.0164 194.865 60.8676 194.865 60.7188C194.865 60.5402 195.014 60.4211 195.163 60.4211H201.703C201.881 60.4211 202 60.57 202 60.7188C202 60.8676 201.881 61.0164 201.703 61.0164Z" fill="#FC4532"/>
<path d="M148.044 255.821H7.90743C7.81824 255.821 7.75879 255.762 7.75879 255.672C7.75879 255.583 7.81824 255.523 7.90743 255.523H148.044C148.133 255.523 148.193 255.583 148.193 255.672C148.193 255.732 148.103 255.821 148.044 255.821Z" fill="#00101E"/>
<path d="M49.2585 85.5417C49.1693 85.5417 49.1099 85.4822 49.1099 85.3929C49.0801 84.9464 48.7829 74.0826 52.3502 69.3501C55.977 64.5879 59.1876 65.2725 59.3362 65.3022C59.4254 65.332 59.4551 65.3915 59.4551 65.4808C59.4254 65.5701 59.3659 65.5999 59.2767 65.5999C59.247 65.5999 56.0959 64.9451 52.6177 69.5287C49.0801 74.1719 49.4071 85.2738 49.4369 85.3631C49.4071 85.4524 49.3477 85.5417 49.2585 85.5417Z" fill="#00101E"/>
<path d="M46.7912 74.3803C46.702 74.3803 46.6425 74.3207 46.6425 74.2315C46.6425 74.2017 46.5534 72.2075 46.9993 70.005C47.5938 67.0583 48.8721 65.1237 50.7152 64.4094C50.8044 64.3796 50.8936 64.4094 50.9233 64.4986C50.9531 64.5879 50.9233 64.6772 50.8342 64.707C46.6128 66.344 46.9398 74.1719 46.9398 74.2315C46.9398 74.291 46.8804 74.3803 46.7912 74.3803Z" fill="#00101E"/>
<path d="M157.111 123.669C157.082 123.669 157.052 123.669 157.022 123.64C156.963 123.58 156.933 123.491 156.992 123.431C157.111 123.282 167.724 107.746 186.334 106.168C186.423 106.168 186.482 106.228 186.482 106.317C186.482 106.406 186.423 106.466 186.334 106.466C167.873 108.014 157.319 123.431 157.23 123.61C157.2 123.64 157.141 123.669 157.111 123.669Z" fill="#00101E"/>
<path d="M153.187 77.9818C152.92 77.9818 152.682 77.9818 152.444 77.9818C143.763 77.7734 141.355 74.4101 139.245 71.4635C138.769 70.8087 138.323 70.1836 137.848 69.6181C135.083 66.4036 125.956 68.4573 125.867 68.4871C125.778 68.5168 125.719 68.4573 125.689 68.368C125.659 68.2787 125.719 68.2192 125.808 68.1894C125.838 68.1894 128.156 67.6537 130.832 67.5346C134.429 67.3858 136.867 68.0108 138.085 69.4395C138.591 70.0348 139.037 70.6598 139.512 71.3146C143.942 77.5353 148.282 77.6246 152.474 77.7139C162.819 77.952 191.149 73.0112 191.447 72.9517C191.536 72.9219 191.595 72.9814 191.625 73.0707C191.625 73.16 191.595 73.2195 191.506 73.2493C191.179 73.2791 164.097 77.9818 153.187 77.9818Z" fill="#00101E"/>
<path d="M72.0598 28.5437C74.8839 30.2105 74.8839 33.2167 73.457 34.8835C72.0598 36.5503 68.9087 36.8479 66.7385 35.0323C64.5684 33.2167 63.7955 29.7938 65.2522 28.1866C66.5305 26.7281 69.5032 27.0258 72.0598 28.5437Z" fill="#002B51"/>
<path d="M79.5215 34.6155C79.5215 34.6155 80.7403 30.4188 88.1425 30.6271C94.861 30.8057 98.4878 34.9131 99.4094 39.8242C100.331 44.7352 100.45 51.5809 101.104 54.9443C101.758 58.2778 103.274 59.7958 103.274 59.7958C103.274 59.7958 100.925 64.945 92.1261 64.1116L79.5215 34.6155Z" fill="#002B51"/>
<path d="M102.382 61.0459C101.044 62.5043 98.0417 64.6473 92.1259 64.0818L90.5503 60.3613L91.0557 55.5395L93.969 43.5149L95.9013 43.634C95.9013 43.6637 97.8336 56.7599 102.382 61.0459Z" fill="#011D33"/>
<path d="M79.5217 34.6156C79.5217 34.6156 75.9544 33.1571 72.2979 37.592C69.8008 40.6577 69.5035 45.5985 69.771 50.5393C69.9791 54.4681 70.6629 60.034 68.0171 63.5164C68.0171 63.5164 73.9329 67.6833 81.0973 65.5701C87.0428 63.814 86.1213 45.152 86.1213 45.152L79.5217 34.6156Z" fill="#002B51"/>
<path d="M82.9999 64.2306C82.4648 64.8854 81.8405 65.3318 81.127 65.5402C77.7381 66.5224 74.6464 66.1354 72.3276 65.4509C75.2707 60.6589 75.9842 52.3547 75.9842 52.3547L82.6134 54.5573L82.9999 64.2306Z" fill="#011D33"/>
<path d="M92.037 70.0347L78.3325 69.5883L79.8486 52.6228L92.1857 52.7121L92.037 70.0347Z" fill="#F98967"/>
<path d="M92.156 54.2896L92.0966 62.7128C86.9834 65.7487 81.246 63.9628 78.8975 62.9806L79.819 52.593C79.8488 52.6228 91.6209 53.724 92.156 54.2896Z" fill="#F46640"/>
<path d="M92.0668 65.3617L92.037 70.0346C88.1427 71.0168 83.4457 70.6299 78.3325 69.5882L78.7487 64.8259C79.8784 65.4807 82.1377 66.4927 85.5266 66.4332C88.5886 66.4332 90.7587 65.8677 92.0668 65.3617Z" fill="#9D6CDD"/>
<path d="M95.8121 46.7591C96.8823 53.7537 93.5528 60.9863 88.4693 61.7602C83.3859 62.534 78.4808 56.5515 77.4106 49.5867C76.3404 42.5922 79.5213 37.2644 84.6047 36.4906C89.6882 35.7167 94.7716 39.7944 95.8121 46.7591Z" fill="#F98967"/>
<path d="M87.5773 61.9984C87.1313 61.9984 86.6854 61.9388 86.2395 61.8495C86.1503 61.8198 86.1206 61.7603 86.1206 61.671C86.1503 61.5817 86.2098 61.5519 86.299 61.5519C87.0124 61.7007 87.7556 61.7305 88.4691 61.6412C90.6095 61.3138 92.6012 59.8851 93.9093 57.7719C93.939 57.7124 94.0579 57.6826 94.1174 57.7124C94.1768 57.7421 94.2065 57.8612 94.1768 57.9207C92.8093 60.1232 90.7581 61.6114 88.5285 61.9388C88.2015 61.9686 87.9043 61.9984 87.5773 61.9984Z" fill="#011D33"/>
<path d="M80.5913 36.8478C80.5913 36.8478 84.2181 42.503 96.02 44.0507C96.02 44.0507 94.5039 36.5502 89.2421 35.3001C83.9505 34.05 80.5913 36.8478 80.5913 36.8478Z" fill="#002B51"/>
<path d="M80.1455 50.0631C81.0671 51.9977 81.4238 53.9919 80.1158 54.5872C78.8375 55.2122 76.2512 54.111 75.3594 52.1763C74.4378 50.2417 74.6162 47.8903 75.8945 47.2653C77.1728 46.67 79.224 48.1284 80.1455 50.0631Z" fill="#F98967"/>
<path d="M78.6889 52.4739C78.6294 52.4739 78.57 52.4441 78.5403 52.3846C78.0052 50.9857 77.1133 49.9737 75.835 49.3487C75.7458 49.3189 75.7161 49.2296 75.7756 49.1403C75.8053 49.051 75.8945 49.0212 75.9837 49.0808C77.3214 49.7356 78.2727 50.8071 78.8375 52.2655C78.8673 52.3548 78.8375 52.4441 78.7483 52.4441C78.7186 52.4739 78.6889 52.4739 78.6889 52.4739Z" fill="#00101E"/>
<path d="M76.281 51.4023C76.2215 51.4023 76.1621 51.3725 76.1621 51.313C76.1323 51.2535 76.162 51.1344 76.2215 51.1047C76.7566 50.8368 77.2323 50.688 77.7971 50.6582C77.8863 50.6582 77.9457 50.7177 77.9457 50.807C77.9457 50.8963 77.8863 50.9558 77.7971 50.9558C77.262 50.9856 76.8458 51.1047 76.3404 51.3428C76.3404 51.4023 76.3107 51.4023 76.281 51.4023Z" fill="#00101E"/>
<path d="M78.6298 57.0577C78.6 57.0577 78.5406 57.0279 78.5109 57.0279L76.965 55.4802C76.9055 55.4206 76.9055 55.3313 76.965 55.2718L78.5109 53.7241C78.5703 53.6646 78.6595 53.6646 78.7189 53.7241L80.2648 55.2718C80.3243 55.3313 80.3243 55.4206 80.2648 55.4802L78.7189 57.0279C78.7189 57.0577 78.6892 57.0577 78.6298 57.0577ZM77.3217 55.3909L78.6595 56.7303L79.9675 55.3909L78.6595 54.0515L77.3217 55.3909Z" fill="#FFCC7F"/>
<path d="M80.0562 46.6107C80.0562 46.6107 80.3237 44.557 81.8398 43.8426C83.3559 43.1581 84.6937 43.5152 84.7829 44.051C84.872 44.5867 83.0289 44.5867 82.2263 44.9141C81.3047 45.3011 80.0562 46.6107 80.0562 46.6107Z" fill="#002B51"/>
<path d="M94.3255 45.509C94.3255 45.509 93.404 43.6637 91.7095 43.4851C90.0447 43.3065 88.8854 44.1101 88.9745 44.6459C89.0637 45.1816 90.8177 44.5864 91.6798 44.6161C92.7202 44.7054 94.3255 45.509 94.3255 45.509Z" fill="#002B51"/>
<path d="M82.7614 48.9021C82.8506 49.4676 83.237 49.8843 83.6235 49.8247C84.01 49.7652 84.2478 49.2592 84.1586 48.6937C84.0694 48.1282 83.683 47.7115 83.2965 47.771C82.91 47.8306 82.6722 48.3366 82.7614 48.9021Z" fill="#000204"/>
<path d="M90.7585 47.8008C90.8477 48.3663 91.2341 48.783 91.6206 48.7234C92.007 48.6639 92.2449 48.1579 92.1557 47.5924C92.0665 47.0269 91.68 46.6102 91.2936 46.6697C90.9071 46.7293 90.6693 47.2352 90.7585 47.8008Z" fill="#000204"/>
<path d="M86.864 52.1165C86.7748 52.1165 86.7153 52.057 86.7153 51.9677C86.7153 51.8784 86.7748 51.8189 86.864 51.8189C87.3396 51.8189 88.6179 51.7296 89.0044 51.3129C89.0638 51.2236 89.0936 51.1641 89.0936 51.0748C89.0638 50.6879 88.1423 50.1521 87.5477 49.8842C87.518 49.8545 87.4883 49.8247 87.4585 49.7949L86.864 47.8008C86.8342 47.7115 86.8937 47.6519 86.9532 47.6222C87.0423 47.5924 87.1018 47.6519 87.1315 47.7115L87.7261 49.6461C88.0531 49.7949 89.3314 50.42 89.3908 51.045C89.3908 51.2236 89.3314 51.3724 89.2125 51.5213C88.6774 52.0868 87.0423 52.1165 86.864 52.1165Z" fill="#00101E"/>
<path d="M87.5479 56.0155C87.2506 56.0155 86.9236 55.9857 86.5668 55.8964C84.4562 55.3607 84.04 53.0391 84.0103 52.9498C84.0103 52.8605 84.04 52.801 84.1292 52.7712C84.2183 52.7712 84.2778 52.801 84.3075 52.8903C84.3075 52.9201 84.7237 55.1226 86.6263 55.5988C88.5586 56.075 89.5396 54.8547 89.5396 54.8547C89.5991 54.7952 89.6883 54.7654 89.7477 54.8249C89.8072 54.8845 89.8369 54.9738 89.7775 55.0333C89.7775 55.0928 89.0045 56.0155 87.5479 56.0155Z" fill="#00101E"/>
<path d="M86.1801 57.2358C86.1801 57.2358 86.1503 57.2358 86.1801 57.2358C85.0801 57.1168 84.9315 56.4619 84.9018 56.4322C84.872 56.3429 84.9315 56.2834 85.0207 56.2536C85.1099 56.2238 85.1693 56.2834 85.1991 56.3726C85.1991 56.4024 85.318 56.8191 86.1801 56.9382C86.2693 56.9382 86.3287 57.0275 86.299 57.1168C86.299 57.1763 86.2395 57.2358 86.1801 57.2358Z" fill="#00101E"/>
<path d="M127.68 101.674C128.691 103.162 128.78 106.466 124.321 109.74L119.743 99.8877C119.772 99.8877 125.777 98.846 127.68 101.674Z" fill="#000204"/>
<path d="M106.425 104.382L121.794 98.5188L125.778 113.907L143.941 100.543L149.262 108.162C149.262 108.162 139.185 118.669 136.331 121.913C133.447 125.187 128.096 132.122 122.478 132.807C119.148 133.224 115.492 131.497 113.678 126.854C110.2 117.865 106.425 104.382 106.425 104.382Z" fill="#F98967"/>
<path d="M123.31 116.228C123.28 116.228 123.221 116.199 123.191 116.169C123.132 116.109 123.161 116.02 123.221 115.96L127.829 112.18C127.888 112.121 127.977 112.151 128.037 112.21C128.096 112.27 128.066 112.359 128.007 112.419L123.399 116.199C123.369 116.228 123.34 116.228 123.31 116.228Z" fill="#00101E"/>
<path d="M129.345 129.295C127.205 131.11 124.856 132.539 122.448 132.837C119.119 133.253 115.462 131.527 113.649 126.884C113.619 126.854 113.619 126.795 113.589 126.765C115.849 125.842 120.04 124.443 123.786 125.068C126.67 125.544 128.364 127.509 129.345 129.295Z" fill="#F46640"/>
<path d="M153.008 99.8581C153.008 99.8581 156.397 95.5721 157.081 94.7982C157.765 94.0244 160.559 89.8277 161.481 90.2146C162.61 90.6908 160.797 94.7685 160.143 96.1971C159.489 97.6258 156.724 102.328 156.724 102.328L153.008 99.8581Z" fill="#F98967"/>
<path d="M156.962 98.9057L150.452 95.3936L145.398 104.174L149.263 108.162C149.263 108.162 152.533 107.716 155.773 106.615C159.162 105.454 161.481 103.341 162.818 101.882C164.929 99.5903 166.148 95.8698 165.583 95.3043C164.959 94.6792 156.962 98.9057 156.962 98.9057Z" fill="#F98967"/>
<path d="M164.691 99.0842C164.216 100.066 163.562 101.049 162.818 101.882C162.491 102.239 162.075 102.656 161.629 103.102C154.316 103.43 151.789 100.364 151.73 100.215L164.691 99.0842Z" fill="#F46640"/>
<path d="M150.481 95.3934C150.481 95.3934 153.87 91.1074 154.554 90.3335C155.238 89.5597 158.181 85.4225 159.102 85.8094C160.232 86.2856 158.27 90.3038 157.616 91.7324C156.962 93.1611 154.197 97.8638 154.197 97.8638L150.481 95.3934Z" fill="#F98967"/>
<path d="M151.581 97.4174C151.581 97.4174 154.97 93.1314 155.654 92.3576C156.337 91.5837 159.132 87.387 160.053 87.7739C161.183 88.2501 159.37 92.3278 158.716 93.7565C158.062 95.1851 155.297 99.8878 155.297 99.8878L151.581 97.4174Z" fill="#F98967"/>
<path d="M180.387 100.602H149.53L153.751 83.5772C153.9 83.0117 154.405 82.6248 154.97 82.6248H184.698C185.322 82.6248 185.768 83.1903 185.619 83.8153L181.725 99.5604C181.576 100.156 181.011 100.602 180.387 100.602Z" fill="#FFCC7F"/>
<g opacity="0.5">
<path opacity="0.5" d="M185.619 83.7855L185.173 85.6011L169.566 95.1851C168.645 95.7506 167.455 95.6613 166.653 94.947L155.267 84.0533L164.007 91.6729C164.007 91.6729 165.761 93.548 166.95 93.6969C168.169 93.8457 169.388 92.7742 169.388 92.7742C169.685 92.7742 185.233 82.7735 185.411 82.9521C185.619 83.1604 185.708 83.4581 185.619 83.7855Z" fill="#FFB84C"/>
</g>
<path d="M167.277 93.7864C166.653 93.7864 166.058 93.578 165.553 93.1315L154.108 83.0416C154.048 82.982 154.048 82.8927 154.108 82.8332C154.167 82.7737 154.256 82.7737 154.316 82.8332L165.761 92.9232C166.534 93.6078 167.634 93.6971 168.496 93.1613L185.292 82.863C185.351 82.8332 185.441 82.8332 185.5 82.9225C185.53 82.982 185.53 83.0713 185.441 83.1309L168.644 93.4292C168.228 93.6673 167.753 93.7864 167.277 93.7864Z" fill="#00101E"/>
<path d="M177.206 98.3998C177.147 98.3998 177.117 98.37 177.088 98.3402C177.028 98.2807 177.058 98.1914 177.117 98.1319L179.793 96.1972C179.852 96.1377 179.941 96.1675 180.001 96.227C180.06 96.2865 180.031 96.3758 179.971 96.4354L177.296 98.37C177.296 98.3998 177.266 98.3998 177.206 98.3998Z" fill="#00101E"/>
<path d="M179.496 97.8937C179.466 97.8937 179.406 97.8639 179.377 97.8342C179.317 97.7746 179.347 97.6853 179.406 97.6258L181.339 96.0483C181.398 95.9888 181.487 96.0185 181.547 96.0781C181.606 96.1376 181.576 96.2269 181.517 96.2864L179.585 97.8639C179.555 97.8639 179.525 97.8937 179.496 97.8937Z" fill="#00101E"/>
<path d="M142.039 102.329C142.039 102.329 142.336 97.5366 144.328 95.334C146.23 93.2506 154.138 87.5657 155.059 88.4288C156.367 89.6789 152.057 93.6673 151.046 95.6019C151.046 95.6019 151.7 98.6081 150.452 100.84C148.876 103.668 145.398 104.174 145.398 104.174L142.039 102.329Z" fill="#F98967"/>
<path d="M106.901 70.6299C106.901 70.6299 110.884 70.0644 113.233 73.517C115.581 76.9696 119.565 88.2799 121.765 92.685C123.964 97.09 127.68 101.644 127.68 101.644C127.68 101.644 125.599 99.0247 118.851 100.811C112.103 102.596 109.219 105.097 107.822 107.567C107.852 107.597 102.471 73.3979 106.901 70.6299Z" fill="#9D6CDD"/>
<g opacity="0.5">
<path opacity="0.5" d="M124.678 97.5961C119.981 96.346 115.284 93.5185 114.63 89.1432C114.006 85.0357 115.552 80.72 115.968 78.9937C118.019 83.6964 120.278 89.7384 121.765 92.6851C122.627 94.4114 123.697 96.1079 124.678 97.5961Z" fill="#9D6CDD"/>
</g>
<path d="M108.001 113.103C108.506 115.038 107.317 117.478 105.087 117.925C102.561 118.401 102.085 110.93 102.085 110.93C102.085 110.93 107.168 109.978 108.001 113.103Z" fill="#000204"/>
<path d="M106.098 110.037C106.098 110.037 105.831 119.056 106.098 125.634L68.7305 126.14L70.4547 113.282L106.098 110.037Z" fill="#F98967"/>
<path d="M70.4546 126.11L72.2977 114.978L80.9782 112.3L106.098 110.008C106.098 110.008 106.009 113.431 105.979 117.598C103.571 117.568 99.8256 118.699 95.2773 119.056C89.0642 119.532 83.2672 116.883 82.7322 120.128C82.2862 122.896 89.0642 124.324 91.6505 125.366L70.4546 126.11Z" fill="#F46640"/>
<path d="M100.004 117.062C99.9743 117.062 99.9446 117.062 99.9149 117.032C99.8554 117.002 99.8257 116.883 99.8554 116.824L104.047 110.008C104.077 109.948 104.196 109.918 104.255 109.948C104.315 109.978 104.344 110.097 104.315 110.157L100.123 116.972C100.093 117.032 100.064 117.062 100.004 117.062Z" fill="#00101E"/>
<path d="M121.051 187.96C122.567 184.924 120.784 180.013 115.908 176.322C111.033 172.631 99.4095 173.941 94.5341 174.209C89.6588 174.477 75.5381 181.203 75.5381 181.203L76.8461 189.924C76.8461 189.924 81.0674 193.228 89.8966 193.615C98.7555 194.002 116.979 196.145 121.051 187.96Z" fill="#000204"/>
<path d="M81.0079 174.834C81.0079 174.834 78.7783 201.056 77.5892 209.181C77.5892 209.181 76.0433 240.433 76.1622 248.856C76.1622 248.856 74.7353 252.101 70.4842 253.559C66.2332 255.018 63.5577 248.499 63.5577 248.499L61.1794 217.009C61.1794 217.009 60.5849 208.526 60.2876 202.603C59.7525 192.781 58.7715 175.429 58.7715 175.429L65.9953 160.547L81.0079 174.834Z" fill="#F98967"/>
<path d="M76.5484 232.576C76.3403 237.993 76.1917 243.142 76.162 246.624L65.46 242.785C65.46 242.785 66.9464 241.207 71.7028 239.273C74.8539 237.963 76.0728 235.195 76.5484 232.576Z" fill="#F46640"/>
<path d="M80.8889 175.935C80.651 178.881 79.9079 187.185 79.1349 195.013C66.1736 190.876 60.8226 185.31 59.1876 183.227C58.9201 178.673 58.7417 175.369 58.7417 175.369L58.8903 175.101L80.8889 175.935Z" fill="#F46640"/>
<path d="M68.5819 207.068C66.5604 207.068 64.6875 206.413 62.8741 205.074C62.8147 205.014 62.785 204.925 62.8444 204.865C62.9039 204.806 62.9931 204.776 63.0525 204.836C65.9956 206.979 69.0872 207.336 72.7438 205.907C72.8329 205.877 72.9221 205.907 72.9519 205.996C72.9816 206.086 72.9519 206.175 72.8627 206.205C71.3168 206.77 69.9196 207.068 68.5819 207.068Z" fill="#00101E"/>
<path d="M60.5551 256.417C60.5551 256.417 60.4362 258.083 60.674 258.381C60.9416 258.679 64.8954 259.512 69.6518 259.542C75.7757 259.572 78.8971 258.946 79.1647 258.738C79.4322 258.53 79.3728 256.417 79.3728 256.417L69.5924 255.464L60.5551 256.417Z" fill="#000204"/>
<path d="M66.2628 241.654C69.6815 241.326 71.6138 243.767 76.5189 244.362C77.1134 244.422 77.2621 246.773 77.8864 249.511C78.3917 251.714 79.4322 254.035 79.3728 256.416C73.1597 257.131 66.8871 257.131 60.5254 256.416C60.2875 253.708 61.655 251.595 62.6063 248.529C63.1117 247.041 62.8738 241.981 66.2628 241.654Z" fill="#B1B196"/>
<path d="M62.6359 254.779C62.6061 254.779 62.6061 254.779 62.5764 254.779C62.4872 254.75 62.4575 254.66 62.4872 254.571C62.5169 254.512 62.9926 253.261 64.0628 251.922C65.0438 250.672 66.7086 249.095 69.0868 248.737C71.1677 248.41 72.5947 248.975 73.4568 249.511C74.3783 250.077 74.8242 250.732 74.8242 250.761C74.8837 250.821 74.854 250.91 74.7945 250.97C74.7351 251.029 74.6459 250.999 74.5864 250.94C74.5567 250.91 72.8919 248.44 69.1165 249.035C64.7465 249.72 62.7548 254.631 62.7548 254.69C62.7548 254.75 62.6953 254.779 62.6359 254.779Z" fill="#00101E"/>
<path d="M65.0144 246.505C64.9252 246.505 64.8657 246.446 64.8657 246.356C64.8657 246.267 64.9252 246.207 65.0144 246.207L74.557 246.088C74.6461 246.088 74.7056 246.148 74.7056 246.237C74.7056 246.326 74.6461 246.386 74.557 246.386L65.0144 246.505Z" fill="#00101E"/>
<path d="M64.5388 248.261C64.4496 248.261 64.3901 248.202 64.3901 248.112C64.3901 248.023 64.4496 247.963 64.5388 247.963L74.0814 247.696C74.1705 247.696 74.23 247.755 74.23 247.844C74.23 247.934 74.1705 247.993 74.0814 247.993L64.5388 248.261Z" fill="#00101E"/>
<path d="M90.6396 176.322C90.6396 176.322 93.226 187.037 98.785 199.032C98.785 199.032 100.955 210.461 103.631 219.599C106.336 228.736 110.349 239.064 112.133 247.309C112.133 247.309 114.243 250.136 118.732 250.583C123.221 251.029 124.321 244.094 124.321 244.094L119.03 211.533C119.03 211.533 118.138 204.508 117.097 198.645C116.057 192.811 111.568 172.304 111.568 172.304L101.996 158.969L90.6396 176.322Z" fill="#F98967"/>
<path d="M124.321 244.094C124.321 244.094 123.846 247.13 122.211 249.065L118.643 250.583C114.214 250.107 112.133 247.309 112.133 247.309C111.865 246.088 111.568 244.838 111.211 243.559C118.643 240.82 120.605 231.683 118.614 224.688C116.414 216.86 110.111 210.401 110.29 201.562C110.409 194.924 114.184 193.644 116.057 193.436C116.503 195.609 116.86 197.454 117.097 198.674C118.138 204.508 119.03 211.533 119.03 211.533L124.321 244.094Z" fill="#F46640"/>
<path d="M99.1715 202.098C99.112 202.098 99.0228 202.038 99.0228 201.979C98.4283 198.258 98.1607 194.954 98.2796 191.918C98.2796 191.829 98.3391 191.77 98.4283 191.77C98.5174 191.77 98.5769 191.829 98.5769 191.918C98.458 194.954 98.6958 198.199 99.3201 201.919C99.3498 202.008 99.2904 202.098 99.1715 202.098C99.2012 202.098 99.1715 202.098 99.1715 202.098Z" fill="#00101E"/>
<path d="M116.889 202.961C112.846 202.961 111.746 200.728 111.717 200.639C111.687 200.55 111.717 200.46 111.776 200.431C111.865 200.401 111.955 200.431 111.984 200.49C111.984 200.49 112.282 201.115 113.144 201.681C113.946 202.216 115.403 202.782 117.811 202.603C117.9 202.603 117.96 202.663 117.96 202.752C117.96 202.841 117.9 202.901 117.811 202.901C117.514 202.961 117.187 202.961 116.889 202.961Z" fill="#00101E"/>
<path d="M141.742 257.756C141.355 258.917 140.999 260.494 140.017 260.822C138.828 261.209 134.875 261.119 124.827 258.887C114.898 256.714 111.836 255.643 111.657 255.375C111.449 255.107 111.152 251.357 111.152 251.357L127.443 254.75L141.742 257.756Z" fill="#000204"/>
<path d="M127.057 244.69C127.057 244.69 131.992 248.47 134.637 250.761C136.094 252.012 139.78 253.351 141.207 255.166C142.426 256.744 141.534 258.857 140.94 259.185C139.661 259.929 128.365 257.518 123.668 256.387C118.971 255.256 112.044 253.649 111.42 252.517C110.766 251.386 110.736 245.136 112.193 244.928C114.006 244.66 117.722 248.38 117.99 246.565C118.079 245.969 118.079 241.386 122.568 240.939C125.749 240.671 127.057 244.69 127.057 244.69Z" fill="#B1B196"/>
<path d="M116.711 254.69C116.622 254.69 116.562 254.631 116.562 254.541C116.652 252.488 116.027 250.642 114.868 249.392C113.917 248.38 112.638 247.874 111.092 247.874C111.003 247.874 110.944 247.815 110.944 247.725C110.944 247.636 111.003 247.577 111.092 247.577C112.698 247.577 114.065 248.142 115.076 249.214C116.295 250.494 116.949 252.458 116.86 254.571C116.86 254.631 116.8 254.69 116.711 254.69Z" fill="white"/>
<path d="M122.032 249.482C121.973 249.482 121.913 249.452 121.884 249.392C121.854 249.303 121.884 249.214 121.973 249.184L129.137 246.148C129.226 246.118 129.316 246.148 129.345 246.237C129.375 246.327 129.345 246.416 129.256 246.446L122.092 249.482C122.062 249.482 122.062 249.482 122.032 249.482Z" fill="#00101E"/>
<path d="M123.756 250.94C123.697 250.94 123.638 250.91 123.608 250.851C123.578 250.761 123.608 250.672 123.697 250.642L130.861 247.606C130.951 247.577 131.04 247.606 131.069 247.696C131.099 247.785 131.069 247.874 130.98 247.904L123.816 250.91C123.786 250.91 123.756 250.94 123.756 250.94Z" fill="#00101E"/>
<path d="M125.897 252.25C125.837 252.25 125.778 252.22 125.748 252.16C125.718 252.071 125.748 251.982 125.837 251.952L132.704 248.976C132.793 248.946 132.883 248.976 132.912 249.065C132.942 249.154 132.912 249.243 132.823 249.273L125.956 252.25C125.926 252.25 125.897 252.25 125.897 252.25Z" fill="#00101E"/>
<path d="M128.513 253.44C128.453 253.44 128.394 253.411 128.364 253.351C128.334 253.262 128.364 253.172 128.453 253.143L134.696 250.643C134.785 250.613 134.875 250.643 134.904 250.732C134.934 250.821 134.904 250.91 134.815 250.94L128.572 253.44C128.572 253.44 128.543 253.44 128.513 253.44Z" fill="#00101E"/>
<path d="M121.051 187.96C121.051 187.96 121.408 179.299 113.649 176.977C112.252 176.561 110.795 176.233 109.309 176.025L103.244 164.298L100.212 175.846C96.4366 176.233 93.0476 177.454 90.1938 178.614C83.9509 181.174 74.6164 183.139 67.779 183.347C62.9334 183.496 58.5634 182.424 58.5634 182.424C58.5634 182.424 56.0663 168.644 58.4148 151.678C60.7038 135.1 66.0251 123.105 66.0251 123.105C66.0251 123.105 75.2407 124.772 85.3779 124.652C95.5448 124.533 105.979 123.789 105.979 123.789C105.979 123.789 106.574 129.028 107.347 133.165C108.12 137.272 111.419 145.636 114.749 155.607C118.227 166.024 121.289 174.448 121.794 178.614C122.716 185.698 121.051 187.96 121.051 187.96Z" fill="#FDE36F"/>
<g opacity="0.2">
<path opacity="0.2" d="M119.327 169C115.284 167.125 110.795 164.208 109.546 160.964C107.852 156.469 106.544 147.719 102.322 141.23C97.0012 133.105 87.0721 130.128 75.9837 131.944C68.9977 133.075 63.8548 136.408 60.9712 138.73C63.3494 129.206 66.0844 123.104 66.0844 123.104C66.0844 123.104 75.3 124.771 85.4371 124.652C90.1044 124.592 94.8311 124.414 98.5768 124.235C101.609 124.384 104.255 124.473 106.128 124.533C106.336 126.11 106.811 129.979 107.406 133.164C108.179 137.272 111.479 145.635 114.808 155.606C116.503 160.607 118.078 165.16 119.327 169Z" fill="#8A4428"/>
</g>
<path d="M106.455 126.854C92.9286 128.521 79.3727 127.985 65.0439 126.408C65.9358 123.937 66.0844 123.044 66.0844 123.044C66.0844 123.044 75.3 124.711 85.4372 124.592C95.6041 124.473 106.039 123.729 106.039 123.729C106.039 123.729 106.217 125.039 106.455 126.854Z" fill="#B25833"/>
<path d="M113.679 177.126C113.619 177.126 113.56 177.096 113.53 177.006L108.06 156.916C108.03 156.827 108.09 156.767 108.179 156.737C108.268 156.707 108.328 156.767 108.357 156.856L113.827 176.947C113.857 177.036 113.797 177.096 113.708 177.126C113.679 177.126 113.679 177.126 113.679 177.126Z" fill="#00101E"/>
<path d="M88.202 167.809C88.1425 167.809 88.083 167.75 88.0533 167.69L84.0995 151.142C84.0698 151.052 84.1293 150.993 84.2184 150.963C84.3076 150.933 84.3671 150.993 84.3968 151.082L88.3506 167.631C88.3803 167.72 88.3209 167.78 88.2317 167.809H88.202Z" fill="#00101E"/>
<path d="M90.1935 175.846C90.134 175.846 90.0746 175.816 90.0448 175.727L89.0341 171.828C89.0044 171.738 89.0638 171.679 89.153 171.649C89.2422 171.619 89.3016 171.679 89.3314 171.768L90.3421 175.667C90.3718 175.757 90.3124 175.816 90.2232 175.846H90.1935Z" fill="#00101E"/>
<path d="M82.9998 178.286C82.9403 178.286 82.8511 178.227 82.8511 178.167L81.0972 164.595C81.0972 164.506 81.1566 164.446 81.2161 164.416C81.3053 164.416 81.3647 164.476 81.3944 164.535L83.1484 178.108C83.1484 178.197 83.0889 178.286 82.9998 178.286Z" fill="#211F23"/>
<path d="M73.3386 182.781C73.2494 182.781 73.1899 182.691 73.1899 182.632L74.171 163.672C74.171 163.583 74.2304 163.523 74.3196 163.523C74.4088 163.523 74.4682 163.613 74.4682 163.672L73.4872 182.632C73.4872 182.721 73.4278 182.781 73.3386 182.781Z" fill="#211F23"/>
<path d="M63.8552 180.37C63.8255 180.37 63.8255 180.37 63.8552 180.37C63.766 180.37 63.7065 180.281 63.7065 180.221L66.1145 153.493C66.1145 153.404 66.2037 153.344 66.2631 153.344C66.3523 153.344 66.4118 153.434 66.4118 153.493L64.0038 180.221C63.9741 180.31 63.9146 180.37 63.8552 180.37Z" fill="#211F23"/>
<path d="M74.4978 157.779C74.4978 157.779 74.468 157.779 74.4978 157.779C74.4086 157.779 74.3491 157.69 74.3491 157.63L75.0031 144.207C75.0031 144.117 75.0626 144.058 75.1518 144.058C75.2409 144.058 75.3004 144.117 75.3004 144.207L74.6464 157.63C74.6464 157.719 74.5572 157.779 74.4978 157.779Z" fill="#211F23"/>
<path d="M69.7114 69.8263C73.2788 69.8263 78.8676 69.6179 78.8676 69.6179L92.037 70.0644C92.037 70.0644 104.969 69.9751 106.901 70.6597C106.901 70.6597 109.101 86.1071 109.249 93.9648C109.398 101.823 108.001 113.133 108.001 113.133C108.001 113.133 106.336 110.93 103.601 111.764C100.836 112.597 95.2475 116.139 87.3697 116.496C81.989 116.734 70.4546 113.311 70.4546 113.311L69.7114 69.8263Z" fill="#9D6CDD"/>
<path d="M89.8669 107.686C87.9048 107.686 86.2401 107.24 84.3672 106.734C83.1781 106.406 81.989 106.079 80.5324 105.811C75.3003 104.829 69.6223 106.882 69.5925 106.912L68.9683 105.216C69.2061 105.126 75.1219 102.983 80.8594 104.055C82.3755 104.352 83.6835 104.68 84.8429 105.007C87.9643 105.841 90.1939 106.466 94.2963 105.126C96.3773 104.442 98.0717 103.579 99.7365 102.715C102.68 101.198 105.474 99.7391 109.309 100.245L109.071 102.031C105.771 101.614 103.482 102.805 100.539 104.323C98.9041 105.156 97.061 106.109 94.8314 106.853C92.8991 107.448 91.2938 107.686 89.8669 107.686Z" fill="#E2BD9C"/>
<g opacity="0.5">
<path opacity="0.5" d="M108.803 104.68C108.447 109.383 107.971 113.133 107.971 113.133C107.971 113.133 106.306 110.93 103.571 111.764C100.807 112.597 95.2178 116.139 87.3399 116.496C83.178 116.675 75.3002 114.651 71.9707 113.758L70.3059 105.96L70.187 105.424V92.6255C70.187 92.6255 72.5058 104.769 86.0319 108.222C97.7744 111.198 106.633 106.109 108.803 104.68Z" fill="#9D6CDD"/>
</g>
<path d="M107.942 113.847C107.942 113.847 107.912 113.847 107.942 113.847C107.852 113.847 107.793 113.758 107.793 113.669C108.804 106.258 109.19 100.156 109.012 95.0365C109.012 94.9472 109.071 94.8877 109.16 94.8877C109.25 94.8877 109.309 94.9472 109.309 95.0365C109.487 100.186 109.071 106.287 108.061 113.728C108.061 113.788 108.001 113.847 107.942 113.847Z" fill="#00101E"/>
<path d="M85.5564 86.6132C85.4672 86.6132 85.4077 86.5537 85.4077 86.4644L85.6455 66.463C85.6455 66.3737 85.705 66.3142 85.7942 66.3142C85.8834 66.3142 85.9428 66.3737 85.9428 66.463L85.705 86.4644C85.705 86.5537 85.6455 86.6132 85.5564 86.6132Z" fill="#00101E"/>
<path d="M54.8477 105.156L70.1872 100.453L70.7223 106.555L83.2674 92.8635L90.729 98.727C90.729 98.727 82.9106 110.662 80.7108 114.353C78.5109 118.014 73.2789 125.842 69.117 127.152C65.4902 128.283 61.3878 126.288 58.3555 119.056C55.353 111.823 54.8477 105.156 54.8477 105.156Z" fill="#F98967"/>
<path d="M66.0552 111.853C66.0254 111.853 65.9957 111.853 65.966 111.823C65.9065 111.764 65.9065 111.675 65.966 111.615L70.6333 106.496C70.6927 106.436 70.7819 106.436 70.8413 106.496C70.9008 106.555 70.9008 106.644 70.8413 106.704L66.1741 111.823C66.1443 111.823 66.1146 111.853 66.0552 111.853Z" fill="#00101E"/>
<path d="M71.4062 126.11C71.3765 126.11 71.317 126.08 71.2873 126.05C71.2278 125.991 71.2576 125.901 71.317 125.842C75.033 122.746 78.6895 118.014 82.4649 111.347C82.4947 111.287 82.5839 111.258 82.673 111.287C82.7325 111.317 82.7622 111.406 82.7325 111.496C78.9273 118.193 75.2708 122.985 71.4954 126.08C71.4657 126.11 71.4359 126.11 71.4062 126.11Z" fill="#00101E"/>
<path d="M67.0064 126.467C66.9766 126.467 66.9469 126.467 66.9469 126.437L65.074 125.515C65.0146 125.485 64.9849 125.396 65.0146 125.306C65.0443 125.247 65.1335 125.217 65.2227 125.247L67.0955 126.169C67.155 126.199 67.1847 126.289 67.155 126.378C67.0955 126.437 67.0658 126.467 67.0064 126.467Z" fill="#00101E"/>
<path d="M95.5446 92.4469C95.5446 92.4469 101.133 91.8814 102.204 91.8219C103.274 91.7623 108.446 90.9885 108.833 91.9409C109.279 93.1017 105.176 94.709 103.631 95.2447C102.114 95.7805 99.7362 96.5246 96.4364 97.0901C94.95 97.358 91.4719 97.7151 91.4719 97.7151L90.3719 99.3224L87.5181 97.1198L89.4206 93.5184L95.5446 92.4469Z" fill="#F98967"/>
<path d="M116.146 91.8516H95.7827V74.4099H108.358C112.668 74.4099 116.146 77.8923 116.146 82.2081V91.8516Z" fill="#FC4532"/>
<path d="M107.347 78.0411C107.109 78.0411 106.901 77.8328 106.901 77.5946V68.6655C106.901 68.4273 107.109 68.219 107.347 68.219C107.585 68.219 107.793 68.4273 107.793 68.6655V77.5946C107.793 77.8625 107.585 78.0411 107.347 78.0411Z" fill="white"/>
<path d="M116.027 73.0706H107.317V68.6655H116.027L113.827 70.8383L116.027 73.0706Z" fill="white"/>
<path d="M116.146 82.2675V91.8515H98.1011L98.4578 88.8751C98.4578 88.8751 110.022 87.2381 114.422 77.416C115.492 78.7554 116.146 80.4519 116.146 82.2675Z" fill="#EF271D"/>
<path d="M100.688 91.8516H90.1641V79.7079C90.1641 76.791 92.5126 74.4397 95.4259 74.4397C98.3392 74.4397 100.688 76.791 100.688 79.7079V91.8516Z" fill="#000204"/>
<path d="M108.417 77.8625C108.417 78.4578 107.941 78.934 107.347 78.934C106.752 78.934 106.276 78.4578 106.276 77.8625C106.276 77.2672 106.752 76.791 107.347 76.791C107.941 76.791 108.417 77.297 108.417 77.8625Z" fill="#000204"/>
<path d="M89.9559 89.679C92.3341 89.2325 100.479 89.8278 100.539 91.1076C100.598 92.3875 96.6743 93.2506 91.2639 93.9352C91.2639 93.9352 87.6965 97.8641 86.5966 97.745C83.2671 97.3878 83.0293 93.2804 83.0293 93.2804C83.5941 91.9708 86.9534 90.2445 89.9559 89.679Z" fill="#F98967"/>
<path d="M91.2043 93.2209C91.1151 93.2209 91.0557 93.1614 91.0557 93.0721C91.0557 92.9828 91.1151 92.9233 91.2043 92.9233C91.234 92.9233 95.0392 92.5661 97.2985 92.2685C99.5578 91.9709 102.233 91.4946 102.263 91.4946C102.352 91.4946 102.412 91.5244 102.441 91.6137C102.441 91.703 102.412 91.7625 102.323 91.7923C102.293 91.7923 99.6173 92.2387 97.358 92.5661C95.0689 92.8638 91.2638 93.2209 91.2043 93.2209Z" fill="#00101E"/>
<path d="M69.7115 69.8261C67.8683 69.9749 62.339 69.082 59.1879 71.9691C55.5908 75.2729 54.3422 78.9041 53.7179 87.2678C53.0937 95.6315 53.8071 107.388 53.3018 110.513C53.3018 110.513 57.7906 110.752 61.9525 108.847C68.7899 105.751 70.3952 102.15 70.3952 102.15L69.7115 69.8261Z" fill="#9D6CDD"/>
<path d="M70.4249 102.418C70.3357 102.418 70.2762 102.358 70.2762 102.269L69.9492 92.0302C69.9492 91.9409 70.0087 91.8813 70.0979 91.8813C70.187 91.8813 70.2465 91.9409 70.2465 92.0302L70.5735 102.269C70.5735 102.329 70.514 102.418 70.4249 102.418Z" fill="#00101E"/>
</svg>
