<svg width="294" height="289" viewBox="0 0 294 289" fill="none" xmlns="http://www.w3.org/2000/svg">
<path d="M11.7432 10.2573C11.9653 10.2573 12.1318 10.0909 12.1318 9.86908V1.6055C12.1318 1.38366 11.9653 1.21729 11.7432 1.21729C11.5211 1.21729 11.3545 1.38366 11.3545 1.6055V9.86908C11.3545 10.0909 11.5211 10.2573 11.7432 10.2573Z" fill="#EBB821"/>
<path d="M7.60644 6.12556H15.8795C16.1016 6.12556 16.2682 5.95918 16.2682 5.73734C16.2682 5.5155 16.1016 5.34912 15.8795 5.34912H7.60644C7.38435 5.34912 7.21777 5.5155 7.21777 5.73734C7.21777 5.95918 7.38435 6.12556 7.60644 6.12556Z" fill="#EBB821"/>
<path d="M43.836 16.8014C43.836 18.1879 42.7256 19.2971 41.3375 19.2971C39.9493 19.2971 38.8389 18.1879 38.8389 16.8014C38.8389 15.4149 39.9493 14.3057 41.3375 14.3057C42.6978 14.3057 43.836 15.4149 43.836 16.8014Z" fill="#9C78E8"/>
<path d="M19.9883 41.7585C19.9883 39.8174 21.5707 38.2368 23.5141 38.2368C25.4574 38.2368 27.0398 39.8174 27.0398 41.7585C27.0398 43.6997 25.4574 45.2803 23.5141 45.2803C21.5707 45.308 19.9883 43.6997 19.9883 41.7585ZM20.7934 41.7585C20.7934 43.256 22.0149 44.5038 23.5418 44.5038C25.041 44.5038 26.2903 43.2837 26.2903 41.7585C26.2903 40.2334 25.0687 39.0133 23.5418 39.0133C22.0149 39.041 20.7934 40.2611 20.7934 41.7585Z" fill="#FFEEA1"/>
<path d="M20.4048 236.091C20.4048 232.514 23.3198 229.63 26.8733 229.63C30.4269 229.63 33.3419 232.542 33.3419 236.091C33.3419 239.668 30.4269 242.552 26.8733 242.552C23.3198 242.552 20.4048 239.64 20.4048 236.091ZM21.2099 236.091C21.2099 239.225 23.764 241.776 26.9011 241.776C30.0382 241.776 32.5923 239.225 32.5923 236.091C32.5923 232.957 30.0382 230.406 26.9011 230.406C23.764 230.406 21.2099 232.957 21.2099 236.091Z" fill="#FFEEA1"/>
<path d="M9.57764 193.026C9.57764 190.78 11.4099 188.922 13.6864 188.922C15.9351 188.922 17.7952 190.753 17.7952 193.026C17.7952 195.273 15.9629 197.13 13.6864 197.13C11.4099 197.13 9.57764 195.3 9.57764 193.026ZM10.355 193.026C10.355 194.857 11.8264 196.326 13.6587 196.326C15.491 196.326 16.9623 194.857 16.9623 193.026C16.9623 191.196 15.491 189.727 13.6587 189.727C11.8541 189.727 10.355 191.224 10.355 193.026Z" fill="#9C78E8"/>
<path d="M33.0918 180.742C33.0918 179.438 34.1468 178.357 35.4793 178.357C36.7842 178.357 37.8669 179.411 37.8669 180.742C37.8669 182.045 36.8119 183.126 35.4793 183.126C34.1745 183.126 33.0918 182.073 33.0918 180.742ZM33.8969 180.742C33.8969 181.629 34.6187 182.322 35.4793 182.322C36.3677 182.322 37.0618 181.601 37.0618 180.742C37.0618 179.854 36.34 179.161 35.4793 179.161C34.6187 179.161 33.8969 179.882 33.8969 180.742Z" fill="#FFEEA1"/>
<path d="M22.4595 164.769C22.6816 164.769 22.8481 164.603 22.8481 164.381V158.059C22.8481 157.837 22.6816 157.67 22.4595 157.67C22.2374 157.67 22.0708 157.837 22.0708 158.059V164.381C22.0708 164.603 22.2374 164.769 22.4595 164.769Z" fill="#502A59"/>
<path d="M19.2944 161.608H25.6242C25.8463 161.608 26.0128 161.442 26.0128 161.22C26.0128 160.998 25.8463 160.832 25.6242 160.832H19.2944C19.0723 160.832 18.9058 160.998 18.9058 161.22C18.9058 161.442 19.0723 161.608 19.2944 161.608Z" fill="#502A59"/>
<path d="M250.108 129.94C250.108 128.193 251.524 126.779 253.273 126.779C255.022 126.779 256.438 128.193 256.438 129.94C256.438 131.687 255.022 133.101 253.273 133.101C251.524 133.101 250.108 131.687 250.108 129.94ZM250.885 129.94C250.885 131.243 251.94 132.325 253.273 132.325C254.578 132.325 255.66 131.271 255.66 129.94C255.66 128.637 254.605 127.555 253.273 127.555C251.968 127.555 250.885 128.637 250.885 129.94Z" fill="#9C78E8"/>
<path d="M261.407 97.9673C261.407 99.2152 262.407 100.213 263.656 100.213C264.905 100.213 265.905 99.2152 265.905 97.9673C265.905 96.7195 264.905 95.7212 263.656 95.7212C262.407 95.7212 261.407 96.7472 261.407 97.9673Z" fill="#FFEEA1"/>
<path d="M221.18 87.2635C221.402 87.2635 221.569 87.0971 221.569 86.8752V80.5528C221.569 80.3309 221.402 80.1646 221.18 80.1646C220.958 80.1646 220.792 80.3309 220.792 80.5528V86.8752C220.792 87.0693 220.958 87.2635 221.18 87.2635Z" fill="#FFEEA1"/>
<path d="M218.015 84.1021H224.345C224.567 84.1021 224.733 83.9357 224.733 83.7139C224.733 83.4921 224.567 83.3257 224.345 83.3257H218.015C217.793 83.3257 217.626 83.4921 217.626 83.7139C217.626 83.908 217.793 84.1021 218.015 84.1021Z" fill="#FFEEA1"/>
<path d="M1.49909 132.686C1.55461 132.686 1.58237 132.686 1.61013 132.658C23.5699 115.742 31.9263 85.8771 31.9818 85.5721C32.0096 85.4611 31.954 85.3502 31.843 85.3225C31.7319 85.2948 31.6209 85.3502 31.5931 85.4611C31.5099 85.7662 23.1812 115.493 1.36028 132.325C1.27699 132.38 1.24923 132.519 1.33251 132.602C1.38804 132.658 1.44356 132.686 1.49909 132.686Z" fill="#502A59"/>
<path d="M7.49587 114.55C7.55139 114.55 7.57915 114.522 7.63468 114.495C14.825 108.172 21.9044 97.3297 25.2636 87.541C25.2913 87.43 25.2358 87.3191 25.1525 87.2914C25.0415 87.2637 24.9304 87.3191 24.9027 87.4023C21.5712 97.1356 14.5474 107.895 7.38482 114.19C7.30153 114.273 7.30153 114.384 7.35706 114.467C7.38482 114.522 7.44034 114.55 7.49587 114.55Z" fill="#502A59"/>
<path d="M0.194334 276.272H199.554C199.665 276.272 199.748 276.189 199.748 276.078C199.748 275.967 199.665 275.884 199.554 275.884H0.194334C0.0832861 275.884 0 275.967 0 276.078C0 276.189 0.0832861 276.272 0.194334 276.272Z" fill="#502A59"/>
<path d="M206.079 43.6696L229.954 16.4386C230.87 15.3849 230.565 13.7765 229.315 13.1387L212.075 4.26511C211.437 3.93235 210.632 4.071 210.16 4.6256L185.396 32.8549C184.896 33.4372 185.063 34.3523 185.757 34.7128L203.969 44.0855C204.663 44.446 205.551 44.2797 206.079 43.6696Z" fill="#FFEEA1"/>
<g opacity="0.5">
<g opacity="0.5">
<path opacity="0.5" d="M185.757 34.7127L187.839 35.7942L209.91 28.9171C211.214 28.5011 212.103 27.3087 212.103 25.95L211.214 6.09521L211.159 20.709C211.159 20.709 211.492 23.9257 210.631 25.2013C209.771 26.4768 207.744 26.7541 207.744 26.7541C207.494 27.0314 185.063 33.4926 185.09 33.8253C185.174 34.1858 185.396 34.5186 185.757 34.7127Z" fill="#502A59"/>
</g>
</g>
<path d="M185.201 33.9919C185.229 33.9919 185.229 33.9919 185.257 33.9919L208.993 26.6157C210.382 26.172 211.326 24.9241 211.326 23.4544L211.298 4.20974C211.298 4.09882 211.214 4.01562 211.103 4.01562C210.992 4.01562 210.909 4.09882 210.909 4.20974L210.937 23.4544C210.937 24.73 210.104 25.867 208.882 26.2274L185.146 33.6037C185.035 33.6314 184.979 33.7423 185.007 33.8532C185.035 33.9364 185.118 33.9919 185.201 33.9919Z" fill="#502A59"/>
<path d="M224.54 7.48172C224.624 7.48172 224.679 7.45399 224.707 7.3708C224.763 7.25988 224.707 7.14896 224.624 7.0935L210.132 0.0223244C210.021 -0.0331358 209.91 0.0223244 209.854 0.105515C209.799 0.216435 209.854 0.327356 209.938 0.382816L224.457 7.48172C224.485 7.48172 224.513 7.48172 224.54 7.48172Z" fill="#502A59"/>
<path d="M280.923 257.646L258.948 216.743L291.211 208.384L280.923 257.646Z" fill="#FFEEA1"/>
<path d="M280.923 257.646L268.938 214.119L268.327 204.157L279.784 211.416L280.923 257.646Z" fill="#FFEEA1"/>
<path d="M279.597 211.365C279.59 211.392 279.59 211.392 279.583 211.418L280.188 232.008C280.185 232.123 280.278 232.206 280.392 232.209C280.506 232.211 280.589 232.119 280.592 232.005L279.986 211.415C279.989 211.3 279.897 211.217 279.783 211.214C279.688 211.246 279.62 211.284 279.597 211.365Z" fill="#502A59"/>
<g opacity="0.5">
<g opacity="0.5">
<path opacity="0.5" d="M268.938 214.12L280.923 257.646L279.784 211.416L268.32 204.184L268.938 214.12Z" fill="#7B90C0"/>
</g>
</g>
<path d="M124.707 127.666C124.04 123.395 118.877 121.066 117.044 120.733L119.376 134.82C119.349 134.82 125.512 132.962 124.707 127.666Z" fill="#502A59"/>
<path d="M56.5229 238.004L56.6895 268.785L68.4051 272.75L75.1513 271.669C75.1513 271.669 75.4567 267.897 76.345 261.436C77.2334 254.975 79.149 238.143 79.149 238.143L56.5229 238.004Z" fill="#E8747A"/>
<path d="M75.9008 265.097C75.3734 269.312 75.179 271.696 75.179 271.696L68.4329 272.778L56.7173 268.813L56.745 264.071C60.1042 263.516 68.183 262.629 75.9008 265.097Z" fill="#502A59"/>
<path d="M37.7559 284.813C38.2001 286.283 38.6165 288.279 39.8658 288.723C41.3649 289.25 46.3343 289.25 59.1049 286.782C71.7088 284.341 75.5955 283.121 75.8731 282.789C76.1508 282.456 76.6505 277.742 76.6505 277.742L55.9678 281.513L37.7559 284.813Z" fill="#502A59"/>
<path d="M56.6896 268.785C56.6896 268.785 50.3321 273.416 46.9173 276.189C45.0573 277.714 40.31 279.295 38.4777 281.541C36.8675 283.482 37.9502 286.172 38.6998 286.615C40.31 287.586 54.6352 284.896 60.604 283.621C66.6006 282.345 75.3457 280.515 76.2063 279.128C77.0669 277.742 77.289 269.866 75.4567 269.561C73.1525 269.173 68.3496 273.721 68.072 271.447C67.9887 270.698 67.6556 267.704 61.9921 267.066C56.3287 266.456 56.6896 268.785 56.6896 268.785Z" fill="#CBB3FF"/>
<path d="M69.4605 281.763C69.5716 281.763 69.6549 281.68 69.6549 281.569C69.6271 278.99 70.46 276.661 71.9591 275.163C73.2084 273.915 74.8186 273.305 76.762 273.361C76.873 273.361 76.9563 273.278 76.9563 273.167C76.9563 273.056 76.873 272.973 76.762 272.973C74.7353 272.945 72.9863 273.583 71.6815 274.886C70.0991 276.466 69.2107 278.907 69.2384 281.569C69.2662 281.652 69.3495 281.763 69.4605 281.763Z" fill="white"/>
<path d="M62.9084 274.997C62.9917 274.997 63.0472 274.941 63.075 274.886C63.1305 274.775 63.075 274.664 62.9639 274.636L54.0246 270.56C53.9135 270.504 53.8025 270.56 53.7747 270.671C53.7192 270.782 53.7747 270.893 53.8858 270.92L62.8251 274.997C62.8529 274.997 62.8807 274.997 62.9084 274.997Z" fill="#FFEEA1"/>
<path d="M60.6877 276.772C60.771 276.772 60.8265 276.716 60.8543 276.661C60.9098 276.55 60.8543 276.439 60.7433 276.411L51.8039 272.335C51.6928 272.279 51.5818 272.335 51.554 272.446C51.4985 272.557 51.554 272.668 51.6651 272.695L60.6044 276.772C60.6322 276.772 60.66 276.772 60.6877 276.772Z" fill="#FFEEA1"/>
<path d="M57.9392 278.38C58.0225 278.38 58.078 278.324 58.1058 278.269C58.1613 278.158 58.1058 278.047 58.0225 278.019L49.4163 274.026C49.3052 273.971 49.1942 274.026 49.1664 274.109C49.1109 274.22 49.1664 274.331 49.2497 274.359L57.8559 278.352C57.8837 278.352 57.9114 278.38 57.9392 278.38Z" fill="#FFEEA1"/>
<path d="M54.5798 279.794C54.6631 279.794 54.7186 279.739 54.7742 279.683C54.8297 279.572 54.7742 279.462 54.6631 279.434L46.862 276.078C46.7509 276.023 46.6399 276.078 46.6121 276.189C46.5566 276.3 46.6121 276.411 46.7232 276.439L54.5243 279.794C54.5243 279.767 54.5521 279.794 54.5798 279.794Z" fill="#FFEEA1"/>
<path d="M51.6094 285.562C51.6371 285.562 51.6371 285.562 51.6649 285.562C51.776 285.534 51.8315 285.423 51.8037 285.312C49.8326 278.158 41.9759 278.768 41.8927 278.768C41.7816 278.768 41.6983 278.879 41.7261 278.99C41.7261 279.101 41.8371 279.184 41.9482 279.156C42.0315 279.156 49.555 278.574 51.4428 285.395C51.4428 285.479 51.5261 285.562 51.6094 285.562Z" fill="white"/>
<path d="M56.5229 238.004L56.5785 246.767C66.4618 248.265 74.9847 245.63 78.4827 244.299C78.8992 240.75 79.1768 238.143 79.1768 238.143L56.5229 238.004Z" fill="#CC5768"/>
<path d="M130.564 267.703L118.182 267.537L112.186 264.265L108.438 238.975C110.964 238.06 115.49 237.755 118.044 237.394C122.236 236.784 125.234 236.146 128.704 236.479L130.564 267.703Z" fill="#E8747A"/>
<path d="M111.409 259.051L112.186 264.237L118.183 267.509L130.565 267.675L130.009 258.413C125.567 256.611 116.1 257.554 111.409 259.051Z" fill="#502A59"/>
<path d="M147.194 284.702C146.5 286.088 145.75 287.974 144.445 288.196C142.891 288.445 137.977 287.613 125.845 282.983C113.851 278.407 110.242 276.521 110.02 276.161C109.826 275.8 110.131 271.059 110.131 271.059L129.842 278.324L147.194 284.702Z" fill="#502A59"/>
<path d="M131.286 265.651C131.286 265.651 136.755 271.308 139.642 274.608C141.225 276.411 145.611 278.795 147.027 281.347C148.276 283.537 146.749 286.005 145.944 286.31C144.195 286.976 130.564 281.873 124.873 279.6C119.209 277.298 110.881 273.998 110.27 272.501C109.659 270.975 110.797 263.183 112.657 263.183C114.989 263.183 118.932 268.508 119.598 266.317C119.82 265.596 120.653 262.712 126.344 263.045C132.063 263.433 131.286 265.651 131.286 265.651Z" fill="#CBB3FF"/>
<path d="M124.124 270.698C124.152 270.698 124.152 270.698 124.179 270.698L133.702 268.23C133.813 268.202 133.868 268.092 133.84 267.981C133.813 267.87 133.702 267.814 133.591 267.842L124.068 270.31C123.957 270.338 123.902 270.449 123.929 270.56C123.957 270.643 124.04 270.698 124.124 270.698Z" fill="#FFEEA1"/>
<path d="M126.012 272.833C126.04 272.833 126.04 272.833 126.067 272.833L135.59 270.366C135.701 270.338 135.756 270.227 135.729 270.116C135.701 270.005 135.59 269.95 135.479 269.977L125.956 272.445C125.845 272.473 125.79 272.584 125.818 272.695C125.845 272.778 125.901 272.833 126.012 272.833Z" fill="#FFEEA1"/>
<path d="M128.427 274.857C128.455 274.857 128.455 274.857 128.483 274.857L137.644 272.417C137.755 272.39 137.811 272.279 137.783 272.168C137.755 272.057 137.644 272.001 137.533 272.029L128.371 274.469C128.26 274.497 128.205 274.608 128.233 274.719C128.26 274.802 128.344 274.857 128.427 274.857Z" fill="#FFEEA1"/>
<path d="M131.509 276.854C131.536 276.854 131.536 276.854 131.564 276.854L139.837 274.885C139.948 274.858 140.004 274.747 139.976 274.636C139.948 274.525 139.837 274.47 139.726 274.497L131.453 276.466C131.342 276.494 131.286 276.605 131.314 276.716C131.342 276.771 131.425 276.854 131.509 276.854Z" fill="#FFEEA1"/>
<path d="M116.517 276.216C116.6 276.216 116.683 276.161 116.711 276.05C117.211 273.416 116.767 270.864 115.462 269.034C114.407 267.537 112.769 266.566 110.77 266.261C110.659 266.234 110.548 266.317 110.548 266.428C110.52 266.539 110.603 266.649 110.714 266.649C112.63 266.954 114.101 267.814 115.129 269.256C116.35 271.003 116.794 273.443 116.295 275.967C116.267 276.078 116.35 276.189 116.461 276.189C116.489 276.216 116.489 276.216 116.517 276.216Z" fill="white"/>
<path d="M132.73 282.872C132.785 282.872 132.841 282.844 132.868 282.816C132.924 282.761 137.727 277.27 143.696 278.019C143.807 278.047 143.89 277.964 143.918 277.853C143.918 277.742 143.862 277.659 143.751 277.631C137.588 276.854 132.646 282.511 132.591 282.567C132.508 282.65 132.535 282.761 132.619 282.844C132.646 282.844 132.702 282.872 132.73 282.872Z" fill="white"/>
<path d="M108.438 238.947L109.66 247.266C117.988 245.269 123.207 238.143 123.207 238.143L118.543 237.283C118.377 237.311 118.182 237.339 118.016 237.366C115.49 237.727 110.964 238.032 108.438 238.947Z" fill="#CC5768"/>
<path d="M118.516 120.9C118.516 120.9 120.959 135.042 124.124 152.901C127.233 170.426 129.176 181.657 130.842 192.804C131.925 199.986 136.089 237.117 136.089 237.117C136.089 237.117 119.515 242.108 101.498 239.446L90.8091 140.81L88.1162 113.69C88.144 113.662 108.049 113.662 118.516 120.9Z" fill="#FFEEA1"/>
<g opacity="0.5">
<g opacity="0.5">
<path opacity="0.5" d="M92.3638 154.814L101.525 239.391C105.551 240.001 109.521 240.195 113.269 240.167L94.2516 139.313L93.0578 139.452L92.3638 154.814Z" fill="#7B90C0"/>
</g>
</g>
<path d="M114.906 149.296C115.129 149.296 115.351 149.268 115.573 149.213C118.238 148.63 120.82 148.325 123.318 148.325C123.429 148.325 123.513 148.242 123.513 148.131C123.513 148.02 123.429 147.937 123.318 147.937C120.792 147.937 118.182 148.242 115.489 148.824C114.795 148.991 114.101 148.852 113.518 148.464C112.935 148.076 112.574 147.493 112.436 146.828L107.05 118.21C107.022 118.099 106.939 118.044 106.828 118.044C106.717 118.072 106.661 118.155 106.661 118.266L112.047 146.883C112.186 147.66 112.63 148.325 113.296 148.769C113.768 149.129 114.323 149.296 114.906 149.296Z" fill="#502A59"/>
<path d="M59.1048 124.089C59.1048 124.089 58.1331 132.214 57.5779 151.458C57.0226 170.731 57.1614 187.369 55.8844 200.097C54.8849 210.08 51.2759 238.309 51.2759 238.309C61.7144 242.912 76.4283 243.439 87.894 239.723C87.894 239.723 89.4209 205.338 90.5592 195.799C92.0028 183.487 92.9744 138.841 92.9744 138.841L91.9195 118.265C80.1484 115.492 69.7376 116.546 59.1048 124.089Z" fill="#FFEEA1"/>
<g opacity="0.5">
<g opacity="0.5">
<path opacity="0.5" d="M51.2759 238.309C61.7144 242.912 76.4283 243.439 87.894 239.723C87.894 239.723 88.0328 236.59 88.2549 231.931C82.9246 232.375 72.375 231.571 68.7937 219.453C63.9909 203.258 63.7133 183.348 56.9393 180.908C56.745 188.007 56.4674 194.44 55.8844 200.097C54.8572 210.08 51.2759 238.309 51.2759 238.309Z" fill="#7B90C0"/>
</g>
</g>
<g opacity="0.5">
<g opacity="0.5">
<path opacity="0.5" d="M57.9111 141.781C68.3774 131.715 81.3145 126.363 92.1417 123.479C104.496 120.207 113.407 119.375 113.407 119.375C110.298 118.543 106.356 118.016 101.386 118.127C98.1383 118.182 94.9735 118.238 91.8919 118.404C84.6182 118.737 77.7888 119.514 71.5145 121.954C61.4091 125.864 58.5219 131.798 58.5219 131.798C58.5219 131.798 58.5219 131.715 58.4941 131.576C58.2998 134.21 58.1055 137.594 57.9111 141.781Z" fill="#7B90C0"/>
</g>
</g>
<path d="M90.0039 139.922C90.0317 139.922 90.0317 139.922 90.0039 139.922L96.9722 139.257C97.0832 139.257 97.1665 139.146 97.1388 139.035C97.1388 138.924 97.0277 138.841 96.9167 138.869L89.9762 139.534C89.8651 139.534 89.7818 139.645 89.8096 139.756C89.8373 139.839 89.9206 139.922 90.0039 139.922Z" fill="#502A59"/>
<path d="M91.5029 182.128C91.614 182.128 91.6973 182.045 91.6973 181.934L93.1964 139.507C93.1964 139.396 93.1131 139.312 93.0021 139.312C92.891 139.312 92.8077 139.396 92.8077 139.507L91.3086 181.934C91.3086 182.045 91.3919 182.128 91.5029 182.128Z" fill="#502A59"/>
<path d="M57.4667 154.204C57.4945 154.204 57.4945 154.204 57.4667 154.204L71.2922 153.205C72.958 153.094 74.235 151.736 74.2905 150.072L75.2622 120.539C75.2622 120.428 75.1789 120.345 75.0679 120.345C74.9568 120.345 74.8735 120.428 74.8735 120.539L73.9019 150.072C73.8463 151.542 72.7081 152.706 71.2645 152.817L57.439 153.815C57.3279 153.815 57.2446 153.926 57.2446 154.037C57.3002 154.12 57.3834 154.204 57.4667 154.204Z" fill="#502A59"/>
<path d="M57.6889 152.457L63.4356 152.152C63.5467 152.152 63.63 152.041 63.63 151.93C63.63 151.819 63.5467 151.736 63.4079 151.736L57.6611 152.041C57.5501 152.041 57.4668 152.152 57.4668 152.263C57.4946 152.374 57.5778 152.457 57.6889 152.457Z" fill="#502A59"/>
<path d="M75.1508 197.019H75.1786C81.2585 195.965 83.4239 189.448 83.4517 189.393C83.4794 189.282 83.4239 189.171 83.3129 189.143C83.2018 189.116 83.0908 189.171 83.063 189.282C83.0352 189.337 80.9531 195.632 75.0953 196.63C74.9842 196.658 74.9287 196.741 74.9287 196.852C74.9842 196.935 75.0675 197.019 75.1508 197.019Z" fill="#502A59"/>
<path d="M179.87 51.9628L170.791 50.7981L168.848 63.1935L175.095 66.0774C175.095 66.0774 177.371 64.7186 179.925 61.3078C182.479 57.897 183.423 54.4308 184.367 52.1846C185.311 49.9385 185.672 45.1689 184.784 44.7807C183.729 44.3093 179.87 51.9628 179.87 51.9628Z" fill="#E8747A"/>
<path d="M170.764 50.7983C170.764 50.7983 172.374 44.3649 172.763 43.1448C173.263 41.481 175.234 35.8518 176.455 35.8795C177.955 35.935 177.51 41.4532 177.372 43.3944C177.233 45.3355 176.15 51.9907 176.15 51.9907L170.764 50.7983Z" fill="#E8747A"/>
<path d="M172.957 52.6285C172.957 52.6285 174.956 46.1674 175.4 44.975C175.844 43.7826 177.51 37.8483 178.759 37.8761C180.258 37.9315 180.231 43.228 179.786 45.2245C179.37 47.1102 178.371 53.8209 178.371 53.8209L172.957 52.6285Z" fill="#E8747A"/>
<path d="M175.706 54.8194C175.706 54.8194 177.704 48.3583 178.149 47.1659C178.593 45.9735 179.981 39.9006 181.202 39.9283C182.702 39.9838 182.452 45.4743 182.313 47.4155C182.174 49.3566 181.091 56.0118 181.091 56.0118L175.706 54.8194Z" fill="#E8747A"/>
<path d="M165.517 59.6441C165.517 59.6441 163.934 55.1795 164.601 52.6284C165.267 50.0772 167.432 43.727 168.959 43.6715C170.486 43.5883 171.042 48.1361 170.764 50.8259C170.764 50.8259 173.346 53.072 172.624 57.0097C171.902 60.9751 168.793 63.2213 168.793 63.2213L165.517 59.6441Z" fill="#E8747A"/>
<path d="M172.013 57.8693C172.096 57.8693 172.152 57.8416 172.18 57.7584C173.484 55.2349 173.068 52.9056 170.903 50.6317C170.819 50.5485 170.708 50.5485 170.625 50.6317C170.542 50.7149 170.542 50.8258 170.625 50.909C172.652 53.0442 173.068 55.2072 171.819 57.5643C171.763 57.6474 171.819 57.7861 171.902 57.8416C171.93 57.8693 171.985 57.8693 172.013 57.8693Z" fill="#502A59"/>
<path d="M174.928 49.8834C175.011 49.8834 175.095 49.8279 175.122 49.7447C176.038 46.4171 177.038 42.0358 177.676 38.5695C177.704 38.4586 177.621 38.3477 177.51 38.3477C177.399 38.3199 177.288 38.4031 177.288 38.514C176.649 41.9803 175.65 46.3617 174.734 49.6615C174.706 49.7725 174.761 49.8834 174.872 49.9111C174.9 49.8834 174.9 49.8834 174.928 49.8834Z" fill="#502A59"/>
<path d="M177.871 51.6303C177.954 51.6303 178.037 51.5748 178.065 51.4917C178.815 48.9405 179.814 44.6423 180.286 41.2038C180.314 41.0929 180.231 41.0097 180.12 40.9819C180.009 40.9542 179.897 41.0374 179.897 41.1483C179.426 44.5591 178.426 48.8573 177.677 51.3807C177.649 51.4916 177.704 51.6026 177.815 51.6303C177.815 51.6303 177.843 51.6303 177.871 51.6303Z" fill="#502A59"/>
<path d="M180.647 53.793C180.731 53.793 180.814 53.7375 180.842 53.6543C181.869 50.9645 182.535 47.9697 182.702 45.2521C182.702 45.1412 182.618 45.058 182.507 45.0303C182.396 45.0303 182.313 45.1135 182.285 45.2244C182.119 47.9142 181.48 50.8536 180.453 53.5157C180.425 53.6266 180.453 53.7375 180.564 53.7653C180.592 53.793 180.619 53.793 180.647 53.793Z" fill="#502A59"/>
<path d="M181.369 54.4032C181.425 54.4032 181.48 54.3754 181.536 54.32C181.591 54.2368 181.591 54.0981 181.508 54.0427C178.676 51.8797 176.261 50.3268 174.095 49.2176C173.984 49.1622 173.873 49.2176 173.818 49.3008C173.762 49.4117 173.818 49.5227 173.901 49.5781C176.039 50.6596 178.426 52.2125 181.23 54.3477C181.286 54.3754 181.341 54.4032 181.369 54.4032Z" fill="#502A59"/>
<path d="M132.286 66.9924L144.696 87.7068L165.517 59.6162L175.067 66.0496C175.067 66.0496 171.014 78.0013 166.211 87.7068C163.824 92.5318 158.382 102.459 154.995 106.841C151.553 111.305 145.307 116.491 139.088 114.494C129.621 111.444 113.297 85.4884 113.297 85.4884L132.286 66.9924Z" fill="#E8747A"/>
<path d="M125.512 102.515C130.121 108.116 135.173 113.274 139.088 114.522C145.307 116.519 151.553 111.333 154.995 106.869C155.773 105.87 156.661 104.595 157.605 103.153C153.024 105.011 142.53 108.477 138.56 103.153C134.701 97.9673 139.699 88.3727 142.419 83.9358L140.476 80.6914C137.589 89.3709 132.703 96.7194 125.512 102.515Z" fill="#CC5768"/>
<path d="M141.309 92.4768C141.364 92.4768 141.42 92.4491 141.475 92.3936L151.303 79.2496C151.359 79.1664 151.359 79.0277 151.275 78.9722C151.192 78.9168 151.053 78.9168 150.998 79L141.17 92.1441C141.115 92.2272 141.115 92.3659 141.198 92.4214C141.226 92.4491 141.253 92.4768 141.309 92.4768Z" fill="#502A59"/>
<path d="M68.5996 45.3353H68.6274C68.7384 45.3075 68.7939 45.2243 68.7939 45.1134L67.4336 37.8759C67.4058 37.7649 67.3225 37.7095 67.2115 37.7095C67.1004 37.7372 67.0449 37.8204 67.0449 37.9313L68.4053 45.1689C68.433 45.2521 68.5163 45.3353 68.5996 45.3353Z" fill="#502A59"/>
<path d="M64.0192 46.9715C64.0469 46.9715 64.1024 46.9715 64.1302 46.9438C64.2135 46.8883 64.2412 46.7497 64.1857 46.6665L58.3557 37.9315C58.3002 37.8483 58.1613 37.8206 58.0781 37.876C57.9948 37.9315 57.967 38.0701 58.0225 38.1533L63.8526 46.8883C63.8803 46.9438 63.9359 46.9715 64.0192 46.9715Z" fill="#502A59"/>
<path d="M58.5499 48.524C58.6054 48.524 58.6609 48.4963 58.7165 48.4408C58.772 48.3576 58.772 48.219 58.6887 48.1635L54.9408 45.1964C54.8575 45.1409 54.7187 45.1409 54.6632 45.2241C54.6077 45.3073 54.6077 45.4459 54.691 45.5014L58.4389 48.4685C58.4666 48.524 58.4944 48.524 58.5499 48.524Z" fill="#502A59"/>
<path d="M86.645 46.8051C91.892 46.4724 106.661 47.6093 106.661 47.6093L115.934 78.1402C113.158 103.319 125.54 113.967 124.679 127.638C124.679 127.638 121.736 117.711 101.359 118.127C90.5039 118.349 80.454 118.487 71.4869 121.954C61.3815 125.864 58.4665 131.798 58.4665 131.798C58.4665 131.798 56.4677 117.129 57.7447 99.9915C58.8274 85.7105 61.3538 51.3806 61.3538 51.3806C61.3538 51.3806 69.7101 47.9144 86.645 46.8051Z" fill="#9C78E8"/>
<path d="M106.689 47.6094C106.689 47.6094 114.407 47.7758 120.931 51.8244C126.234 55.0965 135.812 72.0951 140.504 80.6359C137.589 89.3432 132.702 96.7471 125.457 102.543C120.182 97.6345 115.934 92.5876 113.047 87.4021L106.689 47.6094Z" fill="#9C78E8"/>
<path d="M86.6723 58.2021C87.0055 58.2021 87.3386 58.2021 87.6995 58.1744C99.665 57.4812 103.663 47.4706 103.69 47.3597C103.718 47.2487 103.69 47.1378 103.579 47.1101C103.468 47.0824 103.357 47.1101 103.33 47.221C103.302 47.3319 99.4151 57.0929 87.6995 57.7862C76.9834 58.3963 71.2366 48.9126 71.1811 48.8016C71.1256 48.7184 71.0145 48.6907 70.9035 48.7184C70.8202 48.7739 70.7647 48.8848 70.8202 48.9957C70.848 49.1067 76.3726 58.2021 86.6723 58.2021Z" fill="#502A59"/>
<path d="M58.494 131.798C58.494 131.798 61.409 125.864 71.4866 121.954C80.0651 118.654 89.6153 118.376 99.915 118.155C95.3065 111.777 78.8436 111.028 75.2901 102.237C71.3478 92.4765 77.6498 82.8818 77.6498 82.8818L65.8232 82.9373L58.494 89.5648C58.1886 93.5579 57.9388 97.1628 57.7167 99.9913C56.4951 117.129 58.494 131.798 58.494 131.798Z" fill="#7A54CC"/>
<path d="M116.156 92.2269C118.71 95.7486 121.847 99.1594 125.456 102.542C129.37 99.409 132.591 95.804 135.173 91.7832C132.063 91.2563 122.152 88.8438 115.795 78.8887C115.822 78.9164 114.99 86.5145 116.156 92.2269Z" fill="#7A54CC"/>
<path d="M117.016 99.2981H117.044C117.155 99.2704 117.21 99.1872 117.21 99.0763C115.878 91.5337 115.517 84.6843 116.128 78.1955C116.128 78.0845 116.044 78.0014 115.961 77.9736C115.85 77.9736 115.767 78.0568 115.739 78.14C115.128 84.6566 115.489 91.5337 116.822 99.104C116.85 99.2149 116.933 99.2981 117.016 99.2981Z" fill="#502A59"/>
<path d="M110.993 70.3755L110.882 90.1748C105.274 91.9218 97.2781 91.9218 92.1144 90.5353L91.9756 70.736C98.4441 71.1242 104.496 70.9024 110.993 70.3755Z" fill="#FCEEDE"/>
<path d="M91.9756 70.708L92.1144 90.5073C97.3059 91.8938 105.274 91.9215 110.882 90.1468V87.6234C107.855 86.8469 99.166 83.547 97.056 70.9021C95.3903 70.9021 93.6968 70.8189 91.9756 70.708Z" fill="#CBB3FF"/>
<path d="M101.443 78.4451C104.441 78.4451 107.606 78.2787 110.993 77.9737C111.104 77.9737 111.187 77.8628 111.159 77.7518C111.159 77.6409 111.048 77.5577 110.937 77.5855C104.496 78.1955 98.833 78.2233 93.6137 77.6686C93.5027 77.6686 93.4194 77.7241 93.3916 77.835C93.3916 77.9459 93.4471 78.0291 93.5582 78.0569C96.0845 78.3064 98.6942 78.4451 101.443 78.4451Z" fill="#502A59"/>
<path d="M61.8538 51.2144C60.3546 51.5471 52.3314 55.1243 49.5552 61.1417C46.307 68.1297 40.6436 84.6291 40.6436 84.6291C47.0288 83.409 53.4141 85.5442 59.7994 88.5945L66.1846 61.3913L61.8538 51.2144Z" fill="#9C78E8"/>
<path d="M40.6436 84.6292C46.6679 83.4645 52.72 85.3224 58.7722 88.1232L61.132 72.622C61.132 72.622 51.4708 70.4868 54.6079 55.2075C52.5812 56.7604 50.6657 58.7847 49.5552 61.1695C46.307 68.1297 40.6436 84.6292 40.6436 84.6292Z" fill="#7A54CC"/>
<path d="M56.6899 82.3273C56.6899 82.3273 56.9953 75.5612 59.7438 70.1261C60.9931 67.6303 66.7398 64.9683 66.7398 64.9683L67.767 74.2856L56.6899 82.3273Z" fill="#E8747A"/>
<path d="M63.4918 83.9912L78.1502 86.4314C78.7609 86.5423 79.3162 86.1264 79.3995 85.5441L83.5915 60.3374C83.7026 59.7273 83.2861 59.1727 82.7031 59.0896L68.0448 56.6493C67.434 56.5384 66.8788 56.9543 66.7955 57.5367L62.6034 82.7433C62.4924 83.3256 62.9088 83.8802 63.4918 83.9912Z" fill="#3A2045"/>
<path d="M74.0415 57.5923C74.4024 64.0257 79.1497 66.6046 82.3979 67.6029L83.5361 60.7535C83.6749 59.8939 83.0919 59.0897 82.259 58.9511L74.0415 57.5923Z" fill="#502A59"/>
<path d="M74.43 80.4139L64.741 70.9302C62.6311 71.5125 60.7433 77.0585 59.6328 80.3861C59.6328 80.3861 62.7977 85.2112 67.8781 85.5162C72.9586 85.8212 81.2872 83.1314 82.4254 80.4416C83.2583 78.5005 74.43 80.4139 74.43 80.4139Z" fill="#E8747A"/>
<path d="M63.1861 70.8747C63.1861 70.8747 72.6252 69.6546 74.1521 69.516C75.679 69.3496 82.8694 69.0723 83.4801 70.4033C84.2297 72.0394 78.5663 73.4536 76.0677 74.1191C73.8467 74.7015 66.2121 77.3358 66.2121 77.3358C61.9368 77.0585 63.1861 70.8747 63.1861 70.8747Z" fill="#E8747A"/>
<path d="M66.8232 76.0326C66.8232 76.0326 74.6521 74.1192 76.1513 73.8419C77.6504 73.5646 84.6187 71.0412 85.4238 72.5109C86.2844 74.0915 80.2323 76.9754 78.1779 78.0292C76.1235 79.0829 68.9054 82.2719 68.9054 82.2719L66.8232 76.0326Z" fill="#E8747A"/>
<path d="M65.2407 76.3932C65.2407 76.3932 73.2917 76.31 74.8186 76.3932C76.3455 76.4487 83.758 75.8109 84.1467 77.2251C84.6464 78.9444 78.2889 80.6636 76.0679 81.2182C73.8192 81.7728 65.8515 82.9652 65.8515 82.9652L65.2407 76.3932Z" fill="#E8747A"/>
<path d="M69.6548 75.4501C72.9585 75.0619 78.844 73.6477 81.759 72.5385C81.8701 72.5107 81.9256 72.3721 81.8701 72.2889C81.8423 72.178 81.7035 72.1502 81.6202 72.178C78.733 73.2872 72.903 74.6737 69.627 75.0619C69.516 75.0619 69.4327 75.1728 69.4605 75.2837C69.4605 75.3947 69.5437 75.4501 69.6548 75.4501Z" fill="#502A59"/>
<path d="M70.3213 79.3876C74.0969 78.9162 78.0669 77.8902 82.0924 76.3373C82.2035 76.3096 82.259 76.1709 82.2035 76.0878C82.1757 75.9768 82.0369 75.9214 81.9536 75.9768C77.9281 77.502 74.0136 78.528 70.2935 78.9994C70.1825 79.0272 70.0992 79.1103 70.127 79.2213C70.127 79.3045 70.2102 79.3876 70.3213 79.3876Z" fill="#502A59"/>
<path d="M72.1538 82.1611H72.1816C75.2354 81.5511 78.3725 80.7191 81.5096 79.6931C81.6207 79.6654 81.6762 79.5545 81.6484 79.4436C81.6207 79.3326 81.5096 79.2772 81.3986 79.3049C78.2892 80.3309 75.1799 81.1628 72.126 81.7729C72.015 81.8006 71.9595 81.9115 71.9595 81.9947C71.9872 82.1057 72.0705 82.1611 72.1538 82.1611Z" fill="#502A59"/>
<path d="M40.6441 84.6293C44.4753 83.8806 48.3342 84.3797 52.1931 85.5444L52.2487 85.5721L52.2764 85.5444L58.9671 79.0278L61.7155 80.4698L69.2113 84.4075C69.2113 84.4075 61.8266 98.8549 56.5796 107.257C51.3603 115.659 44.4753 122.98 40.1444 122.869C35.8136 122.758 31.7881 120.789 31.1495 115.964C30.3167 110.086 36.6742 93.6693 40.6441 84.6293Z" fill="#E8747A"/>
<path d="M42.9479 97.4127C45.3632 93.5582 48.5558 89.6205 52.1926 85.5719C48.3337 84.4072 44.5025 83.9081 40.6436 84.6568C40.2272 85.5996 39.783 86.6256 39.311 87.7349C43.6697 90.2028 42.9479 97.4127 42.9479 97.4127Z" fill="#CC5768"/>
<path d="M41.8649 99.0492C41.9204 99.0492 41.9759 99.0214 42.0315 98.966C47.5283 91.0629 52.3589 85.295 56.8009 81.3574C56.8842 81.2742 56.8842 81.1632 56.8286 81.0801C56.7453 80.9969 56.6343 80.9969 56.551 81.0523C52.0813 85.0177 47.223 90.7856 41.6983 98.7164C41.6428 98.7996 41.6706 98.9382 41.7538 98.9937C41.7816 99.0492 41.8371 99.0492 41.8649 99.0492Z" fill="#502A59"/>
<path d="M31.121 116.02C31.7873 120.845 35.785 122.814 40.1159 122.924C44.4468 123.035 51.304 115.742 56.551 107.312C58.3833 104.373 60.4655 100.713 62.4088 97.1909C56.8009 103.569 45.1408 114.522 31.0933 114.189C31.0377 114.883 31.0655 115.493 31.121 116.02Z" fill="#CC5768"/>
<path d="M41.976 120.484C42.0593 120.484 42.1426 120.429 42.1704 120.318C42.1981 120.207 42.1148 120.096 42.0038 120.096L37.3398 119.125C37.2287 119.098 37.1177 119.181 37.1177 119.292C37.0899 119.403 37.1732 119.514 37.2843 119.514L41.9483 120.484C41.9483 120.484 41.9483 120.484 41.976 120.484Z" fill="#502A59"/>
<path d="M102.858 23.1513C102.858 23.1513 104.996 20.0455 105.246 15.3314C105.551 9.92399 102.969 4.82166 97.3058 2.65871C93.0027 1.02263 90.2543 3.21331 90.2543 3.21331C90.2543 3.21331 87.8667 0.384838 81.648 1.85453C73.7081 3.71245 72.0701 12.9466 71.9868 18.8531C71.9313 24.3159 74.2078 32.9122 79.8435 34.7979L102.858 23.1513Z" fill="#502A59"/>
<path d="M72.4863 23.9553C73.4302 28.6139 75.7622 33.4667 79.8155 34.8532L83.4246 33.023C83.952 23.5948 85.7566 11.6709 82.8693 8.87012C82.8693 8.87012 77.6501 9.36926 74.7906 15.3867C73.4025 18.3815 72.7917 21.5428 72.4863 23.9553Z" fill="#3A2045"/>
<path d="M97.6945 23.179C97.0837 25.7301 97.167 28.1981 98.8882 28.6141C100.609 29.03 103.386 27.0612 103.996 24.51C104.607 21.9589 103.802 19.1581 102.109 18.7422C100.415 18.3539 98.3052 20.6278 97.6945 23.179Z" fill="#CC5768"/>
<path d="M96.0563 49.7732L77.8999 49.3573L79.7044 27.9219H96.0563V49.7732Z" fill="#E8747A"/>
<path d="M96.0561 29.9174V40.538C89.3377 44.4202 81.6753 42.2018 78.5938 41.0094L79.7042 27.8931C79.7042 27.9208 95.362 29.2241 96.0561 29.9174Z" fill="#CC5768"/>
<path d="M74.5132 48.164C76.6786 50.4379 81.1483 54.0151 87.5336 53.7932C94.3908 53.5437 97.861 49.3287 99.1936 47.138C94.7239 46.8885 89.3936 46.6389 86.673 46.833C81.9257 47.1103 77.9002 47.6094 74.5132 48.164Z" fill="#E8747A"/>
<path d="M101.387 22.4582C100.887 31.3595 94.8628 39.4013 88.3943 39.0408C81.9257 38.6803 77.4005 30.0285 77.928 21.1271C78.4277 12.2258 83.758 6.48564 90.2543 6.84613C96.7229 7.20662 101.887 13.5568 101.387 22.4582Z" fill="#E8747A"/>
<path d="M88.8665 39.2351C91.5594 39.2351 94.2801 37.9872 96.4177 35.7411C96.501 35.6579 96.501 35.547 96.4177 35.4638C96.3345 35.3806 96.2234 35.3806 96.1401 35.4638C93.9747 37.7654 91.143 38.9855 88.4223 38.8191C88.3112 38.8191 88.228 38.9023 88.2002 39.0132C88.2002 39.1241 88.2835 39.2073 88.3945 39.2351C88.5333 39.2351 88.6999 39.2351 88.8665 39.2351Z" fill="#3A2045"/>
<path d="M81.1482 22.4027C81.7867 25.0371 81.7034 27.5605 79.9266 28.0042C78.1776 28.4202 75.2904 26.4236 74.6519 23.7892C74.0133 21.1549 74.8462 18.2987 76.5952 17.8827C78.372 17.439 80.5096 19.7684 81.1482 22.4027Z" fill="#E8747A"/>
<path d="M78.5385 24.6766H78.5663C78.6774 24.6489 78.7606 24.5657 78.7329 24.4548C78.4553 22.6246 77.6224 21.1826 76.2343 20.1012C76.151 20.0457 76.0122 20.0457 75.9567 20.1289C75.9011 20.2121 75.9011 20.3507 75.9844 20.4062C77.2615 21.4045 78.0666 22.791 78.3164 24.5102C78.372 24.5934 78.4553 24.6766 78.5385 24.6766Z" fill="#502A59"/>
<path d="M76.0676 22.8741C76.0954 22.8741 76.0954 22.8741 76.1232 22.8741C76.7339 22.7077 77.2614 22.68 77.8722 22.7632C77.9832 22.7909 78.0943 22.7077 78.0943 22.5968C78.122 22.4859 78.0387 22.3749 77.9277 22.3749C77.2614 22.264 76.6784 22.2917 76.0121 22.4859C75.901 22.5136 75.8455 22.6245 75.8733 22.7354C75.901 22.8186 75.9843 22.8741 76.0676 22.8741Z" fill="#502A59"/>
<path d="M102.108 16.9398C102.108 16.9398 83.2303 15.8306 82.3696 6.65198C82.3696 6.65198 93.1968 3.74032 98.3883 9.0645C101.636 12.3644 102.108 16.9398 102.108 16.9398Z" fill="#502A59"/>
<path d="M90.5594 26.8948C91.0869 26.8948 91.6144 26.8116 91.9475 26.5898C92.1419 26.4511 92.2529 26.257 92.2807 26.0352C92.3917 25.2032 90.5594 21.6538 90.3651 21.2378C90.3096 21.1546 90.1985 21.0992 90.0875 21.1546C90.0042 21.2101 89.9487 21.321 90.0042 21.4319C90.7815 22.9016 91.9753 25.4528 91.892 25.9797C91.8642 26.0906 91.8087 26.1738 91.7254 26.257C91.1424 26.6452 89.5322 26.4511 88.977 26.3125C88.8659 26.2847 88.7549 26.3679 88.7549 26.4788C88.7271 26.5898 88.8104 26.7007 88.9215 26.7007C89.0325 26.7284 89.8098 26.8948 90.5594 26.8948Z" fill="#502A59"/>
<path d="M81.8423 18.0213C81.8423 18.0213 83.1749 15.7752 85.2848 15.692C87.3947 15.6365 88.7828 16.718 88.6162 17.3835C88.4497 18.0491 86.312 17.134 85.2015 17.134C83.9244 17.134 81.8423 18.0213 81.8423 18.0213Z" fill="#502A59"/>
<path d="M99.6377 20.2955C99.6377 20.2955 98.7493 17.8275 96.6672 17.3561C94.6128 16.9124 93.0304 17.7166 93.0859 18.3821C93.1137 19.0476 95.3901 18.5762 96.5006 18.7703C97.7499 19.0199 99.6377 20.2955 99.6377 20.2955Z" fill="#502A59"/>
<path d="M95.6677 22.736C96.1583 22.736 96.5561 22.1525 96.5561 21.4327C96.5561 20.7129 96.1583 20.1294 95.6677 20.1294C95.177 20.1294 94.7793 20.7129 94.7793 21.4327C94.7793 22.1525 95.177 22.736 95.6677 22.736Z" fill="#502A59"/>
<path d="M86.5063 20.9332C86.5063 21.6542 86.1176 22.2365 85.6179 22.2365C85.1182 22.2365 84.7295 21.6542 84.7295 20.9332C84.7295 20.2122 85.1182 19.6299 85.6179 19.6299C86.1176 19.6299 86.5063 20.2122 86.5063 20.9332Z" fill="#502A59"/>
</svg>
