<svg xmlns="http://www.w3.org/2000/svg" xmlns:xlink="http://www.w3.org/1999/xlink" width="176.821" height="348.956" viewBox="0 0 176.821 348.956">
  <defs>
    <linearGradient id="linear-gradient" x1="0.585" y1="0.804" x2="0.409" y2="-0.016" gradientUnits="objectBoundingBox">
      <stop offset="0" stop-color="#f0868c"/>
      <stop offset="1" stop-color="#ec505b"/>
    </linearGradient>
    <linearGradient id="linear-gradient-2" x1="0.522" y1="0.774" x2="0.454" y2="-0.117" gradientUnits="objectBoundingBox">
      <stop offset="0" stop-color="#003073"/>
      <stop offset="1" stop-color="#3227b4"/>
    </linearGradient>
    <linearGradient id="linear-gradient-3" x1="0.489" y1="0.511" x2="0.769" y2="0.372" gradientUnits="objectBoundingBox">
      <stop offset="0" stop-color="#005adc"/>
      <stop offset="1" stop-color="#0078f6"/>
    </linearGradient>
    <linearGradient id="linear-gradient-4" x1="0.431" y1="-0.173" x2="0.509" y2="0.512" gradientUnits="objectBoundingBox">
      <stop offset="0" stop-color="#003785"/>
      <stop offset="1" stop-color="#0078f3"/>
    </linearGradient>
    <linearGradient id="linear-gradient-5" x1="0.153" y1="0.588" x2="0.487" y2="0.462" xlink:href="#linear-gradient-3"/>
    <linearGradient id="linear-gradient-6" x1="0.448" y1="0.137" x2="0.632" y2="1.066" xlink:href="#linear-gradient"/>
    <linearGradient id="linear-gradient-7" x1="0.473" y1="0.117" x2="0.521" y2="1.079" xlink:href="#linear-gradient"/>
  </defs>
  <g id="No_calls" data-name="No calls" transform="translate(-861 -690.659)" opacity="0.74">
    <g id="Group_7991" data-name="Group 7991" transform="translate(62.712 209.773)">
      <path id="Path_40306" data-name="Path 40306" d="M1000.953,683.281c.685,2.065,9,14.838,42.081,2.919,0,0-3.162,23.838-33.811,26.027s-52.3-49.379-52.3-49.379S981.493,624.659,1000.953,683.281Z" transform="translate(-93.645 -100.198)" fill="#e65b63"/>
      <g id="Group_7988" data-name="Group 7988" transform="translate(798.288 627.536)">
        <path id="Path_40307" data-name="Path 40307" d="M805.4,1272.526l-7.108,16.19s5.787,7.441,12.4,8.268,17.362-1.654,17.362-1.654-9.507-6.2-10.335-10.334a30.68,30.68,0,0,1-.222-7.806Q811.428,1274.98,805.4,1272.526Z" transform="translate(-798.288 -1094.847)" fill="#0054f2"/>
        <path id="Path_40308" data-name="Path 40308" d="M877.673,1106.674a156.118,156.118,0,0,1-20.711,31c-15.03,17.592-29.005,26.327-29.005,26.327s-.117.847-.221,2.115q-6.066-2.213-12.1-4.664c8.756-19.7,15.512-53.293,18.678-77.085C850.678,1085.932,864.674,1095.947,877.673,1106.674Z" transform="translate(-808.529 -983.779)" fill="#ffc428"/>
        <path id="Path_40309" data-name="Path 40309" d="M903.673,1106.674a156.118,156.118,0,0,1-20.711,31c-1.462-19.76-19.482-43.868-23.28-48.746q.33-2.3.634-4.561C876.678,1085.932,890.674,1095.947,903.673,1106.674Z" transform="translate(-834.529 -983.779)" fill="#ffd15c"/>
        <path id="Path_40310" data-name="Path 40310" d="M930.7,838.838,860.844,850c2.847,12.812,5.234,22.355,4.584,38.213-.5,12.326-1.681,30.723-4.427,51.22,16.369,1.559,30.359,11.571,43.357,22.3a145.275,145.275,0,0,0,12.7-36.5C929.876,862.4,930.7,838.838,930.7,838.838Z" transform="translate(-835.215 -838.838)" fill="#0054f2"/>
      </g>
      <path id="Path_40311" data-name="Path 40311" d="M1043.182,549.319a22.65,22.65,0,0,1-12.041,4.743s.486,19.7,6.689,21.162l-.973-13.257,7.905-5.716Z" transform="translate(-137.455 -40.397)" fill="#e65b63"/>
      <path id="Path_40312" data-name="Path 40312" d="M1080.8,520.589c0,4.41-8.086,22.865-15.755,23.169-7.725.311-5.564-20.387-5.564-20.387C1066.246,503.712,1080.8,516.178,1080.8,520.589Z" transform="translate(-154.022 -18.734)" fill="#f0868c"/>
      <path id="Path_40313" data-name="Path 40313" d="M1094.332,522.755c0,1.5-.964,4.71-2.549,8.269-1.182-3.229-2.36-2.756-4.73-3.268-3.235-.705-5.765-4.542-4.671-7.725,1.171-3.41,3.746-3.83,6.638-3.727C1092.119,518.109,1094.332,521.066,1094.332,522.755Z" transform="translate(-167.55 -20.9)" fill="url(#linear-gradient)"/>
      <path id="Path_40314" data-name="Path 40314" d="M1078.118,506c-2.9.886-4.018-2.679-6.024-4.244s-4.238.673-6.024,1.119-2.005-2.679-4.238-2.9-.667,4.684-3.571,6.69-4.458-2.452-4.458-2.452a54.63,54.63,0,0,0-.893-11.155c-1.113-5.8,7.81-6.244,10.928-6.69s2.012-1.339,6.024-2.679,3.125,1.34,7.583.893,2.012-4.464,6.47-3.572C1094.113,483.052,1081.02,505.109,1078.118,506Z" transform="translate(-150.249 0)" fill="#3227b4"/>
      <path id="Path_40315" data-name="Path 40315" d="M1086.334,514.626c-2.362,5-5.545,9.382-6.807,9.77-2.9.886-4.018-2.679-6.024-4.244s-4.238.673-6.024,1.119-2.005-2.679-4.238-2.9-.667,4.684-3.571,6.69-4.458-2.452-4.458-2.452c.141-3.389-.367-2.446.608-5.183,1.132-3.216,4.393-6.134,7.674-5.208,1.411.4,2.678,1.462,4.141,1.346a15.786,15.786,0,0,0,2.406-.718C1075.237,511.593,1079.366,520.929,1086.334,514.626Z" transform="translate(-151.658 -18.394)" fill="url(#linear-gradient-2)"/>
      <rect id="Rectangle_3535" data-name="Rectangle 3535" width="0.647" height="9.098" transform="matrix(0.659, -0.753, 0.753, 0.659, 910.572, 500.897)" fill="#3227b4"/>
      <path id="Path_40316" data-name="Path 40316" d="M1084.83,549.541a2.006,2.006,0,0,1-1.05-.279c-.839-.505-1.218-1.617-1.066-3.13a12.649,12.649,0,0,1,4.949-8.219c1.267-.842,2.426-1.026,3.265-.522s1.218,1.617,1.067,3.13a12.649,12.649,0,0,1-4.949,8.219A4.138,4.138,0,0,1,1084.83,549.541Zm5.048-11.693a3.458,3.458,0,0,0-1.811.676,11.919,11.919,0,0,0-4.624,7.681c-.12,1.2.141,2.084.715,2.429s1.48.161,2.482-.5a11.921,11.921,0,0,0,4.625-7.681c.12-1.2-.141-2.084-.715-2.43A1.284,1.284,0,0,0,1089.878,537.848Z" transform="translate(-167.88 -33.192)" fill="#3227b4"/>
      <path id="Path_40317" data-name="Path 40317" d="M1095.937,557.067a1.581,1.581,0,0,1-.829-.219c-.743-.447-1.028-1.5-.8-2.974a14.365,14.365,0,0,1,4.92-8.172c1.195-.887,2.261-1.128,3-.682s1.028,1.5.8,2.974a14.366,14.366,0,0,1-4.92,8.172A3.853,3.853,0,0,1,1095.937,557.067Zm5.458-11.584a3.245,3.245,0,0,0-1.762.767,13.7,13.7,0,0,0-4.653,7.728c-.178,1.161,0,1.994.48,2.286s1.3.056,2.245-.645a13.694,13.694,0,0,0,4.653-7.728c.178-1.161,0-1.994-.481-2.285A.919.919,0,0,0,1101.395,545.483Z" transform="translate(-174.697 -37.73)" fill="#3227b4"/>
      <path id="Path_40318" data-name="Path 40318" d="M1026.01,1163.585l-10.785,2.491c-21.761-37.479-29.953-55.277-40.05-71.89,14.746-6.3,30.733-11.038,46.546-10.954C1025.214,1116.987,1026.01,1163.585,1026.01,1163.585Z" transform="translate(-104.417 -355.569)" fill="#ffd15c"/>
      <path id="Path_40319" data-name="Path 40319" d="M1021.72,1083.232c-24.3,5.39-38.568,14.208-42.865,17.165q-1.873-3.242-3.681-6.211C989.92,1087.885,1005.907,1083.148,1021.72,1083.232Z" transform="translate(-104.417 -355.569)" fill="#ffc428"/>
      <path id="Path_40320" data-name="Path 40320" d="M1072.967,1280.095l1.826,8.973,24.791,2.018c-13.685-11.036-6.325-6-15.567-14.7Z" transform="translate(-162.145 -469.589)" fill="#0054f2"/>
      <path id="Path_40321" data-name="Path 40321" d="M924.308,676.273c-24.515,5.991-49.037,10.689-73.559,8.721-7.327-65.876,21.637-109.809,62.3-126.11a12.39,12.39,0,0,1,16.408,7.6C937.569,591.369,926.309,655.626,924.308,676.273Z" transform="translate(-30.297 -45.513)" fill="#ffd15c"/>
      <path id="Path_40322" data-name="Path 40322" d="M1026.518,580.326c-5.183-10.294-13.671-19.158-16.647-22.1a12.376,12.376,0,0,1,14.189,8.262A62.388,62.388,0,0,1,1026.518,580.326Z" transform="translate(-124.899 -45.512)" fill="url(#linear-gradient-3)"/>
      <path id="Path_40323" data-name="Path 40323" d="M973.018,638.339c-1.372,19.048-4.154,38.931-5.92,52.583a36.08,36.08,0,0,1-11.989,4.976c-52.538,12.293-30.74-84.39-30.74-84.39,5.59-15.089,29.057-8.942,30.74-7.823C955.846,604.177,966.231,619.9,973.018,638.339Z" transform="translate(-71.78 -71.201)" fill="#ffc428"/>
      <path id="Path_40324" data-name="Path 40324" d="M949.238,943.61c-15.813-.084-31.8,4.652-46.546,10.954C873.943,907.3,857.7,909.2,852.386,855.428c24.522,1.967,49.044-2.73,73.559-8.721-2.259,22.674,13.555,43.756,20.116,74.8C947.31,927.428,948.358,935.115,949.238,943.61Z" transform="translate(-31.934 -215.947)" fill="#0078f3"/>
      <path id="Path_40325" data-name="Path 40325" d="M925.945,846.707c-.032.323-.058.634-.084.932-27.583,15.612-61.667,17.12-72.362,17.185-.414-2.931-.783-6.056-1.113-9.395C876.908,857.4,901.43,852.7,925.945,846.707Z" transform="translate(-31.934 -215.947)" fill="url(#linear-gradient-4)"/>
      <g id="Group_7989" data-name="Group 7989" transform="translate(851.577 525.489)">
        <path id="Path_40326" data-name="Path 40326" d="M986.688,642.527c-12.99,5.931-24.229,14.657-30.662,27.6-12.585-9.815-22.057-23.92-24.787-35.521-6.132-26.066-3.744-45.943,23.228-44.8C967.763,590.365,977.6,621.694,986.688,642.527Z" transform="translate(-928.409 -589.755)" fill="#0078f6"/>
        <path id="Path_40327" data-name="Path 40327" d="M967.059,671.909a52.089,52.089,0,0,0-11.083,14.81c-12.584-9.815-22.057-23.92-24.787-35.521-2.737-11.633-4.464-24.405-.5-33.328.828,2.491,19.242,57.125,35.618,54.149C966.574,671.974,966.82,671.935,967.059,671.909Z" transform="translate(-928.359 -606.352)" fill="url(#linear-gradient-5)"/>
      </g>
      <g id="Group_7990" data-name="Group 7990" transform="translate(879.194 567.751)">
        <path id="Path_40328" data-name="Path 40328" d="M1155.653,712.312s20.682-18.719,22.645-19.323,1.51,2.566,1.51,2.566-17.361,18.87-22.493,19.625S1155.653,712.312,1155.653,712.312Z" transform="translate(-1089.472 -692.912)" fill="#ffa34d"/>
        <path id="Path_40329" data-name="Path 40329" d="M1076.955,721.786c-2.219,5.493-11.814,8.347-11.814,8.347-5.45,21.428-36.519,41.657-69.373,16.026,9.9-19.913,29.916-26.849,30.662-27.6,4.271,9.783,8.373,17.256,12.591,18.13,13.212,2.75,23.94-7.195,23.94-7.195s3.267-5.881,4.316-6.671.13.919,3.532.79S1079.181,716.287,1076.955,721.786Z" transform="translate(-995.768 -708.055)" fill="#f0868c"/>
        <path id="Path_40330" data-name="Path 40330" d="M995.768,757.509a67.05,67.05,0,0,0,7.227,4.922,65.394,65.394,0,0,1,9.792-24.64A54.275,54.275,0,0,0,995.768,757.509Z" transform="translate(-995.768 -719.405)" fill="url(#linear-gradient-6)"/>
        <path id="Path_40331" data-name="Path 40331" d="M1070.841,788.218c-10.4,6.857-24.392,8.965-38.355,3.409C1048.3,776.77,1062.281,778.493,1070.841,788.218Z" transform="translate(-1017.443 -744.73)" fill="url(#linear-gradient-7)"/>
      </g>
      <path id="Path_40332" data-name="Path 40332" d="M980.386,957.172c-16.736-24.12-27.76-88.4-27.87-89.043l.638-.108c.109.645,11.109,64.781,27.763,88.782Z" transform="translate(-91.042 -228.529)" fill="#004d9e"/>
      <path id="Path_40333" data-name="Path 40333" d="M963.4,885.289l-.409-.5a42.393,42.393,0,0,0,15.34-29.527l.647.011A43.106,43.106,0,0,1,963.4,885.289Z" transform="translate(-97.224 -220.996)" fill="#004d9e"/>
      <path id="Path_40334" data-name="Path 40334" d="M967.649,887.818l-.147-.63c19.265-4.467,17.8-33.725,17.786-34.02l.646-.037C985.951,853.431,987.438,883.229,967.649,887.818Z" transform="translate(-99.888 -219.739)" fill="#004d9e"/>
    </g>
    <g id="Group_7993" data-name="Group 7993" transform="translate(-190.518 244.492)">
      <path id="Path_40335" data-name="Path 40335" d="M1218.582,516.508h-22.56a4.125,4.125,0,0,0-4.125,4.125v8.084a4.125,4.125,0,0,0,4.125,4.125h7.53l3.75,5.779,3.75-5.779h7.53a4.125,4.125,0,0,0,4.125-4.125v-8.084A4.125,4.125,0,0,0,1218.582,516.508Z" fill="#ffe3c4"/>
    </g>
    <g id="phone" transform="translate(1000.097 774.653) rotate(-87)">
      <path id="Path_40340" data-name="Path 40340" d="M35.983,9.891V4.239A4.229,4.229,0,0,0,31.764,0c-8.14,0-16.08,3.848-21.987,9.731S0,23.531,0,31.67A4.227,4.227,0,0,0,4.239,35.89H9.891a1.41,1.41,0,0,0,1.339-.966l2.826-8.458a1.414,1.414,0,0,0-.164-1.231l-2.4-3.6a22.141,22.141,0,0,1,4.371-5.82A23,23,0,0,1,21.733,11.5l3.6,2.4a1.415,1.415,0,0,0,1.231.164l8.478-2.826A1.393,1.393,0,0,0,35.983,9.891Z" transform="translate(0 0)" fill="#ff641a"/>
      <path id="Path_40341" data-name="Path 40341" d="M26.206,9.891V4.239A4.229,4.229,0,0,0,21.987,0C13.847,0,5.906,3.848,0,9.731L6.089,15.82A23,23,0,0,1,11.956,11.5l3.6,2.4a1.415,1.415,0,0,0,1.231.164L25.26,11.23A1.393,1.393,0,0,0,26.206,9.891Z" transform="translate(9.778 0)" fill="#f03800"/>
    </g>
    <text id="_0" data-name="0" transform="translate(1023 757)" fill="#092f7e" font-size="22" font-family="Poppins-SemiBold, Poppins" font-weight="600"><tspan x="0" y="0">0</tspan></text>
  </g>
</svg>
