<svg xmlns="http://www.w3.org/2000/svg" xmlns:xlink="http://www.w3.org/1999/xlink" width="164" height="206.846" viewBox="0 0 164 206.846">
  <defs>
    <linearGradient id="linear-gradient" x1="0.484" y1="0.623" x2="0.517" y2="-0.264" gradientUnits="objectBoundingBox">
      <stop offset="0" stop-color="#ffcc42"/>
      <stop offset="1" stop-color="#ff6d1c"/>
    </linearGradient>
    <linearGradient id="linear-gradient-2" x1="0.5" y1="0.254" x2="0.5" y2="0.909" gradientUnits="objectBoundingBox">
      <stop offset="0" stop-color="#9d6cdd"/>
      <stop offset="1" stop-color="#5127ac"/>
    </linearGradient>
    <linearGradient id="linear-gradient-3" x1="0.537" y1="0.085" x2="0.311" y2="1.627" xlink:href="#linear-gradient"/>
    <linearGradient id="linear-gradient-4" x1="0.568" y1="-0.163" x2="0.323" y2="1.354" gradientUnits="objectBoundingBox">
      <stop offset="0" stop-color="#ae7fe5"/>
      <stop offset="1" stop-color="#3824bc"/>
      <stop offset="1" stop-color="#7c47ce"/>
    </linearGradient>
    <linearGradient id="linear-gradient-5" x1="0.5" y1="-0.015" x2="0.5" y2="1.566" gradientUnits="objectBoundingBox">
      <stop offset="0" stop-color="#9d6cdd"/>
      <stop offset="1" stop-color="#2d4cea"/>
      <stop offset="1" stop-color="#5127ac"/>
    </linearGradient>
    <linearGradient id="linear-gradient-6" x1="0.595" y1="-0.217" x2="0.321" y2="1.521" gradientUnits="objectBoundingBox">
      <stop offset="0" stop-color="#ae7fe5"/>
      <stop offset="1" stop-color="#5164e9"/>
      <stop offset="1" stop-color="#7c47ce"/>
    </linearGradient>
    <linearGradient id="linear-gradient-7" x1="0.5" y1="-0.015" x2="0.5" y2="1.566" gradientUnits="objectBoundingBox">
      <stop offset="0" stop-color="#9d6cdd"/>
      <stop offset="1" stop-color="#3a8ece"/>
      <stop offset="1" stop-color="#5127ac"/>
    </linearGradient>
    <linearGradient id="linear-gradient-8" y1="0.5" x2="1" y2="0.5" gradientUnits="objectBoundingBox">
      <stop offset="0" stop-color="#24419c"/>
      <stop offset="1" stop-color="#3b58a9"/>
    </linearGradient>
    <linearGradient id="linear-gradient-9" x1="0.5" y1="-0.015" x2="0.5" y2="1.566" gradientUnits="objectBoundingBox">
      <stop offset="0" stop-color="#192e81"/>
      <stop offset="1" stop-color="#294090"/>
    </linearGradient>
    <linearGradient id="linear-gradient-14" x1="0.268" y1="0.407" x2="0.99" y2="0.647" gradientUnits="objectBoundingBox">
      <stop offset="0" stop-color="#6483ff"/>
      <stop offset="1" stop-color="#a06adb"/>
    </linearGradient>
    <linearGradient id="linear-gradient-15" x1="0.5" y1="-0.015" x2="0.5" y2="1.566" xlink:href="#linear-gradient-2"/>
    <linearGradient id="linear-gradient-16" y1="0.5" x2="1" y2="0.5" gradientUnits="objectBoundingBox">
      <stop offset="0" stop-color="#1203ef"/>
      <stop offset="1" stop-color="#5127ac"/>
    </linearGradient>
    <linearGradient id="linear-gradient-17" x1="0.548" y1="0.408" x2="0.614" y2="0.748" xlink:href="#linear-gradient"/>
    <linearGradient id="linear-gradient-18" x1="0.549" y1="0.401" x2="0.152" y2="0.699" gradientUnits="objectBoundingBox">
      <stop offset="0" stop-color="#a5bff4"/>
      <stop offset="1" stop-color="#a06adb"/>
    </linearGradient>
    <linearGradient id="linear-gradient-19" x1="0.327" y1="-0.406" x2="0.58" y2="0.927" xlink:href="#linear-gradient-2"/>
    <linearGradient id="linear-gradient-21" x1="0.489" y1="0.398" x2="0.553" y2="0.735" xlink:href="#linear-gradient"/>
  </defs>
  <g id="Group_8016" data-name="Group 8016" transform="translate(-820.146 -216.044)" opacity="0.88">
    <path id="Path_40374" data-name="Path 40374" d="M995.154,349c-2.266,31.463-10.894,77.84-15.966,76.285.028,15.817-88.781,15.817-88.748,0-4.537,1.391-11.918-35.539-15.045-65.866-1.759-17.009-2.183-31.942-.014-36.87.666-4.9,9.652-11.955,20.546-18.363,14.752-8.679,33.008-16.181,38.885-15.552,7.52-.8,35.5,11.792,50.244,23.081,5.216,3.993,8.776,7.823,9.186,10.834C995.95,326.438,996.053,336.55,995.154,349Z" transform="translate(-30.425 -41.056)" fill="#3f59b8"/>
    <path id="Path_40375" data-name="Path 40375" d="M1013.756,311.714c-6.431,3.3-24.659,74.835-24.659,74.835-1.565-9.248-2.413-93.017-25.035-93.017-21.923,0-29.308,93.017-29.308,93.017s-7.871-77.706-10.128-82.364c14.752-8.679,33.008-16.181,38.885-15.552C971.031,287.832,999.013,300.425,1013.756,311.714Z" transform="translate(-59.124 -41.056)" fill="url(#linear-gradient)"/>
    <path id="Path_40376" data-name="Path 40376" d="M982.325,364.08c-1.335-22.009-11.749-42.842-11.749-42.842-3.854,24.108-9.211,43.317-17.223,57.444-11.989,2.371-26.363,1.147-38.6-.909-17.634-18.1-10.688-55.255-10.688-55.255-10.442,20.524-11.786,37.754-7.742,51.332-4.473-1.14-7.5-2.043-8.336-2.251a53.837,53.837,0,0,0-10.656,6.292c3.127,30.327,10.508,67.258,15.045,65.866-.033,15.817,88.776,15.817,88.748,0,5.073,1.554,13.7-44.823,15.966-76.286C992.279,364.907,987.22,363.433,982.325,364.08Z" transform="translate(-32.36 -59.528)" opacity="0.2" fill="url(#linear-gradient-2)" style="mix-blend-mode: multiply;isolation: isolate"/>
    <path id="Path_40377" data-name="Path 40377" d="M1009.723,305.717c0,7.125-4.25,25.686-10.925,25.686s-13.25-18.56-13.25-25.686,5.412-12.9,12.087-12.9S1009.723,298.592,1009.723,305.717Z" transform="translate(-93.599 -43.444)" fill="url(#linear-gradient-3)"/>
    <g id="Group_8007" data-name="Group 8007" transform="translate(820.146 373.056)">
      <path id="Path_40378" data-name="Path 40378" d="M1011.967,635.979c2.939-.781,2.714-1.9-.405-4.822,0,0-19.257-16.945-33.831-25.346a125.771,125.771,0,0,0-16.169-7.847,70.462,70.462,0,0,0-20.19,38.392C972.091,638.615,1006.213,639.6,1011.967,635.979Z" transform="translate(-888.746 -589.18)" fill="#ff4a38"/>
      <path id="Path_40379" data-name="Path 40379" d="M892.961,586.821a68.649,68.649,0,0,0-13.28,17.912,72.016,72.016,0,0,0-6.91,20.48c-26.553-1.954-50.775-9.06-52.5-26.446-.693-7,1.582-11.806,5.747-14.994,8.479-6.492,24.78-6.282,39.741-4.211A116.228,116.228,0,0,1,892.961,586.821Z" transform="translate(-820.146 -578.038)" fill="url(#linear-gradient-4)"/>
      <path id="Path_40380" data-name="Path 40380" d="M879.681,611.9a72.016,72.016,0,0,0-6.91,20.48c-26.553-1.954-50.775-9.06-52.5-26.446-.693-7,1.582-11.806,5.747-14.994C827.055,597.31,834.375,611.866,879.681,611.9Z" transform="translate(-820.146 -585.208)" fill="url(#linear-gradient-5)"/>
      <path id="Path_40381" data-name="Path 40381" d="M900.836,663.649s-5.992-2.3-9.153-1.58-5.6,3.424-5.6,5.531,5.729,4.017,8.56,4.083,8.824-1.778,9.68-3.161S903.4,663.057,900.836,663.649Z" transform="translate(-857.461 -625.377)" fill="#ffce36"/>
      <path id="Path_40382" data-name="Path 40382" d="M1103.884,669s6.122-1.935,9.232-1.019,5.378,3.759,5.249,5.862-5.963,3.66-8.793,3.553-8.7-2.313-9.469-3.745S1101.357,668.251,1103.884,669Z" transform="translate(-978.477 -628.662)" fill="#ffce36"/>
      <g id="Group_8006" data-name="Group 8006" transform="translate(39.95 16.276)">
        <path id="Path_40383" data-name="Path 40383" d="M984.125,647.92c-30.616,2.769-64.414-1.675-70.026-5.682-2.718-1.28-2.457-2.425.149-4.263,0,0,43.487-22.37,44.19-22.751,7.571,3.258,13.542,9.075,18.079,16.129A69.208,69.208,0,0,1,984.125,647.92Z" transform="translate(-912.174 -615.224)" fill="#ff6c5d"/>
        <path id="Path_40384" data-name="Path 40384" d="M984.125,668.946c-30.616,2.769-64.414-1.675-70.026-5.682-2.718-1.28-2.457-2.424.149-4.263,0,0-.614,2.946,10.536,3.225,8.572.209,38.411-6.664,51.734-9.847A69.209,69.209,0,0,1,984.125,668.946Z" transform="translate(-912.174 -636.25)" fill="#ff4a38"/>
      </g>
      <path id="Path_40385" data-name="Path 40385" d="M1096.231,600.019c-2.69,16.972-26.125,24.362-51.8,26.684a65.977,65.977,0,0,0-9.917-19.889,39.55,39.55,0,0,0-15.771-12.807c12.337-6.72,18.614-14.649,33.194-15.808,16.283-1.294,34-.331,41.235,8.348C1095.915,589.833,1097.148,594.226,1096.231,600.019Z" transform="translate(-932.531 -577.731)" fill="url(#linear-gradient-6)"/>
      <path id="Path_40386" data-name="Path 40386" d="M1116.789,611.513c-2.69,16.972-26.125,24.361-51.8,26.684a65.974,65.974,0,0,0-9.917-19.889c17.688-2.708,52.65-9.363,58.658-20.266C1116.473,601.326,1117.706,605.719,1116.789,611.513Z" transform="translate(-953.089 -589.224)" fill="url(#linear-gradient-7)"/>
    </g>
    <path id="Path_40387" data-name="Path 40387" d="M1011.975,271.9c0,8.06-2.076,14.57-7.949,14.761-.563.019-1.1.019-1.605,0-.507.014-1.042.014-1.6,0-5.878-.191-7.953-6.7-7.953-14.761v-.037c.014-7.981,3.76-14.454,9.554-14.556,5,.089,8.483,4.928,9.34,11.387A23.217,23.217,0,0,1,1011.975,271.9Z" transform="translate(-97.741 -23.349)" fill="#ff6c5d"/>
    <path id="Path_40388" data-name="Path 40388" d="M1011.761,268.691a9.486,9.486,0,0,0-4.751-.638c-1.973.251-3.9,1.122-5.873.88-1.889-.233-3.788-1.471-5.561-.782-1.6.619-2.047,2.294-2.708,3.709.014-7.981,3.76-14.454,9.554-14.556C1007.424,257.393,1010.9,262.232,1011.761,268.691Z" transform="translate(-97.741 -23.349)" fill="#ff4a38"/>
    <g id="Group_8008" data-name="Group 8008" transform="translate(895.406 254.212)">
      <path id="Path_40389" data-name="Path 40389" d="M1011.9,312.646c-.54,3.411-2.662,6.85-9.116,6.58-9.172.386-9.6-6.729-9.163-10.587a16.3,16.3,0,0,1,.438-2.406c2.424,2.332,4.388-2.006,8.725-2.266,4.337.26,6.3,4.6,8.726,2.266A16.957,16.957,0,0,1,1011.9,312.646Z" transform="translate(-993.51 -303.967)" fill="url(#linear-gradient-8)"/>
      <path id="Path_40390" data-name="Path 40390" d="M1011.9,318.736c-.54,3.411-2.662,6.85-9.116,6.58-9.172.386-9.6-6.729-9.163-10.587a16.387,16.387,0,0,1,3.439,2.164,15.512,15.512,0,0,0,7.618,3.607A12.267,12.267,0,0,0,1011.9,318.736Z" transform="translate(-993.51 -310.058)" fill="url(#linear-gradient-9)"/>
    </g>
    <g id="Group_8009" data-name="Group 8009" transform="translate(899.417 216.044)">
      <path id="Path_40391" data-name="Path 40391" d="M1013.245,221.53a16.3,16.3,0,0,1-.349,3.188c-.823,4.026-2.936,8.158-4.8,8.158s-4.072-4.091-4.956-8.092v0a15.4,15.4,0,0,1-.386-3.248c0-4.649,2.965-5.486,5.342-5.486S1013.245,216.881,1013.245,221.53Z" transform="translate(-1002.751 -216.044)" fill="url(#linear-gradient-8)"/>
      <path id="Path_40392" data-name="Path 40392" d="M1013.4,234.154c-.823,4.026-2.936,8.158-4.8,8.158s-4.072-4.091-4.956-8.092v0C1005.958,233.214,1011.049,231.451,1013.4,234.154Z" transform="translate(-1003.255 -225.48)" fill="url(#linear-gradient-9)"/>
    </g>
    <path id="Path_40393" data-name="Path 40393" d="M1010.266,263.573c.251-9.3-4.988-5-8.9-4.891q-.23.006-.461,0c-.154,0-.307,0-.461,0-3.914-.107-9.154-4.407-8.9,4.891a13.328,13.328,0,0,1-1.354-6.7,21.843,21.843,0,0,1,.218-2.918,9.879,9.879,0,0,1,10.345-8.665c.051,0,.1,0,.154,0s.1,0,.154,0a9.879,9.879,0,0,1,10.256,8.12c.033.177.06.358.089.544C1012.286,260.3,1010.266,263.573,1010.266,263.573Z" transform="translate(-96.223 -16.55)" fill="url(#linear-gradient-8)"/>
    <path id="Path_40394" data-name="Path 40394" d="M1010.266,272.788c.251-9.3-4.988-5-8.9-4.891q-.23.007-.461,0c-.154,0-.307,0-.461,0-3.914-.107-9.154-4.407-8.9,4.891a13.328,13.328,0,0,1-1.354-6.7,5.258,5.258,0,0,1,3.606-3.779c2.136-.717,4.449-.042,6.664.354a10.826,10.826,0,0,0,5.166-.075c1.215-.382,2.382-1.121,3.658-1a3.27,3.27,0,0,1,2.033,1.042c.033.177.06.358.089.544C1012.286,269.512,1010.266,272.788,1010.266,272.788Z" transform="translate(-96.223 -25.765)" fill="url(#linear-gradient-9)"/>
    <g id="Group_8012" data-name="Group 8012" transform="translate(830.741 260.325)">
      <g id="Group_8010" data-name="Group 8010" transform="translate(8.771 72.695)">
        <path id="Path_40395" data-name="Path 40395" d="M902.59,538.993q-2.241-1.13-4.379-2.369a85.464,85.464,0,0,1-33.454-34.841,34.98,34.98,0,0,1,9.633-8.814,57.969,57.969,0,0,1,20.341-7.464c.824,19.559,9.833,38.145,13.523,48.495A4.07,4.07,0,0,1,902.59,538.993Z" transform="translate(-864.756 -485.505)" fill="#ff6c5d"/>
        <path id="Path_40396" data-name="Path 40396" d="M898.21,546.354a85.464,85.464,0,0,1-33.454-34.841,34.98,34.98,0,0,1,9.633-8.814C877.749,513.594,885.325,533.8,898.21,546.354Z" transform="translate(-864.756 -495.235)" fill="#ff4a38"/>
      </g>
      <g id="Group_8011" data-name="Group 8011">
        <path id="Path_40397" data-name="Path 40397" d="M885.069,319.637c-5.857-6.277-21.94,7.54-28.214,15.375-15.859,19.773-15.673,48.405-3.532,72.009,6.935-9.432,18.5-14.159,29.974-16.278a58.875,58.875,0,0,1,1.28-15.454C885.639,370.191,890.593,325.549,885.069,319.637Z" transform="translate(-844.551 -318.048)" fill="url(#linear-gradient-14)"/>
        <path id="Path_40398" data-name="Path 40398" d="M889.97,461.95c-.075.6-.135,1.187-.191,1.782-.037.382-.065.758-.089,1.14-.079,1.08-.125,2.164-.144,3.244-.023,1.335,0,2.671.051,4a68.092,68.092,0,0,0-11.248,3.039c-7.38,2.727-14.086,6.929-18.726,13.24a81.137,81.137,0,0,1-3.937-8.916c3.416-3.718,11.01-11.154,20.285-15.082a29.55,29.55,0,0,1,12.564-2.536C889.011,461.871,889.49,461.9,889.97,461.95Z" transform="translate(-850.853 -399.418)" fill="url(#linear-gradient-15)"/>
        <path id="Path_40399" data-name="Path 40399" d="M898.038,348.148c-4.978,6.935-21.437,35.97-2.1,59.63a68.105,68.105,0,0,1,11.248-3.039c-.554-13.136,1.93-10.6,3.83-40.211C909.3,341.874,905.426,337.854,898.038,348.148Z" transform="translate(-868.437 -332.044)" opacity="0.3" fill="url(#linear-gradient-16)"/>
        <path id="Path_40400" data-name="Path 40400" d="M910.843,319.675c-4.03-4.319-13.267,1.019-20.745,7.636,3.712-1.136,11.62-5.129,15.017,2.708,6.178,14.222,2.546,45.344,3.955,60.762a58.683,58.683,0,0,1,1.28-15.454C911.414,370.229,916.368,325.588,910.843,319.675Z" transform="translate(-870.326 -318.086)" fill="url(#linear-gradient-17)"/>
      </g>
    </g>
    <g id="Group_8014" data-name="Group 8014" transform="translate(915.291 260.111)">
      <path id="Path_40401" data-name="Path 40401" d="M1085.652,504.124a85.8,85.8,0,0,1-40.723,34.023,4.07,4.07,0,0,1-5.239-5.438c4.517-10.015,15-27.809,17.408-47.236C1068.4,488.531,1079.512,494.172,1085.652,504.124Z" transform="translate(-1039.318 -412.578)" fill="#ff6c5d"/>
      <g id="Group_8013" data-name="Group 8013" transform="translate(17.053)">
        <path id="Path_40402" data-name="Path 40402" d="M1110.2,337.046c-5.162-7.656-20.717-24.141-27.2-18.242-5.959,5.426-4.352,50.916-3.69,56.136a59.366,59.366,0,0,1,.023,15.51c11.327,3.066,22.409,8.707,28.554,18.651C1121.713,386.891,1124.547,358.256,1110.2,337.046Z" transform="translate(-1078.601 -317.554)" fill="url(#linear-gradient-18)"/>
        <path id="Path_40403" data-name="Path 40403" d="M1113.642,483.234a81.443,81.443,0,0,1-4.813,8.916,36.749,36.749,0,0,0-12.224-11.838,62.134,62.134,0,0,0-16.329-6.813c.1-.847.2-1.7.266-2.555a59.289,59.289,0,0,0,.214-6.632,43.522,43.522,0,0,1,18.884,6.026A48.547,48.547,0,0,1,1113.642,483.234Z" transform="translate(-1079.548 -400.603)" fill="url(#linear-gradient-19)"/>
        <path id="Path_40404" data-name="Path 40404" d="M1086.133,335.362s-1.624,17.81-7.524,26.377c-.13,28.3,2.232,26.282.721,38.787a62.133,62.133,0,0,1,16.329,6.813c1.233-3.518,2.234-6.836,3.035-9.973C1108.377,359.408,1086.133,335.362,1086.133,335.362Z" transform="translate(-1078.602 -327.631)" opacity="0.3" fill="url(#linear-gradient-15)"/>
        <path id="Path_40405" data-name="Path 40405" d="M1083,318.843c-6.054,5.51-4.276,51.478-3.69,56.136a57.281,57.281,0,0,1,.289,12.956c5.224-47.34,6.354-70.4,22.3-60.752C1095.136,320.453,1087.076,315.134,1083,318.843Z" transform="translate(-1078.605 -317.593)" fill="url(#linear-gradient-21)"/>
      </g>
    </g>
    <g id="Group_8015" data-name="Group 8015" transform="translate(858.609 327.645)">
      <path id="Path_40406" data-name="Path 40406" d="M1003.858,484.637l-3.16,53.218H911.927l-3.16-53.218a10.867,10.867,0,0,1,10.848-11.513h73.4A10.867,10.867,0,0,1,1003.858,484.637Z" transform="translate(-908.748 -473.124)" fill="#bce4ed"/>
      <path id="Path_40407" data-name="Path 40407" d="M1005.014,557.231l-1.675,28.219H914.567l-1.154-19.47C933.172,569.074,976.325,572.816,1005.014,557.231Z" transform="translate(-911.388 -520.719)" fill="#36a8c4" opacity="0.3"/>
    </g>
  </g>
</svg>
