<svg xmlns="http://www.w3.org/2000/svg" xmlns:xlink="http://www.w3.org/1999/xlink" width="252.946" height="250.038" viewBox="0 0 252.946 250.038">
  <defs>
    <linearGradient id="linear-gradient" x1="0.486" y1="0.83" x2="0.54" y2="0.218" gradientUnits="objectBoundingBox">
      <stop offset="0" stop-color="#faa523"/>
      <stop offset="1" stop-color="#fecb55"/>
    </linearGradient>
    <linearGradient id="linear-gradient-2" x1="0.968" y1="2.224" x2="0.328" y2="-0.445" gradientUnits="objectBoundingBox">
      <stop offset="0" stop-color="#ed301e"/>
      <stop offset="1" stop-color="#f1664b"/>
    </linearGradient>
    <linearGradient id="linear-gradient-3" x1="0.497" y1="0.743" x2="0.503" y2="0.418" gradientUnits="objectBoundingBox">
      <stop offset="0" stop-color="#f5791d"/>
      <stop offset="1" stop-color="#f9a34b"/>
    </linearGradient>
    <linearGradient id="linear-gradient-4" x1="-21.637" y1="4.771" x2="-20.72" y2="4.771" gradientUnits="objectBoundingBox">
      <stop offset="0" stop-color="#16297a"/>
      <stop offset="1" stop-color="#253a89"/>
    </linearGradient>
    <linearGradient id="linear-gradient-5" x1="-127.314" y1="0.903" x2="-126.315" y2="0.903" gradientUnits="objectBoundingBox">
      <stop offset="0" stop-color="#24419c"/>
      <stop offset="1" stop-color="#3b58a9"/>
    </linearGradient>
    <linearGradient id="linear-gradient-6" x1="-81.812" y1="0.976" x2="-80.801" y2="0.976" xlink:href="#linear-gradient-5"/>
    <linearGradient id="linear-gradient-7" x1="-104.638" y1="1.047" x2="-103.627" y2="1.047" xlink:href="#linear-gradient-4"/>
    <linearGradient id="linear-gradient-8" x1="-31.861" y1="0.954" x2="-30.864" y2="0.954" xlink:href="#linear-gradient-5"/>
    <linearGradient id="linear-gradient-9" x1="-34.536" y1="1.537" x2="-33.539" y2="1.537" xlink:href="#linear-gradient-4"/>
    <linearGradient id="linear-gradient-10" x1="-168.662" y1="119.613" x2="-167.046" y2="119.613" xlink:href="#linear-gradient-5"/>
    <linearGradient id="linear-gradient-11" x1="-74.068" y1="0.917" x2="-73.064" y2="0.917" xlink:href="#linear-gradient-5"/>
    <linearGradient id="linear-gradient-12" x1="-157.516" y1="0.918" x2="-156.545" y2="0.918" xlink:href="#linear-gradient-4"/>
    <linearGradient id="linear-gradient-13" x1="-127.738" y1="1.344" x2="-126.742" y2="1.344" gradientUnits="objectBoundingBox">
      <stop offset="0" stop-color="#1e3c98"/>
      <stop offset="1" stop-color="#3554a5"/>
    </linearGradient>
    <linearGradient id="linear-gradient-14" x1="-127.738" y1="1.648" x2="-126.742" y2="1.648" xlink:href="#linear-gradient-4"/>
    <linearGradient id="linear-gradient-15" x1="-134.49" y1="2.057" x2="-133.483" y2="2.057" xlink:href="#linear-gradient-13"/>
    <linearGradient id="linear-gradient-16" x1="-136.872" y1="2.656" x2="-135.868" y2="2.656" xlink:href="#linear-gradient-4"/>
  </defs>
  <g id="No_activity" data-name="No activity" transform="translate(-1378.04 -225.856)" opacity="0.81">
    <g id="Group_7996" data-name="Group 7996" transform="translate(1402.141 265.522)">
      <path id="Path_40342" data-name="Path 40342" d="M1652.255,439.836c-5.857,39.093-29.728,72.895-86.971,72.895-85.717,0-132.329-5.267-139.41-38.222a48.392,48.392,0,0,1-.834-13.288c1.028-16.185,8.749-26.206,19.881-37.117,13.961-13.7,33.279-28.787,51.473-59.161,10.505-24.484,23.482-40.507,37.318-50.1,38.044-26.4,82.574-4.267,99.859,23.977C1647.237,361.131,1657.806,402.854,1652.255,439.836Z" transform="translate(-1424.919 -303.009)" fill="url(#linear-gradient)"/>
      <g id="Group_7995" data-name="Group 7995" transform="translate(0.955 136.827)" opacity="0.5">
        <path id="Path_40343" data-name="Path 40343" d="M1653.157,569.146c-5.857,39.093-29.728,72.895-86.971,72.895-85.717,0-132.329-5.267-139.41-38.222C1463.235,618.051,1589.129,658.589,1653.157,569.146Z" transform="translate(-1426.777 -569.146)" fill="url(#linear-gradient-2)"/>
      </g>
      <path id="Path_40344" data-name="Path 40344" d="M1617.453,415.88c-.552,7.151.144,14.493-1.995,21.365-5.105,16.388-24.278,24.65-41.889,27.645-33.41,5.669-69.743-1.828-100.926-13.615-3.562-1.346-7.262-2.964-9.389-6.008a11.881,11.881,0,0,1-1.066-10.571c.145-.414.3-.828.477-1.242,13.961-13.7,33.279-28.787,51.473-59.161,10.505-24.483,23.482-40.507,37.317-50.1.922-.191,1.881-.37,2.872-.531,16.068-2.581,34.037-2.525,47.051,8.3,5,4.162,8.687,9.559,11.96,15.06,4.854,8.151,9.006,16.919,9.947,26.249C1624.734,387.575,1618.557,401.549,1617.453,415.88Z" transform="translate(-1442.662 -312.361)" fill="url(#linear-gradient-3)"/>
    </g>
    <g id="Group_8005" data-name="Group 8005" transform="translate(1378.04 225.856)">
      <path id="Path_40345" data-name="Path 40345" d="M1482.31,402.65c33.289.415,87.6,44.561,87.6,44.561l43.627,15.176s5.05,28.44-42.976,35.716-79.112-58.036-79.112-58.036a18.12,18.12,0,0,1-.384,1.907c-4.16-13.2-10.726-25.736-20.466-35.3A19.135,19.135,0,0,1,1482.31,402.65Z" transform="translate(-1423.013 -311.755)" fill="url(#linear-gradient-4)"/>
      <path id="Path_40346" data-name="Path 40346" d="M1410.221,500.072l4.318.936a330.441,330.441,0,0,0,27.069-25.6c9.3-9.989,17.939-21.07,20.122-29.625-4.159-13.2-10.728-25.738-20.466-35.3-12.647,9.276-20.555,33.309-25.22,54.149A321.183,321.183,0,0,0,1410.221,500.072Z" transform="translate(-1393.676 -315.565)" fill="#f37669"/>
      <path id="Path_40347" data-name="Path 40347" d="M1421.546,464.637c17.841-2.68,23.666,5.457,25.564,10.771,9.3-9.989,17.939-21.07,20.122-29.625-4.159-13.2-10.728-25.738-20.466-35.3C1434.119,419.764,1426.211,443.8,1421.546,464.637Z" transform="translate(-1399.179 -315.565)" fill="#eb5047"/>
      <path id="Path_40348" data-name="Path 40348" d="M1399.781,581.678l.742,5.532s-5.744.446-7.456-.352-8.739,1.2-13.721.221,5.523-6.105,10.858-7.606,4.549-1.607,5.212-1.027S1396.5,580.669,1399.781,581.678Z" transform="translate(-1378.04 -397.013)" fill="url(#linear-gradient-5)"/>
      <path id="Path_40349" data-name="Path 40349" d="M1610.177,361.767c2.724.489,5.443,1.034,8.158,1.6,6.271,1.31,12.5,2.738,18.61,3.852a43.681,43.681,0,0,1,7,2.407,123.951,123.951,0,0,0,4.331-27.263c.585-13.506-1.47-24.335-6.357-24.951C1622.423,314.957,1614.144,342.072,1610.177,361.767Z" transform="translate(-1490.83 -270.265)" fill="url(#linear-gradient-6)"/>
      <path id="Path_40350" data-name="Path 40350" d="M1626.045,369.888c6.271,1.31,12.5,2.738,18.61,3.852a43.693,43.693,0,0,1,7,2.407,123.943,123.943,0,0,0,4.33-27.263c-7.09-12.662-12.182-23.873-20.1-15.062Z" transform="translate(-1498.54 -276.786)" fill="url(#linear-gradient-7)"/>
      <path id="Path_40351" data-name="Path 40351" d="M1558.68,492.344q4.515,7.835,8.466,15.94,2.541,5.168,4.891,10.426.792,1.772,1.569,3.549c3.325,2.722,25.962,20.356,50.245,16.71,26.293-3.953,32.591-26.9,33.072-27.956L1611,484.706S1581.292,488.187,1558.68,492.344Z" transform="translate(-1465.809 -351.625)" fill="url(#linear-gradient-8)"/>
      <path id="Path_40352" data-name="Path 40352" d="M1558.68,492.344q4.515,7.835,8.466,15.94c30.782-10.45,73.051-3.423,81.942-1.759L1611,484.706S1581.292,488.187,1558.68,492.344Z" transform="translate(-1465.809 -351.625)" fill="url(#linear-gradient-9)"/>
      <path id="Path_40353" data-name="Path 40353" d="M1510.338,520.419c5.24,32.13,34.186,73.423,34.186,73.423l3.568-2.012q.2-6.052.349-11.483c1.01-35.228.863-51.219.863-51.219s.145.124.423.349a297.914,297.914,0,0,0-14.926-29.915c-13.745,2.525-24.866,5.3-25.092,7.7A52.224,52.224,0,0,0,1510.338,520.419Z" transform="translate(-1441.929 -358.844)" fill="#f37669"/>
      <path id="Path_40354" data-name="Path 40354" d="M1510.338,520.419c24.271-12.418,35.073,40.933,38.1,59.928,1.01-35.228.863-51.219.863-51.219s.145.124.423.349a297.914,297.914,0,0,0-14.926-29.915c-13.745,2.525-24.866,5.3-25.092,7.7A52.224,52.224,0,0,0,1510.338,520.419Z" transform="translate(-1441.929 -358.844)" fill="#eb5047"/>
      <path id="Path_40355" data-name="Path 40355" d="M1575.851,675.009l5.062,2.336s-2.357,4.637-3.852,5.53-3.141,7.329-6.35,10.633-2.563-7.438-1.3-12.316.8-4.33,1.609-4.534S1573.428,677,1575.851,675.009Z" transform="translate(-1470.519 -444.09)" fill="url(#linear-gradient-10)"/>
      <path id="Path_40356" data-name="Path 40356" d="M1548.5,497.128l-49.117,5.2-54.964-9.472,51.379-8.367Z" transform="translate(-1410.293 -351.52)" fill="#bce4ed"/>
      <g id="Group_7997" data-name="Group 7997" transform="translate(77.945 91.502)">
        <path id="Path_40357" data-name="Path 40357" d="M1530.448,449.708c1.866.279,10.549.136,10.193-2.65a57.983,57.983,0,0,1,.167-8.689s.664.162,1.893.4a125.842,125.842,0,0,0,42.175.733c9.206-1.469,15.918-13.5,19.938-27.81a43.687,43.687,0,0,0-7-2.407c-6.279-1.147-12.7-2.628-19.146-3.965-2.536-.528-5.077-1.03-7.622-1.486-1.922,9.556-2.831,17.368-3.507,19.2-2.079,5.618-30.275,7.635-33.852,16.38S1528.582,449.428,1530.448,449.708Z" transform="translate(-1529.648 -403.833)" fill="#f37669"/>
        <path id="Path_40358" data-name="Path 40358" d="M1555.036,440.174a125.843,125.843,0,0,0,42.175.733c9.206-1.469,15.918-13.5,19.938-27.81a43.683,43.683,0,0,0-7-2.407c-6.279-1.147-12.7-2.628-19.146-3.965.864,5.823,2.206,21.8-7.964,27.094C1572.379,439.374,1558.272,436.592,1555.036,440.174Z" transform="translate(-1541.984 -405.238)" fill="#eb5047"/>
      </g>
      <g id="Group_7998" data-name="Group 7998" transform="translate(127.059 29.617)">
        <path id="Path_40359" data-name="Path 40359" d="M1626.7,382.578a17.334,17.334,0,0,0,4,3.712c14.654,10.651,58.535,26.943,58.535,26.943,5.244-9.19,15.179-40.369,11.141-80.757a47.547,47.547,0,0,0-10.385-25.581c-15.181-18.866-41.451-23.71-43.688-23.419,0,0-15.143,1.934-11.255,33.226S1619.786,372.577,1626.7,382.578Z" transform="translate(-1625.178 -283.463)" fill="#d7bee6"/>
        <path id="Path_40360" data-name="Path 40360" d="M1635.914,408.435c14.654,10.651,58.535,26.943,58.535,26.943,5.244-9.19,15.179-40.369,11.141-80.757a47.547,47.547,0,0,0-10.385-25.581c-.076.032-.151.064-.222.1,0,0-44.035,71.119-58.757,79.112C1636.12,408.309,1636.014,408.367,1635.914,408.435Z" transform="translate(-1630.394 -305.608)" fill="#be98d5"/>
      </g>
      <g id="Group_8000" data-name="Group 8000" transform="translate(87.719 47.776)">
        <path id="Path_40361" data-name="Path 40361" d="M1548.7,459.2c.422,1.209,6.917,1.91,8.079-1.349a32.974,32.974,0,0,0,1.508-6.911s1.918.7,5.215,1.719c11.261,3.511,38.585,10.912,60.161,7.733,11.1-1.638,20.046-17.631,24.408-36.168q-9.02-3.948-18.328-7.107-10.74-3.668-21.774-6.354a204.953,204.953,0,0,0,1.273,22.863s-55.855,14.963-56.649,16.191S1548.269,458,1548.7,459.2Z" transform="translate(-1548.66 -363.477)" fill="#f37669"/>
        <path id="Path_40362" data-name="Path 40362" d="M1577.521,458.668c11.261,3.511,38.585,10.912,60.161,7.733,11.1-1.638,20.046-17.631,24.408-36.168q-9.021-3.948-18.328-7.107c-.537,7.5-1.035,22.016-12.481,25.765C1619.657,452.7,1589.506,457.036,1577.521,458.668Z" transform="translate(-1562.683 -369.481)" fill="#eb5047"/>
        <g id="Group_7999" data-name="Group 7999" transform="translate(59.305)">
          <path id="Path_40363" data-name="Path 40363" d="M1664.012,366.075q11.948,2.93,23.569,6.975,8.378,2.928,16.533,6.486c6.339-26.966,3-59.31-17.469-60.7a20.6,20.6,0,0,0-2.462-.026C1667.278,319.632,1664.015,345.926,1664.012,366.075Z" transform="translate(-1664.012 -318.784)" fill="url(#linear-gradient-11)"/>
          <path id="Path_40364" data-name="Path 40364" d="M1708.971,373.1q8.378,2.928,16.533,6.486c6.339-26.966,3-59.31-17.469-60.7C1709.052,327.8,1711.99,356.977,1708.971,373.1Z" transform="translate(-1685.402 -318.831)" fill="url(#linear-gradient-12)"/>
        </g>
      </g>
      <g id="Group_8003" data-name="Group 8003" transform="translate(125.325)">
        <path id="Path_40365" data-name="Path 40365" d="M1630.025,266.265c1.08,11.821,1.4,13,5.9,16.476s10.587-4.025,11.139-6.4c.385-1.644,2.854-4.868,3.234-9.222a13,13,0,0,0-1.124-6.5c-3.381-7.639-.781-11.231-7.853-9.635,0,0-7.613,2.129-10.377,8.75A13.494,13.494,0,0,0,1630.025,266.265Z" transform="translate(-1625.765 -237.884)" fill="#f37669"/>
        <path id="Path_40366" data-name="Path 40366" d="M1631.868,259.735c4.593,1.282,13.364,3.985,19.355,7.385a13,13,0,0,0-1.124-6.5c-3.381-7.639-.78-11.231-7.853-9.635C1642.245,250.985,1634.632,253.114,1631.868,259.735Z" transform="translate(-1626.694 -237.884)" fill="#eb5047"/>
        <g id="Group_8001" data-name="Group 8001" transform="translate(4.574)">
          <path id="Path_40367" data-name="Path 40367" d="M1630.712,241a6.9,6.9,0,0,0,3.506,5.979c2.732,1.308,5.956.049,8.974.223a1.551,1.551,0,0,1,1.369.628c.467.913-.906,1.851-.747,2.86.193,1.228,2.026,1.009,3.158,1.514,1.358.608.67,2.359,1.64,2.928,1,.584,3.044-1.062,3.721-1.668a8.324,8.324,0,0,0,2.729-7.78c-.011-.061-.028-.121-.044-.177a5.823,5.823,0,0,0-1.221-2.477c-1.338-1.539-3.492-2.043-5.209-3.154a8.453,8.453,0,0,1-3.79-7.184c.043-1.7.583-3.539-.266-5.015a3.922,3.922,0,0,0-2.836-1.763,7.153,7.153,0,0,0-5.993,2.332,16.911,16.911,0,0,0-3.271,5.45c-.034.087-.073.174-.108.261A16.863,16.863,0,0,0,1630.712,241Z" transform="translate(-1630.702 -225.856)" fill="url(#linear-gradient-13)"/>
          <path id="Path_40368" data-name="Path 40368" d="M1630.712,248.415a6.9,6.9,0,0,0,3.506,5.979c2.732,1.308,5.956.049,8.974.223a1.551,1.551,0,0,1,1.369.628c.467.913-.906,1.851-.747,2.86.193,1.228,2.026,1.009,3.158,1.514,1.358.608.67,2.359,1.64,2.928,1,.583,3.044-1.062,3.721-1.668a8.324,8.324,0,0,0,2.729-7.78c-.011-.061-.028-.121-.044-.177-4.841.685-5.147,3.345-7.1,1.75-2.021-1.655-5.135-4.512-7.732-4.164-2.141.285-6.245-4.906-7.758-9.4-.034.087-.073.174-.108.261A16.863,16.863,0,0,0,1630.712,248.415Z" transform="translate(-1630.702 -233.267)" fill="url(#linear-gradient-14)"/>
        </g>
        <g id="Group_8002" data-name="Group 8002" transform="translate(0 33.678)">
          <path id="Path_40369" data-name="Path 40369" d="M1621.977,302.827c1.627,3.634,7.123,6.01,15.193,2.912a11.372,11.372,0,0,0,7.441-10.055c.061-.662.067-1.191.072-1.517.008-.758.818-2.516-.107-2.46-.783.044-2.33,1.483-2.821,1.974a5.627,5.627,0,0,1-2.569,1.426,9.967,9.967,0,0,1-6.089-.4c-2.935-1.269-6.308-5.673-6.807-1.754-.973,7.629-4.324,7.639-4.478,9.086A1.5,1.5,0,0,0,1621.977,302.827Z" transform="translate(-1621.805 -291.362)" fill="url(#linear-gradient-15)"/>
          <path id="Path_40370" data-name="Path 40370" d="M1621.977,306.913c1.627,3.634,7.123,6.01,15.193,2.912a11.372,11.372,0,0,0,7.441-10.055c-1.729,2.1-5.419,4.432-13.825,5.685a61.852,61.852,0,0,1-8.975.667A1.5,1.5,0,0,0,1621.977,306.913Z" transform="translate(-1621.805 -295.447)" fill="url(#linear-gradient-16)"/>
        </g>
      </g>
      <g id="Group_8004" data-name="Group 8004" transform="translate(10.03 85.611)">
        <path id="Path_40371" data-name="Path 40371" d="M1421.653,448.39l54.962,9.472-21.221-53.3c-.96-2.394-3.113-3.747-5.523-4.613-.261-.1-.527-.19-.793-.271-13.726-4.31-50.581-10.287-51.48-5.583C1396.287,400.935,1421.653,448.39,1421.653,448.39Z" transform="translate(-1397.549 -392.374)" fill="#faa106"/>
        <path id="Path_40372" data-name="Path 40372" d="M1459.194,454.682c1.25,4.647,3.785,8.388,5.663,8.357s2.388-3.822,1.138-8.469-3.785-8.387-5.664-8.357S1457.944,450.036,1459.194,454.682Z" transform="translate(-1427.168 -418.533)" fill="#eb5047"/>
      </g>
      <path id="Path_40373" data-name="Path 40373" d="M1444.84,455.586l54.752,9.435-21.221-53.3c-.96-2.394-3.113-3.747-5.523-4.613C1473.815,415.787,1476.6,444.774,1444.84,455.586Z" transform="translate(-1410.497 -313.922)" fill="#f98b04"/>
    </g>
  </g>
</svg>
