<svg width="335" height="246" viewBox="0 0 335 246" fill="none" xmlns="http://www.w3.org/2000/svg">
<path d="M225.174 68.0331C244.644 117.078 388.742 112.605 306.063 145.429C223.384 178.252 55.0506 250.173 35.5799 201.128C16.1093 152.083 44.1031 95.0326 126.782 62.2093C209.461 29.3859 205.703 18.9883 225.174 68.0331Z" fill="#FFF8D8" fill-opacity="0.45"/>
<g clip-path="url(#clip0)">
<path d="M132.9 91.1V150.9C132.9 156.4 128.4 161 122.8 161H63.1C57.5 160.9 53 156.4 53 150.8V91.1C53 85.5 57.5 81 63.1 81H122.8C128.4 81 132.9 85.5 132.9 91.1Z" fill="#EAEAFA"/>
<path d="M222.701 91.1V150.9C222.701 156.4 218.201 161 212.601 161H152.901C147.301 161 142.801 156.5 142.801 150.9V91.1C142.801 85.5 147.301 81 152.901 81H212.601C218.201 81 222.701 85.5 222.701 91.1Z" fill="#EAEAFA"/>
<path d="M274.1 142.7L256 199.6C254.3 204.9 248.7 207.8 243.4 206.1L186.4 188C181.1 186.3 178.2 180.6 179.9 175.4L198 118.5C199.7 113.2 205.3 110.3 210.6 112L267.5 130.1C272.9 131.7 275.8 137.4 274.1 142.7Z" fill="#F6F6FE"/>
<path d="M100.366 141.075C111.499 136.946 117.176 124.573 113.046 113.439C108.917 102.306 96.5435 96.6288 85.4104 100.759C74.2772 104.888 68.5998 117.262 72.7297 128.395C76.8595 139.528 89.2326 145.205 100.366 141.075Z" fill="#C8C8EE"/>
<path d="M238.114 181.794C249.247 177.665 227.288 176.633 223.158 165.5C219.029 154.367 234.292 137.348 223.158 141.478C212.025 145.607 206.348 157.981 210.478 169.114C214.608 180.247 226.981 185.924 238.114 181.794Z" fill="#EBEBF4"/>
<path d="M134.862 145.254L135.689 152.122L133.827 150.923L133 144.055L134.862 145.254Z" fill="#F49758"/>
<path d="M135.185 151.401L135.689 158.269L133.672 157.07L133 150.202L135.185 151.401Z" fill="#F49758"/>
<path d="M194.177 147.512L194.849 156.548L192.832 158.269L192.16 149.233L194.177 147.512Z" fill="#F49758"/>
<path d="M137.812 153.799L138.379 160.958L136.114 160.049L135.689 152.891L137.812 153.799Z" fill="#F49758"/>
<path d="M194.311 150.202L194.849 159.614L192.698 160.958L192.16 151.696L194.311 150.202Z" fill="#F49758"/>
<path d="M140.701 156.386L141.068 163.647L138.868 162.84L138.379 155.58L140.701 156.386Z" fill="#F49758"/>
<path d="M191.793 152.891L192.16 162.435L189.96 163.647L189.471 154.103L191.793 152.891Z" fill="#F49758"/>
<path d="M143.307 158.862L143.755 166.336L141.403 165.743L141.066 158.269L143.307 158.862Z" fill="#F49758"/>
<path d="M188.492 155.58L189.47 162.356L187.759 163.647L186.781 156.871L188.492 155.58Z" fill="#F49758"/>
<path d="M186.333 155.58L186.781 165.401L184.428 166.336L184.092 156.515L186.333 155.58Z" fill="#F49758"/>
<path d="M145.728 159.868L146.445 169.025L144.473 167.426L143.756 158.269L145.728 159.868Z" fill="#F49758"/>
<path d="M148.704 161.206L149.134 169.025L146.876 168.777L146.445 160.958L148.704 161.206Z" fill="#F49758"/>
<path d="M183.661 158.269L184.091 168.383L181.833 169.025L181.402 158.911L183.661 158.269Z" fill="#F49758"/>
<path d="M151.258 161.966L151.824 169.025L149.701 168.016L149.135 160.958L151.258 161.966Z" fill="#F49758"/>
<path d="M154.1 160.958L154.513 169.025H152.238L151.824 160.958H154.1Z" fill="#F49758"/>
<path d="M180.838 158.269L181.404 167.426L179.281 169.025L178.715 159.868L180.838 158.269Z" fill="#F49758"/>
<path d="M178.301 160.958L178.714 168.899L176.439 169.025L176.025 161.084L178.301 160.958Z" fill="#F49758"/>
<path d="M156.689 162.17L157.201 171.714L155.024 170.502L154.512 160.958L156.689 162.17Z" fill="#F49758"/>
<path d="M159.477 163.647L159.89 171.348L157.615 171.714L157.201 164.014L159.477 163.647Z" fill="#F49758"/>
<path d="M172.922 161.126L173.336 171.714L171.06 171.546L170.646 160.958L172.922 161.126Z" fill="#F49758"/>
<path d="M175.513 160.958L176.025 170.37L173.848 171.714L173.336 162.303L175.513 160.958Z" fill="#F49758"/>
<path d="M164.839 163.647L165.269 171.121L163.01 171.714L162.58 164.24L164.839 163.647Z" fill="#F49758"/>
<path d="M162.132 164.348L162.58 171.714L160.339 171.013L159.891 163.647L162.132 164.348Z" fill="#F49758"/>
<path d="M170.198 160.958L170.646 170.638L168.405 171.714L167.957 162.033L170.198 160.958Z" fill="#F49758"/>
<path d="M167.528 164.014L167.959 171.714L165.7 171.347L165.27 163.647L167.528 164.014Z" fill="#F49758"/>
<path d="M186.781 131.299L187.857 132.972L190.277 133.948L190.68 135.76L192.832 136.876L192.697 138.689L194.311 140.222L193.638 142.035L194.849 143.569L193.638 145.381L194.176 147.055L192.563 148.728L192.697 150.54L190.546 151.935L190.143 153.747L187.588 154.863L186.647 156.536L183.958 157.372L182.344 159.046L179.521 159.603L177.504 161.137L174.546 161.277L172.26 162.532L169.302 162.392L166.613 163.368L163.79 162.95L160.966 163.647L158.277 162.811L155.319 163.229L153.034 162.113H150.076L148.059 160.858L145.235 160.579L143.756 159.046L141.067 158.349L140.126 156.675L137.571 155.699L137.168 153.887L135.151 152.771L135.286 150.959L133.538 149.425L134.21 147.612L133 146.079L134.21 144.266L133.672 142.593L135.286 140.92L135.151 139.107L137.303 137.713L137.706 135.9L140.26 134.784L141.202 133.111L144.025 132.135L145.504 130.601L148.328 130.044L150.344 128.51L153.302 128.371L155.588 127.116L158.546 127.255L161.235 126.279L164.059 126.697L166.882 126L169.571 126.837L172.529 126.418L174.815 127.534H177.773L179.79 128.789L182.613 129.068L184.092 130.601L186.781 131.299Z" fill="#FFB583"/>
<path d="M181.205 134.253C170.821 129.713 154.698 130.669 145.134 136.283C139.668 139.509 137.482 143.69 138.712 147.513C139.122 144.646 141.308 141.898 145.407 139.509C154.971 133.894 171.094 132.938 181.478 137.478C185.85 139.389 188.583 142.018 189.403 144.765C189.949 140.823 187.217 136.881 181.205 134.253Z" fill="#F49758"/>
<path d="M181.902 137.418C171.987 132.126 156.592 133.24 147.459 139.785C143.676 142.569 141.588 145.772 141.066 149.114C141.849 152.316 144.459 155.38 148.633 157.607C158.549 162.899 173.944 161.785 183.077 155.24C186.86 152.456 188.948 149.253 189.47 145.911C188.556 142.709 186.077 139.645 181.902 137.418Z" fill="#F49758"/>
<path d="M169.858 163.665L167.976 166.884L170.862 164.531L172.619 171.714L173.372 164.408L176.509 166.265L174.251 163.417L181.404 161.683L174.125 160.94L176.007 157.72L173.121 160.073L171.364 152.891L170.611 160.197L167.349 158.34L169.733 161.188L162.58 162.922L169.858 163.665Z" fill="white"/>
<path d="M170.245 150.073C170.151 150.516 169.774 151.048 169.019 151.492C168.075 152.113 166.943 152.379 165.528 152.468C164.113 152.557 162.698 152.29 161.094 151.758L159.208 153L157.321 152.113L159.208 150.96C158.358 150.516 157.604 149.984 157.038 149.452C156.472 148.919 156.094 148.387 156 147.944L159.113 147.145C159.302 147.589 159.585 148.032 159.962 148.387C160.34 148.831 160.906 149.186 161.472 149.54L164.302 147.766C163.642 147.234 163.075 146.79 162.698 146.347C162.321 145.903 162.132 145.46 162.226 144.927C162.321 144.484 162.698 143.952 163.453 143.508C164.396 142.887 165.528 142.532 166.943 142.532C168.358 142.443 169.868 142.71 171.377 143.242L173.264 142L175.151 142.887L173.264 144.04C174.679 144.839 175.528 145.637 176 146.436L172.981 147.323C172.509 146.613 171.943 145.992 171 145.46L168.075 147.323C168.736 147.855 169.302 148.298 169.679 148.742C170.151 149.097 170.245 149.54 170.245 150.073ZM166.755 146.169L169.208 144.661C168.642 144.484 168.17 144.484 167.698 144.484C167.226 144.484 166.849 144.661 166.566 144.839C166.283 145.016 166.189 145.193 166.189 145.46C166.283 145.548 166.472 145.815 166.755 146.169ZM164.774 150.516C165.151 150.516 165.528 150.428 165.811 150.25C166.094 150.073 166.189 149.895 166.189 149.629C166.094 149.363 166 149.185 165.717 148.831L163.358 150.339C163.925 150.516 164.396 150.605 164.774 150.516Z" fill="#FFB583"/>
<path d="M185.819 103.863C185.819 104.392 185.608 104.85 185.256 105.203C184.904 105.556 184.447 105.767 183.919 105.767H151.9C150.844 105.767 150 104.921 150 103.863C150 103.334 150.211 102.875 150.563 102.523C150.915 102.17 151.372 101.958 151.9 101.958H183.919C184.975 101.958 185.819 102.805 185.819 103.863Z" fill="white"/>
<path d="M207.88 94.9045C207.88 95.4336 207.669 95.892 207.317 96.2447C206.966 96.5974 206.508 96.809 205.98 96.809H151.9C150.844 96.809 150 95.9626 150 94.9045C150 94.3755 150.211 93.917 150.563 93.5643C150.915 93.2116 151.372 93 151.9 93H205.98C207.036 93.0353 207.88 93.8817 207.88 94.9045Z" fill="white"/>
</g>
<defs>
<clipPath id="clip0">
<rect width="221.6" height="125.6" fill="white" transform="translate(53 81)"/>
</clipPath>
</defs>
</svg>
