<svg width="279" height="193" viewBox="0 0 279 193" fill="none" xmlns="http://www.w3.org/2000/svg">
<path d="M70.4225 136.335C60.9902 78.5283 -38.9137 39.7072 20.8867 29.9497C80.6872 20.1922 202.857 -5.06569 212.289 52.7414C221.722 110.549 197.711 162.484 137.911 172.242C78.1103 181.999 79.8547 194.142 70.4225 136.335Z" fill="#FFF8D8" fill-opacity="0.67"/>
<g clip-path="url(#clip0)">
<g opacity="0.3">
<path opacity="0.3" d="M84.4131 167.385V182.021C84.4131 183.326 83.3576 184.42 82.0557 184.42H55.1738C53.872 184.42 52.8164 183.362 52.8164 182.021V167.385C52.8164 166.08 53.872 165.022 55.1738 165.022H82.0557C83.3224 164.987 84.4131 166.08 84.4131 167.385Z" fill="url(#paint0_linear)"/>
<path opacity="0.3" d="M62.7041 141.885V156.522C62.7041 157.827 61.6486 158.885 60.3115 158.885H33.4649C32.163 158.885 31.1074 157.827 31.1074 156.522V141.885C31.1074 140.581 32.163 139.522 33.4649 139.522H60.3467C61.6486 139.522 62.7041 140.581 62.7041 141.885Z" fill="url(#paint1_linear)"/>
</g>
<path opacity="0.3" d="M229.027 32.2703H252.778C253.974 32.2703 254.959 33.2578 254.959 34.4569V43.6268C254.959 44.8259 253.974 45.8134 252.778 45.8134H231.068C230.786 45.8134 230.505 45.9193 230.294 46.1309L227.162 49.2698C227.057 49.3756 226.846 49.305 226.846 49.1287V34.4569C226.881 33.2578 227.831 32.2703 229.027 32.2703Z" fill="#DADAF5"/>
<path opacity="0.3" d="M215.551 9.90991H183.461C181.843 9.90991 180.541 11.2149 180.541 12.8372V25.2165C180.541 26.8389 181.843 28.1438 183.461 28.1438H212.771C213.158 28.1438 213.545 28.2849 213.791 28.5671L218.014 32.7993C218.19 32.9756 218.471 32.8346 218.471 32.623V12.8725C218.471 11.2501 217.169 9.90991 215.551 9.90991Z" fill="#DADAF5"/>
<path d="M156.367 119.807V129.471H93.1382C90.7103 129.471 88.5288 128.483 86.9807 126.896C85.3973 125.309 84.4121 123.123 84.4121 120.689V119.807H156.367Z" fill="#C8C8EE"/>
<path d="M84.3427 54.4191V16.7874C84.3427 11.9556 80.4371 8.04077 75.6167 8.04077C70.7962 8.04077 66.8906 11.9556 66.8906 16.7874V54.4191H84.3427Z" fill="#C8C8EE"/>
<path d="M156.368 16.7874V119.525H101.866V120.689C101.866 125.521 97.9601 129.436 93.1396 129.436C90.7118 129.436 88.5303 128.448 86.9822 126.861C85.3988 125.274 84.4136 123.087 84.4136 120.654V119.49H84.3432V16.7874C84.3432 14.3539 83.358 12.1672 81.7747 10.5801C80.1913 9.02829 78.0098 8.04077 75.6172 8.04077H147.642C152.463 8.04077 156.368 11.9556 156.368 16.7874Z" fill="#DADAF5"/>
<path d="M127.27 86.2317C127.27 86.7607 127.059 87.2192 126.707 87.5719C126.355 87.9246 125.898 88.1362 125.37 88.1362H93.3512C92.2956 88.1362 91.4512 87.2897 91.4512 86.2317C91.4512 85.7026 91.6623 85.2441 92.0141 84.8914C92.366 84.5388 92.8234 84.3271 93.3512 84.3271H125.37C126.426 84.3271 127.27 85.1736 127.27 86.2317Z" fill="#EAEAFA"/>
<path d="M149.332 77.2734C149.332 77.8024 149.121 78.2609 148.769 78.6136C148.417 78.9663 147.959 79.1779 147.432 79.1779H93.3512C92.2956 79.1779 91.4512 78.3315 91.4512 77.2734C91.4512 76.7444 91.6623 76.2859 92.0141 75.9332C92.366 75.5805 92.8234 75.3689 93.3512 75.3689H147.432C148.487 75.4042 149.332 76.2506 149.332 77.2734Z" fill="#EAEAFA"/>
<path d="M127.27 68.3503C127.27 68.8793 127.059 69.3378 126.707 69.6905C126.355 70.0432 125.898 70.2548 125.37 70.2548H93.3512C92.2956 70.2548 91.4512 69.4084 91.4512 68.3503C91.4512 67.8213 91.6623 67.3628 92.0141 67.0101C92.366 66.6574 92.8234 66.4458 93.3512 66.4458H125.37C126.426 66.4458 127.27 67.2922 127.27 68.3503Z" fill="#EAEAFA"/>
<path d="M149.332 59.3921C149.332 59.9211 149.121 60.3796 148.769 60.7323C148.417 61.085 147.959 61.2966 147.432 61.2966H93.3512C92.2956 61.2966 91.4512 60.4501 91.4512 59.3921C91.4512 58.863 91.6623 58.4045 92.0141 58.0519C92.366 57.6992 92.8234 57.4875 93.3512 57.4875H147.432C148.487 57.5228 149.332 58.3693 149.332 59.3921Z" fill="#EAEAFA"/>
<path d="M127.27 50.469C127.27 50.998 127.059 51.4565 126.707 51.8092C126.355 52.1619 125.898 52.3735 125.37 52.3735H93.3512C92.2956 52.3735 91.4512 51.527 91.4512 50.469C91.4512 49.9399 91.6623 49.4814 92.0141 49.1288C92.366 48.7761 92.8234 48.5645 93.3512 48.5645H125.37C126.426 48.5645 127.27 49.4109 127.27 50.469Z" fill="#EAEAFA"/>
<path d="M149.332 41.5107C149.332 42.0397 149.121 42.4982 148.769 42.8509C148.417 43.2036 147.959 43.4152 147.432 43.4152H93.3512C92.2956 43.4152 91.4512 42.5688 91.4512 41.5107C91.4512 40.9817 91.6623 40.5232 92.0141 40.1705C92.366 39.8178 92.8234 39.6062 93.3512 39.6062H147.432C148.487 39.6415 149.332 40.4879 149.332 41.5107Z" fill="#EAEAFA"/>
<path d="M127.27 32.5879C127.27 33.1169 127.059 33.5754 126.707 33.9281C126.355 34.2808 125.898 34.4924 125.37 34.4924H93.3512C92.2956 34.4924 91.4512 33.6459 91.4512 32.5879C91.4512 32.0588 91.6623 31.6003 92.0141 31.2477C92.366 30.895 92.8234 30.6833 93.3512 30.6833H125.37C126.426 30.6833 127.27 31.5298 127.27 32.5879Z" fill="#EAEAFA"/>
<path d="M149.332 23.6296C149.332 24.1586 149.121 24.6171 148.769 24.9698C148.417 25.3225 147.959 25.5341 147.432 25.5341H93.3512C92.2956 25.5341 91.4512 24.6877 91.4512 23.6296C91.4512 23.1006 91.6623 22.6421 92.0141 22.2894C92.366 21.9367 92.8234 21.7251 93.3512 21.7251H147.432C148.487 21.7604 149.332 22.6068 149.332 23.6296Z" fill="#EAEAFA"/>
<path d="M119.352 104.501V129.471H101.9V104.501C101.9 99.6687 105.806 95.7539 110.626 95.7539C113.054 95.7539 115.236 96.7414 116.819 98.3285C118.367 99.8803 119.352 102.067 119.352 104.501Z" fill="#C8C8EE"/>
<path d="M119.353 104.501V192.531H191.378V104.501C191.378 99.6687 187.472 95.7539 182.652 95.7539H110.627C113.02 95.7539 115.201 96.7414 116.784 98.3285C118.368 99.8803 119.353 102.067 119.353 104.501Z" fill="#EAEAFA"/>
<path d="M164.53 176.026C164.53 176.555 164.319 177.013 163.967 177.366C163.615 177.719 163.158 177.93 162.63 177.93H130.611C129.555 177.93 128.711 177.084 128.711 176.026C128.711 175.497 128.922 175.038 129.274 174.685C129.626 174.333 130.083 174.121 130.611 174.121H162.63C163.686 174.156 164.53 175.003 164.53 176.026Z" fill="#DADAF5"/>
<path d="M186.591 167.103C186.591 167.632 186.38 168.09 186.028 168.443C185.677 168.796 185.219 169.007 184.691 169.007H130.611C129.555 169.007 128.711 168.161 128.711 167.103C128.711 166.574 128.922 166.115 129.274 165.763C129.626 165.41 130.083 165.198 130.611 165.198H184.691C185.747 165.198 186.591 166.045 186.591 167.103Z" fill="#DADAF5"/>
<path d="M164.53 158.144C164.53 158.674 164.319 159.132 163.967 159.485C163.615 159.837 163.158 160.049 162.63 160.049H130.611C129.555 160.049 128.711 159.203 128.711 158.144C128.711 157.615 128.922 157.157 129.274 156.804C129.626 156.452 130.083 156.24 130.611 156.24H162.63C163.686 156.275 164.53 157.122 164.53 158.144Z" fill="#DADAF5"/>
<path d="M186.591 149.221C186.591 149.75 186.38 150.209 186.028 150.562C185.677 150.914 185.219 151.126 184.691 151.126H130.611C129.555 151.126 128.711 150.279 128.711 149.221C128.711 148.692 128.922 148.234 129.274 147.881C129.626 147.529 130.083 147.317 130.611 147.317H184.691C185.747 147.317 186.591 148.163 186.591 149.221Z" fill="#DADAF5"/>
<path d="M164.53 140.263C164.53 140.792 164.319 141.251 163.967 141.603C163.615 141.956 163.158 142.168 162.63 142.168H130.611C129.555 142.168 128.711 141.321 128.711 140.263C128.711 139.734 128.922 139.276 129.274 138.923C129.626 138.57 130.083 138.359 130.611 138.359H162.63C163.686 138.359 164.53 139.205 164.53 140.263Z" fill="#DADAF5"/>
<path d="M186.591 131.34C186.591 131.869 186.38 132.328 186.028 132.681C185.677 133.033 185.219 133.245 184.691 133.245H130.611C129.555 133.245 128.711 132.398 128.711 131.34C128.711 130.811 128.922 130.353 129.274 130C129.626 129.647 130.083 129.436 130.611 129.436H184.691C185.747 129.436 186.591 130.282 186.591 131.34Z" fill="#DADAF5"/>
<path d="M164.53 122.382C164.53 122.911 164.319 123.37 163.967 123.722C163.615 124.075 163.158 124.287 162.63 124.287H130.611C129.555 124.287 128.711 123.44 128.711 122.382C128.711 121.853 128.922 121.395 129.274 121.042C129.626 120.689 130.083 120.478 130.611 120.478H162.63C163.686 120.478 164.53 121.324 164.53 122.382Z" fill="#DADAF5"/>
<path d="M186.591 113.459C186.591 113.988 186.38 114.446 186.028 114.799C185.677 115.152 185.219 115.363 184.691 115.363H130.611C129.555 115.363 128.711 114.517 128.711 113.459C128.711 112.93 128.922 112.471 129.274 112.119C129.626 111.766 130.083 111.554 130.611 111.554H184.691C185.747 111.554 186.591 112.401 186.591 113.459Z" fill="#DADAF5"/>
</g>
<g clip-path="url(#clip1)">
<path d="M155.85 96.0358C138.164 96.0358 123.785 81.6571 123.785 63.9713C123.785 46.2855 138.164 32.1944 155.85 31.9068C173.248 31.6192 187.699 46.0698 187.914 63.9713C188.13 81.6571 173.535 96.0358 155.85 96.0358ZM155.85 33.5604C139.098 33.5604 125.439 47.2201 125.439 63.9713C125.439 80.7225 139.098 94.3823 155.85 94.3823C172.601 94.3823 186.261 80.7225 186.261 63.9713C186.261 47.2201 172.601 33.5604 155.85 33.5604Z" fill="#FCB3B3"/>
<path d="M156.288 89.9241C170.62 89.6828 182.043 77.8686 181.802 63.5363C181.56 49.204 169.746 37.7809 155.414 38.0222C141.082 38.2634 129.658 50.0776 129.9 64.4099C130.141 78.7423 141.955 90.1653 156.288 89.9241Z" fill="#F6F6FE"/>
<path opacity="0.5" d="M138.164 82.8797C148.445 92.5134 164.621 92.1539 174.47 82.0169C184.32 71.808 184.104 55.632 174.183 45.7107L138.164 82.8797Z" fill="#EAEAFA"/>
<path d="M146.862 74.684L146.287 74.0369L156.137 64.1156V44.7043H156.999V64.4751L146.862 74.684Z" fill="#C8C8EE"/>
</g>
<defs>
<linearGradient id="paint0_linear" x1="52.7708" y1="174.691" x2="84.4041" y2="174.691" gradientUnits="userSpaceOnUse">
<stop offset="1.1e-07" stop-color="#F5F5FF"/>
<stop offset="1" stop-color="#CFCFF2"/>
</linearGradient>
<linearGradient id="paint1_linear" x1="31.0787" y1="149.211" x2="62.712" y2="149.211" gradientUnits="userSpaceOnUse">
<stop offset="1.1e-07" stop-color="#F5F5FF"/>
<stop offset="1" stop-color="#CFCFF2"/>
</linearGradient>
<clipPath id="clip0">
<rect width="271" height="184.773" fill="white" transform="translate(7.5332 8.04077)"/>
</clipPath>
<clipPath id="clip1">
<rect width="64.129" height="64.129" fill="white" transform="translate(123.785 31.9072)"/>
</clipPath>
</defs>
</svg>
