<svg width="322" height="192" viewBox="0 0 322 192" fill="none" xmlns="http://www.w3.org/2000/svg">
<path d="M92.2758 136.848C83.7781 84.7679 -57.9252 58.2285 29.87 43.9032C117.665 29.5779 297.507 -4.56273 306.005 47.5169C314.503 99.5966 274.923 149.315 187.128 163.64C99.3329 177.965 100.774 188.927 92.2758 136.848Z" fill="#FFF8D8" fill-opacity="0.45"/>
<path d="M195.136 120.462C173.82 142.8 138.489 143.53 116.152 122.214C93.8141 100.899 93.0842 65.5679 114.4 43.2304C135.715 20.8929 171.046 20.1627 193.384 41.4782C215.721 62.7937 216.451 98.125 195.136 120.462Z" fill="white"/>
<path d="M195.136 120.462C216.451 98.125 215.721 62.7937 193.384 41.4782C171.046 20.1627 135.715 20.8929 114.4 43.2304C93.0842 65.5679 93.8141 100.899 116.152 122.214C138.343 143.53 173.674 142.654 195.136 120.462ZM121.553 49.9461C139.073 31.5505 168.272 30.9665 186.668 48.4861C205.064 66.0057 205.648 95.2051 188.128 113.601C170.608 131.996 141.409 132.58 123.013 115.061C104.618 97.3951 103.888 68.3416 121.553 49.9461Z" fill="#EAEAFA"/>
<path d="M181.703 107.615C196.011 92.7233 195.427 69.2181 180.535 54.9104C165.644 40.6027 142.138 41.1865 127.831 56.0781C113.523 70.9698 114.107 94.4754 128.999 108.783C143.744 122.945 167.396 122.507 181.703 107.615ZM134.839 62.7941C145.35 51.8443 162.724 51.4062 173.674 61.918C184.623 72.4297 185.061 89.8035 174.55 100.753C164.038 111.703 146.664 112.141 135.715 101.629C124.765 91.1176 124.473 73.7438 134.839 62.7941Z" fill="#EAEAFA"/>
<path d="M168.127 94.6211C175.281 87.1752 174.989 75.4955 167.543 68.3417C160.098 61.1878 148.418 61.4797 141.264 68.9255C134.11 76.3714 134.402 88.0511 141.848 95.2049C149.294 102.213 160.974 102.067 168.127 94.6211ZM149.586 76.9553C152.214 74.1814 156.74 74.0356 159.514 76.8096C162.287 79.4375 162.434 83.9631 159.66 86.737C157.032 89.511 152.506 89.6573 149.732 87.0293C146.958 84.2554 146.958 79.7293 149.586 76.9553Z" fill="#EAEAFA"/>
<path d="M63.1553 172.583L65.4914 170.248L65.0533 181.781L68.8492 178.131L69.2873 166.598L71.7691 164.116L71.4772 172.875L74.5431 169.955L74.835 161.196L135.716 101.629C139.074 105.571 140.242 111.557 139.074 119.441L150.899 85.2773L116.444 96.3732C124.474 95.6432 130.46 96.9574 134.11 100.169L73.3751 159.59L64.6153 159.736L61.5494 162.656L70.3092 162.51L67.6814 164.992L56.2935 165.138L52.4977 168.788L63.8853 168.642L61.5494 170.978L46.6578 171.27L41.8398 175.941L58.3375 175.649L57.6075 192.001L62.4253 187.329L63.1553 172.583Z" fill="#D5DBFE"/>
<path d="M257.672 72.347C257.218 72.347 256.764 72.347 256.31 72.347L256.375 70.1423C258.515 70.2071 260.72 70.0774 262.795 69.7532L263.184 71.9579C261.368 72.2173 259.553 72.347 257.672 72.347ZM249.502 71.3743C247.232 70.8555 245.092 70.0126 243.017 69.0399L243.99 67.0297C245.935 67.9375 247.945 68.6508 250.085 69.1696L249.502 71.3743ZM269.863 70.1423L269.085 68.0672C271.095 67.2891 273.04 66.3164 274.856 65.1493L276.088 67.0297C274.078 68.2618 272.003 69.2993 269.863 70.1423ZM237.117 65.4735C235.301 64.1117 233.615 62.4906 232.059 60.8047L233.745 59.3133C235.171 60.9344 236.727 62.4258 238.478 63.7227L237.117 65.4735ZM281.405 62.75L279.849 61.1289C281.405 59.6375 282.767 57.9516 283.999 56.2008L285.814 57.4328C284.518 59.3133 283.026 61.1289 281.405 62.75ZM228.103 55.1633C226.936 53.1531 226.028 51.0132 225.315 48.8734L227.455 48.1601C228.103 50.1702 229.011 52.1804 230.048 54.0609L228.103 55.1633ZM289.121 51.4023L287.046 50.5593C287.889 48.5492 288.473 46.4741 288.862 44.3991C289.251 42.389 289.446 40.3788 289.446 38.3686V38.1741H291.65V38.3686C291.65 40.5733 291.456 42.7132 291.002 44.853C290.613 47.0577 289.964 49.2624 289.121 51.4023ZM223.823 42.1296C223.694 40.8975 223.629 39.6007 223.629 38.3686C223.629 37.3311 223.694 36.2936 223.759 35.1913L225.963 35.3858C225.899 36.3585 225.834 37.3311 225.834 38.3038C225.834 39.471 225.898 40.6382 226.028 41.8054L223.823 42.1296ZM288.797 31.6897C288.343 29.6147 287.695 27.5397 286.852 25.5943L288.862 24.6865C289.77 26.7615 290.483 28.9662 291.002 31.2358L288.797 31.6897ZM227.195 29.0959L225.056 28.4475C225.704 26.2428 226.612 24.1029 227.714 22.0928L229.659 23.1303C228.687 25.0756 227.844 27.0209 227.195 29.0959ZM283.61 19.9529C282.378 18.2021 280.951 16.581 279.395 15.0896L280.951 13.4685C282.637 15.0247 284.128 16.7755 285.49 18.656L283.61 19.9529ZM233.356 17.8779L231.67 16.4513C233.161 14.7005 234.847 13.0794 236.598 11.6528L237.96 13.4036C236.274 14.7005 234.717 16.1919 233.356 17.8779ZM274.272 11.1989C272.457 10.0966 270.511 9.12392 268.436 8.41063L269.214 6.33561C271.354 7.11374 273.494 8.08641 275.439 9.31845L274.272 11.1989ZM243.406 9.90204L242.434 7.89189C244.509 6.85438 246.649 6.0114 248.853 5.4278L249.437 7.56767C247.362 8.15127 245.352 8.92938 243.406 9.90204ZM262.211 6.85438C260.071 6.53016 257.932 6.46532 255.792 6.59501L255.662 4.39029C257.931 4.2606 260.266 4.32545 262.535 4.71451L262.211 6.85438Z" fill="#DADAF5"/>
</svg>
