<svg width="219" height="183" viewBox="0 0 219 183" fill="none" xmlns="http://www.w3.org/2000/svg">
<path d="M66.7785 130.268C57.766 75.0334 -37.6919 37.94 19.4472 28.6168C76.5864 19.2935 193.319 -4.84033 202.332 50.3942C211.344 105.629 188.402 155.253 131.263 164.576C74.1241 173.899 75.7909 185.502 66.7785 130.268Z" fill="#FFF8D8" fill-opacity="0.67"/>
<path d="M176.619 38.4767V134.715C176.619 135.957 175.597 136.979 174.356 136.979H17.4752C16.2338 136.979 15.248 135.993 15.248 134.752V38.4767C15.248 37.2354 16.2703 36.2131 17.5116 36.2131H174.356C175.597 36.2131 176.619 37.2354 176.619 38.4767Z" fill="#D1C7FF"/>
<path d="M178.526 36.5707V132.809C178.526 134.051 177.503 135.073 176.262 135.073H19.3814C18.1401 135.073 17.1543 134.087 17.1543 132.846V36.5707C17.1543 35.3294 18.1765 34.3071 19.4179 34.3071H176.262C177.503 34.3071 178.526 35.3294 178.526 36.5707Z" fill="#F6F6FE"/>
<path d="M45.1573 73.5912C38.5491 73.5912 33.2188 68.2243 33.2188 61.6526C33.2188 55.081 38.5856 49.7141 45.1573 49.7141C51.7655 49.7141 57.0958 55.081 57.0958 61.6526C57.0958 68.2243 51.7655 73.5912 45.1573 73.5912Z" fill="white"/>
<path d="M45.1562 78.1912V61.689H61.6584C61.695 70.7798 54.2836 78.1912 45.1562 78.1912Z" fill="url(#paint0_linear)"/>
<path d="M45.1573 115.102C38.5491 115.102 33.2188 109.735 33.2188 103.164C33.2188 96.592 38.5856 91.2251 45.1573 91.2251C51.7655 91.2251 57.0958 96.592 57.0958 103.164C57.0958 109.735 51.7655 115.102 45.1573 115.102Z" fill="white"/>
<path d="M45.1562 119.666V103.164H61.6584C61.695 112.291 54.2836 119.666 45.1562 119.666Z" fill="url(#paint1_linear)"/>
<path d="M162.424 51.9413C162.424 51.1746 161.803 50.554 161.037 50.554H85.3892C84.6225 50.554 84.002 51.1746 84.002 51.9413C84.002 52.708 84.6225 53.3287 85.3892 53.3287H161.037C161.803 53.3287 162.424 52.708 162.424 51.9413Z" fill="#DADAF5"/>
<path d="M162.424 62.2004C162.424 61.4337 161.803 60.813 161.037 60.813H85.3892C84.6225 60.813 84.002 61.4337 84.002 62.2004C84.002 62.9671 84.6225 63.5877 85.3892 63.5877H161.037C161.803 63.5877 162.424 62.9671 162.424 62.2004Z" fill="#DADAF5"/>
<path d="M162.424 72.4596C162.424 71.6929 161.803 71.0723 161.037 71.0723H85.3892C84.6225 71.0723 84.002 71.6929 84.002 72.4596C84.002 73.2263 84.6225 73.847 85.3892 73.847H161.037C161.803 73.847 162.424 73.2263 162.424 72.4596Z" fill="#DADAF5"/>
<path d="M162.424 82.7186C162.424 81.9519 161.803 81.3313 161.037 81.3313H85.3892C84.6225 81.3313 84.002 81.9519 84.002 82.7186C84.002 83.4853 84.6225 84.106 85.3892 84.106H161.037C161.803 84.106 162.424 83.4853 162.424 82.7186Z" fill="#DADAF5"/>
<path d="M80.8635 51.941C80.8635 53.1459 79.8778 54.1316 78.673 54.1316C77.4682 54.1316 76.4824 53.1459 76.4824 51.941C76.4824 50.7362 77.4682 49.7505 78.673 49.7505C79.8778 49.7505 80.8635 50.7362 80.8635 51.941Z" fill="url(#paint2_linear)"/>
<path d="M80.8635 62.2003C80.8635 63.4051 79.8778 64.3909 78.673 64.3909C77.4682 64.3909 76.4824 63.4051 76.4824 62.2003C76.4824 60.9955 77.4682 60.0098 78.673 60.0098C79.8778 60.0098 80.8635 60.9955 80.8635 62.2003Z" fill="url(#paint3_linear)"/>
<path d="M80.8635 72.4594C80.8635 73.6642 79.8778 74.6499 78.673 74.6499C77.4682 74.6499 76.4824 73.6642 76.4824 72.4594C76.4824 71.2546 77.4682 70.2688 78.673 70.2688C79.8778 70.2688 80.8635 71.2546 80.8635 72.4594Z" fill="url(#paint4_linear)"/>
<path d="M80.8635 82.7184C80.8635 83.9232 79.8778 84.909 78.673 84.909C77.4682 84.909 76.4824 83.9232 76.4824 82.7184C76.4824 81.5136 77.4682 80.5278 78.673 80.5278C79.8778 80.5278 80.8635 81.5136 80.8635 82.7184Z" fill="url(#paint5_linear)"/>
<path d="M75.3863 118.315C75.1673 118.315 74.9847 118.205 74.8752 118.023C74.6562 117.694 74.7292 117.256 75.0578 117.037L97.2189 101.375C97.438 101.229 97.73 101.192 97.9855 101.338L117.299 111.67L143.002 97.8697C143.367 97.6871 143.805 97.7967 143.987 98.1618C144.17 98.5269 144.06 98.965 143.695 99.1475L117.628 113.131C117.409 113.24 117.153 113.24 116.934 113.131L97.6935 102.835L75.8974 118.242C75.7149 118.278 75.5323 118.351 75.3863 118.315Z" fill="#DADAF5"/>
<path d="M147.128 97.0302L144.499 101.594C144.28 101.995 143.769 101.959 143.55 101.594L140.921 97.0667C140.739 96.7016 140.994 96.2634 141.396 96.2269L146.69 96.1904C147.055 96.1904 147.347 96.6651 147.128 97.0302Z" fill="#DADAF5"/>
<path d="M120.073 112.401C119.964 113.788 118.759 114.774 117.371 114.664C115.984 114.555 114.998 113.35 115.108 111.963C115.217 110.575 116.422 109.589 117.81 109.699C119.16 109.809 120.183 111.013 120.073 112.401Z" fill="url(#paint6_linear)"/>
<path d="M99.8838 102.068C99.7742 103.456 98.5694 104.441 97.182 104.332C95.7947 104.222 94.8089 103.018 94.9185 101.63C95.028 100.243 96.2328 99.2572 97.6201 99.3667C98.971 99.5127 99.9933 100.718 99.8838 102.068Z" fill="url(#paint7_linear)"/>
<defs>
<linearGradient id="paint0_linear" x1="45.1634" y1="69.9171" x2="61.6794" y2="69.9171" gradientUnits="userSpaceOnUse">
<stop offset="0.0036036" stop-color="#FCB3B3"/>
<stop offset="1" stop-color="#FC8E8E"/>
</linearGradient>
<linearGradient id="paint1_linear" x1="45.1634" y1="111.419" x2="61.6794" y2="111.419" gradientUnits="userSpaceOnUse">
<stop stop-color="#4048C8"/>
<stop offset="1" stop-color="#2D32A4"/>
</linearGradient>
<linearGradient id="paint2_linear" x1="76.5172" y1="51.9434" x2="80.8759" y2="51.9434" gradientUnits="userSpaceOnUse">
<stop stop-color="#F788A8"/>
<stop offset="1" stop-color="#FF4D7B"/>
</linearGradient>
<linearGradient id="paint3_linear" x1="76.5172" y1="62.1993" x2="80.8759" y2="62.1993" gradientUnits="userSpaceOnUse">
<stop offset="0.0036036" stop-color="#FCB3B3"/>
<stop offset="1" stop-color="#FC8E8E"/>
</linearGradient>
<linearGradient id="paint4_linear" x1="76.5172" y1="72.4549" x2="80.8759" y2="72.4549" gradientUnits="userSpaceOnUse">
<stop stop-color="#F788A8"/>
<stop offset="1" stop-color="#FF4D7B"/>
</linearGradient>
<linearGradient id="paint5_linear" x1="76.5172" y1="82.7105" x2="80.8759" y2="82.7105" gradientUnits="userSpaceOnUse">
<stop offset="0.0036036" stop-color="#FCB3B3"/>
<stop offset="1" stop-color="#FC8E8E"/>
</linearGradient>
<linearGradient id="paint6_linear" x1="115.095" y1="112.186" x2="120.074" y2="112.186" gradientUnits="userSpaceOnUse">
<stop stop-color="#4048C8"/>
<stop offset="1" stop-color="#2D32A4"/>
</linearGradient>
<linearGradient id="paint7_linear" x1="94.9146" y1="101.858" x2="99.8931" y2="101.858" gradientUnits="userSpaceOnUse">
<stop stop-color="#F788A8"/>
<stop offset="1" stop-color="#FF4D7B"/>
</linearGradient>
</defs>
</svg>
