<svg width="524" height="334" viewBox="0 0 524 334" fill="none" xmlns="http://www.w3.org/2000/svg">
<path d="M26.1713 257.894C2.79504 87.0272 106.597 52.0137 241.019 33.6234C375.442 15.2331 489.581 20.43 512.958 191.297C536.334 362.163 403.987 206.205 269.565 224.596C135.142 242.986 49.5476 428.761 26.1713 257.894Z" fill="#FFF8D8" fill-opacity="0.67"/>
<g clip-path="url(#clip0)">
<path d="M219.511 88.872H310.203V261.676H219.511V88.872Z" fill="#EAEAFA"/>
<path d="M281.259 55.9994L219.511 88.8719L281.259 121.744H343.007V88.8719L281.259 55.9994Z" fill="#D5DBFE"/>
<path d="M314.062 121.744L343.006 302.991L404.754 270.118V121.744H314.062Z" fill="#9AA9E2"/>
<path d="M281.258 121.744V187.49L257.138 228.804L281.258 270.118L343.006 302.991V121.744H281.258Z" fill="#D5DBFE"/>
<path d="M404.754 121.745L343.006 88.872L281.258 121.745L343.006 154.617L404.754 121.745Z" fill="#9D98B9"/>
<path d="M190.566 187.49L219.511 302.991L281.259 270.118V187.49H190.566Z" fill="#F3C2A8"/>
<path d="M157.763 187.49V270.118L219.511 302.991V187.49H157.763Z" fill="#EDDCC5"/>
<path d="M219.511 154.617L157.763 187.49L219.511 220.362L281.258 187.49L219.511 154.617Z" fill="#FCEDBB"/>
</g>
<path d="M98.9131 150.698C98.3417 150.698 97.7704 150.698 97.199 150.698L97.2806 147.923C99.9742 148.005 102.749 147.841 105.361 147.433L105.851 150.209C103.566 150.535 101.28 150.698 98.9131 150.698ZM88.6285 149.474C85.7717 148.821 83.0781 147.76 80.4661 146.535L81.6905 144.005C84.1392 145.148 86.6696 146.046 89.3632 146.699L88.6285 149.474ZM114.258 147.923L113.279 145.311C115.809 144.332 118.258 143.107 120.543 141.638L122.094 144.005C119.564 145.556 116.952 146.862 114.258 147.923ZM73.0384 142.046C70.7529 140.332 68.6306 138.291 66.6717 136.169L68.794 134.292C70.5897 136.332 72.5486 138.21 74.7524 139.842L73.0384 142.046ZM128.788 138.618L126.829 136.577C128.788 134.7 130.502 132.578 132.053 130.374L134.338 131.925C132.705 134.292 130.828 136.577 128.788 138.618ZM61.6926 129.068C60.2234 126.538 59.0807 123.844 58.1828 121.15L60.8764 120.253C61.6926 122.783 62.8354 125.313 64.1413 127.68L61.6926 129.068ZM138.501 124.334L135.889 123.273C136.95 120.742 137.685 118.13 138.174 115.518C138.664 112.988 138.909 110.458 138.909 107.927V107.682H141.684V107.927C141.684 110.703 141.439 113.396 140.868 116.09C140.378 118.865 139.562 121.64 138.501 124.334ZM56.3055 112.662C56.1422 111.111 56.0605 109.478 56.0605 107.927C56.0605 106.621 56.1422 105.315 56.2239 103.928L58.9991 104.173C58.9175 105.397 58.8358 106.621 58.8358 107.846C58.8358 109.315 58.9174 110.784 59.0807 112.253L56.3055 112.662ZM138.093 99.52C137.521 96.9081 136.705 94.2961 135.644 91.8474L138.174 90.7047C139.317 93.3166 140.215 96.0919 140.868 98.9487L138.093 99.52ZM60.5499 96.2551L57.8563 95.4389C58.6726 92.6636 59.8153 89.9701 61.2029 87.4397L63.6516 88.7457C62.4273 91.1944 61.3661 93.6431 60.5499 96.2551ZM131.563 84.7461C130.012 82.5423 128.216 80.5017 126.257 78.6243L128.216 76.5837C130.338 78.5427 132.216 80.7465 133.93 83.1136L131.563 84.7461ZM68.3041 82.1342L66.1819 80.3384C68.0593 78.1346 70.1815 76.094 72.3853 74.2983L74.0995 76.5021C71.9773 78.1346 70.0182 80.0119 68.3041 82.1342ZM119.809 73.7269C117.523 72.3393 115.075 71.1149 112.463 70.2171L113.442 67.6051C116.136 68.5846 118.829 69.8089 121.278 71.3598L119.809 73.7269ZM80.9558 72.0944L79.7315 69.5641C82.3435 68.2581 85.0371 67.197 87.8123 66.4624L88.5469 69.156C85.9349 69.8906 83.4046 70.87 80.9558 72.0944ZM104.627 68.2581C101.933 67.85 99.2397 67.7683 96.5461 67.9316L96.3828 65.1564C99.2396 64.9931 102.178 65.0747 105.035 65.5645L104.627 68.2581Z" fill="#DADAF5"/>
<path d="M462.136 261.481C461.564 261.481 460.993 261.481 460.422 261.481L460.503 258.706C463.197 258.788 465.972 258.624 468.584 258.216L469.074 260.991C466.788 261.318 464.503 261.481 462.136 261.481ZM451.851 260.257C448.994 259.604 446.301 258.543 443.689 257.318L444.913 254.788C447.362 255.931 449.892 256.829 452.586 257.482L451.851 260.257ZM477.481 258.706L476.502 256.094C479.032 255.115 481.481 253.89 483.766 252.421L485.317 254.788C482.787 256.339 480.175 257.645 477.481 258.706ZM436.261 252.829C433.976 251.115 431.853 249.074 429.894 246.952L432.017 245.075C433.812 247.115 435.771 248.993 437.975 250.625L436.261 252.829ZM492.01 249.401L490.051 247.36C492.01 245.483 493.724 243.361 495.275 241.157L497.561 242.708C495.928 245.075 494.051 247.36 492.01 249.401ZM424.915 239.851C423.446 237.321 422.303 234.627 421.406 231.933L424.099 231.035C424.915 233.566 426.058 236.096 427.364 238.463L424.915 239.851ZM501.723 235.117L499.111 234.056C500.173 231.525 500.907 228.913 501.397 226.301C501.887 223.771 502.132 221.241 502.132 218.71V218.465H504.907V218.71C504.907 221.486 504.662 224.179 504.09 226.873C503.601 229.648 502.784 232.423 501.723 235.117ZM419.528 223.444C419.365 221.894 419.283 220.261 419.283 218.71C419.283 217.404 419.365 216.098 419.447 214.711L422.222 214.956C422.14 216.18 422.058 217.404 422.058 218.629C422.058 220.098 422.14 221.567 422.303 223.036L419.528 223.444ZM501.315 210.303C500.744 207.691 499.928 205.079 498.867 202.63L501.397 201.488C502.54 204.1 503.438 206.875 504.09 209.732L501.315 210.303ZM423.773 207.038L421.079 206.222C421.895 203.447 423.038 200.753 424.426 198.223L426.874 199.529C425.65 201.977 424.589 204.426 423.773 207.038ZM494.785 195.529C493.234 193.325 491.439 191.285 489.48 189.407L491.439 187.367C493.561 189.326 495.438 191.529 497.152 193.897L494.785 195.529ZM431.527 192.917L429.405 191.121C431.282 188.918 433.404 186.877 435.608 185.081L437.322 187.285C435.2 188.918 433.241 190.795 431.527 192.917ZM483.032 184.51C480.746 183.122 478.297 181.898 475.685 181L476.665 178.388C479.358 179.368 482.052 180.592 484.501 182.143L483.032 184.51ZM444.179 182.877L442.954 180.347C445.566 179.041 448.26 177.98 451.035 177.245L451.77 179.939C449.158 180.674 446.627 181.653 444.179 182.877ZM467.849 179.041C465.156 178.633 462.462 178.551 459.769 178.715L459.605 175.939C462.462 175.776 465.401 175.858 468.258 176.347L467.849 179.041Z" fill="#DADAF5"/>
<defs>
<clipPath id="clip0">
<rect width="246.992" height="246.992" fill="white" transform="translate(157.763 55.9994)"/>
</clipPath>
</defs>
</svg>
