<svg width="357" height="245" viewBox="0 0 357 245" fill="none" xmlns="http://www.w3.org/2000/svg">
<path d="M34.435 66.169C33.9819 66.169 33.5289 66.169 33.0758 66.169L33.1405 64.0243C35.2765 64.0873 37.4771 63.9612 39.5484 63.6458L39.9367 65.7906C38.1244 66.0429 36.3121 66.169 34.435 66.169ZM26.2796 65.2228C24.0142 64.7182 21.8783 63.8981 19.8071 62.9519L20.7779 60.9963C22.7197 61.8795 24.7262 62.5734 26.8622 63.078L26.2796 65.2228ZM46.6035 64.0243L45.8268 62.0056C47.8333 61.2486 49.775 60.3024 51.5873 59.1669L52.8171 60.9963C50.8106 62.1949 48.7394 63.2042 46.6035 64.0243ZM13.917 59.4823C12.1047 58.1576 10.4218 56.5806 8.86842 54.9404L10.5514 53.4895C11.9753 55.0666 13.5287 56.5175 15.2763 57.7791L13.917 59.4823ZM58.1246 56.8329L56.5712 55.2558C58.1246 53.805 59.4839 52.1648 60.7137 50.4616L62.5259 51.6602C61.2314 53.4896 59.7428 55.2558 58.1246 56.8329ZM4.92018 49.4523C3.75512 47.4968 2.84901 45.415 2.13703 43.3333L4.27293 42.6394C4.92018 44.595 5.82634 46.5505 6.86195 48.3799L4.92018 49.4523ZM65.8269 45.7935L63.7557 44.9735C64.5972 43.0179 65.1797 40.9993 65.5681 38.9807C65.9564 37.0251 66.1505 35.0696 66.1505 33.1141V32.9248H68.3512V33.1141C68.3512 35.2588 68.1571 37.3406 67.704 39.4223C67.3156 41.5671 66.6684 43.7118 65.8269 45.7935ZM0.64831 36.7728C0.518859 35.5742 0.454102 34.3126 0.454102 33.1141C0.454102 32.1047 0.518875 31.0954 0.5836 30.023L2.78428 30.2123C2.71956 31.1585 2.65479 32.1047 2.65479 33.051C2.65479 34.1864 2.71954 35.3219 2.84899 36.4574L0.64831 36.7728ZM65.5033 26.6166C65.0502 24.598 64.403 22.5793 63.5615 20.6869L65.5681 19.8037C66.4742 21.8224 67.1862 23.9672 67.704 26.175L65.5033 26.6166ZM4.01401 24.0933L1.87811 23.4625C2.52537 21.3177 3.43151 19.236 4.53184 17.2805L6.47361 18.2898C5.50273 20.1822 4.66126 22.0747 4.01401 24.0933ZM60.3252 15.1987C59.0955 13.4955 57.6715 11.9185 56.1181 10.4676L57.6715 8.89054C59.3544 10.4045 60.8431 12.1077 62.2023 13.9371L60.3252 15.1987ZM10.1629 13.1801L8.48009 11.7923C9.96877 10.0891 11.6516 8.51205 13.3992 7.12425L14.7585 8.82747C13.0756 10.0891 11.5222 11.54 10.1629 13.1801ZM51.0048 6.68266C49.1925 5.61027 47.2507 4.66405 45.1795 3.97014L45.9562 1.95151C48.0921 2.7085 50.2281 3.65473 52.1698 4.85329L51.0048 6.68266ZM20.1954 5.42102L19.2245 3.4655C21.2957 2.45618 23.4317 1.63611 25.6324 1.06837L26.2149 3.15009C24.1437 3.71782 22.1372 4.47479 20.1954 5.42102ZM38.9658 2.45618C36.8299 2.14077 34.694 2.07769 32.558 2.20386L32.4285 0.0590501C34.6939 -0.067114 37.024 -0.00403202 39.2894 0.37446L38.9658 2.45618Z" fill="#DADAF5"/>
<path d="M322.46 151.786C322.007 151.786 321.554 151.786 321.101 151.786L321.166 149.641C323.302 149.705 325.503 149.578 327.574 149.263L327.962 151.408C326.15 151.66 324.337 151.786 322.46 151.786ZM314.305 150.84C312.04 150.335 309.904 149.515 307.832 148.569L308.803 146.613C310.745 147.497 312.752 148.191 314.888 148.695L314.305 150.84ZM334.629 149.641L333.852 147.623C335.859 146.866 337.8 145.92 339.613 144.784L340.842 146.613C338.836 147.812 336.765 148.821 334.629 149.641ZM301.942 145.1C300.13 143.775 298.447 142.198 296.894 140.558L298.577 139.107C300.001 140.684 301.554 142.135 303.302 143.396L301.942 145.1ZM346.15 142.45L344.597 140.873C346.15 139.422 347.509 137.782 348.739 136.079L350.551 137.277C349.257 139.107 347.768 140.873 346.15 142.45ZM292.946 135.069C291.781 133.114 290.874 131.032 290.162 128.951L292.298 128.257C292.946 130.212 293.852 132.168 294.887 133.997L292.946 135.069ZM353.852 131.411L351.781 130.591C352.623 128.635 353.205 126.616 353.593 124.598C353.982 122.642 354.176 120.687 354.176 118.731V118.542H356.377V118.731C356.377 120.876 356.182 122.958 355.729 125.039C355.341 127.184 354.694 129.329 353.852 131.411ZM288.674 122.39C288.544 121.191 288.479 119.93 288.479 118.731C288.479 117.722 288.544 116.713 288.609 115.64L290.81 115.829C290.745 116.776 290.68 117.722 290.68 118.668C290.68 119.804 290.745 120.939 290.874 122.075L288.674 122.39ZM353.529 112.234C353.076 110.215 352.428 108.197 351.587 106.304L353.593 105.421C354.5 107.44 355.212 109.584 355.729 111.792L353.529 112.234ZM292.039 109.711L289.904 109.08C290.551 106.935 291.457 104.853 292.557 102.898L294.499 103.907C293.528 105.799 292.687 107.692 292.039 109.711ZM348.351 100.816C347.121 99.1127 345.697 97.5357 344.143 96.0848L345.697 94.5077C347.38 96.0217 348.868 97.7249 350.228 99.5543L348.351 100.816ZM298.188 98.7973L296.505 97.4095C297.994 95.7063 299.677 94.1292 301.425 92.7414L302.784 94.4447C301.101 95.7063 299.548 97.1572 298.188 98.7973ZM339.03 92.2999C337.218 91.2275 335.276 90.2812 333.205 89.5873L333.982 87.5687C336.118 88.3257 338.253 89.2719 340.195 90.4705L339.03 92.2999ZM308.221 91.0382L307.25 89.0827C309.321 88.0734 311.457 87.2533 313.658 86.6856L314.24 88.7673C312.169 89.335 310.163 90.092 308.221 91.0382ZM326.991 88.0734C324.855 87.758 322.719 87.6949 320.583 87.821L320.454 85.6762C322.719 85.5501 325.049 85.6132 327.315 85.9916L326.991 88.0734Z" fill="#DADAF5"/>
<path d="M222.503 54.4238C240.523 61.1549 250.018 74.6827 262.027 86.254C273.648 97.4515 288.243 107.699 291.91 121.302C295.644 135.154 289.105 149.024 282.541 162.35C275.7 176.238 268.529 190.557 252.951 200.394C236.907 210.525 216.015 217.679 194.42 217.994C173.533 218.298 156.614 207.407 137.155 202.083C117.413 196.682 93.6271 196.99 78.8216 186.366C63.6704 175.495 58.8201 159.454 56.6732 144.336C54.5758 129.566 57.2327 114.408 66.7184 101.136C75.856 88.3509 93.0802 80.0768 108.997 71.126C125.117 62.0605 140.339 51.3345 160.57 48.3576C181.323 45.3037 203.79 47.4343 222.503 54.4238Z" fill="#FFF8D8"/>
<path d="M204 76L226.021 215L273 189.79V76H204Z" fill="#EEBB9E"/>
<path d="M178.539 76V126.421L160 158.105L178.539 189.79L226 215V76H178.539Z" fill="#F9CDA4"/>
<path d="M273 76.0002L225.5 51L178 76.0002L225.5 101L273 76.0002Z" fill="#F4C882"/>
<path d="M109 126L131.021 215L178 189.67V126H109Z" fill="#F3C2A8"/>
<path d="M84 126V189.67L131 215V126H84Z" fill="#EDDCC5"/>
<path d="M131 101L84 126.5L131 152L178 126.5L131 101Z" fill="#FCEDBB"/>
<g clip-path="url(#clip0)">
<path d="M192.683 210.384C192.467 210.502 192.229 210.558 191.993 210.558C191.618 210.558 191.247 210.413 190.968 210.135L180.925 200.092C180.651 199.817 180.5 199.446 180.5 199.065C180.5 199.446 180.349 199.817 180.075 200.092L170.031 210.135C169.753 210.413 169.382 210.558 169.007 210.558C168.771 210.558 168.533 210.502 168.316 210.384L143.278 196.813V224.21C143.278 224.26 143.281 224.31 143.286 224.359C143.288 224.38 143.292 224.401 143.295 224.422C143.298 224.447 143.301 224.472 143.306 224.497C143.313 224.529 143.321 224.559 143.329 224.59C143.333 224.604 143.336 224.619 143.34 224.633C143.35 224.664 143.361 224.694 143.372 224.725C143.378 224.738 143.382 224.752 143.387 224.765C143.399 224.793 143.412 224.819 143.424 224.845C143.432 224.862 143.439 224.878 143.448 224.894C143.46 224.916 143.472 224.936 143.485 224.957C143.497 224.977 143.508 224.997 143.521 225.017C143.532 225.033 143.544 225.048 143.555 225.064C143.571 225.087 143.588 225.109 143.605 225.131C143.615 225.144 143.626 225.155 143.637 225.167C143.657 225.19 143.678 225.214 143.7 225.236C143.711 225.248 143.724 225.258 143.736 225.269C143.758 225.29 143.779 225.311 143.803 225.33C143.825 225.349 143.849 225.366 143.873 225.383C143.887 225.394 143.9 225.404 143.914 225.414C143.956 225.442 143.999 225.468 144.043 225.492L179.81 244.826C180.026 244.942 180.263 245 180.5 245C180.737 245 180.974 244.942 181.189 244.826L216.956 225.492C217.001 225.468 217.044 225.442 217.085 225.414C217.1 225.404 217.113 225.394 217.127 225.383C217.15 225.366 217.174 225.349 217.197 225.33C217.22 225.311 217.242 225.29 217.264 225.269C217.276 225.258 217.288 225.248 217.3 225.236C217.322 225.214 217.342 225.19 217.363 225.167C217.373 225.155 217.384 225.144 217.394 225.131C217.412 225.109 217.428 225.087 217.444 225.064C217.456 225.048 217.468 225.033 217.478 225.017C217.491 224.997 217.503 224.977 217.515 224.957C217.527 224.936 217.54 224.916 217.551 224.894C217.56 224.878 217.567 224.862 217.575 224.845C217.588 224.819 217.601 224.793 217.612 224.765C217.618 224.752 217.622 224.738 217.627 224.725C217.638 224.694 217.65 224.664 217.659 224.633C217.663 224.619 217.666 224.604 217.67 224.59C217.678 224.559 217.687 224.529 217.693 224.497C217.698 224.472 217.701 224.447 217.705 224.422C217.708 224.401 217.712 224.38 217.714 224.359C217.719 224.31 217.721 224.26 217.721 224.21V196.813L192.683 210.384Z" fill="#CFD6FF"/>
<path d="M179.74 158.77C180.142 158.554 180.419 158.157 180.485 157.705C180.494 157.635 180.5 157.566 180.5 157.496C180.5 157.566 180.506 157.635 180.515 157.703C180.581 158.155 180.858 158.55 181.26 158.768L217.031 178.104C217.25 178.222 217.486 178.278 217.722 178.278C217.486 178.278 217.25 178.337 217.031 178.454L181.26 197.79C180.858 198.007 180.581 198.403 180.515 198.856C180.506 198.925 180.5 198.995 180.5 199.065C180.5 198.995 180.494 198.925 180.485 198.856C180.419 198.403 180.142 198.007 179.74 197.79L143.969 178.454C143.777 178.352 143.572 178.294 143.367 178.28C143.572 178.267 143.777 178.209 143.969 178.106L179.74 158.77Z" fill="#B2BDED"/>
<path d="M229.103 166.575C229.169 167.027 229.02 167.483 228.697 167.808L218.75 177.85C218.472 178.132 218.099 178.279 217.722 178.279C217.486 178.279 217.25 178.223 217.031 178.105L181.26 158.769C180.858 158.55 180.581 158.156 180.515 157.703C180.506 157.636 180.5 157.566 180.5 157.496C180.5 157.494 180.5 157.494 180.5 157.493C180.5 157.112 180.651 156.74 180.925 156.468L190.969 146.425C191.421 145.97 192.119 145.87 192.684 146.175L228.358 165.511C228.761 165.728 229.035 166.122 229.103 166.575Z" fill="#9AA9E2"/>
<path d="M228.697 188.751C229.02 189.076 229.169 189.532 229.103 189.985C229.035 190.435 228.761 190.829 228.358 191.048L192.684 210.384C192.467 210.502 192.229 210.558 191.993 210.558C191.618 210.558 191.247 210.413 190.969 210.135L180.925 200.092C180.651 199.817 180.5 199.446 180.5 199.065C180.5 198.995 180.506 198.926 180.515 198.856C180.581 198.403 180.858 198.007 181.26 197.79L217.031 178.454C217.25 178.337 217.486 178.279 217.722 178.279C218.099 178.279 218.472 178.427 218.75 178.708L228.697 188.751Z" fill="#D5DBFE"/>
<path d="M228.697 188.751L218.751 178.708C218.472 178.427 218.099 178.279 217.722 178.279C217.486 178.279 217.25 178.337 217.032 178.455L213.255 180.497C213.473 180.379 213.709 180.321 213.945 180.321C214.322 180.321 214.695 180.47 214.974 180.751L224.92 190.794C225.243 191.118 225.392 191.575 225.326 192.027C225.259 192.478 224.984 192.872 224.582 193.091L228.359 191.048C228.761 190.83 229.035 190.435 229.103 189.985C229.169 189.532 229.02 189.076 228.697 188.751Z" fill="#CFD6FF"/>
<path d="M180.5 157.492C180.5 157.494 180.5 157.494 180.5 157.496C180.5 157.566 180.494 157.636 180.485 157.705C180.419 158.158 180.142 158.554 179.74 158.77L143.969 178.106C143.777 178.209 143.572 178.267 143.367 178.28C143.327 178.279 143.284 178.279 143.243 178.28C142.878 178.273 142.52 178.126 142.25 177.853L132.303 167.81C131.98 167.485 131.831 167.029 131.897 166.576C131.965 166.126 132.239 165.731 132.642 165.513L168.316 146.177C168.881 145.871 169.579 145.974 170.031 146.426L180.075 156.469C180.349 156.744 180.498 157.114 180.5 157.492Z" fill="#9AA9E2"/>
<path d="M180.485 198.856C180.494 198.926 180.5 198.995 180.5 199.065C180.5 199.446 180.349 199.817 180.075 200.092L170.031 210.135C169.753 210.413 169.382 210.558 169.007 210.558C168.771 210.558 168.533 210.502 168.316 210.384L132.642 191.048C132.239 190.83 131.965 190.435 131.897 189.985C131.831 189.532 131.98 189.076 132.303 188.751L142.25 178.708C142.52 178.435 142.878 178.288 143.243 178.28C143.255 178.282 143.267 178.282 143.278 178.282C143.307 178.282 143.336 178.282 143.367 178.28C143.572 178.294 143.777 178.352 143.969 178.454L179.74 197.79C180.142 198.007 180.419 198.403 180.485 198.856Z" fill="#D1D7FC"/>
<path d="M143.367 178.28C143.336 178.282 143.307 178.282 143.278 178.282C143.266 178.282 143.255 178.282 143.243 178.28C143.284 178.279 143.326 178.279 143.367 178.28Z" fill="#9AA9E2"/>
<path d="M217.302 197.04C217.283 197.077 217.264 197.09 217.244 197.072H217.244L211.92 199.958V227.352C211.92 227.402 211.917 227.452 211.912 227.502C211.91 227.523 211.906 227.543 211.903 227.564C211.9 227.589 211.897 227.614 211.892 227.639C211.885 227.671 211.877 227.702 211.869 227.732C211.865 227.747 211.862 227.761 211.858 227.775C211.848 227.806 211.837 227.836 211.825 227.867C211.82 227.88 211.816 227.894 211.811 227.908C211.799 227.935 211.786 227.961 211.774 227.988C211.766 228.004 211.759 228.02 211.75 228.036C211.738 228.058 211.726 228.079 211.713 228.099C211.701 228.12 211.69 228.139 211.677 228.159C211.666 228.175 211.654 228.19 211.643 228.206C211.627 228.229 211.61 228.252 211.592 228.274C211.583 228.286 211.572 228.297 211.561 228.309C211.541 228.333 211.52 228.356 211.498 228.378C211.487 228.39 211.474 228.4 211.463 228.412C211.441 228.432 211.419 228.453 211.395 228.472C211.373 228.491 211.349 228.508 211.325 228.525C211.311 228.536 211.298 228.546 211.284 228.556C211.275 228.563 211.264 228.568 211.255 228.574L216.956 225.492C217.001 225.468 217.044 225.442 217.085 225.414C217.1 225.404 217.113 225.393 217.127 225.383C217.15 225.366 217.174 225.349 217.197 225.33C217.22 225.311 217.242 225.29 217.264 225.269C217.276 225.258 217.288 225.248 217.3 225.236C217.322 225.214 217.342 225.19 217.363 225.166C217.373 225.155 217.384 225.143 217.394 225.131C217.412 225.109 217.428 225.087 217.444 225.063C217.456 225.048 217.468 225.033 217.478 225.017C217.491 224.997 217.503 224.977 217.515 224.957C217.527 224.936 217.54 224.915 217.551 224.894C217.56 224.878 217.567 224.861 217.575 224.845C217.588 224.819 217.601 224.792 217.612 224.765C217.618 224.752 217.622 224.738 217.627 224.724C217.638 224.694 217.65 224.664 217.659 224.632C217.663 224.619 217.666 224.604 217.67 224.59C217.678 224.559 217.687 224.529 217.693 224.497C217.698 224.472 217.701 224.447 217.705 224.421C217.707 224.401 217.712 224.38 217.714 224.359C217.719 224.31 217.721 224.26 217.721 224.21V196.813L217.302 197.04Z" fill="#CFD6FF"/>
<path d="M180.075 200.092L170.031 210.135C169.753 210.413 169.382 210.558 169.007 210.558C168.771 210.558 168.533 210.502 168.316 210.384L143.278 196.813V224.21C143.278 224.26 143.281 224.31 143.286 224.359C143.288 224.38 143.292 224.401 143.295 224.422C143.298 224.447 143.301 224.472 143.306 224.497C143.313 224.529 143.321 224.559 143.329 224.59C143.333 224.604 143.336 224.619 143.34 224.633C143.35 224.664 143.361 224.694 143.372 224.725C143.378 224.738 143.382 224.752 143.387 224.765C143.399 224.793 143.412 224.819 143.424 224.845C143.432 224.862 143.439 224.878 143.448 224.894C143.46 224.916 143.472 224.936 143.485 224.957C143.497 224.977 143.508 224.997 143.521 225.017C143.532 225.033 143.544 225.048 143.555 225.064C143.571 225.087 143.588 225.109 143.605 225.131C143.615 225.144 143.626 225.155 143.637 225.167C143.657 225.19 143.678 225.214 143.7 225.236C143.711 225.248 143.724 225.258 143.736 225.269C143.758 225.29 143.779 225.311 143.803 225.33C143.825 225.349 143.849 225.366 143.873 225.383C143.887 225.394 143.9 225.404 143.914 225.414C143.956 225.442 143.999 225.468 144.043 225.492L179.81 244.826C180.026 244.942 180.263 245 180.5 245V199.065C180.5 199.446 180.349 199.817 180.075 200.092Z" fill="#D5DBFE"/>
</g>
<defs>
<clipPath id="clip0">
<rect width="99" height="99" fill="white" transform="translate(131 146)"/>
</clipPath>
</defs>
</svg>
