<svg width="412" height="339" viewBox="0 0 412 339" fill="none" xmlns="http://www.w3.org/2000/svg">
<path d="M172.11 236.043C157.924 149.104 7.67232 90.7181 97.6099 76.0432C187.548 61.3683 371.286 23.3814 385.472 110.321C399.658 197.261 363.547 275.37 273.61 290.045C183.672 304.72 186.296 322.983 172.11 236.043Z" fill="#FFF8D8" fill-opacity="0.67"/>
<path d="M360.182 0V175.382H72.3929V0H360.182Z" fill="#DADAF5"/>
<path d="M356.059 4.12366H76.5167V171.258H356.059V4.12366Z" fill="#F6F6FE"/>
<path d="M119.433 19.0909C121.767 19.0909 123.659 17.1991 123.659 14.8655C123.659 12.5318 121.767 10.64 119.433 10.64C117.1 10.64 115.208 12.5318 115.208 14.8655C115.208 17.1991 117.1 19.0909 119.433 19.0909Z" fill="#DADAF5"/>
<path d="M106.96 19.0909C109.294 19.0909 111.186 17.1991 111.186 14.8655C111.186 12.5318 109.294 10.64 106.96 10.64C104.627 10.64 102.735 12.5318 102.735 14.8655C102.735 17.1991 104.627 19.0909 106.96 19.0909Z" fill="#DADAF5"/>
<path d="M94.4366 19.0909C96.7703 19.0909 98.6621 17.1991 98.6621 14.8655C98.6621 12.5318 96.7703 10.64 94.4366 10.64C92.103 10.64 90.2112 12.5318 90.2112 14.8655C90.2112 17.1991 92.103 19.0909 94.4366 19.0909Z" fill="#DADAF5"/>
<path d="M346.03 97.2874H196.968H196V162.451H196.968H346.03H346.997V97.2874H346.03ZM345.113 99.171V107.826H197.935V99.171H345.113ZM197.935 139.44V130.786H345.113V139.44H197.935ZM345.113 141.375V150.029H197.935V141.375H345.113ZM197.935 128.902V120.247H345.113V128.902H197.935ZM197.935 118.364V109.709H345.113V118.364H197.935ZM197.935 160.567V151.913H345.113V160.567H197.935Z" fill="#DADAF5"/>
<path d="M211.121 146.313H207.201V161.535H211.121V146.313Z" fill="#FFB583"/>
<path d="M226.19 139.389H222.27V161.484H226.19V139.389Z" fill="#FFB583"/>
<path d="M241.259 129.615H237.339V161.484H241.259V129.615Z" fill="#FFB583"/>
<path d="M256.277 103.549H252.357V161.484H256.277V103.549Z" fill="#FFB583"/>
<path d="M271.346 116.226H267.426V161.484H271.346V116.226Z" fill="#FFB583"/>
<path d="M286.364 105.026H282.444V161.484H286.364V105.026Z" fill="#FFB583"/>
<path d="M301.433 116.226H297.513V161.484H301.433V116.226Z" fill="#FFB583"/>
<path d="M316.503 129.869H312.582V161.484H316.503V129.869Z" fill="#FFB583"/>
<path d="M331.521 103.702H327.601V161.484H331.521V103.702Z" fill="#FFB583"/>
<path d="M345.317 98.2037H341.397V161.484H345.317V98.2037Z" fill="#FFB583"/>
<path d="M178.183 108.742C178.183 107.724 177.317 106.858 176.299 106.858H106.604C105.586 106.858 104.721 107.724 104.721 108.742C104.721 109.76 105.586 110.626 106.604 110.626H176.299C177.317 110.626 178.183 109.811 178.183 108.742Z" fill="#DADAF5"/>
<path d="M178.182 122.64C178.182 121.622 177.317 120.756 176.299 120.756H106.604C105.586 120.756 104.72 121.622 104.72 122.64C104.72 123.658 105.586 124.524 106.604 124.524H176.299C177.317 124.524 178.182 123.709 178.182 122.64Z" fill="#DADAF5"/>
<path d="M178.182 136.589C178.182 135.571 177.317 134.706 176.299 134.706H106.604C105.586 134.706 104.72 135.571 104.72 136.589C104.72 137.607 105.586 138.473 106.604 138.473H176.299C177.317 138.422 178.182 137.607 178.182 136.589Z" fill="#DADAF5"/>
<path d="M178.182 150.487C178.182 149.469 177.317 148.604 176.299 148.604H106.604C105.586 148.604 104.72 149.469 104.72 150.487C104.72 151.506 105.586 152.371 106.604 152.371H176.299C177.317 152.371 178.182 151.506 178.182 150.487Z" fill="#DADAF5"/>
<path d="M100.495 108.742C100.495 110.371 99.1712 111.695 97.5421 111.695C95.913 111.695 94.5894 110.371 94.5894 108.742C94.5894 107.113 95.913 105.789 97.5421 105.789C99.1712 105.789 100.495 107.113 100.495 108.742Z" fill="url(#paint0_linear)"/>
<path d="M100.495 122.64C100.495 124.269 99.1712 125.593 97.5421 125.593C95.913 125.593 94.5894 124.269 94.5894 122.64C94.5894 121.011 95.913 119.687 97.5421 119.687C99.1712 119.687 100.495 121.011 100.495 122.64Z" fill="url(#paint1_linear)"/>
<path d="M100.495 136.589C100.495 138.218 99.1712 139.542 97.5421 139.542C95.913 139.542 94.5894 138.218 94.5894 136.589C94.5894 134.96 95.913 133.636 97.5421 133.636C99.1712 133.636 100.495 134.96 100.495 136.589Z" fill="url(#paint2_linear)"/>
<path d="M97.5421 153.44C99.1729 153.44 100.495 152.118 100.495 150.487C100.495 148.857 99.1729 147.535 97.5421 147.535C95.9114 147.535 94.5894 148.857 94.5894 150.487C94.5894 152.118 95.9114 153.44 97.5421 153.44Z" fill="url(#paint3_linear)"/>
<path d="M304.131 86.7492C284.939 86.7492 269.36 71.171 269.36 51.9782C269.36 32.7855 284.939 17.2073 304.131 17.2073C323.324 17.2073 338.902 32.7855 338.902 51.9782C338.902 71.171 323.324 86.7492 304.131 86.7492ZM304.131 21.5346C287.331 21.5346 273.688 35.1782 273.688 51.9782C273.688 68.7782 287.331 82.4219 304.131 82.4219C320.931 82.4219 334.575 68.7782 334.575 51.9782C334.575 35.1782 320.931 21.5346 304.131 21.5346Z" fill="#EAEAFA"/>
<path d="M304.131 86.7492C284.939 86.7492 269.36 71.171 269.36 51.9782C269.36 32.7855 284.939 17.2073 304.131 17.2073C305.353 17.2073 306.321 18.1746 306.321 19.3964C306.321 20.6182 305.353 21.5855 304.131 21.5855C287.331 21.5855 273.688 35.2291 273.688 52.0291C273.688 68.8291 287.331 82.4728 304.131 82.4728C316.859 82.4728 328.313 74.4801 332.691 62.5673C333.099 61.4473 334.371 60.8873 335.491 61.2946C336.611 61.7019 337.171 62.9746 336.764 64.0946C331.775 77.6364 318.641 86.7492 304.131 86.7492Z" fill="url(#paint4_linear)"/>
<path d="M323.884 35.5855C332.946 46.4801 331.469 62.6692 320.575 71.731C309.68 80.7928 293.491 79.3165 284.429 68.4219C275.368 57.5273 276.844 41.3382 287.739 32.2764C298.582 23.2146 314.822 24.6909 323.884 35.5855ZM287.789 65.6219C295.324 74.6328 308.764 75.8546 317.826 68.371C326.837 60.8364 328.059 47.3964 320.575 38.3346C313.04 29.3237 299.6 28.1019 290.539 35.5855C281.477 43.1201 280.255 56.611 287.789 65.6219Z" fill="#EAEAFA"/>
<path d="M323.884 35.5855C332.946 46.4801 331.47 62.6692 320.575 71.731C309.68 80.7928 293.491 79.3165 284.43 68.4219C283.666 67.5055 283.768 66.131 284.684 65.3673C285.6 64.6037 286.975 64.7055 287.739 65.6219C295.273 74.6328 308.713 75.8546 317.775 68.371C326.786 60.8364 328.008 47.3964 320.524 38.3346C312.99 29.3237 299.549 28.1019 290.488 35.5855C289.571 36.3491 288.197 36.2473 287.433 35.331C286.669 34.4146 286.771 33.04 287.688 32.2764C298.582 23.2146 314.822 24.6909 323.884 35.5855Z" fill="url(#paint5_linear)"/>
<path d="M304.233 61.3455C298.022 61.3455 292.982 56.3055 292.982 50.0945C292.982 43.8836 298.022 38.8436 304.233 38.8436C310.444 38.8436 315.484 43.8836 315.484 50.0945C315.484 56.3055 310.393 61.3455 304.233 61.3455Z" fill="#FED8D8"/>
<path d="M304.233 65.6218V50.0945H319.761C319.761 58.6473 312.786 65.6218 304.233 65.6218Z" fill="#FF4F7C"/>
<path d="M119.942 336.764L138.117 229.193H147.942L124.218 336.764H119.942Z" fill="#FCB3B3"/>
<path d="M308.357 336.764L284.633 229.193H294.459L312.684 336.764H308.357Z" fill="#FCB3B3"/>
<path d="M135.418 245.28L138.117 229.193H147.942L144.429 245.28H135.418Z" fill="#FC8E8E"/>
<path d="M288.197 245.28L284.633 229.193H294.459L297.208 245.28H288.197Z" fill="#FC8E8E"/>
<path d="M92.1966 234.793H340.43C341.091 234.793 341.6 234.284 341.6 233.622V224.815C341.6 224.153 341.091 223.644 340.43 223.644H92.1966C91.5347 223.644 91.0257 224.153 91.0257 224.815V233.622C90.9748 234.284 91.5347 234.793 92.1966 234.793Z" fill="#FCB3B3"/>
<path d="M111.44 265.084L99.5274 337.069H101.818L113.731 265.084H111.44Z" fill="#DADAF5"/>
<path d="M116.735 259.178L115.971 263.353C115.818 264.32 114.851 265.135 113.884 265.135H111.287C110.269 265.135 109.608 264.32 109.811 263.353L110.575 259.178C110.778 258.16 111.695 257.397 112.713 257.397H115.309C116.226 257.346 116.888 258.16 116.735 259.178Z" fill="#C8C8EE"/>
<path d="M161.433 265.084L173.346 337.069H171.055L159.142 265.084H161.433Z" fill="#DADAF5"/>
<path d="M156.139 259.178L156.902 263.353C157.055 264.32 158.022 265.135 158.989 265.135H161.586C162.604 265.135 163.266 264.32 163.062 263.353L162.299 259.178C162.095 258.16 161.179 257.397 160.16 257.397H157.564C156.648 257.346 155.986 258.16 156.139 259.178Z" fill="#C8C8EE"/>
<path d="M177.266 252.357C176.655 255.258 174.211 257.397 171.259 257.906C159.651 259.84 122.131 265.338 102.378 258.618C78.8075 250.575 80.8439 207.149 84.9675 191.622C89.0912 176.095 101.818 175.738 102.378 175.738C126.509 176.095 123.353 206.589 126.866 224.968C130.429 243.295 160.72 241.258 171.564 244.822C177.011 246.553 177.826 249.709 177.266 252.357Z" fill="#DADAF5"/>
<path d="M371.179 338.24H1.22183C0.560013 338.24 0 337.68 0 337.019C0 336.357 0.560013 335.797 1.22183 335.797H371.179C371.84 335.797 372.4 336.357 372.4 337.019C372.4 337.731 371.891 338.24 371.179 338.24Z" fill="#C5CCED"/>
<defs>
<linearGradient id="paint0_linear" x1="94.5967" y1="108.757" x2="100.507" y2="108.757" gradientUnits="userSpaceOnUse">
<stop stop-color="#F788A8"/>
<stop offset="1" stop-color="#FF4D7B"/>
</linearGradient>
<linearGradient id="paint1_linear" x1="94.5967" y1="122.663" x2="100.507" y2="122.663" gradientUnits="userSpaceOnUse">
<stop offset="0.0036036" stop-color="#FCB3B3"/>
<stop offset="1" stop-color="#FC8E8E"/>
</linearGradient>
<linearGradient id="paint2_linear" x1="94.5967" y1="136.57" x2="100.507" y2="136.57" gradientUnits="userSpaceOnUse">
<stop stop-color="#F788A8"/>
<stop offset="1" stop-color="#FF4D7B"/>
</linearGradient>
<linearGradient id="paint3_linear" x1="94.5967" y1="150.476" x2="100.507" y2="150.476" gradientUnits="userSpaceOnUse">
<stop offset="0.0036036" stop-color="#FCB3B3"/>
<stop offset="1" stop-color="#FC8E8E"/>
</linearGradient>
<linearGradient id="paint4_linear" x1="269.366" y1="51.9896" x2="336.924" y2="51.9896" gradientUnits="userSpaceOnUse">
<stop offset="2.2e-07" stop-color="#FFB583"/>
<stop offset="1" stop-color="#FF4F7C"/>
</linearGradient>
<linearGradient id="paint5_linear" x1="301.465" y1="71.4086" x2="311.948" y2="30.4477" gradientUnits="userSpaceOnUse">
<stop offset="0.0036036" stop-color="#FCB3B3"/>
<stop offset="1" stop-color="#FC8E8E"/>
</linearGradient>
</defs>
</svg>
