<svg width="279" height="226" viewBox="0 0 279 226" fill="none" xmlns="http://www.w3.org/2000/svg">
<path d="M253.558 47.1591C267.527 110.517 225.718 173.593 160.175 188.043C94.6325 202.493 30.1762 162.845 16.2079 99.4872C2.23954 36.1294 69.3405 87.7729 134.883 73.3229C200.426 58.8729 239.59 -16.1987 253.558 47.1591Z" fill="#FFF8D8" fill-opacity="0.31"/>
<path d="M174 79.3491V73.8192L177.415 72.8425C177.622 70.985 177.987 69.1485 178.506 67.3531L175.724 65.1303L177.833 60.0315L181.362 60.4357C182.278 58.8034 183.323 57.247 184.487 55.7814L182.763 52.6696L186.656 48.7629L189.781 50.4872C191.241 49.3214 192.795 48.2805 194.429 47.3754L194.025 43.846L199.13 41.7243L201.34 44.5061C203.143 43.9998 204.983 43.6349 206.843 43.4149L207.819 40H213.336L214.332 43.4149C216.188 43.6363 218.023 44.0011 219.822 44.5061L222.038 41.7243L227.137 43.846L226.733 47.3754C228.37 48.2788 229.927 49.3198 231.387 50.4872L234.499 48.7629L238.412 52.6696L236.681 55.7747C237.843 57.2388 238.884 58.7954 239.793 60.4289L243.322 60.0248L245.444 65.1236L242.649 67.3463C243.171 69.141 243.536 70.9778 243.74 72.8358L247.175 73.8125V79.3491L243.74 80.3257C243.538 82.1863 243.173 84.0255 242.649 85.822L245.444 88.038L243.322 93.1368L239.793 92.7461C238.884 94.3753 237.843 95.9274 236.681 97.3869L238.412 100.512L234.485 104.385L231.373 102.654C229.912 103.824 228.355 104.869 226.719 105.779L227.123 109.309L222.024 111.417L219.808 108.635C218.013 109.153 216.176 109.518 214.319 109.726L213.322 113.148H207.806L206.869 109.726C205.008 109.52 203.167 109.155 201.367 108.635L199.157 111.417L194.052 109.309L194.456 105.779C192.823 104.867 191.269 103.822 189.808 102.654L186.663 104.385L182.77 100.485L184.494 97.36C183.33 95.899 182.285 94.3471 181.369 92.7192L177.839 93.1098L175.731 88.011L178.513 85.795C177.992 83.9977 177.627 82.1588 177.422 80.2988L174 79.3491ZM210.581 102.068C215.621 102.068 220.547 100.574 224.738 97.7734C228.928 94.9733 232.194 90.9933 234.122 86.337C236.051 81.6806 236.555 76.557 235.571 71.614C234.588 66.6711 232.16 62.1309 228.596 58.5676C225.032 55.0044 220.491 52.5781 215.548 51.5957C210.604 50.6133 205.481 51.1189 200.825 53.0485C196.169 54.9781 192.19 58.245 189.391 62.4362C186.592 66.6273 185.099 71.5544 185.1 76.5943C185.107 83.3468 187.795 89.8203 192.573 94.592C197.351 99.3636 203.828 102.043 210.581 102.041V102.068Z" fill="#8F8FFF"/>
<path d="M64.8346 118.536C65.0931 117.708 65.4341 116.908 65.8526 116.149L65.3413 113.827L68.8089 110.363L71.133 110.874C71.8933 110.456 72.6938 110.115 73.5223 109.857L75.0329 107.499H79.9462L81.4522 109.857C82.2822 110.116 83.0841 110.456 83.8461 110.874L86.1702 110.363L89.6425 113.827L89.1312 116.149C89.5477 116.909 89.8887 117.709 90.1491 118.536L92.5058 120.045V124.948L90.1491 126.457C89.887 127.285 89.5461 128.085 89.1312 128.848L89.6425 131.17L86.1702 134.638L83.8461 134.128C83.0832 134.544 82.2815 134.884 81.4522 135.144L79.9462 137.499H75.0422L73.5501 135.149C72.7224 134.889 71.9222 134.548 71.1609 134.132L68.8368 134.643L65.3692 131.174L65.8805 128.853C65.4636 128.091 65.1227 127.29 64.8625 126.462L62.5058 124.952V120.045L64.8346 118.536ZM77.4965 129.289C78.8417 129.29 80.157 128.893 81.2759 128.147C82.3949 127.401 83.2672 126.34 83.7826 125.099C84.298 123.858 84.4334 122.492 84.1715 121.174C83.9096 119.856 83.2623 118.645 82.3115 117.694C81.3606 116.744 80.1489 116.097 78.8296 115.834C77.5103 115.572 76.1427 115.706 74.8998 116.22C73.657 116.734 72.5946 117.604 71.8471 118.722C71.0997 119.839 70.7007 121.152 70.7007 122.496C70.7007 124.297 71.4166 126.024 72.6909 127.298C73.9652 128.572 75.6938 129.288 77.4965 129.289Z" fill="#8F8FFF" fill-opacity="0.49"/>
<path d="M41 64.5507L65.403 79.0274L62.7556 69.2819L100.317 74.5868L106.69 102.384C106.767 102.721 106.93 103.033 107.163 103.288C107.397 103.542 107.693 103.732 108.022 103.837L141.98 114.809L149.885 146.606C149.969 146.943 150.127 147.256 150.348 147.522C150.57 147.789 150.848 148.003 151.163 148.147L182.358 162.402C182.96 162.67 183.644 162.688 184.259 162.452C184.874 162.216 185.37 161.745 185.638 161.143C185.906 160.541 185.924 159.858 185.688 159.242C185.452 158.627 184.981 158.131 184.379 157.863L154.113 144.402L145.921 112.602C145.832 112.241 145.652 111.91 145.398 111.64C145.143 111.37 144.824 111.17 144.47 111.059L110.332 100.401L103.735 72.509C103.648 72.1387 103.45 71.8038 103.167 71.5487C102.885 71.2935 102.532 71.1302 102.155 71.0803L63.2572 65.8933L68.4345 57.2309L41 64.5507Z" fill="#263238" fill-opacity="0.16"/>
<path d="M124.865 178.843C128.444 174.277 137.932 171.098 149.37 171.098C160.807 171.098 170.324 174.306 173.991 178.843C175.475 177.34 176.406 175.693 176.581 173.93C177.338 166.936 165.114 161.271 149.282 161.271C133.45 161.271 121.314 166.936 122.187 173.93C122.391 175.693 123.351 177.34 124.865 178.843Z" fill="#C8C8EE"/>
<path d="M116.997 157.171C121.653 151.553 134.07 147.599 149.064 147.599C164.058 147.599 176.563 151.553 181.277 157.171C183.24 155.299 184.499 153.277 184.762 151.107C185.846 142.486 169.827 135.5 148.976 135.5C128.125 135.5 112.194 142.486 113.424 151.107C113.717 153.277 114.976 155.328 116.997 157.171Z" fill="#C8C8EE"/>
<path d="M107.126 131.4C113.12 124.714 129.375 120.031 149.081 120.031C168.757 120.031 185.1 124.714 191.211 131.4C193.842 129.191 195.479 126.747 195.859 124.214C197.438 113.964 176.446 105.629 148.935 105.629C121.423 105.629 100.577 113.934 102.332 124.214C102.77 126.747 104.466 129.191 107.126 131.4Z" fill="#C8C8EE"/>
<path d="M93.5932 105.013C101.401 96.9794 122.778 91.3084 148.776 91.3084C174.774 91.3084 196.414 96.9794 204.339 105.043C207.819 102.385 209.895 99.4309 210.451 96.3591C212.761 84.0128 185.068 74 148.63 74C112.163 74 84.6446 84.0128 87.1595 96.3591C87.7737 99.4309 90.0547 102.355 93.5932 105.013Z" fill="#C8C8EE"/>
<path d="M149.307 142.714C126.856 142.714 107.204 135.732 102.814 126.714L110.18 142.714C113.686 150.859 130.333 157.171 149.425 157.171C168.87 157.171 185.693 150.626 188.61 142.248L195.357 127.093C190.731 135.936 171.433 142.714 149.307 142.714Z" fill="url(#paint0_linear)"/>
<path d="M149.247 166.607C132.138 166.607 117.2 160.697 113.943 153.072L119.401 166.607C122.013 173.494 134.72 178.843 149.365 178.843C164.273 178.843 177.127 173.287 179.269 166.194L184.229 153.367C180.795 160.874 166.151 166.607 149.247 166.607Z" fill="url(#paint1_linear)"/>
<path d="M149.818 186.716C136.625 186.716 125.162 181.738 122.729 175.329L126.804 186.716C128.768 192.499 138.56 197 149.906 197C161.457 197 171.366 192.32 172.95 186.388L176.614 175.597C174.064 181.887 162.835 186.716 149.818 186.716Z" fill="url(#paint2_linear)"/>
<path d="M149.071 118.576C119.838 118.576 94.0943 110.115 88.1714 99.1858L98.1113 118.576C102.832 128.447 124.53 136.086 149.218 136.086C174.405 136.086 196.366 128.124 200.295 117.988L209.414 99.6265C203.198 110.35 177.923 118.576 149.071 118.576Z" fill="url(#paint3_linear)"/>
<path d="M47.8457 185.137L46.3731 196.334C46.17 197.857 44.8751 199 43.3263 199H39.6701C39.0354 199 38.426 198.797 37.9436 198.467C37.2326 197.984 36.7502 197.223 36.6233 196.334L35.1253 185.137H47.8457Z" fill="url(#paint4_linear)"/>
<path d="M47.8458 185.137L46.3732 196.334C46.17 197.857 44.8751 199 43.3263 199H39.6701C39.0354 199 38.426 198.797 37.9436 198.467C38.1721 198.391 38.3752 198.314 38.5784 198.238C39.594 197.807 40.508 197.096 40.965 196.08C41.2951 195.293 41.3205 194.43 41.4475 193.566C41.5998 192.551 41.9299 191.561 42.2599 190.57C42.6408 189.479 42.9963 188.387 43.5041 187.346C43.8849 186.559 44.3419 185.822 44.8751 185.112H47.8458V185.137Z" fill="#FF4F7C"/>
<path d="M41.4728 186.61C44.9785 186.61 47.8204 185.996 47.8204 185.239C47.8204 184.481 44.9785 183.867 41.4728 183.867C37.9672 183.867 35.1253 184.481 35.1253 185.239C35.1253 185.996 37.9672 186.61 41.4728 186.61Z" fill="#41446B"/>
<path d="M47.8464 185.239C47.8464 185.848 45.9929 186.381 43.4031 186.533C43.1492 186.559 42.8953 186.559 42.616 186.584C42.5144 186.584 42.4129 186.584 42.2859 186.584C42.1336 186.584 41.9812 186.584 41.8035 186.584H41.1941C37.8172 186.559 35.1259 185.949 35.1259 185.213C35.1259 184.451 37.9696 183.842 41.4734 183.842C41.575 183.842 41.6766 183.842 41.7781 183.842C41.8035 183.842 41.8289 183.842 41.8543 183.842C42.0066 183.842 42.159 183.842 42.3113 183.842C42.4383 183.842 42.5652 183.842 42.6668 183.842C42.8953 183.867 43.1238 183.867 43.3523 183.867C43.5808 183.893 43.7839 183.893 43.9871 183.918C46.2722 184.197 47.8464 184.68 47.8464 185.239Z" fill="#2E34A5"/>
<path d="M42.7423 171.35C41.9298 169.954 41.092 168.557 40.2033 167.186C37.1057 162.286 33.6526 157.589 29.8949 153.145C29.0316 152.13 28.143 151.114 27.3813 149.997C26.6957 149.032 24.6645 146.163 25.3754 144.741C25.4262 144.64 25.5024 144.538 25.5786 144.462C26.8481 143.142 30.0218 144.97 30.9105 145.985C31.4691 146.595 31.8753 147.331 32.4339 147.915C33.5765 149.083 35.2776 149.565 36.6233 150.505C39.0608 152.206 40.1525 155.176 41.1428 157.969C41.6506 159.417 42.133 160.838 42.463 162.336C43.0724 165.282 42.8947 168.354 42.7423 171.35Z" fill="url(#paint5_linear)"/>
<path d="M40.2033 167.186C37.1057 162.286 33.6526 157.589 29.8949 153.145C29.0316 152.13 28.143 151.114 27.3813 149.997C26.6957 149.032 24.6645 146.163 25.3754 144.741C26.0102 145.173 26.645 145.731 26.9496 146.011C27.8129 146.798 28.5492 147.712 29.1078 148.753C29.5394 149.565 29.8949 150.479 30.6566 151.038C31.4691 151.622 32.5863 151.698 33.2972 152.409C34.0081 153.12 34.0843 154.237 34.4397 155.177C34.8968 156.421 35.9124 157.36 36.6995 158.427C38.1721 160.432 38.9084 162.844 39.6447 165.206C39.7971 165.866 40.0002 166.526 40.2033 167.186Z" fill="url(#paint6_linear)"/>
<path d="M42.717 183.893V183.969C42.6916 184.858 42.5647 185.772 42.2854 186.609C42.1331 186.609 41.9807 186.609 41.803 186.609H41.4475C41.676 185.721 41.7776 184.807 41.803 183.867C41.8284 182.801 41.7014 181.734 41.4475 180.693C40.9143 178.561 39.6448 176.86 38.4007 175.006H38.68C39.4163 175.946 40.305 176.682 40.9143 177.723C41.9807 179.602 42.7424 181.735 42.717 183.893Z" fill="url(#paint7_linear)"/>
<path d="M39.3908 175.869C38.8322 175.362 38.0959 174.473 37.6896 173.813C37.2834 173.153 37.0041 172.442 36.6486 171.782C35.3791 169.395 33.0686 167.668 30.5804 166.602C28.5999 165.739 26.4672 165.231 24.3344 164.825C22.9633 164.545 21.5161 164.571 20.1704 164.926C19.1294 165.206 18.5962 165.536 18.3169 165.815C17.9107 166.221 18.0376 166.551 18.0376 166.551C18.0376 166.551 20.0942 168.379 21.2368 168.989C24.3344 170.639 27.432 172.315 30.5296 173.965C30.7327 174.067 30.9359 174.194 31.139 174.295C32.5862 175.082 34.135 175.869 35.7854 175.92C36.5725 175.946 37.3849 175.768 38.172 175.768C38.5275 175.768 38.883 175.793 39.213 175.895L39.3908 175.869Z" fill="url(#paint8_linear)"/>
<path d="M30.5043 173.94C27.4067 172.289 24.3091 170.614 21.2115 168.963C20.0689 168.354 18.0123 166.526 18.0123 166.526C18.0123 166.526 17.9107 166.196 18.2916 165.789C18.7994 165.764 19.3326 165.84 19.7388 165.891C20.9068 166.043 22.0239 166.399 23.0649 166.932C25.0961 167.948 26.7973 169.547 28.3207 171.248C29.1078 172.112 29.8187 173.026 30.5043 173.94Z" fill="url(#paint9_linear)"/>
<path d="M44.9513 186.356H45.3829C43.174 179.805 42.7169 176.25 42.7169 172.696C42.7169 171.375 42.7677 170.004 42.3107 168.76C42.1838 170.817 42.2091 172.899 42.3615 174.955C42.4884 176.784 42.7423 178.637 43.0724 180.44C43.2501 181.328 43.4279 182.242 43.6564 183.106C43.6564 183.131 43.6818 183.207 44.9513 186.356Z" fill="url(#paint10_linear)"/>
<path d="M42.4884 176.682C43.2248 175.412 43.9865 174.168 44.7736 172.924C47.5665 168.506 50.6895 164.266 54.0664 160.255C54.8535 159.34 55.6406 158.401 56.3261 157.411C56.9355 156.548 58.7636 153.932 58.1288 152.663C58.078 152.561 58.0273 152.485 57.9511 152.409C56.7831 151.216 53.9394 152.866 53.1269 153.78C52.6445 154.339 52.2637 154.999 51.7559 155.532C50.7149 156.598 49.1914 157.03 47.9727 157.868C45.7892 159.391 44.7736 162.083 43.9103 164.596C43.4533 165.891 42.9963 167.186 42.717 168.532C42.1838 171.198 42.3361 173.965 42.4884 176.682Z" fill="url(#paint11_linear)"/>
<path d="M44.7734 172.924C47.5663 168.506 50.6893 164.266 54.0662 160.254C54.8533 159.34 55.6404 158.401 56.3259 157.411C56.9353 156.548 58.7634 153.932 58.1286 152.663C57.5447 153.044 56.9861 153.551 56.7068 153.805C55.9197 154.516 55.2596 155.329 54.7518 156.268C54.3455 157.005 54.0408 157.842 53.3553 158.325C52.6444 158.858 51.6034 158.934 50.9686 159.544C50.3339 160.178 50.2577 161.194 49.953 162.032C49.5214 163.149 48.6327 164.012 47.9218 164.977C46.6015 166.78 45.916 168.963 45.2812 171.096C45.1289 171.731 44.9511 172.34 44.7734 172.924Z" fill="url(#paint12_linear)"/>
<path d="M42.6154 186.584C42.8947 186.584 43.1486 186.559 43.4025 186.533C43.4533 186.051 43.5549 185.569 43.6564 185.112C43.758 184.731 43.885 184.324 44.0373 183.969C44.6213 182.547 45.5099 181.303 46.3986 179.983H46.1447C45.4592 180.821 44.6721 181.506 44.1389 182.42C43.8596 182.903 43.6057 183.385 43.4025 183.893C43.0217 184.781 42.7424 185.67 42.6154 186.584Z" fill="url(#paint13_linear)"/>
<path d="M45.4845 180.744C45.9923 180.287 46.6524 179.475 47.0333 178.891C47.3888 178.307 47.6426 177.647 47.9727 177.037C49.1153 174.879 51.1973 173.33 53.457 172.366C55.2597 171.578 57.164 171.147 59.0936 170.766C60.3378 170.512 61.6327 170.537 62.8514 170.868C63.7908 171.121 64.2732 171.401 64.5271 171.68C64.8826 172.035 64.781 172.34 64.781 172.34C64.781 172.34 62.9275 173.991 61.9119 174.524C59.119 176.022 56.3261 177.52 53.5332 179.018C53.3554 179.119 53.1523 179.221 52.9746 179.323C51.6543 180.033 50.2832 180.744 48.7852 180.795C48.0743 180.821 47.3634 180.668 46.6271 180.668C46.3224 180.668 45.9923 180.694 45.6876 180.77L45.4845 180.744Z" fill="url(#paint14_linear)"/>
<path d="M53.5079 179.018C56.3008 177.52 59.0937 176.022 61.8866 174.524C62.9022 173.965 64.7557 172.34 64.7557 172.34C64.7557 172.34 64.8573 172.036 64.5018 171.68C64.0448 171.655 63.5624 171.731 63.2069 171.756C62.1659 171.883 61.1503 172.213 60.2109 172.696C58.3828 173.635 56.834 175.057 55.4629 176.606C54.7774 177.368 54.1172 178.18 53.5079 179.018Z" fill="url(#paint15_linear)"/>
<path d="M41.1936 186.61H41.8029C41.9299 186.026 42.0569 185.467 42.1584 184.883C42.2346 184.553 42.2854 184.223 42.3361 183.893C42.5646 182.573 42.717 181.252 42.8186 179.932C42.9455 178.079 42.9709 176.2 42.8693 174.346C42.4631 175.463 42.5139 176.707 42.5139 177.901C42.5139 179.729 42.3615 181.557 41.8791 183.893C41.7014 184.705 41.4729 185.619 41.1936 186.61Z" fill="url(#paint16_linear)"/>
<path opacity="0.3" d="M152.106 19H125.773C123.677 19 122 20.7149 122 22.7728V38.7787C122 40.8747 123.715 42.5515 125.773 42.5515H148.524C149.019 42.5515 149.515 42.7421 149.858 43.1232L155.308 48.5728C155.536 48.8015 155.879 48.649 155.879 48.3442V22.8109C155.879 20.6768 154.202 19 152.106 19Z" fill="#DADAF5"/>
<defs>
<linearGradient id="paint0_linear" x1="102.803" y1="141.949" x2="195.333" y2="141.949" gradientUnits="userSpaceOnUse">
<stop offset="1.1e-07" stop-color="#F5F5FF"/>
<stop offset="1" stop-color="#CFCFF2"/>
</linearGradient>
<linearGradient id="paint1_linear" x1="113.951" y1="165.951" x2="184.192" y2="165.951" gradientUnits="userSpaceOnUse">
<stop offset="1.1e-07" stop-color="#F5F5FF"/>
<stop offset="1" stop-color="#CFCFF2"/>
</linearGradient>
<linearGradient id="paint2_linear" x1="122.727" y1="186.152" x2="176.615" y2="186.152" gradientUnits="userSpaceOnUse">
<stop offset="1.1e-07" stop-color="#F5F5FF"/>
<stop offset="1" stop-color="#CFCFF2"/>
</linearGradient>
<linearGradient id="paint3_linear" x1="88.1691" y1="117.621" x2="209.427" y2="117.621" gradientUnits="userSpaceOnUse">
<stop offset="1.1e-07" stop-color="#F5F5FF"/>
<stop offset="1" stop-color="#CFCFF2"/>
</linearGradient>
<linearGradient id="paint4_linear" x1="35.1293" y1="192.079" x2="47.8394" y2="192.079" gradientUnits="userSpaceOnUse">
<stop stop-color="#F788A8"/>
<stop offset="1" stop-color="#FF4D7B"/>
</linearGradient>
<linearGradient id="paint5_linear" x1="25.2291" y1="157.685" x2="42.8839" y2="157.685" gradientUnits="userSpaceOnUse">
<stop offset="1.1e-07" stop-color="#F5F5FF"/>
<stop offset="1" stop-color="#CFCFF2"/>
</linearGradient>
<linearGradient id="paint6_linear" x1="23.5763" y1="165.182" x2="25.9572" y2="162.801" gradientUnits="userSpaceOnUse">
<stop offset="1.1e-07" stop-color="#F5F5FF"/>
<stop offset="1" stop-color="#CFCFF2"/>
</linearGradient>
<linearGradient id="paint7_linear" x1="38.3924" y1="180.82" x2="42.7107" y2="180.82" gradientUnits="userSpaceOnUse">
<stop offset="1.1e-07" stop-color="#F5F5FF"/>
<stop offset="1" stop-color="#CFCFF2"/>
</linearGradient>
<linearGradient id="paint8_linear" x1="17.718" y1="168.872" x2="40.7213" y2="171.626" gradientUnits="userSpaceOnUse">
<stop offset="1.1e-07" stop-color="#F5F5FF"/>
<stop offset="1" stop-color="#CFCFF2"/>
</linearGradient>
<linearGradient id="paint9_linear" x1="15.2276" y1="179.056" x2="18.5627" y2="175.721" gradientUnits="userSpaceOnUse">
<stop offset="1.1e-07" stop-color="#F5F5FF"/>
<stop offset="1" stop-color="#CFCFF2"/>
</linearGradient>
<linearGradient id="paint10_linear" x1="45.3796" y1="177.552" x2="42.2286" y2="177.552" gradientUnits="userSpaceOnUse">
<stop offset="1.1e-07" stop-color="#F5F5FF"/>
<stop offset="1" stop-color="#CFCFF2"/>
</linearGradient>
<linearGradient id="paint11_linear" x1="58.2766" y1="164.348" x2="42.3435" y2="164.348" gradientUnits="userSpaceOnUse">
<stop offset="1.1e-07" stop-color="#F5F5FF"/>
<stop offset="1" stop-color="#CFCFF2"/>
</linearGradient>
<linearGradient id="paint12_linear" x1="55.0579" y1="166.405" x2="53.8452" y2="165.192" gradientUnits="userSpaceOnUse">
<stop offset="1.1e-07" stop-color="#F5F5FF"/>
<stop offset="1" stop-color="#CFCFF2"/>
</linearGradient>
<linearGradient id="paint13_linear" x1="50.6294" y1="183.296" x2="42.6054" y2="183.296" gradientUnits="userSpaceOnUse">
<stop stop-color="#E4E8FD"/>
<stop offset="0.9928" stop-color="#BBC2E9"/>
</linearGradient>
<linearGradient id="paint14_linear" x1="65.0551" y1="174.445" x2="44.295" y2="176.931" gradientUnits="userSpaceOnUse">
<stop offset="1.1e-07" stop-color="#F5F5FF"/>
<stop offset="1" stop-color="#CFCFF2"/>
</linearGradient>
<linearGradient id="paint15_linear" x1="63.9353" y1="180.268" x2="62.3964" y2="178.729" gradientUnits="userSpaceOnUse">
<stop offset="1.1e-07" stop-color="#F5F5FF"/>
<stop offset="1" stop-color="#CFCFF2"/>
</linearGradient>
<linearGradient id="paint16_linear" x1="42.9353" y1="180.473" x2="41.2039" y2="180.473" gradientUnits="userSpaceOnUse">
<stop offset="1.1e-07" stop-color="#F5F5FF"/>
<stop offset="1" stop-color="#CFCFF2"/>
</linearGradient>
</defs>
</svg>
