<svg width="366" height="272" viewBox="0 0 366 272" fill="none" xmlns="http://www.w3.org/2000/svg">
<path d="M330.709 38.31C350.098 124.239 293.754 210.158 204.861 230.215C115.969 250.272 28.1902 196.872 8.80168 110.943C-10.5868 25.0138 80.8631 94.6833 169.755 74.6262C258.648 54.5692 311.321 -47.6192 330.709 38.31Z" fill="#FFF8D8" fill-opacity="0.67"/>
<path d="M311.715 271.263H24.9593C24.4221 271.263 24 270.841 24 270.303C24 269.766 24.4221 269.344 24.9593 269.344H311.715C312.252 269.344 312.674 269.766 312.674 270.303C312.674 270.841 312.252 271.263 311.715 271.263Z" fill="#C5CCED"/>
<path d="M131.71 271.646L139.883 162.899H136.391L128.256 271.646H131.71Z" fill="#D1D6F2"/>
<path d="M207.341 271.646L215.515 162.899H212.023L203.888 271.646H207.341Z" fill="#D1D6F2"/>
<path d="M243.756 271.646L238.384 162.899H234.931L240.303 271.646H243.756Z" fill="#C5CCED"/>
<path d="M232.475 38.9187H141.993L155.193 172.531H245.675L232.475 38.9187Z" fill="#DADAF5"/>
<path d="M218.278 178.862L232.399 38.1511H141.917L127.758 178.862H218.278Z" fill="#F6F6FE"/>
<path d="M168.394 53.9221C178.217 54.9198 184.395 63.6686 182.169 73.4535C179.944 83.2385 170.159 90.3757 160.336 89.4164C150.512 88.4188 144.334 79.6699 146.56 69.885C148.785 60.1 158.57 52.9244 168.394 53.9221ZM160.834 87.2676C169.468 88.1501 178.102 81.8571 180.059 73.2234C182.016 64.628 176.567 56.9151 167.933 56.0326C159.299 55.15 150.666 61.4431 148.709 70.0768C146.752 78.7106 152.201 86.385 160.834 87.2676Z" fill="#EAEAFA"/>
<path d="M155.155 57.2604C155.577 57.2988 155.999 57.4906 156.268 57.8743C156.844 58.6034 156.613 59.7546 155.769 60.4069C152.508 62.9011 150.244 66.393 149.399 70.1918C147.519 78.4035 152.738 85.7709 160.988 86.5768C161.985 86.6919 162.599 87.5361 162.369 88.5338C162.139 89.5315 161.18 90.2221 160.182 90.1454C149.975 89.1093 143.528 80.0152 145.831 69.8465C146.905 65.1267 149.706 60.829 153.735 57.7208C154.158 57.3371 154.695 57.1837 155.155 57.2604Z" fill="url(#paint0_linear)"/>
<path d="M167.089 59.6779C173.727 60.3302 177.91 66.2395 176.375 72.8396C174.878 79.4396 168.24 84.2744 161.64 83.6221C155.001 82.9698 150.819 77.0605 152.354 70.4605C153.85 63.8604 160.45 59.0255 167.089 59.6779ZM162.139 81.4733C167.588 82.0105 173.036 78.0582 174.264 72.6093C175.492 67.1988 172.077 62.3256 166.628 61.7883C161.179 61.2511 155.731 65.2035 154.503 70.6523C153.236 76.1012 156.69 80.9361 162.139 81.4733Z" fill="#EAEAFA"/>
<path d="M167.013 58.9872C174.035 59.6779 178.448 65.9325 176.874 72.9546C176.644 73.9523 175.685 74.6431 174.687 74.5664C173.689 74.4512 173.075 73.607 173.306 72.6093C174.457 67.5826 171.272 63.0547 166.207 62.5558C165.209 62.4407 164.595 61.5965 164.825 60.5988C165.056 59.6011 166.015 58.8721 167.013 58.9872Z" fill="url(#paint1_linear)"/>
<path d="M210.259 56.7615C213.789 57.1068 217.012 58.7952 219.084 61.7499C223.228 67.6592 221.271 76.3697 214.671 81.1663C208.071 85.9628 199.323 85.1186 195.14 79.2092C193.106 76.3697 192.454 72.7627 193.298 69.079C194.142 65.3953 196.368 62.0952 199.553 59.7929C202.891 57.4138 206.728 56.4161 210.259 56.7615ZM204.388 82.586C207.496 82.893 210.873 82.0488 213.789 79.9C219.583 75.679 221.348 68.0046 217.664 62.8243C213.981 57.644 206.306 56.8766 200.474 61.0976C197.673 63.1697 195.716 66.0476 194.986 69.2709C194.257 72.4941 194.833 75.679 196.598 78.1732C198.44 80.7825 201.28 82.279 204.388 82.586Z" fill="#EAEAFA"/>
<path d="M194.372 68.2347C195.101 68.3115 195.6 68.9638 195.447 69.6929C194.871 72.6476 195.447 75.5255 197.058 77.8278C200.55 82.7779 207.918 83.5069 213.443 79.4778C214.095 78.9789 214.978 79.0941 215.4 79.6696C215.822 80.2452 215.63 81.1278 214.94 81.6267C208.071 86.6534 198.977 85.7325 194.641 79.5929C192.645 76.7534 191.916 73.1848 192.645 69.5394C192.799 68.772 193.528 68.1964 194.295 68.2731C194.372 68.2347 194.372 68.2347 194.372 68.2347Z" fill="url(#paint2_linear)"/>
<path d="M209.222 61.2127C211.717 61.4429 213.827 62.6708 215.208 64.5894C218.01 68.5801 216.667 74.4511 212.215 77.7127C210.067 79.286 207.496 80.015 205.001 79.7848C202.507 79.5546 200.397 78.3266 199.015 76.408C196.214 72.4173 197.557 66.5464 202.008 63.2847C204.196 61.7115 206.767 60.9824 209.222 61.2127ZM205.385 78.1348C207.419 78.3266 209.529 77.7511 211.294 76.4464C214.94 73.7604 216.053 68.9255 213.75 65.6638C212.638 64.0906 210.872 63.0929 208.839 62.901C206.805 62.7091 204.694 63.2847 202.929 64.5894C199.284 67.2755 198.171 72.1103 200.474 75.372C201.625 76.9452 203.351 77.9045 205.385 78.1348Z" fill="#EAEAFA"/>
<path d="M209.376 60.6754C212.023 60.944 214.249 62.2103 215.707 64.244C216.129 64.8196 215.937 65.7022 215.247 66.201C214.594 66.6999 213.712 66.5847 213.29 66.0092C212.254 64.551 210.642 63.6301 208.723 63.4382C206.843 63.2463 204.886 63.8219 203.236 65.0114C202.584 65.5103 201.701 65.3952 201.279 64.8196C200.857 64.244 201.049 63.3614 201.74 62.8626C204.004 61.1742 206.728 60.4068 209.376 60.6754Z" fill="url(#paint3_linear)"/>
<path d="M140.996 150.62L138.156 171.226H139.461L142.3 150.62H140.996Z" fill="#EAEAFA"/>
<path d="M148.977 171.226H147.672L152.929 133.084H154.234L148.977 171.226Z" fill="#EAEAFA"/>
<path d="M161.18 142.217L157.189 171.226H158.493L162.484 142.217H161.18Z" fill="#EAEAFA"/>
<path d="M167.971 171.226H166.667L171.924 133.084H173.228L167.971 171.226Z" fill="#EAEAFA"/>
<path d="M177.488 161.825L176.183 171.226H177.488L178.792 161.825H177.488Z" fill="#EAEAFA"/>
<path d="M187.004 171.226H185.699L190.573 136.039H191.877L187.004 171.226Z" fill="#EAEAFA"/>
<path d="M198.823 144.864L195.216 171.226H196.521L200.128 144.864H198.823Z" fill="#EAEAFA"/>
<path d="M205.999 171.226H204.694L209.951 133.084H211.256L205.999 171.226Z" fill="#EAEAFA"/>
<path d="M141.878 157.565L140.996 163.897C140.919 164.549 140.305 165.086 139.615 165.086C138.962 165.086 138.502 164.549 138.578 163.897L139.461 157.565C139.538 156.913 140.152 156.376 140.842 156.376C141.188 156.376 141.456 156.529 141.648 156.721C141.84 156.952 141.955 157.258 141.878 157.565Z" fill="#F49758"/>
<path d="M153.889 139.569L153.006 145.9C152.929 146.553 152.315 147.09 151.625 147.09C150.972 147.09 150.512 146.553 150.589 145.9L151.471 139.569C151.548 138.917 152.162 138.379 152.853 138.379C153.198 138.379 153.467 138.533 153.659 138.725C153.812 138.955 153.927 139.262 153.889 139.569Z" fill="#4F5CD3"/>
<path d="M161.832 150.773L160.949 157.105C160.872 157.757 160.259 158.294 159.568 158.294C158.916 158.294 158.455 157.757 158.532 157.105L159.414 150.773C159.491 150.121 160.105 149.584 160.796 149.584C161.141 149.584 161.41 149.737 161.602 149.929C161.793 150.16 161.87 150.466 161.832 150.773Z" fill="#C5CCED"/>
<path d="M190.726 150.16L189.844 156.491C189.767 157.143 189.153 157.68 188.462 157.68C187.81 157.68 187.35 157.143 187.426 156.491L188.309 150.16C188.386 149.507 189 148.97 189.69 148.97C190.036 148.97 190.304 149.123 190.496 149.315C190.688 149.507 190.765 149.814 190.726 150.16Z" fill="#F49758"/>
<path d="M198.938 157.489L198.056 163.82C197.979 164.472 197.365 165.01 196.674 165.01C196.022 165.01 195.561 164.472 195.638 163.82L196.521 157.489C196.597 156.836 197.211 156.299 197.902 156.299C198.247 156.299 198.516 156.453 198.708 156.645C198.9 156.836 198.976 157.143 198.938 157.489Z" fill="#4F5CD3"/>
<path d="M210.872 141.718L209.989 148.049C209.913 148.702 209.299 149.239 208.608 149.239C207.956 149.239 207.495 148.702 207.572 148.049L208.455 141.718C208.531 141.065 209.145 140.528 209.836 140.528C210.181 140.528 210.45 140.682 210.642 140.874C210.795 141.065 210.91 141.372 210.872 141.718Z" fill="#212785"/>
<path d="M179.444 160.942L178.562 167.274C178.485 167.926 177.871 168.463 177.18 168.463C176.528 168.463 176.068 167.926 176.144 167.274L177.027 160.942C177.104 160.29 177.718 159.753 178.408 159.753C178.754 159.753 179.022 159.906 179.214 160.098C179.406 160.29 179.521 160.597 179.444 160.942Z" fill="#FB688F"/>
<path d="M172.384 143.406L171.501 149.738C171.425 150.39 170.811 150.927 170.12 150.927C169.468 150.927 169.007 150.39 169.084 149.738L169.966 143.406C170.043 142.754 170.657 142.217 171.348 142.217C171.693 142.217 171.962 142.37 172.154 142.562C172.307 142.754 172.422 143.061 172.384 143.406Z" fill="#FB688F"/>
<path d="M170.351 102.501L144.066 101.811L143.759 105.187L170.044 105.878L170.351 102.501Z" fill="#EAEAFA"/>
<path d="M215.437 112.325L143.259 110.444L143.413 108.833L215.591 110.675L215.437 112.325Z" fill="#EAEAFA"/>
<path d="M215.015 116.814L142.837 114.934L142.99 113.323L215.169 115.203L215.015 116.814Z" fill="#EAEAFA"/>
<path d="M214.594 121.342L142.377 119.462L142.53 117.85L214.747 119.692L214.594 121.342Z" fill="#EAEAFA"/>
<path d="M214.133 125.832L141.955 123.952L142.108 122.34L214.286 124.22L214.133 125.832Z" fill="#EAEAFA"/>
<path d="M236.351 38.3047V40.8756C236.351 41.6047 235.776 42.1803 235.047 42.1803H139.922C139.193 42.1803 138.617 41.6047 138.617 40.8756V38.3047C138.617 37.5756 139.193 37 139.922 37H235.047C235.776 37 236.351 37.5756 236.351 38.3047Z" fill="#C8C8EE"/>
<path d="M45.7954 209.79C44.6058 209.79 43.6465 208.831 43.6465 207.641C43.6465 206.452 44.6058 205.493 45.7954 205.493C46.9849 205.493 47.9059 206.452 47.9059 207.641C47.9059 208.831 46.9466 209.79 45.7954 209.79ZM45.7954 205.838C44.7977 205.838 43.9919 206.644 43.9919 207.641C43.9919 208.639 44.7977 209.445 45.7954 209.445C46.7931 209.445 47.5989 208.639 47.5989 207.641C47.5989 206.644 46.7547 205.838 45.7954 205.838Z" fill="white"/>
<path d="M71.8118 209.79C70.6223 209.79 69.6629 208.831 69.6629 207.641C69.6629 206.452 70.6223 205.493 71.8118 205.493C73.0013 205.493 73.9223 206.452 73.9223 207.641C73.9223 208.831 72.963 209.79 71.8118 209.79ZM71.8118 205.838C70.8141 205.838 70.0083 206.644 70.0083 207.641C70.0083 208.639 70.8141 209.445 71.8118 209.445C72.8095 209.445 73.6153 208.639 73.6153 207.641C73.6153 206.644 72.8095 205.838 71.8118 205.838Z" fill="white"/>
<path opacity="0.2" d="M303.733 149.93V161.019C303.733 162.324 302.697 163.36 301.393 163.36H276.144C274.839 163.36 273.803 162.324 273.803 161.019V149.93C273.803 148.625 274.839 147.589 276.144 147.589H301.393C302.697 147.589 303.733 148.625 303.733 149.93Z" fill="url(#paint4_linear)"/>
<path opacity="0.2" d="M300.395 61.213V72.3025C300.395 73.6072 299.359 74.6432 298.054 74.6432H272.805C271.501 74.6432 270.464 73.6072 270.464 72.3025V61.213C270.464 59.9083 271.501 58.8722 272.805 58.8722H298.054C299.32 58.8338 300.395 59.9083 300.395 61.213Z" fill="url(#paint5_linear)"/>
<path opacity="0.2" d="M279.252 104.996V116.085C279.252 117.39 278.216 118.426 276.911 118.426H251.662C250.357 118.426 249.321 117.39 249.321 116.085V104.996C249.321 103.691 250.357 102.655 251.662 102.655H276.873C278.177 102.655 279.252 103.729 279.252 104.996Z" fill="url(#paint6_linear)"/>
<defs>
<linearGradient id="paint0_linear" x1="145.376" y1="73.6665" x2="162.413" y2="73.6665" gradientUnits="userSpaceOnUse">
<stop stop-color="#F788A8"/>
<stop offset="1" stop-color="#FF4D7B"/>
</linearGradient>
<linearGradient id="paint1_linear" x1="164.785" y1="66.7465" x2="177.195" y2="66.7465" gradientUnits="userSpaceOnUse">
<stop stop-color="#4048C8"/>
<stop offset="1" stop-color="#2D32A4"/>
</linearGradient>
<linearGradient id="paint2_linear" x1="192.41" y1="76.5377" x2="215.639" y2="76.5377" gradientUnits="userSpaceOnUse">
<stop offset="2.2e-07" stop-color="#FFB583"/>
<stop offset="1" stop-color="#FF4F7C"/>
</linearGradient>
<linearGradient id="paint3_linear" x1="201.07" y1="63.5694" x2="215.902" y2="63.5694" gradientUnits="userSpaceOnUse">
<stop stop-color="#4048C8"/>
<stop offset="1" stop-color="#2D32A4"/>
</linearGradient>
<linearGradient id="paint4_linear" x1="288.78" y1="181.654" x2="288.78" y2="173.416" gradientUnits="userSpaceOnUse">
<stop offset="1.1e-07" stop-color="#F5F5FF"/>
<stop offset="1" stop-color="#CFCFF2"/>
</linearGradient>
<linearGradient id="paint5_linear" x1="285.411" y1="92.9192" x2="285.411" y2="84.6808" gradientUnits="userSpaceOnUse">
<stop offset="1.1e-07" stop-color="#F5F5FF"/>
<stop offset="1" stop-color="#CFCFF2"/>
</linearGradient>
<linearGradient id="paint6_linear" x1="264.273" y1="157.927" x2="264.273" y2="149.689" gradientUnits="userSpaceOnUse">
<stop offset="1.1e-07" stop-color="#F5F5FF"/>
<stop offset="1" stop-color="#CFCFF2"/>
</linearGradient>
</defs>
</svg>
