<svg width="213" height="183" viewBox="0 0 213 183" fill="none" xmlns="http://www.w3.org/2000/svg">
<path d="M191.863 29.1691C203.117 79.0492 170.411 128.923 118.811 140.566C67.2105 152.209 16.2567 121.211 5.00206 71.3311C-6.25256 21.4509 46.8322 61.8927 98.4324 50.25C150.032 38.6072 180.608 -20.711 191.863 29.1691Z" fill="#FFF8D8" fill-opacity="0.67"/>
<path d="M175.986 182.048H29.5366V2.40168C29.5366 1.06741 30.604 0 31.9382 0H173.637C174.972 0 176.039 1.06741 176.039 2.40168V182.048H175.986Z" fill="#F6F6FE"/>
<path d="M117.812 154.508C117.812 155.255 117.492 155.949 117.011 156.43C116.531 156.91 115.837 157.23 115.09 157.23H46.562C45.0676 157.23 43.8401 156.003 43.8401 154.508C43.8401 153.761 44.1603 153.067 44.6406 152.587C45.121 152.107 45.8148 151.786 46.562 151.786H115.09C116.584 151.786 117.812 153.014 117.812 154.508Z" fill="#DADAF5"/>
<path d="M161.683 141.646C161.683 142.393 161.362 143.087 160.882 143.567C160.402 144.048 159.708 144.368 158.961 144.368H46.562C45.0676 144.368 43.8401 143.14 43.8401 141.646C43.8401 140.899 44.1603 140.205 44.6406 139.725C45.121 139.244 45.8148 138.924 46.562 138.924H158.961C160.455 138.924 161.683 140.152 161.683 141.646Z" fill="#DADAF5"/>
<path d="M117.812 128.837C117.812 129.584 117.492 130.278 117.011 130.758C116.531 131.239 115.837 131.559 115.09 131.559H46.562C45.0676 131.559 43.8401 130.331 43.8401 128.837C43.8401 128.09 44.1603 127.396 44.6406 126.916C45.121 126.435 45.8148 126.115 46.562 126.115H115.09C116.584 126.115 117.812 127.289 117.812 128.837Z" fill="#DADAF5"/>
<path d="M131.154 115.975C131.154 114.48 129.927 113.253 128.433 113.253H46.5085C45.7613 113.253 45.0676 113.573 44.5872 114.053C44.0535 114.587 43.7333 115.334 43.7867 116.188C43.8934 117.629 45.2276 118.75 46.6686 118.75H128.433C129.927 118.696 131.154 117.469 131.154 115.975Z" fill="#DADAF5"/>
<path d="M158.801 113.253H140.068C138.573 113.253 137.346 114.48 137.346 115.975C137.346 117.469 138.573 118.696 140.068 118.696H158.961C159.708 118.696 160.402 118.376 160.882 117.896C161.416 117.362 161.736 116.615 161.683 115.814C161.576 114.32 160.242 113.253 158.801 113.253Z" fill="#DADAF5"/>
<path d="M25 174.202V179.806C25 181.033 26.0141 182.047 27.2417 182.047H178.281C179.508 182.047 180.522 181.033 180.522 179.806V174.202C180.522 172.974 179.508 171.96 178.281 171.96H27.2417C25.9608 171.96 25 172.974 25 174.202Z" fill="#C8C8EE"/>
<path d="M80.7724 57.5335C82.4269 54.6515 83.3876 51.2892 83.3876 47.7134C83.3876 42.2696 81.1994 37.3594 77.6236 33.7836L63.6938 47.7134L80.7724 57.5335Z" fill="#FCB3B3"/>
<path d="M60.7583 48.0335V28.9268C50.2443 28.9268 41.6517 37.4661 41.6517 48.0335C41.6517 58.5475 50.1909 67.1402 60.7583 67.1402C67.8032 67.1402 73.9942 63.2975 77.3032 57.5869L60.7583 48.0335Z" fill="url(#paint0_linear)"/>
<path d="M78.2107 31.3819C74.3146 27.4859 68.9241 25.0842 63 25.0842V46.5926L78.2107 31.3819Z" fill="#DADAF5"/>
<path d="M163.817 46.1123C163.817 46.7527 163.55 47.3398 163.123 47.8201C162.696 48.2471 162.109 48.5139 161.415 48.5139H96.4633C95.129 48.5139 94.0616 47.4465 94.0616 46.1123C94.0616 45.4718 94.3285 44.8847 94.7554 44.4044C95.1824 43.9774 95.7694 43.7106 96.4633 43.7106H161.415C162.75 43.7106 163.817 44.778 163.817 46.1123Z" fill="#DADAF5"/>
<path d="M126.191 54.3849C126.618 54.8119 126.885 55.3989 126.885 56.0927C126.885 57.427 125.817 58.4944 124.483 58.4944H96.4633C95.8228 58.4944 95.2358 58.2275 94.7554 57.8006C94.3285 57.3736 94.0616 56.7865 94.0616 56.0927C94.0616 54.7585 95.129 53.691 96.4633 53.691H124.483C125.177 53.691 125.764 53.9579 126.191 54.3849Z" fill="#DADAF5"/>
<path d="M94.062 36.1319C94.062 35.4915 94.3289 34.9044 94.7559 34.4241C95.1828 33.9971 95.7699 33.7302 96.4637 33.7302H161.416C162.75 33.7302 163.818 34.7976 163.818 36.1319C163.818 36.7724 163.551 37.3595 163.124 37.8398C162.697 38.2668 162.11 38.5336 161.416 38.5336H96.4637C95.1294 38.4802 94.062 37.4128 94.062 36.1319Z" fill="#DADAF5"/>
<defs>
<linearGradient id="paint0_linear" x1="41.6506" y1="48.0512" x2="77.2598" y2="48.0512" gradientUnits="userSpaceOnUse">
<stop stop-color="#F788A8"/>
<stop offset="1" stop-color="#FF4D7B"/>
</linearGradient>
</defs>
</svg>
