<svg width="345" height="289" viewBox="0 0 345 289" fill="none" xmlns="http://www.w3.org/2000/svg">
<path d="M105.11 205.043C90.9244 118.104 -59.3274 59.7181 30.6102 45.0432C120.548 30.3683 304.287 -7.61862 318.472 79.3211C332.658 166.261 296.548 244.37 206.61 259.045C116.672 273.72 119.296 291.983 105.11 205.043Z" fill="#FFF8D8" fill-opacity="0.67"/>
<path d="M278 60.5629V212.043C278 213.997 276.391 215.606 274.437 215.606H27.5055C25.5516 215.606 24 214.055 24 212.101V60.5629C24 58.6091 25.609 57 27.5629 57H274.437C276.391 57 278 58.6091 278 60.5629Z" fill="#D1C7FF"/>
<path d="M281 57.5629V209.043C281 210.997 279.391 212.606 277.437 212.606H30.5055C28.5516 212.606 27 211.055 27 209.101V57.5629C27 55.6091 28.609 54 30.5629 54H277.437C279.391 54 281 55.6091 281 57.5629Z" fill="#F6F6FE"/>
<path d="M71.0765 115.833C60.6751 115.833 52.2851 107.386 52.2851 97.0421C52.2851 86.6982 60.7326 78.2507 71.0765 78.2507C81.4778 78.2507 89.8678 86.6982 89.8678 97.0421C89.8678 107.386 81.4778 115.833 71.0765 115.833Z" fill="white"/>
<path d="M71.0764 123.074V97.0995H97.051C97.1085 111.409 85.4429 123.074 71.0764 123.074Z" fill="url(#paint0_linear)"/>
<path d="M71.0765 181.172C60.6751 181.172 52.2851 172.725 52.2851 162.381C52.2851 152.037 60.7326 143.59 71.0765 143.59C81.4778 143.59 89.8678 152.037 89.8678 162.381C89.8678 172.725 81.4778 181.172 71.0765 181.172Z" fill="white"/>
<path d="M71.0764 188.356V162.381H97.051C97.1085 176.747 85.4429 188.356 71.0764 188.356Z" fill="url(#paint1_linear)"/>
<path d="M255.657 81.7561C255.657 80.5493 254.681 79.5724 253.474 79.5724H134.404C133.197 79.5724 132.22 80.5493 132.22 81.7561C132.22 82.9629 133.197 83.9398 134.404 83.9398H253.474C254.681 83.9398 255.657 82.9629 255.657 81.7561Z" fill="#DADAF5"/>
<path d="M255.657 97.9041C255.657 96.6973 254.681 95.7203 253.474 95.7203H134.404C133.197 95.7203 132.22 96.6973 132.22 97.9041C132.22 99.1109 133.197 100.088 134.404 100.088H253.474C254.681 100.088 255.657 99.1109 255.657 97.9041Z" fill="#DADAF5"/>
<path d="M255.657 114.052C255.657 112.845 254.681 111.868 253.474 111.868H134.404C133.197 111.868 132.22 112.845 132.22 114.052C132.22 115.259 133.197 116.236 134.404 116.236H253.474C254.681 116.236 255.657 115.259 255.657 114.052Z" fill="#DADAF5"/>
<path d="M255.657 130.2C255.657 128.993 254.681 128.016 253.474 128.016H134.404C133.197 128.016 132.22 128.993 132.22 130.2C132.22 131.407 133.197 132.384 134.404 132.384H253.474C254.681 132.384 255.657 131.407 255.657 130.2Z" fill="#DADAF5"/>
<path d="M127.278 81.7561C127.278 83.6525 125.727 85.2041 123.83 85.2041C121.934 85.2041 120.382 83.6525 120.382 81.7561C120.382 79.8598 121.934 78.3082 123.83 78.3082C125.727 78.3082 127.278 79.8598 127.278 81.7561Z" fill="url(#paint2_linear)"/>
<path d="M127.278 97.9041C127.278 99.8005 125.727 101.352 123.83 101.352C121.934 101.352 120.382 99.8005 120.382 97.9041C120.382 96.0077 121.934 94.4561 123.83 94.4561C125.727 94.4561 127.278 96.0077 127.278 97.9041Z" fill="url(#paint3_linear)"/>
<path d="M127.278 114.052C127.278 115.948 125.727 117.5 123.83 117.5C121.934 117.5 120.382 115.948 120.382 114.052C120.382 112.156 121.934 110.604 123.83 110.604C125.727 110.604 127.278 112.156 127.278 114.052Z" fill="url(#paint4_linear)"/>
<path d="M127.278 130.2C127.278 132.096 125.727 133.648 123.83 133.648C121.934 133.648 120.382 132.096 120.382 130.2C120.382 128.304 121.934 126.752 123.83 126.752C125.727 126.752 127.278 128.304 127.278 130.2Z" fill="url(#paint5_linear)"/>
<path d="M118.658 186.229C118.314 186.229 118.026 186.057 117.854 185.77C117.509 185.252 117.624 184.563 118.141 184.218L153.023 159.565C153.368 159.335 153.828 159.278 154.23 159.508L184.629 175.771L225.086 154.048C225.66 153.761 226.35 153.933 226.637 154.508C226.924 155.083 226.752 155.772 226.177 156.06L185.147 178.069C184.802 178.242 184.4 178.242 184.055 178.069L153.77 161.864L119.463 186.114C119.176 186.172 118.888 186.287 118.658 186.229Z" fill="#DADAF5"/>
<path d="M231.579 152.727L227.442 159.91C227.097 160.542 226.292 160.485 225.948 159.91L221.81 152.784C221.523 152.21 221.925 151.52 222.557 151.462L230.89 151.405C231.464 151.405 231.924 152.152 231.579 152.727Z" fill="#DADAF5"/>
<path d="M188.997 176.92C188.824 179.104 186.928 180.655 184.744 180.483C182.561 180.31 181.009 178.414 181.182 176.23C181.354 174.047 183.25 172.495 185.434 172.667C187.56 172.84 189.169 174.736 188.997 176.92Z" fill="url(#paint6_linear)"/>
<path d="M157.218 160.657C157.046 162.841 155.149 164.392 152.966 164.22C150.782 164.048 149.23 162.151 149.403 159.967C149.575 157.784 151.472 156.232 153.655 156.405C155.781 156.634 157.391 158.531 157.218 160.657Z" fill="url(#paint7_linear)"/>
<defs>
<linearGradient id="paint0_linear" x1="71.0877" y1="110.051" x2="97.0839" y2="110.051" gradientUnits="userSpaceOnUse">
<stop offset="0.0036036" stop-color="#FCB3B3"/>
<stop offset="1" stop-color="#FC8E8E"/>
</linearGradient>
<linearGradient id="paint1_linear" x1="71.0877" y1="175.375" x2="97.0839" y2="175.375" gradientUnits="userSpaceOnUse">
<stop stop-color="#4048C8"/>
<stop offset="1" stop-color="#2D32A4"/>
</linearGradient>
<linearGradient id="paint2_linear" x1="120.437" y1="81.7599" x2="127.298" y2="81.7599" gradientUnits="userSpaceOnUse">
<stop stop-color="#F788A8"/>
<stop offset="1" stop-color="#FF4D7B"/>
</linearGradient>
<linearGradient id="paint3_linear" x1="120.437" y1="97.9025" x2="127.298" y2="97.9025" gradientUnits="userSpaceOnUse">
<stop offset="0.0036036" stop-color="#FCB3B3"/>
<stop offset="1" stop-color="#FC8E8E"/>
</linearGradient>
<linearGradient id="paint4_linear" x1="120.437" y1="114.045" x2="127.298" y2="114.045" gradientUnits="userSpaceOnUse">
<stop stop-color="#F788A8"/>
<stop offset="1" stop-color="#FF4D7B"/>
</linearGradient>
<linearGradient id="paint5_linear" x1="120.437" y1="130.188" x2="127.298" y2="130.188" gradientUnits="userSpaceOnUse">
<stop offset="0.0036036" stop-color="#FCB3B3"/>
<stop offset="1" stop-color="#FC8E8E"/>
</linearGradient>
<linearGradient id="paint6_linear" x1="181.161" y1="176.582" x2="188.998" y2="176.582" gradientUnits="userSpaceOnUse">
<stop stop-color="#4048C8"/>
<stop offset="1" stop-color="#2D32A4"/>
</linearGradient>
<linearGradient id="paint7_linear" x1="149.397" y1="160.326" x2="157.233" y2="160.326" gradientUnits="userSpaceOnUse">
<stop stop-color="#F788A8"/>
<stop offset="1" stop-color="#FF4D7B"/>
</linearGradient>
</defs>
</svg>
