<svg width="384" height="360" viewBox="0 0 384 360" fill="none" xmlns="http://www.w3.org/2000/svg">
<path d="M359.262 233.195C305.518 302.99 203.419 314.501 131.217 258.904C59.0148 203.308 44.0507 101.658 97.7939 31.8623C151.537 -37.9332 156.326 76.9319 228.528 132.528C300.73 188.125 413.005 163.399 359.262 233.195Z" fill="#FFF8D8" fill-opacity="0.67"/>
<path d="M262.408 159.336V188.464H354.082C356.495 188.464 358.461 186.499 358.461 184.086V159.336C358.461 149.596 350.598 141.733 340.858 141.733H280.099C270.36 141.733 262.408 149.596 262.408 159.336Z" fill="#DADAF5"/>
<path d="M297.612 188.464V159.336C297.612 149.596 289.75 141.733 280.01 141.733C275.989 141.733 271.969 143.074 268.216 145.665C264.552 148.167 262.408 152.366 262.408 156.923V188.464H297.612Z" fill="#EAEAFA"/>
<path d="M294.574 185.426V159.336C294.574 151.294 288.051 144.771 280.01 144.771C276.614 144.771 273.219 145.933 269.913 148.167C267.143 150.043 265.445 153.349 265.445 156.923V185.426H294.574Z" fill="#C8C8EE"/>
<path d="M218.804 188.464H306.994V185.605H218.804C218.357 185.605 218 185.962 218 186.409V187.66C218 188.107 218.357 188.464 218.804 188.464Z" fill="#DADAF5"/>
<path d="M336.48 165.143C336.48 158.978 331.477 153.885 325.222 153.885C318.968 153.885 314.053 158.71 314.053 164.071C314.053 168.36 316.376 170.505 319.057 170.505C321.023 170.505 322.274 169.7 322.899 168.718C323.793 169.7 325.043 170.505 326.92 170.505C329.511 170.505 331.566 168.628 331.566 165.68C331.566 162.016 328.707 159.246 325.758 159.246C323.882 159.246 322.81 160.14 322.095 161.123L322.006 160.676C321.827 159.872 321.38 159.425 320.665 159.425C319.95 159.425 319.236 160.05 319.414 161.033L320.397 166.573C320.486 167.02 320.487 167.467 320.487 167.645C320.487 168.718 319.772 169.432 318.521 169.432C316.734 169.432 315.125 167.645 315.125 164.161C315.125 159.425 319.504 154.957 325.311 154.957C331.119 154.957 335.587 159.604 335.587 165.233C335.587 170.951 331.209 175.508 325.133 175.508C322.631 175.508 320.844 174.972 319.057 173.9C318.968 173.811 318.878 173.811 318.789 173.811C318.521 173.811 318.342 174.079 318.342 174.257C318.342 174.436 318.431 174.615 318.61 174.615C320.486 175.776 322.631 176.402 325.222 176.402C331.566 176.312 336.48 171.309 336.48 165.143ZM322.542 164.161C322.542 162.552 323.703 161.391 325.222 161.391C327.099 161.391 328.796 163.178 328.796 165.412C328.796 167.199 327.724 168.181 326.116 168.181C324.15 168.181 322.542 166.394 322.542 164.161Z" fill="#C8C8EE"/>
<path d="M306.994 188.464H317.627V309H306.994V188.464Z" fill="#DADAF5"/>
<path d="M306.994 188.464H317.627V201.778H306.994V188.464Z" fill="#C8C8EE"/>
<path d="M302.884 156.208C302.884 157.638 304.046 158.8 305.476 158.8C306.905 158.8 308.067 157.638 308.067 156.208C308.067 154.779 306.905 153.617 305.476 153.617C304.046 153.617 302.884 154.779 302.884 156.208Z" fill="#C8C8EE"/>
<path d="M304.761 116V156.655H306.19V123.327H317.717V116H304.761Z" fill="#C8C8EE"/>
<path d="M180.847 226V225.232C182.674 225.187 184.557 225.142 186.726 225.052L186.783 225.819C184.557 225.91 182.616 225.955 180.847 226ZM174.911 225.955C172.856 225.91 170.916 225.774 169.032 225.639L169.146 224.871C171.03 225.052 172.913 225.142 174.968 225.187L174.911 225.955ZM192.605 225.548L192.548 224.781L198.427 224.464L198.484 225.232L192.605 225.548ZM221.886 225.097C220.059 224.961 218.062 224.826 216.064 224.781L216.121 224.013C218.176 224.058 220.174 224.148 222 224.329L221.886 225.097ZM204.306 224.916L204.249 224.148C206.418 224.058 208.301 224.013 210.128 223.968V224.735C208.358 224.781 206.475 224.826 204.306 224.916ZM163.153 224.916C161.155 224.6 159.272 224.193 157.388 223.742L157.674 223.019C159.443 223.471 161.384 223.877 163.324 224.193L163.153 224.916ZM151.909 222.026C150.139 221.348 148.37 220.58 146.715 219.767L147.228 219.135C148.884 219.948 150.596 220.716 152.308 221.348L151.909 222.026ZM141.92 216.967C140.436 215.974 138.952 214.89 137.639 213.761L138.381 213.219C139.694 214.348 141.121 215.432 142.605 216.38L141.92 216.967ZM133.815 210.103C132.616 208.883 131.532 207.573 130.505 206.219L131.361 205.812C132.388 207.122 133.473 208.432 134.614 209.651L133.815 210.103ZM127.765 202.064C126.909 200.663 126.167 199.173 125.539 197.728L126.452 197.457C127.08 198.902 127.822 200.347 128.678 201.747L127.765 202.064ZM123.827 193.257C123.712 192.805 123.541 192.399 123.427 191.947C123.142 190.863 122.913 189.779 122.685 188.65L123.655 188.56C123.884 189.644 124.112 190.728 124.397 191.811C124.511 192.218 124.626 192.67 124.74 193.076L123.827 193.257ZM122.114 183.998C122 182.869 122 181.65 122 180.475C122 180.069 122 179.708 122 179.301H122.97C122.97 179.708 122.97 180.069 122.97 180.475C122.97 181.65 123.027 182.779 123.084 183.953L122.114 183.998ZM123.256 174.695L122.285 174.604C122.457 173.069 122.742 171.488 123.027 169.953L123.998 170.088C123.712 171.669 123.484 173.204 123.256 174.695ZM125.139 165.572L124.169 165.391C124.626 163.901 125.082 162.365 125.653 160.875L126.566 161.101C126.11 162.591 125.596 164.126 125.139 165.572ZM128.45 156.72L127.537 156.449C127.993 155.365 128.507 154.326 129.078 153.242C129.249 152.836 129.477 152.474 129.648 152.068L130.562 152.384C130.333 152.79 130.162 153.152 129.991 153.558C129.42 154.597 128.906 155.636 128.45 156.72ZM132.902 148.139L131.989 147.823C132.788 146.468 133.701 145.022 134.614 143.622L135.47 143.984C134.614 145.384 133.701 146.784 132.902 148.139ZM138.324 139.919L137.468 139.558C138.381 138.248 139.409 136.893 140.436 135.538L141.292 135.945C140.208 137.254 139.237 138.609 138.324 139.919ZM144.374 131.97L143.575 131.564C144.66 130.254 145.687 128.944 146.772 127.68L147.571 128.131C146.486 129.351 145.402 130.661 144.374 131.97ZM150.881 124.247L150.082 123.796C151.224 122.531 152.308 121.267 153.45 120.002L154.249 120.454C153.107 121.718 152.023 122.983 150.881 124.247ZM157.616 116.615L156.817 116.163C158.13 114.673 159.158 113.453 160.071 112.279L160.927 112.686C160.014 113.905 158.929 115.124 157.616 116.615ZM163.781 108.621L162.925 108.26C163.838 106.814 164.523 105.414 165.094 104.014L166.007 104.24C165.436 105.73 164.694 107.131 163.781 108.621ZM167.32 99.6786L166.349 99.5883C166.521 98.6398 166.578 97.6914 166.578 96.6978C166.578 96.1558 166.578 95.5687 166.521 95.0268L167.491 94.9816C167.548 95.5688 167.548 96.1558 167.548 96.6978C167.548 97.6914 167.434 98.685 167.32 99.6786ZM165.55 90.5105C165.094 89.0201 164.466 87.5749 163.667 86.1748L164.58 85.8586C165.379 87.3039 166.064 88.7943 166.521 90.3298L165.55 90.5105ZM160.813 82.2004C159.728 80.9359 158.473 79.7616 157.103 78.7229L157.788 78.1809C159.215 79.2648 160.47 80.4842 161.612 81.794L160.813 82.2004ZM152.594 75.8324C150.995 75.0195 149.283 74.2969 147.457 73.7098L147.856 72.9871C149.683 73.5743 151.509 74.342 153.107 75.2001L152.594 75.8324ZM124.854 73.1226L124.511 72.4C126.338 71.8581 128.336 71.4968 130.276 71.271L130.448 72.0387C128.507 72.2645 126.623 72.6259 124.854 73.1226ZM141.977 72.3549C140.094 72.0388 138.153 71.8581 136.212 71.7678L136.269 71C138.267 71.0452 140.265 71.2709 142.205 71.5871L141.977 72.3549Z" fill="#DADAF5"/>
<path d="M58 44L169.3 70.2L162.2 77.5L58 44Z" fill="#DADAF5"/>
<path d="M58 44L191.2 111.2L172.2 77.5L58 44Z" fill="#EAEAFA"/>
<path d="M58 44L149.5 52.7L169.3 70.2L58 44Z" fill="#EAEAFA"/>
<path d="M163.8 97.2999L151.8 108.2L58 44L163.8 97.2999Z" fill="#DADAF5"/>
<path d="M163.8 97.2999L158.9 101.8L58 44L163.8 97.2999Z" fill="#C8C8EE"/>
</svg>
