<svg width="345" height="306" viewBox="0 0 345 306" fill="none" xmlns="http://www.w3.org/2000/svg">
<path d="M105.11 222.043C90.9244 135.104 -59.3274 76.7181 30.6102 62.0432C120.548 47.3683 304.287 9.38138 318.472 96.3211C332.658 183.261 296.548 261.37 206.61 276.045C116.672 290.72 119.296 308.983 105.11 222.043Z" fill="#FFF8D8" fill-opacity="0.67"/>
<path d="M277.215 106.999C276.44 107.336 269.088 108.753 264.131 128.176C259.14 147.566 261.501 163.888 251.587 169.553C241.706 175.218 217.629 177.073 216.449 180.074C215.302 183.075 215.235 184.964 223.159 185.267C230.544 185.537 269.797 188.505 296.841 178.253C300.416 176.904 303.046 173.734 303.721 169.958C306.182 156.435 311.375 123.253 304.631 114.35C296.167 103.121 288.377 102.278 277.215 106.999Z" fill="url(#paint0_linear)"/>
<path d="M303.754 169.958C303.079 173.734 300.449 176.871 296.874 178.253C269.796 188.505 230.544 185.571 223.159 185.267C215.234 184.964 215.301 183.075 216.448 180.074C216.448 180.04 216.482 180.007 216.515 179.973C217.19 180.04 217.932 180.074 218.741 180.108C226.126 180.378 265.378 183.345 292.457 173.094C296.031 171.745 298.628 168.575 299.336 164.798C301.764 151.546 306.789 119.409 300.651 109.764C302 111.046 303.349 112.563 304.698 114.35C311.408 123.219 306.215 156.435 303.754 169.958Z" fill="#C8C8EE"/>
<path d="M65.206 248.124L77.2446 155.828H72.355L60.35 248.124H65.206Z" fill="#DADAF5"/>
<path d="M84.6635 248.124L96.6684 155.828H91.8125L79.8076 248.124H84.6635Z" fill="#DADAF5"/>
<path d="M271.988 248.124L259.983 155.828H255.127L267.132 248.124H271.988Z" fill="#DADAF5"/>
<path d="M252.53 248.124L240.525 155.828H235.669L247.674 248.124H252.53Z" fill="#DADAF5"/>
<path d="M76.4691 161.797L77.2447 155.828H72.3551L71.5795 161.797H76.4691Z" fill="#C8C8EE"/>
<path d="M95.8931 161.797L96.6687 155.828H91.8128L91.0372 161.797H95.8931Z" fill="#C8C8EE"/>
<path d="M260.759 161.797L259.983 155.828H255.127L255.869 161.797H260.759Z" fill="#D1D6F2"/>
<path d="M241.301 161.797L240.525 155.828H235.67L236.445 161.797H241.301Z" fill="#D1D6F2"/>
<path d="M114.811 147.499L104.829 116.036C104.694 115.666 104.357 115.396 103.952 115.396H68.5783C67.9376 115.396 67.4992 116.036 67.7352 116.61L80.0099 149.084C80.1448 149.421 80.482 149.657 80.853 149.657H139.9V148.106H115.654C115.283 148.14 114.946 147.903 114.811 147.499Z" fill="#DADAF5"/>
<path d="M94.0044 132.762C94.9149 134.55 94.4765 136.472 93.0264 137.011C91.5764 137.551 89.6543 136.573 88.7438 134.752C87.8333 132.965 88.2717 131.043 89.7217 130.503C91.1717 129.963 93.0939 130.941 94.0044 132.762Z" fill="#C8C8EE"/>
<path d="M56 150.433V157.042C56 157.447 56.3372 157.75 56.7082 157.75H275.596C276.001 157.75 276.304 157.413 276.304 157.042V150.433C276.304 150.028 275.967 149.724 275.596 149.724H56.7082C56.3372 149.691 56 150.028 56 150.433Z" fill="#FCB3B3"/>
<path d="M56 155.356V157.042C56 157.447 56.3372 157.75 56.7082 157.75H275.596C276.001 157.75 276.304 157.413 276.304 157.042V155.356H56Z" fill="#FC8E8E"/>
<path d="M231.117 144.902L231.353 144.869C234.456 144.531 236.816 142.205 236.816 139.473C236.816 138.765 236.175 138.192 235.366 138.192H231.117V136.708H235.366C237.052 136.708 238.435 137.922 238.435 139.439C238.435 142.98 235.433 145.948 231.421 146.319L231.151 146.352V144.902H231.117Z" fill="#F49758"/>
<path d="M231.117 149.691H226.092C225.89 149.691 225.722 149.59 225.62 149.421C223.361 145.678 222.214 140.822 222.518 135.662C222.552 135.359 222.788 135.123 223.091 135.123H234.186C234.489 135.123 234.725 135.359 234.759 135.662C235.062 140.822 233.882 145.678 231.657 149.421C231.488 149.59 231.319 149.691 231.117 149.691Z" fill="#FFA668"/>
<path d="M227.408 133.875C227.947 133.437 228.318 132.83 228.284 132.257C228.284 131.683 227.913 131.144 227.644 130.469C227.374 129.829 227.172 129.019 227.374 128.277C227.61 127.536 228.082 126.996 228.622 126.558C228.318 127.198 227.981 127.805 227.913 128.412C227.846 129.019 228.015 129.593 228.284 130.233C228.419 130.537 228.554 130.84 228.689 131.177C228.824 131.515 228.891 131.919 228.824 132.324C228.723 133.1 228.082 133.707 227.408 133.875Z" fill="url(#paint1_linear)"/>
<path d="M229.667 124.029C230.004 124.501 230.308 125.04 230.375 125.681C230.409 126.018 230.375 126.322 230.274 126.659C230.173 126.996 229.903 127.3 229.701 127.502C229.465 127.704 229.296 127.839 229.229 128.041C229.128 128.244 229.094 128.48 229.06 128.716C229.06 129.222 229.262 129.761 229.431 130.335C229.026 129.896 228.622 129.424 228.521 128.75C228.453 128.412 228.487 128.075 228.622 127.738C228.757 127.401 229.06 127.131 229.262 126.962C229.667 126.659 229.802 126.22 229.869 125.681C229.869 125.175 229.735 124.602 229.667 124.029Z" fill="url(#paint2_linear)"/>
<path d="M94.5779 54.663C94.679 56.9898 96.5675 58.8445 98.928 58.8445C101.255 58.8445 103.177 56.9898 103.278 54.663H94.5779Z" fill="#FFB583"/>
<path d="M99.6697 0H98.186V34.902H99.6697V0Z" fill="#4F5CD3"/>
<path d="M100.479 39.8253H97.3766C97.3429 39.8253 97.3092 39.7916 97.3092 39.7579V33.3508C97.3092 33.317 97.3429 33.2833 97.3766 33.2833H100.479C100.513 33.2833 100.546 33.317 100.546 33.3508V39.7242C100.546 39.7916 100.513 39.8253 100.479 39.8253Z" fill="#4F5CD3"/>
<path d="M100.681 36.9928H97.1068C96.7696 36.9928 96.4324 37.1614 96.2301 37.4649L84.4949 53.2129C83.8542 54.056 84.3938 55.3711 85.3717 55.3711H112.383C113.361 55.3711 113.9 54.0897 113.26 53.2129L101.524 37.4649C101.356 37.1614 101.019 36.9928 100.681 36.9928Z" fill="url(#paint3_linear)"/>
<g opacity="0.3">
<path opacity="0.3" d="M219.449 30.5182V50.6501C219.449 51.7629 220.36 52.7071 221.506 52.7071H223.159V59.0131L233.174 52.7071H257.285C258.432 52.7071 259.376 51.7292 259.376 50.6501V30.5182C259.376 29.3717 258.432 28.4612 257.285 28.4612H221.54C220.394 28.4612 219.449 29.3717 219.449 30.5182Z" fill="#EAEAFA"/>
</g>
<g opacity="0.3">
<path opacity="0.3" d="M150.657 53.7862V61.8456C150.657 62.284 150.286 62.6887 149.814 62.6887H149.14V65.2178L145.127 62.6887H135.482C135.01 62.6887 134.639 62.3178 134.639 61.8456V53.7862C134.639 53.3141 135.01 52.9431 135.482 52.9431H149.814C150.286 52.9431 150.657 53.3141 150.657 53.7862Z" fill="#EAEAFA"/>
</g>
<defs>
<linearGradient id="paint0_linear" x1="294.801" y1="152.377" x2="197.913" y2="133.609" gradientUnits="userSpaceOnUse">
<stop offset="1.1e-07" stop-color="#F5F5FF"/>
<stop offset="1" stop-color="#CFCFF2"/>
</linearGradient>
<linearGradient id="paint1_linear" x1="227.263" y1="130.197" x2="228.843" y2="130.197" gradientUnits="userSpaceOnUse">
<stop offset="1.1e-07" stop-color="#F5F5FF"/>
<stop offset="1" stop-color="#CFCFF2"/>
</linearGradient>
<linearGradient id="paint2_linear" x1="228.464" y1="127.187" x2="230.397" y2="127.187" gradientUnits="userSpaceOnUse">
<stop offset="1.1e-07" stop-color="#F5F5FF"/>
<stop offset="1" stop-color="#CFCFF2"/>
</linearGradient>
<linearGradient id="paint3_linear" x1="84.2457" y1="46.1651" x2="113.567" y2="46.1651" gradientUnits="userSpaceOnUse">
<stop offset="1.1e-07" stop-color="#F5F5FF"/>
<stop offset="1" stop-color="#CFCFF2"/>
</linearGradient>
</defs>
</svg>
