<svg width="256" height="197" viewBox="0 0 256 197" fill="none" xmlns="http://www.w3.org/2000/svg">
<path d="M247.244 93.2018C229.335 150.526 166.744 181.977 107.444 163.451C48.1433 144.924 14.5887 83.4355 32.4976 26.1116C50.4065 -31.2123 80.5703 41.1301 139.871 59.6566C199.171 78.183 265.153 35.878 247.244 93.2018Z" fill="#FFF8D8" fill-opacity="0.67"/>
<path d="M236.7 61.7V136C236.7 145.2 229.2 152.7 220 152.7H38.7C29.4 152.7 22 145.2 22 136V61.7C22 52.5 29.5 45 38.7 45H220C229.2 45 236.7 52.5 236.7 61.7Z" fill="#F6F6FE"/>
<path d="M71.8997 102.8L91.3997 128.3C87.5998 130.9 83.1996 132.7 78.4996 133.6C59.3996 137.3 40.9997 124.8 37.2997 105.7C34.7997 93 39.5996 80.5 48.6996 72.5L71.8997 102.8Z" fill="#FCB3B3"/>
<path d="M72.7002 95L53.2002 69.5C57.0002 66.9 61.4003 65.1 66.1003 64.2C75.1003 62.5 84.0003 64.3 91.3003 68.9L72.7002 95Z" fill="#C8C8EE"/>
<path d="M109.3 90.2C111.8 102.9 107 115.4 97.9001 123.4L77.5 96.8L96.9001 69.5C103.1 74.6 107.7 81.7 109.3 90.2Z" fill="#FB688F"/>
<path d="M222 83.5998C222 85.0998 221.4 86.4998 220.4 87.4998C219.4 88.4998 218 89.0998 216.5 89.0998H130.3C127.2 89.0998 124.8 86.5998 124.8 83.5998C124.8 82.0998 125.4 80.6998 126.4 79.6998C127.4 78.6998 128.8 78.0998 130.3 78.0998H216.5C219.5 77.9998 222 80.4998 222 83.5998Z" fill="#DADAF5"/>
<path d="M180.8 114.2C180.8 115.7 180.2 117.1 179.2 118.1C178.2 119.1 176.8 119.7 175.3 119.7H130.3C127.2 119.7 124.8 117.2 124.8 114.2C124.8 112.7 125.4 111.3 126.4 110.3C127.4 109.3 128.8 108.7 130.3 108.7H175.3C178.3 108.7 180.8 111.2 180.8 114.2Z" fill="#DADAF5"/>
</svg>
