<svg width="366" height="269" viewBox="0 0 366 269" fill="none" xmlns="http://www.w3.org/2000/svg">
<path d="M330.525 40.1908C349.913 126.12 293.569 212.039 204.677 232.096C115.785 252.153 28.0056 198.753 8.61711 112.824C-10.7714 26.8946 80.6785 96.5642 169.571 76.5071C258.463 56.4501 311.136 -45.7384 330.525 40.1908Z" fill="#FFF8D8" fill-opacity="0.67"/>
<path d="M178.4 3.93079L107.274 45.6824L105.521 42.7608L178.4 0L251.227 42.7608L249.527 45.6824L178.4 3.93079Z" fill="#EAEAFA"/>
<path d="M307.639 46.426V47.2228H49.1087V46.426C49.1087 39.8393 54.4737 34.4742 61.0605 34.4742H295.634C302.274 34.4742 307.639 39.8393 307.639 46.426Z" fill="#FCB3B3"/>
<path opacity="0.5" d="M49.6399 42.92C49.2681 44.0355 49.1087 45.2042 49.1087 46.4791V47.2758H307.639V46.4791C307.639 45.2573 307.427 44.0355 307.108 42.92H49.6399Z" fill="#FC8E8E"/>
<path d="M313.801 50.4099C313.801 51.2598 313.429 52.0565 312.898 52.6409C312.313 53.2252 311.517 53.5438 310.667 53.5438H46.134C44.3811 53.5438 43 52.1097 43 50.4099C43 49.56 43.3719 48.7632 43.9031 48.1788C44.4874 47.5945 45.2841 47.2758 46.134 47.2758H310.667C312.367 47.2227 313.801 48.657 313.801 50.4099Z" fill="#FC8E8E"/>
<path d="M313.801 234.202C313.801 235.052 313.429 235.848 312.898 236.433C312.313 237.017 311.517 237.336 310.667 237.336H46.134C44.3811 237.336 43 235.902 43 234.202C43 233.352 43.3719 232.555 43.9031 231.971C44.4874 231.386 45.2841 231.068 46.134 231.068H310.667C312.367 231.068 313.801 232.449 313.801 234.202Z" fill="#FC8E8E"/>
<path d="M305.514 53.5438H51.2335V231.068H305.514V53.5438Z" fill="#EAEAFA"/>
<path d="M305.514 60.3431H51.2335V224.215H305.514V60.3431Z" fill="#F6F6FE"/>
<path d="M177.55 142.041H176.169H166.501H165.12H155.453H154.072H144.351H142.97H133.302H131.921H122.253H120.872H111.205H109.823H100.156H98.7746H89.107H87.7259H77.952H76.5709H65.5222V153.089V154.47V164.138V165.519V175.187V176.568V186.236V187.617V197.284V198.665V209.714H76.5709H77.952H87.6197H89.0008H98.6684H100.05H109.717H111.098H120.766H122.147H131.815H133.196H142.863H144.245H153.912H155.293H164.961H166.342H176.01H177.391H188.44V198.665V197.284V187.617V186.236V176.568V175.187V165.519V164.138V154.47V153.089V142.041H177.55ZM166.501 143.422H176.169V153.089H166.501V143.422ZM176.169 164.191H166.501V154.523H176.169V164.191ZM176.169 175.293H166.501V165.625H176.169V175.293ZM176.169 186.342H166.501V176.674H176.169V186.342ZM176.169 197.444H166.501V187.776H176.169V197.444ZM77.952 187.723H87.6197V197.391H77.952V187.723ZM77.952 176.674H87.6197V186.342H77.952V176.674ZM77.952 165.572H87.6197V175.24H77.952V165.572ZM77.952 154.523H87.6197V164.191H77.952V154.523ZM165.12 164.191H155.453V154.523H165.12V164.191ZM165.12 175.293H155.453V165.625H165.12V175.293ZM165.12 186.342H155.453V176.674H165.12V186.342ZM89.0008 176.674H98.6684V186.342H89.0008V176.674ZM89.0008 165.572H98.6684V175.24H89.0008V165.572ZM154.072 175.293H144.351V165.625H154.018V175.293H154.072ZM142.97 175.293H133.302V165.625H142.97V175.293ZM131.921 175.293H122.253V165.625H131.921V175.293ZM120.819 175.293H111.151V165.625H120.819V175.293ZM109.77 175.293H100.103V165.625H109.77V175.293ZM100.05 176.674H109.717V186.342H100.05V176.674ZM111.151 176.674H120.819V186.342H111.151V176.674ZM122.2 176.674H131.868V186.342H122.2V176.674ZM133.302 176.674H142.97V186.342H133.302V176.674ZM144.351 176.674H154.018V186.342H144.351V176.674ZM154.072 164.191H144.351V154.523H154.018V164.191H154.072ZM142.97 164.191H133.302V154.523H142.97V164.191ZM131.921 164.191H122.253V154.523H131.921V164.191ZM120.819 164.191H111.151V154.523H120.819V164.191ZM109.77 164.191H100.103V154.523H109.77V164.191ZM98.6684 164.191H89.0008V154.523H98.6684V164.191ZM89.0008 187.723H98.6684V197.391H89.0008V187.723ZM100.05 187.723H109.717V197.391H100.05V187.723ZM111.151 187.723H120.819V197.391H111.151V187.723ZM122.2 187.723H131.868V197.391H122.2V187.723ZM133.302 187.723H142.97V197.391H133.302V187.723ZM144.351 187.723H154.018V197.391H144.351V187.723ZM155.453 187.723H165.12V197.391H155.453V187.723ZM155.453 143.422H165.12V153.089H155.453V143.422ZM144.351 143.422H154.018V153.089H144.351V143.422ZM133.302 143.422H142.97V153.089H133.302V143.422ZM122.2 143.422H131.868V153.089H122.2V143.422ZM111.151 143.422H120.819V153.089H111.151V143.422ZM100.05 143.422H109.717V153.089H100.05V143.422ZM89.0008 143.422H98.6684V153.089H89.0008V143.422ZM77.952 143.422H87.6197V153.089H77.952V143.422ZM66.8501 143.422H76.5178V153.089H66.8501V143.422ZM66.8501 154.523H76.5178V164.191H66.8501V154.523ZM66.8501 165.572H76.5178V175.24H66.8501V165.572ZM66.8501 176.674H76.5178V186.342H66.8501V176.674ZM66.8501 187.723H76.5178V197.391H66.8501V187.723ZM76.5178 208.492H66.8501V198.825H76.5178V208.492ZM87.6197 208.492H77.952V198.825H87.6197V208.492ZM98.6684 208.492H89.0008V198.825H98.6684V208.492ZM109.77 208.492H100.103V198.825H109.77V208.492ZM120.819 208.492H111.151V198.825H120.819V208.492ZM131.921 208.492H122.253V198.825H131.921V208.492ZM142.97 208.492H133.302V198.825H142.97V208.492ZM154.072 208.492H144.351V198.825H154.018V208.492H154.072ZM165.12 208.492H155.453V198.825H165.12V208.492ZM176.169 208.492H166.501V198.825H176.169V208.492ZM187.271 208.492H177.603V198.825H187.271V208.492ZM187.271 197.444H177.603V187.776H187.271V197.444ZM187.271 186.342H177.603V176.674H187.271V186.342ZM187.271 175.293H177.603V165.625H187.271V175.293ZM187.271 164.191H177.603V154.523H187.271V164.191ZM177.55 153.142V143.475H187.218V153.142H177.55Z" fill="#EAEAFA"/>
<path d="M154.125 187.404L131.921 165.2L121.138 176.94L98.7216 155.48L77.2084 176.94L66.3721 166.05L67.3283 165.094L77.2084 174.974L98.6685 153.567L121.085 174.974L131.868 163.182L153.965 185.279L176.328 154.099L177.497 154.895L154.125 187.404Z" fill="url(#paint0_linear)"/>
<path d="M87.6197 199.144L77.1553 188.042L66.4253 198.612L65.4691 197.656L77.1553 186.076L87.6197 197.178L110.408 174.974L121.244 186.076L143.82 163.182L153.912 174.124L165.227 154.152L166.448 154.842L154.178 176.462L143.767 165.201L121.244 188.042L110.408 176.94L87.6197 199.144Z" fill="url(#paint1_linear)"/>
<path d="M291.278 210.352H200.126V141.615H291.278V210.352ZM202.994 207.483H288.463V144.431H202.994V207.483Z" fill="#EAEAFA"/>
<path d="M252.661 189.635H250.855V204.402H252.661V189.635Z" fill="#4F5CD3"/>
<path d="M258.451 175.134H256.645V204.402H258.451V175.134Z" fill="#4F5CD3"/>
<path d="M264.294 155.692H262.488V204.402H264.294V155.692Z" fill="#4F5CD3"/>
<path d="M270.084 147.512H268.278V204.402H270.084V147.512Z" fill="#4F5CD3"/>
<path d="M275.927 163.819H274.121V204.402H275.927V163.819Z" fill="#4F5CD3"/>
<path d="M281.77 176.833H279.964V204.402H281.77V176.833Z" fill="#4F5CD3"/>
<path d="M211.494 189.635H209.688V204.402H211.494V189.635Z" fill="#F49758"/>
<path d="M217.284 175.134H215.478V204.402H217.284V175.134Z" fill="#F49758"/>
<path d="M223.127 155.692H221.321V204.402H223.127V155.692Z" fill="#F49758"/>
<path d="M228.97 147.512H227.164V204.402H228.97V147.512Z" fill="#F49758"/>
<path d="M234.76 163.819H232.954V204.402H234.76V163.819Z" fill="#F49758"/>
<path d="M240.603 176.834H238.797V204.402H240.603V176.834Z" fill="#F49758"/>
<path d="M102.971 109.16C93.6225 109.16 86.0796 101.617 86.0796 92.2677C86.0796 82.9187 93.6225 75.3759 102.971 75.3759C112.32 75.3759 119.863 82.9187 119.863 92.2677C119.863 101.617 112.32 109.16 102.971 109.16Z" fill="#FED8D8"/>
<path d="M102.971 115.64V92.2677H126.344C126.344 105.176 115.879 115.587 102.971 115.64Z" fill="#FF4F7C"/>
<path d="M268.862 78.5099C268.862 77.4476 267.959 76.5446 266.897 76.5446H159.915C158.853 76.5446 157.95 77.4476 157.95 78.5099C157.95 79.5723 158.853 80.4754 159.915 80.4754H266.897C268.012 80.4754 268.862 79.5723 268.862 78.5099Z" fill="#DADAF5"/>
<path d="M268.862 93.0114C268.862 91.949 267.959 91.046 266.897 91.046H159.915C158.853 91.046 157.95 91.949 157.95 93.0114C157.95 94.0738 158.853 94.9768 159.915 94.9768H266.897C268.012 94.9768 268.862 94.0738 268.862 93.0114Z" fill="#DADAF5"/>
<path d="M268.862 107.513C268.862 106.451 267.959 105.547 266.897 105.547H159.915C158.853 105.547 157.95 106.451 157.95 107.513C157.95 108.575 158.853 109.478 159.915 109.478H266.897C268.012 109.478 268.862 108.628 268.862 107.513Z" fill="#DADAF5"/>
<path d="M268.862 122.014C268.862 120.952 267.959 120.049 266.897 120.049H159.915C158.853 120.049 157.95 120.952 157.95 122.014C157.95 123.077 158.853 123.98 159.915 123.98H266.897C268.012 123.98 268.862 123.13 268.862 122.014Z" fill="#DADAF5"/>
<path d="M153.541 78.5099C153.541 80.2098 152.16 81.5909 150.46 81.5909C148.76 81.5909 147.379 80.2098 147.379 78.5099C147.379 76.8101 148.76 75.4291 150.46 75.4291C152.16 75.4291 153.541 76.8101 153.541 78.5099Z" fill="url(#paint2_linear)"/>
<path d="M153.541 93.0115C153.541 94.7113 152.16 96.0924 150.46 96.0924C148.76 96.0924 147.379 94.7113 147.379 93.0115C147.379 91.3117 148.76 89.9305 150.46 89.9305C152.16 89.9305 153.541 91.3117 153.541 93.0115Z" fill="url(#paint3_linear)"/>
<path d="M153.541 107.513C153.541 109.213 152.16 110.594 150.46 110.594C148.76 110.594 147.379 109.213 147.379 107.513C147.379 105.813 148.76 104.432 150.46 104.432C152.16 104.432 153.541 105.813 153.541 107.513Z" fill="url(#paint4_linear)"/>
<path d="M153.541 122.014C153.541 123.714 152.16 125.095 150.46 125.095C148.76 125.095 147.379 123.714 147.379 122.014C147.379 120.315 148.76 118.934 150.46 118.934C152.16 118.934 153.541 120.315 153.541 122.014Z" fill="url(#paint5_linear)"/>
<defs>
<linearGradient id="paint0_linear" x1="66.3648" y1="170.481" x2="177.479" y2="170.481" gradientUnits="userSpaceOnUse">
<stop stop-color="#F788A8"/>
<stop offset="1" stop-color="#FF4D7B"/>
</linearGradient>
<linearGradient id="paint1_linear" x1="65.4761" y1="176.648" x2="166.442" y2="176.648" gradientUnits="userSpaceOnUse">
<stop offset="0.0036036" stop-color="#FCB3B3"/>
<stop offset="1" stop-color="#FC8E8E"/>
</linearGradient>
<linearGradient id="paint2_linear" x1="147.349" y1="78.5007" x2="153.516" y2="78.5007" gradientUnits="userSpaceOnUse">
<stop stop-color="#F788A8"/>
<stop offset="1" stop-color="#FF4D7B"/>
</linearGradient>
<linearGradient id="paint3_linear" x1="147.349" y1="93.0109" x2="153.516" y2="93.0109" gradientUnits="userSpaceOnUse">
<stop offset="0.0036036" stop-color="#FCB3B3"/>
<stop offset="1" stop-color="#FC8E8E"/>
</linearGradient>
<linearGradient id="paint4_linear" x1="147.349" y1="107.521" x2="153.516" y2="107.521" gradientUnits="userSpaceOnUse">
<stop stop-color="#F788A8"/>
<stop offset="1" stop-color="#FF4D7B"/>
</linearGradient>
<linearGradient id="paint5_linear" x1="147.349" y1="122.031" x2="153.516" y2="122.031" gradientUnits="userSpaceOnUse">
<stop offset="0.0036036" stop-color="#FCB3B3"/>
<stop offset="1" stop-color="#FC8E8E"/>
</linearGradient>
</defs>
</svg>
