<svg width="383" height="359" viewBox="0 0 383 359" fill="none" xmlns="http://www.w3.org/2000/svg">
<path d="M358.778 232.353C305.035 302.148 202.936 313.659 130.734 258.062C58.5314 202.466 43.5673 100.816 97.3105 31.0203C151.054 -38.7753 155.842 76.0898 228.044 131.686C300.247 187.283 412.521 162.557 358.778 232.353Z" fill="#FFF8D8" fill-opacity="0.67"/>
<path d="M283.909 61.2256H151.548C148.766 61.2256 146.457 63.4823 146.457 66.3164V235.573C146.457 238.355 148.714 240.664 151.548 240.664H283.909C286.691 240.664 289 238.407 289 235.573V66.3164C289 63.4823 286.743 61.2256 283.909 61.2256Z" fill="url(#paint0_linear)"/>
<path d="M273.36 53.1433H140.999C138.217 53.1433 135.908 55.4001 135.908 58.2341V227.491C135.908 230.272 138.165 232.582 140.999 232.582H273.36C276.142 232.582 278.451 230.325 278.451 227.491V58.2341C278.451 55.4001 276.194 53.1433 273.36 53.1433Z" fill="#C8C8EE"/>
<path d="M275.04 62.8001H140.999V236.518H275.04V62.8001Z" fill="#DADAF5"/>
<path d="M265.459 55.6772L131.445 58.2808L134.819 231.964L268.833 229.36L265.459 55.6772Z" fill="#EAEAFA"/>
<path d="M225.668 45L94 70.1326L126.572 240.776L258.24 215.643L225.668 45Z" fill="#F6F6FE"/>
<path d="M214.842 70.3052C213.635 64.4796 207.967 60.6484 202.089 61.698C196.106 62.8002 192.117 68.5208 193.167 74.5563C194.269 80.5393 199.99 84.528 205.973 83.4783C212.008 82.3762 215.997 76.6556 214.895 70.6726C214.895 70.5676 214.895 70.4102 214.842 70.3052Z" fill="white"/>
<path d="M215.787 70.1477L215.84 70.5676C217.047 77.2329 212.586 83.6882 205.868 84.8953L203.611 72.3519L215.787 70.1477Z" fill="url(#paint1_linear)"/>
<path d="M192.012 76.5506L191.855 76.1832C189.545 69.8328 192.852 62.6952 199.255 60.3859L203.611 72.3519L192.012 76.5506Z" fill="url(#paint2_linear)"/>
<path d="M164.984 93.8174L106.518 104.314L107.095 107.358L165.561 96.8089L164.984 93.8174Z" fill="#BBC2E9"/>
<path d="M228.802 95.7593L228.225 92.7678L108.302 114.391L108.879 117.382L228.802 95.7593Z" fill="#BBC2E9"/>
<path d="M230.587 105.836L230.01 102.792L110.139 124.415L110.716 127.406L230.587 105.836Z" fill="#BBC2E9"/>
<path d="M232.424 115.86L231.847 112.869L111.924 134.439L112.501 137.483L232.424 115.86Z" fill="#BBC2E9"/>
<path d="M234.208 125.884L233.631 122.893L113.761 144.516L114.285 147.507L234.208 125.884Z" fill="#BBC2E9"/>
<path d="M236.045 135.961L235.468 132.969L115.545 154.54L116.122 157.531L236.045 135.961Z" fill="#BBC2E9"/>
<path d="M237.83 145.985L237.252 142.994L117.329 164.564L117.907 167.608L237.83 145.985Z" fill="#BBC2E9"/>
<path d="M141.092 210.37L139.801 210.603L142.769 227.08L144.06 226.847L141.092 210.37Z" fill="#BBC2E9"/>
<path d="M156.204 201.595L154.913 201.827L158.942 224.193L160.234 223.961L156.204 201.595Z" fill="#BBC2E9"/>
<path d="M171.265 192.829L169.974 193.061L175.054 221.264L176.346 221.031L171.265 192.829Z" fill="#BBC2E9"/>
<path d="M186.378 184.053L185.087 184.286L191.228 218.377L192.519 218.144L186.378 184.053Z" fill="#BBC2E9"/>
<path d="M201.429 175.236L200.138 175.468L207.331 215.396L208.622 215.164L201.429 175.236Z" fill="#BBC2E9"/>
<path d="M216.542 166.46L215.251 166.693L223.504 212.509L224.796 212.277L216.542 166.46Z" fill="#BBC2E9"/>
<path d="M231.602 157.694L230.311 157.927L239.626 209.632L240.917 209.399L231.602 157.694Z" fill="#BBC2E9"/>
<path d="M166.768 217.571C166.453 217.624 166.138 217.676 165.876 217.729C161.835 218.254 157.846 217.467 153.91 216.732L153.595 216.679C149.344 215.84 145.513 215.262 141.786 215.892C137.588 216.627 134.176 219.251 133.074 222.505C132.969 222.872 132.602 223.03 132.234 222.925C131.867 222.82 131.71 222.452 131.815 222.085C133.337 217.624 137.85 215.262 141.524 214.633C145.513 213.898 149.449 214.58 153.805 215.42L154.12 215.472C157.898 216.207 161.835 216.942 165.666 216.469C173.223 215.472 179.364 209.752 184.875 203.664L185.714 202.719C190.91 196.946 196.316 191.015 203.716 188.654C207.495 187.447 211.588 187.289 215.524 187.132C221.035 186.922 226.283 186.712 230.639 183.878C234.103 181.621 236.78 177.685 238.197 172.751C239.509 168.238 239.614 165.404 239.771 160.628C239.771 160.26 240.086 159.998 240.454 159.998C240.821 159.998 241.084 160.313 241.084 160.68C240.874 165.351 240.769 168.448 239.457 173.119C237.935 178.367 235.1 182.618 231.374 185.032C226.703 188.076 221.035 188.286 215.577 188.496C211.693 188.654 207.705 188.811 204.136 189.966C197.051 192.222 191.802 198.048 186.711 203.664L185.872 204.608C180.414 210.486 174.326 216.207 166.768 217.571Z" fill="#CA467E"/>
<path d="M222.505 187.394C222.767 188.968 221.717 190.491 220.143 190.753C218.568 191.015 217.046 189.966 216.784 188.391C216.522 186.817 217.571 185.295 219.146 185.032C220.72 184.717 222.242 185.767 222.505 187.394Z" fill="#212785"/>
<path d="M206.707 188.864C206.97 190.438 205.92 191.96 204.346 192.223C202.771 192.485 201.249 191.435 200.987 189.861C200.724 188.286 201.774 186.764 203.348 186.502C204.923 186.187 206.445 187.237 206.707 188.864Z" fill="#212785"/>
<path d="M191.151 202.76C192.061 201.451 191.737 199.652 190.427 198.742C189.118 197.832 187.319 198.156 186.41 199.466C185.5 200.775 185.824 202.574 187.133 203.484C188.443 204.393 190.241 204.069 191.151 202.76Z" fill="#212785"/>
<path d="M177.37 214.37C177.632 215.945 176.582 217.467 175.008 217.729C173.433 217.991 171.911 216.942 171.649 215.367C171.387 213.793 172.436 212.271 174.011 212.008C175.585 211.746 177.107 212.796 177.37 214.37Z" fill="#212785"/>
<path d="M161.258 217.257C161.52 218.831 160.47 220.353 158.896 220.615C157.321 220.878 155.799 219.828 155.537 218.254C155.274 216.679 156.324 215.157 157.899 214.895C159.473 214.633 160.943 215.682 161.258 217.257Z" fill="#212785"/>
<path d="M144.201 215.262C144.463 216.837 143.413 218.359 141.839 218.621C140.264 218.884 138.742 217.834 138.48 216.259C138.218 214.685 139.267 213.163 140.842 212.901C142.416 212.638 143.938 213.688 144.201 215.262Z" fill="#212785"/>
<defs>
<linearGradient id="paint0_linear" x1="146.453" y1="150.932" x2="289.001" y2="150.932" gradientUnits="userSpaceOnUse">
<stop offset="2.2e-07" stop-color="#FFB583"/>
<stop offset="1" stop-color="#FF4F7C"/>
</linearGradient>
<linearGradient id="paint1_linear" x1="192.147" y1="61.841" x2="228" y2="91.861" gradientUnits="userSpaceOnUse">
<stop stop-color="#E4E8FD"/>
<stop offset="0.9928" stop-color="#BBC2E9"/>
</linearGradient>
<linearGradient id="paint2_linear" x1="190.339" y1="64.0004" x2="226.191" y2="94.0204" gradientUnits="userSpaceOnUse">
<stop stop-color="#E4E8FD"/>
<stop offset="0.9928" stop-color="#BBC2E9"/>
</linearGradient>
</defs>
</svg>
