<svg width="440" height="193" viewBox="0 0 440 193" fill="none" xmlns="http://www.w3.org/2000/svg">
<path d="M406.431 193H59.2361C58.6069 193 58.0675 192.461 58.0675 191.831C58.0675 191.202 58.6069 190.663 59.2361 190.663H406.431C407.06 190.663 407.599 191.202 407.599 191.831C407.599 192.506 407.06 193 406.431 193Z" fill="#C5CCED"/>
<path d="M438.456 59.8856C436.555 176.358 340.78 188.725 220.292 186.759C99.8032 184.793 0.227324 169.238 2.12794 52.7656C4.02855 -63.7068 99.8033 54.3591 220.292 56.3253C340.78 58.2914 440.356 -56.5867 438.456 59.8856Z" fill="#FFF8D8" fill-opacity="0.67"/>
<path d="M343.284 19.4253H122.428V191.876H343.284V19.4253Z" fill="#EAEAFA"/>
<path d="M122.428 5.80711V19.3803H343.284V5.80711C343.284 3.1554 341.126 0.953125 338.43 0.953125H127.237C124.585 0.998069 122.428 3.1554 122.428 5.80711Z" fill="#C8C8EE"/>
<path d="M326.16 14.8409C328.493 14.8409 330.385 12.9494 330.385 10.6161C330.385 8.28284 328.493 6.39136 326.16 6.39136C323.827 6.39136 321.935 8.28284 321.935 10.6161C321.935 12.9494 323.827 14.8409 326.16 14.8409Z" fill="white"/>
<path d="M313.755 14.8409C316.088 14.8409 317.98 12.9494 317.98 10.6161C317.98 8.28284 316.088 6.39136 313.755 6.39136C311.422 6.39136 309.53 8.28284 309.53 10.6161C309.53 12.9494 311.422 14.8409 313.755 14.8409Z" fill="white"/>
<path d="M301.306 14.8409C303.639 14.8409 305.531 12.9494 305.531 10.6161C305.531 8.28284 303.639 6.39136 301.306 6.39136C298.973 6.39136 297.081 8.28284 297.081 10.6161C297.081 12.9494 298.973 14.8409 301.306 14.8409Z" fill="white"/>
<path d="M380.677 154.842H380.498L380.542 153.314H380.677C382.026 153.314 383.419 153 384.632 152.415L385.307 153.809C383.913 154.483 382.295 154.842 380.677 154.842ZM375.733 153.629C374.25 152.865 372.992 151.741 372.003 150.393L373.262 149.494C374.115 150.663 375.194 151.606 376.453 152.281L375.733 153.629ZM389.172 150.663L387.958 149.719C388.812 148.595 389.397 147.292 389.711 145.854L391.239 146.123C390.88 147.831 390.206 149.314 389.172 150.663ZM370.115 145.809C370.026 145.269 369.981 144.685 369.981 144.146C369.981 143.472 370.026 142.797 370.16 142.123C370.25 141.719 370.34 141.314 370.475 140.91L371.958 141.359C371.868 141.719 371.778 142.033 371.688 142.393C371.599 142.977 371.509 143.561 371.509 144.146C371.509 144.64 371.554 145.09 371.644 145.584L370.115 145.809ZM389.846 143.741C389.801 142.303 389.397 140.91 388.722 139.651L390.071 138.887C390.88 140.325 391.329 141.988 391.419 143.651L389.846 143.741ZM374.115 137.719L372.992 136.64C374.16 135.471 375.599 134.528 377.172 133.988L377.666 135.426C376.363 135.921 375.104 136.73 374.115 137.719ZM385.846 136.55C384.812 135.831 383.644 135.382 382.43 135.112C382.25 135.067 382.071 135.067 381.936 135.022L382.16 133.494C382.34 133.539 382.565 133.539 382.745 133.584C384.183 133.853 385.531 134.438 386.745 135.247L385.846 136.55Z" fill="#DADAF5"/>
<path d="M85.5284 154.842H85.3486L85.3936 153.314H85.5284C86.8767 153.314 88.27 153 89.4835 152.415L90.1576 153.809C88.7194 154.483 87.1464 154.842 85.5284 154.842ZM80.5845 153.629C79.1014 152.865 77.8429 151.741 76.8542 150.393L78.1126 149.494C78.9665 150.663 80.0452 151.606 81.3036 152.281L80.5845 153.629ZM94.0228 150.663L92.8094 149.719C93.6633 148.595 94.2476 147.292 94.5622 145.854L96.0903 146.123C95.7307 147.831 95.0566 149.314 94.0228 150.663ZM74.9665 145.809C74.8766 145.269 74.8317 144.685 74.8317 144.146C74.8317 143.472 74.8766 142.797 75.0114 142.123C75.1013 141.719 75.1912 141.314 75.326 140.91L76.8092 141.359C76.7193 141.719 76.6294 142.033 76.5395 142.393C76.4497 142.977 76.3598 143.561 76.3598 144.146C76.3598 144.64 76.4047 145.09 76.4946 145.584L74.9665 145.809ZM94.697 143.741C94.6521 142.303 94.2476 140.91 93.5734 139.651L94.9217 138.887C95.7307 140.325 96.1802 141.988 96.2701 143.651L94.697 143.741ZM78.9665 137.719L77.8429 136.64C79.0115 135.471 80.4497 134.528 82.0227 133.988L82.5171 135.426C81.1688 135.921 79.9553 136.73 78.9665 137.719ZM90.697 136.55C89.6632 135.831 88.4947 135.382 87.2812 135.112C87.1014 135.067 86.9217 135.067 86.7868 135.022L87.0116 133.494C87.1913 133.539 87.4161 133.539 87.5958 133.584C89.0341 133.853 90.3823 134.438 91.5958 135.247L90.697 136.55Z" fill="#DADAF5"/>
<path d="M392.048 87.7855C391.734 87.7855 391.419 87.7855 391.105 87.7855L391.149 86.2574C392.633 86.3024 394.161 86.2125 395.599 85.9878L395.869 87.5159C394.61 87.6956 393.352 87.7855 392.048 87.7855ZM386.385 87.1114C384.812 86.7518 383.329 86.1675 381.891 85.4934L382.565 84.1001C383.913 84.7293 385.307 85.2237 386.79 85.5833L386.385 87.1114ZM400.498 86.2574L399.959 84.8192C401.352 84.2799 402.7 83.6057 403.959 82.7967L404.813 84.1001C403.419 84.954 401.981 85.6731 400.498 86.2574ZM377.801 83.0214C376.543 82.0776 375.374 80.954 374.295 79.7854L375.464 78.7517C376.453 79.8753 377.531 80.909 378.745 81.8079L377.801 83.0214ZM408.498 81.1338L407.419 80.0102C408.498 78.9764 409.442 77.8079 410.296 76.5944L411.554 77.4483C410.655 78.7517 409.622 80.0102 408.498 81.1338ZM371.554 75.8753C370.745 74.482 370.116 72.9989 369.621 71.5157L371.104 71.0213C371.554 72.4146 372.183 73.8078 372.902 75.1112L371.554 75.8753ZM413.846 73.2685L412.408 72.6842C412.992 71.291 413.397 69.8528 413.667 68.4145C413.936 67.0213 414.071 65.628 414.071 64.2347V64.0999H415.599V64.2347C415.599 65.7628 415.464 67.246 415.15 68.7292C414.88 70.2573 414.431 71.7854 413.846 73.2685ZM368.587 66.8415C368.498 65.9875 368.453 65.0887 368.453 64.2347C368.453 63.5156 368.498 62.7965 368.543 62.0324L370.071 62.1673C370.026 62.8415 369.981 63.5156 369.981 64.1898C369.981 64.9988 370.026 65.8078 370.116 66.6168L368.587 66.8415ZM413.622 59.6055C413.307 58.1672 412.858 56.729 412.273 55.3807L413.667 54.7515C414.296 56.1897 414.79 57.7178 415.15 59.2909L413.622 59.6055ZM370.925 57.8077L369.441 57.3582C369.891 55.8301 370.52 54.347 371.284 52.9537L372.632 53.6728C371.958 55.0212 371.374 56.3695 370.925 57.8077ZM410.026 51.4705C409.172 50.257 408.183 49.1334 407.105 48.0997L408.183 46.9761C409.352 48.0548 410.386 49.2683 411.329 50.5717L410.026 51.4705ZM375.194 50.0323L374.026 49.0436C375.059 47.8301 376.228 46.7065 377.441 45.7177L378.385 46.9312C377.217 47.8301 376.138 48.8638 375.194 50.0323ZM403.554 45.4031C402.296 44.639 400.947 43.9649 399.509 43.4705L400.048 42.0322C401.532 42.5716 403.015 43.2457 404.363 44.0997L403.554 45.4031ZM382.161 44.5042L381.486 43.1109C382.925 42.3918 384.408 41.8075 385.936 41.403L386.34 42.8862C384.902 43.2907 383.509 43.83 382.161 44.5042ZM395.194 42.3918C393.711 42.1671 392.228 42.1221 390.745 42.212L390.655 40.6839C392.228 40.594 393.846 40.639 395.419 40.9086L395.194 42.3918Z" fill="#DADAF5"/>
<path d="M75.5957 87.7855C75.2811 87.7855 74.9665 87.7855 74.6519 87.7855L74.6969 86.2574C76.18 86.3024 77.7081 86.2125 79.1464 85.9878L79.416 87.5159C78.1576 87.6956 76.8991 87.7855 75.5957 87.7855ZM69.9328 87.1114C68.3597 86.7518 66.8766 86.1675 65.4383 85.4934L66.1125 84.1001C67.4608 84.7293 68.8541 85.2237 70.3373 85.5833L69.9328 87.1114ZM84.0453 86.2574L83.506 84.8192C84.8992 84.2799 86.2475 83.6057 87.506 82.7967L88.3599 84.1001C86.9667 84.954 85.5285 85.6731 84.0453 86.2574ZM61.3484 83.0214C60.09 82.0776 58.9214 80.954 57.8428 79.7854L59.0113 78.7517C60.0001 79.8753 61.0788 80.909 62.2922 81.8079L61.3484 83.0214ZM92.0453 81.1338L90.9667 80.0102C92.0454 78.9764 92.9892 77.8079 93.8431 76.5944L95.1016 77.4483C94.2027 78.7517 93.1689 80.0102 92.0453 81.1338ZM55.1012 75.8753C54.2922 74.482 53.663 72.9989 53.1686 71.5157L54.6517 71.0213C55.1012 72.4146 55.7304 73.8078 56.4495 75.1112L55.1012 75.8753ZM97.3937 73.2685L95.9555 72.6842C96.5398 71.291 96.9443 69.8528 97.2139 68.4145C97.4836 67.0213 97.6184 65.628 97.6184 64.2347V64.0999H99.1466V64.2347C99.1466 65.7179 99.0117 67.246 98.6971 68.7292C98.4274 70.2573 97.978 71.7854 97.3937 73.2685ZM52.1349 66.8415C52.045 65.9875 52 65.0887 52 64.2347C52 63.5156 52.0449 62.7965 52.0899 62.0324L53.618 62.1673C53.5731 62.8415 53.5281 63.5156 53.5281 64.1898C53.5281 64.9988 53.5731 65.8078 53.6629 66.6168L52.1349 66.8415ZM97.1241 59.6055C96.8094 58.1672 96.36 56.729 95.7757 55.3807L97.169 54.7515C97.7982 56.1897 98.2926 57.7178 98.6522 59.2909L97.1241 59.6055ZM54.4719 57.8077L52.9888 57.3582C53.4382 55.8301 54.0675 54.347 54.8315 52.9537L56.1798 53.6728C55.5057 55.0212 54.9214 56.3695 54.4719 57.8077ZM93.5735 51.4705C92.7195 50.257 91.7307 49.1334 90.6521 48.0997L91.7307 46.9761C92.8993 48.0548 93.933 49.2683 94.8768 50.5717L93.5735 51.4705ZM58.7416 50.0323L57.5731 49.0436C58.6068 47.8301 59.7754 46.7065 60.9889 45.7177L61.9327 46.9312C60.7641 47.8301 59.6855 48.8638 58.7416 50.0323ZM87.1015 45.4031C85.843 44.639 84.4947 43.9649 83.0565 43.4705L83.5958 42.0322C85.079 42.5716 86.5622 43.2457 87.9105 44.0997L87.1015 45.4031ZM65.708 44.5042L65.0338 43.1109C66.4721 42.3918 67.9552 41.8075 69.4833 41.403L69.8878 42.8862C68.4496 43.2907 67.0563 43.83 65.708 44.5042ZM78.7418 42.3918C77.2587 42.1671 75.7306 42.1221 74.2924 42.212L74.2025 40.6839C75.7755 40.594 77.3935 40.639 78.9666 40.9086L78.7418 42.3918Z" fill="#DADAF5"/>
<path d="M92.7338 69.9242C95.888 60.4576 90.7708 50.2265 81.3043 47.0723C71.8377 43.9181 61.6066 49.0353 58.4524 58.5019C55.2982 67.9684 60.4154 78.1996 69.8819 81.3537C79.3485 84.5079 89.5796 79.3908 92.7338 69.9242Z" fill="#FED8D8"/>
<path d="M314.385 76.9539H294.16V175.292H314.385V76.9539Z" fill="white"/>
<path d="M278.699 100.55H258.474V175.337H278.699V100.55Z" fill="white"/>
<path d="M242.968 121.719H222.743V175.337H242.968V121.719Z" fill="white"/>
<path d="M207.237 142.887H187.012V175.292H207.237V142.887Z" fill="white"/>
<path d="M171.507 156.55H151.282V175.292H171.507V156.55Z" fill="white"/>
<path d="M308.272 33.0433L304.946 55.875C304.632 58.0772 301.935 58.9761 300.362 57.4031L291.778 48.8187C285.665 55.2008 279.328 61.3582 272.856 67.3358C246.744 91.336 192.001 134.752 156.54 135.067C155.552 135.112 154.608 135.112 153.664 135.157C185.754 127.921 238.249 85.9427 268.586 62.302C275.463 56.9536 282.294 51.5603 289.171 46.212L280.856 37.8973C279.283 36.3242 280.182 33.6276 282.384 33.3129L305.216 29.9871C307.014 29.7174 308.542 31.2455 308.272 33.0433Z" fill="#C8C8EE"/>
</svg>
