<svg width="298" height="326" viewBox="0 0 298 326" fill="none" xmlns="http://www.w3.org/2000/svg">
<path d="M269.763 251.713C221.914 258.531 138.825 261.64 131.771 212.141C124.718 162.642 157.789 116.988 205.638 110.169C253.487 103.351 249.938 112.588 256.991 162.087C264.045 211.586 317.612 244.895 269.763 251.713Z" fill="#FFF8D8" fill-opacity="0.67"/>
<path d="M223.739 300.127C223.99 301.074 224.14 302.07 224.14 303.066C224.14 313.778 209.13 322.396 190.605 322.396C186.338 322.396 182.221 321.948 178.456 321.101C172.934 323.642 164.149 325.286 154.309 325.286C137.592 325.286 124.037 320.603 124.037 314.824C124.037 314.375 124.137 313.977 124.288 313.529H124.087C116.758 313.529 110.533 311.337 108.274 308.298C97.7813 306.554 90 300.575 90 293.401C90 285.63 99.187 279.203 111.085 278.157C113.695 273.075 120.021 269.239 127.802 268.193C132.772 263.51 142.16 260.371 152.903 260.371C159.781 260.371 166.106 261.666 171.076 263.809C175.344 261.716 181.82 260.371 189.099 260.371C191.81 260.371 194.37 260.57 196.83 260.919C200.294 258.079 205.264 256.286 210.736 256.286C221.279 256.286 229.813 262.862 229.813 270.983C229.813 272.328 229.562 273.623 229.11 274.869C235.034 277.36 239 281.744 239 286.676C239 293.053 232.574 298.383 223.739 300.127Z" fill="#FFA668"/>
<path d="M223.739 300.127C223.99 301.074 224.14 302.07 224.14 303.066C224.14 313.778 209.13 322.396 190.605 322.396C186.338 322.396 182.221 321.948 178.456 321.101C172.934 323.642 164.149 325.286 154.309 325.286C137.592 325.286 124.037 320.603 124.037 314.824C124.037 314.375 124.137 313.977 124.288 313.529H124.087C116.758 313.529 110.533 311.337 108.274 308.298C97.7813 306.554 90 300.575 90 293.401C90 285.63 99.187 279.203 111.085 278.157C113.695 273.075 120.021 269.239 127.802 268.193C132.772 263.51 142.16 260.371 152.903 260.371C159.781 260.371 166.106 261.666 171.076 263.809C175.344 261.716 181.82 260.371 189.099 260.371C191.81 260.371 194.37 260.57 196.83 260.919C200.294 258.079 205.264 256.286 210.736 256.286C221.279 256.286 229.813 262.862 229.813 270.983C229.813 272.328 229.562 273.623 229.11 274.869C235.034 277.36 239 281.744 239 286.676C239 293.053 232.574 298.383 223.739 300.127Z" fill="#FFA668"/>
<path d="M223.828 300.199C224.08 301.143 224.23 302.137 224.23 303.13C224.23 313.811 209.21 322.405 190.673 322.405C186.403 322.405 182.283 321.958 178.516 321.113C172.99 323.647 164.198 325.286 154.352 325.286C137.624 325.286 124.06 320.616 124.06 314.854C124.06 314.407 124.16 314.009 124.311 313.562H124.11C116.776 313.562 110.546 311.377 108.286 308.346C97.7866 306.608 90 300.647 90 293.493C90 290.761 91.1554 288.128 93.2151 285.893C92.0094 287.681 91.3061 289.668 91.3061 291.755C91.3061 298.759 98.942 304.621 109.24 306.359C111.451 309.34 117.58 311.476 124.763 311.476H124.964C124.813 311.873 124.713 312.321 124.713 312.718C124.713 318.381 138.026 322.951 154.453 322.951C164.148 322.951 172.789 321.362 178.214 318.878C181.932 319.722 185.951 320.169 190.17 320.169C208.356 320.169 223.125 311.675 223.125 301.243C223.125 300.249 222.974 299.305 222.723 298.361C231.364 296.623 237.694 291.407 237.694 285.197C237.694 283.061 236.94 281.074 235.634 279.286C237.794 281.472 239 284.055 239 286.787C239.05 293.145 232.62 298.461 223.828 300.199Z" fill="#F49758"/>
<path d="M225 281.286L225.929 283.766L226 284.286L225.071 281.846L225 281.286Z" fill="#F49758"/>
<path d="M204.35 286.772L205 289.286L204.65 288.799L204 286.286L204.35 286.772Z" fill="#F49758"/>
<path d="M226.2 282.286L227 284.766L226.8 285.286L226 282.846L226.2 282.286Z" fill="#F49758"/>
<path d="M204.435 287.841L205 291.286L204.522 290.675L204 287.286L204.435 287.841Z" fill="#F49758"/>
<path d="M226.35 283.286L227 286.593L226.6 287.286L226 283.979L226.35 283.286Z" fill="#F49758"/>
<path d="M204.538 288.793L205 292.286L204.462 291.779L204 288.286L204.538 288.793Z" fill="#F49758"/>
<path d="M226.458 284.286L227 287.593L226.542 288.286L226 284.979L226.458 284.286Z" fill="#F49758"/>
<path d="M205.567 289.639L206 293.286L205.433 292.933L205 289.286L205.567 289.639Z" fill="#F49758"/>
<path d="M226 285.286L226.812 288.593L227 289.286L226.187 285.979L226 285.286Z" fill="#F49758"/>
<path d="M226.037 285.286L227 288.637L225.963 289.286L225 285.934L226.037 285.286Z" fill="#F49758"/>
<path d="M206.594 290.528L207 294.286L206.406 294.043L206 290.286L206.594 290.528Z" fill="#F49758"/>
<path d="M225.133 286.286L226 289.593L225.867 290.286L225 286.979L225.133 286.286Z" fill="#F49758"/>
<path d="M225.133 287.286L226 289.834L224.867 290.286L224 287.738L225.133 287.286Z" fill="#F49758"/>
<path d="M207.429 290.889L208 294.286L207.619 293.683L207 290.286L207.429 290.889Z" fill="#F49758"/>
<path d="M208.212 291.381L209 294.286L207.727 294.238L207 291.286L208.212 291.381Z" fill="#F49758"/>
<path d="M224.278 287.286L225 290.593L224.722 291.286L224 288.033L224.278 287.286Z" fill="#F49758"/>
<path d="M224.188 288.286L225 290.9L223.75 291.286L223 288.629L224.188 288.286Z" fill="#F49758"/>
<path d="M208.52 291.793L209 295.286L208.52 294.723L208 291.286L208.52 291.793Z" fill="#F49758"/>
<path d="M210.235 291.286L211 295.222L209.706 295.286L209 291.349L210.235 291.286Z" fill="#F49758"/>
<path d="M223.455 288.286L224 291.549L223.591 292.286L223 289.023L223.455 288.286Z" fill="#F49758"/>
<path d="M222.235 289.286L223 292.021L221.765 292.286L221 289.595L222.235 289.286Z" fill="#F49758"/>
<path d="M210.552 291.692L211 295.286L210.448 294.88L210 291.286L210.552 291.692Z" fill="#F49758"/>
<path d="M211.629 292.286L212 295.147L211.371 295.286L211 292.424L211.629 292.286Z" fill="#F49758"/>
<path d="M221.5 289.286L222 292.583L221.5 293.286L221 289.935L221.5 289.286Z" fill="#F49758"/>
<path d="M220.618 290.286L221 293.062L220.353 293.286L220 290.51L220.618 290.286Z" fill="#F49758"/>
<path d="M212.581 292.51L213 295.286L212.419 295.062L212 292.286L212.581 292.51Z" fill="#F49758"/>
<path d="M213.618 292.286L214 295.062L213.382 295.286L213 292.51L213.618 292.286Z" fill="#F49758"/>
<path d="M219.294 291.286L220 294.192L218.706 294.286L218 291.38L219.294 291.286Z" fill="#F49758"/>
<path d="M219.571 290.286L220 293.683L219.429 294.286L219 290.889L219.571 290.286Z" fill="#F49758"/>
<path d="M215.606 291.286L216 294.822L215.364 295.286L215 291.692L215.606 291.286Z" fill="#F49758"/>
<path d="M214.636 292.38L215 295.286L214.394 295.192L214 292.286L214.636 292.38Z" fill="#F49758"/>
<path d="M217.613 291.286L218 294.73L217.419 295.286L217 291.841L217.613 291.286Z" fill="#F49758"/>
<path d="M217.235 291.286L218 295.286L216.765 295.221L216 291.286H217.235Z" fill="#F49758"/>
<path d="M222.544 279.289L222.982 279.841L223.907 280.042L224.15 280.644L224.929 280.945L224.978 281.648L225.659 282.049L225.513 282.752L226 283.254L225.659 283.906L225.951 284.508L225.416 285.16L225.562 285.813L224.881 286.415L224.783 287.067L223.956 287.619L223.712 288.322L222.788 288.723L222.301 289.426L221.279 289.777L220.646 290.379L219.624 290.63L218.845 291.182L217.774 291.282L216.85 291.784H215.827L214.854 292.135L213.832 292.035L212.81 292.286L211.934 292.035L210.863 292.185L210.084 291.834L209.062 291.884L208.429 291.433L207.456 291.332L207.018 290.781L206.093 290.58L205.85 289.927L205.022 289.626V288.974L204.341 288.522L204.487 287.87L204 287.368L204.341 286.666L204 286.064L204.535 285.411L204.438 284.809L205.119 284.207L205.168 283.505L205.996 282.953L206.288 282.3L207.212 281.849L207.65 281.196L208.673 280.845L209.305 280.193L210.376 279.992L211.155 279.39L212.226 279.289L213.102 278.838H214.173L215.146 278.436L216.119 278.587L217.19 278.286L218.066 278.537L219.137 278.386L219.867 278.738H220.938L221.522 279.189L222.544 279.289Z" fill="#FFB583"/>
<path d="M220.496 279.89C216.554 278.418 210.909 279.726 207.892 282.834C206.14 284.633 205.605 286.596 206.286 288.286C206.286 286.977 206.919 285.614 208.184 284.306C211.25 281.198 216.895 279.89 220.788 281.362C222.443 281.962 223.513 282.998 224 284.197C224 282.343 222.783 280.762 220.496 279.89Z" fill="#F49758"/>
<path d="M220.736 281.837C216.731 280.495 210.995 281.688 207.929 284.521C206.643 285.714 206 286.957 206 288.15C206.495 289.244 207.582 290.188 209.264 290.735C213.269 292.077 219.005 290.884 222.071 288.051C223.357 286.858 224 285.615 224 284.422C223.505 283.328 222.418 282.433 220.736 281.837Z" fill="#F49758"/>
<path d="M218.81 282.286L219 283.254L218.143 284.286L218 283.318L218.81 282.286Z" fill="#F49758"/>
<path d="M215.091 285.286L215 284.205C215 284.061 215.03 283.917 215.091 283.7C215.182 283.484 215.273 283.412 215.424 283.34C215.576 283.268 215.727 283.268 215.909 283.34L216 284.421C215.818 284.349 215.636 284.349 215.515 284.421C215.364 284.493 215.273 284.637 215.182 284.781C215.091 284.998 215.061 285.142 215.091 285.286Z" fill="#F49758"/>
<path d="M216.903 284.286L217 285.036L216.129 286.286L216 285.536L216.903 284.286Z" fill="#F49758"/>
<path d="M213.103 285.036L213 284.286C213.034 284.486 213.103 284.686 213.241 284.836C213.414 285.036 213.621 285.286 213.897 285.536L214 286.286C213.724 286.036 213.517 285.786 213.345 285.586C213.207 285.436 213.138 285.236 213.103 285.036Z" fill="#F49758"/>
<path d="M218.769 284.831L219 285.286C218.538 285.043 218 284.862 217.231 284.74L217 284.286C217.769 284.407 218.308 284.589 218.769 284.831Z" fill="#F49758"/>
<path d="M219.818 284.286L220 284.786L218.182 285.286L218 284.753L219.818 284.286Z" fill="#F49758"/>
<path d="M214.88 286.286L215 287.175L214.12 288.286L214 287.397L214.88 286.286Z" fill="#F49758"/>
<path d="M211.786 287.604L212 288.286C211.286 288.104 210.714 287.922 210.214 287.65C209.714 287.422 209.429 287.195 209.214 286.968L209 286.286C209.143 286.513 209.5 286.74 210 286.968C210.5 287.24 211.071 287.422 211.786 287.604Z" fill="#F49758"/>
<path d="M216.874 286.286L217 287.172C217 287.467 216.874 287.821 216.579 288.234C216.2 288.707 215.737 289.002 215.105 289.179C214.474 289.356 213.842 289.297 213.126 289.12L213 288.234C213.716 288.47 214.389 288.47 214.979 288.293C215.611 288.116 216.074 287.821 216.453 287.349C216.747 286.935 216.874 286.581 216.874 286.286Z" fill="#F49758"/>
<path d="M212.857 288.286L213 289.254L212.143 290.286L212 289.318L212.857 288.286Z" fill="#F49758"/>
<path d="M217.343 286.92C217.343 287.162 217.198 287.451 216.86 287.789C216.425 288.175 215.894 288.417 215.169 288.562C214.444 288.707 213.72 288.707 212.899 288.513L212.029 289.286L211.014 288.948L211.884 288.176C211.401 287.982 211.015 287.789 210.676 287.5C210.338 287.258 210.145 287.017 210 286.776L211.498 286.1C211.594 286.293 211.787 286.534 212.029 286.727C212.271 286.92 212.56 287.113 212.899 287.258L214.203 286.1C213.816 285.858 213.527 285.617 213.285 285.424C213.092 285.231 212.947 284.989 212.947 284.7C212.947 284.458 213.092 284.169 213.43 283.831C213.865 283.444 214.444 283.155 215.121 283.01C215.845 282.865 216.618 282.865 217.44 283.058L218.309 282.286L219.324 282.624L218.454 283.396C219.227 283.734 219.758 284.072 220 284.507L218.551 285.182C218.261 284.796 217.923 284.507 217.44 284.313L216.135 285.52C216.522 285.762 216.812 285.955 217.053 286.196C217.246 286.389 217.343 286.631 217.343 286.92ZM215.314 285.038L216.425 284.024C216.135 283.976 215.845 283.976 215.652 284.024C215.411 284.072 215.266 284.169 215.121 284.265C214.976 284.362 214.928 284.507 214.976 284.603C215.024 284.796 215.121 284.893 215.314 285.038ZM214.638 287.548C214.831 287.5 215.024 287.403 215.169 287.307C215.314 287.21 215.362 287.065 215.314 286.969C215.266 286.872 215.169 286.727 214.976 286.582L213.913 287.548C214.155 287.596 214.396 287.596 214.638 287.548Z" fill="#FFB583"/>
<path d="M211.87 289.604L212 290.286L211.13 289.968L211 289.286L211.87 289.604Z" fill="#F49758"/>
<path d="M217.83 291.398L217.234 292.719L218.227 291.691L219.27 294.286L219.17 291.496L220.461 292.034L219.418 291.104L222 290.076L219.22 290.125L219.766 288.852L218.823 289.88L217.78 287.286L217.879 290.076L216.589 289.538L217.582 290.468L215 291.496L217.83 291.398Z" fill="white"/>
<path d="M207.81 269.447L207.268 270.719L208.204 269.692L209.239 272.286L209.141 269.496L210.423 270.083L209.387 269.104L212 268.076L209.19 268.174L209.732 266.901L208.796 267.88L207.761 265.286L207.859 268.076L206.577 267.538L207.613 268.468L205 269.496L207.81 269.447Z" fill="white"/>
<path d="M173.044 300.256L173.394 300.878L174.296 301.241L174.447 301.916L175.248 302.33L175.198 303.056L175.8 303.575L175.549 304.249L176 304.871L175.549 305.493L175.8 306.115L175.148 306.738L175.198 307.412L174.397 307.93L174.246 308.604L173.294 309.019L172.943 309.693L171.941 310.004L171.39 310.575L170.288 310.782L169.586 311.353L168.434 311.404L167.582 311.871L166.479 311.819L165.477 312.182L164.425 312.027L163.373 312.286L162.37 312.027L161.268 312.13L160.416 311.715L159.314 311.767L158.612 311.249L157.51 311.145L156.959 310.575L155.956 310.315L155.606 309.693L154.654 309.33L154.503 308.708L153.752 308.241L153.802 307.567L153.15 306.997L153.401 306.323L153 305.753L153.451 305.078L153.2 304.456L153.802 303.886V303.212L154.553 302.693L154.754 302.019L155.656 301.552L156.007 300.93L157.059 300.619L157.61 299.997L158.712 299.79L159.414 299.219L160.516 299.167L161.418 298.701L162.521 298.753L163.473 298.39L164.525 298.545L165.627 298.286L166.58 298.597L167.682 298.441L168.534 298.856H169.686L170.388 299.323L171.49 299.427L171.991 299.997L173.044 300.256Z" fill="#FFB583"/>
<path d="M170.926 300.533C167.064 298.564 161.069 298.978 157.512 301.414C155.479 302.813 154.666 304.627 155.124 306.286C155.276 305.042 156.089 303.85 157.613 302.813C161.17 300.377 167.166 299.963 171.028 301.932C172.654 302.762 173.67 303.902 173.975 305.094C174.178 303.384 173.162 301.673 170.926 300.533Z" fill="#F49758"/>
<path d="M171.03 302.407C167.137 300.636 161.094 301.009 157.509 303.199C156.024 304.131 155.205 305.203 155 306.322C155.307 307.394 156.332 308.419 157.97 309.165C161.863 310.935 167.906 310.563 171.491 308.372C172.976 307.44 173.795 306.368 174 305.25C173.642 304.178 172.668 303.153 171.03 302.407Z" fill="#F49758"/>
<path d="M185.25 276.286L186 279.602L185.75 280.286L185 276.97L185.25 276.286Z" fill="#F49758"/>
<path d="M163.692 280.732L164 283.286L163.308 282.84L163 280.286L163.692 280.732Z" fill="#F49758"/>
<path d="M163.813 281.732L164 284.286L163.25 283.84L163 281.286L163.813 281.732Z" fill="#F49758"/>
<path d="M185.75 280.286L186 283.646L185.25 284.286L185 280.926L185.75 280.286Z" fill="#F49758"/>
<path d="M164.789 282.624L165 285.286L164.158 284.948L164 282.286L164.789 282.624Z" fill="#F49758"/>
<path d="M185 280.286L185.8 283.602L186 284.286L185.2 280.97L185 280.286Z" fill="#F49758"/>
<path d="M185.8 281.286L186 284.786L185.2 285.286L185 281.841L185.8 281.286Z" fill="#F49758"/>
<path d="M165.864 283.586L166 286.286L165.182 285.986L165 283.286L165.864 283.586Z" fill="#F49758"/>
<path d="M184.864 282.286L185 285.835L184.182 286.286L184 282.737L184.864 282.286Z" fill="#F49758"/>
<path d="M166.833 284.506L167 287.286L166.125 287.065L166 284.286L166.833 284.506Z" fill="#F49758"/>
<path d="M183.636 283.286L184 285.806L183.364 286.286L183 283.766L183.636 283.286Z" fill="#F49758"/>
<path d="M182.833 283.286L183 286.938L182.125 287.286L182 283.634L182.833 283.286Z" fill="#F49758"/>
<path d="M167.733 284.88L168 288.286L167.267 287.691L167 284.286L167.733 284.88Z" fill="#F49758"/>
<path d="M168.84 285.378L169 288.286L168.16 288.194L168 285.286L168.84 285.378Z" fill="#F49758"/>
<path d="M181.84 284.286L182 288.047L181.16 288.286L181 284.525L181.84 284.286Z" fill="#F49758"/>
<path d="M169.789 285.661L170 288.286L169.211 287.911L169 285.286L169.789 285.661Z" fill="#F49758"/>
<path d="M170.846 285.286L171 288.286H170.154L170 285.286H170.846Z" fill="#F49758"/>
<path d="M180.789 284.286L181 287.691L180.211 288.286L180 284.881L180.789 284.286Z" fill="#F49758"/>
<path d="M179.846 285.286L180 288.239L179.154 288.286L179 285.333L179.846 285.286Z" fill="#F49758"/>
<path d="M171.81 285.737L172 289.286L171.19 288.835L171 285.286L171.81 285.737Z" fill="#F49758"/>
<path d="M172.846 286.286L173 289.15L172.154 289.286L172 286.422L172.846 286.286Z" fill="#F49758"/>
<path d="M177.846 285.348L178 289.286L177.154 289.223L177 285.286L177.846 285.348Z" fill="#F49758"/>
<path d="M178.81 285.286L179 288.786L178.19 289.286L178 285.786L178.81 285.286Z" fill="#F49758"/>
<path d="M174.84 286.286L175 289.065L174.16 289.286L174 286.506L174.84 286.286Z" fill="#F49758"/>
<path d="M173.833 286.547L174 289.286L173.167 289.025L173 286.286L173.833 286.547Z" fill="#F49758"/>
<path d="M176.833 285.286L177 288.886L176.167 289.286L176 285.686L176.833 285.286Z" fill="#F49758"/>
<path d="M175.84 286.422L176 289.286L175.16 289.15L175 286.286L175.84 286.422Z" fill="#F49758"/>
<path d="M183 274.256L183.4 274.878L184.3 275.242L184.45 275.916L185.25 276.33L185.2 277.004L185.8 277.575L185.55 278.249L186 278.819L185.55 279.493L185.75 280.116L185.15 280.738L185.2 281.412L184.4 281.93L184.25 282.604L183.3 283.019L182.95 283.642L181.95 283.953L181.35 284.575L180.3 284.782L179.55 285.353L178.45 285.404L177.6 285.871L176.5 285.819L175.5 286.182L174.45 286.027L173.4 286.286L172.4 285.975L171.3 286.13L170.45 285.716H169.35L168.6 285.249L167.55 285.145L167 284.575L166 284.316L165.65 283.693L164.7 283.33L164.55 282.656L163.8 282.242L163.85 281.567L163.2 280.997L163.45 280.323L163 279.753L163.45 279.079L163.25 278.456L163.85 277.834L163.8 277.16L164.6 276.642L164.75 275.967L165.7 275.553L166.05 274.93L167.1 274.567L167.65 273.997L168.7 273.79L169.45 273.219L170.55 273.167L171.4 272.701L172.5 272.753L173.5 272.39L174.55 272.545L175.6 272.286L176.6 272.597L177.7 272.441L178.55 272.856H179.65L180.4 273.323L181.45 273.427L182 273.997L183 274.256Z" fill="#FFB583"/>
<path d="M180.926 275.355C177.064 273.667 171.069 274.022 167.512 276.11C165.479 277.309 164.666 278.864 165.124 280.286C165.276 279.22 166.089 278.198 167.613 277.309C171.17 275.222 177.166 274.866 181.028 276.554C182.654 277.265 183.67 278.242 183.975 279.264C184.178 277.798 183.162 276.332 180.926 275.355Z" fill="#F49758"/>
<path d="M181.186 276.532C177.499 274.564 171.774 274.978 168.377 277.412C166.97 278.448 166.194 279.639 166 280.881C166.291 282.072 167.261 283.211 168.814 284.04C172.501 286.008 178.226 285.593 181.623 283.16C183.03 282.124 183.806 280.933 184 279.69C183.66 278.5 182.739 277.36 181.186 276.532Z" fill="#F49758"/>
<path d="M178.95 277.286L179 277.838L178.05 278.286L178 277.769L178.95 277.286Z" fill="#F49758"/>
<path d="M175.03 279.286L175 278.67C175 278.594 175.03 278.517 175.121 278.44C175.212 278.363 175.333 278.324 175.485 278.286C175.636 278.286 175.788 278.286 175.97 278.363L176 278.978C175.818 278.901 175.667 278.901 175.515 278.901C175.364 278.901 175.242 278.978 175.152 279.055C175.061 279.132 175.03 279.209 175.03 279.286Z" fill="#F49758"/>
<path d="M176.969 278.286L177 279.119L176.031 280.286L176 279.397L176.969 278.286Z" fill="#F49758"/>
<path d="M172.087 279.013L172 278.286C172 278.468 172.174 278.65 172.435 278.831C172.783 279.059 173.217 279.286 173.913 279.559L174 280.286C173.391 280.013 172.87 279.786 172.522 279.559C172.261 279.377 172.174 279.195 172.087 279.013Z" fill="#F49758"/>
<path d="M177.955 279.421L178 280.286C177.773 279.853 177.5 279.475 177.045 279.151L177 278.286C177.455 278.61 177.773 278.989 177.955 279.421Z" fill="#F49758"/>
<path d="M179.939 279.286L180 279.901L178.061 280.286L178 279.671L179.939 279.286Z" fill="#F49758"/>
<path d="M174.833 280.67L175 281.286C175 281.286 175 281.286 175 281.247C174.833 281.132 174.667 281.055 174.167 280.901L174 280.286C174.5 280.44 174.833 280.517 174.833 280.67C174.833 280.632 174.833 280.632 174.833 280.67Z" fill="#F49758"/>
<path d="M173.962 280.286L174 281.256L173.038 282.286L173 281.316L173.962 280.286Z" fill="#F49758"/>
<path d="M170.943 281.646L171 282.286C170.486 282.086 170.029 281.846 169.686 281.606C169.343 281.366 169.114 281.126 169.057 280.926L169 280.286C169.114 280.486 169.286 280.726 169.629 280.966C170.029 281.206 170.429 281.446 170.943 281.646Z" fill="#F49758"/>
<path d="M176.949 281.286L177 282.027C176.949 282.258 176.745 282.536 176.337 282.768C175.827 283.092 175.214 283.231 174.449 283.277C173.684 283.323 172.918 283.184 172.051 282.907L172 282.166C172.816 282.444 173.633 282.583 174.398 282.536C175.163 282.49 175.776 282.305 176.286 282.027C176.694 281.795 176.898 281.517 176.949 281.286Z" fill="#F49758"/>
<path d="M171.952 282.286L172 282.819L171.048 283.286L171 282.753L171.952 282.286Z" fill="#F49758"/>
<path d="M176.835 280.689C176.783 280.931 176.575 281.221 176.16 281.463C175.642 281.802 175.019 281.947 174.241 281.996C173.462 282.044 172.684 281.899 171.802 281.609L170.764 282.286L169.726 281.802L170.764 281.173C170.297 280.931 169.882 280.641 169.571 280.35C169.259 280.06 169.052 279.77 169 279.528L170.712 279.092C170.816 279.334 170.972 279.576 171.179 279.77C171.387 280.012 171.698 280.205 172.009 280.399L173.566 279.431C173.203 279.141 172.892 278.899 172.684 278.657C172.476 278.415 172.373 278.173 172.425 277.883C172.476 277.641 172.684 277.35 173.099 277.108C173.618 276.77 174.241 276.576 175.019 276.576C175.797 276.528 176.627 276.673 177.458 276.963L178.495 276.286L179.533 276.77L178.495 277.399C179.274 277.834 179.741 278.27 180 278.705L178.34 279.189C178.08 278.802 177.769 278.463 177.25 278.173L175.642 279.189C176.005 279.479 176.316 279.721 176.524 279.963C176.783 280.157 176.835 280.399 176.835 280.689ZM174.915 278.56L176.264 277.738C175.953 277.641 175.693 277.641 175.434 277.641C175.175 277.641 174.967 277.737 174.811 277.834C174.656 277.931 174.604 278.028 174.604 278.173C174.656 278.221 174.759 278.367 174.915 278.56ZM173.825 280.931C174.033 280.931 174.241 280.883 174.396 280.786C174.552 280.689 174.604 280.592 174.604 280.447C174.552 280.302 174.5 280.205 174.344 280.012L173.047 280.834C173.358 280.931 173.618 280.979 173.825 280.931Z" fill="#FFB583"/>
<path d="M203.813 276.398C203.865 276.665 203.76 277.037 203.5 277.463C203.135 277.996 202.615 278.422 201.885 278.742C201.156 279.061 200.375 279.221 199.438 279.221L198.708 280.286L197.563 280.179L198.292 279.167C197.771 279.061 197.25 278.955 196.885 278.742C196.469 278.529 196.208 278.315 196 278.102L197.406 277.037C197.562 277.25 197.823 277.41 198.083 277.57C198.396 277.73 198.708 277.836 199.125 277.943L200.219 276.345C199.75 276.185 199.385 276.025 199.125 275.866C198.865 275.706 198.656 275.493 198.604 275.173C198.552 274.907 198.656 274.534 198.917 274.108C199.281 273.576 199.802 273.15 200.531 272.83C201.26 272.511 202.042 272.351 202.979 272.351L203.708 271.286L204.854 271.392L204.125 272.404C205.01 272.564 205.635 272.83 206 273.203L204.646 274.321C204.281 274.002 203.813 273.789 203.24 273.629L202.146 275.227C202.615 275.386 202.979 275.546 203.24 275.706C203.552 275.919 203.76 276.132 203.813 276.398ZM201.208 274.907L202.146 273.576C201.833 273.629 201.521 273.682 201.312 273.789C201.104 273.895 200.948 274.055 200.792 274.215C200.687 274.375 200.688 274.534 200.74 274.641C200.844 274.694 201 274.801 201.208 274.907ZM201.104 277.73C201.312 277.623 201.469 277.517 201.573 277.357C201.677 277.197 201.677 277.037 201.625 276.931C201.573 276.824 201.417 276.718 201.208 276.611L200.323 277.943C200.635 277.943 200.896 277.836 201.104 277.73Z" fill="#FFB583"/>
<path d="M198.812 304.398C198.865 304.665 198.76 305.037 198.5 305.463C198.135 305.996 197.615 306.422 196.885 306.741C196.156 307.061 195.375 307.221 194.438 307.221L193.708 308.286L192.562 308.179L193.292 307.168C192.771 307.061 192.25 306.954 191.885 306.741C191.469 306.528 191.208 306.315 191 306.102L192.406 305.037C192.563 305.25 192.823 305.41 193.083 305.57C193.396 305.73 193.708 305.836 194.125 305.943L195.219 304.345C194.75 304.185 194.385 304.026 194.125 303.866C193.865 303.706 193.656 303.493 193.604 303.173C193.552 302.907 193.656 302.534 193.917 302.108C194.281 301.576 194.802 301.15 195.531 300.83C196.26 300.511 197.042 300.351 197.979 300.351L198.708 299.286L199.854 299.393L199.125 300.404C200.01 300.564 200.635 300.83 201 301.203L199.646 302.321C199.281 302.002 198.812 301.789 198.24 301.629L197.146 303.227C197.615 303.387 197.979 303.546 198.24 303.706C198.552 303.866 198.708 304.079 198.812 304.398ZM196.208 302.854L197.146 301.523C196.833 301.576 196.521 301.629 196.313 301.736C196.104 301.842 195.948 302.002 195.792 302.162C195.688 302.321 195.688 302.481 195.74 302.588C195.844 302.694 196 302.801 196.208 302.854ZM196.104 305.73C196.313 305.623 196.469 305.517 196.573 305.357C196.677 305.197 196.677 305.037 196.625 304.931C196.573 304.824 196.417 304.718 196.208 304.611L195.323 305.943C195.635 305.889 195.896 305.836 196.104 305.73Z" fill="#FFB583"/>
<path d="M152.812 277.398C152.865 277.665 152.76 278.037 152.5 278.463C152.135 278.996 151.615 279.422 150.885 279.741C150.156 280.061 149.375 280.221 148.438 280.221L147.708 281.286L146.562 281.179L147.292 280.168C146.771 280.061 146.25 279.954 145.885 279.741C145.469 279.528 145.208 279.315 145 279.102L146.406 278.037C146.563 278.25 146.823 278.41 147.083 278.57C147.396 278.73 147.708 278.836 148.125 278.943L149.219 277.345C148.75 277.185 148.385 277.026 148.125 276.866C147.865 276.706 147.656 276.493 147.604 276.173C147.552 275.907 147.656 275.534 147.917 275.108C148.281 274.576 148.802 274.15 149.531 273.83C150.26 273.511 151.042 273.351 151.979 273.351L152.708 272.286L153.854 272.393L153.125 273.404C154.01 273.564 154.635 273.83 155 274.203L153.646 275.321C153.281 275.002 152.813 274.789 152.24 274.629L151.146 276.227C151.615 276.387 151.979 276.546 152.24 276.706C152.604 276.866 152.76 277.132 152.812 277.398ZM150.26 275.907L151.198 274.576C150.885 274.629 150.573 274.682 150.365 274.789C150.156 274.895 150 275.055 149.844 275.215C149.74 275.375 149.74 275.534 149.792 275.641C149.844 275.694 150 275.801 150.26 275.907ZM150.156 278.73C150.365 278.623 150.521 278.517 150.625 278.357C150.729 278.197 150.729 278.037 150.677 277.931C150.625 277.824 150.469 277.718 150.26 277.611L149.375 278.943C149.635 278.889 149.896 278.836 150.156 278.73Z" fill="#FFB583"/>
<path d="M146.812 296.398C146.865 296.665 146.76 297.037 146.5 297.463C146.135 297.996 145.615 298.422 144.885 298.741C144.156 299.061 143.375 299.221 142.438 299.221L141.708 300.286L140.562 300.179L141.292 299.168C140.771 299.061 140.25 298.954 139.885 298.741C139.469 298.528 139.208 298.315 139 298.102L140.406 297.037C140.563 297.25 140.823 297.41 141.083 297.57C141.396 297.73 141.708 297.836 142.125 297.943L143.219 296.345C142.75 296.185 142.385 296.026 142.125 295.866C141.865 295.706 141.656 295.493 141.604 295.173C141.552 294.907 141.656 294.534 141.917 294.108C142.281 293.576 142.802 293.15 143.531 292.83C144.26 292.511 145.042 292.351 145.979 292.351L146.708 291.286L147.854 291.392L147.125 292.404C148.01 292.564 148.635 292.83 149 293.203L147.646 294.321C147.281 294.002 146.812 293.789 146.24 293.629L145.146 295.227C145.615 295.387 145.979 295.546 146.24 295.706C146.552 295.866 146.708 296.079 146.812 296.398ZM144.208 294.854L145.146 293.523C144.833 293.576 144.521 293.629 144.313 293.736C144.104 293.842 143.948 294.002 143.792 294.162C143.688 294.321 143.688 294.481 143.74 294.588C143.844 294.641 144 294.747 144.208 294.854ZM144.104 297.73C144.313 297.623 144.469 297.517 144.573 297.357C144.677 297.197 144.677 297.037 144.625 296.931C144.573 296.824 144.417 296.718 144.208 296.611L143.323 297.943C143.635 297.889 143.896 297.836 144.104 297.73Z" fill="#FFB583"/>
<path d="M170.95 282.67L171 283.286L170.05 282.901L170 282.286L170.95 282.67Z" fill="#F49758"/>
<path d="M176.707 286.293L176.007 287.49L177.08 286.615L177.733 289.286L178.013 286.569L179.18 287.26L178.34 286.2L181 285.556L178.293 285.279L178.993 284.082L177.92 284.957L177.267 282.286L176.987 285.003L175.773 284.312L176.66 285.371L174 286.016L176.707 286.293Z" fill="white"/>
<path d="M167 239.286L170.36 239.536L171 240.286L167.64 240.036L167 239.286Z" fill="#F49758"/>
<path d="M168 239.286L171.36 239.44L172 240.286L168.64 240.132L168 239.286Z" fill="#F49758"/>
<path d="M170.411 261.286L173 261.404L172.589 262.286L170 262.168L170.411 261.286Z" fill="#F49758"/>
<path d="M171 240.286L173.662 240.391L174 241.286L171.338 241.181L171 240.286Z" fill="#F49758"/>
<path d="M171.375 260.286L174 260.391L173.625 261.286L171 261.181L171.375 260.286Z" fill="#F49758"/>
<path d="M171 241.286L174.316 241.619L175 242.286L171.684 241.953L171 241.286Z" fill="#F49758"/>
<path d="M172 241.286L174.739 241.381L175 242.286L172.261 242.191L172 241.286Z" fill="#F49758"/>
<path d="M172.3 259.286L175 259.377L174.7 260.286L172 260.195L172.3 259.286Z" fill="#F49758"/>
<path d="M172 242.286L175.36 242.468L176 243.286L172.64 243.104L172 242.286Z" fill="#F49758"/>
<path d="M173 243.286L175.779 243.377L176 244.286L173.221 244.195L173 243.286Z" fill="#F49758"/>
<path d="M172.64 258.286L176 258.453L175.36 259.286L172 259.119L172.64 258.286Z" fill="#F49758"/>
<path d="M173.179 257.286L176 257.373L175.821 258.286L173 258.199L173.179 257.286Z" fill="#F49758"/>
<path d="M173 244.286L176.452 244.419L177 245.286L173.548 245.153L173 244.286Z" fill="#F49758"/>
<path d="M173 244.286L176.877 244.453L177 246.286L173.123 246.119L173 244.286Z" fill="#F49758"/>
<path d="M173.123 255.286L177 255.453L176.877 257.286L173 257.119L173.123 255.286Z" fill="#F49758"/>
<path d="M174 246.286L177 246.453V248.286L174 248.119V246.286Z" fill="#F49758"/>
<path d="M174.375 255.286L177 255.397L176.625 256.286L174 256.175L174.375 255.286Z" fill="#F49758"/>
<path d="M174 254.286L176.953 254.369L177 255.286L174.047 255.203L174 254.286Z" fill="#F49758"/>
<path d="M174.136 248.286L177 248.453L176.864 250.286L174 250.119L174.136 248.286Z" fill="#F49758"/>
<path d="M174 247.286L176.7 247.386L177 248.286L174.3 248.186L174 247.286Z" fill="#F49758"/>
<path d="M174 251.286L176.864 251.453L177 253.286L174.136 253.119L174 251.286Z" fill="#F49758"/>
<path d="M174.338 253.286L177 253.381L176.662 254.286L174 254.191L174.338 253.286Z" fill="#F49758"/>
<path d="M174 249.286L177.706 249.468L178 251.286L174.294 251.104L174 249.286Z" fill="#F49758"/>
<path d="M174.294 250.286L178 250.46L177.706 252.286L174 252.112L174.294 250.286Z" fill="#F49758"/>
<path d="M163.61 241.841L164.19 241.541L164.625 240.689L165.253 240.589L165.736 239.837L166.364 239.937L166.944 239.386L167.524 239.687L168.104 239.286L168.684 239.837L169.312 239.637L169.796 240.288L170.424 240.338L170.81 241.19L171.439 241.39L171.729 242.343L172.309 242.794L172.55 243.796L173.033 244.447L173.13 245.55L173.565 246.301V247.404L173.903 248.306L173.758 249.408L174 250.41L173.758 251.462L173.903 252.565L173.517 253.517L173.565 254.619L173.13 255.421L173.033 256.523L172.502 257.225L172.309 258.277L171.729 258.778L171.39 259.78L170.81 260.081L170.375 260.933L169.747 261.033L169.264 261.785L168.636 261.635L168.056 262.236L167.476 261.935L166.896 262.286L166.316 261.785L165.688 261.985L165.204 261.284H164.576L164.19 260.432L163.561 260.231L163.271 259.279L162.691 258.828L162.498 257.776L161.967 257.175L161.87 256.072L161.435 255.321V254.168L161.097 253.266L161.242 252.164L161 251.162L161.242 250.16L161.097 249.057L161.483 248.105L161.435 247.003L161.87 246.151L161.967 245.048L162.498 244.397L162.691 243.345L163.271 242.844L163.61 241.841Z" fill="#FFB583"/>
<path d="M163.954 243.967C161.512 247.615 161.349 253.645 163.52 257.394C164.822 259.572 166.613 260.535 168.349 260.231C167.101 259.927 165.907 259.015 164.985 257.444C162.76 253.695 162.977 247.666 165.419 244.018C166.45 242.498 167.698 241.586 169 241.383C167.209 240.978 165.365 241.839 163.954 243.967Z" fill="#FFA668"/>
<path d="M165.688 244.802C163.579 248.286 163.438 254.044 165.313 257.625C166.11 259.125 167.141 259.996 168.219 260.286C169.344 260.092 170.422 259.27 171.312 257.77C173.421 254.286 173.562 248.528 171.687 244.947C170.89 243.447 169.859 242.576 168.781 242.286C167.656 242.528 166.578 243.35 165.688 244.802Z" fill="#F49758"/>
<path d="M166 246.286H166.556L167 247.286L166.407 247.238L166 246.286Z" fill="#F49758"/>
<path d="M168 251.286L166.72 251.225C166.56 251.225 166.4 251.104 166.24 250.983C166.08 250.801 166 250.559 166 250.256C166 249.953 166.08 249.65 166.24 249.286L167.52 249.347C167.36 249.71 167.28 250.013 167.28 250.316C167.28 250.619 167.36 250.862 167.52 251.044C167.68 251.225 167.84 251.286 168 251.286Z" fill="#F49758"/>
<path d="M167 248.286H167.97L169 250.286H168.091L167 248.286Z" fill="#F49758"/>
<path d="M167.021 253.286L166 253.236C166.255 253.236 166.511 253.186 166.83 253.036C167.149 252.886 167.532 252.636 167.979 252.286L169 252.336C168.553 252.686 168.17 252.936 167.851 253.086C167.596 253.236 167.277 253.286 167.021 253.286Z" fill="#F49758"/>
<path d="M168.179 247.286L169 247.339C168.538 247.549 168.179 247.865 167.821 248.286L167 248.233C167.308 247.812 167.718 247.496 168.179 247.286Z" fill="#F49758"/>
<path d="M168 246.286L168.696 246.315L169 247.286L168.304 247.256L168 246.286Z" fill="#F49758"/>
<path d="M169 251.286H169.533L170 253.286L169.467 253.212L169 251.286Z" fill="#F49758"/>
<path d="M169.396 255.286L170 255.317C169.774 255.598 169.547 255.817 169.283 255.973C169.019 256.161 168.792 256.255 168.604 256.286L168 256.255C168.189 256.223 168.415 256.13 168.679 255.942C168.943 255.786 169.17 255.567 169.396 255.286Z" fill="#F49758"/>
<path d="M170 249.286L170.821 249.336C171.077 249.387 171.333 249.639 171.59 250.043C171.897 250.548 172 251.205 172 251.963C171.949 252.72 171.744 253.478 171.385 254.286L170.564 254.235C170.974 253.427 171.179 252.67 171.179 251.912C171.231 251.155 171.077 250.549 170.769 249.993C170.513 249.589 170.256 249.336 170 249.286Z" fill="#F49758"/>
<path d="M170 254.286L171.143 254.331L172 255.286H170.857L170 254.286Z" fill="#F49758"/>
<path d="M169.745 249.305C170.018 249.352 170.291 249.588 170.564 249.965C170.891 250.437 171 251.05 171 251.758C170.945 252.465 170.727 253.173 170.345 253.927L171 254.918L170.345 255.814L169.745 254.824C169.418 255.248 169.091 255.578 168.709 255.814C168.327 256.097 168 256.239 167.727 256.286L167.4 254.729C167.673 254.682 167.945 254.541 168.218 254.399C168.491 254.21 168.764 253.975 169.036 253.692L168.109 252.182C167.727 252.512 167.4 252.748 167.127 252.89C166.855 253.031 166.527 253.126 166.255 253.031C165.982 252.984 165.709 252.748 165.436 252.371C165.109 251.852 165 251.286 165 250.578C165.055 249.871 165.273 249.163 165.709 248.409L165.055 247.418L165.709 246.522L166.309 247.512C166.855 246.852 167.4 246.427 167.945 246.286L168.327 247.843C167.836 248.031 167.455 248.314 167.073 248.692L168.055 250.201C168.436 249.871 168.709 249.635 168.982 249.493C169.145 249.352 169.418 249.258 169.745 249.305ZM167.127 250.861L166.309 249.588C166.2 249.871 166.145 250.107 166.145 250.343C166.145 250.578 166.2 250.767 166.309 250.909C166.418 251.05 166.527 251.144 166.636 251.097C166.8 251.05 166.964 251.003 167.127 250.861ZM169.745 252.041C169.745 251.852 169.691 251.663 169.636 251.475C169.527 251.333 169.418 251.239 169.309 251.286C169.145 251.286 168.982 251.38 168.818 251.522L169.582 252.748C169.691 252.512 169.745 252.276 169.745 252.041Z" fill="#FFB583"/>
<path d="M170.857 255.286H172L171.143 256.286L170 256.233L170.857 255.286Z" fill="#F49758"/>
<path d="M174.819 249.764L175.564 250.242L175.032 249.547L177 249.329L175.085 249.025L175.67 248.373L174.819 248.808L174.553 247.286L174.181 248.808L173.383 248.329L173.915 248.982L172 249.242L173.915 249.547L173.33 250.156L174.128 249.764L174.394 251.286L174.819 249.764Z" fill="white"/>
<path d="M137 297.286L135.462 299.786L135 300.286L136.538 297.786L137 297.286Z" fill="#F49758"/>
<path d="M115.952 290.998L115 294.286V293.519L116 290.286L115.952 290.998Z" fill="#F49758"/>
<path d="M137 298.286L135.6 301.714L135 302.286L136.333 298.857L137 298.286Z" fill="#F49758"/>
<path d="M115 292.043L114.167 295.286L114 294.529L114.833 291.286L115 292.043Z" fill="#F49758"/>
<path d="M137 299.286L135.727 302.808L135 303.286L136.212 299.704L137 299.286Z" fill="#F49758"/>
<path d="M115 293.853L114.286 296.286L114 295.718L114.75 293.286L115 293.853Z" fill="#F49758"/>
<path d="M136 300.286L134.865 303.978L134 304.286L135.135 300.655L136 300.286Z" fill="#F49758"/>
<path d="M115 295.043L114.355 298.286L114 297.529L114.645 294.286L115 295.043Z" fill="#F49758"/>
<path d="M135 301.286L134.16 303.744L134 304.286L134.8 301.786L135 301.286Z" fill="#F49758"/>
<path d="M135 301.286L133.947 305.095L133 305.286L134.053 301.476L135 301.286Z" fill="#F49758"/>
<path d="M114.909 295.82L114 298.286L114.091 297.752L115 295.286L114.909 295.82Z" fill="#F49758"/>
<path d="M116 295.998L114.8 299.286L114 298.574L115.143 295.286L116 295.998Z" fill="#F49758"/>
<path d="M134 302.286L132.571 304.821L132 305.286L133.429 302.751L134 302.286Z" fill="#F49758"/>
<path d="M116 297.043L115.087 300.286L115 299.529L115.913 296.286L116 297.043Z" fill="#F49758"/>
<path d="M117 297.786L115.895 300.286L115 299.786L116.105 297.286L117 297.786Z" fill="#F49758"/>
<path d="M117 298.097L116.231 301.286L116 300.529L116.808 297.286L117 298.097Z" fill="#F49758"/>
<path d="M118 298.857L116.95 302.286L116 301.657L117 298.286L118 298.857Z" fill="#F49758"/>
<path d="M119 299.854L117.667 302.286L117 301.718L118.4 299.286L119 299.854Z" fill="#F49758"/>
<path d="M120 299.756L119.024 303.286L118 302.815L118.976 299.286L120 299.756Z" fill="#F49758"/>
<path d="M120 300.854L119.394 303.286L119 302.718L119.606 300.286L120 300.854Z" fill="#F49758"/>
<path d="M121 300.649L120.024 304.286L119 303.922L119.976 300.286L121 300.649Z" fill="#F49758"/>
<path d="M123 301.429L122 304.286L121 304.095L121.952 301.286L123 301.429Z" fill="#F49758"/>
<path d="M122 301.828L120.889 304.286L120 303.786L121.111 301.286L122 301.828Z" fill="#F49758"/>
<path d="M125 302.335L124.024 305.286L123 305.237L123.976 302.286L125 302.335Z" fill="#F49758"/>
<path d="M124 301.906L122.974 305.286L122 304.666L123.077 301.286L124 301.906Z" fill="#F49758"/>
<path d="M135.659 294.51L135.758 295.225L136.454 295.888L136.354 296.551L136.901 297.265L136.603 297.878L137 298.592L136.503 299.102L136.702 299.868L136.056 300.225V300.939L135.262 301.245L135.014 301.857L134.12 302.01L133.722 302.572L132.729 302.623L132.133 303.031L131.09 302.929L130.345 303.286L129.302 303.031L128.409 303.286L127.366 302.929L126.422 302.98L125.429 302.521L124.386 302.47L123.492 301.908L122.4 301.755L121.605 301.092L120.562 300.786L119.916 300.072L118.874 299.664L118.427 298.949L117.433 298.439L117.185 297.674L116.341 297.061L116.242 296.347L115.497 295.684L115.596 295.021L115.05 294.306L115.348 293.694L115 292.98L115.447 292.47L115.248 291.755L115.894 291.347L115.944 290.684L116.738 290.378L116.937 289.765L117.831 289.561L118.228 289.051L119.221 289L119.817 288.541L120.86 288.643L121.605 288.286L122.648 288.541L123.542 288.337L124.585 288.694L125.528 288.592L126.521 289.051L127.564 289.102L128.508 289.663L129.551 289.867L130.345 290.48L131.388 290.837L132.034 291.5L133.077 291.908L133.573 292.674L134.517 293.184L134.815 293.898L135.659 294.51Z" fill="#FFB583"/>
<path d="M133.455 293.923C130.663 290.59 125.078 288.612 120.939 289.497C118.546 290.018 117.199 291.372 117 293.09C117.598 291.996 118.795 291.215 120.54 290.799C124.679 289.914 130.264 291.892 133.056 295.225C134.253 296.63 134.701 298.036 134.552 299.286C135.4 297.828 135.05 295.849 133.455 293.923Z" fill="#F49758"/>
<path d="M132.516 295.426C129.822 292.451 124.434 290.684 120.441 291.474C118.757 291.8 117.602 292.544 117.025 293.52C116.881 294.636 117.362 295.891 118.468 297.146C121.162 300.121 126.55 301.888 130.543 301.097C132.227 300.772 133.381 300.028 133.959 299.098C134.151 297.983 133.67 296.681 132.516 295.426Z" fill="#F49758"/>
<path d="M131 295.286L130.643 296.036L129 296.286L129.357 295.536L131 295.286Z" fill="#F49758"/>
<path d="M126 295.081L126.135 294.467C126.162 294.385 126.216 294.344 126.297 294.303C126.405 294.262 126.514 294.303 126.622 294.344C126.73 294.385 126.865 294.508 127 294.672L126.865 295.286C126.73 295.122 126.595 294.999 126.486 294.958C126.378 294.917 126.243 294.876 126.162 294.917C126.054 294.958 126 294.999 126 295.081Z" fill="#F49758"/>
<path d="M128 296.286L127.756 296.938L126 297.286L126.244 296.634L128 296.286Z" fill="#F49758"/>
<path d="M129 297.572L128.688 298.286C128.625 297.857 128.375 297.381 128 297L128.312 296.286C128.687 296.667 128.938 297.095 129 297.572Z" fill="#F49758"/>
<path d="M130 297.453L129.868 298.286L129 298.119L129.132 297.286L130 297.453Z" fill="#F49758"/>
<path d="M125 296.286L124.714 296.953L123 297.286L123.286 296.572L125 296.286Z" fill="#F49758"/>
<path d="M121 296.523L120.794 297.286C120.547 296.879 120.34 296.472 120.176 296.066C120.052 295.659 119.97 295.303 120.011 295.049L120.217 294.286C120.176 294.54 120.258 294.896 120.382 295.303C120.547 295.71 120.753 296.116 121 296.523Z" fill="#F49758"/>
<path d="M127 298.131L126.752 298.798C126.604 299.021 126.307 299.154 125.861 299.243C125.267 299.332 124.673 299.287 123.98 299.065C123.287 298.843 122.644 298.487 122 297.953L122.248 297.286C122.891 297.82 123.535 298.175 124.228 298.398C124.921 298.62 125.564 298.665 126.109 298.576C126.554 298.487 126.851 298.353 127 298.131Z" fill="#F49758"/>
<path d="M122 297.286L121.828 298.023L121 298.286L121.172 297.496L122 297.286Z" fill="#F49758"/>
<path d="M126.888 297.768C126.734 298.004 126.425 298.146 125.963 298.24C125.346 298.335 124.729 298.288 124.009 298.052C123.29 297.816 122.622 297.438 121.953 296.872L120.72 297.108L120 296.352L121.182 296.116C120.874 295.739 120.617 295.361 120.411 294.984C120.257 294.606 120.154 294.275 120.206 294.039L121.953 294.228C121.953 294.464 122.005 294.747 122.107 295.031C122.21 295.314 122.416 295.597 122.621 295.88L124.472 295.55C124.266 295.172 124.112 294.842 124.009 294.559C123.907 294.275 123.958 294.039 124.061 293.803C124.215 293.567 124.523 293.426 124.986 293.331C125.603 293.237 126.271 293.284 126.991 293.52C127.71 293.756 128.43 294.134 129.047 294.7L130.28 294.464L131 295.22L129.818 295.456C130.332 296.116 130.64 296.683 130.64 297.155L128.944 297.013C128.893 296.588 128.687 296.116 128.379 295.739L126.528 296.116C126.734 296.494 126.939 296.824 126.991 297.108C127.042 297.296 126.991 297.532 126.888 297.768ZM126.014 295.172L127.556 294.889C127.299 294.7 127.042 294.559 126.836 294.511C126.631 294.464 126.374 294.417 126.22 294.464C126.014 294.511 125.911 294.559 125.911 294.7C125.86 294.842 125.911 294.983 126.014 295.172ZM124.061 296.966C124.266 297.013 124.472 297.06 124.678 297.013C124.883 296.966 124.986 296.919 124.986 296.777C124.986 296.636 124.986 296.494 124.883 296.305L123.393 296.588C123.598 296.777 123.804 296.919 124.061 296.966Z" fill="#FFB583"/>
<path d="M121 297.318L120.737 298.286L120 297.254L120.263 296.286L121 297.318Z" fill="#F49758"/>
<path d="M122.259 302.051L120.751 303.109L122.551 302.58L121.968 306.286L123.768 303.013L124.838 304.505L124.303 302.724L128 303.254L124.741 301.473L126.249 300.414L124.449 300.944L125.032 297.286L123.232 300.51L122.114 299.018L122.649 300.799L119 300.27L122.259 302.051Z" fill="white"/>
<path d="M127.647 237.286C133.759 229.49 149.957 224.062 169.485 224.062C189.012 224.062 205.26 229.539 211.521 237.286C214.055 234.72 215.645 231.908 215.943 228.898C217.235 216.957 196.366 207.286 169.335 207.286C142.305 207.286 121.585 216.957 123.076 228.898C123.423 231.908 125.063 234.72 127.647 237.286Z" fill="#C8C8EE"/>
<path d="M114.214 200.286C122.164 190.693 143.363 183.943 168.963 183.943C194.562 183.943 215.912 190.693 223.962 200.286C227.311 197.088 229.461 193.637 229.911 189.932C231.761 175.213 204.412 163.286 168.813 163.286C133.213 163.286 106.014 175.213 108.114 189.932C108.614 193.637 110.764 197.139 114.214 200.286Z" fill="#C8C8EE"/>
<path d="M97.3622 156.286C107.595 144.871 135.348 136.876 168.992 136.876C202.585 136.876 230.488 144.871 240.921 156.286C245.413 152.514 248.208 148.341 248.857 144.016C251.553 126.517 215.713 112.286 168.742 112.286C121.771 112.286 86.181 126.467 89.176 144.016C89.9247 148.341 92.8199 152.514 97.3622 156.286Z" fill="#C8C8EE"/>
<path d="M74.2566 111.235C87.5875 97.519 124.085 87.8368 168.471 87.8368C212.858 87.8368 249.805 97.519 263.335 111.286C269.277 106.747 272.821 101.704 273.77 96.4599C277.714 75.381 230.432 58.2859 168.222 58.2859C105.961 58.2859 58.9785 75.381 63.2724 96.4599C64.3209 101.704 68.2153 106.697 74.2566 111.235Z" fill="#C8C8EE"/>
<path d="M154.625 221.286C154.398 221.193 154.227 221.1 154 221.007L154.057 220.96C154.852 220.309 155.705 219.704 156.5 219.1C157.352 218.495 158.148 217.891 159 217.286C158.261 217.984 157.523 218.635 156.784 219.332C156.102 219.937 155.364 220.635 154.625 221.286Z" fill="#FF4F7C"/>
<path d="M167.007 194.519C167.167 195.286 167.513 195.998 167.886 196.272C167.966 196.326 168.02 196.217 167.993 196.053C167.913 195.669 167.78 195.286 167.62 195.012C167.46 194.683 167.274 194.464 167.087 194.3C167.034 194.245 166.98 194.355 167.007 194.519Z" fill="#121C7C"/>
<path d="M165.172 197.422C164.953 197.583 164.953 197.904 165.117 198.118C165.281 198.332 165.609 198.332 165.828 198.171C166.047 198.011 166.047 197.69 165.883 197.476C165.719 197.262 165.391 197.208 165.172 197.422Z" fill="#121C7C"/>
<path d="M166.438 199.425C167.14 198.551 167.194 197.294 166.546 196.365C166.492 196.311 166.438 196.201 166.384 196.147C165.466 195.109 163.9 194.999 162.875 195.874C161.903 196.693 161.741 198.114 162.389 199.152C162.443 199.261 162.497 199.37 162.605 199.425C163.469 200.463 165.034 200.572 166.06 199.698L166.114 199.644C166.276 199.644 166.384 199.534 166.438 199.425ZM162.983 199.206C162.929 199.097 162.875 199.042 162.821 198.933C162.281 198.059 162.443 196.912 163.199 196.256C164.062 195.491 165.358 195.6 166.114 196.475L166.168 196.529C166.87 197.403 166.762 198.66 165.898 199.425C165.034 200.19 163.685 200.081 162.983 199.206Z" fill="white"/>
<path d="M166.579 200.286H167C167 199.905 166.895 199.667 166.684 199.476C166.526 199.334 166.263 199.286 166 199.286L166.053 199.667C166.211 199.667 166.368 199.667 166.421 199.762C166.526 199.857 166.579 200.048 166.579 200.286Z" fill="white"/>
<path d="M166.036 189.026C166.581 192.347 175.564 199.088 175.782 199.187C175.782 199.187 175.782 199.236 175.728 199.286C175.837 199.286 175.891 199.286 176 199.286C176 198.939 175.456 198.592 175.238 198.344C174.911 197.997 174.53 197.65 174.203 197.303C173.55 196.609 172.897 195.816 172.407 195.023C171.318 193.338 170.555 191.405 170.664 189.472C170.719 187.787 171.427 186.251 172.243 184.714C171.59 184.268 170.882 184.119 170.229 184.516C170.174 184.565 165.546 185.705 166.036 189.026Z" fill="#2E34A5"/>
<path opacity="0.32" d="M235.693 106.65C241.59 89.8085 232.718 71.3752 215.877 65.4777C199.036 59.5803 180.603 68.4519 174.705 85.2931C168.808 102.134 177.679 120.568 194.521 126.465C211.362 132.363 229.795 123.491 235.693 106.65Z" fill="#CFCFF2"/>
<path opacity="0.32" d="M163.24 68.5382C175.857 55.9206 175.857 35.4636 163.24 22.8461C150.622 10.2285 130.165 10.2285 117.548 22.8461C104.93 35.4636 104.93 55.9207 117.548 68.5382C130.165 81.1557 150.622 81.1557 163.24 68.5382Z" fill="#C8C8EE"/>
<path d="M169.377 175.602C131.047 175.602 97.4951 163.682 90 148.286L102.576 175.602C108.562 189.508 136.982 200.286 169.578 200.286C202.778 200.286 231.501 189.111 236.481 174.807L248 148.932C240.103 164.03 207.154 175.602 169.377 175.602Z" fill="url(#paint0_linear)"/>
<path d="M169.276 216.396C140.065 216.396 114.562 206.304 109 193.286L118.319 216.396C122.779 228.153 144.474 237.286 169.476 237.286C194.929 237.286 216.875 227.8 220.532 215.69L229 193.79C223.138 206.607 198.136 216.396 169.276 216.396Z" fill="url(#paint1_linear)"/>
<path d="M170.25 250.727C147.726 250.727 128.155 242.228 124 231.286L130.958 250.727C134.311 260.601 151.029 268.286 170.4 268.286C190.122 268.286 207.04 260.296 209.743 250.168L216 231.744C211.645 242.483 192.474 250.727 170.25 250.727Z" fill="url(#paint2_linear)"/>
<path d="M168.976 134.391C119.065 134.391 75.1122 119.945 65 101.286L81.9705 134.391C90.0302 151.244 127.075 164.286 169.226 164.286C212.228 164.286 249.723 150.693 256.431 133.388L272 102.038C261.387 120.346 218.235 134.391 168.976 134.391Z" fill="url(#paint3_linear)"/>
<path d="M37 51.5872L39.9585 55.8566L38.5545 60.5279L45.5747 60.779L48.6837 57.0621C69.945 60.0758 81.9296 83.0804 84.5371 88.5552L80.2748 88.9068L88.9499 95.2859L89 84.6877L86.1919 87.7014C84.9383 84.989 81.6287 78.5096 76.163 71.8795C68.1398 62.2356 58.7628 56.5096 48.784 55.1534L46.5776 51.2859L37 51.5872Z" fill="#EAEAFA"/>
<path d="M298 57.5804L295.041 61.7528L296.445 66.3178L289.425 66.5633L286.316 62.9309C265.055 65.8761 253.07 88.3578 250.463 93.7083L254.725 94.0519L246.05 100.286L246 89.9286L248.808 92.8738C250.062 90.2232 253.371 83.891 258.837 77.4115C266.86 67.9868 276.237 62.3909 286.216 61.0656L288.422 57.2859L298 57.5804Z" fill="#EAEAFA"/>
<path d="M249 55.2859C253.971 55.2859 258 51.2564 258 46.2859C258 41.3153 253.971 37.2859 249 37.2859C244.029 37.2859 240 41.3153 240 46.2859C240 51.2564 244.029 55.2859 249 55.2859Z" fill="url(#paint4_linear)"/>
<path d="M251.979 48.9744C251.594 50.3023 250.441 51.2859 248.999 51.2859C247.605 51.2859 246.403 50.3023 246.019 48.9744C245.923 48.6302 246.211 48.2859 246.547 48.2859H251.45C251.835 48.2859 252.075 48.6302 251.979 48.9744Z" fill="white"/>
<path d="M246 44.2859C246.552 44.2859 247 43.8382 247 43.2859C247 42.7336 246.552 42.2859 246 42.2859C245.448 42.2859 245 42.7336 245 43.2859C245 43.8382 245.448 44.2859 246 44.2859Z" fill="white"/>
<path d="M254 43.2859C254 43.8511 253.565 44.2859 253 44.2859C252.435 44.2859 252 43.8511 252 43.2859C252 42.7207 252.435 42.2859 253 42.2859C253.565 42.2859 254 42.7207 254 43.2859Z" fill="white"/>
<path opacity="0.5" d="M19 174.986V196.286C19 197.786 20.2038 198.986 21.7086 198.986H50.6009L54.9146 205.286L59.2284 198.986H63.2914C64.7962 198.986 66 197.786 66 196.286V174.986C66 173.486 64.7962 172.286 63.2914 172.286H21.6585C20.254 172.286 19 173.486 19 174.986Z" fill="url(#paint5_linear)"/>
<path opacity="0.5" d="M0 131.315V150.59C0 151.706 0.896048 152.619 1.94144 152.619H22.8492L25.9854 157.286L29.1215 152.619H32.0586C33.1537 152.619 34 151.706 34 150.59V131.315C34 130.199 33.104 129.286 32.0586 129.286H1.99122C0.896047 129.337 0 130.199 0 131.315Z" fill="url(#paint6_linear)"/>
<defs>
<linearGradient id="paint0_linear" x1="89.9811" y1="174.295" x2="247.959" y2="174.295" gradientUnits="userSpaceOnUse">
<stop offset="1.1e-07" stop-color="#F5F5FF"/>
<stop offset="1" stop-color="#CFCFF2"/>
</linearGradient>
<linearGradient id="paint1_linear" x1="109.015" y1="215.276" x2="228.938" y2="215.276" gradientUnits="userSpaceOnUse">
<stop offset="1.1e-07" stop-color="#F5F5FF"/>
<stop offset="1" stop-color="#CFCFF2"/>
</linearGradient>
<linearGradient id="paint2_linear" x1="123.997" y1="249.765" x2="216.001" y2="249.765" gradientUnits="userSpaceOnUse">
<stop offset="1.1e-07" stop-color="#F5F5FF"/>
<stop offset="1" stop-color="#CFCFF2"/>
</linearGradient>
<linearGradient id="paint3_linear" x1="64.9959" y1="132.76" x2="272.022" y2="132.76" gradientUnits="userSpaceOnUse">
<stop offset="1.1e-07" stop-color="#F5F5FF"/>
<stop offset="1" stop-color="#CFCFF2"/>
</linearGradient>
<linearGradient id="paint4_linear" x1="240.022" y1="46.2718" x2="258.011" y2="46.2718" gradientUnits="userSpaceOnUse">
<stop offset="0.0036036" stop-color="#FCB3B3"/>
<stop offset="1" stop-color="#FC8E8E"/>
</linearGradient>
<linearGradient id="paint5_linear" x1="66.1106" y1="188.773" x2="19.0188" y2="188.773" gradientUnits="userSpaceOnUse">
<stop stop-color="#E4E8FD"/>
<stop offset="0.9928" stop-color="#BBC2E9"/>
</linearGradient>
<linearGradient id="paint6_linear" x1="34.0368" y1="143.29" x2="0.00318485" y2="143.29" gradientUnits="userSpaceOnUse">
<stop stop-color="#E4E8FD"/>
<stop offset="0.9928" stop-color="#BBC2E9"/>
</linearGradient>
</defs>
</svg>
