<svg width="276" height="302" viewBox="0 0 276 302" fill="none" xmlns="http://www.w3.org/2000/svg">
<path d="M202.763 150.713C154.914 157.531 71.8248 160.64 64.7714 111.141C57.7179 61.6417 90.7892 15.9876 138.638 9.16921C186.487 2.35087 182.938 11.5884 189.991 61.0873C197.045 110.586 250.612 143.895 202.763 150.713Z" fill="#FFF8D8" fill-opacity="0.67"/>
<path d="M250.216 185.232C215.424 221.692 157.756 222.884 121.296 188.092C84.8355 153.3 83.6441 95.6312 118.436 59.1712C153.228 22.7111 210.897 21.5191 247.357 56.3111C283.817 91.103 285.008 148.772 250.216 185.232Z" fill="white"/>
<path d="M250.216 185.232C285.008 148.772 283.817 91.103 247.357 56.3111C210.897 21.5191 153.228 22.7111 118.436 59.1712C83.6441 95.6312 84.8355 153.3 121.296 188.092C157.517 222.884 215.186 221.454 250.216 185.232ZM130.113 70.1327C158.709 40.1067 206.369 39.1535 236.395 67.7496C266.421 96.3458 267.374 144.006 238.778 174.032C210.182 204.058 162.522 205.011 132.496 176.415C102.47 147.581 101.278 100.159 130.113 70.1327Z" fill="#EAEAFA"/>
<path d="M228.293 164.262C251.646 139.955 250.693 101.589 226.386 78.2353C202.079 54.8818 163.713 55.8345 140.36 80.1412C117.006 104.448 117.959 142.815 142.266 166.168C166.334 189.283 204.939 188.568 228.293 164.262ZM151.798 91.1033C168.956 73.2307 197.314 72.5156 215.186 89.6733C233.059 106.831 233.774 135.189 216.616 153.062C199.458 170.934 171.1 171.649 153.228 154.492C135.355 137.334 134.879 108.976 151.798 91.1033Z" fill="#EAEAFA"/>
<path d="M206.131 143.053C217.808 130.9 217.331 111.836 205.178 100.159C193.024 88.4822 173.96 88.9586 162.283 101.112C150.607 113.265 151.083 132.329 163.237 144.006C175.39 155.445 194.454 155.207 206.131 143.053ZM175.867 114.219C180.156 109.691 187.543 109.453 192.071 113.981C196.599 118.27 196.837 125.657 192.31 130.185C188.02 134.712 180.633 134.951 176.105 130.662C171.577 126.134 171.577 118.746 175.867 114.219Z" fill="#EAEAFA"/>
<path d="M34.7919 270.306L38.6049 266.493L37.8899 285.319L44.0857 279.361L44.8007 260.536L48.8517 256.484L48.3752 270.782L53.3795 266.016L53.856 251.718L153.228 154.492C158.709 160.926 160.615 170.696 158.708 183.564L178.011 127.802L121.772 145.913C134.878 144.721 144.649 146.866 150.606 152.109L51.473 249.097L37.1749 249.335L32.1706 254.101L46.4687 253.863L42.1795 257.914L23.5919 258.153L17.3961 264.11L35.9834 263.872L32.1706 267.685L7.86405 268.161L0 275.787L26.9281 275.31L25.7366 302L33.6004 294.375L34.7919 270.306Z" fill="#D5DBFE"/>
</svg>
