<svg width="361" height="289" viewBox="0 0 361 289" fill="none" xmlns="http://www.w3.org/2000/svg">
<path d="M121.11 205.043C106.924 118.104 -43.3274 59.7181 46.6102 45.0432C136.548 30.3683 320.287 -7.61862 334.472 79.3211C348.658 166.261 312.547 244.37 222.61 259.045C132.672 273.72 135.296 291.983 121.11 205.043Z" fill="#FFF8D8" fill-opacity="0.67"/>
<path d="M238.026 35.7817V39.9737C238.026 40.3167 237.76 40.5834 237.417 40.5834H213.027C212.684 40.5834 212.417 40.3167 212.417 39.9737V35.7817C212.417 35.4387 212.684 35.1719 213.027 35.1719H219.658C221.449 35.1719 222.897 33.7238 222.897 31.9326C222.897 31.5896 223.164 31.3229 223.507 31.3229H226.937C227.279 31.3229 227.546 31.5896 227.546 31.9326C227.546 33.7238 228.994 35.1719 230.786 35.1719H237.417C237.76 35.1338 238.026 35.4387 238.026 35.7817Z" fill="#C8C8EE"/>
<path d="M256.89 189.972H192.257V193.63H256.89V189.972Z" fill="#DADAF5"/>
<path d="M224.307 193.63L224.459 189.972H220.267L220.115 193.63H224.307Z" fill="#C8C8EE"/>
<path d="M192.905 189.972V193.63H194.886L195.534 189.972H192.905Z" fill="#C8C8EE"/>
<path d="M256.357 189.972V193.63H254.375L253.727 189.972H256.357Z" fill="#C8C8EE"/>
<path d="M269.047 266C268.438 266 267.942 265.581 267.828 264.971L247.859 149.004C247.744 148.319 248.201 147.671 248.887 147.556C249.573 147.442 250.221 147.899 250.336 148.585L270.267 264.552C270.381 265.238 269.924 265.886 269.238 266C269.2 266 269.123 266 269.047 266Z" fill="#DADAF5"/>
<path d="M180.138 266C180.062 266 179.986 266 179.909 266C179.224 265.886 178.766 265.238 178.881 264.552L198.812 148.585C198.926 147.899 199.574 147.442 200.26 147.556C200.946 147.671 201.403 148.319 201.289 149.004L181.358 264.971C181.243 265.581 180.71 266 180.138 266Z" fill="#DADAF5"/>
<path d="M220.191 245.688H220.153C219.467 245.65 218.933 245.078 218.971 244.392L222.897 148.204C222.935 147.518 223.506 146.985 224.192 147.023C224.878 147.061 225.412 147.632 225.374 148.318L221.41 244.468C221.41 245.154 220.839 245.688 220.191 245.688Z" fill="#DADAF5"/>
<path d="M253.079 179.187H255.595L250.336 148.585C250.221 147.899 249.573 147.442 248.887 147.556C248.201 147.671 247.744 148.319 247.859 149.004L253.079 179.187Z" fill="#C8C8EE"/>
<path d="M196.106 179.187L201.289 149.004C201.403 148.319 200.946 147.671 200.26 147.556C199.574 147.442 198.926 147.899 198.812 148.585L193.553 179.187H196.106Z" fill="#C8C8EE"/>
<path d="M224.078 179.187L225.336 148.28C225.374 147.594 224.84 147.023 224.154 146.985C223.468 146.946 222.897 147.48 222.859 148.166L221.601 179.187H224.078Z" fill="#C8C8EE"/>
<path opacity="0.3" d="M140.162 31.5897H165.314C166.571 31.5897 167.6 32.6187 167.6 33.8763V43.556C167.6 44.8137 166.571 45.8426 165.314 45.8426H142.334C142.029 45.8426 141.724 45.9569 141.533 46.1856L138.218 49.5011C138.104 49.6154 137.875 49.5392 137.875 49.3487V33.8763C137.875 32.6187 138.904 31.5897 140.162 31.5897Z" fill="#DADAF5"/>
<path opacity="0.3" d="M125.909 8H91.9915C90.2766 8 88.9047 9.37193 88.9047 11.0869V24.1583C88.9047 25.8733 90.2766 27.2452 91.9915 27.2452H122.974C123.394 27.2452 123.775 27.3976 124.08 27.7025L128.538 32.1613C128.729 32.3518 128.996 32.1994 128.996 31.9708V11.0869C128.996 9.37193 127.586 8 125.909 8Z" fill="#DADAF5"/>
<path d="M274.116 175.948H176.289C175.641 175.948 175.108 175.414 175.108 174.766V40.2405C175.108 39.5926 175.641 39.0591 176.289 39.0591H274.116C274.764 39.0591 275.297 39.5926 275.297 40.2405V174.766C275.297 175.414 274.764 175.948 274.116 175.948Z" fill="#DADAF5"/>
<path d="M272.192 172.851V42.1742L178.176 42.1742L178.176 172.851L272.192 172.851Z" fill="#F6F6FE"/>
<path d="M237.035 149.157H200.184V148.052H235.93V139.096H237.035V149.157Z" fill="#DADAF5"/>
<path d="M238.522 96.1086C238.331 96.1086 238.141 96.1086 237.988 96.1086C225.755 96.1086 215.847 106.017 215.847 118.25C215.847 118.479 215.847 118.669 215.847 118.898C216.19 130.826 225.984 140.392 237.988 140.392C250.221 140.392 260.13 130.483 260.13 118.25C260.092 106.208 250.488 96.4135 238.522 96.1086ZM237.95 129.53C231.929 129.53 227.051 124.843 226.708 118.898C226.708 118.784 226.708 118.669 226.708 118.593C226.708 118.479 226.708 118.364 226.708 118.25C226.708 112.038 231.738 106.97 237.988 106.97H238.255C238.331 106.97 238.446 106.97 238.522 106.97C244.505 107.275 249.23 112.191 249.23 118.212C249.23 124.5 244.2 129.53 237.95 129.53Z" fill="white"/>
<path d="M238.521 96.1086V107.008C238.445 107.008 238.331 107.008 238.255 107.008H237.988C231.776 107.008 226.708 112.038 226.708 118.288C226.708 118.403 226.708 118.517 226.708 118.631C226.708 118.746 226.708 118.86 226.708 118.936H215.808C215.808 118.707 215.808 118.517 215.808 118.288C215.808 106.055 225.717 96.1467 237.95 96.1467C238.14 96.1086 238.331 96.1086 238.521 96.1086Z" fill="url(#paint0_linear)"/>
<path d="M218.819 103.083H217.752V97.8236H195.801V96.7184H218.819V103.083Z" fill="#DADAF5"/>
<path d="M197.707 94.2032H186.54V100.339H197.707V94.2032Z" fill="#7389FA"/>
<path d="M205.557 144.889H191.99V152.32H205.557V144.889Z" fill="#D8729C"/>
<path d="M240.046 67.8698H236.578V76.7873H240.046V67.8698Z" fill="#4F5CD3"/>
<path d="M246.677 62.8394H243.209V76.7874H246.677V62.8394Z" fill="#FB688F"/>
<path d="M253.27 68.7081H249.802V76.7492H253.27V68.7081Z" fill="#4F5CD3"/>
<path d="M259.901 63.3347H256.433V76.7873H259.901V63.3347Z" fill="#FB688F"/>
<path d="M262.416 52.626L261.806 55.789L260.739 54.6077L250.183 64.6685C250.107 64.7447 250.031 64.7828 249.955 64.7828C249.878 64.7828 249.764 64.7447 249.726 64.6685L244.619 58.914L238.255 65.9261C238.179 66.0023 238.103 66.0405 237.988 66.0405C237.912 66.0405 237.836 66.0023 237.76 65.9642C237.607 65.8499 237.607 65.6212 237.76 65.4688L244.352 58.1518C244.467 57.9994 244.734 57.9994 244.848 58.1518L249.955 63.9063L260.244 54.0741L259.177 52.9308L262.416 52.626Z" fill="#121C7C"/>
<path d="M213.56 63.9064C213.56 64.6685 212.95 65.2783 212.188 65.2783H186.16C185.397 65.2783 184.788 64.6685 184.788 63.9064C184.788 63.1442 185.397 62.5344 186.16 62.5344H212.188C212.95 62.5344 213.56 63.1442 213.56 63.9064Z" fill="#DADAF5"/>
<path d="M223.735 57.0467C223.735 57.8089 223.126 58.4187 222.363 58.4187H186.198C185.435 58.4187 184.826 57.8089 184.826 57.0467C184.826 56.2846 185.435 55.6748 186.198 55.6748H222.363C223.087 55.6748 223.735 56.3227 223.735 57.0467Z" fill="#DADAF5"/>
<path d="M56.664 204.949C57.1213 205.292 57.1975 205.902 56.8927 206.359C56.5497 206.816 55.9399 206.892 55.4826 206.588C55.0253 206.245 54.9491 205.635 55.2539 205.178C55.5969 204.682 56.2448 204.606 56.664 204.949Z" fill="white"/>
<path d="M21.8321 225.566C19.4313 225.071 16.9923 225.337 14.5533 225.337C13.1432 225.337 11.657 225.261 10.4375 224.613C9.94204 224.347 9.4466 223.965 9.17983 223.47C8.53197 222.289 9.06551 220.84 8.98929 219.469C8.83685 217.068 6.74085 215.315 4.75916 213.981C2.77748 212.647 0.567144 211.123 0.0717232 208.76C-0.156933 207.693 0.147928 206.359 1.17688 205.94C1.97717 205.635 3.00613 205.94 3.53966 205.292C3.76832 205.025 3.80643 204.682 3.88265 204.339C4.64484 199.042 3.311 193.478 5.06403 188.409C5.44513 187.266 6.093 186.085 7.19817 185.627C8.07468 185.246 9.10361 185.437 9.94202 185.932C10.7423 186.428 11.3521 187.19 11.8094 188.028C12.8383 189.972 13.0289 192.258 12.8764 194.431C12.724 196.641 12.2667 198.775 12.1143 200.986C12.0761 201.405 12.0761 201.862 12.1905 202.281C12.5335 203.234 13.7148 203.729 13.9435 204.72C16.4206 204.796 17.3352 200.719 19.8123 200.681C20.1172 200.681 20.4221 200.757 20.6126 200.986C20.727 201.138 20.8032 201.328 20.8413 201.519C21.0699 202.624 20.9937 203.806 20.5745 204.835C20.1172 205.978 19.3169 207.007 19.2026 208.226C19.1645 208.607 19.2026 209.027 19.3931 209.37C19.7742 210.056 20.6889 210.322 21.4892 210.322C22.2895 210.322 23.0897 210.094 23.89 210.208C25.1476 210.36 26.2528 211.199 26.9388 212.304C27.6247 213.371 27.9296 214.629 28.1964 215.886C28.6156 218.173 28.768 220.459 28.6537 222.784C28.5775 224.842 28.5012 227.853 27.4723 229.644C26.1004 227.433 24.3855 226.1 21.8321 225.566Z" fill="url(#paint1_linear)"/>
<path d="M32.9221 224.728C34.5227 220.459 40.6202 218.897 41.5348 214.438C41.7253 213.485 41.4205 212.19 40.4677 212.037C40.0485 211.961 39.6293 212.113 39.2101 212.152C37.8763 212.19 36.9998 210.627 37.1903 209.331C37.3809 208.036 38.2574 206.931 39.0577 205.902C41.1537 203.272 42.9829 200.452 44.6216 197.518C45.3076 196.298 45.8412 194.545 44.736 193.669C44.393 193.364 43.8976 193.249 43.4784 193.173C42.1445 192.868 40.6583 192.449 39.8961 191.306C39.0577 190.086 39.3626 188.448 39.5912 186.961C40.0485 184.179 40.201 181.321 40.2391 178.501C40.2772 176.862 40.1629 175.071 39.0577 173.928C37.5333 172.365 34.7513 172.823 33.1888 174.309C31.6264 175.795 31.0166 178.044 30.5974 180.178C29.9877 183.265 29.6828 186.428 29.6066 189.591C29.5685 191.649 29.6066 193.783 28.7301 195.612C28.6158 195.879 28.4633 196.146 28.1965 196.298C27.8917 196.489 27.5487 196.489 27.2057 196.45C26.4816 196.412 25.7575 196.374 24.9953 196.374C24.4237 196.336 23.814 196.336 23.2804 196.603C22.2134 197.136 21.9847 198.585 22.1372 199.766C22.7088 203.501 25.7957 206.549 26.0243 210.284C26.0624 210.741 26.0243 211.199 25.7956 211.58C25.3764 212.304 24.3856 212.456 23.6996 212.952C22.8612 213.562 22.5183 214.667 22.6326 215.696C22.7469 216.725 23.2042 217.677 23.7378 218.554C25.3765 221.298 27.5868 223.584 29.4542 226.176C29.9877 226.938 30.6736 228.882 31.855 228.386C32.884 227.814 32.5791 225.642 32.9221 224.728Z" fill="url(#paint2_linear)"/>
<path d="M45.7649 223.775C46.489 223.813 47.2512 223.889 47.9753 223.737C48.6612 223.622 49.3091 223.318 49.9188 222.975C50.8716 222.479 51.8243 221.869 52.434 220.955C53.0438 220.078 53.2343 218.821 52.6627 217.906C52.0529 216.953 50.7572 216.496 50.338 215.467C49.995 214.591 50.3761 213.562 51.0621 212.914C51.7481 212.266 52.6627 211.923 53.5392 211.656C55.9401 210.932 58.6459 210.475 60.2464 208.531C60.6275 208.074 60.9324 207.54 60.8943 206.931C60.8562 205.635 59.2175 204.453 59.8272 203.31C60.2083 202.586 61.1611 202.472 61.9614 202.434C63.0665 202.357 64.1717 202.243 65.1626 201.824C66.1534 201.367 67.068 200.566 67.3348 199.499C67.4872 199.004 67.4872 198.47 67.4872 197.937C67.4872 197.67 67.4872 197.403 67.2967 197.213C67.1823 197.06 66.9918 197.022 66.8394 196.946C62.6855 195.574 57.998 195.726 53.9203 197.403C52.8532 197.822 51.8624 198.394 51.0621 199.194C49.9188 200.338 49.3472 201.938 48.3564 203.234C47.3655 204.53 45.6506 205.559 44.1643 204.873C43.0592 204.377 42.5256 203.082 41.5729 202.357C40.8869 201.824 39.9723 201.557 39.0958 201.672C38.9815 201.672 38.829 201.71 38.7528 201.786C38.6385 201.862 38.6385 202.014 38.6004 202.167C38.3336 203.501 38.3717 204.911 38.6385 206.245C38.9434 207.617 39.515 209.065 38.9052 210.322C38.143 211.847 36.0852 212.152 34.8657 213.333C33.7605 214.4 33.4937 216.077 33.4175 217.639C33.2269 221.45 33.4556 226.061 34.637 229.682C35.3611 229.491 36.1614 227.967 36.733 227.395C37.5333 226.595 38.4479 225.909 39.4388 225.376C41.3823 224.308 43.5546 223.737 45.7649 223.775Z" fill="url(#paint3_linear)"/>
<path d="M29.073 238.638C28.0822 234.217 26.9389 225.566 24.6904 221.526C24.0045 220.269 22.8993 218.478 21.2224 217.22C20.384 216.61 19.5076 216.153 18.631 215.734L15.2393 214.057C14.2866 213.6 13.3338 213.104 12.5336 212.456C11.657 211.732 10.9711 210.78 10.3232 209.865C8.76072 207.617 7.27446 205.178 6.85526 202.472C6.47417 200.071 6.96958 197.708 7.465 195.155C7.8842 192.944 8.34152 190.658 8.18908 188.371L6.77904 188.448C6.93147 190.582 6.47417 192.754 6.09307 194.888C5.59765 197.441 5.06413 200.033 5.48333 202.7C5.94065 205.711 7.54122 208.303 9.17992 210.703C9.86588 211.694 10.6281 212.761 11.657 213.6C12.5716 214.362 13.6006 214.857 14.6296 215.353L18.0213 217.03C18.8597 217.449 19.6981 217.868 20.4222 218.401C21.5273 219.24 22.5182 220.459 23.509 222.251C25.605 226.023 26.7102 234.484 27.6629 238.676H29.073V238.638Z" fill="#C8C8EE"/>
<path d="M54.1869 200.909C51.0619 203.615 48.7373 207.083 46.4508 210.399L46.3745 210.513C45.6504 211.618 44.8502 212.761 43.9355 213.714C43.5545 214.133 43.1352 214.476 42.716 214.895C42.2968 215.277 41.8395 215.696 41.4203 216.115C40.3913 217.22 39.553 218.44 38.6764 219.812C37.3807 221.793 35.9326 224.118 34.7512 226.595C33.5698 229.11 32.7314 235.932 32.236 238.638H33.6841C34.1796 236.122 34.9417 229.491 36.0088 227.167C37.114 224.804 38.5621 222.517 39.8197 220.574C40.6581 219.278 41.4584 218.097 42.4112 217.106C42.7923 216.725 43.2115 216.344 43.6307 215.962C44.0499 215.581 44.5072 215.162 44.9264 214.743C45.9172 213.676 46.7175 212.495 47.5178 211.351L47.594 211.237C49.8044 207.96 52.0909 204.568 55.0634 202.014C58.379 199.156 62.2661 197.746 65.6959 198.089L65.8484 196.679C62.0375 196.222 57.7692 197.784 54.1869 200.909Z" fill="#C8C8EE"/>
<path d="M32.0837 238.638C29.8734 226.862 30.5593 212.19 34.1797 203.386C34.294 203.082 34.4465 202.739 34.5608 202.434C35.0181 201.367 35.4755 200.261 35.7803 199.118C36.3901 196.908 36.352 194.621 36.352 192.411L36.2757 176.176H34.8657L34.9419 192.411C34.9419 194.507 34.9419 196.717 34.4084 198.737C34.1416 199.804 33.6843 200.795 33.227 201.9C33.0745 202.205 32.9602 202.548 32.8078 202.853C29.1112 211.847 28.3871 226.709 30.5975 238.638H32.0837Z" fill="#C8C8EE"/>
<path opacity="0.3" d="M48.3563 220.459C48.8136 220.802 48.8898 221.412 48.5849 221.869C48.242 222.327 47.6322 222.403 47.1749 222.098C46.7176 221.755 46.6413 221.145 46.9462 220.688C47.2511 220.231 47.899 220.116 48.3563 220.459Z" fill="white"/>
<path opacity="0.3" d="M42.6399 206.397C43.0972 206.74 43.1734 207.35 42.8686 207.807C42.5637 208.264 41.9159 208.341 41.4585 208.036C41.0012 207.731 40.925 207.083 41.2298 206.626C41.5347 206.168 42.1826 206.054 42.6399 206.397Z" fill="white"/>
<path opacity="0.3" d="M40.3151 196.451C40.7724 196.794 40.8486 197.403 40.5438 197.861C40.2008 198.318 39.591 198.394 39.1337 198.089C38.6764 197.784 38.6002 197.136 38.905 196.679C39.2099 196.222 39.8578 196.108 40.3151 196.451Z" fill="white"/>
<path opacity="0.3" d="M34.1793 210.513C34.6366 210.208 35.2845 210.36 35.5894 210.818C35.8943 211.275 35.7418 211.923 35.2845 212.228C34.8272 212.533 34.1794 212.38 33.8745 211.923C33.5696 211.427 33.6839 210.818 34.1793 210.513Z" fill="white"/>
<path opacity="0.3" d="M25.4907 199.194C25.948 198.89 26.5959 199.042 26.9007 199.499C27.2056 199.957 27.0532 200.604 26.5959 200.909C26.1386 201.214 25.4907 201.062 25.1858 200.604C24.881 200.109 25.0334 199.499 25.4907 199.194Z" fill="white"/>
<path opacity="0.3" d="M30.9022 186.161C31.0546 185.627 31.6263 185.323 32.1598 185.475C32.6933 185.627 32.9982 186.199 32.8457 186.733C32.6933 187.266 32.1217 187.571 31.5882 187.419C31.0546 187.266 30.7497 186.695 30.9022 186.161Z" fill="white"/>
<path opacity="0.3" d="M3.53989 209.751C3.00636 209.56 2.77771 208.95 2.96825 208.417C3.1588 207.883 3.76855 207.655 4.30208 207.845C4.83561 208.036 5.06427 208.646 4.87372 209.179C4.64506 209.713 4.07342 209.979 3.53989 209.751Z" fill="white"/>
<path opacity="0.3" d="M18.5549 211.123C18.4787 211.694 17.9833 212.075 17.4498 212.037C16.8781 211.961 16.497 211.466 16.5351 210.932C16.6113 210.36 17.1068 209.979 17.6403 210.017C18.2119 210.056 18.6311 210.551 18.5549 211.123Z" fill="white"/>
<path opacity="0.3" d="M19.5837 222.289C19.5837 222.86 19.1264 223.318 18.5547 223.318C17.9831 223.318 17.5258 222.86 17.5258 222.289C17.5258 221.717 17.9831 221.26 18.5547 221.26C19.1264 221.26 19.5837 221.717 19.5837 222.289Z" fill="white"/>
<path opacity="0.3" d="M45.9174 82.7705H19.5839C17.4879 82.7705 15.811 84.4854 15.811 86.5433V102.549C15.811 104.645 17.526 106.322 19.5839 106.322H42.3351C42.8305 106.322 43.3259 106.513 43.6689 106.894L49.1186 112.343C49.3472 112.572 49.6902 112.42 49.6902 112.115V86.5814C49.6902 84.4473 48.0134 82.7705 45.9174 82.7705Z" fill="#DADAF5"/>
<path d="M32.3886 90.0113C32.3886 90.2781 32.1599 90.5067 31.8931 90.5067H19.317C19.0503 90.5067 18.8217 90.2781 18.8217 90.0113C18.8217 89.7445 19.0503 89.5159 19.317 89.5159H31.8931C32.1599 89.5159 32.3886 89.7445 32.3886 90.0113Z" fill="#C8C8EE"/>
<path d="M32.3886 94.1652C32.3886 94.432 32.1599 94.6606 31.8931 94.6606H19.317C19.0503 94.6606 18.8217 94.432 18.8217 94.1652C18.8217 93.8985 19.0503 93.6698 19.317 93.6698H31.8931C32.1599 93.6698 32.3886 93.8985 32.3886 94.1652Z" fill="#C8C8EE"/>
<path d="M26.3292 98.319C26.3292 98.5858 26.1005 98.8144 25.8338 98.8144H19.317C19.0503 98.8144 18.8217 98.5858 18.8217 98.319C18.8217 98.0523 19.0503 97.8236 19.317 97.8236H25.8338C26.1005 97.7855 26.3292 98.0142 26.3292 98.319Z" fill="#C8C8EE"/>
<path d="M47.1749 93.9365L40.7725 93.5935L41.1917 87.1912C41.2298 87.1912 41.2679 87.1912 41.3441 87.1912C44.7359 87.496 47.3654 90.5067 47.1749 93.9365Z" fill="white"/>
<path d="M39.4765 94.7367L45.8789 95.1178C45.6883 98.4714 42.8682 101.101 39.4765 101.101C35.9704 101.101 33.0742 98.2047 33.0742 94.6986C33.0742 91.1926 35.9704 88.2963 39.4765 88.2963C39.5908 88.2963 39.7052 88.2963 39.8195 88.2963L39.4765 94.7367Z" fill="#FED8D8"/>
<path d="M43.326 239.59L38.9815 263.218C38.8291 264.133 38.0288 264.78 37.1142 264.78H25.4146C24.5 264.78 23.6997 264.133 23.5473 263.218L22.9756 260.169L19.2028 239.59C18.9741 238.409 19.8888 237.342 21.0702 237.342H41.4586C41.6111 237.342 41.7635 237.342 41.9159 237.38C42.8306 237.609 43.4784 238.561 43.326 239.59Z" fill="#FB688F"/>
<path d="M43.3256 239.59L38.9812 263.218C38.8288 264.133 38.0285 264.78 37.1139 264.78H25.4143C24.4996 264.78 23.6994 264.133 23.547 263.218L22.9753 260.169C23.4326 258.988 23.6613 257.654 24.3853 256.587C25.3381 255.253 26.9768 254.643 28.3868 253.805C32.3121 251.518 34.713 247.403 37.1139 243.554C38.4858 241.381 40.0483 239.133 41.9156 237.38C42.8302 237.609 43.4781 238.561 43.3256 239.59Z" fill="#FF4F7C"/>
<path d="M284.748 265.962H5.94077C5.40724 265.962 4.98804 265.543 4.98804 265.009C4.98804 264.476 5.40724 264.056 5.94077 264.056H284.748C285.282 264.056 285.701 264.476 285.701 265.009C285.701 265.543 285.282 265.962 284.748 265.962Z" fill="#C5CCED"/>
<defs>
<linearGradient id="paint0_linear" x1="255.664" y1="107.516" x2="252.824" y2="107.516" gradientUnits="userSpaceOnUse">
<stop offset="1.1e-07" stop-color="#F5F5FF"/>
<stop offset="1" stop-color="#CFCFF2"/>
</linearGradient>
<linearGradient id="paint1_linear" x1="-0.036242" y1="207.499" x2="28.6489" y2="207.499" gradientUnits="userSpaceOnUse">
<stop offset="1.1e-07" stop-color="#F5F5FF"/>
<stop offset="1" stop-color="#CFCFF2"/>
</linearGradient>
<linearGradient id="paint2_linear" x1="22.0803" y1="200.602" x2="45.3239" y2="200.602" gradientUnits="userSpaceOnUse">
<stop offset="1.1e-07" stop-color="#F5F5FF"/>
<stop offset="1" stop-color="#CFCFF2"/>
</linearGradient>
<linearGradient id="paint3_linear" x1="33.7231" y1="212.187" x2="66.7033" y2="213.855" gradientUnits="userSpaceOnUse">
<stop offset="1.1e-07" stop-color="#F5F5FF"/>
<stop offset="1" stop-color="#CFCFF2"/>
</linearGradient>
</defs>
</svg>
