<svg width="366" height="235" viewBox="0 0 366 235" fill="none" xmlns="http://www.w3.org/2000/svg">
<path d="M77.2679 203.66H64.4302C63.4427 203.66 62.6294 202.847 62.6294 201.86V191.52C62.6294 190.532 63.4427 189.719 64.4302 189.719H77.2679C78.2554 189.719 79.0686 190.532 79.0686 191.52V201.918C79.0686 202.847 78.2554 203.66 77.2679 203.66Z" fill="#DADAF5"/>
<path d="M77.2099 189.719H74.9445V203.66H77.2099C78.1975 203.66 79.0107 202.847 79.0107 201.86V191.52C79.0688 190.532 78.2556 189.719 77.2099 189.719Z" fill="#C8C8EE"/>
<path d="M332.607 47.355C340.11 135.124 272.588 212.567 181.792 220.329C90.996 228.09 11.3092 163.231 3.80648 75.4617C-3.69627 -12.3076 77.411 69.1696 168.207 61.4081C259.003 53.6467 325.105 -40.4143 332.607 47.355Z" fill="#FFF8D8" fill-opacity="0.67"/>
<path opacity="0.5" d="M357.142 197.851H77.0939C72.621 197.851 68.9614 194.25 68.9614 189.719V8.13224C68.9614 3.65937 72.5629 -0.000244141 77.0939 -0.000244141H357.142C361.615 -0.000244141 365.274 3.60128 365.274 8.13224V189.719C365.274 194.192 361.615 197.851 357.142 197.851Z" fill="#F6F6FE"/>
<path d="M326.18 228H46.1325C41.6596 228 38 224.398 38 219.867V38.2805C38 33.8076 41.6016 30.148 46.1325 30.148H326.18C330.653 30.148 334.313 33.7495 334.313 38.2805V219.867C334.313 224.398 330.653 228 326.18 228Z" fill="#EAEAFA"/>
<path d="M100.504 203.66H87.6659C86.6783 203.66 85.8651 202.847 85.8651 201.86V179.553C85.8651 178.566 86.6783 177.753 87.6659 177.753H100.504C101.491 177.753 102.304 178.566 102.304 179.553V201.86C102.246 202.847 101.491 203.66 100.504 203.66Z" fill="#FFA668"/>
<path d="M100.446 177.811H98.1801V203.66H100.446C101.433 203.66 102.246 202.847 102.246 201.86V179.669C102.246 178.624 101.433 177.811 100.446 177.811Z" fill="#F49758"/>
<path d="M123.681 203.66H110.844C109.856 203.66 109.043 202.847 109.043 201.86V166.483C109.043 165.496 109.856 164.683 110.844 164.683H123.681C124.669 164.683 125.482 165.496 125.482 166.483V201.86C125.482 202.847 124.669 203.66 123.681 203.66Z" fill="#FCB3B3"/>
<path d="M123.624 164.683H121.358V203.602H123.624C124.611 203.602 125.424 202.789 125.424 201.801V166.541C125.482 165.496 124.669 164.683 123.624 164.683Z" fill="#FC8E8E"/>
<path d="M146.917 203.66H134.08C133.092 203.66 132.279 202.847 132.279 201.86V149.812C132.279 148.824 133.092 148.011 134.08 148.011H146.917C147.905 148.011 148.718 148.824 148.718 149.812V201.86C148.66 202.847 147.847 203.66 146.917 203.66Z" fill="#FB688F"/>
<path d="M146.859 148.011H144.594V203.602H146.859C147.847 203.602 148.66 202.789 148.66 201.802V149.812C148.66 148.824 147.847 148.011 146.859 148.011Z" fill="#FF4F7C"/>
<path opacity="0.5" d="M131.175 55.5329V107.755C131.175 113.68 126.353 118.443 120.486 118.443H63.8494C57.9243 118.443 53.161 113.622 53.161 107.755V55.5329C53.161 49.6078 57.9824 44.7864 63.8494 44.7864H120.486C126.411 44.7864 131.175 49.6078 131.175 55.5329Z" fill="white"/>
<path opacity="0.5" d="M149.705 65.0596V123.904C149.705 130.584 144.303 135.986 137.622 135.986H73.8406C67.1603 135.986 61.7581 130.584 61.7581 123.904V65.0596C61.7581 58.3794 67.1603 52.9771 73.8406 52.9771H137.622C144.303 52.9771 149.705 58.3794 149.705 65.0596Z" fill="white"/>
<path d="M118.685 64.3626H72.6787V66.8024H118.685V64.3626Z" fill="#EAEAFA"/>
<path d="M105.673 72.5531H72.6787V74.9929H105.673V72.5531Z" fill="#EAEAFA"/>
<path d="M84.1804 80.8017H72.6787V83.2414H84.1804V80.8017Z" fill="#EAEAFA"/>
<path d="M118.685 89.0505H72.6787V91.4903H118.685V89.0505Z" fill="#EAEAFA"/>
<path d="M200.301 133.489C202.566 136.277 203.902 139.82 203.902 143.654C203.902 152.542 196.699 159.745 187.812 159.745C178.924 159.745 171.721 152.542 171.721 143.654C171.721 141.214 172.302 138.833 173.289 136.742L169.514 134.128C168.003 136.974 167.19 140.169 167.19 143.596C167.19 154.982 176.426 164.218 187.812 164.218C199.197 164.218 208.433 154.982 208.433 143.596C208.433 138.6 206.633 133.953 203.67 130.41L200.301 133.489Z" fill="#FCB3B3"/>
<path d="M187.812 127.564C191.995 127.564 195.828 129.19 198.733 131.862L202.16 128.783C198.442 125.182 193.389 122.974 187.87 122.974C180.725 122.974 174.393 126.634 170.734 132.153L174.51 134.708C177.298 130.41 182.236 127.564 187.812 127.564Z" fill="#C8C8EE"/>
<path d="M237.769 159.745C228.881 159.745 221.678 152.542 221.678 143.654C221.678 140.634 222.549 137.787 223.943 135.406L220.109 132.966C218.193 136.103 217.089 139.762 217.089 143.712C217.089 155.098 226.325 164.334 237.711 164.334C244.333 164.334 250.258 161.197 254.034 156.318L250.316 153.704C247.411 157.363 242.881 159.745 237.769 159.745Z" fill="#FB688F"/>
<path d="M237.769 127.564C241.951 127.564 245.785 129.132 248.631 131.804L251.768 128.493C248.108 125.066 243.171 122.974 237.769 122.974C231.147 122.974 225.221 126.111 221.446 130.991L225.279 133.489C228.242 129.887 232.715 127.564 237.769 127.564Z" fill="white"/>
<path d="M250.2 133.431C252.465 136.219 253.859 139.762 253.859 143.654C253.859 146.617 253.046 149.405 251.652 151.787L255.37 154.401C257.287 151.264 258.39 147.604 258.39 143.654C258.39 138.484 256.473 133.779 253.337 130.12L250.2 133.431Z" fill="#C8C8EE"/>
<path d="M288.364 123.033V127.622C296.903 127.97 303.758 135.057 303.758 143.654C303.758 152.542 296.555 159.745 287.667 159.745C279.07 159.745 272.041 152.949 271.635 144.468H267.046C267.452 155.446 276.572 164.276 287.667 164.276C299.053 164.276 308.289 155.04 308.289 143.654C308.347 132.501 299.459 123.381 288.364 123.033Z" fill="#C8C8EE"/>
<path d="M306.488 182.342H166.668V185.827H306.488V182.342Z" fill="#DADAF5"/>
<path d="M284.182 192.159H166.668V195.644H284.182V192.159Z" fill="#DADAF5"/>
<path d="M236.142 202.034H166.668V205.519H236.142V202.034Z" fill="#DADAF5"/>
</svg>
