<svg width="357" height="228" viewBox="0 0 357 228" fill="none" xmlns="http://www.w3.org/2000/svg">
<path d="M34.435 66.169C33.9819 66.169 33.5289 66.169 33.0758 66.169L33.1405 64.0243C35.2765 64.0873 37.4771 63.9612 39.5484 63.6458L39.9367 65.7906C38.1244 66.0429 36.3121 66.169 34.435 66.169ZM26.2796 65.2228C24.0142 64.7182 21.8783 63.8981 19.8071 62.9519L20.7779 60.9963C22.7197 61.8795 24.7262 62.5734 26.8622 63.078L26.2796 65.2228ZM46.6035 64.0243L45.8268 62.0056C47.8333 61.2486 49.775 60.3024 51.5873 59.1669L52.8171 60.9963C50.8106 62.1949 48.7394 63.2042 46.6035 64.0243ZM13.917 59.4823C12.1047 58.1576 10.4218 56.5806 8.86842 54.9404L10.5514 53.4895C11.9753 55.0666 13.5287 56.5175 15.2763 57.7791L13.917 59.4823ZM58.1246 56.8329L56.5712 55.2558C58.1246 53.805 59.4839 52.1648 60.7137 50.4616L62.5259 51.6602C61.2314 53.4896 59.7428 55.2558 58.1246 56.8329ZM4.92018 49.4523C3.75512 47.4968 2.84901 45.415 2.13703 43.3333L4.27293 42.6394C4.92018 44.595 5.82634 46.5505 6.86195 48.3799L4.92018 49.4523ZM65.8269 45.7935L63.7557 44.9735C64.5972 43.0179 65.1797 40.9993 65.5681 38.9807C65.9564 37.0251 66.1505 35.0696 66.1505 33.1141V32.9248H68.3512V33.1141C68.3512 35.2588 68.1571 37.3406 67.704 39.4223C67.3156 41.5671 66.6684 43.7118 65.8269 45.7935ZM0.64831 36.7728C0.518859 35.5742 0.454102 34.3126 0.454102 33.1141C0.454102 32.1047 0.518875 31.0954 0.5836 30.023L2.78428 30.2123C2.71956 31.1585 2.65479 32.1047 2.65479 33.051C2.65479 34.1864 2.71954 35.3219 2.84899 36.4574L0.64831 36.7728ZM65.5033 26.6166C65.0502 24.598 64.403 22.5793 63.5615 20.6869L65.5681 19.8037C66.4742 21.8224 67.1862 23.9672 67.704 26.175L65.5033 26.6166ZM4.01401 24.0933L1.87811 23.4625C2.52537 21.3177 3.43151 19.236 4.53184 17.2805L6.47361 18.2898C5.50273 20.1822 4.66126 22.0747 4.01401 24.0933ZM60.3252 15.1987C59.0955 13.4955 57.6715 11.9185 56.1181 10.4676L57.6715 8.89054C59.3544 10.4045 60.8431 12.1077 62.2023 13.9371L60.3252 15.1987ZM10.1629 13.1801L8.48009 11.7923C9.96877 10.0891 11.6516 8.51205 13.3992 7.12425L14.7585 8.82747C13.0756 10.0891 11.5222 11.54 10.1629 13.1801ZM51.0048 6.68266C49.1925 5.61027 47.2507 4.66405 45.1795 3.97014L45.9562 1.95151C48.0921 2.7085 50.2281 3.65473 52.1698 4.85329L51.0048 6.68266ZM20.1954 5.42102L19.2245 3.4655C21.2957 2.45618 23.4317 1.63611 25.6324 1.06837L26.2149 3.15009C24.1437 3.71782 22.1372 4.47479 20.1954 5.42102ZM38.9658 2.45618C36.8299 2.14077 34.694 2.07769 32.558 2.20386L32.4285 0.0590501C34.6939 -0.067114 37.024 -0.00403202 39.2894 0.37446L38.9658 2.45618Z" fill="#DADAF5"/>
<path d="M322.46 151.786C322.007 151.786 321.554 151.786 321.101 151.786L321.166 149.641C323.302 149.705 325.503 149.578 327.574 149.263L327.962 151.408C326.15 151.66 324.337 151.786 322.46 151.786ZM314.305 150.84C312.04 150.335 309.904 149.515 307.832 148.569L308.803 146.613C310.745 147.497 312.752 148.191 314.888 148.695L314.305 150.84ZM334.629 149.641L333.852 147.623C335.859 146.866 337.8 145.92 339.613 144.784L340.842 146.613C338.836 147.812 336.765 148.821 334.629 149.641ZM301.942 145.1C300.13 143.775 298.447 142.198 296.894 140.558L298.577 139.107C300.001 140.684 301.554 142.135 303.302 143.396L301.942 145.1ZM346.15 142.45L344.597 140.873C346.15 139.422 347.509 137.782 348.739 136.079L350.551 137.277C349.257 139.107 347.768 140.873 346.15 142.45ZM292.946 135.069C291.781 133.114 290.874 131.032 290.162 128.951L292.298 128.257C292.946 130.212 293.852 132.168 294.887 133.997L292.946 135.069ZM353.852 131.411L351.781 130.591C352.623 128.635 353.205 126.616 353.593 124.598C353.982 122.642 354.176 120.687 354.176 118.731V118.542H356.377V118.731C356.377 120.876 356.182 122.958 355.729 125.039C355.341 127.184 354.694 129.329 353.852 131.411ZM288.674 122.39C288.544 121.191 288.479 119.93 288.479 118.731C288.479 117.722 288.544 116.713 288.609 115.64L290.81 115.829C290.745 116.776 290.68 117.722 290.68 118.668C290.68 119.804 290.745 120.939 290.874 122.075L288.674 122.39ZM353.529 112.234C353.076 110.215 352.428 108.197 351.587 106.304L353.593 105.421C354.5 107.44 355.212 109.584 355.729 111.792L353.529 112.234ZM292.039 109.711L289.904 109.08C290.551 106.935 291.457 104.853 292.557 102.898L294.499 103.907C293.528 105.799 292.687 107.692 292.039 109.711ZM348.351 100.816C347.121 99.1127 345.697 97.5357 344.143 96.0848L345.697 94.5077C347.38 96.0217 348.868 97.7249 350.228 99.5543L348.351 100.816ZM298.188 98.7973L296.505 97.4095C297.994 95.7063 299.677 94.1292 301.425 92.7414L302.784 94.4447C301.101 95.7063 299.548 97.1572 298.188 98.7973ZM339.03 92.2999C337.218 91.2275 335.276 90.2812 333.205 89.5873L333.982 87.5687C336.118 88.3257 338.253 89.2719 340.195 90.4705L339.03 92.2999ZM308.221 91.0382L307.25 89.0827C309.321 88.0734 311.457 87.2533 313.658 86.6856L314.24 88.7673C312.169 89.335 310.163 90.092 308.221 91.0382ZM326.991 88.0734C324.855 87.758 322.719 87.6949 320.583 87.821L320.454 85.6762C322.719 85.5501 325.049 85.6132 327.315 85.9916L326.991 88.0734Z" fill="#DADAF5"/>
<path d="M222.503 54.4238C240.523 61.1549 250.018 74.6827 262.027 86.254C273.648 97.4515 288.243 107.699 291.91 121.302C295.644 135.154 289.105 149.024 282.541 162.35C275.7 176.238 268.529 190.557 252.951 200.394C236.907 210.525 216.015 217.679 194.42 217.994C173.533 218.298 156.614 207.407 137.155 202.083C117.413 196.682 93.6271 196.99 78.8216 186.366C63.6704 175.495 58.8201 159.454 56.6732 144.336C54.5758 129.566 57.2327 114.408 66.7184 101.136C75.856 88.3509 93.0802 80.0768 108.997 71.126C125.117 62.0605 140.339 51.3345 160.57 48.3576C181.323 45.3037 203.79 47.4343 222.503 54.4238Z" fill="#FFF8D8"/>
<path d="M203.19 149.328C202.698 149.595 202.157 149.722 201.621 149.722C200.768 149.722 199.925 149.393 199.292 148.76L176.467 125.935C175.843 125.311 175.5 124.468 175.5 123.602C175.5 124.468 175.157 125.311 174.533 125.935L151.708 148.76C151.075 149.393 150.231 149.722 149.379 149.722C148.842 149.722 148.302 149.595 147.81 149.328L90.9053 118.485V180.749C90.9049 180.864 90.9106 180.977 90.922 181.089C90.9268 181.137 90.9361 181.184 90.9427 181.231C90.951 181.288 90.9576 181.346 90.969 181.402C90.9831 181.475 91.0024 181.544 91.0209 181.613C91.0297 181.646 91.0363 181.678 91.0459 181.711C91.0675 181.782 91.0934 181.85 91.1193 181.919C91.1307 181.95 91.1404 181.981 91.1532 182.012C91.1786 182.074 91.2081 182.134 91.2371 182.194C91.2551 182.231 91.2714 182.268 91.2907 182.305C91.3171 182.353 91.3461 182.401 91.3746 182.448C91.4019 182.493 91.4278 182.539 91.4568 182.584C91.481 182.621 91.5082 182.655 91.5342 182.69C91.5715 182.742 91.6084 182.794 91.6489 182.844C91.6713 182.872 91.6963 182.897 91.7196 182.924C91.7662 182.978 91.8128 183.031 91.8629 183.082C91.8892 183.108 91.9174 183.132 91.9446 183.157C91.9947 183.205 92.0439 183.252 92.0971 183.296C92.1485 183.339 92.203 183.377 92.2566 183.417C92.2883 183.44 92.3177 183.464 92.3502 183.487C92.4447 183.551 92.5427 183.609 92.6438 183.664L173.932 227.604C174.422 227.868 174.961 228 175.5 228C176.039 228 176.578 227.868 177.067 227.604L258.355 183.664C258.456 183.609 258.554 183.55 258.649 183.487C258.681 183.464 258.711 183.44 258.742 183.417C258.796 183.377 258.851 183.338 258.902 183.296C258.955 183.252 259.004 183.205 259.054 183.157C259.081 183.132 259.11 183.108 259.136 183.082C259.186 183.031 259.232 182.978 259.279 182.924C259.302 182.897 259.327 182.872 259.35 182.844C259.39 182.794 259.427 182.743 259.464 182.69C259.49 182.655 259.518 182.621 259.542 182.584C259.571 182.539 259.597 182.494 259.624 182.448C259.653 182.4 259.682 182.353 259.708 182.305C259.727 182.268 259.744 182.231 259.762 182.194C259.791 182.134 259.82 182.074 259.845 182.012C259.858 181.981 259.868 181.95 259.879 181.919C259.905 181.851 259.931 181.782 259.953 181.711C259.962 181.679 259.969 181.646 259.978 181.613C259.996 181.544 260.016 181.475 260.03 181.402C260.041 181.346 260.048 181.288 260.056 181.231C260.063 181.184 260.072 181.137 260.077 181.089C260.088 180.977 260.094 180.863 260.093 180.749V118.485L203.19 149.328Z" fill="#CFD6FF"/>
<path d="M173.773 32.0233C174.687 31.5316 175.315 30.6303 175.465 29.6019C175.487 29.4442 175.5 29.286 175.5 29.1273C175.5 29.286 175.513 29.4442 175.535 29.5975C175.684 30.6259 176.313 31.5228 177.227 32.0189L258.526 75.9643C259.022 76.2328 259.558 76.3598 260.095 76.3598C259.558 76.3598 259.022 76.4921 258.526 76.7597L177.227 120.705C176.313 121.198 175.684 122.098 175.535 123.127C175.513 123.285 175.5 123.443 175.5 123.601C175.5 123.443 175.487 123.285 175.465 123.127C175.315 122.098 174.687 121.198 173.773 120.705L92.4736 76.7597C92.0386 76.5273 91.5728 76.395 91.1069 76.3642C91.5728 76.3335 92.0386 76.2021 92.4736 75.9687L173.773 32.0233Z" fill="#B2BDED"/>
<path d="M285.961 49.7605C286.111 50.7888 285.772 51.8255 285.038 52.5638L262.433 75.3855C261.8 76.0267 260.952 76.3607 260.095 76.3607C259.559 76.3607 259.023 76.2337 258.526 75.9652L177.227 32.0198C176.313 31.5236 175.685 30.6267 175.535 29.5984C175.513 29.4446 175.5 29.2868 175.5 29.1282C175.5 29.1238 175.5 29.1238 175.5 29.1194C175.5 28.2541 175.843 27.4095 176.467 26.7907L199.292 3.96503C200.32 2.93231 201.907 2.70423 203.19 3.39857L284.269 47.344C285.183 47.8353 285.807 48.7322 285.961 49.7605Z" fill="#9AA9E2"/>
<path d="M285.038 100.161C285.772 100.899 286.111 101.937 285.961 102.965C285.807 103.989 285.183 104.885 284.269 105.382L203.19 149.328C202.698 149.595 202.157 149.722 201.621 149.722C200.769 149.722 199.925 149.393 199.292 148.76L176.467 125.935C175.843 125.311 175.5 124.468 175.5 123.602C175.5 123.444 175.513 123.286 175.535 123.127C175.685 122.099 176.313 121.198 177.227 120.706L258.526 76.7601C259.023 76.4925 259.559 76.3602 260.095 76.3602C260.952 76.3602 261.8 76.6986 262.433 77.3363L285.038 100.161Z" fill="#D5DBFE"/>
<path d="M285.038 100.161L262.433 77.3363C261.8 76.6986 260.952 76.3602 260.095 76.3602C259.559 76.3602 259.022 76.4925 258.526 76.7601L249.942 81.4025C250.439 81.1349 250.975 81.0026 251.511 81.0026C252.368 81.0026 253.216 81.341 253.849 81.9787L276.455 104.803C277.189 105.542 277.527 106.579 277.378 107.608C277.224 108.632 276.6 109.528 275.686 110.025L284.269 105.382C285.183 104.885 285.807 103.989 285.961 102.965C286.11 101.937 285.772 100.899 285.038 100.161Z" fill="#CFD6FF"/>
<path d="M175.5 29.1189C175.5 29.1233 175.5 29.1233 175.5 29.1277C175.5 29.2863 175.487 29.4445 175.465 29.6023C175.315 30.6306 174.687 31.532 173.773 32.0237L92.4737 75.9691C92.0386 76.2025 91.5728 76.3339 91.107 76.3646C91.0147 76.3602 90.918 76.3602 90.8257 76.3646C89.9952 76.3475 89.1822 76.0135 88.5669 75.3939L65.9614 52.5677C65.2275 51.8295 64.8892 50.7928 65.0386 49.7645C65.1924 48.7405 65.8164 47.8436 66.7305 47.3475L147.81 3.40207C149.093 2.70773 150.679 2.9402 151.708 3.96852L174.533 26.7942C175.157 27.4187 175.495 28.258 175.5 29.1189Z" fill="#9AA9E2"/>
<path d="M175.465 123.127C175.487 123.286 175.5 123.444 175.5 123.602C175.5 124.468 175.157 125.311 174.533 125.935L151.708 148.76C151.075 149.393 150.231 149.722 149.379 149.722C148.842 149.722 148.302 149.595 147.81 149.328L66.7305 105.382C65.8164 104.885 65.1924 103.989 65.0386 102.965C64.8892 101.937 65.2275 100.899 65.9614 100.161L88.5669 77.3363C89.1822 76.7166 89.9952 76.3826 90.8257 76.3646C90.8521 76.369 90.8785 76.369 90.9048 76.369C90.9707 76.369 91.0367 76.369 91.107 76.3646C91.5728 76.3954 92.0386 76.5277 92.4737 76.7601L173.773 120.706C174.687 121.198 175.315 122.099 175.465 123.127Z" fill="#D1D7FC"/>
<path d="M91.1069 76.3646C91.0366 76.369 90.9707 76.369 90.9048 76.369C90.8784 76.369 90.8521 76.369 90.8257 76.3646C90.918 76.3602 91.0146 76.3602 91.1069 76.3646Z" fill="#9AA9E2"/>
<path d="M259.142 119.001C259.099 119.084 259.055 119.114 259.01 119.073H259.009L246.909 125.631V187.891C246.909 188.005 246.904 188.119 246.893 188.231C246.888 188.279 246.879 188.325 246.872 188.372C246.864 188.43 246.857 188.487 246.846 188.544C246.831 188.616 246.812 188.686 246.794 188.755C246.785 188.788 246.778 188.82 246.769 188.852C246.747 188.923 246.721 188.992 246.695 189.061C246.684 189.092 246.674 189.123 246.661 189.154C246.636 189.216 246.606 189.275 246.577 189.336C246.56 189.372 246.543 189.409 246.524 189.446C246.498 189.495 246.469 189.542 246.44 189.59C246.413 189.635 246.387 189.68 246.358 189.725C246.334 189.762 246.306 189.797 246.28 189.832C246.243 189.884 246.206 189.935 246.166 189.985C246.143 190.013 246.118 190.039 246.095 190.065C246.048 190.12 246.002 190.173 245.952 190.223C245.925 190.25 245.897 190.274 245.87 190.299C245.82 190.346 245.771 190.393 245.718 190.437C245.666 190.48 245.612 190.519 245.558 190.558C245.527 190.581 245.497 190.606 245.465 190.628C245.443 190.642 245.42 190.654 245.398 190.668L258.356 183.664C258.457 183.609 258.555 183.55 258.65 183.486C258.682 183.464 258.712 183.439 258.743 183.416C258.797 183.377 258.852 183.338 258.903 183.295C258.956 183.251 259.005 183.204 259.055 183.157C259.082 183.132 259.111 183.108 259.137 183.081C259.187 183.031 259.233 182.977 259.28 182.923C259.303 182.897 259.328 182.871 259.351 182.843C259.391 182.794 259.428 182.742 259.465 182.69C259.491 182.655 259.519 182.62 259.543 182.583C259.572 182.538 259.598 182.493 259.625 182.448C259.653 182.4 259.683 182.353 259.709 182.304C259.728 182.267 259.744 182.23 259.762 182.194C259.791 182.133 259.821 182.074 259.846 182.012C259.859 181.981 259.869 181.95 259.88 181.919C259.906 181.85 259.932 181.781 259.954 181.71C259.963 181.678 259.97 181.646 259.979 181.613C259.997 181.544 260.016 181.474 260.03 181.402C260.042 181.345 260.049 181.288 260.057 181.23C260.063 181.183 260.073 181.137 260.078 181.089C260.089 180.976 260.095 180.863 260.094 180.749V118.485L259.142 119.001Z" fill="#CFD6FF"/>
<path d="M174.533 125.935L151.708 148.76C151.075 149.393 150.231 149.722 149.379 149.722C148.842 149.722 148.302 149.595 147.81 149.328L90.9053 118.485V180.749C90.9049 180.864 90.9106 180.977 90.922 181.089C90.9268 181.137 90.9361 181.184 90.9427 181.231C90.951 181.288 90.9576 181.346 90.969 181.402C90.9831 181.475 91.0024 181.544 91.0209 181.613C91.0297 181.646 91.0363 181.678 91.0459 181.711C91.0675 181.782 91.0934 181.85 91.1193 181.919C91.1307 181.95 91.1404 181.981 91.1532 182.012C91.1786 182.074 91.2081 182.134 91.2371 182.194C91.2551 182.231 91.2714 182.268 91.2907 182.305C91.3171 182.353 91.3461 182.401 91.3746 182.448C91.4019 182.493 91.4278 182.539 91.4568 182.584C91.481 182.621 91.5082 182.655 91.5342 182.69C91.5715 182.742 91.6084 182.794 91.6489 182.844C91.6713 182.872 91.6963 182.897 91.7196 182.924C91.7662 182.978 91.8128 183.031 91.8629 183.082C91.8892 183.108 91.9174 183.132 91.9446 183.157C91.9947 183.205 92.0439 183.252 92.0971 183.296C92.1485 183.339 92.203 183.377 92.2566 183.417C92.2883 183.44 92.3177 183.464 92.3502 183.487C92.4447 183.551 92.5427 183.609 92.6438 183.664L173.932 227.604C174.422 227.868 174.961 228 175.5 228V123.602C175.5 124.468 175.157 125.311 174.533 125.935Z" fill="#D5DBFE"/>
<g clip-path="url(#clip0)">
<path d="M211.402 66.3699H206.696C205.935 63.6838 204.862 61.1308 203.516 58.748L206.822 55.4644C208.169 54.1296 208.169 51.9532 206.824 50.616L198.065 41.914C196.732 40.5882 194.581 40.5882 193.249 41.9118L189.91 45.2301C187.513 43.8927 184.942 42.8265 182.242 42.0705V37.4169C182.242 35.5304 180.712 34 178.825 34H166.417C164.53 34 163 35.5304 163 37.4169V42.07C160.295 42.826 157.728 43.8922 155.327 45.2296L151.993 41.914C150.66 40.5904 148.51 40.5904 147.177 41.914L138.417 50.616C137.073 51.9534 137.073 54.1294 138.417 55.4644L141.724 58.748C140.379 61.1308 139.304 63.6838 138.541 66.3699H133.84C131.953 66.3699 130.423 67.8981 130.423 69.7869V82.0667C130.423 83.9533 131.953 85.4836 133.84 85.4836H138.541C139.304 88.1676 140.38 90.7227 141.724 93.1034L138.417 96.387C137.073 97.7244 137.073 99.9004 138.417 101.235L147.177 109.937C148.509 111.261 150.66 111.261 151.993 109.935L155.327 106.622C157.729 107.959 160.296 109.025 163 109.786V114.437C163 115.448 163.439 116.355 164.137 116.978C164.742 117.525 165.541 117.854 166.417 117.854H178.825C180.712 117.854 182.242 116.323 182.242 114.437V109.786C184.942 109.025 187.513 107.959 189.91 106.622L193.233 109.921L193.249 109.937C194.581 111.261 196.732 111.261 198.065 109.937L202.509 105.523L206.823 101.235C208.169 99.9002 208.169 97.7242 206.823 96.387L203.516 93.1034C204.862 90.7227 205.936 88.1676 206.696 85.4836H211.402C212.919 85.4836 214.206 84.4955 214.651 83.126C214.759 82.7927 214.819 82.4365 214.819 82.0667V69.7869C214.819 67.8979 213.288 66.3699 211.402 66.3699ZM172.621 91.6096C172.026 91.6096 171.438 91.5776 170.859 91.511C162.998 90.6377 156.886 83.9925 156.886 75.9268C156.886 67.2638 163.931 60.2417 172.621 60.2417C181.312 60.2417 188.352 67.264 188.352 75.9268C188.352 78.5947 187.684 81.1084 186.503 83.3098C183.855 88.2502 178.632 91.6096 172.621 91.6096Z" fill="#F0A29A"/>
<path d="M213.226 84.2058L212.774 84.6563C212.482 84.5299 212.188 84.4105 211.891 84.2934V83.7144C211.891 79.9987 208.87 76.9748 205.152 76.9748H195.698C191.983 76.9748 188.959 79.9989 188.959 83.7144V84.2934C188.665 84.4105 188.368 84.5299 188.076 84.6563L187.624 84.2082C187.279 83.8659 186.902 83.5648 186.502 83.3098C183.855 88.2502 178.632 91.6097 172.621 91.6097C172.026 91.6097 171.437 91.5776 170.859 91.511C169.951 92.6828 169.462 94.1145 169.462 95.6195C169.462 97.4278 170.169 99.126 171.452 100.399L171.856 100.801C171.737 101.079 171.619 101.357 171.507 101.637H170.877C167.161 101.637 164.137 104.661 164.137 108.377V116.978C164.742 117.525 165.541 117.853 166.417 117.853H178.825C180.712 117.853 182.242 116.323 182.242 114.436V109.786C184.942 109.025 187.513 107.959 189.91 106.622L193.233 109.921C194.448 107.168 197.215 105.243 200.425 105.243C201.146 105.243 201.845 105.339 202.509 105.523L206.822 101.235C208.169 99.9002 208.169 97.7242 206.822 96.387L203.516 93.1034C204.862 90.7228 205.935 88.1676 206.696 85.4836H211.402C212.918 85.4836 214.205 84.4955 214.651 83.126C214.136 83.4154 213.658 83.7785 213.226 84.2058Z" fill="#ECE2B5"/>
<path d="M172.621 51.4591C159.107 51.4591 148.153 62.413 148.153 75.9268C148.153 89.0339 158.461 99.7326 171.414 100.36C171.814 100.381 172.216 100.39 172.621 100.39C185.78 100.39 196.516 89.9989 197.063 76.9748C197.079 76.6277 197.086 76.2787 197.086 75.9268C197.086 62.413 186.132 51.4591 172.621 51.4591ZM186.445 83.4108C183.784 88.2959 178.591 91.6095 172.621 91.6095C172.026 91.6095 171.437 91.5774 170.861 91.5108H170.858C162.997 90.6376 156.885 83.9923 156.885 75.9266C156.885 67.2636 163.93 60.2415 172.621 60.2415C181.312 60.2415 188.352 67.2638 188.352 75.9266C188.352 78.5945 187.684 81.1082 186.503 83.3096C186.484 83.3441 186.463 83.3788 186.445 83.4108Z" fill="#FFCB39"/>
<path d="M195.698 76.9744C191.982 76.9744 188.958 79.9985 188.958 83.7139V84.293C188.664 84.4101 188.368 84.5295 188.076 84.6559L187.623 84.2078C187.279 83.8655 186.902 83.5643 186.502 83.3094C186.484 83.3439 186.463 83.3783 186.444 83.4106C183.783 88.2957 178.59 91.6092 172.62 91.6092C172.025 91.6092 171.437 91.5771 170.86 91.5106H170.858C169.95 92.6824 169.461 94.1141 169.461 95.6191C169.461 97.4092 170.155 99.0911 171.414 100.36C171.814 100.38 172.216 100.39 172.62 100.39C185.78 100.39 196.516 89.9984 197.063 76.9744H195.698Z" fill="#EFB82E"/>
<path d="M232.577 117.734V108.377C232.577 106.94 231.411 105.774 229.974 105.774H226.389C225.809 103.728 224.991 101.782 223.966 99.968L226.485 97.4653C227.51 96.4473 227.51 94.7896 226.485 93.7716L219.812 87.1404C218.796 86.1316 217.157 86.1316 216.142 87.1402L213.598 89.6669C211.772 88.6489 209.814 87.8354 207.756 87.2609V83.7152C207.756 82.2774 206.59 81.1117 205.152 81.1117H195.699C194.261 81.1117 193.095 82.2774 193.095 83.7152V87.2609C191.035 87.8356 189.079 88.6491 187.25 89.6669L184.709 87.1412C183.694 86.1323 182.054 86.1321 181.039 87.141L174.365 93.7718C173.341 94.7901 173.341 96.4477 174.366 97.4656L176.885 99.9683C175.86 101.782 175.042 103.728 174.46 105.774H170.877C169.44 105.774 168.274 106.94 168.274 108.378V117.734C168.274 119.172 169.44 120.338 170.877 120.338H174.46C175.042 122.384 175.86 124.329 176.885 126.143L174.366 128.646C173.341 129.664 173.341 131.322 174.366 132.34L181.039 138.969C182.054 139.977 183.694 139.977 184.709 138.968L187.25 136.442C189.079 137.463 191.035 138.274 193.095 138.853V142.397C193.095 143.835 194.261 145 195.699 145H205.153C206.59 145 207.756 143.835 207.756 142.397V138.853C209.814 138.274 211.772 137.463 213.599 136.442L216.142 138.969C217.158 139.978 218.797 139.978 219.812 138.969L226.485 132.34C227.51 131.322 227.51 129.664 226.485 128.646L223.966 126.144C224.991 124.33 225.809 122.384 226.389 120.338H229.974C231.411 120.337 232.577 119.172 232.577 117.734ZM200.426 125.006C193.804 125.006 188.436 119.656 188.436 113.056C188.436 106.456 193.804 101.106 200.426 101.106C207.047 101.106 212.412 106.456 212.412 113.056C212.412 119.656 207.047 125.006 200.426 125.006Z" fill="#ECD882"/>
<path d="M200.426 94.4135C190.129 94.4135 181.783 102.759 181.783 113.056C181.783 123.35 190.129 131.696 200.426 131.696C210.72 131.696 219.066 123.35 219.066 113.056C219.066 102.759 210.72 94.4135 200.426 94.4135ZM200.426 125.006C193.804 125.006 188.436 119.656 188.436 113.056C188.436 106.456 193.804 101.106 200.426 101.106C207.047 101.106 212.412 106.456 212.412 113.056C212.412 119.656 207.047 125.006 200.426 125.006Z" fill="#EFEADD"/>
</g>
<defs>
<clipPath id="clip0">
<rect width="111" height="111" fill="white" transform="translate(126 34)"/>
</clipPath>
</defs>
</svg>
