<svg width="337" height="321" viewBox="0 0 337 321" fill="none" xmlns="http://www.w3.org/2000/svg">
<path d="M123.395 195.533C123.254 195.91 120.563 202.134 117.589 208.782C114.521 215.666 113.293 224.813 113.293 224.813C113.293 224.813 105.221 228.774 98.9428 230.613C98.9428 230.613 106.873 231.509 112.68 228.774C112.68 228.774 108.573 246.785 102.011 249.897L94.6943 252.868L101.822 253.198C101.822 253.198 96.3937 260.223 93.5613 264.42C88.652 271.728 80.5798 275.5 74.0183 277.15C73.1214 277.386 72.2717 277.527 71.4692 277.716C64.5772 278.942 70.3835 274.604 70.3835 274.604C70.3835 274.604 62.5946 268.05 67.7872 253.103C72.9798 238.157 76.0481 230.235 76.0481 226.888C76.0481 226.888 78.5028 230.235 78.786 232.97C78.786 232.97 79.5413 223.964 86.1029 216.515C92.6644 209.018 104.56 204.916 104.56 204.916L102.719 210.574C102.719 210.574 106.212 205.67 110.225 203.077C113.718 200.766 120.941 197.56 122.876 196.099C123.206 195.816 123.348 195.674 123.395 195.533Z" fill="#74AEAF"/>
<path opacity="0.68" d="M303.578 216.845H282.289V280.922H303.578V216.845Z" fill="#E2E8E6"/>
<path opacity="0.68" d="M303.578 208.735H282.289V212.413H303.578V208.735Z" fill="#E2E8E6"/>
<path opacity="0.68" d="M271.668 164.413H224.651V277.857H271.668V164.413Z" fill="#E2E8E6"/>
<path d="M242.117 216.326V215.525C254.013 215.525 263.737 205.859 263.737 193.93H264.54C264.54 206.283 254.485 216.326 242.117 216.326Z" fill="#070C0A"/>
<path d="M159.885 67.8023C159.885 74.5448 169.184 83.4562 184.526 82.0889C199.868 80.7215 197.225 87.134 197.225 87.134L207.751 89.5386C207.751 89.5386 212.33 87.2283 210.489 83.2676C208.648 79.2599 209.451 77.9868 213.369 73.2246C217.24 68.4153 212.802 55.166 201.095 60.8712C201.095 60.8712 194.628 55.9675 186.792 53.9401C175.604 50.9696 159.885 53.3743 159.885 67.8023Z" fill="#1B1C17"/>
<path d="M217.145 98.5915L202.417 108.965L200.623 106.23L198.074 102.269L194.156 96.2811L199.349 87.7469L200.576 85.7194L202.04 84.3992L211.386 93.0749L217.145 98.5915Z" fill="#F6C5A7"/>
<path d="M198.074 102.269L194.156 96.2812L199.349 87.6998C200.576 86.7568 201.379 86.0967 201.379 86.0967C201.379 86.0967 203.409 96.6112 198.074 102.269Z" fill="#F1D971"/>
<path d="M175.132 77.7039C175.132 77.7039 178.437 95.4796 188.067 99.2988C197.697 103.165 201.331 86.1438 201.331 86.1438C201.331 86.1438 205.721 83.7863 204.116 79.0712C202.511 74.3562 197.791 77.1381 197.885 79.9199C197.885 79.9199 197.224 82.3718 195.95 81.4287C194.675 80.4857 194.345 73.4132 194.345 73.4132C194.345 73.4132 181.458 79.4956 175.132 77.7039Z" fill="#F6C5A7"/>
<path d="M200.482 61.4841C191.229 50.9224 180.136 51.724 180.042 51.724L179.994 50.9224C180.089 50.9224 191.607 50.0737 201.095 60.9655L200.482 61.4841Z" fill="#1B1C17"/>
<path d="M163.567 116.886C163.567 116.886 161.207 113.067 160.074 114.953C158.941 116.839 163.048 122.45 163.048 122.45C163.048 122.45 166.211 124.807 165.833 123.063C165.455 121.412 163.567 116.886 163.567 116.886Z" fill="#F6C5A7"/>
<path d="M159.083 132.21L162.859 134.332L168.382 127.825L165.125 121.318L159.885 122.072L159.083 132.21Z" fill="#F6C5A7"/>
<path d="M28.2289 204.444C28.2289 204.444 31.6749 217.269 31.6749 223.446C31.6749 229.623 35.1209 236.271 35.1209 236.271L49.0937 240.279L37.434 240.844C37.434 240.844 39.9358 248.153 42.9098 250.887C45.8837 253.622 50.2266 258.431 52.9646 262.109C55.7025 265.787 62.5945 265.08 62.5945 265.08L57.3075 268.757C57.3075 268.757 61.3671 269.889 64.2467 273.095C67.1734 276.301 76.7561 276.066 76.7561 276.066C76.7561 276.066 82.6568 267.013 78.2195 251.595C73.7822 236.176 68.92 232.216 68.92 232.216L65.71 240.279L64.0106 226.605C64.0106 226.605 56.5522 221.135 50.1322 218.684C43.7123 216.232 40.9744 213.356 40.9744 213.356L42.0601 218.401C42.0601 218.401 39.3222 215.666 37.0091 211.375C34.7432 207.085 28.2289 204.444 28.2289 204.444Z" fill="#72A797"/>
<path opacity="0.59" d="M33.0438 171.863C33.0438 171.863 41.5408 184.547 47.5359 190.016C54.0503 195.957 49.0465 211.988 49.0465 211.988C49.0465 211.988 54.7112 201.615 54.7112 199.022C54.7112 199.022 60.8007 205.104 61.8864 209.254C62.9721 213.356 65.3324 215.053 64.2467 220.522C63.1137 225.992 65.8517 225.096 67.079 220.522C67.079 220.522 69.5337 226.463 72.4132 230.141C75.2928 233.819 79.6829 257.3 79.5413 257.771C79.3996 258.243 61.4143 257.583 52.4453 237.732C50.7931 234.102 41.9185 230.094 38.7085 226.463C35.4985 222.786 30.2587 210.527 28.2289 204.491L33.4215 205.529C33.4215 205.529 28.9842 201.945 29.1258 197.277C29.3146 192.515 34.2712 179.313 33.0438 171.863Z" fill="#74AEAF"/>
<path d="M70.4778 296.199C64.7188 296.199 60.187 291.955 58.9125 286.344C58.2516 283.327 57.3075 274.463 57.3075 274.463H83.6482C83.6482 274.463 82.7041 283.327 82.0432 286.344C80.7686 291.955 76.2369 296.199 70.4778 296.199Z" fill="#D0DBD7"/>
<path d="M164.558 131.078L162.812 134.379C162.812 134.379 162.245 137.443 166.163 141.074C170.034 144.752 178.626 151.306 178.626 151.306L188.869 149.703L191.465 139.565C191.465 139.565 170.129 125.844 168.429 127.872C166.635 129.852 164.558 131.078 164.558 131.078Z" fill="#4D27A0"/>
<path d="M188.917 157.812C188.917 157.812 200.199 167.95 207.232 163.329C214.266 158.708 201.756 144.705 201.756 144.705L188.917 157.812Z" fill="#BDC7C3"/>
<path d="M182.969 276.066V286.014H170.695L168.524 268.616L182.969 276.066Z" fill="#F6CAAD"/>
<path d="M183.252 276.066H164.039L160.074 256.64L155.353 233.395V225.52L174.33 212.79L174.66 215.1L175.132 218.448L183.252 276.066Z" fill="#FFCC42"/>
<path d="M177.115 212.79L175.132 218.448L160.074 256.64L155.353 233.395V233.112L174.66 215.1L177.115 212.79Z" fill="#96734D"/>
<path d="M182.921 286.014C182.921 286.014 183.724 292.285 182.921 296.199H174.66C174.66 296.199 173.622 293.228 171.686 294.171C169.751 295.162 167.438 296.199 162.056 296.199C156.675 296.199 149.641 296.199 149.641 296.199C149.641 296.199 147.8 296.482 148.792 294.171C149.783 291.861 162.859 289.409 170.648 286.014H182.921Z" fill="#1B1C17"/>
<path d="M120.988 269.653L114.473 286.014H127.832L136.896 270.219L120.988 269.653Z" fill="#F6CAAD"/>
<path d="M242.778 194.354C242.778 194.495 242.731 194.637 242.731 194.826C242.259 198.598 241.409 201.615 240.37 204.02C236.83 212.083 230.835 213.544 227.483 215.477C223.14 217.976 170.695 220.522 170.695 220.522L139.209 276.113H118.439C118.439 276.113 143.174 207.132 148.461 202.228C152.804 198.22 186.509 190.771 200.199 186.904C203.645 185.914 205.769 185.301 205.769 185.301C205.769 185.301 230.316 180.963 239.426 187.376C241.692 188.932 243.014 191.195 242.778 194.354Z" fill="#FFD000"/>
<path d="M126.039 276.254L125.331 275.877C125.425 275.736 133.45 259.61 141.616 243.626C158.233 211.14 159.319 210.668 159.696 210.527C161.82 209.631 215.823 197.277 218.137 196.759L218.325 197.56C198.924 201.992 161.915 210.527 160.074 211.281C158.233 212.554 138.737 250.84 126.039 276.254Z" fill="#96734D"/>
<path d="M242.778 194.354C242.778 194.495 242.731 194.637 242.731 194.826C242.259 198.598 241.409 201.615 240.37 204.02C237.821 204.114 234.375 203.737 229.844 202.181C219.364 198.645 204.305 189.403 200.198 186.857C203.644 185.867 205.769 185.254 205.769 185.254C205.769 185.254 230.316 180.916 239.426 187.329L242.778 194.354Z" fill="#96734D"/>
<path d="M184.857 166.3H74.7263V171.062H184.857V166.3Z" fill="#1B1C17"/>
<path d="M169.515 173.702H90.068V175.352H169.515V173.702Z" fill="#1B1C17"/>
<path d="M90.068 170.59L78.8331 296.199H80.4381L98.9899 170.59H90.068Z" fill="#1B1C17"/>
<path d="M169.515 170.59L180.75 296.199H179.145L160.593 170.59H169.515Z" fill="#1B1C17"/>
<path d="M105.174 138.811H93.6556V163.801H105.174V138.811Z" fill="#1B1C17"/>
<path d="M137.274 155.408H74.5375L60.7535 110.332H123.49L137.274 155.408Z" fill="url(#paint0_linear)"/>
<path d="M137.462 155.502H74.443L74.3958 155.408L60.5646 110.19H123.584L123.631 110.285L137.462 155.502ZM74.6318 155.266H137.085L123.395 110.473H60.895L74.6318 155.266Z" fill="black"/>
<path opacity="0.26" d="M103.616 153.097H76.6617L64.2467 112.595H91.201L103.616 153.097Z" fill="#453890"/>
<path d="M98.7538 148.288H78.5499L78.3138 147.628H98.565L98.7538 148.288Z" fill="#453890"/>
<path d="M97.2432 143.243H76.992L76.8032 142.583H97.0072L97.2432 143.243Z" fill="#453890"/>
<path d="M95.6855 138.245H75.4815L75.2455 137.538H95.4967L95.6855 138.245Z" fill="#453890"/>
<path d="M94.1276 133.2H73.9236L73.6876 132.493H93.9388L94.1276 133.2Z" fill="#453890"/>
<path d="M92.6171 128.155H72.366L72.1771 127.495H92.3811L92.6171 128.155Z" fill="#453890"/>
<path d="M91.0592 123.157H70.8553L70.6193 122.45H90.8704L91.0592 123.157Z" fill="#453890"/>
<path d="M89.5487 118.112H69.2976L69.1088 117.405H89.3127L89.5487 118.112Z" fill="#453890"/>
<path opacity="0.26" d="M133.497 153.097H106.59L94.1749 112.595H121.129L133.497 153.097Z" fill="#453890"/>
<path d="M128.682 148.288H108.478L108.242 147.628H128.493L128.682 148.288Z" fill="#453890"/>
<path d="M127.172 143.243H106.921L106.732 142.583H126.936L127.172 143.243Z" fill="#453890"/>
<path d="M125.614 138.245H105.363L105.174 137.538H125.378L125.614 138.245Z" fill="#453890"/>
<path d="M124.056 133.2H103.852L103.616 132.493H123.867L124.056 133.2Z" fill="#453890"/>
<path d="M122.546 128.155H102.294L102.106 127.495H122.31L122.546 128.155Z" fill="#453890"/>
<path d="M120.988 123.157H100.784L100.548 122.45H120.799L120.988 123.157Z" fill="#453890"/>
<path d="M119.43 118.112H99.226L98.99 117.405H119.241L119.43 118.112Z" fill="#453890"/>
<path d="M120.468 166.488H93.6556V163.612H117.589C119.147 163.565 120.468 164.885 120.468 166.488Z" fill="#1B1C17"/>
<path opacity="0.68" d="M0 296.199H337C337 296.199 319.628 309.825 277.285 310.438C234.989 311.051 225.17 306.148 186.603 315.295C148.084 324.442 124.434 322.32 103.002 310.721C81.6183 299.169 19.6375 316.379 0 296.199Z" fill="#E2E8E6"/>
<path d="M250.142 223.446C250.142 225.662 249.245 227.642 247.782 229.104C246.318 230.566 244.336 231.461 242.117 231.461H199.679C195.714 231.461 192.409 228.585 191.796 224.813C191.701 224.389 191.701 223.917 191.701 223.446C191.701 221.23 192.598 219.249 194.062 217.788C195.525 216.326 197.508 215.43 199.726 215.43H242.164C244.713 215.43 247.026 216.656 248.49 218.495C249.481 219.91 250.142 221.607 250.142 223.446Z" fill="#453890"/>
<path d="M263.218 194.165V151.777C263.218 147.345 266.805 143.762 271.243 143.762C275.68 143.762 279.268 147.345 279.268 151.777V194.165C279.268 198.598 275.68 202.181 271.243 202.181C266.805 202.181 263.218 198.598 263.218 194.165Z" fill="#453890"/>
<path d="M239.804 231.461H236.83V287.476H239.804V231.461Z" fill="#1B1C17"/>
<path d="M239.851 287.476H208.554V290.447H239.851V287.476Z" fill="#1B1C17"/>
<path d="M242.683 231.461H233.95V245.654H242.683V231.461Z" fill="#1B1C17"/>
<path d="M211.292 293.464C211.292 294.973 210.064 296.199 208.554 296.199C207.043 296.199 205.816 294.973 205.816 293.464C205.816 291.955 207.043 290.729 208.554 290.729C210.064 290.682 211.292 291.908 211.292 293.464Z" fill="#1B1C17"/>
<path d="M239.851 296.199C241.363 296.199 242.589 294.975 242.589 293.464C242.589 291.954 241.363 290.729 239.851 290.729C238.339 290.729 237.113 291.954 237.113 293.464C237.113 294.975 238.339 296.199 239.851 296.199Z" fill="#1B1C17"/>
<path d="M127.88 286.014C127.88 286.014 128.635 292.285 127.88 296.199H120.232C120.232 296.199 119.288 293.228 117.447 294.171C115.653 295.162 113.529 296.199 108.525 296.199C103.522 296.199 95.355 296.199 95.355 296.199C95.355 296.199 93.6084 296.482 94.5525 294.171C95.4494 291.861 107.156 289.409 114.379 286.014H127.88Z" fill="#1B1C17"/>
<path d="M217.145 98.5915L202.37 108.965L200.576 106.23C202.087 102.552 205.438 96.0925 211.386 93.0749L217.145 98.5915Z" fill="#F8F4F3"/>
<path d="M250.142 196.004C250.142 196.004 242.117 203.313 224.745 196.004C207.326 188.696 201.143 186.574 201.143 186.574C201.143 186.574 200.907 183.981 200.623 179.69C200.151 173.042 199.49 162.386 199.113 151.306C198.546 134.567 198.641 116.933 201.143 111.322C206.43 99.676 217.192 98.4972 217.192 98.4972C232.77 107.644 240.984 138.292 242.825 159.557C244.619 180.916 250.142 196.004 250.142 196.004Z" fill="#5127AC"/>
<path d="M214.738 157.199C212.047 165.875 200.576 179.69 200.576 179.69C200.104 173.042 199.443 162.386 199.066 151.306L219.694 118.395C219.694 118.442 218.089 146.543 214.738 157.199Z" fill="#4D27A0"/>
<path d="M146.29 160.877L147.612 166.252C147.612 166.252 191.182 168.138 201.143 159.934C211.056 151.683 226.02 117.829 216.862 110.332C207.704 102.835 199.018 117.405 195.808 126.693C192.598 135.982 186.792 146.213 183.299 147.581C179.759 148.995 145.865 158.803 146.29 160.877Z" fill="#5127AC"/>
<path d="M161.726 135.699H151.057L148.603 110.568H164.181L161.726 135.699Z" fill="#D5DBFE"/>
<path d="M163.945 123.817H159.082V122.45H163.945C165.974 122.45 167.674 120.799 167.674 118.725C167.674 116.697 166.022 115 163.945 115H161.915V113.633H163.945C166.73 113.633 169.043 115.896 169.043 118.725C169.043 121.554 166.73 123.817 163.945 123.817Z" fill="#D5DBFE"/>
<path d="M149.358 118.112C149.358 118.112 147.942 119.762 147.706 121.695C147.47 123.581 147.517 126.693 150.35 128.532C153.182 130.371 156.628 129.004 154.551 125.279C152.521 121.507 149.736 117.546 149.358 118.112Z" fill="#F6C5A7"/>
<path d="M118.486 45.2644C131 45.2644 141.144 35.1316 141.144 22.6322C141.144 10.1328 131 0 118.486 0C105.972 0 95.8271 10.1328 95.8271 22.6322C95.8271 35.1316 105.972 45.2644 118.486 45.2644Z" fill="#453890"/>
<path d="M118.486 41.4452C128.888 41.4452 137.321 33.0223 137.321 22.6322C137.321 12.2421 128.888 3.81918 118.486 3.81918C108.083 3.81918 99.6508 12.2421 99.6508 22.6322C99.6508 33.0223 108.083 41.4452 118.486 41.4452Z" fill="white"/>
<path d="M118.486 23.8581C119.164 23.8581 119.713 23.3092 119.713 22.6322C119.713 21.9551 119.164 21.4063 118.486 21.4063C117.808 21.4063 117.258 21.9551 117.258 22.6322C117.258 23.3092 117.808 23.8581 118.486 23.8581Z" fill="#5127AC"/>
<path d="M118.486 10.7503C118.203 10.7503 117.967 10.5145 117.967 10.2316V6.271C117.967 5.9881 118.203 5.75235 118.486 5.75235C118.769 5.75235 119.005 5.9881 119.005 6.271V10.2316C119.005 10.5145 118.769 10.7503 118.486 10.7503Z" fill="#5127AC"/>
<path d="M118.486 39.5592C118.203 39.5592 117.967 39.3235 117.967 39.0406V35.0799C117.967 34.797 118.203 34.5613 118.486 34.5613C118.769 34.5613 119.005 34.797 119.005 35.0799V39.0406C119.005 39.3235 118.769 39.5592 118.486 39.5592Z" fill="#5127AC"/>
<path d="M130.382 22.6794C130.382 22.3965 130.618 22.1607 130.901 22.1607H134.866C135.149 22.1607 135.385 22.3965 135.385 22.6794C135.385 22.9623 135.149 23.198 134.866 23.198H130.901C130.618 23.198 130.382 22.9623 130.382 22.6794Z" fill="#5127AC"/>
<path d="M101.539 22.5851C101.539 22.3022 101.775 22.0664 102.058 22.0664H106.024C106.307 22.0664 106.543 22.3022 106.543 22.5851C106.543 22.868 106.307 23.1037 106.024 23.1037H102.058C101.775 23.1509 101.539 22.9151 101.539 22.5851Z" fill="#5127AC"/>
<path d="M118.486 31.4965C118.25 31.4965 118.014 31.3079 118.014 31.025V22.5379L125.094 10.8446C125.236 10.6088 125.519 10.5617 125.708 10.7031C125.944 10.8446 125.991 11.1275 125.85 11.3161L118.863 22.7736V31.0721C118.911 31.3079 118.722 31.4965 118.486 31.4965Z" fill="#5127AC"/>
<path d="M166.94 236.558L166.662 236.612L174.446 276.072L174.724 276.017L166.94 236.558Z" fill="#96734D"/>
<path d="M161.726 135.699C161.726 136.406 159.319 136.972 156.392 136.972C153.418 136.972 151.058 136.406 151.058 135.699C151.058 134.992 153.465 134.426 156.392 134.426C159.366 134.473 161.726 135.039 161.726 135.699Z" fill="#D5DBFE"/>
<path d="M146.29 160.877C146.29 160.877 139.539 161.066 136.849 161.915C134.158 162.763 131.75 166.205 132.553 166.252C135.48 166.441 136.801 164.744 139.351 165.168C141.9 165.592 146.007 166.252 147.612 166.252L146.29 160.877Z" fill="#F6C5A7"/>
<path d="M250.142 223.446C250.142 225.662 249.245 227.642 247.782 229.104C246.318 230.566 244.336 231.461 242.117 231.461H199.679C195.714 231.461 192.41 228.585 191.796 224.813C193.873 225.615 224.037 237.119 248.442 218.542C249.481 219.91 250.142 221.607 250.142 223.446Z" fill="#453890"/>
<path d="M195.148 27.7244H170.837V15.0881C170.837 14.2394 171.167 13.4379 171.781 12.8721L173.716 11.0332L173.858 11.1747L171.922 13.0135C171.356 13.5322 171.025 14.2866 171.025 15.0881V27.5358H194.911V15.0881C194.911 14.2866 194.581 13.5322 194.015 13.0135L192.079 11.1747L192.221 11.0332L194.156 12.8721C194.77 13.4379 195.1 14.2394 195.1 15.0881V27.7244H195.148Z" fill="#FFD000"/>
<path d="M185.659 4.90365L184.857 4.14925C184.101 3.44199 183.016 3.20624 182.024 3.58344C181.694 3.72489 181.363 3.91349 181.08 4.1964L180.325 4.90365L180.183 4.7622L180.939 4.05494C181.269 3.72489 181.6 3.53629 181.977 3.39484C183.063 3.01764 184.196 3.25339 185.046 4.00779L185.848 4.7622L185.659 4.90365Z" fill="#FFD000"/>
<path d="M182.968 23.0566L182.921 23.0094L170.884 15.1824L170.978 14.9938L182.968 22.8208L194.959 15.3239L195.1 15.5125L182.968 23.0566Z" fill="#FFD000"/>
<path d="M192.315 17.2099H192.079V4.90363H173.858V16.927H173.669V4.71503H192.315V17.2099Z" fill="#FFD000"/>
<path d="M182.92 22.8697L175.987 27.529L176.119 27.7246L183.052 23.0653L182.92 22.8697Z" fill="#FFD000"/>
<path d="M188.728 8.81714H176.926V9.05289H188.728V8.81714Z" fill="#FFD000"/>
<path d="M188.728 10.8918H176.926V11.1275H188.728V10.8918Z" fill="#FFD000"/>
<path d="M188.728 12.8721H176.926V13.1078H188.728V12.8721Z" fill="#FFD000"/>
<path d="M188.728 14.9467H176.926V15.1825H188.728V14.9467Z" fill="#FFD000"/>
<path d="M188.728 17.1156H176.926V17.3514H188.728V17.1156Z" fill="#FFD000"/>
<path d="M98.5178 91.7076H69.3448V76.5251C69.3448 75.535 69.7697 74.5448 70.4778 73.8376L72.7909 71.6215L72.9797 71.8101L70.6666 74.0262C70.0057 74.6863 69.6281 75.5821 69.6281 76.5251V91.4718H98.329V76.5251C98.329 75.5821 97.9514 74.6863 97.2905 74.0262L94.9774 71.8101L95.1663 71.6215L97.4793 73.8376C98.1874 74.5448 98.6123 75.4878 98.6123 76.5251V91.7076H98.5178Z" fill="#FFD000"/>
<path d="M87.1413 64.3132L86.1972 63.3702C85.3003 62.4743 83.9785 62.2386 82.7984 62.6629C82.3735 62.8044 81.9959 63.0873 81.6654 63.4173L80.7685 64.3132L80.5797 64.1246L81.4766 63.2287C81.8543 62.8515 82.2791 62.5686 82.704 62.4272C83.9785 61.9557 85.3947 62.2386 86.386 63.1816L87.3301 64.1246L87.1413 64.3132Z" fill="#FFD000"/>
<path d="M83.9314 86.1438L83.837 86.0967L69.3921 76.6666L69.5337 76.4308L83.9314 85.8138L98.3291 76.8552L98.4707 77.0909L83.9314 86.1438Z" fill="#FFD000"/>
<path d="M95.1191 79.0713H94.883V64.3603H72.9797V78.7412H72.7437V64.0774H95.1191V79.0713Z" fill="#FFD000"/>
<path d="M83.8371 85.8676L75.4946 91.4726L75.6264 91.6682L83.9688 86.0632L83.8371 85.8676Z" fill="#FFD000"/>
<path d="M90.8234 69.0282H76.6617V69.264H90.8234V69.0282Z" fill="#FFD000"/>
<path d="M90.8234 71.5272H76.6617V71.763H90.8234V71.5272Z" fill="#FFD000"/>
<path d="M90.8234 73.8847H76.6617V74.1205H90.8234V73.8847Z" fill="#FFD000"/>
<path d="M90.8234 76.4308H76.6617V76.6666H90.8234V76.4308Z" fill="#FFD000"/>
<path d="M90.8234 78.977H76.6617V79.2127H90.8234V78.977Z" fill="#FFD000"/>
<path d="M264.728 89.3029H243.155V78.3169C243.155 77.6568 243.675 77.0909 244.383 77.0909H263.548C264.209 77.0909 264.775 77.6096 264.775 78.3169V89.3029H264.728ZM243.486 88.9728H264.398V78.3169C264.398 77.8454 264.02 77.421 263.501 77.421H244.335C243.863 77.421 243.439 77.7982 243.439 78.3169V88.9728H243.486Z" fill="#FFD000"/>
<path d="M253.965 85.1537C253.446 85.1537 252.88 85.0122 252.408 84.6822L243.25 78.4583L243.439 78.1754L252.596 84.3993C253.399 84.9651 254.485 84.9651 255.287 84.3993L264.445 78.1754L264.634 78.4583L255.476 84.6822C255.004 85.0122 254.485 85.1537 253.965 85.1537Z" fill="#FFD000"/>
<path d="M255.873 84.1096L255.712 84.3977L264.446 89.2767L264.608 88.9886L255.873 84.1096Z" fill="#FFD000"/>
<path d="M251.976 84.112L243.241 88.991L243.403 89.2791L252.137 84.4001L251.976 84.112Z" fill="#FFD000"/>
<path d="M70.4778 274.415C70.4778 274.415 65.002 274.132 63.3498 277.763C61.6976 281.394 55.8441 284.364 52.9646 284.977V280.168L49.8962 284.977C49.8962 284.977 48.0552 286.014 44.4204 286.816C40.7856 287.665 37.4812 290.352 37.4812 290.352C37.4812 290.352 39.4166 285.166 41.7297 282.384C44.0428 279.602 45.1757 279.413 45.1757 279.413L41.4465 280.168C41.4465 280.168 43.8539 275.547 45.7894 273.142C47.7248 270.738 49.8962 268.616 55.3249 268.192C60.7535 267.767 70.4778 274.415 70.4778 274.415Z" fill="#ADCFD0"/>
<defs>
<linearGradient id="paint0_linear" x1="60.7365" y1="132.858" x2="137.27" y2="132.858" gradientUnits="userSpaceOnUse">
<stop stop-color="white"/>
<stop offset="1" stop-color="#453890" stop-opacity="0"/>
</linearGradient>
</defs>
</svg>
