<svg width="500" height="500" viewBox="0 0 500 500" fill="none" xmlns="http://www.w3.org/2000/svg">
<g clip-path="url(#clip0)">
<path d="M122.126 345.377C100.849 214.978 -135.928 129.269 6.45882 106.036C148.846 82.803 439.842 23.3127 461.119 153.712C482.396 284.112 424.271 401.914 281.884 425.146C139.497 448.379 143.403 475.777 122.126 345.377Z" fill="#FFF8D8" fill-opacity="0.45"/>
<path d="M500 382.4H0V382.65H500V382.4Z" fill="#EBEBEB"/>
<path d="M85.58 391.92H52.46V392.17H85.58V391.92Z" fill="#EBEBEB"/>
<path d="M218 389.21H171.14V389.46H218V389.21Z" fill="#EBEBEB"/>
<path d="M152.08 401.21H119.33V401.46H152.08V401.21Z" fill="#EBEBEB"/>
<path d="M449.9 399.53H442.01V399.78H449.9V399.53Z" fill="#EBEBEB"/>
<path d="M433.11 399.53H391.47V399.78H433.11V399.53Z" fill="#EBEBEB"/>
<path d="M320.33 395.31H277.21V395.56H320.33V395.31Z" fill="#EBEBEB"/>
<path d="M237 337.8H43.91C42.3973 337.797 40.9475 337.195 39.8788 336.124C38.8102 335.053 38.21 333.603 38.21 332.09V60.66C38.2231 59.156 38.8292 57.718 39.8964 56.6582C40.9637 55.5985 42.4059 55.0026 43.91 55H237C238.514 55 239.967 55.6016 241.038 56.6724C242.108 57.7433 242.71 59.1956 242.71 60.71V332.09C242.71 333.604 242.108 335.057 241.038 336.128C239.967 337.198 238.514 337.8 237 337.8ZM43.91 55.2C42.4636 55.2026 41.0774 55.7791 40.0556 56.8027C39.0338 57.8264 38.46 59.2136 38.46 60.66V332.09C38.46 333.536 39.0338 334.924 40.0556 335.947C41.0774 336.971 42.4636 337.547 43.91 337.55H237C238.447 337.547 239.834 336.971 240.858 335.948C241.881 334.924 242.457 333.537 242.46 332.09V60.66C242.457 59.2127 241.881 57.8255 240.858 56.8021C239.834 55.7787 238.447 55.2026 237 55.2H43.91Z" fill="#EBEBEB"/>
<path d="M453.31 337.8H260.21C258.696 337.797 257.246 337.195 256.175 336.125C255.105 335.054 254.503 333.604 254.5 332.09V60.66C254.516 59.1551 255.124 57.7171 256.193 56.6576C257.262 55.5981 258.705 55.0025 260.21 55H453.31C454.812 55.0052 456.252 55.6022 457.317 56.6617C458.382 57.7212 458.987 59.1578 459 60.66V332.09C459 333.601 458.401 335.05 457.335 336.121C456.268 337.191 454.821 337.795 453.31 337.8ZM260.21 55.2C258.763 55.2026 257.375 55.7787 256.352 56.8021C255.329 57.8255 254.753 59.2127 254.75 60.66V332.09C254.753 333.537 255.329 334.924 256.352 335.948C257.375 336.971 258.763 337.547 260.21 337.55H453.31C454.757 337.547 456.145 336.971 457.168 335.948C458.191 334.924 458.767 333.537 458.77 332.09V60.66C458.767 59.2127 458.191 57.8255 457.168 56.8021C456.145 55.7787 454.757 55.2026 453.31 55.2H260.21Z" fill="#EBEBEB"/>
<path d="M383.49 153.6H437.55V91.4H383.49V153.6Z" fill="#EBEBEB"/>
<path d="M389.38 95.37C389.437 95.3674 389.492 95.3502 389.54 95.32C389.69 95.23 404.8 86.24 409.61 86.24C414.42 86.24 428.83 95.24 428.98 95.32C429.015 95.342 429.053 95.3568 429.094 95.3636C429.134 95.3705 429.176 95.3692 429.216 95.3599C429.256 95.3506 429.294 95.3335 429.327 95.3094C429.36 95.2854 429.389 95.255 429.41 95.22C429.452 95.1492 429.465 95.065 429.446 94.985C429.427 94.9049 429.379 94.8351 429.31 94.79C428.71 94.41 414.59 85.62 409.61 85.62C404.63 85.62 389.84 94.41 389.22 94.79C389.184 94.8106 389.153 94.8382 389.128 94.8712C389.103 94.9041 389.085 94.9417 389.074 94.9818C389.064 95.0219 389.062 95.0636 389.068 95.1045C389.074 95.1454 389.088 95.1847 389.11 95.22C389.139 95.2651 389.179 95.3024 389.226 95.3285C389.273 95.3547 389.326 95.3689 389.38 95.37Z" fill="#EBEBEB"/>
<path d="M377.36 153.6H435.87V91.4H377.36V153.6Z" fill="#F5F5F5"/>
<path d="M430.97 148.7V96.31H382.27V148.7H430.97Z" fill="white"/>
<path d="M403.77 131.32C403.77 130.133 403.418 128.973 402.759 127.987C402.1 127 401.162 126.231 400.066 125.777C398.97 125.323 397.763 125.204 396.599 125.435C395.436 125.667 394.367 126.238 393.527 127.077C392.688 127.916 392.117 128.986 391.885 130.149C391.654 131.313 391.773 132.52 392.227 133.616C392.681 134.712 393.45 135.65 394.437 136.309C395.423 136.968 396.583 137.32 397.77 137.32C399.361 137.32 400.887 136.688 402.013 135.563C403.138 134.437 403.77 132.911 403.77 131.32Z" fill="#F5F5F5"/>
<path d="M421.39 113.69C421.39 112.503 421.038 111.343 420.379 110.357C419.72 109.37 418.782 108.601 417.686 108.147C416.59 107.693 415.383 107.574 414.219 107.805C413.056 108.037 411.987 108.608 411.147 109.447C410.308 110.286 409.737 111.356 409.505 112.519C409.274 113.683 409.393 114.89 409.847 115.986C410.301 117.082 411.07 118.02 412.057 118.679C413.043 119.338 414.203 119.69 415.39 119.69C416.981 119.69 418.507 119.058 419.633 117.933C420.758 116.807 421.39 115.281 421.39 113.69Z" fill="#F5F5F5"/>
<path d="M306.03 204.59H360.09V142.39H306.03V204.59Z" fill="#EBEBEB"/>
<path d="M311.91 146.36C311.963 146.374 312.018 146.374 312.07 146.36C312.22 146.27 327.33 137.28 332.14 137.28C336.95 137.28 351.36 146.28 351.51 146.35C351.545 146.372 351.583 146.387 351.624 146.394C351.664 146.401 351.706 146.399 351.746 146.39C351.786 146.381 351.824 146.363 351.857 146.339C351.89 146.315 351.919 146.285 351.94 146.25C351.982 146.179 351.995 146.095 351.976 146.015C351.957 145.935 351.909 145.865 351.84 145.82C351.24 145.45 337.12 136.65 332.14 136.65C327.16 136.65 312.37 145.44 311.75 145.82C311.714 145.841 311.683 145.868 311.658 145.901C311.633 145.934 311.615 145.972 311.604 146.012C311.594 146.052 311.592 146.094 311.598 146.135C311.604 146.175 311.619 146.215 311.64 146.25C311.673 146.289 311.714 146.32 311.761 146.339C311.808 146.358 311.859 146.365 311.91 146.36Z" fill="#EBEBEB"/>
<path d="M299.89 204.59H358.4V142.39H299.89V204.59Z" fill="#F5F5F5"/>
<path d="M353.49 199.69V147.3H304.79V199.69H353.49Z" fill="white"/>
<path d="M324.52 184.08C324.52 182.893 324.168 181.733 323.509 180.747C322.85 179.76 321.912 178.991 320.816 178.537C319.72 178.083 318.513 177.964 317.349 178.195C316.186 178.427 315.117 178.998 314.277 179.837C313.438 180.676 312.867 181.746 312.635 182.909C312.404 184.073 312.523 185.28 312.977 186.376C313.431 187.472 314.2 188.41 315.187 189.069C316.173 189.728 317.333 190.08 318.52 190.08C320.111 190.08 321.637 189.448 322.763 188.323C323.888 187.197 324.52 185.671 324.52 184.08Z" fill="#F5F5F5"/>
<path d="M345.69 162.91C345.69 161.723 345.338 160.563 344.679 159.577C344.019 158.59 343.082 157.821 341.986 157.367C340.89 156.913 339.683 156.794 338.519 157.025C337.356 157.257 336.286 157.828 335.447 158.667C334.608 159.506 334.037 160.576 333.805 161.739C333.574 162.903 333.693 164.11 334.147 165.206C334.601 166.302 335.37 167.24 336.357 167.899C337.343 168.558 338.503 168.91 339.69 168.91C341.281 168.91 342.807 168.278 343.933 167.153C345.058 166.027 345.69 164.501 345.69 162.91Z" fill="#F5F5F5"/>
<path d="M333.77 184.08C333.77 182.893 334.122 181.733 334.781 180.747C335.441 179.76 336.378 178.991 337.474 178.537C338.57 178.083 339.777 177.964 340.941 178.195C342.104 178.427 343.174 178.998 344.013 179.837C344.852 180.676 345.423 181.746 345.655 182.909C345.886 184.073 345.767 185.28 345.313 186.376C344.859 187.472 344.09 188.41 343.103 189.069C342.117 189.728 340.957 190.08 339.77 190.08C338.179 190.08 336.653 189.448 335.527 188.323C334.402 187.197 333.77 185.671 333.77 184.08Z" fill="#F5F5F5"/>
<path d="M312.59 162.91C312.59 161.723 312.942 160.563 313.601 159.577C314.26 158.59 315.197 157.821 316.294 157.367C317.39 156.913 318.597 156.794 319.76 157.025C320.924 157.257 321.993 157.828 322.833 158.667C323.672 159.506 324.243 160.576 324.475 161.739C324.706 162.903 324.587 164.11 324.133 165.206C323.679 166.302 322.91 167.24 321.923 167.899C320.937 168.558 319.777 168.91 318.59 168.91C316.999 168.91 315.473 168.278 314.347 167.153C313.222 166.027 312.59 164.501 312.59 162.91Z" fill="#F5F5F5"/>
<path d="M77.97 245.02L272.79 245.02V79.28L77.97 79.28L77.97 245.02Z" fill="#E6E6E6"/>
<path d="M75.17 245.02L269.99 245.02V79.28L75.17 79.28L75.17 245.02Z" fill="#F5F5F5"/>
<path d="M264.97 239.38V84.92L80.2 84.92V239.38H264.97Z" fill="white"/>
<path d="M82.3101 239.38L82.3101 84.92H80.19L80.19 239.38H82.3101Z" fill="#E6E6E6"/>
<path d="M77.25 222.28L267.91 222.28V214.7L77.25 214.7V222.28Z" fill="#F5F5F5"/>
<path d="M69.7 69.94H278.26C278.362 69.9387 278.463 69.9576 278.558 69.9957C278.652 70.0338 278.738 70.0903 278.811 70.162C278.884 70.2336 278.941 70.3189 278.98 70.413C279.02 70.5071 279.04 70.608 279.04 70.71C279.04 70.812 279.02 70.9129 278.98 71.007C278.941 71.1011 278.884 71.1864 278.811 71.258C278.738 71.3297 278.652 71.3862 278.558 71.4243C278.463 71.4624 278.362 71.4813 278.26 71.48H69.7C69.5981 71.4813 69.4969 71.4624 69.4023 71.4243C69.3077 71.3862 69.2217 71.3297 69.1491 71.258C69.0765 71.1864 69.0189 71.1011 68.9796 71.007C68.9403 70.9129 68.92 70.812 68.92 70.71C68.92 70.608 68.9403 70.5071 68.9796 70.413C69.0189 70.3189 69.0765 70.2336 69.1491 70.162C69.2217 70.0903 69.3077 70.0338 69.4023 69.9957C69.4969 69.9576 69.5981 69.9387 69.7 69.94Z" fill="#E6E6E6"/>
<path d="M65.0599 70.71C65.06 71.4758 65.2872 72.2245 65.7129 72.8611C66.1386 73.4977 66.7436 73.9937 67.4513 74.2864C68.159 74.579 68.9377 74.655 69.6886 74.5049C70.4396 74.3548 71.1292 73.9852 71.67 73.4429C72.2108 72.9007 72.5786 72.2102 72.7268 71.4589C72.875 70.7075 72.7969 69.929 72.5025 69.2221C72.208 68.5151 71.7105 67.9114 71.0727 67.4873C70.435 67.0633 69.6858 66.838 68.92 66.84C68.4122 66.84 67.9095 66.9402 67.4405 67.1348C66.9715 67.3294 66.5455 67.6146 66.187 67.9741C65.8284 68.3336 65.5443 68.7603 65.3509 69.2298C65.1575 69.6992 65.0586 70.2023 65.0599 70.71Z" fill="#E6E6E6"/>
<path d="M271.74 75C271.875 75.0068 272.011 74.9859 272.138 74.9387C272.265 74.8915 272.381 74.8189 272.48 74.7254C272.578 74.6318 272.656 74.5193 272.709 74.3946C272.763 74.2699 272.79 74.1356 272.79 74V71.75C272.79 71.6144 272.763 71.4801 272.709 71.3554C272.656 71.2307 272.578 71.1182 272.48 71.0246C272.381 70.9311 272.265 70.8585 272.138 70.8113C272.011 70.7641 271.875 70.7432 271.74 70.75C271.475 70.75 271.22 70.8554 271.033 71.0429C270.845 71.2304 270.74 71.4848 270.74 71.75V74C270.74 74.2652 270.845 74.5196 271.033 74.7071C271.22 74.8946 271.475 75 271.74 75Z" fill="#E6E6E6"/>
<path d="M81.36 75C81.6252 75 81.8796 74.8946 82.0671 74.7071C82.2546 74.5196 82.36 74.2652 82.36 74V71.75C82.36 71.4848 82.2546 71.2304 82.0671 71.0429C81.8796 70.8554 81.6252 70.75 81.36 70.75C81.0948 70.75 80.8404 70.8554 80.6529 71.0429C80.4653 71.2304 80.36 71.4848 80.36 71.75V74C80.36 74.2652 80.4653 74.5196 80.6529 74.7071C80.8404 74.8946 81.0948 75 81.36 75Z" fill="#E6E6E6"/>
<path opacity="0.4" d="M69.94 197.82L267.91 197.82V70.71L69.94 70.71L69.94 197.82Z" fill="#E0E0E0"/>
<path d="M255.44 70.71C255.44 71.4754 255.667 72.2236 256.092 72.8601C256.517 73.4965 257.122 73.9925 257.829 74.2854C258.536 74.5783 259.314 74.655 260.065 74.5056C260.816 74.3563 261.505 73.9877 262.046 73.4465C262.588 72.9053 262.956 72.2157 263.106 71.465C263.255 70.7143 263.178 69.9362 262.885 69.229C262.592 68.5219 262.096 67.9175 261.46 67.4922C260.824 67.067 260.075 66.84 259.31 66.84C258.284 66.84 257.299 67.2477 256.573 67.9735C255.848 68.6993 255.44 69.6836 255.44 70.71Z" fill="#E6E6E6"/>
<path d="M374.25 272.47H373.53C373.56 272.335 373.58 272.198 373.59 272.06C373.59 269.06 369.92 266.61 365.38 266.6C365.662 265.992 365.812 265.33 365.82 264.66C365.82 261.66 362.93 259.19 359.35 259.19C358.374 259.194 357.409 259.391 356.51 259.77C356.544 259.578 356.567 259.384 356.58 259.19C356.58 255.29 352.84 252.12 348.22 252.12C344.34 252.12 341.12 254.36 340.16 257.38C338.942 256.113 337.477 255.111 335.854 254.436C334.231 253.762 332.487 253.429 330.73 253.46C328.709 253.406 326.706 253.847 324.894 254.742C323.081 255.638 321.515 256.962 320.33 258.6C319.679 257.958 318.907 257.45 318.06 257.107C317.212 256.764 316.305 256.591 315.39 256.6C311.82 256.6 308.93 259.04 308.93 262.06C308.932 262.731 309.082 263.394 309.37 264C304.83 264 301.15 266.45 301.15 269.47C301.164 269.75 301.208 270.029 301.28 270.3H300.49C294.49 270.3 289.65 272.3 289.65 274.87C289.65 277.44 294.5 279.43 300.49 279.43C302.701 279.455 304.902 279.145 307.02 278.51C309.48 282 317.15 284.51 326.23 284.51C336.71 284.51 345.31 281.12 346.23 276.8C349.242 277.857 352.418 278.372 355.61 278.32C358.253 278.341 360.887 278.004 363.44 277.32H363.49C363.91 279.68 368.58 281.54 374.29 281.54C380.29 281.54 385.14 279.49 385.14 276.97C385.14 274.45 380.24 272.47 374.25 272.47Z" fill="#E6E6E6"/>
<path d="M389.74 275.23C391.949 275.23 394.068 276.108 395.63 277.67C397.192 279.232 398.07 281.351 398.07 283.56C398.07 292.78 375.21 300.33 347.27 300.33H322.05C294.11 300.33 271.25 292.78 271.25 283.56C271.25 281.351 272.128 279.232 273.69 277.67C275.252 276.108 277.371 275.23 279.58 275.23H389.74Z" fill="#F0F0F0"/>
<path d="M157.91 382.4H202.11V300.33H157.91V382.4Z" fill="#E6E6E6"/>
<path d="M166.3 382.4H157.9V374.73H175.1L166.3 382.4Z" fill="#F0F0F0"/>
<path d="M397.68 382.4H441.88V300.33H397.68V382.4Z" fill="#E6E6E6"/>
<path d="M157.91 379.01L405.01 379.01V300.34H157.91V379.01Z" fill="#F0F0F0"/>
<path d="M396.61 382.4H405V374.73H387.81L396.61 382.4Z" fill="#F0F0F0"/>
<path d="M398 307.46V337.46H165V307.46H398ZM398.53 306.93H164.42V338H398.49V306.93H398.53Z" fill="#FAFAFA"/>
<path d="M398 341.85V371.85H165V341.85H398ZM398.53 341.32H164.42V372.41H398.49V341.32H398.53Z" fill="#FAFAFA"/>
<path d="M259.9 310H303C303.408 310 303.812 309.919 304.189 309.763C304.565 309.607 304.908 309.377 305.196 309.089C305.484 308.8 305.712 308.457 305.867 308.079C306.022 307.702 306.101 307.298 306.1 306.89H256.8C256.799 307.298 256.878 307.702 257.033 308.079C257.188 308.457 257.416 308.8 257.704 309.089C257.992 309.377 258.335 309.607 258.711 309.763C259.088 309.919 259.492 310 259.9 310Z" fill="#FAFAFA"/>
<path d="M259.9 344.42H303C303.407 344.42 303.81 344.34 304.186 344.184C304.562 344.028 304.904 343.8 305.192 343.512C305.48 343.224 305.708 342.882 305.864 342.506C306.02 342.13 306.1 341.727 306.1 341.32H256.8C256.8 342.142 257.127 342.931 257.708 343.512C258.289 344.093 259.078 344.42 259.9 344.42Z" fill="#FAFAFA"/>
<path d="M250 427.56C357.082 427.56 443.89 422.492 443.89 416.24C443.89 409.988 357.082 404.92 250 404.92C142.917 404.92 56.11 409.988 56.11 416.24C56.11 422.492 142.917 427.56 250 427.56Z" fill="#F5F5F5"/>
<path d="M131.91 186.65L131.02 186.19C138.789 171.022 149.221 157.375 161.82 145.9L162.5 146.64C149.988 158.035 139.626 171.588 131.91 186.65Z" fill="#EAEAFA"/>
<path d="M119.39 222.35L118.39 222.15C119.838 215.079 121.823 208.129 124.33 201.36L125.27 201.71C122.783 208.429 120.818 215.329 119.39 222.35Z" fill="#EAEAFA"/>
<path opacity="0.9" d="M336.981 330.394C381.145 286.23 381.145 214.625 336.981 170.461C292.817 126.296 221.212 126.296 177.048 170.461C132.883 214.625 132.883 286.23 177.048 330.394C221.212 374.558 292.817 374.558 336.981 330.394Z" fill="#FAFAFA"/>
<g opacity="0.4">
<path opacity="0.4" d="M176.99 313.68H150.4L155.54 301.06H171.85L176.99 313.68Z" fill="#EAEAFA"/>
<path opacity="0.2" d="M176.99 313.68H150.4L155.54 301.06H171.85L176.99 313.68Z" fill="#5127AC"/>
<path opacity="0.4" d="M217.4 313.68H176.99L171.85 301.06H212.26L217.4 313.68Z" fill="#EAEAFA"/>
<path opacity="0.3" d="M217.4 313.68H176.99L171.85 301.06H212.26L217.4 313.68Z" fill="white"/>
<path opacity="0.4" d="M210.93 313.68H184.33L189.47 301.06H205.79L210.93 313.68Z" fill="#EAEAFA"/>
<path opacity="0.2" d="M210.93 313.68H184.33L189.47 301.06H205.79L210.93 313.68Z" fill="#5127AC"/>
<path opacity="0.4" d="M251.33 313.68H210.93L205.79 301.06H246.19L251.33 313.68Z" fill="#EAEAFA"/>
<path opacity="0.3" d="M251.33 313.68H210.93L205.79 301.06H246.19L251.33 313.68Z" fill="white"/>
<path opacity="0.4" d="M244.86 313.68H218.27L223.41 301.06H239.72L244.86 313.68Z" fill="#EAEAFA"/>
<path opacity="0.2" d="M244.86 313.68H218.27L223.41 301.06H239.72L244.86 313.68Z" fill="#5127AC"/>
<path opacity="0.4" d="M285.26 313.68H244.86L239.72 301.06H280.13L285.26 313.68Z" fill="#EAEAFA"/>
<path opacity="0.3" d="M285.26 313.68H244.86L239.72 301.06H280.13L285.26 313.68Z" fill="white"/>
<path opacity="0.4" d="M278.79 313.68H252.2L257.34 301.06H273.65L278.79 313.68Z" fill="#EAEAFA"/>
<path opacity="0.2" d="M278.79 313.68H252.2L257.34 301.06H273.65L278.79 313.68Z" fill="#5127AC"/>
<path opacity="0.4" d="M319.2 313.68H278.79L273.65 301.06H314.06L319.2 313.68Z" fill="#EAEAFA"/>
<path opacity="0.3" d="M319.2 313.68H278.79L273.65 301.06H314.06L319.2 313.68Z" fill="white"/>
<path opacity="0.4" d="M312.73 313.68H286.13L291.27 301.06H307.59L312.73 313.68Z" fill="#EAEAFA"/>
<path opacity="0.2" d="M312.73 313.68H286.13L291.27 301.06H307.59L312.73 313.68Z" fill="#5127AC"/>
<path opacity="0.4" d="M334.29 313.68C335.577 309.5 336.743 305.293 337.79 301.06H307.59L312.73 313.68H334.29Z" fill="#EAEAFA"/>
<path opacity="0.3" d="M334.29 313.68C335.577 309.5 336.743 305.293 337.79 301.06H307.59L312.73 313.68H334.29Z" fill="white"/>
<path opacity="0.4" d="M337.79 301.06H325.21L320.07 313.68H334.29C335.583 309.5 336.75 305.293 337.79 301.06Z" fill="#EAEAFA"/>
<path opacity="0.2" d="M337.79 301.06H325.21L320.07 313.68H334.29C335.583 309.5 336.75 305.293 337.79 301.06Z" fill="#5127AC"/>
<path opacity="0.4" d="M187.36 301.06H160.76L165.9 288.43H182.22L187.36 301.06Z" fill="#EAEAFA"/>
<path opacity="0.2" d="M187.36 301.06H160.76L165.9 288.43H182.22L187.36 301.06Z" fill="#5127AC"/>
<path opacity="0.4" d="M227.76 301.06H187.36L182.22 288.43H222.62L227.76 301.06Z" fill="#EAEAFA"/>
<path opacity="0.3" d="M227.76 301.06H187.36L182.22 288.43H222.62L227.76 301.06Z" fill="white"/>
<path opacity="0.4" d="M221.29 301.06H194.7L199.84 288.43H216.15L221.29 301.06Z" fill="#EAEAFA"/>
<path opacity="0.2" d="M221.29 301.06H194.7L199.84 288.43H216.15L221.29 301.06Z" fill="#5127AC"/>
<path opacity="0.4" d="M261.69 301.06H221.29L216.15 288.43H256.56L261.69 301.06Z" fill="#EAEAFA"/>
<path opacity="0.3" d="M261.69 301.06H221.29L216.15 288.43H256.56L261.69 301.06Z" fill="white"/>
<path opacity="0.4" d="M255.22 301.06H228.63L233.77 288.43H250.08L255.22 301.06Z" fill="#EAEAFA"/>
<path opacity="0.2" d="M255.22 301.06H228.63L233.77 288.43H250.08L255.22 301.06Z" fill="#5127AC"/>
<path opacity="0.4" d="M295.63 301.06H255.22L250.08 288.43H290.49L295.63 301.06Z" fill="#EAEAFA"/>
<path opacity="0.3" d="M295.63 301.06H255.22L250.08 288.43H290.49L295.63 301.06Z" fill="white"/>
<path opacity="0.4" d="M289.16 301.06H262.56L267.7 288.43H284.02L289.16 301.06Z" fill="#EAEAFA"/>
<path opacity="0.2" d="M289.16 301.06H262.56L267.7 288.43H284.02L289.16 301.06Z" fill="#5127AC"/>
<path opacity="0.4" d="M329.56 301.06H289.16L284.02 288.43H324.42L329.56 301.06Z" fill="#EAEAFA"/>
<path opacity="0.3" d="M329.56 301.06H289.16L284.02 288.43H324.42L329.56 301.06Z" fill="white"/>
<path opacity="0.4" d="M323.09 301.06H296.5L301.64 288.43H317.95L323.09 301.06Z" fill="#EAEAFA"/>
<path opacity="0.2" d="M323.09 301.06H296.5L301.64 288.43H317.95L323.09 301.06Z" fill="#5127AC"/>
<path opacity="0.4" d="M337.79 301.06C338.79 296.87 339.74 292.67 340.52 288.43H318L323.14 301.06H337.79Z" fill="#EAEAFA"/>
<path opacity="0.3" d="M337.79 301.06C338.79 296.87 339.74 292.67 340.52 288.43H318L323.14 301.06H337.79Z" fill="white"/>
<path opacity="0.4" d="M340.52 288.43H335.57L330.43 301.06H337.79C338.82 296.87 339.74 292.67 340.52 288.43Z" fill="#EAEAFA"/>
<path opacity="0.2" d="M340.52 288.43H335.57L330.43 301.06H337.79C338.82 296.87 339.74 292.67 340.52 288.43Z" fill="#5127AC"/>
<path opacity="0.4" d="M196.24 288.43H169.65L174.79 275.81H191.1L196.24 288.43Z" fill="#EAEAFA"/>
<path opacity="0.2" d="M196.24 288.43H169.65L174.79 275.81H191.1L196.24 288.43Z" fill="#5127AC"/>
<path opacity="0.4" d="M236.65 288.43H196.24L191.1 275.81H231.51L236.65 288.43Z" fill="#EAEAFA"/>
<path opacity="0.3" d="M236.65 288.43H196.24L191.1 275.81H231.51L236.65 288.43Z" fill="white"/>
<path opacity="0.4" d="M230.18 288.43H203.58L208.72 275.81H225.03L230.18 288.43Z" fill="#EAEAFA"/>
<path opacity="0.2" d="M230.18 288.43H203.58L208.72 275.81H225.03L230.18 288.43Z" fill="#5127AC"/>
<path opacity="0.4" d="M270.58 288.43H230.18L225.03 275.81H265.44L270.58 288.43Z" fill="#EAEAFA"/>
<path opacity="0.3" d="M270.58 288.43H230.18L225.03 275.81H265.44L270.58 288.43Z" fill="white"/>
<path opacity="0.4" d="M264.11 288.43H237.52L242.66 275.81H258.97L264.11 288.43Z" fill="#EAEAFA"/>
<path opacity="0.2" d="M264.11 288.43H237.52L242.66 275.81H258.97L264.11 288.43Z" fill="#5127AC"/>
<path opacity="0.4" d="M304.51 288.43H264.11L258.97 275.81H299.37L304.51 288.43Z" fill="#EAEAFA"/>
<path opacity="0.3" d="M304.51 288.43H264.11L258.97 275.81H299.37L304.51 288.43Z" fill="white"/>
<path opacity="0.4" d="M298.04 288.43H271.45L276.59 275.81H292.9L298.04 288.43Z" fill="#EAEAFA"/>
<path opacity="0.2" d="M298.04 288.43H271.45L276.59 275.81H292.9L298.04 288.43Z" fill="#5127AC"/>
<path opacity="0.4" d="M338.45 288.43H298.04L292.9 275.81H333.31L338.45 288.43Z" fill="#EAEAFA"/>
<path opacity="0.3" d="M338.45 288.43H298.04L292.9 275.81H333.31L338.45 288.43Z" fill="white"/>
<path opacity="0.4" d="M331.98 288.43H305.38L310.52 275.81H326.84L331.98 288.43Z" fill="#EAEAFA"/>
<path opacity="0.2" d="M331.98 288.43H305.38L310.52 275.81H326.84L331.98 288.43Z" fill="#5127AC"/>
<path opacity="0.4" d="M340.52 288.43C341.3 284.25 341.967 280.043 342.52 275.81H326.84L332 288.43H340.52Z" fill="#EAEAFA"/>
<path opacity="0.3" d="M340.52 288.43C341.3 284.25 341.967 280.043 342.52 275.81H326.84L332 288.43H340.52Z" fill="white"/>
<path opacity="0.4" d="M341.41 283.29L339.32 288.43H340.52C340.84 286.723 341.137 285.01 341.41 283.29Z" fill="#EAEAFA"/>
<path opacity="0.2" d="M341.41 283.29L339.32 288.43H340.52C340.84 286.723 341.137 285.01 341.41 283.29Z" fill="#5127AC"/>
<path opacity="0.4" d="M206.6 275.81H180.01L185.15 263.19H201.47L206.6 275.81Z" fill="#EAEAFA"/>
<path opacity="0.2" d="M206.6 275.81H180.01L185.15 263.19H201.47L206.6 275.81Z" fill="#5127AC"/>
<path opacity="0.4" d="M247.01 275.81H206.6L201.47 263.19H241.87L247.01 275.81Z" fill="#EAEAFA"/>
<path opacity="0.3" d="M247.01 275.81H206.6L201.47 263.19H241.87L247.01 275.81Z" fill="white"/>
<path opacity="0.4" d="M240.54 275.81H213.95L219.09 263.19H235.4L240.54 275.81Z" fill="#EAEAFA"/>
<path opacity="0.2" d="M240.54 275.81H213.95L219.09 263.19H235.4L240.54 275.81Z" fill="#5127AC"/>
<path opacity="0.4" d="M280.94 275.81H240.54L235.4 263.19H275.81L280.94 275.81Z" fill="#EAEAFA"/>
<path opacity="0.3" d="M280.94 275.81H240.54L235.4 263.19H275.81L280.94 275.81Z" fill="white"/>
<path opacity="0.4" d="M274.47 275.81H247.88L253.02 263.19H269.33L274.47 275.81Z" fill="#EAEAFA"/>
<path opacity="0.2" d="M274.47 275.81H247.88L253.02 263.19H269.33L274.47 275.81Z" fill="#5127AC"/>
<path opacity="0.4" d="M314.88 275.81H274.47L269.33 263.19H309.74L314.88 275.81Z" fill="#EAEAFA"/>
<path opacity="0.3" d="M314.88 275.81H274.47L269.33 263.19H309.74L314.88 275.81Z" fill="white"/>
<path opacity="0.4" d="M308.41 275.81H281.81L286.95 263.19H303.27L308.41 275.81Z" fill="#EAEAFA"/>
<path opacity="0.2" d="M308.41 275.81H281.81L286.95 263.19H303.27L308.41 275.81Z" fill="#5127AC"/>
<path opacity="0.4" d="M342.48 275.81C343 271.617 343.383 267.41 343.63 263.19H303.27L308.41 275.81H342.48Z" fill="#EAEAFA"/>
<path opacity="0.3" d="M342.48 275.81C343 271.617 343.383 267.41 343.63 263.19H303.27L308.41 275.81H342.48Z" fill="white"/>
<path opacity="0.4" d="M342.34 275.81H315.75L320.89 263.19H337.2L342.34 275.81Z" fill="#EAEAFA"/>
<path opacity="0.2" d="M342.34 275.81H315.75L320.89 263.19H337.2L342.34 275.81Z" fill="#5127AC"/>
<path opacity="0.4" d="M342.48 275.81C343 271.617 343.383 267.41 343.63 263.19H337.2L342.34 275.81H342.48Z" fill="#EAEAFA"/>
<path opacity="0.3" d="M342.48 275.81C343 271.617 343.383 267.41 343.63 263.19H337.2L342.34 275.81H342.48Z" fill="white"/>
<path opacity="0.4" d="M200.71 364.17H209.79L204.65 351.55H184.51C190.228 355.332 195.644 359.551 200.71 364.17Z" fill="#EAEAFA"/>
<path opacity="0.3" d="M200.71 364.17H209.79L204.65 351.55H184.51C190.228 355.332 195.644 359.551 200.71 364.17Z" fill="white"/>
<path opacity="0.4" d="M200.71 364.17H203.32L198.18 351.55H184.51C190.228 355.332 195.644 359.551 200.71 364.17Z" fill="#EAEAFA"/>
<path opacity="0.2" d="M200.71 364.17H203.32L198.18 351.55H184.51C190.228 355.332 195.644 359.551 200.71 364.17Z" fill="#5127AC"/>
<path opacity="0.4" d="M243.72 364.17H203.32L198.18 351.55H238.58L243.72 364.17Z" fill="#EAEAFA"/>
<path opacity="0.3" d="M243.72 364.17H203.32L198.18 351.55H238.58L243.72 364.17Z" fill="white"/>
<path opacity="0.4" d="M237.25 364.17H210.66L215.8 351.55H232.11L237.25 364.17Z" fill="#EAEAFA"/>
<path opacity="0.2" d="M237.25 364.17H210.66L215.8 351.55H232.11L237.25 364.17Z" fill="#5127AC"/>
<path opacity="0.4" d="M277.65 364.17H237.25L232.11 351.55H272.51L277.65 364.17Z" fill="#EAEAFA"/>
<path opacity="0.3" d="M277.65 364.17H237.25L232.11 351.55H272.51L277.65 364.17Z" fill="white"/>
<path opacity="0.4" d="M271.18 364.17H244.59L249.73 351.55H266.04L271.18 364.17Z" fill="#EAEAFA"/>
<path opacity="0.2" d="M271.18 364.17H244.59L249.73 351.55H266.04L271.18 364.17Z" fill="#5127AC"/>
<path opacity="0.4" d="M311.37 363.63L306.45 351.55H266L271.14 364.17H310.77C311 364 311.18 363.81 311.37 363.63Z" fill="#EAEAFA"/>
<path opacity="0.3" d="M311.37 363.63L306.45 351.55H266L271.14 364.17H310.77C311 364 311.18 363.81 311.37 363.63Z" fill="white"/>
<path opacity="0.4" d="M305.12 364.17H278.52L283.66 351.55H299.98L305.12 364.17Z" fill="#EAEAFA"/>
<path opacity="0.2" d="M305.12 364.17H278.52L283.66 351.55H299.98L305.12 364.17Z" fill="#5127AC"/>
<path opacity="0.4" d="M310.81 364.17C314.533 360.5 317.619 356.235 319.94 351.55H300L305.14 364.17H310.81Z" fill="#EAEAFA"/>
<path opacity="0.3" d="M310.81 364.17C314.533 360.5 317.619 356.235 319.94 351.55H300L305.14 364.17H310.81Z" fill="white"/>
<path opacity="0.4" d="M319.94 351.55H317.6L313.72 361.07C316.128 358.128 318.213 354.937 319.94 351.55Z" fill="#EAEAFA"/>
<path opacity="0.2" d="M319.94 351.55H317.6L313.72 361.07C316.128 358.128 318.213 354.937 319.94 351.55Z" fill="#5127AC"/>
<path opacity="0.4" d="M169.32 340.34C174.13 344.41 179.32 347.96 184.51 351.55H186.22L181.08 338.93H167.69C168.23 339.4 168.77 339.88 169.32 340.34Z" fill="#EAEAFA"/>
<path opacity="0.3" d="M169.32 340.34C174.13 344.41 179.32 347.96 184.51 351.55H186.22L181.08 338.93H167.69C168.23 339.4 168.77 339.88 169.32 340.34Z" fill="white"/>
<path opacity="0.4" d="M169.32 340.34C172.06 342.66 174.93 344.81 177.85 346.89L174.61 338.89H167.69C168.23 339.4 168.77 339.88 169.32 340.34Z" fill="#EAEAFA"/>
<path opacity="0.2" d="M169.32 340.34C172.06 342.66 174.93 344.81 177.85 346.89L174.61 338.89H167.69C168.23 339.4 168.77 339.88 169.32 340.34Z" fill="#5127AC"/>
<path opacity="0.4" d="M184.51 351.55H220.15L215 338.93H174.6L177.84 346.93C180.05 348.47 182.29 350 184.51 351.55Z" fill="#EAEAFA"/>
<path opacity="0.3" d="M184.51 351.55H220.15L215 338.93H174.6L177.84 346.93C180.05 348.47 182.29 350 184.51 351.55Z" fill="white"/>
<path opacity="0.4" d="M213.68 351.55H187.09L192.23 338.93H208.54L213.68 351.55Z" fill="#EAEAFA"/>
<path opacity="0.2" d="M213.68 351.55H187.09L192.23 338.93H208.54L213.68 351.55Z" fill="#5127AC"/>
<path opacity="0.4" d="M254.09 351.55H213.68L208.54 338.93H248.95L254.09 351.55Z" fill="#EAEAFA"/>
<path opacity="0.3" d="M254.09 351.55H213.68L208.54 338.93H248.95L254.09 351.55Z" fill="white"/>
<path opacity="0.4" d="M247.61 351.55H221.02L226.16 338.93H242.47L247.61 351.55Z" fill="#EAEAFA"/>
<path opacity="0.2" d="M247.61 351.55H221.02L226.16 338.93H242.47L247.61 351.55Z" fill="#5127AC"/>
<path opacity="0.4" d="M288.02 351.55H247.61L242.47 338.93H282.88L288.02 351.55Z" fill="#EAEAFA"/>
<path opacity="0.3" d="M288.02 351.55H247.61L242.47 338.93H282.88L288.02 351.55Z" fill="white"/>
<path opacity="0.4" d="M281.55 351.55H254.96L260.1 338.93H276.41L281.55 351.55Z" fill="#EAEAFA"/>
<path opacity="0.2" d="M281.55 351.55H254.96L260.1 338.93H276.41L281.55 351.55Z" fill="#5127AC"/>
<path opacity="0.4" d="M321.05 349.35L316.81 338.93H276.41L281.55 351.55H319.94C320.33 350.82 320.69 350.09 321.05 349.35Z" fill="#EAEAFA"/>
<path opacity="0.3" d="M321.05 349.35L316.81 338.93H276.41L281.55 351.55H319.94C320.33 350.82 320.69 350.09 321.05 349.35Z" fill="white"/>
<path opacity="0.4" d="M315.48 351.55H288.89L294.03 338.93H310.34L315.48 351.55Z" fill="#EAEAFA"/>
<path opacity="0.2" d="M315.48 351.55H288.89L294.03 338.93H310.34L315.48 351.55Z" fill="#5127AC"/>
<path opacity="0.4" d="M319.94 351.55C322.032 347.458 323.875 343.244 325.46 338.93H310.34L315.48 351.55H319.94Z" fill="#EAEAFA"/>
<path opacity="0.3" d="M319.94 351.55C322.032 347.458 323.875 343.244 325.46 338.93H310.34L315.48 351.55H319.94Z" fill="white"/>
<path opacity="0.4" d="M167.69 338.93H195.1L190 326.3H155.57C159.258 330.834 163.312 335.058 167.69 338.93Z" fill="#EAEAFA"/>
<path opacity="0.3" d="M167.69 338.93H195.1L190 326.3H155.57C159.258 330.834 163.312 335.058 167.69 338.93Z" fill="white"/>
<path opacity="0.4" d="M167.69 338.93H188.63L183.49 326.3H167.18L163.59 335.11C164.917 336.423 166.283 337.697 167.69 338.93Z" fill="#EAEAFA"/>
<path opacity="0.2" d="M167.69 338.93H188.63L183.49 326.3H167.18L163.59 335.11C164.917 336.423 166.283 337.697 167.69 338.93Z" fill="#5127AC"/>
<path opacity="0.4" d="M229.04 338.93H188.63L183.49 326.3H223.9L229.04 338.93Z" fill="#EAEAFA"/>
<path opacity="0.3" d="M229.04 338.93H188.63L183.49 326.3H223.9L229.04 338.93Z" fill="white"/>
<path opacity="0.4" d="M222.56 338.93H195.97L201.11 326.3H217.43L222.56 338.93Z" fill="#EAEAFA"/>
<path opacity="0.2" d="M222.56 338.93H195.97L201.11 326.3H217.43L222.56 338.93Z" fill="#5127AC"/>
<path opacity="0.4" d="M262.97 338.93H222.56L217.43 326.3H257.83L262.97 338.93Z" fill="#EAEAFA"/>
<path opacity="0.3" d="M262.97 338.93H222.56L217.43 326.3H257.83L262.97 338.93Z" fill="white"/>
<path opacity="0.4" d="M256.5 338.93H229.91L235.05 326.3H251.36L256.5 338.93Z" fill="#EAEAFA"/>
<path opacity="0.2" d="M256.5 338.93H229.91L235.05 326.3H251.36L256.5 338.93Z" fill="#5127AC"/>
<path opacity="0.4" d="M296.9 338.93H256.5L251.36 326.3H291.76L296.9 338.93Z" fill="#EAEAFA"/>
<path opacity="0.3" d="M296.9 338.93H256.5L251.36 326.3H291.76L296.9 338.93Z" fill="white"/>
<path opacity="0.4" d="M290.43 338.93H263.84L268.98 326.3H285.29L290.43 338.93Z" fill="#EAEAFA"/>
<path opacity="0.2" d="M290.43 338.93H263.84L268.98 326.3H285.29L290.43 338.93Z" fill="#5127AC"/>
<path opacity="0.4" d="M328 331.94L325.71 326.3H285.29L290.43 338.93H325.43C326.36 336.55 327.19 334.2 328 331.94Z" fill="#EAEAFA"/>
<path opacity="0.3" d="M328 331.94L325.71 326.3H285.29L290.43 338.93H325.43C326.36 336.55 327.19 334.2 328 331.94Z" fill="white"/>
<path opacity="0.4" d="M324.37 338.93H297.77L302.91 326.3H319.23L324.37 338.93Z" fill="#EAEAFA"/>
<path opacity="0.2" d="M324.37 338.93H297.77L302.91 326.3H319.23L324.37 338.93Z" fill="#5127AC"/>
<path opacity="0.4" d="M325.46 338.93C327.11 334.56 328.55 330.29 329.95 326.51C329.969 326.439 329.992 326.368 330.02 326.3H319.23L324.37 338.93H325.46Z" fill="#EAEAFA"/>
<path opacity="0.3" d="M325.46 338.93C327.11 334.56 328.55 330.29 329.95 326.51C329.969 326.439 329.992 326.368 330.02 326.3H319.23L324.37 338.93H325.46Z" fill="white"/>
<path opacity="0.4" d="M155.57 326.3H165.06L159.92 313.68H146.66C149.334 318.088 152.311 322.305 155.57 326.3Z" fill="#EAEAFA"/>
<path opacity="0.2" d="M155.57 326.3H165.06L159.92 313.68H146.66C149.334 318.088 152.311 322.305 155.57 326.3Z" fill="#5127AC"/>
<path opacity="0.4" d="M205.47 326.3H165.06L159.92 313.68H200.33L205.47 326.3Z" fill="#EAEAFA"/>
<path opacity="0.3" d="M205.47 326.3H165.06L159.92 313.68H200.33L205.47 326.3Z" fill="white"/>
<path opacity="0.4" d="M199 326.3H172.4L177.54 313.68H193.86L199 326.3Z" fill="#EAEAFA"/>
<path opacity="0.2" d="M199 326.3H172.4L177.54 313.68H193.86L199 326.3Z" fill="#5127AC"/>
<path opacity="0.4" d="M239.4 326.3H199L193.86 313.68H234.26L239.4 326.3Z" fill="#EAEAFA"/>
<path opacity="0.3" d="M239.4 326.3H199L193.86 313.68H234.26L239.4 326.3Z" fill="white"/>
<path opacity="0.4" d="M232.93 326.3H206.34L211.48 313.68H227.79L232.93 326.3Z" fill="#EAEAFA"/>
<path opacity="0.2" d="M232.93 326.3H206.34L211.48 313.68H227.79L232.93 326.3Z" fill="#5127AC"/>
<path opacity="0.4" d="M273.33 326.3H232.93L227.79 313.68H268.19L273.33 326.3Z" fill="#EAEAFA"/>
<path opacity="0.3" d="M273.33 326.3H232.93L227.79 313.68H268.19L273.33 326.3Z" fill="white"/>
<path opacity="0.4" d="M266.86 326.3H240.27L245.41 313.68H261.72L266.86 326.3Z" fill="#EAEAFA"/>
<path opacity="0.2" d="M266.86 326.3H240.27L245.41 313.68H261.72L266.86 326.3Z" fill="#5127AC"/>
<path opacity="0.4" d="M307.27 326.3H266.86L261.72 313.68H302.13L307.27 326.3Z" fill="#EAEAFA"/>
<path opacity="0.3" d="M307.27 326.3H266.86L261.72 313.68H302.13L307.27 326.3Z" fill="white"/>
<path opacity="0.4" d="M300.8 326.3H274.2L279.34 313.68H295.66L300.8 326.3Z" fill="#EAEAFA"/>
<path opacity="0.2" d="M300.8 326.3H274.2L279.34 313.68H295.66L300.8 326.3Z" fill="#5127AC"/>
<path opacity="0.4" d="M330 326.3C331.54 322.127 332.963 317.92 334.27 313.68H295.66L300.8 326.3H330Z" fill="#EAEAFA"/>
<path opacity="0.3" d="M330 326.3C331.54 322.127 332.963 317.92 334.27 313.68H295.66L300.8 326.3H330Z" fill="white"/>
<path opacity="0.4" d="M332.2 320.1L329.59 313.68H313.28L308.14 326.3H330C330.78 324.25 331.5 322.18 332.2 320.1Z" fill="#EAEAFA"/>
<path opacity="0.2" d="M332.2 320.1L329.59 313.68H313.28L308.14 326.3H330C330.78 324.25 331.5 322.18 332.2 320.1Z" fill="#5127AC"/>
<path opacity="0.4" d="M334.29 313.68H329.59L332.2 320.1C332.933 317.973 333.63 315.833 334.29 313.68Z" fill="#EAEAFA"/>
<path opacity="0.3" d="M334.29 313.68H329.59L332.2 320.1C332.933 317.973 333.63 315.833 334.29 313.68Z" fill="white"/>
</g>
<path d="M257.18 112.41C229.86 112.41 203.154 120.511 180.439 135.689C157.724 150.867 140.019 172.44 129.565 197.68C119.11 222.92 116.374 250.693 121.704 277.488C127.034 304.282 140.19 328.895 159.507 348.213C178.825 367.53 203.438 380.686 230.232 386.016C257.027 391.346 284.8 388.61 310.04 378.155C335.28 367.701 356.853 349.996 372.031 327.281C387.209 304.566 395.31 277.86 395.31 250.54C395.31 213.906 380.757 178.772 354.853 152.867C328.948 126.963 293.814 112.41 257.18 112.41ZM257 363.52C234.633 363.518 212.77 356.884 194.173 344.456C175.577 332.028 161.084 314.365 152.526 293.701C143.968 273.036 141.729 250.298 146.094 228.361C150.459 206.424 161.23 186.275 177.047 170.46C192.863 154.645 213.014 143.875 234.951 139.512C256.888 135.149 279.626 137.39 300.29 145.949C320.954 154.509 338.616 169.004 351.042 187.602C363.468 206.199 370.1 228.063 370.1 250.43C370.1 265.282 367.174 279.989 361.491 293.71C355.807 307.431 347.476 319.899 336.973 330.4C326.471 340.902 314.003 349.232 300.281 354.914C286.559 360.597 271.852 363.521 257 363.52Z" fill="#EAEAFA"/>
<path opacity="0.4" d="M257.18 381.56C329.42 381.56 388.18 322.78 388.18 250.56C388.18 178.34 329.4 119.56 257.18 119.56C184.96 119.56 126.18 178.33 126.18 250.56C126.18 322.79 184.93 381.56 257.18 381.56ZM257.18 120.56C291.644 120.605 324.684 134.316 349.054 158.686C373.424 183.056 387.135 216.096 387.18 250.56C387.18 322.25 328.85 380.56 257.18 380.56C185.51 380.56 127.18 322.23 127.18 250.56C127.18 178.89 185.48 120.52 257.18 120.52V120.56Z" fill="#FAFAFA"/>
<path d="M46.0432 190.017C45.5893 190.017 45.1354 190.017 44.6815 190.017L44.7463 187.813C46.8861 187.878 49.0909 187.748 51.1659 187.424L51.5549 189.628C49.7393 189.888 47.9236 190.017 46.0432 190.017ZM37.8728 189.045C35.6033 188.526 33.4634 187.683 31.3884 186.71L32.3611 184.7C34.3064 185.608 36.3166 186.321 38.4564 186.84L37.8728 189.045ZM58.2339 187.813L57.4558 185.738C59.466 184.96 61.4112 183.987 63.2269 182.82L64.4589 184.7C62.4487 185.932 60.3738 186.97 58.2339 187.813ZM25.4876 183.144C23.672 181.782 21.986 180.161 20.4297 178.475L22.1157 176.984C23.5423 178.605 25.0985 180.096 26.8493 181.393L25.4876 183.144ZM69.7762 180.42L68.2199 178.799C69.7762 177.308 71.1379 175.622 72.3699 173.871L74.1855 175.103C72.8887 176.984 71.3973 178.799 69.7762 180.42ZM16.4743 172.834C15.3071 170.824 14.3993 168.684 13.686 166.544L15.8258 165.83C16.4743 167.841 17.3821 169.851 18.4196 171.731L16.4743 172.834ZM77.4926 169.073L75.4176 168.23C76.2606 166.22 76.8442 164.145 77.2333 162.07C77.6223 160.059 77.8168 158.049 77.8168 156.039V155.844H80.0215V156.039C80.0215 158.244 79.827 160.384 79.3731 162.523C78.984 164.728 78.3355 166.933 77.4926 169.073ZM12.1946 159.8C12.0649 158.568 12 157.271 12 156.039C12 155.002 12.0649 153.964 12.1297 152.862L14.3345 153.056C14.2696 154.029 14.2047 155.002 14.2047 155.974C14.2047 157.141 14.2696 158.309 14.3993 159.476L12.1946 159.8ZM77.1684 149.36C76.7144 147.285 76.066 145.21 75.223 143.265L77.2333 142.357C78.1411 144.432 78.8543 146.637 79.3731 148.906L77.1684 149.36ZM15.5664 146.766L13.4266 146.118C14.0751 143.913 14.9829 141.773 16.0852 139.763L18.0305 140.801C17.0579 142.746 16.2149 144.691 15.5664 146.766ZM71.9808 137.623C70.7488 135.873 69.3222 134.251 67.766 132.76L69.3222 131.139C71.0082 132.695 72.4996 134.446 73.8613 136.326L71.9808 137.623ZM21.7266 135.548L20.0407 134.122C21.5321 132.371 23.218 130.75 24.9688 129.323L26.3306 131.074C24.6447 132.371 23.0883 133.862 21.7266 135.548ZM62.6433 128.869C60.8277 127.767 58.8824 126.794 56.8074 126.081L57.5855 124.006C59.7253 124.784 61.8652 125.757 63.8105 126.989L62.6433 128.869ZM31.7775 127.572L30.8048 125.562C32.8798 124.525 35.0197 123.682 37.2244 123.098L37.808 125.238C35.733 125.822 33.7228 126.6 31.7775 127.572ZM50.5823 124.525C48.4424 124.201 46.3026 124.136 44.1628 124.265L44.033 122.061C46.3026 121.931 48.6369 121.996 50.9065 122.385L50.5823 124.525Z" fill="#DADAF5"/>
<path d="M451.043 410.017C450.589 410.017 450.135 410.017 449.681 410.017L449.746 407.813C451.886 407.878 454.091 407.748 456.166 407.424L456.555 409.628C454.739 409.888 452.924 410.017 451.043 410.017ZM442.873 409.045C440.603 408.526 438.463 407.683 436.388 406.71L437.361 404.7C439.306 405.608 441.317 406.321 443.456 406.84L442.873 409.045ZM463.234 407.813L462.456 405.738C464.466 404.96 466.411 403.987 468.227 402.82L469.459 404.7C467.449 405.932 465.374 406.97 463.234 407.813ZM430.488 403.144C428.672 401.782 426.986 400.161 425.43 398.475L427.116 396.984C428.542 398.605 430.099 400.096 431.849 401.393L430.488 403.144ZM474.776 400.42L473.22 398.799C474.776 397.308 476.138 395.622 477.37 393.871L479.186 395.103C477.889 396.984 476.397 398.799 474.776 400.42ZM421.474 392.834C420.307 390.824 419.399 388.684 418.686 386.544L420.826 385.83C421.474 387.841 422.382 389.851 423.42 391.731L421.474 392.834ZM482.493 389.073L480.418 388.23C481.261 386.22 481.844 384.145 482.233 382.07C482.622 380.059 482.817 378.049 482.817 376.039V375.844H485.022V376.039C485.022 378.244 484.827 380.384 484.373 382.523C483.984 384.728 483.336 386.933 482.493 389.073ZM417.195 379.8C417.065 378.568 417 377.271 417 376.039C417 375.002 417.065 373.964 417.13 372.862L419.334 373.056C419.27 374.029 419.205 375.002 419.205 375.974C419.205 377.141 419.27 378.309 419.399 379.476L417.195 379.8ZM482.168 369.36C481.714 367.285 481.066 365.21 480.223 363.265L482.233 362.357C483.141 364.432 483.854 366.637 484.373 368.906L482.168 369.36ZM420.566 366.766L418.427 366.118C419.075 363.913 419.983 361.773 421.085 359.763L423.031 360.801C422.058 362.746 421.215 364.691 420.566 366.766ZM476.981 357.623C475.749 355.873 474.322 354.251 472.766 352.76L474.322 351.139C476.008 352.695 477.5 354.446 478.861 356.326L476.981 357.623ZM426.727 355.548L425.041 354.122C426.532 352.371 428.218 350.75 429.969 349.323L431.331 351.074C429.645 352.371 428.088 353.862 426.727 355.548ZM467.643 348.869C465.828 347.767 463.882 346.794 461.807 346.081L462.585 344.006C464.725 344.784 466.865 345.757 468.81 346.989L467.643 348.869ZM436.777 347.572L435.805 345.562C437.88 344.525 440.02 343.682 442.224 343.098L442.808 345.238C440.733 345.822 438.723 346.6 436.777 347.572ZM455.582 344.525C453.442 344.201 451.303 344.136 449.163 344.265L449.033 342.061C451.303 341.931 453.637 341.996 455.906 342.385L455.582 344.525Z" fill="#DADAF5"/>
<path opacity="0.22" d="M213.582 209L219.21 227.226C219.929 229.545 221.538 231.485 223.686 232.619C225.833 233.752 228.343 233.987 230.664 233.272L248.882 227.644L213.582 209Z" fill="#5743B0"/>
<path d="M213.582 209L148.462 229.12C147.312 229.473 146.244 230.05 145.317 230.816C144.39 231.583 143.624 232.525 143.062 233.588C142.499 234.651 142.152 235.814 142.04 237.012C141.928 238.209 142.053 239.417 142.408 240.566L179.585 360.924C179.94 362.073 180.518 363.141 181.286 364.067C182.053 364.993 182.996 365.758 184.06 366.32C185.123 366.881 186.287 367.228 187.484 367.339C188.682 367.451 189.89 367.326 191.039 366.97L274.385 341.222C275.534 340.868 276.602 340.291 277.528 339.524C278.453 338.757 279.219 337.816 279.78 336.753C280.342 335.69 280.688 334.526 280.8 333.329C280.912 332.133 280.787 330.925 280.431 329.777L248.858 227.644L213.582 209Z" fill="#5743B0"/>
<path opacity="0.8" d="M213.582 209L148.462 229.12C147.312 229.473 146.244 230.05 145.317 230.816C144.39 231.583 143.624 232.525 143.062 233.588C142.499 234.651 142.152 235.814 142.04 237.012C141.928 238.209 142.053 239.417 142.408 240.566L179.585 360.924C179.94 362.073 180.518 363.141 181.286 364.067C182.053 364.993 182.996 365.758 184.06 366.32C185.123 366.881 186.287 367.228 187.484 367.339C188.682 367.451 189.89 367.326 191.039 366.97L274.385 341.222C275.534 340.868 276.602 340.291 277.528 339.524C278.453 338.757 279.219 337.816 279.78 336.753C280.342 335.69 280.688 334.526 280.8 333.329C280.912 332.133 280.787 330.925 280.431 329.777L248.858 227.644L213.582 209Z" fill="white"/>
<g opacity="0.28">
<path opacity="0.28" d="M248.621 335.965L194.441 352.699C193.428 353.01 192.332 352.908 191.395 352.414C190.457 351.92 189.753 351.074 189.437 350.063C189.128 349.049 189.233 347.955 189.728 347.019C190.224 346.083 191.07 345.381 192.081 345.066L246.261 328.324C247.275 328.013 248.371 328.117 249.309 328.613C250.247 329.108 250.951 329.956 251.265 330.969C251.574 331.982 251.469 333.076 250.974 334.012C250.478 334.948 249.632 335.65 248.621 335.965Z" fill="#5743B0"/>
</g>
<g opacity="0.28">
<path opacity="0.28" d="M190.313 237.756L161.66 246.604C160.646 246.913 159.552 246.81 158.615 246.316C157.678 245.822 156.973 244.978 156.655 243.968C156.346 242.953 156.451 241.858 156.946 240.921C157.442 239.983 158.288 239.28 159.299 238.963L187.952 230.115C188.966 229.801 190.062 229.903 191 230.397C191.939 230.892 192.642 231.738 192.957 232.751C193.266 233.765 193.161 234.861 192.666 235.798C192.17 236.735 191.324 237.439 190.313 237.756Z" fill="#5743B0"/>
</g>
<g opacity="0.28">
<path opacity="0.28" d="M213.693 247.141L166.333 261.767C165.321 262.071 164.231 261.964 163.299 261.469C162.366 260.974 161.667 260.131 161.352 259.123C161.041 258.111 161.144 257.017 161.638 256.08C162.132 255.144 162.977 254.441 163.988 254.127L211.349 239.5C212.362 239.189 213.457 239.292 214.395 239.786C215.333 240.28 216.037 241.125 216.353 242.136C216.659 243.153 216.551 244.249 216.053 245.186C215.555 246.123 214.706 246.826 213.693 247.141Z" fill="#5743B0"/>
</g>
<g opacity="0.28">
<path opacity="0.28" d="M240.136 255.579L171.021 276.891C170.009 277.202 168.915 277.099 167.978 276.605C167.042 276.111 166.339 275.266 166.025 274.255C165.715 273.241 165.819 272.147 166.313 271.21C166.807 270.273 167.65 269.568 168.661 269.25L237.775 247.938C238.788 247.629 239.881 247.733 240.817 248.227C241.753 248.721 242.456 249.565 242.772 250.575C243.083 251.588 242.981 252.683 242.487 253.621C241.992 254.559 241.147 255.263 240.136 255.579Z" fill="#5743B0"/>
</g>
<g opacity="0.28">
<path opacity="0.28" d="M244.816 270.734L204.639 283.151C203.626 283.459 202.532 283.354 201.596 282.859C200.659 282.363 199.957 281.518 199.643 280.506C199.334 279.494 199.438 278.401 199.931 277.465C200.425 276.529 201.269 275.826 202.279 275.51L242.456 263.093C243.471 262.787 244.565 262.893 245.502 263.388C246.439 263.883 247.142 264.727 247.461 265.738C247.769 266.751 247.664 267.845 247.169 268.781C246.673 269.717 245.828 270.419 244.816 270.734Z" fill="#5743B0"/>
</g>
<g opacity="0.28">
<path opacity="0.28" d="M186.216 288.842L175.71 292.086C174.697 292.397 173.601 292.294 172.664 291.8C171.726 291.306 171.022 290.461 170.705 289.449C170.395 288.435 170.498 287.339 170.994 286.401C171.49 285.463 172.337 284.76 173.35 284.445L183.856 281.201C184.869 280.892 185.963 280.995 186.901 281.489C187.838 281.983 188.542 282.827 188.86 283.837C189.167 284.852 189.061 285.946 188.566 286.883C188.071 287.819 187.227 288.523 186.216 288.842Z" fill="#5743B0"/>
</g>
<g opacity="0.28">
<path opacity="0.28" d="M249.505 285.897L180.391 307.249C179.377 307.558 178.283 307.453 177.347 306.957C176.411 306.462 175.709 305.616 175.394 304.605C175.083 303.593 175.186 302.498 175.68 301.562C176.174 300.625 177.019 299.923 178.03 299.608L247.145 278.257C248.157 277.948 249.25 278.052 250.186 278.546C251.122 279.039 251.825 279.883 252.141 280.893C252.453 281.906 252.35 283.002 251.856 283.939C251.362 284.877 250.517 285.581 249.505 285.897Z" fill="#5743B0"/>
</g>
<g opacity="0.28">
<path opacity="0.28" d="M227.514 309.293L185.071 322.404C184.059 322.713 182.966 322.609 182.03 322.115C181.094 321.622 180.391 320.778 180.075 319.768C179.766 318.755 179.869 317.66 180.363 316.723C180.857 315.786 181.701 315.082 182.711 314.764L225.154 301.653C226.168 301.344 227.263 301.449 228.201 301.944C229.138 302.439 229.842 303.285 230.158 304.297C230.469 305.31 230.365 306.405 229.869 307.342C229.374 308.279 228.527 308.98 227.514 309.293Z" fill="#5743B0"/>
</g>
<g opacity="0.28">
<path opacity="0.28" d="M254.186 301.061L242.859 304.557C241.845 304.866 240.749 304.761 239.812 304.266C238.875 303.771 238.171 302.925 237.855 301.913C237.546 300.9 237.651 299.806 238.146 298.87C238.642 297.934 239.488 297.231 240.499 296.917L251.826 293.42C252.838 293.109 253.932 293.212 254.869 293.706C255.805 294.2 256.508 295.045 256.822 296.056C257.134 297.069 257.031 298.165 256.537 299.103C256.043 300.04 255.198 300.744 254.186 301.061Z" fill="#5743B0"/>
</g>
<g opacity="0.28">
<path opacity="0.28" d="M258.867 316.232L189.768 337.544C188.754 337.855 187.658 337.751 186.72 337.255C185.782 336.76 185.078 335.913 184.764 334.9C184.453 333.886 184.557 332.791 185.053 331.855C185.548 330.918 186.395 330.216 187.408 329.903L256.515 308.551C257.529 308.245 258.623 308.351 259.56 308.846C260.497 309.341 261.201 310.185 261.519 311.196C261.678 311.701 261.735 312.232 261.687 312.759C261.639 313.286 261.488 313.798 261.241 314.266C260.995 314.734 260.658 315.149 260.251 315.486C259.843 315.824 259.373 316.077 258.867 316.232Z" fill="#5743B0"/>
</g>
<path d="M288.491 217.746L220.465 221.945C219.264 222.017 218.088 222.324 217.005 222.851C215.922 223.377 214.954 224.112 214.156 225.013C213.357 225.914 212.744 226.964 212.352 228.102C211.96 229.24 211.796 230.444 211.869 231.646L219.629 357.372C219.701 358.575 220.01 359.751 220.538 360.834C221.066 361.917 221.802 362.885 222.705 363.683C223.607 364.48 224.659 365.092 225.798 365.483C226.938 365.874 228.143 366.036 229.345 365.96L316.41 360.585C317.61 360.512 318.784 360.204 319.865 359.677C320.946 359.15 321.913 358.414 322.709 357.513C323.505 356.612 324.116 355.563 324.506 354.425C324.896 353.287 325.058 352.084 324.982 350.884L318.43 244.189L288.491 217.746Z" fill="#5743B0"/>
<path opacity="0.8" d="M288.491 217.746L220.465 221.945C219.264 222.017 218.088 222.324 217.005 222.851C215.922 223.377 214.954 224.112 214.156 225.013C213.357 225.914 212.744 226.964 212.352 228.102C211.96 229.24 211.796 230.444 211.869 231.646L219.629 357.372C219.701 358.575 220.01 359.751 220.538 360.834C221.066 361.917 221.802 362.885 222.705 363.683C223.607 364.48 224.659 365.092 225.798 365.483C226.938 365.874 228.143 366.036 229.345 365.96L316.41 360.585C317.61 360.512 318.784 360.204 319.865 359.677C320.946 359.15 321.913 358.414 322.709 357.513C323.505 356.612 324.116 355.563 324.506 354.425C324.896 353.287 325.058 352.084 324.982 350.884L318.43 244.189L288.491 217.746Z" fill="white"/>
<g opacity="0.22">
<path opacity="0.22" d="M292.603 349.384L236 352.881C234.942 352.941 233.904 352.581 233.111 351.878C232.318 351.176 231.836 350.188 231.769 349.131C231.708 348.074 232.067 347.036 232.768 346.243C233.468 345.449 234.454 344.964 235.51 344.893L292.114 341.404C293.171 341.341 294.21 341.699 295.005 342.4C295.799 343.101 296.283 344.088 296.352 345.145C296.415 346.204 296.056 347.244 295.353 348.039C294.65 348.833 293.662 349.317 292.603 349.384Z" fill="#5743B0"/>
</g>
<g opacity="0.22">
<path opacity="0.22" d="M259.104 240.203L229.164 242.034C228.107 242.094 227.069 241.735 226.275 241.035C225.481 240.334 224.996 239.349 224.925 238.292C224.865 237.234 225.225 236.195 225.927 235.401C226.629 234.607 227.617 234.123 228.675 234.054L258.614 232.207C259.671 232.144 260.709 232.502 261.502 233.204C262.295 233.905 262.778 234.892 262.845 235.948C262.912 237.008 262.556 238.052 261.854 238.849C261.153 239.647 260.164 240.134 259.104 240.203Z" fill="#5743B0"/>
</g>
<g opacity="0.22">
<path opacity="0.22" d="M279.611 254.837L230.143 257.884C229.085 257.949 228.044 257.591 227.25 256.89C226.455 256.188 225.971 255.2 225.904 254.142C225.841 253.084 226.201 252.043 226.903 251.249C227.606 250.454 228.595 249.971 229.653 249.904L279.113 246.857C280.171 246.792 281.212 247.149 282.006 247.851C282.801 248.552 283.285 249.54 283.352 250.598C283.415 251.656 283.057 252.695 282.356 253.489C281.655 254.283 280.668 254.768 279.611 254.837Z" fill="#5743B0"/>
</g>
<g opacity="0.22">
<path opacity="0.22" d="M303.314 269.274L231.121 273.726C230.061 273.791 229.017 273.433 228.22 272.73C227.422 272.027 226.936 271.037 226.867 269.976C226.804 268.92 227.163 267.881 227.864 267.088C228.565 266.295 229.552 265.813 230.608 265.746L302.809 261.286C303.867 261.225 304.905 261.586 305.698 262.288C306.49 262.991 306.973 263.978 307.04 265.035C307.103 266.09 306.747 267.127 306.049 267.921C305.351 268.715 304.369 269.201 303.314 269.274Z" fill="#5743B0"/>
</g>
<g opacity="0.22">
<path opacity="0.22" d="M304.293 285.108L262.324 287.697C261.267 287.76 260.227 287.401 259.433 286.7C258.639 285.999 258.154 285.013 258.085 283.956C258.02 282.898 258.378 281.857 259.079 281.062C259.781 280.268 260.769 279.784 261.827 279.717L303.796 277.128C304.854 277.063 305.894 277.42 306.689 278.122C307.484 278.823 307.968 279.811 308.035 280.869C308.097 281.927 307.739 282.966 307.038 283.76C306.337 284.554 305.35 285.039 304.293 285.108Z" fill="#5743B0"/>
</g>
<g opacity="0.22">
<path opacity="0.22" d="M243.072 288.881L232.092 289.56C231.036 289.623 229.997 289.264 229.204 288.563C228.411 287.862 227.928 286.875 227.861 285.818C227.799 284.761 228.157 283.722 228.858 282.927C229.559 282.133 230.546 281.649 231.603 281.58L242.583 280.901C243.641 280.84 244.68 281.2 245.474 281.903C246.268 282.605 246.752 283.593 246.821 284.65C246.882 285.708 246.522 286.746 245.819 287.539C245.117 288.331 244.129 288.814 243.072 288.881Z" fill="#5743B0"/>
</g>
<g opacity="0.22">
<path opacity="0.22" d="M305.272 300.942L233.071 305.394C232.014 305.457 230.974 305.099 230.18 304.398C229.386 303.696 228.901 302.71 228.832 301.653C228.772 300.594 229.132 299.555 229.834 298.761C230.536 297.967 231.524 297.483 232.582 297.414L304.775 292.962C305.833 292.899 306.874 293.259 307.668 293.961C308.463 294.664 308.946 295.653 309.013 296.711C309.076 297.768 308.717 298.806 308.016 299.599C307.315 300.392 306.328 300.875 305.272 300.942Z" fill="#5743B0"/>
</g>
<g opacity="0.22">
<path opacity="0.22" d="M278.387 318.497L234.05 321.236C232.992 321.297 231.952 320.937 231.158 320.234C230.364 319.532 229.88 318.544 229.811 317.487C229.751 316.429 230.111 315.391 230.813 314.598C231.516 313.806 232.503 313.323 233.56 313.256L277.898 310.517C278.955 310.456 279.994 310.817 280.786 311.519C281.579 312.222 282.061 313.209 282.129 314.266C282.193 315.323 281.836 316.363 281.134 317.156C280.432 317.95 279.444 318.432 278.387 318.497Z" fill="#5743B0"/>
</g>
<g opacity="0.22">
<path opacity="0.22" d="M306.243 316.784L294.403 317.51C293.346 317.573 292.308 317.215 291.515 316.513C290.722 315.812 290.239 314.825 290.172 313.769C290.107 312.711 290.465 311.671 291.166 310.876C291.868 310.081 292.856 309.597 293.914 309.53L305.754 308.804C306.812 308.739 307.852 309.097 308.647 309.798C309.441 310.5 309.925 311.488 309.992 312.546C310.053 313.604 309.693 314.643 308.991 315.437C308.288 316.231 307.301 316.715 306.243 316.784Z" fill="#5743B0"/>
</g>
<g opacity="0.22">
<path opacity="0.22" d="M307.222 332.618L235.029 337.07C233.971 337.133 232.932 336.775 232.138 336.074C231.344 335.373 230.859 334.386 230.79 333.329C230.727 332.271 231.086 331.232 231.787 330.438C232.488 329.644 233.474 329.159 234.531 329.09L306.732 324.638C307.789 324.576 308.827 324.934 309.62 325.635C310.413 326.336 310.896 327.323 310.963 328.38C311.028 329.438 310.67 330.478 309.969 331.273C309.268 332.067 308.28 332.551 307.222 332.618Z" fill="#5743B0"/>
</g>
<path opacity="0.22" d="M288.491 217.746L289.667 236.785C289.74 237.985 290.049 239.159 290.577 240.24C291.104 241.321 291.839 242.288 292.74 243.084C293.641 243.881 294.69 244.493 295.827 244.884C296.964 245.275 298.167 245.439 299.368 245.365L318.43 244.189L288.491 217.746Z" fill="#5743B0"/>
</g>
<defs>
<clipPath id="clip0">
<rect width="500" height="500" fill="white"/>
</clipPath>
</defs>
</svg>
