<svg id="Layer_2" data-name="Layer 2" xmlns="http://www.w3.org/2000/svg" width="220.581" height="164.381" viewBox="0 0 220.581 164.381">
  <g id="Background_Complete" data-name="Background Complete">
    <rect id="Rectangle_2315" data-name="Rectangle 2315" width="220.581" height="0.11" transform="translate(0 144.458)" fill="#ebebeb"/>
    <rect id="Rectangle_2316" data-name="Rectangle 2316" width="34.221" height="0.11" transform="translate(164.258 151.557)" fill="#ebebeb"/>
    <rect id="Rectangle_2317" data-name="Rectangle 2317" width="24.409" height="0.11" transform="translate(122.643 150.008)" fill="#ebebeb"/>
    <rect id="Rectangle_2318" data-name="Rectangle 2318" width="26.037" height="0.11" transform="translate(157.389 147.463)" fill="#ebebeb"/>
    <rect id="Rectangle_2319" data-name="Rectangle 2319" width="5.598" height="0.11" transform="translate(23.143 148.204)" fill="#ebebeb"/>
    <rect id="Rectangle_2320" data-name="Rectangle 2320" width="31.592" height="0.11" transform="translate(32.672 148.204)" fill="#ebebeb"/>
    <rect id="Rectangle_2321" data-name="Rectangle 2321" width="20.664" height="0.11" transform="translate(76.392 150.066)" fill="#ebebeb"/>
    <path id="Path_7456" data-name="Path 7456" d="M125.909,124.783H40.725a2.519,2.519,0,0,1-2.515-2.519V2.519A2.519,2.519,0,0,1,40.725,0h85.184a2.519,2.519,0,0,1,2.519,2.519V122.264A2.519,2.519,0,0,1,125.909,124.783ZM40.725.11a2.409,2.409,0,0,0-2.4,2.409V122.264a2.409,2.409,0,0,0,2.4,2.409h85.184a2.413,2.413,0,0,0,2.409-2.409V2.519A2.413,2.413,0,0,0,125.909.11Z" transform="translate(-21.353)" fill="#ebebeb"/>
    <path id="Path_7457" data-name="Path 7457" d="M342.207,124.783H257.019a2.523,2.523,0,0,1-2.519-2.519V2.519A2.523,2.523,0,0,1,257.019,0h85.188a2.519,2.519,0,0,1,2.51,2.519V122.264A2.519,2.519,0,0,1,342.207,124.783ZM257.019.11a2.413,2.413,0,0,0-2.409,2.409V122.264a2.413,2.413,0,0,0,2.409,2.409h85.188a2.413,2.413,0,0,0,2.409-2.409V2.519A2.413,2.413,0,0,0,342.207.11Z" transform="translate(-142.224)" fill="#ebebeb"/>
    <rect id="Rectangle_2322" data-name="Rectangle 2322" width="5.55" height="59.72" transform="translate(107.145 80.702)" fill="#f0f0f0"/>
    <rect id="Rectangle_2323" data-name="Rectangle 2323" width="84.972" height="3.979" transform="translate(109.276 140.422)" fill="#f0f0f0"/>
    <rect id="Rectangle_2324" data-name="Rectangle 2324" width="83.688" height="59.72" transform="translate(196.379 140.422) rotate(180)" fill="#f5f5f5"/>
    <rect id="Rectangle_2325" data-name="Rectangle 2325" width="5.735" height="3.763" transform="translate(105.654 76.939)" fill="#e0e0e0"/>
    <rect id="Rectangle_2326" data-name="Rectangle 2326" width="86.485" height="3.763" transform="translate(197.87 80.702) rotate(180)" fill="#ebebeb"/>
    <path id="Path_7458" data-name="Path 7458" d="M335.835,213.919H268.685a4.35,4.35,0,0,1-4.345-4.35V196.775a4.35,4.35,0,0,1,4.345-4.345h67.149a4.35,4.35,0,0,1,4.345,4.345v12.794A4.35,4.35,0,0,1,335.835,213.919Zm-67.149-20.6a3.468,3.468,0,0,0-3.463,3.463v12.794a3.472,3.472,0,0,0,3.463,3.468h67.149a3.472,3.472,0,0,0,3.463-3.468V196.78a3.468,3.468,0,0,0-3.463-3.463Z" transform="translate(-147.723 -107.537)" fill="#fff"/>
    <path id="Path_7459" data-name="Path 7459" d="M335.835,274.549H268.685a4.35,4.35,0,0,1-4.345-4.345V257.41a4.35,4.35,0,0,1,4.345-4.35h67.149a4.35,4.35,0,0,1,4.345,4.35V270.2A4.35,4.35,0,0,1,335.835,274.549Zm-67.149-20.6a3.472,3.472,0,0,0-3.463,3.468v12.794a3.468,3.468,0,0,0,3.463,3.463h67.149a3.468,3.468,0,0,0,3.463-3.463V257.414a3.472,3.472,0,0,0-3.463-3.468Z" transform="translate(-147.723 -141.42)" fill="#fff"/>
    <path id="Path_7460" data-name="Path 7460" d="M345.629,216.306H323.323A1.323,1.323,0,0,1,322,214.982v-1.059a1.323,1.323,0,0,1,1.323-1.323h22.292a1.323,1.323,0,0,1,1.323,1.323v1.059a1.324,1.324,0,0,1-1.31,1.324Zm-22.305-2.828a.441.441,0,0,0-.441.441v1.063a.441.441,0,0,0,.441.441h22.292a.441.441,0,0,0,.441-.441v-1.059a.441.441,0,0,0-.441-.441Z" transform="translate(-179.946 -118.809)" fill="#fff"/>
    <path id="Path_7461" data-name="Path 7461" d="M345.629,276.947H323.323A1.323,1.323,0,0,1,322,275.623v-1.05a1.323,1.323,0,0,1,1.323-1.323h22.292a1.323,1.323,0,0,1,1.323,1.323v1.05a1.324,1.324,0,0,1-1.31,1.323Zm-22.305-2.828a.441.441,0,0,0-.441.441v1.05a.441.441,0,0,0,.441.441h22.292a.441.441,0,0,0,.441-.441v-1.05a.441.441,0,0,0-.441-.441Z" transform="translate(-179.946 -152.702)" fill="#fff"/>
    <rect id="Rectangle_2327" data-name="Rectangle 2327" width="15.498" height="3.057" transform="translate(40.521 100.911) rotate(180)" fill="#e6e6e6"/>
    <rect id="Rectangle_2328" data-name="Rectangle 2328" width="2.859" height="104.516" transform="translate(66.889 39.938)" fill="#e6e6e6"/>
    <rect id="Rectangle_2329" data-name="Rectangle 2329" width="39.14" height="3.057" transform="translate(40.521 97.854)" fill="#f5f5f5"/>
    <rect id="Rectangle_2330" data-name="Rectangle 2330" width="15.498" height="3.057" transform="translate(40.521 129.031) rotate(180)" fill="#e6e6e6"/>
    <rect id="Rectangle_2331" data-name="Rectangle 2331" width="39.14" height="3.057" transform="translate(40.521 125.978)" fill="#f5f5f5"/>
    <rect id="Rectangle_2332" data-name="Rectangle 2332" width="15.498" height="3.057" transform="translate(40.521 44.668) rotate(180)" fill="#e6e6e6"/>
    <rect id="Rectangle_2333" data-name="Rectangle 2333" width="39.14" height="3.057" transform="translate(40.521 41.61)" fill="#f5f5f5"/>
    <rect id="Rectangle_2334" data-name="Rectangle 2334" width="15.498" height="3.057" transform="translate(40.521 72.787) rotate(180)" fill="#e6e6e6"/>
    <rect id="Rectangle_2335" data-name="Rectangle 2335" width="39.14" height="3.057" transform="translate(40.521 69.734)" fill="#f5f5f5"/>
    <rect id="Rectangle_2336" data-name="Rectangle 2336" width="2.859" height="104.516" transform="translate(27.753 39.938)" fill="#e6e6e6"/>
    <rect id="Rectangle_2337" data-name="Rectangle 2337" width="2.859" height="104.516" transform="translate(40.521 39.938)" fill="#f5f5f5"/>
    <rect id="Rectangle_2338" data-name="Rectangle 2338" width="2.859" height="104.516" transform="translate(76.802 39.938)" fill="#f5f5f5"/>
    <rect id="Rectangle_2339" data-name="Rectangle 2339" width="58.626" height="50.112" transform="translate(91.462 12.538)" fill="#e0e0e0"/>
    <rect id="Rectangle_2340" data-name="Rectangle 2340" width="59.716" height="50.112" transform="translate(92.878 12.538)" fill="#f5f5f5"/>
    <rect id="Rectangle_2341" data-name="Rectangle 2341" width="42.215" height="52.52" transform="translate(148.998 16.486) rotate(90)" fill="#fff"/>
    <rect id="Rectangle_2342" data-name="Rectangle 2342" width="2.404" height="54.55" transform="translate(175.296 20.845)" fill="#f5f5f5"/>
    <path id="Path_7462" data-name="Path 7462" d="M397.83,171.712H381a2.122,2.122,0,0,1,2.122-2.122h12.591A2.122,2.122,0,0,1,397.83,171.712Z" transform="translate(-212.917 -94.773)" fill="#f0f0f0"/>
    <path id="Path_7463" data-name="Path 7463" d="M396.833,50.714H372.49l2.8-25.2h18.745Z" transform="translate(-208.162 -14.256)" fill="#e0e0e0"/>
  </g>
  <g id="Shadow" transform="translate(22.548 154.393)">
    <ellipse id="_Path_" data-name="&lt;Path&gt;" cx="85.537" cy="4.994" rx="85.537" ry="4.994" fill="#f5f5f5"/>
  </g>
  <g id="Character" transform="translate(49.006 33.802)">
    <path id="Path_7464" data-name="Path 7464" d="M191.291,79.224s1.028-3.653,6.948-2.3,1.209,5.867,1.209,5.867a7.638,7.638,0,0,1,2.8,8.1c-1.447,6.269,2.237,7.584.441,10.429s-14.02,5.047-21.868.64c-4.734-2.647,1.866-10.363.909-13.91C180.306,82.744,184.25,77.53,191.291,79.224Z" transform="translate(-149.091 -76.621)" fill="#263238"/>
    <path id="Path_7465" data-name="Path 7465" d="M204.476,247.037l4.694-23.307a5.735,5.735,0,0,1,5.365-4.46h45.126a3.543,3.543,0,0,1,3.565,4.46l-4.694,23.307a5.735,5.735,0,0,1-5.347,4.465H208.041A3.548,3.548,0,0,1,204.476,247.037Z" transform="translate(-163.225 -156.339)" fill="#407bff"/>
    <path id="Path_7466" data-name="Path 7466" d="M117.2,200.308a30.439,30.439,0,0,1-.265-3.088h.441c.035,1,.124,2.016.26,3.026Z" transform="translate(-114.357 -144.016)" fill="#407bff"/>
    <path id="Path_7467" data-name="Path 7467" d="M118.241,168.9l-.441-.075a25.053,25.053,0,0,1,5.294-11.753l.34.282a24.63,24.63,0,0,0-5.192,11.545Z" transform="translate(-114.837 -121.579)" fill="#407bff"/>
    <path id="Path_7468" data-name="Path 7468" d="M145.646,140.06h7.941L165.913,200.5h-7.941c-16.694,0-32.986-13.53-36.387-30.224S128.953,140.06,145.646,140.06Z" transform="translate(-116.602 -112.073)" fill="#407bff"/>
    <ellipse id="Ellipse_456" data-name="Ellipse 456" cx="27.299" cy="33.462" rx="27.299" ry="33.462" transform="translate(0 56.043) rotate(-47.91)" fill="#407bff"/>
    <ellipse id="Ellipse_457" data-name="Ellipse 457" cx="27.299" cy="33.462" rx="27.299" ry="33.462" transform="translate(0 56.043) rotate(-47.91)" fill="#fff" opacity="0.2"/>
    <path id="Path_7469" data-name="Path 7469" d="M238.5,238.05l2.876-14.32a5.735,5.735,0,0,1,5.36-4.46h4.522a3.547,3.547,0,0,1,3.569,4.46l-4.694,23.307a5.735,5.735,0,0,1-5.365,4.465H188V238.05Z" transform="translate(-154.068 -156.339)" fill="#407bff"/>
    <path id="Path_7470" data-name="Path 7470" d="M238.5,238.05l2.876-14.32a5.735,5.735,0,0,1,5.36-4.46h4.522a3.547,3.547,0,0,1,3.569,4.46l-4.694,23.307a5.735,5.735,0,0,1-5.365,4.465H188V238.05Z" transform="translate(-154.068 -156.339)" fill="#fff" opacity="0.3"/>
    <path id="Path_7471" data-name="Path 7471" d="M177.25,322.589h2.863l6.957-30.259h-5.184Z" transform="translate(-148.06 -197.168)" fill="#263238"/>
    <path id="Path_7472" data-name="Path 7472" d="M177.25,322.589h2.863l6.957-30.259h-5.184Z" transform="translate(-148.06 -197.168)" fill="#fff" opacity="0.6"/>
    <path id="Path_7473" data-name="Path 7473" d="M145.01,322.589h2.863l6.957-30.259h-5.184Z" transform="translate(-130.043 -197.168)" fill="#263238"/>
    <path id="Path_7474" data-name="Path 7474" d="M145.01,322.589h2.863l6.957-30.259h-5.184Z" transform="translate(-130.043 -197.168)" fill="#fff" opacity="0.6"/>
    <path id="Path_7475" data-name="Path 7475" d="M266.77,322.589h-2.863L256.95,292.33h5.184Z" transform="translate(-192.6 -197.168)" fill="#263238"/>
    <path id="Path_7476" data-name="Path 7476" d="M266.77,322.589h-2.863L256.95,292.33h5.184Z" transform="translate(-192.6 -197.168)" fill="#fff" opacity="0.6"/>
    <path id="Path_7477" data-name="Path 7477" d="M299.01,322.589h-2.868L289.19,292.33h5.184Z" transform="translate(-210.616 -197.168)" fill="#263238"/>
    <path id="Path_7478" data-name="Path 7478" d="M299.01,322.589h-2.868L289.19,292.33h5.184Z" transform="translate(-210.616 -197.168)" fill="#fff" opacity="0.6"/>
    <path id="Path_7479" data-name="Path 7479" d="M230.267,155.159c1.5,2.59,3.088,5.237,4.751,7.76.829,1.262,1.676,2.506,2.559,3.688a28.729,28.729,0,0,0,2.748,3.247c.035.035,0,0-.053-.04a1.576,1.576,0,0,0-.159-.11,2.065,2.065,0,0,0-.825-.291,1.616,1.616,0,0,0-.357,0,1.717,1.717,0,0,0-.4.049,2,2,0,0,0-.379.124,1.587,1.587,0,0,0-.309.163,1.954,1.954,0,0,0-.609.591,1.209,1.209,0,0,0-.172.366c0,.031,0,0,0-.022a6.084,6.084,0,0,0,.106-.807c.049-.666.053-1.412.044-2.153,0-1.5-.079-3.031-.159-4.566l-.512-9.264,2.594-.393c.746,3.066,1.376,6.132,1.879,9.264.243,1.562.476,3.128.626,4.742.075.812.137,1.628.146,2.519a8.825,8.825,0,0,1-.093,1.518,4.659,4.659,0,0,1-.119.547,3.088,3.088,0,0,1-.4.882,2.683,2.683,0,0,1-.807.8,2.76,2.76,0,0,1-.375.2,3.263,3.263,0,0,1-.441.141,2.823,2.823,0,0,1-.472.062,2.869,2.869,0,0,1-.441,0,2.647,2.647,0,0,1-1.094-.4,3.313,3.313,0,0,1-.278-.194l-.159-.137a29.441,29.441,0,0,1-3.529-3.67c-1.046-1.262-2.012-2.559-2.929-3.873a86.546,86.546,0,0,1-5.02-8.214Z" transform="translate(-175.097 -119.584)" fill="#ffc3bd"/>
    <path id="Path_7480" data-name="Path 7480" d="M225.426,146.04c3.529.591,6.4,11.17,6.313,10.945l-6.781,6.317s-4.182-6.3-3.591-9.454C221.985,150.566,222.647,145.563,225.426,146.04Z" transform="translate(-172.683 -115.397)" fill="#407bff"/>
    <path id="Path_7481" data-name="Path 7481" d="M225.426,146.04c3.529.591,6.4,11.17,6.313,10.945l-6.781,6.317s-4.182-6.3-3.591-9.454C221.985,150.566,222.647,145.563,225.426,146.04Z" transform="translate(-172.683 -115.397)" opacity="0.4"/>
    <path id="Path_7482" data-name="Path 7482" d="M204.755,150.782c-.331,4.526-1.323,12.154-3.82,24.992l-21.313-.635c.56-7.866-.287-13.729-2.206-27.5a4.482,4.482,0,0,1,3.97-5.073c1.368-.141,2.925-.256,4.487-.287a67.474,67.474,0,0,1,9.679.291c1.037.124,2.113.287,3.137.441A7.314,7.314,0,0,1,204.755,150.782Z" transform="translate(-148.129 -113.292)" fill="#407bff"/>
    <path id="Path_7483" data-name="Path 7483" d="M204.755,150.782c-.331,4.526-1.323,12.154-3.82,24.992l-21.313-.635c.56-7.866-.287-13.729-2.206-27.5a4.482,4.482,0,0,1,3.97-5.073c1.368-.141,2.925-.256,4.487-.287a67.474,67.474,0,0,1,9.679.291c1.037.124,2.113.287,3.137.441A7.314,7.314,0,0,1,204.755,150.782Z" transform="translate(-148.129 -113.292)" opacity="0.3"/>
    <path id="Path_7484" data-name="Path 7484" d="M197.924,117.7c.521,3.132.957,8.854-1.284,10.866a29.312,29.312,0,0,1,9.057,7.861c3.834-3.04.622-7.57.622-7.57-3.445-.935-3.282-3.529-2.6-5.907Z" transform="translate(-158.896 -99.578)" fill="#ffc3bd"/>
    <path id="Path_7485" data-name="Path 7485" d="M204.715,122.55l3.428,3.088a9.943,9.943,0,0,0-.349,1.707c-1.324-.229-3.088-1.738-3.2-3.132a4.694,4.694,0,0,1,.119-1.663Z" transform="translate(-163.327 -102.288)" opacity="0.2"/>
    <path id="Path_7486" data-name="Path 7486" d="M191.5,93.69c.935,5.126,1.222,7.314,4.151,9.653,4.412,3.529,10.491,1.248,11.1-4.054.551-4.773-1.072-12.353-6.37-13.8a7.107,7.107,0,0,0-8.885,8.2Z" transform="translate(-155.953 -81.431)" fill="#ffc3bd"/>
    <path id="Path_7487" data-name="Path 7487" d="M197.442,84.139c7.032,2.85-.044,5.259-2.6,7.985-2.268,2.418-.146,6.256-3.948,3.529-1.813-1.293-1.738-8.117-.724-9.392S195.346,83.288,197.442,84.139Z" transform="translate(-154.88 -80.694)" fill="#263238"/>
    <path id="Path_7488" data-name="Path 7488" d="M211.63,105.148c.053.441.313.737.591.7s.441-.4.406-.821-.313-.732-.591-.7S211.581,104.729,211.63,105.148Z" transform="translate(-167.268 -92.103)" fill="#263238"/>
    <path id="Path_7489" data-name="Path 7489" d="M222.359,103.588c.049.441.313.737.587.7s.441-.4.406-.821-.313-.732-.587-.7S222.306,103.169,222.359,103.588Z" transform="translate(-173.263 -91.232)" fill="#263238"/>
    <path id="Path_7490" data-name="Path 7490" d="M223,102.335l.975-.415S223.56,102.771,223,102.335Z" transform="translate(-173.627 -90.759)" fill="#263238"/>
    <path id="Path_7491" data-name="Path 7491" d="M218.37,106.11a11.32,11.32,0,0,0,1.818,2.5,1.768,1.768,0,0,1-1.465.441Z" transform="translate(-171.04 -93.101)" fill="#ed847e"/>
    <path id="Path_7492" data-name="Path 7492" d="M211.274,115.552a3.82,3.82,0,0,0,.626-.026.124.124,0,0,0-.031-.247A3.353,3.353,0,0,1,209,114.3a.119.119,0,0,0-.172,0,.128.128,0,0,0,0,.176,3.485,3.485,0,0,0,2.448,1.072Z" transform="translate(-165.686 -97.659)" fill="#263238"/>
    <path id="Path_7493" data-name="Path 7493" d="M188.826,111.438a4.072,4.072,0,0,0,2.413,1.972c1.376.406,2.082-.821,1.716-2.126-.331-1.178-1.447-2.806-2.832-2.647A1.839,1.839,0,0,0,188.826,111.438Z" transform="translate(-154.387 -94.507)" fill="#ffc3bd"/>
    <path id="Path_7494" data-name="Path 7494" d="M206.585,100.94a.247.247,0,0,0,.238-.163,2.96,2.96,0,0,1,1.835-1.487.249.249,0,0,0-.128-.481,3.408,3.408,0,0,0-2.171,1.8.247.247,0,0,0,.146.318.255.255,0,0,0,.079.018Z" transform="translate(-164.319 -89.016)" fill="#263238"/>
    <path id="Path_7495" data-name="Path 7495" d="M222.023,97.576a.251.251,0,0,0,.146-.441,2.479,2.479,0,0,0-2.254-.265.247.247,0,0,0-.124.331.243.243,0,0,0,.326.124h0a1.985,1.985,0,0,1,1.765.229A.225.225,0,0,0,222.023,97.576Z" transform="translate(-171.82 -87.849)" fill="#263238"/>
    <path id="Path_7496" data-name="Path 7496" d="M236.19,334.521,241,336.339l5.475-11.2-4.809-1.818Z" transform="translate(-180.998 -214.486)" fill="#ffc3bd"/>
    <path id="Path_7497" data-name="Path 7497" d="M239.6,342.481l-5.294-2.607a.41.41,0,0,0-.529.141l-2.373,3.529a.882.882,0,0,0,.251,1.244c1.4,1.046,2.523,1.116,4.853,2.263,1.434.706,4.341,2.572,6.49,3.066s2.713-1.615,1.862-2.012c-3.829-1.787-3.86-3.269-4.61-4.932A1.372,1.372,0,0,0,239.6,342.481Z" transform="translate(-178.236 -223.712)" fill="#263238"/>
    <g id="Group_2261" data-name="Group 2261" transform="translate(57.843 108.838)" opacity="0.2">
      <path id="Path_7498" data-name="Path 7498" d="M249.837,325.148l-2.823,5.77L242.2,329.1l2.823-5.775Z" transform="translate(-242.2 -323.33)"/>
    </g>
    <path id="Path_7499" data-name="Path 7499" d="M310.8,310.683l4.54-2.418-4.8-11.505-3.763,6.388Z" transform="translate(-220.441 -199.643)" fill="#ffc3bd"/>
    <path id="Path_7500" data-name="Path 7500" d="M317.616,318.147l-5.85.737a.4.4,0,0,0-.366.406v4.7a.882.882,0,0,0,.966.821c2.038-.291,3-.534,5.576-.856,1.584-.2,5.638-.569,7.822-.843s2-2.448,1.059-2.528c-4.209-.362-6.741-1.248-8.281-2.228A1.394,1.394,0,0,0,317.616,318.147Z" transform="translate(-223.028 -211.589)" fill="#263238"/>
    <g id="Group_2262" data-name="Group 2262" transform="translate(86.329 97.121)" opacity="0.2">
      <path id="Path_7501" data-name="Path 7501" d="M310.533,296.77l2.475,5.929-4.535,2.418-1.7-1.959Z" transform="translate(-306.77 -296.77)"/>
    </g>
    <path id="Path_7502" data-name="Path 7502" d="M212.29,103.895l.975-.415S212.841,104.331,212.29,103.895Z" transform="translate(-167.642 -91.631)" fill="#263238"/>
    <path id="Path_7503" data-name="Path 7503" d="M203.019,221.56s29.831-.163,28.9,9.825c-1.54,16.526-13.235,39.263-13.235,39.263l-6.8-2.356s7.209-15.282,6.878-31.64H196.883c-8.347,0-11.956-9.167-3.829-19.852C198.021,216.8,203.019,221.56,203.019,221.56Z" transform="translate(-154.339 -154.958)"/>
    <path id="Path_7504" data-name="Path 7504" d="M181.045,213.783l-.6,1.888c-.079.146.088.3.335.313l21.957.631c.194,0,.353-.084.371-.2l.247-1.9c0-.132-.146-.247-.353-.256l-21.582-.64A.384.384,0,0,0,181.045,213.783Z" transform="translate(-149.834 -153.176)" fill="#fff"/>
    <path id="Path_7505" data-name="Path 7505" d="M187.261,216.16h-.578c-.115,0-.2-.066-.194-.137l.349-2.471c0-.071.11-.128.225-.124h.578c.115,0,.2.062.19.137l-.344,2.471C187.477,216.108,187.376,216.165,187.261,216.16Z" transform="translate(-153.223 -153.075)" fill="#263238"/>
    <path id="Path_7506" data-name="Path 7506" d="M226.277,217.32H225.7c-.115,0-.2-.062-.19-.137l.344-2.471c0-.071.115-.128.229-.124h.578c.115,0,.2.066.19.137l-.344,2.471C226.5,217.268,226.4,217.325,226.277,217.32Z" transform="translate(-175.029 -153.723)" fill="#263238"/>
    <path id="Path_7507" data-name="Path 7507" d="M206.771,216.74h-.578c-.119,0-.2-.062-.194-.137l.344-2.471c0-.071.115-.128.229-.124h.578c.115,0,.2.062.19.137L207,216.617C206.987,216.688,206.882,216.745,206.771,216.74Z" transform="translate(-164.126 -153.399)" fill="#263238"/>
    <path id="Path_7508" data-name="Path 7508" d="M194.794,213.5s36.965-7.87,38.566,1.531c2.788,16.358,8.7,37.3,8.7,37.3l-5.942,4.045s-9.264-19.482-14.6-34.944C215.131,223.5,196.5,233.1,189.05,233.1c-8.351,0-11.514-7.469-7.862-19.742C186.156,213.361,194.794,213.5,194.794,213.5Z" transform="translate(-149.422 -151.392)" fill="#263238"/>
    <path id="Path_7509" data-name="Path 7509" d="M279.988,241.779a55.257,55.257,0,0,1-.882,5.766c-1.641-4.05-3.247-8.228-4.606-12.145C277.937,236.843,280.257,238.885,279.988,241.779Z" transform="translate(-202.407 -165.353)"/>
    <path id="Path_7510" data-name="Path 7510" d="M127.377,223.73l4.694,23.307a5.735,5.735,0,0,0,5.365,4.465H153.56a3.548,3.548,0,0,0,3.565-4.465L152.43,223.73a5.735,5.735,0,0,0-5.365-4.46H130.941A3.548,3.548,0,0,0,127.377,223.73Z" transform="translate(-120.139 -156.339)" fill="#407bff"/>
    <path id="Path_7511" data-name="Path 7511" d="M181.085,247.037,176.4,223.73a5.735,5.735,0,0,0-5.365-4.46h-4.522a3.543,3.543,0,0,0-3.565,4.46l4.694,23.307A5.735,5.735,0,0,0,173,251.5h4.522A3.545,3.545,0,0,0,181.085,247.037Z" transform="translate(-140.015 -156.339)" fill="#407bff"/>
    <path id="Path_7512" data-name="Path 7512" d="M181.085,247.037,176.4,223.73a5.735,5.735,0,0,0-5.365-4.46h-4.522a3.543,3.543,0,0,0-3.565,4.46l4.694,23.307A5.735,5.735,0,0,0,173,251.5h4.522A3.545,3.545,0,0,0,181.085,247.037Z" transform="translate(-140.015 -156.339)" fill="#fff" opacity="0.3"/>
    <path id="Path_7513" data-name="Path 7513" d="M179.486,159.979c-.265,1.372-.547,2.85-.763,4.288s-.441,2.89-.582,4.328-.26,2.868-.3,4.27a20.833,20.833,0,0,0,.251,3.97l.04.207a.494.494,0,0,0-.035-.079c-.026-.035-.031-.026,0,0a1.711,1.711,0,0,0,.353.384,7.888,7.888,0,0,0,1.487.984,30.629,30.629,0,0,0,3.86,1.681c1.363.512,2.766.971,4.182,1.412s2.859.882,4.275,1.266l-.441,2.585a57.9,57.9,0,0,1-9.194-1.438A29.855,29.855,0,0,1,178,182.346a13.019,13.019,0,0,1-2.4-1.324,6.3,6.3,0,0,1-1.266-1.2,4.385,4.385,0,0,1-.591-.957,3.85,3.85,0,0,1-.229-.613l-.088-.34a22.525,22.525,0,0,1-.644-5.029,45.166,45.166,0,0,1,.128-4.782c.119-1.571.3-3.123.538-4.667s.5-3.048.882-4.628Z" transform="translate(-145.554 -122.551)" fill="#ffc3bd"/>
    <path id="Path_7514" data-name="Path 7514" d="M175.782,144.988c-2.135.631-4.782,7.967-4.782,7.967l8.241,5.991s3.088-6.119,2.206-8.885C180.542,147.176,178.226,144.265,175.782,144.988Z" transform="translate(-144.567 -114.765)" fill="#407bff"/>
    <path id="Path_7515" data-name="Path 7515" d="M175.782,144.988c-2.135.631-4.782,7.967-4.782,7.967l8.241,5.991s3.088-6.119,2.206-8.885C180.542,147.176,178.226,144.265,175.782,144.988Z" transform="translate(-144.567 -114.765)" opacity="0.3"/>
    <path id="Path_7516" data-name="Path 7516" d="M219.78,211.417l-2.073-.949a2.59,2.59,0,0,0-1.65-.163l-4.884,1.151-.653,1.646c.7,1.928,3.97,1.668,3.97,1.668l2.6.882a1.094,1.094,0,0,0,1.191-.326l1.893-2.206a1.094,1.094,0,0,0-.4-1.7Z" transform="translate(-166.653 -151.292)" fill="#ffc3bd"/>
    <path id="Path_7517" data-name="Path 7517" d="M256.463,139.422l-2.7.251a1.535,1.535,0,0,0-1.323,1.09l-.715,2.347s-2.113,2.5-.957,4.2l1.716.441,3.847-3.353a2.365,2.365,0,0,0,.763-1.323l.476-2.4a1.023,1.023,0,0,0-1.112-1.248Z" transform="translate(-188.954 -111.713)" fill="#ffc3bd"/>
    <path id="Path_7518" data-name="Path 7518" d="M249.479,135.4a6.189,6.189,0,1,1-12.379,0Z" transform="translate(-181.507 -109.469)" fill="#407bff"/>
    <ellipse id="Ellipse_458" data-name="Ellipse 458" cx="6.19" cy="0.26" rx="6.19" ry="0.26" transform="translate(55.593 25.671)" fill="#263238"/>
    <path id="Path_7519" data-name="Path 7519" d="M261.018,141.967a2.148,2.148,0,1,1,2.148-2.148A2.148,2.148,0,0,1,261.018,141.967Zm0-3.856a1.707,1.707,0,1,0,1.707,1.707A1.707,1.707,0,0,0,261.018,138.111Z" transform="translate(-193.673 -110.738)" fill="#407bff"/>
    <path id="Path_7520" data-name="Path 7520" d="M248.272,105.39a7.994,7.994,0,0,0,1.019,2.135,14.661,14.661,0,0,0,1.54,1.707,6.617,6.617,0,0,1,1.513,2.144,3.918,3.918,0,0,1,.1,2.62,8.347,8.347,0,0,0-1.023-2.135,14.659,14.659,0,0,0-1.54-1.707,6.719,6.719,0,0,1-1.509-2.148A3.878,3.878,0,0,1,248.272,105.39Z" transform="translate(-187.65 -92.698)" fill="#e0e0e0"/>
    <path id="Path_7521" data-name="Path 7521" d="M244.075,111.25a8.064,8.064,0,0,0,1.023,2.135,14.686,14.686,0,0,0,1.54,1.712,6.587,6.587,0,0,1,1.509,2.144,3.891,3.891,0,0,1,.106,2.62,8.346,8.346,0,0,0-1.023-2.135,14.686,14.686,0,0,0-1.54-1.712,6.653,6.653,0,0,1-1.509-2.144,3.891,3.891,0,0,1-.106-2.62Z" transform="translate(-185.305 -95.973)" fill="#e0e0e0"/>
    <path id="Path_7522" data-name="Path 7522" d="M207.247,85.1c3.406,2.607,4.645,1.107,6.353,3.825-.644-3.891-3.013-4.932-5.294-4.976S206.383,84.436,207.247,85.1Z" transform="translate(-164.452 -80.714)" fill="#263238"/>
  </g>
</svg>
