<svg xmlns="http://www.w3.org/2000/svg" width="327.399" height="235.5" viewBox="0 0 327.399 235.5"><defs><style>.a{fill:#f5f5f5;}.b{fill:#e0e0e0;}.c{fill:#fafafa;}.d{fill:#263238;}.e{fill:#fff;}.f{fill:#455a64;}.g{fill:#c8dff7;}.h{fill:#c0ffcd;}.i{fill:#b77153;}.j{fill:#995037;}.k{fill:#e8505b;}.l{opacity:0.2;}.m{fill:#efc692;}.n{fill:#3f59b8;}</style></defs><g transform="translate(0 0.012)"><g transform="translate(1.902 56.966)"><path class="a" d="M382.049,152.682v24.524a8,8,0,0,0,8.03,7.863h87.929a8.036,8.036,0,0,0,8.036-8.047V156.314l10.949-11.5-106.886-.334a8.069,8.069,0,0,0-8.058,8.2Z" transform="translate(-171.496 -121.107)"/><path class="b" d="M482.058,168.939l-79.788-.367.006-2.452,79.794.367Z" transform="translate(-180.473 -130.714)"/><path class="b" d="M482.058,183.449l-79.788-.367.006-2.452,79.794.367Z" transform="translate(-180.473 -137.155)"/><rect class="b" width="2.452" height="31.569" transform="translate(270.009 54.003) rotate(-89.72)"/><path class="a" d="M71.518,316.29c12.3-8.592,15.087-24.535,14.6-38.865-.078-2.4.184-4.916-.956-7.018s-3.793-3.531-5.933-2.525c-1.774.84-2.552,2.9-3.542,4.616a14.014,14.014,0,0,1-5.589,5.355c-1.524.8-3.409,1.273-4.916.445-2.063-1.112-2.308-3.987-2.291-6.367l.083-13.307a23.289,23.289,0,0,0-.717-7.062,7.376,7.376,0,0,0-4.638-5c-2.263-.645-5.066.673-5.561,3a21.839,21.839,0,0,0-.067,2.958,2.557,2.557,0,0,1-1.463,2.358c-.906.272-1.9-.395-2.614-1.112a31.632,31.632,0,0,1-5.683-8.575,44.044,44.044,0,0,0-5.3-8.82c-2.224-2.625-5.311-4.693-8.72-4.888s-7.051,1.907-7.9,5.255,1.112,6.757,3.225,9.454a53.117,53.117,0,0,0,11.055,10.538,4.49,4.49,0,0,1,1.852,1.991c.517,1.585-.984,3.164-2.552,3.681-1.774.6-3.7.406-5.561.628s-3.865,1.034-4.566,2.78c-.973,2.436,1.062,5,3.064,6.673a45.383,45.383,0,0,0,13.463,7.785,15.46,15.46,0,0,1,5,2.436c1.412,1.229,2.263,3.37,1.412,5.044s-3.042,2.224-4.877,1.874a32.347,32.347,0,0,1-5.222-2c-3.27-1.235-7.5-1.007-9.587,1.818a7.535,7.535,0,0,0-.8,6.673,17.38,17.38,0,0,0,3.6,5.883,45.556,45.556,0,0,0,19.541,13.73c7.591,2.608,14.614,3.342,22.155.562" transform="translate(-10.826 -159.722)"/><path class="b" d="M74.631,328.516A104.286,104.286,0,0,0,70.738,308.9a213.725,213.725,0,0,0-8.464-22.955q-1.285-2.986-2.53-5.9c-.834-1.935-1.668-3.859-2.586-5.683a106.636,106.636,0,0,0-5.917-10.2c-2.03-3.153-4.082-6.067-6.028-8.781s-3.793-5.205-5.561-7.4a83.969,83.969,0,0,0-9.214-9.743c-1.173-1.057-2.108-1.852-2.753-2.38l-.734-.6a1.952,1.952,0,0,0-.261-.189,2.058,2.058,0,0,0,.234.228l.706.628c.623.556,1.54,1.362,2.7,2.441a89.166,89.166,0,0,1,9.087,9.809c1.774,2.224,3.615,4.7,5.561,7.418s3.959,5.644,5.984,8.792a109.28,109.28,0,0,1,5.872,10.171c.912,1.818,1.735,3.72,2.569,5.661s1.668,3.893,2.525,5.906a219.946,219.946,0,0,1,8.48,22.894,106.514,106.514,0,0,1,3.965,19.524" transform="translate(-13.75 -161.321)"/><path class="b" d="M81.265,284.823a4.9,4.9,0,0,0,.234-1.018c.122-.656.272-1.613.439-2.78.339-2.369.69-5.655,1.068-9.287s.773-6.9,1.146-9.253c.178-1.184.339-2.135.456-2.78a5.189,5.189,0,0,0,.133-1.034,4.276,4.276,0,0,0-.3,1c-.172.651-.373,1.6-.6,2.78-.45,2.352-.9,5.633-1.279,9.264s-.684,6.818-.934,9.292c-.122,1.112-.222,2.058-.306,2.814A4.576,4.576,0,0,0,81.265,284.823Z" transform="translate(-37.974 -171.797)"/><path class="b" d="M26.25,295.39a7.339,7.339,0,0,0,1.223.145c.784.067,1.919.167,3.337.328,2.78.3,6.673.856,10.888,1.668s8.019,1.7,10.744,2.419c1.368.35,2.463.667,3.225.879a6.739,6.739,0,0,0,1.2.295,6.443,6.443,0,0,0-1.146-.462c-.745-.261-1.83-.623-3.192-1.018-2.714-.8-6.512-1.741-10.749-2.552a108.366,108.366,0,0,0-10.938-1.524c-1.407-.122-2.547-.172-3.337-.189a6.268,6.268,0,0,0-1.251.011Z" transform="translate(-13.554 -188.081)"/><path class="b" d="M105.23,335.628a1.379,1.379,0,0,0,.211-.373c.139-.3.311-.662.523-1.112.45-.962,1.068-2.375,1.8-4.126,1.474-3.5,3.337-8.408,5.372-13.852s3.848-10.36,5.249-13.9c.684-1.713,1.251-3.125,1.668-4.176.184-.456.328-.829.45-1.14a1.585,1.585,0,0,0,.128-.406,1.9,1.9,0,0,0-.211.373c-.139.3-.311.662-.523,1.112-.45.962-1.062,2.375-1.8,4.126-1.474,3.5-3.337,8.408-5.372,13.852s-3.848,10.36-5.244,13.9c-.69,1.713-1.251,3.125-1.668,4.176l-.45,1.112A2.025,2.025,0,0,0,105.23,335.628Z" transform="translate(-48.614 -188.608)"/><path class="b" d="M32.13,343.27a1.463,1.463,0,0,0,.4.167l1.184.395,4.349,1.412c3.676,1.19,8.736,2.9,14.319,4.788s10.671,3.553,14.369,4.666c1.852.556,3.337,1,4.4,1.279l1.2.317a1.479,1.479,0,0,0,.428.078,1.464,1.464,0,0,0-.4-.167L71.2,355.81,66.847,354.4c-3.676-1.19-8.736-2.9-14.325-4.788s-10.66-3.548-14.347-4.666c-1.852-.556-3.337-1-4.4-1.279l-1.2-.311A1.379,1.379,0,0,0,32.13,343.27Z" transform="translate(-16.165 -209.352)"/><path class="b" d="M92.484,108.656v19a6.223,6.223,0,0,1-6.223,6.239H18.129a6.223,6.223,0,0,1-6.223-6.223V111.6l-8.486-8.9,82.819-.256a6.223,6.223,0,0,1,6.245,6.206Z" transform="translate(-3.42 -102.45)"/><path class="c" d="M36.736,121.375l61.821-.289-.006-1.9-61.821.284Z" transform="translate(-18.207 -109.881)"/><path class="c" d="M36.736,132.615l61.821-.289-.006-1.9-61.821.284Z" transform="translate(-18.207 -114.871)"/><rect class="c" width="24.462" height="1.902" transform="translate(18.514 21.937) rotate(-0.28)"/></g><g transform="translate(0 235.221)"><path class="d" d="M320.464,423.122c0,.078-71.736.145-160.227.145S0,423.2,0,423.122,71.736,423,160.238,423,320.464,423.039,320.464,423.122Z" transform="translate(0 -423)"/></g><g transform="translate(57.578 91.817)"><rect class="d" width="143.527" height="205.976" rx="11.55" transform="translate(0 143.527) rotate(-90)"/><rect class="e" width="134.48" height="172.016" transform="translate(14.097 139.001) rotate(-90)"/><circle class="f" cx="5.505" cy="5.505" r="5.505" transform="matrix(0.229, -0.973, 0.973, 0.229, 189.025, 75.877)"/><rect class="f" width="43.231" height="2.274" rx="1.137" transform="translate(5.933 93.373) rotate(-90)"/><circle class="g" cx="13.897" cy="13.897" r="13.897" transform="matrix(0.55, -0.835, 0.835, 0.55, 32.027, 79.761)"/><path class="d" d="M186.455,295.138c.556-.044,1.007.556,1.068,1.3s-.311,1.412-.84,1.457-1.007-.556-1.068-1.3S185.932,295.177,186.455,295.138Z" transform="translate(-139.971 -222.835)"/><path class="d" d="M202.191,294.81c-.556,0-.979.556-1.012,1.34s.373,1.4.9,1.418.979-.556,1.012-1.34S202.747,294.832,202.191,294.81Z" transform="translate(-146.882 -222.691)"/><path class="d" d="M186.641,292c-.033.161-.69.156-1.463.284s-1.4.323-1.485.172.495-.623,1.39-.756S186.708,291.852,186.641,292Z" transform="translate(-139.117 -221.296)"/><path class="d" d="M205.191,292.586c-.106.133-.706-.183-1.474-.417s-1.446-.317-1.457-.484.74-.356,1.629-.078S205.3,292.463,205.191,292.586Z" transform="translate(-147.363 -221.206)"/><circle class="g" cx="14.403" cy="14.403" r="14.403" transform="translate(135.398 86.613) rotate(-80.95)"/><path class="d" d="M367.026,292.828c.556-.044,1.04.556,1.112,1.346s-.328,1.463-.873,1.507-1.04-.556-1.112-1.34S366.481,292.873,367.026,292.828Z" transform="translate(-220.113 -221.81)"/><path class="d" d="M383.359,292.49c-.556,0-1.018.6-1.051,1.39s.384,1.451.934,1.474,1.018-.6,1.051-1.39S383.9,292.512,383.359,292.49Z" transform="translate(-227.287 -221.661)"/><path class="d" d="M289.821,223.79c0,.083-14.937.145-33.365.145s-33.365-.061-33.365-.145,14.931-.15,33.365-.15S289.821,223.707,289.821,223.79Z" transform="translate(-156.609 -191.098)"/><path class="d" d="M287.3,216.585c0,.083-7.379.15-16.477.15s-16.471-.067-16.471-.15,7.374-.145,16.471-.145S287.3,216.507,287.3,216.585Z" transform="translate(-170.486 -187.901)"/><path class="g" d="M18.974,0A18.974,18.974,0,1,1,0,18.974,18.974,18.974,0,0,1,18.974,0Z" transform="matrix(0.307, -0.952, 0.952, 0.307, 78.831, 83.587)"/><path class="d" d="M275.528,284.8c.723-.061,1.374.734,1.457,1.768s-.423,1.93-1.146,1.991-1.368-.734-1.457-1.774S274.81,284.853,275.528,284.8Z" transform="translate(-179.374 -218.244)"/><path class="d" d="M297.043,284.349c-.723-.028-1.34.79-1.385,1.83s.506,1.907,1.229,1.941,1.34-.8,1.385-1.835S297.766,284.377,297.043,284.349Z" transform="translate(-188.822 -218.047)"/><path class="d" d="M289.257,295.536c.028.028-.122.222-.428.556a10.819,10.819,0,0,1-1.424,1.279,10.366,10.366,0,0,1-2.514,1.379,8.9,8.9,0,0,1-3.476.556,10.294,10.294,0,0,1-3.42-.79,14.663,14.663,0,0,1-2.525-1.324,7.4,7.4,0,0,1-2.013-1.668,21.314,21.314,0,0,1,2.224,1.29,17.38,17.38,0,0,0,2.525,1.2,10.6,10.6,0,0,0,3.253.706,8.96,8.96,0,0,0,3.27-.467,11.073,11.073,0,0,0,2.452-1.207,17.793,17.793,0,0,0,1.5-1.112C289.018,295.647,289.23,295.508,289.257,295.536Z" transform="translate(-178.968 -223.005)"/><path class="d" d="M284.806,298.232c.02-.02-.088-.16-.308-.4a7.77,7.77,0,0,0-1.022-.919,7.445,7.445,0,0,0-1.805-.991,6.392,6.392,0,0,0-2.5-.4,7.4,7.4,0,0,0-2.456.567,10.541,10.541,0,0,0-1.813.951,5.317,5.317,0,0,0-1.446,1.2,15.3,15.3,0,0,0,1.6-.927,12.487,12.487,0,0,1,1.813-.859,7.615,7.615,0,0,1,2.337-.507,6.436,6.436,0,0,1,2.348.335,7.955,7.955,0,0,1,1.761.867,12.774,12.774,0,0,1,1.078.8C284.634,298.152,284.786,298.252,284.806,298.232Z" transform="translate(-227.968 -217.005)"/><path class="d" d="M274.777,276.837c-.033.167-.945.106-2.019.284s-1.93.495-2.013.345.717-.745,1.919-.929S274.816,276.687,274.777,276.837Z" transform="translate(-177.761 -214.555)"/><path class="d" d="M302.274,277.576c-.106.133-.912-.345-1.985-.667s-2.007-.395-2.019-.556,1-.378,2.191,0S302.379,277.459,302.274,277.576Z" transform="translate(-189.982 -214.404)"/><path class="d" d="M272.5,293.09c.078,0,.195.184.217.556a2.224,2.224,0,0,1-1.513,2.13c-.345.1-.556.056-.584,0-.028-.161.7-.406,1.2-1.14S272.343,293.123,272.5,293.09Z" transform="translate(-177.708 -221.927)"/><path class="d" d="M303.012,295c0,.078-.139.189-.434.217a1.718,1.718,0,0,1-1.718-1.273c-.061-.295,0-.478.078-.484.167,0,.356.556.912.94S302.979,294.839,303.012,295Z" transform="translate(-191.121 -222.091)"/><path class="h" d="M292.2,274.2a3.216,3.216,0,0,0-.033-.378l-.072-1.112c0-.25-.028-.523-.05-.829s-.095-.628-.145-.984-.122-.734-.183-1.146-.206-.829-.311-1.285a22.394,22.394,0,0,0-2.608-6.256,23.357,23.357,0,0,0-5.972-6.673l-1.012-.756c-.356-.234-.734-.445-1.112-.678a11.133,11.133,0,0,0-1.146-.662l-1.257-.573-.623-.289-.651-.239-1.318-.478c-.45-.15-.918-.245-1.379-.373a12.271,12.271,0,0,0-1.424-.323,22.369,22.369,0,0,0-2.964-.339c-.506,0-1.012-.067-1.529-.061l-1.552.078a3.67,3.67,0,0,0-.779.056l-.784.117c-.523.089-1.051.15-1.579.256a25.926,25.926,0,0,0-3.125.918,24.625,24.625,0,0,0-3.053,1.346c-.495.267-.968.556-1.457.873-.245.15-.5.284-.728.456l-.69.517A25.958,25.958,0,0,0,252,257.637l-1.19,1.312-.3.328-.267.356-.556.717-.556.723-.473.767-.473.779-.234.389-.2.411-.8,1.668c-.206.556-.423,1.151-.634,1.735a23.234,23.234,0,0,0,0,14.781q.317.879.634,1.735c.267.556.556,1.112.8,1.668l.2.406.239.389.467.779.473.773.556.717.556.717.267.356.3.334,1.19,1.312a27.449,27.449,0,0,0,2.658,2.258l.69.517c.228.172.484.306.723.456.495.295.968.606,1.463.873a24.625,24.625,0,0,0,3.053,1.346,25.723,25.723,0,0,0,3.131.918c.523.106,1.051.167,1.574.256l.784.117c.261.033.523.033.784.05l1.552.083c.512,0,1.018-.044,1.524-.061a22.555,22.555,0,0,0,2.97-.339,12.178,12.178,0,0,0,1.418-.323c.462-.128.934-.222,1.379-.373l1.323-.478.651-.239.617-.295,1.218-.584c.406-.184.767-.445,1.146-.662s.745-.439,1.112-.673l1.018-.756a23.446,23.446,0,0,0,5.967-6.673,22.3,22.3,0,0,0,2.608-6.25c.106-.456.261-.873.311-1.285s.122-.8.183-1.151.117-.678.145-.984.033-.556.05-.823c.033-.484.056-.856.072-1.112s.033-.384.033-.384v.384c0,.25,0,.634-.039,1.112a7.415,7.415,0,0,1-.033.829c-.033.306-.089.628-.139.99s-.106.74-.167,1.151a13.269,13.269,0,0,1-.295,1.3,22.388,22.388,0,0,1-2.58,6.312,23.639,23.639,0,0,1-5.984,6.74l-1.023.767c-.361.234-.74.45-1.112.684a10.211,10.211,0,0,1-1.151.673l-1.229.6-.623.295-.656.245-1.335.489c-.45.15-.923.25-1.4.378a12.117,12.117,0,0,1-1.429.328,22.878,22.878,0,0,1-3,.356c-.512,0-1.023.067-1.546.061l-1.568-.078a4.187,4.187,0,0,1-.79-.05l-.79-.117c-.556-.089-1.068-.15-1.6-.256a25.024,25.024,0,0,1-3.164-.923,24.119,24.119,0,0,1-3.1-1.357c-.5-.272-.979-.584-1.479-.879-.239-.156-.5-.289-.734-.462l-.7-.523a25.439,25.439,0,0,1-2.691-2.286l-1.212-1.323-.3-.334-.272-.361-.556-.728-.556-.728-.478-.779-.478-.79-.239-.389-.206-.417-.806-1.668c-.211-.556-.428-1.168-.64-1.757a25.151,25.151,0,0,1-1.229-7.485,25.514,25.514,0,0,1,1.229-7.485l.645-1.757c.267-.556.556-1.112.806-1.668l.2-.411.239-.395.478-.784.478-.779.556-.734.556-.723.272-.361.306-.334,1.207-1.329a27.288,27.288,0,0,1,2.691-2.28l.7-.523c.228-.172.489-.306.734-.462.495-.295.973-.612,1.474-.879a24.119,24.119,0,0,1,3.1-1.357,25.023,25.023,0,0,1,3.164-.923c.528-.106,1.068-.167,1.59-.256l.8-.117c.261-.033.556-.033.79-.05l1.568-.078c.517,0,1.034.044,1.546.061a21.991,21.991,0,0,1,2.992.356,11.19,11.19,0,0,1,1.435.328c.467.128.945.228,1.4.378l1.335.489.656.239.623.3,1.229.6c.406.189.767.45,1.151.673s.751.45,1.112.684l1.018.767a23.434,23.434,0,0,1,5.989,6.74,22.389,22.389,0,0,1,2.58,6.312,12.908,12.908,0,0,1,.295,1.3q.095.617.167,1.151c.05.361.111.69.139.99s0,.556.033.829c0,.484.033.856.039,1.112A1.33,1.33,0,0,0,292.2,274.2Z" transform="translate(-166.264 -203.034)"/><rect class="b" width="172.016" height="8.58" transform="translate(14.097 4.521)"/><path class="e" d="M137.014,179.612a1.162,1.162,0,1,1-1.162-1.162A1.162,1.162,0,0,1,137.014,179.612Z" transform="translate(-117.368 -171.037)"/><path class="e" d="M143.954,179.612a1.162,1.162,0,1,1-1.162-1.162A1.162,1.162,0,0,1,143.954,179.612Z" transform="translate(-120.448 -171.037)"/><path class="e" d="M150.894,179.612a1.157,1.157,0,1,1-.339-.823,1.162,1.162,0,0,1,.339.823Z" transform="translate(-123.529 -171.037)"/><path class="b" d="M297.707,235.96c0,.083-29.845.145-66.653.145s-66.664-.061-66.664-.145,29.84-.15,66.664-.15S297.707,235.877,297.707,235.96Z" transform="translate(-130.552 -196.5)"/><path class="b" d="M297.707,241.88c0,.083-29.845.15-66.653.15s-66.664-.067-66.664-.15,29.84-.15,66.664-.15S297.707,241.808,297.707,241.88Z" transform="translate(-130.552 -199.128)"/><path class="d" d="M186.641,292c-.033.161-.69.156-1.463.284s-1.4.323-1.485.172.495-.623,1.39-.756S186.708,291.852,186.641,292Z" transform="translate(-39.118 -223.296)"/><path class="d" d="M205.191,292.586c-.106.133-.706-.183-1.474-.417s-1.446-.317-1.457-.484.74-.356,1.629-.078S205.3,292.463,205.191,292.586Z" transform="translate(-47.363 -223.206)"/><path class="d" d="M284.806,298.232c.02-.02-.088-.16-.308-.4a7.77,7.77,0,0,0-1.022-.919,7.445,7.445,0,0,0-1.805-.991,6.392,6.392,0,0,0-2.5-.4,7.4,7.4,0,0,0-2.456.567,10.541,10.541,0,0,0-1.813.951,5.317,5.317,0,0,0-1.446,1.2,15.3,15.3,0,0,0,1.6-.927,12.487,12.487,0,0,1,1.813-.859,7.615,7.615,0,0,1,2.337-.507,6.436,6.436,0,0,1,2.348.335,7.955,7.955,0,0,1,1.761.867,12.774,12.774,0,0,1,1.078.8C284.634,298.152,284.786,298.252,284.806,298.232Z" transform="translate(-126.968 -219.005)"/></g><g transform="translate(103.281 13.372)"><path class="f" d="M242.758,142.712s-1.179-2.658-1.4-3.248c-.6-1.6-4.449-12.29-3.526-13.9,4.271-7.485,7.574-12.79,15.993-12.79l14.859-.095s14.086-2.869,24.012,29.156Z" transform="translate(-208.796 -63.366)"/><path class="f" d="M188.331,145.344l19.463-4.2,22.878-12.034.089-16.421c-3.437-.945-10.01,1.435-21.832,7.463l-17.567,9.07a10.4,10.4,0,0,0-3.031,16.127Z" transform="translate(-185.727 -63.312)"/><path class="i" d="M258.446,221.823c-.284-.929-.095-1.518,1.257-1.068,2.97,1,5.617.673,6.267.095s.05-1.668-.912-1.585a11.489,11.489,0,0,1-3.123-.433,7.59,7.59,0,0,1-2.338-.985c-.617-.395-1.151-.762-1.629-1.112a15.285,15.285,0,0,1-3.592-3.565L245,217.2l1.513,4.7a4.96,4.96,0,0,0,3.175,3.642,22.54,22.54,0,0,0,6.957.556c.779-.517,3.8,3.854,4.716,5.4s2.007,1.735,2.358.79c.245-.639-2.441-5.433-3.381-6.934a18.538,18.538,0,0,1-1.874-3.531" transform="translate(-212.039 -108.005)"/><path class="j" d="M256.256,234.052c0,.033-.228,0-.556-.133a2.391,2.391,0,0,1-.979-.962,2.352,2.352,0,0,1-.306-1.34.959.959,0,0,1,.172-.556,4.226,4.226,0,0,0,.389,1.735,4.16,4.16,0,0,0,1.279,1.257Z" transform="translate(-216.215 -115.947)"/><path class="j" d="M261.7,234.329c0,.033-.222,0-.523-.145a2.38,2.38,0,0,1-.918-.945,2.33,2.33,0,0,1-.289-1.279c0-.345.128-.556.161-.523a4.37,4.37,0,0,0,.389,1.668A4.277,4.277,0,0,0,261.7,234.329Z" transform="translate(-218.68 -116.113)"/><path class="f" d="M189.42,161.085s29.8,34.244,29.8,33.688,13.346-10.566,13.346-10.566L203.333,149.39Z" transform="translate(-187.366 -79.693)"/><path class="d" d="M221.939,158.31a1.373,1.373,0,0,1,.206.206l.556.617,2.008,2.313c1.668,1.963,3.987,4.682,6.523,7.7s4.816,5.767,6.462,7.785c.79.979,1.446,1.779,1.93,2.375l.512.656a1.012,1.012,0,0,1,.167.245s-.078-.067-.211-.206l-.556-.617-1.991-2.341c-1.668-1.963-3.987-4.688-6.523-7.707s-4.821-5.761-6.462-7.785l-1.93-2.375c-.206-.267-.378-.478-.517-.656S221.928,158.321,221.939,158.31Z" transform="translate(-201.801 -83.652)"/><path class="d" d="M312.542,154.676a10.226,10.226,0,0,0,.361-2.191,6.606,6.606,0,0,0-1.952-4.81c-.723-.762-1.5-1.412-2.124-2.108a6.54,6.54,0,0,1-1.34-2.08,3.654,3.654,0,0,1-.239-1.668,1.48,1.48,0,0,1,.156-.589,4.093,4.093,0,0,0,.284,2.163,6.506,6.506,0,0,0,1.34,1.974c.617.662,1.4,1.312,2.141,2.091a6.84,6.84,0,0,1,1.607,2.564,6.474,6.474,0,0,1,.334,2.452,6.072,6.072,0,0,1-.311,1.635A1.556,1.556,0,0,1,312.542,154.676Z" transform="translate(-239.665 -76.07)"/><path class="d" d="M236.386,117.08a2.779,2.779,0,0,1,.434-.206c.289-.122.723-.289,1.29-.473a11.045,11.045,0,0,1,2.135-.434,7.335,7.335,0,0,1,2.875.267,6.673,6.673,0,0,1,2.947,1.9,7.813,7.813,0,0,1,1.763,3.6,13.569,13.569,0,0,1,.284,4.449,9.592,9.592,0,0,1-1.668,4.449,12.3,12.3,0,0,1-3.565,3.164c-1.307.823-2.619,1.5-3.865,2.152l-6.623,3.476-4.477,2.319-1.223.617a3.416,3.416,0,0,1-.434.2,2.524,2.524,0,0,1,.406-.25l1.2-.667,4.449-2.4,6.59-3.531c1.24-.662,2.558-1.34,3.843-2.158a12,12,0,0,0,3.476-3.092,9.337,9.337,0,0,0,1.6-4.326,13.536,13.536,0,0,0-.256-4.343,7.657,7.657,0,0,0-1.668-3.5,6.54,6.54,0,0,0-2.825-1.857,7.191,7.191,0,0,0-2.78-.3,11.9,11.9,0,0,0-2.119.378c-.556.161-1.007.311-1.3.417A2.87,2.87,0,0,1,236.386,117.08Z" transform="translate(-203.72 -64.838)"/><path class="d" d="M224.15,158.318a14.887,14.887,0,0,0-1.668-3.97,15.171,15.171,0,0,0-2.942-3.147,3.82,3.82,0,0,1,1.112.678,9.554,9.554,0,0,1,2.1,2.308,9.726,9.726,0,0,1,1.246,2.853A3.649,3.649,0,0,1,224.15,158.318Z" transform="translate(-200.737 -80.496)"/><path class="c" d="M291.791,148.615a3.6,3.6,0,0,1-.634.172,6.328,6.328,0,0,1-1.88.078,6.879,6.879,0,0,1-2.825-.929,6.478,6.478,0,0,1-2.614-2.931,6.912,6.912,0,0,1-.356-4.732,3.893,3.893,0,0,1,1.574-2.18,1.935,1.935,0,0,1,1.418-.289,2.046,2.046,0,0,1,1.24.823,6.89,6.89,0,0,1,.667,5.928,7.113,7.113,0,0,1-1.668,2.78,6.345,6.345,0,0,1-2.9,1.635,6.612,6.612,0,0,1-6.195-1.44,6.5,6.5,0,0,1-1.857-5.644,5.6,5.6,0,0,1,1.112-2.619,2.78,2.78,0,0,1,1.112-.851,1.807,1.807,0,0,1,1.362,0,2.552,2.552,0,0,1,1.457,2.019,4.3,4.3,0,0,1-.45,2.274,10.938,10.938,0,0,1-2.369,3.153,11.411,11.411,0,0,1-2.43,1.724,10.566,10.566,0,0,1-1.735.723c-.206.067-.367.1-.473.133a.712.712,0,0,1-.161,0l.156-.061c.1-.039.256-.078.456-.156a11.835,11.835,0,0,0,1.7-.773,11.388,11.388,0,0,0,2.374-1.735,10.8,10.8,0,0,0,2.286-3.125,4.049,4.049,0,0,0,.417-2.158,2.3,2.3,0,0,0-1.324-1.818,1.518,1.518,0,0,0-1.179,0,2.542,2.542,0,0,0-1,.779,5.344,5.344,0,0,0-1.062,2.491,6.217,6.217,0,0,0,1.785,5.394,6.356,6.356,0,0,0,5.922,1.368,6.162,6.162,0,0,0,2.78-1.563,6.763,6.763,0,0,0,1.618-2.641,7.23,7.23,0,0,0,.328-2.981,6.406,6.406,0,0,0-.306-1.429,4.132,4.132,0,0,0-.628-1.262,1.791,1.791,0,0,0-1.084-.706,1.668,1.668,0,0,0-1.235.25,3.665,3.665,0,0,0-1.474,2.03,6.717,6.717,0,0,0,.317,4.577,6.367,6.367,0,0,0,2.5,2.875,6.957,6.957,0,0,0,2.753.951A7.608,7.608,0,0,0,291.791,148.615Z" transform="translate(-224.553 -74.535)"/><path class="j" d="M309.551,93.945a6.707,6.707,0,0,1-1.329-2.641,1.852,1.852,0,0,1-.039-.968.751.751,0,0,1,.717-.556c.334.033.556.345.74.628a14.025,14.025,0,0,1,1.374,2.6,1.93,1.93,0,0,1,.161.784.817.817,0,0,1-.389.673.829.829,0,0,1-.834-.111,2.324,2.324,0,0,1-.556-.678" transform="translate(-240.066 -53.231)"/><path class="j" d="M311.826,92.238l-1.474-3.075a2.4,2.4,0,0,1-.3-.962.74.74,0,0,1,1.285-.612,2.636,2.636,0,0,1,.495.728l.69,1.346a4.449,4.449,0,0,1,.462,1.151,1.446,1.446,0,0,1-.234,1.179.9.9,0,0,1-1.112.261" transform="translate(-240.911 -52.147)"/><path class="i" d="M299.714,101.047s-2.046-2.653-2.224-4.054,1.529-3.893,5.205-4.449a8.987,8.987,0,0,0,3.776-1.3,1.184,1.184,0,0,0,.434-1.435,21.579,21.579,0,0,1-1.29-3.637c.172-.751.662-.74,1.935,1.112s2.736,3.748,2.452,4.6-4.76,3.509-4.76,3.509l1.223,1.974Z" transform="translate(-235.334 -51.425)"/><path class="f" d="M312.1,136.192,298,108.554l9.081-5.094,19.085,30.257s1.007,1.93,2.413,4.193h-16" transform="translate(-235.566 -59.304)"/><path class="d" d="M306.687,103.46a1.307,1.307,0,0,1-.156.111l-.478.289-1.824,1.068-6.562,3.737.05-.167c1.374,2.78,3.153,6.034,4.955,9.548,2.675,5.205,5,9.965,6.612,13.435.817,1.735,1.463,3.147,1.9,4.126.206.467.367.845.495,1.112a1.836,1.836,0,0,1,.15.406,3.893,3.893,0,0,1-.206-.378c-.139-.278-.317-.651-.556-1.112l-1.974-4.071c-1.668-3.448-4.015-8.2-6.673-13.4-1.8-3.509-3.565-6.757-4.916-9.57l-.056-.111.106-.056,6.612-3.648,1.863-1,.495-.256A.839.839,0,0,1,306.687,103.46Z" transform="translate(-235.322 -59.304)"/><path class="d" d="M244.922,161.555a16.843,16.843,0,0,1-2.352-6.5c.083,0,.467,1.479,1.112,3.27S245,161.516,244.922,161.555Z" transform="translate(-210.96 -82.21)"/><path class="d" d="M300.97,75.281a5.561,5.561,0,0,0,6.584-8.436c3.186-.806,5.172-4.482,4.527-7.7a8.714,8.714,0,0,0-6.734-6.434,7.174,7.174,0,0,0-3.726.095,4.549,4.549,0,0,0-2.78,2.386" transform="translate(-235.939 -36.686)"/><path class="k" d="M298.787,80.372a10.719,10.719,0,0,0-1.084.456,4.8,4.8,0,0,0-2.13,2.3,4.693,4.693,0,0,0,2.436,6.228,4.643,4.643,0,0,0,5.383-1.229,4.71,4.71,0,0,0,1.112-2.48,4.654,4.654,0,0,0-.339-2.447,4.7,4.7,0,0,0-1.285-1.746,4.827,4.827,0,0,0-2.914-1.112c-.756,0-1.173.095-1.179.061a1.162,1.162,0,0,1,.3-.083,3.714,3.714,0,0,1,.884-.117,4.777,4.777,0,0,1,3.042,1.112A4.888,4.888,0,0,1,304.42,83.1a4.966,4.966,0,0,1,.384,2.58,4.756,4.756,0,0,1-.373,1.379,4.676,4.676,0,0,1-.79,1.257,4.916,4.916,0,0,1-5.722,1.307,4.6,4.6,0,0,1-1.285-.79,4.732,4.732,0,0,1-.929-1.079,4.883,4.883,0,0,1-.323-4.716,4.8,4.8,0,0,1,2.269-2.308,3.786,3.786,0,0,1,.834-.3A1,1,0,0,1,298.787,80.372Z" transform="translate(-234.201 -48.979)"/><path class="d" d="M273.033,46.685a5.466,5.466,0,0,0,2.575-10.1,6.8,6.8,0,0,0-10.138-7.952A9.014,9.014,0,0,0,248.788,31.3,8.714,8.714,0,0,0,237.61,43.121a7.007,7.007,0,0,0-6.117,7.29,7,7,0,0,0,7.285,6.15,5.95,5.95,0,0,0,9.02,6.673A6.512,6.512,0,0,0,259.5,61.889" transform="translate(-206.039 -24.055)"/><path class="i" d="M280.675,81.443c.117-2.708.261-5.161.261-5.161s6.05-.767,6.317-6.94-.35-20.4-.35-20.4l-11.122-5.35L263.77,53.272l1.88,28.361a7.53,7.53,0,0,0,7.858,7.018h0a7.529,7.529,0,0,0,7.168-7.207Z" transform="translate(-220.371 -32.727)"/><path class="d" d="M302.375,71.5c-.095.106-.673-.384-1.5-.412s-1.446.384-1.535.272.056-.239.328-.434a2,2,0,0,1,2.425.106C302.342,71.252,302.425,71.452,302.375,71.5Z" transform="translate(-236.149 -44.702)"/><path class="d" d="M285.861,71.5c-.1.106-.678-.384-1.507-.412s-1.446.384-1.535.272.061-.239.328-.434a2,2,0,0,1,2.425.106C285.822,71.252,285.906,71.452,285.861,71.5Z" transform="translate(-228.816 -44.702)"/><path class="d" d="M293.684,77.522a5.378,5.378,0,0,1,1.357-.206c.211,0,.411-.05.45-.206a1.257,1.257,0,0,0-.133-.678l-.6-1.752a31.855,31.855,0,0,1-1.335-4.571,30.573,30.573,0,0,1,1.668,4.449c.2.612.395,1.2.556,1.763a1.413,1.413,0,0,1,.1.9.556.556,0,0,1-.356.317,1.485,1.485,0,0,1-.361.039A5.244,5.244,0,0,1,293.684,77.522Z" transform="translate(-233.529 -44.499)"/><path class="j" d="M288.243,100.289a14.747,14.747,0,0,1-8.013-2.619s1.88,4.5,7.908,4.137Z" transform="translate(-227.678 -56.734)"/><path class="d" d="M278.019,43.453a8.158,8.158,0,0,0,.111,9.454A4.735,4.735,0,0,0,281.873,55a2.663,2.663,0,0,0,2.6-2.914,3.07,3.07,0,1,0,5.883.106,5.51,5.51,0,0,0,.69,1.9,1.88,1.88,0,0,0,1.707.9c.934-.122,1.474-1.112,1.668-2.035a8.341,8.341,0,0,0-2.38-7.7,10.154,10.154,0,0,0-7.719-2.708,12.935,12.935,0,0,0-7.58,3.337" transform="translate(-226.051 -32.246)"/><path class="d" d="M269.737,48.13a14.458,14.458,0,0,1,1.246,5.561,7.435,7.435,0,0,1-2,5.2,5.06,5.06,0,0,1-5.255,1.262,5.872,5.872,0,0,1-.767,4.933,3.755,3.755,0,0,1-4.582,1.207,5.038,5.038,0,0,1-2.141-3.948,12.64,12.64,0,0,1,13.73-14.125" transform="translate(-216.984 -34.742)"/><path class="i" d="M264.025,74.422a2.179,2.179,0,0,0-2.6.623,3.548,3.548,0,0,0,3.531,5.828" transform="translate(-218.913 -46.314)"/><path class="j" d="M264.867,80.491c0,.033-.278.072-.7-.05a1.852,1.852,0,0,1-1.273-1.112,1.357,1.357,0,0,1,.022-1,1.479,1.479,0,0,1,.517-.612c.378-.25.673-.239.673-.206s-.245.111-.556.373a1.223,1.223,0,0,0-.395,1.335,1.835,1.835,0,0,0,1.062,1.034C264.611,80.408,264.873,80.441,264.867,80.491Z" transform="translate(-219.944 -47.779)"/><path class="d" d="M285.925,67.047c-.078.239-.979.15-2.052.2s-1.974.189-2.069-.044.779-.8,2.035-.845S286.008,66.825,285.925,67.047Z" transform="translate(-228.373 -42.833)"/><path class="d" d="M302.633,66.534c-.095.089-.284.033-.5,0a1.98,1.98,0,0,0-.751-.05,8.945,8.945,0,0,1-.951.083c-.272,0-.462-.061-.495-.178s.083-.272.317-.423A2.352,2.352,0,0,1,301.3,65.6a1.385,1.385,0,0,1,1.2.417C302.7,66.25,302.716,66.461,302.633,66.534Z" transform="translate(-236.423 -42.491)"/><path class="d" d="M293.877,86.271c0,.033-.195.178-.6.261a2.686,2.686,0,0,1-2.78-1.157c-.222-.345-.273-.6-.239-.606s.161.195.406.478a3.058,3.058,0,0,0,1.157.856,3.181,3.181,0,0,0,1.424.222C293.627,86.3,293.86,86.227,293.877,86.271Z" transform="translate(-232.127 -51.007)"/><path class="k" d="M266.394,88.818a11.64,11.64,0,0,0-.206-1.162,4.8,4.8,0,0,0-1.763-2.6,4.682,4.682,0,0,0-4.449-.651,4.3,4.3,0,0,0-1.179.651,4.449,4.449,0,0,0-.99,1,4.7,4.7,0,0,0,6.623,6.512,4.816,4.816,0,0,0,1.757-2.586,11.64,11.64,0,0,0,.206-1.162,1.113,1.113,0,0,1,0,.311,3.894,3.894,0,0,1-.111.879,4.788,4.788,0,0,1-1.746,2.725,4.86,4.86,0,0,1-2.069.94,4.942,4.942,0,1,1,2.069-8.77,4.788,4.788,0,0,1,1.746,2.725,3.894,3.894,0,0,1,.111.879,1.112,1.112,0,0,1,0,.317Z" transform="translate(-217.183 -50.607)"/><path class="f" d="M294.182,43.06a.483.483,0,0,1,.156.039,1.184,1.184,0,0,1,.384.245,1.813,1.813,0,0,1,.5,1.624,2.319,2.319,0,0,1-1.924,1.707,4.8,4.8,0,0,1-3.259-.784l-1.151-.64,1.262.417a1.368,1.368,0,0,1,.851.973,1.774,1.774,0,0,1-.178,1.329,1.846,1.846,0,0,1-1.112.8,2.647,2.647,0,0,1-1.412,0,4.838,4.838,0,0,1-2.419-2.091l-.806-1.179,1.023.99a2.224,2.224,0,0,1,.556,2.1,2.3,2.3,0,0,1-1.246,1.518,3.008,3.008,0,0,1-3.164-.384,3.8,3.8,0,0,1-1.2-1.785,3.989,3.989,0,0,1-.133-.556.722.722,0,0,1,0-.206,5.832,5.832,0,0,0,.239.734,3.831,3.831,0,0,0,1.218,1.668,2.78,2.78,0,0,0,2.936.311,2.035,2.035,0,0,0,1.112-1.407,1.946,1.946,0,0,0-.484-1.83l.222-.184a4.61,4.61,0,0,0,2.263,1.969,1.941,1.941,0,0,0,2.224-.639,1.325,1.325,0,0,0-.512-1.9l.111-.245a4.66,4.66,0,0,0,3.081.79,2.135,2.135,0,0,0,1.8-1.513,1.713,1.713,0,0,0-.395-1.524A1.841,1.841,0,0,0,294.182,43.06Z" transform="translate(-227.978 -32.492)"/><path class="f" d="M263.929,53.285s0,.039-.072.111a2.671,2.671,0,0,1-.261.272,3.442,3.442,0,0,1-1.246.74,3.553,3.553,0,0,1-2.224.039A3.753,3.753,0,0,1,257.9,52.54l.234-.033a3.6,3.6,0,1,1-6.05-3.164l.195.211a3.72,3.72,0,0,1-2.33.845,4.009,4.009,0,0,1-2.224-.6,3.337,3.337,0,0,1-1.312-1.54,3.893,3.893,0,0,1,.64-3.982,2.352,2.352,0,0,1,.678-.556,4.085,4.085,0,0,0-.606.623,3.859,3.859,0,0,0-.806,2.224,3.72,3.72,0,0,0,.295,1.629,3.07,3.07,0,0,0,1.246,1.418,3.792,3.792,0,0,0,2.058.556,3.437,3.437,0,0,0,2.158-.8l.195.211a3.337,3.337,0,1,0,5.605,2.919l.067-.395.167.361a3.553,3.553,0,0,0,2.046,1.824,3.47,3.47,0,0,0,2.141,0,3.731,3.731,0,0,0,1.24-.662C263.8,53.407,263.912,53.274,263.929,53.285Z" transform="translate(-212.539 -32.785)"/><path class="f" d="M248.332,73.219a1.368,1.368,0,0,1-.478.284,3.259,3.259,0,0,1-3.665-.8,3.431,3.431,0,0,1-.834-2.853l.256.117a5.622,5.622,0,0,1-2.091,1.7,4.493,4.493,0,0,1-2.024.434,4.137,4.137,0,0,1-1.863-.512,3.286,3.286,0,0,1-1.774-2.63,3.131,3.131,0,0,1,.556-2.091,2.486,2.486,0,0,1,.417-.423A.7.7,0,0,1,237,66.34a3.325,3.325,0,0,0-.495.6,3.092,3.092,0,0,0,1.235,4.415,4.032,4.032,0,0,0,3.637.05,5.489,5.489,0,0,0,1.985-1.613l.356-.462-.1.556a3.2,3.2,0,0,0,.734,2.636,3.059,3.059,0,0,0,1.957,1.018,3.337,3.337,0,0,0,1.485-.15C248.166,73.3,248.321,73.2,248.332,73.219Z" transform="translate(-207.975 -42.826)"/><path class="f" d="M311.61,57.05a1.752,1.752,0,0,1,.122,1.023,3.681,3.681,0,0,1-3.248,3.4,1.907,1.907,0,0,1-1.034-.072c0-.05.4,0,1-.133a3.82,3.82,0,0,0,3.075-3.214C311.648,57.445,311.56,57.056,311.61,57.05Z" transform="translate(-239.761 -38.702)"/><path class="f" d="M315.439,67.52a1.178,1.178,0,0,1,.139.417,2.414,2.414,0,0,1-.111,1.223,1.9,1.9,0,0,1-1.351,1.235A1.918,1.918,0,0,1,313,70.3a1.546,1.546,0,0,1-.9-.845l.278-.095a1.8,1.8,0,0,1,.067.556,2.224,2.224,0,0,1-1.39,1.98,1.891,1.891,0,0,1-1.112.044,2.086,2.086,0,0,1-.834-.462,1.985,1.985,0,0,1-.673-1.162.934.934,0,0,1,0-.495c.028,0,0,.178.1.467a2.029,2.029,0,0,0,.7,1.034,1.724,1.724,0,0,0,1.707.317,1.957,1.957,0,0,0,1.2-1.729,1.569,1.569,0,0,0-.056-.462l.278-.095a1.5,1.5,0,0,0,1.668.8,1.7,1.7,0,0,0,1.212-1.051,2.6,2.6,0,0,0,.195-1.112,2.735,2.735,0,0,1,0-.473Z" transform="translate(-240.187 -43.35)"/><path class="d" d="M289.428,82.37c.033,0,.061.128,0,.317a1.3,1.3,0,0,1-1.112.912c-.189,0-.306-.033-.306-.072a3.7,3.7,0,0,0,.806-.445C289.194,82.759,289.345,82.359,289.428,82.37Z" transform="translate(-231.131 -49.942)"/></g><g transform="translate(277.003 184.72)"><path class="k" d="M521.5,352.758c-1.39,1.985-4.087,1.329-5.338.117a10.117,10.117,0,0,1-2.263-4.638c-1.112-3.82-2.224-7.83-1.39-11.722a6.512,6.512,0,0,1,1.5-3.186,3.4,3.4,0,0,1,3.225-1.073,4.875,4.875,0,0,1,2.819,2.958,27.909,27.909,0,0,1,2.78,11.995,9.787,9.787,0,0,1-1.307,5.561" transform="translate(-504.38 -332.186)"/><g class="l" transform="translate(7.836)"><path class="m" d="M521.5,352.758c-1.39,1.985-4.087,1.329-5.338.117a10.117,10.117,0,0,1-2.263-4.638c-1.112-3.82-2.224-7.83-1.39-11.722a6.512,6.512,0,0,1,1.5-3.186,3.4,3.4,0,0,1,3.225-1.073,4.875,4.875,0,0,1,2.819,2.958,27.909,27.909,0,0,1,2.78,11.995,9.787,9.787,0,0,1-1.307,5.561" transform="translate(-512.216 -332.186)"/></g><path class="m" d="M510.039,386.348a12.01,12.01,0,0,0-7.463-.906,6.04,6.04,0,0,0-3.687,1.668c-.906,1.04-1.112,2.808-.039,3.681a3.537,3.537,0,0,0,2.324.589c1.974,0,4.165-.373,5.739.817.9.678,1.5,1.8,2.575,2.135a2.541,2.541,0,0,0,2.78-1.246,4.365,4.365,0,0,0,.317-3.2A4.91,4.91,0,0,0,510.039,386.348Z" transform="translate(-498.125 -355.733)"/><path class="m" d="M534.594,360.68a7.193,7.193,0,0,1-1.112-6.64,12.823,12.823,0,0,1,3.932-5.706,21.243,21.243,0,0,1,7.046-4.154,7.569,7.569,0,0,1,3.164-.556,3.337,3.337,0,0,1,2.658,1.607c.74,1.418.033,3.131-.74,4.527a53.177,53.177,0,0,1-4.621,7.046,12.6,12.6,0,0,1-5.088,4.36c-2.113.812-4.31.712-5.427-.756" transform="translate(-513.666 -337.261)"/><path class="d" d="M520.8,408.444a4.764,4.764,0,0,1-.122-.9c-.067-.656-.145-1.479-.239-2.458a35.762,35.762,0,0,0-.556-3.609,27.831,27.831,0,0,0-1.307-4.254,15.79,15.79,0,0,0-2.174-3.854,8.163,8.163,0,0,0-2.747-2.286,7.685,7.685,0,0,0-2.319-.717,4.134,4.134,0,0,1-.9-.133,4.616,4.616,0,0,1,.912,0,6.918,6.918,0,0,1,2.413.628,8.091,8.091,0,0,1,2.9,2.3,15.343,15.343,0,0,1,2.252,3.932,26.594,26.594,0,0,1,1.3,4.326,30.878,30.878,0,0,1,.478,3.648c.078,1.045.106,1.891.122,2.475A4.039,4.039,0,0,1,520.8,408.444Z" transform="translate(-503.592 -357.943)"/><path class="d" d="M525.112,387.12a1.74,1.74,0,0,1,0-.417v-1.2c0-1.04,0-2.541-.05-4.393-.095-3.709-.411-8.831-1.029-14.458s-1.446-10.694-2.2-14.325c-.178-.912-.356-1.729-.523-2.447s-.3-1.34-.428-1.841-.206-.856-.284-1.162a2.184,2.184,0,0,1-.072-.411,1.894,1.894,0,0,1,.145.389c.094.3.206.684.35,1.146s.311,1.112.489,1.83.384,1.535.556,2.441a134.512,134.512,0,0,1,2.308,14.336c.617,5.639.9,10.771.923,14.492,0,1.857,0,3.337-.067,4.4,0,.489-.05.884-.072,1.2a2.108,2.108,0,0,1-.05.423Z" transform="translate(-508.071 -338.527)"/><path class="d" d="M528.71,379.64a7.633,7.633,0,0,1,0-1.246,33.658,33.658,0,0,1,.384-3.387,47.142,47.142,0,0,1,3.159-10.76,31.1,31.1,0,0,1,6.061-9.426,14.963,14.963,0,0,1,1.424-1.323c.217-.189.411-.373.612-.517l.556-.378a8.1,8.1,0,0,1,1.051-.673,36.619,36.619,0,0,0-3.448,3.07,32.853,32.853,0,0,0-5.9,9.392,46.969,46.969,0,0,0-2.074,5.783,46.188,46.188,0,0,0-1.173,4.877c-.272,1.4-.406,2.558-.495,3.337a8.585,8.585,0,0,1-.156,1.251Z" transform="translate(-511.69 -340.95)"/></g><g transform="translate(77.547 -0.012)"><path class="d" d="M160.6-.005a1.718,1.718,0,0,1-.384.05l-1.112.095a13.346,13.346,0,0,0-1.824.267c-.356.078-.751.111-1.151.234l-1.29.373a21.365,21.365,0,0,0-6.117,3.114,21.765,21.765,0,0,0-5.967,6.8,22.944,22.944,0,0,0-2.063,4.86,23.251,23.251,0,0,0-.856,5.655,23.988,23.988,0,0,0,.083,3.02c.033.512.15,1.018.222,1.529a10.5,10.5,0,0,0,.311,1.54,21.687,21.687,0,0,0,2.4,6.022A21.537,21.537,0,0,0,153.1,42.664a19.741,19.741,0,0,0,7.174,1.524,19.319,19.319,0,0,0,7.452-1.162l.728-.272.1-.039.089.044,10.566,5.211-.311.272-3.337-10.06-.044-.122.095-.095a22.477,22.477,0,0,0,5.411-9.237,23.128,23.128,0,0,0,.69-9.771,22.544,22.544,0,0,0-7.7-14,23.284,23.284,0,0,0-5.2-3.225A22.8,22.8,0,0,0,164.441.412L162.8.151,161.6.078l-.712-.044A1.062,1.062,0,0,1,160.632,0h1l1.212.039,1.668.222a22.31,22.31,0,0,1,4.449,1.273,23.022,23.022,0,0,1,5.288,3.214,22.555,22.555,0,0,1,4.855,5.811,22.8,22.8,0,0,1,2.919,8.341,23.356,23.356,0,0,1-.667,9.937,22.8,22.8,0,0,1-5.45,9.426l.05-.222,3.381,10.06.172.506-.484-.239-10.566-5.205h.184l-.745.284a19.78,19.78,0,0,1-7.624,1.184,20.253,20.253,0,0,1-7.329-1.568,21.882,21.882,0,0,1-10.438-9.3,22.2,22.2,0,0,1-2.43-6.117,11.853,11.853,0,0,1-.311-1.568c-.067-.523-.184-1.04-.217-1.557a24.769,24.769,0,0,1-.078-3.07,23.405,23.405,0,0,1,.9-5.744,23.166,23.166,0,0,1,2.119-4.921,21.91,21.91,0,0,1,6.117-6.84A21.221,21.221,0,0,1,154.77.851l1.3-.356c.406-.117.806-.145,1.168-.217A11.923,11.923,0,0,1,159.08.056l1.14-.061a2.842,2.842,0,0,1,.384,0Z" transform="translate(-139.45 0.012)"/><path class="n" d="M19.767,3.557a5.847,5.847,0,0,0-7.979.582l-.842.868L10.1,4.139a5.847,5.847,0,0,0-7.979-.582A6.14,6.14,0,0,0,1.7,12.447L9.975,20.99a1.34,1.34,0,0,0,1.937,0l8.274-8.543a6.136,6.136,0,0,0-.419-8.889Z" transform="translate(10 12.752)"/></g></g></svg>