<svg xmlns="http://www.w3.org/2000/svg" width="528" height="236.5" viewBox="0 0 528 236.5"><defs><style>.a{fill:#eaeaea;}.b{fill:#4cdbc4;}.c{fill:#fff;}.d{fill:#f5f5f5;}.e{fill:none;stroke:#9a9a9a;stroke-linecap:round;stroke-width:2px;opacity:0.43;}</style></defs><g transform="translate(-722.5 -288)"><path class="a" d="M235,117.5A117.5,117.5,0,1,1,117.5,0,117.5,117.5,0,0,1,235,117.5Zm0,0" transform="translate(856.054 288)"/><path class="b" d="M237.625,134.813A102.813,102.813,0,1,1,134.813,32,102.813,102.813,0,0,1,237.625,134.813Zm0,0" transform="translate(838.741 270.687)"/><path class="c" d="M154.841,255.975,125.466,226.6a7.343,7.343,0,1,1,10.385-10.385l18.99,18.991,77.74-77.741a7.343,7.343,0,0,1,10.385,10.385Zm0,0" transform="translate(789.338 203.971)"/><path class="d" d="M99.1,361.8c18.891-13.2,23.181-37.7,22.429-59.716-.12-3.683.282-7.553-1.47-10.783s-5.827-5.426-9.117-3.879c-2.726,1.29-3.922,4.46-5.443,7.092a21.532,21.532,0,0,1-8.587,8.228c-2.341,1.222-5.238,1.957-7.553.684-3.17-1.709-3.546-6.126-3.52-9.783l.128-20.446c0-3.648,0-7.382-1.1-10.851s-3.648-6.7-7.126-7.69-7.784,1.034-8.544,4.614a33.556,33.556,0,0,0-.1,4.546c-.1,1.512-.854,3.2-2.247,3.623s-2.922-.607-4.016-1.709c-3.777-3.691-6.34-8.45-8.732-13.175S49.373,243.03,45.956,239s-8.16-7.211-13.4-7.51-10.834,2.931-12.141,8.074,1.709,10.381,4.956,14.525a81.614,81.614,0,0,0,16.986,16.191c1.153.854,2.409,1.709,2.845,3.059.795,2.435-1.512,4.862-3.922,5.656-2.726.914-5.682.624-8.544.966s-5.938,1.589-7.015,4.272c-1.5,3.742,1.632,7.69,4.708,10.253a69.73,69.73,0,0,0,20.686,11.962c2.691.991,5.52,1.854,7.69,3.742s3.478,5.178,2.17,7.75-4.674,3.418-7.493,2.879-5.34-2.051-8.023-3.067c-5.024-1.9-11.518-1.546-14.73,2.794-2.119,2.854-2.307,6.835-1.23,10.253a26.7,26.7,0,0,0,5.537,9.04c8.057,9.45,18.362,17.089,30.025,21.1s22.454,5.135,34.04.863" transform="translate(734.073 158.972)"/><path class="d" d="M42.614,361.8c-18.891-13.2-23.181-37.7-22.429-59.716.12-3.683-.282-7.553,1.47-10.783s5.827-5.426,9.117-3.879c2.726,1.29,3.922,4.46,5.443,7.092a21.532,21.532,0,0,0,8.587,8.228c2.341,1.222,5.238,1.957,7.553.684,3.17-1.709,3.546-6.126,3.52-9.783l-.128-20.446c0-3.648,0-7.382,1.1-10.851s3.648-6.7,7.126-7.69,7.784,1.034,8.544,4.614a33.556,33.556,0,0,1,.1,4.546c.1,1.512.854,3.2,2.247,3.623s2.922-.607,4.016-1.709c3.777-3.691,6.34-8.45,8.732-13.175S92.341,243.03,95.759,239s8.16-7.211,13.4-7.51,10.834,2.931,12.141,8.074-1.709,10.381-4.956,14.525a81.614,81.614,0,0,1-16.986,16.191c-1.153.854-2.409,1.709-2.845,3.059-.795,2.435,1.512,4.862,3.922,5.656,2.726.914,5.682.624,8.544.966s5.938,1.589,7.015,4.272c1.5,3.742-1.632,7.69-4.708,10.253A69.729,69.729,0,0,1,90.6,306.446c-2.691.991-5.52,1.854-7.69,3.742s-3.478,5.178-2.17,7.75,4.674,3.418,7.493,2.879,5.34-2.051,8.023-3.067c5.024-1.9,11.518-1.546,14.73,2.794,2.119,2.854,2.307,6.835,1.23,10.253a26.7,26.7,0,0,1-5.537,9.04c-8.057,9.45-18.362,17.089-30.025,21.1s-22.454,5.135-34.04.863" transform="translate(1071.073 158.972)"/><line class="e" x2="526" transform="translate(723.5 523.5)"/></g></svg>