<svg xmlns="http://www.w3.org/2000/svg" width="412.819" height="363.978" viewBox="0 0 412.819 363.978"><defs><style>.a{fill:#f5f5f5;}.b{fill:#ebebeb;}.c{fill:#f2dcc5;}.d{opacity:0.8;}.e{fill:#ecb5a2;}.f{fill:#ffbe9d;}.g{fill:#3f59b8;}.h{opacity:0.6;}.i{fill:#fff;}.j{fill:#263238;}.k{fill:#455a64;}.l{fill:#e0e0e0;}.m{fill:#809fe3;}.n{fill:#fafafa;}.o{fill:none;stroke:#4e585d;stroke-miterlimit:10;stroke-width:0.05px;}.p{opacity:0.4;}.q{fill:#eb996e;}</style></defs><g transform="translate(-772.508 -139)"><g transform="translate(994.582 -7.497)"><path class="a" d="M190.714,436.263c.446-3.241-4.127-5.907-7.564-6.184-1.639-.132-3.341.119-4.894-.422-3.363-1.173-4.707-5.518-7.989-6.9-2.454-1.035-5.279-.114-7.658,1.084s-4.73,2.7-7.388,2.874c-2.312.148-4.822-.709-6.845.42-1.507.842-2.3,2.578-3.686,3.6a8.789,8.789,0,0,1-4.818,1.306,13.585,13.585,0,0,0-4.968.812c-1.535.7-2.805,2.327-2.487,3.985Z"/></g><g transform="translate(456.582 68.503)"><path class="a" d="M660,149.873c.734-5.332-6.79-9.718-12.444-10.173-2.7-.218-5.5.2-8.051-.7-5.534-1.929-7.745-9.078-13.145-11.356-4.037-1.7-8.685-.187-12.6,1.783s-7.782,4.449-12.154,4.729c-3.8.243-7.934-1.167-11.262.69-2.479,1.385-3.778,4.242-6.064,5.928-2.236,1.649-5.153,2-7.927,2.149s-5.646.179-8.173,1.336-4.616,3.828-4.091,6.556Z"/></g><g transform="translate(456.582 68.503)"><path class="b" d="M564.476,355.131a23.8,23.8,0,0,1,6.252.962l4.074-4.219,8.3,5.031-1.858,5.562a23.776,23.776,0,0,1,3.744,5.1l5.861-.1,2.309,9.424-5.244,2.618a23.754,23.754,0,0,1-.963,6.253l4.219,4.073-5.031,8.3-5.562-1.858a23.8,23.8,0,0,1-5.1,3.743l.1,5.862-9.423,2.309-2.618-5.244a23.791,23.791,0,0,1-6.252-.963l-4.074,4.219-8.3-5.031,1.857-5.563a23.774,23.774,0,0,1-3.743-5.1l-5.861.1-2.309-9.424,5.244-2.618a23.754,23.754,0,0,1,.962-6.252l-4.219-4.074,5.031-8.3,5.563,1.858a23.8,23.8,0,0,1,5.1-3.743l-.1-5.862,9.423-2.309,2.619,5.245Zm-2.519,13.69a10.408,10.408,0,1,0,12.586,7.632A10.408,10.408,0,0,0,561.957,368.821Z"/><path class="b" d="M561.957,368.821a7.848,7.848,0,0,1,2.546-.405,10.362,10.362,0,0,1,6.6,2.264,10.49,10.49,0,0,1,3.029,3.849,10.658,10.658,0,0,1,.914,5.548,10.67,10.67,0,0,1-2.418,5.717,10.619,10.619,0,0,1-12.286,3.012,10.673,10.673,0,0,1-4.788-3.953,10.663,10.663,0,0,1-1.755-5.343,10.509,10.509,0,0,1,.907-4.813,10.362,10.362,0,0,1,4.806-5.058,7.864,7.864,0,0,1,2.445-.818c.022.07-.9.242-2.337,1.023a10.38,10.38,0,0,0-4.527,5.022,10.169,10.169,0,0,0,.918,9.682,10.17,10.17,0,0,0,4.555,3.718,10.086,10.086,0,0,0,11.614-2.847,10.184,10.184,0,0,0,2.319-5.4,10.173,10.173,0,0,0-3.661-9.009,10.377,10.377,0,0,0-6.336-2.36C562.863,368.622,561.969,368.894,561.957,368.821Z"/></g><g transform="translate(535.582 50.503)"><path class="b" d="M447.6,451.569c.7-5.107-6.505-9.309-11.921-9.745-2.582-.209-5.265.186-7.712-.666-5.3-1.848-7.419-8.7-12.592-10.879-3.867-1.631-8.32-.179-12.069,1.708s-7.454,4.261-11.643,4.53c-3.643.233-7.6-1.118-10.787.661-2.375,1.327-3.62,4.064-5.809,5.678-2.142,1.58-4.936,1.915-7.594,2.059s-5.409.172-7.829,1.28-4.421,3.667-3.919,6.28Z"/></g><g transform="translate(456.582 68.503)"><path class="a" d="M433.249,103.536c.734-5.331-6.79-9.717-12.444-10.173-2.7-.217-5.5.195-8.051-.695-5.534-1.929-7.745-9.079-13.145-11.357-4.037-1.7-8.685-.187-12.6,1.783s-7.782,4.449-12.154,4.729c-3.8.243-7.934-1.167-11.262.691-2.48,1.384-3.778,4.242-6.064,5.927-2.236,1.65-5.153,2-7.927,2.15s-5.647.179-8.173,1.335-4.616,3.828-4.092,6.557Z"/></g><g transform="translate(456.582 68.503)"><path class="c" d="M427.893,269.674c-11-10.2-30.5-9-40.179,2.463-3.816,4.522-6.4,10.44-11.644,13.183-8.038,4.206-17.763-1.1-26.8-.331-10.6.9-19.3,11.656-17.979,22.212.6,4.754,2.851,9.832.616,14.07-2.853,5.409-11.1,5.624-14.569,10.661-3.132,4.547-.691,11.262,3.851,14.4s10.415,3.523,15.931,3.273,11.118-1.02,16.5.2c5.925,1.345,11.045,4.982,16.685,7.243,13.574,5.441,29.465,2.41,42.038-5.057s22.3-18.894,30.78-30.8"/><g class="d"><path class="c" d="M427.893,269.674c-11-10.2-30.5-9-40.179,2.463-3.816,4.522-6.4,10.44-11.644,13.183-8.038,4.206-17.763-1.1-26.8-.331-10.6.9-19.3,11.656-17.979,22.212.6,4.754,2.851,9.832.616,14.07-2.853,5.409-11.1,5.624-14.569,10.661-3.132,4.547-.691,11.262,3.851,14.4s10.415,3.523,15.931,3.273,11.118-1.02,16.5.2c5.925,1.345,11.045,4.982,16.685,7.243,13.574,5.441,29.465,2.41,42.038-5.057s22.3-18.894,30.78-30.8"/></g><path class="e" d="M425.224,283.548c-8.95-8.779-25.6-7.544-33.153,2.462-4.615,6.11-7.258,15.448-14.846,16.474-5.146.7-10.02-3.177-15.2-2.779-6.893.53-11.073,8.932-9.3,15.614s7.654,11.5,13.818,14.626c21.373,10.854,49.855,5.118,65.36-13.163"/></g><g transform="translate(456.582 68.503)"><path class="f" d="M628.938,305.9l-11.571-16.4,15.048-10.672,10.541,21.41-13.323,5.514"/><path class="g" d="M642.33,297.308l8.186,14.772s17.764-3.36,19.543-.777l-28.072,16.9-13.7-22.493Z"/><g class="h"><path class="i" d="M641.1,316.09a1.337,1.337,0,0,0-.005,1.785,1.287,1.287,0,0,0,1.77.021,1.412,1.412,0,0,0-.005-1.891,1.334,1.334,0,0,0-1.843.183"/></g><g class="h"><path class="i" d="M641.987,328.2l-1.292-2.322,27.4-15.336s1.577-.208,1.966.757Z"/></g><path class="j" d="M650.885,311.663c.078.14-.57.615-.979,1.462-.431.836-.421,1.639-.58,1.66-.143.05-.432-.893.082-1.909S650.839,311.52,650.885,311.663Z"/><path class="j" d="M654.563,311.108c.111.114-.342.7-.459,1.565-.142.857.118,1.554-.022,1.63-.116.1-.694-.646-.529-1.713S654.481,310.98,654.563,311.108Z"/><path class="j" d="M658.356,313.625c-.107.105-.71-.465-.81-1.428s.362-1.647.488-1.568c.146.066-.028.72.066,1.509C658.176,312.928,658.484,313.53,658.356,313.625Z"/><path class="j" d="M648.646,308.5c.018.159-.725.349-1.468.868-.754.5-1.2,1.127-1.342,1.053-.139-.052.144-.914,1.028-1.513S648.649,308.356,648.646,308.5Z"/><path class="j" d="M646.94,305.554c.035.056-.455.467-1.411.839a7.339,7.339,0,0,1-1.743.434,7.78,7.78,0,0,1-1.065.058,2.043,2.043,0,0,1-.623-.075.7.7,0,0,1-.5-.692.879.879,0,0,1,.412-.675,2.138,2.138,0,0,1,.571-.244,5.917,5.917,0,0,1,1.054-.227,5.79,5.79,0,0,1,1.809.071,2.737,2.737,0,0,1,1.514.644c-.035.082-.61-.156-1.573-.255a6.542,6.542,0,0,0-1.679.049,6.106,6.106,0,0,0-.957.237c-.344.1-.6.251-.6.429,0,.067.011.089.126.139a1.661,1.661,0,0,0,.457.053,8.6,8.6,0,0,0,1-.022,9.024,9.024,0,0,0,1.673-.3A11.555,11.555,0,0,1,646.94,305.554Z"/><path class="j" d="M646.88,305.858c-.036.051-.6-.277-1.189-1.134a5.362,5.362,0,0,1-.735-1.655A5.463,5.463,0,0,1,644.8,302a1.357,1.357,0,0,1,.47-1.25.764.764,0,0,1,.823.039,2.222,2.222,0,0,1,.455.428,3.667,3.667,0,0,1,.571.946,3.782,3.782,0,0,1,.274,1.814c-.111,1.058-.584,1.566-.624,1.527a13.22,13.22,0,0,0,.23-1.546,3.778,3.778,0,0,0-.35-1.589,3.389,3.389,0,0,0-.515-.8c-.224-.272-.481-.446-.574-.348a.938.938,0,0,0-.214.757,5.385,5.385,0,0,0,.11.971,5.9,5.9,0,0,0,.572,1.567C646.486,305.367,646.941,305.792,646.88,305.858Z"/><path class="j" d="M586.092,247.611l35.936,56.48,19.656-13.363-33.109-68.047"/><path class="k" d="M589,235.218c.147.066-.924,2.358-1.438,5.394-.54,3.032-.3,5.551-.466,5.563a15.754,15.754,0,0,1,1.9-10.957Z"/><path class="k" d="M585.307,235.38c.157.012.007,2.48.41,5.477.383,3,1.163,5.346,1.014,5.4a18.638,18.638,0,0,1-1.424-10.875Z"/></g><g transform="translate(456.582 68.503)"><path class="j" d="M445.945,247.44l-24.655-7.606c-29.737,37.869-27.754,79.476,20.121,104.1l26.562-29.778Z"/></g><g transform="translate(456.582 68.503)"><path class="l" d="M448.346,241.4c-15.778,9.2-23.622,28.6-21.7,47.572,2.108,20.822,15.866,41.12,41.083,46.731L637.26,301.816a51.516,51.516,0,0,0,39.372-64.888h0a51.515,51.515,0,0,0-61.541-35.71Z"/><path class="j" d="M448.346,241.4s.529-.146,1.571-.406l4.632-1.143,17.829-4.347,65.615-15.9,45.322-10.956,25.251-6.1,6.558-1.579,3.362-.64c.563-.1,1.124-.224,1.692-.311l1.719-.156c1.148-.093,2.3-.233,3.457-.287l3.493.025a26.79,26.79,0,0,1,3.5.246l1.757.182.88.1.869.175,3.491.7c1.158.271,2.289.667,3.439,1,.572.178,1.152.334,1.719.531l1.672.68,1.676.682a13.034,13.034,0,0,1,1.653.745l3.235,1.681c1.067.587,2.065,1.3,3.1,1.948.51.34,1.044.646,1.536,1.014l1.453,1.139,1.456,1.142.728.573.675.639A52.069,52.069,0,0,1,677.256,238.3a51.454,51.454,0,0,1-1.519,30.9,52.027,52.027,0,0,1-19.662,25.046,50.477,50.477,0,0,1-12.269,6.064c-4.313,1.513-8.805,2.17-13.174,3.089l-26,5.2-49.681,9.921-87.18,17.387-.044.009-.041-.01a61.384,61.384,0,0,1-12.873-4.571,56.064,56.064,0,0,1-10.76-7.28,56.738,56.738,0,0,1-8.153-9.206,58.633,58.633,0,0,1-5.494-10.182c-.366-.86-.645-1.746-.967-2.606a25.1,25.1,0,0,1-.847-2.6q-.368-1.3-.727-2.583-.274-1.3-.543-2.578a23.8,23.8,0,0,1-.446-2.545q-.171-1.269-.34-2.513c-.091-.831-.122-1.66-.185-2.478a24.269,24.269,0,0,1-.1-2.431,54.433,54.433,0,0,1,2.466-17.347,49.42,49.42,0,0,1,6.022-12.687,40.534,40.534,0,0,1,6.72-7.843c.524-.465,1-.928,1.475-1.316L444.3,244.1l1.169-.891,1.024-.65c1.218-.771,1.848-1.151,1.848-1.151s-.614.419-1.817,1.2l-1.011.66-1.157.9L443,245.227c-.475.392-.942.856-1.461,1.324a40.73,40.73,0,0,0-6.654,7.852,49.376,49.376,0,0,0-5.948,12.658,54.277,54.277,0,0,0-2.406,17.273,24.05,24.05,0,0,0,.1,2.419c.065.813.1,1.637.19,2.464q.171,1.237.344,2.5a23.808,23.808,0,0,0,.449,2.531q.27,1.269.546,2.562l.729,2.567a24.821,24.821,0,0,0,.847,2.579c.322.855.6,1.735.966,2.589a58.425,58.425,0,0,0,5.479,10.107,56.479,56.479,0,0,0,8.11,9.127,55.75,55.75,0,0,0,10.69,7.209,61.075,61.075,0,0,0,12.787,4.521h-.085l87.164-17.467,49.676-9.942,26-5.2c4.383-.922,8.855-1.578,13.109-3.073a49.967,49.967,0,0,0,12.145-6,51.514,51.514,0,0,0,19.467-24.794,50.947,50.947,0,0,0,1.511-30.6,51.575,51.575,0,0,0-15.4-25.283l-.667-.633-.721-.569-1.443-1.131-1.438-1.129c-.487-.365-1.015-.669-1.52-1-1.03-.642-2.017-1.349-3.073-1.932l-3.2-1.667a13.139,13.139,0,0,0-1.637-.739L646,203.668l-1.655-.675c-.562-.2-1.136-.35-1.7-.527-1.139-.327-2.259-.721-3.406-.991l-3.457-.7-.862-.173-.871-.1-1.741-.181a26.638,26.638,0,0,0-3.471-.247l-3.461-.027c-1.147.053-2.288.191-3.426.282l-1.7.152c-.562.086-1.118.207-1.676.308l-3.334.631L608.676,203l-25.248,6.072L538.1,219.962,472.45,235.7l-17.863,4.255-4.65,1.094C448.888,241.292,448.346,241.4,448.346,241.4Z"/></g><g transform="translate(456.582 68.503)"><path class="g" d="M467.727,335.708l-22.356,50.847s105.5-10.176,101-66.57Z"/></g><g transform="translate(456.582 68.503)"><path class="g" d="M528.185,222.163s-50.725-49.226-115.209-28.49l35.37,47.732Z"/></g><g transform="translate(456.582 68.503)"><path class="g" d="M620.8,200.517c21.768,16.057,35.08,78.566,24.591,98.434,61.7-18.053,74.637-71.023,74.637-71.023C675.428,186.411,620.8,200.517,620.8,200.517Z"/></g><g transform="translate(456.582 68.503)"><path class="k" d="M436.006,312.455c.109.1-3.284,4.152-7.576,9.061s-7.862,8.813-7.97,8.718,3.284-4.151,7.578-9.061S435.9,312.361,436.006,312.455Z"/></g><g transform="translate(456.582 68.503)"><path class="j" d="M720.029,227.928s-.121.232-.381.672-.66,1.1-1.166,1.944-1.159,1.912-1.912,3.156l-1.223,2.011-1.532,2.2c-1.094,1.547-2.284,3.285-3.638,5.151q-2.172,2.694-4.707,5.842c-.888,1.012-1.848,2.022-2.817,3.084-.992,1.04-1.937,2.19-3.055,3.231-2.216,2.1-4.5,4.391-7.154,6.5a96.63,96.63,0,0,1-18.475,12.191,92.957,92.957,0,0,1-11.357,4.86c-1.992.731-4.063,1.36-6.091,2.1a61.525,61.525,0,0,1-6.447,1.655c-17.482,3.866-36.756,7.83-56.98,12.03-40.47,8.365-77.127,15.816-103.666,21.181l-31.435,6.317-8.552,1.688-2.227.426c-.5.093-.762.128-.762.128s.252-.07.751-.18l2.217-.476,8.533-1.785,31.4-6.479,103.633-21.33c20.223-4.2,39.5-8.151,56.98-11.988a60.807,60.807,0,0,0,6.383-1.625c2.068-.753,4.117-1.37,6.107-2.1a92.924,92.924,0,0,0,11.317-4.815,96.742,96.742,0,0,0,18.434-12.088c2.655-2.1,4.937-4.37,7.155-6.454,1.12-1.034,2.066-2.177,3.061-3.209.971-1.055,1.934-2.058,2.824-3.062q2.545-3.121,4.73-5.8c1.363-1.853,2.564-3.58,3.669-5.114q.82-1.157,1.549-2.184l1.242-2,1.953-3.126,1.21-1.917C719.877,228.142,720.029,227.928,720.029,227.928Z"/></g><g transform="translate(456.582 68.503)"><path class="j" d="M559.462,317.442a1.012,1.012,0,0,1-.18-.2l-.487-.618-1.835-2.408-1.316-1.749c-.464-.652-.929-1.387-1.449-2.163-1.015-1.568-2.255-3.3-3.387-5.367q-.883-1.53-1.849-3.2c-.636-1.116-1.2-2.33-1.834-3.558-1.308-2.442-2.44-5.176-3.687-8.027a117.913,117.913,0,0,1-8.758-39.343c-.08-3.111-.215-6.067-.066-8.833.055-1.382.048-2.72.151-4s.217-2.507.319-3.68c.149-2.349.536-4.446.79-6.3.142-.923.251-1.786.395-2.572q.245-1.17.45-2.143c.271-1.254.484-2.243.639-2.958l.179-.766a1.074,1.074,0,0,1,.078-.257,1.018,1.018,0,0,1-.026.268c-.034.205-.076.461-.128.777-.132.72-.313,1.714-.543,2.975q-.185.972-.405,2.145c-.129.788-.223,1.651-.351,2.574-.226,1.849-.587,3.943-.712,6.288q-.135,1.755-.284,3.669c-.092,1.277-.075,2.61-.12,3.987-.131,2.757.02,5.7.113,8.8a120.236,120.236,0,0,0,8.723,39.186c1.23,2.844,2.342,5.574,3.63,8.015.625,1.228,1.175,2.443,1.8,3.559l1.814,3.2c1.108,2.07,2.322,3.813,3.312,5.392.507.782.959,1.523,1.41,2.182s.89,1.236,1.276,1.771l1.754,2.464.446.649A1.08,1.08,0,0,1,559.462,317.442Z"/></g><g transform="translate(456.582 68.503)"><path class="m" d="M511.838,264.972,405.514,286.983s-.476,10.383,2.132,10.47c2.185.072,81.236-14.2,106.876-18.836a6.928,6.928,0,0,0,5.3-9.1h0A6.954,6.954,0,0,0,511.838,264.972Z"/></g><g transform="translate(456.582 68.503)"><ellipse class="n" cx="23.624" cy="25.414" rx="23.624" ry="25.414" transform="matrix(0.001, -1, 1, 0.001, 567.832, 278.741)"/><path class="j" d="M618.693,255.188a2.292,2.292,0,0,1-.048-.4c-.021-.287-.05-.672-.087-1.163-.018-.258-.037-.543-.059-.856q-.081-.468-.178-1.019t-.206-1.189c-.093-.419-.236-.856-.363-1.324a22.877,22.877,0,0,0-1.091-3.033,24.252,24.252,0,0,0-8.435-9.9,25.643,25.643,0,0,0-10.419-4.159,23.176,23.176,0,0,0-3.081-.324c-.524-.017-1.053-.065-1.585-.058l-1.61.077-.814.04-.812.116-1.642.233-1.634.388-.825.2-.808.275a25.054,25.054,0,0,0-11.7,7.9,21.965,21.965,0,0,0-.042,28.267,25.054,25.054,0,0,0,11.678,7.935l.807.278.825.2,1.633.392,1.641.238.812.118.814.042,1.61.082c.533.008,1.061-.038,1.586-.054a23.368,23.368,0,0,0,3.081-.315,25.66,25.66,0,0,0,10.431-4.131,24.432,24.432,0,0,0,6.574-6.549,24.125,24.125,0,0,0,1.888-3.332,22.7,22.7,0,0,0,1.1-3.03c.128-.467.274-.9.367-1.323q.113-.633.209-1.188c.066-.366.126-.706.182-1.019q.033-.468.06-.855c.039-.491.069-.875.091-1.162a2.367,2.367,0,0,1,.049-.4,2.26,2.26,0,0,1,0,.4l-.039,1.169q-.017.39-.036.862-.072.473-.158,1.029t-.187,1.2c-.086.425-.225.866-.346,1.34a22.492,22.492,0,0,1-1.068,3.077,24.159,24.159,0,0,1-1.873,3.392,24.58,24.58,0,0,1-6.608,6.692,25.947,25.947,0,0,1-10.568,4.252,23.565,23.565,0,0,1-3.13.334c-.533.018-1.07.067-1.612.06l-1.636-.076-.828-.04-.826-.117-1.671-.237-1.664-.394-.839-.2-.823-.28a25.486,25.486,0,0,1-11.924-8.068,22.44,22.44,0,0,1,.043-28.914,25.486,25.486,0,0,1,11.944-8.033l.824-.277.84-.2,1.665-.39,1.67-.232.827-.114.827-.038,1.637-.071c.542-.006,1.079.044,1.612.064a23.715,23.715,0,0,1,3.129.343A25.928,25.928,0,0,1,608.434,236a24.583,24.583,0,0,1,6.59,6.71,24.113,24.113,0,0,1,1.864,3.4,22.577,22.577,0,0,1,1.059,3.079c.121.475.258.917.343,1.342q.1.641.184,1.2c.056.37.107.714.155,1.029q.018.473.034.863c.015.493.027.88.036,1.169A2.206,2.206,0,0,1,618.693,255.188Z"/></g><g transform="translate(456.582 68.503)"><path class="o" d="M612.745,264.876"/></g><g transform="translate(456.582 68.503)"><path class="k" d="M507.174,194.39c-8.177-.4-12.2,5.762-16.771,7.005s-9.564,1.452-13.953-.329c-5.7-2.313-9.594-7.564-14.584-11.156-10.014-7.206-24.842-6.779-34.424.991-.227,5.449,4.442,9.754,8.952,12.82s17.031,7.463,18.628,12.677c1.2,3.9-7.219,7.182-5.1,10.676,2.032,3.358,9.129,3.135,13,2.469,24.421-4.205,15.857,3.266,23.416,2.573,0,0,15.83-4.03,28.24-6.06"/></g><g transform="translate(456.582 68.503)"><path class="f" d="M589.483,338.172l-7.932-18.435,16.929-7.332,5.889,23.126-14.175,2.642"/><path class="g" d="M604.362,332.532l4.957,16.145s18.074.384,19.281,3.278L597.642,362.69l-8.755-24.839Z"/><g class="h"><path class="i" d="M599.281,350.655a1.336,1.336,0,0,0-.374,1.745,1.285,1.285,0,0,0,1.727.386,1.41,1.41,0,0,0,.386-1.851,1.335,1.335,0,0,0-1.841-.2"/></g><g class="h"><path class="i" d="M597.642,362.69l-.785-2.538,29.976-9.343s1.586.122,1.767,1.146Z"/></g><path class="j" d="M609.766,348.345c.047.153-.685.484-1.26,1.228-.595.729-.751,1.517-.911,1.505-.15.019-.238-.963.475-1.852S609.75,348.2,609.766,348.345Z"/><path class="j" d="M613.479,348.562c.085.135-.481.619-.772,1.436-.316.809-.206,1.545-.359,1.591-.134.073-.545-.776-.163-1.785S613.425,348.419,613.479,348.562Z"/><path class="j" d="M616.67,351.809c-.126.08-.6-.6-.5-1.565s.694-1.537.8-1.433c.129.1-.176.7-.247,1.489C616.637,351.09,616.815,351.742,616.67,351.809Z"/><path class="j" d="M608.228,344.791c-.016.16-.781.192-1.616.546-.841.338-1.407.855-1.531.753-.125-.079.33-.864,1.319-1.268S608.261,344.647,608.228,344.791Z"/><path class="j" d="M607.168,341.553a3.081,3.081,0,0,1-1.553.529,7.352,7.352,0,0,1-1.795.064,7.741,7.741,0,0,1-1.054-.163,2.016,2.016,0,0,1-.595-.2.7.7,0,0,1-.348-.78.877.877,0,0,1,.542-.575,2.107,2.107,0,0,1,.61-.121,5.891,5.891,0,0,1,1.078,0,5.782,5.782,0,0,1,1.755.443c.949.416,1.39.9,1.349.943-.052.073-.565-.279-1.486-.574a6.554,6.554,0,0,0-1.653-.3,6.111,6.111,0,0,0-.986.034c-.358.028-.637.122-.671.3-.011.067-.007.09.094.162a1.67,1.67,0,0,0,.437.147,8.605,8.605,0,0,0,.981.184,9.127,9.127,0,0,0,1.7.055A11.26,11.26,0,0,1,607.168,341.553Z"/><path class="j" d="M607.046,341.838c-.045.042-.533-.4-.928-1.356a5.335,5.335,0,0,1-.377-1.771,5.4,5.4,0,0,1,.068-1.078,1.359,1.359,0,0,1,.718-1.126.767.767,0,0,1,.8.208,2.261,2.261,0,0,1,.356.513,3.673,3.673,0,0,1,.363,1.044,3.776,3.776,0,0,1-.107,1.831c-.327,1.012-.9,1.412-.925,1.365a13.467,13.467,0,0,0,.544-1.465,3.757,3.757,0,0,0-.015-1.627,3.37,3.37,0,0,0-.339-.886c-.162-.312-.378-.534-.489-.458-.155.051-.331.389-.366.7a5.42,5.42,0,0,0-.093.973,5.907,5.907,0,0,0,.236,1.652C606.763,341.276,607.12,341.786,607.046,341.838Z"/><path class="j" d="M508.51,195.008s-14.667,29.053-4.809,35.861,55.907,41.416,55.907,41.416L583.1,334.972l21.993-9.012-18.331-73.42-46.271-41.56Z"/><path class="k" d="M565.014,260.761c.13.1-1.391,2.116-2.521,4.98-1.156,2.855-1.446,5.368-1.606,5.347a15.753,15.753,0,0,1,4.127-10.327Z"/><path class="k" d="M561.368,260.156c.152.044-.505,2.428-.73,5.443-.246,3.015.033,5.472-.123,5.491a18.615,18.615,0,0,1,.853-10.934Z"/><path class="k" d="M585.321,334.06a1.788,1.788,0,0,1-.145-.311c-.094-.233-.219-.542-.379-.935l-1.414-3.625c-1.216-3.161-2.961-7.758-5.085-13.5s-4.633-12.627-7.259-20.406q-.984-2.918-1.95-6.011a64.514,64.514,0,0,0-2.084-6.252c-1.67-4.165-3.688-8.393-5.88-12.673l.061.077c-2.466-2.094-5.08-4.286-7.754-6.486-2.091-1.713-4.163-3.4-6.253-5l-6.2-4.705c-4.059-3.09-7.984-6.054-11.806-8.762-3.807-2.728-7.579-5.093-11.02-7.461a65.081,65.081,0,0,1-9.078-7.251,22.285,22.285,0,0,1-3.215-3.942,14.454,14.454,0,0,1-1.757-4.187,17.136,17.136,0,0,1-.091-7.222,25.916,25.916,0,0,1,1.276-4.392c.179-.491.35-.852.452-1.1a2.432,2.432,0,0,1,.174-.366,2.191,2.191,0,0,1-.125.386c-.085.254-.24.621-.4,1.116a28.363,28.363,0,0,0-1.175,4.393,17.107,17.107,0,0,0,.175,7.114,14.237,14.237,0,0,0,1.755,4.084,22.147,22.147,0,0,0,3.194,3.856,65.5,65.5,0,0,0,9.062,7.154c3.438,2.344,7.229,4.7,11.053,7.426,3.837,2.7,7.774,5.663,11.838,8.748l6.2,4.7c2.1,1.6,4.176,3.29,6.271,5.006,2.677,2.2,5.291,4.4,7.758,6.495l.039.033.023.044c2.2,4.3,4.21,8.533,5.883,12.73a64.648,64.648,0,0,1,2.081,6.294q.949,3.087,1.927,6.006c2.6,7.78,5.078,14.673,7.148,20.433l4.937,13.553c.57,1.571,1.016,2.8,1.328,3.657l.335.951A1.839,1.839,0,0,1,585.321,334.06Z"/></g><g transform="translate(456.582 68.503)"><path class="j" d="M526.6,204.3l28.352,4.021,14.544,3.691-19.906,7.143Z"/></g><g transform="translate(456.582 68.503)"><path class="j" d="M491.879,202.25c.025.026-.184.266-.587.681a20.192,20.192,0,0,1-1.818,1.635,28.78,28.78,0,0,1-14.734,6.154,20.077,20.077,0,0,1-2.441.143,2.97,2.97,0,0,1-.9-.061c0-.089,1.269-.135,3.288-.447a32.753,32.753,0,0,0,14.558-6.081C490.89,203.058,491.818,202.186,491.879,202.25Z"/></g><g transform="translate(456.582 68.503)"><path class="g" d="M512.237,160.729l-5.465,41.117s18.183-1.183,31.007,3.074,20.7,4.14,20.7,4.14l-2.68-25.583,9.567-20.958,4.211,24.549,19.659,20.241,12.809-2.9-13.275-22.244-9.219-45.317-.011-.052a16.918,16.918,0,0,0-5.8-9.622l-.367-.305-19.3-10.757-6.477.129a101.681,101.681,0,0,0-16.326,1.674,16.52,16.52,0,0,0-8.829,4.733h0a20.468,20.468,0,0,0-4.5,8.413Z"/><path class="j" d="M573.546,143.535a7.24,7.24,0,0,1-.473,1.321l-1.465,3.525c-1.258,2.967-3.027,7.052-5.007,11.552-1.98,4.447-3.772,8.468-5.124,11.5l-1.59,3.469a10.171,10.171,0,0,1-.626,1.254,5.886,5.886,0,0,1,.439-1.333c.326-.842.818-2.05,1.439-3.537,1.244-2.974,3.005-7.063,4.986-11.565s3.8-8.563,5.146-11.492l1.617-3.458A7.145,7.145,0,0,1,573.546,143.535Z"/><path class="g" d="M519.032,136.373c3.761,10.474,10.987,34.41,14.522,43.632a16.765,16.765,0,0,0,5.238,7.136l39.021,27.587,9.015-11.712-29.23-28.2-15.754-46.688c-2.219-6.237-11.433-9.61-17.154-6.281h0C520.282,124.418,517.309,131.573,519.032,136.373Z"/><path class="j" d="M542.527,130.067s.115.271.308.807q.294.837.834,2.374l3.112,9.048,11.028,32.454-.056-.089,29.255,28.168.167.161-.142.184-6.481,8.422-2.533,3.291-.154.2-.2-.148-29.937-21.567-6.694-4.83-1.614-1.165a13.084,13.084,0,0,1-1.551-1.228,15.07,15.07,0,0,1-2.486-2.966,17.148,17.148,0,0,1-1.63-3.352l-1.286-3.318c-.824-2.175-1.6-4.266-2.319-6.27-2.879-8.01-4.989-14.547-6.427-19.063-.7-2.247-1.241-4-1.617-5.209-.172-.582-.306-1.033-.4-1.359-.088-.307-.12-.468-.12-.468s.065.151.169.452c.108.323.258.769.45,1.344.4,1.2.972,2.945,1.708,5.179,1.495,4.5,3.658,11.014,6.578,19q1.092,3,2.348,6.251.636,1.623,1.3,3.309a16.77,16.77,0,0,0,1.606,3.273,14.656,14.656,0,0,0,2.425,2.873,12.924,12.924,0,0,0,1.523,1.2l1.617,1.159,6.706,4.811,29.958,21.524-.358.052,2.533-3.29c2.22-2.885,4.413-5.733,6.483-8.421l.025.344-29.2-28.221-.039-.038-.017-.051-10.851-32.513c-1.287-3.9-2.3-6.971-3-9.087q-.5-1.55-.772-2.4C542.6,130.353,542.527,130.067,542.527,130.067Z"/><path class="j" d="M538.8,124.369c-.063.064-.715-.623-1.986-1.41a11.283,11.283,0,0,0-11.085-.532c-1.34.661-2.055,1.282-2.111,1.212a5.733,5.733,0,0,1,1.939-1.537,10.724,10.724,0,0,1,11.459.55A5.719,5.719,0,0,1,538.8,124.369Z"/><path class="j" d="M589.621,182.738c-.016.157-1.846-.034-4,.5-2.162.51-3.7,1.518-3.787,1.384a8.723,8.723,0,0,1,7.788-1.886Z"/><path class="n" d="M524.129,152.129a1.442,1.442,0,0,1-.389.1,10.525,10.525,0,0,1-1.081.165,10.647,10.647,0,0,1-3.6-.229,10.409,10.409,0,0,1-3.284-1.5,9.994,9.994,0,0,1-.872-.662c-.2-.168-.3-.265-.291-.277a14.681,14.681,0,0,0,4.5,2.234A15.274,15.274,0,0,0,524.129,152.129Z"/><path class="n" d="M527.171,161.053a17.607,17.607,0,0,0-1.848-1.093,14.1,14.1,0,0,0-4.985-1.274,31.121,31.121,0,0,0-5.185.118l-1.572.145a3.047,3.047,0,0,1-.58.029,3.1,3.1,0,0,1,.57-.109c.369-.057.9-.133,1.567-.211a27,27,0,0,1,5.217-.18,13.312,13.312,0,0,1,5.034,1.35,8.96,8.96,0,0,1,1.344.843A2.552,2.552,0,0,1,527.171,161.053Z"/><g class="p"><path d="M522.131,145.9s1.049,15.643,2.169,22.867,3.454,14.593,8.628,19.758c5.214,5.206,12.625,7.511,19.848,8.966q-3.5-2.636-6.864-5.44c-2.888-2.406-7.135-4.753-9.46-7.707-4.482-5.694-5.451-12.881-7.758-19.75-2.127-6.331-4.436-12.362-6.563-18.694"/></g><path class="n" d="M549.294,152.041a3.263,3.263,0,0,1-.828.413,6.662,6.662,0,0,1-2.495.371c-2.15.029-5-1.012-8.239-.7a17.646,17.646,0,0,0-7.791,2.5,18.737,18.737,0,0,0-2.051,1.44l-.521.442a1.084,1.084,0,0,1-.192.144,12.825,12.825,0,0,1,2.687-2.151,17.221,17.221,0,0,1,7.853-2.58c3.287-.308,6.149.761,8.258.765a6.963,6.963,0,0,0,2.464-.3C549,152.2,549.28,152.012,549.294,152.041Z"/><path class="n" d="M546.388,144.449a.969.969,0,0,1-.193.128l-.575.332c-.5.289-1.239.672-2.171,1.112a39.468,39.468,0,0,1-15.572,3.7c-1.03.027-1.864.018-2.44-.016l-.662-.038a.961.961,0,0,1-.23-.028.99.99,0,0,1,.232-.014h.662c.575.009,1.407-.005,2.433-.05a42.444,42.444,0,0,0,15.515-3.686c.937-.421,1.686-.783,2.195-1.05l.592-.3A.971.971,0,0,1,546.388,144.449Z"/><path class="n" d="M568.54,152.649a1.388,1.388,0,0,1-.271-.063,4.735,4.735,0,0,1-.755-.26,8.605,8.605,0,0,1-2.445-1.613c-1.9-1.62-3.651-4.66-6.6-7.007a22.074,22.074,0,0,0-8.549-4.219,23.526,23.526,0,0,0-2.87-.51l-.791-.073a1.477,1.477,0,0,1-.276-.039,16.444,16.444,0,0,1,3.971.479,21.54,21.54,0,0,1,8.646,4.2,23.943,23.943,0,0,1,3.705,3.82,31.024,31.024,0,0,0,2.862,3.24,8.977,8.977,0,0,0,2.378,1.648C568.169,152.545,568.55,152.618,568.54,152.649Z"/><path class="n" d="M567.365,157.419a6.572,6.572,0,0,1-.834-.24,7.707,7.707,0,0,1-2.024-1.227,21.214,21.214,0,0,1-2.45-2.51,23.4,23.4,0,0,0-2.979-3.043,8.055,8.055,0,0,0-3.844-1.652,14.513,14.513,0,0,0-3.469-.065c-.989.084-1.786.2-2.337.282l-.636.088a.966.966,0,0,1-.224.018.834.834,0,0,1,.217-.059l.629-.127c.548-.1,1.343-.245,2.337-.349a14.165,14.165,0,0,1,3.512.022,8.148,8.148,0,0,1,3.943,1.678,22.5,22.5,0,0,1,3,3.081,22.665,22.665,0,0,0,2.4,2.524,8.222,8.222,0,0,0,1.961,1.264C567.075,157.308,567.37,157.4,567.365,157.419Z"/><path class="n" d="M582.691,154.2a6.662,6.662,0,0,0-2.222-.222,9.419,9.419,0,0,0-2.366.534c-.865.3-1.781.74-2.754,1.179a15.072,15.072,0,0,1-2.843,1.022,7,7,0,0,1-2.469.126,4.564,4.564,0,0,1-1.584-.517,2.368,2.368,0,0,1-.5-.355,5.316,5.316,0,0,0,2.1.726,7.12,7.12,0,0,0,2.407-.167,15.686,15.686,0,0,0,2.8-1.025c.97-.437,1.893-.873,2.777-1.171a9.028,9.028,0,0,1,2.419-.5,5.431,5.431,0,0,1,1.658.155A2.718,2.718,0,0,1,582.691,154.2Z"/><path class="n" d="M584.267,159.638a4.943,4.943,0,0,0-2.756-.967,7.591,7.591,0,0,0-3.138.566,17.784,17.784,0,0,0-3.412,1.986,24.863,24.863,0,0,1-3.389,2.109,8.586,8.586,0,0,1-3.152.845,5.206,5.206,0,0,1-2.175-.322,3.018,3.018,0,0,1-.712-.38,5.459,5.459,0,0,0,2.878.555,8.66,8.66,0,0,0,3.078-.872,25.924,25.924,0,0,0,3.353-2.107,17.428,17.428,0,0,1,3.461-1.993,7.579,7.579,0,0,1,3.217-.534,4.762,4.762,0,0,1,2.108.62A2.851,2.851,0,0,1,584.267,159.638Z"/><g class="p"><path d="M567.637,175.741c2.043-8.188,2.442-17.057,2.734-25.49-.711,2.95-2.521,5.5-3.641,8.324-.536,1.349-1.388,3.787-1.388,3.787l2.262,13.182"/></g></g><g transform="translate(456.582 68.503)"><path class="j" d="M554.437,79.4a4.149,4.149,0,0,1-2.763,3.324c-.823.268-1.72.27-2.53.576a1.9,1.9,0,0,0-1.38,1.942c.136.634.725,1.046,1.206,1.48s.918,1.106.642,1.693c-.3.646-1.23.7-1.711,1.225a1.665,1.665,0,0,0,.113,2.072,7.393,7.393,0,0,0,1.768,1.386,2.9,2.9,0,0,1,1.355,1.729"/><path class="j" d="M584.1,92.39c2.2-4.648.6-10.445-2.831-14.279s-8.345-6-13.287-7.43c-.71-.2-1.591-.352-2.087.2a1.394,1.394,0,0,0,.125,1.778,4.057,4.057,0,0,0,1.657.989,15.439,15.439,0,0,0-6.437-1.756,4.081,4.081,0,0,0-2.265.487,1.857,1.857,0,0,0-.89,2,1.221,1.221,0,0,0,1.862.634,9.467,9.467,0,0,0-6.1,1.431c-1.285.825-2.448,2.238-2.139,3.733a21.908,21.908,0,0,0,1.123,2.433c.525,1.551-.246,3.2-.838,4.73a14.677,14.677,0,0,0-1.048,7.475,8.668,8.668,0,0,0,3.981,6.219"/><path class="f" d="M553.434,131.6a10.235,10.235,0,0,1-7.174-12.785l9.178-31.088a14.686,14.686,0,0,1,18.369-10.289l.72.261a14.781,14.781,0,0,1,9.239,17.79c-1.888,6.916-4.063,14.535-5.412,18.124-2.79,7.43-10.674,5.891-10.674,5.891l-1.937,5.57a10.234,10.234,0,0,1-12.309,6.526Z"/><path class="q" d="M567.732,119.4A18.455,18.455,0,0,1,559,113.116s.357,6.2,8.047,8.222Z"/><path class="j" d="M566.318,81.955c-.61-1.343-1.381-4.267-2.42-5.314s-2.728-.7-4.149-.3a4.8,4.8,0,0,0-3.187,2.983c-1.959,5.378-2.2,10.451-3.666,15.74a1.933,1.933,0,0,0-.087,1.071c.276.9,1.261,1.216,2.191,1.352,2.291.334,3.462-1.336,4.543-3.349a23.765,23.765,0,0,0,.794-3.718,10.118,10.118,0,0,1,5.625-8.3Z"/><path class="j" d="M566.5,82.472"/><path class="f" d="M556.733,92.012c-.107-.1-4.579-3.371-6.261,1.789s3.846,5.785,3.9,5.64S556.733,92.012,556.733,92.012Z"/><path class="q" d="M553.436,96.972c-.017-.024-.11.034-.285.054a.944.944,0,0,1-.676-.205,2.339,2.339,0,0,1-.379-2.331,3.115,3.115,0,0,1,.671-1.2,1.09,1.09,0,0,1,.9-.47.481.481,0,0,1,.45.419c.022.167-.044.259-.02.277s.139-.05.167-.277a.6.6,0,0,0-.1-.39.716.716,0,0,0-.455-.293,1.329,1.329,0,0,0-1.2.494,3.223,3.223,0,0,0-.78,1.337,2.454,2.454,0,0,0,.585,2.656,1.012,1.012,0,0,0,.867.131C553.386,97.094,553.451,96.988,553.436,96.972Z"/><path class="j" d="M564.329,83.114c2.54-1.739,5.159-.881,6.908.137s3.234,2.457,5.031,3.386,4.144,1.25,5.747.014a5.5,5.5,0,0,0,1.821-3.97,10.9,10.9,0,0,0-2.615-7.991c-.495-.567-1.25-1.124-1.937-.817-.85.381-.718,1.614-.444,2.5,0,0-8.679-3.206-13.976-1.357S564.329,83.114,564.329,83.114Z"/><path class="k" d="M567.593,70.584c.047-.008.1.371.367.992a7.9,7.9,0,0,0,1.653,2.31,12.813,12.813,0,0,0,3.461,2.419,10.085,10.085,0,0,0,2.357.793c.852.188,1.76.321,2.681.576a6.228,6.228,0,0,1,2.5,1.266,5.529,5.529,0,0,1,1.512,2.141,4.826,4.826,0,0,1,.315,2.354,4.522,4.522,0,0,1-3.1,3.681,3.3,3.3,0,0,1-.793.129c-.183,0-.278-.007-.279-.023,0-.043.384-.046,1.017-.273a4.441,4.441,0,0,0,2.139-1.762,4.169,4.169,0,0,0,.641-1.795,4.51,4.51,0,0,0-.329-2.156,5.189,5.189,0,0,0-1.415-1.96,5.878,5.878,0,0,0-2.336-1.166c-.883-.245-1.786-.381-2.655-.579a10.257,10.257,0,0,1-2.443-.85,12.49,12.49,0,0,1-3.509-2.572,7.316,7.316,0,0,1-1.587-2.468,4,4,0,0,1-.189-.778C567.583,70.682,567.578,70.587,567.593,70.584Z"/><path class="k" d="M561.86,72.135c.039-.009.126.381.42,1.026a7.65,7.65,0,0,0,1.781,2.373A10.819,10.819,0,0,0,567.89,77.7a36.74,36.74,0,0,0,5.338,1.24,20.6,20.6,0,0,1,5.35,1.537,3.669,3.669,0,0,1,1.747,1.777,3.449,3.449,0,0,1,.12,2.17,4.282,4.282,0,0,1-1.848,2.443,4.526,4.526,0,0,1-.738.394c-.176.073-.274.1-.28.084-.018-.036.351-.2.916-.623a4.262,4.262,0,0,0,1.639-2.374,3.164,3.164,0,0,0-.154-1.947,3.324,3.324,0,0,0-1.6-1.556,21.42,21.42,0,0,0-5.239-1.46,34.1,34.1,0,0,1-5.393-1.291,10.748,10.748,0,0,1-3.909-2.326,7.192,7.192,0,0,1-1.724-2.538,5,5,0,0,1-.232-.8C561.854,72.238,561.845,72.138,561.86,72.135Z"/><path class="j" d="M578.795,99.079a1.231,1.231,0,0,1-1.529.784,1.177,1.177,0,0,1-.834-1.465,1.231,1.231,0,0,1,1.527-.784A1.178,1.178,0,0,1,578.795,99.079Z"/><path class="j" d="M581.008,98.423c-.2.1-.851-.856-2.1-1.287-1.245-.449-2.387-.125-2.469-.325-.043-.091.2-.314.7-.466a3.37,3.37,0,0,1,2.041.073,3.234,3.234,0,0,1,1.608,1.214C581.068,98.06,581.1,98.38,581.008,98.423Z"/><path class="j" d="M566.429,95.519a1.23,1.23,0,0,1-1.528.784,1.177,1.177,0,0,1-.834-1.465,1.23,1.23,0,0,1,1.527-.784A1.177,1.177,0,0,1,566.429,95.519Z"/><path class="j" d="M568.63,94.385c-.2.1-.853-.857-2.1-1.288-1.244-.448-2.386-.124-2.469-.324-.042-.091.2-.314.7-.466a3.379,3.379,0,0,1,2.042.072,3.249,3.249,0,0,1,1.608,1.214C568.688,94.022,568.724,94.341,568.63,94.385Z"/><path class="j" d="M569.947,105.24a8.675,8.675,0,0,1,2.159.339c.331.078.656.119.785-.08a1.714,1.714,0,0,0,.116-1.021q-.048-1.315-.1-2.761a44.166,44.166,0,0,1,.089-7.1,44.358,44.358,0,0,1,.483,7.09q.028,1.446.055,2.761a1.956,1.956,0,0,1-.27,1.312.851.851,0,0,1-.687.284,2.235,2.235,0,0,1-.569-.113A8.665,8.665,0,0,1,569.947,105.24Z"/><g transform="matrix(0.017, 1, -1, 0.017, 569.457, 105.467)"><g transform="translate(0 0)"><path class="j" d="M565.965,109.607c.208-.059-.262-1.418.566-2.785s2.325-1.721,2.269-1.914c-.01-.092-.414-.152-1.03.044a3.572,3.572,0,0,0-1.921,1.521,3.117,3.117,0,0,0-.388,2.305C565.607,109.363,565.875,109.647,565.965,109.607Z" transform="translate(-565.384 -104.822)"/></g></g><g transform="translate(-4.569 140.975) rotate(-14)"><path class="j" d="M570.656,89.594c-.241.3-1.435-.3-2.964-.631-1.522-.363-2.855-.345-2.944-.717-.036-.176.282-.425.875-.588a5.259,5.259,0,0,1,4.5,1.028C570.587,89.09,570.765,89.451,570.656,89.594Z"/></g><g transform="translate(66.958 -192.646) rotate(20)"><path class="j" d="M581.806,94.643c-.319.207-1.078-.387-2.11-.761-1.018-.41-1.98-.474-2.079-.841-.038-.175.2-.412.676-.548a3.25,3.25,0,0,1,3.375,1.291C581.932,94.2,581.951,94.538,581.806,94.643Z"/></g></g><g transform="translate(456.582 68.503)"><path class="k" d="M558.242,205.594a4.941,4.941,0,0,1,3.2,5.639l-6.753,2.672-1.543-6.506Z"/><path class="k" d="M501.5,205.572s13.527-1.4,22.039,1.591,19.072,5.215,23.741,4.168a11.9,11.9,0,0,0,6.37-3.972s-13.481-1.617-19.829-3.67c-4.274-1.382-12.708-10.945-28.327-8.636Z"/><path class="k" d="M555.707,210.473a9.131,9.131,0,0,0-2.18-3.268l.123.154a20.759,20.759,0,0,0-4.2.613,6.959,6.959,0,0,0-3.554,2.2,1.872,1.872,0,0,0-.5,1.259,2.3,2.3,0,0,0,1.063,1.462,12.668,12.668,0,0,0,4.25,2.525,4.308,4.308,0,0,0,4.541-1.17A4.1,4.1,0,0,0,555.707,210.473Z"/><path class="j" d="M545.891,210a1.959,1.959,0,0,1,.429-.768,4.461,4.461,0,0,1,2.029-1.265,7.4,7.4,0,0,1,3.537-.3,5.2,5.2,0,0,1,3.6,2.335,3.644,3.644,0,0,1-.181,4.186,3.306,3.306,0,0,1-1.55,1.131,4.227,4.227,0,0,1-1.66.2,8,8,0,0,1-2.326-.581c-.264-.1-.464-.195-.6-.258a1,1,0,0,1-.2-.108.885.885,0,0,1,.217.069l.61.221a8.571,8.571,0,0,0,2.307.51,3.435,3.435,0,0,0,3.048-1.3,3.485,3.485,0,0,0,.156-3.962,5.04,5.04,0,0,0-3.457-2.254,7.4,7.4,0,0,0-3.459.254,4.539,4.539,0,0,0-2.013,1.179A3.877,3.877,0,0,0,545.891,210Z"/><path class="n" d="M548.753,210.224A4.791,4.791,0,0,0,547,209.006a2.641,2.641,0,0,1,1.753,1.218Z"/><path class="n" d="M550.944,210.323c-.024.02-.316-.312-.733-.659s-.792-.58-.777-.607a2.652,2.652,0,0,1,.844.527A2.624,2.624,0,0,1,550.944,210.323Z"/><path class="n" d="M551.829,214.955c-.018,0-.053-.226-.162-.581a4.906,4.906,0,0,0-1.587-2.365c-.287-.235-.485-.354-.476-.37a2.675,2.675,0,0,1,.522.312,4.4,4.4,0,0,1,1.612,2.4A2.681,2.681,0,0,1,551.829,214.955Z"/><path class="n" d="M554.046,213.249c-.017,0,.01-.223.021-.58a6.864,6.864,0,0,0-.1-1.385,7,7,0,0,0-.385-1.336c-.134-.331-.236-.528-.221-.536s.038.042.091.128a3.85,3.85,0,0,1,.2.379,5.608,5.608,0,0,1,.491,2.754,3.887,3.887,0,0,1-.055.424A.465.465,0,0,1,554.046,213.249Z"/><path class="j" d="M554.056,209.079A11.938,11.938,0,0,0,548.539,213a3.417,3.417,0,0,1,.562-.847,9.117,9.117,0,0,1,3.969-2.82A3.39,3.39,0,0,1,554.056,209.079Z"/><path class="j" d="M550.71,207.995a6.087,6.087,0,0,0-2.579,4.789,2.136,2.136,0,0,1-.044-.843,5.065,5.065,0,0,1,1.9-3.518A2.162,2.162,0,0,1,550.71,207.995Z"/><path class="j" d="M554.418,215c-.036,0-.06-.327-.259-.807a4.544,4.544,0,0,0-1.188-1.617c-1.217-1.025-2.454-1.542-2.4-1.623a3.232,3.232,0,0,1,.794.332,7.955,7.955,0,0,1,1.748,1.136,4.124,4.124,0,0,1,1.188,1.72A1.685,1.685,0,0,1,554.418,215Z"/><path class="j" d="M526.032,207.85a7.254,7.254,0,0,1-1.33-.249c-.847-.188-2.074-.457-3.6-.748a83.494,83.494,0,0,0-12.01-1.407,22.137,22.137,0,0,0-6.562.537,13.6,13.6,0,0,0-4.785,2.365,18.481,18.481,0,0,0-3.4,3.628,4.679,4.679,0,0,1,.658-1.188,13.047,13.047,0,0,1,2.511-2.729,13.468,13.468,0,0,1,4.887-2.539,21.756,21.756,0,0,1,6.708-.6,70.252,70.252,0,0,1,12.065,1.567c1.52.339,2.739.664,3.573.913A6.348,6.348,0,0,1,526.032,207.85Z"/><path class="j" d="M426.589,194.288a5.485,5.485,0,0,1,.686-.537,12.8,12.8,0,0,1,2.193-1.2,14.467,14.467,0,0,1,9.072-.7,13.553,13.553,0,0,1,5.649,2.918,29.188,29.188,0,0,1,4.749,5.541,78.376,78.376,0,0,0,4.782,6.411,57.351,57.351,0,0,0,6.008,6.107c4.426,3.847,9.2,6.965,14.041,8.537a22.2,22.2,0,0,0,7.059,1.173,11.094,11.094,0,0,0,5.955-1.474,14.027,14.027,0,0,0,3.716-3.532c.931-1.213,1.663-2.315,2.256-3.218l1.37-2.08a5.393,5.393,0,0,1,.506-.707,5.525,5.525,0,0,1-.417.763l-1.288,2.134c-.568.921-1.277,2.042-2.2,3.284a14.128,14.128,0,0,1-3.754,3.67,11.436,11.436,0,0,1-6.145,1.592,22.453,22.453,0,0,1-7.212-1.149c-4.933-1.577-9.771-4.722-14.235-8.6a56.957,56.957,0,0,1-6.055-6.17,76.812,76.812,0,0,1-4.785-6.464,29.1,29.1,0,0,0-4.638-5.489,13.235,13.235,0,0,0-5.458-2.889,14.53,14.53,0,0,0-8.9.53A20.2,20.2,0,0,0,426.589,194.288Z"/><path class="n" d="M451.5,185.417s-.251.019-.705.036-1.11.058-1.915.148a24.963,24.963,0,0,0-11.7,4.507c-.659.473-1.177.878-1.52,1.174s-.547.446-.547.446a19.327,19.327,0,0,1,2.023-1.68,24.156,24.156,0,0,1,11.734-4.52A19.192,19.192,0,0,1,451.5,185.417Z"/><path class="n" d="M467.55,195.14s-.261.044-.735.1-1.156.166-1.991.335a27.129,27.129,0,0,0-11.89,5.706c-.654.546-1.168,1.009-1.507,1.344s-.54.508-.54.508a20.948,20.948,0,0,1,2-1.908,26.224,26.224,0,0,1,11.923-5.722A21.059,21.059,0,0,1,467.55,195.14Z"/><path class="n" d="M467.057,217.908s-.069-.27-.139-.768a11.074,11.074,0,0,1-.073-2.125,15.817,15.817,0,0,1,2.055-6.663,32.814,32.814,0,0,1,4.149-5.646c1.193-1.341,1.968-2.136,1.968-2.136s-.177.214-.509.59l-1.4,1.6a34.254,34.254,0,0,0-4.114,5.648,16.076,16.076,0,0,0-2.072,6.617,11.692,11.692,0,0,0,.04,2.116c.019.249.061.44.075.571S467.057,217.908,467.057,217.908Z"/><path class="n" d="M484.657,207.825a4.956,4.956,0,0,1-.262-.768,8.34,8.34,0,0,1-.073-3.894,5.112,5.112,0,0,1,.234-.778c.017.005-.07.3-.161.793a9.488,9.488,0,0,0,.071,3.861C484.576,207.525,484.674,207.82,484.657,207.825Z"/><path class="n" d="M487.741,220.016a12.262,12.262,0,0,1-1.6-1.192,15.739,15.739,0,0,1-4.968-8.124,12.216,12.216,0,0,1-.331-1.97s.042.187.1.527.152.83.3,1.425a16.3,16.3,0,0,0,4.945,8.086c.46.408.85.721,1.13.922S487.741,220.016,487.741,220.016Z"/><path class="n" d="M501.232,206.18s-.513-.23-1.3-.685a25.032,25.032,0,0,1-5.54-4.388c-.622-.66-.964-1.106-.964-1.106s.1.1.276.281l.741.774a28.414,28.414,0,0,0,5.525,4.375l.923.544C501.115,206.1,501.232,206.18,501.232,206.18Z"/><path class="n" d="M510.821,204.852s-.016-.141-.025-.4c-.015-.364-.03-.721-.045-1.075-.045-.907-.14-2.159-.325-3.532s-.425-2.606-.622-3.493l-.241-1.048c-.058-.248-.08-.387-.08-.387s.049.132.12.376.165.6.273,1.043a35.316,35.316,0,0,1,.654,3.495,34.823,34.823,0,0,1,.294,3.543c.014.455.018.823.013,1.078S510.821,204.852,510.821,204.852Z"/><path class="n" d="M523.274,198.042a1.788,1.788,0,0,1-.012.326q-.044.464-.084.886c-.083.747-.233,1.776-.465,2.9s-.5,2.128-.723,2.846q-.132.405-.274.847a2.15,2.15,0,0,1-.118.3,1.861,1.861,0,0,1,.079-.317l.242-.854c.2-.723.46-1.727.692-2.847s.392-2.144.494-2.887c.037-.281.076-.574.117-.881A2.021,2.021,0,0,1,523.274,198.042Z"/><path class="n" d="M531.752,206.271a26.368,26.368,0,0,1,.674-3.243,13.27,13.27,0,0,1-.286,1.632A12.98,12.98,0,0,1,531.752,206.271Z"/><path class="n" d="M545.767,210.924c-.016,0,.039-.258.083-.674s.077-1,.091-1.636c0-.446.005-.925.009-1.642,0-.148,0-.315,0-.5a.682.682,0,0,1,.011-.184,3.645,3.645,0,0,1,.064.679c.021.421.038,1,.023,1.646a13.651,13.651,0,0,1-.123,1.643A3.7,3.7,0,0,1,545.767,210.924Z"/><path class="k" d="M548.458,214.182c-1.082-4.355-5.549-7.151-9.982-7.855s-8.936.217-13.388.779-9.2.714-13.183-1.354a15.323,15.323,0,0,0-1.856,7.646l2.343.052c.483,3.377,3.576,5.957,6.907,6.692s5.528.751,8.654-.615c3.277-1.432,7.524-3.607,10.742-4.739s6.79-1.692,10.03-.625"/><path class="j" d="M514.209,206.791a7.9,7.9,0,0,1-.4.94,19.263,19.263,0,0,0-.823,2.308,15.583,15.583,0,0,0-.487,2.4c-.074.623-.077,1.013-.11,1.014a3.357,3.357,0,0,1-.037-1.027,11.608,11.608,0,0,1,.434-2.441,13.539,13.539,0,0,1,.889-2.313A3.7,3.7,0,0,1,514.209,206.791Z"/><path class="j" d="M512.563,211.5a33.3,33.3,0,0,1-2.47-.274,4.242,4.242,0,0,1,2.47.274Z"/><path class="j" d="M513.057,208.8c-.04.047-.462-.281-1.07-.493s-1.139-.232-1.14-.294a2.344,2.344,0,0,1,2.21.787Z"/><path class="j" d="M517.715,207.365s.238-.007.692,0,1.124.021,1.989,0a39.39,39.39,0,0,0,7.3-.745,31.017,31.017,0,0,1,10.969-.306,14.852,14.852,0,0,1,6.061,2.433,11.062,11.062,0,0,1,4.161,5.65l.066.22-.213-.1a8.534,8.534,0,0,0-3.03-.818,19.327,19.327,0,0,0-7.419,1.326,63.258,63.258,0,0,0-6.568,2.678c-1.026.478-2.027.948-3.012,1.376a17.62,17.62,0,0,1-2.943,1.073,14.676,14.676,0,0,1-5.6.221,10.341,10.341,0,0,1-4.312-1.638,8.319,8.319,0,0,1-2.414-2.513,7.81,7.81,0,0,1-.886-2.022,6.685,6.685,0,0,1-.171-.75,9.342,9.342,0,0,0,1.126,2.729,8.29,8.29,0,0,0,2.41,2.46,10.29,10.29,0,0,0,4.269,1.589,14.614,14.614,0,0,0,5.532-.244,17.434,17.434,0,0,0,2.91-1.073c.981-.43,1.979-.9,3.005-1.382a62.8,62.8,0,0,1,6.583-2.7,19.44,19.44,0,0,1,7.5-1.34,8.688,8.688,0,0,1,3.1.839l-.146.117a10.9,10.9,0,0,0-4.077-5.536,14.7,14.7,0,0,0-5.976-2.411,31.124,31.124,0,0,0-10.912.261,37.945,37.945,0,0,1-7.325.683C518.664,207.444,517.715,207.365,517.715,207.365Z"/><path class="n" d="M517.553,219.539a2.22,2.22,0,0,1-.173-.455,11.7,11.7,0,0,1-.337-1.284,15.921,15.921,0,0,1,.6-8.645,11.373,11.373,0,0,1,.513-1.224,2.221,2.221,0,0,1,.234-.427c.035.016-.261.642-.608,1.7a17.529,17.529,0,0,0-.6,8.569C517.384,218.867,517.59,219.528,517.553,219.539Z"/><path class="n" d="M526.207,213.651a4.554,4.554,0,0,1,.158.842c.086.52.232,1.231.434,2.009.415,1.552.816,2.8.752,2.821a3.45,3.45,0,0,1-.336-.791c-.179-.5-.412-1.193-.617-1.978a13.331,13.331,0,0,1-.379-2.041A2.868,2.868,0,0,1,526.207,213.651Z"/><path class="n" d="M524.974,210.26c.061.005.033.735.109,1.627s.219,1.607.16,1.622a5.811,5.811,0,0,1-.269-3.249Z"/><path class="n" d="M527.12,206.768c.056.025-.211.668-.361,1.5s-.137,1.529-.2,1.533a4.242,4.242,0,0,1,.56-3.036Z"/><path class="n" d="M534.025,208.713a2.726,2.726,0,0,1-.611-2.522c.061.006.016.6.188,1.289S534.077,208.678,534.025,208.713Z"/><path class="n" d="M539.4,214.33a3.7,3.7,0,0,1-.577-.787,15.215,15.215,0,0,1-1.844-4.32,3.78,3.78,0,0,1-.17-.961,5.624,5.624,0,0,1,.311.921c.18.57.448,1.351.8,2.19s.737,1.571,1.025,2.1A5.826,5.826,0,0,1,539.4,214.33Z"/><path class="n" d="M540.9,207.072c.031.05-.143.214-.31.444s-.273.444-.33.429-.033-.287.162-.552S540.873,207.024,540.9,207.072Z"/><path class="n" d="M548.8,214.521s-.1-.085-.287-.255a8.077,8.077,0,0,0-.873-.664,9.19,9.19,0,0,0-3.773-1.337,13.8,13.8,0,0,0-5.9.646,64.741,64.741,0,0,0-6.785,2.8,22.034,22.034,0,0,1-7.048,2.03,17.156,17.156,0,0,1-5.965-.52,16.643,16.643,0,0,1-3.757-1.5c-.421-.229-.737-.423-.946-.565s-.32-.212-.32-.212.116.064.331.195.532.323.954.546a17.428,17.428,0,0,0,9.7,1.956,22.1,22.1,0,0,0,7.015-2.029,63.346,63.346,0,0,1,6.8-2.8,13.812,13.812,0,0,1,5.941-.627,9.094,9.094,0,0,1,3.785,1.376A6.185,6.185,0,0,1,548.8,214.521Z"/><path class="n" d="M532.131,209.812s-.249.115-.707.307-1.125.455-1.965.744a20.71,20.71,0,0,1-6.816,1.129,25.441,25.441,0,0,1-6.822-1.148c-1.7-.5-2.737-.866-2.737-.866s.266.068.741.21l2.016.585a26.315,26.315,0,0,0,6.8,1.115,21.269,21.269,0,0,0,6.792-1.1c.841-.279,1.516-.52,1.973-.711S532.131,209.812,532.131,209.812Z"/><path class="n" d="M542.276,208.749s-.086-.051-.244-.156-.394-.251-.707-.427a10.027,10.027,0,0,0-2.861-.987,15.846,15.846,0,0,0-4.489-.143c-1.691.163-3.523.548-5.453.907a29.548,29.548,0,0,1-10.017.274,40.751,40.751,0,0,1-4.1-.747l1.1.2c.707.13,1.732.311,3.007.473a30.066,30.066,0,0,0,9.989-.3c1.928-.359,3.764-.742,5.462-.9a15.719,15.719,0,0,1,4.513.167,9.8,9.8,0,0,1,2.866,1.023A6.7,6.7,0,0,1,542.276,208.749Z"/><path class="j" d="M548.578,214.008A17.394,17.394,0,0,0,545.829,211a11.4,11.4,0,0,0-9.158-2.395,14.622,14.622,0,0,0-4.976,2c-1.449.843-2.743,1.661-3.912,2.208a10.5,10.5,0,0,1-2.89.963,4.934,4.934,0,0,1-.826.081c-.189.005-.288,0-.29-.019a14.791,14.791,0,0,0,3.842-1.355c1.124-.577,2.381-1.417,3.833-2.292a14.536,14.536,0,0,1,5.132-2.1,11.717,11.717,0,0,1,5.537.392,11.375,11.375,0,0,1,3.945,2.235,10.764,10.764,0,0,1,2,2.3A3.43,3.43,0,0,1,548.578,214.008Z"/><path class="j" d="M534.69,208.9a21.309,21.309,0,0,1-12.332.882c.021-.158,2.789.209,6.2-.047C531.959,209.5,534.647,208.747,534.69,208.9Z"/><path class="n" d="M529.742,205.829l-1.127-.478c-.741-.309-1.835-.762-3.268-1.28a41.315,41.315,0,0,0-12.581-2.612,27.14,27.14,0,0,0-8.791,1.139,21.027,21.027,0,0,0-8.723,5.114c-2.6,2.489-4.779,5.64-7.775,8.2a12.939,12.939,0,0,1-5.254,2.793,11.4,11.4,0,0,1-6.1-.362,16.658,16.658,0,0,1-5.365-3A26.534,26.534,0,0,1,466.647,211c-2.4-3.113-4.306-6.4-6.492-9.261a45.78,45.78,0,0,0-6.927-7.492,28.2,28.2,0,0,0-7.536-4.674,21.316,21.316,0,0,0-12.635-1.261,17.644,17.644,0,0,0-3.319,1.114c-.565.283-.861.432-1.094.55l1.085-.569a17.468,17.468,0,0,1,3.319-1.135,21.3,21.3,0,0,1,12.672,1.233,28.2,28.2,0,0,1,7.563,4.676,45.85,45.85,0,0,1,6.949,7.5c2.191,2.869,4.1,6.153,6.5,9.257a26.415,26.415,0,0,0,4.1,4.327,16.533,16.533,0,0,0,5.331,2.979,11.3,11.3,0,0,0,6.044.361,12.861,12.861,0,0,0,5.212-2.771c2.983-2.549,5.164-5.7,7.774-8.195a21.1,21.1,0,0,1,8.765-5.127,27.136,27.136,0,0,1,8.818-1.131,41.089,41.089,0,0,1,12.593,2.648C528.222,205.092,529.742,205.829,529.742,205.829Z"/><path class="n" d="M480.674,208.747a6.359,6.359,0,0,1-1.581-.059,9.78,9.78,0,0,1-3.965-1.641,18.306,18.306,0,0,1-4.424-4.6c-1.4-1.959-2.813-4.207-4.64-6.3a38.812,38.812,0,0,0-11.067-8.8,41.434,41.434,0,0,0-3.914-1.8c-.951-.362-1.478-.561-1.478-.561s.536.173,1.493.524a38.857,38.857,0,0,1,3.933,1.773,38.408,38.408,0,0,1,11.112,8.795,77.016,77.016,0,0,1,4.639,6.313,18.355,18.355,0,0,0,4.388,4.593,9.862,9.862,0,0,0,3.93,1.662,8.2,8.2,0,0,0,1.165.1C480.532,208.743,480.674,208.747,480.674,208.747Z"/><path class="n" d="M526.709,200.3s-.107-.056-.3-.171-.483-.294-.866-.5a29.3,29.3,0,0,0-30.013.935c-.37.226-.641.427-.833.55s-.293.189-.293.189.381-.292,1.1-.773a27.653,27.653,0,0,1,3.2-1.811,28.751,28.751,0,0,1,23.556-.735,27.806,27.806,0,0,1,3.3,1.609C526.31,200.035,526.709,200.3,526.709,200.3Z"/><path class="n" d="M506.385,204.756s-.052-.138-.126-.393-.185-.621-.334-1.071a25.581,25.581,0,0,0-3.29-6.6c-.27-.39-.495-.7-.655-.912s-.238-.336-.238-.336a15.166,15.166,0,0,1,.953,1.205,23.066,23.066,0,0,1,3.3,6.618C506.275,204.178,506.385,204.756,506.385,204.756Z"/><path class="n" d="M517.025,195.468s.068.555.08,1.457a23.12,23.12,0,0,1-1,6.953c-.265.863-.486,1.376-.486,1.376s.032-.136.109-.376c.1-.346.2-.685.306-1.02a25.952,25.952,0,0,0,.994-6.933c0-.35-.005-.7-.007-1.065C517.018,195.608,517.025,195.468,517.025,195.468Z"/><path class="n" d="M493.958,212.428a12.642,12.642,0,0,1-1.169-.742,19.275,19.275,0,0,1-4.693-4.727,12.9,12.9,0,0,1-.733-1.174s.083.1.216.3.327.484.578.829a21.405,21.405,0,0,0,4.675,4.711c.344.252.626.451.825.584S493.958,212.428,493.958,212.428Z"/><path class="n" d="M478.53,209.321a7.363,7.363,0,0,1-.242-1.039,11.484,11.484,0,0,1,.313-5.111,7.42,7.42,0,0,1,.367-1,1.644,1.644,0,0,1-.078.276c-.058.174-.134.429-.218.746a12.756,12.756,0,0,0-.312,5.08c.046.325.09.587.126.767A1.52,1.52,0,0,1,478.53,209.321Z"/><path class="n" d="M478.481,222.278a16.732,16.732,0,0,1-.74-1.622,23.719,23.719,0,0,1-1.69-8.4,17.021,17.021,0,0,1,.055-1.783s.009.171.005.479,0,.753.013,1.3a25.648,25.648,0,0,0,1.685,8.38c.2.513.366.925.491,1.206S478.481,222.278,478.481,222.278Z"/><path class="n" d="M490.232,201.446a6.322,6.322,0,0,0,.183.781,6.6,6.6,0,0,0,.369.712,1.657,1.657,0,0,1-.552-1.493Z"/><path class="n" d="M470.712,197.708s-.229.134-.65.358-1.025.561-1.755,1a35.2,35.2,0,0,0-9.842,8.873c-.515.68-.916,1.244-1.178,1.642s-.424.609-.424.609a26.571,26.571,0,0,1,1.543-2.295,33.735,33.735,0,0,1,9.863-8.893A26.556,26.556,0,0,1,470.712,197.708Z"/><path class="n" d="M458.681,187.682s-.221.061-.625.153-.985.233-1.7.43a35.3,35.3,0,0,0-10.447,4.819c-.613.415-1.1.763-1.43,1.013s-.522.375-.522.375.693-.6,1.91-1.449a33.322,33.322,0,0,1,10.47-4.829C457.773,187.819,458.681,187.682,458.681,187.682Z"/><path class="n" d="M540.286,205.3a3.829,3.829,0,1,1-.2.6A1.92,1.92,0,0,1,540.286,205.3Z"/></g><g transform="translate(456.582 68.503)"><path class="f" d="M585.7,204.85s4.514.936,6.44,1.363c.624.139,1.268.044,1.9.151a23.581,23.581,0,0,0,8.346-.15c1.915-.705,1.994,1.74-.069,2.79a10.316,10.316,0,0,1-3.328,1.164l4.965,3.994a1.3,1.3,0,0,1,.474.831l1.271,8.8a1.5,1.5,0,0,1-.973,1.738.745.745,0,0,1-.95-.344l.14,1.183a1.553,1.553,0,0,1-3.059.518c0-.025-.009-.049-.013-.074l-1.745.986s-1.159,1.2-2.409-.466c-1.032-1.38-4.129-6.859-4.129-6.859s-13.183-5.553-12.972-7.771Z"/><path class="q" d="M600.858,226.887a13.158,13.158,0,0,1-.355-2.129c-.2-1.3-.578-3.13-.842-5.127-.183-.972-.41-1.955-.629-2.745a1.572,1.572,0,0,0-.709-.814l-.92-.585a8.939,8.939,0,0,1-1.76-1.261,9,9,0,0,1,1.948.945l.953.53a2,2,0,0,1,.933,1.007,24.889,24.889,0,0,1,.7,2.831c.269,2.036.578,3.826.694,5.175A6.816,6.816,0,0,1,600.858,226.887Z"/><path class="q" d="M603.777,225.186c-.2.037-.532-3.158-1.344-6.975a6.076,6.076,0,0,0-.847-2.477,15.153,15.153,0,0,0-1.616-1.524,8.306,8.306,0,0,0-1.222-.859c-.307-.168-.5-.212-.494-.254s.218-.053.575.068a5.759,5.759,0,0,1,1.363.751,12.219,12.219,0,0,1,1.75,1.5,5.973,5.973,0,0,1,1,2.686,39.844,39.844,0,0,1,.752,5A9.578,9.578,0,0,1,603.777,225.186Z"/><path class="q" d="M593,216.856a6.955,6.955,0,0,1,1.725.815l.84.464a3.03,3.03,0,0,1,.948.69,2.891,2.891,0,0,1,.556,1.167c.127.408.256.823.388,1.25a40.489,40.489,0,0,1,1.65,6.283,40.629,40.629,0,0,1-2.144-6.117c-.128-.426-.253-.84-.376-1.248a2.579,2.579,0,0,0-.443-1.029,2.782,2.782,0,0,0-.8-.625l-.807-.519A6.987,6.987,0,0,1,593,216.856Z"/><path class="q" d="M593.346,207.352c.069-.2,1.929.526,4.011,1.741,2.1,1.189,3.629,2.469,3.522,2.594-.081.094-1.693-.962-3.782-2.143l-2.661-1.525A5.934,5.934,0,0,1,593.346,207.352Z"/></g></g></svg>