<svg xmlns="http://www.w3.org/2000/svg" width="503.193" height="331.5" viewBox="0 0 503.193 331.5"><defs><style>.a{fill:#ebebeb;}.b{fill:#f5f5f5;}.c{fill:#fafafa;}.d,.n{opacity:0.2;}.e{fill:#e8505b;}.f{opacity:0.4;}.g{fill:#263238;}.h{fill:#ffbe9d;}.i,.o{fill:#fff;}.j{fill:#eb996e;}.k{fill:#455a64;}.l{fill:#3f59b8;}.m{opacity:0.7;}.o{opacity:0.5;}</style></defs><g transform="translate(-0.029 -0.011)"><g transform="translate(0.029 0.011)"><path class="a" d="M105.354,85.19l.488.872A5.894,5.894,0,0,0,108.2,88.4l.872.48-.872.48a5.859,5.859,0,0,0-2.354,2.346l-.488.872-.488-.872a5.86,5.86,0,0,0-2.354-2.346l-.872-.48.872-.48a5.894,5.894,0,0,0,2.354-2.337Z" transform="translate(-13.04 -10.918)"/><path class="a" d="M521.164,213.7l.488.872a5.859,5.859,0,0,0,2.354,2.346l.872.48-.872.48a5.894,5.894,0,0,0-2.354,2.337l-.488.872-.488-.872a5.894,5.894,0,0,0-2.354-2.337l-.872-.48.872-.48a5.859,5.859,0,0,0,2.354-2.346Z" transform="translate(-66.287 -27.374)"/><path class="a" d="M461.713,344.51l.872,1.517a10.054,10.054,0,0,0,4.037,4.037l1.517.828-1.517.872a10.028,10.028,0,0,0-4.037,4.028l-.872,1.526-.828-1.526a10.088,10.088,0,0,0-4.037-4.028l-1.517-.872,1.517-.828a10.106,10.106,0,0,0,4.037-4.037Z" transform="translate(-58.332 -44.125)"/><path class="a" d="M198.914,371.27l.488.872a5.92,5.92,0,0,0,2.363,2.337l.872.48-.872.48a5.92,5.92,0,0,0-2.363,2.337l-.488.872-.48-.872a5.973,5.973,0,0,0-2.363-2.337l-.872-.48.872-.48a5.972,5.972,0,0,0,2.363-2.337Z" transform="translate(-25.021 -47.552)"/><circle class="a" cx="37.18" cy="37.18" r="37.18" transform="translate(23.805 121.749)"/><circle class="b" cx="6.069" cy="6.069" r="6.069" transform="translate(44.017 164.466)"/><path class="b" d="M53.536,175.008a3.488,3.488,0,1,1-3.488-3.488A3.488,3.488,0,0,1,53.536,175.008Z" transform="translate(-5.987 -21.973)"/><path class="b" d="M24.941,184.081c.166.645-31.826,31.346-23.543,37.886s42.9-10.237,72.467-34.093,56.589-52.884,49.2-60.557-44.347,15.05-44.347,15.05l4.412,2.782s22.348-14.335,29.411-8.772-13.079,27.3-41.513,48.053-55.909,35.331-60.164,29.646S26.72,189.418,26.72,189.418Z" transform="translate(-0.029 -16.11)"/><path class="c" d="M502.884,5.233c-4.743-2.755-10.873-.314-15.128,3.139s-7.848,7.961-12.9,10.08c-3.226,1.352-6.915,1.657-9.766,3.671-4.647,3.279-5.467,9.888-4.665,15.521s2.781,11.222,2.093,16.863c-.514,4.142-2.45,8.283-1.4,12.321,1.474,5.659,7.978,8.353,11.143,13.262,2.276,3.488,2.895,8.283,6.287,10.76,3.932,2.869,9.4,1.195,14.256,1.631,5.964.532,11.082,4.36,16.759,6.3a27.527,27.527,0,0,0,26.786-5.589c3.6-3.279,6.261-7.481,9.8-10.83,3.034-2.86,6.714-5.092,9.2-8.449s3.488-7.255,4.508-11.161c1.5-5.711,3.017-11.64,1.918-17.439-1.744-9.251-9.644-15.991-13.751-24.467-1.6-3.3-2.781-7.08-5.746-9.234-3.148-2.293-7.412-2.1-11.1-3.34-5.293-1.779-9.243-6.522-14.7-7.891a13.219,13.219,0,0,0-13.611,4.857" transform="translate(-58.949 -0.011)"/><circle class="a" cx="40.361" cy="40.361" r="40.361" transform="translate(403.531 22.315) rotate(-14.452)"/><path class="b" d="M502.7,63.209a6.574,6.574,0,1,1-1.116-9.225,6.575,6.575,0,0,1,1.116,9.225Z" transform="translate(-62.894 -6.742)"/><path class="b" d="M508.429,40.152a3.819,3.819,0,1,1,.792-2.82A3.819,3.819,0,0,1,508.429,40.152Z" transform="translate(-64.258 -4.359)"/><circle class="b" cx="27.318" cy="27.318" r="27.318" transform="translate(419.706 240.607) rotate(-45)"/><path class="a" d="M530,265.631a4.456,4.456,0,1,1,1.234,3.185A4.456,4.456,0,0,1,530,265.631Z" transform="translate(-67.894 -33.467)"/><path class="a" d="M536.88,280.8a2.616,2.616,0,1,1,2.529,2.659A2.616,2.616,0,0,1,536.88,280.8Z" transform="translate(-68.775 -35.638)"/><path class="a" d="M449.121,186.25l.82,1.526a10.219,10.219,0,0,0,4.037,4.037l1.517.828-1.517.872a10.219,10.219,0,0,0-4.037,4.037l-.828,1.517-.828-1.517a10.22,10.22,0,0,0-4.037-4.037l-1.517-.872,1.517-.828a10.219,10.219,0,0,0,4.037-4.037Z" transform="translate(-56.718 -23.859)"/></g><g transform="translate(92.088 44.07)"><path class="d" d="M337.14,239.073,374.128,214.1l-10.245,10.838" transform="translate(-135.257 -71.485)"/><path class="a" d="M419.039,101.959c-9.591-26.516-34.642-46.8-62.588-50.712S298.9,59.966,282.336,82.8c-9.679,13.376-14.823,29.393-21.581,44.469s-15.826,30.126-30.3,38.087c-28.975,15.939-67.7-2.005-97.074,13.175-20.055,10.367-30.344,35.035-27.222,57.391s17.857,41.967,36.412,54.8,40.711,19.566,62.92,23.656c35.061,6.47,71.8,6.705,105.845-3.88s65.213-32.715,82.669-63.809c13.69-24.371,24.868-48.315,29.219-75.938,3.348-21.206,2.441-48.742-4.2-68.8" transform="translate(-105.608 -50.541)"/></g><g transform="translate(142.253 71.764)"><rect class="e" width="60.731" height="107.502" rx="23.72" transform="matrix(0.897, -0.442, 0.442, 0.897, 31.629, 73.397)"/><rect class="f" width="60.731" height="107.502" rx="23.72" transform="matrix(0.897, -0.442, 0.442, 0.897, 31.631, 73.199)"/><path class="g" d="M307.864,358.349a3.137,3.137,0,0,1-.654.349l-2.005.872c-.872.375-2.014.759-3.34,1.247l-2.18.645a25.216,25.216,0,0,1-2.52.645,53.947,53.947,0,0,1-13.28,1.36,49.453,49.453,0,0,1-26.586-8,45.97,45.97,0,0,1-8.475-7.35,46.8,46.8,0,0,1-11.143-21.868,42.141,42.141,0,0,1-.6-13.4,37.72,37.72,0,0,1,4.255-13.3,41.931,41.931,0,0,1,8.99-11.335,39.865,39.865,0,0,1,12.748-7.743,35.9,35.9,0,0,1,14.823-2.093,24.667,24.667,0,0,1,7.211,1.665,16.366,16.366,0,0,1,6.06,4.15,13.829,13.829,0,0,1,3.313,6.452,10.769,10.769,0,0,1-.915,7.08,11.754,11.754,0,0,1-2.023,2.912,14.73,14.73,0,0,1-2.616,2.267,22.27,22.27,0,0,1-6.051,2.921A36.369,36.369,0,0,1,242.52,289.7a32.758,32.758,0,0,1-3.566-8.719,36.831,36.831,0,0,1,1-21.485,34.19,34.19,0,0,1,3.81-7.525c.549-.793,1.029-1.36,1.334-1.744a2.913,2.913,0,0,1,.488-.558,3.088,3.088,0,0,1-.384.645c-.262.419-.7,1-1.212,1.814a36.439,36.439,0,0,0-5.406,20.534,35.7,35.7,0,0,0,1.212,8.1,31.391,31.391,0,0,0,3.549,8.44,34.652,34.652,0,0,0,15.634,13.585,35.4,35.4,0,0,0,11.239,2.973,32.793,32.793,0,0,0,12.207-1.142,21.12,21.12,0,0,0,5.694-2.764,14.153,14.153,0,0,0,2.407-2.093,10.376,10.376,0,0,0,1.8-2.616,9.5,9.5,0,0,0,.793-6.243,12.5,12.5,0,0,0-3.017-5.816,14.936,14.936,0,0,0-5.572-3.8,23.394,23.394,0,0,0-6.819-1.561,34.625,34.625,0,0,0-14.213,2.014,40.24,40.24,0,0,0-21.04,18.45,36.055,36.055,0,0,0-4.124,12.87,40.6,40.6,0,0,0,.532,12.983,45.751,45.751,0,0,0,10.751,21.363,45.115,45.115,0,0,0,8.275,7.185,50.493,50.493,0,0,0,8.972,4.682,54.719,54.719,0,0,0,8.859,2.546,55.473,55.473,0,0,0,21.336-.235c.872-.166,1.744-.349,2.511-.567l2.18-.584c1.325-.445,2.468-.785,3.366-1.116l2.04-.776A3.119,3.119,0,0,1,307.864,358.349Z" transform="translate(-172.573 -103.734)"/><path class="g" d="M253.242,232.09c0,.07-1.011.48-2.616,1.29a34.154,34.154,0,0,0-5.868,3.793,33.629,33.629,0,0,0-4.944,4.935c-1.134,1.4-1.744,2.328-1.814,2.285a2.765,2.765,0,0,1,.357-.7,18.418,18.418,0,0,1,1.2-1.744,28.338,28.338,0,0,1,10.925-8.824,17.736,17.736,0,0,1,2-.793,2.677,2.677,0,0,1,.759-.244Z" transform="translate(-172.726 -101.482)"/><path class="g" d="M246.313,245.38a1.832,1.832,0,0,1,.584-.619,3.008,3.008,0,0,1,2.258-.488,3.27,3.27,0,0,1,2.494,2.3,3.488,3.488,0,0,1-1.5,3.837,3.148,3.148,0,0,1-2.2.48,3.619,3.619,0,0,1-1.883-.872,3.113,3.113,0,0,1-.977-3.244,3.427,3.427,0,0,1,1.3-1.91,1.622,1.622,0,0,1,.776-.349c0,.044-.27.148-.663.488a3.331,3.331,0,0,0-1.1,1.849,2.851,2.851,0,0,0,.933,2.851,2.991,2.991,0,0,0,3.558.349,3.13,3.13,0,0,0,1.352-3.348,2.973,2.973,0,0,0-2.162-2.1,3.017,3.017,0,0,0-2.1.323C246.539,245.18,246.347,245.415,246.313,245.38Z" transform="translate(-173.618 -103.036)"/><rect class="e" width="60.731" height="107.502" rx="23.72" transform="matrix(0.897, -0.442, 0.442, 0.897, 31.629, 73.397)"/><rect class="f" width="60.731" height="107.502" rx="23.72" transform="matrix(0.897, -0.442, 0.442, 0.897, 31.631, 73.199)"/><path class="g" d="M307.864,358.349a3.137,3.137,0,0,1-.654.349l-2.005.872c-.872.375-2.014.759-3.34,1.247l-2.18.645a25.216,25.216,0,0,1-2.52.645,53.947,53.947,0,0,1-13.28,1.36,49.453,49.453,0,0,1-26.586-8,45.97,45.97,0,0,1-8.475-7.35,46.8,46.8,0,0,1-11.143-21.868,42.141,42.141,0,0,1-.6-13.4,37.72,37.72,0,0,1,4.255-13.3,41.931,41.931,0,0,1,8.99-11.335,39.865,39.865,0,0,1,12.748-7.743,35.9,35.9,0,0,1,14.823-2.093,24.667,24.667,0,0,1,7.211,1.665,16.366,16.366,0,0,1,6.06,4.15,13.829,13.829,0,0,1,3.313,6.452,10.769,10.769,0,0,1-.915,7.08,11.754,11.754,0,0,1-2.023,2.912,14.73,14.73,0,0,1-2.616,2.267,22.27,22.27,0,0,1-6.051,2.921A36.369,36.369,0,0,1,242.52,289.7a32.758,32.758,0,0,1-3.566-8.719,36.831,36.831,0,0,1,1-21.485,34.19,34.19,0,0,1,3.81-7.525c.549-.793,1.029-1.36,1.334-1.744a2.913,2.913,0,0,1,.488-.558,3.088,3.088,0,0,1-.384.645c-.262.419-.7,1-1.212,1.814a36.439,36.439,0,0,0-5.406,20.534,35.7,35.7,0,0,0,1.212,8.1,31.391,31.391,0,0,0,3.549,8.44,34.652,34.652,0,0,0,15.634,13.585,35.4,35.4,0,0,0,11.239,2.973,32.793,32.793,0,0,0,12.207-1.142,21.12,21.12,0,0,0,5.694-2.764,14.153,14.153,0,0,0,2.407-2.093,10.376,10.376,0,0,0,1.8-2.616,9.5,9.5,0,0,0,.793-6.243,12.5,12.5,0,0,0-3.017-5.816,14.936,14.936,0,0,0-5.572-3.8,23.394,23.394,0,0,0-6.819-1.561,34.625,34.625,0,0,0-14.213,2.014,40.24,40.24,0,0,0-21.04,18.45,36.055,36.055,0,0,0-4.124,12.87,40.6,40.6,0,0,0,.532,12.983,45.751,45.751,0,0,0,10.751,21.363,45.115,45.115,0,0,0,8.275,7.185,50.493,50.493,0,0,0,8.972,4.682,54.719,54.719,0,0,0,8.859,2.546,55.473,55.473,0,0,0,21.336-.235c.872-.166,1.744-.349,2.511-.567l2.18-.584c1.325-.445,2.468-.785,3.366-1.116l2.04-.776A3.119,3.119,0,0,1,307.864,358.349Z" transform="translate(-172.573 -103.734)"/><path class="g" d="M253.242,232.09c0,.07-1.011.48-2.616,1.29a34.154,34.154,0,0,0-5.868,3.793,33.629,33.629,0,0,0-4.944,4.935c-1.134,1.4-1.744,2.328-1.814,2.285a2.765,2.765,0,0,1,.357-.7,18.418,18.418,0,0,1,1.2-1.744,28.338,28.338,0,0,1,10.925-8.824,17.736,17.736,0,0,1,2-.793,2.677,2.677,0,0,1,.759-.244Z" transform="translate(-172.726 -101.482)"/><path class="g" d="M246.313,245.38a1.832,1.832,0,0,1,.584-.619,3.008,3.008,0,0,1,2.258-.488,3.27,3.27,0,0,1,2.494,2.3,3.488,3.488,0,0,1-1.5,3.837,3.148,3.148,0,0,1-2.2.48,3.619,3.619,0,0,1-1.883-.872,3.113,3.113,0,0,1-.977-3.244,3.427,3.427,0,0,1,1.3-1.91,1.622,1.622,0,0,1,.776-.349c0,.044-.27.148-.663.488a3.331,3.331,0,0,0-1.1,1.849,2.851,2.851,0,0,0,.933,2.851,2.991,2.991,0,0,0,3.558.349,3.13,3.13,0,0,0,1.352-3.348,2.973,2.973,0,0,0-2.162-2.1,3.017,3.017,0,0,0-2.1.323C246.539,245.18,246.347,245.415,246.313,245.38Z" transform="translate(-173.618 -103.036)"/><path class="h" d="M252.447,144.5c-1.683-3.34-3.165-6.33-3.165-6.33s6.278-3.854,3.549-10.6-10.35-21.685-10.35-21.685l-14.823-.14L219.2,122.106l15.852,31.216a9.766,9.766,0,0,0,12.914,4.36h0a9.775,9.775,0,0,0,4.482-13.184Z" transform="translate(-170.319 -85.303)"/><path class="g" d="M250.052,119.242a.924.924,0,1,1-.528-.476.924.924,0,0,1,.528.476Z" transform="translate(-174.044 -86.964)"/><path class="g" d="M250.239,117.758c-.061.166-.933-.07-1.857.314s-1.4,1.142-1.552,1.064-.052-.279.148-.628a2.476,2.476,0,0,1,2.712-1.1C250.073,117.522,250.265,117.688,250.239,117.758Z" transform="translate(-173.848 -86.787)"/><path class="g" d="M238.9,124.562a.933.933,0,1,1-.533-.477A.933.933,0,0,1,238.9,124.562Z" transform="translate(-172.614 -87.645)"/><path class="g" d="M238.74,123.246c-.052.157-.924-.07-1.849.314s-1.4,1.142-1.552,1.064-.052-.288.148-.637a2.407,2.407,0,0,1,1.177-.994,2.459,2.459,0,0,1,1.535-.1C238.583,122.976,238.775,123.168,238.74,123.246Z" transform="translate(-172.376 -87.489)"/><path class="g" d="M246.6,129.133a6.576,6.576,0,0,1,1.4-.872c.218-.122.436-.27.4-.462a1.43,1.43,0,0,0-.48-.663l-1.465-1.6c-1.064-1.134-2.014-2.162-2.686-2.93a6.671,6.671,0,0,1-1.029-1.29,6.383,6.383,0,0,1,1.229,1.1c.732.706,1.744,1.744,2.773,2.843l1.491,1.6a1.578,1.578,0,0,1,.541.872.619.619,0,0,1-.227.506,1.787,1.787,0,0,1-.375.227,7.228,7.228,0,0,1-1.57.671Z" transform="translate(-173.333 -87.298)"/><path class="i" d="M244.22,132.805a9.949,9.949,0,0,0,5.083-.575,2.773,2.773,0,0,1-2.616,2.276C244.394,134.645,244.22,132.805,244.22,132.805Z" transform="translate(-173.523 -88.695)"/><path class="j" d="M252.227,142.87a18.2,18.2,0,0,1-10.1,1.212s4.429,3.837,10.873.427Z" transform="translate(-173.255 -90.057)"/><path class="g" d="M210.77,131.472l.122-.07c-.427-1.282-1.02-2.947-1.177-3.793-2.956-15.39,7.848-23.673,10.228-24.807,2.546-1.221,6.348-4.752,16.07-1.1a16.061,16.061,0,0,1,4.15,2.258,16.1,16.1,0,0,1,5.79,4.761,8.327,8.327,0,0,1,1.744,3.183c-.122.07-.732-1.168-2.154-2.825a17.439,17.439,0,0,0-2.782-2.616,13.742,13.742,0,0,1,2.921,7.848l-1.57-.488-10.777,2.1c-.471-2.947-3.13-5.633-4.473-6.827h-.087c2.773,10.734-7.56,16.916-7.56,16.916l8.414,18.485C215.549,147.855,210.77,131.472,210.77,131.472Z" transform="translate(-169.039 -84.579)"/><path class="h" d="M226.836,141.172a3.034,3.034,0,0,1-3.653,1.177,4.473,4.473,0,0,1-2.555-3.1,3.392,3.392,0,0,1,.183-2.468,3.488,3.488,0,0,1,3.034-1.221Z" transform="translate(-170.482 -89.118)"/><path class="j" d="M225.006,140.933c0-.087-.384,0-.916-.087a1.892,1.892,0,0,1-1.134-3.078c.34-.419.68-.567.645-.654s-.445-.078-.959.349a2.2,2.2,0,0,0,1.413,3.828C224.719,141.281,225.05,141,225.006,140.933Z" transform="translate(-170.667 -89.315)"/><path class="g" d="M260.97,110.359s-.044-.166-.1-.506-.157-.872-.27-1.474c-.061-.331-.122-.7-.2-1.1s-.227-.82-.349-1.282a22.479,22.479,0,0,0-1.038-3.165,29.925,29.925,0,0,0-4.464-7.926A31.617,31.617,0,0,0,231.708,82.7a27.9,27.9,0,0,0-4,0c-.68.052-1.36.07-2.049.157l-2.049.349c-.349.07-.7.1-1.038.192l-1.02.279c-.689.2-1.386.366-2.067.593a34.39,34.39,0,0,0-7.848,3.976c-.61.436-1.195.924-1.8,1.4a14.936,14.936,0,0,0-1.744,1.517,35.072,35.072,0,0,0-3.191,3.427,34.5,34.5,0,0,0-2.616,3.976l-.6,1.038-.514,1.107-.506,1.107a8.536,8.536,0,0,0-.453,1.134c-.27.767-.532,1.543-.8,2.319l-.567,2.407A31.128,31.128,0,0,0,201.1,127.38l1.116,2.215,1.317,2.075a8.266,8.266,0,0,0,.706,1l.75.959.75.95.872.872a36.1,36.1,0,0,0,3.488,3.261,35.539,35.539,0,0,0,3.9,2.616,16.809,16.809,0,0,0,2.032,1.081c.7.305,1.378.654,2.084.933a32.183,32.183,0,0,0,4.281,1.308,33.718,33.718,0,0,0,4.307.741c.715.061,1.43.061,2.136.087l1.064.044c.349,0,.7-.044,1.046-.052l2.084-.14c.689-.07,1.36-.218,2.023-.314a29.2,29.2,0,0,0,3.9-.924,31.634,31.634,0,0,0,19.392-17.186,30.257,30.257,0,0,0,2.5-8.719,22.989,22.989,0,0,0,.27-3.322c0-.48.052-.924.052-1.334l-.061-1.107c0-.645-.061-1.142-.078-1.5a3.687,3.687,0,0,1,0-.514,4.8,4.8,0,0,1,.061.506c0,.358.07.872.122,1.508,0,.331.052.7.087,1.107s0,.872,0,1.343a22.844,22.844,0,0,1-.235,3.34,29.871,29.871,0,0,1-2.45,8.815A31.791,31.791,0,0,1,239.11,144.47a27.636,27.636,0,0,1-3.941.942c-.68.113-1.36.262-2.049.331l-2.1.14c-.357,0-.715.061-1.072.061h-1.072a16.58,16.58,0,0,1-2.171-.1,34.546,34.546,0,0,1-8.719-2.058c-.715-.279-1.4-.628-2.11-.942a15.583,15.583,0,0,1-2.067-1.09,34.1,34.1,0,0,1-3.95-2.616,36.02,36.02,0,0,1-3.54-3.3l-.872-.872-.759-.968-.759-.977a7.544,7.544,0,0,1-.715-1.011l-1.343-2.1-1.134-2.25a31.538,31.538,0,0,1-2.346-19.976c.2-.82.392-1.631.584-2.441s.549-1.578.82-2.363a7.639,7.639,0,0,1,.462-1.142l.514-1.125.514-1.116.619-1.064a37.037,37.037,0,0,1,2.668-4.028,35.976,35.976,0,0,1,3.244-3.488,15.414,15.414,0,0,1,1.744-1.543c.619-.471,1.212-.968,1.831-1.4a33.08,33.08,0,0,1,3.924-2.293,33.712,33.712,0,0,1,4.072-1.744c.7-.227,1.4-.392,2.093-.584l1.038-.288c.34-.087.7-.122,1.046-.192l2.084-.349c.689-.087,1.386-.1,2.066-.157a29.945,29.945,0,0,1,4.055,0,31.774,31.774,0,0,1,23.011,12.443,29.951,29.951,0,0,1,4.429,8.013,23.834,23.834,0,0,1,1,3.2c.113.471.244.872.331,1.3s.122.767.174,1.1c.1.637.174,1.134.227,1.491A1.352,1.352,0,0,1,260.97,110.359Z" transform="translate(-167.567 -82.301)"/><path class="g" d="M211.318,111.34a4.36,4.36,0,0,0,.977-6.976c-1.8-1.744-4.918-1.6-6.976-.087a9.67,9.67,0,0,0-3.409,6.513,8.362,8.362,0,0,0,.349,4.3,4.36,4.36,0,0,0,3.2,2.747,4.682,4.682,0,0,0,4.238-1.866,13.952,13.952,0,0,0,2.128-4.36" transform="translate(-168.087 -84.965)"/><path class="k" d="M250.909,97.407c-.061.061-1.2-1.055-3.3-2.529a32.507,32.507,0,0,0-3.863-2.3,35.506,35.506,0,0,0-5.1-2.049,34.38,34.38,0,0,0-5.38-1.134,32.7,32.7,0,0,0-4.491-.235c-2.564.061-4.133.357-4.15.262a6.147,6.147,0,0,1,1.1-.244,10.185,10.185,0,0,1,1.3-.192c.514-.052,1.1-.131,1.744-.148a29.758,29.758,0,0,1,4.552.14,30.43,30.43,0,0,1,10.62,3.226,28.983,28.983,0,0,1,3.854,2.415,15.688,15.688,0,0,1,1.369,1.09c.4.323.724.628.985.872A4.847,4.847,0,0,1,250.909,97.407Z" transform="translate(-171.013 -83.134)"/><path class="k" d="M257.734,103.651c-.131,0-.384-.689-.872-1.465s-1.011-1.334-.933-1.439.785.34,1.317,1.195A2.379,2.379,0,0,1,257.734,103.651Z" transform="translate(-175.021 -84.661)"/><path class="g" d="M202.812,112a6.1,6.1,0,0,1-.558,2.982,12.425,12.425,0,0,0-.811,3.122,3.95,3.95,0,0,0,.27,1.8,2.616,2.616,0,0,0,1.264,1.378,2.668,2.668,0,0,0,1.875.07,5.058,5.058,0,0,0,1.63-.872,7.725,7.725,0,0,0,1.953-2.5,12.442,12.442,0,0,0,.872-2.851,2.223,2.223,0,0,1,0,.82,7.333,7.333,0,0,1-.6,2.162,7.638,7.638,0,0,1-1.979,2.694,5.162,5.162,0,0,1-1.744.977,3.1,3.1,0,0,1-2.2-.087,2.982,2.982,0,0,1-1.482-1.622A4.255,4.255,0,0,1,201,118.1a11.579,11.579,0,0,1,.924-3.191,13.468,13.468,0,0,0,.689-2.084,7.3,7.3,0,0,1,.2-.828Z" transform="translate(-167.986 -86.104)"/><path class="l" d="M219.757,166.414s38.366,70.418,44.74,78.248l51.82-23.072L284.926,167.7a34.738,34.738,0,0,0-27.475-17.291h-.366C244.738,149.638,217.9,162.988,219.757,166.414Z" transform="translate(-170.378 -91.018)"/><path class="g" d="M304.894,195.764l-.174.1-.532.244-2.075.942-7.8,3.418-11.85,5.153L275.3,208.7l-1.892.82a2.52,2.52,0,0,1-2.206-.131,5.293,5.293,0,0,1-1.648-1.491,10.081,10.081,0,0,1-1.134-1.927h0c-2.267-3.7-4.586-7.725-6.827-11.954-1.744-3.331-3.409-6.636-4.918-9.853-.75-1.613-1.474-3.191-2.162-4.77a15.878,15.878,0,0,1-1.378-4.865,6.976,6.976,0,0,1,1.238-4.647,14.117,14.117,0,0,1,3.27-3.148,40.65,40.65,0,0,1,18.2-7.4c1.369-.183,2.441-.27,3.165-.305h.828a1.43,1.43,0,0,1,.288,0h-.288l-.82.078c-.724.061-1.744.174-3.148.384a41.854,41.854,0,0,0-11.1,3.427,40.163,40.163,0,0,0-6.9,4.107,13.742,13.742,0,0,0-3.174,3.069,6.557,6.557,0,0,0-1.142,4.36,15.626,15.626,0,0,0,1.36,4.735c.68,1.561,1.413,3.139,2.171,4.752,1.508,3.209,3.148,6.5,4.909,9.818,2.241,4.22,4.543,8.249,6.8,11.946h0a6.924,6.924,0,0,0,2.616,3.209,2.11,2.11,0,0,0,1.857.122l1.892-.811,7.167-3.061,11.885-5.057,7.848-3.3,2.11-.872.541-.209A.62.62,0,0,0,304.894,195.764Z" transform="translate(-174.661 -92.126)"/><g class="m" transform="translate(87.029 81.787)"><path class="i" d="M267.781,178.515a2.415,2.415,0,1,1-2.415-2.415A2.415,2.415,0,0,1,267.781,178.515Z" transform="translate(-262.95 -176.1)"/></g><g class="m" transform="translate(91.833 92.155)"><path class="i" d="M273.291,190.405a2.415,2.415,0,1,1-2.415-2.415,2.415,2.415,0,0,1,2.415,2.415Z" transform="translate(-268.46 -187.99)"/></g><g class="m" transform="translate(97.658 102.243)"><circle class="i" cx="2.415" cy="2.415" r="2.415"/></g><path class="g" d="M284.339,169.42a8.216,8.216,0,0,1-1.744,1.029c-1.09.576-2.616,1.334-4.36,2.11s-3.3,1.439-4.456,1.883a9.026,9.026,0,0,1-1.91.628,9.1,9.1,0,0,1,1.744-.924l4.4-2,4.36-1.988A9.594,9.594,0,0,1,284.339,169.42Z" transform="translate(-177.063 -93.457)"/><path class="g" d="M291.376,181.12a10.377,10.377,0,0,1-1.988.933l-4.865,2.075-4.822,2.119a11.692,11.692,0,0,1-2.04.8,9.862,9.862,0,0,1,1.91-1.09c1.212-.619,2.9-1.421,4.8-2.241s3.653-1.5,4.935-1.953A10.588,10.588,0,0,1,291.376,181.12Z" transform="translate(-177.805 -94.955)"/><path class="g" d="M296.167,194.14a83.926,83.926,0,0,1-11.327,4.987,83.925,83.925,0,0,1,11.327-4.987Z" transform="translate(-178.724 -96.623)"/><path class="e" d="M232.982,157.908a3.54,3.54,0,0,1,1.386-3.81c2.128-1.744,18.9-5.929,18.9-5.929s4.6-.68,5.79,1.944Z" transform="translate(-172.068 -90.726)"/><path class="d" d="M271.08,225.835l39.586-18.389-2.119-3.636Z" transform="translate(-176.962 -97.861)"/><g class="n" transform="translate(61.812 60.172)"><path d="M258.846,151.31a3.68,3.68,0,0,1-.8.637,13.593,13.593,0,0,1-2.5,1.229c-1.1.419-2.441.8-3.924,1.238s-3.113.872-4.839,1.352a66.736,66.736,0,0,1-8.972,1.744c-1.16.14-2.1.2-2.764.227a4.777,4.777,0,0,1-1.011,0,3.976,3.976,0,0,1,1-.157c.645-.078,1.587-.192,2.738-.366,2.3-.349,5.45-1,8.894-1.9L251.5,154c1.491-.41,2.834-.767,3.932-1.142A20.753,20.753,0,0,0,258.846,151.31Z" transform="translate(-234.03 -151.31)"/></g><g class="n" transform="translate(65.858 61.741)"><path d="M239.734,157.165c-.07.1-.872-.645-1.02-1.953a2.276,2.276,0,0,1,.671-2.1,10.776,10.776,0,0,0-.218,2.058,11.535,11.535,0,0,0,.567,2Z" transform="translate(-238.67 -153.11)"/></g><g class="n" transform="translate(71.266 60.521)"><path d="M246.605,156.323a3.924,3.924,0,0,1-1.491-4.613,19.6,19.6,0,0,0,.384,2.424,17.066,17.066,0,0,0,1.107,2.189Z" transform="translate(-244.872 -151.71)"/></g><g class="n" transform="translate(77.003 58.627)"><path d="M253.839,153.586c-.131,0-.384-1.011-1.046-2.11s-1.421-1.831-1.334-1.927,1.038.506,1.744,1.7A3.558,3.558,0,0,1,253.839,153.586Z" transform="translate(-251.452 -149.539)"/></g><path class="l" d="M313.082,235.53s80.873,15.861,82.617,24.824-1.744,87.918-1.744,87.918l-23.368.471-2.537-68.814L271.08,254.565Z" transform="translate(-176.962 -101.923)"/><path class="e" d="M409.2,343.62l.1,16.148s13.881-2.808,12.748,2.79c-.471,2.311-36.168,12.87-36.718,12.373L384.71,352.1Z" transform="translate(-191.513 -115.764)"/><path class="f" d="M409.2,343.62l.1,16.148s13.881-2.808,12.748,2.79c-.471,2.311-36.168,12.87-36.718,12.373L384.71,352.1Z" transform="translate(-191.513 -115.764)"/><path class="g" d="M421.3,365.741a4.237,4.237,0,0,0-.82-1.29,4.36,4.36,0,0,0-1.482-.968,6.1,6.1,0,0,0-2.328-.375,58.192,58.192,0,0,0-13.646,2.851,66.074,66.074,0,0,0-12.748,5.781c-1.535.916-2.755,1.7-3.592,2.258a9.6,9.6,0,0,1-1.317.872,9.393,9.393,0,0,1,1.212-.977c.811-.61,2.005-1.439,3.531-2.4a60.6,60.6,0,0,1,12.739-5.938,54.111,54.111,0,0,1,13.785-2.738,6.382,6.382,0,0,1,2.424.462,4.411,4.411,0,0,1,1.517,1.081,3.025,3.025,0,0,1,.6,1.011,1.055,1.055,0,0,1,.122.366Z" transform="translate(-191.597 -118.223)"/><path class="g" d="M409.19,348.63a4.011,4.011,0,0,1-.872.514c-.584.3-1.447.715-2.52,1.212-2.145.994-5.144,2.3-8.51,3.61s-6.461,2.363-8.719,3.078c-1.125.357-2.049.637-2.686.8a4.531,4.531,0,0,1-1,.235,4.1,4.1,0,0,1,.95-.4l2.616-.942c2.232-.785,5.293-1.9,8.658-3.2s6.365-2.555,8.545-3.488l2.616-1.09A5.153,5.153,0,0,1,409.19,348.63Z" transform="translate(-191.535 -116.406)"/><path class="g" d="M395.84,359.129s0-.148.218-.288a1.125,1.125,0,0,1,.985-.14,1.36,1.36,0,0,1,.619.384,1.378,1.378,0,0,1,.3.794,1.744,1.744,0,0,1-2.712,1.482,1.255,1.255,0,0,1-.471-.715,1.29,1.29,0,0,1,.052-.715,1.151,1.151,0,0,1,.671-.741.443.443,0,0,1,.358,0,2.287,2.287,0,0,0-.288.157,1.116,1.116,0,0,0-.436.671.924.924,0,0,0,.357,1,1.334,1.334,0,0,0,2.049-1.125.916.916,0,0,0-.6-.872,1.081,1.081,0,0,0-.793,0C395.944,359.068,395.84,359.155,395.84,359.129Z" transform="translate(-192.798 -117.688)"/><path class="g" d="M390.3,377.938a14.745,14.745,0,0,1,.872-5.118,14.745,14.745,0,0,1-.872,5.118Z" transform="translate(-192.229 -119.503)"/><path class="g" d="M394.4,376.567a24.241,24.241,0,0,1,1.282-6.487,12.531,12.531,0,0,1-.419,3.287A12.356,12.356,0,0,1,394.4,376.567Z" transform="translate(-192.754 -119.152)"/><path class="g" d="M398.83,375.268a14,14,0,0,1,.419-3.54,13.761,13.761,0,0,1,.872-3.488,28.191,28.191,0,0,1-1.282,6.976Z" transform="translate(-193.321 -118.917)"/><path class="g" d="M403.91,373.675a31.791,31.791,0,0,1,1.282-7.455,31.793,31.793,0,0,1-1.282,7.455Z" transform="translate(-193.972 -118.658)"/><path class="g" d="M408.72,372.186a15.884,15.884,0,0,1,.419-3.767,15.536,15.536,0,0,1,.872-3.68,31.829,31.829,0,0,1-1.282,7.446Z" transform="translate(-194.587 -118.469)"/><path class="g" d="M414,370.374a25.888,25.888,0,0,1,1.282-6.714A25.89,25.89,0,0,1,414,370.374Z" transform="translate(-195.264 -118.33)"/><path class="g" d="M419.21,368.546a9.381,9.381,0,0,1,.419-2.886,9.068,9.068,0,0,1,.872-2.79,19.279,19.279,0,0,1-1.282,5.676Z" transform="translate(-195.931 -118.229)"/><path class="g" d="M338.473,363.513c.183.323-2.668,2.223-6.365,4.229s-6.836,3.374-7.019,3.043,2.677-2.223,6.374-4.238S338.3,363.181,338.473,363.513Z" transform="translate(-183.877 -118.305)"/><path class="e" d="M385.322,141.538v-.061a123.763,123.763,0,0,0,11.98-5.694c5.232-3.156,4.988-3.636,4.508-4.185-1.264-1.474-9.461,5.232-8.528,2.747s10.969-6.976,9.591-8.493c-1.814-1.936-10.263,5.232-11.021,5.764s-1.578-.532-.872-.994c1.029-.663,11.614-7.9,9.853-9.818-.977-1.072-2.72.872-2.72.872s-9.469,7.473-10.271,6.6,4.56-5.546,6.487-6.976,2-2.869.68-3.2c-.872-.218-6.888,3.994-8.719,5.441s-6.923,5.511-6.06,1.482,0-7.455-.872-8.214-2.258.174-1.979,1.421a14.893,14.893,0,0,1-.078,4.15,9.765,9.765,0,0,1-.95,3.2c-.576,1.16-1.116,2.128-1.6,2.938a5.755,5.755,0,0,0-.715,4.3c.671,2.154,8.475,9.766,8.475,9.766Z" transform="translate(-190.128 -86.685)"/><g class="m" transform="translate(183.768 29.851)"><path class="i" d="M385.322,141.538v-.061a123.763,123.763,0,0,0,11.98-5.694c5.232-3.156,4.988-3.636,4.508-4.185-1.264-1.474-9.461,5.232-8.528,2.747s10.969-6.976,9.591-8.493c-1.814-1.936-10.263,5.232-11.021,5.764s-1.578-.532-.872-.994c1.029-.663,11.614-7.9,9.853-9.818-.977-1.072-2.72.872-2.72.872s-9.469,7.473-10.271,6.6,4.56-5.546,6.487-6.976,2-2.869.68-3.2c-.872-.218-6.888,3.994-8.719,5.441s-6.923,5.511-6.06,1.482,0-7.455-.872-8.214-2.258.174-1.979,1.421a14.893,14.893,0,0,1-.078,4.15,9.765,9.765,0,0,1-.95,3.2c-.576,1.16-1.116,2.128-1.6,2.938a5.755,5.755,0,0,0-.715,4.3c.671,2.154,8.475,9.766,8.475,9.766Z" transform="translate(-373.896 -116.537)"/></g><path class="l" d="M270,149.848c1.814,1.36,52.509,3.1,52.509,3.1l33.073-18.633,13.227,12.652S330.2,172.937,325.9,173.844s-35.645,0-35.645,0Z" transform="translate(-176.824 -88.961)"/><path class="e" d="M368.76,134.626l11.414,12.059a2.189,2.189,0,0,0,2.816.314l.078-.052a2.2,2.2,0,0,0,.357-3.331l-11.5-12.024a2.18,2.18,0,0,0-2.659-.384h0a2.18,2.18,0,0,0-.506,3.418Z" transform="translate(-189.392 -88.527)"/><path class="o" d="M368.76,134.626l11.414,12.059a2.189,2.189,0,0,0,2.816.314l.078-.052a2.2,2.2,0,0,0,.357-3.331l-11.5-12.024a2.18,2.18,0,0,0-2.659-.384h0a2.18,2.18,0,0,0-.506,3.418Z" transform="translate(-189.392 -88.527)"/><path class="g" d="M333.349,176.638a3.139,3.139,0,0,1-.759-.488,12.982,12.982,0,0,1-1.8-1.674,14.718,14.718,0,0,1-2.773-15.224,12.748,12.748,0,0,1,1.09-2.2,2.928,2.928,0,0,1,.541-.724,30.148,30.148,0,0,0-1.325,3.026,15.181,15.181,0,0,0,2.712,14.91C332.346,175.835,333.4,176.568,333.349,176.638Z" transform="translate(-184.124 -91.781)"/><path class="g" d="M372.2,144.47a3.163,3.163,0,0,1-.392.331l-1.168.872c-1.02.759-2.511,1.84-4.36,3.148-3.706,2.616-8.894,6.191-14.71,9.975s-11.2,7.063-15.111,9.408c-1.953,1.16-3.549,2.084-4.656,2.712l-1.282.706a1.9,1.9,0,0,1-.462.218,2.784,2.784,0,0,1,.419-.3l1.238-.785,4.578-2.825c3.871-2.389,9.2-5.72,15.015-9.5s11.03-7.289,14.779-9.853l4.456-3.034,1.212-.811A2.825,2.825,0,0,1,372.2,144.47Z" transform="translate(-184.515 -90.262)"/><path class="g" d="M325.682,175.039c0,.122-6.7-.044-14.945-.366s-14.936-.689-14.936-.82,6.7,0,14.954.366S325.69,174.908,325.682,175.039Z" transform="translate(-180.128 -94.018)"/><g class="n" transform="translate(96.664 61.503)"><path d="M299.906,176.434a59.17,59.17,0,0,0-8.467-15.739c-3.366-4.534-11.8-8.092-17.439-7.848,8.057,3.645,18.695,14.553,22.557,23.621Z" transform="translate(-274 -152.836)"/></g><path class="l" d="M213.817,166.18c-.323-1.587-31.739,23.865-44.94,34.651a15.6,15.6,0,0,0-5.737,12.1h0a15.625,15.625,0,0,0,15.625,15.625h38.313v-19.41H192.141l31.913-21.075Z" transform="translate(-163.14 -93.033)"/><path class="e" d="M229.8,231.577v-.061a125.909,125.909,0,0,0,13.2,1.29c6.1,0,6.1-.549,6.025-1.264-.323-1.918-10.786-.419-8.719-2.04s13.009-.349,12.591-2.337c-.549-2.616-11.475-.828-12.417-.75s-1.081-1.264-.235-1.29c1.221-.044,14.021-.785,13.506-3.34-.288-1.421-2.782-.671-2.782-.671s-11.928,1.578-12.129.366,6.766-2.389,9.147-2.616,3.2-1.439,2.232-2.4c-.654-.654-7.961-.131-10.306.148s-8.772,1.16-5.955-1.849,3.845-6.383,3.488-7.49a1.282,1.282,0,0,0-2.424.2,15.276,15.276,0,0,1-2.215,3.488,9.9,9.9,0,0,1-2.459,2.25c-1.1.7-2.058,1.247-2.886,1.744a5.746,5.746,0,0,0-2.825,3.313c-.541,2.189,2.223,12.739,2.223,12.739Z" transform="translate(-171.006 -98.205)"/><g class="m" transform="translate(53.563 108.293)"><path class="i" d="M229.8,231.577v-.061a125.909,125.909,0,0,0,13.2,1.29c6.1,0,6.1-.549,6.025-1.264-.323-1.918-10.786-.419-8.719-2.04s13.009-.349,12.591-2.337c-.549-2.616-11.475-.828-12.417-.75s-1.081-1.264-.235-1.29c1.221-.044,14.021-.785,13.506-3.34-.288-1.421-2.782-.671-2.782-.671s-11.928,1.578-12.129.366,6.766-2.389,9.147-2.616,3.2-1.439,2.232-2.4c-.654-.654-7.961-.131-10.306.148s-8.772,1.16-5.955-1.849,3.845-6.383,3.488-7.49a1.282,1.282,0,0,0-2.424.2,15.276,15.276,0,0,1-2.215,3.488,9.9,9.9,0,0,1-2.459,2.25c-1.1.7-2.058,1.247-2.886,1.744a5.746,5.746,0,0,0-2.825,3.313c-.541,2.189,2.223,12.739,2.223,12.739Z" transform="translate(-224.57 -206.498)"/></g><path class="g" d="M164.57,211.487a5.493,5.493,0,0,1,.872-.872,16.7,16.7,0,0,1,2.764-2.005,18.084,18.084,0,0,1,10.891-2.363,18.311,18.311,0,0,1,10.149,4.6,17.273,17.273,0,0,1,2.3,2.52,5.18,5.18,0,0,1,.671,1.055,30.782,30.782,0,0,0-3.183-3.331,17.945,17.945,0,0,0-20.674-2.206,30.843,30.843,0,0,0-3.793,2.6Z" transform="translate(-163.323 -98.162)"/><path class="g" d="M223.238,184.88c.07.1-6.976,5.284-15.773,11.562s-15.957,11.335-16.035,11.2,6.976-5.232,15.773-11.562S223.16,184.784,223.238,184.88Z" transform="translate(-166.763 -95.437)"/><path class="g" d="M214.239,227.278a2.451,2.451,0,0,1-.488.078l-1.421.157c-1.229.131-3.017.288-5.232.453-4.412.349-10.533.706-17.291.872s-12.887.192-17.317.113c-2.215-.044-4.011-.1-5.232-.148l-1.421-.078a1.9,1.9,0,0,1-.5-.052,2.038,2.038,0,0,1,.5,0H172.5c4.429,0,10.551-.044,17.308-.244s12.861-.514,17.282-.767l5.232-.314,1.43-.07a1.987,1.987,0,0,1,.488,0Z" transform="translate(-163.422 -100.864)"/><g class="n" transform="translate(17.16 106.727)"><path d="M198.027,211.937c-.122-3.1-2.616-5.79-5.5-6.8s-6.827-.087-9.7,1.055c4.586,1.334,9.286,3.915,11.85,7.952Z" transform="translate(-182.82 -204.702)"/></g><path class="e" d="M221.63,215.881l.427,16.619a2.189,2.189,0,0,0,1.883,2.11h.1a2.18,2.18,0,0,0,2.485-2.232l-.514-16.628a2.189,2.189,0,0,0-1.744-2.066h0a2.189,2.189,0,0,0-2.633,2.2Z" transform="translate(-170.63 -99.119)"/><path class="o" d="M221.63,215.881l.427,16.619a2.189,2.189,0,0,0,1.883,2.11h.1a2.18,2.18,0,0,0,2.485-2.232l-.514-16.628a2.189,2.189,0,0,0-1.744-2.066h0a2.189,2.189,0,0,0-2.633,2.2Z" transform="translate(-170.63 -99.119)"/><path class="g" d="M228.863,190.134a18.31,18.31,0,0,0,4.159-4.037,17.081,17.081,0,0,0,2.616-5.676,18.8,18.8,0,0,0,.549-3.662,17.614,17.614,0,0,0-.3-3.967c-.506-2.659-1.744-5.118-3.767-6.391a10.01,10.01,0,0,0-5.99-1.4,25.783,25.783,0,0,0-4.212.628,11.056,11.056,0,0,1-1.552.305,1.291,1.291,0,0,1,.384-.148l1.125-.331a23.031,23.031,0,0,1,4.238-.776,10.21,10.21,0,0,1,6.234,1.369,8,8,0,0,1,2.616,2.808,12.425,12.425,0,0,1,1.386,3.845,17.559,17.559,0,0,1,.3,4.072,18.217,18.217,0,0,1-.593,3.749,16.838,16.838,0,0,1-2.782,5.764,14.44,14.44,0,0,1-3.069,3.034,9.59,9.59,0,0,1-.994.628C228.994,190.091,228.871,190.152,228.863,190.134Z" transform="translate(-170.469 -92.844)"/><path class="l" d="M379.2,222.629,348.852,256.2,331.91,244.245l27.9-33.3L286.142,249.86a15.355,15.355,0,0,1-20.055-5.5h0a15.355,15.355,0,0,1,6.391-21.99l79.6-38.087a26.917,26.917,0,0,1,33.134,8.074h0C392.763,202.357,388.8,212.864,379.2,222.629Z" transform="translate(-176.024 -95.021)"/><path class="g" d="M367.825,203.931a.7.7,0,0,1-.087-.148c-.061-.122-.131-.279-.227-.462a8.981,8.981,0,0,0-.95-1.718,6.2,6.2,0,0,0-2.38-2.005,5.755,5.755,0,0,0-4.107-.183h0l-41.33,21.624-35.671,18.494-10.83,5.554-2.956,1.491-.776.384-.27.113a2.383,2.383,0,0,1,.244-.157l.759-.419,2.912-1.57c2.572-1.352,6.243-3.287,10.769-5.685l35.61-18.607,41.417-21.45h0a5.9,5.9,0,0,1,4.281.253,6.1,6.1,0,0,1,2.407,2.1,8.779,8.779,0,0,1,.959,1.744l.192.471A.667.667,0,0,1,367.825,203.931Z" transform="translate(-176.598 -97.232)"/><path class="g" d="M384.888,199.49a93.833,93.833,0,0,1-5.825,7.542c-3.313,4.055-6.1,7.333-6.173,7.255s2.511-3.488,5.825-7.542S384.783,199.411,384.888,199.49Z" transform="translate(-189.999 -97.308)"/><path class="e" d="M373.772,245.917,357.588,264.49s9.208,10.891,7.682,12.207-27.1-21.528-27.1-21.528l16.768-21.389Z" transform="translate(-185.553 -101.699)"/><path class="f" d="M373.772,245.917,357.588,264.49s9.208,10.891,7.682,12.207-27.1-21.528-27.1-21.528l16.768-21.389Z" transform="translate(-185.553 -101.699)"/><path class="g" d="M371.346,251.824c-.061.113-4.6-2.276-10.132-5.336s-9.975-5.624-9.914-5.729,4.6,2.276,10.132,5.336S371.407,251.72,371.346,251.824Z" transform="translate(-187.235 -102.592)"/><path class="g" d="M349.773,253.9s-.087.157-.209.427a2.119,2.119,0,0,0-.113,1.229,2.031,2.031,0,0,0,.994,1.421,1.892,1.892,0,0,0,2.494-2.311,2.032,2.032,0,0,0-1.334-1.1,2.119,2.119,0,0,0-1.229,0c-.288.1-.427.2-.453.174s.087-.174.384-.34a2.093,2.093,0,0,1,1.369-.166,2.2,2.2,0,1,1-2.537,2.346,2.049,2.049,0,0,1,.27-1.352C349.59,253.9,349.765,253.835,349.773,253.9Z" transform="translate(-186.955 -104.184)"/><path class="d" d="M349.29,224.8l20.935-11.056,10.838-13.123L349.29,224.8" transform="translate(-186.977 -97.452)"/></g><g transform="translate(314.633 39.495)"><circle class="k" cx="21.999" cy="21.999" r="21.999" transform="translate(0 1.029) rotate(-1.34)"/><path class="g" d="M394.87,60.927a3.575,3.575,0,1,1,.982,2.559A3.584,3.584,0,0,1,394.87,60.927Z" transform="translate(-365.194 -46.848)"/><path class="g" d="M403.09,70.749a2.093,2.093,0,1,1,2.04,2.136,2.093,2.093,0,0,1-2.04-2.136Z" transform="translate(-366.246 -48.291)"/><path class="g" d="M399.765,78.4a.767.767,0,1,1-.785.75A.767.767,0,0,1,399.765,78.4Z" transform="translate(-365.72 -49.533)"/></g><g transform="translate(47.089 28.776)"><path class="k" d="M494.008,124.37l.48.872a5.9,5.9,0,0,0,2.337,2.337l.872.48-.872.48a5.877,5.877,0,0,0-2.337,2.346l-.48.872-.48-.872a5.877,5.877,0,0,0-2.337-2.346l-.872-.48.872-.48a5.9,5.9,0,0,0,2.337-2.337Z" transform="translate(-109.873 -44.7)"/><path class="k" d="M57.653,274l.488.872a5.851,5.851,0,0,0,2.337,2.337l.872.48-.872.48a5.816,5.816,0,0,0-2.337,2.346l-.488.872-.48-.872a5.877,5.877,0,0,0-2.3-2.372l-.872-.48.872-.48a5.9,5.9,0,0,0,2.3-2.311Z" transform="translate(-54 -63.861)"/><path class="k" d="M177.559,271.6l.244.436a2.956,2.956,0,0,0,1.168,1.168l.445.244-.445.235a3.008,3.008,0,0,0-1.168,1.168l-.244.445-.235-.445a3.009,3.009,0,0,0-1.168-1.168l-.445-.235.445-.244a2.956,2.956,0,0,0,1.168-1.168Z" transform="translate(-69.585 -63.554)"/><path class="k" d="M452.859,269.72l.244.436a2.9,2.9,0,0,0,1.168,1.168l.436.244-.436.235a2.921,2.921,0,0,0-1.168,1.177l-.244.436-.235-.436a2.973,2.973,0,0,0-1.168-1.177l-.445-.235.445-.244a2.956,2.956,0,0,0,1.168-1.168Z" transform="translate(-104.839 -63.313)"/><path class="k" d="M324.727,119.19l.235.445a3.008,3.008,0,0,0,1.168,1.168l.445.235-.445.244a3.008,3.008,0,0,0-1.168,1.168l-.235.445-.244-.445a3.008,3.008,0,0,0-1.168-1.168l-.445-.244.445-.235a3.008,3.008,0,0,0,1.168-1.168Z" transform="translate(-88.43 -44.037)"/><path class="k" d="M175.949,100l.235.436a2.956,2.956,0,0,0,1.168,1.168l.445.244-.445.235a2.973,2.973,0,0,0-1.168,1.177l-.235.436-.244-.436a2.921,2.921,0,0,0-1.168-1.177l-.436-.235.436-.244a2.9,2.9,0,0,0,1.168-1.168Z" transform="translate(-69.379 -41.58)"/><path class="k" d="M276.966,33l.872,1.517a10.158,10.158,0,0,0,4.037,4.037l1.517.872-1.517.828a10.158,10.158,0,0,0-4.037,4.037l-.872,1.517-.872-1.517a10.158,10.158,0,0,0-4.037-4.037l-1.517-.828,1.517-.872a10.158,10.158,0,0,0,4.116-4.046Z" transform="translate(-81.729 -33)"/><path class="k" d="M173.7,344.51l.872,1.517a10.106,10.106,0,0,0,4.037,4.037l1.517.828-1.517.872a10.088,10.088,0,0,0-4.037,4.028l-.872,1.526-.828-1.526a10.141,10.141,0,0,0-4.037-4.028l-1.517-.872,1.517-.828a10.159,10.159,0,0,0,4.037-4.037Z" transform="translate(-68.511 -72.89)"/></g></g></svg>