<svg xmlns="http://www.w3.org/2000/svg" width="430.499" height="320.816" viewBox="0 0 430.499 320.816"><defs><style>.a{fill:#ebebeb;}.b{fill:#f0f0f0;}.c{fill:#f5f5f5;}.d{fill:#e0e0e0;}.e,.i,.j,.k{fill:#fff;}.f{fill:#e6e6e6;}.g{fill:#263238;}.h{fill:#407bff;}.i,.o,.q{opacity:0.2;}.j,.n{opacity:0.3;}.k{opacity:0.6;}.l{fill:#ffc3bd;}.m{opacity:0.4;}.p{fill:#ed847e;}</style></defs><rect class="a" width="430.499" height="0.215" transform="translate(0 281.934)"/><rect class="a" width="66.788" height="0.215" transform="translate(320.575 295.787)"/><rect class="a" width="47.639" height="0.215" transform="translate(239.357 292.765)"/><rect class="a" width="50.816" height="0.215" transform="translate(307.169 287.797)"/><rect class="a" width="10.926" height="0.215" transform="translate(45.168 289.243)"/><rect class="a" width="61.656" height="0.215" transform="translate(63.765 289.243)"/><rect class="a" width="40.329" height="0.215" transform="translate(149.09 292.877)"/><path class="a" d="M209.368,243.533H43.118a4.916,4.916,0,0,1-4.908-4.916V4.916A4.916,4.916,0,0,1,43.118,0h166.25a4.916,4.916,0,0,1,4.916,4.916v233.7A4.916,4.916,0,0,1,209.368,243.533ZM43.118.215a4.7,4.7,0,0,0-4.692,4.7v233.7a4.7,4.7,0,0,0,4.692,4.7h166.25a4.71,4.71,0,0,0,4.7-4.7V4.916a4.71,4.71,0,0,0-4.7-4.7Z" transform="translate(-5.311)"/><path class="a" d="M425.675,243.533H259.416a4.925,4.925,0,0,1-4.916-4.916V4.916A4.925,4.925,0,0,1,259.416,0H425.675a4.916,4.916,0,0,1,4.9,4.916v233.7a4.916,4.916,0,0,1-4.9,4.916ZM259.416.215a4.71,4.71,0,0,0-4.7,4.7v233.7a4.71,4.71,0,0,0,4.7,4.7H425.675a4.71,4.71,0,0,0,4.7-4.7V4.916a4.71,4.71,0,0,0-4.7-4.7Z" transform="translate(-35.376)"/><rect class="b" width="10.831" height="116.553" transform="translate(209.11 157.502)"/><rect class="b" width="165.837" height="7.766" transform="translate(213.269 274.055)"/><rect class="c" width="163.331" height="116.553" transform="translate(383.264 274.055) rotate(180)"/><rect class="d" width="11.193" height="7.344" transform="translate(206.2 150.158)"/><rect class="a" width="168.79" height="7.344" transform="translate(386.174 157.502) rotate(180)"/><path class="e" d="M403.873,234.369H272.821a8.489,8.489,0,0,1-8.481-8.489V200.911a8.489,8.489,0,0,1,8.481-8.481H403.873a8.489,8.489,0,0,1,8.481,8.481V225.88A8.489,8.489,0,0,1,403.873,234.369ZM272.821,194.161a6.767,6.767,0,0,0-6.759,6.759v24.969a6.776,6.776,0,0,0,6.759,6.767H403.873a6.776,6.776,0,0,0,6.759-6.767V200.919a6.767,6.767,0,0,0-6.759-6.759Z" transform="translate(-36.744 -26.748)"/><path class="e" d="M403.873,295H272.821a8.489,8.489,0,0,1-8.481-8.481V261.549a8.489,8.489,0,0,1,8.481-8.489H403.873a8.489,8.489,0,0,1,8.481,8.489v24.969A8.489,8.489,0,0,1,403.873,295ZM272.821,254.791a6.776,6.776,0,0,0-6.759,6.767v24.969a6.767,6.767,0,0,0,6.759,6.759H403.873a6.767,6.767,0,0,0,6.759-6.759V261.558a6.776,6.776,0,0,0-6.759-6.767Z" transform="translate(-36.744 -35.176)"/><path class="e" d="M368.115,219.832H324.583A2.583,2.583,0,0,1,322,217.249v-2.066a2.583,2.583,0,0,1,2.583-2.583h43.506a2.583,2.583,0,0,1,2.583,2.583v2.066a2.583,2.583,0,0,1-2.557,2.583Zm-43.532-5.519a.861.861,0,0,0-.861.861v2.075a.861.861,0,0,0,.861.861h43.506a.861.861,0,0,0,.861-.861v-2.066a.861.861,0,0,0-.861-.861Z" transform="translate(-44.759 -29.552)"/><path class="e" d="M368.115,280.465H324.583A2.583,2.583,0,0,1,322,277.882v-2.049a2.583,2.583,0,0,1,2.583-2.583h43.506a2.583,2.583,0,0,1,2.583,2.583v2.049a2.583,2.583,0,0,1-2.557,2.583Zm-43.532-5.519a.861.861,0,0,0-.861.861v2.049a.861.861,0,0,0,.861.861h43.506a.861.861,0,0,0,.861-.861v-2.049a.861.861,0,0,0-.861-.861Z" transform="translate(-44.759 -37.983)"/><rect class="f" width="30.247" height="5.967" transform="translate(79.083 196.944) rotate(180)"/><rect class="f" width="5.579" height="203.979" transform="translate(130.544 77.946)"/><rect class="c" width="76.388" height="5.967" transform="translate(79.083 190.978)"/><rect class="f" width="30.247" height="5.967" transform="translate(79.083 251.824) rotate(180)"/><rect class="c" width="76.388" height="5.967" transform="translate(79.083 245.866)"/><rect class="f" width="30.247" height="5.967" transform="translate(79.083 87.176) rotate(180)"/><rect class="c" width="76.388" height="5.967" transform="translate(79.083 81.209)"/><rect class="f" width="30.247" height="5.967" transform="translate(79.083 142.056) rotate(180)"/><rect class="c" width="76.388" height="5.967" transform="translate(79.083 136.098)"/><rect class="f" width="5.579" height="203.979" transform="translate(54.165 77.946)"/><rect class="c" width="5.579" height="203.979" transform="translate(79.083 77.946)"/><rect class="c" width="5.579" height="203.979" transform="translate(149.891 77.946)"/><rect class="d" width="114.418" height="97.801" transform="translate(178.502 24.47)"/><rect class="c" width="116.545" height="97.801" transform="translate(181.266 24.47)"/><rect class="e" width="82.389" height="102.502" transform="translate(290.793 32.175) rotate(90)"/><rect class="c" width="4.692" height="106.462" transform="translate(342.117 40.682)"/><path class="b" d="M413.847,173.731H381a4.141,4.141,0,0,1,4.141-4.141h24.573A4.141,4.141,0,0,1,413.847,173.731Z" transform="translate(-52.96 -23.574)"/><path class="d" d="M420,74.7H372.49l5.459-49.189h36.584Z" transform="translate(-51.777 -3.546)"/><g transform="translate(44.006 301.323)"><ellipse class="c" cx="166.939" cy="9.746" rx="166.939" ry="9.746"/></g><g transform="translate(95.643 65.971)"><path class="g" d="M202.9,81.7s2.006-7.129,13.561-4.494,2.359,11.451,2.359,11.451a14.908,14.908,0,0,1,5.467,15.817c-2.824,12.235,4.365,14.8.861,20.354s-27.362,9.85-42.68,1.248c-9.238-5.166,3.642-20.225,1.774-27.147C181.458,88.571,189.156,78.394,202.9,81.7Z" transform="translate(-120.538 -76.621)"/><path class="h" d="M204.562,273.461l9.161-45.486a11.193,11.193,0,0,1,10.47-8.7h88.071c4.813,0,7.93,3.9,6.957,8.7l-9.161,45.486a11.193,11.193,0,0,1-10.435,8.713H211.519C206.714,282.174,203.6,278.274,204.562,273.461Z" transform="translate(-124.053 -96.45)"/><path class="h" d="M117.457,203.247a59.409,59.409,0,0,1-.517-6.027h.861c.069,1.946.241,3.935.508,5.906Z" transform="translate(-111.898 -93.385)"/><path class="h" d="M118.661,180.153l-.861-.146a48.9,48.9,0,0,1,10.332-22.937l.663.551a48.069,48.069,0,0,0-10.134,22.532Z" transform="translate(-112.018 -87.804)"/><path class="h" d="M169.141,140.06h15.5L208.7,258.017H193.2c-32.58,0-64.377-26.407-71.015-58.987S136.561,140.06,169.141,140.06Z" transform="translate(-112.457 -85.439)"/><ellipse class="h" cx="53.278" cy="65.307" rx="53.278" ry="65.307" transform="translate(0 109.378) rotate(-47.91)"/><ellipse class="i" cx="53.278" cy="65.307" rx="53.278" ry="65.307" transform="translate(0 109.378) rotate(-47.91)"/><path class="h" d="M286.567,255.923l5.614-27.948a11.193,11.193,0,0,1,10.461-8.7h8.825c4.813,0,7.93,3.9,6.965,8.7l-9.161,45.486a11.193,11.193,0,0,1-10.47,8.713H188V255.923Z" transform="translate(-121.776 -96.45)"/><path class="j" d="M286.567,255.923l5.614-27.948a11.193,11.193,0,0,1,10.461-8.7h8.825c4.813,0,7.93,3.9,6.965,8.7l-9.161,45.486a11.193,11.193,0,0,1-10.47,8.713H188V255.923Z" transform="translate(-121.776 -96.45)"/><path class="g" d="M177.25,351.386h5.588l13.578-59.056H186.3Z" transform="translate(-120.281 -106.605)"/><path class="k" d="M177.25,351.386h5.588l13.578-59.056H186.3Z" transform="translate(-120.281 -106.605)"/><path class="g" d="M145.01,351.386H150.6l13.578-59.056H154.059Z" transform="translate(-115.8 -106.605)"/><path class="k" d="M145.01,351.386H150.6l13.578-59.056H154.059Z" transform="translate(-115.8 -106.605)"/><path class="g" d="M276.116,351.386h-5.588L256.95,292.33h10.117Z" transform="translate(-131.36 -106.605)"/><path class="k" d="M276.116,351.386h-5.588L256.95,292.33h10.117Z" transform="translate(-131.36 -106.605)"/><path class="g" d="M308.356,351.386h-5.6L289.19,292.33h10.117Z" transform="translate(-135.841 -106.605)"/><path class="k" d="M308.356,351.386h-5.6L289.19,292.33h10.117Z" transform="translate(-135.841 -106.605)"/><path class="l" d="M234.679,156.737c2.927,5.054,6.027,10.22,9.273,15.145,1.619,2.462,3.272,4.89,4.994,7.2a56.065,56.065,0,0,0,5.364,6.337c.069.069,0,0-.1-.077a3.069,3.069,0,0,0-.31-.215,4.03,4.03,0,0,0-1.61-.568,3.152,3.152,0,0,0-.7,0,3.35,3.35,0,0,0-.775.095,3.908,3.908,0,0,0-.74.241,3.1,3.1,0,0,0-.6.319,3.814,3.814,0,0,0-1.188,1.154,2.359,2.359,0,0,0-.336.715c0,.06,0,0,0-.043a11.873,11.873,0,0,0,.207-1.576c.095-1.3.1-2.755.086-4.2,0-2.919-.155-5.915-.31-8.911l-1-18.081,5.063-.766c1.455,5.984,2.686,11.968,3.668,18.081.474,3.048.93,6.1,1.223,9.256.146,1.584.267,3.177.284,4.916a17.22,17.22,0,0,1-.181,2.962,9.077,9.077,0,0,1-.232,1.068,6.027,6.027,0,0,1-.784,1.722,5.235,5.235,0,0,1-1.576,1.567,5.381,5.381,0,0,1-.732.387,6.363,6.363,0,0,1-.861.276,5.509,5.509,0,0,1-.921.121,5.6,5.6,0,0,1-.861,0,5.166,5.166,0,0,1-2.135-.775,6.466,6.466,0,0,1-.542-.379l-.31-.267a57.462,57.462,0,0,1-6.888-7.163c-2.041-2.462-3.926-4.994-5.717-7.56a168.907,168.907,0,0,1-9.8-16.032Z" transform="translate(-127.006 -87.308)"/><path class="h" d="M229.343,146.07c6.888,1.154,12.484,21.8,12.321,21.361L228.43,179.761s-8.162-12.3-7.009-18.451C222.627,154.9,223.919,145.14,229.343,146.07Z" transform="translate(-126.406 -86.266)"/><path class="m" d="M229.343,146.07c6.888,1.154,12.484,21.8,12.321,21.361L228.43,179.761s-8.162-12.3-7.009-18.451C222.627,154.9,223.919,145.14,229.343,146.07Z" transform="translate(-126.406 -86.266)"/><path class="h" d="M230.813,158.909c-.646,8.834-2.583,23.72-7.456,48.775l-41.595-1.24c1.093-15.352-.56-26.794-4.3-53.666a8.748,8.748,0,0,1,7.749-9.9c2.669-.276,5.708-.5,8.756-.56a131.684,131.684,0,0,1,18.89.568c2.023.241,4.124.56,6.122.861A14.275,14.275,0,0,1,230.813,158.909Z" transform="translate(-120.299 -85.743)"/><path class="n" d="M230.813,158.909c-.646,8.834-2.583,23.72-7.456,48.775l-41.595-1.24c1.093-15.352-.56-26.794-4.3-53.666a8.748,8.748,0,0,1,7.749-9.9c2.669-.276,5.708-.5,8.756-.56a131.684,131.684,0,0,1,18.89.568c2.023.241,4.124.56,6.122.861A14.275,14.275,0,0,1,230.813,158.909Z" transform="translate(-120.299 -85.743)"/><path class="l" d="M199.146,117.7c1.016,6.113,1.868,17.28-2.505,21.206,0,0,10.676,5.588,17.676,15.343,7.482-5.932,1.214-14.775,1.214-14.775-6.724-1.825-6.406-6.888-5.08-11.529Z" transform="translate(-122.977 -82.331)"/><path class="o" d="M204.854,122.55l6.69,6.027a19.408,19.408,0,0,0-.68,3.332c-2.583-.448-6.027-3.392-6.242-6.113a9.161,9.161,0,0,1,.232-3.246Z" transform="translate(-124.079 -83.006)"/><path class="l" d="M191.629,101.744c1.825,10,2.385,14.275,8.1,18.839,8.61,6.888,20.475,2.437,21.671-7.913,1.076-9.316-2.092-24.108-12.433-26.932a13.871,13.871,0,0,0-17.34,16.006Z" transform="translate(-122.245 -77.818)"/><path class="g" d="M205.043,84.358c13.724,5.562-.086,10.263-5.08,15.584-4.426,4.718-.284,12.209-7.706,6.888-3.539-2.523-3.392-15.842-1.412-18.331S200.954,82.7,205.043,84.358Z" transform="translate(-121.978 -77.634)"/><path class="g" d="M211.637,105.931c.1.861.611,1.438,1.154,1.369s.861-.784.792-1.6-.611-1.429-1.154-1.369S211.543,105.113,211.637,105.931Z" transform="translate(-125.059 -80.472)"/><path class="g" d="M222.367,104.371c.095.861.611,1.438,1.145,1.369s.861-.784.792-1.6-.611-1.429-1.145-1.369S222.264,103.553,222.367,104.371Z" transform="translate(-126.55 -80.255)"/><path class="g" d="M223,102.729l1.9-.809S224.093,103.582,223,102.729Z" transform="translate(-126.641 -80.138)"/><path class="p" d="M218.37,106.11a22.093,22.093,0,0,0,3.547,4.882,3.451,3.451,0,0,1-2.859.861Z" transform="translate(-125.997 -80.72)"/><path class="g" d="M213.637,116.775a7.456,7.456,0,0,0,1.223-.052.243.243,0,0,0-.06-.482,6.544,6.544,0,0,1-5.605-1.9.232.232,0,0,0-.336,0,.25.25,0,0,0,0,.344,6.8,6.8,0,0,0,4.779,2.092Z" transform="translate(-124.666 -81.854)"/><path class="l" d="M189.07,114.114a7.947,7.947,0,0,0,4.71,3.849c2.686.792,4.064-1.6,3.349-4.15-.646-2.3-2.824-5.476-5.528-5.166S187.864,111.85,189.07,114.114Z" transform="translate(-121.855 -81.07)"/><path class="g" d="M206.814,102.976a.482.482,0,0,0,.465-.319c.775-2.109,3.556-2.893,3.582-2.9a.486.486,0,1,0-.25-.938c-.138.043-3.306.93-4.236,3.5a.482.482,0,0,0,.284.62.5.5,0,0,0,.155.034Z" transform="translate(-124.326 -79.704)"/><path class="g" d="M224.169,98.4a.491.491,0,0,0,.284-.861,4.839,4.839,0,0,0-4.4-.517.482.482,0,0,0-.241.646.474.474,0,0,0,.637.241h0a3.875,3.875,0,0,1,3.444.448.439.439,0,0,0,.276.043Z" transform="translate(-126.191 -79.414)"/><path class="l" d="M236.19,345.181l9.393,3.547,10.685-21.861-9.385-3.547Z" transform="translate(-128.474 -110.913)"/><path class="g" d="M247.548,345l-10.332-5.089a.8.8,0,0,0-1.033.276l-4.632,6.888a1.722,1.722,0,0,0,.491,2.428c2.738,2.041,4.925,2.178,9.471,4.417,2.8,1.378,8.472,5.02,12.665,5.984s5.3-3.151,3.633-3.926c-7.473-3.487-7.534-6.38-9-9.626A2.677,2.677,0,0,0,247.548,345Z" transform="translate(-127.787 -113.208)"/><g class="q" transform="translate(112.89 212.415)"><path d="M257.1,326.877l-5.51,11.262L242.2,334.6l5.51-11.27Z" transform="translate(-242.2 -323.33)"/></g><path class="l" d="M314.631,323.933l8.86-4.718-9.376-22.455-7.344,12.467Z" transform="translate(-138.285 -107.221)"/><path class="g" d="M323.531,318.157l-11.417,1.438a.783.783,0,0,0-.715.792v9.178a1.722,1.722,0,0,0,1.886,1.6c3.978-.568,5.863-1.042,10.883-1.67,3.091-.387,11-1.111,15.266-1.645s3.9-4.779,2.066-4.934c-8.214-.706-13.156-2.437-16.161-4.348A2.721,2.721,0,0,0,323.531,318.157Z" transform="translate(-138.929 -110.193)"/><g class="q" transform="translate(168.485 189.547)"><path d="M314.114,296.77l4.83,11.572-8.851,4.718-3.323-3.823Z" transform="translate(-306.77 -296.77)"/></g><path class="g" d="M212.29,104.289l1.9-.809S213.366,105.142,212.29,104.289Z" transform="translate(-125.152 -80.355)"/><path d="M216.851,226.09s58.221-.319,56.4,19.174c-3,32.253-25.83,76.629-25.83,76.629l-13.268-4.6s14.069-29.825,13.423-61.751H204.874c-16.29,0-23.333-17.892-7.473-38.745C207.1,216.809,216.851,226.09,216.851,226.09Z" transform="translate(-121.843 -96.107)"/><path class="e" d="M181.635,213.946l-1.171,3.685c-.155.284.172.594.654.611l42.852,1.231c.379,0,.689-.164.723-.4l.482-3.711c0-.258-.284-.482-.689-.5l-42.12-1.248A.749.749,0,0,0,181.635,213.946Z" transform="translate(-120.723 -95.663)"/><path class="g" d="M188,218.759h-1.128c-.224,0-.4-.129-.379-.267l.68-4.822c0-.138.215-.25.439-.241h1.128c.224,0,.4.121.37.267l-.672,4.822C188.418,218.656,188.22,218.768,188,218.759Z" transform="translate(-121.566 -95.638)"/><path class="g" d="M227.008,219.919H225.88c-.224,0-.387-.121-.37-.267l.672-4.822c0-.138.224-.25.448-.241h1.128c.224,0,.387.129.37.267l-.672,4.822C227.438,219.816,227.24,219.928,227.008,219.919Z" transform="translate(-126.99 -95.799)"/><path class="g" d="M207.507,219.339h-1.128c-.232,0-.4-.121-.379-.267l.672-4.822c0-.138.224-.25.448-.241h1.128c.224,0,.4.121.37.267l-.672,4.822C207.928,219.236,207.722,219.348,207.507,219.339Z" transform="translate(-124.278 -95.719)"/><path class="g" d="M209.17,216.438s72.143-15.36,75.268,2.988c5.441,31.926,16.987,72.8,16.987,72.8l-11.6,7.9s-18.081-38.022-28.49-68.2c-12.476,4.038-48.844,22.773-63.378,22.773-16.3,0-22.472-14.577-15.343-38.53C192.312,216.162,209.17,216.438,209.17,216.438Z" transform="translate(-120.62 -95.219)"/><path d="M285.211,247.85a107.829,107.829,0,0,1-1.722,11.253c-3.2-7.9-6.337-16.058-8.989-23.7C281.207,238.215,285.736,242.2,285.211,247.85Z" transform="translate(-133.799 -98.692)"/><path class="h" d="M127.462,227.975l9.161,45.486a11.193,11.193,0,0,0,10.47,8.713h31.469c4.8,0,7.921-3.9,6.957-8.713l-9.161-45.486a11.193,11.193,0,0,0-10.47-8.7H134.419C129.623,219.27,126.5,223.17,127.462,227.975Z" transform="translate(-113.336 -96.45)"/><path class="h" d="M198.435,273.461l-9.152-45.486a11.193,11.193,0,0,0-10.47-8.7h-8.825c-4.813,0-7.93,3.9-6.957,8.7l9.161,45.486a11.193,11.193,0,0,0,10.461,8.713h8.825C196.292,282.174,199.408,278.274,198.435,273.461Z" transform="translate(-118.28 -96.45)"/><path class="j" d="M198.435,273.461l-9.152-45.486a11.193,11.193,0,0,0-10.47-8.7h-8.825c-4.813,0-7.93,3.9-6.957,8.7l9.161,45.486a11.193,11.193,0,0,0,10.461,8.713h8.825C196.292,282.174,199.408,278.274,198.435,273.461Z" transform="translate(-118.28 -96.45)"/><path class="l" d="M185.882,161.092c-.517,2.678-1.068,5.562-1.49,8.369s-.861,5.64-1.137,8.446-.508,5.6-.577,8.334a40.659,40.659,0,0,0,.491,7.749l.077.4a.965.965,0,0,0-.069-.155c-.052-.069-.06-.052,0,0a3.341,3.341,0,0,0,.689.749,15.4,15.4,0,0,0,2.9,1.92,59.778,59.778,0,0,0,7.534,3.28c2.66,1,5.4,1.894,8.162,2.755s5.579,1.722,8.343,2.471l-.861,5.045A113,113,0,0,1,192,207.654a58.263,58.263,0,0,1-9.015-2.91,25.408,25.408,0,0,1-4.692-2.583,12.286,12.286,0,0,1-2.471-2.333,8.558,8.558,0,0,1-1.154-1.868,7.516,7.516,0,0,1-.448-1.2l-.172-.663a43.962,43.962,0,0,1-1.257-9.815,88.151,88.151,0,0,1,.25-9.333c.232-3.065.594-6.1,1.05-9.109s.973-5.949,1.722-9.032Z" transform="translate(-119.658 -88.046)"/><path class="h" d="M180.333,145.095c-4.167,1.231-9.333,15.55-9.333,15.55l16.083,11.692s6.027-11.942,4.3-17.34C189.623,149.365,185.1,143.683,180.333,145.095Z" transform="translate(-119.413 -86.109)"/><path class="n" d="M180.333,145.095c-4.167,1.231-9.333,15.55-9.333,15.55l16.083,11.692s6.027-11.942,4.3-17.34C189.623,149.365,185.1,143.683,180.333,145.095Z" transform="translate(-119.413 -86.109)"/><path class="l" d="M228.592,212.539l-4.047-1.851a5.054,5.054,0,0,0-3.22-.319l-9.531,2.247-1.274,3.212c1.369,3.763,7.749,3.255,7.749,3.255l5.08,1.722a2.135,2.135,0,0,0,2.325-.637l3.694-4.305a2.135,2.135,0,0,0-.775-3.323Z" transform="translate(-124.906 -95.195)"/><path class="l" d="M262.208,139.428l-5.261.491a3,3,0,0,0-2.583,2.127l-1.395,4.581s-4.124,4.873-1.868,8.188l3.349.861,7.508-6.544a4.615,4.615,0,0,0,1.49-2.583l.93-4.684a2,2,0,0,0-2.17-2.437Z" transform="translate(-130.453 -85.35)"/><path class="h" d="M261.26,135.4a12.08,12.08,0,1,1-24.16,0Z" transform="translate(-128.601 -84.792)"/><ellipse class="g" cx="12.08" cy="0.508" rx="12.08" ry="0.508" transform="translate(108.499 50.1)"/><path class="h" d="M263.063,146.056a4.193,4.193,0,1,1,4.193-4.193A4.193,4.193,0,0,1,263.063,146.056Zm0-7.525a3.332,3.332,0,1,0,3.332,3.332A3.332,3.332,0,0,0,263.063,138.531Z" transform="translate(-131.627 -85.107)"/><path class="d" d="M248.443,105.39a15.6,15.6,0,0,0,1.989,4.167,28.61,28.61,0,0,0,3,3.332,12.915,12.915,0,0,1,2.953,4.184,7.646,7.646,0,0,1,.2,5.114,16.29,16.29,0,0,0-2-4.167,28.611,28.611,0,0,0-3-3.332,13.113,13.113,0,0,1-2.945-4.193,7.568,7.568,0,0,1-.2-5.106Z" transform="translate(-130.129 -80.62)"/><path class="d" d="M244.244,111.25a15.74,15.74,0,0,0,2,4.167,28.663,28.663,0,0,0,3,3.341,12.855,12.855,0,0,1,2.945,4.184,7.594,7.594,0,0,1,.207,5.114,16.29,16.29,0,0,0-2-4.167,28.663,28.663,0,0,0-3-3.341,12.984,12.984,0,0,1-2.945-4.184,7.594,7.594,0,0,1-.207-5.114Z" transform="translate(-129.546 -81.435)"/><path class="g" d="M207.88,86.2c6.647,5.089,9.066,2.161,12.4,7.465-1.257-7.594-5.881-9.626-10.332-9.712S206.193,84.9,207.88,86.2Z" transform="translate(-124.359 -77.639)"/></g></svg>