<svg width="31" height="28" viewBox="0 0 31 28" fill="none" xmlns="http://www.w3.org/2000/svg">
<path d="M10.75 10.75C13.4424 10.75 15.625 8.56739 15.625 5.875C15.625 3.18261 13.4424 1 10.75 1C8.05761 1 5.875 3.18261 5.875 5.875C5.875 8.56739 8.05761 10.75 10.75 10.75Z" stroke="white" stroke-width="2" stroke-linecap="round" stroke-linejoin="round"/>
<path d="M20.5 27H1V24.8333C1 22.2475 2.02723 19.7675 3.85571 17.939C5.68419 16.1105 8.16414 15.0833 10.75 15.0833C13.3359 15.0833 15.8158 16.1105 17.6443 17.939C19.4728 19.7675 20.5 22.2475 20.5 24.8333V27Z" stroke="white" stroke-width="2" stroke-linecap="round" stroke-linejoin="round"/>
<path d="M19.4167 1C20.7097 1 21.9497 1.51361 22.8639 2.42785C23.7781 3.34209 24.2917 4.58207 24.2917 5.875C24.2917 7.16793 23.7781 8.40791 22.8639 9.32215C21.9497 10.2364 20.7097 10.75 19.4167 10.75" stroke="white" stroke-width="2" stroke-linecap="round" stroke-linejoin="round"/>
<path d="M22.8833 15.4951C24.7289 16.1972 26.3179 17.4431 27.4399 19.0681C28.5619 20.693 29.164 22.6204 29.1666 24.5951V27.0001H25.9166" stroke="white" stroke-width="2" stroke-linecap="round" stroke-linejoin="round"/>
</svg>
