<svg width="31" height="28" viewBox="0 0 31 28" fill="none" xmlns="http://www.w3.org/2000/svg">
<path d="M10.75 10.75C13.4424 10.75 15.625 8.56739 15.625 5.875C15.625 3.18261 13.4424 1 10.75 1C8.05761 1 5.875 3.18261 5.875 5.875C5.875 8.56739 8.05761 10.75 10.75 10.75Z" stroke="#A18EFF" stroke-width="2" stroke-linecap="round" stroke-linejoin="round"/>
<path d="M20.5 26.9997H1V24.833C1 22.2471 2.02723 19.7672 3.85571 17.9387C5.68419 16.1102 8.16414 15.083 10.75 15.083C13.3359 15.083 15.8158 16.1102 17.6443 17.9387C19.4728 19.7672 20.5 22.2471 20.5 24.833V26.9997Z" stroke="#A18EFF" stroke-width="2" stroke-linecap="round" stroke-linejoin="round"/>
<path d="M19.417 1C20.7099 1 21.9499 1.51361 22.8641 2.42785C23.7784 3.34209 24.292 4.58207 24.292 5.875C24.292 7.16793 23.7784 8.40791 22.8641 9.32215C21.9499 10.2364 20.7099 10.75 19.417 10.75" stroke="#A18EFF" stroke-width="2" stroke-linecap="round" stroke-linejoin="round"/>
<path d="M22.8838 15.4951C24.7294 16.1972 26.3184 17.4432 27.4404 19.0681C28.5624 20.6931 29.1645 22.6204 29.1671 24.5951V27.0001H25.9171" stroke="#A18EFF" stroke-width="2" stroke-linecap="round" stroke-linejoin="round"/>
</svg>
