<svg width="28" height="28" viewBox="0 0 28 28" fill="none" xmlns="http://www.w3.org/2000/svg">
<path d="M5.99976 14.0006V8.74089C6.01538 7.707 6.23485 6.68636 6.6456 5.73744C7.05635 4.78852 7.65031 3.92997 8.39344 3.211C9.13656 2.49202 10.0143 1.92674 10.9762 1.54756C11.9382 1.16837 12.9655 0.982728 13.9994 1.00126V1.00126C15.0332 0.982728 16.0605 1.16837 17.0225 1.54756C17.9845 1.92674 18.8622 2.49202 19.6053 3.211C20.3484 3.92997 20.9424 4.78852 21.3531 5.73744C21.7639 6.68636 21.9834 7.707 21.999 8.74089V14.0006" stroke="#A18EFF" stroke-width="2" stroke-linecap="round" stroke-linejoin="round"/>
<path d="M2.9999 11.0008H4.99981C5.26501 11.0008 5.51935 11.1061 5.70688 11.2937C5.8944 11.4812 5.99976 11.7355 5.99976 12.0007V18.0005C5.99976 18.2657 5.8944 18.52 5.70688 18.7075C5.51935 18.8951 5.26501 19.0004 4.99981 19.0004H2.9999C2.4695 19.0004 1.96081 18.7897 1.58576 18.4146C1.2107 18.0396 1 17.5309 1 17.0005V13.0007C1 12.4703 1.2107 11.9616 1.58576 11.5866C1.96081 11.2115 2.4695 11.0008 2.9999 11.0008V11.0008Z" stroke="#A18EFF" stroke-width="2" stroke-linecap="round" stroke-linejoin="round"/>
<path d="M24.9989 19.0004H22.999C22.7338 19.0004 22.4794 18.8951 22.2919 18.7075C22.1044 18.52 21.999 18.2657 21.999 18.0005V12.0008C21.999 11.7356 22.1044 11.4812 22.2919 11.2937C22.4794 11.1062 22.7338 11.0008 22.999 11.0008H24.9989C25.5293 11.0008 26.038 11.2115 26.413 11.5866C26.7881 11.9616 26.9988 12.4703 26.9988 13.0007V17.0005C26.9988 17.5309 26.7881 18.0396 26.413 18.4147C26.038 18.7897 25.5293 19.0004 24.9989 19.0004V19.0004Z" stroke="#A18EFF" stroke-width="2" stroke-linecap="round" stroke-linejoin="round"/>
<path d="M17.9993 24.5002C19.0601 24.5002 20.0774 24.0788 20.8276 23.3287C21.5777 22.5786 21.9991 21.5612 21.9991 20.5004V16.0006" stroke="#A18EFF" stroke-width="2" stroke-linecap="round" stroke-linejoin="round"/>
<path d="M17.9991 24.5001C17.9991 25.1631 17.7357 25.799 17.2669 26.2678C16.7981 26.7366 16.1623 27 15.4992 27H12.4994C11.8364 27 11.2005 26.7366 10.7317 26.2678C10.2629 25.799 9.99951 25.1631 9.99951 24.5001C9.99951 23.8371 10.2629 23.2013 10.7317 22.7324C11.2005 22.2636 11.8364 22.0002 12.4994 22.0002H15.4992C16.1623 22.0002 16.7981 22.2636 17.2669 22.7324C17.7357 23.2013 17.9991 23.8371 17.9991 24.5001Z" stroke="#A18EFF" stroke-width="2" stroke-linecap="round" stroke-linejoin="round"/>
</svg>
