<svg width="23" height="28" viewBox="0 0 23 28" fill="none" xmlns="http://www.w3.org/2000/svg">
<path d="M16.7275 2.99994H19.7275C20.258 2.99994 20.7667 3.21065 21.1418 3.58573C21.5168 3.9608 21.7275 4.46951 21.7275 4.99994V24.9999C21.7275 25.5304 21.5168 26.0391 21.1418 26.4142C20.7667 26.7892 20.258 26.9999 19.7275 26.9999H3.72754C3.19711 26.9999 2.6884 26.7892 2.31333 26.4142C1.93825 26.0391 1.72754 25.5304 1.72754 24.9999V4.99994C1.72754 4.46951 1.93825 3.9608 2.31333 3.58573C2.6884 3.21065 3.19711 2.99994 3.72754 2.99994H6.72754" stroke="white" stroke-width="2" stroke-linecap="round" stroke-linejoin="round"/>
<path d="M14.7275 1H8.72754C7.62297 1 6.72754 1.89543 6.72754 3V4C6.72754 5.10457 7.62297 6 8.72754 6H14.7275C15.8321 6 16.7275 5.10457 16.7275 4V3C16.7275 1.89543 15.8321 1 14.7275 1Z" stroke="white" stroke-width="2" stroke-linecap="round" stroke-linejoin="round"/>
<path d="M6.72754 11H16.7275" stroke="white" stroke-width="2" stroke-linecap="round" stroke-linejoin="round"/>
<path d="M6.72754 16.0001H16.7275" stroke="white" stroke-width="2" stroke-linecap="round" stroke-linejoin="round"/>
<path d="M6.72754 20.9999H16.7275" stroke="white" stroke-width="2" stroke-linecap="round" stroke-linejoin="round"/>
</svg>
