<svg xmlns="http://www.w3.org/2000/svg" width="459.517" height="363.882" viewBox="0 0 459.517 363.882"><defs><style>.a{fill:#c8dff7;}.b{fill:#fff;}.c{fill:#3a4a59;}.d{fill:#1c2836;}.e{fill:#007b7a;}.f{fill:#ff5177;}.g{fill:#da234f;}.h{fill:#00c5bb;}.i{fill:#009c97;}.j{fill:#4178e6;}.k{fill:#ffc428;}.l{fill:#3f59b8;}.m{fill:#285fcf;}.n{fill:#1e41b9;}.o{opacity:0.8;}.p{fill:#4a63bc;}.q{fill:#ffac97;}.r{fill:#efc692;}.s{fill:#e0b280;}.t{fill:#ff8780;}</style></defs><g transform="translate(0.001 0.002)"><path class="a" d="M251.81,326.51s-186.06,4.15-194-57.67c-9.24-72.34-1.14-49.19-24.26-141.08C9,30.08,83.72-3.8,145.54,11.89c56.57,14.36,60.67,85.45,137.74,68.18,114.19-25.59,160.83,10.53,165.77,56C454.37,185,423,198.64,418.13,262.35S405.37,319.83,251.81,326.51Z"/><path class="a" d="M25.86,123.6a1,1,0,0,1-1-.78c-9.77-43.48-.22-70.36,9.52-85.25,10.6-16.2,23.36-22,23.89-22.21a1,1,0,1,1,.81,1.83C59,17.24,46.27,23,36,38.77c-9.49,14.56-18.78,40.89-9.18,83.61a1,1,0,0,1-.75,1.2.861.861,0,0,1-.21.02Z"/><path class="a" d="M456.78,148.7h-.06a1,1,0,0,1-.94-1c1.69-30.94-11.88-49.34-23.57-59.33a74.05,74.05,0,0,0-26.15-14.48,1,1,0,0,1,.51-1.94,75.06,75.06,0,0,1,26.88,14.84c12.06,10.29,26.07,29.22,24.32,61A1,1,0,0,1,456.78,148.7Z"/><path class="a" d="M453.38,168.39a.9.9,0,0,1-.28,0,1,1,0,0,1-.68-1.23,97.708,97.708,0,0,0,2.61-13.4,1.007,1.007,0,0,1,2,.23,99.559,99.559,0,0,1-2.68,13.72A1,1,0,0,1,453.38,168.39Z"/><path class="a" d="M66.28,13.49a1,1,0,0,1-.45-1.9,48.36,48.36,0,0,1,9-3.31,1,1,0,1,1,.46,1.94,47.08,47.08,0,0,0-8.56,3.16A1,1,0,0,1,66.28,13.49Z"/><path class="a" d="M224.29,55.65s4-13.57,12.58-12.58,9.93,5,17.22,2S264,32.48,275.94,34.79s13.24,15.56,26.81,14.57S321,48,325.93,55.65Z"/><path class="a" d="M315.36,24.66s5.44-12,20.31-8.45c14.7,3.55,21-17.5,34.12-16.15s8.4,13.44,25.1,16.15,21.53-3.88,28.56,8.45Z"/><path class="b" d="M103.49,51.85a.87.87,0,0,1-.68-.32L88.44,34.1,74.07,51.53a.88.88,0,0,1-1.36-1.11L87.76,32.16a.89.89,0,0,1,.68-.31.85.85,0,0,1,.67.31l15,18.26a.86.86,0,0,1-.12,1.23.83.83,0,0,1-.5.2Z"/><rect class="b" width="70.54" height="90.31" rx="4.16" transform="translate(53.17 50.12)"/><rect class="a" width="79.24" height="59.48" rx="2.3" transform="translate(118.18 55.66) rotate(90)"/><path class="b" d="M163.35,93.35a.84.84,0,0,1-.56-.2.87.87,0,0,1-.12-1.23l15.05-18.26a.89.89,0,0,1,1.35,0l15.05,18.26a.87.87,0,0,1-.12,1.23.86.86,0,0,1-1.23-.12L178.39,75.6,164,93A.86.86,0,0,1,163.35,93.35Z"/><rect class="b" width="74.36" height="49.58" rx="2.28" transform="translate(141.22 90.85)"/><rect class="a" width="40.93" height="65.71" rx="1.25" transform="translate(211.25 95.17) rotate(90)"/><path class="c" d="M394,108.44l-3.65,5.46a1.57,1.57,0,0,1-1.33.71H238.19a1.57,1.57,0,0,1-1.33-.71l-3.65-5.46a1.59,1.59,0,0,1,1.33-2.48H392.65a1.59,1.59,0,0,1,1.35,2.48Z"/><path class="d" d="M254.2,114.61l4.54,10.68h6.89l-.61-10.68Z"/><path class="d" d="M372.99,114.61l-4.54,10.68h-6.89l.61-10.68Z"/><path class="e" d="M370.91,80.57a.5.5,0,0,1-.5-.5V47.39a.5.5,0,0,1,1,0V80.07A.5.5,0,0,1,370.91,80.57Z"/><path class="f" d="M384.87,79.34l-.53,2-.1.37-.48,1.77-.1.38-4.74,17.58-.11.37-.47,1.77-.1.38-.63,2.32a50.52,50.52,0,0,1-13.4,0l-.62-2.32-.1-.38-.48-1.77-.1-.37-4.74-17.58-.11-.38-.47-1.77-.1-.37-.53-2Z"/><path class="g" d="M384.34,81.3l-.1.37H357.59l-.1-.37Z"/><path class="g" d="M383.76,83.44l-.1.38H358.17l-.11-.38Z"/><path class="g" d="M378.92,101.4l-.11.37h-15.8l-.1-.37Z"/><path class="g" d="M378.34,103.54l-.1.38H363.59l-.1-.38Z"/><path class="h" d="M372.7,54.52a1.42,1.42,0,0,1-1.75-1.1,1.06,1.06,0,0,1,0-.31,1.43,1.43,0,0,1,.34-.92c1.91-2.31,11.59-13.51,16.13-8.83C392.86,49,378,53.24,372.7,54.52Z"/><path class="i" d="M381.26,48l-10.08,6a1.45,1.45,0,0,1-.23-.54l10-5.92a.292.292,0,1,1,.3.5Z"/><path class="h" d="M370.91,58.65a1.55,1.55,0,0,1,0,.31,1.47,1.47,0,0,1-.24.54,1.43,1.43,0,0,1-1.52.56c-5.29-1.28-20.15-5.5-14.67-11.16,4.53-4.68,14.21,6.52,16.13,8.83A1.48,1.48,0,0,1,370.91,58.65Z"/><path class="i" d="M370.88,59a1.47,1.47,0,0,1-.24.54l-10.08-6a.3.3,0,0,1-.1-.4.28.28,0,0,1,.4-.1Z"/><path class="h" d="M372,47.3a1.45,1.45,0,0,1-.43.88,1.5,1.5,0,0,1-.25.19,1.409,1.409,0,0,1-.55.2,1.48,1.48,0,0,1-1.46-.71c-2.71-4.72-9.92-18.39-2-18.33C373.8,29.59,372.37,44.32,372,47.3Z"/><path class="i" d="M371.33,48.37a1.41,1.41,0,0,1-.55.2l-2.64-11.41a.3.3,0,0,1,.22-.35.29.29,0,0,1,.35.22Z"/><path class="h" d="M372.7,66.41a1.42,1.42,0,0,1-1.75-1.1,1.06,1.06,0,0,1,0-.31,1.43,1.43,0,0,1,.34-.92c1.91-2.31,11.59-13.51,16.13-8.83C392.86,60.91,378,65.12,372.7,66.41Z"/><path class="i" d="M381.26,59.89l-10.08,6a1.45,1.45,0,0,1-.23-.54l10-5.92a.292.292,0,1,1,.3.5Z"/><path class="h" d="M370.91,70.54a1.55,1.55,0,0,1,0,.31,1.47,1.47,0,0,1-.24.54,1.43,1.43,0,0,1-1.52.56c-5.29-1.28-20.15-5.5-14.67-11.16,4.53-4.68,14.21,6.52,16.13,8.83A1.48,1.48,0,0,1,370.91,70.54Z"/><path class="i" d="M370.88,70.85a1.47,1.47,0,0,1-.24.54l-10.08-6a.3.3,0,0,1,.3-.51Z"/><path class="h" d="M372.7,77.61a1.42,1.42,0,0,1-1.75-1.1,1.06,1.06,0,0,1,0-.31,1.43,1.43,0,0,1,.34-.92c1.91-2.31,11.59-13.51,16.13-8.83C392.86,72.11,378,76.32,372.7,77.61Z"/><path class="i" d="M381.26,71.08l-10.08,6a1.45,1.45,0,0,1-.23-.54l10-5.92a.28.28,0,0,1,.4.1.27.27,0,0,1-.09.36Z"/><path class="f" d="M274.88,99.39h.87V98.1H243a3.93,3.93,0,1,0,0,7.86h32.73v-1.12h-.87Z"/><path class="b" d="M275.11,99.39v5.45h-30a2.69,2.69,0,0,1-2.65-2.72,2.75,2.75,0,0,1,.78-1.93,2.61,2.61,0,0,1,1.87-.8Z"/><path class="a" d="M275.11,100.77v.83H245.85a.41.41,0,0,1-.41-.41h0a.41.41,0,0,1,.41-.42Z"/><path class="a" d="M275.11,102.82v.83H245.85a.41.41,0,0,1-.41-.41h0a.41.41,0,0,1,.41-.42Z"/><path class="j" d="M274.88,91.9h.87V90.6H243a3.93,3.93,0,1,0,0,7.86h32.73V97.34h-.87Z"/><path class="b" d="M275.11,91.9v5.44h-30a2.69,2.69,0,0,1-2.65-2.72,2.78,2.78,0,0,1,.78-1.93,2.61,2.61,0,0,1,1.87-.79Z"/><path class="a" d="M275.11,93.28v.83H245.85a.41.41,0,0,1-.41-.42h0a.41.41,0,0,1,.41-.41Z"/><path class="a" d="M275.11,95.33v.83H245.85a.41.41,0,0,1-.41-.42h0a.41.41,0,0,1,.41-.41Z"/><path class="k" d="M312.73,91.53h.86V90.24H280.86a3.93,3.93,0,0,0,0,7.86h32.73V97h-.86Z"/><path class="b" d="M313,91.53V97H283a2.68,2.68,0,0,1-2.65-2.72,2.74,2.74,0,0,1,.77-1.93,2.66,2.66,0,0,1,1.88-.8Z"/><path class="a" d="M313,92.91v.83H283.7a.41.41,0,0,1-.42-.41h0a.42.42,0,0,1,.42-.42Z"/><path class="a" d="M313,95v.83H283.7a.41.41,0,0,1-.42-.41h0a.42.42,0,0,1,.42-.42Z"/><path class="h" d="M312.73,99.39h.86V98.1H280.86a3.93,3.93,0,0,0,0,7.86h32.73v-1.12h-.86Z"/><path class="b" d="M313,99.39v5.45H283a2.68,2.68,0,0,1-2.65-2.72,2.74,2.74,0,0,1,.77-1.93,2.66,2.66,0,0,1,1.88-.8Z"/><path class="a" d="M313,100.77v.83H283.7a.41.41,0,0,1-.42-.41h0a.42.42,0,0,1,.42-.42Z"/><path class="a" d="M313,102.82v.83H283.7a.41.41,0,0,1-.42-.41h0a.42.42,0,0,1,.42-.42Z"/><ellipse class="a" cx="179.95" cy="8.88" rx="179.95" ry="8.88" transform="translate(54.39 330.6)"/><path class="l" d="M392.56,281.6H84.25c-5.78-24.25-26.8-118.31-6.55-124.48,23.25-7.09,124.2-9.92,157.37,0a14.58,14.58,0,0,1,2.14.83c.29.13.57.28.85.44a7.649,7.649,0,0,1,1.68-1,6.178,6.178,0,0,1,.72-.26c23.25-7.09,124.2-9.92,157.37,0C426.67,165.75,400,257.67,392.56,281.6Z"/><path class="m" d="M87,228.92a.89.89,0,0,1-.88-.76c-.78-4.86-1.82-10.13-2.82-15.22-4.4-22.37-9-45.51,4.58-49.95,16.55-5.43,88.62-4,91.68-4a.9.9,0,0,1,0,1.79c-.75,0-74.83-1.47-91.1,3.87-12,3.94-7.62,26.29-3.37,47.9,1,5.1,2,10.38,2.83,15.28a.9.9,0,0,1-.75,1Z"/><path class="m" d="M174.51,263.24c-16.31,0-33.69-.2-48.2-.83a.9.9,0,1,1,.08-1.79c28.28,1.23,67.49.83,88.35.47a13.81,13.81,0,0,0,9.87-4.3,13.25,13.25,0,0,0,3.69-9.64c-.86-25.27-4.27-66.41-4.3-66.83a.893.893,0,0,1,1.78-.14c0,.41,3.45,41.6,4.31,66.9A15.05,15.05,0,0,1,225.91,258a15.61,15.61,0,0,1-11.14,4.86C204.59,263.06,190,263.24,174.51,263.24Z"/><path class="m" d="M392.85,228.92h-.14a.91.91,0,0,1-.75-1c.79-4.9,1.83-10.18,2.83-15.28,4.25-21.61,8.64-44-3.37-47.9-16.27-5.34-90.35-3.89-91.09-3.87h0a.9.9,0,0,1,0-1.79c3.06-.07,75.13-1.48,91.69,4,13.52,4.44,9,27.58,4.57,50-1,5.08-2,10.35-2.81,15.21A.9.9,0,0,1,392.85,228.92Z"/><path class="m" d="M305.35,263.24c-15.52,0-30.08-.18-40.26-.35A15.61,15.61,0,0,1,254,258a15.05,15.05,0,0,1-4.18-10.95c.86-25.3,4.27-66.49,4.31-66.9a.9.9,0,0,1,1.79.14c0,.42-3.44,41.56-4.3,66.83a13.2,13.2,0,0,0,3.68,9.64,13.81,13.81,0,0,0,9.87,4.3c20.86.36,60.08.76,88.36-.47a.9.9,0,1,1,.07,1.79C339,263,321.66,263.24,305.35,263.24Z"/><path class="m" d="M239.76,281.6h-2.55c2.32-49.84.71-104.33,0-123.65.29.13.57.28.85.44a7.65,7.65,0,0,1,1.68-1C240.45,176.31,242.1,231.29,239.76,281.6Z"/><rect class="l" width="325.81" height="42.82" rx="13.8" transform="translate(74.29 268.84)"/><path class="n" d="M363.75,277.78c0,2.76-59.53,5-133,5s-133-2.23-133-5,59.53-5,133-5S363.75,275,363.75,277.78Z"/><rect class="n" width="270.41" height="8.55" transform="translate(111.2 303.11)"/><path class="n" d="M105.92,311.66c6.54-11.34,4.94-31.43,3.31-42.82h2.51c5.29,14.64,7,35.34,7.48,42.82Z"/><path class="n" d="M373.57,311.66c-6.53-11.34-4.93-31.43-3.3-42.82h-2.51c-5.29,14.64-7,35.34-7.49,42.82Z"/><path class="l" d="M122.05,340.44H111.76a4.29,4.29,0,0,1-4-2.77l-7.42-19.43-2.52-6.58H125l.37,6.58,1,17.66a4.3,4.3,0,0,1-4.32,4.54Z"/><g class="o"><path class="n" d="M124.98,311.66l.37,6.58H100.33l-2.52-6.58Z"/></g><path class="l" d="M381.46,311.66,379,318.24l-7.42,19.43a4.31,4.31,0,0,1-4,2.77H357.22a4.31,4.31,0,0,1-4.29-4.54l1-17.66.37-6.58Z"/><g class="o"><path class="n" d="M381.46,311.66l-2.51,6.58H353.93l.37-6.58Z"/></g><path class="p" d="M100.88,228a26.74,26.74,0,0,0-19.83-20.2c-7.74-1.84-16.9-2.29-24.48,2.2-16.73,9.93-6.24,85.35,8.51,98.68s34.15,11.53,42,1.7C117,297.91,106.76,254.4,100.88,228Z"/><path class="n" d="M86.44,226.77a.9.9,0,0,1-.88-.71c-.09-.42-2.28-10.09-13.63-10.09h-.82c-12.12.48-13.66,9.92-13.68,10a.9.9,0,1,1-1.77-.27,13.31,13.31,0,0,1,2.56-5.61c2-2.55,5.75-5.66,12.82-5.93s11.15,2.85,13.3,5.53a15.65,15.65,0,0,1,3,6,.89.89,0,0,1-.7,1.06.55.55,0,0,1-.2.02Z"/><path class="n" d="M87.31,313.07a23.59,23.59,0,0,1-12.64-4c-5.46-3.5-10-9-13.33-16.44a81,81,0,0,1-6-21,133,133,0,0,1-1.43-25.82.9.9,0,1,1,1.79.11,131.73,131.73,0,0,0,1.42,25.47c2,12.35,6.74,28.65,18.49,36.18,7.09,4.54,14.71,4.95,20.39,1.1,8-5.45,10.76-18.18,7.51-34.94a.88.88,0,0,1,.71-1,.89.89,0,0,1,1,.71c3.39,17.49.38,30.89-8.27,36.76a17.05,17.05,0,0,1-9.64,2.87Z"/><path class="n" d="M82.52,231.13S81.38,220.07,70,221.2s-11.12,19.42-.85,21.55C84.22,245.87,82.52,231.13,82.52,231.13Z"/><path class="l" d="M378.76,228a26.74,26.74,0,0,1,19.82-20.23c7.75-1.84,16.9-2.29,24.48,2.2,16.73,9.93,6.24,85.35-8.5,98.68s-34.15,11.53-42,1.7C362.67,297.91,372.88,254.4,378.76,228Z"/><path class="n" d="M422.54,226.77a.9.9,0,0,1-.88-.71c-.09-.43-2.37-10.54-14.44-10.07s-13.67,9.92-13.68,10a.89.89,0,0,1-1,.75.9.9,0,0,1-.76-1,13.46,13.46,0,0,1,2.56-5.61c1.95-2.55,5.76-5.66,12.83-5.93s11.14,2.85,13.29,5.53a15.65,15.65,0,0,1,3,6,.89.89,0,0,1-.7,1.06.55.55,0,0,1-.22-.02Z"/><path class="n" d="M392.74,311.87a16.16,16.16,0,0,1-10.23-3.46c-7.78-6.17-10.13-19.53-6.62-37.6a.89.89,0,0,1,1.05-.71.88.88,0,0,1,.71,1c-3.37,17.38-1.25,30.12,6,35.86,4.62,3.66,11.08,4.06,17.75,1.08,19.93-8.89,22.05-61.75,22.07-62.28a.88.88,0,0,1,.93-.86.89.89,0,0,1,.87.92,191.4,191.4,0,0,1-3.57,28.23c-4.14,19.69-10.72,31.68-19.57,35.63a23,23,0,0,1-9.39,2.19Z"/><path class="n" d="M397.12,231.13s1.13-11.06,12.48-9.93,11.12,19.42.85,21.55C395.42,245.87,397.12,231.13,397.12,231.13Z"/><path class="f" d="M424,210.61c-6.13,4.91-11.24-2-22.55-2H399.4c-12.75.87-16.59,20.19-21.72,11.89-3.95-6.38-2.35-22.54-2.35-22.54s13.89-25.37,23.08-28.26,14.66-2.9,22,4.19C429,182.29,430.44,205.43,424,210.61Z"/><path class="g" d="M401.4,208.58h-1.47c-5.69-5-17.15-6.07-17.3-6.08a.512.512,0,0,1,.09-1.02C383.36,201.56,395.78,202.74,401.4,208.58Z"/><path class="g" d="M408.64,198a.49.49,0,0,1-.48-.36c-3.57-12.58-18.88-15.51-19-15.54a.508.508,0,1,1,.18-1,31.67,31.67,0,0,1,8.47,3.11c5.88,3.14,9.8,7.68,11.35,13.14a.51.51,0,0,1-.35.62Z"/><path class="g" d="M418.82,190a.51.51,0,0,1-.39-.18c-8.63-10.65-25.5-8.13-25.67-8.11a.49.49,0,0,1-.57-.41.5.5,0,0,1,.42-.57,37.749,37.749,0,0,1,9.86,0c7.22.93,13,3.85,16.74,8.45a.5.5,0,0,1-.07.7.56.56,0,0,1-.32.12Z"/><path class="d" d="M177.71,210.5s-7.19,3.18-46.55-2.75L87.3,206.11,84.82,193c21-5.27,50-8.9,80.37-12.27,14.79-1.64,24.49,15.42,15.22,27.06A15.93,15.93,0,0,1,177.71,210.5Z"/><path class="q" d="M92.34,206.38l-15.94-.51-1.98-11.4,9.59-.99,2.21-.23,5.04-.52Z"/><path class="q" d="M74.42,194.47S61.05,185,57.08,177.66s-5.84-10-7.27-9.88-.73,2.17,0,4.95c.64,2.44,1.62,5.58,2.88,9.66s3.9,9,5,12.11c.91,2.74,2.6,10.28,5.39,13.23,4.11,4.33,16-2.14,16-2.14Z"/><path class="d" d="M88.17,206.25l-5.19-.17-.07-12.49,3.31-.34Z"/><path class="c" d="M83.52,191.44,86,208.16a8,8,0,0,0,7.13.12L91,190.18a10.61,10.61,0,0,0-7.48,1.26Z"/><path class="d" d="M165.09,180.78s35.84-3,53.39,1.94,20.81,25.85-47.64,28.49Z"/><path class="c" d="M168.93,206.49q-5.1,0-10.8-.36a217.944,217.944,0,0,1-25.49-3.19l-44.2-.06a.63.63,0,1,1,0-1.25h0l44.26.06h.12a212.191,212.191,0,0,0,25.41,3.18c18.27,1.16,32.47-.61,41.06-5.12a.63.63,0,0,1,.58,1.11C192.76,204.61,182.38,206.49,168.93,206.49Z"/><path class="q" d="M162.01,257.89l-11.56,10.99-9.5-6.61,6.02-7.52,1.4-1.73,3.17-3.95Z"/><path class="q" d="M141,262.27s-16.17,2.83-24.15.54-11.19-2.85-12.14-1.76,1,2,3.52,3.47c2.2,1.26,5.12,2.76,8.9,4.74s9.11,3.51,12.1,5c2.59,1.28,9.14,5.37,13.2,5.46,6,.11,9.71-12.89,9.71-12.89Z"/><path class="d" d="M158.98,260.77l-3.44,3.27-9.26-8.42,2.09-2.6Z"/><path class="d" d="M285.78,264.1c-.08.23-.16.47-.25.7a12.524,12.524,0,0,1-.56,1.36c-.12.25-.24.49-.38.72-3.49,6.35-11.66,9.91-25.48,5.58-14.15-4.43-34.53-36-47.66-58.81q-1.29-2.24-2.47-4.32l-.71-1.27c-.34-.6-.67-1.18-1-1.77l-.7-1.25c-3.17-5.71-5.57-10.28-6.89-12.82a28.35,28.35,0,0,1-2.55-6.88c-.91-4.14-.61-7.22.6-9.33a5.881,5.881,0,0,1,.52-.78h0c4.83-6.22,19.35-1.81,31.92,9.63C244.6,198,282.63,240.29,285.88,253a20.51,20.51,0,0,1-.1,11.1Z"/><path class="d" d="M221.33,192.38s1.62,10.82-29.47,31.37L160,258.9l-11.63-6.49c10-20.56,27.05-46.83,45-73.79a13.38,13.38,0,0,1,20.7-2C218.13,180.85,221.55,186.23,221.33,192.38Z"/><path class="c" d="M285.53,264.8a12.524,12.524,0,0,1-.56,1.36c-.12.25-.24.49-.38.72a20.86,20.86,0,0,1-4.47,1.58,24.07,24.07,0,0,1-5.63.65c-6.83,0-14-2.74-20.23-7.89C239.43,249,217,206.54,213,198.92a43,43,0,0,1-5.74,7.37c-7.79,8.24-18.15,14.55-19.39,15.29l-29,33.71a.68.68,0,0,1-1,.08.69.69,0,0,1-.07-1l29.05-33.79a.46.46,0,0,1,.17-.14c.15-.09,11.4-6.82,19.47-15.44a39.08,39.08,0,0,0,5.88-7.86.68.68,0,0,1,.6-.35.65.65,0,0,1,.59.37c.26.5,25.72,50,41.47,63,7.69,6.31,16.69,8.86,24.69,7a19.09,19.09,0,0,0,5.81-2.36Z"/><path class="c" d="M144.92,253.77l14.48,8.74a8.05,8.05,0,0,0,4.6-5.41l-15.3-9.9A10.58,10.58,0,0,0,144.92,253.77Z"/><path class="r" d="M321.86,196.21l-15.7,10.14,7.79,5.47,12.8-11.67Z"/><path class="r" d="M346.66,180.25l-28.88,13.66,7.71,10.82S340.65,191.33,346.66,180.25Z"/><path class="r" d="M362.75,185.4s-8.75-4.6-14.41-5.4S330,199.49,312,206c-21.82,7.94-36.51,12.53-46.24,12.8s14.42,20.64,13.88,35.25c-.54,15.41-4.53,24.59,12.71,21.36,21.63-4.06,52.18-20.28,65.7-32.72s20.55-18.93,21.91-26.5-2.71-18.93-2.71-18.93S366.07,194.87,362.75,185.4Z"/><path class="s" d="M289.27,252.58a.42.42,0,0,1-.28-.1.5.5,0,0,1-.13-.69c8.72-12.41,6.56-33.65,6.54-33.87a.5.5,0,1,1,1-.1c0,.21,2.21,21.83-6.72,34.54a.49.49,0,0,1-.41.22Z"/><path class="s" d="M371.19,200.9h-.09c-6.87-1.28-10.66-4.84-12.62-7.6a15.77,15.77,0,0,1-2.66-5.78.51.51,0,0,1,.41-.58.5.5,0,0,1,.58.4,14.94,14.94,0,0,0,2.51,5.42c2.7,3.77,6.73,6.18,12,7.16a.5.5,0,0,1,.4.58A.51.51,0,0,1,371.19,200.9Z"/><path class="s" d="M317.78,241.33h-.11a.49.49,0,0,1-.37-.6,107.88,107.88,0,0,1,16.54-37.15,71.651,71.651,0,0,1,10.66-12.33.51.51,0,0,1,.71.06.52.52,0,0,1-.06.71,70.221,70.221,0,0,0-10.52,12.17,107,107,0,0,0-16.36,36.77.5.5,0,0,1-.49.37Z"/><path class="s" d="M314.81,241.33a.5.5,0,0,1-.5-.47c-1.08-14.86,8.1-29.63,8.19-29.77a.49.49,0,0,1,.69-.16.5.5,0,0,1,.15.69c-.09.14-9.09,14.64-8,29.17a.49.49,0,0,1-.46.53Z"/><path class="s" d="M344.82,227a.51.51,0,0,1-.42-.77c.06-.1,6.39-9.95,15.86-15.31a15.57,15.57,0,0,1,15.39-.26.5.5,0,0,1-.54.84,14.54,14.54,0,0,0-14.36.29c-9.25,5.24-15.44,14.88-15.5,15A.52.52,0,0,1,344.82,227Z"/><path class="q" d="M367.81,236.5c-.71.79-1.41,1.56-2.12,2.31-1.89,2-3.77,3.89-5.63,5.63-23.45,21.89-43.79,22.29-41.46,15.31,1.47-4.43,5.58-9.45,10.47-14.22.44-.44.9-.87,1.36-1.31A169.823,169.823,0,0,1,346.66,231l2.31-1.65.21-.15c2.47-1.72,4-2.74,4-2.74Z"/><path class="d" d="M331.3,252.09c0-2.84-2.23-6.56-2.23-6.56.44-.44.9-.87,1.36-1.31a13.8,13.8,0,0,1,.87,7.87Z"/><path class="q" d="M329.68,246.77A139.163,139.163,0,0,0,318.41,228c-6.89-9.88-8.61-19-15.34-18.78s8.22,36.95,10.93,44.91,5.17,10.81,11.31,9.54S329.68,246.77,329.68,246.77Z"/><path class="d" d="M365.69,238.81c-1.89,2-3.77,3.89-5.63,5.63L346.66,231l2.31-1.65.21-.15Z"/><path class="r" d="M344.82,228.12,364.56,243s16.5-13.25,15.69-22.44-8.12-10.28-10.82-10.28c-2.041,0-7.952-.469-16.312,7.581A62.46,62.46,0,0,0,344.82,228.12Z"/><path class="r" d="M311,212.23s3.58-3.74,2.9-6.38-5.06-1.71-5.06-1.71Z"/><path class="q" d="M301.87,217.15s-8-4.58-5.27-9.2c3.52-6,11.09-4.88,14.06-3.8,3.45,1.25,0,9.12,1.35,13C312,217.15,305.09,220.31,301.87,217.15Z"/><path class="q" d="M290.81,214.22c1.23-1.57,4.86-2.44,4.86-2.44s-3.24-2.38-10.87-1.87c0,0-5.34-.06-8.85,6.47-2.77,5.15-3.12,16-1.67,15.38,1.07-.47.58-3,1.76-6.08a26.579,26.579,0,0,0-.27,5.19c.24,1.72-.07,5.47,1.41,5.31s.52-6.69,1.78-9.51a48.431,48.431,0,0,0-.35,6.2c.06,3.16.26,5.76,1.35,5.52s.84-4.11,1.1-5.83.06-4.85.47-5.58c0,0,0,6,.73,8s1.79,1.35,1.93-2.63c0,0,.11-7.61,1.6-10.41S290.81,214.22,290.81,214.22Z"/><path class="q" d="M290.34,214.76l-.27,1.48a25.08,25.08,0,0,1-.73,4.86c-.6,2.13-.22,3.84-.63,5.58s-2.42.34-2.09-3.1a6.56,6.56,0,0,0-1.71-5.32S286.5,214.08,290.34,214.76Z"/><path class="q" d="M405.6,173.27a10.76,10.76,0,0,1-9.26,8.11c-7.82,1-35.5,2.65-38.69-4.32s9.77-21.45,17.43-26.8,17.39.88,22.94,4.53S407.44,167.66,405.6,173.27Z"/><path class="d" d="M374.12,160.31h0a3.13,3.13,0,0,1-2.42-1.47,2.85,2.85,0,0,1,.55-3.13.38.38,0,0,1,.55.51,2.07,2.07,0,0,0-.44,2.26,2.38,2.38,0,0,0,1.81,1.08.37.37,0,0,1,.35.4.38.38,0,0,1-.4.35Z"/><path class="t" d="M387,180.07a6,6,0,0,1-3.62-1.18s.3,2.09,5.11,2.28A2,2,0,0,0,387,180.07Z"/><path class="q" d="M389.21,182s-10.58,11.36-11.87,15.29a17.28,17.28,0,0,1-9.66-3.14,17.59,17.59,0,0,1-6.19-7.75,1.94,1.94,0,0,1-.07-.19l7.38-4.51s3.64-2.84,12.34-1.65a45.36,45.36,0,0,1,8.07,1.95Z"/><path class="t" d="M381.14,180.05a14.82,14.82,0,0,1-12,7.24,18.77,18.77,0,0,1-7.67-.89,1.947,1.947,0,0,1-.07-.19l7.38-4.51S372.44,178.86,381.14,180.05Z"/><path class="d" d="M408.22,175.36c-5.35,8-19,6.64-19,6.64l-2.2-1.93s6.05.11,10.16-4-.8-8.13-5.89-6a7.66,7.66,0,0,0-1.2.63c-.21.13-.43.28-.64.43-4.34,3.15-8.38,10.2-14.14,12.09-6.56,2.16-16.24,1.93-19.26-3.38s3.49-15.22,7.22-18c0,0,4.3.43,5.21,4.23s.41,4.67,4,6.26,9.58-.33,12.59-3.55a17.38,17.38,0,0,1-.89-3.27c-.07-.34-.12-.7-.16-1.07a9,9,0,0,1,.77-5.21c2.06-3.77-6-3.21-5.52-9.68,0,0-9-15.12.33-19.09,3.91-1.67,7.29,5.59,7.29,5.59-.49-6.62,4-5.41,5.33-3.51s1.35,9.55,1.35,9.55.31-6.53,2.31-6.67,4,3.2,3.91,10.91,6.1,12.68,6.1,12.68a10,10,0,0,1,1.78,2C409.37,163.53,412.23,169.38,408.22,175.36Z"/><path class="c" d="M359.33,169.88a.46.46,0,0,0,.13.18,5.72,5.72,0,0,0,5.77.36.49.49,0,0,0,.25-.63h0a.48.48,0,0,0-.63-.24,4.8,4.8,0,0,1-4.78-.22.48.48,0,0,0-.74.56Z"/><path class="d" d="M377.81,158.93a.706.706,0,0,0,1.31.12,5,5,0,0,0-1.44-6.42.71.71,0,0,0-.82,1.16c2.4,1.7,1.05,4.5,1,4.61a.66.66,0,0,0-.05.53Z"/><path class="q" d="M370.91,154.23a42.689,42.689,0,0,1-7.53,2.48c-2.64.39.87,4.42.87,4.42Z"/><path class="t" d="M386.92,175.74a.722.722,0,0,0,.1.22.61.61,0,0,0,.85.17,9.65,9.65,0,0,1,7.25-1.32.621.621,0,1,0,.32-1.2,10.84,10.84,0,0,0-8.26,1.49.65.65,0,0,0-.26.64Z"/><path class="t" d="M390.46,174.5a.69.69,0,0,0,.14.3,2.46,2.46,0,0,1,.4,1.29.62.62,0,0,0,.65.58.63.63,0,0,0,.59-.65,3.8,3.8,0,0,0-.72-2.05.63.63,0,0,0-.87-.05.59.59,0,0,0-.19.58Z"/><path class="b" d="M389.27,174.63s-.24,2.76,1.33,2.8.73-3.5.73-3.5a4.56,4.56,0,0,0-2.06.7Z"/><path class="b" d="M389.94,174.71s-6.43,2.26-5.73,3.58c.58,1.1,6-1.9,6-1.9Z"/><path class="b" d="M376.54,154c-1.5-1.38-4.11-1.07-6.26.59a7.72,7.72,0,0,0-.62.54q-.21.19-.42.42a7.59,7.59,0,0,0-2,4,3.76,3.76,0,0,0,1,3.44,3.42,3.42,0,0,0,2.39.87,5.8,5.8,0,0,0,2.51-.62,8.21,8.21,0,0,0,2.4-1.8l.22-.26a7.511,7.511,0,0,0,.5-.65C377.92,158.11,378.08,155.37,376.54,154ZM375,160.82c-2,2.16-4.78,2.84-6.21,1.52a3,3,0,0,1-.79-2.78,6.81,6.81,0,0,1,1.8-3.56,8.573,8.573,0,0,1,.7-.66h0a5.82,5.82,0,0,1,3.62-1.52,2.73,2.73,0,0,1,1.89.68C377.45,155.83,377,158.66,375,160.82Z"/><path class="b" d="M370.27,155.43a.37.37,0,0,1-.3-.14c-.08-.09-.48-.51-1.23,0a.382.382,0,1,1-.4-.65,1.63,1.63,0,0,1,2.23.22.38.38,0,0,1-.07.54A.34.34,0,0,1,370.27,155.43Z"/><path class="b" d="M390.08,170.68c-.21.13-.43.28-.64.43a24.161,24.161,0,0,0-5.24-5.65,25.35,25.35,0,0,0-8.4-4.37l-.23-.06a.385.385,0,0,1,.17-.75l.56.16a26.56,26.56,0,0,1,7.74,3.95,25.16,25.16,0,0,1,6.04,6.29Z"/><path class="a" d="M448.59,360.76c0,1.72-10.48,3.12-23.4,3.12s-23.39-1.4-23.39-3.12,10.47-3.12,23.39-3.12S448.59,359,448.59,360.76Z"/><path class="h" d="M423.27,310.32h-6.68s-33.07-68-24.09-78.54C404.07,218.24,419.1,256.9,423.27,310.32Z"/><path class="i" d="M421.17,310.32h-1.09l-21-68.88a.522.522,0,0,1,1-.3Z"/><path class="h" d="M427.2,310.32h6.68s33.07-68,24.09-78.54C446.4,218.24,431.37,256.9,427.2,310.32Z"/><path class="i" d="M429.3,310.32h1.09l21-68.88a.54.54,0,0,0-.35-.65.52.52,0,0,0-.65.35Z"/><path class="h" d="M429.18,310.32h-5.91c-13.06-62.55-7.84-114.94,5.39-105.11S429.18,310.32,429.18,310.32Z"/><path class="i" d="M425.71,217.94l-.7,92.38h-1l.7-92.39a.53.53,0,0,1,.53-.52.52.52,0,0,1,.47.53Z"/><path class="f" d="M451,310.32l-1,3.62-.18.69-.88,3.27-.19.69L440,351l-.19.69-.88,3.27-.19.69-1.15,4.29a93.768,93.768,0,0,1-24.71,0l-1.15-4.29-.19-.69-.88-3.27-.19-.69-8.74-32.41-.19-.69-.88-3.27-.18-.69-1-3.62Z"/><path class="g" d="M449.99,313.94l-.18.69H400.66l-.18-.69Z"/><path class="g" d="M448.93,317.89l-.19.7H401.73l-.19-.7Z"/><path class="g" d="M440,351l-.19.69H410.66l-.19-.69Z"/><path class="g" d="M438.93,354.96l-.19.69H411.73l-.19-.69Z"/><path class="a" d="M66.46,360.76c0,1.72-12.28,3.12-27.43,3.12s-27.43-1.4-27.43-3.12,12.28-3.12,27.43-3.12S66.46,359,66.46,360.76Z"/><path class="f" d="M61.8,313.76a4.81,4.81,0,0,1-.07.64l-.57,3.69L61,319.2l-.08.56v.14l-.5,3.26-.1.7v.06L60,325.59l-3.64,24-.26,1.66-.07.48-.1.69-.46,3v.27l-.11.69-.1.71-.25,1.6a2.49,2.49,0,0,1-2.47,2.12h-27a2.5,2.5,0,0,1-2.47-2.12l-.24-1.6-.11-.71-.1-.69-.05-.27-.45-3-.11-.69-.07-.48-.25-1.66-3.64-24-.25-1.67v-.06l-.11-.7-.49-3.26v-.14l-.09-.56-.17-1.11-.56-3.69a4.81,4.81,0,0,1-.07-.64Z"/><path class="g" d="M60.99,319.2l-.08.56-.02.14H17.17l-.02-.14-.09-.56Z"/><path class="g" d="M60.39,323.17l-.1.69H17.77l-.11-.69Z"/><path class="g" d="M56.06,351.68l-.1.69H22.1l-.11-.69Z"/><path class="g" d="M55.46,355.64l-.11.69H22.7l-.1-.69Z"/><path class="h" d="M72.6,257.88C61.78,255,45.24,277.49,40.22,299.4V267.48c2.52-4.47,7.34-11.21,16.08-18.33C69.89,238.08,82.4,223.88,71.56,221c-10.17-2.67-25.36,17-31.34,37.5v-41a43.4,43.4,0,0,1,9.21-10c8.56-7,16.45-15.93,9.61-17.73-5.93-1.56-14.58,8.94-18.82,20.78V197.29a63,63,0,0,1,4.41-16c6.3-13.9,9.7-28.22,1.4-27.16S32.32,180,36.87,199v6.84c-3.07-13.91-13.61-28.32-20.48-26.51S17.44,190.07,26,197c6.52,5.31,9.57,10.28,10.87,13v32.28c-4.93-22-21.58-44.73-32.46-41.87s1.67,17.06,15.26,28.13c10.27,8.37,15.12,16.2,17.2,20.47v38.71C31.61,266.11,15.38,244.3,4.7,247.11-6.14,250,3.16,260.35,18.43,272.9a72.18,72.18,0,0,1,18.44,22.44v18.42h3.35v-7.44c2.12-4.3,7-12.05,17.12-20.31C70.94,274.94,83.45,260.74,72.6,257.88Z"/><path class="i" d="M35.82,243.73a.39.39,0,0,1-.35-.25,81,81,0,0,0-24.24-33.33.36.36,0,0,1-.08-.52.37.37,0,0,1,.52-.08,81.77,81.77,0,0,1,24.5,33.67.37.37,0,0,1-.21.48.35.35,0,0,1-.14.03Z"/><path class="i" d="M38.36,189.35h0A.38.38,0,0,1,38,189c1.4-18.37,7.48-29.91,7.55-30a.36.36,0,0,1,.5-.15.38.38,0,0,1,.16.51c-.06.11-6.07,11.53-7.46,29.72A.37.37,0,0,1,38.36,189.35Z"/><path class="i" d="M42.11,212a.32.32,0,0,1-.14,0,.37.37,0,0,1-.21-.49c3.78-9.23,14.07-17.92,14.17-18a.38.38,0,1,1,.48.58c-.1.08-10.25,8.66-14,17.71a.35.35,0,0,1-.3.2Z"/><path class="i" d="M42.11,261.33h-.12a.38.38,0,0,1-.24-.47c6.38-19.67,23.07-31.16,23.24-31.27a.38.38,0,0,1,.52.1.37.37,0,0,1-.1.52c-.17.11-16.65,11.46-22.95,30.88A.36.36,0,0,1,42.11,261.33Z"/><path class="i" d="M41.45,300.39a.321.321,0,0,1-.14,0,.38.38,0,0,1-.21-.49c7.82-19.05,25.4-34.22,25.58-34.38a.38.38,0,0,1,.53.05.37.37,0,0,1,0,.52c-.18.15-17.62,15.22-25.37,34.09a.37.37,0,0,1-.39.21Z"/><path class="i" d="M35.82,289.1a.35.35,0,0,1-.34-.24,85.3,85.3,0,0,0-24.26-34,.38.38,0,0,1,.46-.6,86,86,0,0,1,24.49,34.29.38.38,0,0,1-.21.49Z"/><path class="i" d="M34.82,203.77a.39.39,0,0,1-.35-.25c-4.27-11.2-14.25-17.73-14.35-17.79a.38.38,0,0,1-.11-.52.36.36,0,0,1,.52-.11c.1.06,10.28,6.71,14.64,18.16a.37.37,0,0,1-.21.48.35.35,0,0,1-.14.03Z"/></g></svg>