<svg xmlns="http://www.w3.org/2000/svg" xmlns:xlink="http://www.w3.org/1999/xlink" width="168" height="168" viewBox="0 0 168 168"><defs><style>.a,.f{fill:#fff;}.a,.b{stroke:#707070;}.b,.n{fill:#d0dbff;}.bf,.c{fill:#c8dff7;}.c{opacity:0.28;}.d{clip-path:url(#a);}.e{clip-path:url(#b);}.g{fill:#2f78fa;}.h{fill:url(#c);}.i{fill:#031d7c;}.j{fill:url(#d);}.bc,.be,.k{fill:none;}.k{stroke:#d0dbff;stroke-linecap:round;stroke-miterlimit:10;stroke-width:4px;}.l{fill:url(#e);}.m{fill:url(#f);}.o{fill:#820000;}.p{fill:url(#g);}.q{fill:url(#h);}.r{fill:url(#i);}.s{fill:url(#j);}.t{fill:url(#k);}.u{fill:url(#l);}.v{fill:url(#m);}.w{fill:url(#n);}.x{fill:url(#o);}.y{fill:url(#p);}.z{fill:#003de6;}.aa{fill:url(#q);}.ab{fill:url(#r);}.ac{fill:url(#s);}.ad{fill:url(#t);}.ae{fill:url(#u);}.af{fill:url(#v);}.ag{fill:url(#w);}.ah{fill:url(#x);}.ai{fill:url(#y);}.aj{fill:url(#z);}.ak{fill:url(#aa);}.al{fill:url(#ab);}.am{fill:url(#ac);}.an{fill:url(#ad);}.ao{fill:url(#ae);}.ap{fill:url(#af);}.aq{fill:url(#ag);}.ar{fill:url(#ah);}.as{fill:url(#ai);}.at{fill:url(#aj);}.au{fill:url(#ak);}.av{fill:url(#al);}.aw{fill:#f47960;}.ax{fill:url(#am);}.ay{fill:url(#an);}.az{fill:url(#ao);}.ba{fill:url(#ar);}.bb{fill:url(#as);}.bd,.bf{stroke:none;}</style><clipPath id="a"><circle class="a" cx="60.5" cy="60.5" r="60.5" transform="translate(12862 -217)"/></clipPath><clipPath id="b"><rect class="b" width="133" height="124"/></clipPath><linearGradient id="c" x1="0.5" x2="0.5" y2="1.347" gradientUnits="objectBoundingBox"><stop offset="0.09" stop-color="#001fa9"/><stop offset="1" stop-color="#150e42"/></linearGradient><linearGradient id="d" y1="0.5" x2="1" y2="0.5" gradientUnits="objectBoundingBox"><stop offset="0" stop-color="#f47960"/><stop offset="1" stop-color="#ff1d25"/></linearGradient><linearGradient id="e" x1="390.713" y1="312.255" x2="391.713" y2="312.255" gradientUnits="objectBoundingBox"><stop offset="0" stop-color="#fdf53f"/><stop offset="1" stop-color="#d93c65"/></linearGradient><linearGradient id="f" x1="78.215" y1="-14.213" x2="78.856" y2="-14.213" gradientUnits="objectBoundingBox"><stop offset="0" stop-color="#53d8ff"/><stop offset="1" stop-color="#3840f7"/></linearGradient><linearGradient id="g" x1="200.099" y1="33.795" x2="201.095" y2="33.795" gradientUnits="objectBoundingBox"><stop offset="0" stop-color="#f9b776"/><stop offset="1" stop-color="#f47960"/></linearGradient><linearGradient id="h" x1="36.479" y1="6.457" x2="37.475" y2="6.457" gradientUnits="objectBoundingBox"><stop offset="0.12" stop-color="#021e9e"/><stop offset="0.53" stop-color="#001fa9"/><stop offset="1" stop-color="#201600"/></linearGradient><linearGradient id="i" x1="82.979" y1="192.769" x2="83.411" y2="192.769" xlink:href="#f"/><linearGradient id="j" x1="83.23" y1="96.136" x2="83.65" y2="96.136" gradientUnits="objectBoundingBox"><stop offset="0" stop-color="#2b3582"/><stop offset="1" stop-color="#150e42"/></linearGradient><linearGradient id="k" x1="78.273" y1="-5.152" x2="79.048" y2="-5.152" xlink:href="#j"/><linearGradient id="l" x1="316.516" y1="-4.958" x2="318.021" y2="-4.958" xlink:href="#g"/><linearGradient id="m" x1="39.583" y1="5.981" x2="40.584" y2="5.981" xlink:href="#h"/><linearGradient id="n" x1="178.868" y1="25.767" x2="179.191" y2="24.996" xlink:href="#g"/><linearGradient id="o" x1="135.695" y1="3.438" x2="134.533" y2="4.163" xlink:href="#g"/><linearGradient id="p" x1="684.653" y1="10.105" x2="685.676" y2="10.105" xlink:href="#g"/><linearGradient id="q" x1="673.669" y1="9.875" x2="667.866" y2="12.176" xlink:href="#g"/><linearGradient id="r" x1="43.232" y1="7.219" x2="44.255" y2="6.499" gradientUnits="objectBoundingBox"><stop offset="0" stop-color="#001fa9"/><stop offset="1" stop-color="#2f78fa"/></linearGradient><linearGradient id="s" x1="-29.475" y1="-159.493" x2="-28.328" y2="-159.493" xlink:href="#g"/><linearGradient id="t" x1="121.643" y1="142.511" x2="122.748" y2="142.511" xlink:href="#g"/><linearGradient id="u" x1="46.682" y1="7.374" x2="47.682" y2="7.374" xlink:href="#r"/><linearGradient id="v" x1="64.301" y1="-2.855" x2="65.108" y2="-2.855" xlink:href="#d"/><linearGradient id="w" x1="-8.966" y1="0.916" x2="-8.226" y2="0.916" xlink:href="#f"/><linearGradient id="x" x1="-9.298" y1="0.907" x2="-8.579" y2="0.907" xlink:href="#j"/><linearGradient id="y" x1="-16.308" y1="1.48" x2="-15.252" y2="1.48" xlink:href="#g"/><linearGradient id="z" x1="-2.428" y1="0.69" x2="-1.254" y2="0.69" xlink:href="#h"/><linearGradient id="aa" x1="-10.028" y1="1.926" x2="-8.729" y2="1.926" xlink:href="#f"/><linearGradient id="ab" x1="-7.401" y1="1.929" x2="-6.235" y2="1.929" xlink:href="#j"/><linearGradient id="ac" x1="-12.893" y1="4.374" x2="-11.919" y2="4.374" xlink:href="#g"/><linearGradient id="ad" x1="-1.472" y1="1.264" x2="-0.518" y2="1.264" xlink:href="#h"/><linearGradient id="ae" x1="-8.716" y1="2.523" x2="-8.354" y2="1.737" xlink:href="#g"/><linearGradient id="af" x1="-4.892" y1="1.493" x2="-5.908" y2="2.246" xlink:href="#g"/><linearGradient id="ag" x1="6.463" y1="4.021" x2="7.248" y2="4.021" xlink:href="#g"/><linearGradient id="ah" x1="-20.952" y1="2.98" x2="-25.154" y2="5.663" xlink:href="#g"/><linearGradient id="ai" x1="-0.043" y1="0.501" x2="1" y2="0.501" xlink:href="#g"/><linearGradient id="aj" x1="0.294" y1="0.904" x2="1.409" y2="0.904" xlink:href="#r"/><linearGradient id="ak" x1="0.166" y1="0.105" x2="0.985" y2="0.995" gradientUnits="objectBoundingBox"><stop offset="0.06" stop-color="#001fa9"/><stop offset="1" stop-color="#2f78fa"/></linearGradient><linearGradient id="al" y1="0.502" y2="0.502" xlink:href="#d"/><linearGradient id="am" x1="0" y1="0.5" x2="3.02" y2="0.5" xlink:href="#e"/><linearGradient id="an" y1="0.5" x2="3.022" y2="0.5" gradientUnits="objectBoundingBox"><stop offset="0" stop-color="#f47960"/><stop offset="1" stop-color="#f9b776"/></linearGradient><linearGradient id="ao" y1="0.504" y2="0.504" xlink:href="#d"/><linearGradient id="ar" x1="0" y1="0.5" x2="1" y2="0.5" xlink:href="#h"/><linearGradient id="as" x1="-10.85" y1="-9.072" x2="-9.753" y2="-9.072" xlink:href="#g"/></defs><g transform="translate(-616 -500)"><circle class="c" cx="76" cy="76" r="76" transform="translate(624 508)"/><g class="d" transform="translate(-12222 741)"><g transform="translate(8785.225 -1598)"><g class="b" transform="translate(4071.775 1378)"><rect class="bd" width="133" height="124"/><rect class="be" x="0.5" y="0.5" width="132" height="123"/></g><g class="e" transform="translate(4071.775 1378)"><g transform="translate(-16.325 8.104)"><path class="f" d="M12.48,243a2.29,2.29,0,0,1,2.38-2.167,2.5,2.5,0,0,1,.843.143,1.7,1.7,0,0,1,1.169-1.331,1.936,1.936,0,0,1,1.831.321,2.576,2.576,0,0,1,2.8-1.812,2.457,2.457,0,0,1,2.3,2.336v.156a2.772,2.772,0,0,1,2.781.353,2.248,2.248,0,0,1,.789,2.471,2.531,2.531,0,0,1-2.135,1.672v.028H14.459v-.031A2.248,2.248,0,0,1,12.48,243Z" transform="translate(-8.236 -163.901)"/><path class="f" d="M116.29,83.221a3.151,3.151,0,0,1,1.516-2.654,3.784,3.784,0,0,1,3.244-.36,2.525,2.525,0,0,1,1.741-2.013,2.884,2.884,0,0,1,2.751.492,3.826,3.826,0,0,1,4.2-2.787,3.649,3.649,0,0,1,3.42,3.57V79.7a4.1,4.1,0,0,1,1.564-.312,3.729,3.729,0,0,1,3.831,3.266A3.612,3.612,0,0,1,135.3,86.4v.04H119.252V86.4a3.326,3.326,0,0,1-2.962-3.177Z" transform="translate(-76.745 -52.219)"/><path class="f" d="M337.29,8.588a3.994,3.994,0,0,1,4.157-3.81,4.43,4.43,0,0,1,1.479.252,2.984,2.984,0,0,1,2.058-2.375,3.408,3.408,0,0,1,3.247.579A4.525,4.525,0,0,1,353.175.017,4.312,4.312,0,0,1,357.2,4.17v.271a4.87,4.87,0,0,1,4.833.671,3.95,3.95,0,0,1,1.372,4.3,4.437,4.437,0,0,1-3.678,2.952v.047H340.77v-.056a3.922,3.922,0,0,1-3.479-3.769Z" transform="translate(-222.592 0.01)"/><path class="f" d="M24.29,157.588a3.994,3.994,0,0,1,4.156-3.81,4.428,4.428,0,0,1,1.479.252,2.984,2.984,0,0,1,2.058-2.375,3.408,3.408,0,0,1,3.247.579,4.525,4.525,0,0,1,4.944-3.218,4.312,4.312,0,0,1,4.03,4.153v.271a4.87,4.87,0,0,1,4.833.671,3.951,3.951,0,0,1,1.371,4.3,4.438,4.438,0,0,1-3.678,2.952v.047H27.77v-.056A3.923,3.923,0,0,1,24.29,157.588Z" transform="translate(-16.03 -102.541)"/><path class="f" d="M54.125,310.156c-.51,0-51.008-.153-52.144,0l-.047-.312c1.16-.159,50.111,0,52.2,0Z" transform="translate(-1.277 -213.202)"/><path class="f" d="M68.237,253.159c-.649,0-65.121-.153-66.256,0l-.047-.312c1.16-.156,63.648,0,66.311,0Z" transform="translate(-1.277 -173.974)"/><path class="f" d="M73.678,179.156c-.7,0-70.562-.153-71.7,0l-.047-.312c1.16-.159,68.865,0,71.752,0Z" transform="translate(-1.277 -123.04)"/><rect class="f" width="95.018" height="0.312" transform="translate(0 30.628)"/><path class="g" d="M6.249,290.147l-.031-2.441a5.266,5.266,0,0,1,2.4-4.442,6.34,6.34,0,0,1,5.342-.776l3.145.935a6.212,6.212,0,0,0,6.583-1.933l7.236-9.009a6.077,6.077,0,0,1,4.531-2.192,6.159,6.159,0,0,1,4.695,1.88l5.032,5.359a6.213,6.213,0,0,0,5.574,1.787,5.775,5.775,0,0,0,4.471-3.536l7.211-18.994c2.187-5.755,11.477-4.314,11.477,1.78v31.27Z" transform="translate(-4.103 -174.23)"/><path class="h" d="M147.675,183.31h.088l-.112-.062-26.524-70.627C118.407,105.572,112.34,98,102.82,98l.14.059c-8.44,0-15.9,7.837-18.414,15.222l-16.77,49.345L63.8,173.893a3.708,3.708,0,0,1-2.2,2.191,4.215,4.215,0,0,1-3.244-.1l-2.38-1.091a4.164,4.164,0,0,0-4.5.67l-2.72,2.494a4.106,4.106,0,0,1-3.126,1.03,3.967,3.967,0,0,1-2.855-1.556l-2.5-3.392a3.988,3.988,0,0,0-3.036-1.568,4.063,4.063,0,0,0-3.19,1.284l-5.236,5.789a4.112,4.112,0,0,1-3.975,1.178l-4.057-.963a4.2,4.2,0,0,0-3,.405l-5.441,3.039H146.8l.915.107Z" transform="translate(-8.15 -67.446)"/><path class="g" d="M266.586,247.724l-4.152,20.241a5.776,5.776,0,0,1-4.471,3.526,6.214,6.214,0,0,1-5.568-1.784l-5.033-5.359a6.158,6.158,0,0,0-4.695-1.88,6.077,6.077,0,0,0-4.531,2.192L230.9,273.67a6.212,6.212,0,0,1-6.583,1.933l-3.145-.935a6.343,6.343,0,0,0-5.331.785,5.269,5.269,0,0,0-2.4,4.433l.03,2.129,76.21.364-11.3-34.968C275.662,237.748,266.481,242.113,266.586,247.724Z" transform="translate(-140.857 -166.357)"/><path class="i" d="M295,6.08,286.2,34.9l.456.115,8.8-28.817Z" transform="translate(-188.876 -4.181)"/><path class="j" d="M304.418,8.79s6.988,1.066,4.985,2.566,8.518,4.1,8.518,4.1a34.574,34.574,0,0,0-4.438,3.685c-1.646,2.011-8.005-1.973-6.607-3.22,2.4-2.135-4.7.2-4.7.2Z" transform="translate(-199.423 -6.047)"/><path class="i" d="M106.8,136.128l-.255-.206,1.5-1.587a9.79,9.79,0,0,1,7.005-3.1,3.182,3.182,0,0,0,3.061-2.048L141.566,63a7.786,7.786,0,0,1,7.141-4.947L178.414,57v.312l-29.686,1.057a7.452,7.452,0,0,0-6.822,4.732l-23.465,66.182a3.518,3.518,0,0,1-3.4,2.263,9.425,9.425,0,0,0-6.747,3Z" transform="translate(-70.31 -39.228)"/><path class="k" d="M274.9,53.282a3.472,3.472,0,0,1-2.448-.162" transform="translate(-179.802 -36.557)"/><path class="l" d="M264.38,27.583l-1.53-.293Z" transform="translate(-173.466 -18.779)"/><path class="m" d="M244.338,113.58a.589.589,0,0,1-.459.486,12.158,12.158,0,0,1-5.822.246.232.232,0,0,1-.147-.11.2.2,0,0,1-.01-.174,9.7,9.7,0,0,0,2.721.234A8.68,8.68,0,0,0,244.338,113.58Z" transform="translate(-156.991 -78.169)"/><path class="k" d="M109.8,236.326a3.427,3.427,0,0,0,2.381-.586" transform="translate(-72.462 -162.248)"/><path class="n" d="M179.766,254.253a.168.168,0,0,1-.119-.043,2.564,2.564,0,0,1-.745-1.107.146.146,0,0,1,.028-.163.18.18,0,0,1,.171-.05.163.163,0,0,1,.124.119,2.3,2.3,0,0,0,.656.976.147.147,0,0,1,.04.17.17.17,0,0,1-.156.1Z" transform="translate(-118.057 -174.048)"/><path class="n" d="M181.654,252.556h-.041a.883.883,0,0,1-.68-1.091.174.174,0,0,1,.214-.1.155.155,0,0,1,.112.2.5.5,0,0,0,.061.428.6.6,0,0,0,.37.268.161.161,0,0,1,.152.173.168.168,0,0,1-.189.139Z" transform="translate(-119.383 -172.994)"/><path class="o" d="M92.654,257.7l-12.514-3.2.9-2.958,12.514,3.2Z" transform="translate(-52.888 -173.129)"/><path class="p" d="M304.307,102.633l1.6,1.421a.521.521,0,0,0,.6.05,1.189,1.189,0,0,0,.459-.53.412.412,0,0,0-.092-.464l-1.6-1.537a.5.5,0,0,0-.405-.141.484.484,0,0,0-.363.216l-.282.446A.41.41,0,0,0,304.307,102.633Z" transform="translate(-200.726 -69.807)"/><path class="q" d="M266.592,57.12s1.9,5.8,3.125,8.352a12.429,12.429,0,0,1,3.4.973c1.3.689,4.138,4.539,4.138,4.539s-.721,1.278-1.6,1.481l-8-5.025-6.424-6.755.279-3.155Z" transform="translate(-172.397 -39.31)"/><path class="r" d="M302.907,111.68a.576.576,0,0,1-.418.513,12.044,12.044,0,0,1-5.781.623.235.235,0,0,1-.153-.1.2.2,0,0,1-.023-.171,9.683,9.683,0,0,0,2.72.05A8.521,8.521,0,0,0,302.907,111.68Z" transform="translate(-195.687 -76.862)"/><path class="s" d="M301.958,106.54a1.978,1.978,0,0,1,1.02,1.593h0a8.729,8.729,0,0,1-3.649.935,9.682,9.682,0,0,1-2.72-.05c0-.037.047-.062.065-.107.238-.667,2.088-.415,3.979-1.6C301,107.07,301.646,107.307,301.958,106.54Z" transform="translate(-195.745 -73.324)"/><path class="n" d="M305.115,110.333a.165.165,0,0,1-.167-.14.25.25,0,0,0-.15-.181.308.308,0,0,0-.248-.021.175.175,0,0,1-.206-.082.149.149,0,0,1,.064-.2.687.687,0,0,1,.559.028.587.587,0,0,1,.319.422.16.16,0,0,1-.15.171Z" transform="translate(-200.84 -75.474)"/><path class="n" d="M302.471,111.168a.17.17,0,0,1-.163-.1.35.35,0,0,0-.391-.175.182.182,0,0,1-.173-.028.149.149,0,0,1-.054-.153.163.163,0,0,1,.122-.116.7.7,0,0,1,.82.364.153.153,0,0,1-.1.2Z" transform="translate(-199.094 -76.098)"/><path class="t" d="M243.493,108.076a1.956,1.956,0,0,1,.881,1.659h0a8.725,8.725,0,0,1-3.713.683,9.7,9.7,0,0,1-2.72-.234.28.28,0,0,1,.071-.1c.558-.477,3.142-.935,4.047-1.923C242.466,107.714,242.993,108.381,243.493,108.076Z" transform="translate(-157.027 -74.33)"/><path class="u" d="M249.709,103.478l.167,1.15a.463.463,0,0,0,.432.38,1.353,1.353,0,0,0,.721-.143.443.443,0,0,0,.249-.418l-.089-1.247a.434.434,0,0,0-.219-.342.517.517,0,0,0-.431-.041l-.524.181a.437.437,0,0,0-.306.48Z" transform="translate(-164.79 -70.742)"/><path class="n" d="M246.685,111.352a.174.174,0,0,1-.16-.1,2.3,2.3,0,0,0-.724-.935.15.15,0,0,1-.062-.1.143.143,0,0,1,.039-.114.184.184,0,0,1,.241-.019,2.623,2.623,0,0,1,.826,1.06.142.142,0,0,1,0,.119.163.163,0,0,1-.1.081.144.144,0,0,1-.061.012Z" transform="translate(-162.174 -75.736)"/><path class="n" d="M244.347,112.509h-.027a.173.173,0,0,1-.111-.064.146.146,0,0,1-.029-.117.525.525,0,0,0-.126-.418.6.6,0,0,0-.4-.218.163.163,0,0,1-.153-.171.174.174,0,0,1,.187-.14.986.986,0,0,1,.642.342.83.83,0,0,1,.187.659.163.163,0,0,1-.165.128Z" transform="translate(-160.693 -76.656)"/><path class="v" d="M248.131,55.6l.554,1.59s-.467,4.177-6.226,3.523S236,59.191,236,59.191s9.359,9.832,3.1,13.074a3.3,3.3,0,0,1-1.173-1.4L233.42,57.6c0-1.247,1.19-1.7,2.309-1.559a65.931,65.931,0,0,0,7.8.661Z" transform="translate(-154.044 -38.264)"/><path class="f" d="M247.038,17.6a11.967,11.967,0,0,1,6.043,2.21,19.389,19.389,0,0,0-1.918,2.263,7.007,7.007,0,0,0-2.721-1.247c.65,3.429,2.4,6.44,3.778,9.287a.308.308,0,0,1,0,.266.352.352,0,0,1-.21.183c-1.047.342-4.131,1.16-6.621-.112l-5.549-7.17a5.929,5.929,0,0,1-1.153-2.6l.68-1.309A14.246,14.246,0,0,1,247.038,17.6Z" transform="translate(-157.522 -12.079)"/><path class="w" d="M248.611,11.63l1.455,2.569a.4.4,0,0,1-.065.48,2.465,2.465,0,0,1-2.59.533.412.412,0,0,1-.3-.312l-.391-2.338Z" transform="translate(-162.821 -8.001)"/><path class="x" d="M240.59,5.616a10.934,10.934,0,0,0,.833,2.721c.493.814.68,1.428,1.772,1.007a2.268,2.268,0,0,0,1.52-2.41s-.132-1.618-.636-2.02S240.59,5.616,240.59,5.616Z" transform="translate(-158.776 -3.319)"/><path class="y" d="M241.45,11.31a9.353,9.353,0,0,1,0,1.421l.871-.128c-.242-.393-.483-.786-.728-1.178" transform="translate(-159.343 -7.781)"/><path class="z" d="M235.838,1.933a1.061,1.061,0,0,1,.17-.7.067.067,0,0,1,.034-.025.739.739,0,0,1,.1-.131,1.63,1.63,0,0,1,1.874-.39,1.019,1.019,0,0,1,.262.178C239.582.4,240.653.4,241.2,1.139a.084.084,0,0,0,.07.036.083.083,0,0,0,.07-.036c.055-.1.184-.212.48-.178.517.062.847.813.5,1.8a.067.067,0,0,0,.009.065.08.08,0,0,0,.063.031c.191,0,.52.072.184.623a1.966,1.966,0,0,1-.932.851.085.085,0,0,1-.062,0,.075.075,0,0,1-.043-.041l-.314-.776a.076.076,0,0,0-.05-.044.084.084,0,0,0-.069.01l-.252.147h-.075a.171.171,0,0,1-.124-.03.143.143,0,0,1-.06-.1c-.034-.312-.156-1.054-.6-.979-.571.1-2.6.813-3.4.455a1.243,1.243,0,0,1-.4-.28V2.81a1.321,1.321,0,0,1-.346-.876Z" transform="translate(-155.635 -0.371)"/><path class="aa" d="M250.551,8.469s-.394-1.113.258-1.119.5,1.213.153,1.468Z" transform="translate(-165.272 -5.055)"/><path class="ab" d="M253.883,17.27a.635.635,0,0,1,.548.658,1.011,1.011,0,0,1-.5.751c-.272.175-.891.492-.891.492s1.02,9.68,8.841,12.354c1.153.393,4.509-3.451,4.509-3.451s-4.213.455-5.934-1.49c-.894-1.013-2.084-5.2-2.084-5.2s8.114,4.053,7.774,7.482c-.027.29,1.36-.623,1.36-.623s.34-4.053-4.761-8.417C259.192,16.759,253.883,17.27,253.883,17.27Z" transform="translate(-166.992 -11.861)"/><path class="ac" d="M291.07,55.8a.6.6,0,0,0,.49-.243,1.51,1.51,0,0,0,.225-.49l.245-.77a3.388,3.388,0,0,0,.938,1.11,2.223,2.223,0,0,0,.929.436.158.158,0,0,0,.157-.066.131.131,0,0,0-.01-.158,4.65,4.65,0,0,0-.986-.935c.37.44,1.047,1,1.292.679.132-.168-.473-.564-.915-.8l.765.411c.119.065.156-.021.245-.119-.023-.249-.68-.521-1.091-.854l.955.623c.1-.109-.021-.265-.129-.362a8.9,8.9,0,0,1-1.574-1.8c-.612.536-1.073.408-1.143,1.194A12.175,12.175,0,0,1,291.07,55.8Z" transform="translate(-192.09 -36.109)"/><path class="f" d="M290.85,53.069a.165.165,0,0,1-.167-.143.143.143,0,0,1,.038-.114.171.171,0,0,1,.115-.055,3.866,3.866,0,0,0,1.758-.842.182.182,0,0,1,.237.007.148.148,0,0,1,0,.218,4.236,4.236,0,0,1-1.966.935Z" transform="translate(-191.834 -35.702)"/><path class="ad" d="M208.292,62.744a.539.539,0,0,1-.309-.428,1.467,1.467,0,0,1,.054-.527q.087-.393.177-.786a3.749,3.749,0,0,1-1.4.578,2.456,2.456,0,0,1-1.5-.193,7.061,7.061,0,0,1,1.789-.486,2.4,2.4,0,0,1-1.765,0,5.045,5.045,0,0,1,1.494-.28l-.887.034c-.136,0-.313-.016-.34-.137l1.591-.355-1.163.137c-.03-.137.153-.224.3-.262a11.589,11.589,0,0,0,2.465-.963c.265.736.582.873.241,1.6A11.889,11.889,0,0,0,208.292,62.744Z" transform="translate(-135.5 -40.657)"/><path class="ae" d="M222.035,21.526c-.467.72-3.061,8.729-7.821,10.911-.517.237,1.02,1.247,1.02,1.247s3.4-.935,7.141-4.988a17.66,17.66,0,0,0,1.592-2.7,17.085,17.085,0,0,1,1.745,3.713,4.122,4.122,0,0,1,.173,2.453l2.194.4s-1.428-3.429-2.234-6.147-.8-3.292-.19-5.013l-.476-1" transform="translate(-141.299 -14.041)"/><path class="f" d="M214.933,59.818a.2.2,0,0,1-.1-.025,2.67,2.67,0,0,1-1.265-1.319c-.044-.093-.1-.193-.153-.312a.145.145,0,0,1,0-.166.176.176,0,0,1,.162-.073.168.168,0,0,1,.143.1c.061.112.112.215.16.312a2.353,2.353,0,0,0,1.144,1.188.151.151,0,0,1,.047.218A.173.173,0,0,1,214.933,59.818Z" transform="translate(-140.828 -39.863)"/><path class="af" d="M249.563,24.156l.537-.733-1.4-.069.258,1.225a9.034,9.034,0,0,0,2.72,4.6A37.854,37.854,0,0,0,256,31.585l2.4-.109-1.058-1.718q-1.984-.83-3.87-1.84c-1.2-.739-3.125-1.665-3.846-3.429A2.116,2.116,0,0,1,249.563,24.156Z" transform="translate(-164.128 -16.071)"/><path class="f" d="M252.685,18.991a.18.18,0,0,1-.215-.111.16.16,0,0,1,.114-.2,2.59,2.59,0,0,0,1.132-.733.907.907,0,0,0,.129-.789.494.494,0,0,0-.34-.293.153.153,0,0,1-.1-.194.173.173,0,0,1,.206-.1.829.829,0,0,1,.564.48,1.213,1.213,0,0,1-.16,1.063,2.834,2.834,0,0,1-1.272.876Z" transform="translate(-166.613 -11.397)"/><path class="f" d="M246.856,21.419a.181.181,0,0,1-.112-.037,1.411,1.411,0,0,1-.544-1.119.167.167,0,0,1,.17-.153h0a.163.163,0,0,1,.167.159,1.111,1.111,0,0,0,.425.876.149.149,0,0,1,.059.106.144.144,0,0,1-.042.112.165.165,0,0,1-.122.056Z" transform="translate(-162.478 -13.838)"/><path class="ag" d="M86.636,295a.534.534,0,0,0-.14.623,10.2,10.2,0,0,0,3.339,4.365.251.251,0,0,0,.183.04.236.236,0,0,0,.157-.1,8.644,8.644,0,0,1-1.86-1.84A6.9,6.9,0,0,1,86.636,295Z" transform="translate(-57.052 -203.034)"/><path class="ah" d="M88.979,293.64a2.346,2.346,0,0,0-1.979.371h0a7.184,7.184,0,0,0,1.676,3.117,8.641,8.641,0,0,0,1.86,1.84.21.21,0,0,0,.044-.115C90.679,297.883,88.615,297.179,88.979,293.64Z" transform="translate(-57.415 -202.045)"/><path class="ai" d="M91.391,290.681l-.738.935a.5.5,0,0,1-.575.153,1.223,1.223,0,0,1-.56-.436.412.412,0,0,1,0-.474l.711-1.06a.487.487,0,0,1,.368-.207.5.5,0,0,1,.4.148l.371.387A.417.417,0,0,1,91.391,290.681Z" transform="translate(-59.028 -199.31)"/><path class="n" d="M91.462,302.2a.128.128,0,0,1,.071-.065,1.054,1.054,0,0,1,.728-.091.136.136,0,0,1,.088.048.114.114,0,0,1,.024.092.141.141,0,0,1-.153.109.792.792,0,0,0-.6.075.14.14,0,0,1-.145-.033.113.113,0,0,1-.018-.136Z" transform="translate(-60.35 -207.866)"/><path class="n" d="M92.291,303.884l.017-.025a.761.761,0,0,1,.524-.249c.208-.019.221.025.361.147a.123.123,0,0,1,0,.178.145.145,0,0,1-.191,0c-.085-.075-.023-.094-.156-.084a.488.488,0,0,0-.34.159.14.14,0,0,1-.184.037.116.116,0,0,1-.041-.168Z" transform="translate(-60.886 -208.957)"/><path class="aj" d="M98.3,239.48s-.68,6.029-1.333,8.729a12.033,12.033,0,0,0-3.149,1.559c-1.142.913-3.118,5.178-3.118,5.178s.976,1.129,1.884,1.172l6.828-6.335,4.9-7.753-.929-3.03Z" transform="translate(-59.857 -164.491)"/><path class="ak" d="M178.09,252.774a.652.652,0,0,0,.68-.2,9.942,9.942,0,0,0,2.5-4.826.2.2,0,0,0-.052-.165.24.24,0,0,0-.169-.075,9.953,9.953,0,0,1-2.962,5.265Z" transform="translate(-117.529 -170.348)"/><path class="al" d="M174.17,251.376a2.077,2.077,0,0,0,1.326,1.387h0a7.468,7.468,0,0,0,2.125-2.874,7.656,7.656,0,0,0,.823-2.391.275.275,0,0,0-.129.021c-.68.287-2.149,2.294-3.5,2.672C174.2,250.369,174.67,251.083,174.17,251.376Z" transform="translate(-114.942 -170.34)"/><path class="am" d="M170.787,254.351l1.092.586a.424.424,0,0,1,.214.511,1.131,1.131,0,0,1-.425.552.508.508,0,0,1-.514.05l-1.211-.555a.446.446,0,0,1-.259-.318.416.416,0,0,1,.127-.38l.384-.371a.508.508,0,0,1,.592-.075Z" transform="translate(-111.978 -175.014)"/><path class="n" d="M179.766,254.253a.168.168,0,0,1-.119-.043,2.564,2.564,0,0,1-.745-1.107.146.146,0,0,1,.028-.163.18.18,0,0,1,.171-.05.163.163,0,0,1,.124.119,2.3,2.3,0,0,0,.656.976.147.147,0,0,1,.04.17.17.17,0,0,1-.156.1Z" transform="translate(-118.057 -174.048)"/><path class="n" d="M181.654,252.556h-.041a.883.883,0,0,1-.68-1.091.174.174,0,0,1,.214-.1.155.155,0,0,1,.112.2.5.5,0,0,0,.061.428.6.6,0,0,0,.37.268.161.161,0,0,1,.152.173.168.168,0,0,1-.189.139Z" transform="translate(-119.383 -172.994)"/><path class="an" d="M112.684,234.787l-.214,1.658s1.326,4.018,6.828,2.357,6.039-2.628,6.039-2.628.044,2.706,6.859,4.795a3.136,3.136,0,0,0,.86-1.58L127.4,233.6a2.059,2.059,0,0,0-2.448-.536,64.342,64.342,0,0,1-7.519,2.011Z" transform="translate(-74.224 -160.278)"/><path class="f" d="M108.442,198.595a10.69,10.69,0,0,0-5.472,3.231,19.925,19.925,0,0,1,2.357,1.871,6.669,6.669,0,0,1,2.4-1.693c.075,3.485-1.02,6.739-1.779,9.773a.314.314,0,0,0,.053.264.372.372,0,0,0,.246.145c1.1.15,4.294.411,6.461-1.269l3.951-8.021a5.736,5.736,0,0,0,.6-2.75l-.8-1.247A21.126,21.126,0,0,0,108.442,198.595Z" transform="translate(-67.954 -136.487)"/><path class="ao" d="M126.887,191.17l-.894,2.774a.4.4,0,0,0,.163.458,2.4,2.4,0,0,0,2.625.143.541.541,0,0,0,.258-.44l-.105-2.363Z" transform="translate(-83.136 -131.572)"/><path class="ap" d="M127.86,180.44a11.125,11.125,0,0,1,1.428,2.494c.242.895.578,1.462-.537,1.845a2.635,2.635,0,0,1-2.911-.8s-1.112-1.262-1.044-1.871S127.86,180.44,127.86,180.44Z" transform="translate(-82.357 -124.187)"/><path class="aq" d="M135.89,183.9a10.639,10.639,0,0,0,1.058,1.041l-.731.452c-.117-.436-.2-1.05-.316-1.487" transform="translate(-89.68 -126.568)"/><path class="z" d="M125.525,174.459a1.227,1.227,0,0,0-.646-.4h-.044a1.425,1.425,0,0,0-.166-.034,1.557,1.557,0,0,0-1.643.9.866.866,0,0,0-.058.312c-1.3.483-2.085,1.157-1.928,2.036a.068.068,0,0,1-.027.072.084.084,0,0,1-.082.01.43.43,0,0,0-.48.171c-.34.368,0,1.122.98,1.618a.076.076,0,0,1,.043.055.071.071,0,0,1-.022.064c-.136.119-.34.377.34.57a2.215,2.215,0,0,0,1.316.034.073.073,0,0,0,.044-.1l-.34-.761a.066.066,0,0,1,0-.064.078.078,0,0,1,.058-.036l.3-.053.061-.037a.146.146,0,0,0,.067-.1.138.138,0,0,0-.033-.113c-.221-.259-.68-.867-.3-1.091.49-.29,2.5-1.041,2.812-1.8a1.038,1.038,0,0,0,.082-.455A1.72,1.72,0,0,0,125.525,174.459Z" transform="translate(-79.406 -119.761)"/><path class="ar" d="M126.617,188.355s-.541-1.06-1.02-.655.537,1.2.986,1.166Z" transform="translate(-82.804 -129.121)"/><path class="as" d="M161.469,199.108l-.83.293a4.719,4.719,0,0,0,1.316-.7,2.365,2.365,0,0,0-.908.112,6.382,6.382,0,0,0,.769-.567,2.429,2.429,0,0,0-1.486.256,3.474,3.474,0,0,0-1.122.957l-.105-.8a1.508,1.508,0,0,0-.136-.513.587.587,0,0,0-.439-.312,11.983,11.983,0,0,1,0,2.182,1.586,1.586,0,0,0,0,.39c-1.918,1.69-3.261,2.182-4.883,1.721a5.289,5.289,0,0,0-.741,3.008c3.877.661,6.437-3.46,6.781-4.053a10.776,10.776,0,0,1,1.619-1.262c.126-.081.272-.215.194-.337l-1.054.474,1.384-.8C161.772,199.031,161.6,199.062,161.469,199.108Z" transform="translate(-100.902 -136.156)"/><path class="at" d="M137.558,199.172c.6.623,2.612,3.214,4.213,3.5,2.476.449,3.5-.749,3.5-.749l1.268,1.531a5.665,5.665,0,0,1-7.651,1.462,7.031,7.031,0,0,1-1.307-.935,16.6,16.6,0,0,0-.942,3.943,4.172,4.172,0,0,0,.34,2.441l-2.067.773s.68-3.607.91-6.425.109-3.37-.853-4.953l.262-1.066" transform="translate(-89.036 -136.753)"/><path class="f" d="M166.538,210.395a.171.171,0,0,1-.14-.069,12.892,12.892,0,0,0-1.163-1.378c-.109-.115-.2-.212-.282-.312a.148.148,0,0,1,.038-.21.181.181,0,0,1,.231.02c.078.093.167.184.272.293a13.207,13.207,0,0,1,1.183,1.409.142.142,0,0,1,.027.116.152.152,0,0,1-.072.1.169.169,0,0,1-.1.031Z" transform="translate(-108.841 -143.427)"/><path class="au" d="M107.25,200.078a4.965,4.965,0,0,1-.966-.2,1.062,1.062,0,0,1-.65-.648c-.078-.312-.044-.717.272-.81,0,0-5.353.112-8.192,3.741-2.469,3.152-.813,6.892-.184,8.071h0c.065.119.117.212.153.274h0a.627.627,0,0,0,.041.062h0v.019l.289-.053a7.712,7.712,0,0,0,1.228-.312l.1-.05a.228.228,0,0,0,.105-.1.046.046,0,0,0,0-.047c-.068-.112-.129-.221-.187-.33l-.041-.078c-.051-.107-.1-.212-.143-.312l-.017-.037c-.037-.1-.068-.19-.1-.284l-.02-.075c-.031-.1-.054-.2-.075-.3v-.062c0-.084-.027-.165-.034-.249v-.349a.56.56,0,0,1,0-.075v-.293a1.332,1.332,0,0,1,.041-.256.742.742,0,0,1,0-.084q.02-.1.051-.206v-.062q.037-.115.082-.234a.245.245,0,0,1,.034-.09,7.815,7.815,0,0,1,3.4-3.345s-.3,4.311-.966,5.462c-1.283,2.211-5.517,2.494-5.517,2.494s4.081,3.2,5.145,2.615C108.28,209.886,107.25,200.078,107.25,200.078Z" transform="translate(-63.328 -136.562)"/><path class="av" d="M85.439,257.343,79.975,254.9a2.416,2.416,0,0,1-.452-.312l-1.19,3.912a1.027,1.027,0,0,0,.779,1.266l10.365,2.647a1.138,1.138,0,0,0,1.381-.714l1.2-3.928a3.5,3.5,0,0,1-.565.059l-6.049-.5Z" transform="translate(-51.668 -175.221)"/><path class="aw" d="M94.318,246.369l-11.351-2.9-.082-.021a1.138,1.138,0,0,0-1.381.714l-.493,1.615a.859.859,0,0,0,.34.966,2.421,2.421,0,0,0,.452.312l5.461,2.438,6.053.505a3.1,3.1,0,0,0,.56-.062l.772-2.538A.973.973,0,0,0,94.318,246.369Z" transform="translate(-53.436 -167.527)"/><path class="ax" d="M97.376,261.5l-2.017-.513.707-2.329,2.017.518Z" transform="translate(-62.932 -178.02)"/><path class="ay" d="M98.114,262.18l-1.234-.315.432-1.425,1.234.315-.432,1.425Z" transform="translate(-63.935 -179.248)"/><path class="az" d="M96.842,245.908l-.782-.2.061-.206.782.2Z" transform="translate(-63.394 -168.965)"/><path class="j" d="M109.445,249.424l-.786-.2.061-.206.786.2Z" transform="translate(-71.709 -171.387)"/><path class="az" d="M99.371,242.708c-1.36-.342-2.632,0-2.871.8l.6.153c.18-.589,1.146-.857,2.16-.6s1.7.935,1.51,1.537l.605.153c.238-.782-.66-1.7-2.007-2.042Z" transform="translate(-63.684 -166.953)"/><path class="ba" d="M118.491,203.645l-.68-.623,1.36-.312v1.247a8.686,8.686,0,0,1-1.7,4.988,35.1,35.1,0,0,1-3.741,3.117l-2.381.312.68-1.87q1.768-1.168,3.4-2.494c1.02-.935,2.72-2.182,3.06-4.053A2.288,2.288,0,0,0,118.491,203.645Z" transform="translate(-73.485 -139.514)"/><path class="bb" d="M105.645,237.726a.618.618,0,0,1-.527.159,1.86,1.86,0,0,1-.544-.187l-.779-.364a3.007,3.007,0,0,1,.235,1.387,1.807,1.807,0,0,1-.289.92.159.159,0,0,1-.16.06.146.146,0,0,1-.119-.116,4.071,4.071,0,0,1-.065-1.3c.092.549.071,1.381-.34,1.331-.225-.028-.123-.708,0-1.163-.065.265-.133.53-.2.8-.03.122-.126.087-.262.081-.184-.187.054-.813.071-1.316l-.163,1.066c-.153,0-.194-.193-.2-.334a9.238,9.238,0,0,0-.34-2.435c.847-.04.887-.436,1.4-.125A22.288,22.288,0,0,0,105.645,237.726Z" transform="translate(-67.294 -162.473)"/><path class="f" d="M100.691,235.776a.156.156,0,1,1,0-.312,3.965,3.965,0,0,0,1.87-.6.177.177,0,0,1,.238,0,.147.147,0,0,1,0,.221,4.322,4.322,0,0,1-2.081.676Z" transform="translate(-66.345 -161.612)"/><path class="f" d="M134.529,199.616a.193.193,0,0,1-.092-.025.151.151,0,0,1-.054-.215,1.064,1.064,0,0,0,.133-.935.154.154,0,0,1,.109-.2.177.177,0,0,1,.214.1,1.35,1.35,0,0,1-.167,1.213A.184.184,0,0,1,134.529,199.616Z" transform="translate(-88.669 -136.436)"/><path class="f" d="M126.42,199.556h-.02a2.928,2.928,0,0,1-1.432-.642,1.117,1.117,0,0,1-.34-.848,1.009,1.009,0,0,1,.4-.727.175.175,0,0,1,.165-.042.158.158,0,0,1,.117.115.145.145,0,0,1-.057.148.7.7,0,0,0-.289.511.831.831,0,0,0,.258.623,2.66,2.66,0,0,0,1.268.549.158.158,0,0,1,.119.193.15.15,0,0,1-.07.1.176.176,0,0,1-.124.022Z" transform="translate(-82.247 -135.783)"/></g></g></g></g><g class="bc" transform="translate(616 500)"><path class="bd" d="M84,0A84,84,0,1,1,0,84,84,84,0,0,1,84,0Z"/><path class="bf" d="M 84 2 C 78.43508911132813 2 72.87427520751953 2.560516357421875 67.47202301025391 3.665969848632813 C 62.20806884765625 4.743133544921875 57.03029632568359 6.35040283203125 52.08249664306641 8.443130493164063 C 47.22409057617188 10.49806213378906 42.53802490234375 13.04161071777344 38.15440368652344 16.00311279296875 C 33.81193542480469 18.93684387207031 29.72840881347656 22.30606079101563 26.01724243164063 26.01724243164063 C 22.30606079101563 29.72840881347656 18.93684387207031 33.81193542480469 16.00311279296875 38.15440368652344 C 13.04161071777344 42.53802490234375 10.49806213378906 47.22409057617188 8.443130493164063 52.08249664306641 C 6.35040283203125 57.03029632568359 4.743133544921875 62.20806884765625 3.665969848632813 67.47202301025391 C 2.560516357421875 72.87427520751953 2 78.43508911132813 2 84 C 2 89.56491088867188 2.560516357421875 95.12572479248047 3.665969848632813 100.5279769897461 C 4.743133544921875 105.7919311523438 6.35040283203125 110.9697036743164 8.443130493164063 115.9174957275391 C 10.49806213378906 120.7759094238281 13.04161071777344 125.4619750976563 16.00311279296875 129.8455963134766 C 18.93684387207031 134.1880645751953 22.30606079101563 138.2715911865234 26.01724243164063 141.9827575683594 C 29.72840881347656 145.6939392089844 33.81193542480469 149.0631561279297 38.15440368652344 151.9968872070313 C 42.53802490234375 154.9583892822266 47.22409057617188 157.5019378662109 52.08249664306641 159.5568695068359 C 57.03029632568359 161.6495971679688 62.20806884765625 163.2568664550781 67.47202301025391 164.3340301513672 C 72.87427520751953 165.4394836425781 78.43508911132813 166 84 166 C 89.56491088867188 166 95.12572479248047 165.4394836425781 100.5279769897461 164.3340301513672 C 105.7919311523438 163.2568664550781 110.9697036743164 161.6495971679688 115.9174957275391 159.5568695068359 C 120.7759094238281 157.5019378662109 125.4619750976563 154.9583892822266 129.8455963134766 151.9968872070313 C 134.1880645751953 149.0631561279297 138.2715911865234 145.6939392089844 141.9827575683594 141.9827575683594 C 145.6939392089844 138.2715911865234 149.0631561279297 134.1880645751953 151.9968872070313 129.8455963134766 C 154.9583892822266 125.4619750976563 157.5019378662109 120.7759094238281 159.5568695068359 115.9174957275391 C 161.6495971679688 110.9697036743164 163.2568664550781 105.7919311523438 164.3340301513672 100.5279769897461 C 165.4394836425781 95.12572479248047 166 89.56491088867188 166 84 C 166 78.43508911132813 165.4394836425781 72.87427520751953 164.3340301513672 67.47202301025391 C 163.2568664550781 62.20806884765625 161.6495971679688 57.03029632568359 159.5568695068359 52.08249664306641 C 157.5019378662109 47.22409057617188 154.9583892822266 42.53802490234375 151.9968872070313 38.15440368652344 C 149.0631561279297 33.81193542480469 145.6939392089844 29.72840881347656 141.9827575683594 26.01724243164063 C 138.2715911865234 22.30606079101563 134.1880645751953 18.93684387207031 129.8455963134766 16.00311279296875 C 125.4619750976563 13.04161071777344 120.7759094238281 10.49806213378906 115.9174957275391 8.443130493164063 C 110.9697036743164 6.35040283203125 105.7919311523438 4.743133544921875 100.5279769897461 3.665969848632813 C 95.12572479248047 2.560516357421875 89.56491088867188 2 84 2 M 84 0 C 130.3919372558594 0 168 37.60806274414063 168 84 C 168 130.3919372558594 130.3919372558594 168 84 168 C 37.60806274414063 168 0 130.3919372558594 0 84 C 0 37.60806274414063 37.60806274414063 0 84 0 Z"/></g></g></svg>