<svg width="23" height="25" viewBox="0 0 23 25" fill="none" xmlns="http://www.w3.org/2000/svg">
<path d="M20.8577 13.5124C22.0409 12.2975 22.0409 10.3278 20.8577 9.1129C19.6746 7.89801 17.7564 7.89801 16.5732 9.1129L7.5282 18.4007C6.34507 19.6156 6.34507 21.5853 7.5282 22.8002C8.71133 24.0151 10.6296 24.0151 11.8127 22.8002L20.8577 13.5124Z" fill="url(#paint0_linear)"/>
<path d="M15.4718 6.59925C16.6549 5.38436 16.6549 3.41464 15.4718 2.19975C14.2887 0.984861 12.3704 0.984861 11.1873 2.19975L2.14225 11.4876C0.959122 12.7025 0.959122 14.6722 2.14225 15.8871C3.32538 17.102 5.24361 17.102 6.42674 15.8871L15.4718 6.59925Z" fill="url(#paint1_linear)"/>
<defs>
<linearGradient id="paint0_linear" x1="20.8577" y1="9.1129" x2="7.1752" y2="22.4378" gradientUnits="userSpaceOnUse">
<stop stop-color="#FC354C"/>
<stop offset="1" stop-color="#1863F9"/>
</linearGradient>
<linearGradient id="paint1_linear" x1="15.4718" y1="2.19975" x2="1.78926" y2="15.5246" gradientUnits="userSpaceOnUse">
<stop stop-color="#FC354C"/>
<stop offset="1" stop-color="#1863F9"/>
</linearGradient>
</defs>
</svg>
