<svg width="272" height="57" viewBox="0 0 272 57" fill="none" xmlns="http://www.w3.org/2000/svg">
<path d="M67.7221 20.07L56.8861 20.106V44.55H67.7221C75.3541 44.55 80.6461 39.402 80.6461 32.274C80.6461 25.218 75.7861 20.034 67.7221 20.07ZM62.7901 25.542H67.7221C71.8981 25.542 74.6701 27.882 74.6701 32.274C74.6701 36.378 71.8261 39.078 67.7221 39.078H62.7901V25.542ZM95.8522 19.638C88.8322 19.638 83.2162 25.362 83.2162 32.31C83.2162 39.294 88.8322 44.982 95.8522 44.982C102.8 44.982 108.488 39.294 108.488 32.31C108.488 25.362 102.8 19.638 95.8522 19.638ZM95.8522 25.146C99.7762 25.146 103.016 28.35 103.016 32.31C103.016 36.306 99.7762 39.51 95.8522 39.51C91.8562 39.51 88.6162 36.306 88.6162 32.31C88.6162 28.35 91.8562 25.146 95.8522 25.146ZM142.531 20.07H135.943L127.447 38.034L118.915 20.07H112.363V44.55H118.267V32.058L124.135 44.55H130.723L136.591 32.058V44.55H142.531V20.07ZM153.88 20.07H147.976V44.55H153.88V20.07ZM183.271 20.07H177.331V35.01L164.947 20.07H159.007V44.55H164.947V29.574L177.331 44.55H183.271V20.07ZM208.242 44.55H214.542L204.03 20.07H197.442L186.966 44.55H193.23L194.85 40.734H206.658L208.242 44.55ZM196.902 35.91L200.79 26.766L204.606 35.91H196.902ZM235.747 20.07H212.419V25.542H221.095V44.55H227.071V25.542H235.747V20.07ZM239.769 20.07V44.55H258.525V39.078H245.673V34.866H256.401V29.754H245.673V25.542H258.525V20.07H239.769ZM265.412 37.926C263.54 37.926 261.956 39.546 261.956 41.526C261.956 43.398 263.54 44.982 265.412 44.982C267.392 44.982 269.012 43.398 269.012 41.526C269.012 39.546 267.392 37.926 265.412 37.926Z" fill="white"/>
<rect x="1.5" y="4.63586" width="9.93402" height="46.3845" rx="4.96701" stroke="white" stroke-width="3"/>
<rect x="8.78465" y="9.13215" width="9.93402" height="37.2409" rx="4.96701" transform="rotate(-44.8892 8.78465 9.13215)" stroke="white" stroke-width="3"/>
<rect x="34.782" y="21.8568" width="9.93402" height="36.766" rx="4.96701" transform="rotate(45 34.782 21.8568)" stroke="white" stroke-width="3"/>
</svg>
